<svg xmlns="http://www.w3.org/2000/svg" fill="none" viewBox="0 0 44 24" height="24" width="44">
<path fill-opacity="0.5" fill="#FF0000" d="M2 12C2 6.47715 6.47715 2 12 2H32C37.5228 2 42 6.47715 42 12V12C42 17.5228 37.5228 22 32 22H12C6.47715 22 2 17.5228 2 12V12Z"></path>
<path stroke-width="2" stroke-opacity="0.2" stroke="#FF0000" d="M32 1H12C5.92487 1 1 5.92487 1 12C1 18.0751 5.92487 23 12 23H32C38.0751 23 43 18.0751 43 12C43 5.92487 38.0751 1 32 1Z"></path>
<path fill="white" d="M16.1811 14.14C16.9491 13.476 17.5531 12.932 17.9931 12.508C18.4411 12.076 18.8131 11.628 19.1091 11.164C19.4051 10.7 19.5531 10.236 19.5531 9.772C19.5531 9.292 19.4371 8.916 19.2051 8.644C18.9811 8.372 18.6251 8.236 18.1371 8.236C17.6651 8.236 17.2971 8.388 17.0331 8.692C16.7771 8.988 16.6411 9.388 16.6251 9.892H15.3051C15.3291 8.98 15.6011 8.284 16.1211 7.804C16.6491 7.316 17.3171 7.072 18.1251 7.072C18.9971 7.072 19.6771 7.312 20.1651 7.792C20.6611 8.272 20.9091 8.912 20.9091 9.712C20.9091 10.288 20.7611 10.844 20.4651 11.38C20.1771 11.908 19.8291 12.384 19.4211 12.808C19.0211 13.224 18.5091 13.708 17.8851 14.26L17.3451 14.74H21.1491V15.88H15.3171V14.884L16.1811 14.14ZM27.9909 8.428H23.9709V10.816C24.1389 10.592 24.3869 10.404 24.7149 10.252C25.0509 10.1 25.4069 10.024 25.7829 10.024C26.4549 10.024 26.9989 10.168 27.4149 10.456C27.8389 10.744 28.1389 11.108 28.3149 11.548C28.4989 11.988 28.5909 12.452 28.5909 12.94C28.5909 13.532 28.4749 14.06 28.2429 14.524C28.0189 14.98 27.6789 15.34 27.2229 15.604C26.7749 15.868 26.2229 16 25.5669 16C24.6949 16 23.9949 15.784 23.4669 15.352C22.9389 14.92 22.6229 14.348 22.5189 13.636H23.8509C23.9389 14.012 24.1349 14.312 24.4389 14.536C24.7429 14.752 25.1229 14.86 25.5789 14.86C26.1469 14.86 26.5709 14.688 26.8509 14.344C27.1389 14 27.2829 13.544 27.2829 12.976C27.2829 12.4 27.1389 11.96 26.8509 11.656C26.5629 11.344 26.1389 11.188 25.5789 11.188C25.1869 11.188 24.8549 11.288 24.5829 11.488C24.3189 11.68 24.1269 11.944 24.0069 12.28H22.7109V7.228H27.9909V8.428Z"></path>
</svg>
