<svg xmlns="http://www.w3.org/2000/svg" fill="none" viewBox="0 0 480 360" height="360" width="480">
<path fill="black" d="M64.079 262.988H66.664V264H62.825V256.355H64.079V262.988ZM70.3417 264.099C69.7697 264.099 69.2527 263.971 68.7907 263.714C68.3287 263.45 67.9657 263.083 67.7017 262.614C67.4377 262.137 67.3057 261.587 67.3057 260.964C67.3057 260.348 67.4414 259.802 67.7127 259.325C67.984 258.848 68.3544 258.482 68.8237 258.225C69.293 257.968 69.8174 257.84 70.3967 257.84C70.976 257.84 71.5004 257.968 71.9697 258.225C72.439 258.482 72.8094 258.848 73.0807 259.325C73.352 259.802 73.4877 260.348 73.4877 260.964C73.4877 261.58 73.3484 262.126 73.0697 262.603C72.791 263.08 72.4097 263.45 71.9257 263.714C71.449 263.971 70.921 264.099 70.3417 264.099ZM70.3417 263.01C70.6644 263.01 70.965 262.933 71.2437 262.779C71.5297 262.625 71.7607 262.394 71.9367 262.086C72.1127 261.778 72.2007 261.404 72.2007 260.964C72.2007 260.524 72.1164 260.154 71.9477 259.853C71.779 259.545 71.5554 259.314 71.2767 259.16C70.998 259.006 70.6974 258.929 70.3747 258.929C70.052 258.929 69.7514 259.006 69.4727 259.16C69.2014 259.314 68.985 259.545 68.8237 259.853C68.6624 260.154 68.5817 260.524 68.5817 260.964C68.5817 261.617 68.7467 262.123 69.0767 262.482C69.414 262.834 69.8357 263.01 70.3417 263.01ZM77.1693 257.84C77.6387 257.84 78.053 257.935 78.4123 258.126C78.779 258.309 79.065 258.54 79.2703 258.819V257.939H80.5353V264.099C80.5353 264.656 80.418 265.151 80.1833 265.584C79.9487 266.024 79.6077 266.369 79.1603 266.618C78.7203 266.867 78.1923 266.992 77.5763 266.992C76.755 266.992 76.073 266.798 75.5303 266.409C74.9877 266.028 74.6797 265.507 74.6063 264.847H75.8493C75.9447 265.162 76.1463 265.415 76.4543 265.606C76.7697 265.804 77.1437 265.903 77.5763 265.903C78.0823 265.903 78.4893 265.749 78.7973 265.441C79.1127 265.133 79.2703 264.686 79.2703 264.099V263.087C79.0577 263.373 78.768 263.615 78.4013 263.813C78.042 264.004 77.6313 264.099 77.1693 264.099C76.6413 264.099 76.1573 263.967 75.7173 263.703C75.2847 263.432 74.94 263.058 74.6833 262.581C74.434 262.097 74.3093 261.551 74.3093 260.942C74.3093 260.333 74.434 259.794 74.6833 259.325C74.94 258.856 75.2847 258.493 75.7173 258.236C76.1573 257.972 76.6413 257.84 77.1693 257.84ZM79.2703 260.964C79.2703 260.546 79.1823 260.183 79.0063 259.875C78.8377 259.567 78.614 259.332 78.3353 259.171C78.0567 259.01 77.756 258.929 77.4333 258.929C77.1107 258.929 76.81 259.01 76.5313 259.171C76.2527 259.325 76.0253 259.556 75.8493 259.864C75.6807 260.165 75.5963 260.524 75.5963 260.942C75.5963 261.36 75.6807 261.727 75.8493 262.042C76.0253 262.357 76.2527 262.599 76.5313 262.768C76.8173 262.929 77.118 263.01 77.4333 263.01C77.756 263.01 78.0567 262.929 78.3353 262.768C78.614 262.607 78.8377 262.372 79.0063 262.064C79.1823 261.749 79.2703 261.382 79.2703 260.964ZM87.6688 264.099C87.0968 264.099 86.5798 263.971 86.1178 263.714C85.6558 263.45 85.2928 263.083 85.0288 262.614C84.7648 262.137 84.6328 261.587 84.6328 260.964C84.6328 260.348 84.7685 259.802 85.0398 259.325C85.3112 258.848 85.6815 258.482 86.1508 258.225C86.6202 257.968 87.1445 257.84 87.7238 257.84C88.3032 257.84 88.8275 257.968 89.2968 258.225C89.7662 258.482 90.1365 258.848 90.4078 259.325C90.6792 259.802 90.8148 260.348 90.8148 260.964C90.8148 261.58 90.6755 262.126 90.3968 262.603C90.1182 263.08 89.7368 263.45 89.2528 263.714C88.7762 263.971 88.2482 264.099 87.6688 264.099ZM87.6688 263.01C87.9915 263.01 88.2922 262.933 88.5708 262.779C88.8568 262.625 89.0878 262.394 89.2638 262.086C89.4398 261.778 89.5278 261.404 89.5278 260.964C89.5278 260.524 89.4435 260.154 89.2748 259.853C89.1062 259.545 88.8825 259.314 88.6038 259.16C88.3252 259.006 88.0245 258.929 87.7018 258.929C87.3792 258.929 87.0785 259.006 86.7998 259.16C86.5285 259.314 86.3122 259.545 86.1508 259.853C85.9895 260.154 85.9088 260.524 85.9088 260.964C85.9088 261.617 86.0738 262.123 86.4038 262.482C86.7412 262.834 87.1628 263.01 87.6688 263.01ZM97.5435 257.939V264H96.2895V263.285C96.0915 263.534 95.8312 263.732 95.5085 263.879C95.1932 264.018 94.8558 264.088 94.4965 264.088C94.0198 264.088 93.5908 263.989 93.2095 263.791C92.8355 263.593 92.5385 263.3 92.3185 262.911C92.1058 262.522 91.9995 262.053 91.9995 261.503V257.939H93.2425V261.316C93.2425 261.859 93.3782 262.277 93.6495 262.57C93.9208 262.856 94.2912 262.999 94.7605 262.999C95.2298 262.999 95.6002 262.856 95.8715 262.57C96.1502 262.277 96.2895 261.859 96.2895 261.316V257.939H97.5435ZM100.661 258.962V262.317C100.661 262.544 100.712 262.709 100.815 262.812C100.925 262.907 101.108 262.955 101.365 262.955H102.135V264H101.145C100.58 264 100.148 263.868 99.847 263.604C99.5464 263.34 99.396 262.911 99.396 262.317V258.962H98.681V257.939H99.396V256.432H100.661V257.939H102.135V258.962H100.661Z"></path>
</svg>
