<svg xmlns="http://www.w3.org/2000/svg" fill="none" viewBox="0 0 164 64" height="64" width="164">
<rect fill="#1A1A1A" rx="5" height="60" width="160" y="2" x="2"></rect>
<rect stroke-width="2" stroke-opacity="0.2" stroke="white" rx="6" height="62" width="162" y="1" x="1"></rect>
<path fill="white" d="M62.407 24.161C62.407 23.413 62.5793 22.742 62.924 22.148C63.276 21.554 63.749 21.092 64.343 20.762C64.9443 20.4247 65.6007 20.256 66.312 20.256C67.126 20.256 67.8483 20.4577 68.479 20.861C69.117 21.257 69.579 21.8217 69.865 22.555H68.358C68.16 22.1517 67.885 21.851 67.533 21.653C67.181 21.455 66.774 21.356 66.312 21.356C65.806 21.356 65.355 21.4697 64.959 21.697C64.563 21.9243 64.2513 22.2507 64.024 22.676C63.804 23.1013 63.694 23.5963 63.694 24.161C63.694 24.7257 63.804 25.2207 64.024 25.646C64.2513 26.0713 64.563 26.4013 64.959 26.636C65.355 26.8633 65.806 26.977 66.312 26.977C66.774 26.977 67.181 26.878 67.533 26.68C67.885 26.482 68.16 26.1813 68.358 25.778H69.865C69.579 26.5113 69.117 27.076 68.479 27.472C67.8483 27.868 67.126 28.066 66.312 28.066C65.5933 28.066 64.937 27.901 64.343 27.571C63.749 27.2337 63.276 26.768 62.924 26.174C62.5793 25.58 62.407 24.909 62.407 24.161ZM73.9618 28.099C73.3898 28.099 72.8728 27.9707 72.4108 27.714C71.9488 27.45 71.5858 27.0833 71.3218 26.614C71.0578 26.1373 70.9258 25.5873 70.9258 24.964C70.9258 24.348 71.0615 23.8017 71.3328 23.325C71.6041 22.8483 71.9745 22.4817 72.4438 22.225C72.9131 21.9683 73.4375 21.84 74.0168 21.84C74.5961 21.84 75.1205 21.9683 75.5898 22.225C76.0591 22.4817 76.4295 22.8483 76.7008 23.325C76.9721 23.8017 77.1078 24.348 77.1078 24.964C77.1078 25.58 76.9685 26.1263 76.6898 26.603C76.4111 27.0797 76.0298 27.45 75.5458 27.714C75.0691 27.9707 74.5411 28.099 73.9618 28.099ZM73.9618 27.01C74.2845 27.01 74.5851 26.933 74.8638 26.779C75.1498 26.625 75.3808 26.394 75.5568 26.086C75.7328 25.778 75.8208 25.404 75.8208 24.964C75.8208 24.524 75.7365 24.1537 75.5678 23.853C75.3991 23.545 75.1755 23.314 74.8968 23.16C74.6181 23.006 74.3175 22.929 73.9948 22.929C73.6721 22.929 73.3715 23.006 73.0928 23.16C72.8215 23.314 72.6051 23.545 72.4438 23.853C72.2825 24.1537 72.2018 24.524 72.2018 24.964C72.2018 25.6167 72.3668 26.1227 72.6968 26.482C73.0341 26.834 73.4558 27.01 73.9618 27.01ZM81.4055 21.84C81.8821 21.84 82.3075 21.939 82.6815 22.137C83.0628 22.335 83.3598 22.6283 83.5725 23.017C83.7851 23.4057 83.8915 23.875 83.8915 24.425V28H82.6485V24.612C82.6485 24.0693 82.5128 23.655 82.2415 23.369C81.9701 23.0757 81.5998 22.929 81.1305 22.929C80.6611 22.929 80.2871 23.0757 80.0085 23.369C79.7371 23.655 79.6015 24.0693 79.6015 24.612V28H78.3475V21.939H79.6015V22.632C79.8068 22.3827 80.0671 22.1883 80.3825 22.049C80.7051 21.9097 81.0461 21.84 81.4055 21.84ZM86.954 22.962V26.317C86.954 26.5443 87.0053 26.7093 87.108 26.812C87.218 26.9073 87.4013 26.955 87.658 26.955H88.428V28H87.438C86.8733 28 86.4407 27.868 86.14 27.604C85.8393 27.34 85.689 26.911 85.689 26.317V22.962H84.974V21.939H85.689V20.432H86.954V21.939H88.428V22.962H86.954ZM90.2218 21.136C89.9945 21.136 89.8038 21.059 89.6498 20.905C89.4958 20.751 89.4188 20.5603 89.4188 20.333C89.4188 20.1057 89.4958 19.915 89.6498 19.761C89.8038 19.607 89.9945 19.53 90.2218 19.53C90.4418 19.53 90.6288 19.607 90.7828 19.761C90.9368 19.915 91.0138 20.1057 91.0138 20.333C91.0138 20.5603 90.9368 20.751 90.7828 20.905C90.6288 21.059 90.4418 21.136 90.2218 21.136ZM90.8378 21.939V28H89.5838V21.939H90.8378ZM95.5422 21.84C96.0188 21.84 96.4442 21.939 96.8182 22.137C97.1995 22.335 97.4965 22.6283 97.7092 23.017C97.9218 23.4057 98.0282 23.875 98.0282 24.425V28H96.7852V24.612C96.7852 24.0693 96.6495 23.655 96.3782 23.369C96.1068 23.0757 95.7365 22.929 95.2672 22.929C94.7978 22.929 94.4238 23.0757 94.1452 23.369C93.8738 23.655 93.7382 24.0693 93.7382 24.612V28H92.4842V21.939H93.7382V22.632C93.9435 22.3827 94.2038 22.1883 94.5192 22.049C94.8418 21.9097 95.1828 21.84 95.5422 21.84ZM105.117 21.939V28H103.863V27.285C103.665 27.5343 103.404 27.7323 103.082 27.879C102.766 28.0183 102.429 28.088 102.07 28.088C101.593 28.088 101.164 27.989 100.783 27.791C100.409 27.593 100.112 27.2997 99.8917 26.911C99.6791 26.5223 99.5727 26.053 99.5727 25.503V21.939H100.816V25.316C100.816 25.8587 100.951 26.2767 101.223 26.57C101.494 26.856 101.864 26.999 102.334 26.999C102.803 26.999 103.173 26.856 103.445 26.57C103.723 26.2767 103.863 25.8587 103.863 25.316V21.939H105.117ZM112.326 24.821C112.326 25.0483 112.312 25.2537 112.282 25.437H107.651C107.688 25.921 107.868 26.3097 108.19 26.603C108.513 26.8963 108.909 27.043 109.378 27.043C110.053 27.043 110.53 26.7607 110.808 26.196H112.161C111.978 26.7533 111.644 27.2117 111.16 27.571C110.684 27.923 110.09 28.099 109.378 28.099C108.799 28.099 108.278 27.9707 107.816 27.714C107.362 27.45 107.002 27.0833 106.738 26.614C106.482 26.1373 106.353 25.5873 106.353 24.964C106.353 24.3407 106.478 23.7943 106.727 23.325C106.984 22.8483 107.34 22.4817 107.794 22.225C108.256 21.9683 108.784 21.84 109.378 21.84C109.95 21.84 110.46 21.9647 110.907 22.214C111.355 22.4633 111.703 22.8153 111.952 23.27C112.202 23.7173 112.326 24.2343 112.326 24.821ZM111.017 24.425C111.01 23.963 110.845 23.5927 110.522 23.314C110.2 23.0353 109.8 22.896 109.323 22.896C108.891 22.896 108.52 23.0353 108.212 23.314C107.904 23.5853 107.721 23.9557 107.662 24.425H111.017ZM117.881 22.962V26.317C117.881 26.5443 117.932 26.7093 118.035 26.812C118.145 26.9073 118.328 26.955 118.585 26.955H119.355V28H118.365C117.8 28 117.367 27.868 117.067 27.604C116.766 27.34 116.616 26.911 116.616 26.317V22.962H115.901V21.939H116.616V20.432H117.881V21.939H119.355V22.962H117.881ZM123.14 28.099C122.568 28.099 122.051 27.9707 121.589 27.714C121.127 27.45 120.764 27.0833 120.5 26.614C120.236 26.1373 120.104 25.5873 120.104 24.964C120.104 24.348 120.239 23.8017 120.511 23.325C120.782 22.8483 121.152 22.4817 121.622 22.225C122.091 21.9683 122.615 21.84 123.195 21.84C123.774 21.84 124.298 21.9683 124.768 22.225C125.237 22.4817 125.607 22.8483 125.879 23.325C126.15 23.8017 126.286 24.348 126.286 24.964C126.286 25.58 126.146 26.1263 125.868 26.603C125.589 27.0797 125.208 27.45 124.724 27.714C124.247 27.9707 123.719 28.099 123.14 28.099ZM123.14 27.01C123.462 27.01 123.763 26.933 124.042 26.779C124.328 26.625 124.559 26.394 124.735 26.086C124.911 25.778 124.999 25.404 124.999 24.964C124.999 24.524 124.914 24.1537 124.746 23.853C124.577 23.545 124.353 23.314 124.075 23.16C123.796 23.006 123.495 22.929 123.173 22.929C122.85 22.929 122.549 23.006 122.271 23.16C121.999 23.314 121.783 23.545 121.622 23.853C121.46 24.1537 121.38 24.524 121.38 24.964C121.38 25.6167 121.545 26.1227 121.875 26.482C122.212 26.834 122.634 27.01 123.14 27.01ZM72.78 36.355L70.514 44H69.095L67.489 38.214L65.784 44L64.376 44.011L62.209 36.355H63.54L65.124 42.581L66.84 36.355H68.248L69.843 42.548L71.438 36.355H72.78ZM74.4523 37.136C74.2249 37.136 74.0343 37.059 73.8803 36.905C73.7263 36.751 73.6493 36.5603 73.6493 36.333C73.6493 36.1057 73.7263 35.915 73.8803 35.761C74.0343 35.607 74.2249 35.53 74.4523 35.53C74.6723 35.53 74.8593 35.607 75.0133 35.761C75.1673 35.915 75.2443 36.1057 75.2443 36.333C75.2443 36.5603 75.1673 36.751 75.0133 36.905C74.8593 37.059 74.6723 37.136 74.4523 37.136ZM75.0683 37.939V44H73.8143V37.939H75.0683ZM79.7726 37.84C80.2493 37.84 80.6746 37.939 81.0486 38.137C81.43 38.335 81.727 38.6283 81.9396 39.017C82.1523 39.4057 82.2586 39.875 82.2586 40.425V44H81.0156V40.612C81.0156 40.0693 80.88 39.655 80.6086 39.369C80.3373 39.0757 79.967 38.929 79.4976 38.929C79.0283 38.929 78.6543 39.0757 78.3756 39.369C78.1043 39.655 77.9686 40.0693 77.9686 40.612V44H76.7146V37.939H77.9686V38.632C78.174 38.3827 78.4343 38.1883 78.7496 38.049C79.0723 37.9097 79.4133 37.84 79.7726 37.84ZM83.4402 40.942C83.4402 40.3333 83.5649 39.7943 83.8142 39.325C84.0709 38.8557 84.4155 38.4927 84.8482 38.236C85.2882 37.972 85.7759 37.84 86.3112 37.84C86.7072 37.84 87.0959 37.928 87.4772 38.104C87.8659 38.2727 88.1739 38.5 88.4012 38.786V35.86H89.6662V44H88.4012V43.087C88.1959 43.3803 87.9099 43.6223 87.5432 43.813C87.1839 44.0037 86.7695 44.099 86.3002 44.099C85.7722 44.099 85.2882 43.967 84.8482 43.703C84.4155 43.4317 84.0709 43.0577 83.8142 42.581C83.5649 42.097 83.4402 41.5507 83.4402 40.942ZM88.4012 40.964C88.4012 40.546 88.3132 40.183 88.1372 39.875C87.9685 39.567 87.7449 39.3323 87.4662 39.171C87.1875 39.0097 86.8869 38.929 86.5642 38.929C86.2415 38.929 85.9409 39.0097 85.6622 39.171C85.3835 39.325 85.1562 39.556 84.9802 39.864C84.8115 40.1647 84.7272 40.524 84.7272 40.942C84.7272 41.36 84.8115 41.7267 84.9802 42.042C85.1562 42.3573 85.3835 42.5993 85.6622 42.768C85.9482 42.9293 86.2489 43.01 86.5642 43.01C86.8869 43.01 87.1875 42.9293 87.4662 42.768C87.7449 42.6067 87.9685 42.372 88.1372 42.064C88.3132 41.7487 88.4012 41.382 88.4012 40.964ZM93.9423 44.099C93.3703 44.099 92.8533 43.9707 92.3913 43.714C91.9293 43.45 91.5663 43.0833 91.3023 42.614C91.0383 42.1373 90.9063 41.5873 90.9063 40.964C90.9063 40.348 91.0419 39.8017 91.3133 39.325C91.5846 38.8483 91.9549 38.4817 92.4243 38.225C92.8936 37.9683 93.4179 37.84 93.9973 37.84C94.5766 37.84 95.1009 37.9683 95.5703 38.225C96.0396 38.4817 96.4099 38.8483 96.6813 39.325C96.9526 39.8017 97.0883 40.348 97.0883 40.964C97.0883 41.58 96.9489 42.1263 96.6703 42.603C96.3916 43.0797 96.0103 43.45 95.5263 43.714C95.0496 43.9707 94.5216 44.099 93.9423 44.099ZM93.9423 43.01C94.2649 43.01 94.5656 42.933 94.8443 42.779C95.1303 42.625 95.3613 42.394 95.5373 42.086C95.7133 41.778 95.8013 41.404 95.8013 40.964C95.8013 40.524 95.7169 40.1537 95.5483 39.853C95.3796 39.545 95.1559 39.314 94.8773 39.16C94.5986 39.006 94.2979 38.929 93.9753 38.929C93.6526 38.929 93.3519 39.006 93.0733 39.16C92.8019 39.314 92.5856 39.545 92.4243 39.853C92.2629 40.1537 92.1823 40.524 92.1823 40.964C92.1823 41.6167 92.3473 42.1227 92.6773 42.482C93.0146 42.834 93.4363 43.01 93.9423 43.01ZM106.468 37.939L104.587 44H103.267L102.046 39.523L100.825 44H99.5049L97.6129 37.939H98.8889L100.154 42.812L101.441 37.939H102.75L103.982 42.79L105.236 37.939H106.468ZM109.605 44.099C109.128 44.099 108.699 44.0147 108.318 43.846C107.944 43.67 107.647 43.4353 107.427 43.142C107.207 42.8413 107.09 42.5077 107.075 42.141H108.373C108.395 42.3977 108.516 42.614 108.736 42.79C108.963 42.9587 109.246 43.043 109.583 43.043C109.935 43.043 110.206 42.977 110.397 42.845C110.595 42.7057 110.694 42.5297 110.694 42.317C110.694 42.0897 110.584 41.921 110.364 41.811C110.151 41.701 109.81 41.58 109.341 41.448C108.886 41.3233 108.516 41.2023 108.23 41.085C107.944 40.9677 107.695 40.788 107.482 40.546C107.277 40.304 107.174 39.985 107.174 39.589C107.174 39.2663 107.269 38.973 107.46 38.709C107.651 38.4377 107.922 38.225 108.274 38.071C108.633 37.917 109.044 37.84 109.506 37.84C110.195 37.84 110.749 38.016 111.167 38.368C111.592 38.7127 111.82 39.1857 111.849 39.787H110.595C110.573 39.5157 110.463 39.2993 110.265 39.138C110.067 38.9767 109.799 38.896 109.462 38.896C109.132 38.896 108.879 38.9583 108.703 39.083C108.527 39.2077 108.439 39.3727 108.439 39.578C108.439 39.7393 108.498 39.875 108.615 39.985C108.732 40.095 108.875 40.183 109.044 40.249C109.213 40.3077 109.462 40.3847 109.792 40.48C110.232 40.5973 110.591 40.7183 110.87 40.843C111.156 40.9603 111.402 41.1363 111.607 41.371C111.812 41.6057 111.919 41.9173 111.926 42.306C111.926 42.6507 111.831 42.9587 111.64 43.23C111.449 43.5013 111.178 43.714 110.826 43.868C110.481 44.022 110.074 44.099 109.605 44.099ZM115.808 37.125V35.981H118.096V44H116.831V37.125H115.808ZM119.654 37.125V35.981H121.942V44H120.677V37.125H119.654ZM129.206 44.077C128.693 44.077 128.231 43.989 127.82 43.813C127.41 43.6297 127.087 43.373 126.852 43.043C126.618 42.713 126.5 42.328 126.5 41.888H127.842C127.872 42.218 128 42.4893 128.227 42.702C128.462 42.9147 128.788 43.021 129.206 43.021C129.639 43.021 129.976 42.9183 130.218 42.713C130.46 42.5003 130.581 42.229 130.581 41.899C130.581 41.6423 130.504 41.4333 130.35 41.272C130.204 41.1107 130.017 40.986 129.789 40.898C129.569 40.81 129.261 40.7147 128.865 40.612C128.367 40.48 127.96 40.348 127.644 40.216C127.336 40.0767 127.072 39.864 126.852 39.578C126.632 39.292 126.522 38.9107 126.522 38.434C126.522 37.994 126.632 37.609 126.852 37.279C127.072 36.949 127.38 36.696 127.776 36.52C128.172 36.344 128.631 36.256 129.151 36.256C129.892 36.256 130.497 36.443 130.966 36.817C131.443 37.1837 131.707 37.6897 131.758 38.335H130.372C130.35 38.0563 130.218 37.818 129.976 37.62C129.734 37.422 129.415 37.323 129.019 37.323C128.66 37.323 128.367 37.4147 128.139 37.598C127.912 37.7813 127.798 38.0453 127.798 38.39C127.798 38.6247 127.868 38.819 128.007 38.973C128.154 39.1197 128.337 39.237 128.557 39.325C128.777 39.413 129.078 39.5083 129.459 39.611C129.965 39.7503 130.376 39.8897 130.691 40.029C131.014 40.1683 131.285 40.3847 131.505 40.678C131.733 40.964 131.846 41.349 131.846 41.833C131.846 42.2217 131.74 42.5883 131.527 42.933C131.322 43.2777 131.018 43.5563 130.614 43.769C130.218 43.9743 129.749 44.077 129.206 44.077ZM134.58 37.367V39.611H137.22V40.634H134.58V42.977H137.55V44H133.326V36.344H137.55V37.367H134.58Z"></path>
<path stroke-linejoin="round" stroke-linecap="round" stroke="white" d="M40 32L32 40M40 32L24 32M40 32L32 24"></path>
</svg>
