<svg xmlns="http://www.w3.org/2000/svg" fill="none" viewBox="0 0 480 90" height="90" width="480">
<path fill-opacity="0.9" fill="#E6E6E6" d="M88 30C88 24.4772 92.4772 20 98 20H382C387.523 20 392 24.4772 392 30V60C392 65.5228 387.523 70 382 70H98C92.4772 70 88 65.5228 88 60V30Z"></path>
<path stroke-width="2" stroke-opacity="0.2" stroke="black" d="M382 19H98C91.9249 19 87 23.9249 87 30V60C87 66.0751 91.9249 71 98 71H382C388.075 71 393 66.0751 393 60V30C393 23.9249 388.075 19 382 19Z"></path>
<rect fill-opacity="0.05" fill="black" rx="5" height="36" width="140" y="27" x="245.001"></rect>
<path fill="black" d="M281.08 42.367V44.611H283.72V45.634H281.08V47.977H284.05V49H279.826V41.344H284.05V42.367H281.08ZM285.177 45.942C285.177 45.3333 285.301 44.7943 285.551 44.325C285.807 43.8557 286.152 43.4927 286.585 43.236C287.025 42.972 287.512 42.84 288.048 42.84C288.444 42.84 288.832 42.928 289.214 43.104C289.602 43.2727 289.91 43.5 290.138 43.786V40.86H291.403V49H290.138V48.087C289.932 48.3803 289.646 48.6223 289.28 48.813C288.92 49.0037 288.506 49.099 288.037 49.099C287.509 49.099 287.025 48.967 286.585 48.703C286.152 48.4317 285.807 48.0577 285.551 47.581C285.301 47.097 285.177 46.5507 285.177 45.942ZM290.138 45.964C290.138 45.546 290.05 45.183 289.874 44.875C289.705 44.567 289.481 44.3323 289.203 44.171C288.924 44.0097 288.623 43.929 288.301 43.929C287.978 43.929 287.677 44.0097 287.399 44.171C287.12 44.325 286.893 44.556 286.717 44.864C286.548 45.1647 286.464 45.524 286.464 45.942C286.464 46.36 286.548 46.7267 286.717 47.042C286.893 47.3573 287.12 47.5993 287.399 47.768C287.685 47.9293 287.985 48.01 288.301 48.01C288.623 48.01 288.924 47.9293 289.203 47.768C289.481 47.6067 289.705 47.372 289.874 47.064C290.05 46.7487 290.138 46.382 290.138 45.964ZM293.688 42.136C293.46 42.136 293.27 42.059 293.116 41.905C292.962 41.751 292.885 41.5603 292.885 41.333C292.885 41.1057 292.962 40.915 293.116 40.761C293.27 40.607 293.46 40.53 293.688 40.53C293.908 40.53 294.095 40.607 294.249 40.761C294.403 40.915 294.48 41.1057 294.48 41.333C294.48 41.5603 294.403 41.751 294.249 41.905C294.095 42.059 293.908 42.136 293.688 42.136ZM294.304 42.939V49H293.05V42.939H294.304ZM297.413 43.962V47.317C297.413 47.5443 297.464 47.7093 297.567 47.812C297.677 47.9073 297.86 47.955 298.117 47.955H298.887V49H297.897C297.332 49 296.9 48.868 296.599 48.604C296.298 48.34 296.148 47.911 296.148 47.317V43.962H295.433V42.939H296.148V41.432H297.413V42.939H298.887V43.962H297.413ZM311.04 42.939L309.159 49H307.839L306.618 44.523L305.397 49H304.077L302.185 42.939H303.461L304.726 47.812L306.013 42.939H307.322L308.554 47.79L309.808 42.939H311.04ZM312.615 42.136C312.388 42.136 312.197 42.059 312.043 41.905C311.889 41.751 311.812 41.5603 311.812 41.333C311.812 41.1057 311.889 40.915 312.043 40.761C312.197 40.607 312.388 40.53 312.615 40.53C312.835 40.53 313.022 40.607 313.176 40.761C313.33 40.915 313.407 41.1057 313.407 41.333C313.407 41.5603 313.33 41.751 313.176 41.905C313.022 42.059 312.835 42.136 312.615 42.136ZM313.231 42.939V49H311.977V42.939H313.231ZM316.341 43.962V47.317C316.341 47.5443 316.392 47.7093 316.495 47.812C316.605 47.9073 316.788 47.955 317.045 47.955H317.815V49H316.825C316.26 49 315.827 48.868 315.527 48.604C315.226 48.34 315.076 47.911 315.076 47.317V43.962H314.361V42.939H315.076V41.432H316.341V42.939H317.815V43.962H316.341ZM322.106 42.84C322.568 42.84 322.978 42.939 323.338 43.137C323.704 43.335 323.99 43.6283 324.196 44.017C324.408 44.4057 324.515 44.875 324.515 45.425V49H323.272V45.612C323.272 45.0693 323.136 44.655 322.865 44.369C322.593 44.0757 322.223 43.929 321.754 43.929C321.284 43.929 320.91 44.0757 320.632 44.369C320.36 44.655 320.225 45.0693 320.225 45.612V49H318.971V40.86H320.225V43.643C320.437 43.3863 320.705 43.1883 321.028 43.049C321.358 42.9097 321.717 42.84 322.106 42.84ZM334.317 43.632C334.317 44.0207 334.226 44.3873 334.042 44.732C333.859 45.0767 333.566 45.359 333.162 45.579C332.759 45.7917 332.242 45.898 331.611 45.898H330.225V49H328.971V41.355H331.611C332.198 41.355 332.693 41.4577 333.096 41.663C333.507 41.861 333.811 42.1323 334.009 42.477C334.215 42.8217 334.317 43.2067 334.317 43.632ZM331.611 44.875C332.088 44.875 332.444 44.7687 332.678 44.556C332.913 44.336 333.03 44.028 333.03 43.632C333.03 42.796 332.557 42.378 331.611 42.378H330.225V44.875H331.611ZM335.095 45.942C335.095 45.3333 335.22 44.7943 335.469 44.325C335.726 43.8557 336.071 43.4927 336.503 43.236C336.943 42.972 337.427 42.84 337.955 42.84C338.432 42.84 338.846 42.9353 339.198 43.126C339.558 43.3093 339.844 43.5403 340.056 43.819V42.939H341.321V49H340.056V48.098C339.844 48.384 339.554 48.6223 339.187 48.813C338.821 49.0037 338.403 49.099 337.933 49.099C337.413 49.099 336.936 48.967 336.503 48.703C336.071 48.4317 335.726 48.0577 335.469 47.581C335.22 47.097 335.095 46.5507 335.095 45.942ZM340.056 45.964C340.056 45.546 339.968 45.183 339.792 44.875C339.624 44.567 339.4 44.3323 339.121 44.171C338.843 44.0097 338.542 43.929 338.219 43.929C337.897 43.929 337.596 44.0097 337.317 44.171C337.039 44.325 336.811 44.556 336.635 44.864C336.467 45.1647 336.382 45.524 336.382 45.942C336.382 46.36 336.467 46.7267 336.635 47.042C336.811 47.3573 337.039 47.5993 337.317 47.768C337.603 47.9293 337.904 48.01 338.219 48.01C338.542 48.01 338.843 47.9293 339.121 47.768C339.4 47.6067 339.624 47.372 339.792 47.064C339.968 46.7487 340.056 46.382 340.056 45.964ZM343.607 42.136C343.379 42.136 343.189 42.059 343.035 41.905C342.881 41.751 342.804 41.5603 342.804 41.333C342.804 41.1057 342.881 40.915 343.035 40.761C343.189 40.607 343.379 40.53 343.607 40.53C343.827 40.53 344.014 40.607 344.168 40.761C344.322 40.915 344.399 41.1057 344.399 41.333C344.399 41.5603 344.322 41.751 344.168 41.905C344.014 42.059 343.827 42.136 343.607 42.136ZM344.223 42.939V49H342.969V42.939H344.223ZM348.927 42.84C349.404 42.84 349.829 42.939 350.203 43.137C350.584 43.335 350.881 43.6283 351.094 44.017C351.307 44.4057 351.413 44.875 351.413 45.425V49H350.17V45.612C350.17 45.0693 350.034 44.655 349.763 44.369C349.492 44.0757 349.121 43.929 348.652 43.929C348.183 43.929 347.809 44.0757 347.53 44.369C347.259 44.655 347.123 45.0693 347.123 45.612V49H345.869V42.939H347.123V43.632C347.328 43.3827 347.589 43.1883 347.904 43.049C348.227 42.9097 348.568 42.84 348.927 42.84ZM354.476 43.962V47.317C354.476 47.5443 354.527 47.7093 354.63 47.812C354.74 47.9073 354.923 47.955 355.18 47.955H355.95V49H354.96C354.395 49 353.962 48.868 353.662 48.604C353.361 48.34 353.211 47.911 353.211 47.317V43.962H352.496V42.939H353.211V41.432H354.476V42.939H355.95V43.962H354.476Z"></path>
<path fill="url(#paint0_linear_1013_353)" d="M264 37C259.999 36.9995 255 40.6662 255 46.3333C255 47.9644 255.369 50 257 50C258.666 50 259.333 47.3333 260.667 47.3333C261.219 47.3333 261.667 47.6662 261.667 48.3333C261.667 49.3328 260.667 49.3328 260.667 50.6667C260.667 51.6662 261.333 52.3333 262.333 52.3333C266 52.3333 270.333 48.0359 270.333 43.3333C270.333 40.3328 267.884 37.0005 264 37Z"></path>
<rect fill="url(#paint1_linear_1013_353)" rx="1.33333" height="2.66667" width="2.66667" y="43.6663" x="256.333"></rect>
<rect fill-opacity="0.5" fill="black" rx="1" height="2" width="2" y="44.3328" x="262.333"></rect>
<rect fill="url(#paint2_linear_1013_353)" rx="1.33333" height="2.66667" width="2.66667" y="40.3328" x="258.333"></rect>
<rect fill="url(#paint3_linear_1013_353)" rx="1.33333" height="2.66667" width="2.66667" y="38.9995" x="261.666"></rect>
<path fill="url(#paint4_linear_1013_353)" d="M265.666 44.9988L267.666 44.9997L267.361 52.3327C267.345 52.705 267.039 52.9988 266.666 52.9988V52.9988C266.294 52.9988 265.987 52.705 265.972 52.3327L265.666 44.9988Z"></path>
<path fill="url(#paint5_linear_1013_353)" d="M265.666 44.9988V44.3331H267.666V44.9997L265.666 44.9988Z"></path>
<path fill="url(#paint6_linear_1013_353)" d="M265.666 44.332L265.057 43.1136C264.724 42.4487 265.208 41.6663 265.951 41.6663H267.382C268.125 41.6663 268.609 42.4486 268.276 43.1135L267.666 44.3331L265.666 44.332Z"></path>
<rect fill="url(#paint7_linear_1013_353)" rx="2" height="16" width="16" y="37" x="105"></rect>
<path fill="white" d="M110.879 44.1213C112.05 42.9497 113.95 42.9497 115.121 44.1213L119.414 48.4142C119.789 48.7893 120 49.298 120 49.8284V50C120 51.1046 119.105 52 118 52H108C106.895 52 106 51.1046 106 50V49.8284C106 49.298 106.211 48.7893 106.586 48.4142L110.879 44.1213Z"></path>
<path stroke-opacity="0.1" stroke="black" d="M108 52.5H118C119.381 52.5 120.5 51.3807 120.5 50V49.8284C120.5 49.1654 120.237 48.5295 119.768 48.0607L115.475 43.7678C114.108 42.4009 111.892 42.4009 110.525 43.7678L106.232 48.0607C105.763 48.5295 105.5 49.1654 105.5 49.8284V50C105.5 51.3807 106.619 52.5 108 52.5Z"></path>
<path fill="url(#paint8_linear_1013_353)" d="M108 53L115.293 45.7071C115.683 45.3166 116.317 45.3166 116.707 45.7071L120.414 49.4142C120.789 49.7893 121 50.298 121 50.8284V51C121 52.1046 120.105 53 119 53H108Z"></path>
<path fill="url(#paint9_linear_1013_353)" d="M105 50.8284C105 50.298 105.211 49.7893 105.586 49.4142L110.879 44.1213C112.05 42.9497 113.95 42.9497 115.121 44.1213L118 47V47C116.895 45.8954 115.105 45.8954 114 47L108.586 52.4142C108.211 52.7893 107.702 53 107.172 53H107C105.895 53 105 52.1046 105 51V50.8284Z"></path>
<rect fill="white" rx="1.5" height="3" width="3" y="39" x="115"></rect>
<rect stroke-opacity="0.1" stroke="black" rx="2" height="4" width="4" y="38.5" x="114.5"></rect>
<path fill="#808080" d="M139.78 41.355L137.514 49H136.095L134.489 43.214L132.784 49L131.376 49.011L129.209 41.355H130.54L132.124 47.581L133.84 41.355H135.248L136.843 47.548L138.438 41.355H139.78ZM140.396 45.942C140.396 45.3333 140.521 44.7943 140.77 44.325C141.027 43.8557 141.372 43.4927 141.804 43.236C142.244 42.972 142.728 42.84 143.256 42.84C143.733 42.84 144.147 42.9353 144.499 43.126C144.859 43.3093 145.145 43.5403 145.357 43.819V42.939H146.622V49H145.357V48.098C145.145 48.384 144.855 48.6223 144.488 48.813C144.122 49.0037 143.704 49.099 143.234 49.099C142.714 49.099 142.237 48.967 141.804 48.703C141.372 48.4317 141.027 48.0577 140.77 47.581C140.521 47.097 140.396 46.5507 140.396 45.942ZM145.357 45.964C145.357 45.546 145.269 45.183 145.093 44.875C144.925 44.567 144.701 44.3323 144.422 44.171C144.144 44.0097 143.843 43.929 143.52 43.929C143.198 43.929 142.897 44.0097 142.618 44.171C142.34 44.325 142.112 44.556 141.936 44.864C141.768 45.1647 141.683 45.524 141.683 45.942C141.683 46.36 141.768 46.7267 141.936 47.042C142.112 47.3573 142.34 47.5993 142.618 47.768C142.904 47.9293 143.205 48.01 143.52 48.01C143.843 48.01 144.144 47.9293 144.422 47.768C144.701 47.6067 144.925 47.372 145.093 47.064C145.269 46.7487 145.357 46.382 145.357 45.964ZM149.523 40.86V49H148.269V40.86H149.523ZM152.424 40.86V49H151.17V40.86H152.424ZM155.324 43.83C155.537 43.5513 155.826 43.3167 156.193 43.126C156.56 42.9353 156.974 42.84 157.436 42.84C157.964 42.84 158.444 42.972 158.877 43.236C159.317 43.4927 159.662 43.8557 159.911 44.325C160.16 44.7943 160.285 45.3333 160.285 45.942C160.285 46.5507 160.16 47.097 159.911 47.581C159.662 48.0577 159.317 48.4317 158.877 48.703C158.444 48.967 157.964 49.099 157.436 49.099C156.974 49.099 156.563 49.0073 156.204 48.824C155.845 48.6333 155.551 48.3987 155.324 48.12V51.882H154.07V42.939H155.324V43.83ZM159.009 45.942C159.009 45.524 158.921 45.1647 158.745 44.864C158.576 44.556 158.349 44.325 158.063 44.171C157.784 44.0097 157.484 43.929 157.161 43.929C156.846 43.929 156.545 44.0097 156.259 44.171C155.98 44.3323 155.753 44.567 155.577 44.875C155.408 45.183 155.324 45.546 155.324 45.964C155.324 46.382 155.408 46.7487 155.577 47.064C155.753 47.372 155.98 47.6067 156.259 47.768C156.545 47.9293 156.846 48.01 157.161 48.01C157.484 48.01 157.784 47.9293 158.063 47.768C158.349 47.5993 158.576 47.3573 158.745 47.042C158.921 46.7267 159.009 46.36 159.009 45.942ZM161.107 45.942C161.107 45.3333 161.232 44.7943 161.481 44.325C161.738 43.8557 162.083 43.4927 162.515 43.236C162.955 42.972 163.439 42.84 163.967 42.84C164.444 42.84 164.858 42.9353 165.21 43.126C165.57 43.3093 165.856 43.5403 166.068 43.819V42.939H167.333V49H166.068V48.098C165.856 48.384 165.566 48.6223 165.199 48.813C164.833 49.0037 164.415 49.099 163.945 49.099C163.425 49.099 162.948 48.967 162.515 48.703C162.083 48.4317 161.738 48.0577 161.481 47.581C161.232 47.097 161.107 46.5507 161.107 45.942ZM166.068 45.964C166.068 45.546 165.98 45.183 165.804 44.875C165.636 44.567 165.412 44.3323 165.133 44.171C164.855 44.0097 164.554 43.929 164.231 43.929C163.909 43.929 163.608 44.0097 163.329 44.171C163.051 44.325 162.823 44.556 162.647 44.864C162.479 45.1647 162.394 45.524 162.394 45.942C162.394 46.36 162.479 46.7267 162.647 47.042C162.823 47.3573 163.051 47.5993 163.329 47.768C163.615 47.9293 163.916 48.01 164.231 48.01C164.554 48.01 164.855 47.9293 165.133 47.768C165.412 47.6067 165.636 47.372 165.804 47.064C165.98 46.7487 166.068 46.382 166.068 45.964ZM170.234 43.83C170.447 43.5513 170.737 43.3167 171.103 43.126C171.47 42.9353 171.884 42.84 172.346 42.84C172.874 42.84 173.355 42.972 173.787 43.236C174.227 43.4927 174.572 43.8557 174.821 44.325C175.071 44.7943 175.195 45.3333 175.195 45.942C175.195 46.5507 175.071 47.097 174.821 47.581C174.572 48.0577 174.227 48.4317 173.787 48.703C173.355 48.967 172.874 49.099 172.346 49.099C171.884 49.099 171.474 49.0073 171.114 48.824C170.755 48.6333 170.462 48.3987 170.234 48.12V51.882H168.98V42.939H170.234V43.83ZM173.919 45.942C173.919 45.524 173.831 45.1647 173.655 44.864C173.487 44.556 173.259 44.325 172.973 44.171C172.695 44.0097 172.394 43.929 172.071 43.929C171.756 43.929 171.455 44.0097 171.169 44.171C170.891 44.3323 170.663 44.567 170.487 44.875C170.319 45.183 170.234 45.546 170.234 45.964C170.234 46.382 170.319 46.7487 170.487 47.064C170.663 47.372 170.891 47.6067 171.169 47.768C171.455 47.9293 171.756 48.01 172.071 48.01C172.394 48.01 172.695 47.9293 172.973 47.768C173.259 47.5993 173.487 47.3573 173.655 47.042C173.831 46.7267 173.919 46.36 173.919 45.942ZM181.99 45.821C181.99 46.0483 181.976 46.2537 181.946 46.437H177.315C177.352 46.921 177.532 47.3097 177.854 47.603C178.177 47.8963 178.573 48.043 179.042 48.043C179.717 48.043 180.194 47.7607 180.472 47.196H181.825C181.642 47.7533 181.308 48.2117 180.824 48.571C180.348 48.923 179.754 49.099 179.042 49.099C178.463 49.099 177.942 48.9707 177.48 48.714C177.026 48.45 176.666 48.0833 176.402 47.614C176.146 47.1373 176.017 46.5873 176.017 45.964C176.017 45.3407 176.142 44.7943 176.391 44.325C176.648 43.8483 177.004 43.4817 177.458 43.225C177.92 42.9683 178.448 42.84 179.042 42.84C179.614 42.84 180.124 42.9647 180.571 43.214C181.019 43.4633 181.367 43.8153 181.616 44.27C181.866 44.7173 181.99 45.2343 181.99 45.821ZM180.681 45.425C180.674 44.963 180.509 44.5927 180.186 44.314C179.864 44.0353 179.464 43.896 178.987 43.896C178.555 43.896 178.184 44.0353 177.876 44.314C177.568 44.5853 177.385 44.9557 177.326 45.425H180.681ZM184.478 43.819C184.662 43.511 184.904 43.2727 185.204 43.104C185.512 42.928 185.875 42.84 186.293 42.84V44.138H185.974C185.483 44.138 185.109 44.2627 184.852 44.512C184.603 44.7613 184.478 45.194 184.478 45.81V49H183.224V42.939H184.478V43.819ZM190.942 42.136C190.714 42.136 190.524 42.059 190.37 41.905C190.216 41.751 190.139 41.5603 190.139 41.333C190.139 41.1057 190.216 40.915 190.37 40.761C190.524 40.607 190.714 40.53 190.942 40.53C191.162 40.53 191.349 40.607 191.503 40.761C191.657 40.915 191.734 41.1057 191.734 41.333C191.734 41.5603 191.657 41.751 191.503 41.905C191.349 42.059 191.162 42.136 190.942 42.136ZM191.558 42.939V49H190.304V42.939H191.558ZM195.404 49.099C194.927 49.099 194.498 49.0147 194.117 48.846C193.743 48.67 193.446 48.4353 193.226 48.142C193.006 47.8413 192.889 47.5077 192.874 47.141H194.172C194.194 47.3977 194.315 47.614 194.535 47.79C194.762 47.9587 195.045 48.043 195.382 48.043C195.734 48.043 196.005 47.977 196.196 47.845C196.394 47.7057 196.493 47.5297 196.493 47.317C196.493 47.0897 196.383 46.921 196.163 46.811C195.95 46.701 195.609 46.58 195.14 46.448C194.685 46.3233 194.315 46.2023 194.029 46.085C193.743 45.9677 193.494 45.788 193.281 45.546C193.076 45.304 192.973 44.985 192.973 44.589C192.973 44.2663 193.068 43.973 193.259 43.709C193.45 43.4377 193.721 43.225 194.073 43.071C194.432 42.917 194.843 42.84 195.305 42.84C195.994 42.84 196.548 43.016 196.966 43.368C197.391 43.7127 197.619 44.1857 197.648 44.787H196.394C196.372 44.5157 196.262 44.2993 196.064 44.138C195.866 43.9767 195.598 43.896 195.261 43.896C194.931 43.896 194.678 43.9583 194.502 44.083C194.326 44.2077 194.238 44.3727 194.238 44.578C194.238 44.7393 194.297 44.875 194.414 44.985C194.531 45.095 194.674 45.183 194.843 45.249C195.012 45.3077 195.261 45.3847 195.591 45.48C196.031 45.5973 196.39 45.7183 196.669 45.843C196.955 45.9603 197.201 46.1363 197.406 46.371C197.611 46.6057 197.718 46.9173 197.725 47.306C197.725 47.6507 197.63 47.9587 197.439 48.23C197.248 48.5013 196.977 48.714 196.625 48.868C196.28 49.022 195.873 49.099 195.404 49.099ZM204.137 49.099C203.661 49.099 203.232 49.0147 202.85 48.846C202.476 48.67 202.179 48.4353 201.959 48.142C201.739 47.8413 201.622 47.5077 201.607 47.141H202.905C202.927 47.3977 203.048 47.614 203.268 47.79C203.496 47.9587 203.778 48.043 204.115 48.043C204.467 48.043 204.739 47.977 204.929 47.845C205.127 47.7057 205.226 47.5297 205.226 47.317C205.226 47.0897 205.116 46.921 204.896 46.811C204.684 46.701 204.343 46.58 203.873 46.448C203.419 46.3233 203.048 46.2023 202.762 46.085C202.476 45.9677 202.227 45.788 202.014 45.546C201.809 45.304 201.706 44.985 201.706 44.589C201.706 44.2663 201.802 43.973 201.992 43.709C202.183 43.4377 202.454 43.225 202.806 43.071C203.166 42.917 203.576 42.84 204.038 42.84C204.728 42.84 205.281 43.016 205.699 43.368C206.125 43.7127 206.352 44.1857 206.381 44.787H205.127C205.105 44.5157 204.995 44.2993 204.797 44.138C204.599 43.9767 204.332 43.896 203.994 43.896C203.664 43.896 203.411 43.9583 203.235 44.083C203.059 44.2077 202.971 44.3727 202.971 44.578C202.971 44.7393 203.03 44.875 203.147 44.985C203.265 45.095 203.408 45.183 203.576 45.249C203.745 45.3077 203.994 45.3847 204.324 45.48C204.764 45.5973 205.124 45.7183 205.402 45.843C205.688 45.9603 205.934 46.1363 206.139 46.371C206.345 46.6057 206.451 46.9173 206.458 47.306C206.458 47.6507 206.363 47.9587 206.172 48.23C205.982 48.5013 205.71 48.714 205.358 48.868C205.014 49.022 204.607 49.099 204.137 49.099ZM213.368 45.821C213.368 46.0483 213.354 46.2537 213.324 46.437H208.693C208.73 46.921 208.91 47.3097 209.232 47.603C209.555 47.8963 209.951 48.043 210.42 48.043C211.095 48.043 211.572 47.7607 211.85 47.196H213.203C213.02 47.7533 212.686 48.2117 212.202 48.571C211.726 48.923 211.132 49.099 210.42 49.099C209.841 49.099 209.32 48.9707 208.858 48.714C208.404 48.45 208.044 48.0833 207.78 47.614C207.524 47.1373 207.395 46.5873 207.395 45.964C207.395 45.3407 207.52 44.7943 207.769 44.325C208.026 43.8483 208.382 43.4817 208.836 43.225C209.298 42.9683 209.826 42.84 210.42 42.84C210.992 42.84 211.502 42.9647 211.949 43.214C212.397 43.4633 212.745 43.8153 212.994 44.27C213.244 44.7173 213.368 45.2343 213.368 45.821ZM212.059 45.425C212.052 44.963 211.887 44.5927 211.564 44.314C211.242 44.0353 210.842 43.896 210.365 43.896C209.933 43.896 209.562 44.0353 209.254 44.314C208.946 44.5853 208.763 44.9557 208.704 45.425H212.059ZM216.065 43.962V47.317C216.065 47.5443 216.117 47.7093 216.219 47.812C216.329 47.9073 216.513 47.955 216.769 47.955H217.539V49H216.549C215.985 49 215.552 48.868 215.251 48.604C214.951 48.34 214.8 47.911 214.8 47.317V43.962H214.085V42.939H214.8V41.432H216.065V42.939H217.539V43.962H216.065Z"></path>
<defs>
<linearGradient gradientUnits="userSpaceOnUse" y2="50.3328" x2="266.999" y1="38.9995" x1="258.333" id="paint0_linear_1013_353">
<stop stop-color="#50E6FF"></stop>
<stop stop-color="#0270C2" offset="1"></stop>
</linearGradient>
<linearGradient gradientUnits="userSpaceOnUse" y2="45.6663" x2="258.333" y1="44.3329" x1="257" id="paint1_linear_1013_353">
<stop stop-color="#E25113"></stop>
<stop stop-color="#C7390A" offset="1"></stop>
</linearGradient>
<linearGradient gradientUnits="userSpaceOnUse" y2="42.3328" x2="260.333" y1="40.9994" x1="259" id="paint2_linear_1013_353">
<stop stop-color="#55B50E"></stop>
<stop stop-color="#1C8610" offset="1"></stop>
</linearGradient>
<linearGradient gradientUnits="userSpaceOnUse" y2="40.9995" x2="263.666" y1="39.6662" x1="262.333" id="paint3_linear_1013_353">
<stop stop-color="#FFD300"></stop>
<stop stop-color="#F39808" offset="1"></stop>
</linearGradient>
<linearGradient gradientUnits="userSpaceOnUse" y2="44.9996" x2="267.666" y1="44.9996" x1="265.666" id="paint4_linear_1013_353">
<stop stop-color="#AA6701"></stop>
<stop stop-color="#814406" offset="1"></stop>
</linearGradient>
<linearGradient gradientUnits="userSpaceOnUse" y2="44.9996" x2="267.666" y1="44.9996" x1="265.666" id="paint5_linear_1013_353">
<stop stop-color="#CAD2D9"></stop>
<stop stop-color="#939BA2" offset="1"></stop>
</linearGradient>
<linearGradient gradientUnits="userSpaceOnUse" y2="44.3329" x2="267.666" y1="41.6663" x1="265" id="paint6_linear_1013_353">
<stop stop-color="#F7DEAA"></stop>
<stop stop-color="#C3935E" offset="1"></stop>
</linearGradient>
<linearGradient gradientUnits="userSpaceOnUse" y2="49" x2="121" y1="38" x1="106" id="paint7_linear_1013_353">
<stop stop-color="#188EDB"></stop>
<stop stop-color="#7D5AB6" offset="1"></stop>
</linearGradient>
<linearGradient gradientUnits="userSpaceOnUse" y2="53" x2="119" y1="48" x1="114" id="paint8_linear_1013_353">
<stop stop-color="#037AD2"></stop>
<stop stop-color="#2C9EE2" offset="1"></stop>
</linearGradient>
<linearGradient gradientUnits="userSpaceOnUse" y2="49" x2="112" y1="45" x1="108" id="paint9_linear_1013_353">
<stop stop-color="#4DDDFB"></stop>
<stop stop-color="#2AB2EB" offset="1"></stop>
</linearGradient>
</defs>
</svg>
