<svg xmlns="http://www.w3.org/2000/svg" fill="none" viewBox="0 0 480 360" height="360" width="480">
<path fill="#4CC2FF" d="M340 179C340 176.239 342.239 174 345 174H455C457.761 174 460 176.239 460 179V201C460 203.761 457.761 206 455 206H345C342.239 206 340 203.761 340 201V179Z"></path>
<path fill="black" d="M385.445 186.355V194H384.191V186.355H385.445ZM390.149 187.84C390.626 187.84 391.051 187.939 391.425 188.137C391.806 188.335 392.103 188.628 392.316 189.017C392.529 189.406 392.635 189.875 392.635 190.425V194H391.392V190.612C391.392 190.069 391.256 189.655 390.985 189.369C390.714 189.076 390.343 188.929 389.874 188.929C389.405 188.929 389.031 189.076 388.752 189.369C388.481 189.655 388.345 190.069 388.345 190.612V194H387.091V187.939H388.345V188.632C388.55 188.383 388.811 188.188 389.126 188.049C389.449 187.91 389.79 187.84 390.149 187.84ZM396.435 194.099C395.958 194.099 395.529 194.015 395.148 193.846C394.774 193.67 394.477 193.435 394.257 193.142C394.037 192.841 393.919 192.508 393.905 192.141H395.203C395.225 192.398 395.346 192.614 395.566 192.79C395.793 192.959 396.075 193.043 396.413 193.043C396.765 193.043 397.036 192.977 397.227 192.845C397.425 192.706 397.524 192.53 397.524 192.317C397.524 192.09 397.414 191.921 397.194 191.811C396.981 191.701 396.64 191.58 396.171 191.448C395.716 191.323 395.346 191.202 395.06 191.085C394.774 190.968 394.524 190.788 394.312 190.546C394.106 190.304 394.004 189.985 394.004 189.589C394.004 189.266 394.099 188.973 394.29 188.709C394.48 188.438 394.752 188.225 395.104 188.071C395.463 187.917 395.874 187.84 396.336 187.84C397.025 187.84 397.579 188.016 397.997 188.368C398.422 188.713 398.649 189.186 398.679 189.787H397.425C397.403 189.516 397.293 189.299 397.095 189.138C396.897 188.977 396.629 188.896 396.292 188.896C395.962 188.896 395.709 188.958 395.533 189.083C395.357 189.208 395.269 189.373 395.269 189.578C395.269 189.739 395.327 189.875 395.445 189.985C395.562 190.095 395.705 190.183 395.874 190.249C396.042 190.308 396.292 190.385 396.622 190.48C397.062 190.597 397.421 190.718 397.7 190.843C397.986 190.96 398.231 191.136 398.437 191.371C398.642 191.606 398.748 191.917 398.756 192.306C398.756 192.651 398.66 192.959 398.47 193.23C398.279 193.501 398.008 193.714 397.656 193.868C397.311 194.022 396.904 194.099 396.435 194.099ZM401.574 188.962V192.317C401.574 192.544 401.625 192.709 401.728 192.812C401.838 192.907 402.021 192.955 402.278 192.955H403.048V194H402.058C401.493 194 401.06 193.868 400.76 193.604C400.459 193.34 400.309 192.911 400.309 192.317V188.962H399.594V187.939H400.309V186.432H401.574V187.939H403.048V188.962H401.574ZM403.785 190.942C403.785 190.333 403.91 189.794 404.159 189.325C404.416 188.856 404.761 188.493 405.193 188.236C405.633 187.972 406.117 187.84 406.645 187.84C407.122 187.84 407.536 187.935 407.888 188.126C408.248 188.309 408.534 188.54 408.746 188.819V187.939H410.011V194H408.746V193.098C408.534 193.384 408.244 193.622 407.877 193.813C407.511 194.004 407.093 194.099 406.623 194.099C406.103 194.099 405.626 193.967 405.193 193.703C404.761 193.432 404.416 193.058 404.159 192.581C403.91 192.097 403.785 191.551 403.785 190.942ZM408.746 190.964C408.746 190.546 408.658 190.183 408.482 189.875C408.314 189.567 408.09 189.332 407.811 189.171C407.533 189.01 407.232 188.929 406.909 188.929C406.587 188.929 406.286 189.01 406.007 189.171C405.729 189.325 405.501 189.556 405.325 189.864C405.157 190.165 405.072 190.524 405.072 190.942C405.072 191.36 405.157 191.727 405.325 192.042C405.501 192.357 405.729 192.599 406.007 192.768C406.293 192.929 406.594 193.01 406.909 193.01C407.232 193.01 407.533 192.929 407.811 192.768C408.09 192.607 408.314 192.372 408.482 192.064C408.658 191.749 408.746 191.382 408.746 190.964ZM412.912 185.86V194H411.658V185.86H412.912ZM415.813 185.86V194H414.559V185.86H415.813Z"></path>
</svg>
