<svg version="1.1" xmlns="http://www.w3.org/2000/svg" xmlns:xlink="http://www.w3.org/1999/xlink" width="40" height="20" viewBox="0,0,40,20"><g transform="translate(-220,-167)"><g data-paper-data="{&quot;isPaintingLayer&quot;:true}" fill-rule="nonzero" stroke="none" stroke-width="1" stroke-linecap="butt" stroke-linejoin="miter" stroke-miterlimit="10" stroke-dasharray="" stroke-dashoffset="0" style="mix-blend-mode: normal"><path d="M220,187v-20h40v20z" fill="none"></path><path d="M245.424,173.28c-0.088,-0.368 -0.248,-0.644 -0.48,-0.828c-0.232,-0.184 -0.556,-0.276 -0.972,-0.276c-0.632,0 -1.104,0.244 -1.416,0.732c-0.312,0.48 -0.476,1.28 -0.492,2.4c0.208,-0.352 0.512,-0.624 0.912,-0.816c0.4,-0.192 0.832,-0.288 1.296,-0.288c0.528,0 0.992,0.116 1.392,0.348c0.408,0.224 0.724,0.552 0.948,0.984c0.232,0.432 0.348,0.948 0.348,1.548c0,0.56 -0.112,1.06 -0.336,1.5c-0.216,0.44 -0.54,0.788 -0.972,1.044c-0.432,0.248 -0.952,0.372 -1.56,0.372c-0.824,0 -1.472,-0.18 -1.944,-0.54c-0.464,-0.368 -0.792,-0.884 -0.984,-1.548c-0.184,-0.664 -0.276,-1.492 -0.276,-2.484c0,-2.928 1.032,-4.392 3.096,-4.392c0.8,0 1.428,0.216 1.884,0.648c0.464,0.432 0.736,0.964 0.816,1.596zM243.972,175.356c-0.488,0 -0.904,0.148 -1.248,0.444c-0.336,0.288 -0.504,0.708 -0.504,1.26c0,0.552 0.156,0.992 0.468,1.32c0.32,0.32 0.764,0.48 1.332,0.48c0.504,0 0.9,-0.156 1.188,-0.468c0.296,-0.312 0.444,-0.728 0.444,-1.248c0,-0.544 -0.144,-0.976 -0.432,-1.296c-0.28,-0.328 -0.696,-0.492 -1.248,-0.492z" fill="#ff0000"></path></g></g></svg>