<svg version="1.1" xmlns="http://www.w3.org/2000/svg" xmlns:xlink="http://www.w3.org/1999/xlink" width="40" height="20" viewBox="0,0,40,20"><g transform="translate(-220,-167)"><g data-paper-data="{&quot;isPaintingLayer&quot;:true}" fill-rule="nonzero" stroke="none" stroke-width="1" stroke-linecap="butt" stroke-linejoin="miter" stroke-miterlimit="10" stroke-dasharray="" stroke-dashoffset="0" style="mix-blend-mode: normal"><path d="M220,187v-20h40v20z" fill="none"></path><path d="M247.356,181.512l-1.464,-1.584c-0.36,0.104 -0.756,0.156 -1.188,0.156c-0.776,0 -1.492,-0.18 -2.148,-0.54c-0.648,-0.368 -1.164,-0.876 -1.548,-1.524c-0.376,-0.656 -0.564,-1.392 -0.564,-2.208c0,-0.816 0.188,-1.548 0.564,-2.196c0.384,-0.648 0.9,-1.152 1.548,-1.512c0.656,-0.368 1.372,-0.552 2.148,-0.552c0.784,0 1.5,0.184 2.148,0.552c0.656,0.36 1.172,0.864 1.548,1.512c0.376,0.648 0.564,1.38 0.564,2.196c0,0.768 -0.168,1.464 -0.504,2.088c-0.328,0.616 -0.784,1.112 -1.368,1.488l2.004,2.124zM241.848,175.812c0,0.616 0.12,1.16 0.36,1.632c0.248,0.464 0.588,0.824 1.02,1.08c0.432,0.248 0.924,0.372 1.476,0.372c0.552,0 1.044,-0.124 1.476,-0.372c0.432,-0.256 0.768,-0.616 1.008,-1.08c0.248,-0.472 0.372,-1.016 0.372,-1.632c0,-0.616 -0.124,-1.156 -0.372,-1.62c-0.24,-0.464 -0.576,-0.82 -1.008,-1.068c-0.432,-0.248 -0.924,-0.372 -1.476,-0.372c-0.552,0 -1.044,0.124 -1.476,0.372c-0.432,0.248 -0.772,0.604 -1.02,1.068c-0.24,0.464 -0.36,1.004 -0.36,1.62z" fill="#ff0000"></path></g></g></svg>