<svg xmlns="http://www.w3.org/2000/svg" fill="none" viewBox="0 0 122 142" height="142" width="122">
<path fill-opacity="0.9" fill="#333333" d="M1 11C1 5.47716 5.47715 1 11 1H111C116.523 1 121 5.47715 121 11V131C121 136.523 116.523 141 111 141H11C5.47715 141 1 136.523 1 131V11Z"></path>
<path stroke-opacity="0.2" stroke="black" d="M111 0.5H11C5.20101 0.5 0.5 5.20101 0.5 11V131C0.5 136.799 5.20101 141.5 11 141.5H111C116.799 141.5 121.5 136.799 121.5 131V11C121.5 5.20101 116.799 0.5 111 0.5Z"></path>
<path fill="white" d="M16.038 100L13.079 96.579V100H11.825V92.355H13.079V95.842L16.049 92.355H17.622L14.3 96.183L17.677 100H16.038ZM21.4149 100.099C20.8429 100.099 20.3259 99.9707 19.8639 99.714C19.4019 99.45 19.0389 99.0833 18.7749 98.614C18.5109 98.1373 18.3789 97.5873 18.3789 96.964C18.3789 96.348 18.5146 95.8017 18.7859 95.325C19.0573 94.8483 19.4276 94.4817 19.8969 94.225C20.3663 93.9683 20.8906 93.84 21.4699 93.84C22.0493 93.84 22.5736 93.9683 23.0429 94.225C23.5123 94.4817 23.8826 94.8483 24.1539 95.325C24.4253 95.8017 24.5609 96.348 24.5609 96.964C24.5609 97.58 24.4216 98.1263 24.1429 98.603C23.8643 99.0797 23.4829 99.45 22.9989 99.714C22.5223 99.9707 21.9943 100.099 21.4149 100.099ZM21.4149 99.01C21.7376 99.01 22.0383 98.933 22.3169 98.779C22.6029 98.625 22.8339 98.394 23.0099 98.086C23.1859 97.778 23.2739 97.404 23.2739 96.964C23.2739 96.524 23.1896 96.1537 23.0209 95.853C22.8523 95.545 22.6286 95.314 22.3499 95.16C22.0713 95.006 21.7706 94.929 21.4479 94.929C21.1253 94.929 20.8246 95.006 20.5459 95.16C20.2746 95.314 20.0583 95.545 19.8969 95.853C19.7356 96.1537 19.6549 96.524 19.6549 96.964C19.6549 97.6167 19.8199 98.1227 20.1499 98.482C20.4873 98.834 20.9089 99.01 21.4149 99.01ZM28.0006 100.099C27.5239 100.099 27.0949 100.015 26.7136 99.846C26.3396 99.67 26.0426 99.4353 25.8226 99.142C25.6026 98.8413 25.4853 98.5077 25.4706 98.141H26.7686C26.7906 98.3977 26.9116 98.614 27.1316 98.79C27.3589 98.9587 27.6413 99.043 27.9786 99.043C28.3306 99.043 28.6019 98.977 28.7926 98.845C28.9906 98.7057 29.0896 98.5297 29.0896 98.317C29.0896 98.0897 28.9796 97.921 28.7596 97.811C28.5469 97.701 28.2059 97.58 27.7366 97.448C27.2819 97.3233 26.9116 97.2023 26.6256 97.085C26.3396 96.9677 26.0903 96.788 25.8776 96.546C25.6723 96.304 25.5696 95.985 25.5696 95.589C25.5696 95.2663 25.6649 94.973 25.8556 94.709C26.0463 94.4377 26.3176 94.225 26.6696 94.071C27.0289 93.917 27.4396 93.84 27.9016 93.84C28.5909 93.84 29.1446 94.016 29.5626 94.368C29.9879 94.7127 30.2153 95.1857 30.2446 95.787H28.9906C28.9686 95.5157 28.8586 95.2993 28.6606 95.138C28.4626 94.9767 28.1949 94.896 27.8576 94.896C27.5276 94.896 27.2746 94.9583 27.0986 95.083C26.9226 95.2077 26.8346 95.3727 26.8346 95.578C26.8346 95.7393 26.8933 95.875 27.0106 95.985C27.1279 96.095 27.2709 96.183 27.4396 96.249C27.6083 96.3077 27.8576 96.3847 28.1876 96.48C28.6276 96.5973 28.9869 96.7183 29.2656 96.843C29.5516 96.9603 29.7973 97.1363 30.0026 97.371C30.2079 97.6057 30.3143 97.9173 30.3216 98.306C30.3216 98.6507 30.2263 98.9587 30.0356 99.23C29.8449 99.5013 29.5736 99.714 29.2216 99.868C28.8769 100.022 28.4699 100.099 28.0006 100.099ZM37.1656 93.939V100H35.9116V99.285C35.7136 99.5343 35.4532 99.7323 35.1306 99.879C34.8152 100.018 34.4779 100.088 34.1186 100.088C33.6419 100.088 33.2129 99.989 32.8316 99.791C32.4576 99.593 32.1606 99.2997 31.9406 98.911C31.7279 98.5223 31.6216 98.053 31.6216 97.503V93.939H32.8646V97.316C32.8646 97.8587 33.0002 98.2767 33.2716 98.57C33.5429 98.856 33.9132 98.999 34.3826 98.999C34.8519 98.999 35.2222 98.856 35.4936 98.57C35.7722 98.2767 35.9116 97.8587 35.9116 97.316V93.939H37.1656Z"></path>
<path fill="#695657" d="M1 11C1 5.47715 5.47715 1 11 1H111C116.523 1 121 5.47715 121 11V81H1V11Z"></path>
<path fill-opacity="0.5" fill="black" d="M1 11C1 5.47715 5.47715 1 11 1H111C116.523 1 121 5.47715 121 11V81H1V11Z"></path>
<circle stroke-width="3.2" stroke="url(#paint1_linear_1051_152)" fill="url(#paint0_linear_1051_152)" r="17.6" cy="41.0008" cx="60.9998"></circle>
<path fill="url(#paint2_linear_1051_152)" d="M56.2002 48.2714V33.7298C56.2002 32.4246 57.6789 31.6685 58.737 32.4327L68.8042 39.7035C69.6885 40.3421 69.6885 41.659 68.8042 42.2977L58.737 49.5685C57.6789 50.3327 56.2002 49.5766 56.2002 48.2714Z"></path>
<path stroke-width="1.6" stroke-opacity="0.2" stroke="black" d="M55.4002 33.7298V48.2714C55.4002 50.2292 57.6182 51.3633 59.2054 50.217L69.2726 42.9462C70.5991 41.9882 70.599 40.0129 69.2726 39.055L59.2054 31.7842C57.6182 30.6379 55.4002 31.7719 55.4002 33.7298Z"></path>
<path fill-opacity="0.05" fill="white" d="M61 116C61 113.239 63.2386 111 66 111H106C108.761 111 111 113.239 111 116V126C111 128.761 108.761 131 106 131H66C63.2386 131 61 128.761 61 126V116Z"></path>
<path fill="white" d="M80.0838 117.745V124H79.0578V119.716L77.1498 124H76.4388L74.5218 119.716V124H73.4958V117.745H74.6028L76.7988 122.65L78.9858 117.745H80.0838ZM85.9233 119.041V124H84.8973V123.415C84.7353 123.619 84.5223 123.781 84.2583 123.901C84.0003 124.015 83.7243 124.072 83.4303 124.072C83.0403 124.072 82.6893 123.991 82.3773 123.829C82.0713 123.667 81.8283 123.427 81.6483 123.109C81.4743 122.791 81.3873 122.407 81.3873 121.957V119.041H82.4043V121.804C82.4043 122.248 82.5153 122.59 82.7373 122.83C82.9593 123.064 83.2623 123.181 83.6463 123.181C84.0303 123.181 84.3333 123.064 84.5553 122.83C84.7833 122.59 84.8973 122.248 84.8973 121.804V119.041H85.9233ZM89.0771 124.081C88.6871 124.081 88.3361 124.012 88.0241 123.874C87.7181 123.73 87.4751 123.538 87.2951 123.298C87.1151 123.052 87.0191 122.779 87.0071 122.479H88.0691C88.0871 122.689 88.1861 122.866 88.3661 123.01C88.5521 123.148 88.7831 123.217 89.0591 123.217C89.3471 123.217 89.5691 123.163 89.7251 123.055C89.8871 122.941 89.9681 122.797 89.9681 122.623C89.9681 122.437 89.8781 122.299 89.6981 122.209C89.5241 122.119 89.2451 122.02 88.8611 121.912C88.4891 121.81 88.1861 121.711 87.9521 121.615C87.7181 121.519 87.5141 121.372 87.3401 121.174C87.1721 120.976 87.0881 120.715 87.0881 120.391C87.0881 120.127 87.1661 119.887 87.3221 119.671C87.4781 119.449 87.7001 119.275 87.9881 119.149C88.2821 119.023 88.6181 118.96 88.9961 118.96C89.5601 118.96 90.0131 119.104 90.3551 119.392C90.7031 119.674 90.8891 120.061 90.9131 120.553H89.8871C89.8691 120.331 89.7791 120.154 89.6171 120.022C89.4551 119.89 89.2361 119.824 88.9601 119.824C88.6901 119.824 88.4831 119.875 88.3391 119.977C88.1951 120.079 88.1231 120.214 88.1231 120.382C88.1231 120.514 88.1711 120.625 88.2671 120.715C88.3631 120.805 88.4801 120.877 88.6181 120.931C88.7561 120.979 88.9601 121.042 89.2301 121.12C89.5901 121.216 89.8841 121.315 90.1121 121.417C90.3461 121.513 90.5471 121.657 90.7151 121.849C90.8831 122.041 90.9701 122.296 90.9761 122.614C90.9761 122.896 90.8981 123.148 90.7421 123.37C90.5861 123.592 90.3641 123.766 90.0761 123.892C89.7941 124.018 89.4611 124.081 89.0771 124.081ZM92.6067 118.384C92.4207 118.384 92.2647 118.321 92.1387 118.195C92.0127 118.069 91.9497 117.913 91.9497 117.727C91.9497 117.541 92.0127 117.385 92.1387 117.259C92.2647 117.133 92.4207 117.07 92.6067 117.07C92.7867 117.07 92.9397 117.133 93.0657 117.259C93.1917 117.385 93.2547 117.541 93.2547 117.727C93.2547 117.913 93.1917 118.069 93.0657 118.195C92.9397 118.321 92.7867 118.384 92.6067 118.384ZM93.1107 119.041V124H92.0847V119.041H93.1107ZM94.1157 121.516C94.1157 121.006 94.2177 120.559 94.4217 120.175C94.6317 119.785 94.9197 119.485 95.2857 119.275C95.6517 119.065 96.0717 118.96 96.5457 118.96C97.1457 118.96 97.6407 119.104 98.0307 119.392C98.4267 119.674 98.6937 120.079 98.8317 120.607H97.7247C97.6347 120.361 97.4907 120.169 97.2927 120.031C97.0947 119.893 96.8457 119.824 96.5457 119.824C96.1257 119.824 95.7897 119.974 95.5377 120.274C95.2917 120.568 95.1687 120.982 95.1687 121.516C95.1687 122.05 95.2917 122.467 95.5377 122.767C95.7897 123.067 96.1257 123.217 96.5457 123.217C97.1397 123.217 97.5327 122.956 97.7247 122.434H98.8317C98.6877 122.938 98.4177 123.34 98.0217 123.64C97.6257 123.934 97.1337 124.081 96.5457 124.081C96.0717 124.081 95.6517 123.976 95.2857 123.766C94.9197 123.55 94.6317 123.25 94.4217 122.866C94.2177 122.476 94.1157 122.026 94.1157 121.516Z"></path>
<defs>
<linearGradient gradientUnits="userSpaceOnUse" y2="60.2008" x2="72.1998" y1="21.8008" x1="49.7998" id="paint0_linear_1051_152">
<stop stop-color="#4D4D4D" offset="0.139158"></stop>
<stop stop-color="#242424" offset="0.856518"></stop>
</linearGradient>
<linearGradient gradientUnits="userSpaceOnUse" y2="60.2008" x2="72.1998" y1="21.8008" x1="49.7998" id="paint1_linear_1051_152">
<stop stop-color="#FE924A" offset="0.140625"></stop>
<stop stop-color="#9264BA" offset="0.864583"></stop>
</linearGradient>
<linearGradient gradientUnits="userSpaceOnUse" y2="50.6006" x2="56.2002" y1="31.4006" x1="56.2002" id="paint2_linear_1051_152">
<stop stop-color="white"></stop>
<stop stop-color="#E3E3E3" offset="1"></stop>
</linearGradient>
</defs>
</svg>
