<svg xmlns="http://www.w3.org/2000/svg" fill="none" viewBox="0 0 480 360" height="360" width="480">
<rect fill="#262626" height="96" width="480"></rect>
<path fill="white" d="M56.171 23.632C56.171 24.0207 56.0793 24.3873 55.896 24.732C55.7127 25.0767 55.4193 25.359 55.016 25.579C54.6127 25.7917 54.0957 25.898 53.465 25.898H52.079V29H50.825V21.355H53.465C54.0517 21.355 54.5467 21.4577 54.95 21.663C55.3607 21.861 55.665 22.1323 55.863 22.477C56.0683 22.8217 56.171 23.2067 56.171 23.632ZM53.465 24.875C53.9417 24.875 54.2973 24.7687 54.532 24.556C54.7667 24.336 54.884 24.028 54.884 23.632C54.884 22.796 54.411 22.378 53.465 22.378H52.079V24.875H53.465ZM56.949 25.942C56.949 25.3333 57.0737 24.7943 57.323 24.325C57.5797 23.8557 57.9243 23.4927 58.357 23.236C58.797 22.972 59.281 22.84 59.809 22.84C60.2857 22.84 60.7 22.9353 61.052 23.126C61.4113 23.3093 61.6973 23.5403 61.91 23.819V22.939H63.175V29H61.91V28.098C61.6973 28.384 61.4077 28.6223 61.041 28.813C60.6743 29.0037 60.2563 29.099 59.787 29.099C59.2663 29.099 58.7897 28.967 58.357 28.703C57.9243 28.4317 57.5797 28.0577 57.323 27.581C57.0737 27.097 56.949 26.5507 56.949 25.942ZM61.91 25.964C61.91 25.546 61.822 25.183 61.646 24.875C61.4773 24.567 61.2537 24.3323 60.975 24.171C60.6963 24.0097 60.3957 23.929 60.073 23.929C59.7503 23.929 59.4497 24.0097 59.171 24.171C58.8923 24.325 58.665 24.556 58.489 24.864C58.3203 25.1647 58.236 25.524 58.236 25.942C58.236 26.36 58.3203 26.7267 58.489 27.042C58.665 27.3573 58.8923 27.5993 59.171 27.768C59.457 27.9293 59.7577 28.01 60.073 28.01C60.3957 28.01 60.6963 27.9293 60.975 27.768C61.2537 27.6067 61.4773 27.372 61.646 27.064C61.822 26.7487 61.91 26.382 61.91 25.964ZM65.4601 22.136C65.2327 22.136 65.0421 22.059 64.8881 21.905C64.7341 21.751 64.6571 21.5603 64.6571 21.333C64.6571 21.1057 64.7341 20.915 64.8881 20.761C65.0421 20.607 65.2327 20.53 65.4601 20.53C65.6801 20.53 65.8671 20.607 66.0211 20.761C66.1751 20.915 66.2521 21.1057 66.2521 21.333C66.2521 21.5603 66.1751 21.751 66.0211 21.905C65.8671 22.059 65.6801 22.136 65.4601 22.136ZM66.0761 22.939V29H64.8221V22.939H66.0761ZM70.7805 22.84C71.2571 22.84 71.6825 22.939 72.0565 23.137C72.4378 23.335 72.7348 23.6283 72.9475 24.017C73.1601 24.4057 73.2665 24.875 73.2665 25.425V29H72.0235V25.612C72.0235 25.0693 71.8878 24.655 71.6165 24.369C71.3451 24.0757 70.9748 23.929 70.5055 23.929C70.0361 23.929 69.6621 24.0757 69.3835 24.369C69.1121 24.655 68.9765 25.0693 68.9765 25.612V29H67.7225V22.939H68.9765V23.632C69.1818 23.3827 69.4421 23.1883 69.7575 23.049C70.0801 22.9097 70.4211 22.84 70.7805 22.84ZM76.329 23.962V27.317C76.329 27.5443 76.3803 27.7093 76.483 27.812C76.593 27.9073 76.7763 27.955 77.033 27.955H77.803V29H76.813C76.2483 29 75.8157 28.868 75.515 28.604C75.2143 28.34 75.064 27.911 75.064 27.317V23.962H74.349V22.939H75.064V21.432H76.329V22.939H77.803V23.962H76.329Z"></path>
<path stroke-linejoin="round" stroke-linecap="round" stroke-opacity="0.5" stroke="#808080" d="M0.5 95.5H479.5"></path>
<path fill="url(#paint0_linear_969_3)" d="M26 17C21.9993 16.9995 16.9997 20.6662 17 26.3333C17.0001 27.9644 17.3689 30 19 30C20.6663 30 21.333 27.3333 22.6667 27.3333C23.219 27.3333 23.6667 27.6662 23.6667 28.3333C23.6667 29.3328 22.6667 29.3328 22.6667 30.6667C22.6667 31.6662 23.333 32.3333 24.3333 32.3333C27.9996 32.3333 32.3333 28.0359 32.3333 23.3333C32.3333 20.3328 29.8842 17.0005 26 17Z"></path>
<rect fill="url(#paint1_linear_969_3)" rx="1.33333" height="2.66667" width="2.66667" y="23.6663" x="18.333"></rect>
<rect fill-opacity="0.5" fill="black" rx="1" height="2" width="2" y="24.3328" x="24.333"></rect>
<rect fill="url(#paint2_linear_969_3)" rx="1.33333" height="2.66667" width="2.66667" y="20.3328" x="20.333"></rect>
<rect fill="url(#paint3_linear_969_3)" rx="1.33333" height="2.66667" width="2.66667" y="18.9995" x="23.666"></rect>
<path fill="url(#paint4_linear_969_3)" d="M27.6663 24.9988L29.6663 24.9997L29.3606 32.3327C29.3451 32.705 29.0388 32.9988 28.6662 32.9988C28.2936 32.9988 27.9873 32.705 27.9718 32.3327L27.6663 24.9988Z"></path>
<path fill="url(#paint5_linear_969_3)" d="M27.6663 24.9988V24.3331H29.6663V24.9997L27.6663 24.9988Z"></path>
<path fill="url(#paint6_linear_969_3)" d="M27.6663 24.332L27.0569 23.1136C26.7244 22.4487 27.2078 21.6663 27.9513 21.6663H29.3817C30.1251 21.6663 30.6085 22.4486 30.2761 23.1135L29.6663 24.3331L27.6663 24.332Z"></path>
<defs>
<linearGradient gradientUnits="userSpaceOnUse" y2="30.3328" x2="28.9993" y1="18.9995" x1="20.3327" id="paint0_linear_969_3">
<stop stop-color="#50E6FF"></stop>
<stop stop-color="#0270C2" offset="1"></stop>
</linearGradient>
<linearGradient gradientUnits="userSpaceOnUse" y2="25.6663" x2="20.333" y1="24.3329" x1="18.9997" id="paint1_linear_969_3">
<stop stop-color="#E25113"></stop>
<stop stop-color="#C7390A" offset="1"></stop>
</linearGradient>
<linearGradient gradientUnits="userSpaceOnUse" y2="22.3328" x2="22.333" y1="20.9994" x1="20.9997" id="paint2_linear_969_3">
<stop stop-color="#55B50E"></stop>
<stop stop-color="#1C8610" offset="1"></stop>
</linearGradient>
<linearGradient gradientUnits="userSpaceOnUse" y2="20.9995" x2="25.666" y1="19.6662" x1="24.3327" id="paint3_linear_969_3">
<stop stop-color="#FFD300"></stop>
<stop stop-color="#F39808" offset="1"></stop>
</linearGradient>
<linearGradient gradientUnits="userSpaceOnUse" y2="24.9996" x2="29.6663" y1="24.9996" x1="27.6663" id="paint4_linear_969_3">
<stop stop-color="#AA6701"></stop>
<stop stop-color="#814406" offset="1"></stop>
</linearGradient>
<linearGradient gradientUnits="userSpaceOnUse" y2="24.9996" x2="29.6663" y1="24.9996" x1="27.6663" id="paint5_linear_969_3">
<stop stop-color="#CAD2D9"></stop>
<stop stop-color="#939BA2" offset="1"></stop>
</linearGradient>
<linearGradient gradientUnits="userSpaceOnUse" y2="24.3329" x2="29.6663" y1="21.6663" x1="26.9997" id="paint6_linear_969_3">
<stop stop-color="#F7DEAA"></stop>
<stop stop-color="#C3935E" offset="1"></stop>
</linearGradient>
</defs>
</svg>
