<svg xmlns="http://www.w3.org/2000/svg" fill="none" viewBox="0 0 480 360" height="360" width="480">
<path fill="black" d="M180.592 179.416C180.592 178.328 180.843 177.352 181.344 176.488C181.856 175.624 182.544 174.952 183.408 174.472C184.283 173.981 185.237 173.736 186.272 173.736C187.456 173.736 188.507 174.029 189.424 174.616C190.352 175.192 191.024 176.013 191.44 177.08H189.248C188.96 176.493 188.56 176.056 188.048 175.768C187.536 175.48 186.944 175.336 186.272 175.336C185.536 175.336 184.88 175.501 184.304 175.832C183.728 176.163 183.275 176.637 182.944 177.256C182.624 177.875 182.464 178.595 182.464 179.416C182.464 180.237 182.624 180.957 182.944 181.576C183.275 182.195 183.728 182.675 184.304 183.016C184.88 183.347 185.536 183.512 186.272 183.512C186.944 183.512 187.536 183.368 188.048 183.08C188.56 182.792 188.96 182.355 189.248 181.768H191.44C191.024 182.835 190.352 183.656 189.424 184.232C188.507 184.808 187.456 185.096 186.272 185.096C185.227 185.096 184.272 184.856 183.408 184.376C182.544 183.885 181.856 183.208 181.344 182.344C180.843 181.48 180.592 180.504 180.592 179.416ZM192.967 180.552C192.967 179.667 193.148 178.883 193.511 178.2C193.884 177.517 194.386 176.989 195.015 176.616C195.655 176.232 196.359 176.04 197.127 176.04C197.82 176.04 198.423 176.179 198.935 176.456C199.458 176.723 199.874 177.059 200.183 177.464V176.184H202.023V185H200.183V183.688C199.874 184.104 199.452 184.451 198.919 184.728C198.386 185.005 197.778 185.144 197.095 185.144C196.338 185.144 195.644 184.952 195.015 184.568C194.386 184.173 193.884 183.629 193.511 182.936C193.148 182.232 192.967 181.437 192.967 180.552ZM200.183 180.584C200.183 179.976 200.055 179.448 199.799 179C199.554 178.552 199.228 178.211 198.823 177.976C198.418 177.741 197.98 177.624 197.511 177.624C197.042 177.624 196.604 177.741 196.199 177.976C195.794 178.2 195.463 178.536 195.207 178.984C194.962 179.421 194.839 179.944 194.839 180.552C194.839 181.16 194.962 181.693 195.207 182.152C195.463 182.611 195.794 182.963 196.199 183.208C196.615 183.443 197.052 183.56 197.511 183.56C197.98 183.56 198.418 183.443 198.823 183.208C199.228 182.973 199.554 182.632 199.799 182.184C200.055 181.725 200.183 181.192 200.183 180.584ZM206.243 173.16V185H204.419V173.16H206.243ZM208.03 180.584C208.03 179.677 208.211 178.883 208.574 178.2C208.947 177.507 209.459 176.973 210.11 176.6C210.76 176.227 211.507 176.04 212.35 176.04C213.416 176.04 214.296 176.296 214.99 176.808C215.694 177.309 216.168 178.029 216.414 178.968H214.446C214.286 178.531 214.03 178.189 213.678 177.944C213.326 177.699 212.883 177.576 212.35 177.576C211.603 177.576 211.006 177.843 210.558 178.376C210.12 178.899 209.902 179.635 209.902 180.584C209.902 181.533 210.12 182.275 210.558 182.808C211.006 183.341 211.603 183.608 212.35 183.608C213.406 183.608 214.104 183.144 214.446 182.216H216.414C216.158 183.112 215.678 183.827 214.974 184.36C214.27 184.883 213.395 185.144 212.35 185.144C211.507 185.144 210.76 184.957 210.11 184.584C209.459 184.2 208.947 183.667 208.574 182.984C208.211 182.291 208.03 181.491 208.03 180.584ZM226.215 176.184V185H224.391V183.96C224.103 184.323 223.725 184.611 223.255 184.824C222.797 185.027 222.306 185.128 221.783 185.128C221.09 185.128 220.466 184.984 219.911 184.696C219.367 184.408 218.935 183.981 218.615 183.416C218.306 182.851 218.151 182.168 218.151 181.368V176.184H219.959V181.096C219.959 181.885 220.157 182.493 220.551 182.92C220.946 183.336 221.485 183.544 222.167 183.544C222.85 183.544 223.389 183.336 223.783 182.92C224.189 182.493 224.391 181.885 224.391 181.096V176.184H226.215ZM230.446 173.16V185H228.622V173.16H230.446ZM232.233 180.552C232.233 179.667 232.414 178.883 232.777 178.2C233.15 177.517 233.651 176.989 234.281 176.616C234.921 176.232 235.625 176.04 236.393 176.04C237.086 176.04 237.689 176.179 238.201 176.456C238.723 176.723 239.139 177.059 239.449 177.464V176.184H241.289V185H239.449V183.688C239.139 184.104 238.718 184.451 238.185 184.728C237.651 185.005 237.043 185.144 236.361 185.144C235.603 185.144 234.91 184.952 234.281 184.568C233.651 184.173 233.15 183.629 232.777 182.936C232.414 182.232 232.233 181.437 232.233 180.552ZM239.449 180.584C239.449 179.976 239.321 179.448 239.065 179C238.819 178.552 238.494 178.211 238.089 177.976C237.683 177.741 237.246 177.624 236.777 177.624C236.307 177.624 235.87 177.741 235.465 177.976C235.059 178.2 234.729 178.536 234.473 178.984C234.227 179.421 234.105 179.944 234.105 180.552C234.105 181.16 234.227 181.693 234.473 182.152C234.729 182.611 235.059 182.963 235.465 183.208C235.881 183.443 236.318 183.56 236.777 183.56C237.246 183.56 237.683 183.443 238.089 183.208C238.494 182.973 238.819 182.632 239.065 182.184C239.321 181.725 239.449 181.192 239.449 180.584ZM245.812 177.672V182.552C245.812 182.883 245.887 183.123 246.036 183.272C246.196 183.411 246.463 183.48 246.836 183.48H247.956V185H246.516C245.695 185 245.066 184.808 244.628 184.424C244.191 184.04 243.972 183.416 243.972 182.552V177.672H242.932V176.184H243.972V173.992H245.812V176.184H247.956V177.672H245.812ZM253.462 185.144C252.63 185.144 251.878 184.957 251.206 184.584C250.534 184.2 250.006 183.667 249.622 182.984C249.238 182.291 249.046 181.491 249.046 180.584C249.046 179.688 249.243 178.893 249.638 178.2C250.032 177.507 250.571 176.973 251.254 176.6C251.936 176.227 252.699 176.04 253.542 176.04C254.384 176.04 255.147 176.227 255.83 176.6C256.512 176.973 257.051 177.507 257.446 178.2C257.84 178.893 258.038 179.688 258.038 180.584C258.038 181.48 257.835 182.275 257.43 182.968C257.024 183.661 256.47 184.2 255.766 184.584C255.072 184.957 254.304 185.144 253.462 185.144ZM253.462 183.56C253.931 183.56 254.368 183.448 254.774 183.224C255.19 183 255.526 182.664 255.782 182.216C256.038 181.768 256.166 181.224 256.166 180.584C256.166 179.944 256.043 179.405 255.798 178.968C255.552 178.52 255.227 178.184 254.822 177.96C254.416 177.736 253.979 177.624 253.51 177.624C253.04 177.624 252.603 177.736 252.198 177.96C251.803 178.184 251.488 178.52 251.254 178.968C251.019 179.405 250.902 179.944 250.902 180.584C250.902 181.533 251.142 182.269 251.622 182.792C252.112 183.304 252.726 183.56 253.462 183.56ZM261.665 177.464C261.931 177.016 262.283 176.669 262.721 176.424C263.169 176.168 263.697 176.04 264.305 176.04V177.928H263.841C263.126 177.928 262.582 178.109 262.209 178.472C261.846 178.835 261.665 179.464 261.665 180.36V185H259.841V176.184H261.665V177.464Z"></path>
<path fill="#0076B3" d="M184.994 198.355V203.866C184.994 204.548 184.785 205.087 184.367 205.483C183.956 205.879 183.414 206.077 182.739 206.077C182.064 206.077 181.518 205.879 181.1 205.483C180.689 205.087 180.484 204.548 180.484 203.866H181.749C181.756 204.203 181.841 204.471 182.002 204.669C182.171 204.867 182.416 204.966 182.739 204.966C183.062 204.966 183.307 204.867 183.476 204.669C183.645 204.464 183.729 204.196 183.729 203.866V198.355H184.994ZM188.288 197.86V206H187.034V197.86H188.288ZM192.563 206.099C191.991 206.099 191.474 205.971 191.012 205.714C190.55 205.45 190.187 205.083 189.923 204.614C189.659 204.137 189.527 203.587 189.527 202.964C189.527 202.348 189.663 201.802 189.934 201.325C190.206 200.848 190.576 200.482 191.045 200.225C191.515 199.968 192.039 199.84 192.618 199.84C193.198 199.84 193.722 199.968 194.191 200.225C194.661 200.482 195.031 200.848 195.302 201.325C195.574 201.802 195.709 202.348 195.709 202.964C195.709 203.58 195.57 204.126 195.291 204.603C195.013 205.08 194.631 205.45 194.147 205.714C193.671 205.971 193.143 206.099 192.563 206.099ZM192.563 205.01C192.886 205.01 193.187 204.933 193.465 204.779C193.751 204.625 193.982 204.394 194.158 204.086C194.334 203.778 194.422 203.404 194.422 202.964C194.422 202.524 194.338 202.154 194.169 201.853C194.001 201.545 193.777 201.314 193.498 201.16C193.22 201.006 192.919 200.929 192.596 200.929C192.274 200.929 191.973 201.006 191.694 201.16C191.423 201.314 191.207 201.545 191.045 201.853C190.884 202.154 190.803 202.524 190.803 202.964C190.803 203.617 190.968 204.123 191.298 204.482C191.636 204.834 192.057 205.01 192.563 205.01ZM201.558 204.438H198.357L197.807 206H196.498L199.237 198.344H200.689L203.428 206H202.108L201.558 204.438ZM201.206 203.415L199.963 199.862L198.709 203.415H201.206ZM210.108 199.939V206H208.854V205.285C208.656 205.534 208.396 205.732 208.073 205.879C207.758 206.018 207.42 206.088 207.061 206.088C206.584 206.088 206.155 205.989 205.774 205.791C205.4 205.593 205.103 205.3 204.883 204.911C204.67 204.522 204.564 204.053 204.564 203.503V199.939H205.807V203.316C205.807 203.859 205.943 204.277 206.214 204.57C206.485 204.856 206.856 204.999 207.325 204.999C207.794 204.999 208.165 204.856 208.436 204.57C208.715 204.277 208.854 203.859 208.854 203.316V199.939H210.108Z"></path>
<rect fill="url(#paint0_linear_930_2)" rx="3.2" height="38.4" width="28.8" y="170.8" x="105.601"></rect>
<rect fill="#CAD2D9" rx="0.8" height="6.4" width="6.4" y="183.6" x="108.801"></rect>
<rect fill="#CAD2D9" rx="0.8" height="6.4" width="6.4" y="191.6" x="108.801"></rect>
<rect fill="#CAD2D9" rx="0.8" height="6.4" width="6.4" y="199.6" x="108.801"></rect>
<rect fill="#CAD2D9" rx="0.8" height="6.4" width="6.4" y="199.6" x="116.801"></rect>
<rect fill="#CAD2D9" rx="0.8" height="6.4" width="6.4" y="191.6" x="116.801"></rect>
<rect fill="#CAD2D9" rx="0.8" height="6.4" width="6.4" y="183.6" x="116.801"></rect>
<rect fill="#CAD2D9" rx="0.8" height="6.4" width="6.4" y="183.6" x="124.801"></rect>
<rect fill="url(#paint1_linear_930_2)" rx="0.8" height="14.4" width="6.4" y="191.6" x="124.801"></rect>
<rect fill="#6A6A6A" rx="0.8" height="6.4" width="22.4" y="175.6" x="108.801"></rect>
<rect fill="url(#paint2_linear_930_2)" rx="0.8" height="6.4" width="22.4" y="174" x="108.801"></rect>
<path fill-opacity="0.9" fill="#D9D9D9" d="M60 320C60 314.477 64.4772 310 70 310H460C465.523 310 470 314.477 470 320V340C470 345.523 465.523 350 460 350H70C64.4771 350 60 345.523 60 340V320Z"></path>
<path stroke-opacity="0.2" stroke="white" d="M460 309.5H70C64.201 309.5 59.5 314.201 59.5 320V340C59.5 345.799 64.201 350.5 70 350.5H460C465.799 350.5 470.5 345.799 470.5 340V320C470.5 314.201 465.799 309.5 460 309.5Z"></path>
<path fill="black" d="M78.9716 328.632C78.9716 329.021 78.8799 329.387 78.6966 329.732C78.5133 330.077 78.2199 330.359 77.8166 330.579C77.4133 330.792 76.8963 330.898 76.2656 330.898H74.8796V334H73.6256V326.355H76.2656C76.8523 326.355 77.3473 326.458 77.7506 326.663C78.1613 326.861 78.4656 327.132 78.6636 327.477C78.8689 327.822 78.9716 328.207 78.9716 328.632ZM76.2656 329.875C76.7423 329.875 77.0979 329.769 77.3326 329.556C77.5673 329.336 77.6846 329.028 77.6846 328.632C77.6846 327.796 77.2116 327.378 76.2656 327.378H74.8796V329.875H76.2656ZM85.7226 330.821C85.7226 331.048 85.7079 331.254 85.6786 331.437H81.0476C81.0843 331.921 81.2639 332.31 81.5866 332.603C81.9093 332.896 82.3053 333.043 82.7746 333.043C83.4493 333.043 83.9259 332.761 84.2046 332.196H85.5576C85.3743 332.753 85.0406 333.212 84.5566 333.571C84.0799 333.923 83.4859 334.099 82.7746 334.099C82.1953 334.099 81.6746 333.971 81.2126 333.714C80.7579 333.45 80.3986 333.083 80.1346 332.614C79.8779 332.137 79.7496 331.587 79.7496 330.964C79.7496 330.341 79.8743 329.794 80.1236 329.325C80.3803 328.848 80.7359 328.482 81.1906 328.225C81.6526 327.968 82.1806 327.84 82.7746 327.84C83.3466 327.84 83.8563 327.965 84.3036 328.214C84.7509 328.463 85.0993 328.815 85.3486 329.27C85.5979 329.717 85.7226 330.234 85.7226 330.821ZM84.4136 330.425C84.4063 329.963 84.2413 329.593 83.9186 329.314C83.5959 329.035 83.1963 328.896 82.7196 328.896C82.2869 328.896 81.9166 329.035 81.6086 329.314C81.3006 329.585 81.1173 329.956 81.0586 330.425H84.4136ZM88.2107 328.819C88.394 328.511 88.636 328.273 88.9367 328.104C89.2447 327.928 89.6077 327.84 90.0257 327.84V329.138H89.7067C89.2153 329.138 88.8413 329.263 88.5847 329.512C88.3353 329.761 88.2107 330.194 88.2107 330.81V334H86.9567V327.939H88.2107V328.819ZM93.7193 328.962H92.5973V334H91.3323V328.962H90.6173V327.939H91.3323V327.51C91.3323 326.813 91.5157 326.307 91.8823 325.992C92.2563 325.669 92.8393 325.508 93.6313 325.508V326.553C93.25 326.553 92.9823 326.626 92.8283 326.773C92.6743 326.912 92.5973 327.158 92.5973 327.51V327.939H93.7193V328.962ZM97.4597 334.099C96.8877 334.099 96.3707 333.971 95.9087 333.714C95.4467 333.45 95.0837 333.083 94.8197 332.614C94.5557 332.137 94.4237 331.587 94.4237 330.964C94.4237 330.348 94.5593 329.802 94.8307 329.325C95.102 328.848 95.4723 328.482 95.9417 328.225C96.411 327.968 96.9353 327.84 97.5147 327.84C98.094 327.84 98.6183 327.968 99.0877 328.225C99.557 328.482 99.9273 328.848 100.199 329.325C100.47 329.802 100.606 330.348 100.606 330.964C100.606 331.58 100.466 332.126 100.188 332.603C99.909 333.08 99.5277 333.45 99.0437 333.714C98.567 333.971 98.039 334.099 97.4597 334.099ZM97.4597 333.01C97.7823 333.01 98.083 332.933 98.3617 332.779C98.6477 332.625 98.8787 332.394 99.0547 332.086C99.2307 331.778 99.3187 331.404 99.3187 330.964C99.3187 330.524 99.2343 330.154 99.0657 329.853C98.897 329.545 98.6733 329.314 98.3947 329.16C98.116 329.006 97.8153 328.929 97.4927 328.929C97.17 328.929 96.8693 329.006 96.5907 329.16C96.3193 329.314 96.103 329.545 95.9417 329.853C95.7803 330.154 95.6997 330.524 95.6997 330.964C95.6997 331.617 95.8647 332.123 96.1947 332.482C96.532 332.834 96.9537 333.01 97.4597 333.01ZM103.099 328.819C103.283 328.511 103.525 328.273 103.825 328.104C104.133 327.928 104.496 327.84 104.914 327.84V329.138H104.595C104.104 329.138 103.73 329.263 103.473 329.512C103.224 329.761 103.099 330.194 103.099 330.81V334H101.845V327.939H103.099V328.819ZM113.404 327.84C113.881 327.84 114.306 327.939 114.68 328.137C115.061 328.335 115.358 328.628 115.571 329.017C115.791 329.406 115.901 329.875 115.901 330.425V334H114.658V330.612C114.658 330.069 114.522 329.655 114.251 329.369C113.98 329.076 113.609 328.929 113.14 328.929C112.671 328.929 112.297 329.076 112.018 329.369C111.747 329.655 111.611 330.069 111.611 330.612V334H110.368V330.612C110.368 330.069 110.232 329.655 109.961 329.369C109.69 329.076 109.319 328.929 108.85 328.929C108.381 328.929 108.007 329.076 107.728 329.369C107.457 329.655 107.321 330.069 107.321 330.612V334H106.067V327.939H107.321V328.632C107.526 328.383 107.787 328.188 108.102 328.049C108.417 327.91 108.755 327.84 109.114 327.84C109.598 327.84 110.031 327.943 110.412 328.148C110.793 328.353 111.087 328.65 111.292 329.039C111.475 328.672 111.761 328.383 112.15 328.17C112.539 327.95 112.957 327.84 113.404 327.84ZM122.554 334.099C122.077 334.099 121.648 334.015 121.267 333.846C120.893 333.67 120.596 333.435 120.376 333.142C120.156 332.841 120.039 332.508 120.024 332.141H121.322C121.344 332.398 121.465 332.614 121.685 332.79C121.912 332.959 122.195 333.043 122.532 333.043C122.884 333.043 123.155 332.977 123.346 332.845C123.544 332.706 123.643 332.53 123.643 332.317C123.643 332.09 123.533 331.921 123.313 331.811C123.1 331.701 122.759 331.58 122.29 331.448C121.835 331.323 121.465 331.202 121.179 331.085C120.893 330.968 120.644 330.788 120.431 330.546C120.226 330.304 120.123 329.985 120.123 329.589C120.123 329.266 120.218 328.973 120.409 328.709C120.6 328.438 120.871 328.225 121.223 328.071C121.582 327.917 121.993 327.84 122.455 327.84C123.144 327.84 123.698 328.016 124.116 328.368C124.541 328.713 124.769 329.186 124.798 329.787H123.544C123.522 329.516 123.412 329.299 123.214 329.138C123.016 328.977 122.748 328.896 122.411 328.896C122.081 328.896 121.828 328.958 121.652 329.083C121.476 329.208 121.388 329.373 121.388 329.578C121.388 329.739 121.447 329.875 121.564 329.985C121.681 330.095 121.824 330.183 121.993 330.249C122.162 330.308 122.411 330.385 122.741 330.48C123.181 330.597 123.54 330.718 123.819 330.843C124.105 330.96 124.351 331.136 124.556 331.371C124.761 331.606 124.868 331.917 124.875 332.306C124.875 332.651 124.78 332.959 124.589 333.23C124.398 333.501 124.127 333.714 123.775 333.868C123.43 334.022 123.023 334.099 122.554 334.099ZM126.868 327.136C126.641 327.136 126.45 327.059 126.296 326.905C126.142 326.751 126.065 326.56 126.065 326.333C126.065 326.106 126.142 325.915 126.296 325.761C126.45 325.607 126.641 325.53 126.868 325.53C127.088 325.53 127.275 325.607 127.429 325.761C127.583 325.915 127.66 326.106 127.66 326.333C127.66 326.56 127.583 326.751 127.429 326.905C127.275 327.059 127.088 327.136 126.868 327.136ZM127.484 327.939V334H126.23V327.939H127.484ZM136.467 327.84C136.944 327.84 137.369 327.939 137.743 328.137C138.125 328.335 138.422 328.628 138.634 329.017C138.854 329.406 138.964 329.875 138.964 330.425V334H137.721V330.612C137.721 330.069 137.586 329.655 137.314 329.369C137.043 329.076 136.673 328.929 136.203 328.929C135.734 328.929 135.36 329.076 135.081 329.369C134.81 329.655 134.674 330.069 134.674 330.612V334H133.431V330.612C133.431 330.069 133.296 329.655 133.024 329.369C132.753 329.076 132.383 328.929 131.913 328.929C131.444 328.929 131.07 329.076 130.791 329.369C130.52 329.655 130.384 330.069 130.384 330.612V334H129.13V327.939H130.384V328.632C130.59 328.383 130.85 328.188 131.165 328.049C131.481 327.91 131.818 327.84 132.177 327.84C132.661 327.84 133.094 327.943 133.475 328.148C133.857 328.353 134.15 328.65 134.355 329.039C134.539 328.672 134.825 328.383 135.213 328.17C135.602 327.95 136.02 327.84 136.467 327.84ZM141.814 328.83C142.027 328.551 142.317 328.317 142.683 328.126C143.05 327.935 143.464 327.84 143.926 327.84C144.454 327.84 144.935 327.972 145.367 328.236C145.807 328.493 146.152 328.856 146.401 329.325C146.651 329.794 146.775 330.333 146.775 330.942C146.775 331.551 146.651 332.097 146.401 332.581C146.152 333.058 145.807 333.432 145.367 333.703C144.935 333.967 144.454 334.099 143.926 334.099C143.464 334.099 143.054 334.007 142.694 333.824C142.335 333.633 142.042 333.399 141.814 333.12V336.882H140.56V327.939H141.814V328.83ZM145.499 330.942C145.499 330.524 145.411 330.165 145.235 329.864C145.067 329.556 144.839 329.325 144.553 329.171C144.275 329.01 143.974 328.929 143.651 328.929C143.336 328.929 143.035 329.01 142.749 329.171C142.471 329.332 142.243 329.567 142.067 329.875C141.899 330.183 141.814 330.546 141.814 330.964C141.814 331.382 141.899 331.749 142.067 332.064C142.243 332.372 142.471 332.607 142.749 332.768C143.035 332.929 143.336 333.01 143.651 333.01C143.974 333.01 144.275 332.929 144.553 332.768C144.839 332.599 145.067 332.357 145.235 332.042C145.411 331.727 145.499 331.36 145.499 330.942ZM149.269 325.86V334H148.015V325.86H149.269ZM156.471 330.821C156.471 331.048 156.456 331.254 156.427 331.437H151.796C151.832 331.921 152.012 332.31 152.335 332.603C152.657 332.896 153.053 333.043 153.523 333.043C154.197 333.043 154.674 332.761 154.953 332.196H156.306C156.122 332.753 155.789 333.212 155.305 333.571C154.828 333.923 154.234 334.099 153.523 334.099C152.943 334.099 152.423 333.971 151.961 333.714C151.506 333.45 151.147 333.083 150.883 332.614C150.626 332.137 150.498 331.587 150.498 330.964C150.498 330.341 150.622 329.794 150.872 329.325C151.128 328.848 151.484 328.482 151.939 328.225C152.401 327.968 152.929 327.84 153.523 327.84C154.095 327.84 154.604 327.965 155.052 328.214C155.499 328.463 155.847 328.815 156.097 329.27C156.346 329.717 156.471 330.234 156.471 330.821ZM155.162 330.425C155.154 329.963 154.989 329.593 154.667 329.314C154.344 329.035 153.944 328.896 153.468 328.896C153.035 328.896 152.665 329.035 152.357 329.314C152.049 329.585 151.865 329.956 151.807 330.425H155.162ZM160.144 330.964C160.144 330.341 160.269 329.794 160.518 329.325C160.775 328.848 161.127 328.482 161.574 328.225C162.021 327.968 162.535 327.84 163.114 327.84C163.847 327.84 164.452 328.016 164.929 328.368C165.413 328.713 165.739 329.208 165.908 329.853H164.555C164.445 329.552 164.269 329.318 164.027 329.149C163.785 328.98 163.481 328.896 163.114 328.896C162.601 328.896 162.19 329.079 161.882 329.446C161.581 329.805 161.431 330.311 161.431 330.964C161.431 331.617 161.581 332.126 161.882 332.493C162.19 332.86 162.601 333.043 163.114 333.043C163.84 333.043 164.32 332.724 164.555 332.086H165.908C165.732 332.702 165.402 333.193 164.918 333.56C164.434 333.919 163.833 334.099 163.114 334.099C162.535 334.099 162.021 333.971 161.574 333.714C161.127 333.45 160.775 333.083 160.518 332.614C160.269 332.137 160.144 331.587 160.144 330.964ZM166.74 330.942C166.74 330.333 166.864 329.794 167.114 329.325C167.37 328.856 167.715 328.493 168.148 328.236C168.588 327.972 169.072 327.84 169.6 327.84C170.076 327.84 170.491 327.935 170.843 328.126C171.202 328.309 171.488 328.54 171.701 328.819V327.939H172.966V334H171.701V333.098C171.488 333.384 171.198 333.622 170.832 333.813C170.465 334.004 170.047 334.099 169.578 334.099C169.057 334.099 168.58 333.967 168.148 333.703C167.715 333.432 167.37 333.058 167.114 332.581C166.864 332.097 166.74 331.551 166.74 330.942ZM171.701 330.964C171.701 330.546 171.613 330.183 171.437 329.875C171.268 329.567 171.044 329.332 170.766 329.171C170.487 329.01 170.186 328.929 169.864 328.929C169.541 328.929 169.24 329.01 168.962 329.171C168.683 329.325 168.456 329.556 168.28 329.864C168.111 330.165 168.027 330.524 168.027 330.942C168.027 331.36 168.111 331.727 168.28 332.042C168.456 332.357 168.683 332.599 168.962 332.768C169.248 332.929 169.548 333.01 169.864 333.01C170.186 333.01 170.487 332.929 170.766 332.768C171.044 332.607 171.268 332.372 171.437 332.064C171.613 331.749 171.701 331.382 171.701 330.964ZM175.867 325.86V334H174.613V325.86H175.867ZM177.095 330.964C177.095 330.341 177.22 329.794 177.469 329.325C177.726 328.848 178.078 328.482 178.525 328.225C178.973 327.968 179.486 327.84 180.065 327.84C180.799 327.84 181.404 328.016 181.88 328.368C182.364 328.713 182.691 329.208 182.859 329.853H181.506C181.396 329.552 181.22 329.318 180.978 329.149C180.736 328.98 180.432 328.896 180.065 328.896C179.552 328.896 179.141 329.079 178.833 329.446C178.533 329.805 178.382 330.311 178.382 330.964C178.382 331.617 178.533 332.126 178.833 332.493C179.141 332.86 179.552 333.043 180.065 333.043C180.791 333.043 181.272 332.724 181.506 332.086H182.859C182.683 332.702 182.353 333.193 181.869 333.56C181.385 333.919 180.784 334.099 180.065 334.099C179.486 334.099 178.973 333.971 178.525 333.714C178.078 333.45 177.726 333.083 177.469 332.614C177.22 332.137 177.095 331.587 177.095 330.964ZM189.598 327.939V334H188.344V333.285C188.146 333.534 187.886 333.732 187.563 333.879C187.248 334.018 186.91 334.088 186.551 334.088C186.074 334.088 185.645 333.989 185.264 333.791C184.89 333.593 184.593 333.3 184.373 332.911C184.16 332.522 184.054 332.053 184.054 331.503V327.939H185.297V331.316C185.297 331.859 185.433 332.277 185.704 332.57C185.975 332.856 186.346 332.999 186.815 332.999C187.284 332.999 187.655 332.856 187.926 332.57C188.205 332.277 188.344 331.859 188.344 331.316V327.939H189.598ZM192.507 325.86V334H191.253V325.86H192.507ZM193.735 330.942C193.735 330.333 193.86 329.794 194.109 329.325C194.366 328.856 194.71 328.493 195.143 328.236C195.583 327.972 196.067 327.84 196.595 327.84C197.072 327.84 197.486 327.935 197.838 328.126C198.197 328.309 198.483 328.54 198.696 328.819V327.939H199.961V334H198.696V333.098C198.483 333.384 198.194 333.622 197.827 333.813C197.46 334.004 197.042 334.099 196.573 334.099C196.052 334.099 195.576 333.967 195.143 333.703C194.71 333.432 194.366 333.058 194.109 332.581C193.86 332.097 193.735 331.551 193.735 330.942ZM198.696 330.964C198.696 330.546 198.608 330.183 198.432 329.875C198.263 329.567 198.04 329.332 197.761 329.171C197.482 329.01 197.182 328.929 196.859 328.929C196.536 328.929 196.236 329.01 195.957 329.171C195.678 329.325 195.451 329.556 195.275 329.864C195.106 330.165 195.022 330.524 195.022 330.942C195.022 331.36 195.106 331.727 195.275 332.042C195.451 332.357 195.678 332.599 195.957 332.768C196.243 332.929 196.544 333.01 196.859 333.01C197.182 333.01 197.482 332.929 197.761 332.768C198.04 332.607 198.263 332.372 198.432 332.064C198.608 331.749 198.696 331.382 198.696 330.964ZM203.071 328.962V332.317C203.071 332.544 203.122 332.709 203.225 332.812C203.335 332.907 203.518 332.955 203.775 332.955H204.545V334H203.555C202.99 334 202.558 333.868 202.257 333.604C201.956 333.34 201.806 332.911 201.806 332.317V328.962H201.091V327.939H201.806V326.432H203.071V327.939H204.545V328.962H203.071ZM206.339 327.136C206.111 327.136 205.921 327.059 205.767 326.905C205.613 326.751 205.536 326.56 205.536 326.333C205.536 326.106 205.613 325.915 205.767 325.761C205.921 325.607 206.111 325.53 206.339 325.53C206.559 325.53 206.746 325.607 206.9 325.761C207.054 325.915 207.131 326.106 207.131 326.333C207.131 326.56 207.054 326.751 206.9 326.905C206.746 327.059 206.559 327.136 206.339 327.136ZM206.955 327.939V334H205.701V327.939H206.955ZM211.23 334.099C210.658 334.099 210.141 333.971 209.679 333.714C209.217 333.45 208.854 333.083 208.59 332.614C208.326 332.137 208.194 331.587 208.194 330.964C208.194 330.348 208.33 329.802 208.601 329.325C208.873 328.848 209.243 328.482 209.712 328.225C210.182 327.968 210.706 327.84 211.285 327.84C211.865 327.84 212.389 327.968 212.858 328.225C213.328 328.482 213.698 328.848 213.969 329.325C214.241 329.802 214.376 330.348 214.376 330.964C214.376 331.58 214.237 332.126 213.958 332.603C213.68 333.08 213.298 333.45 212.814 333.714C212.338 333.971 211.81 334.099 211.23 334.099ZM211.23 333.01C211.553 333.01 211.854 332.933 212.132 332.779C212.418 332.625 212.649 332.394 212.825 332.086C213.001 331.778 213.089 331.404 213.089 330.964C213.089 330.524 213.005 330.154 212.836 329.853C212.668 329.545 212.444 329.314 212.165 329.16C211.887 329.006 211.586 328.929 211.263 328.929C210.941 328.929 210.64 329.006 210.361 329.16C210.09 329.314 209.874 329.545 209.712 329.853C209.551 330.154 209.47 330.524 209.47 330.964C209.47 331.617 209.635 332.123 209.965 332.482C210.303 332.834 210.724 333.01 211.23 333.01ZM218.674 327.84C219.15 327.84 219.576 327.939 219.95 328.137C220.331 328.335 220.628 328.628 220.841 329.017C221.053 329.406 221.16 329.875 221.16 330.425V334H219.917V330.612C219.917 330.069 219.781 329.655 219.51 329.369C219.238 329.076 218.868 328.929 218.399 328.929C217.929 328.929 217.555 329.076 217.277 329.369C217.005 329.655 216.87 330.069 216.87 330.612V334H215.616V327.939H216.87V328.632C217.075 328.383 217.335 328.188 217.651 328.049C217.973 327.91 218.314 327.84 218.674 327.84ZM224.959 334.099C224.483 334.099 224.054 334.015 223.672 333.846C223.298 333.67 223.001 333.435 222.781 333.142C222.561 332.841 222.444 332.508 222.429 332.141H223.727C223.749 332.398 223.87 332.614 224.09 332.79C224.318 332.959 224.6 333.043 224.937 333.043C225.289 333.043 225.561 332.977 225.751 332.845C225.949 332.706 226.048 332.53 226.048 332.317C226.048 332.09 225.938 331.921 225.718 331.811C225.506 331.701 225.165 331.58 224.695 331.448C224.241 331.323 223.87 331.202 223.584 331.085C223.298 330.968 223.049 330.788 222.836 330.546C222.631 330.304 222.528 329.985 222.528 329.589C222.528 329.266 222.624 328.973 222.814 328.709C223.005 328.438 223.276 328.225 223.628 328.071C223.988 327.917 224.398 327.84 224.86 327.84C225.55 327.84 226.103 328.016 226.521 328.368C226.947 328.713 227.174 329.186 227.203 329.787H225.949C225.927 329.516 225.817 329.299 225.619 329.138C225.421 328.977 225.154 328.896 224.816 328.896C224.486 328.896 224.233 328.958 224.057 329.083C223.881 329.208 223.793 329.373 223.793 329.578C223.793 329.739 223.852 329.875 223.969 329.985C224.087 330.095 224.23 330.183 224.398 330.249C224.567 330.308 224.816 330.385 225.146 330.48C225.586 330.597 225.946 330.718 226.224 330.843C226.51 330.96 226.756 331.136 226.961 331.371C227.167 331.606 227.273 331.917 227.28 332.306C227.28 332.651 227.185 332.959 226.994 333.23C226.804 333.501 226.532 333.714 226.18 333.868C225.836 334.022 225.429 334.099 224.959 334.099ZM239.633 327.939L237.752 334H236.432L235.211 329.523L233.99 334H232.67L230.778 327.939H232.054L233.319 332.812L234.606 327.939H235.915L237.147 332.79L238.401 327.939H239.633ZM241.208 327.136C240.981 327.136 240.79 327.059 240.636 326.905C240.482 326.751 240.405 326.56 240.405 326.333C240.405 326.106 240.482 325.915 240.636 325.761C240.79 325.607 240.981 325.53 241.208 325.53C241.428 325.53 241.615 325.607 241.769 325.761C241.923 325.915 242 326.106 242 326.333C242 326.56 241.923 326.751 241.769 326.905C241.615 327.059 241.428 327.136 241.208 327.136ZM241.824 327.939V334H240.57V327.939H241.824ZM244.933 328.962V332.317C244.933 332.544 244.985 332.709 245.087 332.812C245.197 332.907 245.381 332.955 245.637 332.955H246.407V334H245.417C244.853 334 244.42 333.868 244.119 333.604C243.819 333.34 243.668 332.911 243.668 332.317V328.962H242.953V327.939H243.668V326.432H244.933V327.939H246.407V328.962H244.933ZM250.698 327.84C251.16 327.84 251.571 327.939 251.93 328.137C252.297 328.335 252.583 328.628 252.788 329.017C253.001 329.406 253.107 329.875 253.107 330.425V334H251.864V330.612C251.864 330.069 251.728 329.655 251.457 329.369C251.186 329.076 250.815 328.929 250.346 328.929C249.877 328.929 249.503 329.076 249.224 329.369C248.953 329.655 248.817 330.069 248.817 330.612V334H247.563V325.86H248.817V328.643C249.03 328.386 249.297 328.188 249.62 328.049C249.95 327.91 250.309 327.84 250.698 327.84ZM259.027 328.962V332.317C259.027 332.544 259.078 332.709 259.181 332.812C259.291 332.907 259.474 332.955 259.731 332.955H260.501V334H259.511C258.946 334 258.514 333.868 258.213 333.604C257.912 333.34 257.762 332.911 257.762 332.317V328.962H257.047V327.939H257.762V326.432H259.027V327.939H260.501V328.962H259.027ZM264.792 327.84C265.254 327.84 265.665 327.939 266.024 328.137C266.391 328.335 266.677 328.628 266.882 329.017C267.095 329.406 267.201 329.875 267.201 330.425V334H265.958V330.612C265.958 330.069 265.822 329.655 265.551 329.369C265.28 329.076 264.909 328.929 264.44 328.929C263.971 328.929 263.597 329.076 263.318 329.369C263.047 329.655 262.911 330.069 262.911 330.612V334H261.657V325.86H262.911V328.643C263.124 328.386 263.391 328.188 263.714 328.049C264.044 327.91 264.403 327.84 264.792 327.84ZM274.355 330.821C274.355 331.048 274.341 331.254 274.311 331.437H269.68C269.717 331.921 269.897 332.31 270.219 332.603C270.542 332.896 270.938 333.043 271.407 333.043C272.082 333.043 272.559 332.761 272.837 332.196H274.19C274.007 332.753 273.673 333.212 273.189 333.571C272.713 333.923 272.119 334.099 271.407 334.099C270.828 334.099 270.307 333.971 269.845 333.714C269.391 333.45 269.031 333.083 268.767 332.614C268.511 332.137 268.382 331.587 268.382 330.964C268.382 330.341 268.507 329.794 268.756 329.325C269.013 328.848 269.369 328.482 269.823 328.225C270.285 327.968 270.813 327.84 271.407 327.84C271.979 327.84 272.489 327.965 272.936 328.214C273.384 328.463 273.732 328.815 273.981 329.27C274.231 329.717 274.355 330.234 274.355 330.821ZM273.046 330.425C273.039 329.963 272.874 329.593 272.551 329.314C272.229 329.035 271.829 328.896 271.352 328.896C270.92 328.896 270.549 329.035 270.241 329.314C269.933 329.585 269.75 329.956 269.691 330.425H273.046ZM280.966 334.077C280.453 334.077 279.991 333.989 279.58 333.813C279.169 333.63 278.847 333.373 278.612 333.043C278.377 332.713 278.26 332.328 278.26 331.888H279.602C279.631 332.218 279.76 332.489 279.987 332.702C280.222 332.915 280.548 333.021 280.966 333.021C281.399 333.021 281.736 332.918 281.978 332.713C282.22 332.5 282.341 332.229 282.341 331.899C282.341 331.642 282.264 331.433 282.11 331.272C281.963 331.111 281.776 330.986 281.549 330.898C281.329 330.81 281.021 330.715 280.625 330.612C280.126 330.48 279.719 330.348 279.404 330.216C279.096 330.077 278.832 329.864 278.612 329.578C278.392 329.292 278.282 328.911 278.282 328.434C278.282 327.994 278.392 327.609 278.612 327.279C278.832 326.949 279.14 326.696 279.536 326.52C279.932 326.344 280.39 326.256 280.911 326.256C281.652 326.256 282.257 326.443 282.726 326.817C283.203 327.184 283.467 327.69 283.518 328.335H282.132C282.11 328.056 281.978 327.818 281.736 327.62C281.494 327.422 281.175 327.323 280.779 327.323C280.42 327.323 280.126 327.415 279.899 327.598C279.672 327.781 279.558 328.045 279.558 328.39C279.558 328.625 279.628 328.819 279.767 328.973C279.914 329.12 280.097 329.237 280.317 329.325C280.537 329.413 280.838 329.508 281.219 329.611C281.725 329.75 282.136 329.89 282.451 330.029C282.774 330.168 283.045 330.385 283.265 330.678C283.492 330.964 283.606 331.349 283.606 331.833C283.606 332.222 283.5 332.588 283.287 332.933C283.082 333.278 282.777 333.556 282.374 333.769C281.978 333.974 281.509 334.077 280.966 334.077ZM286.549 328.962V332.317C286.549 332.544 286.6 332.709 286.703 332.812C286.813 332.907 286.996 332.955 287.253 332.955H288.023V334H287.033C286.468 334 286.035 333.868 285.735 333.604C285.434 333.34 285.284 332.911 285.284 332.317V328.962H284.569V327.939H285.284V326.432H286.549V327.939H288.023V328.962H286.549ZM288.76 330.942C288.76 330.333 288.885 329.794 289.134 329.325C289.391 328.856 289.736 328.493 290.168 328.236C290.608 327.972 291.092 327.84 291.62 327.84C292.097 327.84 292.511 327.935 292.863 328.126C293.223 328.309 293.509 328.54 293.721 328.819V327.939H294.986V334H293.721V333.098C293.509 333.384 293.219 333.622 292.852 333.813C292.486 334.004 292.068 334.099 291.598 334.099C291.078 334.099 290.601 333.967 290.168 333.703C289.736 333.432 289.391 333.058 289.134 332.581C288.885 332.097 288.76 331.551 288.76 330.942ZM293.721 330.964C293.721 330.546 293.633 330.183 293.457 329.875C293.289 329.567 293.065 329.332 292.786 329.171C292.508 329.01 292.207 328.929 291.884 328.929C291.562 328.929 291.261 329.01 290.982 329.171C290.704 329.325 290.476 329.556 290.3 329.864C290.132 330.165 290.047 330.524 290.047 330.942C290.047 331.36 290.132 331.727 290.3 332.042C290.476 332.357 290.704 332.599 290.982 332.768C291.268 332.929 291.569 333.01 291.884 333.01C292.207 333.01 292.508 332.929 292.786 332.768C293.065 332.607 293.289 332.372 293.457 332.064C293.633 331.749 293.721 331.382 293.721 330.964ZM299.691 327.84C300.168 327.84 300.593 327.939 300.967 328.137C301.349 328.335 301.646 328.628 301.858 329.017C302.071 329.406 302.177 329.875 302.177 330.425V334H300.934V330.612C300.934 330.069 300.799 329.655 300.527 329.369C300.256 329.076 299.886 328.929 299.416 328.929C298.947 328.929 298.573 329.076 298.294 329.369C298.023 329.655 297.887 330.069 297.887 330.612V334H296.633V327.939H297.887V328.632C298.093 328.383 298.353 328.188 298.668 328.049C298.991 327.91 299.332 327.84 299.691 327.84ZM303.359 330.942C303.359 330.333 303.484 329.794 303.733 329.325C303.99 328.856 304.334 328.493 304.767 328.236C305.207 327.972 305.695 327.84 306.23 327.84C306.626 327.84 307.015 327.928 307.396 328.104C307.785 328.273 308.093 328.5 308.32 328.786V325.86H309.585V334H308.32V333.087C308.115 333.38 307.829 333.622 307.462 333.813C307.103 334.004 306.688 334.099 306.219 334.099C305.691 334.099 305.207 333.967 304.767 333.703C304.334 333.432 303.99 333.058 303.733 332.581C303.484 332.097 303.359 331.551 303.359 330.942ZM308.32 330.964C308.32 330.546 308.232 330.183 308.056 329.875C307.887 329.567 307.664 329.332 307.385 329.171C307.106 329.01 306.806 328.929 306.483 328.929C306.16 328.929 305.86 329.01 305.581 329.171C305.302 329.325 305.075 329.556 304.899 329.864C304.73 330.165 304.646 330.524 304.646 330.942C304.646 331.36 304.73 331.727 304.899 332.042C305.075 332.357 305.302 332.599 305.581 332.768C305.867 332.929 306.168 333.01 306.483 333.01C306.806 333.01 307.106 332.929 307.385 332.768C307.664 332.607 307.887 332.372 308.056 332.064C308.232 331.749 308.32 331.382 308.32 330.964ZM310.814 330.942C310.814 330.333 310.939 329.794 311.188 329.325C311.445 328.856 311.789 328.493 312.222 328.236C312.662 327.972 313.146 327.84 313.674 327.84C314.151 327.84 314.565 327.935 314.917 328.126C315.276 328.309 315.562 328.54 315.775 328.819V327.939H317.04V334H315.775V333.098C315.562 333.384 315.273 333.622 314.906 333.813C314.539 334.004 314.121 334.099 313.652 334.099C313.131 334.099 312.655 333.967 312.222 333.703C311.789 333.432 311.445 333.058 311.188 332.581C310.939 332.097 310.814 331.551 310.814 330.942ZM315.775 330.964C315.775 330.546 315.687 330.183 315.511 329.875C315.342 329.567 315.119 329.332 314.84 329.171C314.561 329.01 314.261 328.929 313.938 328.929C313.615 328.929 313.315 329.01 313.036 329.171C312.757 329.325 312.53 329.556 312.354 329.864C312.185 330.165 312.101 330.524 312.101 330.942C312.101 331.36 312.185 331.727 312.354 332.042C312.53 332.357 312.757 332.599 313.036 332.768C313.322 332.929 313.623 333.01 313.938 333.01C314.261 333.01 314.561 332.929 314.84 332.768C315.119 332.607 315.342 332.372 315.511 332.064C315.687 331.749 315.775 331.382 315.775 330.964ZM319.941 328.819C320.124 328.511 320.366 328.273 320.667 328.104C320.975 327.928 321.338 327.84 321.756 327.84V329.138H321.437C320.946 329.138 320.572 329.263 320.315 329.512C320.066 329.761 319.941 330.194 319.941 330.81V334H318.687V327.939H319.941V328.819ZM322.491 330.942C322.491 330.333 322.615 329.794 322.865 329.325C323.121 328.856 323.466 328.493 323.899 328.236C324.339 327.972 324.826 327.84 325.362 327.84C325.758 327.84 326.146 327.928 326.528 328.104C326.916 328.273 327.224 328.5 327.452 328.786V325.86H328.717V334H327.452V333.087C327.246 333.38 326.96 333.622 326.594 333.813C326.234 334.004 325.82 334.099 325.351 334.099C324.823 334.099 324.339 333.967 323.899 333.703C323.466 333.432 323.121 333.058 322.865 332.581C322.615 332.097 322.491 331.551 322.491 330.942ZM327.452 330.964C327.452 330.546 327.364 330.183 327.188 329.875C327.019 329.567 326.795 329.332 326.517 329.171C326.238 329.01 325.937 328.929 325.615 328.929C325.292 328.929 324.991 329.01 324.713 329.171C324.434 329.325 324.207 329.556 324.031 329.864C323.862 330.165 323.778 330.524 323.778 330.942C323.778 331.36 323.862 331.727 324.031 332.042C324.207 332.357 324.434 332.599 324.713 332.768C324.999 332.929 325.299 333.01 325.615 333.01C325.937 333.01 326.238 332.929 326.517 332.768C326.795 332.607 327.019 332.372 327.188 332.064C327.364 331.749 327.452 331.382 327.452 330.964ZM343.176 326.355L340.91 334H339.491L337.885 328.214L336.18 334L334.772 334.011L332.605 326.355H333.936L335.52 332.581L337.236 326.355H338.644L340.239 332.548L341.834 326.355H343.176ZM344.849 327.136C344.621 327.136 344.431 327.059 344.277 326.905C344.123 326.751 344.046 326.56 344.046 326.333C344.046 326.106 344.123 325.915 344.277 325.761C344.431 325.607 344.621 325.53 344.849 325.53C345.069 325.53 345.256 325.607 345.41 325.761C345.564 325.915 345.641 326.106 345.641 326.333C345.641 326.56 345.564 326.751 345.41 326.905C345.256 327.059 345.069 327.136 344.849 327.136ZM345.465 327.939V334H344.211V327.939H345.465ZM350.169 327.84C350.646 327.84 351.071 327.939 351.445 328.137C351.826 328.335 352.123 328.628 352.336 329.017C352.549 329.406 352.655 329.875 352.655 330.425V334H351.412V330.612C351.412 330.069 351.276 329.655 351.005 329.369C350.734 329.076 350.363 328.929 349.894 328.929C349.425 328.929 349.051 329.076 348.772 329.369C348.501 329.655 348.365 330.069 348.365 330.612V334H347.111V327.939H348.365V328.632C348.57 328.383 348.831 328.188 349.146 328.049C349.469 327.91 349.81 327.84 350.169 327.84ZM353.837 330.942C353.837 330.333 353.961 329.794 354.211 329.325C354.467 328.856 354.812 328.493 355.245 328.236C355.685 327.972 356.172 327.84 356.708 327.84C357.104 327.84 357.492 327.928 357.874 328.104C358.262 328.273 358.57 328.5 358.798 328.786V325.86H360.063V334H358.798V333.087C358.592 333.38 358.306 333.622 357.94 333.813C357.58 334.004 357.166 334.099 356.697 334.099C356.169 334.099 355.685 333.967 355.245 333.703C354.812 333.432 354.467 333.058 354.211 332.581C353.961 332.097 353.837 331.551 353.837 330.942ZM358.798 330.964C358.798 330.546 358.71 330.183 358.534 329.875C358.365 329.567 358.141 329.332 357.863 329.171C357.584 329.01 357.283 328.929 356.961 328.929C356.638 328.929 356.337 329.01 356.059 329.171C355.78 329.325 355.553 329.556 355.377 329.864C355.208 330.165 355.124 330.524 355.124 330.942C355.124 331.36 355.208 331.727 355.377 332.042C355.553 332.357 355.78 332.599 356.059 332.768C356.345 332.929 356.645 333.01 356.961 333.01C357.283 333.01 357.584 332.929 357.863 332.768C358.141 332.607 358.365 332.372 358.534 332.064C358.71 331.749 358.798 331.382 358.798 330.964ZM364.339 334.099C363.767 334.099 363.25 333.971 362.788 333.714C362.326 333.45 361.963 333.083 361.699 332.614C361.435 332.137 361.303 331.587 361.303 330.964C361.303 330.348 361.438 329.802 361.71 329.325C361.981 328.848 362.351 328.482 362.821 328.225C363.29 327.968 363.814 327.84 364.394 327.84C364.973 327.84 365.497 327.968 365.967 328.225C366.436 328.482 366.806 328.848 367.078 329.325C367.349 329.802 367.485 330.348 367.485 330.964C367.485 331.58 367.345 332.126 367.067 332.603C366.788 333.08 366.407 333.45 365.923 333.714C365.446 333.971 364.918 334.099 364.339 334.099ZM364.339 333.01C364.661 333.01 364.962 332.933 365.241 332.779C365.527 332.625 365.758 332.394 365.934 332.086C366.11 331.778 366.198 331.404 366.198 330.964C366.198 330.524 366.113 330.154 365.945 329.853C365.776 329.545 365.552 329.314 365.274 329.16C364.995 329.006 364.694 328.929 364.372 328.929C364.049 328.929 363.748 329.006 363.47 329.16C363.198 329.314 362.982 329.545 362.821 329.853C362.659 330.154 362.579 330.524 362.579 330.964C362.579 331.617 362.744 332.123 363.074 332.482C363.411 332.834 363.833 333.01 364.339 333.01ZM376.864 327.939L374.983 334H373.663L372.442 329.523L371.221 334H369.901L368.009 327.939H369.285L370.55 332.812L371.837 327.939H373.146L374.378 332.79L375.632 327.939H376.864ZM380.001 334.099C379.525 334.099 379.096 334.015 378.714 333.846C378.34 333.67 378.043 333.435 377.823 333.142C377.603 332.841 377.486 332.508 377.471 332.141H378.769C378.791 332.398 378.912 332.614 379.132 332.79C379.36 332.959 379.642 333.043 379.979 333.043C380.331 333.043 380.603 332.977 380.793 332.845C380.991 332.706 381.09 332.53 381.09 332.317C381.09 332.09 380.98 331.921 380.76 331.811C380.548 331.701 380.207 331.58 379.737 331.448C379.283 331.323 378.912 331.202 378.626 331.085C378.34 330.968 378.091 330.788 377.878 330.546C377.673 330.304 377.57 329.985 377.57 329.589C377.57 329.266 377.666 328.973 377.856 328.709C378.047 328.438 378.318 328.225 378.67 328.071C379.03 327.917 379.44 327.84 379.902 327.84C380.592 327.84 381.145 328.016 381.563 328.368C381.989 328.713 382.216 329.186 382.245 329.787H380.991C380.969 329.516 380.859 329.299 380.661 329.138C380.463 328.977 380.196 328.896 379.858 328.896C379.528 328.896 379.275 328.958 379.099 329.083C378.923 329.208 378.835 329.373 378.835 329.578C378.835 329.739 378.894 329.875 379.011 329.985C379.129 330.095 379.272 330.183 379.44 330.249C379.609 330.308 379.858 330.385 380.188 330.48C380.628 330.597 380.988 330.718 381.266 330.843C381.552 330.96 381.798 331.136 382.003 331.371C382.209 331.606 382.315 331.917 382.322 332.306C382.322 332.651 382.227 332.959 382.036 333.23C381.846 333.501 381.574 333.714 381.222 333.868C380.878 334.022 380.471 334.099 380.001 334.099ZM386.205 327.125V325.981H388.493V334H387.228V327.125H386.205ZM390.05 327.125V325.981H392.338V334H391.073V327.125H390.05ZM396.666 330.161C396.666 329.413 396.838 328.742 397.183 328.148C397.535 327.554 398.008 327.092 398.602 326.762C399.203 326.425 399.859 326.256 400.571 326.256C401.385 326.256 402.107 326.458 402.738 326.861C403.376 327.257 403.838 327.822 404.124 328.555H402.617C402.419 328.152 402.144 327.851 401.792 327.653C401.44 327.455 401.033 327.356 400.571 327.356C400.065 327.356 399.614 327.47 399.218 327.697C398.822 327.924 398.51 328.251 398.283 328.676C398.063 329.101 397.953 329.596 397.953 330.161C397.953 330.726 398.063 331.221 398.283 331.646C398.51 332.071 398.822 332.401 399.218 332.636C399.614 332.863 400.065 332.977 400.571 332.977C401.033 332.977 401.44 332.878 401.792 332.68C402.144 332.482 402.419 332.181 402.617 331.778H404.124C403.838 332.511 403.376 333.076 402.738 333.472C402.107 333.868 401.385 334.066 400.571 334.066C399.852 334.066 399.196 333.901 398.602 333.571C398.008 333.234 397.535 332.768 397.183 332.174C396.838 331.58 396.666 330.909 396.666 330.161ZM405.173 330.942C405.173 330.333 405.298 329.794 405.547 329.325C405.804 328.856 406.149 328.493 406.581 328.236C407.021 327.972 407.505 327.84 408.033 327.84C408.51 327.84 408.924 327.935 409.276 328.126C409.636 328.309 409.922 328.54 410.134 328.819V327.939H411.399V334H410.134V333.098C409.922 333.384 409.632 333.622 409.265 333.813C408.899 334.004 408.481 334.099 408.011 334.099C407.491 334.099 407.014 333.967 406.581 333.703C406.149 333.432 405.804 333.058 405.547 332.581C405.298 332.097 405.173 331.551 405.173 330.942ZM410.134 330.964C410.134 330.546 410.046 330.183 409.87 329.875C409.702 329.567 409.478 329.332 409.199 329.171C408.921 329.01 408.62 328.929 408.297 328.929C407.975 328.929 407.674 329.01 407.395 329.171C407.117 329.325 406.889 329.556 406.713 329.864C406.545 330.165 406.46 330.524 406.46 330.942C406.46 331.36 406.545 331.727 406.713 332.042C406.889 332.357 407.117 332.599 407.395 332.768C407.681 332.929 407.982 333.01 408.297 333.01C408.62 333.01 408.921 332.929 409.199 332.768C409.478 332.607 409.702 332.372 409.87 332.064C410.046 331.749 410.134 331.382 410.134 330.964ZM414.3 325.86V334H413.046V325.86H414.3ZM415.529 330.964C415.529 330.341 415.654 329.794 415.903 329.325C416.16 328.848 416.512 328.482 416.959 328.225C417.406 327.968 417.92 327.84 418.499 327.84C419.232 327.84 419.837 328.016 420.314 328.368C420.798 328.713 421.124 329.208 421.293 329.853H419.94C419.83 329.552 419.654 329.318 419.412 329.149C419.17 328.98 418.866 328.896 418.499 328.896C417.986 328.896 417.575 329.079 417.267 329.446C416.966 329.805 416.816 330.311 416.816 330.964C416.816 331.617 416.966 332.126 417.267 332.493C417.575 332.86 417.986 333.043 418.499 333.043C419.225 333.043 419.705 332.724 419.94 332.086H421.293C421.117 332.702 420.787 333.193 420.303 333.56C419.819 333.919 419.218 334.099 418.499 334.099C417.92 334.099 417.406 333.971 416.959 333.714C416.512 333.45 416.16 333.083 415.903 332.614C415.654 332.137 415.529 331.587 415.529 330.964ZM428.032 327.939V334H426.778V333.285C426.58 333.534 426.319 333.732 425.997 333.879C425.681 334.018 425.344 334.088 424.985 334.088C424.508 334.088 424.079 333.989 423.698 333.791C423.324 333.593 423.027 333.3 422.807 332.911C422.594 332.522 422.488 332.053 422.488 331.503V327.939H423.731V331.316C423.731 331.859 423.866 332.277 424.138 332.57C424.409 332.856 424.779 332.999 425.249 332.999C425.718 332.999 426.088 332.856 426.36 332.57C426.638 332.277 426.778 331.859 426.778 331.316V327.939H428.032ZM430.94 325.86V334H429.686V325.86H430.94ZM432.169 330.942C432.169 330.333 432.293 329.794 432.543 329.325C432.799 328.856 433.144 328.493 433.577 328.236C434.017 327.972 434.501 327.84 435.029 327.84C435.505 327.84 435.92 327.935 436.272 328.126C436.631 328.309 436.917 328.54 437.13 328.819V327.939H438.395V334H437.13V333.098C436.917 333.384 436.627 333.622 436.261 333.813C435.894 334.004 435.476 334.099 435.007 334.099C434.486 334.099 434.009 333.967 433.577 333.703C433.144 333.432 432.799 333.058 432.543 332.581C432.293 332.097 432.169 331.551 432.169 330.942ZM437.13 330.964C437.13 330.546 437.042 330.183 436.866 329.875C436.697 329.567 436.473 329.332 436.195 329.171C435.916 329.01 435.615 328.929 435.293 328.929C434.97 328.929 434.669 329.01 434.391 329.171C434.112 329.325 433.885 329.556 433.709 329.864C433.54 330.165 433.456 330.524 433.456 330.942C433.456 331.36 433.54 331.727 433.709 332.042C433.885 332.357 434.112 332.599 434.391 332.768C434.677 332.929 434.977 333.01 435.293 333.01C435.615 333.01 435.916 332.929 436.195 332.768C436.473 332.607 436.697 332.372 436.866 332.064C437.042 331.749 437.13 331.382 437.13 330.964ZM441.505 328.962V332.317C441.505 332.544 441.556 332.709 441.659 332.812C441.769 332.907 441.952 332.955 442.209 332.955H442.979V334H441.989C441.424 334 440.991 333.868 440.691 333.604C440.39 333.34 440.24 332.911 440.24 332.317V328.962H439.525V327.939H440.24V326.432H441.505V327.939H442.979V328.962H441.505ZM446.763 334.099C446.191 334.099 445.674 333.971 445.212 333.714C444.75 333.45 444.387 333.083 444.123 332.614C443.859 332.137 443.727 331.587 443.727 330.964C443.727 330.348 443.863 329.802 444.134 329.325C444.406 328.848 444.776 328.482 445.245 328.225C445.715 327.968 446.239 327.84 446.818 327.84C447.398 327.84 447.922 327.968 448.391 328.225C448.861 328.482 449.231 328.848 449.502 329.325C449.774 329.802 449.909 330.348 449.909 330.964C449.909 331.58 449.77 332.126 449.491 332.603C449.213 333.08 448.831 333.45 448.347 333.714C447.871 333.971 447.343 334.099 446.763 334.099ZM446.763 333.01C447.086 333.01 447.387 332.933 447.665 332.779C447.951 332.625 448.182 332.394 448.358 332.086C448.534 331.778 448.622 331.404 448.622 330.964C448.622 330.524 448.538 330.154 448.369 329.853C448.201 329.545 447.977 329.314 447.698 329.16C447.42 329.006 447.119 328.929 446.796 328.929C446.474 328.929 446.173 329.006 445.894 329.16C445.623 329.314 445.407 329.545 445.245 329.853C445.084 330.154 445.003 330.524 445.003 330.964C445.003 331.617 445.168 332.123 445.498 332.482C445.836 332.834 446.257 333.01 446.763 333.01ZM452.403 328.819C452.586 328.511 452.828 328.273 453.129 328.104C453.437 327.928 453.8 327.84 454.218 327.84V329.138H453.899C453.408 329.138 453.034 329.263 452.777 329.512C452.528 329.761 452.403 330.194 452.403 330.81V334H451.149V327.939H452.403V328.819ZM455.877 334.077C455.649 334.077 455.459 334 455.305 333.846C455.151 333.692 455.074 333.501 455.074 333.274C455.074 333.047 455.151 332.856 455.305 332.702C455.459 332.548 455.649 332.471 455.877 332.471C456.097 332.471 456.284 332.548 456.438 332.702C456.592 332.856 456.669 333.047 456.669 333.274C456.669 333.501 456.592 333.692 456.438 333.846C456.284 334 456.097 334.077 455.877 334.077Z"></path>
<defs>
<linearGradient gradientUnits="userSpaceOnUse" y2="209.2" x2="129.601" y1="170.8" x1="110.401" id="paint0_linear_930_2">
<stop stop-color="#8A9198"></stop>
<stop stop-color="#65717C" offset="1"></stop>
</linearGradient>
<linearGradient gradientUnits="userSpaceOnUse" y2="206" x2="131.201" y1="191.6" x1="124.801" id="paint1_linear_930_2">
<stop stop-color="#174D8B"></stop>
<stop stop-color="#1B4077" offset="1"></stop>
</linearGradient>
<linearGradient gradientUnits="userSpaceOnUse" y2="181.64" x2="109.232" y1="174" x1="108.801" id="paint2_linear_930_2">
<stop stop-color="#50E6FF"></stop>
<stop stop-color="#31BCEF" offset="1"></stop>
</linearGradient>
</defs>
</svg>
