<svg version="1.1" xmlns="http://www.w3.org/2000/svg" xmlns:xlink="http://www.w3.org/1999/xlink" width="40" height="20" viewBox="0,0,40,20"><g transform="translate(-220,-167)"><g data-paper-data="{&quot;isPaintingLayer&quot;:true}" fill-rule="nonzero" stroke="none" stroke-width="1" stroke-linecap="butt" stroke-linejoin="miter" stroke-miterlimit="10" stroke-dasharray="" stroke-dashoffset="0" style="mix-blend-mode: normal"><path d="M220,187v-20h40v20z" fill="none"></path><path d="M243.648,180.084c-0.56,0 -1.064,-0.096 -1.512,-0.288c-0.448,-0.2 -0.8,-0.48 -1.056,-0.84c-0.256,-0.36 -0.384,-0.78 -0.384,-1.26h1.464c0.032,0.36 0.172,0.656 0.42,0.888c0.256,0.232 0.612,0.348 1.068,0.348c0.472,0 0.84,-0.112 1.104,-0.336c0.264,-0.232 0.396,-0.528 0.396,-0.888c0,-0.28 -0.084,-0.508 -0.252,-0.684c-0.16,-0.176 -0.364,-0.312 -0.612,-0.408c-0.24,-0.096 -0.576,-0.2 -1.008,-0.312c-0.544,-0.144 -0.988,-0.288 -1.332,-0.432c-0.336,-0.152 -0.624,-0.384 -0.864,-0.696c-0.24,-0.312 -0.36,-0.728 -0.36,-1.248c0,-0.48 0.12,-0.9 0.36,-1.26c0.24,-0.36 0.576,-0.636 1.008,-0.828c0.432,-0.192 0.932,-0.288 1.5,-0.288c0.808,0 1.468,0.204 1.98,0.612c0.52,0.4 0.808,0.952 0.864,1.656h-1.512c-0.024,-0.304 -0.168,-0.564 -0.432,-0.78c-0.264,-0.216 -0.612,-0.324 -1.044,-0.324c-0.392,0 -0.712,0.1 -0.96,0.3c-0.248,0.2 -0.372,0.488 -0.372,0.864c0,0.256 0.076,0.468 0.228,0.636c0.16,0.16 0.36,0.288 0.6,0.384c0.24,0.096 0.568,0.2 0.984,0.312c0.552,0.152 1,0.304 1.344,0.456c0.352,0.152 0.648,0.388 0.888,0.708c0.248,0.312 0.372,0.732 0.372,1.26c0,0.424 -0.116,0.824 -0.348,1.2c-0.224,0.376 -0.556,0.68 -0.996,0.912c-0.432,0.224 -0.944,0.336 -1.536,0.336z" fill="#ff0000"></path></g></g></svg>