<svg xmlns="http://www.w3.org/2000/svg" fill="none" viewBox="0 0 192 34" height="34" width="192">
<path fill="#4CC2FF" d="M44 17C44 15.8954 44.8954 15 46 15H190C191.105 15 192 15.8954 192 17C192 18.1046 191.105 19 190 19H46C44.8954 19 44 18.1046 44 17Z"></path>
<rect fill-opacity="0.05" fill="white" rx="5" height="30" width="30" y="2" x="2"></rect>
<rect stroke-width="2" stroke-opacity="0.2" stroke="white" rx="6" height="32" width="32" y="1" x="1"></rect>
<path fill="white" d="M9 16C9 14.8954 9.89543 14 11 14H12L14.7929 11.2071C14.9255 11.0745 15.1054 11 15.2929 11C15.6834 11 16 11.3166 16 11.7071V22.2929C16 22.6834 15.6834 23 15.2929 23C15.1054 23 14.9255 22.9255 14.7929 22.7929L12 20L13 19L15 21V13L13 15H11C10.4477 15 10 15.4477 10 16V18C10 18.5523 10.4477 19 11 19H13L12 20H11C9.89543 20 9 19.1046 9 18V16Z"></path>
<rect fill="white" transform="rotate(45 18.5249 13.8181)" rx="0.5" height="1" width="8" y="13.8181" x="18.5249"></rect>
<rect fill="white" transform="rotate(135 24.1821 14.5251)" rx="0.5" height="1" width="8" y="14.5251" x="24.1821"></rect>
</svg>
