<svg xmlns="http://www.w3.org/2000/svg" fill="none" viewBox="0 0 480 360" height="360" width="480">
<rect fill-opacity="0.05" fill="white" rx="5" height="36" width="68" y="50" x="10"></rect>
<path fill="white" d="M50.764 64.355V65.378H48.729V72H47.475V65.378H45.429V64.355H50.764ZM54.663 72.099C54.091 72.099 53.574 71.9707 53.112 71.714C52.65 71.45 52.287 71.0833 52.023 70.614C51.759 70.1373 51.627 69.5873 51.627 68.964C51.627 68.348 51.7627 67.8017 52.034 67.325C52.3053 66.8483 52.6757 66.4817 53.145 66.225C53.6143 65.9683 54.1387 65.84 54.718 65.84C55.2973 65.84 55.8217 65.9683 56.291 66.225C56.7603 66.4817 57.1307 66.8483 57.402 67.325C57.6733 67.8017 57.809 68.348 57.809 68.964C57.809 69.58 57.6697 70.1263 57.391 70.603C57.1123 71.0797 56.731 71.45 56.247 71.714C55.7703 71.9707 55.2423 72.099 54.663 72.099ZM54.663 71.01C54.9857 71.01 55.2863 70.933 55.565 70.779C55.851 70.625 56.082 70.394 56.258 70.086C56.434 69.778 56.522 69.404 56.522 68.964C56.522 68.524 56.4377 68.1537 56.269 67.853C56.1003 67.545 55.8767 67.314 55.598 67.16C55.3193 67.006 55.0187 66.929 54.696 66.929C54.3733 66.929 54.0727 67.006 53.794 67.16C53.5227 67.314 53.3063 67.545 53.145 67.853C52.9837 68.1537 52.903 68.524 52.903 68.964C52.903 69.6167 53.068 70.1227 53.398 70.482C53.7353 70.834 54.157 71.01 54.663 71.01ZM61.6776 72.099C61.1056 72.099 60.5886 71.9707 60.1266 71.714C59.6646 71.45 59.3016 71.0833 59.0376 70.614C58.7736 70.1373 58.6416 69.5873 58.6416 68.964C58.6416 68.348 58.7773 67.8017 59.0486 67.325C59.32 66.8483 59.6903 66.4817 60.1596 66.225C60.629 65.9683 61.1533 65.84 61.7326 65.84C62.312 65.84 62.8363 65.9683 63.3056 66.225C63.775 66.4817 64.1453 66.8483 64.4166 67.325C64.688 67.8017 64.8236 68.348 64.8236 68.964C64.8236 69.58 64.6843 70.1263 64.4056 70.603C64.127 71.0797 63.7456 71.45 63.2616 71.714C62.785 71.9707 62.257 72.099 61.6776 72.099ZM61.6776 71.01C62.0003 71.01 62.301 70.933 62.5796 70.779C62.8656 70.625 63.0966 70.394 63.2726 70.086C63.4486 69.778 63.5366 69.404 63.5366 68.964C63.5366 68.524 63.4523 68.1537 63.2836 67.853C63.115 67.545 62.8913 67.314 62.6126 67.16C62.334 67.006 62.0333 66.929 61.7106 66.929C61.388 66.929 61.0873 67.006 60.8086 67.16C60.5373 67.314 60.321 67.545 60.1596 67.853C59.9983 68.1537 59.9176 68.524 59.9176 68.964C59.9176 69.6167 60.0826 70.1227 60.4126 70.482C60.75 70.834 61.1716 71.01 61.6776 71.01ZM67.3173 63.86V72H66.0633V63.86H67.3173Z"></path>
<path stroke="#4CC2FF" d="M23.9126 64.9271C24.263 64.6724 24.7376 64.6724 25.0881 64.9271L29.1434 67.8734C29.4939 68.128 29.6405 68.5794 29.5066 68.9914L27.9577 73.7586C27.8238 74.1706 27.4398 74.4496 27.0066 74.4496H21.9941C21.5608 74.4496 21.1769 74.1706 21.043 73.7586L19.494 68.9914C19.3602 68.5794 19.5068 68.128 19.8573 67.8734L23.9126 64.9271Z"></path>
<path stroke-linecap="round" stroke="#CCCCCC" d="M31.1381 70.5547L33.7639 69.0387C34.0733 68.86 34.2639 68.5299 34.2639 68.1726V63.8274C34.2639 63.4701 34.0733 63.14 33.7639 62.9613L30.0008 60.7887C29.6914 60.61 29.3102 60.61 29.0008 60.7887L25.333 62.9062"></path>
</svg>
