<svg xmlns="http://www.w3.org/2000/svg" fill="none" viewBox="0 0 44 24" height="24" width="44">
<path fill-opacity="0.5" fill="#FF0000" d="M2 12C2 6.47715 6.47715 2 12 2H32C37.5228 2 42 6.47715 42 12V12C42 17.5228 37.5228 22 32 22H12C6.47715 22 2 17.5228 2 12V12Z"></path>
<path stroke-width="2" stroke-opacity="0.2" stroke="#FF0000" d="M32 1H12C5.92487 1 1 5.92487 1 12C1 18.0751 5.92487 23 12 23H32C38.0751 23 43 18.0751 43 12C43 5.92487 38.0751 1 32 1Z"></path>
<path fill="white" d="M22.4303 8.428H18.4103V10.816C18.5783 10.592 18.8263 10.404 19.1543 10.252C19.4903 10.1 19.8463 10.024 20.2223 10.024C20.8943 10.024 21.4383 10.168 21.8543 10.456C22.2783 10.744 22.5783 11.108 22.7543 11.548C22.9383 11.988 23.0303 12.452 23.0303 12.94C23.0303 13.532 22.9143 14.06 22.6823 14.524C22.4583 14.98 22.1183 15.34 21.6623 15.604C21.2143 15.868 20.6623 16 20.0063 16C19.1343 16 18.4343 15.784 17.9063 15.352C17.3783 14.92 17.0623 14.348 16.9583 13.636H18.2903C18.3783 14.012 18.5743 14.312 18.8783 14.536C19.1823 14.752 19.5623 14.86 20.0183 14.86C20.5863 14.86 21.0103 14.688 21.2903 14.344C21.5783 14 21.7223 13.544 21.7223 12.976C21.7223 12.4 21.5783 11.96 21.2903 11.656C21.0023 11.344 20.5783 11.188 20.0183 11.188C19.6263 11.188 19.2943 11.288 19.0223 11.488C18.7583 11.68 18.5663 11.944 18.4463 12.28H17.1503V7.228H22.4303V8.428ZM24.2744 8.5V7.252H26.7704V16H25.3904V8.5H24.2744Z"></path>
</svg>
