<svg xmlns="http://www.w3.org/2000/svg" fill="none" viewBox="0 0 480 360" height="360" width="480">
<path stroke-linejoin="round" stroke-width="1.5" stroke="#666666" d="M28 225.75C28.4142 225.75 28.75 225.414 28.75 225V217C28.75 216.31 29.3096 215.75 30 215.75H31.0557C31.5603 215.75 32.0579 215.867 32.5092 216.093L34.559 217.118C34.9825 217.33 35.25 217.763 35.25 218.236V219.019C35.25 219.831 34.3952 220.359 33.6687 219.996C32.5575 219.44 31.25 220.248 31.25 221.491V230C31.25 232.347 29.3472 234.25 27 234.25C24.6528 234.25 22.75 232.347 22.75 230C22.75 227.653 24.6528 225.75 27 225.75H28Z"></path>
<path stroke-linejoin="round" stroke-width="1.5" stroke="#666666" d="M33.6 177.55C33.4584 177.361 33.2361 177.25 33 177.25H27C26.7639 177.25 26.5416 177.361 26.4 177.55L24.2 180.483C23.838 180.966 23.27 181.25 22.6667 181.25C21.6081 181.25 20.75 180.392 20.75 179.333V178.246C20.75 175.609 21.4818 173.023 22.8639 170.777L23.3163 170.042C23.9323 169.041 25.1258 168.555 26.2661 168.84C28.7176 169.452 31.2824 169.452 33.7339 168.84C34.8742 168.555 36.0677 169.041 36.6837 170.042L37.1361 170.777C38.5182 173.023 39.25 175.609 39.25 178.246V179.333C39.25 180.392 38.3919 181.25 37.3333 181.25C36.73 181.25 36.162 180.966 35.8 180.483L33.6 177.55Z"></path>
<path stroke-linecap="round" stroke-width="1.5" stroke="#666666" d="M29.5 172H30.5"></path>
<path stroke-linejoin="round" stroke-width="1.5" stroke="#666666" d="M30 124.25C30 124.664 30.3358 125 30.75 125H37C37.6904 125 38.25 125.56 38.25 126.25V132C38.25 132.69 37.6904 133.25 37 133.25H30H23C22.3096 133.25 21.75 132.69 21.75 132V125V118C21.75 117.31 22.3096 116.75 23 116.75H28.75C29.4404 116.75 30 117.31 30 118V124.25Z"></path>
<path fill="#666666" d="M29.5 125.75C29.9142 125.75 30.25 125.414 30.25 125C30.25 124.586 29.9142 124.25 29.5 124.25V125.75ZM30.75 125.5C30.75 125.086 30.4142 124.75 30 124.75C29.5858 124.75 29.25 125.086 29.25 125.5H30.75ZM22.5 125.75H29.5V124.25H22.5V125.75ZM29.25 125.5V132.5H30.75V125.5H29.25Z"></path>
<path stroke-width="1.5" stroke="#666666" d="M33.6161 116.081C34.1043 115.593 34.8957 115.593 35.3839 116.081L38.9194 119.616C39.4076 120.104 39.4076 120.896 38.9194 121.384L36.091 124.213C35.2123 125.091 33.7877 125.091 32.909 124.213L30.7877 122.091C29.909 121.213 29.909 119.788 30.7877 118.909L33.6161 116.081Z"></path>
<path fill="#0076B3" d="M21 73.3472C21 72.4903 21.3664 71.6743 22.0069 71.105L28.0069 65.7716C29.1436 64.7613 30.8564 64.7613 31.9931 65.7716L37.9931 71.105C38.6336 71.6743 39 72.4903 39 73.3472V83C39 84.1046 38.1046 85 37 85H34C32.8954 85 32 84.1046 32 83V77H28V83C28 84.1046 27.1046 85 26 85H23C21.8954 85 21 84.1046 21 83V73.3472Z"></path>
</svg>
