<svg xmlns="http://www.w3.org/2000/svg" fill="none" viewBox="0 0 480 360" height="360" width="480">
<rect fill-opacity="0.05" fill="white" rx="5" height="90" width="190" y="165" x="30"></rect>
<rect stroke-width="2" stroke-opacity="0.2" stroke="white" rx="6" height="92" width="192" y="164" x="29"></rect>
<path fill-opacity="0.5" fill="white" d="M56.587 206.355V214H55.333V208.764L53.001 214H52.132L49.789 208.764V214H48.535V206.355H49.888L52.572 212.35L55.245 206.355H56.587ZM63.7902 210.821C63.7902 211.048 63.7755 211.254 63.7462 211.437H59.1152C59.1518 211.921 59.3315 212.31 59.6542 212.603C59.9768 212.896 60.3728 213.043 60.8422 213.043C61.5168 213.043 61.9935 212.761 62.2722 212.196H63.6252C63.4418 212.753 63.1082 213.212 62.6242 213.571C62.1475 213.923 61.5535 214.099 60.8422 214.099C60.2628 214.099 59.7422 213.971 59.2802 213.714C58.8255 213.45 58.4662 213.083 58.2022 212.614C57.9455 212.137 57.8172 211.587 57.8172 210.964C57.8172 210.341 57.9418 209.794 58.1912 209.325C58.4478 208.848 58.8035 208.482 59.2582 208.225C59.7202 207.968 60.2482 207.84 60.8422 207.84C61.4142 207.84 61.9238 207.965 62.3712 208.214C62.8185 208.463 63.1668 208.815 63.4162 209.27C63.6655 209.717 63.7902 210.234 63.7902 210.821ZM62.4812 210.425C62.4738 209.963 62.3088 209.593 61.9862 209.314C61.6635 209.035 61.2638 208.896 60.7872 208.896C60.3545 208.896 59.9842 209.035 59.6762 209.314C59.3682 209.585 59.1848 209.956 59.1262 210.425H62.4812ZM64.6062 210.942C64.6062 210.333 64.7309 209.794 64.9802 209.325C65.2369 208.856 65.5816 208.493 66.0142 208.236C66.4542 207.972 66.9419 207.84 67.4772 207.84C67.8732 207.84 68.2619 207.928 68.6432 208.104C69.0319 208.273 69.3399 208.5 69.5672 208.786V205.86H70.8322V214H69.5672V213.087C69.3619 213.38 69.0759 213.622 68.7092 213.813C68.3499 214.004 67.9356 214.099 67.4662 214.099C66.9382 214.099 66.4542 213.967 66.0142 213.703C65.5816 213.432 65.2369 213.058 64.9802 212.581C64.7309 212.097 64.6062 211.551 64.6062 210.942ZM69.5672 210.964C69.5672 210.546 69.4792 210.183 69.3032 209.875C69.1346 209.567 68.9109 209.332 68.6322 209.171C68.3536 209.01 68.0529 208.929 67.7302 208.929C67.4076 208.929 67.1069 209.01 66.8282 209.171C66.5496 209.325 66.3222 209.556 66.1462 209.864C65.9776 210.165 65.8932 210.524 65.8932 210.942C65.8932 211.36 65.9776 211.727 66.1462 212.042C66.3222 212.357 66.5496 212.599 66.8282 212.768C67.1142 212.929 67.4149 213.01 67.7302 213.01C68.0529 213.01 68.3536 212.929 68.6322 212.768C68.9109 212.607 69.1346 212.372 69.3032 212.064C69.4792 211.749 69.5672 211.382 69.5672 210.964ZM73.1173 207.136C72.89 207.136 72.6993 207.059 72.5453 206.905C72.3913 206.751 72.3143 206.56 72.3143 206.333C72.3143 206.106 72.3913 205.915 72.5453 205.761C72.6993 205.607 72.89 205.53 73.1173 205.53C73.3373 205.53 73.5243 205.607 73.6783 205.761C73.8323 205.915 73.9093 206.106 73.9093 206.333C73.9093 206.56 73.8323 206.751 73.6783 206.905C73.5243 207.059 73.3373 207.136 73.1173 207.136ZM73.7333 207.939V214H72.4793V207.939H73.7333ZM74.9617 210.942C74.9617 210.333 75.0864 209.794 75.3357 209.325C75.5924 208.856 75.937 208.493 76.3697 208.236C76.8097 207.972 77.2937 207.84 77.8217 207.84C78.2984 207.84 78.7127 207.935 79.0647 208.126C79.424 208.309 79.71 208.54 79.9227 208.819V207.939H81.1877V214H79.9227V213.098C79.71 213.384 79.4204 213.622 79.0537 213.813C78.687 214.004 78.269 214.099 77.7997 214.099C77.279 214.099 76.8024 213.967 76.3697 213.703C75.937 213.432 75.5924 213.058 75.3357 212.581C75.0864 212.097 74.9617 211.551 74.9617 210.942ZM79.9227 210.964C79.9227 210.546 79.8347 210.183 79.6587 209.875C79.49 209.567 79.2664 209.332 78.9877 209.171C78.709 209.01 78.4084 208.929 78.0857 208.929C77.763 208.929 77.4624 209.01 77.1837 209.171C76.905 209.325 76.6777 209.556 76.5017 209.864C76.333 210.165 76.2487 210.524 76.2487 210.942C76.2487 211.36 76.333 211.727 76.5017 212.042C76.6777 212.357 76.905 212.599 77.1837 212.768C77.4697 212.929 77.7704 213.01 78.0857 213.01C78.4084 213.01 78.709 212.929 78.9877 212.768C79.2664 212.607 79.49 212.372 79.6587 212.064C79.8347 211.749 79.9227 211.382 79.9227 210.964ZM91.0382 208.632C91.0382 209.021 90.9465 209.387 90.7632 209.732C90.5799 210.077 90.2865 210.359 89.8832 210.579C89.4799 210.792 88.9629 210.898 88.3322 210.898H86.9462V214H85.6922V206.355H88.3322C88.9189 206.355 89.4139 206.458 89.8172 206.663C90.2279 206.861 90.5322 207.132 90.7302 207.477C90.9355 207.822 91.0382 208.207 91.0382 208.632ZM88.3322 209.875C88.8089 209.875 89.1645 209.769 89.3992 209.556C89.6339 209.336 89.7512 209.028 89.7512 208.632C89.7512 207.796 89.2782 207.378 88.3322 207.378H86.9462V209.875H88.3322ZM93.4882 205.86V214H92.2342V205.86H93.4882ZM94.7166 210.942C94.7166 210.333 94.8412 209.794 95.0906 209.325C95.3472 208.856 95.6919 208.493 96.1246 208.236C96.5646 207.972 97.0486 207.84 97.5766 207.84C98.0532 207.84 98.4676 207.935 98.8196 208.126C99.1789 208.309 99.4649 208.54 99.6776 208.819V207.939H100.943V214H99.6776V213.098C99.4649 213.384 99.1752 213.622 98.8086 213.813C98.4419 214.004 98.0239 214.099 97.5546 214.099C97.0339 214.099 96.5572 213.967 96.1246 213.703C95.6919 213.432 95.3472 213.058 95.0906 212.581C94.8412 212.097 94.7166 211.551 94.7166 210.942ZM99.6776 210.964C99.6776 210.546 99.5896 210.183 99.4136 209.875C99.2449 209.567 99.0212 209.332 98.7426 209.171C98.4639 209.01 98.1632 208.929 97.8406 208.929C97.5179 208.929 97.2172 209.01 96.9386 209.171C96.6599 209.325 96.4326 209.556 96.2566 209.864C96.0879 210.165 96.0036 210.524 96.0036 210.942C96.0036 211.36 96.0879 211.727 96.2566 212.042C96.4326 212.357 96.6599 212.599 96.9386 212.768C97.2246 212.929 97.5252 213.01 97.8406 213.01C98.1632 213.01 98.4639 212.929 98.7426 212.768C99.0212 212.607 99.2449 212.372 99.4136 212.064C99.5896 211.749 99.6776 211.382 99.6776 210.964ZM108.046 207.939L104.328 216.849H103.03L104.262 213.901L101.875 207.939H103.272L104.977 212.559L106.748 207.939H108.046ZM114.547 210.821C114.547 211.048 114.532 211.254 114.503 211.437H109.872C109.909 211.921 110.088 212.31 110.411 212.603C110.734 212.896 111.13 213.043 111.599 213.043C112.274 213.043 112.75 212.761 113.029 212.196H114.382C114.199 212.753 113.865 213.212 113.381 213.571C112.904 213.923 112.31 214.099 111.599 214.099C111.02 214.099 110.499 213.971 110.037 213.714C109.582 213.45 109.223 213.083 108.959 212.614C108.702 212.137 108.574 211.587 108.574 210.964C108.574 210.341 108.699 209.794 108.948 209.325C109.205 208.848 109.56 208.482 110.015 208.225C110.477 207.968 111.005 207.84 111.599 207.84C112.171 207.84 112.681 207.965 113.128 208.214C113.575 208.463 113.924 208.815 114.173 209.27C114.422 209.717 114.547 210.234 114.547 210.821ZM113.238 210.425C113.231 209.963 113.066 209.593 112.743 209.314C112.42 209.035 112.021 208.896 111.544 208.896C111.111 208.896 110.741 209.035 110.433 209.314C110.125 209.585 109.942 209.956 109.883 210.425H113.238ZM117.035 208.819C117.218 208.511 117.46 208.273 117.761 208.104C118.069 207.928 118.432 207.84 118.85 207.84V209.138H118.531C118.04 209.138 117.666 209.263 117.409 209.512C117.16 209.761 117.035 210.194 117.035 210.81V214H115.781V207.939H117.035V208.819ZM123.498 207.136C123.271 207.136 123.08 207.059 122.926 206.905C122.772 206.751 122.695 206.56 122.695 206.333C122.695 206.106 122.772 205.915 122.926 205.761C123.08 205.607 123.271 205.53 123.498 205.53C123.718 205.53 123.905 205.607 124.059 205.761C124.213 205.915 124.29 206.106 124.29 206.333C124.29 206.56 124.213 206.751 124.059 206.905C123.905 207.059 123.718 207.136 123.498 207.136ZM124.114 207.939V214H122.86V207.939H124.114ZM127.961 214.099C127.484 214.099 127.055 214.015 126.674 213.846C126.3 213.67 126.003 213.435 125.783 213.142C125.563 212.841 125.445 212.508 125.431 212.141H126.729C126.751 212.398 126.872 212.614 127.092 212.79C127.319 212.959 127.601 213.043 127.939 213.043C128.291 213.043 128.562 212.977 128.753 212.845C128.951 212.706 129.05 212.53 129.05 212.317C129.05 212.09 128.94 211.921 128.72 211.811C128.507 211.701 128.166 211.58 127.697 211.448C127.242 211.323 126.872 211.202 126.586 211.085C126.3 210.968 126.05 210.788 125.838 210.546C125.632 210.304 125.53 209.985 125.53 209.589C125.53 209.266 125.625 208.973 125.816 208.709C126.006 208.438 126.278 208.225 126.63 208.071C126.989 207.917 127.4 207.84 127.862 207.84C128.551 207.84 129.105 208.016 129.523 208.368C129.948 208.713 130.175 209.186 130.205 209.787H128.951C128.929 209.516 128.819 209.299 128.621 209.138C128.423 208.977 128.155 208.896 127.818 208.896C127.488 208.896 127.235 208.958 127.059 209.083C126.883 209.208 126.795 209.373 126.795 209.578C126.795 209.739 126.853 209.875 126.971 209.985C127.088 210.095 127.231 210.183 127.4 210.249C127.568 210.308 127.818 210.385 128.148 210.48C128.588 210.597 128.947 210.718 129.226 210.843C129.512 210.96 129.757 211.136 129.963 211.371C130.168 211.606 130.274 211.917 130.282 212.306C130.282 212.651 130.186 212.959 129.996 213.23C129.805 213.501 129.534 213.714 129.182 213.868C128.837 214.022 128.43 214.099 127.961 214.099ZM137.552 207.84C138.029 207.84 138.454 207.939 138.828 208.137C139.209 208.335 139.506 208.628 139.719 209.017C139.932 209.406 140.038 209.875 140.038 210.425V214H138.795V210.612C138.795 210.069 138.659 209.655 138.388 209.369C138.117 209.076 137.746 208.929 137.277 208.929C136.808 208.929 136.434 209.076 136.155 209.369C135.884 209.655 135.748 210.069 135.748 210.612V214H134.494V207.939H135.748V208.632C135.953 208.383 136.214 208.188 136.529 208.049C136.852 207.91 137.193 207.84 137.552 207.84ZM144.267 214.099C143.695 214.099 143.178 213.971 142.716 213.714C142.254 213.45 141.891 213.083 141.627 212.614C141.363 212.137 141.231 211.587 141.231 210.964C141.231 210.348 141.366 209.802 141.638 209.325C141.909 208.848 142.279 208.482 142.749 208.225C143.218 207.968 143.742 207.84 144.322 207.84C144.901 207.84 145.425 207.968 145.895 208.225C146.364 208.482 146.734 208.848 147.006 209.325C147.277 209.802 147.413 210.348 147.413 210.964C147.413 211.58 147.273 212.126 146.995 212.603C146.716 213.08 146.335 213.45 145.851 213.714C145.374 213.971 144.846 214.099 144.267 214.099ZM144.267 213.01C144.589 213.01 144.89 212.933 145.169 212.779C145.455 212.625 145.686 212.394 145.862 212.086C146.038 211.778 146.126 211.404 146.126 210.964C146.126 210.524 146.041 210.154 145.873 209.853C145.704 209.545 145.48 209.314 145.202 209.16C144.923 209.006 144.622 208.929 144.3 208.929C143.977 208.929 143.676 209.006 143.398 209.16C143.126 209.314 142.91 209.545 142.749 209.853C142.587 210.154 142.507 210.524 142.507 210.964C142.507 211.617 142.672 212.123 143.002 212.482C143.339 212.834 143.761 213.01 144.267 213.01ZM150.115 208.962V212.317C150.115 212.544 150.166 212.709 150.269 212.812C150.379 212.907 150.562 212.955 150.819 212.955H151.589V214H150.599C150.034 214 149.602 213.868 149.301 213.604C149 213.34 148.85 212.911 148.85 212.317V208.962H148.135V207.939H148.85V206.432H150.115V207.939H151.589V208.962H150.115ZM156.24 207.136C156.013 207.136 155.822 207.059 155.668 206.905C155.514 206.751 155.437 206.56 155.437 206.333C155.437 206.106 155.514 205.915 155.668 205.761C155.822 205.607 156.013 205.53 156.24 205.53C156.46 205.53 156.647 205.607 156.801 205.761C156.955 205.915 157.032 206.106 157.032 206.333C157.032 206.56 156.955 206.751 156.801 206.905C156.647 207.059 156.46 207.136 156.24 207.136ZM156.856 207.939V214H155.602V207.939H156.856ZM161.561 207.84C162.037 207.84 162.463 207.939 162.837 208.137C163.218 208.335 163.515 208.628 163.728 209.017C163.94 209.406 164.047 209.875 164.047 210.425V214H162.804V210.612C162.804 210.069 162.668 209.655 162.397 209.369C162.125 209.076 161.755 208.929 161.286 208.929C160.816 208.929 160.442 209.076 160.164 209.369C159.892 209.655 159.757 210.069 159.757 210.612V214H158.503V207.939H159.757V208.632C159.962 208.383 160.222 208.188 160.538 208.049C160.86 207.91 161.201 207.84 161.561 207.84ZM167.846 214.099C167.37 214.099 166.941 214.015 166.559 213.846C166.185 213.67 165.888 213.435 165.668 213.142C165.448 212.841 165.331 212.508 165.316 212.141H166.614C166.636 212.398 166.757 212.614 166.977 212.79C167.205 212.959 167.487 213.043 167.824 213.043C168.176 213.043 168.448 212.977 168.638 212.845C168.836 212.706 168.935 212.53 168.935 212.317C168.935 212.09 168.825 211.921 168.605 211.811C168.393 211.701 168.052 211.58 167.582 211.448C167.128 211.323 166.757 211.202 166.471 211.085C166.185 210.968 165.936 210.788 165.723 210.546C165.518 210.304 165.415 209.985 165.415 209.589C165.415 209.266 165.511 208.973 165.701 208.709C165.892 208.438 166.163 208.225 166.515 208.071C166.875 207.917 167.285 207.84 167.747 207.84C168.437 207.84 168.99 208.016 169.408 208.368C169.834 208.713 170.061 209.186 170.09 209.787H168.836C168.814 209.516 168.704 209.299 168.506 209.138C168.308 208.977 168.041 208.896 167.703 208.896C167.373 208.896 167.12 208.958 166.944 209.083C166.768 209.208 166.68 209.373 166.68 209.578C166.68 209.739 166.739 209.875 166.856 209.985C166.974 210.095 167.117 210.183 167.285 210.249C167.454 210.308 167.703 210.385 168.033 210.48C168.473 210.597 168.833 210.718 169.111 210.843C169.397 210.96 169.643 211.136 169.848 211.371C170.054 211.606 170.16 211.917 170.167 212.306C170.167 212.651 170.072 212.959 169.881 213.23C169.691 213.501 169.419 213.714 169.067 213.868C168.723 214.022 168.316 214.099 167.846 214.099ZM172.985 208.962V212.317C172.985 212.544 173.037 212.709 173.139 212.812C173.249 212.907 173.433 212.955 173.689 212.955H174.459V214H173.469C172.905 214 172.472 213.868 172.171 213.604C171.871 213.34 171.72 212.911 171.72 212.317V208.962H171.005V207.939H171.72V206.432H172.985V207.939H174.459V208.962H172.985ZM175.197 210.942C175.197 210.333 175.322 209.794 175.571 209.325C175.828 208.856 176.172 208.493 176.605 208.236C177.045 207.972 177.529 207.84 178.057 207.84C178.534 207.84 178.948 207.935 179.3 208.126C179.659 208.309 179.945 208.54 180.158 208.819V207.939H181.423V214H180.158V213.098C179.945 213.384 179.656 213.622 179.289 213.813C178.922 214.004 178.504 214.099 178.035 214.099C177.514 214.099 177.038 213.967 176.605 213.703C176.172 213.432 175.828 213.058 175.571 212.581C175.322 212.097 175.197 211.551 175.197 210.942ZM180.158 210.964C180.158 210.546 180.07 210.183 179.894 209.875C179.725 209.567 179.502 209.332 179.223 209.171C178.944 209.01 178.644 208.929 178.321 208.929C177.998 208.929 177.698 209.01 177.419 209.171C177.14 209.325 176.913 209.556 176.737 209.864C176.568 210.165 176.484 210.524 176.484 210.942C176.484 211.36 176.568 211.727 176.737 212.042C176.913 212.357 177.14 212.599 177.419 212.768C177.705 212.929 178.006 213.01 178.321 213.01C178.644 213.01 178.944 212.929 179.223 212.768C179.502 212.607 179.725 212.372 179.894 212.064C180.07 211.749 180.158 211.382 180.158 210.964ZM184.324 205.86V214H183.07V205.86H184.324ZM187.225 205.86V214H185.971V205.86H187.225ZM194.426 210.821C194.426 211.048 194.411 211.254 194.382 211.437H189.751C189.788 211.921 189.967 212.31 190.29 212.603C190.613 212.896 191.009 213.043 191.478 213.043C192.153 213.043 192.629 212.761 192.908 212.196H194.261C194.078 212.753 193.744 213.212 193.26 213.571C192.783 213.923 192.189 214.099 191.478 214.099C190.899 214.099 190.378 213.971 189.916 213.714C189.461 213.45 189.102 213.083 188.838 212.614C188.581 212.137 188.453 211.587 188.453 210.964C188.453 210.341 188.578 209.794 188.827 209.325C189.084 208.848 189.439 208.482 189.894 208.225C190.356 207.968 190.884 207.84 191.478 207.84C192.05 207.84 192.56 207.965 193.007 208.214C193.454 208.463 193.803 208.815 194.052 209.27C194.301 209.717 194.426 210.234 194.426 210.821ZM193.117 210.425C193.11 209.963 192.945 209.593 192.622 209.314C192.299 209.035 191.9 208.896 191.423 208.896C190.99 208.896 190.62 209.035 190.312 209.314C190.004 209.585 189.821 209.956 189.762 210.425H193.117ZM195.242 210.942C195.242 210.333 195.367 209.794 195.616 209.325C195.873 208.856 196.217 208.493 196.65 208.236C197.09 207.972 197.578 207.84 198.113 207.84C198.509 207.84 198.898 207.928 199.279 208.104C199.668 208.273 199.976 208.5 200.203 208.786V205.86H201.468V214H200.203V213.087C199.998 213.38 199.712 213.622 199.345 213.813C198.986 214.004 198.571 214.099 198.102 214.099C197.574 214.099 197.09 213.967 196.65 213.703C196.217 213.432 195.873 213.058 195.616 212.581C195.367 212.097 195.242 211.551 195.242 210.942ZM200.203 210.964C200.203 210.546 200.115 210.183 199.939 209.875C199.77 209.567 199.547 209.332 199.268 209.171C198.989 209.01 198.689 208.929 198.366 208.929C198.043 208.929 197.743 209.01 197.464 209.171C197.185 209.325 196.958 209.556 196.782 209.864C196.613 210.165 196.529 210.524 196.529 210.942C196.529 211.36 196.613 211.727 196.782 212.042C196.958 212.357 197.185 212.599 197.464 212.768C197.75 212.929 198.051 213.01 198.366 213.01C198.689 213.01 198.989 212.929 199.268 212.768C199.547 212.607 199.77 212.372 199.939 212.064C200.115 211.749 200.203 211.382 200.203 210.964Z"></path>
</svg>
