<svg xmlns="http://www.w3.org/2000/svg" fill="none" viewBox="0 0 480 360" height="360" width="480">
<path fill="black" d="M190.407 105.161C190.407 104.413 190.579 103.742 190.924 103.148C191.276 102.554 191.749 102.092 192.343 101.762C192.944 101.425 193.601 101.256 194.312 101.256C195.126 101.256 195.848 101.458 196.479 101.861C197.117 102.257 197.579 102.822 197.865 103.555H196.358C196.16 103.152 195.885 102.851 195.533 102.653C195.181 102.455 194.774 102.356 194.312 102.356C193.806 102.356 193.355 102.47 192.959 102.697C192.563 102.924 192.251 103.251 192.024 103.676C191.804 104.101 191.694 104.596 191.694 105.161C191.694 105.726 191.804 106.221 192.024 106.646C192.251 107.071 192.563 107.401 192.959 107.636C193.355 107.863 193.806 107.977 194.312 107.977C194.774 107.977 195.181 107.878 195.533 107.68C195.885 107.482 196.16 107.181 196.358 106.778H197.865C197.579 107.511 197.117 108.076 196.479 108.472C195.848 108.868 195.126 109.066 194.312 109.066C193.593 109.066 192.937 108.901 192.343 108.571C191.749 108.234 191.276 107.768 190.924 107.174C190.579 106.58 190.407 105.909 190.407 105.161ZM202.468 102.84C202.93 102.84 203.34 102.939 203.7 103.137C204.066 103.335 204.352 103.628 204.558 104.017C204.77 104.406 204.877 104.875 204.877 105.425V109H203.634V105.612C203.634 105.069 203.498 104.655 203.227 104.369C202.955 104.076 202.585 103.929 202.116 103.929C201.646 103.929 201.272 104.076 200.994 104.369C200.722 104.655 200.587 105.069 200.587 105.612V109H199.333V100.86H200.587V103.643C200.799 103.386 201.067 103.188 201.39 103.049C201.72 102.91 202.079 102.84 202.468 102.84ZM212.031 105.821C212.031 106.048 212.017 106.254 211.987 106.437H207.356C207.393 106.921 207.573 107.31 207.895 107.603C208.218 107.896 208.614 108.043 209.083 108.043C209.758 108.043 210.235 107.761 210.513 107.196H211.866C211.683 107.753 211.349 108.212 210.865 108.571C210.389 108.923 209.795 109.099 209.083 109.099C208.504 109.099 207.983 108.971 207.521 108.714C207.067 108.45 206.707 108.083 206.443 107.614C206.187 107.137 206.058 106.587 206.058 105.964C206.058 105.341 206.183 104.794 206.432 104.325C206.689 103.848 207.045 103.482 207.499 103.225C207.961 102.968 208.489 102.84 209.083 102.84C209.655 102.84 210.165 102.965 210.612 103.214C211.06 103.463 211.408 103.815 211.657 104.27C211.907 104.717 212.031 105.234 212.031 105.821ZM210.722 105.425C210.715 104.963 210.55 104.593 210.227 104.314C209.905 104.035 209.505 103.896 209.028 103.896C208.596 103.896 208.225 104.035 207.917 104.314C207.609 104.585 207.426 104.956 207.367 105.425H210.722ZM212.847 105.964C212.847 105.341 212.972 104.794 213.221 104.325C213.478 103.848 213.83 103.482 214.277 103.225C214.725 102.968 215.238 102.84 215.817 102.84C216.551 102.84 217.156 103.016 217.632 103.368C218.116 103.713 218.443 104.208 218.611 104.853H217.258C217.148 104.552 216.972 104.318 216.73 104.149C216.488 103.98 216.184 103.896 215.817 103.896C215.304 103.896 214.893 104.079 214.585 104.446C214.285 104.805 214.134 105.311 214.134 105.964C214.134 106.617 214.285 107.126 214.585 107.493C214.893 107.86 215.304 108.043 215.817 108.043C216.543 108.043 217.024 107.724 217.258 107.086H218.611C218.435 107.702 218.105 108.193 217.621 108.56C217.137 108.919 216.536 109.099 215.817 109.099C215.238 109.099 214.725 108.971 214.277 108.714C213.83 108.45 213.478 108.083 213.221 107.614C212.972 107.137 212.847 106.587 212.847 105.964ZM222.259 105.975L225.053 109H223.359L221.115 106.393V109H219.861V100.86H221.115V105.59L223.315 102.939H225.053L222.259 105.975ZM231.35 103.962H230.228V109H228.963V103.962H228.248V102.939H228.963V102.51C228.963 101.813 229.147 101.307 229.513 100.992C229.887 100.669 230.47 100.508 231.262 100.508V101.553C230.881 101.553 230.613 101.626 230.459 101.773C230.305 101.912 230.228 102.158 230.228 102.51V102.939H231.35V103.962ZM235.091 109.099C234.519 109.099 234.002 108.971 233.54 108.714C233.078 108.45 232.715 108.083 232.451 107.614C232.187 107.137 232.055 106.587 232.055 105.964C232.055 105.348 232.19 104.802 232.462 104.325C232.733 103.848 233.103 103.482 233.573 103.225C234.042 102.968 234.566 102.84 235.146 102.84C235.725 102.84 236.249 102.968 236.719 103.225C237.188 103.482 237.558 103.848 237.83 104.325C238.101 104.802 238.237 105.348 238.237 105.964C238.237 106.58 238.097 107.126 237.819 107.603C237.54 108.08 237.159 108.45 236.675 108.714C236.198 108.971 235.67 109.099 235.091 109.099ZM235.091 108.01C235.413 108.01 235.714 107.933 235.993 107.779C236.279 107.625 236.51 107.394 236.686 107.086C236.862 106.778 236.95 106.404 236.95 105.964C236.95 105.524 236.865 105.154 236.697 104.853C236.528 104.545 236.304 104.314 236.026 104.16C235.747 104.006 235.446 103.929 235.124 103.929C234.801 103.929 234.5 104.006 234.222 104.16C233.95 104.314 233.734 104.545 233.573 104.853C233.411 105.154 233.331 105.524 233.331 105.964C233.331 106.617 233.496 107.123 233.826 107.482C234.163 107.834 234.585 108.01 235.091 108.01ZM240.73 103.819C240.914 103.511 241.156 103.273 241.456 103.104C241.764 102.928 242.127 102.84 242.545 102.84V104.138H242.226C241.735 104.138 241.361 104.263 241.104 104.512C240.855 104.761 240.73 105.194 240.73 105.81V109H239.476V102.939H240.73V103.819ZM249.096 103.962H247.974V109H246.709V103.962H245.994V102.939H246.709V102.51C246.709 101.813 246.893 101.307 247.259 100.992C247.633 100.669 248.216 100.508 249.008 100.508V101.553C248.627 101.553 248.359 101.626 248.205 101.773C248.051 101.912 247.974 102.158 247.974 102.51V102.939H249.096V103.962ZM250.846 102.136C250.618 102.136 250.428 102.059 250.274 101.905C250.12 101.751 250.043 101.56 250.043 101.333C250.043 101.106 250.12 100.915 250.274 100.761C250.428 100.607 250.618 100.53 250.846 100.53C251.066 100.53 251.253 100.607 251.407 100.761C251.561 100.915 251.638 101.106 251.638 101.333C251.638 101.56 251.561 101.751 251.407 101.905C251.253 102.059 251.066 102.136 250.846 102.136ZM251.462 102.939V109H250.208V102.939H251.462ZM254.362 100.86V109H253.108V100.86H254.362ZM261.564 105.821C261.564 106.048 261.549 106.254 261.52 106.437H256.889C256.925 106.921 257.105 107.31 257.428 107.603C257.75 107.896 258.146 108.043 258.616 108.043C259.29 108.043 259.767 107.761 260.046 107.196H261.399C261.215 107.753 260.882 108.212 260.398 108.571C259.921 108.923 259.327 109.099 258.616 109.099C258.036 109.099 257.516 108.971 257.054 108.714C256.599 108.45 256.24 108.083 255.976 107.614C255.719 107.137 255.591 106.587 255.591 105.964C255.591 105.341 255.715 104.794 255.965 104.325C256.221 103.848 256.577 103.482 257.032 103.225C257.494 102.968 258.022 102.84 258.616 102.84C259.188 102.84 259.697 102.965 260.145 103.214C260.592 103.463 260.94 103.815 261.19 104.27C261.439 104.717 261.564 105.234 261.564 105.821ZM260.255 105.425C260.247 104.963 260.082 104.593 259.76 104.314C259.437 104.035 259.037 103.896 258.561 103.896C258.128 103.896 257.758 104.035 257.45 104.314C257.142 104.585 256.958 104.956 256.9 105.425H260.255ZM267.855 109.099C267.378 109.099 266.949 109.015 266.568 108.846C266.194 108.67 265.897 108.435 265.677 108.142C265.457 107.841 265.34 107.508 265.325 107.141H266.623C266.645 107.398 266.766 107.614 266.986 107.79C267.213 107.959 267.496 108.043 267.833 108.043C268.185 108.043 268.456 107.977 268.647 107.845C268.845 107.706 268.944 107.53 268.944 107.317C268.944 107.09 268.834 106.921 268.614 106.811C268.401 106.701 268.06 106.58 267.591 106.448C267.136 106.323 266.766 106.202 266.48 106.085C266.194 105.968 265.945 105.788 265.732 105.546C265.527 105.304 265.424 104.985 265.424 104.589C265.424 104.266 265.519 103.973 265.71 103.709C265.901 103.438 266.172 103.225 266.524 103.071C266.883 102.917 267.294 102.84 267.756 102.84C268.445 102.84 268.999 103.016 269.417 103.368C269.842 103.713 270.07 104.186 270.099 104.787H268.845C268.823 104.516 268.713 104.299 268.515 104.138C268.317 103.977 268.049 103.896 267.712 103.896C267.382 103.896 267.129 103.958 266.953 104.083C266.777 104.208 266.689 104.373 266.689 104.578C266.689 104.739 266.748 104.875 266.865 104.985C266.982 105.095 267.125 105.183 267.294 105.249C267.463 105.308 267.712 105.385 268.042 105.48C268.482 105.597 268.841 105.718 269.12 105.843C269.406 105.96 269.652 106.136 269.857 106.371C270.062 106.606 270.169 106.917 270.176 107.306C270.176 107.651 270.081 107.959 269.89 108.23C269.699 108.501 269.428 108.714 269.076 108.868C268.731 109.022 268.324 109.099 267.855 109.099ZM276.987 102.939L273.269 111.849H271.971L273.203 108.901L270.816 102.939H272.213L273.918 107.559L275.689 102.939H276.987ZM280.133 109.099C279.657 109.099 279.228 109.015 278.846 108.846C278.472 108.67 278.175 108.435 277.955 108.142C277.735 107.841 277.618 107.508 277.603 107.141H278.901C278.923 107.398 279.044 107.614 279.264 107.79C279.492 107.959 279.774 108.043 280.111 108.043C280.463 108.043 280.735 107.977 280.925 107.845C281.123 107.706 281.222 107.53 281.222 107.317C281.222 107.09 281.112 106.921 280.892 106.811C280.68 106.701 280.339 106.58 279.869 106.448C279.415 106.323 279.044 106.202 278.758 106.085C278.472 105.968 278.223 105.788 278.01 105.546C277.805 105.304 277.702 104.985 277.702 104.589C277.702 104.266 277.798 103.973 277.988 103.709C278.179 103.438 278.45 103.225 278.802 103.071C279.162 102.917 279.572 102.84 280.034 102.84C280.724 102.84 281.277 103.016 281.695 103.368C282.121 103.713 282.348 104.186 282.377 104.787H281.123C281.101 104.516 280.991 104.299 280.793 104.138C280.595 103.977 280.328 103.896 279.99 103.896C279.66 103.896 279.407 103.958 279.231 104.083C279.055 104.208 278.967 104.373 278.967 104.578C278.967 104.739 279.026 104.875 279.143 104.985C279.261 105.095 279.404 105.183 279.572 105.249C279.741 105.308 279.99 105.385 280.32 105.48C280.76 105.597 281.12 105.718 281.398 105.843C281.684 105.96 281.93 106.136 282.135 106.371C282.341 106.606 282.447 106.917 282.454 107.306C282.454 107.651 282.359 107.959 282.168 108.23C281.978 108.501 281.706 108.714 281.354 108.868C281.01 109.022 280.603 109.099 280.133 109.099ZM285.272 103.962V107.317C285.272 107.544 285.324 107.709 285.426 107.812C285.536 107.907 285.72 107.955 285.976 107.955H286.746V109H285.756C285.192 109 284.759 108.868 284.458 108.604C284.158 108.34 284.007 107.911 284.007 107.317V103.962H283.292V102.939H284.007V101.432H285.272V102.939H286.746V103.962H285.272ZM293.457 105.821C293.457 106.048 293.442 106.254 293.413 106.437H288.782C288.819 106.921 288.998 107.31 289.321 107.603C289.644 107.896 290.04 108.043 290.509 108.043C291.184 108.043 291.66 107.761 291.939 107.196H293.292C293.109 107.753 292.775 108.212 292.291 108.571C291.814 108.923 291.22 109.099 290.509 109.099C289.93 109.099 289.409 108.971 288.947 108.714C288.492 108.45 288.133 108.083 287.869 107.614C287.612 107.137 287.484 106.587 287.484 105.964C287.484 105.341 287.609 104.794 287.858 104.325C288.115 103.848 288.47 103.482 288.925 103.225C289.387 102.968 289.915 102.84 290.509 102.84C291.081 102.84 291.591 102.965 292.038 103.214C292.485 103.463 292.834 103.815 293.083 104.27C293.332 104.717 293.457 105.234 293.457 105.821ZM292.148 105.425C292.141 104.963 291.976 104.593 291.653 104.314C291.33 104.035 290.931 103.896 290.454 103.896C290.021 103.896 289.651 104.035 289.343 104.314C289.035 104.585 288.852 104.956 288.793 105.425H292.148ZM302.028 102.84C302.505 102.84 302.93 102.939 303.304 103.137C303.686 103.335 303.983 103.628 304.195 104.017C304.415 104.406 304.525 104.875 304.525 105.425V109H303.282V105.612C303.282 105.069 303.147 104.655 302.875 104.369C302.604 104.076 302.234 103.929 301.764 103.929C301.295 103.929 300.921 104.076 300.642 104.369C300.371 104.655 300.235 105.069 300.235 105.612V109H298.992V105.612C298.992 105.069 298.857 104.655 298.585 104.369C298.314 104.076 297.944 103.929 297.474 103.929C297.005 103.929 296.631 104.076 296.352 104.369C296.081 104.655 295.945 105.069 295.945 105.612V109H294.691V102.939H295.945V103.632C296.151 103.383 296.411 103.188 296.726 103.049C297.042 102.91 297.379 102.84 297.738 102.84C298.222 102.84 298.655 102.943 299.036 103.148C299.418 103.353 299.711 103.65 299.916 104.039C300.1 103.672 300.386 103.383 300.774 103.17C301.163 102.95 301.581 102.84 302.028 102.84ZM309.616 102.136C309.389 102.136 309.198 102.059 309.044 101.905C308.89 101.751 308.813 101.56 308.813 101.333C308.813 101.106 308.89 100.915 309.044 100.761C309.198 100.607 309.389 100.53 309.616 100.53C309.836 100.53 310.023 100.607 310.177 100.761C310.331 100.915 310.408 101.106 310.408 101.333C310.408 101.56 310.331 101.751 310.177 101.905C310.023 102.059 309.836 102.136 309.616 102.136ZM310.232 102.939V109H308.978V102.939H310.232ZM314.079 109.099C313.602 109.099 313.173 109.015 312.792 108.846C312.418 108.67 312.121 108.435 311.901 108.142C311.681 107.841 311.563 107.508 311.549 107.141H312.847C312.869 107.398 312.99 107.614 313.21 107.79C313.437 107.959 313.719 108.043 314.057 108.043C314.409 108.043 314.68 107.977 314.871 107.845C315.069 107.706 315.168 107.53 315.168 107.317C315.168 107.09 315.058 106.921 314.838 106.811C314.625 106.701 314.284 106.58 313.815 106.448C313.36 106.323 312.99 106.202 312.704 106.085C312.418 105.968 312.168 105.788 311.956 105.546C311.75 105.304 311.648 104.985 311.648 104.589C311.648 104.266 311.743 103.973 311.934 103.709C312.124 103.438 312.396 103.225 312.748 103.071C313.107 102.917 313.518 102.84 313.98 102.84C314.669 102.84 315.223 103.016 315.641 103.368C316.066 103.713 316.293 104.186 316.323 104.787H315.069C315.047 104.516 314.937 104.299 314.739 104.138C314.541 103.977 314.273 103.896 313.936 103.896C313.606 103.896 313.353 103.958 313.177 104.083C313.001 104.208 312.913 104.373 312.913 104.578C312.913 104.739 312.971 104.875 313.089 104.985C313.206 105.095 313.349 105.183 313.518 105.249C313.686 105.308 313.936 105.385 314.266 105.48C314.706 105.597 315.065 105.718 315.344 105.843C315.63 105.96 315.875 106.136 316.081 106.371C316.286 106.606 316.392 106.917 316.4 107.306C316.4 107.651 316.304 107.959 316.114 108.23C315.923 108.501 315.652 108.714 315.3 108.868C314.955 109.022 314.548 109.099 314.079 109.099ZM319.955 109.099C319.478 109.099 319.049 109.015 318.668 108.846C318.294 108.67 317.997 108.435 317.777 108.142C317.557 107.841 317.439 107.508 317.425 107.141H318.723C318.745 107.398 318.866 107.614 319.086 107.79C319.313 107.959 319.595 108.043 319.933 108.043C320.285 108.043 320.556 107.977 320.747 107.845C320.945 107.706 321.044 107.53 321.044 107.317C321.044 107.09 320.934 106.921 320.714 106.811C320.501 106.701 320.16 106.58 319.691 106.448C319.236 106.323 318.866 106.202 318.58 106.085C318.294 105.968 318.044 105.788 317.832 105.546C317.626 105.304 317.524 104.985 317.524 104.589C317.524 104.266 317.619 103.973 317.81 103.709C318 103.438 318.272 103.225 318.624 103.071C318.983 102.917 319.394 102.84 319.856 102.84C320.545 102.84 321.099 103.016 321.517 103.368C321.942 103.713 322.169 104.186 322.199 104.787H320.945C320.923 104.516 320.813 104.299 320.615 104.138C320.417 103.977 320.149 103.896 319.812 103.896C319.482 103.896 319.229 103.958 319.053 104.083C318.877 104.208 318.789 104.373 318.789 104.578C318.789 104.739 318.847 104.875 318.965 104.985C319.082 105.095 319.225 105.183 319.394 105.249C319.562 105.308 319.812 105.385 320.142 105.48C320.582 105.597 320.941 105.718 321.22 105.843C321.506 105.96 321.751 106.136 321.957 106.371C322.162 106.606 322.268 106.917 322.276 107.306C322.276 107.651 322.18 107.959 321.99 108.23C321.799 108.501 321.528 108.714 321.176 108.868C320.831 109.022 320.424 109.099 319.955 109.099ZM329.12 102.939V109H327.866V108.285C327.668 108.534 327.407 108.732 327.085 108.879C326.769 109.018 326.432 109.088 326.073 109.088C325.596 109.088 325.167 108.989 324.786 108.791C324.412 108.593 324.115 108.3 323.895 107.911C323.682 107.522 323.576 107.053 323.576 106.503V102.939H324.819V106.316C324.819 106.859 324.954 107.277 325.226 107.57C325.497 107.856 325.867 107.999 326.337 107.999C326.806 107.999 327.176 107.856 327.448 107.57C327.726 107.277 327.866 106.859 327.866 106.316V102.939H329.12ZM336.329 105.821C336.329 106.048 336.315 106.254 336.285 106.437H331.654C331.691 106.921 331.871 107.31 332.193 107.603C332.516 107.896 332.912 108.043 333.381 108.043C334.056 108.043 334.533 107.761 334.811 107.196H336.164C335.981 107.753 335.647 108.212 335.163 108.571C334.687 108.923 334.093 109.099 333.381 109.099C332.802 109.099 332.281 108.971 331.819 108.714C331.365 108.45 331.005 108.083 330.741 107.614C330.485 107.137 330.356 106.587 330.356 105.964C330.356 105.341 330.481 104.794 330.73 104.325C330.987 103.848 331.343 103.482 331.797 103.225C332.259 102.968 332.787 102.84 333.381 102.84C333.953 102.84 334.463 102.965 334.91 103.214C335.358 103.463 335.706 103.815 335.955 104.27C336.205 104.717 336.329 105.234 336.329 105.821ZM335.02 105.425C335.013 104.963 334.848 104.593 334.525 104.314C334.203 104.035 333.803 103.896 333.326 103.896C332.894 103.896 332.523 104.035 332.215 104.314C331.907 104.585 331.724 104.956 331.665 105.425H335.02ZM339.763 109.099C339.287 109.099 338.858 109.015 338.476 108.846C338.102 108.67 337.805 108.435 337.585 108.142C337.365 107.841 337.248 107.508 337.233 107.141H338.531C338.553 107.398 338.674 107.614 338.894 107.79C339.122 107.959 339.404 108.043 339.741 108.043C340.093 108.043 340.365 107.977 340.555 107.845C340.753 107.706 340.852 107.53 340.852 107.317C340.852 107.09 340.742 106.921 340.522 106.811C340.31 106.701 339.969 106.58 339.499 106.448C339.045 106.323 338.674 106.202 338.388 106.085C338.102 105.968 337.853 105.788 337.64 105.546C337.435 105.304 337.332 104.985 337.332 104.589C337.332 104.266 337.428 103.973 337.618 103.709C337.809 103.438 338.08 103.225 338.432 103.071C338.792 102.917 339.202 102.84 339.664 102.84C340.354 102.84 340.907 103.016 341.325 103.368C341.751 103.713 341.978 104.186 342.007 104.787H340.753C340.731 104.516 340.621 104.299 340.423 104.138C340.225 103.977 339.958 103.896 339.62 103.896C339.29 103.896 339.037 103.958 338.861 104.083C338.685 104.208 338.597 104.373 338.597 104.578C338.597 104.739 338.656 104.875 338.773 104.985C338.891 105.095 339.034 105.183 339.202 105.249C339.371 105.308 339.62 105.385 339.95 105.48C340.39 105.597 340.75 105.718 341.028 105.843C341.314 105.96 341.56 106.136 341.765 106.371C341.971 106.606 342.077 106.917 342.084 107.306C342.084 107.651 341.989 107.959 341.798 108.23C341.608 108.501 341.336 108.714 340.984 108.868C340.64 109.022 340.233 109.099 339.763 109.099Z"></path>
<mask fill="white" id="path-2-inside-1_627_2">
<path d="M370 95C370 92.2386 372.239 90 375 90H465C467.761 90 470 92.2386 470 95V115C470 117.761 467.761 120 465 120H375C372.239 120 370 117.761 370 115V95Z"></path>
</mask>
<path fill-opacity="0.05" fill="black" d="M370 95C370 92.2386 372.239 90 375 90H465C467.761 90 470 92.2386 470 95V115C470 117.761 467.761 120 465 120H375C372.239 120 370 117.761 370 115V95Z"></path>
<path mask="url(#path-2-inside-1_627_2)" fill-opacity="0.05" fill="black" d="M370 95C370 91.6863 372.686 89 376 89H464C467.314 89 470 91.6863 470 95C470 92.7909 467.761 91 465 91H375C372.239 91 370 92.7909 370 95ZM470 120H370H470ZM370 120V90V120ZM470 90V120V90Z"></path>
<path fill="black" d="M402.844 105.161C402.844 104.413 403.016 103.742 403.361 103.148C403.713 102.554 404.186 102.092 404.78 101.762C405.381 101.425 406.037 101.256 406.749 101.256C407.563 101.256 408.285 101.458 408.916 101.861C409.554 102.257 410.016 102.822 410.302 103.555H408.795C408.597 103.152 408.322 102.851 407.97 102.653C407.618 102.455 407.211 102.356 406.749 102.356C406.243 102.356 405.792 102.47 405.396 102.697C405 102.924 404.688 103.251 404.461 103.676C404.241 104.101 404.131 104.596 404.131 105.161C404.131 105.726 404.241 106.221 404.461 106.646C404.688 107.071 405 107.401 405.396 107.636C405.792 107.863 406.243 107.977 406.749 107.977C407.211 107.977 407.618 107.878 407.97 107.68C408.322 107.482 408.597 107.181 408.795 106.778H410.302C410.016 107.511 409.554 108.076 408.916 108.472C408.285 108.868 407.563 109.066 406.749 109.066C406.03 109.066 405.374 108.901 404.78 108.571C404.186 108.234 403.713 107.768 403.361 107.174C403.016 106.58 402.844 105.909 402.844 105.161ZM414.904 102.84C415.366 102.84 415.777 102.939 416.136 103.137C416.503 103.335 416.789 103.628 416.994 104.017C417.207 104.406 417.313 104.875 417.313 105.425V109H416.07V105.612C416.07 105.069 415.935 104.655 415.663 104.369C415.392 104.076 415.022 103.929 414.552 103.929C414.083 103.929 413.709 104.076 413.43 104.369C413.159 104.655 413.023 105.069 413.023 105.612V109H411.769V100.86H413.023V103.643C413.236 103.386 413.504 103.188 413.826 103.049C414.156 102.91 414.516 102.84 414.904 102.84ZM424.468 105.821C424.468 106.048 424.453 106.254 424.424 106.437H419.793C419.83 106.921 420.009 107.31 420.332 107.603C420.655 107.896 421.051 108.043 421.52 108.043C422.195 108.043 422.671 107.761 422.95 107.196H424.303C424.12 107.753 423.786 108.212 423.302 108.571C422.825 108.923 422.231 109.099 421.52 109.099C420.941 109.099 420.42 108.971 419.958 108.714C419.503 108.45 419.144 108.083 418.88 107.614C418.623 107.137 418.495 106.587 418.495 105.964C418.495 105.341 418.62 104.794 418.869 104.325C419.126 103.848 419.481 103.482 419.936 103.225C420.398 102.968 420.926 102.84 421.52 102.84C422.092 102.84 422.602 102.965 423.049 103.214C423.496 103.463 423.845 103.815 424.094 104.27C424.343 104.717 424.468 105.234 424.468 105.821ZM423.159 105.425C423.152 104.963 422.987 104.593 422.664 104.314C422.341 104.035 421.942 103.896 421.465 103.896C421.032 103.896 420.662 104.035 420.354 104.314C420.046 104.585 419.863 104.956 419.804 105.425H423.159ZM425.284 105.964C425.284 105.341 425.409 104.794 425.658 104.325C425.915 103.848 426.267 103.482 426.714 103.225C427.161 102.968 427.675 102.84 428.254 102.84C428.987 102.84 429.592 103.016 430.069 103.368C430.553 103.713 430.879 104.208 431.048 104.853H429.695C429.585 104.552 429.409 104.318 429.167 104.149C428.925 103.98 428.621 103.896 428.254 103.896C427.741 103.896 427.33 104.079 427.022 104.446C426.721 104.805 426.571 105.311 426.571 105.964C426.571 106.617 426.721 107.126 427.022 107.493C427.33 107.86 427.741 108.043 428.254 108.043C428.98 108.043 429.46 107.724 429.695 107.086H431.048C430.872 107.702 430.542 108.193 430.058 108.56C429.574 108.919 428.973 109.099 428.254 109.099C427.675 109.099 427.161 108.971 426.714 108.714C426.267 108.45 425.915 108.083 425.658 107.614C425.409 107.137 425.284 106.587 425.284 105.964ZM434.696 105.975L437.49 109H435.796L433.552 106.393V109H432.298V100.86H433.552V105.59L435.752 102.939H437.49L434.696 105.975Z"></path>
<path fill="#B30000" d="M226.844 141.355V142.378H223.599V144.633H226.129V145.656H223.599V149H222.345V141.355H226.844ZM228.644 142.136C228.417 142.136 228.226 142.059 228.072 141.905C227.918 141.751 227.841 141.56 227.841 141.333C227.841 141.106 227.918 140.915 228.072 140.761C228.226 140.607 228.417 140.53 228.644 140.53C228.864 140.53 229.051 140.607 229.205 140.761C229.359 140.915 229.436 141.106 229.436 141.333C229.436 141.56 229.359 141.751 229.205 141.905C229.051 142.059 228.864 142.136 228.644 142.136ZM229.26 142.939V149H228.006V142.939H229.26ZM232.161 140.86V149H230.907V140.86H232.161ZM239.362 145.821C239.362 146.048 239.347 146.254 239.318 146.437H234.687C234.724 146.921 234.903 147.31 235.226 147.603C235.549 147.896 235.945 148.043 236.414 148.043C237.089 148.043 237.565 147.761 237.844 147.196H239.197C239.014 147.753 238.68 148.212 238.196 148.571C237.719 148.923 237.125 149.099 236.414 149.099C235.835 149.099 235.314 148.971 234.852 148.714C234.397 148.45 234.038 148.083 233.774 147.614C233.517 147.137 233.389 146.587 233.389 145.964C233.389 145.341 233.514 144.794 233.763 144.325C234.02 143.848 234.375 143.482 234.83 143.225C235.292 142.968 235.82 142.84 236.414 142.84C236.986 142.84 237.496 142.965 237.943 143.214C238.39 143.463 238.739 143.815 238.988 144.27C239.237 144.717 239.362 145.234 239.362 145.821ZM238.053 145.425C238.046 144.963 237.881 144.593 237.558 144.314C237.235 144.035 236.836 143.896 236.359 143.896C235.926 143.896 235.556 144.035 235.248 144.314C234.94 144.585 234.757 144.956 234.698 145.425H238.053ZM245.653 149.099C245.177 149.099 244.748 149.015 244.366 148.846C243.992 148.67 243.695 148.435 243.475 148.142C243.255 147.841 243.138 147.508 243.123 147.141H244.421C244.443 147.398 244.564 147.614 244.784 147.79C245.012 147.959 245.294 148.043 245.631 148.043C245.983 148.043 246.255 147.977 246.445 147.845C246.643 147.706 246.742 147.53 246.742 147.317C246.742 147.09 246.632 146.921 246.412 146.811C246.2 146.701 245.859 146.58 245.389 146.448C244.935 146.323 244.564 146.202 244.278 146.085C243.992 145.968 243.743 145.788 243.53 145.546C243.325 145.304 243.222 144.985 243.222 144.589C243.222 144.266 243.318 143.973 243.508 143.709C243.699 143.438 243.97 143.225 244.322 143.071C244.682 142.917 245.092 142.84 245.554 142.84C246.244 142.84 246.797 143.016 247.215 143.368C247.641 143.713 247.868 144.186 247.897 144.787H246.643C246.621 144.516 246.511 144.299 246.313 144.138C246.115 143.977 245.848 143.896 245.51 143.896C245.18 143.896 244.927 143.958 244.751 144.083C244.575 144.208 244.487 144.373 244.487 144.578C244.487 144.739 244.546 144.875 244.663 144.985C244.781 145.095 244.924 145.183 245.092 145.249C245.261 145.308 245.51 145.385 245.84 145.48C246.28 145.597 246.64 145.718 246.918 145.843C247.204 145.96 247.45 146.136 247.655 146.371C247.861 146.606 247.967 146.917 247.974 147.306C247.974 147.651 247.879 147.959 247.688 148.23C247.498 148.501 247.226 148.714 246.874 148.868C246.53 149.022 246.123 149.099 245.653 149.099ZM254.785 142.939L251.067 151.849H249.769L251.001 148.901L248.614 142.939H250.011L251.716 147.559L253.487 142.939H254.785ZM257.932 149.099C257.455 149.099 257.026 149.015 256.645 148.846C256.271 148.67 255.974 148.435 255.754 148.142C255.534 147.841 255.416 147.508 255.402 147.141H256.7C256.722 147.398 256.843 147.614 257.063 147.79C257.29 147.959 257.572 148.043 257.91 148.043C258.262 148.043 258.533 147.977 258.724 147.845C258.922 147.706 259.021 147.53 259.021 147.317C259.021 147.09 258.911 146.921 258.691 146.811C258.478 146.701 258.137 146.58 257.668 146.448C257.213 146.323 256.843 146.202 256.557 146.085C256.271 145.968 256.021 145.788 255.809 145.546C255.603 145.304 255.501 144.985 255.501 144.589C255.501 144.266 255.596 143.973 255.787 143.709C255.977 143.438 256.249 143.225 256.601 143.071C256.96 142.917 257.371 142.84 257.833 142.84C258.522 142.84 259.076 143.016 259.494 143.368C259.919 143.713 260.146 144.186 260.176 144.787H258.922C258.9 144.516 258.79 144.299 258.592 144.138C258.394 143.977 258.126 143.896 257.789 143.896C257.459 143.896 257.206 143.958 257.03 144.083C256.854 144.208 256.766 144.373 256.766 144.578C256.766 144.739 256.824 144.875 256.942 144.985C257.059 145.095 257.202 145.183 257.371 145.249C257.539 145.308 257.789 145.385 258.119 145.48C258.559 145.597 258.918 145.718 259.197 145.843C259.483 145.96 259.728 146.136 259.934 146.371C260.139 146.606 260.245 146.917 260.253 147.306C260.253 147.651 260.157 147.959 259.967 148.23C259.776 148.501 259.505 148.714 259.153 148.868C258.808 149.022 258.401 149.099 257.932 149.099ZM263.071 143.962V147.317C263.071 147.544 263.122 147.709 263.225 147.812C263.335 147.907 263.518 147.955 263.775 147.955H264.545V149H263.555C262.99 149 262.557 148.868 262.257 148.604C261.956 148.34 261.806 147.911 261.806 147.317V143.962H261.091V142.939H261.806V141.432H263.071V142.939H264.545V143.962H263.071ZM271.255 145.821C271.255 146.048 271.241 146.254 271.211 146.437H266.58C266.617 146.921 266.797 147.31 267.119 147.603C267.442 147.896 267.838 148.043 268.307 148.043C268.982 148.043 269.459 147.761 269.737 147.196H271.09C270.907 147.753 270.573 148.212 270.089 148.571C269.613 148.923 269.019 149.099 268.307 149.099C267.728 149.099 267.207 148.971 266.745 148.714C266.291 148.45 265.931 148.083 265.667 147.614C265.411 147.137 265.282 146.587 265.282 145.964C265.282 145.341 265.407 144.794 265.656 144.325C265.913 143.848 266.269 143.482 266.723 143.225C267.185 142.968 267.713 142.84 268.307 142.84C268.879 142.84 269.389 142.965 269.836 143.214C270.284 143.463 270.632 143.815 270.881 144.27C271.131 144.717 271.255 145.234 271.255 145.821ZM269.946 145.425C269.939 144.963 269.774 144.593 269.451 144.314C269.129 144.035 268.729 143.896 268.252 143.896C267.82 143.896 267.449 144.035 267.141 144.314C266.833 144.585 266.65 144.956 266.591 145.425H269.946ZM279.827 142.84C280.303 142.84 280.729 142.939 281.103 143.137C281.484 143.335 281.781 143.628 281.994 144.017C282.214 144.406 282.324 144.875 282.324 145.425V149H281.081V145.612C281.081 145.069 280.945 144.655 280.674 144.369C280.402 144.076 280.032 143.929 279.563 143.929C279.093 143.929 278.719 144.076 278.441 144.369C278.169 144.655 278.034 145.069 278.034 145.612V149H276.791V145.612C276.791 145.069 276.655 144.655 276.384 144.369C276.112 144.076 275.742 143.929 275.273 143.929C274.803 143.929 274.429 144.076 274.151 144.369C273.879 144.655 273.744 145.069 273.744 145.612V149H272.49V142.939H273.744V143.632C273.949 143.383 274.209 143.188 274.525 143.049C274.84 142.91 275.177 142.84 275.537 142.84C276.021 142.84 276.453 142.943 276.835 143.148C277.216 143.353 277.509 143.65 277.715 144.039C277.898 143.672 278.184 143.383 278.573 143.17C278.961 142.95 279.379 142.84 279.827 142.84ZM287.415 142.136C287.187 142.136 286.997 142.059 286.843 141.905C286.689 141.751 286.612 141.56 286.612 141.333C286.612 141.106 286.689 140.915 286.843 140.761C286.997 140.607 287.187 140.53 287.415 140.53C287.635 140.53 287.822 140.607 287.976 140.761C288.13 140.915 288.207 141.106 288.207 141.333C288.207 141.56 288.13 141.751 287.976 141.905C287.822 142.059 287.635 142.136 287.415 142.136ZM288.031 142.939V149H286.777V142.939H288.031ZM291.877 149.099C291.4 149.099 290.971 149.015 290.59 148.846C290.216 148.67 289.919 148.435 289.699 148.142C289.479 147.841 289.362 147.508 289.347 147.141H290.645C290.667 147.398 290.788 147.614 291.008 147.79C291.235 147.959 291.518 148.043 291.855 148.043C292.207 148.043 292.478 147.977 292.669 147.845C292.867 147.706 292.966 147.53 292.966 147.317C292.966 147.09 292.856 146.921 292.636 146.811C292.423 146.701 292.082 146.58 291.613 146.448C291.158 146.323 290.788 146.202 290.502 146.085C290.216 145.968 289.967 145.788 289.754 145.546C289.549 145.304 289.446 144.985 289.446 144.589C289.446 144.266 289.541 143.973 289.732 143.709C289.923 143.438 290.194 143.225 290.546 143.071C290.905 142.917 291.316 142.84 291.778 142.84C292.467 142.84 293.021 143.016 293.439 143.368C293.864 143.713 294.092 144.186 294.121 144.787H292.867C292.845 144.516 292.735 144.299 292.537 144.138C292.339 143.977 292.071 143.896 291.734 143.896C291.404 143.896 291.151 143.958 290.975 144.083C290.799 144.208 290.711 144.373 290.711 144.578C290.711 144.739 290.77 144.875 290.887 144.985C291.004 145.095 291.147 145.183 291.316 145.249C291.485 145.308 291.734 145.385 292.064 145.48C292.504 145.597 292.863 145.718 293.142 145.843C293.428 145.96 293.674 146.136 293.879 146.371C294.084 146.606 294.191 146.917 294.198 147.306C294.198 147.651 294.103 147.959 293.912 148.23C293.721 148.501 293.45 148.714 293.098 148.868C292.753 149.022 292.346 149.099 291.877 149.099ZM297.753 149.099C297.276 149.099 296.847 149.015 296.466 148.846C296.092 148.67 295.795 148.435 295.575 148.142C295.355 147.841 295.238 147.508 295.223 147.141H296.521C296.543 147.398 296.664 147.614 296.884 147.79C297.111 147.959 297.394 148.043 297.731 148.043C298.083 148.043 298.354 147.977 298.545 147.845C298.743 147.706 298.842 147.53 298.842 147.317C298.842 147.09 298.732 146.921 298.512 146.811C298.299 146.701 297.958 146.58 297.489 146.448C297.034 146.323 296.664 146.202 296.378 146.085C296.092 145.968 295.843 145.788 295.63 145.546C295.425 145.304 295.322 144.985 295.322 144.589C295.322 144.266 295.417 143.973 295.608 143.709C295.799 143.438 296.07 143.225 296.422 143.071C296.781 142.917 297.192 142.84 297.654 142.84C298.343 142.84 298.897 143.016 299.315 143.368C299.74 143.713 299.968 144.186 299.997 144.787H298.743C298.721 144.516 298.611 144.299 298.413 144.138C298.215 143.977 297.947 143.896 297.61 143.896C297.28 143.896 297.027 143.958 296.851 144.083C296.675 144.208 296.587 144.373 296.587 144.578C296.587 144.739 296.646 144.875 296.763 144.985C296.88 145.095 297.023 145.183 297.192 145.249C297.361 145.308 297.61 145.385 297.94 145.48C298.38 145.597 298.739 145.718 299.018 145.843C299.304 145.96 299.55 146.136 299.755 146.371C299.96 146.606 300.067 146.917 300.074 147.306C300.074 147.651 299.979 147.959 299.788 148.23C299.597 148.501 299.326 148.714 298.974 148.868C298.629 149.022 298.222 149.099 297.753 149.099ZM306.918 142.939V149H305.664V148.285C305.466 148.534 305.206 148.732 304.883 148.879C304.568 149.018 304.23 149.088 303.871 149.088C303.394 149.088 302.965 148.989 302.584 148.791C302.21 148.593 301.913 148.3 301.693 147.911C301.48 147.522 301.374 147.053 301.374 146.503V142.939H302.617V146.316C302.617 146.859 302.753 147.277 303.024 147.57C303.295 147.856 303.666 147.999 304.135 147.999C304.604 147.999 304.975 147.856 305.246 147.57C305.525 147.277 305.664 146.859 305.664 146.316V142.939H306.918ZM314.128 145.821C314.128 146.048 314.113 146.254 314.084 146.437H309.453C309.489 146.921 309.669 147.31 309.992 147.603C310.314 147.896 310.71 148.043 311.18 148.043C311.854 148.043 312.331 147.761 312.61 147.196H313.963C313.779 147.753 313.446 148.212 312.962 148.571C312.485 148.923 311.891 149.099 311.18 149.099C310.6 149.099 310.08 148.971 309.618 148.714C309.163 148.45 308.804 148.083 308.54 147.614C308.283 147.137 308.155 146.587 308.155 145.964C308.155 145.341 308.279 144.794 308.529 144.325C308.785 143.848 309.141 143.482 309.596 143.225C310.058 142.968 310.586 142.84 311.18 142.84C311.752 142.84 312.261 142.965 312.709 143.214C313.156 143.463 313.504 143.815 313.754 144.27C314.003 144.717 314.128 145.234 314.128 145.821ZM312.819 145.425C312.811 144.963 312.646 144.593 312.324 144.314C312.001 144.035 311.601 143.896 311.125 143.896C310.692 143.896 310.322 144.035 310.014 144.314C309.706 144.585 309.522 144.956 309.464 145.425H312.819ZM317.562 149.099C317.085 149.099 316.656 149.015 316.275 148.846C315.901 148.67 315.604 148.435 315.384 148.142C315.164 147.841 315.046 147.508 315.032 147.141H316.33C316.352 147.398 316.473 147.614 316.693 147.79C316.92 147.959 317.202 148.043 317.54 148.043C317.892 148.043 318.163 147.977 318.354 147.845C318.552 147.706 318.651 147.53 318.651 147.317C318.651 147.09 318.541 146.921 318.321 146.811C318.108 146.701 317.767 146.58 317.298 146.448C316.843 146.323 316.473 146.202 316.187 146.085C315.901 145.968 315.651 145.788 315.439 145.546C315.233 145.304 315.131 144.985 315.131 144.589C315.131 144.266 315.226 143.973 315.417 143.709C315.607 143.438 315.879 143.225 316.231 143.071C316.59 142.917 317.001 142.84 317.463 142.84C318.152 142.84 318.706 143.016 319.124 143.368C319.549 143.713 319.776 144.186 319.806 144.787H318.552C318.53 144.516 318.42 144.299 318.222 144.138C318.024 143.977 317.756 143.896 317.419 143.896C317.089 143.896 316.836 143.958 316.66 144.083C316.484 144.208 316.396 144.373 316.396 144.578C316.396 144.739 316.454 144.875 316.572 144.985C316.689 145.095 316.832 145.183 317.001 145.249C317.169 145.308 317.419 145.385 317.749 145.48C318.189 145.597 318.548 145.718 318.827 145.843C319.113 145.96 319.358 146.136 319.564 146.371C319.769 146.606 319.875 146.917 319.883 147.306C319.883 147.651 319.787 147.959 319.597 148.23C319.406 148.501 319.135 148.714 318.783 148.868C318.438 149.022 318.031 149.099 317.562 149.099ZM327.23 142.84C327.692 142.84 328.103 142.939 328.462 143.137C328.829 143.335 329.115 143.628 329.32 144.017C329.533 144.406 329.639 144.875 329.639 145.425V149H328.396V145.612C328.396 145.069 328.26 144.655 327.989 144.369C327.718 144.076 327.347 143.929 326.878 143.929C326.409 143.929 326.035 144.076 325.756 144.369C325.485 144.655 325.349 145.069 325.349 145.612V149H324.095V140.86H325.349V143.643C325.562 143.386 325.829 143.188 326.152 143.049C326.482 142.91 326.841 142.84 327.23 142.84ZM330.821 145.942C330.821 145.333 330.945 144.794 331.195 144.325C331.451 143.856 331.796 143.493 332.229 143.236C332.669 142.972 333.153 142.84 333.681 142.84C334.157 142.84 334.572 142.935 334.924 143.126C335.283 143.309 335.569 143.54 335.782 143.819V142.939H337.047V149H335.782V148.098C335.569 148.384 335.279 148.622 334.913 148.813C334.546 149.004 334.128 149.099 333.659 149.099C333.138 149.099 332.661 148.967 332.229 148.703C331.796 148.432 331.451 148.058 331.195 147.581C330.945 147.097 330.821 146.551 330.821 145.942ZM335.782 145.964C335.782 145.546 335.694 145.183 335.518 144.875C335.349 144.567 335.125 144.332 334.847 144.171C334.568 144.01 334.267 143.929 333.945 143.929C333.622 143.929 333.321 144.01 333.043 144.171C332.764 144.325 332.537 144.556 332.361 144.864C332.192 145.165 332.108 145.524 332.108 145.942C332.108 146.36 332.192 146.727 332.361 147.042C332.537 147.357 332.764 147.599 333.043 147.768C333.329 147.929 333.629 148.01 333.945 148.01C334.267 148.01 334.568 147.929 334.847 147.768C335.125 147.607 335.349 147.372 335.518 147.064C335.694 146.749 335.782 146.382 335.782 145.964ZM341.037 147.878L342.753 142.939H344.084L341.774 149H340.278L337.979 142.939H339.321L341.037 147.878ZM350.587 145.821C350.587 146.048 350.572 146.254 350.543 146.437H345.912C345.948 146.921 346.128 147.31 346.451 147.603C346.773 147.896 347.169 148.043 347.639 148.043C348.313 148.043 348.79 147.761 349.069 147.196H350.422C350.238 147.753 349.905 148.212 349.421 148.571C348.944 148.923 348.35 149.099 347.639 149.099C347.059 149.099 346.539 148.971 346.077 148.714C345.622 148.45 345.263 148.083 344.999 147.614C344.742 147.137 344.614 146.587 344.614 145.964C344.614 145.341 344.738 144.794 344.988 144.325C345.244 143.848 345.6 143.482 346.055 143.225C346.517 142.968 347.045 142.84 347.639 142.84C348.211 142.84 348.72 142.965 349.168 143.214C349.615 143.463 349.963 143.815 350.213 144.27C350.462 144.717 350.587 145.234 350.587 145.821ZM349.278 145.425C349.27 144.963 349.105 144.593 348.783 144.314C348.46 144.035 348.06 143.896 347.584 143.896C347.151 143.896 346.781 144.035 346.473 144.314C346.165 144.585 345.981 144.956 345.923 145.425H349.278ZM355.932 143.841C356.145 143.548 356.434 143.309 356.801 143.126C357.175 142.935 357.589 142.84 358.044 142.84C358.579 142.84 359.063 142.968 359.496 143.225C359.929 143.482 360.27 143.848 360.519 144.325C360.768 144.794 360.893 145.333 360.893 145.942C360.893 146.551 360.768 147.097 360.519 147.581C360.27 148.058 359.925 148.432 359.485 148.703C359.052 148.967 358.572 149.099 358.044 149.099C357.575 149.099 357.157 149.007 356.79 148.824C356.431 148.641 356.145 148.406 355.932 148.12V149H354.678V140.86H355.932V143.841ZM359.617 145.942C359.617 145.524 359.529 145.165 359.353 144.864C359.184 144.556 358.957 144.325 358.671 144.171C358.392 144.01 358.092 143.929 357.769 143.929C357.454 143.929 357.153 144.01 356.867 144.171C356.588 144.332 356.361 144.567 356.185 144.875C356.016 145.183 355.932 145.546 355.932 145.964C355.932 146.382 356.016 146.749 356.185 147.064C356.361 147.372 356.588 147.607 356.867 147.768C357.153 147.929 357.454 148.01 357.769 148.01C358.092 148.01 358.392 147.929 358.671 147.768C358.957 147.599 359.184 147.357 359.353 147.042C359.529 146.727 359.617 146.36 359.617 145.942ZM367.688 145.821C367.688 146.048 367.673 146.254 367.644 146.437H363.013C363.05 146.921 363.229 147.31 363.552 147.603C363.875 147.896 364.271 148.043 364.74 148.043C365.415 148.043 365.891 147.761 366.17 147.196H367.523C367.34 147.753 367.006 148.212 366.522 148.571C366.045 148.923 365.451 149.099 364.74 149.099C364.161 149.099 363.64 148.971 363.178 148.714C362.723 148.45 362.364 148.083 362.1 147.614C361.843 147.137 361.715 146.587 361.715 145.964C361.715 145.341 361.84 144.794 362.089 144.325C362.346 143.848 362.701 143.482 363.156 143.225C363.618 142.968 364.146 142.84 364.74 142.84C365.312 142.84 365.822 142.965 366.269 143.214C366.716 143.463 367.065 143.815 367.314 144.27C367.563 144.717 367.688 145.234 367.688 145.821ZM366.379 145.425C366.372 144.963 366.207 144.593 365.884 144.314C365.561 144.035 365.162 143.896 364.685 143.896C364.252 143.896 363.882 144.035 363.574 144.314C363.266 144.585 363.083 144.956 363.024 145.425H366.379ZM374.477 145.821C374.477 146.048 374.463 146.254 374.433 146.437H369.802C369.839 146.921 370.019 147.31 370.341 147.603C370.664 147.896 371.06 148.043 371.529 148.043C372.204 148.043 372.681 147.761 372.959 147.196H374.312C374.129 147.753 373.795 148.212 373.311 148.571C372.835 148.923 372.241 149.099 371.529 149.099C370.95 149.099 370.429 148.971 369.967 148.714C369.513 148.45 369.153 148.083 368.889 147.614C368.633 147.137 368.504 146.587 368.504 145.964C368.504 145.341 368.629 144.794 368.878 144.325C369.135 143.848 369.491 143.482 369.945 143.225C370.407 142.968 370.935 142.84 371.529 142.84C372.101 142.84 372.611 142.965 373.058 143.214C373.506 143.463 373.854 143.815 374.103 144.27C374.353 144.717 374.477 145.234 374.477 145.821ZM373.168 145.425C373.161 144.963 372.996 144.593 372.673 144.314C372.351 144.035 371.951 143.896 371.474 143.896C371.042 143.896 370.671 144.035 370.363 144.314C370.055 144.585 369.872 144.956 369.813 145.425H373.168ZM378.769 142.84C379.246 142.84 379.671 142.939 380.045 143.137C380.427 143.335 380.724 143.628 380.936 144.017C381.149 144.406 381.255 144.875 381.255 145.425V149H380.012V145.612C380.012 145.069 379.877 144.655 379.605 144.369C379.334 144.076 378.964 143.929 378.494 143.929C378.025 143.929 377.651 144.076 377.372 144.369C377.101 144.655 376.965 145.069 376.965 145.612V149H375.711V142.939H376.965V143.632C377.171 143.383 377.431 143.188 377.746 143.049C378.069 142.91 378.41 142.84 378.769 142.84ZM385.294 145.942C385.294 145.333 385.419 144.794 385.668 144.325C385.925 143.856 386.27 143.493 386.702 143.236C387.142 142.972 387.63 142.84 388.165 142.84C388.561 142.84 388.95 142.928 389.331 143.104C389.72 143.273 390.028 143.5 390.255 143.786V140.86H391.52V149H390.255V148.087C390.05 148.38 389.764 148.622 389.397 148.813C389.038 149.004 388.624 149.099 388.154 149.099C387.626 149.099 387.142 148.967 386.702 148.703C386.27 148.432 385.925 148.058 385.668 147.581C385.419 147.097 385.294 146.551 385.294 145.942ZM390.255 145.964C390.255 145.546 390.167 145.183 389.991 144.875C389.823 144.567 389.599 144.332 389.32 144.171C389.042 144.01 388.741 143.929 388.418 143.929C388.096 143.929 387.795 144.01 387.516 144.171C387.238 144.325 387.01 144.556 386.834 144.864C386.666 145.165 386.581 145.524 386.581 145.942C386.581 146.36 386.666 146.727 386.834 147.042C387.01 147.357 387.238 147.599 387.516 147.768C387.802 147.929 388.103 148.01 388.418 148.01C388.741 148.01 389.042 147.929 389.32 147.768C389.599 147.607 389.823 147.372 389.991 147.064C390.167 146.749 390.255 146.382 390.255 145.964ZM398.722 145.821C398.722 146.048 398.708 146.254 398.678 146.437H394.047C394.084 146.921 394.264 147.31 394.586 147.603C394.909 147.896 395.305 148.043 395.774 148.043C396.449 148.043 396.926 147.761 397.204 147.196H398.557C398.374 147.753 398.04 148.212 397.556 148.571C397.08 148.923 396.486 149.099 395.774 149.099C395.195 149.099 394.674 148.971 394.212 148.714C393.758 148.45 393.398 148.083 393.134 147.614C392.878 147.137 392.749 146.587 392.749 145.964C392.749 145.341 392.874 144.794 393.123 144.325C393.38 143.848 393.736 143.482 394.19 143.225C394.652 142.968 395.18 142.84 395.774 142.84C396.346 142.84 396.856 142.965 397.303 143.214C397.751 143.463 398.099 143.815 398.348 144.27C398.598 144.717 398.722 145.234 398.722 145.821ZM397.413 145.425C397.406 144.963 397.241 144.593 396.918 144.314C396.596 144.035 396.196 143.896 395.719 143.896C395.287 143.896 394.916 144.035 394.608 144.314C394.3 144.585 394.117 144.956 394.058 145.425H397.413ZM401.419 143.962V147.317C401.419 147.544 401.471 147.709 401.573 147.812C401.683 147.907 401.867 147.955 402.123 147.955H402.893V149H401.903C401.339 149 400.906 148.868 400.605 148.604C400.305 148.34 400.154 147.911 400.154 147.317V143.962H399.439V142.939H400.154V141.432H401.419V142.939H402.893V143.962H401.419ZM409.604 145.821C409.604 146.048 409.589 146.254 409.56 146.437H404.929C404.966 146.921 405.145 147.31 405.468 147.603C405.791 147.896 406.187 148.043 406.656 148.043C407.331 148.043 407.807 147.761 408.086 147.196H409.439C409.256 147.753 408.922 148.212 408.438 148.571C407.961 148.923 407.367 149.099 406.656 149.099C406.077 149.099 405.556 148.971 405.094 148.714C404.639 148.45 404.28 148.083 404.016 147.614C403.759 147.137 403.631 146.587 403.631 145.964C403.631 145.341 403.756 144.794 404.005 144.325C404.262 143.848 404.617 143.482 405.072 143.225C405.534 142.968 406.062 142.84 406.656 142.84C407.228 142.84 407.738 142.965 408.185 143.214C408.632 143.463 408.981 143.815 409.23 144.27C409.479 144.717 409.604 145.234 409.604 145.821ZM408.295 145.425C408.288 144.963 408.123 144.593 407.8 144.314C407.477 144.035 407.078 143.896 406.601 143.896C406.168 143.896 405.798 144.035 405.49 144.314C405.182 144.585 404.999 144.956 404.94 145.425H408.295ZM410.42 145.964C410.42 145.341 410.545 144.794 410.794 144.325C411.051 143.848 411.403 143.482 411.85 143.225C412.298 142.968 412.811 142.84 413.39 142.84C414.124 142.84 414.729 143.016 415.205 143.368C415.689 143.713 416.016 144.208 416.184 144.853H414.831C414.721 144.552 414.545 144.318 414.303 144.149C414.061 143.98 413.757 143.896 413.39 143.896C412.877 143.896 412.466 144.079 412.158 144.446C411.858 144.805 411.707 145.311 411.707 145.964C411.707 146.617 411.858 147.126 412.158 147.493C412.466 147.86 412.877 148.043 413.39 148.043C414.116 148.043 414.597 147.724 414.831 147.086H416.184C416.008 147.702 415.678 148.193 415.194 148.56C414.71 148.919 414.109 149.099 413.39 149.099C412.811 149.099 412.298 148.971 411.85 148.714C411.403 148.45 411.051 148.083 410.794 147.614C410.545 147.137 410.42 146.587 410.42 145.964ZM418.897 143.962V147.317C418.897 147.544 418.948 147.709 419.051 147.812C419.161 147.907 419.344 147.955 419.601 147.955H420.371V149H419.381C418.816 149 418.384 148.868 418.083 148.604C417.782 148.34 417.632 147.911 417.632 147.317V143.962H416.917V142.939H417.632V141.432H418.897V142.939H420.371V143.962H418.897ZM427.082 145.821C427.082 146.048 427.067 146.254 427.038 146.437H422.407C422.443 146.921 422.623 147.31 422.946 147.603C423.268 147.896 423.664 148.043 424.134 148.043C424.808 148.043 425.285 147.761 425.564 147.196H426.917C426.733 147.753 426.4 148.212 425.916 148.571C425.439 148.923 424.845 149.099 424.134 149.099C423.554 149.099 423.034 148.971 422.572 148.714C422.117 148.45 421.758 148.083 421.494 147.614C421.237 147.137 421.109 146.587 421.109 145.964C421.109 145.341 421.233 144.794 421.483 144.325C421.739 143.848 422.095 143.482 422.55 143.225C423.012 142.968 423.54 142.84 424.134 142.84C424.706 142.84 425.215 142.965 425.663 143.214C426.11 143.463 426.458 143.815 426.708 144.27C426.957 144.717 427.082 145.234 427.082 145.821ZM425.773 145.425C425.765 144.963 425.6 144.593 425.278 144.314C424.955 144.035 424.555 143.896 424.079 143.896C423.646 143.896 423.276 144.035 422.968 144.314C422.66 144.585 422.476 144.956 422.418 145.425H425.773ZM427.898 145.942C427.898 145.333 428.022 144.794 428.272 144.325C428.528 143.856 428.873 143.493 429.306 143.236C429.746 142.972 430.233 142.84 430.769 142.84C431.165 142.84 431.553 142.928 431.935 143.104C432.323 143.273 432.631 143.5 432.859 143.786V140.86H434.124V149H432.859V148.087C432.653 148.38 432.367 148.622 432.001 148.813C431.641 149.004 431.227 149.099 430.758 149.099C430.23 149.099 429.746 148.967 429.306 148.703C428.873 148.432 428.528 148.058 428.272 147.581C428.022 147.097 427.898 146.551 427.898 145.942ZM432.859 145.964C432.859 145.546 432.771 145.183 432.595 144.875C432.426 144.567 432.202 144.332 431.924 144.171C431.645 144.01 431.344 143.929 431.022 143.929C430.699 143.929 430.398 144.01 430.12 144.171C429.841 144.325 429.614 144.556 429.438 144.864C429.269 145.165 429.185 145.524 429.185 145.942C429.185 146.36 429.269 146.727 429.438 147.042C429.614 147.357 429.841 147.599 430.12 147.768C430.406 147.929 430.706 148.01 431.022 148.01C431.344 148.01 431.645 147.929 431.924 147.768C432.202 147.607 432.426 147.372 432.595 147.064C432.771 146.749 432.859 146.382 432.859 145.964ZM437.344 141.355L437.201 146.69H436.156L436.013 141.355H437.344ZM436.717 149.077C436.489 149.077 436.299 149 436.145 148.846C435.991 148.692 435.914 148.501 435.914 148.274C435.914 148.047 435.991 147.856 436.145 147.702C436.299 147.548 436.489 147.471 436.717 147.471C436.937 147.471 437.124 147.548 437.278 147.702C437.432 147.856 437.509 148.047 437.509 148.274C437.509 148.501 437.432 148.692 437.278 148.846C437.124 149 436.937 149.077 436.717 149.077Z"></path>
<path fill-opacity="0.05" fill="black" d="M190 175C190 172.239 192.239 170 195 170H465C467.761 170 470 172.239 470 175V220H190V175Z"></path>
<path fill-opacity="0.05" fill="black" d="M190 221H470V265C470 267.761 467.761 270 465 270H195C192.239 270 190 267.761 190 265V221Z"></path>
<path fill="black" d="M250.407 195.161C250.407 194.413 250.579 193.742 250.924 193.148C251.276 192.554 251.749 192.092 252.343 191.762C252.944 191.425 253.601 191.256 254.312 191.256C255.126 191.256 255.848 191.458 256.479 191.861C257.117 192.257 257.579 192.822 257.865 193.555H256.358C256.16 193.152 255.885 192.851 255.533 192.653C255.181 192.455 254.774 192.356 254.312 192.356C253.806 192.356 253.355 192.47 252.959 192.697C252.563 192.924 252.251 193.251 252.024 193.676C251.804 194.101 251.694 194.596 251.694 195.161C251.694 195.726 251.804 196.221 252.024 196.646C252.251 197.071 252.563 197.401 252.959 197.636C253.355 197.863 253.806 197.977 254.312 197.977C254.774 197.977 255.181 197.878 255.533 197.68C255.885 197.482 256.16 197.181 256.358 196.778H257.865C257.579 197.511 257.117 198.076 256.479 198.472C255.848 198.868 255.126 199.066 254.312 199.066C253.593 199.066 252.937 198.901 252.343 198.571C251.749 198.234 251.276 197.768 250.924 197.174C250.579 196.58 250.407 195.909 250.407 195.161ZM261.962 199.099C261.39 199.099 260.873 198.971 260.411 198.714C259.949 198.45 259.586 198.083 259.322 197.614C259.058 197.137 258.926 196.587 258.926 195.964C258.926 195.348 259.061 194.802 259.333 194.325C259.604 193.848 259.974 193.482 260.444 193.225C260.913 192.968 261.437 192.84 262.017 192.84C262.596 192.84 263.12 192.968 263.59 193.225C264.059 193.482 264.429 193.848 264.701 194.325C264.972 194.802 265.108 195.348 265.108 195.964C265.108 196.58 264.968 197.126 264.69 197.603C264.411 198.08 264.03 198.45 263.546 198.714C263.069 198.971 262.541 199.099 261.962 199.099ZM261.962 198.01C262.284 198.01 262.585 197.933 262.864 197.779C263.15 197.625 263.381 197.394 263.557 197.086C263.733 196.778 263.821 196.404 263.821 195.964C263.821 195.524 263.736 195.154 263.568 194.853C263.399 194.545 263.175 194.314 262.897 194.16C262.618 194.006 262.317 193.929 261.995 193.929C261.672 193.929 261.371 194.006 261.093 194.16C260.821 194.314 260.605 194.545 260.444 194.853C260.282 195.154 260.202 195.524 260.202 195.964C260.202 196.617 260.367 197.123 260.697 197.482C261.034 197.834 261.456 198.01 261.962 198.01ZM267.601 193.819C267.785 193.511 268.027 193.273 268.327 193.104C268.635 192.928 268.998 192.84 269.416 192.84V194.138H269.097C268.606 194.138 268.232 194.263 267.975 194.512C267.726 194.761 267.601 195.194 267.601 195.81V199H266.347V192.939H267.601V193.819ZM271.823 193.819C272.006 193.511 272.248 193.273 272.549 193.104C272.857 192.928 273.22 192.84 273.638 192.84V194.138H273.319C272.828 194.138 272.454 194.263 272.197 194.512C271.948 194.761 271.823 195.194 271.823 195.81V199H270.569V192.939H271.823V193.819ZM280.28 192.939V199H279.026V198.285C278.828 198.534 278.567 198.732 278.245 198.879C277.929 199.018 277.592 199.088 277.233 199.088C276.756 199.088 276.327 198.989 275.946 198.791C275.572 198.593 275.275 198.3 275.055 197.911C274.842 197.522 274.736 197.053 274.736 196.503V192.939H275.979V196.316C275.979 196.859 276.114 197.277 276.386 197.57C276.657 197.856 277.027 197.999 277.497 197.999C277.966 197.999 278.336 197.856 278.608 197.57C278.886 197.277 279.026 196.859 279.026 196.316V192.939H280.28ZM283.188 193.83C283.401 193.551 283.691 193.317 284.057 193.126C284.424 192.935 284.838 192.84 285.3 192.84C285.828 192.84 286.309 192.972 286.741 193.236C287.181 193.493 287.526 193.856 287.775 194.325C288.025 194.794 288.149 195.333 288.149 195.942C288.149 196.551 288.025 197.097 287.775 197.581C287.526 198.058 287.181 198.432 286.741 198.703C286.309 198.967 285.828 199.099 285.3 199.099C284.838 199.099 284.428 199.007 284.068 198.824C283.709 198.633 283.416 198.399 283.188 198.12V201.882H281.934V192.939H283.188V193.83ZM286.873 195.942C286.873 195.524 286.785 195.165 286.609 194.864C286.441 194.556 286.213 194.325 285.927 194.171C285.649 194.01 285.348 193.929 285.025 193.929C284.71 193.929 284.409 194.01 284.123 194.171C283.845 194.332 283.617 194.567 283.441 194.875C283.273 195.183 283.188 195.546 283.188 195.964C283.188 196.382 283.273 196.749 283.441 197.064C283.617 197.372 283.845 197.607 284.123 197.768C284.409 197.929 284.71 198.01 285.025 198.01C285.348 198.01 285.649 197.929 285.927 197.768C286.213 197.599 286.441 197.357 286.609 197.042C286.785 196.727 286.873 196.36 286.873 195.942ZM290.852 193.962V197.317C290.852 197.544 290.904 197.709 291.006 197.812C291.116 197.907 291.3 197.955 291.556 197.955H292.326V199H291.336C290.772 199 290.339 198.868 290.038 198.604C289.738 198.34 289.587 197.911 289.587 197.317V193.962H288.872V192.939H289.587V191.432H290.852V192.939H292.326V193.962H290.852ZM299.037 195.821C299.037 196.048 299.023 196.254 298.993 196.437H294.362C294.399 196.921 294.579 197.31 294.901 197.603C295.224 197.896 295.62 198.043 296.089 198.043C296.764 198.043 297.241 197.761 297.519 197.196H298.872C298.689 197.753 298.355 198.212 297.871 198.571C297.395 198.923 296.801 199.099 296.089 199.099C295.51 199.099 294.989 198.971 294.527 198.714C294.073 198.45 293.713 198.083 293.449 197.614C293.193 197.137 293.064 196.587 293.064 195.964C293.064 195.341 293.189 194.794 293.438 194.325C293.695 193.848 294.051 193.482 294.505 193.225C294.967 192.968 295.495 192.84 296.089 192.84C296.661 192.84 297.171 192.965 297.618 193.214C298.066 193.463 298.414 193.815 298.663 194.27C298.913 194.717 299.037 195.234 299.037 195.821ZM297.728 195.425C297.721 194.963 297.556 194.593 297.233 194.314C296.911 194.035 296.511 193.896 296.034 193.896C295.602 193.896 295.231 194.035 294.923 194.314C294.615 194.585 294.432 194.956 294.373 195.425H297.728ZM299.853 195.942C299.853 195.333 299.978 194.794 300.227 194.325C300.484 193.856 300.829 193.493 301.261 193.236C301.701 192.972 302.189 192.84 302.724 192.84C303.12 192.84 303.509 192.928 303.89 193.104C304.279 193.273 304.587 193.5 304.814 193.786V190.86H306.079V199H304.814V198.087C304.609 198.38 304.323 198.622 303.956 198.813C303.597 199.004 303.183 199.099 302.713 199.099C302.185 199.099 301.701 198.967 301.261 198.703C300.829 198.432 300.484 198.058 300.227 197.581C299.978 197.097 299.853 196.551 299.853 195.942ZM304.814 195.964C304.814 195.546 304.726 195.183 304.55 194.875C304.382 194.567 304.158 194.332 303.879 194.171C303.601 194.01 303.3 193.929 302.977 193.929C302.655 193.929 302.354 194.01 302.075 194.171C301.797 194.325 301.569 194.556 301.393 194.864C301.225 195.165 301.14 195.524 301.14 195.942C301.14 196.36 301.225 196.727 301.393 197.042C301.569 197.357 301.797 197.599 302.075 197.768C302.361 197.929 302.662 198.01 302.977 198.01C303.3 198.01 303.601 197.929 303.879 197.768C304.158 197.607 304.382 197.372 304.55 197.064C304.726 196.749 304.814 196.382 304.814 195.964ZM311.222 192.136C310.994 192.136 310.804 192.059 310.65 191.905C310.496 191.751 310.419 191.56 310.419 191.333C310.419 191.106 310.496 190.915 310.65 190.761C310.804 190.607 310.994 190.53 311.222 190.53C311.442 190.53 311.629 190.607 311.783 190.761C311.937 190.915 312.014 191.106 312.014 191.333C312.014 191.56 311.937 191.751 311.783 191.905C311.629 192.059 311.442 192.136 311.222 192.136ZM311.838 192.939V199H310.584V192.939H311.838ZM314.947 193.962V197.317C314.947 197.544 314.999 197.709 315.101 197.812C315.211 197.907 315.395 197.955 315.651 197.955H316.421V199H315.431C314.867 199 314.434 198.868 314.133 198.604C313.833 198.34 313.682 197.911 313.682 197.317V193.962H312.967V192.939H313.682V191.432H314.947V192.939H316.421V193.962H314.947ZM323.132 195.821C323.132 196.048 323.117 196.254 323.088 196.437H318.457C318.494 196.921 318.673 197.31 318.996 197.603C319.319 197.896 319.715 198.043 320.184 198.043C320.859 198.043 321.335 197.761 321.614 197.196H322.967C322.784 197.753 322.45 198.212 321.966 198.571C321.489 198.923 320.895 199.099 320.184 199.099C319.605 199.099 319.084 198.971 318.622 198.714C318.167 198.45 317.808 198.083 317.544 197.614C317.287 197.137 317.159 196.587 317.159 195.964C317.159 195.341 317.284 194.794 317.533 194.325C317.79 193.848 318.145 193.482 318.6 193.225C319.062 192.968 319.59 192.84 320.184 192.84C320.756 192.84 321.266 192.965 321.713 193.214C322.16 193.463 322.509 193.815 322.758 194.27C323.007 194.717 323.132 195.234 323.132 195.821ZM321.823 195.425C321.816 194.963 321.651 194.593 321.328 194.314C321.005 194.035 320.606 193.896 320.129 193.896C319.696 193.896 319.326 194.035 319.018 194.314C318.71 194.585 318.527 194.956 318.468 195.425H321.823ZM331.703 192.84C332.18 192.84 332.605 192.939 332.979 193.137C333.36 193.335 333.657 193.628 333.87 194.017C334.09 194.406 334.2 194.875 334.2 195.425V199H332.957V195.612C332.957 195.069 332.821 194.655 332.55 194.369C332.279 194.076 331.908 193.929 331.439 193.929C330.97 193.929 330.596 194.076 330.317 194.369C330.046 194.655 329.91 195.069 329.91 195.612V199H328.667V195.612C328.667 195.069 328.531 194.655 328.26 194.369C327.989 194.076 327.618 193.929 327.149 193.929C326.68 193.929 326.306 194.076 326.027 194.369C325.756 194.655 325.62 195.069 325.62 195.612V199H324.366V192.939H325.62V193.632C325.825 193.383 326.086 193.188 326.401 193.049C326.716 192.91 327.054 192.84 327.413 192.84C327.897 192.84 328.33 192.943 328.711 193.148C329.092 193.353 329.386 193.65 329.591 194.039C329.774 193.672 330.06 193.383 330.449 193.17C330.838 192.95 331.256 192.84 331.703 192.84ZM337.996 199.099C337.519 199.099 337.09 199.015 336.709 198.846C336.335 198.67 336.038 198.435 335.818 198.142C335.598 197.841 335.48 197.508 335.466 197.141H336.764C336.786 197.398 336.907 197.614 337.127 197.79C337.354 197.959 337.636 198.043 337.974 198.043C338.326 198.043 338.597 197.977 338.788 197.845C338.986 197.706 339.085 197.53 339.085 197.317C339.085 197.09 338.975 196.921 338.755 196.811C338.542 196.701 338.201 196.58 337.732 196.448C337.277 196.323 336.907 196.202 336.621 196.085C336.335 195.968 336.085 195.788 335.873 195.546C335.667 195.304 335.565 194.985 335.565 194.589C335.565 194.266 335.66 193.973 335.851 193.709C336.041 193.438 336.313 193.225 336.665 193.071C337.024 192.917 337.435 192.84 337.897 192.84C338.586 192.84 339.14 193.016 339.558 193.368C339.983 193.713 340.21 194.186 340.24 194.787H338.986C338.964 194.516 338.854 194.299 338.656 194.138C338.458 193.977 338.19 193.896 337.853 193.896C337.523 193.896 337.27 193.958 337.094 194.083C336.918 194.208 336.83 194.373 336.83 194.578C336.83 194.739 336.888 194.875 337.006 194.985C337.123 195.095 337.266 195.183 337.435 195.249C337.603 195.308 337.853 195.385 338.183 195.48C338.623 195.597 338.982 195.718 339.261 195.843C339.547 195.96 339.792 196.136 339.998 196.371C340.203 196.606 340.309 196.917 340.317 197.306C340.317 197.651 340.221 197.959 340.031 198.23C339.84 198.501 339.569 198.714 339.217 198.868C338.872 199.022 338.465 199.099 337.996 199.099Z"></path>
<path fill="black" d="M252.079 241.355V249H250.825V241.355H252.079ZM256.783 242.84C257.26 242.84 257.685 242.939 258.059 243.137C258.441 243.335 258.738 243.628 258.95 244.017C259.163 244.406 259.269 244.875 259.269 245.425V249H258.026V245.612C258.026 245.069 257.891 244.655 257.619 244.369C257.348 244.076 256.978 243.929 256.508 243.929C256.039 243.929 255.665 244.076 255.386 244.369C255.115 244.655 254.979 245.069 254.979 245.612V249H253.725V242.939H254.979V243.632C255.185 243.383 255.445 243.188 255.76 243.049C256.083 242.91 256.424 242.84 256.783 242.84ZM260.451 245.942C260.451 245.333 260.576 244.794 260.825 244.325C261.082 243.856 261.426 243.493 261.859 243.236C262.299 242.972 262.783 242.84 263.311 242.84C263.788 242.84 264.202 242.935 264.554 243.126C264.913 243.309 265.199 243.54 265.412 243.819V242.939H266.677V249H265.412V248.098C265.199 248.384 264.91 248.622 264.543 248.813C264.176 249.004 263.758 249.099 263.289 249.099C262.768 249.099 262.292 248.967 261.859 248.703C261.426 248.432 261.082 248.058 260.825 247.581C260.576 247.097 260.451 246.551 260.451 245.942ZM265.412 245.964C265.412 245.546 265.324 245.183 265.148 244.875C264.979 244.567 264.756 244.332 264.477 244.171C264.198 244.01 263.898 243.929 263.575 243.929C263.252 243.929 262.952 244.01 262.673 244.171C262.394 244.325 262.167 244.556 261.991 244.864C261.822 245.165 261.738 245.524 261.738 245.942C261.738 246.36 261.822 246.727 261.991 247.042C262.167 247.357 262.394 247.599 262.673 247.768C262.959 247.929 263.26 248.01 263.575 248.01C263.898 248.01 264.198 247.929 264.477 247.768C264.756 247.607 264.979 247.372 265.148 247.064C265.324 246.749 265.412 246.382 265.412 245.964ZM267.906 245.964C267.906 245.341 268.031 244.794 268.28 244.325C268.537 243.848 268.889 243.482 269.336 243.225C269.783 242.968 270.297 242.84 270.876 242.84C271.609 242.84 272.214 243.016 272.691 243.368C273.175 243.713 273.501 244.208 273.67 244.853H272.317C272.207 244.552 272.031 244.318 271.789 244.149C271.547 243.98 271.243 243.896 270.876 243.896C270.363 243.896 269.952 244.079 269.644 244.446C269.343 244.805 269.193 245.311 269.193 245.964C269.193 246.617 269.343 247.126 269.644 247.493C269.952 247.86 270.363 248.043 270.876 248.043C271.602 248.043 272.082 247.724 272.317 247.086H273.67C273.494 247.702 273.164 248.193 272.68 248.56C272.196 248.919 271.595 249.099 270.876 249.099C270.297 249.099 269.783 248.971 269.336 248.714C268.889 248.45 268.537 248.083 268.28 247.614C268.031 247.137 267.906 246.587 267.906 245.964ZM274.502 245.964C274.502 245.341 274.626 244.794 274.876 244.325C275.132 243.848 275.484 243.482 275.932 243.225C276.379 242.968 276.892 242.84 277.472 242.84C278.205 242.84 278.81 243.016 279.287 243.368C279.771 243.713 280.097 244.208 280.266 244.853H278.913C278.803 244.552 278.627 244.318 278.385 244.149C278.143 243.98 277.838 243.896 277.472 243.896C276.958 243.896 276.548 244.079 276.24 244.446C275.939 244.805 275.789 245.311 275.789 245.964C275.789 246.617 275.939 247.126 276.24 247.493C276.548 247.86 276.958 248.043 277.472 248.043C278.198 248.043 278.678 247.724 278.913 247.086H280.266C280.09 247.702 279.76 248.193 279.276 248.56C278.792 248.919 278.19 249.099 277.472 249.099C276.892 249.099 276.379 248.971 275.932 248.714C275.484 248.45 275.132 248.083 274.876 247.614C274.626 247.137 274.502 246.587 274.502 245.964ZM287.07 245.821C287.07 246.048 287.056 246.254 287.026 246.437H282.395C282.432 246.921 282.612 247.31 282.934 247.603C283.257 247.896 283.653 248.043 284.122 248.043C284.797 248.043 285.274 247.761 285.552 247.196H286.905C286.722 247.753 286.388 248.212 285.904 248.571C285.428 248.923 284.834 249.099 284.122 249.099C283.543 249.099 283.022 248.971 282.56 248.714C282.106 248.45 281.746 248.083 281.482 247.614C281.226 247.137 281.097 246.587 281.097 245.964C281.097 245.341 281.222 244.794 281.471 244.325C281.728 243.848 282.084 243.482 282.538 243.225C283 242.968 283.528 242.84 284.122 242.84C284.694 242.84 285.204 242.965 285.651 243.214C286.099 243.463 286.447 243.815 286.696 244.27C286.946 244.717 287.07 245.234 287.07 245.821ZM285.761 245.425C285.754 244.963 285.589 244.593 285.266 244.314C284.944 244.035 284.544 243.896 284.067 243.896C283.635 243.896 283.264 244.035 282.956 244.314C282.648 244.585 282.465 244.956 282.406 245.425H285.761ZM290.504 249.099C290.028 249.099 289.599 249.015 289.217 248.846C288.843 248.67 288.546 248.435 288.326 248.142C288.106 247.841 287.989 247.508 287.974 247.141H289.272C289.294 247.398 289.415 247.614 289.635 247.79C289.863 247.959 290.145 248.043 290.482 248.043C290.834 248.043 291.106 247.977 291.296 247.845C291.494 247.706 291.593 247.53 291.593 247.317C291.593 247.09 291.483 246.921 291.263 246.811C291.051 246.701 290.71 246.58 290.24 246.448C289.786 246.323 289.415 246.202 289.129 246.085C288.843 245.968 288.594 245.788 288.381 245.546C288.176 245.304 288.073 244.985 288.073 244.589C288.073 244.266 288.169 243.973 288.359 243.709C288.55 243.438 288.821 243.225 289.173 243.071C289.533 242.917 289.943 242.84 290.405 242.84C291.095 242.84 291.648 243.016 292.066 243.368C292.492 243.713 292.719 244.186 292.748 244.787H291.494C291.472 244.516 291.362 244.299 291.164 244.138C290.966 243.977 290.699 243.896 290.361 243.896C290.031 243.896 289.778 243.958 289.602 244.083C289.426 244.208 289.338 244.373 289.338 244.578C289.338 244.739 289.397 244.875 289.514 244.985C289.632 245.095 289.775 245.183 289.943 245.249C290.112 245.308 290.361 245.385 290.691 245.48C291.131 245.597 291.491 245.718 291.769 245.843C292.055 245.96 292.301 246.136 292.506 246.371C292.712 246.606 292.818 246.917 292.825 247.306C292.825 247.651 292.73 247.959 292.539 248.23C292.349 248.501 292.077 248.714 291.725 248.868C291.381 249.022 290.974 249.099 290.504 249.099ZM296.38 249.099C295.904 249.099 295.475 249.015 295.093 248.846C294.719 248.67 294.422 248.435 294.202 248.142C293.982 247.841 293.865 247.508 293.85 247.141H295.148C295.17 247.398 295.291 247.614 295.511 247.79C295.739 247.959 296.021 248.043 296.358 248.043C296.71 248.043 296.982 247.977 297.172 247.845C297.37 247.706 297.469 247.53 297.469 247.317C297.469 247.09 297.359 246.921 297.139 246.811C296.927 246.701 296.586 246.58 296.116 246.448C295.662 246.323 295.291 246.202 295.005 246.085C294.719 245.968 294.47 245.788 294.257 245.546C294.052 245.304 293.949 244.985 293.949 244.589C293.949 244.266 294.045 243.973 294.235 243.709C294.426 243.438 294.697 243.225 295.049 243.071C295.409 242.917 295.819 242.84 296.281 242.84C296.971 242.84 297.524 243.016 297.942 243.368C298.368 243.713 298.595 244.186 298.624 244.787H297.37C297.348 244.516 297.238 244.299 297.04 244.138C296.842 243.977 296.575 243.896 296.237 243.896C295.907 243.896 295.654 243.958 295.478 244.083C295.302 244.208 295.214 244.373 295.214 244.578C295.214 244.739 295.273 244.875 295.39 244.985C295.508 245.095 295.651 245.183 295.819 245.249C295.988 245.308 296.237 245.385 296.567 245.48C297.007 245.597 297.367 245.718 297.645 245.843C297.931 245.96 298.177 246.136 298.382 246.371C298.588 246.606 298.694 246.917 298.701 247.306C298.701 247.651 298.606 247.959 298.415 248.23C298.225 248.501 297.953 248.714 297.601 248.868C297.257 249.022 296.85 249.099 296.38 249.099ZM300.694 242.136C300.467 242.136 300.276 242.059 300.122 241.905C299.968 241.751 299.891 241.56 299.891 241.333C299.891 241.106 299.968 240.915 300.122 240.761C300.276 240.607 300.467 240.53 300.694 240.53C300.914 240.53 301.101 240.607 301.255 240.761C301.409 240.915 301.486 241.106 301.486 241.333C301.486 241.56 301.409 241.751 301.255 241.905C301.101 242.059 300.914 242.136 300.694 242.136ZM301.31 242.939V249H300.056V242.939H301.31ZM304.211 243.841C304.424 243.548 304.713 243.309 305.08 243.126C305.454 242.935 305.868 242.84 306.323 242.84C306.858 242.84 307.342 242.968 307.775 243.225C308.208 243.482 308.549 243.848 308.798 244.325C309.047 244.794 309.172 245.333 309.172 245.942C309.172 246.551 309.047 247.097 308.798 247.581C308.549 248.058 308.204 248.432 307.764 248.703C307.331 248.967 306.851 249.099 306.323 249.099C305.854 249.099 305.436 249.007 305.069 248.824C304.71 248.641 304.424 248.406 304.211 248.12V249H302.957V240.86H304.211V243.841ZM307.896 245.942C307.896 245.524 307.808 245.165 307.632 244.864C307.463 244.556 307.236 244.325 306.95 244.171C306.671 244.01 306.371 243.929 306.048 243.929C305.733 243.929 305.432 244.01 305.146 244.171C304.867 244.332 304.64 244.567 304.464 244.875C304.295 245.183 304.211 245.546 304.211 245.964C304.211 246.382 304.295 246.749 304.464 247.064C304.64 247.372 304.867 247.607 305.146 247.768C305.432 247.929 305.733 248.01 306.048 248.01C306.371 248.01 306.671 247.929 306.95 247.768C307.236 247.599 307.463 247.357 307.632 247.042C307.808 246.727 307.896 246.36 307.896 245.942ZM311.666 240.86V249H310.412V240.86H311.666ZM318.867 245.821C318.867 246.048 318.853 246.254 318.823 246.437H314.192C314.229 246.921 314.409 247.31 314.731 247.603C315.054 247.896 315.45 248.043 315.919 248.043C316.594 248.043 317.071 247.761 317.349 247.196H318.702C318.519 247.753 318.185 248.212 317.701 248.571C317.225 248.923 316.631 249.099 315.919 249.099C315.34 249.099 314.819 248.971 314.357 248.714C313.903 248.45 313.543 248.083 313.279 247.614C313.023 247.137 312.894 246.587 312.894 245.964C312.894 245.341 313.019 244.794 313.268 244.325C313.525 243.848 313.881 243.482 314.335 243.225C314.797 242.968 315.325 242.84 315.919 242.84C316.491 242.84 317.001 242.965 317.448 243.214C317.896 243.463 318.244 243.815 318.493 244.27C318.743 244.717 318.867 245.234 318.867 245.821ZM317.558 245.425C317.551 244.963 317.386 244.593 317.063 244.314C316.741 244.035 316.341 243.896 315.864 243.896C315.432 243.896 315.061 244.035 314.753 244.314C314.445 244.585 314.262 244.956 314.203 245.425H317.558ZM323.597 242.136C323.369 242.136 323.179 242.059 323.025 241.905C322.871 241.751 322.794 241.56 322.794 241.333C322.794 241.106 322.871 240.915 323.025 240.761C323.179 240.607 323.369 240.53 323.597 240.53C323.817 240.53 324.004 240.607 324.158 240.761C324.312 240.915 324.389 241.106 324.389 241.333C324.389 241.56 324.312 241.751 324.158 241.905C324.004 242.059 323.817 242.136 323.597 242.136ZM324.213 242.939V249H322.959V242.939H324.213ZM327.322 243.962V247.317C327.322 247.544 327.374 247.709 327.476 247.812C327.586 247.907 327.77 247.955 328.026 247.955H328.796V249H327.806C327.242 249 326.809 248.868 326.508 248.604C326.208 248.34 326.057 247.911 326.057 247.317V243.962H325.342V242.939H326.057V241.432H327.322V242.939H328.796V243.962H327.322ZM335.507 245.821C335.507 246.048 335.492 246.254 335.463 246.437H330.832C330.869 246.921 331.048 247.31 331.371 247.603C331.694 247.896 332.09 248.043 332.559 248.043C333.234 248.043 333.71 247.761 333.989 247.196H335.342C335.159 247.753 334.825 248.212 334.341 248.571C333.864 248.923 333.27 249.099 332.559 249.099C331.98 249.099 331.459 248.971 330.997 248.714C330.542 248.45 330.183 248.083 329.919 247.614C329.662 247.137 329.534 246.587 329.534 245.964C329.534 245.341 329.659 244.794 329.908 244.325C330.165 243.848 330.52 243.482 330.975 243.225C331.437 242.968 331.965 242.84 332.559 242.84C333.131 242.84 333.641 242.965 334.088 243.214C334.535 243.463 334.884 243.815 335.133 244.27C335.382 244.717 335.507 245.234 335.507 245.821ZM334.198 245.425C334.191 244.963 334.026 244.593 333.703 244.314C333.38 244.035 332.981 243.896 332.504 243.896C332.071 243.896 331.701 244.035 331.393 244.314C331.085 244.585 330.902 244.956 330.843 245.425H334.198ZM344.078 242.84C344.555 242.84 344.98 242.939 345.354 243.137C345.735 243.335 346.032 243.628 346.245 244.017C346.465 244.406 346.575 244.875 346.575 245.425V249H345.332V245.612C345.332 245.069 345.196 244.655 344.925 244.369C344.654 244.076 344.283 243.929 343.814 243.929C343.345 243.929 342.971 244.076 342.692 244.369C342.421 244.655 342.285 245.069 342.285 245.612V249H341.042V245.612C341.042 245.069 340.906 244.655 340.635 244.369C340.364 244.076 339.993 243.929 339.524 243.929C339.055 243.929 338.681 244.076 338.402 244.369C338.131 244.655 337.995 245.069 337.995 245.612V249H336.741V242.939H337.995V243.632C338.2 243.383 338.461 243.188 338.776 243.049C339.091 242.91 339.429 242.84 339.788 242.84C340.272 242.84 340.705 242.943 341.086 243.148C341.467 243.353 341.761 243.65 341.966 244.039C342.149 243.672 342.435 243.383 342.824 243.17C343.213 242.95 343.631 242.84 344.078 242.84ZM350.371 249.099C349.894 249.099 349.465 249.015 349.084 248.846C348.71 248.67 348.413 248.435 348.193 248.142C347.973 247.841 347.855 247.508 347.841 247.141H349.139C349.161 247.398 349.282 247.614 349.502 247.79C349.729 247.959 350.011 248.043 350.349 248.043C350.701 248.043 350.972 247.977 351.163 247.845C351.361 247.706 351.46 247.53 351.46 247.317C351.46 247.09 351.35 246.921 351.13 246.811C350.917 246.701 350.576 246.58 350.107 246.448C349.652 246.323 349.282 246.202 348.996 246.085C348.71 245.968 348.46 245.788 348.248 245.546C348.042 245.304 347.94 244.985 347.94 244.589C347.94 244.266 348.035 243.973 348.226 243.709C348.416 243.438 348.688 243.225 349.04 243.071C349.399 242.917 349.81 242.84 350.272 242.84C350.961 242.84 351.515 243.016 351.933 243.368C352.358 243.713 352.585 244.186 352.615 244.787H351.361C351.339 244.516 351.229 244.299 351.031 244.138C350.833 243.977 350.565 243.896 350.228 243.896C349.898 243.896 349.645 243.958 349.469 244.083C349.293 244.208 349.205 244.373 349.205 244.578C349.205 244.739 349.263 244.875 349.381 244.985C349.498 245.095 349.641 245.183 349.81 245.249C349.978 245.308 350.228 245.385 350.558 245.48C350.998 245.597 351.357 245.718 351.636 245.843C351.922 245.96 352.167 246.136 352.373 246.371C352.578 246.606 352.684 246.917 352.692 247.306C352.692 247.651 352.596 247.959 352.406 248.23C352.215 248.501 351.944 248.714 351.592 248.868C351.247 249.022 350.84 249.099 350.371 249.099Z"></path>
<path stroke-width="1.5" stroke="black" d="M226.25 190.828V196C226.25 196.69 225.69 197.25 225 197.25H215C214.31 197.25 213.75 196.69 213.75 196V188C213.75 187.31 214.31 186.75 215 186.75H222.172C222.503 186.75 222.821 186.882 223.055 187.116L225.884 189.945C226.118 190.179 226.25 190.497 226.25 190.828Z"></path>
<path fill="black" d="M213 200C213 199.448 213.448 199 214 199V199C214.552 199 215 199.448 215 200V200C215 200.552 214.552 201 214 201V201C213.448 201 213 200.552 213 200V200Z"></path>
<path fill="black" d="M215 203C215 202.448 215.448 202 216 202V202C216.552 202 217 202.448 217 203V203C217 203.552 216.552 204 216 204V204C215.448 204 215 203.552 215 203V203Z"></path>
<path fill="black" d="M217 200C217 199.448 217.448 199 218 199V199C218.552 199 219 199.448 219 200V200C219 200.552 218.552 201 218 201V201C217.448 201 217 200.552 217 200V200Z"></path>
<path fill="black" d="M219 203C219 202.448 219.448 202 220 202V202C220.552 202 221 202.448 221 203V203C221 203.552 220.552 204 220 204V204C219.448 204 219 203.552 219 203V203Z"></path>
<path fill="black" d="M221 200C221 199.448 221.448 199 222 199V199C222.552 199 223 199.448 223 200V200C223 200.552 222.552 201 222 201V201C221.448 201 221 200.552 221 200V200Z"></path>
<path fill="black" d="M223 203C223 202.448 223.448 202 224 202V202C224.552 202 225 202.448 225 203V203C225 203.552 224.552 204 224 204V204C223.448 204 223 203.552 223 203V203Z"></path>
<path fill="black" d="M225 200C225 199.448 225.448 199 226 199V199C226.552 199 227 199.448 227 200V200C227 200.552 226.552 201 226 201V201C225.448 201 225 200.552 225 200V200Z"></path>
<path stroke-width="1.5" stroke="black" d="M226.25 241.828V253C226.25 253.69 225.69 254.25 225 254.25H215C214.31 254.25 213.75 253.69 213.75 253V239C213.75 238.31 214.31 237.75 215 237.75H222.172C222.503 237.75 222.821 237.882 223.055 238.116L225.884 240.945C226.118 241.179 226.25 241.497 226.25 241.828Z"></path>
<rect stroke-width="1.5" stroke="black" rx="2.75" height="5.5" width="5.5" y="242.75" x="216.75"></rect>
<path stroke-linecap="round" stroke-width="1.5" stroke="black" d="M222 248L223 249"></path>
<mask fill="white" id="path-14-inside-2_627_2">
<path d="M190 285C190 282.239 192.239 280 195 280H465C467.761 280 470 282.239 470 285V305C470 307.761 467.761 310 465 310H195C192.239 310 190 307.761 190 305V285Z"></path>
</mask>
<path fill-opacity="0.05" fill="black" d="M190 285C190 282.239 192.239 280 195 280H465C467.761 280 470 282.239 470 285V305C470 307.761 467.761 310 465 310H195C192.239 310 190 307.761 190 305V285Z"></path>
<path mask="url(#path-14-inside-2_627_2)" fill-opacity="0.05" fill="black" d="M190 285C190 281.686 192.686 279 196 279H464C467.314 279 470 281.686 470 285C470 282.791 467.761 281 465 281H195C192.239 281 190 282.791 190 285ZM470 310H190H470ZM190 310V280V310ZM470 280V310V280Z"></path>
<path fill="black" d="M287.81 299L286.05 295.942H285.093V299H283.839V291.355H286.479C287.065 291.355 287.56 291.458 287.964 291.663C288.374 291.868 288.679 292.143 288.877 292.488C289.082 292.833 289.185 293.218 289.185 293.643C289.185 294.142 289.038 294.596 288.745 295.007C288.459 295.41 288.015 295.685 287.414 295.832L289.306 299H287.81ZM285.093 294.941H286.479C286.948 294.941 287.3 294.824 287.535 294.589C287.777 294.354 287.898 294.039 287.898 293.643C287.898 293.247 287.78 292.939 287.546 292.719C287.311 292.492 286.955 292.378 286.479 292.378H285.093V294.941ZM296.344 295.821C296.344 296.048 296.329 296.254 296.3 296.437H291.669C291.706 296.921 291.885 297.31 292.208 297.603C292.531 297.896 292.927 298.043 293.396 298.043C294.071 298.043 294.547 297.761 294.826 297.196H296.179C295.996 297.753 295.662 298.212 295.178 298.571C294.701 298.923 294.107 299.099 293.396 299.099C292.817 299.099 292.296 298.971 291.834 298.714C291.379 298.45 291.02 298.083 290.756 297.614C290.499 297.137 290.371 296.587 290.371 295.964C290.371 295.341 290.496 294.794 290.745 294.325C291.002 293.848 291.357 293.482 291.812 293.225C292.274 292.968 292.802 292.84 293.396 292.84C293.968 292.84 294.478 292.965 294.925 293.214C295.372 293.463 295.721 293.815 295.97 294.27C296.219 294.717 296.344 295.234 296.344 295.821ZM295.035 295.425C295.028 294.963 294.863 294.593 294.54 294.314C294.217 294.035 293.818 293.896 293.341 293.896C292.908 293.896 292.538 294.035 292.23 294.314C291.922 294.585 291.739 294.956 291.68 295.425H295.035ZM298.832 293.83C299.045 293.551 299.334 293.317 299.701 293.126C300.068 292.935 300.482 292.84 300.944 292.84C301.472 292.84 301.952 292.972 302.385 293.236C302.825 293.493 303.17 293.856 303.419 294.325C303.668 294.794 303.793 295.333 303.793 295.942C303.793 296.551 303.668 297.097 303.419 297.581C303.17 298.058 302.825 298.432 302.385 298.703C301.952 298.967 301.472 299.099 300.944 299.099C300.482 299.099 300.071 299.007 299.712 298.824C299.353 298.633 299.059 298.399 298.832 298.12V301.882H297.578V292.939H298.832V293.83ZM302.517 295.942C302.517 295.524 302.429 295.165 302.253 294.864C302.084 294.556 301.857 294.325 301.571 294.171C301.292 294.01 300.992 293.929 300.669 293.929C300.354 293.929 300.053 294.01 299.767 294.171C299.488 294.332 299.261 294.567 299.085 294.875C298.916 295.183 298.832 295.546 298.832 295.964C298.832 296.382 298.916 296.749 299.085 297.064C299.261 297.372 299.488 297.607 299.767 297.768C300.053 297.929 300.354 298.01 300.669 298.01C300.992 298.01 301.292 297.929 301.571 297.768C301.857 297.599 302.084 297.357 302.253 297.042C302.429 296.727 302.517 296.36 302.517 295.942ZM304.615 295.942C304.615 295.333 304.74 294.794 304.989 294.325C305.246 293.856 305.59 293.493 306.023 293.236C306.463 292.972 306.947 292.84 307.475 292.84C307.952 292.84 308.366 292.935 308.718 293.126C309.077 293.309 309.363 293.54 309.576 293.819V292.939H310.841V299H309.576V298.098C309.363 298.384 309.074 298.622 308.707 298.813C308.34 299.004 307.922 299.099 307.453 299.099C306.932 299.099 306.456 298.967 306.023 298.703C305.59 298.432 305.246 298.058 304.989 297.581C304.74 297.097 304.615 296.551 304.615 295.942ZM309.576 295.964C309.576 295.546 309.488 295.183 309.312 294.875C309.143 294.567 308.92 294.332 308.641 294.171C308.362 294.01 308.062 293.929 307.739 293.929C307.416 293.929 307.116 294.01 306.837 294.171C306.558 294.325 306.331 294.556 306.155 294.864C305.986 295.165 305.902 295.524 305.902 295.942C305.902 296.36 305.986 296.727 306.155 297.042C306.331 297.357 306.558 297.599 306.837 297.768C307.123 297.929 307.424 298.01 307.739 298.01C308.062 298.01 308.362 297.929 308.641 297.768C308.92 297.607 309.143 297.372 309.312 297.064C309.488 296.749 309.576 296.382 309.576 295.964ZM313.126 292.136C312.899 292.136 312.708 292.059 312.554 291.905C312.4 291.751 312.323 291.56 312.323 291.333C312.323 291.106 312.4 290.915 312.554 290.761C312.708 290.607 312.899 290.53 313.126 290.53C313.346 290.53 313.533 290.607 313.687 290.761C313.841 290.915 313.918 291.106 313.918 291.333C313.918 291.56 313.841 291.751 313.687 291.905C313.533 292.059 313.346 292.136 313.126 292.136ZM313.742 292.939V299H312.488V292.939H313.742ZM316.642 293.819C316.826 293.511 317.068 293.273 317.368 293.104C317.676 292.928 318.039 292.84 318.457 292.84V294.138H318.138C317.647 294.138 317.273 294.263 317.016 294.512C316.767 294.761 316.642 295.194 316.642 295.81V299H315.388V292.939H316.642V293.819ZM323.931 293.962V297.317C323.931 297.544 323.982 297.709 324.085 297.812C324.195 297.907 324.378 297.955 324.635 297.955H325.405V299H324.415C323.85 299 323.417 298.868 323.117 298.604C322.816 298.34 322.666 297.911 322.666 297.317V293.962H321.951V292.939H322.666V291.432H323.931V292.939H325.405V293.962H323.931ZM329.695 292.84C330.157 292.84 330.568 292.939 330.927 293.137C331.294 293.335 331.58 293.628 331.785 294.017C331.998 294.406 332.104 294.875 332.104 295.425V299H330.861V295.612C330.861 295.069 330.726 294.655 330.454 294.369C330.183 294.076 329.813 293.929 329.343 293.929C328.874 293.929 328.5 294.076 328.221 294.369C327.95 294.655 327.814 295.069 327.814 295.612V299H326.56V290.86H327.814V293.643C328.027 293.386 328.295 293.188 328.617 293.049C328.947 292.91 329.307 292.84 329.695 292.84ZM339.259 295.821C339.259 296.048 339.244 296.254 339.215 296.437H334.584C334.621 296.921 334.8 297.31 335.123 297.603C335.446 297.896 335.842 298.043 336.311 298.043C336.986 298.043 337.462 297.761 337.741 297.196H339.094C338.911 297.753 338.577 298.212 338.093 298.571C337.616 298.923 337.022 299.099 336.311 299.099C335.732 299.099 335.211 298.971 334.749 298.714C334.294 298.45 333.935 298.083 333.671 297.614C333.414 297.137 333.286 296.587 333.286 295.964C333.286 295.341 333.411 294.794 333.66 294.325C333.917 293.848 334.272 293.482 334.727 293.225C335.189 292.968 335.717 292.84 336.311 292.84C336.883 292.84 337.393 292.965 337.84 293.214C338.287 293.463 338.636 293.815 338.885 294.27C339.134 294.717 339.259 295.234 339.259 295.821ZM337.95 295.425C337.943 294.963 337.778 294.593 337.455 294.314C337.132 294.035 336.733 293.896 336.256 293.896C335.823 293.896 335.453 294.035 335.145 294.314C334.837 294.585 334.654 294.956 334.595 295.425H337.95ZM343.988 292.136C343.761 292.136 343.57 292.059 343.416 291.905C343.262 291.751 343.185 291.56 343.185 291.333C343.185 291.106 343.262 290.915 343.416 290.761C343.57 290.607 343.761 290.53 343.988 290.53C344.208 290.53 344.395 290.607 344.549 290.761C344.703 290.915 344.78 291.106 344.78 291.333C344.78 291.56 344.703 291.751 344.549 291.905C344.395 292.059 344.208 292.136 343.988 292.136ZM344.604 292.939V299H343.35V292.939H344.604ZM348.451 299.099C347.974 299.099 347.545 299.015 347.164 298.846C346.79 298.67 346.493 298.435 346.273 298.142C346.053 297.841 345.935 297.508 345.921 297.141H347.219C347.241 297.398 347.362 297.614 347.582 297.79C347.809 297.959 348.091 298.043 348.429 298.043C348.781 298.043 349.052 297.977 349.243 297.845C349.441 297.706 349.54 297.53 349.54 297.317C349.54 297.09 349.43 296.921 349.21 296.811C348.997 296.701 348.656 296.58 348.187 296.448C347.732 296.323 347.362 296.202 347.076 296.085C346.79 295.968 346.54 295.788 346.328 295.546C346.122 295.304 346.02 294.985 346.02 294.589C346.02 294.266 346.115 293.973 346.306 293.709C346.496 293.438 346.768 293.225 347.12 293.071C347.479 292.917 347.89 292.84 348.352 292.84C349.041 292.84 349.595 293.016 350.013 293.368C350.438 293.713 350.665 294.186 350.695 294.787H349.441C349.419 294.516 349.309 294.299 349.111 294.138C348.913 293.977 348.645 293.896 348.308 293.896C347.978 293.896 347.725 293.958 347.549 294.083C347.373 294.208 347.285 294.373 347.285 294.578C347.285 294.739 347.343 294.875 347.461 294.985C347.578 295.095 347.721 295.183 347.89 295.249C348.058 295.308 348.308 295.385 348.638 295.48C349.078 295.597 349.437 295.718 349.716 295.843C350.002 295.96 350.247 296.136 350.453 296.371C350.658 296.606 350.764 296.917 350.772 297.306C350.772 297.651 350.676 297.959 350.486 298.23C350.295 298.501 350.024 298.714 349.672 298.868C349.327 299.022 348.92 299.099 348.451 299.099ZM354.327 299.099C353.85 299.099 353.421 299.015 353.04 298.846C352.666 298.67 352.369 298.435 352.149 298.142C351.929 297.841 351.811 297.508 351.797 297.141H353.095C353.117 297.398 353.238 297.614 353.458 297.79C353.685 297.959 353.967 298.043 354.305 298.043C354.657 298.043 354.928 297.977 355.119 297.845C355.317 297.706 355.416 297.53 355.416 297.317C355.416 297.09 355.306 296.921 355.086 296.811C354.873 296.701 354.532 296.58 354.063 296.448C353.608 296.323 353.238 296.202 352.952 296.085C352.666 295.968 352.416 295.788 352.204 295.546C351.998 295.304 351.896 294.985 351.896 294.589C351.896 294.266 351.991 293.973 352.182 293.709C352.372 293.438 352.644 293.225 352.996 293.071C353.355 292.917 353.766 292.84 354.228 292.84C354.917 292.84 355.471 293.016 355.889 293.368C356.314 293.713 356.541 294.186 356.571 294.787H355.317C355.295 294.516 355.185 294.299 354.987 294.138C354.789 293.977 354.521 293.896 354.184 293.896C353.854 293.896 353.601 293.958 353.425 294.083C353.249 294.208 353.161 294.373 353.161 294.578C353.161 294.739 353.219 294.875 353.337 294.985C353.454 295.095 353.597 295.183 353.766 295.249C353.934 295.308 354.184 295.385 354.514 295.48C354.954 295.597 355.313 295.718 355.592 295.843C355.878 295.96 356.123 296.136 356.329 296.371C356.534 296.606 356.64 296.917 356.648 297.306C356.648 297.651 356.552 297.959 356.362 298.23C356.171 298.501 355.9 298.714 355.548 298.868C355.203 299.022 354.796 299.099 354.327 299.099ZM363.492 292.939V299H362.238V298.285C362.04 298.534 361.779 298.732 361.457 298.879C361.141 299.018 360.804 299.088 360.445 299.088C359.968 299.088 359.539 298.989 359.158 298.791C358.784 298.593 358.487 298.3 358.267 297.911C358.054 297.522 357.948 297.053 357.948 296.503V292.939H359.191V296.316C359.191 296.859 359.326 297.277 359.598 297.57C359.869 297.856 360.239 297.999 360.709 297.999C361.178 297.999 361.548 297.856 361.82 297.57C362.098 297.277 362.238 296.859 362.238 296.316V292.939H363.492ZM370.701 295.821C370.701 296.048 370.687 296.254 370.657 296.437H366.026C366.063 296.921 366.243 297.31 366.565 297.603C366.888 297.896 367.284 298.043 367.753 298.043C368.428 298.043 368.905 297.761 369.183 297.196H370.536C370.353 297.753 370.019 298.212 369.535 298.571C369.059 298.923 368.465 299.099 367.753 299.099C367.174 299.099 366.653 298.971 366.191 298.714C365.737 298.45 365.377 298.083 365.113 297.614C364.857 297.137 364.728 296.587 364.728 295.964C364.728 295.341 364.853 294.794 365.102 294.325C365.359 293.848 365.715 293.482 366.169 293.225C366.631 292.968 367.159 292.84 367.753 292.84C368.325 292.84 368.835 292.965 369.282 293.214C369.73 293.463 370.078 293.815 370.327 294.27C370.577 294.717 370.701 295.234 370.701 295.821ZM369.392 295.425C369.385 294.963 369.22 294.593 368.897 294.314C368.575 294.035 368.175 293.896 367.698 293.896C367.266 293.896 366.895 294.035 366.587 294.314C366.279 294.585 366.096 294.956 366.037 295.425H369.392ZM374.135 299.099C373.659 299.099 373.23 299.015 372.848 298.846C372.474 298.67 372.177 298.435 371.957 298.142C371.737 297.841 371.62 297.508 371.605 297.141H372.903C372.925 297.398 373.046 297.614 373.266 297.79C373.494 297.959 373.776 298.043 374.113 298.043C374.465 298.043 374.737 297.977 374.927 297.845C375.125 297.706 375.224 297.53 375.224 297.317C375.224 297.09 375.114 296.921 374.894 296.811C374.682 296.701 374.341 296.58 373.871 296.448C373.417 296.323 373.046 296.202 372.76 296.085C372.474 295.968 372.225 295.788 372.012 295.546C371.807 295.304 371.704 294.985 371.704 294.589C371.704 294.266 371.8 293.973 371.99 293.709C372.181 293.438 372.452 293.225 372.804 293.071C373.164 292.917 373.574 292.84 374.036 292.84C374.726 292.84 375.279 293.016 375.697 293.368C376.123 293.713 376.35 294.186 376.379 294.787H375.125C375.103 294.516 374.993 294.299 374.795 294.138C374.597 293.977 374.33 293.896 373.992 293.896C373.662 293.896 373.409 293.958 373.233 294.083C373.057 294.208 372.969 294.373 372.969 294.578C372.969 294.739 373.028 294.875 373.145 294.985C373.263 295.095 373.406 295.183 373.574 295.249C373.743 295.308 373.992 295.385 374.322 295.48C374.762 295.597 375.122 295.718 375.4 295.843C375.686 295.96 375.932 296.136 376.137 296.371C376.343 296.606 376.449 296.917 376.456 297.306C376.456 297.651 376.361 297.959 376.17 298.23C375.98 298.501 375.708 298.714 375.356 298.868C375.012 299.022 374.605 299.099 374.135 299.099Z"></path>
</svg>
