<svg xmlns="http://www.w3.org/2000/svg" fill="none" viewBox="0 0 480 360" height="360" width="480">
<path fill="black" d="M201.928 64.808H195.256L194.152 68H190.624L196.648 51.224H200.56L206.584 68H203.032L201.928 64.808ZM201.016 62.12L198.592 55.112L196.168 62.12H201.016ZM212.196 56.648C212.628 56.008 213.22 55.488 213.972 55.088C214.74 54.688 215.612 54.488 216.588 54.488C217.724 54.488 218.748 54.768 219.66 55.328C220.588 55.888 221.316 56.688 221.844 57.728C222.388 58.752 222.66 59.944 222.66 61.304C222.66 62.664 222.388 63.872 221.844 64.928C221.316 65.968 220.588 66.776 219.66 67.352C218.748 67.928 217.724 68.216 216.588 68.216C215.596 68.216 214.724 68.024 213.972 67.64C213.236 67.24 212.644 66.728 212.196 66.104V68H208.836V50.24H212.196V56.648ZM219.228 61.304C219.228 60.504 219.06 59.816 218.724 59.24C218.404 58.648 217.972 58.2 217.428 57.896C216.9 57.592 216.324 57.44 215.7 57.44C215.092 57.44 214.516 57.6 213.972 57.92C213.444 58.224 213.012 58.672 212.676 59.264C212.356 59.856 212.196 60.552 212.196 61.352C212.196 62.152 212.356 62.848 212.676 63.44C213.012 64.032 213.444 64.488 213.972 64.808C214.516 65.112 215.092 65.264 215.7 65.264C216.324 65.264 216.9 65.104 217.428 64.784C217.972 64.464 218.404 64.008 218.724 63.416C219.06 62.824 219.228 62.12 219.228 61.304ZM231.005 68.216C229.725 68.216 228.573 67.936 227.549 67.376C226.525 66.8 225.717 65.992 225.125 64.952C224.549 63.912 224.261 62.712 224.261 61.352C224.261 59.992 224.557 58.792 225.149 57.752C225.757 56.712 226.581 55.912 227.621 55.352C228.661 54.776 229.821 54.488 231.101 54.488C232.381 54.488 233.541 54.776 234.581 55.352C235.621 55.912 236.437 56.712 237.029 57.752C237.637 58.792 237.941 59.992 237.941 61.352C237.941 62.712 237.629 63.912 237.005 64.952C236.397 65.992 235.565 66.8 234.509 67.376C233.469 67.936 232.301 68.216 231.005 68.216ZM231.005 65.288C231.613 65.288 232.181 65.144 232.709 64.856C233.253 64.552 233.685 64.104 234.005 63.512C234.325 62.92 234.485 62.2 234.485 61.352C234.485 60.088 234.149 59.12 233.477 58.448C232.821 57.76 232.013 57.416 231.053 57.416C230.093 57.416 229.285 57.76 228.629 58.448C227.989 59.12 227.669 60.088 227.669 61.352C227.669 62.616 227.981 63.592 228.605 64.28C229.245 64.952 230.045 65.288 231.005 65.288ZM252.958 54.704V68H249.574V66.32C249.142 66.896 248.574 67.352 247.87 67.688C247.182 68.008 246.43 68.168 245.614 68.168C244.574 68.168 243.654 67.952 242.854 67.52C242.054 67.072 241.422 66.424 240.958 65.576C240.51 64.712 240.286 63.688 240.286 62.504V54.704H243.646V62.024C243.646 63.08 243.91 63.896 244.438 64.472C244.966 65.032 245.686 65.312 246.598 65.312C247.526 65.312 248.254 65.032 248.782 64.472C249.31 63.896 249.574 63.08 249.574 62.024V54.704H252.958ZM260.185 57.464V63.896C260.185 64.344 260.289 64.672 260.497 64.88C260.721 65.072 261.089 65.168 261.601 65.168H263.161V68H261.049C258.217 68 256.801 66.624 256.801 63.872V57.464H255.217V54.704H256.801V51.416H260.185V54.704H263.161V57.464H260.185ZM293.689 51.248L289.009 68H285.049L281.905 56.072L278.617 68L274.681 68.024L270.169 51.248H273.769L276.721 64.256L280.129 51.248H283.873L287.089 64.184L290.065 51.248H293.689ZM297.587 53.12C296.995 53.12 296.499 52.936 296.099 52.568C295.715 52.184 295.523 51.712 295.523 51.152C295.523 50.592 295.715 50.128 296.099 49.76C296.499 49.376 296.995 49.184 297.587 49.184C298.179 49.184 298.667 49.376 299.051 49.76C299.451 50.128 299.651 50.592 299.651 51.152C299.651 51.712 299.451 52.184 299.051 52.568C298.667 52.936 298.179 53.12 297.587 53.12ZM299.243 54.704V68H295.883V54.704H299.243ZM309.93 54.512C311.514 54.512 312.794 55.016 313.77 56.024C314.746 57.016 315.234 58.408 315.234 60.2V68H311.874V60.656C311.874 59.6 311.61 58.792 311.082 58.232C310.554 57.656 309.834 57.368 308.922 57.368C307.994 57.368 307.258 57.656 306.714 58.232C306.186 58.792 305.922 59.6 305.922 60.656V68H302.562V54.704H305.922V56.36C306.37 55.784 306.938 55.336 307.626 55.016C308.33 54.68 309.098 54.512 309.93 54.512ZM317.565 61.304C317.565 59.96 317.829 58.768 318.357 57.728C318.901 56.688 319.637 55.888 320.565 55.328C321.493 54.768 322.525 54.488 323.661 54.488C324.525 54.488 325.349 54.68 326.133 55.064C326.917 55.432 327.541 55.928 328.005 56.552V50.24H331.413V68H328.005V66.032C327.589 66.688 327.005 67.216 326.253 67.616C325.501 68.016 324.629 68.216 323.637 68.216C322.517 68.216 321.493 67.928 320.565 67.352C319.637 66.776 318.901 65.968 318.357 64.928C317.829 63.872 317.565 62.664 317.565 61.304ZM328.029 61.352C328.029 60.536 327.869 59.84 327.549 59.264C327.229 58.672 326.797 58.224 326.253 57.92C325.709 57.6 325.125 57.44 324.501 57.44C323.877 57.44 323.301 57.592 322.773 57.896C322.245 58.2 321.813 58.648 321.477 59.24C321.157 59.816 320.997 60.504 320.997 61.304C320.997 62.104 321.157 62.808 321.477 63.416C321.813 64.008 322.245 64.464 322.773 64.784C323.317 65.104 323.893 65.264 324.501 65.264C325.125 65.264 325.709 65.112 326.253 64.808C326.797 64.488 327.229 64.04 327.549 63.464C327.869 62.872 328.029 62.168 328.029 61.352ZM340.599 68.216C339.319 68.216 338.167 67.936 337.143 67.376C336.119 66.8 335.311 65.992 334.719 64.952C334.143 63.912 333.855 62.712 333.855 61.352C333.855 59.992 334.151 58.792 334.743 57.752C335.351 56.712 336.175 55.912 337.215 55.352C338.255 54.776 339.415 54.488 340.695 54.488C341.975 54.488 343.135 54.776 344.175 55.352C345.215 55.912 346.031 56.712 346.623 57.752C347.231 58.792 347.535 59.992 347.535 61.352C347.535 62.712 347.223 63.912 346.599 64.952C345.991 65.992 345.159 66.8 344.103 67.376C343.063 67.936 341.895 68.216 340.599 68.216ZM340.599 65.288C341.207 65.288 341.775 65.144 342.303 64.856C342.847 64.552 343.279 64.104 343.599 63.512C343.919 62.92 344.079 62.2 344.079 61.352C344.079 60.088 343.743 59.12 343.071 58.448C342.415 57.76 341.607 57.416 340.647 57.416C339.687 57.416 338.879 57.76 338.223 58.448C337.583 59.12 337.263 60.088 337.263 61.352C337.263 62.616 337.575 63.592 338.199 64.28C338.839 64.952 339.639 65.288 340.599 65.288ZM368.432 54.704L364.544 68H360.92L358.496 58.712L356.072 68H352.424L348.512 54.704H351.92L354.272 64.832L356.816 54.704H360.368L362.864 64.808L365.216 54.704H368.432ZM375.338 68.216C374.25 68.216 373.274 68.024 372.41 67.64C371.546 67.24 370.858 66.704 370.346 66.032C369.85 65.36 369.578 64.616 369.53 63.8H372.914C372.978 64.312 373.226 64.736 373.658 65.072C374.106 65.408 374.658 65.576 375.314 65.576C375.954 65.576 376.45 65.448 376.802 65.192C377.17 64.936 377.354 64.608 377.354 64.208C377.354 63.776 377.13 63.456 376.682 63.248C376.25 63.024 375.554 62.784 374.594 62.528C373.602 62.288 372.786 62.04 372.146 61.784C371.522 61.528 370.978 61.136 370.514 60.608C370.066 60.08 369.842 59.368 369.842 58.472C369.842 57.736 370.05 57.064 370.466 56.456C370.898 55.848 371.506 55.368 372.29 55.016C373.09 54.664 374.026 54.488 375.098 54.488C376.682 54.488 377.946 54.888 378.89 55.688C379.834 56.472 380.354 57.536 380.45 58.88H377.234C377.186 58.352 376.962 57.936 376.562 57.632C376.178 57.312 375.658 57.152 375.002 57.152C374.394 57.152 373.922 57.264 373.586 57.488C373.266 57.712 373.106 58.024 373.106 58.424C373.106 58.872 373.33 59.216 373.778 59.456C374.226 59.68 374.922 59.912 375.866 60.152C376.826 60.392 377.618 60.64 378.242 60.896C378.866 61.152 379.402 61.552 379.85 62.096C380.314 62.624 380.554 63.328 380.57 64.208C380.57 64.976 380.354 65.664 379.922 66.272C379.506 66.88 378.898 67.36 378.098 67.712C377.314 68.048 376.394 68.216 375.338 68.216Z"></path>
<path fill-opacity="0.05" fill="black" d="M190 99C190 96.2386 192.239 94 195 94H465C467.761 94 470 96.2386 470 99V160H190V99Z"></path>
<path fill-opacity="0.05" fill="black" d="M190 161H470V281C470 283.761 467.761 286 465 286H195C192.239 286 190 283.761 190 281V161Z"></path>
<path fill="black" d="M255.434 129.438H252.233L251.683 131H250.374L253.113 123.344H254.565L257.304 131H255.984L255.434 129.438ZM255.082 128.415L253.839 124.862L252.585 128.415H255.082ZM259.749 125.841C259.962 125.548 260.251 125.309 260.618 125.126C260.992 124.935 261.406 124.84 261.861 124.84C262.396 124.84 262.88 124.968 263.313 125.225C263.746 125.482 264.087 125.848 264.336 126.325C264.585 126.794 264.71 127.333 264.71 127.942C264.71 128.551 264.585 129.097 264.336 129.581C264.087 130.058 263.742 130.432 263.302 130.703C262.869 130.967 262.389 131.099 261.861 131.099C261.392 131.099 260.974 131.007 260.607 130.824C260.248 130.641 259.962 130.406 259.749 130.12V131H258.495V122.86H259.749V125.841ZM263.434 127.942C263.434 127.524 263.346 127.165 263.17 126.864C263.001 126.556 262.774 126.325 262.488 126.171C262.209 126.01 261.909 125.929 261.586 125.929C261.271 125.929 260.97 126.01 260.684 126.171C260.405 126.332 260.178 126.567 260.002 126.875C259.833 127.183 259.749 127.546 259.749 127.964C259.749 128.382 259.833 128.749 260.002 129.064C260.178 129.372 260.405 129.607 260.684 129.768C260.97 129.929 261.271 130.01 261.586 130.01C261.909 130.01 262.209 129.929 262.488 129.768C262.774 129.599 263.001 129.357 263.17 129.042C263.346 128.727 263.434 128.36 263.434 127.942ZM268.579 131.099C268.007 131.099 267.49 130.971 267.028 130.714C266.566 130.45 266.203 130.083 265.939 129.614C265.675 129.137 265.543 128.587 265.543 127.964C265.543 127.348 265.679 126.802 265.95 126.325C266.221 125.848 266.592 125.482 267.061 125.225C267.53 124.968 268.055 124.84 268.634 124.84C269.213 124.84 269.738 124.968 270.207 125.225C270.676 125.482 271.047 125.848 271.318 126.325C271.589 126.802 271.725 127.348 271.725 127.964C271.725 128.58 271.586 129.126 271.307 129.603C271.028 130.08 270.647 130.45 270.163 130.714C269.686 130.971 269.158 131.099 268.579 131.099ZM268.579 130.01C268.902 130.01 269.202 129.933 269.481 129.779C269.767 129.625 269.998 129.394 270.174 129.086C270.35 128.778 270.438 128.404 270.438 127.964C270.438 127.524 270.354 127.154 270.185 126.853C270.016 126.545 269.793 126.314 269.514 126.16C269.235 126.006 268.935 125.929 268.612 125.929C268.289 125.929 267.989 126.006 267.71 126.16C267.439 126.314 267.222 126.545 267.061 126.853C266.9 127.154 266.819 127.524 266.819 127.964C266.819 128.617 266.984 129.123 267.314 129.482C267.651 129.834 268.073 130.01 268.579 130.01ZM278.454 124.939V131H277.2V130.285C277.002 130.534 276.741 130.732 276.419 130.879C276.103 131.018 275.766 131.088 275.407 131.088C274.93 131.088 274.501 130.989 274.12 130.791C273.746 130.593 273.449 130.3 273.229 129.911C273.016 129.522 272.91 129.053 272.91 128.503V124.939H274.153V128.316C274.153 128.859 274.288 129.277 274.56 129.57C274.831 129.856 275.201 129.999 275.671 129.999C276.14 129.999 276.51 129.856 276.782 129.57C277.06 129.277 277.2 128.859 277.2 128.316V124.939H278.454ZM281.571 125.962V129.317C281.571 129.544 281.623 129.709 281.725 129.812C281.835 129.907 282.019 129.955 282.275 129.955H283.045V131H282.055C281.491 131 281.058 130.868 280.757 130.604C280.457 130.34 280.306 129.911 280.306 129.317V125.962H279.591V124.939H280.306V123.432H281.571V124.939H283.045V125.962H281.571ZM297.013 123.355L294.747 131H293.328L291.722 125.214L290.017 131L288.609 131.011L286.442 123.355H287.773L289.357 129.581L291.073 123.355H292.481L294.076 129.548L295.671 123.355H297.013ZM298.686 124.136C298.458 124.136 298.268 124.059 298.114 123.905C297.96 123.751 297.883 123.56 297.883 123.333C297.883 123.106 297.96 122.915 298.114 122.761C298.268 122.607 298.458 122.53 298.686 122.53C298.906 122.53 299.093 122.607 299.247 122.761C299.401 122.915 299.478 123.106 299.478 123.333C299.478 123.56 299.401 123.751 299.247 123.905C299.093 124.059 298.906 124.136 298.686 124.136ZM299.302 124.939V131H298.048V124.939H299.302ZM304.006 124.84C304.483 124.84 304.908 124.939 305.282 125.137C305.663 125.335 305.96 125.628 306.173 126.017C306.386 126.406 306.492 126.875 306.492 127.425V131H305.249V127.612C305.249 127.069 305.113 126.655 304.842 126.369C304.571 126.076 304.2 125.929 303.731 125.929C303.262 125.929 302.888 126.076 302.609 126.369C302.338 126.655 302.202 127.069 302.202 127.612V131H300.948V124.939H302.202V125.632C302.407 125.383 302.668 125.188 302.983 125.049C303.306 124.91 303.647 124.84 304.006 124.84ZM307.674 127.942C307.674 127.333 307.798 126.794 308.048 126.325C308.304 125.856 308.649 125.493 309.082 125.236C309.522 124.972 310.009 124.84 310.545 124.84C310.941 124.84 311.329 124.928 311.711 125.104C312.099 125.273 312.407 125.5 312.635 125.786V122.86H313.9V131H312.635V130.087C312.429 130.38 312.143 130.622 311.777 130.813C311.417 131.004 311.003 131.099 310.534 131.099C310.006 131.099 309.522 130.967 309.082 130.703C308.649 130.432 308.304 130.058 308.048 129.581C307.798 129.097 307.674 128.551 307.674 127.942ZM312.635 127.964C312.635 127.546 312.547 127.183 312.371 126.875C312.202 126.567 311.978 126.332 311.7 126.171C311.421 126.01 311.12 125.929 310.798 125.929C310.475 125.929 310.174 126.01 309.896 126.171C309.617 126.325 309.39 126.556 309.214 126.864C309.045 127.165 308.961 127.524 308.961 127.942C308.961 128.36 309.045 128.727 309.214 129.042C309.39 129.357 309.617 129.599 309.896 129.768C310.182 129.929 310.482 130.01 310.798 130.01C311.12 130.01 311.421 129.929 311.7 129.768C311.978 129.607 312.202 129.372 312.371 129.064C312.547 128.749 312.635 128.382 312.635 127.964ZM318.176 131.099C317.604 131.099 317.087 130.971 316.625 130.714C316.163 130.45 315.8 130.083 315.536 129.614C315.272 129.137 315.14 128.587 315.14 127.964C315.14 127.348 315.275 126.802 315.547 126.325C315.818 125.848 316.188 125.482 316.658 125.225C317.127 124.968 317.651 124.84 318.231 124.84C318.81 124.84 319.334 124.968 319.804 125.225C320.273 125.482 320.643 125.848 320.915 126.325C321.186 126.802 321.322 127.348 321.322 127.964C321.322 128.58 321.182 129.126 320.904 129.603C320.625 130.08 320.244 130.45 319.76 130.714C319.283 130.971 318.755 131.099 318.176 131.099ZM318.176 130.01C318.498 130.01 318.799 129.933 319.078 129.779C319.364 129.625 319.595 129.394 319.771 129.086C319.947 128.778 320.035 128.404 320.035 127.964C320.035 127.524 319.95 127.154 319.782 126.853C319.613 126.545 319.389 126.314 319.111 126.16C318.832 126.006 318.531 125.929 318.209 125.929C317.886 125.929 317.585 126.006 317.307 126.16C317.035 126.314 316.819 126.545 316.658 126.853C316.496 127.154 316.416 127.524 316.416 127.964C316.416 128.617 316.581 129.123 316.911 129.482C317.248 129.834 317.67 130.01 318.176 130.01ZM330.701 124.939L328.82 131H327.5L326.279 126.523L325.058 131H323.738L321.846 124.939H323.122L324.387 129.812L325.674 124.939H326.983L328.215 129.79L329.469 124.939H330.701ZM333.838 131.099C333.362 131.099 332.933 131.015 332.551 130.846C332.177 130.67 331.88 130.435 331.66 130.142C331.44 129.841 331.323 129.508 331.308 129.141H332.606C332.628 129.398 332.749 129.614 332.969 129.79C333.197 129.959 333.479 130.043 333.816 130.043C334.168 130.043 334.44 129.977 334.63 129.845C334.828 129.706 334.927 129.53 334.927 129.317C334.927 129.09 334.817 128.921 334.597 128.811C334.385 128.701 334.044 128.58 333.574 128.448C333.12 128.323 332.749 128.202 332.463 128.085C332.177 127.968 331.928 127.788 331.715 127.546C331.51 127.304 331.407 126.985 331.407 126.589C331.407 126.266 331.503 125.973 331.693 125.709C331.884 125.438 332.155 125.225 332.507 125.071C332.867 124.917 333.277 124.84 333.739 124.84C334.429 124.84 334.982 125.016 335.4 125.368C335.826 125.713 336.053 126.186 336.082 126.787H334.828C334.806 126.516 334.696 126.299 334.498 126.138C334.3 125.977 334.033 125.896 333.695 125.896C333.365 125.896 333.112 125.958 332.936 126.083C332.76 126.208 332.672 126.373 332.672 126.578C332.672 126.739 332.731 126.875 332.848 126.985C332.966 127.095 333.109 127.183 333.277 127.249C333.446 127.308 333.695 127.385 334.025 127.48C334.465 127.597 334.825 127.718 335.103 127.843C335.389 127.96 335.635 128.136 335.84 128.371C336.046 128.606 336.152 128.917 336.159 129.306C336.159 129.651 336.064 129.959 335.873 130.23C335.683 130.501 335.411 130.714 335.059 130.868C334.715 131.022 334.308 131.099 333.838 131.099Z"></path>
<path fill="black" d="M212.079 175.367V177.611H214.719V178.634H212.079V180.977H215.049V182H210.825V174.344H215.049V175.367H212.079ZM216.176 178.942C216.176 178.333 216.3 177.794 216.55 177.325C216.806 176.856 217.151 176.493 217.584 176.236C218.024 175.972 218.511 175.84 219.047 175.84C219.443 175.84 219.831 175.928 220.213 176.104C220.601 176.273 220.909 176.5 221.137 176.786V173.86H222.402V182H221.137V181.087C220.931 181.38 220.645 181.622 220.279 181.813C219.919 182.004 219.505 182.099 219.036 182.099C218.508 182.099 218.024 181.967 217.584 181.703C217.151 181.432 216.806 181.058 216.55 180.581C216.3 180.097 216.176 179.551 216.176 178.942ZM221.137 178.964C221.137 178.546 221.049 178.183 220.873 177.875C220.704 177.567 220.48 177.332 220.202 177.171C219.923 177.01 219.622 176.929 219.3 176.929C218.977 176.929 218.676 177.01 218.398 177.171C218.119 177.325 217.892 177.556 217.716 177.864C217.547 178.165 217.463 178.524 217.463 178.942C217.463 179.36 217.547 179.727 217.716 180.042C217.892 180.357 218.119 180.599 218.398 180.768C218.684 180.929 218.984 181.01 219.3 181.01C219.622 181.01 219.923 180.929 220.202 180.768C220.48 180.607 220.704 180.372 220.873 180.064C221.049 179.749 221.137 179.382 221.137 178.964ZM224.687 175.136C224.459 175.136 224.269 175.059 224.115 174.905C223.961 174.751 223.884 174.56 223.884 174.333C223.884 174.106 223.961 173.915 224.115 173.761C224.269 173.607 224.459 173.53 224.687 173.53C224.907 173.53 225.094 173.607 225.248 173.761C225.402 173.915 225.479 174.106 225.479 174.333C225.479 174.56 225.402 174.751 225.248 174.905C225.094 175.059 224.907 175.136 224.687 175.136ZM225.303 175.939V182H224.049V175.939H225.303ZM228.412 176.962V180.317C228.412 180.544 228.463 180.709 228.566 180.812C228.676 180.907 228.859 180.955 229.116 180.955H229.886V182H228.896C228.331 182 227.899 181.868 227.598 181.604C227.297 181.34 227.147 180.911 227.147 180.317V176.962H226.432V175.939H227.147V174.432H228.412V175.939H229.886V176.962H228.412ZM231.68 175.136C231.452 175.136 231.262 175.059 231.108 174.905C230.954 174.751 230.877 174.56 230.877 174.333C230.877 174.106 230.954 173.915 231.108 173.761C231.262 173.607 231.452 173.53 231.68 173.53C231.9 173.53 232.087 173.607 232.241 173.761C232.395 173.915 232.472 174.106 232.472 174.333C232.472 174.56 232.395 174.751 232.241 174.905C232.087 175.059 231.9 175.136 231.68 175.136ZM232.296 175.939V182H231.042V175.939H232.296ZM236.571 182.099C235.999 182.099 235.482 181.971 235.02 181.714C234.558 181.45 234.195 181.083 233.931 180.614C233.667 180.137 233.535 179.587 233.535 178.964C233.535 178.348 233.671 177.802 233.942 177.325C234.214 176.848 234.584 176.482 235.053 176.225C235.523 175.968 236.047 175.84 236.626 175.84C237.206 175.84 237.73 175.968 238.199 176.225C238.669 176.482 239.039 176.848 239.31 177.325C239.582 177.802 239.717 178.348 239.717 178.964C239.717 179.58 239.578 180.126 239.299 180.603C239.021 181.08 238.639 181.45 238.155 181.714C237.679 181.971 237.151 182.099 236.571 182.099ZM236.571 181.01C236.894 181.01 237.195 180.933 237.473 180.779C237.759 180.625 237.99 180.394 238.166 180.086C238.342 179.778 238.43 179.404 238.43 178.964C238.43 178.524 238.346 178.154 238.177 177.853C238.009 177.545 237.785 177.314 237.506 177.16C237.228 177.006 236.927 176.929 236.604 176.929C236.282 176.929 235.981 177.006 235.702 177.16C235.431 177.314 235.215 177.545 235.053 177.853C234.892 178.154 234.811 178.524 234.811 178.964C234.811 179.617 234.976 180.123 235.306 180.482C235.644 180.834 236.065 181.01 236.571 181.01ZM244.015 175.84C244.492 175.84 244.917 175.939 245.291 176.137C245.672 176.335 245.969 176.628 246.182 177.017C246.395 177.406 246.501 177.875 246.501 178.425V182H245.258V178.612C245.258 178.069 245.122 177.655 244.851 177.369C244.58 177.076 244.209 176.929 243.74 176.929C243.271 176.929 242.897 177.076 242.618 177.369C242.347 177.655 242.211 178.069 242.211 178.612V182H240.957V175.939H242.211V176.632C242.416 176.383 242.677 176.188 242.992 176.049C243.315 175.91 243.656 175.84 244.015 175.84Z"></path>
<path fill="black" d="M217.414 204.355L214.543 212H213.091L210.209 204.355H211.551L213.817 210.713L216.094 204.355H217.414ZM224.018 208.821C224.018 209.048 224.003 209.254 223.974 209.437H219.343C219.379 209.921 219.559 210.31 219.882 210.603C220.204 210.896 220.6 211.043 221.07 211.043C221.744 211.043 222.221 210.761 222.5 210.196H223.853C223.669 210.753 223.336 211.212 222.852 211.571C222.375 211.923 221.781 212.099 221.07 212.099C220.49 212.099 219.97 211.971 219.508 211.714C219.053 211.45 218.694 211.083 218.43 210.614C218.173 210.137 218.045 209.587 218.045 208.964C218.045 208.341 218.169 207.794 218.419 207.325C218.675 206.848 219.031 206.482 219.486 206.225C219.948 205.968 220.476 205.84 221.07 205.84C221.642 205.84 222.151 205.965 222.599 206.214C223.046 206.463 223.394 206.815 223.644 207.27C223.893 207.717 224.018 208.234 224.018 208.821ZM222.709 208.425C222.701 207.963 222.536 207.593 222.214 207.314C221.891 207.035 221.491 206.896 221.015 206.896C220.582 206.896 220.212 207.035 219.904 207.314C219.596 207.585 219.412 207.956 219.354 208.425H222.709ZM226.506 206.819C226.689 206.511 226.931 206.273 227.232 206.104C227.54 205.928 227.903 205.84 228.321 205.84V207.138H228.002C227.51 207.138 227.136 207.263 226.88 207.512C226.63 207.761 226.506 208.194 226.506 208.81V212H225.252V205.939H226.506V206.819ZM231.673 212.099C231.197 212.099 230.768 212.015 230.386 211.846C230.012 211.67 229.715 211.435 229.495 211.142C229.275 210.841 229.158 210.508 229.143 210.141H230.441C230.463 210.398 230.584 210.614 230.804 210.79C231.032 210.959 231.314 211.043 231.651 211.043C232.003 211.043 232.275 210.977 232.465 210.845C232.663 210.706 232.762 210.53 232.762 210.317C232.762 210.09 232.652 209.921 232.432 209.811C232.22 209.701 231.879 209.58 231.409 209.448C230.955 209.323 230.584 209.202 230.298 209.085C230.012 208.968 229.763 208.788 229.55 208.546C229.345 208.304 229.242 207.985 229.242 207.589C229.242 207.266 229.338 206.973 229.528 206.709C229.719 206.438 229.99 206.225 230.342 206.071C230.702 205.917 231.112 205.84 231.574 205.84C232.264 205.84 232.817 206.016 233.235 206.368C233.661 206.713 233.888 207.186 233.917 207.787H232.663C232.641 207.516 232.531 207.299 232.333 207.138C232.135 206.977 231.868 206.896 231.53 206.896C231.2 206.896 230.947 206.958 230.771 207.083C230.595 207.208 230.507 207.373 230.507 207.578C230.507 207.739 230.566 207.875 230.683 207.985C230.801 208.095 230.944 208.183 231.112 208.249C231.281 208.308 231.53 208.385 231.86 208.48C232.3 208.597 232.66 208.718 232.938 208.843C233.224 208.96 233.47 209.136 233.675 209.371C233.881 209.606 233.987 209.917 233.994 210.306C233.994 210.651 233.899 210.959 233.708 211.23C233.518 211.501 233.246 211.714 232.894 211.868C232.55 212.022 232.143 212.099 231.673 212.099ZM235.987 205.136C235.76 205.136 235.569 205.059 235.415 204.905C235.261 204.751 235.184 204.56 235.184 204.333C235.184 204.106 235.261 203.915 235.415 203.761C235.569 203.607 235.76 203.53 235.987 203.53C236.207 203.53 236.394 203.607 236.548 203.761C236.702 203.915 236.779 204.106 236.779 204.333C236.779 204.56 236.702 204.751 236.548 204.905C236.394 205.059 236.207 205.136 235.987 205.136ZM236.603 205.939V212H235.349V205.939H236.603ZM240.879 212.099C240.307 212.099 239.79 211.971 239.328 211.714C238.866 211.45 238.503 211.083 238.239 210.614C237.975 210.137 237.843 209.587 237.843 208.964C237.843 208.348 237.978 207.802 238.25 207.325C238.521 206.848 238.891 206.482 239.361 206.225C239.83 205.968 240.354 205.84 240.934 205.84C241.513 205.84 242.037 205.968 242.507 206.225C242.976 206.482 243.346 206.848 243.618 207.325C243.889 207.802 244.025 208.348 244.025 208.964C244.025 209.58 243.885 210.126 243.607 210.603C243.328 211.08 242.947 211.45 242.463 211.714C241.986 211.971 241.458 212.099 240.879 212.099ZM240.879 211.01C241.201 211.01 241.502 210.933 241.781 210.779C242.067 210.625 242.298 210.394 242.474 210.086C242.65 209.778 242.738 209.404 242.738 208.964C242.738 208.524 242.653 208.154 242.485 207.853C242.316 207.545 242.092 207.314 241.814 207.16C241.535 207.006 241.234 206.929 240.912 206.929C240.589 206.929 240.288 207.006 240.01 207.16C239.738 207.314 239.522 207.545 239.361 207.853C239.199 208.154 239.119 208.524 239.119 208.964C239.119 209.617 239.284 210.123 239.614 210.482C239.951 210.834 240.373 211.01 240.879 211.01ZM248.322 205.84C248.799 205.84 249.224 205.939 249.598 206.137C249.98 206.335 250.277 206.628 250.489 207.017C250.702 207.406 250.808 207.875 250.808 208.425V212H249.565V208.612C249.565 208.069 249.43 207.655 249.158 207.369C248.887 207.076 248.517 206.929 248.047 206.929C247.578 206.929 247.204 207.076 246.925 207.369C246.654 207.655 246.518 208.069 246.518 208.612V212H245.264V205.939H246.518V206.632C246.724 206.383 246.984 206.188 247.299 206.049C247.622 205.91 247.963 205.84 248.322 205.84Z"></path>
<path fill="black" d="M213.322 234.355C214.136 234.355 214.847 234.513 215.456 234.828C216.072 235.136 216.545 235.583 216.875 236.17C217.212 236.749 217.381 237.428 217.381 238.205C217.381 238.982 217.212 239.657 216.875 240.229C216.545 240.801 216.072 241.241 215.456 241.549C214.847 241.85 214.136 242 213.322 242H210.825V234.355H213.322ZM213.322 240.977C214.217 240.977 214.902 240.735 215.379 240.251C215.856 239.767 216.094 239.085 216.094 238.205C216.094 237.318 215.856 236.625 215.379 236.126C214.902 235.627 214.217 235.378 213.322 235.378H212.079V240.977H213.322ZM224.179 238.821C224.179 239.048 224.164 239.254 224.135 239.437H219.504C219.54 239.921 219.72 240.31 220.043 240.603C220.365 240.896 220.761 241.043 221.231 241.043C221.905 241.043 222.382 240.761 222.661 240.196H224.014C223.83 240.753 223.497 241.212 223.013 241.571C222.536 241.923 221.942 242.099 221.231 242.099C220.651 242.099 220.131 241.971 219.669 241.714C219.214 241.45 218.855 241.083 218.591 240.614C218.334 240.137 218.206 239.587 218.206 238.964C218.206 238.341 218.33 237.794 218.58 237.325C218.836 236.848 219.192 236.482 219.647 236.225C220.109 235.968 220.637 235.84 221.231 235.84C221.803 235.84 222.312 235.965 222.76 236.214C223.207 236.463 223.555 236.815 223.805 237.27C224.054 237.717 224.179 238.234 224.179 238.821ZM222.87 238.425C222.862 237.963 222.697 237.593 222.375 237.314C222.052 237.035 221.652 236.896 221.176 236.896C220.743 236.896 220.373 237.035 220.065 237.314C219.757 237.585 219.573 237.956 219.515 238.425H222.87ZM227.756 240.878L229.472 235.939H230.803L228.493 242H226.997L224.698 235.939H226.04L227.756 240.878ZM237.306 238.821C237.306 239.048 237.291 239.254 237.262 239.437H232.631C232.667 239.921 232.847 240.31 233.17 240.603C233.492 240.896 233.888 241.043 234.358 241.043C235.032 241.043 235.509 240.761 235.788 240.196H237.141C236.957 240.753 236.624 241.212 236.14 241.571C235.663 241.923 235.069 242.099 234.358 242.099C233.778 242.099 233.258 241.971 232.796 241.714C232.341 241.45 231.982 241.083 231.718 240.614C231.461 240.137 231.333 239.587 231.333 238.964C231.333 238.341 231.457 237.794 231.707 237.325C231.963 236.848 232.319 236.482 232.774 236.225C233.236 235.968 233.764 235.84 234.358 235.84C234.93 235.84 235.439 235.965 235.887 236.214C236.334 236.463 236.682 236.815 236.932 237.27C237.181 237.717 237.306 238.234 237.306 238.821ZM235.997 238.425C235.989 237.963 235.824 237.593 235.502 237.314C235.179 237.035 234.779 236.896 234.303 236.896C233.87 236.896 233.5 237.035 233.192 237.314C232.884 237.585 232.7 237.956 232.642 238.425H235.997ZM239.794 233.86V242H238.54V233.86H239.794ZM244.069 242.099C243.497 242.099 242.98 241.971 242.518 241.714C242.056 241.45 241.693 241.083 241.429 240.614C241.165 240.137 241.033 239.587 241.033 238.964C241.033 238.348 241.169 237.802 241.44 237.325C241.712 236.848 242.082 236.482 242.551 236.225C243.021 235.968 243.545 235.84 244.124 235.84C244.704 235.84 245.228 235.968 245.697 236.225C246.167 236.482 246.537 236.848 246.808 237.325C247.08 237.802 247.215 238.348 247.215 238.964C247.215 239.58 247.076 240.126 246.797 240.603C246.519 241.08 246.137 241.45 245.653 241.714C245.177 241.971 244.649 242.099 244.069 242.099ZM244.069 241.01C244.392 241.01 244.693 240.933 244.971 240.779C245.257 240.625 245.488 240.394 245.664 240.086C245.84 239.778 245.928 239.404 245.928 238.964C245.928 238.524 245.844 238.154 245.675 237.853C245.507 237.545 245.283 237.314 245.004 237.16C244.726 237.006 244.425 236.929 244.102 236.929C243.78 236.929 243.479 237.006 243.2 237.16C242.929 237.314 242.713 237.545 242.551 237.853C242.39 238.154 242.309 238.524 242.309 238.964C242.309 239.617 242.474 240.123 242.804 240.482C243.142 240.834 243.563 241.01 244.069 241.01ZM249.709 236.83C249.922 236.551 250.211 236.317 250.578 236.126C250.945 235.935 251.359 235.84 251.821 235.84C252.349 235.84 252.829 235.972 253.262 236.236C253.702 236.493 254.047 236.856 254.296 237.325C254.545 237.794 254.67 238.333 254.67 238.942C254.67 239.551 254.545 240.097 254.296 240.581C254.047 241.058 253.702 241.432 253.262 241.703C252.829 241.967 252.349 242.099 251.821 242.099C251.359 242.099 250.948 242.007 250.589 241.824C250.23 241.633 249.936 241.399 249.709 241.12V244.882H248.455V235.939H249.709V236.83ZM253.394 238.942C253.394 238.524 253.306 238.165 253.13 237.864C252.961 237.556 252.734 237.325 252.448 237.171C252.169 237.01 251.869 236.929 251.546 236.929C251.231 236.929 250.93 237.01 250.644 237.171C250.365 237.332 250.138 237.567 249.962 237.875C249.793 238.183 249.709 238.546 249.709 238.964C249.709 239.382 249.793 239.749 249.962 240.064C250.138 240.372 250.365 240.607 250.644 240.768C250.93 240.929 251.231 241.01 251.546 241.01C251.869 241.01 252.169 240.929 252.448 240.768C252.734 240.599 252.961 240.357 253.13 240.042C253.306 239.727 253.394 239.36 253.394 238.942ZM261.465 238.821C261.465 239.048 261.45 239.254 261.421 239.437H256.79C256.827 239.921 257.006 240.31 257.329 240.603C257.652 240.896 258.048 241.043 258.517 241.043C259.192 241.043 259.668 240.761 259.947 240.196H261.3C261.117 240.753 260.783 241.212 260.299 241.571C259.822 241.923 259.228 242.099 258.517 242.099C257.938 242.099 257.417 241.971 256.955 241.714C256.5 241.45 256.141 241.083 255.877 240.614C255.62 240.137 255.492 239.587 255.492 238.964C255.492 238.341 255.617 237.794 255.866 237.325C256.123 236.848 256.478 236.482 256.933 236.225C257.395 235.968 257.923 235.84 258.517 235.84C259.089 235.84 259.599 235.965 260.046 236.214C260.493 236.463 260.842 236.815 261.091 237.27C261.34 237.717 261.465 238.234 261.465 238.821ZM260.156 238.425C260.149 237.963 259.984 237.593 259.661 237.314C259.338 237.035 258.939 236.896 258.462 236.896C258.029 236.896 257.659 237.035 257.351 237.314C257.043 237.585 256.86 237.956 256.801 238.425H260.156ZM263.953 236.819C264.136 236.511 264.378 236.273 264.679 236.104C264.987 235.928 265.35 235.84 265.768 235.84V237.138H265.449C264.958 237.138 264.584 237.263 264.327 237.512C264.078 237.761 263.953 238.194 263.953 238.81V242H262.699V235.939H263.953V236.819Z"></path>
<path fill="black" d="M214.917 268.073C215.328 268.146 215.676 268.363 215.962 268.722C216.248 269.081 216.391 269.488 216.391 269.943C216.391 270.332 216.288 270.684 216.083 270.999C215.885 271.307 215.595 271.553 215.214 271.736C214.833 271.912 214.389 272 213.883 272H210.825V264.355H213.74C214.261 264.355 214.708 264.443 215.082 264.619C215.456 264.795 215.738 265.033 215.929 265.334C216.12 265.627 216.215 265.957 216.215 266.324C216.215 266.764 216.098 267.131 215.863 267.424C215.628 267.717 215.313 267.934 214.917 268.073ZM212.079 267.567H213.63C214.041 267.567 214.36 267.475 214.587 267.292C214.822 267.101 214.939 266.83 214.939 266.478C214.939 266.133 214.822 265.866 214.587 265.675C214.36 265.477 214.041 265.378 213.63 265.378H212.079V267.567ZM213.773 270.977C214.198 270.977 214.532 270.874 214.774 270.669C215.016 270.464 215.137 270.178 215.137 269.811C215.137 269.437 215.009 269.14 214.752 268.92C214.495 268.7 214.154 268.59 213.729 268.59H212.079V270.977H213.773ZM219.008 263.86V272H217.754V263.86H219.008ZM223.283 272.099C222.711 272.099 222.194 271.971 221.732 271.714C221.27 271.45 220.907 271.083 220.643 270.614C220.379 270.137 220.247 269.587 220.247 268.964C220.247 268.348 220.383 267.802 220.654 267.325C220.925 266.848 221.296 266.482 221.765 266.225C222.234 265.968 222.759 265.84 223.338 265.84C223.917 265.84 224.442 265.968 224.911 266.225C225.38 266.482 225.751 266.848 226.022 267.325C226.293 267.802 226.429 268.348 226.429 268.964C226.429 269.58 226.29 270.126 226.011 270.603C225.732 271.08 225.351 271.45 224.867 271.714C224.39 271.971 223.862 272.099 223.283 272.099ZM223.283 271.01C223.606 271.01 223.906 270.933 224.185 270.779C224.471 270.625 224.702 270.394 224.878 270.086C225.054 269.778 225.142 269.404 225.142 268.964C225.142 268.524 225.058 268.154 224.889 267.853C224.72 267.545 224.497 267.314 224.218 267.16C223.939 267.006 223.639 266.929 223.316 266.929C222.993 266.929 222.693 267.006 222.414 267.16C222.143 267.314 221.926 267.545 221.765 267.853C221.604 268.154 221.523 268.524 221.523 268.964C221.523 269.617 221.688 270.123 222.018 270.482C222.355 270.834 222.777 271.01 223.283 271.01ZM227.251 268.964C227.251 268.341 227.375 267.794 227.625 267.325C227.881 266.848 228.233 266.482 228.681 266.225C229.128 265.968 229.641 265.84 230.221 265.84C230.954 265.84 231.559 266.016 232.036 266.368C232.52 266.713 232.846 267.208 233.015 267.853H231.662C231.552 267.552 231.376 267.318 231.134 267.149C230.892 266.98 230.587 266.896 230.221 266.896C229.707 266.896 229.297 267.079 228.989 267.446C228.688 267.805 228.538 268.311 228.538 268.964C228.538 269.617 228.688 270.126 228.989 270.493C229.297 270.86 229.707 271.043 230.221 271.043C230.947 271.043 231.427 270.724 231.662 270.086H233.015C232.839 270.702 232.509 271.193 232.025 271.56C231.541 271.919 230.939 272.099 230.221 272.099C229.641 272.099 229.128 271.971 228.681 271.714C228.233 271.45 227.881 271.083 227.625 270.614C227.375 270.137 227.251 269.587 227.251 268.964ZM236.662 268.975L239.456 272H237.762L235.518 269.393V272H234.264V263.86H235.518V268.59L237.718 265.939H239.456L236.662 268.975ZM242.555 272.099C242.079 272.099 241.65 272.015 241.268 271.846C240.894 271.67 240.597 271.435 240.377 271.142C240.157 270.841 240.04 270.508 240.025 270.141H241.323C241.345 270.398 241.466 270.614 241.686 270.79C241.914 270.959 242.196 271.043 242.533 271.043C242.885 271.043 243.157 270.977 243.347 270.845C243.545 270.706 243.644 270.53 243.644 270.317C243.644 270.09 243.534 269.921 243.314 269.811C243.102 269.701 242.761 269.58 242.291 269.448C241.837 269.323 241.466 269.202 241.18 269.085C240.894 268.968 240.645 268.788 240.432 268.546C240.227 268.304 240.124 267.985 240.124 267.589C240.124 267.266 240.22 266.973 240.41 266.709C240.601 266.438 240.872 266.225 241.224 266.071C241.584 265.917 241.994 265.84 242.456 265.84C243.146 265.84 243.699 266.016 244.117 266.368C244.543 266.713 244.77 267.186 244.799 267.787H243.545C243.523 267.516 243.413 267.299 243.215 267.138C243.017 266.977 242.75 266.896 242.412 266.896C242.082 266.896 241.829 266.958 241.653 267.083C241.477 267.208 241.389 267.373 241.389 267.578C241.389 267.739 241.448 267.875 241.565 267.985C241.683 268.095 241.826 268.183 241.994 268.249C242.163 268.308 242.412 268.385 242.742 268.48C243.182 268.597 243.542 268.718 243.82 268.843C244.106 268.96 244.352 269.136 244.557 269.371C244.763 269.606 244.869 269.917 244.876 270.306C244.876 270.651 244.781 270.959 244.59 271.23C244.4 271.501 244.128 271.714 243.776 271.868C243.432 272.022 243.025 272.099 242.555 272.099ZM252.147 265.84C252.623 265.84 253.049 265.939 253.423 266.137C253.804 266.335 254.101 266.628 254.314 267.017C254.526 267.406 254.633 267.875 254.633 268.425V272H253.39V268.612C253.39 268.069 253.254 267.655 252.983 267.369C252.711 267.076 252.341 266.929 251.872 266.929C251.402 266.929 251.028 267.076 250.75 267.369C250.478 267.655 250.343 268.069 250.343 268.612V272H249.089V265.939H250.343V266.632C250.548 266.383 250.808 266.188 251.124 266.049C251.446 265.91 251.787 265.84 252.147 265.84ZM261.721 265.939V272H260.467V271.285C260.269 271.534 260.009 271.732 259.686 271.879C259.371 272.018 259.034 272.088 258.674 272.088C258.198 272.088 257.769 271.989 257.387 271.791C257.013 271.593 256.716 271.3 256.496 270.911C256.284 270.522 256.177 270.053 256.177 269.503V265.939H257.42V269.316C257.42 269.859 257.556 270.277 257.827 270.57C258.099 270.856 258.469 270.999 258.938 270.999C259.408 270.999 259.778 270.856 260.049 270.57C260.328 270.277 260.467 269.859 260.467 269.316V265.939H261.721ZM270.713 265.84C271.189 265.84 271.615 265.939 271.989 266.137C272.37 266.335 272.667 266.628 272.88 267.017C273.1 267.406 273.21 267.875 273.21 268.425V272H271.967V268.612C271.967 268.069 271.831 267.655 271.56 267.369C271.288 267.076 270.918 266.929 270.449 266.929C269.979 266.929 269.605 267.076 269.327 267.369C269.055 267.655 268.92 268.069 268.92 268.612V272H267.677V268.612C267.677 268.069 267.541 267.655 267.27 267.369C266.998 267.076 266.628 266.929 266.159 266.929C265.689 266.929 265.315 267.076 265.037 267.369C264.765 267.655 264.63 268.069 264.63 268.612V272H263.376V265.939H264.63V266.632C264.835 266.383 265.095 266.188 265.411 266.049C265.726 265.91 266.063 265.84 266.423 265.84C266.907 265.84 267.339 265.943 267.721 266.148C268.102 266.353 268.395 266.65 268.601 267.039C268.784 266.672 269.07 266.383 269.459 266.17C269.847 265.95 270.265 265.84 270.713 265.84ZM276.059 266.841C276.272 266.548 276.562 266.309 276.928 266.126C277.302 265.935 277.717 265.84 278.171 265.84C278.707 265.84 279.191 265.968 279.623 266.225C280.056 266.482 280.397 266.848 280.646 267.325C280.896 267.794 281.02 268.333 281.02 268.942C281.02 269.551 280.896 270.097 280.646 270.581C280.397 271.058 280.052 271.432 279.612 271.703C279.18 271.967 278.699 272.099 278.171 272.099C277.702 272.099 277.284 272.007 276.917 271.824C276.558 271.641 276.272 271.406 276.059 271.12V272H274.805V263.86H276.059V266.841ZM279.744 268.942C279.744 268.524 279.656 268.165 279.48 267.864C279.312 267.556 279.084 267.325 278.798 267.171C278.52 267.01 278.219 266.929 277.896 266.929C277.581 266.929 277.28 267.01 276.994 267.171C276.716 267.332 276.488 267.567 276.312 267.875C276.144 268.183 276.059 268.546 276.059 268.964C276.059 269.382 276.144 269.749 276.312 270.064C276.488 270.372 276.716 270.607 276.994 270.768C277.28 270.929 277.581 271.01 277.896 271.01C278.219 271.01 278.52 270.929 278.798 270.768C279.084 270.599 279.312 270.357 279.48 270.042C279.656 269.727 279.744 269.36 279.744 268.942ZM287.816 268.821C287.816 269.048 287.801 269.254 287.772 269.437H283.141C283.177 269.921 283.357 270.31 283.68 270.603C284.002 270.896 284.398 271.043 284.868 271.043C285.542 271.043 286.019 270.761 286.298 270.196H287.651C287.467 270.753 287.134 271.212 286.65 271.571C286.173 271.923 285.579 272.099 284.868 272.099C284.288 272.099 283.768 271.971 283.306 271.714C282.851 271.45 282.492 271.083 282.228 270.614C281.971 270.137 281.843 269.587 281.843 268.964C281.843 268.341 281.967 267.794 282.217 267.325C282.473 266.848 282.829 266.482 283.284 266.225C283.746 265.968 284.274 265.84 284.868 265.84C285.44 265.84 285.949 265.965 286.397 266.214C286.844 266.463 287.192 266.815 287.442 267.27C287.691 267.717 287.816 268.234 287.816 268.821ZM286.507 268.425C286.499 267.963 286.334 267.593 286.012 267.314C285.689 267.035 285.289 266.896 284.813 266.896C284.38 266.896 284.01 267.035 283.702 267.314C283.394 267.585 283.21 267.956 283.152 268.425H286.507ZM290.304 266.819C290.487 266.511 290.729 266.273 291.03 266.104C291.338 265.928 291.701 265.84 292.119 265.84V267.138H291.8C291.308 267.138 290.934 267.263 290.678 267.512C290.428 267.761 290.304 268.194 290.304 268.81V272H289.05V265.939H290.304V266.819Z"></path>
<path fill="#808080" d="M320.78 174.355L318.514 182H317.095L315.489 176.214L313.784 182L312.376 182.011L310.209 174.355H311.54L313.124 180.581L314.84 174.355H316.248L317.843 180.548L319.438 174.355H320.78ZM322.452 175.136C322.225 175.136 322.034 175.059 321.88 174.905C321.726 174.751 321.649 174.56 321.649 174.333C321.649 174.106 321.726 173.915 321.88 173.761C322.034 173.607 322.225 173.53 322.452 173.53C322.672 173.53 322.859 173.607 323.013 173.761C323.167 173.915 323.244 174.106 323.244 174.333C323.244 174.56 323.167 174.751 323.013 174.905C322.859 175.059 322.672 175.136 322.452 175.136ZM323.068 175.939V182H321.814V175.939H323.068ZM327.773 175.84C328.249 175.84 328.675 175.939 329.049 176.137C329.43 176.335 329.727 176.628 329.94 177.017C330.152 177.406 330.259 177.875 330.259 178.425V182H329.016V178.612C329.016 178.069 328.88 177.655 328.609 177.369C328.337 177.076 327.967 176.929 327.498 176.929C327.028 176.929 326.654 177.076 326.376 177.369C326.104 177.655 325.969 178.069 325.969 178.612V182H324.715V175.939H325.969V176.632C326.174 176.383 326.434 176.188 326.75 176.049C327.072 175.91 327.413 175.84 327.773 175.84ZM331.44 178.942C331.44 178.333 331.565 177.794 331.814 177.325C332.071 176.856 332.416 176.493 332.848 176.236C333.288 175.972 333.776 175.84 334.311 175.84C334.707 175.84 335.096 175.928 335.477 176.104C335.866 176.273 336.174 176.5 336.401 176.786V173.86H337.666V182H336.401V181.087C336.196 181.38 335.91 181.622 335.543 181.813C335.184 182.004 334.77 182.099 334.3 182.099C333.772 182.099 333.288 181.967 332.848 181.703C332.416 181.432 332.071 181.058 331.814 180.581C331.565 180.097 331.44 179.551 331.44 178.942ZM336.401 178.964C336.401 178.546 336.313 178.183 336.137 177.875C335.969 177.567 335.745 177.332 335.466 177.171C335.188 177.01 334.887 176.929 334.564 176.929C334.242 176.929 333.941 177.01 333.662 177.171C333.384 177.325 333.156 177.556 332.98 177.864C332.812 178.165 332.727 178.524 332.727 178.942C332.727 179.36 332.812 179.727 332.98 180.042C333.156 180.357 333.384 180.599 333.662 180.768C333.948 180.929 334.249 181.01 334.564 181.01C334.887 181.01 335.188 180.929 335.466 180.768C335.745 180.607 335.969 180.372 336.137 180.064C336.313 179.749 336.401 179.382 336.401 178.964ZM341.942 182.099C341.37 182.099 340.853 181.971 340.391 181.714C339.929 181.45 339.566 181.083 339.302 180.614C339.038 180.137 338.906 179.587 338.906 178.964C338.906 178.348 339.042 177.802 339.313 177.325C339.585 176.848 339.955 176.482 340.424 176.225C340.894 175.968 341.418 175.84 341.997 175.84C342.577 175.84 343.101 175.968 343.57 176.225C344.04 176.482 344.41 176.848 344.681 177.325C344.953 177.802 345.088 178.348 345.088 178.964C345.088 179.58 344.949 180.126 344.67 180.603C344.392 181.08 344.01 181.45 343.526 181.714C343.05 181.971 342.522 182.099 341.942 182.099ZM341.942 181.01C342.265 181.01 342.566 180.933 342.844 180.779C343.13 180.625 343.361 180.394 343.537 180.086C343.713 179.778 343.801 179.404 343.801 178.964C343.801 178.524 343.717 178.154 343.548 177.853C343.38 177.545 343.156 177.314 342.877 177.16C342.599 177.006 342.298 176.929 341.975 176.929C341.653 176.929 341.352 177.006 341.073 177.16C340.802 177.314 340.586 177.545 340.424 177.853C340.263 178.154 340.182 178.524 340.182 178.964C340.182 179.617 340.347 180.123 340.677 180.482C341.015 180.834 341.436 181.01 341.942 181.01ZM354.468 175.939L352.587 182H351.267L350.046 177.523L348.825 182H347.505L345.613 175.939H346.889L348.154 180.812L349.441 175.939H350.75L351.982 180.79L353.236 175.939H354.468ZM357.605 182.099C357.128 182.099 356.699 182.015 356.318 181.846C355.944 181.67 355.647 181.435 355.427 181.142C355.207 180.841 355.09 180.508 355.075 180.141H356.373C356.395 180.398 356.516 180.614 356.736 180.79C356.963 180.959 357.246 181.043 357.583 181.043C357.935 181.043 358.206 180.977 358.397 180.845C358.595 180.706 358.694 180.53 358.694 180.317C358.694 180.09 358.584 179.921 358.364 179.811C358.151 179.701 357.81 179.58 357.341 179.448C356.886 179.323 356.516 179.202 356.23 179.085C355.944 178.968 355.695 178.788 355.482 178.546C355.277 178.304 355.174 177.985 355.174 177.589C355.174 177.266 355.269 176.973 355.46 176.709C355.651 176.438 355.922 176.225 356.274 176.071C356.633 175.917 357.044 175.84 357.506 175.84C358.195 175.84 358.749 176.016 359.167 176.368C359.592 176.713 359.82 177.186 359.849 177.787H358.595C358.573 177.516 358.463 177.299 358.265 177.138C358.067 176.977 357.799 176.896 357.462 176.896C357.132 176.896 356.879 176.958 356.703 177.083C356.527 177.208 356.439 177.373 356.439 177.578C356.439 177.739 356.498 177.875 356.615 177.985C356.732 178.095 356.875 178.183 357.044 178.249C357.213 178.308 357.462 178.385 357.792 178.48C358.232 178.597 358.591 178.718 358.87 178.843C359.156 178.96 359.402 179.136 359.607 179.371C359.812 179.606 359.919 179.917 359.926 180.306C359.926 180.651 359.831 180.959 359.64 181.23C359.449 181.501 359.178 181.714 358.826 181.868C358.481 182.022 358.074 182.099 357.605 182.099ZM363.808 175.125V173.981H366.096V182H364.831V175.125H363.808ZM367.654 175.125V173.981H369.942V182H368.677V175.125H367.654ZM377.206 182.077C376.693 182.077 376.231 181.989 375.82 181.813C375.41 181.63 375.087 181.373 374.852 181.043C374.618 180.713 374.5 180.328 374.5 179.888H375.842C375.872 180.218 376 180.489 376.227 180.702C376.462 180.915 376.788 181.021 377.206 181.021C377.639 181.021 377.976 180.918 378.218 180.713C378.46 180.5 378.581 180.229 378.581 179.899C378.581 179.642 378.504 179.433 378.35 179.272C378.204 179.111 378.017 178.986 377.789 178.898C377.569 178.81 377.261 178.715 376.865 178.612C376.367 178.48 375.96 178.348 375.644 178.216C375.336 178.077 375.072 177.864 374.852 177.578C374.632 177.292 374.522 176.911 374.522 176.434C374.522 175.994 374.632 175.609 374.852 175.279C375.072 174.949 375.38 174.696 375.776 174.52C376.172 174.344 376.631 174.256 377.151 174.256C377.892 174.256 378.497 174.443 378.966 174.817C379.443 175.184 379.707 175.69 379.758 176.335H378.372C378.35 176.056 378.218 175.818 377.976 175.62C377.734 175.422 377.415 175.323 377.019 175.323C376.66 175.323 376.367 175.415 376.139 175.598C375.912 175.781 375.798 176.045 375.798 176.39C375.798 176.625 375.868 176.819 376.007 176.973C376.154 177.12 376.337 177.237 376.557 177.325C376.777 177.413 377.078 177.508 377.459 177.611C377.965 177.75 378.376 177.89 378.691 178.029C379.014 178.168 379.285 178.385 379.505 178.678C379.733 178.964 379.846 179.349 379.846 179.833C379.846 180.222 379.74 180.588 379.527 180.933C379.322 181.278 379.018 181.556 378.614 181.769C378.218 181.974 377.749 182.077 377.206 182.077ZM380.908 178.964C380.908 178.341 381.033 177.794 381.282 177.325C381.539 176.848 381.891 176.482 382.338 176.225C382.785 175.968 383.299 175.84 383.878 175.84C384.611 175.84 385.216 176.016 385.693 176.368C386.177 176.713 386.503 177.208 386.672 177.853H385.319C385.209 177.552 385.033 177.318 384.791 177.149C384.549 176.98 384.245 176.896 383.878 176.896C383.365 176.896 382.954 177.079 382.646 177.446C382.345 177.805 382.195 178.311 382.195 178.964C382.195 179.617 382.345 180.126 382.646 180.493C382.954 180.86 383.365 181.043 383.878 181.043C384.604 181.043 385.084 180.724 385.319 180.086H386.672C386.496 180.702 386.166 181.193 385.682 181.56C385.198 181.919 384.597 182.099 383.878 182.099C383.299 182.099 382.785 181.971 382.338 181.714C381.891 181.45 381.539 181.083 381.282 180.614C381.033 180.137 380.908 179.587 380.908 178.964ZM389.176 176.819C389.359 176.511 389.601 176.273 389.902 176.104C390.21 175.928 390.573 175.84 390.991 175.84V177.138H390.672C390.18 177.138 389.806 177.263 389.55 177.512C389.3 177.761 389.176 178.194 389.176 178.81V182H387.922V175.939H389.176V176.819ZM391.725 178.942C391.725 178.333 391.85 177.794 392.099 177.325C392.356 176.856 392.701 176.493 393.133 176.236C393.573 175.972 394.057 175.84 394.585 175.84C395.062 175.84 395.476 175.935 395.828 176.126C396.188 176.309 396.474 176.54 396.686 176.819V175.939H397.951V182H396.686V181.098C396.474 181.384 396.184 181.622 395.817 181.813C395.451 182.004 395.033 182.099 394.563 182.099C394.043 182.099 393.566 181.967 393.133 181.703C392.701 181.432 392.356 181.058 392.099 180.581C391.85 180.097 391.725 179.551 391.725 178.942ZM396.686 178.964C396.686 178.546 396.598 178.183 396.422 177.875C396.254 177.567 396.03 177.332 395.751 177.171C395.473 177.01 395.172 176.929 394.849 176.929C394.527 176.929 394.226 177.01 393.947 177.171C393.669 177.325 393.441 177.556 393.265 177.864C393.097 178.165 393.012 178.524 393.012 178.942C393.012 179.36 393.097 179.727 393.265 180.042C393.441 180.357 393.669 180.599 393.947 180.768C394.233 180.929 394.534 181.01 394.849 181.01C395.172 181.01 395.473 180.929 395.751 180.768C396.03 180.607 396.254 180.372 396.422 180.064C396.598 179.749 396.686 179.382 396.686 178.964ZM401.061 176.962V180.317C401.061 180.544 401.113 180.709 401.215 180.812C401.325 180.907 401.509 180.955 401.765 180.955H402.535V182H401.545C400.981 182 400.548 181.868 400.247 181.604C399.947 181.34 399.796 180.911 399.796 180.317V176.962H399.081V175.939H399.796V174.432H401.061V175.939H402.535V176.962H401.061ZM403.273 178.964C403.273 178.341 403.398 177.794 403.647 177.325C403.904 176.848 404.256 176.482 404.703 176.225C405.151 175.968 405.664 175.84 406.243 175.84C406.977 175.84 407.582 176.016 408.058 176.368C408.542 176.713 408.869 177.208 409.037 177.853H407.684C407.574 177.552 407.398 177.318 407.156 177.149C406.914 176.98 406.61 176.896 406.243 176.896C405.73 176.896 405.319 177.079 405.011 177.446C404.711 177.805 404.56 178.311 404.56 178.964C404.56 179.617 404.711 180.126 405.011 180.493C405.319 180.86 405.73 181.043 406.243 181.043C406.969 181.043 407.45 180.724 407.684 180.086H409.037C408.861 180.702 408.531 181.193 408.047 181.56C407.563 181.919 406.962 182.099 406.243 182.099C405.664 182.099 405.151 181.971 404.703 181.714C404.256 181.45 403.904 181.083 403.647 180.614C403.398 180.137 403.273 179.587 403.273 178.964ZM413.422 175.84C413.884 175.84 414.295 175.939 414.654 176.137C415.021 176.335 415.307 176.628 415.512 177.017C415.725 177.406 415.831 177.875 415.831 178.425V182H414.588V178.612C414.588 178.069 414.452 177.655 414.181 177.369C413.91 177.076 413.539 176.929 413.07 176.929C412.601 176.929 412.227 177.076 411.948 177.369C411.677 177.655 411.541 178.069 411.541 178.612V182H410.287V173.86H411.541V176.643C411.754 176.386 412.021 176.188 412.344 176.049C412.674 175.91 413.033 175.84 413.422 175.84ZM421.542 175.367V177.611H424.182V178.634H421.542V180.977H424.512V182H420.288V174.344H424.512V175.367H421.542ZM425.638 178.942C425.638 178.333 425.763 177.794 426.012 177.325C426.269 176.856 426.614 176.493 427.046 176.236C427.486 175.972 427.974 175.84 428.509 175.84C428.905 175.84 429.294 175.928 429.675 176.104C430.064 176.273 430.372 176.5 430.599 176.786V173.86H431.864V182H430.599V181.087C430.394 181.38 430.108 181.622 429.741 181.813C429.382 182.004 428.968 182.099 428.498 182.099C427.97 182.099 427.486 181.967 427.046 181.703C426.614 181.432 426.269 181.058 426.012 180.581C425.763 180.097 425.638 179.551 425.638 178.942ZM430.599 178.964C430.599 178.546 430.511 178.183 430.335 177.875C430.167 177.567 429.943 177.332 429.664 177.171C429.386 177.01 429.085 176.929 428.762 176.929C428.44 176.929 428.139 177.01 427.86 177.171C427.582 177.325 427.354 177.556 427.178 177.864C427.01 178.165 426.925 178.524 426.925 178.942C426.925 179.36 427.01 179.727 427.178 180.042C427.354 180.357 427.582 180.599 427.86 180.768C428.146 180.929 428.447 181.01 428.762 181.01C429.085 181.01 429.386 180.929 429.664 180.768C429.943 180.607 430.167 180.372 430.335 180.064C430.511 179.749 430.599 179.382 430.599 178.964ZM434.15 175.136C433.922 175.136 433.732 175.059 433.578 174.905C433.424 174.751 433.347 174.56 433.347 174.333C433.347 174.106 433.424 173.915 433.578 173.761C433.732 173.607 433.922 173.53 434.15 173.53C434.37 173.53 434.557 173.607 434.711 173.761C434.865 173.915 434.942 174.106 434.942 174.333C434.942 174.56 434.865 174.751 434.711 174.905C434.557 175.059 434.37 175.136 434.15 175.136ZM434.766 175.939V182H433.512V175.939H434.766ZM437.875 176.962V180.317C437.875 180.544 437.926 180.709 438.029 180.812C438.139 180.907 438.322 180.955 438.579 180.955H439.349V182H438.359C437.794 182 437.362 181.868 437.061 181.604C436.76 181.34 436.61 180.911 436.61 180.317V176.962H435.895V175.939H436.61V174.432H437.875V175.939H439.349V176.962H437.875ZM441.143 175.136C440.915 175.136 440.725 175.059 440.571 174.905C440.417 174.751 440.34 174.56 440.34 174.333C440.34 174.106 440.417 173.915 440.571 173.761C440.725 173.607 440.915 173.53 441.143 173.53C441.363 173.53 441.55 173.607 441.704 173.761C441.858 173.915 441.935 174.106 441.935 174.333C441.935 174.56 441.858 174.751 441.704 174.905C441.55 175.059 441.363 175.136 441.143 175.136ZM441.759 175.939V182H440.505V175.939H441.759ZM446.034 182.099C445.462 182.099 444.945 181.971 444.483 181.714C444.021 181.45 443.658 181.083 443.394 180.614C443.13 180.137 442.998 179.587 442.998 178.964C442.998 178.348 443.134 177.802 443.405 177.325C443.676 176.848 444.047 176.482 444.516 176.225C444.985 175.968 445.51 175.84 446.089 175.84C446.668 175.84 447.193 175.968 447.662 176.225C448.131 176.482 448.502 176.848 448.773 177.325C449.044 177.802 449.18 178.348 449.18 178.964C449.18 179.58 449.041 180.126 448.762 180.603C448.483 181.08 448.102 181.45 447.618 181.714C447.141 181.971 446.613 182.099 446.034 182.099ZM446.034 181.01C446.357 181.01 446.657 180.933 446.936 180.779C447.222 180.625 447.453 180.394 447.629 180.086C447.805 179.778 447.893 179.404 447.893 178.964C447.893 178.524 447.809 178.154 447.64 177.853C447.471 177.545 447.248 177.314 446.969 177.16C446.69 177.006 446.39 176.929 446.067 176.929C445.744 176.929 445.444 177.006 445.165 177.16C444.894 177.314 444.677 177.545 444.516 177.853C444.355 178.154 444.274 178.524 444.274 178.964C444.274 179.617 444.439 180.123 444.769 180.482C445.106 180.834 445.528 181.01 446.034 181.01ZM453.478 175.84C453.954 175.84 454.38 175.939 454.754 176.137C455.135 176.335 455.432 176.628 455.645 177.017C455.857 177.406 455.964 177.875 455.964 178.425V182H454.721V178.612C454.721 178.069 454.585 177.655 454.314 177.369C454.042 177.076 453.672 176.929 453.203 176.929C452.733 176.929 452.359 177.076 452.081 177.369C451.809 177.655 451.674 178.069 451.674 178.612V182H450.42V175.939H451.674V176.632C451.879 176.383 452.139 176.188 452.455 176.049C452.777 175.91 453.118 175.84 453.478 175.84Z"></path>
<path fill="#808080" d="M316.468 234.894C317.304 234.894 318.026 235.048 318.635 235.356C319.244 235.664 319.706 236.097 320.021 236.654C320.344 237.204 320.505 237.846 320.505 238.579C320.505 239.166 320.402 239.727 320.197 240.262C319.999 240.797 319.709 241.234 319.328 241.571C318.954 241.908 318.51 242.077 317.997 242.077C317.623 242.077 317.33 241.996 317.117 241.835C316.904 241.666 316.772 241.432 316.721 241.131C316.494 241.424 316.208 241.655 315.863 241.824C315.518 241.993 315.159 242.077 314.785 242.077C314.22 242.077 313.777 241.908 313.454 241.571C313.139 241.226 312.981 240.761 312.981 240.174C312.981 239.617 313.095 239.096 313.322 238.612C313.557 238.128 313.883 237.743 314.301 237.457C314.719 237.164 315.188 237.017 315.709 237.017C316.347 237.017 316.794 237.233 317.051 237.666L317.15 237.116H318.239L317.689 240.262C317.667 240.416 317.656 240.552 317.656 240.669C317.656 240.86 317.693 241.003 317.766 241.098C317.847 241.193 317.986 241.241 318.184 241.241C318.463 241.241 318.701 241.105 318.899 240.834C319.097 240.555 319.244 240.214 319.339 239.811C319.442 239.408 319.493 239.015 319.493 238.634C319.493 237.703 319.222 236.991 318.679 236.5C318.136 236.009 317.348 235.763 316.314 235.763C315.449 235.763 314.671 235.968 313.982 236.379C313.3 236.79 312.765 237.354 312.376 238.073C311.987 238.792 311.793 239.591 311.793 240.471C311.793 241.41 312.072 242.125 312.629 242.616C313.186 243.107 313.982 243.353 315.016 243.353C315.713 243.353 316.321 243.225 316.842 242.968L317.007 243.804C316.34 244.09 315.592 244.233 314.763 244.233C313.964 244.233 313.263 244.083 312.662 243.782C312.061 243.481 311.595 243.052 311.265 242.495C310.935 241.945 310.77 241.303 310.77 240.57C310.77 239.521 311.012 238.564 311.496 237.699C311.987 236.834 312.666 236.152 313.531 235.653C314.396 235.147 315.375 234.894 316.468 234.894ZM315.17 241.109C315.478 241.109 315.757 241.021 316.006 240.845C316.263 240.662 316.464 240.423 316.611 240.13C316.758 239.829 316.831 239.51 316.831 239.173C316.831 238.821 316.732 238.535 316.534 238.315C316.343 238.088 316.072 237.974 315.72 237.974C315.405 237.974 315.126 238.073 314.884 238.271C314.649 238.462 314.466 238.711 314.334 239.019C314.209 239.327 314.147 239.65 314.147 239.987C314.147 240.332 314.231 240.607 314.4 240.812C314.569 241.01 314.825 241.109 315.17 241.109ZM326.273 234.355V239.866C326.273 240.548 326.064 241.087 325.646 241.483C325.236 241.879 324.693 242.077 324.018 242.077C323.344 242.077 322.797 241.879 322.379 241.483C321.969 241.087 321.763 240.548 321.763 239.866H323.028C323.036 240.203 323.12 240.471 323.281 240.669C323.45 240.867 323.696 240.966 324.018 240.966C324.341 240.966 324.587 240.867 324.755 240.669C324.924 240.464 325.008 240.196 325.008 239.866V234.355H326.273ZM329.567 233.86V242H328.313V233.86H329.567ZM333.843 242.099C333.271 242.099 332.754 241.971 332.292 241.714C331.83 241.45 331.467 241.083 331.203 240.614C330.939 240.137 330.807 239.587 330.807 238.964C330.807 238.348 330.942 237.802 331.214 237.325C331.485 236.848 331.855 236.482 332.325 236.225C332.794 235.968 333.318 235.84 333.898 235.84C334.477 235.84 335.001 235.968 335.471 236.225C335.94 236.482 336.31 236.848 336.582 237.325C336.853 237.802 336.989 238.348 336.989 238.964C336.989 239.58 336.849 240.126 336.571 240.603C336.292 241.08 335.911 241.45 335.427 241.714C334.95 241.971 334.422 242.099 333.843 242.099ZM333.843 241.01C334.165 241.01 334.466 240.933 334.745 240.779C335.031 240.625 335.262 240.394 335.438 240.086C335.614 239.778 335.702 239.404 335.702 238.964C335.702 238.524 335.617 238.154 335.449 237.853C335.28 237.545 335.056 237.314 334.778 237.16C334.499 237.006 334.198 236.929 333.876 236.929C333.553 236.929 333.252 237.006 332.974 237.16C332.702 237.314 332.486 237.545 332.325 237.853C332.163 238.154 332.083 238.524 332.083 238.964C332.083 239.617 332.248 240.123 332.578 240.482C332.915 240.834 333.337 241.01 333.843 241.01ZM342.837 240.438H339.636L339.086 242H337.777L340.516 234.344H341.968L344.707 242H343.387L342.837 240.438ZM342.485 239.415L341.242 235.862L339.988 239.415H342.485ZM351.387 235.939V242H350.133V241.285C349.935 241.534 349.675 241.732 349.352 241.879C349.037 242.018 348.7 242.088 348.34 242.088C347.864 242.088 347.435 241.989 347.053 241.791C346.679 241.593 346.382 241.3 346.162 240.911C345.95 240.522 345.843 240.053 345.843 239.503V235.939H347.086V239.316C347.086 239.859 347.222 240.277 347.493 240.57C347.765 240.856 348.135 240.999 348.604 240.999C349.074 240.999 349.444 240.856 349.715 240.57C349.994 240.277 350.133 239.859 350.133 239.316V235.939H351.387Z"></path>
<path fill="black" d="M211 121C211 119.343 212.343 118 214 118H219V126H211V121Z"></path>
<path fill="black" d="M211 127H219V135H214C212.343 135 211 133.657 211 132V127Z"></path>
<path fill="black" d="M220 127H228V132C228 133.657 226.657 135 225 135H220V127Z"></path>
<path fill="black" d="M220 118H225C226.657 118 228 119.343 228 121V126H220V118Z"></path>
</svg>
