<svg xmlns="http://www.w3.org/2000/svg" fill="none" viewBox="0 0 500 90" height="90" width="500">
<path fill-opacity="0.9" fill="#1B1B1B" d="M20 30C20 24.4772 24.4772 20 30 20H470C475.523 20 480 24.4772 480 30V60C480 65.5228 475.523 70 470 70H30C24.4772 70 20 65.5228 20 60V30Z"></path>
<path stroke-width="2" stroke-opacity="0.2" stroke="white" d="M30 19C23.9249 19 19 23.9249 19 30V60C19 66.0751 23.9249 71 30 71H470C476.075 71 481 66.0751 481 60V30C481 23.9249 476.075 19 470 19H30Z"></path>
</svg>
