<svg xmlns="http://www.w3.org/2000/svg" fill="none" viewBox="0 0 44 24" height="24" width="44">
<path fill-opacity="0.5" fill="#FF0000" d="M2 12C2 6.47715 6.47715 2 12 2H32C37.5228 2 42 6.47715 42 12V12C42 17.5228 37.5228 22 32 22H12C6.47715 22 2 17.5228 2 12V12Z"></path>
<path stroke-width="2" stroke-opacity="0.2" stroke="#FF0000" d="M32 1H12C5.92487 1 1 5.92487 1 12C1 18.0751 5.92487 23 12 23H32C38.0751 23 43 18.0751 43 12C43 5.92487 38.0751 1 32 1Z"></path>
<path fill="white" d="M14.8586 14.176V13.144L18.8906 7.36H20.5466V12.988H21.6626V14.176H20.5466V16H19.2026V14.176H14.8586ZM19.2626 8.752L16.4306 12.988H19.2626V8.752ZM24.5002 13.624C24.5802 14.024 24.7522 14.328 25.0162 14.536C25.2802 14.744 25.6362 14.848 26.0842 14.848C26.6522 14.848 27.0682 14.624 27.3322 14.176C27.5962 13.728 27.7282 12.964 27.7282 11.884C27.5362 12.156 27.2642 12.368 26.9122 12.52C26.5682 12.664 26.1922 12.736 25.7842 12.736C25.2642 12.736 24.7922 12.632 24.3682 12.424C23.9442 12.208 23.6082 11.892 23.3602 11.476C23.1202 11.052 23.0002 10.54 23.0002 9.94C23.0002 9.06 23.2562 8.36 23.7682 7.84C24.2882 7.312 25.0002 7.048 25.9042 7.048C26.9922 7.048 27.7642 7.412 28.2202 8.14C28.6842 8.86 28.9162 9.968 28.9162 11.464C28.9162 12.496 28.8282 13.34 28.6522 13.996C28.4842 14.652 28.1882 15.148 27.7642 15.484C27.3402 15.82 26.7522 15.988 26.0002 15.988C25.1442 15.988 24.4842 15.764 24.0202 15.316C23.5562 14.868 23.2962 14.304 23.2402 13.624H24.5002ZM26.0242 11.584C26.5042 11.584 26.8802 11.436 27.1522 11.14C27.4322 10.836 27.5722 10.436 27.5722 9.94C27.5722 9.388 27.4242 8.96 27.1282 8.656C26.8402 8.344 26.4442 8.188 25.9402 8.188C25.4362 8.188 25.0362 8.348 24.7402 8.668C24.4522 8.98 24.3082 9.392 24.3082 9.904C24.3082 10.392 24.4482 10.796 24.7282 11.116C25.0162 11.428 25.4482 11.584 26.0242 11.584Z"></path>
</svg>
