<svg xmlns="http://www.w3.org/2000/svg" fill="none" viewBox="0 0 480 360" height="360" width="480">
<rect fill-opacity="0.05" fill="white" rx="5" height="30" width="190" y="315" x="30"></rect>
<rect stroke-width="2" stroke-opacity="0.2" stroke="white" rx="6" height="32" width="192" y="314" x="29"></rect>
<path fill="white" d="M75.9231 330.161C75.9231 329.413 76.0954 328.742 76.4401 328.148C76.7921 327.554 77.2651 327.092 77.8591 326.762C78.4604 326.425 79.1168 326.256 79.8281 326.256C80.6421 326.256 81.3644 326.458 81.9951 326.861C82.6331 327.257 83.0951 327.822 83.3811 328.555H81.8741C81.6761 328.152 81.4011 327.851 81.0491 327.653C80.6971 327.455 80.2901 327.356 79.8281 327.356C79.3221 327.356 78.8711 327.47 78.4751 327.697C78.0791 327.924 77.7674 328.251 77.5401 328.676C77.3201 329.101 77.2101 329.596 77.2101 330.161C77.2101 330.726 77.3201 331.221 77.5401 331.646C77.7674 332.071 78.0791 332.401 78.4751 332.636C78.8711 332.863 79.3221 332.977 79.8281 332.977C80.2901 332.977 80.6971 332.878 81.0491 332.68C81.4011 332.482 81.6761 332.181 81.8741 331.778H83.3811C83.0951 332.511 82.6331 333.076 81.9951 333.472C81.3644 333.868 80.6421 334.066 79.8281 334.066C79.1094 334.066 78.4531 333.901 77.8591 333.571C77.2651 333.234 76.7921 332.768 76.4401 332.174C76.0954 331.58 75.9231 330.909 75.9231 330.161ZM86.1029 325.86V334H84.8489V325.86H86.1029ZM90.3783 334.099C89.8063 334.099 89.2893 333.971 88.8273 333.714C88.3653 333.45 88.0023 333.083 87.7383 332.614C87.4743 332.137 87.3423 331.587 87.3423 330.964C87.3423 330.348 87.478 329.802 87.7493 329.325C88.0206 328.848 88.391 328.482 88.8603 328.225C89.3296 327.968 89.854 327.84 90.4333 327.84C91.0126 327.84 91.537 327.968 92.0063 328.225C92.4756 328.482 92.846 328.848 93.1173 329.325C93.3887 329.802 93.5243 330.348 93.5243 330.964C93.5243 331.58 93.385 332.126 93.1063 332.603C92.8277 333.08 92.4463 333.45 91.9623 333.714C91.4856 333.971 90.9576 334.099 90.3783 334.099ZM90.3783 333.01C90.701 333.01 91.0016 332.933 91.2803 332.779C91.5663 332.625 91.7973 332.394 91.9733 332.086C92.1493 331.778 92.2373 331.404 92.2373 330.964C92.2373 330.524 92.153 330.154 91.9843 329.853C91.8156 329.545 91.592 329.314 91.3133 329.16C91.0347 329.006 90.734 328.929 90.4113 328.929C90.0886 328.929 89.788 329.006 89.5093 329.16C89.238 329.314 89.0216 329.545 88.8603 329.853C88.699 330.154 88.6183 330.524 88.6183 330.964C88.6183 331.617 88.7833 332.123 89.1133 332.482C89.4506 332.834 89.8723 333.01 90.3783 333.01ZM96.964 334.099C96.4873 334.099 96.0583 334.015 95.677 333.846C95.303 333.67 95.006 333.435 94.786 333.142C94.566 332.841 94.4486 332.508 94.434 332.141H95.732C95.754 332.398 95.875 332.614 96.095 332.79C96.3223 332.959 96.6046 333.043 96.942 333.043C97.294 333.043 97.5653 332.977 97.756 332.845C97.954 332.706 98.053 332.53 98.053 332.317C98.053 332.09 97.943 331.921 97.723 331.811C97.5103 331.701 97.1693 331.58 96.7 331.448C96.2453 331.323 95.875 331.202 95.589 331.085C95.303 330.968 95.0536 330.788 94.841 330.546C94.6356 330.304 94.533 329.985 94.533 329.589C94.533 329.266 94.6283 328.973 94.819 328.709C95.0096 328.438 95.281 328.225 95.633 328.071C95.9923 327.917 96.403 327.84 96.865 327.84C97.5543 327.84 98.108 328.016 98.526 328.368C98.9513 328.713 99.1786 329.186 99.208 329.787H97.954C97.932 329.516 97.822 329.299 97.624 329.138C97.426 328.977 97.1583 328.896 96.821 328.896C96.491 328.896 96.238 328.958 96.062 329.083C95.886 329.208 95.798 329.373 95.798 329.578C95.798 329.739 95.8566 329.875 95.974 329.985C96.0913 330.095 96.2343 330.183 96.403 330.249C96.5716 330.308 96.821 330.385 97.151 330.48C97.591 330.597 97.9503 330.718 98.229 330.843C98.515 330.96 98.7606 331.136 98.966 331.371C99.1713 331.606 99.2776 331.917 99.285 332.306C99.285 332.651 99.1896 332.959 98.999 333.23C98.8083 333.501 98.537 333.714 98.185 333.868C97.8403 334.022 97.4333 334.099 96.964 334.099ZM106.195 330.821C106.195 331.048 106.18 331.254 106.151 331.437H101.52C101.557 331.921 101.736 332.31 102.059 332.603C102.382 332.896 102.778 333.043 103.247 333.043C103.922 333.043 104.398 332.761 104.677 332.196H106.03C105.847 332.753 105.513 333.212 105.029 333.571C104.552 333.923 103.958 334.099 103.247 334.099C102.668 334.099 102.147 333.971 101.685 333.714C101.23 333.45 100.871 333.083 100.607 332.614C100.35 332.137 100.222 331.587 100.222 330.964C100.222 330.341 100.347 329.794 100.596 329.325C100.853 328.848 101.208 328.482 101.663 328.225C102.125 327.968 102.653 327.84 103.247 327.84C103.819 327.84 104.329 327.965 104.776 328.214C105.223 328.463 105.572 328.815 105.821 329.27C106.07 329.717 106.195 330.234 106.195 330.821ZM104.886 330.425C104.879 329.963 104.714 329.593 104.391 329.314C104.068 329.035 103.669 328.896 103.192 328.896C102.759 328.896 102.389 329.035 102.081 329.314C101.773 329.585 101.59 329.956 101.531 330.425H104.886ZM116.204 335.386L114.862 333.934C114.532 334.029 114.169 334.077 113.773 334.077C113.062 334.077 112.406 333.912 111.804 333.582C111.21 333.245 110.737 332.779 110.385 332.185C110.041 331.584 109.868 330.909 109.868 330.161C109.868 329.413 110.041 328.742 110.385 328.148C110.737 327.554 111.21 327.092 111.804 326.762C112.406 326.425 113.062 326.256 113.773 326.256C114.492 326.256 115.148 326.425 115.742 326.762C116.344 327.092 116.817 327.554 117.161 328.148C117.506 328.742 117.678 329.413 117.678 330.161C117.678 330.865 117.524 331.503 117.216 332.075C116.916 332.64 116.498 333.094 115.962 333.439L117.799 335.386H116.204ZM111.155 330.161C111.155 330.726 111.265 331.224 111.485 331.657C111.713 332.082 112.024 332.412 112.42 332.647C112.816 332.874 113.267 332.988 113.773 332.988C114.279 332.988 114.73 332.874 115.126 332.647C115.522 332.412 115.83 332.082 116.05 331.657C116.278 331.224 116.391 330.726 116.391 330.161C116.391 329.596 116.278 329.101 116.05 328.676C115.83 328.251 115.522 327.924 115.126 327.697C114.73 327.47 114.279 327.356 113.773 327.356C113.267 327.356 112.816 327.47 112.42 327.697C112.024 327.924 111.713 328.251 111.485 328.676C111.265 329.101 111.155 329.596 111.155 330.161ZM124.434 327.939V334H123.18V333.285C122.982 333.534 122.721 333.732 122.399 333.879C122.083 334.018 121.746 334.088 121.387 334.088C120.91 334.088 120.481 333.989 120.1 333.791C119.726 333.593 119.429 333.3 119.209 332.911C118.996 332.522 118.89 332.053 118.89 331.503V327.939H120.133V331.316C120.133 331.859 120.268 332.277 120.54 332.57C120.811 332.856 121.181 332.999 121.651 332.999C122.12 332.999 122.49 332.856 122.762 332.57C123.04 332.277 123.18 331.859 123.18 331.316V327.939H124.434ZM126.726 327.136C126.499 327.136 126.308 327.059 126.154 326.905C126 326.751 125.923 326.56 125.923 326.333C125.923 326.106 126 325.915 126.154 325.761C126.308 325.607 126.499 325.53 126.726 325.53C126.946 325.53 127.133 325.607 127.287 325.761C127.441 325.915 127.518 326.106 127.518 326.333C127.518 326.56 127.441 326.751 127.287 326.905C127.133 327.059 126.946 327.136 126.726 327.136ZM127.342 327.939V334H126.088V327.939H127.342ZM128.571 330.964C128.571 330.341 128.695 329.794 128.945 329.325C129.201 328.848 129.553 328.482 130.001 328.225C130.448 327.968 130.961 327.84 131.541 327.84C132.274 327.84 132.879 328.016 133.356 328.368C133.84 328.713 134.166 329.208 134.335 329.853H132.982C132.872 329.552 132.696 329.318 132.454 329.149C132.212 328.98 131.907 328.896 131.541 328.896C131.027 328.896 130.617 329.079 130.309 329.446C130.008 329.805 129.858 330.311 129.858 330.964C129.858 331.617 130.008 332.126 130.309 332.493C130.617 332.86 131.027 333.043 131.541 333.043C132.267 333.043 132.747 332.724 132.982 332.086H134.335C134.159 332.702 133.829 333.193 133.345 333.56C132.861 333.919 132.259 334.099 131.541 334.099C130.961 334.099 130.448 333.971 130.001 333.714C129.553 333.45 129.201 333.083 128.945 332.614C128.695 332.137 128.571 331.587 128.571 330.964ZM137.982 330.975L140.776 334H139.082L136.838 331.393V334H135.584V325.86H136.838V330.59L139.038 327.939H140.776L137.982 330.975ZM152.585 326.355V334H151.331V328.764L148.999 334H148.13L145.787 328.764V334H144.533V326.355H145.886L148.57 332.35L151.243 326.355H152.585ZM159.788 330.821C159.788 331.048 159.773 331.254 159.744 331.437H155.113C155.149 331.921 155.329 332.31 155.652 332.603C155.974 332.896 156.37 333.043 156.84 333.043C157.514 333.043 157.991 332.761 158.27 332.196H159.623C159.439 332.753 159.106 333.212 158.622 333.571C158.145 333.923 157.551 334.099 156.84 334.099C156.26 334.099 155.74 333.971 155.278 333.714C154.823 333.45 154.464 333.083 154.2 332.614C153.943 332.137 153.815 331.587 153.815 330.964C153.815 330.341 153.939 329.794 154.189 329.325C154.445 328.848 154.801 328.482 155.256 328.225C155.718 327.968 156.246 327.84 156.84 327.84C157.412 327.84 157.921 327.965 158.369 328.214C158.816 328.463 159.164 328.815 159.414 329.27C159.663 329.717 159.788 330.234 159.788 330.821ZM158.479 330.425C158.471 329.963 158.306 329.593 157.984 329.314C157.661 329.035 157.261 328.896 156.785 328.896C156.352 328.896 155.982 329.035 155.674 329.314C155.366 329.585 155.182 329.956 155.124 330.425H158.479ZM164.08 327.84C164.556 327.84 164.982 327.939 165.356 328.137C165.737 328.335 166.034 328.628 166.247 329.017C166.459 329.406 166.566 329.875 166.566 330.425V334H165.323V330.612C165.323 330.069 165.187 329.655 164.916 329.369C164.644 329.076 164.274 328.929 163.805 328.929C163.335 328.929 162.961 329.076 162.683 329.369C162.411 329.655 162.276 330.069 162.276 330.612V334H161.022V327.939H162.276V328.632C162.481 328.383 162.741 328.188 163.057 328.049C163.379 327.91 163.72 327.84 164.08 327.84ZM173.654 327.939V334H172.4V333.285C172.202 333.534 171.942 333.732 171.619 333.879C171.304 334.018 170.967 334.088 170.607 334.088C170.131 334.088 169.702 333.989 169.32 333.791C168.946 333.593 168.649 333.3 168.429 332.911C168.217 332.522 168.11 332.053 168.11 331.503V327.939H169.353V331.316C169.353 331.859 169.489 332.277 169.76 332.57C170.032 332.856 170.402 332.999 170.871 332.999C171.341 332.999 171.711 332.856 171.982 332.57C172.261 332.277 172.4 331.859 172.4 331.316V327.939H173.654Z"></path>
</svg>
