<svg xmlns="http://www.w3.org/2000/svg" fill="none" viewBox="0 0 480 360" height="360" width="480">
<path fill="white" d="M64.068 256.355V261.228C64.068 261.807 64.2183 262.244 64.519 262.537C64.827 262.83 65.2523 262.977 65.795 262.977C66.345 262.977 66.7703 262.83 67.071 262.537C67.379 262.244 67.533 261.807 67.533 261.228V256.355H68.787V261.206C68.787 261.829 68.6513 262.357 68.38 262.79C68.1087 263.223 67.7457 263.545 67.291 263.758C66.8363 263.971 66.334 264.077 65.784 264.077C65.234 264.077 64.7317 263.971 64.277 263.758C63.8297 263.545 63.474 263.223 63.21 262.79C62.946 262.357 62.814 261.829 62.814 261.206V256.355H64.068ZM73.4777 257.84C73.9544 257.84 74.3797 257.939 74.7537 258.137C75.1351 258.335 75.4321 258.628 75.6447 259.017C75.8574 259.406 75.9637 259.875 75.9637 260.425V264H74.7207V260.612C74.7207 260.069 74.5851 259.655 74.3137 259.369C74.0424 259.076 73.6721 258.929 73.2027 258.929C72.7334 258.929 72.3594 259.076 72.0807 259.369C71.8094 259.655 71.6737 260.069 71.6737 260.612V264H70.4197V257.939H71.6737V258.632C71.8791 258.383 72.1394 258.188 72.4547 258.049C72.7774 257.91 73.1184 257.84 73.4777 257.84ZM78.2013 257.136C77.9739 257.136 77.7833 257.059 77.6293 256.905C77.4753 256.751 77.3983 256.56 77.3983 256.333C77.3983 256.106 77.4753 255.915 77.6293 255.761C77.7833 255.607 77.9739 255.53 78.2013 255.53C78.4213 255.53 78.6083 255.607 78.7623 255.761C78.9163 255.915 78.9933 256.106 78.9933 256.333C78.9933 256.56 78.9163 256.751 78.7623 256.905C78.6083 257.059 78.4213 257.136 78.2013 257.136ZM78.8173 257.939V264H77.5633V257.939H78.8173ZM83.5217 257.84C83.9983 257.84 84.4237 257.939 84.7977 258.137C85.179 258.335 85.476 258.628 85.6887 259.017C85.9013 259.406 86.0077 259.875 86.0077 260.425V264H84.7647V260.612C84.7647 260.069 84.629 259.655 84.3577 259.369C84.0863 259.076 83.716 258.929 83.2467 258.929C82.7773 258.929 82.4033 259.076 82.1247 259.369C81.8533 259.655 81.7177 260.069 81.7177 260.612V264H80.4637V257.939H81.7177V258.632C81.923 258.383 82.1833 258.188 82.4987 258.049C82.8213 257.91 83.1623 257.84 83.5217 257.84ZM89.8072 264.099C89.3306 264.099 88.9016 264.015 88.5202 263.846C88.1462 263.67 87.8492 263.435 87.6292 263.142C87.4092 262.841 87.2919 262.508 87.2772 262.141H88.5752C88.5972 262.398 88.7182 262.614 88.9382 262.79C89.1656 262.959 89.4479 263.043 89.7852 263.043C90.1372 263.043 90.4086 262.977 90.5992 262.845C90.7972 262.706 90.8962 262.53 90.8962 262.317C90.8962 262.09 90.7862 261.921 90.5662 261.811C90.3536 261.701 90.0126 261.58 89.5432 261.448C89.0886 261.323 88.7182 261.202 88.4322 261.085C88.1462 260.968 87.8969 260.788 87.6842 260.546C87.4789 260.304 87.3762 259.985 87.3762 259.589C87.3762 259.266 87.4716 258.973 87.6622 258.709C87.8529 258.438 88.1242 258.225 88.4762 258.071C88.8356 257.917 89.2462 257.84 89.7082 257.84C90.3976 257.84 90.9512 258.016 91.3692 258.368C91.7946 258.713 92.0219 259.186 92.0512 259.787H90.7972C90.7752 259.516 90.6652 259.299 90.4672 259.138C90.2692 258.977 90.0016 258.896 89.6642 258.896C89.3342 258.896 89.0812 258.958 88.9052 259.083C88.7292 259.208 88.6412 259.373 88.6412 259.578C88.6412 259.739 88.6999 259.875 88.8172 259.985C88.9346 260.095 89.0776 260.183 89.2462 260.249C89.4149 260.308 89.6642 260.385 89.9942 260.48C90.4342 260.597 90.7936 260.718 91.0722 260.843C91.3582 260.96 91.6039 261.136 91.8092 261.371C92.0146 261.606 92.1209 261.917 92.1282 262.306C92.1282 262.651 92.0329 262.959 91.8422 263.23C91.6516 263.501 91.3802 263.714 91.0282 263.868C90.6836 264.022 90.2766 264.099 89.8072 264.099ZM94.9462 258.962V262.317C94.9462 262.544 94.9975 262.709 95.1002 262.812C95.2102 262.907 95.3935 262.955 95.6502 262.955H96.4202V264H95.4302C94.8655 264 94.4329 263.868 94.1322 263.604C93.8315 263.34 93.6812 262.911 93.6812 262.317V258.962H92.9662V257.939H93.6812V256.432H94.9462V257.939H96.4202V258.962H94.9462ZM97.158 260.942C97.158 260.333 97.2826 259.794 97.532 259.325C97.7886 258.856 98.1333 258.493 98.566 258.236C99.006 257.972 99.49 257.84 100.018 257.84C100.495 257.84 100.909 257.935 101.261 258.126C101.62 258.309 101.906 258.54 102.119 258.819V257.939H103.384V264H102.119V263.098C101.906 263.384 101.617 263.622 101.25 263.813C100.883 264.004 100.465 264.099 99.996 264.099C99.4753 264.099 98.9986 263.967 98.566 263.703C98.1333 263.432 97.7886 263.058 97.532 262.581C97.2826 262.097 97.158 261.551 97.158 260.942ZM102.119 260.964C102.119 260.546 102.031 260.183 101.855 259.875C101.686 259.567 101.463 259.332 101.184 259.171C100.905 259.01 100.605 258.929 100.282 258.929C99.9593 258.929 99.6586 259.01 99.38 259.171C99.1013 259.325 98.874 259.556 98.698 259.864C98.5293 260.165 98.445 260.524 98.445 260.942C98.445 261.36 98.5293 261.727 98.698 262.042C98.874 262.357 99.1013 262.599 99.38 262.768C99.666 262.929 99.9666 263.01 100.282 263.01C100.605 263.01 100.905 262.929 101.184 262.768C101.463 262.607 101.686 262.372 101.855 262.064C102.031 261.749 102.119 261.382 102.119 260.964ZM106.285 255.86V264H105.031V255.86H106.285ZM109.185 255.86V264H107.931V255.86H109.185Z"></path>
<path stroke-linejoin="round" stroke-linecap="round" stroke-width="1.1" stroke="white" d="M33.5 254.5H34.5M46.5 254.5H45.5M45.5 254.5L44.642 265.653C44.5619 266.695 43.693 267.5 42.6479 267.5H37.3521C36.307 267.5 35.4381 266.695 35.358 265.653L34.5 254.5M45.5 254.5H34.5M41.5 254V254C41.5 253.172 40.8284 252.5 40 252.5V252.5C39.1716 252.5 38.5 253.172 38.5 254V254M41.5 263.5V258.5M38.5 263.5V258.5"></path>
</svg>
