<svg xmlns="http://www.w3.org/2000/svg" fill="none" viewBox="0 0 480 360" height="360" width="480">
<rect fill-opacity="0.05" fill="white" rx="5" height="30" width="30" y="215" x="170"></rect>
<path stroke-linejoin="round" stroke-linecap="round" stroke-width="0.875" stroke="white" d="M188.938 225.188H182.812C180.396 225.188 178.438 227.146 178.438 229.562V230.425C178.438 231.289 178.693 232.134 179.172 232.852L179.312 233.062M188.938 225.188L187.188 223.438M188.938 225.188L187.188 226.938M190.688 226.938L190.828 227.148C191.307 227.866 191.562 228.711 191.562 229.575V229.852C191.562 230.944 191.4 232.031 191.079 233.076L190.688 234.354M181.062 234.812L182.812 236.562M181.062 234.812L182.812 233.062M181.062 234.812H186.842"></path>
<path fill="white" d="M185 233.5C185 231.567 186.567 230 188.5 230V230C190.433 230 192 231.567 192 233.5V233.5H189V232C189 231.724 188.776 231.5 188.5 231.5V231.5C188.224 231.5 188 231.724 188 232V235C188 235.276 188.224 235.5 188.5 235.5V235.5C188.776 235.5 189 235.276 189 235V233.5H192V233.5C192 235.433 190.433 237 188.5 237V237C186.567 237 185 235.433 185 233.5V233.5Z"></path>
</svg>
