<svg xmlns="http://www.w3.org/2000/svg" fill="none" viewBox="0 0 44 24" height="24" width="44">
<path fill-opacity="0.5" fill="#FF0000" d="M2 12C2 6.47715 6.47715 2 12 2H32C37.5228 2 42 6.47715 42 12V12C42 17.5228 37.5228 22 32 22H12C6.47715 22 2 17.5228 2 12V12Z"></path>
<path stroke-width="2" stroke-opacity="0.2" stroke="#FF0000" d="M32 1H12C5.92487 1 1 5.92487 1 12C1 18.0751 5.92487 23 12 23H32C38.0751 23 43 18.0751 43 12C43 5.92487 38.0751 1 32 1Z"></path>
<path fill="white" d="M16.6162 8.5V7.252H19.1122V16H17.7322V8.5H16.6162ZM22.4675 11.428C21.6355 11.012 21.2195 10.356 21.2195 9.46C21.2195 9.028 21.3275 8.632 21.5435 8.272C21.7595 7.912 22.0835 7.628 22.5155 7.42C22.9475 7.204 23.4755 7.096 24.0995 7.096C24.7155 7.096 25.2395 7.204 25.6715 7.42C26.1115 7.628 26.4395 7.912 26.6555 8.272C26.8715 8.632 26.9795 9.028 26.9795 9.46C26.9795 9.908 26.8635 10.304 26.6315 10.648C26.4075 10.984 26.1075 11.244 25.7315 11.428C26.1875 11.596 26.5475 11.872 26.8115 12.256C27.0755 12.632 27.2075 13.076 27.2075 13.588C27.2075 14.108 27.0755 14.568 26.8115 14.968C26.5475 15.368 26.1795 15.676 25.7075 15.892C25.2355 16.108 24.6995 16.216 24.0995 16.216C23.4995 16.216 22.9635 16.108 22.4915 15.892C22.0275 15.676 21.6635 15.368 21.3995 14.968C21.1355 14.568 21.0035 14.108 21.0035 13.588C21.0035 13.068 21.1355 12.62 21.3995 12.244C21.6635 11.868 22.0195 11.596 22.4675 11.428ZM25.6715 9.628C25.6715 9.18 25.5315 8.836 25.2515 8.596C24.9715 8.356 24.5875 8.236 24.0995 8.236C23.6195 8.236 23.2395 8.356 22.9595 8.596C22.6795 8.836 22.5395 9.184 22.5395 9.64C22.5395 10.04 22.6835 10.368 22.9715 10.624C23.2675 10.872 23.6435 10.996 24.0995 10.996C24.5555 10.996 24.9315 10.868 25.2275 10.612C25.5235 10.356 25.6715 10.028 25.6715 9.628ZM24.0995 12.028C23.5715 12.028 23.1395 12.16 22.8035 12.424C22.4755 12.68 22.3115 13.052 22.3115 13.54C22.3115 13.996 22.4715 14.368 22.7915 14.656C23.1115 14.936 23.5475 15.076 24.0995 15.076C24.6435 15.076 25.0715 14.932 25.3835 14.644C25.7035 14.356 25.8635 13.988 25.8635 13.54C25.8635 13.06 25.6995 12.688 25.3715 12.424C25.0515 12.16 24.6275 12.028 24.0995 12.028Z"></path>
</svg>
