<svg xmlns="http://www.w3.org/2000/svg" fill="none" viewBox="0 0 480 360" height="360" width="480">
<path fill="white" d="M101.4 224H100.8C99.8059 224 99 224.806 99 225.8V234.2C99 235.194 99.8059 236 100.8 236H101.4C102.394 236 103.2 235.194 103.2 234.2V225.8C103.2 224.806 102.394 224 101.4 224Z"></path>
<path fill="white" d="M109.2 224H108.6C107.606 224 106.8 224.806 106.8 225.8V234.2C106.8 235.194 107.606 236 108.6 236H109.2C110.194 236 111 235.194 111 234.2V225.8C111 224.806 110.194 224 109.2 224Z"></path>
</svg>
