<svg xmlns="http://www.w3.org/2000/svg" fill="none" viewBox="0 0 504 384" height="384" width="504">
<path fill="#E6E6E6" d="M2 12C2 6.47716 6.47715 2 12 2L492 2C497.523 2 502 6.47715 502 12L502 372C502 377.523 497.523 382 492 382L12 382C6.47713 382 1.99999 377.523 1.99999 372L2 12Z"></path>
<path stroke-width="2" stroke-opacity="0.2" stroke="black" d="M492 1L12 1C5.92487 1 1 5.92488 1 12L0.999985 372C0.999985 378.075 5.92484 383 12 383L492 383C498.075 383 503 378.075 503 372L503 12C503 5.92487 498.075 1 492 1Z"></path>
<rect fill="url(#paint0_linear_432_2)" rx="8" height="30" width="72" y="210" x="216"></rect>
<rect fill="url(#paint1_linear_432_2)" rx="8" height="36" width="72" y="198" x="216"></rect>
<rect fill="url(#paint2_linear_432_2)" rx="8" height="78" width="72" y="150" x="216"></rect>
<rect fill="#057093" rx="3" height="12" width="6" y="144" x="228"></rect>
<rect fill="#057093" rx="3" height="12" width="6" y="144" x="241.98"></rect>
<rect fill="#057093" rx="3" height="12" width="6" y="144" x="256.02"></rect>
<rect fill="#057093" rx="3" height="12" width="6" y="144" x="270"></rect>
<rect fill="#057093" rx="3" height="6" width="48" y="168" x="228"></rect>
<rect fill="#057093" rx="3" height="6" width="48" y="186" x="228"></rect>
<rect fill="#057093" rx="3" height="6" width="48" y="204" x="228"></rect>
<defs>
<linearGradient gradientUnits="userSpaceOnUse" y2="240" x2="252" y1="232.5" x1="252" id="paint0_linear_432_2">
<stop stop-color="#7D3E08"></stop>
<stop stop-color="#AA540C" offset="1"></stop>
</linearGradient>
<linearGradient gradientUnits="userSpaceOnUse" y2="234" x2="252" y1="225" x1="252" id="paint1_linear_432_2">
<stop stop-color="#D3D3D3"></stop>
<stop stop-color="#E4E4E4" offset="1"></stop>
</linearGradient>
<linearGradient gradientUnits="userSpaceOnUse" y2="228" x2="252" y1="150" x1="252" id="paint2_linear_432_2">
<stop stop-color="#7DD8F3"></stop>
<stop stop-color="#57BDDC" offset="1"></stop>
</linearGradient>
</defs>
</svg>
