<svg xmlns="http://www.w3.org/2000/svg" fill="none" viewBox="0 0 122 142" height="142" width="122">
<path fill-opacity="0.9" fill="#CCCCCC" d="M1 11C1 5.47716 5.47715 1 11 1H111C116.523 1 121 5.47715 121 11V131C121 136.523 116.523 141 111 141H11C5.47715 141 1 136.523 1 131V11Z"></path>
<path stroke-opacity="0.2" stroke="white" d="M111 0.5H11C5.20101 0.5 0.5 5.20101 0.5 11V131C0.5 136.799 5.20101 141.5 11 141.5H111C116.799 141.5 121.5 136.799 121.5 131V11C121.5 5.20101 116.799 0.5 111 0.5Z"></path>
<path fill="black" d="M17.358 94.555C17.16 94.1737 16.885 93.8877 16.533 93.697C16.181 93.499 15.774 93.4 15.312 93.4C14.806 93.4 14.355 93.5137 13.959 93.741C13.563 93.9683 13.2513 94.291 13.024 94.709C12.804 95.127 12.694 95.611 12.694 96.161C12.694 96.711 12.804 97.1987 13.024 97.624C13.2513 98.042 13.563 98.3647 13.959 98.592C14.355 98.8193 14.806 98.933 15.312 98.933C15.994 98.933 16.5477 98.7423 16.973 98.361C17.3983 97.9797 17.6587 97.4627 17.754 96.81H14.883V95.809H19.096V96.788C19.0153 97.382 18.8027 97.9283 18.458 98.427C18.1207 98.9257 17.677 99.3253 17.127 99.626C16.5843 99.9193 15.9793 100.066 15.312 100.066C14.5933 100.066 13.937 99.901 13.343 99.571C12.749 99.2337 12.276 98.768 11.924 98.174C11.5793 97.58 11.407 96.909 11.407 96.161C11.407 95.413 11.5793 94.742 11.924 94.148C12.276 93.554 12.749 93.092 13.343 92.762C13.9443 92.4247 14.6007 92.256 15.312 92.256C16.126 92.256 16.8483 92.4577 17.479 92.861C18.117 93.257 18.579 93.8217 18.865 94.555H17.358ZM22.9618 100.099C22.3898 100.099 21.8728 99.9707 21.4108 99.714C20.9488 99.45 20.5858 99.0833 20.3218 98.614C20.0578 98.1373 19.9258 97.5873 19.9258 96.964C19.9258 96.348 20.0615 95.8017 20.3328 95.325C20.6041 94.8483 20.9745 94.4817 21.4438 94.225C21.9131 93.9683 22.4375 93.84 23.0168 93.84C23.5961 93.84 24.1205 93.9683 24.5898 94.225C25.0591 94.4817 25.4295 94.8483 25.7008 95.325C25.9721 95.8017 26.1078 96.348 26.1078 96.964C26.1078 97.58 25.9685 98.1263 25.6898 98.603C25.4111 99.0797 25.0298 99.45 24.5458 99.714C24.0691 99.9707 23.5411 100.099 22.9618 100.099ZM22.9618 99.01C23.2845 99.01 23.5851 98.933 23.8638 98.779C24.1498 98.625 24.3808 98.394 24.5568 98.086C24.7328 97.778 24.8208 97.404 24.8208 96.964C24.8208 96.524 24.7365 96.1537 24.5678 95.853C24.3991 95.545 24.1755 95.314 23.8968 95.16C23.6181 95.006 23.3175 94.929 22.9948 94.929C22.6721 94.929 22.3715 95.006 22.0928 95.16C21.8215 95.314 21.6051 95.545 21.4438 95.853C21.2825 96.1537 21.2018 96.524 21.2018 96.964C21.2018 97.6167 21.3668 98.1227 21.6968 98.482C22.0341 98.834 22.4558 99.01 22.9618 99.01ZM29.9765 100.099C29.4045 100.099 28.8875 99.9707 28.4255 99.714C27.9635 99.45 27.6005 99.0833 27.3365 98.614C27.0725 98.1373 26.9405 97.5873 26.9405 96.964C26.9405 96.348 27.0761 95.8017 27.3475 95.325C27.6188 94.8483 27.9891 94.4817 28.4585 94.225C28.9278 93.9683 29.4521 93.84 30.0315 93.84C30.6108 93.84 31.1351 93.9683 31.6045 94.225C32.0738 94.4817 32.4441 94.8483 32.7155 95.325C32.9868 95.8017 33.1225 96.348 33.1225 96.964C33.1225 97.58 32.9831 98.1263 32.7045 98.603C32.4258 99.0797 32.0445 99.45 31.5605 99.714C31.0838 99.9707 30.5558 100.099 29.9765 100.099ZM29.9765 99.01C30.2991 99.01 30.5998 98.933 30.8785 98.779C31.1645 98.625 31.3955 98.394 31.5715 98.086C31.7475 97.778 31.8355 97.404 31.8355 96.964C31.8355 96.524 31.7511 96.1537 31.5825 95.853C31.4138 95.545 31.1901 95.314 30.9115 95.16C30.6328 95.006 30.3321 94.929 30.0095 94.929C29.6868 94.929 29.3861 95.006 29.1075 95.16C28.8361 95.314 28.6198 95.545 28.4585 95.853C28.2971 96.1537 28.2165 96.524 28.2165 96.964C28.2165 97.6167 28.3815 98.1227 28.7115 98.482C29.0488 98.834 29.4705 99.01 29.9765 99.01ZM33.9441 96.942C33.9441 96.3333 34.0688 95.7943 34.3181 95.325C34.5748 94.8557 34.9194 94.4927 35.3521 94.236C35.7921 93.972 36.2798 93.84 36.8151 93.84C37.2111 93.84 37.5998 93.928 37.9811 94.104C38.3698 94.2727 38.6778 94.5 38.9051 94.786V91.86H40.1701V100H38.9051V99.087C38.6998 99.3803 38.4138 99.6223 38.0471 99.813C37.6878 100.004 37.2734 100.099 36.8041 100.099C36.2761 100.099 35.7921 99.967 35.3521 99.703C34.9194 99.4317 34.5748 99.0577 34.3181 98.581C34.0688 98.097 33.9441 97.5507 33.9441 96.942ZM38.9051 96.964C38.9051 96.546 38.8171 96.183 38.6411 95.875C38.4724 95.567 38.2488 95.3323 37.9701 95.171C37.6914 95.0097 37.3908 94.929 37.0681 94.929C36.7454 94.929 36.4448 95.0097 36.1661 95.171C35.8874 95.325 35.6601 95.556 35.4841 95.864C35.3154 96.1647 35.2311 96.524 35.2311 96.942C35.2311 97.36 35.3154 97.7267 35.4841 98.042C35.6601 98.3573 35.8874 98.5993 36.1661 98.768C36.4521 98.9293 36.7528 99.01 37.0681 99.01C37.3908 99.01 37.6914 98.9293 37.9701 98.768C38.2488 98.6067 38.4724 98.372 38.6411 98.064C38.8171 97.7487 38.9051 97.382 38.9051 96.964ZM50.2076 94.555C50.0096 94.1737 49.7346 93.8877 49.3826 93.697C49.0306 93.499 48.6236 93.4 48.1616 93.4C47.6556 93.4 47.2046 93.5137 46.8086 93.741C46.4126 93.9683 46.1009 94.291 45.8736 94.709C45.6536 95.127 45.5436 95.611 45.5436 96.161C45.5436 96.711 45.6536 97.1987 45.8736 97.624C46.1009 98.042 46.4126 98.3647 46.8086 98.592C47.2046 98.8193 47.6556 98.933 48.1616 98.933C48.8436 98.933 49.3973 98.7423 49.8226 98.361C50.2479 97.9797 50.5083 97.4627 50.6036 96.81H47.7326V95.809H51.9456V96.788C51.8649 97.382 51.6523 97.9283 51.3076 98.427C50.9703 98.9257 50.5266 99.3253 49.9766 99.626C49.4339 99.9193 48.8289 100.066 48.1616 100.066C47.4429 100.066 46.7866 99.901 46.1926 99.571C45.5986 99.2337 45.1256 98.768 44.7736 98.174C44.4289 97.58 44.2566 96.909 44.2566 96.161C44.2566 95.413 44.4289 94.742 44.7736 94.148C45.1256 93.554 45.5986 93.092 46.1926 92.762C46.7939 92.4247 47.4503 92.256 48.1616 92.256C48.9756 92.256 49.6979 92.4577 50.3286 92.861C50.9666 93.257 51.4286 93.8217 51.7146 94.555H50.2076ZM55.8114 100.099C55.2394 100.099 54.7224 99.9707 54.2604 99.714C53.7984 99.45 53.4354 99.0833 53.1714 98.614C52.9074 98.1373 52.7754 97.5873 52.7754 96.964C52.7754 96.348 52.9111 95.8017 53.1824 95.325C53.4538 94.8483 53.8241 94.4817 54.2934 94.225C54.7628 93.9683 55.2871 93.84 55.8664 93.84C56.4458 93.84 56.9701 93.9683 57.4394 94.225C57.9088 94.4817 58.2791 94.8483 58.5504 95.325C58.8218 95.8017 58.9574 96.348 58.9574 96.964C58.9574 97.58 58.8181 98.1263 58.5394 98.603C58.2608 99.0797 57.8794 99.45 57.3954 99.714C56.9188 99.9707 56.3908 100.099 55.8114 100.099ZM55.8114 99.01C56.1341 99.01 56.4348 98.933 56.7134 98.779C56.9994 98.625 57.2304 98.394 57.4064 98.086C57.5824 97.778 57.6704 97.404 57.6704 96.964C57.6704 96.524 57.5861 96.1537 57.4174 95.853C57.2488 95.545 57.0251 95.314 56.7464 95.16C56.4678 95.006 56.1671 94.929 55.8444 94.929C55.5218 94.929 55.2211 95.006 54.9424 95.16C54.6711 95.314 54.4548 95.545 54.2934 95.853C54.1321 96.1537 54.0514 96.524 54.0514 96.964C54.0514 97.6167 54.2164 98.1227 54.5464 98.482C54.8838 98.834 55.3054 99.01 55.8114 99.01ZM59.7791 96.942C59.7791 96.3333 59.9037 95.7943 60.1531 95.325C60.4097 94.8557 60.7544 94.4927 61.1871 94.236C61.6271 93.972 62.1147 93.84 62.6501 93.84C63.0461 93.84 63.4347 93.928 63.8161 94.104C64.2047 94.2727 64.5127 94.5 64.7401 94.786V91.86H66.0051V100H64.7401V99.087C64.5347 99.3803 64.2487 99.6223 63.8821 99.813C63.5227 100.004 63.1084 100.099 62.6391 100.099C62.1111 100.099 61.6271 99.967 61.1871 99.703C60.7544 99.4317 60.4097 99.0577 60.1531 98.581C59.9037 98.097 59.7791 97.5507 59.7791 96.942ZM64.7401 96.964C64.7401 96.546 64.6521 96.183 64.4761 95.875C64.3074 95.567 64.0837 95.3323 63.8051 95.171C63.5264 95.0097 63.2257 94.929 62.9031 94.929C62.5804 94.929 62.2797 95.0097 62.0011 95.171C61.7224 95.325 61.4951 95.556 61.3191 95.864C61.1504 96.1647 61.0661 96.524 61.0661 96.942C61.0661 97.36 61.1504 97.7267 61.3191 98.042C61.4951 98.3573 61.7224 98.5993 62.0011 98.768C62.2871 98.9293 62.5877 99.01 62.9031 99.01C63.2257 99.01 63.5264 98.9293 63.8051 98.768C64.0837 98.6067 64.3074 98.372 64.4761 98.064C64.6521 97.7487 64.7401 97.382 64.7401 96.964Z"></path>
<path fill="#695657" d="M1 11C1 5.47715 5.47715 1 11 1H111C116.523 1 121 5.47715 121 11V81H1V11Z"></path>
<path fill-opacity="0.5" fill="white" d="M1 11C1 5.47715 5.47715 1 11 1H111C116.523 1 121 5.47715 121 11V81H1V11Z"></path>
<path fill-opacity="0.05" fill="black" d="M61 116C61 113.239 63.2386 111 66 111H106C108.761 111 111 113.239 111 116V126C111 128.761 108.761 131 106 131H66C63.2386 131 61 128.761 61 126V116Z"></path>
<path fill="black" d="M80.0838 117.745V124H79.0578V119.716L77.1498 124H76.4388L74.5218 119.716V124H73.4958V117.745H74.6028L76.7988 122.65L78.9858 117.745H80.0838ZM85.9233 119.041V124H84.8973V123.415C84.7353 123.619 84.5223 123.781 84.2583 123.901C84.0003 124.015 83.7243 124.072 83.4303 124.072C83.0403 124.072 82.6893 123.991 82.3773 123.829C82.0713 123.667 81.8283 123.427 81.6483 123.109C81.4743 122.791 81.3873 122.407 81.3873 121.957V119.041H82.4043V121.804C82.4043 122.248 82.5153 122.59 82.7373 122.83C82.9593 123.064 83.2623 123.181 83.6463 123.181C84.0303 123.181 84.3333 123.064 84.5553 122.83C84.7833 122.59 84.8973 122.248 84.8973 121.804V119.041H85.9233ZM89.0771 124.081C88.6871 124.081 88.3361 124.012 88.0241 123.874C87.7181 123.73 87.4751 123.538 87.2951 123.298C87.1151 123.052 87.0191 122.779 87.0071 122.479H88.0691C88.0871 122.689 88.1861 122.866 88.3661 123.01C88.5521 123.148 88.7831 123.217 89.0591 123.217C89.3471 123.217 89.5691 123.163 89.7251 123.055C89.8871 122.941 89.9681 122.797 89.9681 122.623C89.9681 122.437 89.8781 122.299 89.6981 122.209C89.5241 122.119 89.2451 122.02 88.8611 121.912C88.4891 121.81 88.1861 121.711 87.9521 121.615C87.7181 121.519 87.5141 121.372 87.3401 121.174C87.1721 120.976 87.0881 120.715 87.0881 120.391C87.0881 120.127 87.1661 119.887 87.3221 119.671C87.4781 119.449 87.7001 119.275 87.9881 119.149C88.2821 119.023 88.6181 118.96 88.9961 118.96C89.5601 118.96 90.0131 119.104 90.3551 119.392C90.7031 119.674 90.8891 120.061 90.9131 120.553H89.8871C89.8691 120.331 89.7791 120.154 89.6171 120.022C89.4551 119.89 89.2361 119.824 88.9601 119.824C88.6901 119.824 88.4831 119.875 88.3391 119.977C88.1951 120.079 88.1231 120.214 88.1231 120.382C88.1231 120.514 88.1711 120.625 88.2671 120.715C88.3631 120.805 88.4801 120.877 88.6181 120.931C88.7561 120.979 88.9601 121.042 89.2301 121.12C89.5901 121.216 89.8841 121.315 90.1121 121.417C90.3461 121.513 90.5471 121.657 90.7151 121.849C90.8831 122.041 90.9701 122.296 90.9761 122.614C90.9761 122.896 90.8981 123.148 90.7421 123.37C90.5861 123.592 90.3641 123.766 90.0761 123.892C89.7941 124.018 89.4611 124.081 89.0771 124.081ZM92.6067 118.384C92.4207 118.384 92.2647 118.321 92.1387 118.195C92.0127 118.069 91.9497 117.913 91.9497 117.727C91.9497 117.541 92.0127 117.385 92.1387 117.259C92.2647 117.133 92.4207 117.07 92.6067 117.07C92.7867 117.07 92.9397 117.133 93.0657 117.259C93.1917 117.385 93.2547 117.541 93.2547 117.727C93.2547 117.913 93.1917 118.069 93.0657 118.195C92.9397 118.321 92.7867 118.384 92.6067 118.384ZM93.1107 119.041V124H92.0847V119.041H93.1107ZM94.1157 121.516C94.1157 121.006 94.2177 120.559 94.4217 120.175C94.6317 119.785 94.9197 119.485 95.2857 119.275C95.6517 119.065 96.0717 118.96 96.5457 118.96C97.1457 118.96 97.6407 119.104 98.0307 119.392C98.4267 119.674 98.6937 120.079 98.8317 120.607H97.7247C97.6347 120.361 97.4907 120.169 97.2927 120.031C97.0947 119.893 96.8457 119.824 96.5457 119.824C96.1257 119.824 95.7897 119.974 95.5377 120.274C95.2917 120.568 95.1687 120.982 95.1687 121.516C95.1687 122.05 95.2917 122.467 95.5377 122.767C95.7897 123.067 96.1257 123.217 96.5457 123.217C97.1397 123.217 97.5327 122.956 97.7247 122.434H98.8317C98.6877 122.938 98.4177 123.34 98.0217 123.64C97.6257 123.934 97.1337 124.081 96.5457 124.081C96.0717 124.081 95.6517 123.976 95.2857 123.766C94.9197 123.55 94.6317 123.25 94.4217 122.866C94.2177 122.476 94.1157 122.026 94.1157 121.516Z"></path>
<circle stroke-width="3.2" stroke="url(#paint1_linear_1051_80)" fill="url(#paint0_linear_1051_80)" r="17.6" cy="40.9998" cx="60.9998"></circle>
<path fill="url(#paint2_linear_1051_80)" d="M56.2002 48.2709V33.7293C56.2002 32.4241 57.6789 31.668 58.737 32.4322L68.8042 39.703C69.6885 40.3417 69.6885 41.6585 68.8042 42.2972L58.737 49.568C57.6789 50.3322 56.2002 49.5761 56.2002 48.2709Z"></path>
<path stroke-width="1.6" stroke-opacity="0.2" stroke="black" d="M55.4002 33.7293V48.2709C55.4002 50.2287 57.6182 51.3628 59.2054 50.2165L69.2726 42.9457C70.5991 41.9877 70.599 40.0124 69.2726 39.0545L59.2054 31.7837C57.6182 30.6374 55.4002 31.7715 55.4002 33.7293Z"></path>
<defs>
<linearGradient gradientUnits="userSpaceOnUse" y2="60.1998" x2="72.1998" y1="21.7998" x1="49.7998" id="paint0_linear_1051_80">
<stop stop-color="#4D4D4D" offset="0.139158"></stop>
<stop stop-color="#242424" offset="0.856518"></stop>
</linearGradient>
<linearGradient gradientUnits="userSpaceOnUse" y2="60.1998" x2="72.1998" y1="21.7998" x1="49.7998" id="paint1_linear_1051_80">
<stop stop-color="#FE924A" offset="0.140625"></stop>
<stop stop-color="#9264BA" offset="0.864583"></stop>
</linearGradient>
<linearGradient gradientUnits="userSpaceOnUse" y2="50.6001" x2="56.2002" y1="31.4001" x1="56.2002" id="paint2_linear_1051_80">
<stop stop-color="white"></stop>
<stop stop-color="#E3E3E3" offset="1"></stop>
</linearGradient>
</defs>
</svg>
