<svg xmlns="http://www.w3.org/2000/svg" fill="none" viewBox="0 0 260 160" height="160" width="260">
<path fill-opacity="0.9" fill="#1B1B1B" d="M20 30C20 24.4772 24.4772 20 30 20H230C235.523 20 240 24.4772 240 30V125C240 130.523 235.523 135 230 135H30C24.4772 135 20 130.523 20 125V30Z"></path>
<path stroke-width="2" stroke-opacity="0.2" stroke="white" d="M30 19C23.9249 19 19 23.9249 19 30V125C19 131.075 23.9249 136 30 136H230C236.075 136 241 131.075 241 125V30C241 23.9249 236.075 19 230 19H30Z"></path>
<path fill="white" d="M76.288 40.66V41.776H74.068V49H72.7V41.776H70.468V40.66H76.288ZM79.0414 43.348C79.2414 43.012 79.5054 42.752 79.8334 42.568C80.1694 42.376 80.5654 42.28 81.0214 42.28V43.696H80.6734C80.1374 43.696 79.7294 43.832 79.4494 44.104C79.1774 44.376 79.0414 44.848 79.0414 45.52V49H77.6734V42.388H79.0414V43.348ZM85.1469 49.108C84.5229 49.108 83.9589 48.968 83.4549 48.688C82.9509 48.4 82.5549 48 82.2669 47.488C81.9789 46.968 81.8349 46.368 81.8349 45.688C81.8349 45.016 81.9829 44.42 82.2789 43.9C82.5749 43.38 82.9789 42.98 83.4909 42.7C84.0029 42.42 84.5749 42.28 85.2069 42.28C85.8389 42.28 86.4109 42.42 86.9229 42.7C87.4349 42.98 87.8389 43.38 88.1349 43.9C88.4309 44.42 88.5789 45.016 88.5789 45.688C88.5789 46.36 88.4269 46.956 88.1229 47.476C87.8189 47.996 87.4029 48.4 86.8749 48.688C86.3549 48.968 85.7789 49.108 85.1469 49.108ZM85.1469 47.92C85.4989 47.92 85.8269 47.836 86.1309 47.668C86.4429 47.5 86.6949 47.248 86.8869 46.912C87.0789 46.576 87.1749 46.168 87.1749 45.688C87.1749 45.208 87.0829 44.804 86.8989 44.476C86.7149 44.14 86.4709 43.888 86.1669 43.72C85.8629 43.552 85.5349 43.468 85.1829 43.468C84.8309 43.468 84.5029 43.552 84.1989 43.72C83.9029 43.888 83.6669 44.14 83.4909 44.476C83.3149 44.804 83.2269 45.208 83.2269 45.688C83.2269 46.4 83.4069 46.952 83.7669 47.344C84.1349 47.728 84.5949 47.92 85.1469 47.92ZM95.9193 42.388V49H94.5513V48.22C94.3353 48.492 94.0513 48.708 93.6993 48.868C93.3553 49.02 92.9873 49.096 92.5953 49.096C92.0753 49.096 91.6073 48.988 91.1913 48.772C90.7833 48.556 90.4593 48.236 90.2193 47.812C89.9873 47.388 89.8713 46.876 89.8713 46.276V42.388H91.2273V46.072C91.2273 46.664 91.3753 47.12 91.6713 47.44C91.9673 47.752 92.3713 47.908 92.8833 47.908C93.3953 47.908 93.7993 47.752 94.0953 47.44C94.3993 47.12 94.5513 46.664 94.5513 46.072V42.388H95.9193ZM99.0922 43.372C99.3242 43.052 99.6402 42.792 100.04 42.592C100.448 42.384 100.9 42.28 101.396 42.28C101.98 42.28 102.508 42.42 102.98 42.7C103.452 42.98 103.824 43.38 104.096 43.9C104.368 44.412 104.504 45 104.504 45.664C104.504 46.328 104.368 46.924 104.096 47.452C103.824 47.972 103.448 48.38 102.968 48.676C102.496 48.964 101.972 49.108 101.396 49.108C100.884 49.108 100.428 49.008 100.028 48.808C99.6362 48.608 99.3242 48.352 99.0922 48.04V49H97.7242V40.12H99.0922V43.372ZM103.112 45.664C103.112 45.208 103.016 44.816 102.824 44.488C102.64 44.152 102.392 43.9 102.08 43.732C101.776 43.556 101.448 43.468 101.096 43.468C100.752 43.468 100.424 43.556 100.112 43.732C99.8082 43.908 99.5602 44.164 99.3682 44.5C99.1842 44.836 99.0922 45.232 99.0922 45.688C99.0922 46.144 99.1842 46.544 99.3682 46.888C99.5602 47.224 99.8082 47.48 100.112 47.656C100.424 47.832 100.752 47.92 101.096 47.92C101.448 47.92 101.776 47.832 102.08 47.656C102.392 47.472 102.64 47.208 102.824 46.864C103.016 46.52 103.112 46.12 103.112 45.664ZM107.225 40.12V49H105.857V40.12H107.225ZM115.081 45.532C115.081 45.78 115.065 46.004 115.033 46.204H109.981C110.021 46.732 110.217 47.156 110.569 47.476C110.921 47.796 111.353 47.956 111.865 47.956C112.601 47.956 113.121 47.648 113.425 47.032H114.901C114.701 47.64 114.337 48.14 113.809 48.532C113.289 48.916 112.641 49.108 111.865 49.108C111.233 49.108 110.665 48.968 110.161 48.688C109.665 48.4 109.273 48 108.985 47.488C108.705 46.968 108.565 46.368 108.565 45.688C108.565 45.008 108.701 44.412 108.973 43.9C109.253 43.38 109.641 42.98 110.137 42.7C110.641 42.42 111.217 42.28 111.865 42.28C112.489 42.28 113.045 42.416 113.533 42.688C114.021 42.96 114.401 43.344 114.673 43.84C114.945 44.328 115.081 44.892 115.081 45.532ZM113.653 45.1C113.645 44.596 113.465 44.192 113.113 43.888C112.761 43.584 112.325 43.432 111.805 43.432C111.333 43.432 110.929 43.584 110.593 43.888C110.257 44.184 110.057 44.588 109.993 45.1H113.653ZM118.827 49.108C118.307 49.108 117.839 49.016 117.423 48.832C117.015 48.64 116.691 48.384 116.451 48.064C116.211 47.736 116.083 47.372 116.067 46.972H117.483C117.507 47.252 117.639 47.488 117.879 47.68C118.127 47.864 118.435 47.956 118.803 47.956C119.187 47.956 119.483 47.884 119.691 47.74C119.907 47.588 120.015 47.396 120.015 47.164C120.015 46.916 119.895 46.732 119.655 46.612C119.423 46.492 119.051 46.36 118.539 46.216C118.043 46.08 117.639 45.948 117.327 45.82C117.015 45.692 116.743 45.496 116.511 45.232C116.287 44.968 116.175 44.62 116.175 44.188C116.175 43.836 116.279 43.516 116.487 43.228C116.695 42.932 116.991 42.7 117.375 42.532C117.767 42.364 118.215 42.28 118.719 42.28C119.471 42.28 120.075 42.472 120.531 42.856C120.995 43.232 121.243 43.748 121.275 44.404H119.907C119.883 44.108 119.763 43.872 119.547 43.696C119.331 43.52 119.039 43.432 118.671 43.432C118.311 43.432 118.035 43.5 117.843 43.636C117.651 43.772 117.555 43.952 117.555 44.176C117.555 44.352 117.619 44.5 117.747 44.62C117.875 44.74 118.031 44.836 118.215 44.908C118.399 44.972 118.671 45.056 119.031 45.16C119.511 45.288 119.903 45.42 120.207 45.556C120.519 45.684 120.787 45.876 121.011 46.132C121.235 46.388 121.351 46.728 121.359 47.152C121.359 47.528 121.255 47.864 121.047 48.16C120.839 48.456 120.543 48.688 120.159 48.856C119.783 49.024 119.339 49.108 118.827 49.108ZM126.258 42.28C126.762 42.28 127.21 42.388 127.602 42.604C128.002 42.82 128.314 43.14 128.538 43.564C128.77 43.988 128.886 44.5 128.886 45.1V49H127.53V45.304C127.53 44.712 127.382 44.26 127.086 43.948C126.79 43.628 126.386 43.468 125.874 43.468C125.362 43.468 124.954 43.628 124.65 43.948C124.354 44.26 124.206 44.712 124.206 45.304V49H122.838V40.12H124.206V43.156C124.438 42.876 124.73 42.66 125.082 42.508C125.442 42.356 125.834 42.28 126.258 42.28ZM133.498 49.108C132.874 49.108 132.31 48.968 131.806 48.688C131.302 48.4 130.906 48 130.618 47.488C130.33 46.968 130.186 46.368 130.186 45.688C130.186 45.016 130.334 44.42 130.63 43.9C130.926 43.38 131.33 42.98 131.842 42.7C132.354 42.42 132.926 42.28 133.558 42.28C134.19 42.28 134.762 42.42 135.274 42.7C135.786 42.98 136.19 43.38 136.486 43.9C136.782 44.42 136.93 45.016 136.93 45.688C136.93 46.36 136.778 46.956 136.474 47.476C136.17 47.996 135.754 48.4 135.226 48.688C134.706 48.968 134.13 49.108 133.498 49.108ZM133.498 47.92C133.85 47.92 134.178 47.836 134.482 47.668C134.794 47.5 135.046 47.248 135.238 46.912C135.43 46.576 135.526 46.168 135.526 45.688C135.526 45.208 135.434 44.804 135.25 44.476C135.066 44.14 134.822 43.888 134.518 43.72C134.214 43.552 133.886 43.468 133.534 43.468C133.182 43.468 132.854 43.552 132.55 43.72C132.254 43.888 132.018 44.14 131.842 44.476C131.666 44.804 131.578 45.208 131.578 45.688C131.578 46.4 131.758 46.952 132.118 47.344C132.486 47.728 132.946 47.92 133.498 47.92ZM141.151 49.108C140.527 49.108 139.963 48.968 139.459 48.688C138.955 48.4 138.559 48 138.271 47.488C137.983 46.968 137.839 46.368 137.839 45.688C137.839 45.016 137.987 44.42 138.283 43.9C138.579 43.38 138.983 42.98 139.495 42.7C140.007 42.42 140.579 42.28 141.211 42.28C141.843 42.28 142.415 42.42 142.927 42.7C143.439 42.98 143.843 43.38 144.139 43.9C144.435 44.42 144.583 45.016 144.583 45.688C144.583 46.36 144.431 46.956 144.127 47.476C143.823 47.996 143.407 48.4 142.879 48.688C142.359 48.968 141.783 49.108 141.151 49.108ZM141.151 47.92C141.503 47.92 141.831 47.836 142.135 47.668C142.447 47.5 142.699 47.248 142.891 46.912C143.083 46.576 143.179 46.168 143.179 45.688C143.179 45.208 143.087 44.804 142.903 44.476C142.719 44.14 142.475 43.888 142.171 43.72C141.867 43.552 141.539 43.468 141.187 43.468C140.835 43.468 140.507 43.552 140.203 43.72C139.907 43.888 139.671 44.14 139.495 44.476C139.319 44.804 139.231 45.208 139.231 45.688C139.231 46.4 139.411 46.952 139.771 47.344C140.139 47.728 140.599 47.92 141.151 47.92ZM147.531 43.504V47.164C147.531 47.412 147.587 47.592 147.699 47.704C147.819 47.808 148.019 47.86 148.299 47.86H149.139V49H148.059C147.443 49 146.971 48.856 146.643 48.568C146.315 48.28 146.151 47.812 146.151 47.164V43.504H145.371V42.388H146.151V40.744H147.531V42.388H149.139V43.504H147.531ZM151.096 41.512C150.848 41.512 150.64 41.428 150.472 41.26C150.304 41.092 150.22 40.884 150.22 40.636C150.22 40.388 150.304 40.18 150.472 40.012C150.64 39.844 150.848 39.76 151.096 39.76C151.336 39.76 151.54 39.844 151.708 40.012C151.876 40.18 151.96 40.388 151.96 40.636C151.96 40.884 151.876 41.092 151.708 41.26C151.54 41.428 151.336 41.512 151.096 41.512ZM151.768 42.388V49H150.4V42.388H151.768ZM156.9 42.28C157.42 42.28 157.884 42.388 158.292 42.604C158.708 42.82 159.032 43.14 159.264 43.564C159.496 43.988 159.612 44.5 159.612 45.1V49H158.256V45.304C158.256 44.712 158.108 44.26 157.812 43.948C157.516 43.628 157.112 43.468 156.6 43.468C156.088 43.468 155.68 43.628 155.376 43.948C155.08 44.26 154.932 44.712 154.932 45.304V49H153.564V42.388H154.932V43.144C155.156 42.872 155.44 42.66 155.784 42.508C156.136 42.356 156.508 42.28 156.9 42.28ZM164.021 42.28C164.533 42.28 164.985 42.384 165.377 42.592C165.777 42.792 166.089 43.044 166.313 43.348V42.388H167.693V49.108C167.693 49.716 167.565 50.256 167.309 50.728C167.053 51.208 166.681 51.584 166.193 51.856C165.713 52.128 165.137 52.264 164.465 52.264C163.569 52.264 162.825 52.052 162.233 51.628C161.641 51.212 161.305 50.644 161.225 49.924H162.581C162.685 50.268 162.905 50.544 163.241 50.752C163.585 50.968 163.993 51.076 164.465 51.076C165.017 51.076 165.461 50.908 165.797 50.572C166.141 50.236 166.313 49.748 166.313 49.108V48.004C166.081 48.316 165.765 48.58 165.365 48.796C164.973 49.004 164.525 49.108 164.021 49.108C163.445 49.108 162.917 48.964 162.437 48.676C161.965 48.38 161.589 47.972 161.309 47.452C161.037 46.924 160.901 46.328 160.901 45.664C160.901 45 161.037 44.412 161.309 43.9C161.589 43.388 161.965 42.992 162.437 42.712C162.917 42.424 163.445 42.28 164.021 42.28ZM166.313 45.688C166.313 45.232 166.217 44.836 166.025 44.5C165.841 44.164 165.597 43.908 165.293 43.732C164.989 43.556 164.661 43.468 164.309 43.468C163.957 43.468 163.629 43.556 163.325 43.732C163.021 43.9 162.773 44.152 162.581 44.488C162.397 44.816 162.305 45.208 162.305 45.664C162.305 46.12 162.397 46.52 162.581 46.864C162.773 47.208 163.021 47.472 163.325 47.656C163.637 47.832 163.965 47.92 164.309 47.92C164.661 47.92 164.989 47.832 165.293 47.656C165.597 47.48 165.841 47.224 166.025 46.888C166.217 46.544 166.313 46.144 166.313 45.688Z"></path>
<path fill="#BEBEBE" d="M42.079 74.355V82H40.825V74.355H42.079ZM45.9254 82.099C45.4487 82.099 45.0197 82.0147 44.6384 81.846C44.2644 81.67 43.9674 81.4353 43.7474 81.142C43.5274 80.8413 43.4101 80.5077 43.3954 80.141H44.6934C44.7154 80.3977 44.8364 80.614 45.0564 80.79C45.2837 80.9587 45.5661 81.043 45.9034 81.043C46.2554 81.043 46.5267 80.977 46.7174 80.845C46.9154 80.7057 47.0144 80.5297 47.0144 80.317C47.0144 80.0897 46.9044 79.921 46.6844 79.811C46.4717 79.701 46.1307 79.58 45.6614 79.448C45.2067 79.3233 44.8364 79.2023 44.5504 79.085C44.2644 78.9677 44.0151 78.788 43.8024 78.546C43.5971 78.304 43.4944 77.985 43.4944 77.589C43.4944 77.2663 43.5897 76.973 43.7804 76.709C43.9711 76.4377 44.2424 76.225 44.5944 76.071C44.9537 75.917 45.3644 75.84 45.8264 75.84C46.5157 75.84 47.0694 76.016 47.4874 76.368C47.9127 76.7127 48.1401 77.1857 48.1694 77.787H46.9154C46.8934 77.5157 46.7834 77.2993 46.5854 77.138C46.3874 76.9767 46.1197 76.896 45.7824 76.896C45.4524 76.896 45.1994 76.9583 45.0234 77.083C44.8474 77.2077 44.7594 77.3727 44.7594 77.578C44.7594 77.7393 44.8181 77.875 44.9354 77.985C45.0527 78.095 45.1957 78.183 45.3644 78.249C45.5331 78.3077 45.7824 78.3847 46.1124 78.48C46.5524 78.5973 46.9117 78.7183 47.1904 78.843C47.4764 78.9603 47.7221 79.1363 47.9274 79.371C48.1327 79.6057 48.2391 79.9173 48.2464 80.306C48.2464 80.6507 48.1511 80.9587 47.9604 81.23C47.7697 81.5013 47.4984 81.714 47.1464 81.868C46.8017 82.022 46.3947 82.099 45.9254 82.099ZM51.8014 82.099C51.3247 82.099 50.8957 82.0147 50.5144 81.846C50.1404 81.67 49.8434 81.4353 49.6234 81.142C49.4034 80.8413 49.286 80.5077 49.2714 80.141H50.5694C50.5914 80.3977 50.7124 80.614 50.9324 80.79C51.1597 80.9587 51.442 81.043 51.7794 81.043C52.1314 81.043 52.4027 80.977 52.5934 80.845C52.7914 80.7057 52.8904 80.5297 52.8904 80.317C52.8904 80.0897 52.7804 79.921 52.5604 79.811C52.3477 79.701 52.0067 79.58 51.5374 79.448C51.0827 79.3233 50.7124 79.2023 50.4264 79.085C50.1404 78.9677 49.891 78.788 49.6784 78.546C49.473 78.304 49.3704 77.985 49.3704 77.589C49.3704 77.2663 49.4657 76.973 49.6564 76.709C49.847 76.4377 50.1184 76.225 50.4704 76.071C50.8297 75.917 51.2404 75.84 51.7024 75.84C52.3917 75.84 52.9454 76.016 53.3634 76.368C53.7887 76.7127 54.016 77.1857 54.0454 77.787H52.7914C52.7694 77.5157 52.6594 77.2993 52.4614 77.138C52.2634 76.9767 51.9957 76.896 51.6584 76.896C51.3284 76.896 51.0754 76.9583 50.8994 77.083C50.7234 77.2077 50.6354 77.3727 50.6354 77.578C50.6354 77.7393 50.694 77.875 50.8114 77.985C50.9287 78.095 51.0717 78.183 51.2404 78.249C51.409 78.3077 51.6584 78.3847 51.9884 78.48C52.4284 78.5973 52.7877 78.7183 53.0664 78.843C53.3524 78.9603 53.598 79.1363 53.8034 79.371C54.0087 79.6057 54.115 79.9173 54.1224 80.306C54.1224 80.6507 54.027 80.9587 53.8364 81.23C53.6457 81.5013 53.3744 81.714 53.0224 81.868C52.6777 82.022 52.2707 82.099 51.8014 82.099ZM60.9663 75.939V82H59.7123V81.285C59.5143 81.5343 59.254 81.7323 58.9313 81.879C58.616 82.0183 58.2787 82.088 57.9193 82.088C57.4427 82.088 57.0137 81.989 56.6323 81.791C56.2583 81.593 55.9613 81.2997 55.7413 80.911C55.5287 80.5223 55.4223 80.053 55.4223 79.503V75.939H56.6653V79.316C56.6653 79.8587 56.801 80.2767 57.0723 80.57C57.3437 80.856 57.714 80.999 58.1833 80.999C58.6527 80.999 59.023 80.856 59.2943 80.57C59.573 80.2767 59.7123 79.8587 59.7123 79.316V75.939H60.9663ZM68.1759 78.821C68.1759 79.0483 68.1612 79.2537 68.1319 79.437H63.5009C63.5376 79.921 63.7172 80.3097 64.0399 80.603C64.3626 80.8963 64.7586 81.043 65.2279 81.043C65.9026 81.043 66.3792 80.7607 66.6579 80.196H68.0109C67.8276 80.7533 67.4939 81.2117 67.0099 81.571C66.5332 81.923 65.9392 82.099 65.2279 82.099C64.6486 82.099 64.1279 81.9707 63.6659 81.714C63.2112 81.45 62.8519 81.0833 62.5879 80.614C62.3312 80.1373 62.2029 79.5873 62.2029 78.964C62.2029 78.3407 62.3276 77.7943 62.5769 77.325C62.8336 76.8483 63.1892 76.4817 63.6439 76.225C64.1059 75.9683 64.6339 75.84 65.2279 75.84C65.7999 75.84 66.3096 75.9647 66.7569 76.214C67.2042 76.4633 67.5526 76.8153 67.8019 77.27C68.0512 77.7173 68.1759 78.2343 68.1759 78.821ZM66.8669 78.425C66.8596 77.963 66.6946 77.5927 66.3719 77.314C66.0492 77.0353 65.6496 76.896 65.1729 76.896C64.7402 76.896 64.3699 77.0353 64.0619 77.314C63.7539 77.5853 63.5706 77.9557 63.5119 78.425H66.8669ZM71.61 82.099C71.1333 82.099 70.7043 82.0147 70.323 81.846C69.949 81.67 69.652 81.4353 69.432 81.142C69.212 80.8413 69.0946 80.5077 69.08 80.141H70.378C70.4 80.3977 70.521 80.614 70.741 80.79C70.9683 80.9587 71.2506 81.043 71.588 81.043C71.94 81.043 72.2113 80.977 72.402 80.845C72.6 80.7057 72.699 80.5297 72.699 80.317C72.699 80.0897 72.589 79.921 72.369 79.811C72.1563 79.701 71.8153 79.58 71.346 79.448C70.8913 79.3233 70.521 79.2023 70.235 79.085C69.949 78.9677 69.6996 78.788 69.487 78.546C69.2816 78.304 69.179 77.985 69.179 77.589C69.179 77.2663 69.2743 76.973 69.465 76.709C69.6556 76.4377 69.927 76.225 70.279 76.071C70.6383 75.917 71.049 75.84 71.511 75.84C72.2003 75.84 72.754 76.016 73.172 76.368C73.5973 76.7127 73.8246 77.1857 73.854 77.787H72.6C72.578 77.5157 72.468 77.2993 72.27 77.138C72.072 76.9767 71.8043 76.896 71.467 76.896C71.137 76.896 70.884 76.9583 70.708 77.083C70.532 77.2077 70.444 77.3727 70.444 77.578C70.444 77.7393 70.5026 77.875 70.62 77.985C70.7373 78.095 70.8803 78.183 71.049 78.249C71.2176 78.3077 71.467 78.3847 71.797 78.48C72.237 78.5973 72.5963 78.7183 72.875 78.843C73.161 78.9603 73.4066 79.1363 73.612 79.371C73.8173 79.6057 73.9236 79.9173 73.931 80.306C73.931 80.6507 73.8356 80.9587 73.645 81.23C73.4543 81.5013 73.183 81.714 72.831 81.868C72.4863 82.022 72.0793 82.099 71.61 82.099ZM81.2784 75.84C81.7404 75.84 82.151 75.939 82.5104 76.137C82.877 76.335 83.163 76.6283 83.3684 77.017C83.581 77.4057 83.6874 77.875 83.6874 78.425V82H82.4444V78.612C82.4444 78.0693 82.3087 77.655 82.0374 77.369C81.766 77.0757 81.3957 76.929 80.9264 76.929C80.457 76.929 80.083 77.0757 79.8044 77.369C79.533 77.655 79.3974 78.0693 79.3974 78.612V82H78.1434V73.86H79.3974V76.643C79.61 76.3863 79.8777 76.1883 80.2004 76.049C80.5304 75.9097 80.8897 75.84 81.2784 75.84ZM84.8689 78.942C84.8689 78.3333 84.9936 77.7943 85.2429 77.325C85.4996 76.8557 85.8442 76.4927 86.2769 76.236C86.7169 75.972 87.2009 75.84 87.7289 75.84C88.2056 75.84 88.6199 75.9353 88.9719 76.126C89.3312 76.3093 89.6172 76.5403 89.8299 76.819V75.939H91.0949V82H89.8299V81.098C89.6172 81.384 89.3276 81.6223 88.9609 81.813C88.5942 82.0037 88.1762 82.099 87.7069 82.099C87.1862 82.099 86.7096 81.967 86.2769 81.703C85.8442 81.4317 85.4996 81.0577 85.2429 80.581C84.9936 80.097 84.8689 79.5507 84.8689 78.942ZM89.8299 78.964C89.8299 78.546 89.7419 78.183 89.5659 77.875C89.3972 77.567 89.1736 77.3323 88.8949 77.171C88.6162 77.0097 88.3156 76.929 87.9929 76.929C87.6702 76.929 87.3696 77.0097 87.0909 77.171C86.8122 77.325 86.5849 77.556 86.4089 77.864C86.2402 78.1647 86.1559 78.524 86.1559 78.942C86.1559 79.36 86.2402 79.7267 86.4089 80.042C86.5849 80.3573 86.8122 80.5993 87.0909 80.768C87.3769 80.9293 87.6776 81.01 87.9929 81.01C88.3156 81.01 88.6162 80.9293 88.8949 80.768C89.1736 80.6067 89.3972 80.372 89.5659 80.064C89.7419 79.7487 89.8299 79.382 89.8299 78.964ZM95.085 80.878L96.801 75.939H98.132L95.822 82H94.326L92.027 75.939H93.369L95.085 80.878ZM104.635 78.821C104.635 79.0483 104.62 79.2537 104.591 79.437H99.9599C99.9965 79.921 100.176 80.3097 100.499 80.603C100.822 80.8963 101.218 81.043 101.687 81.043C102.362 81.043 102.838 80.7607 103.117 80.196H104.47C104.287 80.7533 103.953 81.2117 103.469 81.571C102.992 81.923 102.398 82.099 101.687 82.099C101.108 82.099 100.587 81.9707 100.125 81.714C99.6702 81.45 99.3109 81.0833 99.0469 80.614C98.7902 80.1373 98.6619 79.5873 98.6619 78.964C98.6619 78.3407 98.7865 77.7943 99.0359 77.325C99.2925 76.8483 99.6482 76.4817 100.103 76.225C100.565 75.9683 101.093 75.84 101.687 75.84C102.259 75.84 102.769 75.9647 103.216 76.214C103.663 76.4633 104.012 76.8153 104.261 77.27C104.51 77.7173 104.635 78.2343 104.635 78.821ZM103.326 78.425C103.319 77.963 103.154 77.5927 102.831 77.314C102.508 77.0353 102.109 76.896 101.632 76.896C101.199 76.896 100.829 77.0353 100.521 77.314C100.213 77.5853 100.03 77.9557 99.9709 78.425H103.326ZM109.98 76.841C110.193 76.5477 110.483 76.3093 110.849 76.126C111.223 75.9353 111.638 75.84 112.092 75.84C112.628 75.84 113.112 75.9683 113.544 76.225C113.977 76.4817 114.318 76.8483 114.567 77.325C114.817 77.7943 114.941 78.3333 114.941 78.942C114.941 79.5507 114.817 80.097 114.567 80.581C114.318 81.0577 113.973 81.4317 113.533 81.703C113.101 81.967 112.62 82.099 112.092 82.099C111.623 82.099 111.205 82.0073 110.838 81.824C110.479 81.6407 110.193 81.406 109.98 81.12V82H108.726V73.86H109.98V76.841ZM113.665 78.942C113.665 78.524 113.577 78.1647 113.401 77.864C113.233 77.556 113.005 77.325 112.719 77.171C112.441 77.0097 112.14 76.929 111.817 76.929C111.502 76.929 111.201 77.0097 110.915 77.171C110.637 77.3323 110.409 77.567 110.233 77.875C110.065 78.183 109.98 78.546 109.98 78.964C109.98 79.382 110.065 79.7487 110.233 80.064C110.409 80.372 110.637 80.6067 110.915 80.768C111.201 80.9293 111.502 81.01 111.817 81.01C112.14 81.01 112.441 80.9293 112.719 80.768C113.005 80.5993 113.233 80.3573 113.401 80.042C113.577 79.7267 113.665 79.36 113.665 78.942ZM121.736 78.821C121.736 79.0483 121.722 79.2537 121.692 79.437H117.061C117.098 79.921 117.278 80.3097 117.6 80.603C117.923 80.8963 118.319 81.043 118.788 81.043C119.463 81.043 119.94 80.7607 120.218 80.196H121.571C121.388 80.7533 121.054 81.2117 120.57 81.571C120.094 81.923 119.5 82.099 118.788 82.099C118.209 82.099 117.688 81.9707 117.226 81.714C116.772 81.45 116.412 81.0833 116.148 80.614C115.892 80.1373 115.763 79.5873 115.763 78.964C115.763 78.3407 115.888 77.7943 116.137 77.325C116.394 76.8483 116.75 76.4817 117.204 76.225C117.666 75.9683 118.194 75.84 118.788 75.84C119.36 75.84 119.87 75.9647 120.317 76.214C120.765 76.4633 121.113 76.8153 121.362 77.27C121.612 77.7173 121.736 78.2343 121.736 78.821ZM120.427 78.425C120.42 77.963 120.255 77.5927 119.932 77.314C119.61 77.0353 119.21 76.896 118.733 76.896C118.301 76.896 117.93 77.0353 117.622 77.314C117.314 77.5853 117.131 77.9557 117.072 78.425H120.427ZM128.526 78.821C128.526 79.0483 128.511 79.2537 128.482 79.437H123.851C123.887 79.921 124.067 80.3097 124.39 80.603C124.712 80.8963 125.108 81.043 125.578 81.043C126.252 81.043 126.729 80.7607 127.008 80.196H128.361C128.177 80.7533 127.844 81.2117 127.36 81.571C126.883 81.923 126.289 82.099 125.578 82.099C124.998 82.099 124.478 81.9707 124.016 81.714C123.561 81.45 123.202 81.0833 122.938 80.614C122.681 80.1373 122.553 79.5873 122.553 78.964C122.553 78.3407 122.677 77.7943 122.927 77.325C123.183 76.8483 123.539 76.4817 123.994 76.225C124.456 75.9683 124.984 75.84 125.578 75.84C126.15 75.84 126.659 75.9647 127.107 76.214C127.554 76.4633 127.902 76.8153 128.152 77.27C128.401 77.7173 128.526 78.2343 128.526 78.821ZM127.217 78.425C127.209 77.963 127.044 77.5927 126.722 77.314C126.399 77.0353 125.999 76.896 125.523 76.896C125.09 76.896 124.72 77.0353 124.412 77.314C124.104 77.5853 123.92 77.9557 123.862 78.425H127.217ZM132.818 75.84C133.294 75.84 133.72 75.939 134.094 76.137C134.475 76.335 134.772 76.6283 134.985 77.017C135.197 77.4057 135.304 77.875 135.304 78.425V82H134.061V78.612C134.061 78.0693 133.925 77.655 133.654 77.369C133.382 77.0757 133.012 76.929 132.543 76.929C132.073 76.929 131.699 77.0757 131.421 77.369C131.149 77.655 131.014 78.0693 131.014 78.612V82H129.76V75.939H131.014V76.632C131.219 76.3827 131.479 76.1883 131.795 76.049C132.117 75.9097 132.458 75.84 132.818 75.84ZM139.343 78.942C139.343 78.3333 139.467 77.7943 139.717 77.325C139.973 76.8557 140.318 76.4927 140.751 76.236C141.191 75.972 141.678 75.84 142.214 75.84C142.61 75.84 142.998 75.928 143.38 76.104C143.768 76.2727 144.076 76.5 144.304 76.786V73.86H145.569V82H144.304V81.087C144.098 81.3803 143.812 81.6223 143.446 81.813C143.086 82.0037 142.672 82.099 142.203 82.099C141.675 82.099 141.191 81.967 140.751 81.703C140.318 81.4317 139.973 81.0577 139.717 80.581C139.467 80.097 139.343 79.5507 139.343 78.942ZM144.304 78.964C144.304 78.546 144.216 78.183 144.04 77.875C143.871 77.567 143.647 77.3323 143.369 77.171C143.09 77.0097 142.789 76.929 142.467 76.929C142.144 76.929 141.843 77.0097 141.565 77.171C141.286 77.325 141.059 77.556 140.883 77.864C140.714 78.1647 140.63 78.524 140.63 78.942C140.63 79.36 140.714 79.7267 140.883 80.042C141.059 80.3573 141.286 80.5993 141.565 80.768C141.851 80.9293 142.151 81.01 142.467 81.01C142.789 81.01 143.09 80.9293 143.369 80.768C143.647 80.6067 143.871 80.372 144.04 80.064C144.216 79.7487 144.304 79.382 144.304 78.964ZM152.771 78.821C152.771 79.0483 152.756 79.2537 152.727 79.437H148.096C148.132 79.921 148.312 80.3097 148.635 80.603C148.957 80.8963 149.353 81.043 149.823 81.043C150.497 81.043 150.974 80.7607 151.253 80.196H152.606C152.422 80.7533 152.089 81.2117 151.605 81.571C151.128 81.923 150.534 82.099 149.823 82.099C149.243 82.099 148.723 81.9707 148.261 81.714C147.806 81.45 147.447 81.0833 147.183 80.614C146.926 80.1373 146.798 79.5873 146.798 78.964C146.798 78.3407 146.922 77.7943 147.172 77.325C147.428 76.8483 147.784 76.4817 148.239 76.225C148.701 75.9683 149.229 75.84 149.823 75.84C150.395 75.84 150.904 75.9647 151.352 76.214C151.799 76.4633 152.147 76.8153 152.397 77.27C152.646 77.7173 152.771 78.2343 152.771 78.821ZM151.462 78.425C151.454 77.963 151.289 77.5927 150.967 77.314C150.644 77.0353 150.244 76.896 149.768 76.896C149.335 76.896 148.965 77.0353 148.657 77.314C148.349 77.5853 148.165 77.9557 148.107 78.425H151.462ZM155.468 76.962V80.317C155.468 80.5443 155.519 80.7093 155.622 80.812C155.732 80.9073 155.915 80.955 156.172 80.955H156.942V82H155.952C155.387 82 154.954 81.868 154.654 81.604C154.353 81.34 154.203 80.911 154.203 80.317V76.962H153.488V75.939H154.203V74.432H155.468V75.939H156.942V76.962H155.468ZM163.652 78.821C163.652 79.0483 163.638 79.2537 163.608 79.437H158.977C159.014 79.921 159.194 80.3097 159.516 80.603C159.839 80.8963 160.235 81.043 160.704 81.043C161.379 81.043 161.856 80.7607 162.134 80.196H163.487C163.304 80.7533 162.97 81.2117 162.486 81.571C162.01 81.923 161.416 82.099 160.704 82.099C160.125 82.099 159.604 81.9707 159.142 81.714C158.688 81.45 158.328 81.0833 158.064 80.614C157.808 80.1373 157.679 79.5873 157.679 78.964C157.679 78.3407 157.804 77.7943 158.053 77.325C158.31 76.8483 158.666 76.4817 159.12 76.225C159.582 75.9683 160.11 75.84 160.704 75.84C161.276 75.84 161.786 75.9647 162.233 76.214C162.681 76.4633 163.029 76.8153 163.278 77.27C163.528 77.7173 163.652 78.2343 163.652 78.821ZM162.343 78.425C162.336 77.963 162.171 77.5927 161.848 77.314C161.526 77.0353 161.126 76.896 160.649 76.896C160.217 76.896 159.846 77.0353 159.538 77.314C159.23 77.5853 159.047 77.9557 158.988 78.425H162.343ZM164.469 78.964C164.469 78.3407 164.593 77.7943 164.843 77.325C165.099 76.8483 165.451 76.4817 165.899 76.225C166.346 75.9683 166.859 75.84 167.439 75.84C168.172 75.84 168.777 76.016 169.254 76.368C169.738 76.7127 170.064 77.2077 170.233 77.853H168.88C168.77 77.5523 168.594 77.3177 168.352 77.149C168.11 76.9803 167.805 76.896 167.439 76.896C166.925 76.896 166.515 77.0793 166.207 77.446C165.906 77.8053 165.756 78.3113 165.756 78.964C165.756 79.6167 165.906 80.1263 166.207 80.493C166.515 80.8597 166.925 81.043 167.439 81.043C168.165 81.043 168.645 80.724 168.88 80.086H170.233C170.057 80.702 169.727 81.1933 169.243 81.56C168.759 81.9193 168.157 82.099 167.439 82.099C166.859 82.099 166.346 81.9707 165.899 81.714C165.451 81.45 165.099 81.0833 164.843 80.614C164.593 80.1373 164.469 79.5873 164.469 78.964ZM172.945 76.962V80.317C172.945 80.5443 172.997 80.7093 173.099 80.812C173.209 80.9073 173.393 80.955 173.649 80.955H174.419V82H173.429C172.865 82 172.432 81.868 172.131 81.604C171.831 81.34 171.68 80.911 171.68 80.317V76.962H170.965V75.939H171.68V74.432H172.945V75.939H174.419V76.962H172.945ZM181.13 78.821C181.13 79.0483 181.115 79.2537 181.086 79.437H176.455C176.492 79.921 176.671 80.3097 176.994 80.603C177.317 80.8963 177.713 81.043 178.182 81.043C178.857 81.043 179.333 80.7607 179.612 80.196H180.965C180.782 80.7533 180.448 81.2117 179.964 81.571C179.487 81.923 178.893 82.099 178.182 82.099C177.603 82.099 177.082 81.9707 176.62 81.714C176.165 81.45 175.806 81.0833 175.542 80.614C175.285 80.1373 175.157 79.5873 175.157 78.964C175.157 78.3407 175.282 77.7943 175.531 77.325C175.788 76.8483 176.143 76.4817 176.598 76.225C177.06 75.9683 177.588 75.84 178.182 75.84C178.754 75.84 179.264 75.9647 179.711 76.214C180.158 76.4633 180.507 76.8153 180.756 77.27C181.005 77.7173 181.13 78.2343 181.13 78.821ZM179.821 78.425C179.814 77.963 179.649 77.5927 179.326 77.314C179.003 77.0353 178.604 76.896 178.127 76.896C177.694 76.896 177.324 77.0353 177.016 77.314C176.708 77.5853 176.525 77.9557 176.466 78.425H179.821ZM181.946 78.942C181.946 78.3333 182.071 77.7943 182.32 77.325C182.577 76.8557 182.921 76.4927 183.354 76.236C183.794 75.972 184.282 75.84 184.817 75.84C185.213 75.84 185.602 75.928 185.983 76.104C186.372 76.2727 186.68 76.5 186.907 76.786V73.86H188.172V82H186.907V81.087C186.702 81.3803 186.416 81.6223 186.049 81.813C185.69 82.0037 185.275 82.099 184.806 82.099C184.278 82.099 183.794 81.967 183.354 81.703C182.921 81.4317 182.577 81.0577 182.32 80.581C182.071 80.097 181.946 79.5507 181.946 78.942ZM186.907 78.964C186.907 78.546 186.819 78.183 186.643 77.875C186.474 77.567 186.251 77.3323 185.972 77.171C185.693 77.0097 185.393 76.929 185.07 76.929C184.747 76.929 184.447 77.0097 184.168 77.171C183.889 77.325 183.662 77.556 183.486 77.864C183.317 78.1647 183.233 78.524 183.233 78.942C183.233 79.36 183.317 79.7267 183.486 80.042C183.662 80.3573 183.889 80.5993 184.168 80.768C184.454 80.9293 184.755 81.01 185.07 81.01C185.393 81.01 185.693 80.9293 185.972 80.768C186.251 80.6067 186.474 80.372 186.643 80.064C186.819 79.7487 186.907 79.382 186.907 78.964ZM193.315 75.136C193.087 75.136 192.897 75.059 192.743 74.905C192.589 74.751 192.512 74.5603 192.512 74.333C192.512 74.1057 192.589 73.915 192.743 73.761C192.897 73.607 193.087 73.53 193.315 73.53C193.535 73.53 193.722 73.607 193.876 73.761C194.03 73.915 194.107 74.1057 194.107 74.333C194.107 74.5603 194.03 74.751 193.876 74.905C193.722 75.059 193.535 75.136 193.315 75.136ZM193.931 75.939V82H192.677V75.939H193.931ZM198.635 75.84C199.112 75.84 199.537 75.939 199.911 76.137C200.292 76.335 200.589 76.6283 200.802 77.017C201.015 77.4057 201.121 77.875 201.121 78.425V82H199.878V78.612C199.878 78.0693 199.742 77.655 199.471 77.369C199.2 77.0757 198.829 76.929 198.36 76.929C197.891 76.929 197.517 77.0757 197.238 77.369C196.967 77.655 196.831 78.0693 196.831 78.612V82H195.577V75.939H196.831V76.632C197.036 76.3827 197.297 76.1883 197.612 76.049C197.935 75.9097 198.276 75.84 198.635 75.84ZM42.079 96.988H44.664V98H40.825V90.355H42.079V96.988ZM48.3417 98.099C47.7697 98.099 47.2527 97.9707 46.7907 97.714C46.3287 97.45 45.9657 97.0833 45.7017 96.614C45.4377 96.1373 45.3057 95.5873 45.3057 94.964C45.3057 94.348 45.4414 93.8017 45.7127 93.325C45.984 92.8483 46.3544 92.4817 46.8237 92.225C47.293 91.9683 47.8174 91.84 48.3967 91.84C48.976 91.84 49.5004 91.9683 49.9697 92.225C50.439 92.4817 50.8094 92.8483 51.0807 93.325C51.352 93.8017 51.4877 94.348 51.4877 94.964C51.4877 95.58 51.3484 96.1263 51.0697 96.603C50.791 97.0797 50.4097 97.45 49.9257 97.714C49.449 97.9707 48.921 98.099 48.3417 98.099ZM48.3417 97.01C48.6644 97.01 48.965 96.933 49.2437 96.779C49.5297 96.625 49.7607 96.394 49.9367 96.086C50.1127 95.778 50.2007 95.404 50.2007 94.964C50.2007 94.524 50.1164 94.1537 49.9477 93.853C49.779 93.545 49.5554 93.314 49.2767 93.16C48.998 93.006 48.6974 92.929 48.3747 92.929C48.052 92.929 47.7514 93.006 47.4727 93.16C47.2014 93.314 46.985 93.545 46.8237 93.853C46.6624 94.1537 46.5817 94.524 46.5817 94.964C46.5817 95.6167 46.7467 96.1227 47.0767 96.482C47.414 96.834 47.8357 97.01 48.3417 97.01ZM52.3093 94.964C52.3093 94.3407 52.434 93.7943 52.6833 93.325C52.94 92.8483 53.292 92.4817 53.7393 92.225C54.1867 91.9683 54.7 91.84 55.2793 91.84C56.0127 91.84 56.6177 92.016 57.0943 92.368C57.5783 92.7127 57.9047 93.2077 58.0733 93.853H56.7203C56.6103 93.5523 56.4343 93.3177 56.1923 93.149C55.9503 92.9803 55.646 92.896 55.2793 92.896C54.766 92.896 54.3553 93.0793 54.0473 93.446C53.7467 93.8053 53.5963 94.3113 53.5963 94.964C53.5963 95.6167 53.7467 96.1263 54.0473 96.493C54.3553 96.8597 54.766 97.043 55.2793 97.043C56.0053 97.043 56.4857 96.724 56.7203 96.086H58.0733C57.8973 96.702 57.5673 97.1933 57.0833 97.56C56.5993 97.9193 55.998 98.099 55.2793 98.099C54.7 98.099 54.1867 97.9707 53.7393 97.714C53.292 97.45 52.94 97.0833 52.6833 96.614C52.434 96.1373 52.3093 95.5873 52.3093 94.964ZM58.905 94.942C58.905 94.3333 59.0297 93.7943 59.279 93.325C59.5357 92.8557 59.8804 92.4927 60.313 92.236C60.753 91.972 61.237 91.84 61.765 91.84C62.2417 91.84 62.656 91.9353 63.008 92.126C63.3674 92.3093 63.6534 92.5403 63.866 92.819V91.939H65.131V98H63.866V97.098C63.6534 97.384 63.3637 97.6223 62.997 97.813C62.6304 98.0037 62.2124 98.099 61.743 98.099C61.2224 98.099 60.7457 97.967 60.313 97.703C59.8804 97.4317 59.5357 97.0577 59.279 96.581C59.0297 96.097 58.905 95.5507 58.905 94.942ZM63.866 94.964C63.866 94.546 63.778 94.183 63.602 93.875C63.4334 93.567 63.2097 93.3323 62.931 93.171C62.6524 93.0097 62.3517 92.929 62.029 92.929C61.7064 92.929 61.4057 93.0097 61.127 93.171C60.8484 93.325 60.621 93.556 60.445 93.864C60.2764 94.1647 60.192 94.524 60.192 94.942C60.192 95.36 60.2764 95.7267 60.445 96.042C60.621 96.3573 60.8484 96.5993 61.127 96.768C61.413 96.9293 61.7137 97.01 62.029 97.01C62.3517 97.01 62.6524 96.9293 62.931 96.768C63.2097 96.6067 63.4334 96.372 63.602 96.064C63.778 95.7487 63.866 95.382 63.866 94.964ZM68.0321 89.86V98H66.7781V89.86H68.0321ZM72.1179 94.942C72.1179 94.3333 72.2426 93.7943 72.4919 93.325C72.7486 92.8557 73.0933 92.4927 73.5259 92.236C73.9659 91.972 74.4536 91.84 74.9889 91.84C75.3849 91.84 75.7736 91.928 76.1549 92.104C76.5436 92.2727 76.8516 92.5 77.0789 92.786V89.86H78.3439V98H77.0789V97.087C76.8736 97.3803 76.5876 97.6223 76.2209 97.813C75.8616 98.0037 75.4473 98.099 74.9779 98.099C74.4499 98.099 73.9659 97.967 73.5259 97.703C73.0933 97.4317 72.7486 97.0577 72.4919 96.581C72.2426 96.097 72.1179 95.5507 72.1179 94.942ZM77.0789 94.964C77.0789 94.546 76.9909 94.183 76.8149 93.875C76.6463 93.567 76.4226 93.3323 76.1439 93.171C75.8653 93.0097 75.5646 92.929 75.2419 92.929C74.9193 92.929 74.6186 93.0097 74.3399 93.171C74.0613 93.325 73.8339 93.556 73.6579 93.864C73.4893 94.1647 73.4049 94.524 73.4049 94.942C73.4049 95.36 73.4893 95.7267 73.6579 96.042C73.8339 96.3573 74.0613 96.5993 74.3399 96.768C74.6259 96.9293 74.9266 97.01 75.2419 97.01C75.5646 97.01 75.8653 96.9293 76.1439 96.768C76.4226 96.6067 76.6463 96.372 76.8149 96.064C76.9909 95.7487 77.0789 95.382 77.0789 94.964ZM80.629 91.136C80.4017 91.136 80.211 91.059 80.057 90.905C79.903 90.751 79.826 90.5603 79.826 90.333C79.826 90.1057 79.903 89.915 80.057 89.761C80.211 89.607 80.4017 89.53 80.629 89.53C80.849 89.53 81.036 89.607 81.19 89.761C81.344 89.915 81.421 90.1057 81.421 90.333C81.421 90.5603 81.344 90.751 81.19 90.905C81.036 91.059 80.849 91.136 80.629 91.136ZM81.245 91.939V98H79.991V91.939H81.245ZM85.0914 98.099C84.6147 98.099 84.1857 98.0147 83.8044 97.846C83.4304 97.67 83.1334 97.4353 82.9134 97.142C82.6934 96.8413 82.5761 96.5077 82.5614 96.141H83.8594C83.8814 96.3977 84.0024 96.614 84.2224 96.79C84.4497 96.9587 84.7321 97.043 85.0694 97.043C85.4214 97.043 85.6927 96.977 85.8834 96.845C86.0814 96.7057 86.1804 96.5297 86.1804 96.317C86.1804 96.0897 86.0704 95.921 85.8504 95.811C85.6377 95.701 85.2967 95.58 84.8274 95.448C84.3727 95.3233 84.0024 95.2023 83.7164 95.085C83.4304 94.9677 83.1811 94.788 82.9684 94.546C82.7631 94.304 82.6604 93.985 82.6604 93.589C82.6604 93.2663 82.7557 92.973 82.9464 92.709C83.1371 92.4377 83.4084 92.225 83.7604 92.071C84.1197 91.917 84.5304 91.84 84.9924 91.84C85.6817 91.84 86.2354 92.016 86.6534 92.368C87.0787 92.7127 87.3061 93.1857 87.3354 93.787H86.0814C86.0594 93.5157 85.9494 93.2993 85.7514 93.138C85.5534 92.9767 85.2857 92.896 84.9484 92.896C84.6184 92.896 84.3654 92.9583 84.1894 93.083C84.0134 93.2077 83.9254 93.3727 83.9254 93.578C83.9254 93.7393 83.9841 93.875 84.1014 93.985C84.2187 94.095 84.3617 94.183 84.5304 94.249C84.6991 94.3077 84.9484 94.3847 85.2784 94.48C85.7184 94.5973 86.0777 94.7183 86.3564 94.843C86.6424 94.9603 86.8881 95.1363 87.0934 95.371C87.2987 95.6057 87.4051 95.9173 87.4124 96.306C87.4124 96.6507 87.3171 96.9587 87.1264 97.23C86.9357 97.5013 86.6644 97.714 86.3124 97.868C85.9677 98.022 85.5607 98.099 85.0914 98.099ZM91.1654 94.975L93.9594 98H92.2654L90.0214 95.393V98H88.7674V89.86H90.0214V94.59L92.2214 91.939H93.9594L91.1654 94.975ZM95.3642 98.077C95.1369 98.077 94.9462 98 94.7922 97.846C94.6382 97.692 94.5612 97.5013 94.5612 97.274C94.5612 97.0467 94.6382 96.856 94.7922 96.702C94.9462 96.548 95.1369 96.471 95.3642 96.471C95.5842 96.471 95.7712 96.548 95.9252 96.702C96.0792 96.856 96.1562 97.0467 96.1562 97.274C96.1562 97.5013 96.0792 97.692 95.9252 97.846C95.7712 98 95.5842 98.077 95.3642 98.077ZM102.888 98.077C102.375 98.077 101.913 97.989 101.502 97.813C101.091 97.6297 100.769 97.373 100.534 97.043C100.299 96.713 100.182 96.328 100.182 95.888H101.524C101.553 96.218 101.682 96.4893 101.909 96.702C102.144 96.9147 102.47 97.021 102.888 97.021C103.321 97.021 103.658 96.9183 103.9 96.713C104.142 96.5003 104.263 96.229 104.263 95.899C104.263 95.6423 104.186 95.4333 104.032 95.272C103.885 95.1107 103.698 94.986 103.471 94.898C103.251 94.81 102.943 94.7147 102.547 94.612C102.048 94.48 101.641 94.348 101.326 94.216C101.018 94.0767 100.754 93.864 100.534 93.578C100.314 93.292 100.204 92.9107 100.204 92.434C100.204 91.994 100.314 91.609 100.534 91.279C100.754 90.949 101.062 90.696 101.458 90.52C101.854 90.344 102.312 90.256 102.833 90.256C103.574 90.256 104.179 90.443 104.648 90.817C105.125 91.1837 105.389 91.6897 105.44 92.335H104.054C104.032 92.0563 103.9 91.818 103.658 91.62C103.416 91.422 103.097 91.323 102.701 91.323C102.342 91.323 102.048 91.4147 101.821 91.598C101.594 91.7813 101.48 92.0453 101.48 92.39C101.48 92.6247 101.55 92.819 101.689 92.973C101.836 93.1197 102.019 93.237 102.239 93.325C102.459 93.413 102.76 93.5083 103.141 93.611C103.647 93.7503 104.058 93.8897 104.373 94.029C104.696 94.1683 104.967 94.3847 105.187 94.678C105.414 94.964 105.528 95.349 105.528 95.833C105.528 96.2217 105.422 96.5883 105.209 96.933C105.004 97.2777 104.699 97.5563 104.296 97.769C103.9 97.9743 103.431 98.077 102.888 98.077ZM112.464 91.939L108.746 100.849H107.448L108.68 97.901L106.293 91.939H107.69L109.395 96.559L111.166 91.939H112.464ZM115.61 98.099C115.133 98.099 114.704 98.0147 114.323 97.846C113.949 97.67 113.652 97.4353 113.432 97.142C113.212 96.8413 113.095 96.5077 113.08 96.141H114.378C114.4 96.3977 114.521 96.614 114.741 96.79C114.968 96.9587 115.251 97.043 115.588 97.043C115.94 97.043 116.211 96.977 116.402 96.845C116.6 96.7057 116.699 96.5297 116.699 96.317C116.699 96.0897 116.589 95.921 116.369 95.811C116.156 95.701 115.815 95.58 115.346 95.448C114.891 95.3233 114.521 95.2023 114.235 95.085C113.949 94.9677 113.7 94.788 113.487 94.546C113.282 94.304 113.179 93.985 113.179 93.589C113.179 93.2663 113.274 92.973 113.465 92.709C113.656 92.4377 113.927 92.225 114.279 92.071C114.638 91.917 115.049 91.84 115.511 91.84C116.2 91.84 116.754 92.016 117.172 92.368C117.597 92.7127 117.825 93.1857 117.854 93.787H116.6C116.578 93.5157 116.468 93.2993 116.27 93.138C116.072 92.9767 115.804 92.896 115.467 92.896C115.137 92.896 114.884 92.9583 114.708 93.083C114.532 93.2077 114.444 93.3727 114.444 93.578C114.444 93.7393 114.503 93.875 114.62 93.985C114.737 94.095 114.88 94.183 115.049 94.249C115.218 94.3077 115.467 94.3847 115.797 94.48C116.237 94.5973 116.596 94.7183 116.875 94.843C117.161 94.9603 117.407 95.1363 117.612 95.371C117.817 95.6057 117.924 95.9173 117.931 96.306C117.931 96.6507 117.836 96.9587 117.645 97.23C117.454 97.5013 117.183 97.714 116.831 97.868C116.486 98.022 116.079 98.099 115.61 98.099ZM120.749 92.962V96.317C120.749 96.5443 120.8 96.7093 120.903 96.812C121.013 96.9073 121.196 96.955 121.453 96.955H122.223V98H121.233C120.668 98 120.236 97.868 119.935 97.604C119.634 97.34 119.484 96.911 119.484 96.317V92.962H118.769V91.939H119.484V90.432H120.749V91.939H122.223V92.962H120.749ZM128.934 94.821C128.934 95.0483 128.919 95.2537 128.89 95.437H124.259C124.295 95.921 124.475 96.3097 124.798 96.603C125.12 96.8963 125.516 97.043 125.986 97.043C126.66 97.043 127.137 96.7607 127.416 96.196H128.769C128.585 96.7533 128.252 97.2117 127.768 97.571C127.291 97.923 126.697 98.099 125.986 98.099C125.406 98.099 124.886 97.9707 124.424 97.714C123.969 97.45 123.61 97.0833 123.346 96.614C123.089 96.1373 122.961 95.5873 122.961 94.964C122.961 94.3407 123.085 93.7943 123.335 93.325C123.591 92.8483 123.947 92.4817 124.402 92.225C124.864 91.9683 125.392 91.84 125.986 91.84C126.558 91.84 127.067 91.9647 127.515 92.214C127.962 92.4633 128.31 92.8153 128.56 93.27C128.809 93.7173 128.934 94.2343 128.934 94.821ZM127.625 94.425C127.617 93.963 127.452 93.5927 127.13 93.314C126.807 93.0353 126.407 92.896 125.931 92.896C125.498 92.896 125.128 93.0353 124.82 93.314C124.512 93.5853 124.328 93.9557 124.27 94.425H127.625ZM137.505 91.84C137.981 91.84 138.407 91.939 138.781 92.137C139.162 92.335 139.459 92.6283 139.672 93.017C139.892 93.4057 140.002 93.875 140.002 94.425V98H138.759V94.612C138.759 94.0693 138.623 93.655 138.352 93.369C138.08 93.0757 137.71 92.929 137.241 92.929C136.771 92.929 136.397 93.0757 136.119 93.369C135.847 93.655 135.712 94.0693 135.712 94.612V98H134.469V94.612C134.469 94.0693 134.333 93.655 134.062 93.369C133.79 93.0757 133.42 92.929 132.951 92.929C132.481 92.929 132.107 93.0757 131.829 93.369C131.557 93.655 131.422 94.0693 131.422 94.612V98H130.168V91.939H131.422V92.632C131.627 92.3827 131.887 92.1883 132.203 92.049C132.518 91.9097 132.855 91.84 133.215 91.84C133.699 91.84 134.131 91.9427 134.513 92.148C134.894 92.3533 135.187 92.6503 135.393 93.039C135.576 92.6723 135.862 92.3827 136.251 92.17C136.639 91.95 137.057 91.84 137.505 91.84ZM146.655 98.099C146.178 98.099 145.749 98.0147 145.368 97.846C144.994 97.67 144.697 97.4353 144.477 97.142C144.257 96.8413 144.14 96.5077 144.125 96.141H145.423C145.445 96.3977 145.566 96.614 145.786 96.79C146.013 96.9587 146.296 97.043 146.633 97.043C146.985 97.043 147.256 96.977 147.447 96.845C147.645 96.7057 147.744 96.5297 147.744 96.317C147.744 96.0897 147.634 95.921 147.414 95.811C147.201 95.701 146.86 95.58 146.391 95.448C145.936 95.3233 145.566 95.2023 145.28 95.085C144.994 94.9677 144.745 94.788 144.532 94.546C144.327 94.304 144.224 93.985 144.224 93.589C144.224 93.2663 144.319 92.973 144.51 92.709C144.701 92.4377 144.972 92.225 145.324 92.071C145.683 91.917 146.094 91.84 146.556 91.84C147.245 91.84 147.799 92.016 148.217 92.368C148.642 92.7127 148.87 93.1857 148.899 93.787H147.645C147.623 93.5157 147.513 93.2993 147.315 93.138C147.117 92.9767 146.849 92.896 146.512 92.896C146.182 92.896 145.929 92.9583 145.753 93.083C145.577 93.2077 145.489 93.3727 145.489 93.578C145.489 93.7393 145.548 93.875 145.665 93.985C145.782 94.095 145.925 94.183 146.094 94.249C146.263 94.3077 146.512 94.3847 146.842 94.48C147.282 94.5973 147.641 94.7183 147.92 94.843C148.206 94.9603 148.452 95.1363 148.657 95.371C148.862 95.6057 148.969 95.9173 148.976 96.306C148.976 96.6507 148.881 96.9587 148.69 97.23C148.499 97.5013 148.228 97.714 147.876 97.868C147.531 98.022 147.124 98.099 146.655 98.099ZM151.794 92.962V96.317C151.794 96.5443 151.845 96.7093 151.948 96.812C152.058 96.9073 152.241 96.955 152.498 96.955H153.268V98H152.278C151.713 98 151.281 97.868 150.98 97.604C150.679 97.34 150.529 96.911 150.529 96.317V92.962H149.814V91.939H150.529V90.432H151.794V91.939H153.268V92.962H151.794ZM154.006 94.942C154.006 94.3333 154.13 93.7943 154.38 93.325C154.636 92.8557 154.981 92.4927 155.414 92.236C155.854 91.972 156.338 91.84 156.866 91.84C157.342 91.84 157.757 91.9353 158.109 92.126C158.468 92.3093 158.754 92.5403 158.967 92.819V91.939H160.232V98H158.967V97.098C158.754 97.384 158.464 97.6223 158.098 97.813C157.731 98.0037 157.313 98.099 156.844 98.099C156.323 98.099 155.846 97.967 155.414 97.703C154.981 97.4317 154.636 97.0577 154.38 96.581C154.13 96.097 154.006 95.5507 154.006 94.942ZM158.967 94.964C158.967 94.546 158.879 94.183 158.703 93.875C158.534 93.567 158.31 93.3323 158.032 93.171C157.753 93.0097 157.452 92.929 157.13 92.929C156.807 92.929 156.506 93.0097 156.228 93.171C155.949 93.325 155.722 93.556 155.546 93.864C155.377 94.1647 155.293 94.524 155.293 94.942C155.293 95.36 155.377 95.7267 155.546 96.042C155.722 96.3573 155.949 96.5993 156.228 96.768C156.514 96.9293 156.814 97.01 157.13 97.01C157.452 97.01 157.753 96.9293 158.032 96.768C158.31 96.6067 158.534 96.372 158.703 96.064C158.879 95.7487 158.967 95.382 158.967 94.964ZM163.133 92.841C163.345 92.5477 163.635 92.3093 164.002 92.126C164.376 91.9353 164.79 91.84 165.245 91.84C165.78 91.84 166.264 91.9683 166.697 92.225C167.129 92.4817 167.47 92.8483 167.72 93.325C167.969 93.7943 168.094 94.3333 168.094 94.942C168.094 95.5507 167.969 96.097 167.72 96.581C167.47 97.0577 167.126 97.4317 166.686 97.703C166.253 97.967 165.773 98.099 165.245 98.099C164.775 98.099 164.357 98.0073 163.991 97.824C163.631 97.6407 163.345 97.406 163.133 97.12V98H161.879V89.86H163.133V92.841ZM166.818 94.942C166.818 94.524 166.73 94.1647 166.554 93.864C166.385 93.556 166.158 93.325 165.872 93.171C165.593 93.0097 165.292 92.929 164.97 92.929C164.654 92.929 164.354 93.0097 164.068 93.171C163.789 93.3323 163.562 93.567 163.386 93.875C163.217 94.183 163.133 94.546 163.133 94.964C163.133 95.382 163.217 95.7487 163.386 96.064C163.562 96.372 163.789 96.6067 164.068 96.768C164.354 96.9293 164.654 97.01 164.97 97.01C165.292 97.01 165.593 96.9293 165.872 96.768C166.158 96.5993 166.385 96.3573 166.554 96.042C166.73 95.7267 166.818 95.36 166.818 94.942ZM169.972 91.136C169.744 91.136 169.554 91.059 169.4 90.905C169.246 90.751 169.169 90.5603 169.169 90.333C169.169 90.1057 169.246 89.915 169.4 89.761C169.554 89.607 169.744 89.53 169.972 89.53C170.192 89.53 170.379 89.607 170.533 89.761C170.687 89.915 170.764 90.1057 170.764 90.333C170.764 90.5603 170.687 90.751 170.533 90.905C170.379 91.059 170.192 91.136 169.972 91.136ZM170.588 91.939V98H169.334V91.939H170.588ZM173.488 89.86V98H172.234V89.86H173.488ZM175.773 91.136C175.545 91.136 175.355 91.059 175.201 90.905C175.047 90.751 174.97 90.5603 174.97 90.333C174.97 90.1057 175.047 89.915 175.201 89.761C175.355 89.607 175.545 89.53 175.773 89.53C175.993 89.53 176.18 89.607 176.334 89.761C176.488 89.915 176.565 90.1057 176.565 90.333C176.565 90.5603 176.488 90.751 176.334 90.905C176.18 91.059 175.993 91.136 175.773 91.136ZM176.389 91.939V98H175.135V91.939H176.389ZM179.498 92.962V96.317C179.498 96.5443 179.549 96.7093 179.652 96.812C179.762 96.9073 179.945 96.955 180.202 96.955H180.972V98H179.982C179.417 98 178.985 97.868 178.684 97.604C178.383 97.34 178.233 96.911 178.233 96.317V92.962H177.518V91.939H178.233V90.432H179.498V91.939H180.972V92.962H179.498ZM187.584 91.939L183.866 100.849H182.568L183.8 97.901L181.413 91.939H182.81L184.515 96.559L186.286 91.939H187.584ZM198.725 91.84C199.201 91.84 199.627 91.939 200.001 92.137C200.382 92.335 200.679 92.6283 200.892 93.017C201.112 93.4057 201.222 93.875 201.222 94.425V98H199.979V94.612C199.979 94.0693 199.843 93.655 199.572 93.369C199.3 93.0757 198.93 92.929 198.461 92.929C197.991 92.929 197.617 93.0757 197.339 93.369C197.067 93.655 196.932 94.0693 196.932 94.612V98H195.689V94.612C195.689 94.0693 195.553 93.655 195.282 93.369C195.01 93.0757 194.64 92.929 194.171 92.929C193.701 92.929 193.327 93.0757 193.049 93.369C192.777 93.655 192.642 94.0693 192.642 94.612V98H191.388V91.939H192.642V92.632C192.847 92.3827 193.107 92.1883 193.423 92.049C193.738 91.9097 194.075 91.84 194.435 91.84C194.919 91.84 195.351 91.9427 195.733 92.148C196.114 92.3533 196.407 92.6503 196.613 93.039C196.796 92.6723 197.082 92.3827 197.471 92.17C197.859 91.95 198.277 91.84 198.725 91.84ZM202.399 94.942C202.399 94.3333 202.524 93.7943 202.773 93.325C203.03 92.8557 203.375 92.4927 203.807 92.236C204.247 91.972 204.731 91.84 205.259 91.84C205.736 91.84 206.15 91.9353 206.502 92.126C206.862 92.3093 207.148 92.5403 207.36 92.819V91.939H208.625V98H207.36V97.098C207.148 97.384 206.858 97.6223 206.491 97.813C206.125 98.0037 205.707 98.099 205.237 98.099C204.717 98.099 204.24 97.967 203.807 97.703C203.375 97.4317 203.03 97.0577 202.773 96.581C202.524 96.097 202.399 95.5507 202.399 94.942ZM207.36 94.964C207.36 94.546 207.272 94.183 207.096 93.875C206.928 93.567 206.704 93.3323 206.425 93.171C206.147 93.0097 205.846 92.929 205.523 92.929C205.201 92.929 204.9 93.0097 204.621 93.171C204.343 93.325 204.115 93.556 203.939 93.864C203.771 94.1647 203.686 94.524 203.686 94.942C203.686 95.36 203.771 95.7267 203.939 96.042C204.115 96.3573 204.343 96.5993 204.621 96.768C204.907 96.9293 205.208 97.01 205.523 97.01C205.846 97.01 206.147 96.9293 206.425 96.768C206.704 96.6067 206.928 96.372 207.096 96.064C207.272 95.7487 207.36 95.382 207.36 94.964ZM215.728 91.939L212.01 100.849H210.712L211.944 97.901L209.557 91.939H210.954L212.659 96.559L214.43 91.939H215.728ZM42.079 108.841C42.2917 108.548 42.5813 108.309 42.948 108.126C43.322 107.935 43.7363 107.84 44.191 107.84C44.7263 107.84 45.2103 107.968 45.643 108.225C46.0757 108.482 46.4167 108.848 46.666 109.325C46.9153 109.794 47.04 110.333 47.04 110.942C47.04 111.551 46.9153 112.097 46.666 112.581C46.4167 113.058 46.072 113.432 45.632 113.703C45.1993 113.967 44.719 114.099 44.191 114.099C43.7217 114.099 43.3037 114.007 42.937 113.824C42.5777 113.641 42.2917 113.406 42.079 113.12V114H40.825V105.86H42.079V108.841ZM45.764 110.942C45.764 110.524 45.676 110.165 45.5 109.864C45.3313 109.556 45.104 109.325 44.818 109.171C44.5393 109.01 44.2387 108.929 43.916 108.929C43.6007 108.929 43.3 109.01 43.014 109.171C42.7353 109.332 42.508 109.567 42.332 109.875C42.1633 110.183 42.079 110.546 42.079 110.964C42.079 111.382 42.1633 111.749 42.332 112.064C42.508 112.372 42.7353 112.607 43.014 112.768C43.3 112.929 43.6007 113.01 43.916 113.01C44.2387 113.01 44.5393 112.929 44.818 112.768C45.104 112.599 45.3313 112.357 45.5 112.042C45.676 111.727 45.764 111.36 45.764 110.942ZM53.8351 110.821C53.8351 111.048 53.8204 111.254 53.7911 111.437H49.1601C49.1967 111.921 49.3764 112.31 49.6991 112.603C50.0217 112.896 50.4177 113.043 50.8871 113.043C51.5617 113.043 52.0384 112.761 52.3171 112.196H53.6701C53.4867 112.753 53.1531 113.212 52.6691 113.571C52.1924 113.923 51.5984 114.099 50.8871 114.099C50.3077 114.099 49.7871 113.971 49.3251 113.714C48.8704 113.45 48.5111 113.083 48.2471 112.614C47.9904 112.137 47.8621 111.587 47.8621 110.964C47.8621 110.341 47.9867 109.794 48.2361 109.325C48.4927 108.848 48.8484 108.482 49.3031 108.225C49.7651 107.968 50.2931 107.84 50.8871 107.84C51.4591 107.84 51.9687 107.965 52.4161 108.214C52.8634 108.463 53.2117 108.815 53.4611 109.27C53.7104 109.717 53.8351 110.234 53.8351 110.821ZM52.5261 110.425C52.5187 109.963 52.3537 109.593 52.0311 109.314C51.7084 109.035 51.3087 108.896 50.8321 108.896C50.3994 108.896 50.0291 109.035 49.7211 109.314C49.4131 109.585 49.2297 109.956 49.1711 110.425H52.5261ZM57.5086 110.942C57.5086 110.333 57.6332 109.794 57.8826 109.325C58.1392 108.856 58.4839 108.493 58.9166 108.236C59.3566 107.972 59.8406 107.84 60.3686 107.84C60.8452 107.84 61.2596 107.935 61.6116 108.126C61.9709 108.309 62.2569 108.54 62.4696 108.819V107.939H63.7346V114H62.4696V113.098C62.2569 113.384 61.9672 113.622 61.6006 113.813C61.2339 114.004 60.8159 114.099 60.3466 114.099C59.8259 114.099 59.3492 113.967 58.9166 113.703C58.4839 113.432 58.1392 113.058 57.8826 112.581C57.6332 112.097 57.5086 111.551 57.5086 110.942ZM62.4696 110.964C62.4696 110.546 62.3816 110.183 62.2056 109.875C62.0369 109.567 61.8132 109.332 61.5346 109.171C61.2559 109.01 60.9552 108.929 60.6326 108.929C60.3099 108.929 60.0092 109.01 59.7306 109.171C59.4519 109.325 59.2246 109.556 59.0486 109.864C58.8799 110.165 58.7956 110.524 58.7956 110.942C58.7956 111.36 58.8799 111.727 59.0486 112.042C59.2246 112.357 59.4519 112.599 59.7306 112.768C60.0166 112.929 60.3172 113.01 60.6326 113.01C60.9552 113.01 61.2559 112.929 61.5346 112.768C61.8132 112.607 62.0369 112.372 62.2056 112.064C62.3816 111.749 62.4696 111.382 62.4696 110.964ZM67.9226 108.962H66.8006V114H65.5356V108.962H64.8206V107.939H65.5356V107.51C65.5356 106.813 65.719 106.307 66.0856 105.992C66.4596 105.669 67.0426 105.508 67.8346 105.508V106.553C67.4533 106.553 67.1856 106.626 67.0316 106.773C66.8776 106.912 66.8006 107.158 66.8006 107.51V107.939H67.9226V108.962ZM71.575 108.962H70.453V114H69.188V108.962H68.473V107.939H69.188V107.51C69.188 106.813 69.3713 106.307 69.738 105.992C70.112 105.669 70.695 105.508 71.487 105.508V106.553C71.1057 106.553 70.838 106.626 70.684 106.773C70.53 106.912 70.453 107.158 70.453 107.51V107.939H71.575V108.962ZM78.2413 110.821C78.2413 111.048 78.2267 111.254 78.1973 111.437H73.5663C73.603 111.921 73.7827 112.31 74.1053 112.603C74.428 112.896 74.824 113.043 75.2933 113.043C75.968 113.043 76.4447 112.761 76.7233 112.196H78.0763C77.893 112.753 77.5593 113.212 77.0753 113.571C76.5987 113.923 76.0047 114.099 75.2933 114.099C74.714 114.099 74.1933 113.971 73.7313 113.714C73.2767 113.45 72.9173 113.083 72.6533 112.614C72.3967 112.137 72.2683 111.587 72.2683 110.964C72.2683 110.341 72.393 109.794 72.6423 109.325C72.899 108.848 73.2547 108.482 73.7093 108.225C74.1713 107.968 74.6993 107.84 75.2933 107.84C75.8653 107.84 76.375 107.965 76.8223 108.214C77.2697 108.463 77.618 108.815 77.8673 109.27C78.1167 109.717 78.2413 110.234 78.2413 110.821ZM76.9323 110.425C76.925 109.963 76.76 109.593 76.4373 109.314C76.1147 109.035 75.715 108.896 75.2383 108.896C74.8057 108.896 74.4353 109.035 74.1273 109.314C73.8193 109.585 73.636 109.956 73.5773 110.425H76.9323ZM79.0574 110.964C79.0574 110.341 79.1821 109.794 79.4314 109.325C79.6881 108.848 80.0401 108.482 80.4874 108.225C80.9347 107.968 81.4481 107.84 82.0274 107.84C82.7607 107.84 83.3657 108.016 83.8424 108.368C84.3264 108.713 84.6527 109.208 84.8214 109.853H83.4684C83.3584 109.552 83.1824 109.318 82.9404 109.149C82.6984 108.98 82.3941 108.896 82.0274 108.896C81.5141 108.896 81.1034 109.079 80.7954 109.446C80.4947 109.805 80.3444 110.311 80.3444 110.964C80.3444 111.617 80.4947 112.126 80.7954 112.493C81.1034 112.86 81.5141 113.043 82.0274 113.043C82.7534 113.043 83.2337 112.724 83.4684 112.086H84.8214C84.6454 112.702 84.3154 113.193 83.8314 113.56C83.3474 113.919 82.7461 114.099 82.0274 114.099C81.4481 114.099 80.9347 113.971 80.4874 113.714C80.0401 113.45 79.6881 113.083 79.4314 112.614C79.1821 112.137 79.0574 111.587 79.0574 110.964ZM87.5341 108.962V112.317C87.5341 112.544 87.5854 112.709 87.6881 112.812C87.7981 112.907 87.9814 112.955 88.2381 112.955H89.0081V114H88.0181C87.4534 114 87.0208 113.868 86.7201 113.604C86.4194 113.34 86.2691 112.911 86.2691 112.317V108.962H85.5541V107.939H86.2691V106.432H87.5341V107.939H89.0081V108.962H87.5341ZM95.7189 110.821C95.7189 111.048 95.7042 111.254 95.6749 111.437H91.0439C91.0805 111.921 91.2602 112.31 91.5829 112.603C91.9055 112.896 92.3015 113.043 92.7709 113.043C93.4455 113.043 93.9222 112.761 94.2009 112.196H95.5539C95.3705 112.753 95.0369 113.212 94.5529 113.571C94.0762 113.923 93.4822 114.099 92.7709 114.099C92.1915 114.099 91.6709 113.971 91.2089 113.714C90.7542 113.45 90.3949 113.083 90.1309 112.614C89.8742 112.137 89.7459 111.587 89.7459 110.964C89.7459 110.341 89.8705 109.794 90.1199 109.325C90.3765 108.848 90.7322 108.482 91.1869 108.225C91.6489 107.968 92.1769 107.84 92.7709 107.84C93.3429 107.84 93.8525 107.965 94.2999 108.214C94.7472 108.463 95.0955 108.815 95.3449 109.27C95.5942 109.717 95.7189 110.234 95.7189 110.821ZM94.4099 110.425C94.4025 109.963 94.2375 109.593 93.9149 109.314C93.5922 109.035 93.1925 108.896 92.7159 108.896C92.2832 108.896 91.9129 109.035 91.6049 109.314C91.2969 109.585 91.1135 109.956 91.0549 110.425H94.4099ZM96.5349 110.942C96.5349 110.333 96.6596 109.794 96.9089 109.325C97.1656 108.856 97.5103 108.493 97.9429 108.236C98.3829 107.972 98.8706 107.84 99.4059 107.84C99.8019 107.84 100.191 107.928 100.572 108.104C100.961 108.273 101.269 108.5 101.496 108.786V105.86H102.761V114H101.496V113.087C101.291 113.38 101.005 113.622 100.638 113.813C100.279 114.004 99.8643 114.099 99.3949 114.099C98.8669 114.099 98.3829 113.967 97.9429 113.703C97.5103 113.432 97.1656 113.058 96.9089 112.581C96.6596 112.097 96.5349 111.551 96.5349 110.942ZM101.496 110.964C101.496 110.546 101.408 110.183 101.232 109.875C101.063 109.567 100.84 109.332 100.561 109.171C100.282 109.01 99.9816 108.929 99.6589 108.929C99.3363 108.929 99.0356 109.01 98.7569 109.171C98.4783 109.325 98.2509 109.556 98.0749 109.864C97.9063 110.165 97.8219 110.524 97.8219 110.942C97.8219 111.36 97.9063 111.727 98.0749 112.042C98.2509 112.357 98.4783 112.599 98.7569 112.768C99.0429 112.929 99.3436 113.01 99.6589 113.01C99.9816 113.01 100.282 112.929 100.561 112.768C100.84 112.607 101.063 112.372 101.232 112.064C101.408 111.749 101.496 111.382 101.496 110.964ZM104.914 114.077C104.687 114.077 104.496 114 104.342 113.846C104.188 113.692 104.111 113.501 104.111 113.274C104.111 113.047 104.188 112.856 104.342 112.702C104.496 112.548 104.687 112.471 104.914 112.471C105.134 112.471 105.321 112.548 105.475 112.702C105.629 112.856 105.706 113.047 105.706 113.274C105.706 113.501 105.629 113.692 105.475 113.846C105.321 114 105.134 114.077 104.914 114.077ZM109.501 110.161C109.501 109.413 109.673 108.742 110.018 108.148C110.37 107.554 110.843 107.092 111.437 106.762C112.038 106.425 112.694 106.256 113.406 106.256C114.22 106.256 114.942 106.458 115.573 106.861C116.211 107.257 116.673 107.822 116.959 108.555H115.452C115.254 108.152 114.979 107.851 114.627 107.653C114.275 107.455 113.868 107.356 113.406 107.356C112.9 107.356 112.449 107.47 112.053 107.697C111.657 107.924 111.345 108.251 111.118 108.676C110.898 109.101 110.788 109.596 110.788 110.161C110.788 110.726 110.898 111.221 111.118 111.646C111.345 112.071 111.657 112.401 112.053 112.636C112.449 112.863 112.9 112.977 113.406 112.977C113.868 112.977 114.275 112.878 114.627 112.68C114.979 112.482 115.254 112.181 115.452 111.778H116.959C116.673 112.511 116.211 113.076 115.573 113.472C114.942 113.868 114.22 114.066 113.406 114.066C112.687 114.066 112.031 113.901 111.437 113.571C110.843 113.234 110.37 112.768 110.018 112.174C109.673 111.58 109.501 110.909 109.501 110.161ZM119.681 105.86V114H118.427V105.86H119.681ZM121.965 107.136C121.738 107.136 121.547 107.059 121.393 106.905C121.239 106.751 121.162 106.56 121.162 106.333C121.162 106.106 121.239 105.915 121.393 105.761C121.547 105.607 121.738 105.53 121.965 105.53C122.185 105.53 122.372 105.607 122.526 105.761C122.68 105.915 122.757 106.106 122.757 106.333C122.757 106.56 122.68 106.751 122.526 106.905C122.372 107.059 122.185 107.136 121.965 107.136ZM122.581 107.939V114H121.327V107.939H122.581ZM123.809 110.964C123.809 110.341 123.934 109.794 124.183 109.325C124.44 108.848 124.792 108.482 125.239 108.225C125.687 107.968 126.2 107.84 126.779 107.84C127.513 107.84 128.118 108.016 128.594 108.368C129.078 108.713 129.405 109.208 129.573 109.853H128.22C128.11 109.552 127.934 109.318 127.692 109.149C127.45 108.98 127.146 108.896 126.779 108.896C126.266 108.896 125.855 109.079 125.547 109.446C125.247 109.805 125.096 110.311 125.096 110.964C125.096 111.617 125.247 112.126 125.547 112.493C125.855 112.86 126.266 113.043 126.779 113.043C127.505 113.043 127.986 112.724 128.22 112.086H129.573C129.397 112.702 129.067 113.193 128.583 113.56C128.099 113.919 127.498 114.099 126.779 114.099C126.2 114.099 125.687 113.971 125.239 113.714C124.792 113.45 124.44 113.083 124.183 112.614C123.934 112.137 123.809 111.587 123.809 110.964ZM133.221 110.975L136.015 114H134.321L132.077 111.393V114H130.823V105.86H132.077V110.59L134.277 107.939H136.015L133.221 110.975ZM142.906 107.84C143.368 107.84 143.779 107.939 144.138 108.137C144.505 108.335 144.791 108.628 144.996 109.017C145.209 109.406 145.315 109.875 145.315 110.425V114H144.072V110.612C144.072 110.069 143.937 109.655 143.665 109.369C143.394 109.076 143.024 108.929 142.554 108.929C142.085 108.929 141.711 109.076 141.432 109.369C141.161 109.655 141.025 110.069 141.025 110.612V114H139.771V105.86H141.025V108.643C141.238 108.386 141.506 108.188 141.828 108.049C142.158 107.91 142.518 107.84 142.906 107.84ZM152.47 110.821C152.47 111.048 152.455 111.254 152.426 111.437H147.795C147.832 111.921 148.011 112.31 148.334 112.603C148.657 112.896 149.053 113.043 149.522 113.043C150.197 113.043 150.673 112.761 150.952 112.196H152.305C152.122 112.753 151.788 113.212 151.304 113.571C150.827 113.923 150.233 114.099 149.522 114.099C148.943 114.099 148.422 113.971 147.96 113.714C147.505 113.45 147.146 113.083 146.882 112.614C146.625 112.137 146.497 111.587 146.497 110.964C146.497 110.341 146.622 109.794 146.871 109.325C147.128 108.848 147.483 108.482 147.938 108.225C148.4 107.968 148.928 107.84 149.522 107.84C150.094 107.84 150.604 107.965 151.051 108.214C151.498 108.463 151.847 108.815 152.096 109.27C152.345 109.717 152.47 110.234 152.47 110.821ZM151.161 110.425C151.154 109.963 150.989 109.593 150.666 109.314C150.343 109.035 149.944 108.896 149.467 108.896C149.034 108.896 148.664 109.035 148.356 109.314C148.048 109.585 147.865 109.956 147.806 110.425H151.161ZM154.958 108.819C155.141 108.511 155.383 108.273 155.684 108.104C155.992 107.928 156.355 107.84 156.773 107.84V109.138H156.454C155.963 109.138 155.589 109.263 155.332 109.512C155.083 109.761 154.958 110.194 154.958 110.81V114H153.704V107.939H154.958V108.819ZM163.481 110.821C163.481 111.048 163.466 111.254 163.437 111.437H158.806C158.842 111.921 159.022 112.31 159.345 112.603C159.667 112.896 160.063 113.043 160.533 113.043C161.207 113.043 161.684 112.761 161.963 112.196H163.316C163.132 112.753 162.799 113.212 162.315 113.571C161.838 113.923 161.244 114.099 160.533 114.099C159.953 114.099 159.433 113.971 158.971 113.714C158.516 113.45 158.157 113.083 157.893 112.614C157.636 112.137 157.508 111.587 157.508 110.964C157.508 110.341 157.632 109.794 157.882 109.325C158.138 108.848 158.494 108.482 158.949 108.225C159.411 107.968 159.939 107.84 160.533 107.84C161.105 107.84 161.614 107.965 162.062 108.214C162.509 108.463 162.857 108.815 163.107 109.27C163.356 109.717 163.481 110.234 163.481 110.821ZM162.172 110.425C162.164 109.963 161.999 109.593 161.677 109.314C161.354 109.035 160.954 108.896 160.478 108.896C160.045 108.896 159.675 109.035 159.367 109.314C159.059 109.585 158.875 109.956 158.817 110.425H162.172ZM169.035 108.962V112.317C169.035 112.544 169.086 112.709 169.189 112.812C169.299 112.907 169.482 112.955 169.739 112.955H170.509V114H169.519C168.954 114 168.522 113.868 168.221 113.604C167.92 113.34 167.77 112.911 167.77 112.317V108.962H167.055V107.939H167.77V106.432H169.035V107.939H170.509V108.962H169.035ZM174.294 114.099C173.722 114.099 173.205 113.971 172.743 113.714C172.281 113.45 171.918 113.083 171.654 112.614C171.39 112.137 171.258 111.587 171.258 110.964C171.258 110.348 171.394 109.802 171.665 109.325C171.936 108.848 172.307 108.482 172.776 108.225C173.245 107.968 173.77 107.84 174.349 107.84C174.928 107.84 175.453 107.968 175.922 108.225C176.391 108.482 176.762 108.848 177.033 109.325C177.304 109.802 177.44 110.348 177.44 110.964C177.44 111.58 177.301 112.126 177.022 112.603C176.743 113.08 176.362 113.45 175.878 113.714C175.401 113.971 174.873 114.099 174.294 114.099ZM174.294 113.01C174.617 113.01 174.917 112.933 175.196 112.779C175.482 112.625 175.713 112.394 175.889 112.086C176.065 111.778 176.153 111.404 176.153 110.964C176.153 110.524 176.069 110.154 175.9 109.853C175.731 109.545 175.508 109.314 175.229 109.16C174.95 109.006 174.65 108.929 174.327 108.929C174.004 108.929 173.704 109.006 173.425 109.16C173.154 109.314 172.937 109.545 172.776 109.853C172.615 110.154 172.534 110.524 172.534 110.964C172.534 111.617 172.699 112.123 173.029 112.482C173.366 112.834 173.788 113.01 174.294 113.01ZM184.078 108.962H182.956V114H181.691V108.962H180.976V107.939H181.691V107.51C181.691 106.813 181.874 106.307 182.241 105.992C182.615 105.669 183.198 105.508 183.99 105.508V106.553C183.609 106.553 183.341 106.626 183.187 106.773C183.033 106.912 182.956 107.158 182.956 107.51V107.939H184.078V108.962ZM185.827 107.136C185.6 107.136 185.409 107.059 185.255 106.905C185.101 106.751 185.024 106.56 185.024 106.333C185.024 106.106 185.101 105.915 185.255 105.761C185.409 105.607 185.6 105.53 185.827 105.53C186.047 105.53 186.234 105.607 186.388 105.761C186.542 105.915 186.619 106.106 186.619 106.333C186.619 106.56 186.542 106.751 186.388 106.905C186.234 107.059 186.047 107.136 185.827 107.136ZM186.443 107.939V114H185.189V107.939H186.443ZM190.686 110.931L192.644 114H191.225L189.916 111.943L188.684 114H187.375L189.333 111.019L187.375 107.939H188.794L190.103 109.996L191.335 107.939H192.644L190.686 110.931ZM194.085 114.077C193.858 114.077 193.667 114 193.513 113.846C193.359 113.692 193.282 113.501 193.282 113.274C193.282 113.047 193.359 112.856 193.513 112.702C193.667 112.548 193.858 112.471 194.085 112.471C194.305 112.471 194.492 112.548 194.646 112.702C194.8 112.856 194.877 113.047 194.877 113.274C194.877 113.501 194.8 113.692 194.646 113.846C194.492 114 194.305 114.077 194.085 114.077ZM196.738 114.077C196.511 114.077 196.32 114 196.166 113.846C196.012 113.692 195.935 113.501 195.935 113.274C195.935 113.047 196.012 112.856 196.166 112.702C196.32 112.548 196.511 112.471 196.738 112.471C196.958 112.471 197.145 112.548 197.299 112.702C197.453 112.856 197.53 113.047 197.53 113.274C197.53 113.501 197.453 113.692 197.299 113.846C197.145 114 196.958 114.077 196.738 114.077ZM199.392 114.077C199.164 114.077 198.974 114 198.82 113.846C198.666 113.692 198.589 113.501 198.589 113.274C198.589 113.047 198.666 112.856 198.82 112.702C198.974 112.548 199.164 112.471 199.392 112.471C199.612 112.471 199.799 112.548 199.953 112.702C200.107 112.856 200.184 113.047 200.184 113.274C200.184 113.501 200.107 113.692 199.953 113.846C199.799 114 199.612 114.077 199.392 114.077Z"></path>
<path stroke-linejoin="round" stroke-linecap="round" stroke-width="1.5" stroke="#BFBFBF" d="M211.464 41.4645L218.536 48.5356M218.536 41.4645L211.464 48.5356"></path>
<path stroke-width="0.2" stroke="url(#paint1_linear_964_47)" fill="url(#paint0_linear_964_47)" d="M42.9231 37.0386L40.8462 37.7309L45 45.0001L49.1539 37.7309L47.077 37.0386C46.4361 39.0681 43.564 39.0681 42.9231 37.0386Z"></path>
<path stroke-width="0.2" stroke="url(#paint3_linear_964_47)" fill="url(#paint2_linear_964_47)" d="M47.0769 52.9614L49.1538 52.2691L45 44.9999L40.8461 52.2691L42.923 52.9614C43.5639 50.9319 46.436 50.9319 47.0769 52.9614Z"></path>
<path stroke-width="0.2" stroke="url(#paint5_linear_964_47)" fill="url(#paint4_linear_964_47)" d="M50.8563 39.2205L49.2183 37.768L44.9999 45L53.3722 44.9627L52.9333 42.8179C50.8552 43.2776 49.4192 40.7904 50.8563 39.2205Z"></path>
<path stroke-width="0.2" stroke="url(#paint7_linear_964_47)" fill="url(#paint6_linear_964_47)" d="M39.1437 50.7795L40.7817 52.232L45.0001 45L36.6278 45.0373L37.0667 47.1821C39.1448 46.7224 40.5808 49.2096 39.1437 50.7795Z"></path>
<path stroke-width="0.2" stroke="url(#paint9_linear_964_47)" fill="url(#paint8_linear_964_47)" d="M37.0663 42.818L36.6274 44.9629L44.9996 45.0001L40.7812 37.7682L39.1432 39.2207C40.5804 40.7905 39.1444 43.2778 37.0663 42.818Z"></path>
<path stroke-width="0.2" stroke="url(#paint11_linear_964_47)" fill="url(#paint10_linear_964_47)" d="M52.9332 47.1822L53.3721 45.0374L44.9999 45.0001L49.2183 52.2321L50.8563 50.7795C49.4191 49.2097 50.8551 46.7225 52.9332 47.1822Z"></path>
<rect stroke-width="1.38462" stroke="url(#paint13_linear_964_47)" fill="url(#paint12_linear_964_47)" rx="3.46154" height="6.92308" width="6.92308" y="41.5385" x="41.5385"></rect>
<defs>
<linearGradient gradientUnits="userSpaceOnUse" y2="53.3078" x2="53.3077" y1="36.6924" x1="36.6923" id="paint0_linear_964_47">
<stop stop-color="#8A9199"></stop>
<stop stop-color="#66737D" offset="1"></stop>
</linearGradient>
<linearGradient gradientUnits="userSpaceOnUse" y2="53.3078" x2="53.3077" y1="36.6924" x1="36.6923" id="paint1_linear_964_47">
<stop stop-color="#8A9199"></stop>
<stop stop-color="#66737D" offset="1"></stop>
</linearGradient>
<linearGradient gradientUnits="userSpaceOnUse" y2="53.3076" x2="53.3077" y1="36.6922" x1="36.6923" id="paint2_linear_964_47">
<stop stop-color="#8A9199"></stop>
<stop stop-color="#66737D" offset="1"></stop>
</linearGradient>
<linearGradient gradientUnits="userSpaceOnUse" y2="53.3076" x2="53.3077" y1="36.6922" x1="36.6923" id="paint3_linear_964_47">
<stop stop-color="#8A9199"></stop>
<stop stop-color="#66737D" offset="1"></stop>
</linearGradient>
<linearGradient gradientUnits="userSpaceOnUse" y2="53.3077" x2="53.3076" y1="36.6923" x1="36.6922" id="paint4_linear_964_47">
<stop stop-color="#8A9199"></stop>
<stop stop-color="#66737D" offset="1"></stop>
</linearGradient>
<linearGradient gradientUnits="userSpaceOnUse" y2="53.3077" x2="53.3076" y1="36.6923" x1="36.6922" id="paint5_linear_964_47">
<stop stop-color="#8A9199"></stop>
<stop stop-color="#66737D" offset="1"></stop>
</linearGradient>
<linearGradient gradientUnits="userSpaceOnUse" y2="53.3077" x2="53.3078" y1="36.6923" x1="36.6924" id="paint6_linear_964_47">
<stop stop-color="#8A9199"></stop>
<stop stop-color="#66737D" offset="1"></stop>
</linearGradient>
<linearGradient gradientUnits="userSpaceOnUse" y2="53.3077" x2="53.3078" y1="36.6923" x1="36.6924" id="paint7_linear_964_47">
<stop stop-color="#8A9199"></stop>
<stop stop-color="#66737D" offset="1"></stop>
</linearGradient>
<linearGradient gradientUnits="userSpaceOnUse" y2="53.3078" x2="53.3073" y1="36.6924" x1="36.692" id="paint8_linear_964_47">
<stop stop-color="#8A9199"></stop>
<stop stop-color="#66737D" offset="1"></stop>
</linearGradient>
<linearGradient gradientUnits="userSpaceOnUse" y2="53.3078" x2="53.3073" y1="36.6924" x1="36.692" id="paint9_linear_964_47">
<stop stop-color="#8A9199"></stop>
<stop stop-color="#66737D" offset="1"></stop>
</linearGradient>
<linearGradient gradientUnits="userSpaceOnUse" y2="53.3078" x2="53.3076" y1="36.6924" x1="36.6922" id="paint10_linear_964_47">
<stop stop-color="#8A9199"></stop>
<stop stop-color="#66737D" offset="1"></stop>
</linearGradient>
<linearGradient gradientUnits="userSpaceOnUse" y2="53.3078" x2="53.3076" y1="36.6924" x1="36.6922" id="paint11_linear_964_47">
<stop stop-color="#8A9199"></stop>
<stop stop-color="#66737D" offset="1"></stop>
</linearGradient>
<linearGradient gradientUnits="userSpaceOnUse" y2="47.077" x2="47.077" y1="42.9231" x1="42.9231" id="paint12_linear_964_47">
<stop stop-color="#0669BC"></stop>
<stop stop-color="#0F4F93" offset="1"></stop>
</linearGradient>
<linearGradient gradientUnits="userSpaceOnUse" y2="48.1154" x2="47.7693" y1="42.2308" x1="41.8847" id="paint13_linear_964_47">
<stop stop-color="#BEC4C9"></stop>
<stop stop-color="#F7F7F8" offset="1"></stop>
</linearGradient>
</defs>
</svg>
