<svg xmlns="http://www.w3.org/2000/svg" fill="none" viewBox="0 0 480 360" height="360" width="480">
<rect fill-opacity="0.05" fill="black" rx="5" height="36" width="66" y="50" x="180"></rect>
<path fill="black" d="M218.344 72.077C217.831 72.077 217.369 71.989 216.958 71.813C216.547 71.6297 216.225 71.373 215.99 71.043C215.755 70.713 215.638 70.328 215.638 69.888H216.98C217.009 70.218 217.138 70.4893 217.365 70.702C217.6 70.9147 217.926 71.021 218.344 71.021C218.777 71.021 219.114 70.9183 219.356 70.713C219.598 70.5003 219.719 70.229 219.719 69.899C219.719 69.6423 219.642 69.4333 219.488 69.272C219.341 69.1107 219.154 68.986 218.927 68.898C218.707 68.81 218.399 68.7147 218.003 68.612C217.504 68.48 217.097 68.348 216.782 68.216C216.474 68.0767 216.21 67.864 215.99 67.578C215.77 67.292 215.66 66.9107 215.66 66.434C215.66 65.994 215.77 65.609 215.99 65.279C216.21 64.949 216.518 64.696 216.914 64.52C217.31 64.344 217.768 64.256 218.289 64.256C219.03 64.256 219.635 64.443 220.104 64.817C220.581 65.1837 220.845 65.6897 220.896 66.335H219.51C219.488 66.0563 219.356 65.818 219.114 65.62C218.872 65.422 218.553 65.323 218.157 65.323C217.798 65.323 217.504 65.4147 217.277 65.598C217.05 65.7813 216.936 66.0453 216.936 66.39C216.936 66.6247 217.006 66.819 217.145 66.973C217.292 67.1197 217.475 67.237 217.695 67.325C217.915 67.413 218.216 67.5083 218.597 67.611C219.103 67.7503 219.514 67.8897 219.829 68.029C220.152 68.1683 220.423 68.3847 220.643 68.678C220.87 68.964 220.984 69.349 220.984 69.833C220.984 70.2217 220.878 70.5883 220.665 70.933C220.46 71.2777 220.155 71.5563 219.752 71.769C219.356 71.9743 218.887 72.077 218.344 72.077ZM223.102 65.136C222.874 65.136 222.684 65.059 222.53 64.905C222.376 64.751 222.299 64.5603 222.299 64.333C222.299 64.1057 222.376 63.915 222.53 63.761C222.684 63.607 222.874 63.53 223.102 63.53C223.322 63.53 223.509 63.607 223.663 63.761C223.817 63.915 223.894 64.1057 223.894 64.333C223.894 64.5603 223.817 64.751 223.663 64.905C223.509 65.059 223.322 65.136 223.102 65.136ZM223.718 65.939V72H222.464V65.939H223.718ZM226.475 70.977H229.225V72H225.023V70.977L227.784 66.962H225.023V65.939H229.225V66.962L226.475 70.977ZM236.097 68.821C236.097 69.0483 236.082 69.2537 236.053 69.437H231.422C231.458 69.921 231.638 70.3097 231.961 70.603C232.283 70.8963 232.679 71.043 233.149 71.043C233.823 71.043 234.3 70.7607 234.579 70.196H235.932C235.748 70.7533 235.415 71.2117 234.931 71.571C234.454 71.923 233.86 72.099 233.149 72.099C232.569 72.099 232.049 71.9707 231.587 71.714C231.132 71.45 230.773 71.0833 230.509 70.614C230.252 70.1373 230.124 69.5873 230.124 68.964C230.124 68.3407 230.248 67.7943 230.498 67.325C230.754 66.8483 231.11 66.4817 231.565 66.225C232.027 65.9683 232.555 65.84 233.149 65.84C233.721 65.84 234.23 65.9647 234.678 66.214C235.125 66.4633 235.473 66.8153 235.723 67.27C235.972 67.7173 236.097 68.2343 236.097 68.821ZM234.788 68.425C234.78 67.963 234.615 67.5927 234.293 67.314C233.97 67.0353 233.57 66.896 233.094 66.896C232.661 66.896 232.291 67.0353 231.983 67.314C231.675 67.5853 231.491 67.9557 231.433 68.425H234.788Z"></path>
</svg>
