<svg xmlns="http://www.w3.org/2000/svg" fill="none" viewBox="0 0 480 360" height="360" width="480">
<path fill="white" d="M190.407 105.161C190.407 104.413 190.579 103.742 190.924 103.148C191.276 102.554 191.749 102.092 192.343 101.762C192.944 101.425 193.601 101.256 194.312 101.256C195.126 101.256 195.848 101.458 196.479 101.861C197.117 102.257 197.579 102.822 197.865 103.555H196.358C196.16 103.152 195.885 102.851 195.533 102.653C195.181 102.455 194.774 102.356 194.312 102.356C193.806 102.356 193.355 102.47 192.959 102.697C192.563 102.924 192.251 103.251 192.024 103.676C191.804 104.101 191.694 104.596 191.694 105.161C191.694 105.726 191.804 106.221 192.024 106.646C192.251 107.071 192.563 107.401 192.959 107.636C193.355 107.863 193.806 107.977 194.312 107.977C194.774 107.977 195.181 107.878 195.533 107.68C195.885 107.482 196.16 107.181 196.358 106.778H197.865C197.579 107.511 197.117 108.076 196.479 108.472C195.848 108.868 195.126 109.066 194.312 109.066C193.593 109.066 192.937 108.901 192.343 108.571C191.749 108.234 191.276 107.768 190.924 107.174C190.579 106.58 190.407 105.909 190.407 105.161ZM202.468 102.84C202.93 102.84 203.34 102.939 203.7 103.137C204.066 103.335 204.352 103.628 204.558 104.017C204.77 104.406 204.877 104.875 204.877 105.425V109H203.634V105.612C203.634 105.069 203.498 104.655 203.227 104.369C202.955 104.076 202.585 103.929 202.116 103.929C201.646 103.929 201.272 104.076 200.994 104.369C200.722 104.655 200.587 105.069 200.587 105.612V109H199.333V100.86H200.587V103.643C200.799 103.386 201.067 103.188 201.39 103.049C201.72 102.91 202.079 102.84 202.468 102.84ZM212.031 105.821C212.031 106.048 212.017 106.254 211.987 106.437H207.356C207.393 106.921 207.573 107.31 207.895 107.603C208.218 107.896 208.614 108.043 209.083 108.043C209.758 108.043 210.235 107.761 210.513 107.196H211.866C211.683 107.753 211.349 108.212 210.865 108.571C210.389 108.923 209.795 109.099 209.083 109.099C208.504 109.099 207.983 108.971 207.521 108.714C207.067 108.45 206.707 108.083 206.443 107.614C206.187 107.137 206.058 106.587 206.058 105.964C206.058 105.341 206.183 104.794 206.432 104.325C206.689 103.848 207.045 103.482 207.499 103.225C207.961 102.968 208.489 102.84 209.083 102.84C209.655 102.84 210.165 102.965 210.612 103.214C211.06 103.463 211.408 103.815 211.657 104.27C211.907 104.717 212.031 105.234 212.031 105.821ZM210.722 105.425C210.715 104.963 210.55 104.593 210.227 104.314C209.905 104.035 209.505 103.896 209.028 103.896C208.596 103.896 208.225 104.035 207.917 104.314C207.609 104.585 207.426 104.956 207.367 105.425H210.722ZM212.847 105.964C212.847 105.341 212.972 104.794 213.221 104.325C213.478 103.848 213.83 103.482 214.277 103.225C214.725 102.968 215.238 102.84 215.817 102.84C216.551 102.84 217.156 103.016 217.632 103.368C218.116 103.713 218.443 104.208 218.611 104.853H217.258C217.148 104.552 216.972 104.318 216.73 104.149C216.488 103.98 216.184 103.896 215.817 103.896C215.304 103.896 214.893 104.079 214.585 104.446C214.285 104.805 214.134 105.311 214.134 105.964C214.134 106.617 214.285 107.126 214.585 107.493C214.893 107.86 215.304 108.043 215.817 108.043C216.543 108.043 217.024 107.724 217.258 107.086H218.611C218.435 107.702 218.105 108.193 217.621 108.56C217.137 108.919 216.536 109.099 215.817 109.099C215.238 109.099 214.725 108.971 214.277 108.714C213.83 108.45 213.478 108.083 213.221 107.614C212.972 107.137 212.847 106.587 212.847 105.964ZM222.259 105.975L225.053 109H223.359L221.115 106.393V109H219.861V100.86H221.115V105.59L223.315 102.939H225.053L222.259 105.975ZM231.35 103.962H230.228V109H228.963V103.962H228.248V102.939H228.963V102.51C228.963 101.813 229.147 101.307 229.513 100.992C229.887 100.669 230.47 100.508 231.262 100.508V101.553C230.881 101.553 230.613 101.626 230.459 101.773C230.305 101.912 230.228 102.158 230.228 102.51V102.939H231.35V103.962ZM235.091 109.099C234.519 109.099 234.002 108.971 233.54 108.714C233.078 108.45 232.715 108.083 232.451 107.614C232.187 107.137 232.055 106.587 232.055 105.964C232.055 105.348 232.19 104.802 232.462 104.325C232.733 103.848 233.103 103.482 233.573 103.225C234.042 102.968 234.566 102.84 235.146 102.84C235.725 102.84 236.249 102.968 236.719 103.225C237.188 103.482 237.558 103.848 237.83 104.325C238.101 104.802 238.237 105.348 238.237 105.964C238.237 106.58 238.097 107.126 237.819 107.603C237.54 108.08 237.159 108.45 236.675 108.714C236.198 108.971 235.67 109.099 235.091 109.099ZM235.091 108.01C235.413 108.01 235.714 107.933 235.993 107.779C236.279 107.625 236.51 107.394 236.686 107.086C236.862 106.778 236.95 106.404 236.95 105.964C236.95 105.524 236.865 105.154 236.697 104.853C236.528 104.545 236.304 104.314 236.026 104.16C235.747 104.006 235.446 103.929 235.124 103.929C234.801 103.929 234.5 104.006 234.222 104.16C233.95 104.314 233.734 104.545 233.573 104.853C233.411 105.154 233.331 105.524 233.331 105.964C233.331 106.617 233.496 107.123 233.826 107.482C234.163 107.834 234.585 108.01 235.091 108.01ZM240.73 103.819C240.914 103.511 241.156 103.273 241.456 103.104C241.764 102.928 242.127 102.84 242.545 102.84V104.138H242.226C241.735 104.138 241.361 104.263 241.104 104.512C240.855 104.761 240.73 105.194 240.73 105.81V109H239.476V102.939H240.73V103.819ZM249.096 103.962H247.974V109H246.709V103.962H245.994V102.939H246.709V102.51C246.709 101.813 246.893 101.307 247.259 100.992C247.633 100.669 248.216 100.508 249.008 100.508V101.553C248.627 101.553 248.359 101.626 248.205 101.773C248.051 101.912 247.974 102.158 247.974 102.51V102.939H249.096V103.962ZM250.846 102.136C250.618 102.136 250.428 102.059 250.274 101.905C250.12 101.751 250.043 101.56 250.043 101.333C250.043 101.106 250.12 100.915 250.274 100.761C250.428 100.607 250.618 100.53 250.846 100.53C251.066 100.53 251.253 100.607 251.407 100.761C251.561 100.915 251.638 101.106 251.638 101.333C251.638 101.56 251.561 101.751 251.407 101.905C251.253 102.059 251.066 102.136 250.846 102.136ZM251.462 102.939V109H250.208V102.939H251.462ZM254.362 100.86V109H253.108V100.86H254.362ZM261.564 105.821C261.564 106.048 261.549 106.254 261.52 106.437H256.889C256.925 106.921 257.105 107.31 257.428 107.603C257.75 107.896 258.146 108.043 258.616 108.043C259.29 108.043 259.767 107.761 260.046 107.196H261.399C261.215 107.753 260.882 108.212 260.398 108.571C259.921 108.923 259.327 109.099 258.616 109.099C258.036 109.099 257.516 108.971 257.054 108.714C256.599 108.45 256.24 108.083 255.976 107.614C255.719 107.137 255.591 106.587 255.591 105.964C255.591 105.341 255.715 104.794 255.965 104.325C256.221 103.848 256.577 103.482 257.032 103.225C257.494 102.968 258.022 102.84 258.616 102.84C259.188 102.84 259.697 102.965 260.145 103.214C260.592 103.463 260.94 103.815 261.19 104.27C261.439 104.717 261.564 105.234 261.564 105.821ZM260.255 105.425C260.247 104.963 260.082 104.593 259.76 104.314C259.437 104.035 259.037 103.896 258.561 103.896C258.128 103.896 257.758 104.035 257.45 104.314C257.142 104.585 256.958 104.956 256.9 105.425H260.255ZM267.855 109.099C267.378 109.099 266.949 109.015 266.568 108.846C266.194 108.67 265.897 108.435 265.677 108.142C265.457 107.841 265.34 107.508 265.325 107.141H266.623C266.645 107.398 266.766 107.614 266.986 107.79C267.213 107.959 267.496 108.043 267.833 108.043C268.185 108.043 268.456 107.977 268.647 107.845C268.845 107.706 268.944 107.53 268.944 107.317C268.944 107.09 268.834 106.921 268.614 106.811C268.401 106.701 268.06 106.58 267.591 106.448C267.136 106.323 266.766 106.202 266.48 106.085C266.194 105.968 265.945 105.788 265.732 105.546C265.527 105.304 265.424 104.985 265.424 104.589C265.424 104.266 265.519 103.973 265.71 103.709C265.901 103.438 266.172 103.225 266.524 103.071C266.883 102.917 267.294 102.84 267.756 102.84C268.445 102.84 268.999 103.016 269.417 103.368C269.842 103.713 270.07 104.186 270.099 104.787H268.845C268.823 104.516 268.713 104.299 268.515 104.138C268.317 103.977 268.049 103.896 267.712 103.896C267.382 103.896 267.129 103.958 266.953 104.083C266.777 104.208 266.689 104.373 266.689 104.578C266.689 104.739 266.748 104.875 266.865 104.985C266.982 105.095 267.125 105.183 267.294 105.249C267.463 105.308 267.712 105.385 268.042 105.48C268.482 105.597 268.841 105.718 269.12 105.843C269.406 105.96 269.652 106.136 269.857 106.371C270.062 106.606 270.169 106.917 270.176 107.306C270.176 107.651 270.081 107.959 269.89 108.23C269.699 108.501 269.428 108.714 269.076 108.868C268.731 109.022 268.324 109.099 267.855 109.099ZM276.987 102.939L273.269 111.849H271.971L273.203 108.901L270.816 102.939H272.213L273.918 107.559L275.689 102.939H276.987ZM280.133 109.099C279.657 109.099 279.228 109.015 278.846 108.846C278.472 108.67 278.175 108.435 277.955 108.142C277.735 107.841 277.618 107.508 277.603 107.141H278.901C278.923 107.398 279.044 107.614 279.264 107.79C279.492 107.959 279.774 108.043 280.111 108.043C280.463 108.043 280.735 107.977 280.925 107.845C281.123 107.706 281.222 107.53 281.222 107.317C281.222 107.09 281.112 106.921 280.892 106.811C280.68 106.701 280.339 106.58 279.869 106.448C279.415 106.323 279.044 106.202 278.758 106.085C278.472 105.968 278.223 105.788 278.01 105.546C277.805 105.304 277.702 104.985 277.702 104.589C277.702 104.266 277.798 103.973 277.988 103.709C278.179 103.438 278.45 103.225 278.802 103.071C279.162 102.917 279.572 102.84 280.034 102.84C280.724 102.84 281.277 103.016 281.695 103.368C282.121 103.713 282.348 104.186 282.377 104.787H281.123C281.101 104.516 280.991 104.299 280.793 104.138C280.595 103.977 280.328 103.896 279.99 103.896C279.66 103.896 279.407 103.958 279.231 104.083C279.055 104.208 278.967 104.373 278.967 104.578C278.967 104.739 279.026 104.875 279.143 104.985C279.261 105.095 279.404 105.183 279.572 105.249C279.741 105.308 279.99 105.385 280.32 105.48C280.76 105.597 281.12 105.718 281.398 105.843C281.684 105.96 281.93 106.136 282.135 106.371C282.341 106.606 282.447 106.917 282.454 107.306C282.454 107.651 282.359 107.959 282.168 108.23C281.978 108.501 281.706 108.714 281.354 108.868C281.01 109.022 280.603 109.099 280.133 109.099ZM285.272 103.962V107.317C285.272 107.544 285.324 107.709 285.426 107.812C285.536 107.907 285.72 107.955 285.976 107.955H286.746V109H285.756C285.192 109 284.759 108.868 284.458 108.604C284.158 108.34 284.007 107.911 284.007 107.317V103.962H283.292V102.939H284.007V101.432H285.272V102.939H286.746V103.962H285.272ZM293.457 105.821C293.457 106.048 293.442 106.254 293.413 106.437H288.782C288.819 106.921 288.998 107.31 289.321 107.603C289.644 107.896 290.04 108.043 290.509 108.043C291.184 108.043 291.66 107.761 291.939 107.196H293.292C293.109 107.753 292.775 108.212 292.291 108.571C291.814 108.923 291.22 109.099 290.509 109.099C289.93 109.099 289.409 108.971 288.947 108.714C288.492 108.45 288.133 108.083 287.869 107.614C287.612 107.137 287.484 106.587 287.484 105.964C287.484 105.341 287.609 104.794 287.858 104.325C288.115 103.848 288.47 103.482 288.925 103.225C289.387 102.968 289.915 102.84 290.509 102.84C291.081 102.84 291.591 102.965 292.038 103.214C292.485 103.463 292.834 103.815 293.083 104.27C293.332 104.717 293.457 105.234 293.457 105.821ZM292.148 105.425C292.141 104.963 291.976 104.593 291.653 104.314C291.33 104.035 290.931 103.896 290.454 103.896C290.021 103.896 289.651 104.035 289.343 104.314C289.035 104.585 288.852 104.956 288.793 105.425H292.148ZM302.028 102.84C302.505 102.84 302.93 102.939 303.304 103.137C303.686 103.335 303.983 103.628 304.195 104.017C304.415 104.406 304.525 104.875 304.525 105.425V109H303.282V105.612C303.282 105.069 303.147 104.655 302.875 104.369C302.604 104.076 302.234 103.929 301.764 103.929C301.295 103.929 300.921 104.076 300.642 104.369C300.371 104.655 300.235 105.069 300.235 105.612V109H298.992V105.612C298.992 105.069 298.857 104.655 298.585 104.369C298.314 104.076 297.944 103.929 297.474 103.929C297.005 103.929 296.631 104.076 296.352 104.369C296.081 104.655 295.945 105.069 295.945 105.612V109H294.691V102.939H295.945V103.632C296.151 103.383 296.411 103.188 296.726 103.049C297.042 102.91 297.379 102.84 297.738 102.84C298.222 102.84 298.655 102.943 299.036 103.148C299.418 103.353 299.711 103.65 299.916 104.039C300.1 103.672 300.386 103.383 300.774 103.17C301.163 102.95 301.581 102.84 302.028 102.84ZM309.616 102.136C309.389 102.136 309.198 102.059 309.044 101.905C308.89 101.751 308.813 101.56 308.813 101.333C308.813 101.106 308.89 100.915 309.044 100.761C309.198 100.607 309.389 100.53 309.616 100.53C309.836 100.53 310.023 100.607 310.177 100.761C310.331 100.915 310.408 101.106 310.408 101.333C310.408 101.56 310.331 101.751 310.177 101.905C310.023 102.059 309.836 102.136 309.616 102.136ZM310.232 102.939V109H308.978V102.939H310.232ZM314.079 109.099C313.602 109.099 313.173 109.015 312.792 108.846C312.418 108.67 312.121 108.435 311.901 108.142C311.681 107.841 311.563 107.508 311.549 107.141H312.847C312.869 107.398 312.99 107.614 313.21 107.79C313.437 107.959 313.719 108.043 314.057 108.043C314.409 108.043 314.68 107.977 314.871 107.845C315.069 107.706 315.168 107.53 315.168 107.317C315.168 107.09 315.058 106.921 314.838 106.811C314.625 106.701 314.284 106.58 313.815 106.448C313.36 106.323 312.99 106.202 312.704 106.085C312.418 105.968 312.168 105.788 311.956 105.546C311.75 105.304 311.648 104.985 311.648 104.589C311.648 104.266 311.743 103.973 311.934 103.709C312.124 103.438 312.396 103.225 312.748 103.071C313.107 102.917 313.518 102.84 313.98 102.84C314.669 102.84 315.223 103.016 315.641 103.368C316.066 103.713 316.293 104.186 316.323 104.787H315.069C315.047 104.516 314.937 104.299 314.739 104.138C314.541 103.977 314.273 103.896 313.936 103.896C313.606 103.896 313.353 103.958 313.177 104.083C313.001 104.208 312.913 104.373 312.913 104.578C312.913 104.739 312.971 104.875 313.089 104.985C313.206 105.095 313.349 105.183 313.518 105.249C313.686 105.308 313.936 105.385 314.266 105.48C314.706 105.597 315.065 105.718 315.344 105.843C315.63 105.96 315.875 106.136 316.081 106.371C316.286 106.606 316.392 106.917 316.4 107.306C316.4 107.651 316.304 107.959 316.114 108.23C315.923 108.501 315.652 108.714 315.3 108.868C314.955 109.022 314.548 109.099 314.079 109.099ZM319.955 109.099C319.478 109.099 319.049 109.015 318.668 108.846C318.294 108.67 317.997 108.435 317.777 108.142C317.557 107.841 317.439 107.508 317.425 107.141H318.723C318.745 107.398 318.866 107.614 319.086 107.79C319.313 107.959 319.595 108.043 319.933 108.043C320.285 108.043 320.556 107.977 320.747 107.845C320.945 107.706 321.044 107.53 321.044 107.317C321.044 107.09 320.934 106.921 320.714 106.811C320.501 106.701 320.16 106.58 319.691 106.448C319.236 106.323 318.866 106.202 318.58 106.085C318.294 105.968 318.044 105.788 317.832 105.546C317.626 105.304 317.524 104.985 317.524 104.589C317.524 104.266 317.619 103.973 317.81 103.709C318 103.438 318.272 103.225 318.624 103.071C318.983 102.917 319.394 102.84 319.856 102.84C320.545 102.84 321.099 103.016 321.517 103.368C321.942 103.713 322.169 104.186 322.199 104.787H320.945C320.923 104.516 320.813 104.299 320.615 104.138C320.417 103.977 320.149 103.896 319.812 103.896C319.482 103.896 319.229 103.958 319.053 104.083C318.877 104.208 318.789 104.373 318.789 104.578C318.789 104.739 318.847 104.875 318.965 104.985C319.082 105.095 319.225 105.183 319.394 105.249C319.562 105.308 319.812 105.385 320.142 105.48C320.582 105.597 320.941 105.718 321.22 105.843C321.506 105.96 321.751 106.136 321.957 106.371C322.162 106.606 322.268 106.917 322.276 107.306C322.276 107.651 322.18 107.959 321.99 108.23C321.799 108.501 321.528 108.714 321.176 108.868C320.831 109.022 320.424 109.099 319.955 109.099ZM329.12 102.939V109H327.866V108.285C327.668 108.534 327.407 108.732 327.085 108.879C326.769 109.018 326.432 109.088 326.073 109.088C325.596 109.088 325.167 108.989 324.786 108.791C324.412 108.593 324.115 108.3 323.895 107.911C323.682 107.522 323.576 107.053 323.576 106.503V102.939H324.819V106.316C324.819 106.859 324.954 107.277 325.226 107.57C325.497 107.856 325.867 107.999 326.337 107.999C326.806 107.999 327.176 107.856 327.448 107.57C327.726 107.277 327.866 106.859 327.866 106.316V102.939H329.12ZM336.329 105.821C336.329 106.048 336.315 106.254 336.285 106.437H331.654C331.691 106.921 331.871 107.31 332.193 107.603C332.516 107.896 332.912 108.043 333.381 108.043C334.056 108.043 334.533 107.761 334.811 107.196H336.164C335.981 107.753 335.647 108.212 335.163 108.571C334.687 108.923 334.093 109.099 333.381 109.099C332.802 109.099 332.281 108.971 331.819 108.714C331.365 108.45 331.005 108.083 330.741 107.614C330.485 107.137 330.356 106.587 330.356 105.964C330.356 105.341 330.481 104.794 330.73 104.325C330.987 103.848 331.343 103.482 331.797 103.225C332.259 102.968 332.787 102.84 333.381 102.84C333.953 102.84 334.463 102.965 334.91 103.214C335.358 103.463 335.706 103.815 335.955 104.27C336.205 104.717 336.329 105.234 336.329 105.821ZM335.02 105.425C335.013 104.963 334.848 104.593 334.525 104.314C334.203 104.035 333.803 103.896 333.326 103.896C332.894 103.896 332.523 104.035 332.215 104.314C331.907 104.585 331.724 104.956 331.665 105.425H335.02ZM339.763 109.099C339.287 109.099 338.858 109.015 338.476 108.846C338.102 108.67 337.805 108.435 337.585 108.142C337.365 107.841 337.248 107.508 337.233 107.141H338.531C338.553 107.398 338.674 107.614 338.894 107.79C339.122 107.959 339.404 108.043 339.741 108.043C340.093 108.043 340.365 107.977 340.555 107.845C340.753 107.706 340.852 107.53 340.852 107.317C340.852 107.09 340.742 106.921 340.522 106.811C340.31 106.701 339.969 106.58 339.499 106.448C339.045 106.323 338.674 106.202 338.388 106.085C338.102 105.968 337.853 105.788 337.64 105.546C337.435 105.304 337.332 104.985 337.332 104.589C337.332 104.266 337.428 103.973 337.618 103.709C337.809 103.438 338.08 103.225 338.432 103.071C338.792 102.917 339.202 102.84 339.664 102.84C340.354 102.84 340.907 103.016 341.325 103.368C341.751 103.713 341.978 104.186 342.007 104.787H340.753C340.731 104.516 340.621 104.299 340.423 104.138C340.225 103.977 339.958 103.896 339.62 103.896C339.29 103.896 339.037 103.958 338.861 104.083C338.685 104.208 338.597 104.373 338.597 104.578C338.597 104.739 338.656 104.875 338.773 104.985C338.891 105.095 339.034 105.183 339.202 105.249C339.371 105.308 339.62 105.385 339.95 105.48C340.39 105.597 340.75 105.718 341.028 105.843C341.314 105.96 341.56 106.136 341.765 106.371C341.971 106.606 342.077 106.917 342.084 107.306C342.084 107.651 341.989 107.959 341.798 108.23C341.608 108.501 341.336 108.714 340.984 108.868C340.64 109.022 340.233 109.099 339.763 109.099Z"></path>
<mask fill="white" id="path-2-inside-1_627_2">
<path d="M370 95C370 92.2386 372.239 90 375 90H465C467.761 90 470 92.2386 470 95V115C470 117.761 467.761 120 465 120H375C372.239 120 370 117.761 370 115V95Z"></path>
</mask>
<path fill-opacity="0.05" fill="white" d="M370 95C370 92.2386 372.239 90 375 90H465C467.761 90 470 92.2386 470 95V115C470 117.761 467.761 120 465 120H375C372.239 120 370 117.761 370 115V95Z"></path>
<path mask="url(#path-2-inside-1_627_2)" fill-opacity="0.05" fill="white" d="M370 95C370 91.6863 372.686 89 376 89H464C467.314 89 470 91.6863 470 95C470 92.7909 467.761 91 465 91H375C372.239 91 370 92.7909 370 95ZM470 120H370H470ZM370 120V90V120ZM470 90V120V90Z"></path>
<path fill-opacity="0.5" fill="white" d="M390.114 105.161C390.114 104.413 390.286 103.742 390.631 103.148C390.983 102.554 391.456 102.092 392.05 101.762C392.651 101.425 393.308 101.256 394.019 101.256C394.833 101.256 395.555 101.458 396.186 101.861C396.824 102.257 397.286 102.822 397.572 103.555H396.065C395.867 103.152 395.592 102.851 395.24 102.653C394.888 102.455 394.481 102.356 394.019 102.356C393.513 102.356 393.062 102.47 392.666 102.697C392.27 102.924 391.958 103.251 391.731 103.676C391.511 104.101 391.401 104.596 391.401 105.161C391.401 105.726 391.511 106.221 391.731 106.646C391.958 107.071 392.27 107.401 392.666 107.636C393.062 107.863 393.513 107.977 394.019 107.977C394.481 107.977 394.888 107.878 395.24 107.68C395.592 107.482 395.867 107.181 396.065 106.778H397.572C397.286 107.511 396.824 108.076 396.186 108.472C395.555 108.868 394.833 109.066 394.019 109.066C393.3 109.066 392.644 108.901 392.05 108.571C391.456 108.234 390.983 107.768 390.631 107.174C390.286 106.58 390.114 105.909 390.114 105.161ZM402.175 102.84C402.637 102.84 403.048 102.939 403.407 103.137C403.774 103.335 404.06 103.628 404.265 104.017C404.478 104.406 404.584 104.875 404.584 105.425V109H403.341V105.612C403.341 105.069 403.205 104.655 402.934 104.369C402.663 104.076 402.292 103.929 401.823 103.929C401.354 103.929 400.98 104.076 400.701 104.369C400.43 104.655 400.294 105.069 400.294 105.612V109H399.04V100.86H400.294V103.643C400.507 103.386 400.774 103.188 401.097 103.049C401.427 102.91 401.786 102.84 402.175 102.84ZM411.738 105.821C411.738 106.048 411.724 106.254 411.694 106.437H407.063C407.1 106.921 407.28 107.31 407.602 107.603C407.925 107.896 408.321 108.043 408.79 108.043C409.465 108.043 409.942 107.761 410.22 107.196H411.573C411.39 107.753 411.056 108.212 410.572 108.571C410.096 108.923 409.502 109.099 408.79 109.099C408.211 109.099 407.69 108.971 407.228 108.714C406.774 108.45 406.414 108.083 406.15 107.614C405.894 107.137 405.765 106.587 405.765 105.964C405.765 105.341 405.89 104.794 406.139 104.325C406.396 103.848 406.752 103.482 407.206 103.225C407.668 102.968 408.196 102.84 408.79 102.84C409.362 102.84 409.872 102.965 410.319 103.214C410.767 103.463 411.115 103.815 411.364 104.27C411.614 104.717 411.738 105.234 411.738 105.821ZM410.429 105.425C410.422 104.963 410.257 104.593 409.934 104.314C409.612 104.035 409.212 103.896 408.735 103.896C408.303 103.896 407.932 104.035 407.624 104.314C407.316 104.585 407.133 104.956 407.074 105.425H410.429ZM412.554 105.964C412.554 105.341 412.679 104.794 412.928 104.325C413.185 103.848 413.537 103.482 413.984 103.225C414.432 102.968 414.945 102.84 415.524 102.84C416.258 102.84 416.863 103.016 417.339 103.368C417.823 103.713 418.15 104.208 418.318 104.853H416.965C416.855 104.552 416.679 104.318 416.437 104.149C416.195 103.98 415.891 103.896 415.524 103.896C415.011 103.896 414.6 104.079 414.292 104.446C413.992 104.805 413.841 105.311 413.841 105.964C413.841 106.617 413.992 107.126 414.292 107.493C414.6 107.86 415.011 108.043 415.524 108.043C416.25 108.043 416.731 107.724 416.965 107.086H418.318C418.142 107.702 417.812 108.193 417.328 108.56C416.844 108.919 416.243 109.099 415.524 109.099C414.945 109.099 414.432 108.971 413.984 108.714C413.537 108.45 413.185 108.083 412.928 107.614C412.679 107.137 412.554 106.587 412.554 105.964ZM421.966 105.975L424.76 109H423.066L420.822 106.393V109H419.568V100.86H420.822V105.59L423.022 102.939H424.76L421.966 105.975ZM426.297 102.136C426.07 102.136 425.879 102.059 425.725 101.905C425.571 101.751 425.494 101.56 425.494 101.333C425.494 101.106 425.571 100.915 425.725 100.761C425.879 100.607 426.07 100.53 426.297 100.53C426.517 100.53 426.704 100.607 426.858 100.761C427.012 100.915 427.089 101.106 427.089 101.333C427.089 101.56 427.012 101.751 426.858 101.905C426.704 102.059 426.517 102.136 426.297 102.136ZM426.913 102.939V109H425.659V102.939H426.913ZM431.617 102.84C432.094 102.84 432.519 102.939 432.893 103.137C433.275 103.335 433.572 103.628 433.784 104.017C433.997 104.406 434.103 104.875 434.103 105.425V109H432.86V105.612C432.86 105.069 432.725 104.655 432.453 104.369C432.182 104.076 431.812 103.929 431.342 103.929C430.873 103.929 430.499 104.076 430.22 104.369C429.949 104.655 429.813 105.069 429.813 105.612V109H428.559V102.939H429.813V103.632C430.019 103.383 430.279 103.188 430.594 103.049C430.917 102.91 431.258 102.84 431.617 102.84ZM438.145 102.84C438.614 102.84 439.029 102.935 439.388 103.126C439.755 103.309 440.041 103.54 440.246 103.819V102.939H441.511V109.099C441.511 109.656 441.394 110.151 441.159 110.584C440.924 111.024 440.583 111.369 440.136 111.618C439.696 111.867 439.168 111.992 438.552 111.992C437.731 111.992 437.049 111.798 436.506 111.409C435.963 111.028 435.655 110.507 435.582 109.847H436.825C436.92 110.162 437.122 110.415 437.43 110.606C437.745 110.804 438.119 110.903 438.552 110.903C439.058 110.903 439.465 110.749 439.773 110.441C440.088 110.133 440.246 109.686 440.246 109.099V108.087C440.033 108.373 439.744 108.615 439.377 108.813C439.018 109.004 438.607 109.099 438.145 109.099C437.617 109.099 437.133 108.967 436.693 108.703C436.26 108.432 435.916 108.058 435.659 107.581C435.41 107.097 435.285 106.551 435.285 105.942C435.285 105.333 435.41 104.794 435.659 104.325C435.916 103.856 436.26 103.493 436.693 103.236C437.133 102.972 437.617 102.84 438.145 102.84ZM440.246 105.964C440.246 105.546 440.158 105.183 439.982 104.875C439.813 104.567 439.59 104.332 439.311 104.171C439.032 104.01 438.732 103.929 438.409 103.929C438.086 103.929 437.786 104.01 437.507 104.171C437.228 104.325 437.001 104.556 436.825 104.864C436.656 105.165 436.572 105.524 436.572 105.942C436.572 106.36 436.656 106.727 436.825 107.042C437.001 107.357 437.228 107.599 437.507 107.768C437.793 107.929 438.094 108.01 438.409 108.01C438.732 108.01 439.032 107.929 439.311 107.768C439.59 107.607 439.813 107.372 439.982 107.064C440.158 106.749 440.246 106.382 440.246 105.964ZM443.664 109.077C443.437 109.077 443.246 109 443.092 108.846C442.938 108.692 442.861 108.501 442.861 108.274C442.861 108.047 442.938 107.856 443.092 107.702C443.246 107.548 443.437 107.471 443.664 107.471C443.884 107.471 444.071 107.548 444.225 107.702C444.379 107.856 444.456 108.047 444.456 108.274C444.456 108.501 444.379 108.692 444.225 108.846C444.071 109 443.884 109.077 443.664 109.077ZM446.317 109.077C446.09 109.077 445.899 109 445.745 108.846C445.591 108.692 445.514 108.501 445.514 108.274C445.514 108.047 445.591 107.856 445.745 107.702C445.899 107.548 446.09 107.471 446.317 107.471C446.537 107.471 446.724 107.548 446.878 107.702C447.032 107.856 447.109 108.047 447.109 108.274C447.109 108.501 447.032 108.692 446.878 108.846C446.724 109 446.537 109.077 446.317 109.077ZM448.971 109.077C448.743 109.077 448.553 109 448.399 108.846C448.245 108.692 448.168 108.501 448.168 108.274C448.168 108.047 448.245 107.856 448.399 107.702C448.553 107.548 448.743 107.471 448.971 107.471C449.191 107.471 449.378 107.548 449.532 107.702C449.686 107.856 449.763 108.047 449.763 108.274C449.763 108.501 449.686 108.692 449.532 108.846C449.378 109 449.191 109.077 448.971 109.077Z"></path>
</svg>
