<svg xmlns="http://www.w3.org/2000/svg" fill="none" viewBox="0 0 480 360" height="360" width="480">
<path fill="black" d="M203.056 51.248V53.96H198.592V68H195.232V53.96H190.768V51.248H203.056ZM212.996 54.512C214.004 54.512 214.9 54.736 215.684 55.184C216.468 55.616 217.076 56.264 217.508 57.128C217.956 57.976 218.18 59 218.18 60.2V68H214.82V60.656C214.82 59.6 214.556 58.792 214.028 58.232C213.5 57.656 212.78 57.368 211.868 57.368C210.94 57.368 210.204 57.656 209.66 58.232C209.132 58.792 208.868 59.6 208.868 60.656V68H205.508V50.24H208.868V56.36C209.3 55.784 209.876 55.336 210.596 55.016C211.316 54.68 212.116 54.512 212.996 54.512ZM233.735 61.064C233.735 61.544 233.703 61.976 233.639 62.36H223.919C223.999 63.32 224.335 64.072 224.927 64.616C225.519 65.16 226.247 65.432 227.111 65.432C228.359 65.432 229.247 64.896 229.775 63.824H233.399C233.015 65.104 232.279 66.16 231.191 66.992C230.103 67.808 228.767 68.216 227.183 68.216C225.903 68.216 224.751 67.936 223.727 67.376C222.719 66.8 221.927 65.992 221.351 64.952C220.791 63.912 220.511 62.712 220.511 61.352C220.511 59.976 220.791 58.768 221.351 57.728C221.911 56.688 222.695 55.888 223.703 55.328C224.711 54.768 225.871 54.488 227.183 54.488C228.447 54.488 229.575 54.76 230.567 55.304C231.575 55.848 232.351 56.624 232.895 57.632C233.455 58.624 233.735 59.768 233.735 61.064ZM230.255 60.104C230.239 59.24 229.927 58.552 229.319 58.04C228.711 57.512 227.967 57.248 227.087 57.248C226.255 57.248 225.551 57.504 224.975 58.016C224.415 58.512 224.071 59.208 223.943 60.104H230.255ZM252.699 54.512C254.331 54.512 255.643 55.016 256.635 56.024C257.643 57.016 258.147 58.408 258.147 60.2V68H254.787V60.656C254.787 59.616 254.523 58.824 253.995 58.28C253.467 57.72 252.747 57.44 251.835 57.44C250.923 57.44 250.195 57.72 249.651 58.28C249.123 58.824 248.859 59.616 248.859 60.656V68H245.499V60.656C245.499 59.616 245.235 58.824 244.707 58.28C244.179 57.72 243.459 57.44 242.547 57.44C241.619 57.44 240.883 57.72 240.339 58.28C239.811 58.824 239.547 59.616 239.547 60.656V68H236.187V54.704H239.547V56.312C239.979 55.752 240.531 55.312 241.203 54.992C241.891 54.672 242.643 54.512 243.459 54.512C244.499 54.512 245.427 54.736 246.243 55.184C247.059 55.616 247.691 56.24 248.139 57.056C248.571 56.288 249.195 55.672 250.011 55.208C250.843 54.744 251.739 54.512 252.699 54.512ZM273.696 61.064C273.696 61.544 273.664 61.976 273.6 62.36H263.88C263.96 63.32 264.296 64.072 264.888 64.616C265.48 65.16 266.208 65.432 267.072 65.432C268.32 65.432 269.208 64.896 269.736 63.824H273.36C272.976 65.104 272.24 66.16 271.152 66.992C270.064 67.808 268.728 68.216 267.144 68.216C265.864 68.216 264.712 67.936 263.688 67.376C262.68 66.8 261.888 65.992 261.312 64.952C260.752 63.912 260.472 62.712 260.472 61.352C260.472 59.976 260.752 58.768 261.312 57.728C261.872 56.688 262.656 55.888 263.664 55.328C264.672 54.768 265.832 54.488 267.144 54.488C268.408 54.488 269.536 54.76 270.528 55.304C271.536 55.848 272.312 56.624 272.856 57.632C273.416 58.624 273.696 59.768 273.696 61.064ZM270.216 60.104C270.2 59.24 269.888 58.552 269.28 58.04C268.672 57.512 267.928 57.248 267.048 57.248C266.216 57.248 265.512 57.504 264.936 58.016C264.376 58.512 264.032 59.208 263.904 60.104H270.216ZM281.236 68.216C280.148 68.216 279.172 68.024 278.308 67.64C277.444 67.24 276.756 66.704 276.244 66.032C275.748 65.36 275.476 64.616 275.428 63.8H278.812C278.876 64.312 279.124 64.736 279.556 65.072C280.004 65.408 280.556 65.576 281.212 65.576C281.852 65.576 282.348 65.448 282.7 65.192C283.068 64.936 283.252 64.608 283.252 64.208C283.252 63.776 283.028 63.456 282.58 63.248C282.148 63.024 281.452 62.784 280.492 62.528C279.5 62.288 278.684 62.04 278.044 61.784C277.42 61.528 276.876 61.136 276.412 60.608C275.964 60.08 275.74 59.368 275.74 58.472C275.74 57.736 275.948 57.064 276.364 56.456C276.796 55.848 277.404 55.368 278.188 55.016C278.988 54.664 279.924 54.488 280.996 54.488C282.58 54.488 283.844 54.888 284.788 55.688C285.732 56.472 286.252 57.536 286.348 58.88H283.132C283.084 58.352 282.86 57.936 282.46 57.632C282.076 57.312 281.556 57.152 280.9 57.152C280.292 57.152 279.82 57.264 279.484 57.488C279.164 57.712 279.004 58.024 279.004 58.424C279.004 58.872 279.228 59.216 279.676 59.456C280.124 59.68 280.82 59.912 281.764 60.152C282.724 60.392 283.516 60.64 284.14 60.896C284.764 61.152 285.3 61.552 285.748 62.096C286.212 62.624 286.452 63.328 286.468 64.208C286.468 64.976 286.252 65.664 285.82 66.272C285.404 66.88 284.796 67.36 283.996 67.712C283.212 68.048 282.292 68.216 281.236 68.216Z"></path>
<path fill-opacity="0.05" fill="black" d="M190 97C190 94.2386 192.239 92 195 92H465C467.761 92 470 94.2386 470 97V158H190V97Z"></path>
<path fill-opacity="0.05" fill="black" d="M190 159H470V309C470 311.761 467.761 314 465 314H195C192.239 314 190 311.761 190 309V159Z"></path>
<path fill="black" d="M250.407 125.161C250.407 124.413 250.579 123.742 250.924 123.148C251.276 122.554 251.749 122.092 252.343 121.762C252.944 121.425 253.601 121.256 254.312 121.256C255.126 121.256 255.848 121.458 256.479 121.861C257.117 122.257 257.579 122.822 257.865 123.555H256.358C256.16 123.152 255.885 122.851 255.533 122.653C255.181 122.455 254.774 122.356 254.312 122.356C253.806 122.356 253.355 122.47 252.959 122.697C252.563 122.924 252.251 123.251 252.024 123.676C251.804 124.101 251.694 124.596 251.694 125.161C251.694 125.726 251.804 126.221 252.024 126.646C252.251 127.071 252.563 127.401 252.959 127.636C253.355 127.863 253.806 127.977 254.312 127.977C254.774 127.977 255.181 127.878 255.533 127.68C255.885 127.482 256.16 127.181 256.358 126.778H257.865C257.579 127.511 257.117 128.076 256.479 128.472C255.848 128.868 255.126 129.066 254.312 129.066C253.593 129.066 252.937 128.901 252.343 128.571C251.749 128.234 251.276 127.768 250.924 127.174C250.579 126.58 250.407 125.909 250.407 125.161ZM264.822 122.939V129H263.568V128.285C263.37 128.534 263.109 128.732 262.787 128.879C262.471 129.018 262.134 129.088 261.775 129.088C261.298 129.088 260.869 128.989 260.488 128.791C260.114 128.593 259.817 128.3 259.597 127.911C259.384 127.522 259.278 127.053 259.278 126.503V122.939H260.521V126.316C260.521 126.859 260.656 127.277 260.928 127.57C261.199 127.856 261.569 127.999 262.039 127.999C262.508 127.999 262.878 127.856 263.15 127.57C263.428 127.277 263.568 126.859 263.568 126.316V122.939H264.822ZM267.73 123.819C267.914 123.511 268.156 123.273 268.456 123.104C268.764 122.928 269.127 122.84 269.545 122.84V124.138H269.226C268.735 124.138 268.361 124.263 268.104 124.512C267.855 124.761 267.73 125.194 267.73 125.81V129H266.476V122.939H267.73V123.819ZM271.952 123.819C272.135 123.511 272.377 123.273 272.678 123.104C272.986 122.928 273.349 122.84 273.767 122.84V124.138H273.448C272.957 124.138 272.583 124.263 272.326 124.512C272.077 124.761 271.952 125.194 271.952 125.81V129H270.698V122.939H271.952V123.819ZM280.475 125.821C280.475 126.048 280.46 126.254 280.431 126.437H275.8C275.836 126.921 276.016 127.31 276.339 127.603C276.661 127.896 277.057 128.043 277.527 128.043C278.201 128.043 278.678 127.761 278.957 127.196H280.31C280.126 127.753 279.793 128.212 279.309 128.571C278.832 128.923 278.238 129.099 277.527 129.099C276.947 129.099 276.427 128.971 275.965 128.714C275.51 128.45 275.151 128.083 274.887 127.614C274.63 127.137 274.502 126.587 274.502 125.964C274.502 125.341 274.626 124.794 274.876 124.325C275.132 123.848 275.488 123.482 275.943 123.225C276.405 122.968 276.933 122.84 277.527 122.84C278.099 122.84 278.608 122.965 279.056 123.214C279.503 123.463 279.851 123.815 280.101 124.27C280.35 124.717 280.475 125.234 280.475 125.821ZM279.166 125.425C279.158 124.963 278.993 124.593 278.671 124.314C278.348 124.035 277.948 123.896 277.472 123.896C277.039 123.896 276.669 124.035 276.361 124.314C276.053 124.585 275.869 124.956 275.811 125.425H279.166ZM284.767 122.84C285.243 122.84 285.669 122.939 286.043 123.137C286.424 123.335 286.721 123.628 286.934 124.017C287.146 124.406 287.253 124.875 287.253 125.425V129H286.01V125.612C286.01 125.069 285.874 124.655 285.603 124.369C285.331 124.076 284.961 123.929 284.492 123.929C284.022 123.929 283.648 124.076 283.37 124.369C283.098 124.655 282.963 125.069 282.963 125.612V129H281.709V122.939H282.963V123.632C283.168 123.383 283.428 123.188 283.744 123.049C284.066 122.91 284.407 122.84 284.767 122.84ZM290.315 123.962V127.317C290.315 127.544 290.367 127.709 290.469 127.812C290.579 127.907 290.763 127.955 291.019 127.955H291.789V129H290.799C290.235 129 289.802 128.868 289.501 128.604C289.201 128.34 289.05 127.911 289.05 127.317V123.962H288.335V122.939H289.05V121.432H290.315V122.939H291.789V123.962H290.315ZM297.266 123.962V127.317C297.266 127.544 297.317 127.709 297.42 127.812C297.53 127.907 297.713 127.955 297.97 127.955H298.74V129H297.75C297.185 129 296.752 128.868 296.452 128.604C296.151 128.34 296.001 127.911 296.001 127.317V123.962H295.286V122.939H296.001V121.432H297.266V122.939H298.74V123.962H297.266ZM303.03 122.84C303.492 122.84 303.903 122.939 304.262 123.137C304.629 123.335 304.915 123.628 305.12 124.017C305.333 124.406 305.439 124.875 305.439 125.425V129H304.196V125.612C304.196 125.069 304.061 124.655 303.789 124.369C303.518 124.076 303.148 123.929 302.678 123.929C302.209 123.929 301.835 124.076 301.556 124.369C301.285 124.655 301.149 125.069 301.149 125.612V129H299.895V120.86H301.149V123.643C301.362 123.386 301.63 123.188 301.952 123.049C302.282 122.91 302.642 122.84 303.03 122.84ZM312.594 125.821C312.594 126.048 312.579 126.254 312.55 126.437H307.919C307.956 126.921 308.135 127.31 308.458 127.603C308.781 127.896 309.177 128.043 309.646 128.043C310.321 128.043 310.797 127.761 311.076 127.196H312.429C312.246 127.753 311.912 128.212 311.428 128.571C310.951 128.923 310.357 129.099 309.646 129.099C309.067 129.099 308.546 128.971 308.084 128.714C307.629 128.45 307.27 128.083 307.006 127.614C306.749 127.137 306.621 126.587 306.621 125.964C306.621 125.341 306.746 124.794 306.995 124.325C307.252 123.848 307.607 123.482 308.062 123.225C308.524 122.968 309.052 122.84 309.646 122.84C310.218 122.84 310.728 122.965 311.175 123.214C311.622 123.463 311.971 123.815 312.22 124.27C312.469 124.717 312.594 125.234 312.594 125.821ZM311.285 125.425C311.278 124.963 311.113 124.593 310.79 124.314C310.467 124.035 310.068 123.896 309.591 123.896C309.158 123.896 308.788 124.035 308.48 124.314C308.172 124.585 307.989 124.956 307.93 125.425H311.285ZM321.165 122.84C321.642 122.84 322.067 122.939 322.441 123.137C322.822 123.335 323.119 123.628 323.332 124.017C323.552 124.406 323.662 124.875 323.662 125.425V129H322.419V125.612C322.419 125.069 322.283 124.655 322.012 124.369C321.741 124.076 321.37 123.929 320.901 123.929C320.432 123.929 320.058 124.076 319.779 124.369C319.508 124.655 319.372 125.069 319.372 125.612V129H318.129V125.612C318.129 125.069 317.993 124.655 317.722 124.369C317.451 124.076 317.08 123.929 316.611 123.929C316.142 123.929 315.768 124.076 315.489 124.369C315.218 124.655 315.082 125.069 315.082 125.612V129H313.828V122.939H315.082V123.632C315.287 123.383 315.548 123.188 315.863 123.049C316.178 122.91 316.516 122.84 316.875 122.84C317.359 122.84 317.792 122.943 318.173 123.148C318.554 123.353 318.848 123.65 319.053 124.039C319.236 123.672 319.522 123.383 319.911 123.17C320.3 122.95 320.718 122.84 321.165 122.84ZM330.813 125.821C330.813 126.048 330.798 126.254 330.769 126.437H326.138C326.174 126.921 326.354 127.31 326.677 127.603C326.999 127.896 327.395 128.043 327.865 128.043C328.539 128.043 329.016 127.761 329.295 127.196H330.648C330.464 127.753 330.131 128.212 329.647 128.571C329.17 128.923 328.576 129.099 327.865 129.099C327.285 129.099 326.765 128.971 326.303 128.714C325.848 128.45 325.489 128.083 325.225 127.614C324.968 127.137 324.84 126.587 324.84 125.964C324.84 125.341 324.964 124.794 325.214 124.325C325.47 123.848 325.826 123.482 326.281 123.225C326.743 122.968 327.271 122.84 327.865 122.84C328.437 122.84 328.946 122.965 329.394 123.214C329.841 123.463 330.189 123.815 330.439 124.27C330.688 124.717 330.813 125.234 330.813 125.821ZM329.504 125.425C329.496 124.963 329.331 124.593 329.009 124.314C328.686 124.035 328.286 123.896 327.81 123.896C327.377 123.896 327.007 124.035 326.699 124.314C326.391 124.585 326.207 124.956 326.149 125.425H329.504Z"></path>
<path fill="black" d="M295.322 197.355C296.136 197.355 296.847 197.513 297.456 197.828C298.072 198.136 298.545 198.583 298.875 199.17C299.212 199.749 299.381 200.428 299.381 201.205C299.381 201.982 299.212 202.657 298.875 203.229C298.545 203.801 298.072 204.241 297.456 204.549C296.847 204.85 296.136 205 295.322 205H292.825V197.355H295.322ZM295.322 203.977C296.217 203.977 296.902 203.735 297.379 203.251C297.856 202.767 298.094 202.085 298.094 201.205C298.094 200.318 297.856 199.625 297.379 199.126C296.902 198.627 296.217 198.378 295.322 198.378H294.079V203.977H295.322ZM300.206 201.942C300.206 201.333 300.33 200.794 300.58 200.325C300.836 199.856 301.181 199.493 301.614 199.236C302.054 198.972 302.538 198.84 303.066 198.84C303.542 198.84 303.957 198.935 304.309 199.126C304.668 199.309 304.954 199.54 305.167 199.819V198.939H306.432V205H305.167V204.098C304.954 204.384 304.664 204.622 304.298 204.813C303.931 205.004 303.513 205.099 303.044 205.099C302.523 205.099 302.046 204.967 301.614 204.703C301.181 204.432 300.836 204.058 300.58 203.581C300.33 203.097 300.206 202.551 300.206 201.942ZM305.167 201.964C305.167 201.546 305.079 201.183 304.903 200.875C304.734 200.567 304.51 200.332 304.232 200.171C303.953 200.01 303.652 199.929 303.33 199.929C303.007 199.929 302.706 200.01 302.428 200.171C302.149 200.325 301.922 200.556 301.746 200.864C301.577 201.165 301.493 201.524 301.493 201.942C301.493 202.36 301.577 202.727 301.746 203.042C301.922 203.357 302.149 203.599 302.428 203.768C302.714 203.929 303.014 204.01 303.33 204.01C303.652 204.01 303.953 203.929 304.232 203.768C304.51 203.607 304.734 203.372 304.903 203.064C305.079 202.749 305.167 202.382 305.167 201.964ZM309.333 199.819C309.516 199.511 309.758 199.273 310.059 199.104C310.367 198.928 310.73 198.84 311.148 198.84V200.138H310.829C310.338 200.138 309.964 200.263 309.707 200.512C309.458 200.761 309.333 201.194 309.333 201.81V205H308.079V198.939H309.333V199.819ZM314.699 201.975L317.493 205H315.799L313.555 202.393V205H312.301V196.86H313.555V201.59L315.755 198.939H317.493L314.699 201.975ZM322.712 199.962V203.317C322.712 203.544 322.763 203.709 322.866 203.812C322.976 203.907 323.159 203.955 323.416 203.955H324.186V205H323.196C322.631 205 322.198 204.868 321.898 204.604C321.597 204.34 321.447 203.911 321.447 203.317V199.962H320.732V198.939H321.447V197.432H322.712V198.939H324.186V199.962H322.712ZM328.477 198.84C328.939 198.84 329.349 198.939 329.709 199.137C330.075 199.335 330.361 199.628 330.567 200.017C330.779 200.406 330.886 200.875 330.886 201.425V205H329.643V201.612C329.643 201.069 329.507 200.655 329.236 200.369C328.964 200.076 328.594 199.929 328.125 199.929C327.655 199.929 327.281 200.076 327.003 200.369C326.731 200.655 326.596 201.069 326.596 201.612V205H325.342V196.86H326.596V199.643C326.808 199.386 327.076 199.188 327.399 199.049C327.729 198.91 328.088 198.84 328.477 198.84ZM338.04 201.821C338.04 202.048 338.025 202.254 337.996 202.437H333.365C333.402 202.921 333.581 203.31 333.904 203.603C334.227 203.896 334.623 204.043 335.092 204.043C335.767 204.043 336.243 203.761 336.522 203.196H337.875C337.692 203.753 337.358 204.212 336.874 204.571C336.397 204.923 335.803 205.099 335.092 205.099C334.513 205.099 333.992 204.971 333.53 204.714C333.075 204.45 332.716 204.083 332.452 203.614C332.195 203.137 332.067 202.587 332.067 201.964C332.067 201.341 332.192 200.794 332.441 200.325C332.698 199.848 333.053 199.482 333.508 199.225C333.97 198.968 334.498 198.84 335.092 198.84C335.664 198.84 336.174 198.965 336.621 199.214C337.068 199.463 337.417 199.815 337.666 200.27C337.915 200.717 338.04 201.234 338.04 201.821ZM336.731 201.425C336.724 200.963 336.559 200.593 336.236 200.314C335.913 200.035 335.514 199.896 335.037 199.896C334.604 199.896 334.234 200.035 333.926 200.314C333.618 200.585 333.435 200.956 333.376 201.425H336.731ZM346.611 198.84C347.088 198.84 347.513 198.939 347.887 199.137C348.269 199.335 348.566 199.628 348.778 200.017C348.998 200.406 349.108 200.875 349.108 201.425V205H347.865V201.612C347.865 201.069 347.73 200.655 347.458 200.369C347.187 200.076 346.817 199.929 346.347 199.929C345.878 199.929 345.504 200.076 345.225 200.369C344.954 200.655 344.818 201.069 344.818 201.612V205H343.575V201.612C343.575 201.069 343.44 200.655 343.168 200.369C342.897 200.076 342.527 199.929 342.057 199.929C341.588 199.929 341.214 200.076 340.935 200.369C340.664 200.655 340.528 201.069 340.528 201.612V205H339.274V198.939H340.528V199.632C340.734 199.383 340.994 199.188 341.309 199.049C341.625 198.91 341.962 198.84 342.321 198.84C342.805 198.84 343.238 198.943 343.619 199.148C344.001 199.353 344.294 199.65 344.499 200.039C344.683 199.672 344.969 199.383 345.357 199.17C345.746 198.95 346.164 198.84 346.611 198.84ZM356.259 201.821C356.259 202.048 356.244 202.254 356.215 202.437H351.584C351.621 202.921 351.8 203.31 352.123 203.603C352.446 203.896 352.842 204.043 353.311 204.043C353.986 204.043 354.462 203.761 354.741 203.196H356.094C355.911 203.753 355.577 204.212 355.093 204.571C354.616 204.923 354.022 205.099 353.311 205.099C352.732 205.099 352.211 204.971 351.749 204.714C351.294 204.45 350.935 204.083 350.671 203.614C350.414 203.137 350.286 202.587 350.286 201.964C350.286 201.341 350.411 200.794 350.66 200.325C350.917 199.848 351.272 199.482 351.727 199.225C352.189 198.968 352.717 198.84 353.311 198.84C353.883 198.84 354.393 198.965 354.84 199.214C355.287 199.463 355.636 199.815 355.885 200.27C356.134 200.717 356.259 201.234 356.259 201.821ZM354.95 201.425C354.943 200.963 354.778 200.593 354.455 200.314C354.132 200.035 353.733 199.896 353.256 199.896C352.823 199.896 352.453 200.035 352.145 200.314C351.837 200.585 351.654 200.956 351.595 201.425H354.95Z"></path>
<path fill="black" d="M294.079 273.988H296.664V275H292.825V267.355H294.079V273.988ZM298.351 268.136C298.123 268.136 297.933 268.059 297.779 267.905C297.625 267.751 297.548 267.56 297.548 267.333C297.548 267.106 297.625 266.915 297.779 266.761C297.933 266.607 298.123 266.53 298.351 266.53C298.571 266.53 298.758 266.607 298.912 266.761C299.066 266.915 299.143 267.106 299.143 267.333C299.143 267.56 299.066 267.751 298.912 267.905C298.758 268.059 298.571 268.136 298.351 268.136ZM298.967 268.939V275H297.713V268.939H298.967ZM303.055 268.84C303.524 268.84 303.939 268.935 304.298 269.126C304.665 269.309 304.951 269.54 305.156 269.819V268.939H306.421V275.099C306.421 275.656 306.304 276.151 306.069 276.584C305.834 277.024 305.493 277.369 305.046 277.618C304.606 277.867 304.078 277.992 303.462 277.992C302.641 277.992 301.959 277.798 301.416 277.409C300.873 277.028 300.565 276.507 300.492 275.847H301.735C301.83 276.162 302.032 276.415 302.34 276.606C302.655 276.804 303.029 276.903 303.462 276.903C303.968 276.903 304.375 276.749 304.683 276.441C304.998 276.133 305.156 275.686 305.156 275.099V274.087C304.943 274.373 304.654 274.615 304.287 274.813C303.928 275.004 303.517 275.099 303.055 275.099C302.527 275.099 302.043 274.967 301.603 274.703C301.17 274.432 300.826 274.058 300.569 273.581C300.32 273.097 300.195 272.551 300.195 271.942C300.195 271.333 300.32 270.794 300.569 270.325C300.826 269.856 301.17 269.493 301.603 269.236C302.043 268.972 302.527 268.84 303.055 268.84ZM305.156 271.964C305.156 271.546 305.068 271.183 304.892 270.875C304.723 270.567 304.5 270.332 304.221 270.171C303.942 270.01 303.642 269.929 303.319 269.929C302.996 269.929 302.696 270.01 302.417 270.171C302.138 270.325 301.911 270.556 301.735 270.864C301.566 271.165 301.482 271.524 301.482 271.942C301.482 272.36 301.566 272.727 301.735 273.042C301.911 273.357 302.138 273.599 302.417 273.768C302.703 273.929 303.004 274.01 303.319 274.01C303.642 274.01 303.942 273.929 304.221 273.768C304.5 273.607 304.723 273.372 304.892 273.064C305.068 272.749 305.156 272.382 305.156 271.964ZM311.203 268.84C311.665 268.84 312.076 268.939 312.435 269.137C312.802 269.335 313.088 269.628 313.293 270.017C313.506 270.406 313.612 270.875 313.612 271.425V275H312.369V271.612C312.369 271.069 312.233 270.655 311.962 270.369C311.691 270.076 311.32 269.929 310.851 269.929C310.382 269.929 310.008 270.076 309.729 270.369C309.458 270.655 309.322 271.069 309.322 271.612V275H308.068V266.86H309.322V269.643C309.535 269.386 309.802 269.188 310.125 269.049C310.455 268.91 310.814 268.84 311.203 268.84ZM316.675 269.962V273.317C316.675 273.544 316.726 273.709 316.829 273.812C316.939 273.907 317.122 273.955 317.379 273.955H318.149V275H317.159C316.594 275 316.161 274.868 315.861 274.604C315.56 274.34 315.41 273.911 315.41 273.317V269.962H314.695V268.939H315.41V267.432H316.675V268.939H318.149V269.962H316.675ZM323.625 269.962V273.317C323.625 273.544 323.676 273.709 323.779 273.812C323.889 273.907 324.072 273.955 324.329 273.955H325.099V275H324.109C323.544 275 323.112 274.868 322.811 274.604C322.51 274.34 322.36 273.911 322.36 273.317V269.962H321.645V268.939H322.36V267.432H323.625V268.939H325.099V269.962H323.625ZM329.39 268.84C329.852 268.84 330.262 268.939 330.622 269.137C330.988 269.335 331.274 269.628 331.48 270.017C331.692 270.406 331.799 270.875 331.799 271.425V275H330.556V271.612C330.556 271.069 330.42 270.655 330.149 270.369C329.877 270.076 329.507 269.929 329.038 269.929C328.568 269.929 328.194 270.076 327.916 270.369C327.644 270.655 327.509 271.069 327.509 271.612V275H326.255V266.86H327.509V269.643C327.721 269.386 327.989 269.188 328.312 269.049C328.642 268.91 329.001 268.84 329.39 268.84ZM338.953 271.821C338.953 272.048 338.939 272.254 338.909 272.437H334.278C334.315 272.921 334.495 273.31 334.817 273.603C335.14 273.896 335.536 274.043 336.005 274.043C336.68 274.043 337.157 273.761 337.435 273.196H338.788C338.605 273.753 338.271 274.212 337.787 274.571C337.311 274.923 336.717 275.099 336.005 275.099C335.426 275.099 334.905 274.971 334.443 274.714C333.989 274.45 333.629 274.083 333.365 273.614C333.109 273.137 332.98 272.587 332.98 271.964C332.98 271.341 333.105 270.794 333.354 270.325C333.611 269.848 333.967 269.482 334.421 269.225C334.883 268.968 335.411 268.84 336.005 268.84C336.577 268.84 337.087 268.965 337.534 269.214C337.982 269.463 338.33 269.815 338.579 270.27C338.829 270.717 338.953 271.234 338.953 271.821ZM337.644 271.425C337.637 270.963 337.472 270.593 337.149 270.314C336.827 270.035 336.427 269.896 335.95 269.896C335.518 269.896 335.147 270.035 334.839 270.314C334.531 270.585 334.348 270.956 334.289 271.425H337.644ZM347.524 268.84C348.001 268.84 348.426 268.939 348.8 269.137C349.182 269.335 349.479 269.628 349.691 270.017C349.911 270.406 350.021 270.875 350.021 271.425V275H348.778V271.612C348.778 271.069 348.643 270.655 348.371 270.369C348.1 270.076 347.73 269.929 347.26 269.929C346.791 269.929 346.417 270.076 346.138 270.369C345.867 270.655 345.731 271.069 345.731 271.612V275H344.488V271.612C344.488 271.069 344.353 270.655 344.081 270.369C343.81 270.076 343.44 269.929 342.97 269.929C342.501 269.929 342.127 270.076 341.848 270.369C341.577 270.655 341.441 271.069 341.441 271.612V275H340.187V268.939H341.441V269.632C341.647 269.383 341.907 269.188 342.222 269.049C342.538 268.91 342.875 268.84 343.234 268.84C343.718 268.84 344.151 268.943 344.532 269.148C344.914 269.353 345.207 269.65 345.412 270.039C345.596 269.672 345.882 269.383 346.27 269.17C346.659 268.95 347.077 268.84 347.524 268.84ZM357.172 271.821C357.172 272.048 357.157 272.254 357.128 272.437H352.497C352.534 272.921 352.713 273.31 353.036 273.603C353.359 273.896 353.755 274.043 354.224 274.043C354.899 274.043 355.375 273.761 355.654 273.196H357.007C356.824 273.753 356.49 274.212 356.006 274.571C355.529 274.923 354.935 275.099 354.224 275.099C353.645 275.099 353.124 274.971 352.662 274.714C352.207 274.45 351.848 274.083 351.584 273.614C351.327 273.137 351.199 272.587 351.199 271.964C351.199 271.341 351.324 270.794 351.573 270.325C351.83 269.848 352.185 269.482 352.64 269.225C353.102 268.968 353.63 268.84 354.224 268.84C354.796 268.84 355.306 268.965 355.753 269.214C356.2 269.463 356.549 269.815 356.798 270.27C357.047 270.717 357.172 271.234 357.172 271.821ZM355.863 271.425C355.856 270.963 355.691 270.593 355.368 270.314C355.045 270.035 354.646 269.896 354.169 269.896C353.736 269.896 353.366 270.035 353.058 270.314C352.75 270.585 352.567 270.956 352.508 271.425H355.863Z"></path>
<path stroke-width="1.5" stroke="black" d="M216.392 128C217.133 126.837 218.013 125.63 219 124.502C222.293 120.739 227 115 228.5 116.5C230 118 224.315 123.637 221 127.502C220.227 128.404 219.365 129.239 218.5 129.974"></path>
<path stroke-width="1.5" stroke="black" d="M211.878 133.263C212.015 133.126 212.16 132.977 212.305 132.817C212.637 132.452 212.986 132.019 213.256 131.56C213.519 131.113 213.75 130.569 213.75 130C213.75 129.41 213.948 128.844 214.311 128.436C214.661 128.041 215.204 127.75 216 127.75C216.498 127.75 217.207 127.947 217.779 128.4C218.325 128.833 218.75 129.498 218.75 130.5C218.75 131.427 218.226 132.226 217.322 132.823C216.412 133.424 215.187 133.763 214.009 133.75C213.395 133.743 212.618 133.529 211.946 133.288C211.923 133.28 211.9 133.271 211.878 133.263Z"></path>
<path fill-opacity="0.9" fill="#1B1B1B" d="M210 174C210 172.343 211.343 171 213 171H277C278.657 171 280 172.343 280 174V228C280 229.657 278.657 231 277 231H213C211.343 231 210 229.657 210 228V174Z"></path>
<path stroke-width="2" stroke-opacity="0.2" stroke="white" d="M277 170H213C210.791 170 209 171.791 209 174V228C209 230.209 210.791 232 213 232H277C279.209 232 281 230.209 281 228V174C281 171.791 279.209 170 277 170Z"></path>
<path fill="#4CC2FF" d="M240 214C240 212.343 241.343 211 243 211H267C268.657 211 270 212.343 270 214V218C270 219.657 268.657 221 267 221H243C241.343 221 240 219.657 240 218V214Z"></path>
<rect fill="white" rx="0.5" height="1" width="50" y="181" x="220"></rect>
<rect fill="white" rx="0.5" height="1" width="50" y="191" x="220"></rect>
<rect fill="white" rx="0.5" height="1" width="20" y="201" x="220"></rect>
<path fill-opacity="0.9" fill="#E6E6E6" d="M210 244C210 242.343 211.343 241 213 241H277C278.657 241 280 242.343 280 244V298C280 299.657 278.657 301 277 301H213C211.343 301 210 299.657 210 298V244Z"></path>
<path stroke-width="2" stroke-opacity="0.2" stroke="black" d="M277 240H213C210.791 240 209 241.791 209 244V298C209 300.209 210.791 302 213 302H277C279.209 302 281 300.209 281 298V244C281 241.791 279.209 240 277 240Z"></path>
<path fill="#0076B3" d="M240 284C240 282.343 241.343 281 243 281H267C268.657 281 270 282.343 270 284V288C270 289.657 268.657 291 267 291H243C241.343 291 240 289.657 240 288V284Z"></path>
<rect fill="black" rx="0.5" height="1" width="50" y="251" x="220"></rect>
<rect fill="black" rx="0.5" height="1" width="50" y="261" x="220"></rect>
<rect fill="black" rx="0.5" height="1" width="20" y="271" x="220"></rect>
</svg>
