<svg xmlns="http://www.w3.org/2000/svg" fill="none" viewBox="0 0 480 360" height="360" width="480">
<path fill="white" d="M255.954 26.248V28.96H251.49V43H248.13V28.96H243.666V26.248H255.954ZM261.766 31.768C262.198 31.064 262.758 30.512 263.446 30.112C264.15 29.712 264.95 29.512 265.846 29.512V33.04H264.958C263.902 33.04 263.102 33.288 262.558 33.784C262.03 34.28 261.766 35.144 261.766 36.376V43H258.406V29.704H261.766V31.768ZM274.013 43.216C272.733 43.216 271.581 42.936 270.557 42.376C269.533 41.8 268.725 40.992 268.133 39.952C267.557 38.912 267.269 37.712 267.269 36.352C267.269 34.992 267.565 33.792 268.157 32.752C268.765 31.712 269.589 30.912 270.629 30.352C271.669 29.776 272.829 29.488 274.109 29.488C275.389 29.488 276.549 29.776 277.589 30.352C278.629 30.912 279.445 31.712 280.037 32.752C280.645 33.792 280.949 34.992 280.949 36.352C280.949 37.712 280.637 38.912 280.013 39.952C279.405 40.992 278.573 41.8 277.517 42.376C276.477 42.936 275.309 43.216 274.013 43.216ZM274.013 40.288C274.621 40.288 275.189 40.144 275.717 39.856C276.261 39.552 276.693 39.104 277.013 38.512C277.333 37.92 277.493 37.2 277.493 36.352C277.493 35.088 277.157 34.12 276.485 33.448C275.829 32.76 275.021 32.416 274.061 32.416C273.101 32.416 272.293 32.76 271.637 33.448C270.997 34.12 270.677 35.088 270.677 36.352C270.677 37.616 270.989 38.592 271.613 39.28C272.253 39.952 273.053 40.288 274.013 40.288ZM295.966 29.704V43H292.582V41.32C292.15 41.896 291.582 42.352 290.878 42.688C290.19 43.008 289.438 43.168 288.622 43.168C287.582 43.168 286.662 42.952 285.862 42.52C285.062 42.072 284.43 41.424 283.966 40.576C283.518 39.712 283.294 38.688 283.294 37.504V29.704H286.654V37.024C286.654 38.08 286.918 38.896 287.446 39.472C287.974 40.032 288.694 40.312 289.606 40.312C290.534 40.312 291.262 40.032 291.79 39.472C292.318 38.896 292.582 38.08 292.582 37.024V29.704H295.966ZM302.641 31.648C303.073 31.008 303.665 30.488 304.417 30.088C305.185 29.688 306.057 29.488 307.033 29.488C308.169 29.488 309.193 29.768 310.105 30.328C311.033 30.888 311.761 31.688 312.289 32.728C312.833 33.752 313.105 34.944 313.105 36.304C313.105 37.664 312.833 38.872 312.289 39.928C311.761 40.968 311.033 41.776 310.105 42.352C309.193 42.928 308.169 43.216 307.033 43.216C306.041 43.216 305.169 43.024 304.417 42.64C303.681 42.24 303.089 41.728 302.641 41.104V43H299.281V25.24H302.641V31.648ZM309.673 36.304C309.673 35.504 309.505 34.816 309.169 34.24C308.849 33.648 308.417 33.2 307.873 32.896C307.345 32.592 306.769 32.44 306.145 32.44C305.537 32.44 304.961 32.6 304.417 32.92C303.889 33.224 303.457 33.672 303.121 34.264C302.801 34.856 302.641 35.552 302.641 36.352C302.641 37.152 302.801 37.848 303.121 38.44C303.457 39.032 303.889 39.488 304.417 39.808C304.961 40.112 305.537 40.264 306.145 40.264C306.769 40.264 307.345 40.104 307.873 39.784C308.417 39.464 308.849 39.008 309.169 38.416C309.505 37.824 309.673 37.12 309.673 36.304ZM318.907 25.24V43H315.547V25.24H318.907ZM334.586 36.064C334.586 36.544 334.554 36.976 334.49 37.36H324.77C324.85 38.32 325.186 39.072 325.778 39.616C326.37 40.16 327.098 40.432 327.962 40.432C329.21 40.432 330.098 39.896 330.626 38.824H334.25C333.866 40.104 333.13 41.16 332.042 41.992C330.954 42.808 329.618 43.216 328.034 43.216C326.754 43.216 325.602 42.936 324.578 42.376C323.57 41.8 322.778 40.992 322.202 39.952C321.642 38.912 321.362 37.712 321.362 36.352C321.362 34.976 321.642 33.768 322.202 32.728C322.762 31.688 323.546 30.888 324.554 30.328C325.562 29.768 326.722 29.488 328.034 29.488C329.298 29.488 330.426 29.76 331.418 30.304C332.426 30.848 333.202 31.624 333.746 32.632C334.306 33.624 334.586 34.768 334.586 36.064ZM331.106 35.104C331.09 34.24 330.778 33.552 330.17 33.04C329.562 32.512 328.818 32.248 327.938 32.248C327.106 32.248 326.402 32.504 325.826 33.016C325.266 33.512 324.922 34.208 324.794 35.104H331.106ZM342.127 43.216C341.039 43.216 340.063 43.024 339.199 42.64C338.335 42.24 337.647 41.704 337.135 41.032C336.639 40.36 336.367 39.616 336.319 38.8H339.703C339.767 39.312 340.015 39.736 340.447 40.072C340.895 40.408 341.447 40.576 342.103 40.576C342.743 40.576 343.239 40.448 343.591 40.192C343.959 39.936 344.143 39.608 344.143 39.208C344.143 38.776 343.919 38.456 343.471 38.248C343.039 38.024 342.343 37.784 341.383 37.528C340.391 37.288 339.575 37.04 338.935 36.784C338.311 36.528 337.767 36.136 337.303 35.608C336.855 35.08 336.631 34.368 336.631 33.472C336.631 32.736 336.839 32.064 337.255 31.456C337.687 30.848 338.295 30.368 339.079 30.016C339.879 29.664 340.815 29.488 341.887 29.488C343.471 29.488 344.735 29.888 345.679 30.688C346.623 31.472 347.143 32.536 347.239 33.88H344.023C343.975 33.352 343.751 32.936 343.351 32.632C342.967 32.312 342.447 32.152 341.791 32.152C341.183 32.152 340.711 32.264 340.375 32.488C340.055 32.712 339.895 33.024 339.895 33.424C339.895 33.872 340.119 34.216 340.567 34.456C341.015 34.68 341.711 34.912 342.655 35.152C343.615 35.392 344.407 35.64 345.031 35.896C345.655 36.152 346.191 36.552 346.639 37.096C347.103 37.624 347.343 38.328 347.359 39.208C347.359 39.976 347.143 40.664 346.711 41.272C346.295 41.88 345.687 42.36 344.887 42.712C344.103 43.048 343.183 43.216 342.127 43.216ZM357.605 29.512C358.613 29.512 359.509 29.736 360.293 30.184C361.077 30.616 361.685 31.264 362.117 32.128C362.565 32.976 362.789 34 362.789 35.2V43H359.429V35.656C359.429 34.6 359.165 33.792 358.637 33.232C358.109 32.656 357.389 32.368 356.477 32.368C355.549 32.368 354.813 32.656 354.269 33.232C353.741 33.792 353.477 34.6 353.477 35.656V43H350.117V25.24H353.477V31.36C353.909 30.784 354.485 30.336 355.205 30.016C355.925 29.68 356.725 29.512 357.605 29.512ZM371.888 43.216C370.608 43.216 369.456 42.936 368.432 42.376C367.408 41.8 366.6 40.992 366.008 39.952C365.432 38.912 365.144 37.712 365.144 36.352C365.144 34.992 365.44 33.792 366.032 32.752C366.64 31.712 367.464 30.912 368.504 30.352C369.544 29.776 370.704 29.488 371.984 29.488C373.264 29.488 374.424 29.776 375.464 30.352C376.504 30.912 377.32 31.712 377.912 32.752C378.52 33.792 378.824 34.992 378.824 36.352C378.824 37.712 378.512 38.912 377.888 39.952C377.28 40.992 376.448 41.8 375.392 42.376C374.352 42.936 373.184 43.216 371.888 43.216ZM371.888 40.288C372.496 40.288 373.064 40.144 373.592 39.856C374.136 39.552 374.568 39.104 374.888 38.512C375.208 37.92 375.368 37.2 375.368 36.352C375.368 35.088 375.032 34.12 374.36 33.448C373.704 32.76 372.896 32.416 371.936 32.416C370.976 32.416 370.168 32.76 369.512 33.448C368.872 34.12 368.552 35.088 368.552 36.352C368.552 37.616 368.864 38.592 369.488 39.28C370.128 39.952 370.928 40.288 371.888 40.288ZM387.193 43.216C385.913 43.216 384.761 42.936 383.737 42.376C382.713 41.8 381.905 40.992 381.313 39.952C380.737 38.912 380.449 37.712 380.449 36.352C380.449 34.992 380.745 33.792 381.337 32.752C381.945 31.712 382.769 30.912 383.809 30.352C384.849 29.776 386.009 29.488 387.289 29.488C388.569 29.488 389.729 29.776 390.769 30.352C391.809 30.912 392.625 31.712 393.217 32.752C393.825 33.792 394.129 34.992 394.129 36.352C394.129 37.712 393.817 38.912 393.193 39.952C392.585 40.992 391.753 41.8 390.697 42.376C389.657 42.936 388.489 43.216 387.193 43.216ZM387.193 40.288C387.801 40.288 388.369 40.144 388.897 39.856C389.441 39.552 389.873 39.104 390.193 38.512C390.513 37.92 390.673 37.2 390.673 36.352C390.673 35.088 390.337 34.12 389.665 33.448C389.009 32.76 388.201 32.416 387.241 32.416C386.281 32.416 385.473 32.76 384.817 33.448C384.177 34.12 383.857 35.088 383.857 36.352C383.857 37.616 384.169 38.592 384.793 39.28C385.433 39.952 386.233 40.288 387.193 40.288ZM400.506 32.464V38.896C400.506 39.344 400.61 39.672 400.818 39.88C401.042 40.072 401.41 40.168 401.922 40.168H403.482V43H401.37C398.538 43 397.122 41.624 397.122 38.872V32.464H395.538V29.704H397.122V26.416H400.506V29.704H403.482V32.464H400.506ZM410.753 36.304C410.753 34.96 411.017 33.768 411.545 32.728C412.089 31.688 412.825 30.888 413.753 30.328C414.681 29.768 415.713 29.488 416.849 29.488C417.713 29.488 418.537 29.68 419.321 30.064C420.105 30.432 420.729 30.928 421.193 31.552V25.24H424.601V43H421.193V41.032C420.777 41.688 420.193 42.216 419.441 42.616C418.689 43.016 417.817 43.216 416.825 43.216C415.705 43.216 414.681 42.928 413.753 42.352C412.825 41.776 412.089 40.968 411.545 39.928C411.017 38.872 410.753 37.664 410.753 36.304ZM421.217 36.352C421.217 35.536 421.057 34.84 420.737 34.264C420.417 33.672 419.985 33.224 419.441 32.92C418.897 32.6 418.313 32.44 417.689 32.44C417.065 32.44 416.489 32.592 415.961 32.896C415.433 33.2 415.001 33.648 414.665 34.24C414.345 34.816 414.185 35.504 414.185 36.304C414.185 37.104 414.345 37.808 414.665 38.416C415.001 39.008 415.433 39.464 415.961 39.784C416.505 40.104 417.081 40.264 417.689 40.264C418.313 40.264 418.897 40.112 419.441 39.808C419.985 39.488 420.417 39.04 420.737 38.464C421.057 37.872 421.217 37.168 421.217 36.352ZM429.587 28.12C428.995 28.12 428.499 27.936 428.099 27.568C427.715 27.184 427.523 26.712 427.523 26.152C427.523 25.592 427.715 25.128 428.099 24.76C428.499 24.376 428.995 24.184 429.587 24.184C430.179 24.184 430.667 24.376 431.051 24.76C431.451 25.128 431.651 25.592 431.651 26.152C431.651 26.712 431.451 27.184 431.051 27.568C430.667 27.936 430.179 28.12 429.587 28.12ZM431.243 29.704V43H427.883V29.704H431.243ZM439.65 43.216C438.562 43.216 437.586 43.024 436.722 42.64C435.858 42.24 435.17 41.704 434.658 41.032C434.162 40.36 433.89 39.616 433.842 38.8H437.226C437.29 39.312 437.538 39.736 437.97 40.072C438.418 40.408 438.97 40.576 439.626 40.576C440.266 40.576 440.762 40.448 441.114 40.192C441.482 39.936 441.666 39.608 441.666 39.208C441.666 38.776 441.442 38.456 440.994 38.248C440.562 38.024 439.866 37.784 438.906 37.528C437.914 37.288 437.098 37.04 436.458 36.784C435.834 36.528 435.29 36.136 434.826 35.608C434.378 35.08 434.154 34.368 434.154 33.472C434.154 32.736 434.362 32.064 434.778 31.456C435.21 30.848 435.818 30.368 436.602 30.016C437.402 29.664 438.338 29.488 439.41 29.488C440.994 29.488 442.258 29.888 443.202 30.688C444.146 31.472 444.666 32.536 444.762 33.88H441.546C441.498 33.352 441.274 32.936 440.874 32.632C440.49 32.312 439.97 32.152 439.314 32.152C438.706 32.152 438.234 32.264 437.898 32.488C437.578 32.712 437.418 33.024 437.418 33.424C437.418 33.872 437.642 34.216 438.09 34.456C438.538 34.68 439.234 34.912 440.178 35.152C441.138 35.392 441.93 35.64 442.554 35.896C443.178 36.152 443.714 36.552 444.162 37.096C444.626 37.624 444.866 38.328 444.882 39.208C444.882 39.976 444.666 40.664 444.234 41.272C443.818 41.88 443.21 42.36 442.41 42.712C441.626 43.048 440.706 43.216 439.65 43.216ZM455.512 43L451 37.336V43H447.64V25.24H451V35.344L455.464 29.704H459.832L453.976 36.376L459.88 43H455.512Z"></path>
<rect fill-opacity="0.1" fill="white" rx="5" height="10" width="200" y="70" x="140"></rect>
<path fill="white" d="M22.6176 77.988H25.2026V79H21.3636V71.355H22.6176V77.988ZM28.8803 79.099C28.3083 79.099 27.7913 78.9707 27.3293 78.714C26.8673 78.45 26.5043 78.0833 26.2403 77.614C25.9763 77.1373 25.8443 76.5873 25.8443 75.964C25.8443 75.348 25.9799 74.8017 26.2513 74.325C26.5226 73.8483 26.8929 73.4817 27.3623 73.225C27.8316 72.9683 28.3559 72.84 28.9353 72.84C29.5146 72.84 30.0389 72.9683 30.5083 73.225C30.9776 73.4817 31.3479 73.8483 31.6193 74.325C31.8906 74.8017 32.0263 75.348 32.0263 75.964C32.0263 76.58 31.8869 77.1263 31.6083 77.603C31.3296 78.0797 30.9483 78.45 30.4643 78.714C29.9876 78.9707 29.4596 79.099 28.8803 79.099ZM28.8803 78.01C29.2029 78.01 29.5036 77.933 29.7823 77.779C30.0683 77.625 30.2993 77.394 30.4753 77.086C30.6513 76.778 30.7393 76.404 30.7393 75.964C30.7393 75.524 30.6549 75.1537 30.4863 74.853C30.3176 74.545 30.0939 74.314 29.8153 74.16C29.5366 74.006 29.2359 73.929 28.9133 73.929C28.5906 73.929 28.2899 74.006 28.0113 74.16C27.7399 74.314 27.5236 74.545 27.3623 74.853C27.2009 75.1537 27.1203 75.524 27.1203 75.964C27.1203 76.6167 27.2853 77.1227 27.6153 77.482C27.9526 77.834 28.3743 78.01 28.8803 78.01ZM32.8479 75.964C32.8479 75.3407 32.9726 74.7943 33.2219 74.325C33.4786 73.8483 33.8306 73.4817 34.2779 73.225C34.7253 72.9683 35.2386 72.84 35.8179 72.84C36.5513 72.84 37.1563 73.016 37.6329 73.368C38.1169 73.7127 38.4433 74.2077 38.6119 74.853H37.2589C37.1489 74.5523 36.9729 74.3177 36.7309 74.149C36.4889 73.9803 36.1846 73.896 35.8179 73.896C35.3046 73.896 34.8939 74.0793 34.5859 74.446C34.2853 74.8053 34.1349 75.3113 34.1349 75.964C34.1349 76.6167 34.2853 77.1263 34.5859 77.493C34.8939 77.8597 35.3046 78.043 35.8179 78.043C36.5439 78.043 37.0243 77.724 37.2589 77.086H38.6119C38.4359 77.702 38.1059 78.1933 37.6219 78.56C37.1379 78.9193 36.5366 79.099 35.8179 79.099C35.2386 79.099 34.7253 78.9707 34.2779 78.714C33.8306 78.45 33.4786 78.0833 33.2219 77.614C32.9726 77.1373 32.8479 76.5873 32.8479 75.964ZM39.4436 75.942C39.4436 75.3333 39.5683 74.7943 39.8176 74.325C40.0743 73.8557 40.419 73.4927 40.8516 73.236C41.2916 72.972 41.7756 72.84 42.3036 72.84C42.7803 72.84 43.1946 72.9353 43.5466 73.126C43.906 73.3093 44.192 73.5403 44.4046 73.819V72.939H45.6696V79H44.4046V78.098C44.192 78.384 43.9023 78.6223 43.5356 78.813C43.169 79.0037 42.751 79.099 42.2816 79.099C41.761 79.099 41.2843 78.967 40.8516 78.703C40.419 78.4317 40.0743 78.0577 39.8176 77.581C39.5683 77.097 39.4436 76.5507 39.4436 75.942ZM44.4046 75.964C44.4046 75.546 44.3166 75.183 44.1406 74.875C43.972 74.567 43.7483 74.3323 43.4696 74.171C43.191 74.0097 42.8903 73.929 42.5676 73.929C42.245 73.929 41.9443 74.0097 41.6656 74.171C41.387 74.325 41.1596 74.556 40.9836 74.864C40.815 75.1647 40.7306 75.524 40.7306 75.942C40.7306 76.36 40.815 76.7267 40.9836 77.042C41.1596 77.3573 41.387 77.5993 41.6656 77.768C41.9516 77.9293 42.2523 78.01 42.5676 78.01C42.8903 78.01 43.191 77.9293 43.4696 77.768C43.7483 77.6067 43.972 77.372 44.1406 77.064C44.3166 76.7487 44.4046 76.382 44.4046 75.964ZM48.5707 70.86V79H47.3167V70.86H48.5707ZM52.6565 75.942C52.6565 75.3333 52.7812 74.7943 53.0305 74.325C53.2872 73.8557 53.6318 73.4927 54.0645 73.236C54.5045 72.972 54.9922 72.84 55.5275 72.84C55.9235 72.84 56.3122 72.928 56.6935 73.104C57.0822 73.2727 57.3902 73.5 57.6175 73.786V70.86H58.8825V79H57.6175V78.087C57.4122 78.3803 57.1262 78.6223 56.7595 78.813C56.4002 79.0037 55.9858 79.099 55.5165 79.099C54.9885 79.099 54.5045 78.967 54.0645 78.703C53.6318 78.4317 53.2872 78.0577 53.0305 77.581C52.7812 77.097 52.6565 76.5507 52.6565 75.942ZM57.6175 75.964C57.6175 75.546 57.5295 75.183 57.3535 74.875C57.1848 74.567 56.9612 74.3323 56.6825 74.171C56.4038 74.0097 56.1032 73.929 55.7805 73.929C55.4578 73.929 55.1572 74.0097 54.8785 74.171C54.5998 74.325 54.3725 74.556 54.1965 74.864C54.0278 75.1647 53.9435 75.524 53.9435 75.942C53.9435 76.36 54.0278 76.7267 54.1965 77.042C54.3725 77.3573 54.5998 77.5993 54.8785 77.768C55.1645 77.9293 55.4652 78.01 55.7805 78.01C56.1032 78.01 56.4038 77.9293 56.6825 77.768C56.9612 77.6067 57.1848 77.372 57.3535 77.064C57.5295 76.7487 57.6175 76.382 57.6175 75.964ZM61.1676 72.136C60.9403 72.136 60.7496 72.059 60.5956 71.905C60.4416 71.751 60.3646 71.5603 60.3646 71.333C60.3646 71.1057 60.4416 70.915 60.5956 70.761C60.7496 70.607 60.9403 70.53 61.1676 70.53C61.3876 70.53 61.5746 70.607 61.7286 70.761C61.8826 70.915 61.9596 71.1057 61.9596 71.333C61.9596 71.5603 61.8826 71.751 61.7286 71.905C61.5746 72.059 61.3876 72.136 61.1676 72.136ZM61.7836 72.939V79H60.5296V72.939H61.7836ZM65.63 79.099C65.1533 79.099 64.7243 79.0147 64.343 78.846C63.969 78.67 63.672 78.4353 63.452 78.142C63.232 77.8413 63.1146 77.5077 63.1 77.141H64.398C64.42 77.3977 64.541 77.614 64.761 77.79C64.9883 77.9587 65.2706 78.043 65.608 78.043C65.96 78.043 66.2313 77.977 66.422 77.845C66.62 77.7057 66.719 77.5297 66.719 77.317C66.719 77.0897 66.609 76.921 66.389 76.811C66.1763 76.701 65.8353 76.58 65.366 76.448C64.9113 76.3233 64.541 76.2023 64.255 76.085C63.969 75.9677 63.7196 75.788 63.507 75.546C63.3016 75.304 63.199 74.985 63.199 74.589C63.199 74.2663 63.2943 73.973 63.485 73.709C63.6756 73.4377 63.947 73.225 64.299 73.071C64.6583 72.917 65.069 72.84 65.531 72.84C66.2203 72.84 66.774 73.016 67.192 73.368C67.6173 73.7127 67.8446 74.1857 67.874 74.787H66.62C66.598 74.5157 66.488 74.2993 66.29 74.138C66.092 73.9767 65.8243 73.896 65.487 73.896C65.157 73.896 64.904 73.9583 64.728 74.083C64.552 74.2077 64.464 74.3727 64.464 74.578C64.464 74.7393 64.5226 74.875 64.64 74.985C64.7573 75.095 64.9003 75.183 65.069 75.249C65.2376 75.3077 65.487 75.3847 65.817 75.48C66.257 75.5973 66.6163 75.7183 66.895 75.843C67.181 75.9603 67.4266 76.1363 67.632 76.371C67.8373 76.6057 67.9436 76.9173 67.951 77.306C67.951 77.6507 67.8556 77.9587 67.665 78.23C67.4743 78.5013 67.203 78.714 66.851 78.868C66.5063 79.022 66.0993 79.099 65.63 79.099ZM71.704 75.975L74.498 79H72.804L70.56 76.393V79H69.306V70.86H70.56V75.59L72.76 72.939H74.498L71.704 75.975ZM81.0262 81.046C80.3075 80.3567 79.7539 79.4803 79.3652 78.417C78.9839 77.3537 78.7932 76.2133 78.7932 74.996C78.7932 73.7493 78.9985 72.5723 79.4092 71.465C79.8272 70.3577 80.4395 69.4447 81.2462 68.726H82.5442V68.847C81.7009 69.6243 81.0665 70.5557 80.6412 71.641C80.2159 72.7263 80.0032 73.8447 80.0032 74.996C80.0032 76.1033 80.2012 77.174 80.5972 78.208C80.9932 79.242 81.5689 80.1477 82.3242 80.925V81.046H81.0262ZM83.2503 75.161C83.2503 74.413 83.4226 73.742 83.7673 73.148C84.1193 72.554 84.5923 72.092 85.1863 71.762C85.7876 71.4247 86.4439 71.256 87.1553 71.256C87.9693 71.256 88.6916 71.4577 89.3223 71.861C89.9603 72.257 90.4223 72.8217 90.7083 73.555H89.2013C89.0033 73.1517 88.7283 72.851 88.3763 72.653C88.0243 72.455 87.6173 72.356 87.1553 72.356C86.6493 72.356 86.1983 72.4697 85.8023 72.697C85.4063 72.9243 85.0946 73.2507 84.8673 73.676C84.6473 74.1013 84.5373 74.5963 84.5373 75.161C84.5373 75.7257 84.6473 76.2207 84.8673 76.646C85.0946 77.0713 85.4063 77.4013 85.8023 77.636C86.1983 77.8633 86.6493 77.977 87.1553 77.977C87.6173 77.977 88.0243 77.878 88.3763 77.68C88.7283 77.482 89.0033 77.1813 89.2013 76.778H90.7083C90.4223 77.5113 89.9603 78.076 89.3223 78.472C88.6916 78.868 87.9693 79.066 87.1553 79.066C86.4366 79.066 85.7803 78.901 85.1863 78.571C84.5923 78.2337 84.1193 77.768 83.7673 77.174C83.4226 76.58 83.2503 75.909 83.2503 75.161ZM92.6821 79.077C92.4547 79.077 92.2641 79 92.1101 78.846C91.9561 78.692 91.8791 78.5013 91.8791 78.274C91.8791 78.0467 91.9561 77.856 92.1101 77.702C92.2641 77.548 92.4547 77.471 92.6821 77.471C92.9021 77.471 93.0891 77.548 93.2431 77.702C93.3971 77.856 93.4741 78.0467 93.4741 78.274C93.4741 78.5013 93.3971 78.692 93.2431 78.846C93.0891 79 92.9021 79.077 92.6821 79.077ZM92.6821 74.457C92.4547 74.457 92.2641 74.38 92.1101 74.226C91.9561 74.072 91.8791 73.8813 91.8791 73.654C91.8791 73.4267 91.9561 73.236 92.1101 73.082C92.2641 72.928 92.4547 72.851 92.6821 72.851C92.9021 72.851 93.0891 72.928 93.2431 73.082C93.3971 73.236 93.4741 73.4267 93.4741 73.654C93.4741 73.8813 93.3971 74.072 93.2431 74.226C93.0891 74.38 92.9021 74.457 92.6821 74.457ZM94.5644 81.046V80.925C95.3197 80.1477 95.8954 79.242 96.2914 78.208C96.6874 77.174 96.8854 76.1033 96.8854 74.996C96.8854 73.8447 96.6727 72.7263 96.2474 71.641C95.822 70.5557 95.1877 69.6243 94.3444 68.847V68.726H95.6424C96.449 69.4447 97.0577 70.3577 97.4684 71.465C97.8864 72.5723 98.0954 73.7493 98.0954 74.996C98.0954 76.2133 97.901 77.3537 97.5124 78.417C97.131 79.4803 96.581 80.3567 95.8624 81.046H94.5644Z"></path>
<path fill-opacity="0.05" fill="white" d="M15 100C15 97.2386 17.2386 95 20 95H230C232.761 95 235 97.2386 235 100V145H15V100Z"></path>
<path fill-opacity="0.05" fill="white" d="M15 146H235V290C235 292.761 232.761 295 230 295H20C17.2386 295 15 292.761 15 290V146Z"></path>
<path fill="white" d="M75.407 112.161C75.407 111.413 75.5793 110.742 75.924 110.148C76.276 109.554 76.749 109.092 77.343 108.762C77.9443 108.425 78.6007 108.256 79.312 108.256C80.126 108.256 80.8483 108.458 81.479 108.861C82.117 109.257 82.579 109.822 82.865 110.555H81.358C81.16 110.152 80.885 109.851 80.533 109.653C80.181 109.455 79.774 109.356 79.312 109.356C78.806 109.356 78.355 109.47 77.959 109.697C77.563 109.924 77.2513 110.251 77.024 110.676C76.804 111.101 76.694 111.596 76.694 112.161C76.694 112.726 76.804 113.221 77.024 113.646C77.2513 114.071 77.563 114.401 77.959 114.636C78.355 114.863 78.806 114.977 79.312 114.977C79.774 114.977 80.181 114.878 80.533 114.68C80.885 114.482 81.16 114.181 81.358 113.778H82.865C82.579 114.511 82.117 115.076 81.479 115.472C80.8483 115.868 80.126 116.066 79.312 116.066C78.5933 116.066 77.937 115.901 77.343 115.571C76.749 115.234 76.276 114.768 75.924 114.174C75.5793 113.58 75.407 112.909 75.407 112.161ZM86.9618 116.099C86.3898 116.099 85.8728 115.971 85.4108 115.714C84.9488 115.45 84.5858 115.083 84.3218 114.614C84.0578 114.137 83.9258 113.587 83.9258 112.964C83.9258 112.348 84.0615 111.802 84.3328 111.325C84.6041 110.848 84.9745 110.482 85.4438 110.225C85.9131 109.968 86.4375 109.84 87.0168 109.84C87.5961 109.84 88.1205 109.968 88.5898 110.225C89.0591 110.482 89.4295 110.848 89.7008 111.325C89.9721 111.802 90.1078 112.348 90.1078 112.964C90.1078 113.58 89.9685 114.126 89.6898 114.603C89.4111 115.08 89.0298 115.45 88.5458 115.714C88.0691 115.971 87.5411 116.099 86.9618 116.099ZM86.9618 115.01C87.2845 115.01 87.5851 114.933 87.8638 114.779C88.1498 114.625 88.3808 114.394 88.5568 114.086C88.7328 113.778 88.8208 113.404 88.8208 112.964C88.8208 112.524 88.7365 112.154 88.5678 111.853C88.3991 111.545 88.1755 111.314 87.8968 111.16C87.6181 111.006 87.3175 110.929 86.9948 110.929C86.6721 110.929 86.3715 111.006 86.0928 111.16C85.8215 111.314 85.6051 111.545 85.4438 111.853C85.2825 112.154 85.2018 112.524 85.2018 112.964C85.2018 113.617 85.3668 114.123 85.6968 114.482C86.0341 114.834 86.4558 115.01 86.9618 115.01ZM92.6015 110.819C92.7848 110.511 93.0268 110.273 93.3275 110.104C93.6355 109.928 93.9985 109.84 94.4165 109.84V111.138H94.0975C93.6061 111.138 93.2321 111.263 92.9755 111.512C92.7261 111.761 92.6015 112.194 92.6015 112.81V116H91.3475V109.939H92.6015V110.819ZM96.8231 110.819C97.0065 110.511 97.2485 110.273 97.5491 110.104C97.8571 109.928 98.2201 109.84 98.6381 109.84V111.138H98.3191C97.8278 111.138 97.4538 111.263 97.1971 111.512C96.9478 111.761 96.8231 112.194 96.8231 112.81V116H95.5691V109.939H96.8231V110.819ZM105.28 109.939V116H104.026V115.285C103.828 115.534 103.567 115.732 103.245 115.879C102.929 116.018 102.592 116.088 102.233 116.088C101.756 116.088 101.327 115.989 100.946 115.791C100.572 115.593 100.275 115.3 100.055 114.911C99.8422 114.522 99.7358 114.053 99.7358 113.503V109.939H100.979V113.316C100.979 113.859 101.114 114.277 101.386 114.57C101.657 114.856 102.027 114.999 102.497 114.999C102.966 114.999 103.336 114.856 103.608 114.57C103.886 114.277 104.026 113.859 104.026 113.316V109.939H105.28ZM108.188 110.83C108.401 110.551 108.691 110.317 109.057 110.126C109.424 109.935 109.838 109.84 110.3 109.84C110.828 109.84 111.309 109.972 111.741 110.236C112.181 110.493 112.526 110.856 112.775 111.325C113.025 111.794 113.149 112.333 113.149 112.942C113.149 113.551 113.025 114.097 112.775 114.581C112.526 115.058 112.181 115.432 111.741 115.703C111.309 115.967 110.828 116.099 110.3 116.099C109.838 116.099 109.428 116.007 109.068 115.824C108.709 115.633 108.416 115.399 108.188 115.12V118.882H106.934V109.939H108.188V110.83ZM111.873 112.942C111.873 112.524 111.785 112.165 111.609 111.864C111.441 111.556 111.213 111.325 110.927 111.171C110.649 111.01 110.348 110.929 110.025 110.929C109.71 110.929 109.409 111.01 109.123 111.171C108.845 111.332 108.617 111.567 108.441 111.875C108.273 112.183 108.188 112.546 108.188 112.964C108.188 113.382 108.273 113.749 108.441 114.064C108.617 114.372 108.845 114.607 109.123 114.768C109.409 114.929 109.71 115.01 110.025 115.01C110.348 115.01 110.649 114.929 110.927 114.768C111.213 114.599 111.441 114.357 111.609 114.042C111.785 113.727 111.873 113.36 111.873 112.942ZM115.852 110.962V114.317C115.852 114.544 115.904 114.709 116.006 114.812C116.116 114.907 116.3 114.955 116.556 114.955H117.326V116H116.336C115.772 116 115.339 115.868 115.038 115.604C114.738 115.34 114.587 114.911 114.587 114.317V110.962H113.872V109.939H114.587V108.432H115.852V109.939H117.326V110.962H115.852ZM124.037 112.821C124.037 113.048 124.023 113.254 123.993 113.437H119.362C119.399 113.921 119.579 114.31 119.901 114.603C120.224 114.896 120.62 115.043 121.089 115.043C121.764 115.043 122.241 114.761 122.519 114.196H123.872C123.689 114.753 123.355 115.212 122.871 115.571C122.395 115.923 121.801 116.099 121.089 116.099C120.51 116.099 119.989 115.971 119.527 115.714C119.073 115.45 118.713 115.083 118.449 114.614C118.193 114.137 118.064 113.587 118.064 112.964C118.064 112.341 118.189 111.794 118.438 111.325C118.695 110.848 119.051 110.482 119.505 110.225C119.967 109.968 120.495 109.84 121.089 109.84C121.661 109.84 122.171 109.965 122.618 110.214C123.066 110.463 123.414 110.815 123.663 111.27C123.913 111.717 124.037 112.234 124.037 112.821ZM122.728 112.425C122.721 111.963 122.556 111.593 122.233 111.314C121.911 111.035 121.511 110.896 121.034 110.896C120.602 110.896 120.231 111.035 119.923 111.314C119.615 111.585 119.432 111.956 119.373 112.425H122.728ZM124.853 112.942C124.853 112.333 124.978 111.794 125.227 111.325C125.484 110.856 125.829 110.493 126.261 110.236C126.701 109.972 127.189 109.84 127.724 109.84C128.12 109.84 128.509 109.928 128.89 110.104C129.279 110.273 129.587 110.5 129.814 110.786V107.86H131.079V116H129.814V115.087C129.609 115.38 129.323 115.622 128.956 115.813C128.597 116.004 128.183 116.099 127.713 116.099C127.185 116.099 126.701 115.967 126.261 115.703C125.829 115.432 125.484 115.058 125.227 114.581C124.978 114.097 124.853 113.551 124.853 112.942ZM129.814 112.964C129.814 112.546 129.726 112.183 129.55 111.875C129.382 111.567 129.158 111.332 128.879 111.171C128.601 111.01 128.3 110.929 127.977 110.929C127.655 110.929 127.354 111.01 127.075 111.171C126.797 111.325 126.569 111.556 126.393 111.864C126.225 112.165 126.14 112.524 126.14 112.942C126.14 113.36 126.225 113.727 126.393 114.042C126.569 114.357 126.797 114.599 127.075 114.768C127.361 114.929 127.662 115.01 127.977 115.01C128.3 115.01 128.601 114.929 128.879 114.768C129.158 114.607 129.382 114.372 129.55 114.064C129.726 113.749 129.814 113.382 129.814 112.964ZM136.222 109.136C135.994 109.136 135.804 109.059 135.65 108.905C135.496 108.751 135.419 108.56 135.419 108.333C135.419 108.106 135.496 107.915 135.65 107.761C135.804 107.607 135.994 107.53 136.222 107.53C136.442 107.53 136.629 107.607 136.783 107.761C136.937 107.915 137.014 108.106 137.014 108.333C137.014 108.56 136.937 108.751 136.783 108.905C136.629 109.059 136.442 109.136 136.222 109.136ZM136.838 109.939V116H135.584V109.939H136.838ZM139.947 110.962V114.317C139.947 114.544 139.999 114.709 140.101 114.812C140.211 114.907 140.395 114.955 140.651 114.955H141.421V116H140.431C139.867 116 139.434 115.868 139.133 115.604C138.833 115.34 138.682 114.911 138.682 114.317V110.962H137.967V109.939H138.682V108.432H139.947V109.939H141.421V110.962H139.947ZM148.132 112.821C148.132 113.048 148.117 113.254 148.088 113.437H143.457C143.494 113.921 143.673 114.31 143.996 114.603C144.319 114.896 144.715 115.043 145.184 115.043C145.859 115.043 146.335 114.761 146.614 114.196H147.967C147.784 114.753 147.45 115.212 146.966 115.571C146.489 115.923 145.895 116.099 145.184 116.099C144.605 116.099 144.084 115.971 143.622 115.714C143.167 115.45 142.808 115.083 142.544 114.614C142.287 114.137 142.159 113.587 142.159 112.964C142.159 112.341 142.284 111.794 142.533 111.325C142.79 110.848 143.145 110.482 143.6 110.225C144.062 109.968 144.59 109.84 145.184 109.84C145.756 109.84 146.266 109.965 146.713 110.214C147.16 110.463 147.509 110.815 147.758 111.27C148.007 111.717 148.132 112.234 148.132 112.821ZM146.823 112.425C146.816 111.963 146.651 111.593 146.328 111.314C146.005 111.035 145.606 110.896 145.129 110.896C144.696 110.896 144.326 111.035 144.018 111.314C143.71 111.585 143.527 111.956 143.468 112.425H146.823ZM156.703 109.84C157.18 109.84 157.605 109.939 157.979 110.137C158.36 110.335 158.657 110.628 158.87 111.017C159.09 111.406 159.2 111.875 159.2 112.425V116H157.957V112.612C157.957 112.069 157.821 111.655 157.55 111.369C157.279 111.076 156.908 110.929 156.439 110.929C155.97 110.929 155.596 111.076 155.317 111.369C155.046 111.655 154.91 112.069 154.91 112.612V116H153.667V112.612C153.667 112.069 153.531 111.655 153.26 111.369C152.989 111.076 152.618 110.929 152.149 110.929C151.68 110.929 151.306 111.076 151.027 111.369C150.756 111.655 150.62 112.069 150.62 112.612V116H149.366V109.939H150.62V110.632C150.825 110.383 151.086 110.188 151.401 110.049C151.716 109.91 152.054 109.84 152.413 109.84C152.897 109.84 153.33 109.943 153.711 110.148C154.092 110.353 154.386 110.65 154.591 111.039C154.774 110.672 155.06 110.383 155.449 110.17C155.838 109.95 156.256 109.84 156.703 109.84ZM162.996 116.099C162.519 116.099 162.09 116.015 161.709 115.846C161.335 115.67 161.038 115.435 160.818 115.142C160.598 114.841 160.48 114.508 160.466 114.141H161.764C161.786 114.398 161.907 114.614 162.127 114.79C162.354 114.959 162.636 115.043 162.974 115.043C163.326 115.043 163.597 114.977 163.788 114.845C163.986 114.706 164.085 114.53 164.085 114.317C164.085 114.09 163.975 113.921 163.755 113.811C163.542 113.701 163.201 113.58 162.732 113.448C162.277 113.323 161.907 113.202 161.621 113.085C161.335 112.968 161.085 112.788 160.873 112.546C160.667 112.304 160.565 111.985 160.565 111.589C160.565 111.266 160.66 110.973 160.851 110.709C161.041 110.438 161.313 110.225 161.665 110.071C162.024 109.917 162.435 109.84 162.897 109.84C163.586 109.84 164.14 110.016 164.558 110.368C164.983 110.713 165.21 111.186 165.24 111.787H163.986C163.964 111.516 163.854 111.299 163.656 111.138C163.458 110.977 163.19 110.896 162.853 110.896C162.523 110.896 162.27 110.958 162.094 111.083C161.918 111.208 161.83 111.373 161.83 111.578C161.83 111.739 161.888 111.875 162.006 111.985C162.123 112.095 162.266 112.183 162.435 112.249C162.603 112.308 162.853 112.385 163.183 112.48C163.623 112.597 163.982 112.718 164.261 112.843C164.547 112.96 164.792 113.136 164.998 113.371C165.203 113.606 165.309 113.917 165.317 114.306C165.317 114.651 165.221 114.959 165.031 115.23C164.84 115.501 164.569 115.714 164.217 115.868C163.872 116.022 163.465 116.099 162.996 116.099Z"></path>
<path fill-opacity="0.75" fill="white" d="M82.263 125.745V132H81.237V127.716L79.329 132H78.618L76.701 127.716V132H75.675V125.745H76.782L78.978 130.65L81.165 125.745H82.263ZM83.2695 129.498C83.2695 129 83.3715 128.559 83.5755 128.175C83.7855 127.791 84.0675 127.494 84.4215 127.284C84.7815 127.068 85.1775 126.96 85.6095 126.96C85.9995 126.96 86.3385 127.038 86.6265 127.194C86.9205 127.344 87.1545 127.533 87.3285 127.761V127.041H88.3635V132H87.3285V131.262C87.1545 131.496 86.9175 131.691 86.6175 131.847C86.3175 132.003 85.9755 132.081 85.5915 132.081C85.1655 132.081 84.7755 131.973 84.4215 131.757C84.0675 131.535 83.7855 131.229 83.5755 130.839C83.3715 130.443 83.2695 129.996 83.2695 129.498ZM87.3285 129.516C87.3285 129.174 87.2565 128.877 87.1125 128.625C86.9745 128.373 86.7915 128.181 86.5635 128.049C86.3355 127.917 86.0895 127.851 85.8255 127.851C85.5615 127.851 85.3155 127.917 85.0875 128.049C84.8595 128.175 84.6735 128.364 84.5295 128.616C84.3915 128.862 84.3225 129.156 84.3225 129.498C84.3225 129.84 84.3915 130.14 84.5295 130.398C84.6735 130.656 84.8595 130.854 85.0875 130.992C85.3215 131.124 85.5675 131.19 85.8255 131.19C86.0895 131.19 86.3355 131.124 86.5635 130.992C86.7915 130.86 86.9745 130.668 87.1125 130.416C87.2565 130.158 87.3285 129.858 87.3285 129.516ZM94.1751 127.041L91.1331 134.331H90.0711L91.0791 131.919L89.1261 127.041H90.2691L91.6641 130.821L93.1131 127.041H94.1751ZM98.3133 127.779C98.4873 127.539 98.7243 127.344 99.0243 127.194C99.3303 127.038 99.6693 126.96 100.041 126.96C100.479 126.96 100.875 127.065 101.229 127.275C101.583 127.485 101.862 127.785 102.066 128.175C102.27 128.559 102.372 129 102.372 129.498C102.372 129.996 102.27 130.443 102.066 130.839C101.862 131.229 101.58 131.535 101.22 131.757C100.866 131.973 100.473 132.081 100.041 132.081C99.6573 132.081 99.3153 132.006 99.0153 131.856C98.7213 131.706 98.4873 131.514 98.3133 131.28V132H97.2873V125.34H98.3133V127.779ZM101.328 129.498C101.328 129.156 101.256 128.862 101.112 128.616C100.974 128.364 100.788 128.175 100.554 128.049C100.326 127.917 100.08 127.851 99.8163 127.851C99.5583 127.851 99.3123 127.917 99.0783 128.049C98.8503 128.181 98.6643 128.373 98.5203 128.625C98.3823 128.877 98.3133 129.174 98.3133 129.516C98.3133 129.858 98.3823 130.158 98.5203 130.416C98.6643 130.668 98.8503 130.86 99.0783 130.992C99.3123 131.124 99.5583 131.19 99.8163 131.19C100.08 131.19 100.326 131.124 100.554 130.992C100.788 130.854 100.974 130.656 101.112 130.398C101.256 130.14 101.328 129.84 101.328 129.498ZM107.932 129.399C107.932 129.585 107.92 129.753 107.896 129.903H104.107C104.137 130.299 104.284 130.617 104.548 130.857C104.812 131.097 105.136 131.217 105.52 131.217C106.072 131.217 106.462 130.986 106.69 130.524H107.797C107.647 130.98 107.374 131.355 106.978 131.649C106.588 131.937 106.102 132.081 105.52 132.081C105.046 132.081 104.62 131.976 104.242 131.766C103.87 131.55 103.576 131.25 103.36 130.866C103.15 130.476 103.045 130.026 103.045 129.516C103.045 129.006 103.147 128.559 103.351 128.175C103.561 127.785 103.852 127.485 104.224 127.275C104.602 127.065 105.034 126.96 105.52 126.96C105.988 126.96 106.405 127.062 106.771 127.266C107.137 127.47 107.422 127.758 107.626 128.13C107.83 128.496 107.932 128.919 107.932 129.399ZM106.861 129.075C106.855 128.697 106.72 128.394 106.456 128.166C106.192 127.938 105.865 127.824 105.475 127.824C105.121 127.824 104.818 127.938 104.566 128.166C104.314 128.388 104.164 128.691 104.116 129.075H106.861ZM115.77 127.041V132H114.744V131.415C114.582 131.619 114.369 131.781 114.105 131.901C113.847 132.015 113.571 132.072 113.277 132.072C112.887 132.072 112.536 131.991 112.224 131.829C111.918 131.667 111.675 131.427 111.495 131.109C111.321 130.791 111.234 130.407 111.234 129.957V127.041H112.251V129.804C112.251 130.248 112.362 130.59 112.584 130.83C112.806 131.064 113.109 131.181 113.493 131.181C113.877 131.181 114.18 131.064 114.402 130.83C114.63 130.59 114.744 130.248 114.744 129.804V127.041H115.77ZM119.626 126.96C120.016 126.96 120.364 127.041 120.67 127.203C120.982 127.365 121.225 127.605 121.399 127.923C121.573 128.241 121.66 128.625 121.66 129.075V132H120.643V129.228C120.643 128.784 120.532 128.445 120.31 128.211C120.088 127.971 119.785 127.851 119.401 127.851C119.017 127.851 118.711 127.971 118.483 128.211C118.261 128.445 118.15 128.784 118.15 129.228V132H117.124V127.041H118.15V127.608C118.318 127.404 118.531 127.245 118.789 127.131C119.053 127.017 119.332 126.96 119.626 126.96ZM127.46 127.041V132H126.434V131.415C126.272 131.619 126.059 131.781 125.795 131.901C125.537 132.015 125.261 132.072 124.967 132.072C124.577 132.072 124.226 131.991 123.914 131.829C123.608 131.667 123.365 131.427 123.185 131.109C123.011 130.791 122.924 130.407 122.924 129.957V127.041H123.941V129.804C123.941 130.248 124.052 130.59 124.274 130.83C124.496 131.064 124.799 131.181 125.183 131.181C125.567 131.181 125.87 131.064 126.092 130.83C126.32 130.59 126.434 130.248 126.434 129.804V127.041H127.46ZM130.614 132.081C130.224 132.081 129.873 132.012 129.561 131.874C129.255 131.73 129.012 131.538 128.832 131.298C128.652 131.052 128.556 130.779 128.544 130.479H129.606C129.624 130.689 129.723 130.866 129.903 131.01C130.089 131.148 130.32 131.217 130.596 131.217C130.884 131.217 131.106 131.163 131.262 131.055C131.424 130.941 131.505 130.797 131.505 130.623C131.505 130.437 131.415 130.299 131.235 130.209C131.061 130.119 130.782 130.02 130.398 129.912C130.026 129.81 129.723 129.711 129.489 129.615C129.255 129.519 129.051 129.372 128.877 129.174C128.709 128.976 128.625 128.715 128.625 128.391C128.625 128.127 128.703 127.887 128.859 127.671C129.015 127.449 129.237 127.275 129.525 127.149C129.819 127.023 130.155 126.96 130.533 126.96C131.097 126.96 131.55 127.104 131.892 127.392C132.24 127.674 132.426 128.061 132.45 128.553H131.424C131.406 128.331 131.316 128.154 131.154 128.022C130.992 127.89 130.773 127.824 130.497 127.824C130.227 127.824 130.02 127.875 129.876 127.977C129.732 128.079 129.66 128.214 129.66 128.382C129.66 128.514 129.708 128.625 129.804 128.715C129.9 128.805 130.017 128.877 130.155 128.931C130.293 128.979 130.497 129.042 130.767 129.12C131.127 129.216 131.421 129.315 131.649 129.417C131.883 129.513 132.084 129.657 132.252 129.849C132.42 130.041 132.507 130.296 132.513 130.614C132.513 130.896 132.435 131.148 132.279 131.37C132.123 131.592 131.901 131.766 131.613 131.892C131.331 132.018 130.998 132.081 130.614 132.081ZM133.279 129.498C133.279 129 133.381 128.559 133.585 128.175C133.795 127.791 134.077 127.494 134.431 127.284C134.791 127.068 135.187 126.96 135.619 126.96C136.009 126.96 136.348 127.038 136.636 127.194C136.93 127.344 137.164 127.533 137.338 127.761V127.041H138.373V132H137.338V131.262C137.164 131.496 136.927 131.691 136.627 131.847C136.327 132.003 135.985 132.081 135.601 132.081C135.175 132.081 134.785 131.973 134.431 131.757C134.077 131.535 133.795 131.229 133.585 130.839C133.381 130.443 133.279 129.996 133.279 129.498ZM137.338 129.516C137.338 129.174 137.266 128.877 137.122 128.625C136.984 128.373 136.801 128.181 136.573 128.049C136.345 127.917 136.099 127.851 135.835 127.851C135.571 127.851 135.325 127.917 135.097 128.049C134.869 128.175 134.683 128.364 134.539 128.616C134.401 128.862 134.332 129.156 134.332 129.498C134.332 129.84 134.401 130.14 134.539 130.398C134.683 130.656 134.869 130.854 135.097 130.992C135.331 131.124 135.577 131.19 135.835 131.19C136.099 131.19 136.345 131.124 136.573 130.992C136.801 130.86 136.984 130.668 137.122 130.416C137.266 130.158 137.338 129.858 137.338 129.516ZM140.747 127.779C140.921 127.539 141.158 127.344 141.458 127.194C141.764 127.038 142.103 126.96 142.475 126.96C142.913 126.96 143.309 127.065 143.663 127.275C144.017 127.485 144.296 127.785 144.5 128.175C144.704 128.559 144.806 129 144.806 129.498C144.806 129.996 144.704 130.443 144.5 130.839C144.296 131.229 144.014 131.535 143.654 131.757C143.3 131.973 142.907 132.081 142.475 132.081C142.091 132.081 141.749 132.006 141.449 131.856C141.155 131.706 140.921 131.514 140.747 131.28V132H139.721V125.34H140.747V127.779ZM143.762 129.498C143.762 129.156 143.69 128.862 143.546 128.616C143.408 128.364 143.222 128.175 142.988 128.049C142.76 127.917 142.514 127.851 142.25 127.851C141.992 127.851 141.746 127.917 141.512 128.049C141.284 128.181 141.098 128.373 140.954 128.625C140.816 128.877 140.747 129.174 140.747 129.516C140.747 129.858 140.816 130.158 140.954 130.416C141.098 130.668 141.284 130.86 141.512 130.992C141.746 131.124 141.992 131.19 142.25 131.19C142.514 131.19 142.76 131.124 142.988 130.992C143.222 130.854 143.408 130.656 143.546 130.398C143.69 130.14 143.762 129.84 143.762 129.498ZM146.847 125.34V132H145.821V125.34H146.847ZM152.739 129.399C152.739 129.585 152.727 129.753 152.703 129.903H148.914C148.944 130.299 149.091 130.617 149.355 130.857C149.619 131.097 149.943 131.217 150.327 131.217C150.879 131.217 151.269 130.986 151.497 130.524H152.604C152.454 130.98 152.181 131.355 151.785 131.649C151.395 131.937 150.909 132.081 150.327 132.081C149.853 132.081 149.427 131.976 149.049 131.766C148.677 131.55 148.383 131.25 148.167 130.866C147.957 130.476 147.852 130.026 147.852 129.516C147.852 129.006 147.954 128.559 148.158 128.175C148.368 127.785 148.659 127.485 149.031 127.275C149.409 127.065 149.841 126.96 150.327 126.96C150.795 126.96 151.212 127.062 151.578 127.266C151.944 127.47 152.229 127.758 152.433 128.13C152.637 128.496 152.739 128.919 152.739 129.399ZM151.668 129.075C151.662 128.697 151.527 128.394 151.263 128.166C150.999 127.938 150.672 127.824 150.282 127.824C149.928 127.824 149.625 127.938 149.373 128.166C149.121 128.388 148.971 128.691 148.923 129.075H151.668Z"></path>
<path stroke-width="1.5" stroke="white" d="M51.25 115.828V121C51.25 121.69 50.6904 122.25 50 122.25H40C39.3096 122.25 38.75 121.69 38.75 121V113C38.75 112.31 39.3096 111.75 40 111.75H47.1716C47.5031 111.75 47.821 111.882 48.0555 112.116L50.8839 114.945C51.1183 115.179 51.25 115.497 51.25 115.828Z"></path>
<path fill="white" d="M38 125C38 124.448 38.4477 124 39 124V124C39.5523 124 40 124.448 40 125V125C40 125.552 39.5523 126 39 126V126C38.4477 126 38 125.552 38 125V125Z"></path>
<path fill="white" d="M40 128C40 127.448 40.4477 127 41 127V127C41.5523 127 42 127.448 42 128V128C42 128.552 41.5523 129 41 129V129C40.4477 129 40 128.552 40 128V128Z"></path>
<path fill="white" d="M42 125C42 124.448 42.4477 124 43 124V124C43.5523 124 44 124.448 44 125V125C44 125.552 43.5523 126 43 126V126C42.4477 126 42 125.552 42 125V125Z"></path>
<path fill="white" d="M44 128C44 127.448 44.4477 127 45 127V127C45.5523 127 46 127.448 46 128V128C46 128.552 45.5523 129 45 129V129C44.4477 129 44 128.552 44 128V128Z"></path>
<path fill="white" d="M46 125C46 124.448 46.4477 124 47 124V124C47.5523 124 48 124.448 48 125V125C48 125.552 47.5523 126 47 126V126C46.4477 126 46 125.552 46 125V125Z"></path>
<path fill="white" d="M48 128C48 127.448 48.4477 127 49 127V127C49.5523 127 50 127.448 50 128V128C50 128.552 49.5523 129 49 129V129C48.4477 129 48 128.552 48 128V128Z"></path>
<path fill="white" d="M50 125C50 124.448 50.4477 124 51 124V124C51.5523 124 52 124.448 52 125V125C52 125.552 51.5523 126 51 126V126C50.4477 126 50 125.552 50 125V125Z"></path>
<path fill-opacity="0.05" fill="white" d="M245 100C245 97.2386 247.239 95 250 95H460C462.761 95 465 97.2386 465 100V145H245V100Z"></path>
<path fill-opacity="0.05" fill="white" d="M245 146H465V290C465 292.761 462.761 295 460 295H250C247.239 295 245 292.761 245 290V146Z"></path>
<path fill="white" d="M307.079 108.355V116H305.825V108.355H307.079ZM311.783 109.84C312.26 109.84 312.685 109.939 313.059 110.137C313.441 110.335 313.738 110.628 313.95 111.017C314.163 111.406 314.269 111.875 314.269 112.425V116H313.026V112.612C313.026 112.069 312.891 111.655 312.619 111.369C312.348 111.076 311.978 110.929 311.508 110.929C311.039 110.929 310.665 111.076 310.386 111.369C310.115 111.655 309.979 112.069 309.979 112.612V116H308.725V109.939H309.979V110.632C310.185 110.383 310.445 110.188 310.76 110.049C311.083 109.91 311.424 109.84 311.783 109.84ZM315.451 112.942C315.451 112.333 315.576 111.794 315.825 111.325C316.082 110.856 316.426 110.493 316.859 110.236C317.299 109.972 317.783 109.84 318.311 109.84C318.788 109.84 319.202 109.935 319.554 110.126C319.913 110.309 320.199 110.54 320.412 110.819V109.939H321.677V116H320.412V115.098C320.199 115.384 319.91 115.622 319.543 115.813C319.176 116.004 318.758 116.099 318.289 116.099C317.768 116.099 317.292 115.967 316.859 115.703C316.426 115.432 316.082 115.058 315.825 114.581C315.576 114.097 315.451 113.551 315.451 112.942ZM320.412 112.964C320.412 112.546 320.324 112.183 320.148 111.875C319.979 111.567 319.756 111.332 319.477 111.171C319.198 111.01 318.898 110.929 318.575 110.929C318.252 110.929 317.952 111.01 317.673 111.171C317.394 111.325 317.167 111.556 316.991 111.864C316.822 112.165 316.738 112.524 316.738 112.942C316.738 113.36 316.822 113.727 316.991 114.042C317.167 114.357 317.394 114.599 317.673 114.768C317.959 114.929 318.26 115.01 318.575 115.01C318.898 115.01 319.198 114.929 319.477 114.768C319.756 114.607 319.979 114.372 320.148 114.064C320.324 113.749 320.412 113.382 320.412 112.964ZM322.906 112.964C322.906 112.341 323.031 111.794 323.28 111.325C323.537 110.848 323.889 110.482 324.336 110.225C324.783 109.968 325.297 109.84 325.876 109.84C326.609 109.84 327.214 110.016 327.691 110.368C328.175 110.713 328.501 111.208 328.67 111.853H327.317C327.207 111.552 327.031 111.318 326.789 111.149C326.547 110.98 326.243 110.896 325.876 110.896C325.363 110.896 324.952 111.079 324.644 111.446C324.343 111.805 324.193 112.311 324.193 112.964C324.193 113.617 324.343 114.126 324.644 114.493C324.952 114.86 325.363 115.043 325.876 115.043C326.602 115.043 327.082 114.724 327.317 114.086H328.67C328.494 114.702 328.164 115.193 327.68 115.56C327.196 115.919 326.595 116.099 325.876 116.099C325.297 116.099 324.783 115.971 324.336 115.714C323.889 115.45 323.537 115.083 323.28 114.614C323.031 114.137 322.906 113.587 322.906 112.964ZM329.502 112.964C329.502 112.341 329.626 111.794 329.876 111.325C330.132 110.848 330.484 110.482 330.932 110.225C331.379 109.968 331.892 109.84 332.472 109.84C333.205 109.84 333.81 110.016 334.287 110.368C334.771 110.713 335.097 111.208 335.266 111.853H333.913C333.803 111.552 333.627 111.318 333.385 111.149C333.143 110.98 332.838 110.896 332.472 110.896C331.958 110.896 331.548 111.079 331.24 111.446C330.939 111.805 330.789 112.311 330.789 112.964C330.789 113.617 330.939 114.126 331.24 114.493C331.548 114.86 331.958 115.043 332.472 115.043C333.198 115.043 333.678 114.724 333.913 114.086H335.266C335.09 114.702 334.76 115.193 334.276 115.56C333.792 115.919 333.19 116.099 332.472 116.099C331.892 116.099 331.379 115.971 330.932 115.714C330.484 115.45 330.132 115.083 329.876 114.614C329.626 114.137 329.502 113.587 329.502 112.964ZM342.07 112.821C342.07 113.048 342.056 113.254 342.026 113.437H337.395C337.432 113.921 337.612 114.31 337.934 114.603C338.257 114.896 338.653 115.043 339.122 115.043C339.797 115.043 340.274 114.761 340.552 114.196H341.905C341.722 114.753 341.388 115.212 340.904 115.571C340.428 115.923 339.834 116.099 339.122 116.099C338.543 116.099 338.022 115.971 337.56 115.714C337.106 115.45 336.746 115.083 336.482 114.614C336.226 114.137 336.097 113.587 336.097 112.964C336.097 112.341 336.222 111.794 336.471 111.325C336.728 110.848 337.084 110.482 337.538 110.225C338 109.968 338.528 109.84 339.122 109.84C339.694 109.84 340.204 109.965 340.651 110.214C341.099 110.463 341.447 110.815 341.696 111.27C341.946 111.717 342.07 112.234 342.07 112.821ZM340.761 112.425C340.754 111.963 340.589 111.593 340.266 111.314C339.944 111.035 339.544 110.896 339.067 110.896C338.635 110.896 338.264 111.035 337.956 111.314C337.648 111.585 337.465 111.956 337.406 112.425H340.761ZM345.504 116.099C345.028 116.099 344.599 116.015 344.217 115.846C343.843 115.67 343.546 115.435 343.326 115.142C343.106 114.841 342.989 114.508 342.974 114.141H344.272C344.294 114.398 344.415 114.614 344.635 114.79C344.863 114.959 345.145 115.043 345.482 115.043C345.834 115.043 346.106 114.977 346.296 114.845C346.494 114.706 346.593 114.53 346.593 114.317C346.593 114.09 346.483 113.921 346.263 113.811C346.051 113.701 345.71 113.58 345.24 113.448C344.786 113.323 344.415 113.202 344.129 113.085C343.843 112.968 343.594 112.788 343.381 112.546C343.176 112.304 343.073 111.985 343.073 111.589C343.073 111.266 343.169 110.973 343.359 110.709C343.55 110.438 343.821 110.225 344.173 110.071C344.533 109.917 344.943 109.84 345.405 109.84C346.095 109.84 346.648 110.016 347.066 110.368C347.492 110.713 347.719 111.186 347.748 111.787H346.494C346.472 111.516 346.362 111.299 346.164 111.138C345.966 110.977 345.699 110.896 345.361 110.896C345.031 110.896 344.778 110.958 344.602 111.083C344.426 111.208 344.338 111.373 344.338 111.578C344.338 111.739 344.397 111.875 344.514 111.985C344.632 112.095 344.775 112.183 344.943 112.249C345.112 112.308 345.361 112.385 345.691 112.48C346.131 112.597 346.491 112.718 346.769 112.843C347.055 112.96 347.301 113.136 347.506 113.371C347.712 113.606 347.818 113.917 347.825 114.306C347.825 114.651 347.73 114.959 347.539 115.23C347.349 115.501 347.077 115.714 346.725 115.868C346.381 116.022 345.974 116.099 345.504 116.099ZM351.38 116.099C350.904 116.099 350.475 116.015 350.093 115.846C349.719 115.67 349.422 115.435 349.202 115.142C348.982 114.841 348.865 114.508 348.85 114.141H350.148C350.17 114.398 350.291 114.614 350.511 114.79C350.739 114.959 351.021 115.043 351.358 115.043C351.71 115.043 351.982 114.977 352.172 114.845C352.37 114.706 352.469 114.53 352.469 114.317C352.469 114.09 352.359 113.921 352.139 113.811C351.927 113.701 351.586 113.58 351.116 113.448C350.662 113.323 350.291 113.202 350.005 113.085C349.719 112.968 349.47 112.788 349.257 112.546C349.052 112.304 348.949 111.985 348.949 111.589C348.949 111.266 349.045 110.973 349.235 110.709C349.426 110.438 349.697 110.225 350.049 110.071C350.409 109.917 350.819 109.84 351.281 109.84C351.971 109.84 352.524 110.016 352.942 110.368C353.368 110.713 353.595 111.186 353.624 111.787H352.37C352.348 111.516 352.238 111.299 352.04 111.138C351.842 110.977 351.575 110.896 351.237 110.896C350.907 110.896 350.654 110.958 350.478 111.083C350.302 111.208 350.214 111.373 350.214 111.578C350.214 111.739 350.273 111.875 350.39 111.985C350.508 112.095 350.651 112.183 350.819 112.249C350.988 112.308 351.237 112.385 351.567 112.48C352.007 112.597 352.367 112.718 352.645 112.843C352.931 112.96 353.177 113.136 353.382 113.371C353.588 113.606 353.694 113.917 353.701 114.306C353.701 114.651 353.606 114.959 353.415 115.23C353.225 115.501 352.953 115.714 352.601 115.868C352.257 116.022 351.85 116.099 351.38 116.099ZM355.694 109.136C355.467 109.136 355.276 109.059 355.122 108.905C354.968 108.751 354.891 108.56 354.891 108.333C354.891 108.106 354.968 107.915 355.122 107.761C355.276 107.607 355.467 107.53 355.694 107.53C355.914 107.53 356.101 107.607 356.255 107.761C356.409 107.915 356.486 108.106 356.486 108.333C356.486 108.56 356.409 108.751 356.255 108.905C356.101 109.059 355.914 109.136 355.694 109.136ZM356.31 109.939V116H355.056V109.939H356.31ZM359.211 110.841C359.424 110.548 359.713 110.309 360.08 110.126C360.454 109.935 360.868 109.84 361.323 109.84C361.858 109.84 362.342 109.968 362.775 110.225C363.208 110.482 363.549 110.848 363.798 111.325C364.047 111.794 364.172 112.333 364.172 112.942C364.172 113.551 364.047 114.097 363.798 114.581C363.549 115.058 363.204 115.432 362.764 115.703C362.331 115.967 361.851 116.099 361.323 116.099C360.854 116.099 360.436 116.007 360.069 115.824C359.71 115.641 359.424 115.406 359.211 115.12V116H357.957V107.86H359.211V110.841ZM362.896 112.942C362.896 112.524 362.808 112.165 362.632 111.864C362.463 111.556 362.236 111.325 361.95 111.171C361.671 111.01 361.371 110.929 361.048 110.929C360.733 110.929 360.432 111.01 360.146 111.171C359.867 111.332 359.64 111.567 359.464 111.875C359.295 112.183 359.211 112.546 359.211 112.964C359.211 113.382 359.295 113.749 359.464 114.064C359.64 114.372 359.867 114.607 360.146 114.768C360.432 114.929 360.733 115.01 361.048 115.01C361.371 115.01 361.671 114.929 361.95 114.768C362.236 114.599 362.463 114.357 362.632 114.042C362.808 113.727 362.896 113.36 362.896 112.942ZM366.666 107.86V116H365.412V107.86H366.666ZM373.867 112.821C373.867 113.048 373.853 113.254 373.823 113.437H369.192C369.229 113.921 369.409 114.31 369.731 114.603C370.054 114.896 370.45 115.043 370.919 115.043C371.594 115.043 372.071 114.761 372.349 114.196H373.702C373.519 114.753 373.185 115.212 372.701 115.571C372.225 115.923 371.631 116.099 370.919 116.099C370.34 116.099 369.819 115.971 369.357 115.714C368.903 115.45 368.543 115.083 368.279 114.614C368.023 114.137 367.894 113.587 367.894 112.964C367.894 112.341 368.019 111.794 368.268 111.325C368.525 110.848 368.881 110.482 369.335 110.225C369.797 109.968 370.325 109.84 370.919 109.84C371.491 109.84 372.001 109.965 372.448 110.214C372.896 110.463 373.244 110.815 373.493 111.27C373.743 111.717 373.867 112.234 373.867 112.821ZM372.558 112.425C372.551 111.963 372.386 111.593 372.063 111.314C371.741 111.035 371.341 110.896 370.864 110.896C370.432 110.896 370.061 111.035 369.753 111.314C369.445 111.585 369.262 111.956 369.203 112.425H372.558ZM378.597 109.136C378.369 109.136 378.179 109.059 378.025 108.905C377.871 108.751 377.794 108.56 377.794 108.333C377.794 108.106 377.871 107.915 378.025 107.761C378.179 107.607 378.369 107.53 378.597 107.53C378.817 107.53 379.004 107.607 379.158 107.761C379.312 107.915 379.389 108.106 379.389 108.333C379.389 108.56 379.312 108.751 379.158 108.905C379.004 109.059 378.817 109.136 378.597 109.136ZM379.213 109.939V116H377.959V109.939H379.213ZM382.322 110.962V114.317C382.322 114.544 382.374 114.709 382.476 114.812C382.586 114.907 382.77 114.955 383.026 114.955H383.796V116H382.806C382.242 116 381.809 115.868 381.508 115.604C381.208 115.34 381.057 114.911 381.057 114.317V110.962H380.342V109.939H381.057V108.432H382.322V109.939H383.796V110.962H382.322ZM390.507 112.821C390.507 113.048 390.492 113.254 390.463 113.437H385.832C385.869 113.921 386.048 114.31 386.371 114.603C386.694 114.896 387.09 115.043 387.559 115.043C388.234 115.043 388.71 114.761 388.989 114.196H390.342C390.159 114.753 389.825 115.212 389.341 115.571C388.864 115.923 388.27 116.099 387.559 116.099C386.98 116.099 386.459 115.971 385.997 115.714C385.542 115.45 385.183 115.083 384.919 114.614C384.662 114.137 384.534 113.587 384.534 112.964C384.534 112.341 384.659 111.794 384.908 111.325C385.165 110.848 385.52 110.482 385.975 110.225C386.437 109.968 386.965 109.84 387.559 109.84C388.131 109.84 388.641 109.965 389.088 110.214C389.535 110.463 389.884 110.815 390.133 111.27C390.382 111.717 390.507 112.234 390.507 112.821ZM389.198 112.425C389.191 111.963 389.026 111.593 388.703 111.314C388.38 111.035 387.981 110.896 387.504 110.896C387.071 110.896 386.701 111.035 386.393 111.314C386.085 111.585 385.902 111.956 385.843 112.425H389.198ZM399.078 109.84C399.555 109.84 399.98 109.939 400.354 110.137C400.735 110.335 401.032 110.628 401.245 111.017C401.465 111.406 401.575 111.875 401.575 112.425V116H400.332V112.612C400.332 112.069 400.196 111.655 399.925 111.369C399.654 111.076 399.283 110.929 398.814 110.929C398.345 110.929 397.971 111.076 397.692 111.369C397.421 111.655 397.285 112.069 397.285 112.612V116H396.042V112.612C396.042 112.069 395.906 111.655 395.635 111.369C395.364 111.076 394.993 110.929 394.524 110.929C394.055 110.929 393.681 111.076 393.402 111.369C393.131 111.655 392.995 112.069 392.995 112.612V116H391.741V109.939H392.995V110.632C393.2 110.383 393.461 110.188 393.776 110.049C394.091 109.91 394.429 109.84 394.788 109.84C395.272 109.84 395.705 109.943 396.086 110.148C396.467 110.353 396.761 110.65 396.966 111.039C397.149 110.672 397.435 110.383 397.824 110.17C398.213 109.95 398.631 109.84 399.078 109.84ZM405.371 116.099C404.894 116.099 404.465 116.015 404.084 115.846C403.71 115.67 403.413 115.435 403.193 115.142C402.973 114.841 402.855 114.508 402.841 114.141H404.139C404.161 114.398 404.282 114.614 404.502 114.79C404.729 114.959 405.011 115.043 405.349 115.043C405.701 115.043 405.972 114.977 406.163 114.845C406.361 114.706 406.46 114.53 406.46 114.317C406.46 114.09 406.35 113.921 406.13 113.811C405.917 113.701 405.576 113.58 405.107 113.448C404.652 113.323 404.282 113.202 403.996 113.085C403.71 112.968 403.46 112.788 403.248 112.546C403.042 112.304 402.94 111.985 402.94 111.589C402.94 111.266 403.035 110.973 403.226 110.709C403.416 110.438 403.688 110.225 404.04 110.071C404.399 109.917 404.81 109.84 405.272 109.84C405.961 109.84 406.515 110.016 406.933 110.368C407.358 110.713 407.585 111.186 407.615 111.787H406.361C406.339 111.516 406.229 111.299 406.031 111.138C405.833 110.977 405.565 110.896 405.228 110.896C404.898 110.896 404.645 110.958 404.469 111.083C404.293 111.208 404.205 111.373 404.205 111.578C404.205 111.739 404.263 111.875 404.381 111.985C404.498 112.095 404.641 112.183 404.81 112.249C404.978 112.308 405.228 112.385 405.558 112.48C405.998 112.597 406.357 112.718 406.636 112.843C406.922 112.96 407.167 113.136 407.373 113.371C407.578 113.606 407.684 113.917 407.692 114.306C407.692 114.651 407.596 114.959 407.406 115.23C407.215 115.501 406.944 115.714 406.592 115.868C406.247 116.022 405.84 116.099 405.371 116.099Z"></path>
<path fill-opacity="0.75" fill="white" d="M313.82 125.745L311.966 132H310.805L309.491 127.266L308.096 132L306.944 132.009L305.171 125.745H306.26L307.556 130.839L308.96 125.745H310.112L311.417 130.812L312.722 125.745H313.82ZM315.188 126.384C315.002 126.384 314.846 126.321 314.72 126.195C314.594 126.069 314.531 125.913 314.531 125.727C314.531 125.541 314.594 125.385 314.72 125.259C314.846 125.133 315.002 125.07 315.188 125.07C315.368 125.07 315.521 125.133 315.647 125.259C315.773 125.385 315.836 125.541 315.836 125.727C315.836 125.913 315.773 126.069 315.647 126.195C315.521 126.321 315.368 126.384 315.188 126.384ZM315.692 127.041V132H314.666V127.041H315.692ZM318.065 125.34V132H317.039V125.34H318.065ZM320.438 125.34V132H319.412V125.34H320.438ZM325.149 127.779C325.323 127.539 325.56 127.344 325.86 127.194C326.166 127.038 326.505 126.96 326.877 126.96C327.315 126.96 327.711 127.065 328.065 127.275C328.419 127.485 328.698 127.785 328.902 128.175C329.106 128.559 329.208 129 329.208 129.498C329.208 129.996 329.106 130.443 328.902 130.839C328.698 131.229 328.416 131.535 328.056 131.757C327.702 131.973 327.309 132.081 326.877 132.081C326.493 132.081 326.151 132.006 325.851 131.856C325.557 131.706 325.323 131.514 325.149 131.28V132H324.123V125.34H325.149V127.779ZM328.164 129.498C328.164 129.156 328.092 128.862 327.948 128.616C327.81 128.364 327.624 128.175 327.39 128.049C327.162 127.917 326.916 127.851 326.652 127.851C326.394 127.851 326.148 127.917 325.914 128.049C325.686 128.181 325.5 128.373 325.356 128.625C325.218 128.877 325.149 129.174 325.149 129.516C325.149 129.858 325.218 130.158 325.356 130.416C325.5 130.668 325.686 130.86 325.914 130.992C326.148 131.124 326.394 131.19 326.652 131.19C326.916 131.19 327.162 131.124 327.39 130.992C327.624 130.854 327.81 130.656 327.948 130.398C328.092 130.14 328.164 129.84 328.164 129.498ZM334.768 129.399C334.768 129.585 334.756 129.753 334.732 129.903H330.943C330.973 130.299 331.12 130.617 331.384 130.857C331.648 131.097 331.972 131.217 332.356 131.217C332.908 131.217 333.298 130.986 333.526 130.524H334.633C334.483 130.98 334.21 131.355 333.814 131.649C333.424 131.937 332.938 132.081 332.356 132.081C331.882 132.081 331.456 131.976 331.078 131.766C330.706 131.55 330.412 131.25 330.196 130.866C329.986 130.476 329.881 130.026 329.881 129.516C329.881 129.006 329.983 128.559 330.187 128.175C330.397 127.785 330.688 127.485 331.06 127.275C331.438 127.065 331.87 126.96 332.356 126.96C332.824 126.96 333.241 127.062 333.607 127.266C333.973 127.47 334.258 127.758 334.462 128.13C334.666 128.496 334.768 128.919 334.768 129.399ZM333.697 129.075C333.691 128.697 333.556 128.394 333.292 128.166C333.028 127.938 332.701 127.824 332.311 127.824C331.957 127.824 331.654 127.938 331.402 128.166C331.15 128.388 331 128.691 330.952 129.075H333.697ZM339.141 127.761C339.291 127.509 339.489 127.314 339.735 127.176C339.987 127.032 340.284 126.96 340.626 126.96V128.022H340.365C339.963 128.022 339.657 128.124 339.447 128.328C339.243 128.532 339.141 128.886 339.141 129.39V132H338.115V127.041H339.141V127.761ZM346.115 129.399C346.115 129.585 346.103 129.753 346.079 129.903H342.29C342.32 130.299 342.467 130.617 342.731 130.857C342.995 131.097 343.319 131.217 343.703 131.217C344.255 131.217 344.645 130.986 344.873 130.524H345.98C345.83 130.98 345.557 131.355 345.161 131.649C344.771 131.937 344.285 132.081 343.703 132.081C343.229 132.081 342.803 131.976 342.425 131.766C342.053 131.55 341.759 131.25 341.543 130.866C341.333 130.476 341.228 130.026 341.228 129.516C341.228 129.006 341.33 128.559 341.534 128.175C341.744 127.785 342.035 127.485 342.407 127.275C342.785 127.065 343.217 126.96 343.703 126.96C344.171 126.96 344.588 127.062 344.954 127.266C345.32 127.47 345.605 127.758 345.809 128.13C346.013 128.496 346.115 128.919 346.115 129.399ZM345.044 129.075C345.038 128.697 344.903 128.394 344.639 128.166C344.375 127.938 344.048 127.824 343.658 127.824C343.304 127.824 343.001 127.938 342.749 128.166C342.497 128.388 342.347 128.691 342.299 129.075H345.044ZM346.782 129.516C346.782 129.006 346.884 128.559 347.088 128.175C347.298 127.785 347.586 127.485 347.952 127.275C348.318 127.065 348.738 126.96 349.212 126.96C349.812 126.96 350.307 127.104 350.697 127.392C351.093 127.674 351.36 128.079 351.498 128.607H350.391C350.301 128.361 350.157 128.169 349.959 128.031C349.761 127.893 349.512 127.824 349.212 127.824C348.792 127.824 348.456 127.974 348.204 128.274C347.958 128.568 347.835 128.982 347.835 129.516C347.835 130.05 347.958 130.467 348.204 130.767C348.456 131.067 348.792 131.217 349.212 131.217C349.806 131.217 350.199 130.956 350.391 130.434H351.498C351.354 130.938 351.084 131.34 350.688 131.64C350.292 131.934 349.8 132.081 349.212 132.081C348.738 132.081 348.318 131.976 347.952 131.766C347.586 131.55 347.298 131.25 347.088 130.866C346.884 130.476 346.782 130.026 346.782 129.516ZM354.672 132.081C354.204 132.081 353.781 131.976 353.403 131.766C353.025 131.55 352.728 131.25 352.512 130.866C352.296 130.476 352.188 130.026 352.188 129.516C352.188 129.012 352.299 128.565 352.521 128.175C352.743 127.785 353.046 127.485 353.43 127.275C353.814 127.065 354.243 126.96 354.717 126.96C355.191 126.96 355.62 127.065 356.004 127.275C356.388 127.485 356.691 127.785 356.913 128.175C357.135 128.565 357.246 129.012 357.246 129.516C357.246 130.02 357.132 130.467 356.904 130.857C356.676 131.247 356.364 131.55 355.968 131.766C355.578 131.976 355.146 132.081 354.672 132.081ZM354.672 131.19C354.936 131.19 355.182 131.127 355.41 131.001C355.644 130.875 355.833 130.686 355.977 130.434C356.121 130.182 356.193 129.876 356.193 129.516C356.193 129.156 356.124 128.853 355.986 128.607C355.848 128.355 355.665 128.166 355.437 128.04C355.209 127.914 354.963 127.851 354.699 127.851C354.435 127.851 354.189 127.914 353.961 128.04C353.739 128.166 353.562 128.355 353.43 128.607C353.298 128.853 353.232 129.156 353.232 129.516C353.232 130.05 353.367 130.464 353.637 130.758C353.913 131.046 354.258 131.19 354.672 131.19ZM360.177 131.082L361.581 127.041H362.67L360.78 132H359.556L357.675 127.041H358.773L360.177 131.082ZM367.991 129.399C367.991 129.585 367.979 129.753 367.955 129.903H364.166C364.196 130.299 364.343 130.617 364.607 130.857C364.871 131.097 365.195 131.217 365.579 131.217C366.131 131.217 366.521 130.986 366.749 130.524H367.856C367.706 130.98 367.433 131.355 367.037 131.649C366.647 131.937 366.161 132.081 365.579 132.081C365.105 132.081 364.679 131.976 364.301 131.766C363.929 131.55 363.635 131.25 363.419 130.866C363.209 130.476 363.104 130.026 363.104 129.516C363.104 129.006 363.206 128.559 363.41 128.175C363.62 127.785 363.911 127.485 364.283 127.275C364.661 127.065 365.093 126.96 365.579 126.96C366.047 126.96 366.464 127.062 366.83 127.266C367.196 127.47 367.481 127.758 367.685 128.13C367.889 128.496 367.991 128.919 367.991 129.399ZM366.92 129.075C366.914 128.697 366.779 128.394 366.515 128.166C366.251 127.938 365.924 127.824 365.534 127.824C365.18 127.824 364.877 127.938 364.625 128.166C364.373 128.388 364.223 128.691 364.175 129.075H366.92ZM370.026 127.761C370.176 127.509 370.374 127.314 370.62 127.176C370.872 127.032 371.169 126.96 371.511 126.96V128.022H371.25C370.848 128.022 370.542 128.124 370.332 128.328C370.128 128.532 370.026 128.886 370.026 129.39V132H369V127.041H370.026V127.761ZM376.999 129.399C376.999 129.585 376.987 129.753 376.963 129.903H373.174C373.204 130.299 373.351 130.617 373.615 130.857C373.879 131.097 374.203 131.217 374.587 131.217C375.139 131.217 375.529 130.986 375.757 130.524H376.864C376.714 130.98 376.441 131.355 376.045 131.649C375.655 131.937 375.169 132.081 374.587 132.081C374.113 132.081 373.687 131.976 373.309 131.766C372.937 131.55 372.643 131.25 372.427 130.866C372.217 130.476 372.112 130.026 372.112 129.516C372.112 129.006 372.214 128.559 372.418 128.175C372.628 127.785 372.919 127.485 373.291 127.275C373.669 127.065 374.101 126.96 374.587 126.96C375.055 126.96 375.472 127.062 375.838 127.266C376.204 127.47 376.489 127.758 376.693 128.13C376.897 128.496 376.999 128.919 376.999 129.399ZM375.928 129.075C375.922 128.697 375.787 128.394 375.523 128.166C375.259 127.938 374.932 127.824 374.542 127.824C374.188 127.824 373.885 127.938 373.633 128.166C373.381 128.388 373.231 128.691 373.183 129.075H375.928ZM377.667 129.498C377.667 129 377.769 128.559 377.973 128.175C378.183 127.791 378.465 127.494 378.819 127.284C379.179 127.068 379.578 126.96 380.016 126.96C380.34 126.96 380.658 127.032 380.97 127.176C381.288 127.314 381.54 127.5 381.726 127.734V125.34H382.761V132H381.726V131.253C381.558 131.493 381.324 131.691 381.024 131.847C380.73 132.003 380.391 132.081 380.007 132.081C379.575 132.081 379.179 131.973 378.819 131.757C378.465 131.535 378.183 131.229 377.973 130.839C377.769 130.443 377.667 129.996 377.667 129.498ZM381.726 129.516C381.726 129.174 381.654 128.877 381.51 128.625C381.372 128.373 381.189 128.181 380.961 128.049C380.733 127.917 380.487 127.851 380.223 127.851C379.959 127.851 379.713 127.917 379.485 128.049C379.257 128.175 379.071 128.364 378.927 128.616C378.789 128.862 378.72 129.156 378.72 129.498C378.72 129.84 378.789 130.14 378.927 130.398C379.071 130.656 379.257 130.854 379.485 130.992C379.719 131.124 379.965 131.19 380.223 131.19C380.487 131.19 380.733 131.124 380.961 130.992C381.189 130.86 381.372 130.668 381.51 130.416C381.654 130.158 381.726 129.858 381.726 129.516Z"></path>
<path stroke-width="1.5" stroke="white" d="M281.25 116.828V128C281.25 128.69 280.69 129.25 280 129.25H270C269.31 129.25 268.75 128.69 268.75 128V114C268.75 113.31 269.31 112.75 270 112.75H277.172C277.503 112.75 277.821 112.882 278.055 113.116L280.884 115.945C281.118 116.179 281.25 116.497 281.25 116.828Z"></path>
<rect stroke-width="1.5" stroke="white" rx="2.75" height="5.5" width="5.5" y="117.75" x="271.75"></rect>
<path stroke-linecap="round" stroke-width="1.5" stroke="white" d="M277 123L278 124"></path>
<path fill-opacity="0.5" fill="white" d="M201.358 326.355V334H200.104V326.355H201.358ZM205.546 328.962H204.424V334H203.159V328.962H202.444V327.939H203.159V327.51C203.159 326.813 203.342 326.307 203.709 325.992C204.083 325.669 204.666 325.508 205.458 325.508V326.553C205.076 326.553 204.809 326.626 204.655 326.773C204.501 326.912 204.424 327.158 204.424 327.51V327.939H205.546V328.962ZM219.469 326.355L217.203 334H215.784L214.178 328.214L212.473 334L211.065 334.011L208.898 326.355H210.229L211.813 332.581L213.529 326.355H214.937L216.532 332.548L218.127 326.355H219.469ZM221.142 327.136C220.914 327.136 220.724 327.059 220.57 326.905C220.416 326.751 220.339 326.56 220.339 326.333C220.339 326.106 220.416 325.915 220.57 325.761C220.724 325.607 220.914 325.53 221.142 325.53C221.362 325.53 221.549 325.607 221.703 325.761C221.857 325.915 221.934 326.106 221.934 326.333C221.934 326.56 221.857 326.751 221.703 326.905C221.549 327.059 221.362 327.136 221.142 327.136ZM221.758 327.939V334H220.504V327.939H221.758ZM226.462 327.84C226.939 327.84 227.364 327.939 227.738 328.137C228.119 328.335 228.416 328.628 228.629 329.017C228.842 329.406 228.948 329.875 228.948 330.425V334H227.705V330.612C227.705 330.069 227.569 329.655 227.298 329.369C227.027 329.076 226.656 328.929 226.187 328.929C225.718 328.929 225.344 329.076 225.065 329.369C224.794 329.655 224.658 330.069 224.658 330.612V334H223.404V327.939H224.658V328.632C224.863 328.383 225.124 328.188 225.439 328.049C225.762 327.91 226.103 327.84 226.462 327.84ZM230.13 330.942C230.13 330.333 230.254 329.794 230.504 329.325C230.76 328.856 231.105 328.493 231.538 328.236C231.978 327.972 232.465 327.84 233.001 327.84C233.397 327.84 233.785 327.928 234.167 328.104C234.555 328.273 234.863 328.5 235.091 328.786V325.86H236.356V334H235.091V333.087C234.885 333.38 234.599 333.622 234.233 333.813C233.873 334.004 233.459 334.099 232.99 334.099C232.462 334.099 231.978 333.967 231.538 333.703C231.105 333.432 230.76 333.058 230.504 332.581C230.254 332.097 230.13 331.551 230.13 330.942ZM235.091 330.964C235.091 330.546 235.003 330.183 234.827 329.875C234.658 329.567 234.434 329.332 234.156 329.171C233.877 329.01 233.576 328.929 233.254 328.929C232.931 328.929 232.63 329.01 232.352 329.171C232.073 329.325 231.846 329.556 231.67 329.864C231.501 330.165 231.417 330.524 231.417 330.942C231.417 331.36 231.501 331.727 231.67 332.042C231.846 332.357 232.073 332.599 232.352 332.768C232.638 332.929 232.938 333.01 233.254 333.01C233.576 333.01 233.877 332.929 234.156 332.768C234.434 332.607 234.658 332.372 234.827 332.064C235.003 331.749 235.091 331.382 235.091 330.964ZM240.632 334.099C240.06 334.099 239.543 333.971 239.081 333.714C238.619 333.45 238.256 333.083 237.992 332.614C237.728 332.137 237.596 331.587 237.596 330.964C237.596 330.348 237.731 329.802 238.003 329.325C238.274 328.848 238.644 328.482 239.114 328.225C239.583 327.968 240.107 327.84 240.687 327.84C241.266 327.84 241.79 327.968 242.26 328.225C242.729 328.482 243.099 328.848 243.371 329.325C243.642 329.802 243.778 330.348 243.778 330.964C243.778 331.58 243.638 332.126 243.36 332.603C243.081 333.08 242.7 333.45 242.216 333.714C241.739 333.971 241.211 334.099 240.632 334.099ZM240.632 333.01C240.954 333.01 241.255 332.933 241.534 332.779C241.82 332.625 242.051 332.394 242.227 332.086C242.403 331.778 242.491 331.404 242.491 330.964C242.491 330.524 242.406 330.154 242.238 329.853C242.069 329.545 241.845 329.314 241.567 329.16C241.288 329.006 240.987 328.929 240.665 328.929C240.342 328.929 240.041 329.006 239.763 329.16C239.491 329.314 239.275 329.545 239.114 329.853C238.952 330.154 238.872 330.524 238.872 330.964C238.872 331.617 239.037 332.123 239.367 332.482C239.704 332.834 240.126 333.01 240.632 333.01ZM253.157 327.939L251.276 334H249.956L248.735 329.523L247.514 334H246.194L244.302 327.939H245.578L246.843 332.812L248.13 327.939H249.439L250.671 332.79L251.925 327.939H253.157ZM256.295 334.099C255.818 334.099 255.389 334.015 255.008 333.846C254.634 333.67 254.337 333.435 254.117 333.142C253.897 332.841 253.779 332.508 253.765 332.141H255.063C255.085 332.398 255.206 332.614 255.426 332.79C255.653 332.959 255.935 333.043 256.273 333.043C256.625 333.043 256.896 332.977 257.087 332.845C257.285 332.706 257.384 332.53 257.384 332.317C257.384 332.09 257.274 331.921 257.054 331.811C256.841 331.701 256.5 331.58 256.031 331.448C255.576 331.323 255.206 331.202 254.92 331.085C254.634 330.968 254.384 330.788 254.172 330.546C253.966 330.304 253.864 329.985 253.864 329.589C253.864 329.266 253.959 328.973 254.15 328.709C254.34 328.438 254.612 328.225 254.964 328.071C255.323 327.917 255.734 327.84 256.196 327.84C256.885 327.84 257.439 328.016 257.857 328.368C258.282 328.713 258.509 329.186 258.539 329.787H257.285C257.263 329.516 257.153 329.299 256.955 329.138C256.757 328.977 256.489 328.896 256.152 328.896C255.822 328.896 255.569 328.958 255.393 329.083C255.217 329.208 255.129 329.373 255.129 329.578C255.129 329.739 255.187 329.875 255.305 329.985C255.422 330.095 255.565 330.183 255.734 330.249C255.902 330.308 256.152 330.385 256.482 330.48C256.922 330.597 257.281 330.718 257.56 330.843C257.846 330.96 258.091 331.136 258.297 331.371C258.502 331.606 258.608 331.917 258.616 332.306C258.616 332.651 258.52 332.959 258.33 333.23C258.139 333.501 257.868 333.714 257.516 333.868C257.171 334.022 256.764 334.099 256.295 334.099ZM262.498 327.125V325.981H264.786V334H263.521V327.125H262.498ZM266.344 327.125V325.981H268.632V334H267.367V327.125H266.344ZM275.896 334.077C275.382 334.077 274.92 333.989 274.51 333.813C274.099 333.63 273.776 333.373 273.542 333.043C273.307 332.713 273.19 332.328 273.19 331.888H274.532C274.561 332.218 274.689 332.489 274.917 332.702C275.151 332.915 275.478 333.021 275.896 333.021C276.328 333.021 276.666 332.918 276.908 332.713C277.15 332.5 277.271 332.229 277.271 331.899C277.271 331.642 277.194 331.433 277.04 331.272C276.893 331.111 276.706 330.986 276.479 330.898C276.259 330.81 275.951 330.715 275.555 330.612C275.056 330.48 274.649 330.348 274.334 330.216C274.026 330.077 273.762 329.864 273.542 329.578C273.322 329.292 273.212 328.911 273.212 328.434C273.212 327.994 273.322 327.609 273.542 327.279C273.762 326.949 274.07 326.696 274.466 326.52C274.862 326.344 275.32 326.256 275.841 326.256C276.581 326.256 277.186 326.443 277.656 326.817C278.132 327.184 278.396 327.69 278.448 328.335H277.062C277.04 328.056 276.908 327.818 276.666 327.62C276.424 327.422 276.105 327.323 275.709 327.323C275.349 327.323 275.056 327.415 274.829 327.598C274.601 327.781 274.488 328.045 274.488 328.39C274.488 328.625 274.557 328.819 274.697 328.973C274.843 329.12 275.027 329.237 275.247 329.325C275.467 329.413 275.767 329.508 276.149 329.611C276.655 329.75 277.065 329.89 277.381 330.029C277.703 330.168 277.975 330.385 278.195 330.678C278.422 330.964 278.536 331.349 278.536 331.833C278.536 332.222 278.429 332.588 278.217 332.933C278.011 333.278 277.707 333.556 277.304 333.769C276.908 333.974 276.438 334.077 275.896 334.077ZM281.269 327.367V329.611H283.909V330.634H281.269V332.977H284.239V334H280.015V326.344H284.239V327.367H281.269ZM296.781 327.939L294.9 334H293.58L292.359 329.523L291.138 334H289.818L287.926 327.939H289.202L290.467 332.812L291.754 327.939H293.063L294.295 332.79L295.549 327.939H296.781ZM300.348 334.099C299.776 334.099 299.259 333.971 298.797 333.714C298.335 333.45 297.972 333.083 297.708 332.614C297.444 332.137 297.312 331.587 297.312 330.964C297.312 330.348 297.447 329.802 297.719 329.325C297.99 328.848 298.36 328.482 298.83 328.225C299.299 327.968 299.823 327.84 300.403 327.84C300.982 327.84 301.506 327.968 301.976 328.225C302.445 328.482 302.815 328.848 303.087 329.325C303.358 329.802 303.494 330.348 303.494 330.964C303.494 331.58 303.354 332.126 303.076 332.603C302.797 333.08 302.416 333.45 301.932 333.714C301.455 333.971 300.927 334.099 300.348 334.099ZM300.348 333.01C300.67 333.01 300.971 332.933 301.25 332.779C301.536 332.625 301.767 332.394 301.943 332.086C302.119 331.778 302.207 331.404 302.207 330.964C302.207 330.524 302.122 330.154 301.954 329.853C301.785 329.545 301.561 329.314 301.283 329.16C301.004 329.006 300.703 328.929 300.381 328.929C300.058 328.929 299.757 329.006 299.479 329.16C299.207 329.314 298.991 329.545 298.83 329.853C298.668 330.154 298.588 330.524 298.588 330.964C298.588 331.617 298.753 332.123 299.083 332.482C299.42 332.834 299.842 333.01 300.348 333.01ZM307.791 327.84C308.268 327.84 308.693 327.939 309.067 328.137C309.449 328.335 309.746 328.628 309.958 329.017C310.171 329.406 310.277 329.875 310.277 330.425V334H309.034V330.612C309.034 330.069 308.899 329.655 308.627 329.369C308.356 329.076 307.986 328.929 307.516 328.929C307.047 328.929 306.673 329.076 306.394 329.369C306.123 329.655 305.987 330.069 305.987 330.612V334H304.733V327.939H305.987V328.632C306.193 328.383 306.453 328.188 306.768 328.049C307.091 327.91 307.432 327.84 307.791 327.84ZM312.075 326.355H313.439L312.284 328.973H311.404L312.075 326.355ZM316.004 328.962V332.317C316.004 332.544 316.055 332.709 316.158 332.812C316.268 332.907 316.451 332.955 316.708 332.955H317.478V334H316.488C315.923 334 315.49 333.868 315.19 333.604C314.889 333.34 314.739 332.911 314.739 332.317V328.962H314.024V327.939H314.739V326.432H316.004V327.939H317.478V328.962H316.004ZM329.631 327.939L327.75 334H326.43L325.209 329.523L323.988 334H322.668L320.776 327.939H322.052L323.317 332.812L324.604 327.939H325.913L327.145 332.79L328.399 327.939H329.631ZM333.197 334.099C332.625 334.099 332.108 333.971 331.646 333.714C331.184 333.45 330.821 333.083 330.557 332.614C330.293 332.137 330.161 331.587 330.161 330.964C330.161 330.348 330.297 329.802 330.568 329.325C330.839 328.848 331.21 328.482 331.679 328.225C332.148 327.968 332.673 327.84 333.252 327.84C333.831 327.84 334.356 327.968 334.825 328.225C335.294 328.482 335.665 328.848 335.936 329.325C336.207 329.802 336.343 330.348 336.343 330.964C336.343 331.58 336.204 332.126 335.925 332.603C335.646 333.08 335.265 333.45 334.781 333.714C334.304 333.971 333.776 334.099 333.197 334.099ZM333.197 333.01C333.52 333.01 333.82 332.933 334.099 332.779C334.385 332.625 334.616 332.394 334.792 332.086C334.968 331.778 335.056 331.404 335.056 330.964C335.056 330.524 334.972 330.154 334.803 329.853C334.634 329.545 334.411 329.314 334.132 329.16C333.853 329.006 333.553 328.929 333.23 328.929C332.907 328.929 332.607 329.006 332.328 329.16C332.057 329.314 331.84 329.545 331.679 329.853C331.518 330.154 331.437 330.524 331.437 330.964C331.437 331.617 331.602 332.123 331.932 332.482C332.269 332.834 332.691 333.01 333.197 333.01ZM338.837 328.819C339.02 328.511 339.262 328.273 339.563 328.104C339.871 327.928 340.234 327.84 340.652 327.84V329.138H340.333C339.841 329.138 339.467 329.263 339.211 329.512C338.961 329.761 338.837 330.194 338.837 330.81V334H337.583V327.939H338.837V328.819ZM344.202 330.975L346.996 334H345.302L343.058 331.393V334H341.804V325.86H343.058V330.59L345.258 327.939H346.996L344.202 330.975ZM349.27 332.493L347.939 335.529H347.125L347.906 332.493H349.27ZM354.686 328.962V332.317C354.686 332.544 354.738 332.709 354.84 332.812C354.95 332.907 355.134 332.955 355.39 332.955H356.16V334H355.17C354.606 334 354.173 333.868 353.872 333.604C353.572 333.34 353.421 332.911 353.421 332.317V328.962H352.706V327.939H353.421V326.432H354.686V327.939H356.16V328.962H354.686ZM358.57 328.819C358.754 328.511 358.996 328.273 359.296 328.104C359.604 327.928 359.967 327.84 360.385 327.84V329.138H360.066C359.575 329.138 359.201 329.263 358.944 329.512C358.695 329.761 358.57 330.194 358.57 330.81V334H357.316V327.939H358.57V328.819ZM366.994 327.939L363.276 336.849H361.978L363.21 333.901L360.823 327.939H362.22L363.925 332.559L365.696 327.939H366.994ZM372.261 328.962V332.317C372.261 332.544 372.312 332.709 372.415 332.812C372.525 332.907 372.708 332.955 372.965 332.955H373.735V334H372.745C372.18 334 371.747 333.868 371.447 333.604C371.146 333.34 370.996 332.911 370.996 332.317V328.962H370.281V327.939H370.996V326.432H372.261V327.939H373.735V328.962H372.261ZM377.519 334.099C376.947 334.099 376.43 333.971 375.968 333.714C375.506 333.45 375.143 333.083 374.879 332.614C374.615 332.137 374.483 331.587 374.483 330.964C374.483 330.348 374.619 329.802 374.89 329.325C375.162 328.848 375.532 328.482 376.001 328.225C376.471 327.968 376.995 327.84 377.574 327.84C378.154 327.84 378.678 327.968 379.147 328.225C379.617 328.482 379.987 328.848 380.258 329.325C380.53 329.802 380.665 330.348 380.665 330.964C380.665 331.58 380.526 332.126 380.247 332.603C379.969 333.08 379.587 333.45 379.103 333.714C378.627 333.971 378.099 334.099 377.519 334.099ZM377.519 333.01C377.842 333.01 378.143 332.933 378.421 332.779C378.707 332.625 378.938 332.394 379.114 332.086C379.29 331.778 379.378 331.404 379.378 330.964C379.378 330.524 379.294 330.154 379.125 329.853C378.957 329.545 378.733 329.314 378.454 329.16C378.176 329.006 377.875 328.929 377.552 328.929C377.23 328.929 376.929 329.006 376.65 329.16C376.379 329.314 376.163 329.545 376.001 329.853C375.84 330.154 375.759 330.524 375.759 330.964C375.759 331.617 375.924 332.123 376.254 332.482C376.592 332.834 377.013 333.01 377.519 333.01ZM386.017 328.819C386.2 328.511 386.442 328.273 386.743 328.104C387.051 327.928 387.414 327.84 387.832 327.84V329.138H387.513C387.021 329.138 386.647 329.263 386.391 329.512C386.141 329.761 386.017 330.194 386.017 330.81V334H384.763V327.939H386.017V328.819ZM394.539 330.821C394.539 331.048 394.525 331.254 394.495 331.437H389.864C389.901 331.921 390.081 332.31 390.403 332.603C390.726 332.896 391.122 333.043 391.591 333.043C392.266 333.043 392.743 332.761 393.021 332.196H394.374C394.191 332.753 393.857 333.212 393.373 333.571C392.897 333.923 392.303 334.099 391.591 334.099C391.012 334.099 390.491 333.971 390.029 333.714C389.575 333.45 389.215 333.083 388.951 332.614C388.695 332.137 388.566 331.587 388.566 330.964C388.566 330.341 388.691 329.794 388.94 329.325C389.197 328.848 389.553 328.482 390.007 328.225C390.469 327.968 390.997 327.84 391.591 327.84C392.163 327.84 392.673 327.965 393.12 328.214C393.568 328.463 393.916 328.815 394.165 329.27C394.415 329.717 394.539 330.234 394.539 330.821ZM393.23 330.425C393.223 329.963 393.058 329.593 392.735 329.314C392.413 329.035 392.013 328.896 391.536 328.896C391.104 328.896 390.733 329.035 390.425 329.314C390.117 329.585 389.934 329.956 389.875 330.425H393.23ZM396.411 327.136C396.184 327.136 395.993 327.059 395.839 326.905C395.685 326.751 395.608 326.56 395.608 326.333C395.608 326.106 395.685 325.915 395.839 325.761C395.993 325.607 396.184 325.53 396.411 325.53C396.631 325.53 396.818 325.607 396.972 325.761C397.126 325.915 397.203 326.106 397.203 326.333C397.203 326.56 397.126 326.751 396.972 326.905C396.818 327.059 396.631 327.136 396.411 327.136ZM397.027 327.939V334H395.773V327.939H397.027ZM401.732 327.84C402.208 327.84 402.634 327.939 403.008 328.137C403.389 328.335 403.686 328.628 403.899 329.017C404.111 329.406 404.218 329.875 404.218 330.425V334H402.975V330.612C402.975 330.069 402.839 329.655 402.568 329.369C402.296 329.076 401.926 328.929 401.457 328.929C400.987 328.929 400.613 329.076 400.335 329.369C400.063 329.655 399.928 330.069 399.928 330.612V334H398.674V327.939H399.928V328.632C400.133 328.383 400.393 328.188 400.709 328.049C401.031 327.91 401.372 327.84 401.732 327.84ZM408.017 334.099C407.541 334.099 407.112 334.015 406.73 333.846C406.356 333.67 406.059 333.435 405.839 333.142C405.619 332.841 405.502 332.508 405.487 332.141H406.785C406.807 332.398 406.928 332.614 407.148 332.79C407.376 332.959 407.658 333.043 407.995 333.043C408.347 333.043 408.619 332.977 408.809 332.845C409.007 332.706 409.106 332.53 409.106 332.317C409.106 332.09 408.996 331.921 408.776 331.811C408.564 331.701 408.223 331.58 407.753 331.448C407.299 331.323 406.928 331.202 406.642 331.085C406.356 330.968 406.107 330.788 405.894 330.546C405.689 330.304 405.586 329.985 405.586 329.589C405.586 329.266 405.682 328.973 405.872 328.709C406.063 328.438 406.334 328.225 406.686 328.071C407.046 327.917 407.456 327.84 407.918 327.84C408.608 327.84 409.161 328.016 409.579 328.368C410.005 328.713 410.232 329.186 410.261 329.787H409.007C408.985 329.516 408.875 329.299 408.677 329.138C408.479 328.977 408.212 328.896 407.874 328.896C407.544 328.896 407.291 328.958 407.115 329.083C406.939 329.208 406.851 329.373 406.851 329.578C406.851 329.739 406.91 329.875 407.027 329.985C407.145 330.095 407.288 330.183 407.456 330.249C407.625 330.308 407.874 330.385 408.204 330.48C408.644 330.597 409.004 330.718 409.282 330.843C409.568 330.96 409.814 331.136 410.019 331.371C410.225 331.606 410.331 331.917 410.338 332.306C410.338 332.651 410.243 332.959 410.052 333.23C409.862 333.501 409.59 333.714 409.238 333.868C408.894 334.022 408.487 334.099 408.017 334.099ZM413.156 328.962V332.317C413.156 332.544 413.207 332.709 413.31 332.812C413.42 332.907 413.603 332.955 413.86 332.955H414.63V334H413.64C413.075 334 412.643 333.868 412.342 333.604C412.041 333.34 411.891 332.911 411.891 332.317V328.962H411.176V327.939H411.891V326.432H413.156V327.939H414.63V328.962H413.156ZM415.368 330.942C415.368 330.333 415.493 329.794 415.742 329.325C415.999 328.856 416.343 328.493 416.776 328.236C417.216 327.972 417.7 327.84 418.228 327.84C418.705 327.84 419.119 327.935 419.471 328.126C419.83 328.309 420.116 328.54 420.329 328.819V327.939H421.594V334H420.329V333.098C420.116 333.384 419.827 333.622 419.46 333.813C419.093 334.004 418.675 334.099 418.206 334.099C417.685 334.099 417.209 333.967 416.776 333.703C416.343 333.432 415.999 333.058 415.742 332.581C415.493 332.097 415.368 331.551 415.368 330.942ZM420.329 330.964C420.329 330.546 420.241 330.183 420.065 329.875C419.896 329.567 419.673 329.332 419.394 329.171C419.115 329.01 418.815 328.929 418.492 328.929C418.169 328.929 417.869 329.01 417.59 329.171C417.311 329.325 417.084 329.556 416.908 329.864C416.739 330.165 416.655 330.524 416.655 330.942C416.655 331.36 416.739 331.727 416.908 332.042C417.084 332.357 417.311 332.599 417.59 332.768C417.876 332.929 418.177 333.01 418.492 333.01C418.815 333.01 419.115 332.929 419.394 332.768C419.673 332.607 419.896 332.372 420.065 332.064C420.241 331.749 420.329 331.382 420.329 330.964ZM424.495 325.86V334H423.241V325.86H424.495ZM427.395 325.86V334H426.141V325.86H427.395ZM432.537 327.136C432.31 327.136 432.119 327.059 431.965 326.905C431.811 326.751 431.734 326.56 431.734 326.333C431.734 326.106 431.811 325.915 431.965 325.761C432.119 325.607 432.31 325.53 432.537 325.53C432.757 325.53 432.944 325.607 433.098 325.761C433.252 325.915 433.329 326.106 433.329 326.333C433.329 326.56 433.252 326.751 433.098 326.905C432.944 327.059 432.757 327.136 432.537 327.136ZM433.153 327.939V334H431.899V327.939H433.153ZM436.263 328.962V332.317C436.263 332.544 436.314 332.709 436.417 332.812C436.527 332.907 436.71 332.955 436.967 332.955H437.737V334H436.747C436.182 334 435.749 333.868 435.449 333.604C435.148 333.34 434.998 332.911 434.998 332.317V328.962H434.283V327.939H434.998V326.432H436.263V327.939H437.737V328.962H436.263ZM439.398 334.077C439.171 334.077 438.98 334 438.826 333.846C438.672 333.692 438.595 333.501 438.595 333.274C438.595 333.047 438.672 332.856 438.826 332.702C438.98 332.548 439.171 332.471 439.398 332.471C439.618 332.471 439.805 332.548 439.959 332.702C440.113 332.856 440.19 333.047 440.19 333.274C440.19 333.501 440.113 333.692 439.959 333.846C439.805 334 439.618 334.077 439.398 334.077Z"></path>
</svg>
