<svg xmlns="http://www.w3.org/2000/svg" fill="none" viewBox="0 0 122 142" height="142" width="122">
<path fill-opacity="0.9" fill="#333333" d="M1 11C1 5.47716 5.47715 1 11 1H111C116.523 1 121 5.47715 121 11V131C121 136.523 116.523 141 111 141H11C5.47715 141 1 136.523 1 131V11Z"></path>
<path stroke-opacity="0.2" stroke="black" d="M111 0.5H11C5.20101 0.5 0.5 5.20101 0.5 11V131C0.5 136.799 5.20101 141.5 11 141.5H111C116.799 141.5 121.5 136.799 121.5 131V11C121.5 5.20101 116.799 0.5 111 0.5Z"></path>
<path fill="white" d="M16.83 93.059H13.145V95.248C13.299 95.0427 13.5263 94.8703 13.827 94.731C14.135 94.5917 14.4613 94.522 14.806 94.522C15.422 94.522 15.9207 94.654 16.302 94.918C16.6907 95.182 16.9657 95.5157 17.127 95.919C17.2957 96.3223 17.38 96.7477 17.38 97.195C17.38 97.7377 17.2737 98.2217 17.061 98.647C16.8557 99.065 16.544 99.395 16.126 99.637C15.7153 99.879 15.2093 100 14.608 100C13.8087 100 13.167 99.802 12.683 99.406C12.199 99.01 11.9093 98.4857 11.814 97.833H13.035C13.1157 98.1777 13.2953 98.4527 13.574 98.658C13.8527 98.856 14.201 98.955 14.619 98.955C15.1397 98.955 15.5283 98.7973 15.785 98.482C16.049 98.1667 16.181 97.7487 16.181 97.228C16.181 96.7 16.049 96.2967 15.785 96.018C15.521 95.732 15.1323 95.589 14.619 95.589C14.2597 95.589 13.9553 95.6807 13.706 95.864C13.464 96.04 13.288 96.282 13.178 96.59H11.99V91.959H16.83V93.059ZM24.2268 100.077C23.7135 100.077 23.2515 99.989 22.8408 99.813C22.4301 99.6297 22.1075 99.373 21.8728 99.043C21.6381 98.713 21.5208 98.328 21.5208 97.888H22.8628C22.8921 98.218 23.0205 98.4893 23.2478 98.702C23.4825 98.9147 23.8088 99.021 24.2268 99.021C24.6595 99.021 24.9968 98.9183 25.2388 98.713C25.4808 98.5003 25.6018 98.229 25.6018 97.899C25.6018 97.6423 25.5248 97.4333 25.3708 97.272C25.2241 97.1107 25.0371 96.986 24.8098 96.898C24.5898 96.81 24.2818 96.7147 23.8858 96.612C23.3871 96.48 22.9801 96.348 22.6648 96.216C22.3568 96.0767 22.0928 95.864 21.8728 95.578C21.6528 95.292 21.5428 94.9107 21.5428 94.434C21.5428 93.994 21.6528 93.609 21.8728 93.279C22.0928 92.949 22.4008 92.696 22.7968 92.52C23.1928 92.344 23.6511 92.256 24.1718 92.256C24.9125 92.256 25.5175 92.443 25.9868 92.817C26.4635 93.1837 26.7275 93.6897 26.7788 94.335H25.3928C25.3708 94.0563 25.2388 93.818 24.9968 93.62C24.7548 93.422 24.4358 93.323 24.0398 93.323C23.6805 93.323 23.3871 93.4147 23.1598 93.598C22.9325 93.7813 22.8188 94.0453 22.8188 94.39C22.8188 94.6247 22.8885 94.819 23.0278 94.973C23.1745 95.1197 23.3578 95.237 23.5778 95.325C23.7978 95.413 24.0985 95.5083 24.4798 95.611C24.9858 95.7503 25.3965 95.8897 25.7118 96.029C26.0345 96.1683 26.3058 96.3847 26.5258 96.678C26.7531 96.964 26.8668 97.349 26.8668 97.833C26.8668 98.2217 26.7605 98.5883 26.5478 98.933C26.3425 99.2777 26.0381 99.5563 25.6348 99.769C25.2388 99.9743 24.7695 100.077 24.2268 100.077ZM29.8095 94.962V98.317C29.8095 98.5443 29.8608 98.7093 29.9635 98.812C30.0735 98.9073 30.2568 98.955 30.5135 98.955H31.2835V100H30.2935C29.7288 100 29.2962 99.868 28.9955 99.604C28.6948 99.34 28.5445 98.911 28.5445 98.317V94.962H27.8295V93.939H28.5445V92.432H29.8095V93.939H31.2835V94.962H29.8095ZM32.0213 96.942C32.0213 96.3333 32.1459 95.7943 32.3953 95.325C32.6519 94.8557 32.9966 94.4927 33.4293 94.236C33.8693 93.972 34.3533 93.84 34.8813 93.84C35.3579 93.84 35.7723 93.9353 36.1243 94.126C36.4836 94.3093 36.7696 94.5403 36.9823 94.819V93.939H38.2473V100H36.9823V99.098C36.7696 99.384 36.4799 99.6223 36.1133 99.813C35.7466 100.004 35.3286 100.099 34.8593 100.099C34.3386 100.099 33.8619 99.967 33.4293 99.703C32.9966 99.4317 32.6519 99.0577 32.3953 98.581C32.1459 98.097 32.0213 97.5507 32.0213 96.942ZM36.9823 96.964C36.9823 96.546 36.8943 96.183 36.7183 95.875C36.5496 95.567 36.3259 95.3323 36.0473 95.171C35.7686 95.0097 35.4679 94.929 35.1453 94.929C34.8226 94.929 34.5219 95.0097 34.2433 95.171C33.9646 95.325 33.7373 95.556 33.5613 95.864C33.3926 96.1647 33.3083 96.524 33.3083 96.942C33.3083 97.36 33.3926 97.7267 33.5613 98.042C33.7373 98.3573 33.9646 98.5993 34.2433 98.768C34.5293 98.9293 34.8299 99.01 35.1453 99.01C35.4679 99.01 35.7686 98.9293 36.0473 98.768C36.3259 98.6067 36.5496 98.372 36.7183 98.064C36.8943 97.7487 36.9823 97.382 36.9823 96.964ZM42.3363 93.84C42.8057 93.84 43.22 93.9353 43.5793 94.126C43.946 94.3093 44.232 94.5403 44.4373 94.819V93.939H45.7023V100.099C45.7023 100.656 45.585 101.151 45.3503 101.584C45.1157 102.024 44.7747 102.369 44.3273 102.618C43.8873 102.867 43.3593 102.992 42.7433 102.992C41.922 102.992 41.24 102.798 40.6973 102.409C40.1547 102.028 39.8467 101.507 39.7733 100.847H41.0163C41.1117 101.162 41.3133 101.415 41.6213 101.606C41.9367 101.804 42.3107 101.903 42.7433 101.903C43.2493 101.903 43.6563 101.749 43.9643 101.441C44.2797 101.133 44.4373 100.686 44.4373 100.099V99.087C44.2247 99.373 43.935 99.615 43.5683 99.813C43.209 100.004 42.7983 100.099 42.3363 100.099C41.8083 100.099 41.3243 99.967 40.8843 99.703C40.4517 99.4317 40.107 99.0577 39.8503 98.581C39.601 98.097 39.4763 97.5507 39.4763 96.942C39.4763 96.3333 39.601 95.7943 39.8503 95.325C40.107 94.8557 40.4517 94.4927 40.8843 94.236C41.3243 93.972 41.8083 93.84 42.3363 93.84ZM44.4373 96.964C44.4373 96.546 44.3493 96.183 44.1733 95.875C44.0047 95.567 43.781 95.3323 43.5023 95.171C43.2237 95.0097 42.923 94.929 42.6003 94.929C42.2777 94.929 41.977 95.0097 41.6983 95.171C41.4197 95.325 41.1923 95.556 41.0163 95.864C40.8477 96.1647 40.7633 96.524 40.7633 96.942C40.7633 97.36 40.8477 97.7267 41.0163 98.042C41.1923 98.3573 41.4197 98.5993 41.6983 98.768C41.9843 98.9293 42.285 99.01 42.6003 99.01C42.923 99.01 43.2237 98.9293 43.5023 98.768C43.781 98.6067 44.0047 98.372 44.1733 98.064C44.3493 97.7487 44.4373 97.382 44.4373 96.964ZM52.9044 96.821C52.9044 97.0483 52.8897 97.2537 52.8604 97.437H48.2294C48.2661 97.921 48.4457 98.3097 48.7684 98.603C49.0911 98.8963 49.4871 99.043 49.9564 99.043C50.6311 99.043 51.1077 98.7607 51.3864 98.196H52.7394C52.5561 98.7533 52.2224 99.2117 51.7384 99.571C51.2617 99.923 50.6677 100.099 49.9564 100.099C49.3771 100.099 48.8564 99.9707 48.3944 99.714C47.9397 99.45 47.5804 99.0833 47.3164 98.614C47.0597 98.1373 46.9314 97.5873 46.9314 96.964C46.9314 96.3407 47.0561 95.7943 47.3054 95.325C47.5621 94.8483 47.9177 94.4817 48.3724 94.225C48.8344 93.9683 49.3624 93.84 49.9564 93.84C50.5284 93.84 51.0381 93.9647 51.4854 94.214C51.9327 94.4633 52.2811 94.8153 52.5304 95.27C52.7797 95.7173 52.9044 96.2343 52.9044 96.821ZM51.5954 96.425C51.5881 95.963 51.4231 95.5927 51.1004 95.314C50.7777 95.0353 50.3781 94.896 49.9014 94.896C49.4687 94.896 49.0984 95.0353 48.7904 95.314C48.4824 95.5853 48.2991 95.9557 48.2404 96.425H51.5954ZM56.3385 100.099C55.8618 100.099 55.4328 100.015 55.0515 99.846C54.6775 99.67 54.3805 99.4353 54.1605 99.142C53.9405 98.8413 53.8231 98.5077 53.8085 98.141H55.1065C55.1285 98.3977 55.2495 98.614 55.4695 98.79C55.6968 98.9587 55.9791 99.043 56.3165 99.043C56.6685 99.043 56.9398 98.977 57.1305 98.845C57.3285 98.7057 57.4275 98.5297 57.4275 98.317C57.4275 98.0897 57.3175 97.921 57.0975 97.811C56.8848 97.701 56.5438 97.58 56.0745 97.448C55.6198 97.3233 55.2495 97.2023 54.9635 97.085C54.6775 96.9677 54.4281 96.788 54.2155 96.546C54.0101 96.304 53.9075 95.985 53.9075 95.589C53.9075 95.2663 54.0028 94.973 54.1935 94.709C54.3841 94.4377 54.6555 94.225 55.0075 94.071C55.3668 93.917 55.7775 93.84 56.2395 93.84C56.9288 93.84 57.4825 94.016 57.9005 94.368C58.3258 94.7127 58.5531 95.1857 58.5825 95.787H57.3285C57.3065 95.5157 57.1965 95.2993 56.9985 95.138C56.8005 94.9767 56.5328 94.896 56.1955 94.896C55.8655 94.896 55.6125 94.9583 55.4365 95.083C55.2605 95.2077 55.1725 95.3727 55.1725 95.578C55.1725 95.7393 55.2311 95.875 55.3485 95.985C55.4658 96.095 55.6088 96.183 55.7775 96.249C55.9461 96.3077 56.1955 96.3847 56.5255 96.48C56.9655 96.5973 57.3248 96.7183 57.6035 96.843C57.8895 96.9603 58.1351 97.1363 58.3405 97.371C58.5458 97.6057 58.6521 97.9173 58.6595 98.306C58.6595 98.6507 58.5641 98.9587 58.3735 99.23C58.1828 99.5013 57.9115 99.714 57.5595 99.868C57.2148 100.022 56.8078 100.099 56.3385 100.099ZM65.5009 100.099C64.9289 100.099 64.4119 99.9707 63.9499 99.714C63.4879 99.45 63.1249 99.0833 62.8609 98.614C62.5969 98.1373 62.4649 97.5873 62.4649 96.964C62.4649 96.348 62.6005 95.8017 62.8719 95.325C63.1432 94.8483 63.5135 94.4817 63.9829 94.225C64.4522 93.9683 64.9765 93.84 65.5559 93.84C66.1352 93.84 66.6595 93.9683 67.1289 94.225C67.5982 94.4817 67.9685 94.8483 68.2399 95.325C68.5112 95.8017 68.6469 96.348 68.6469 96.964C68.6469 97.58 68.5075 98.1263 68.2289 98.603C67.9502 99.0797 67.5689 99.45 67.0849 99.714C66.6082 99.9707 66.0802 100.099 65.5009 100.099ZM65.5009 99.01C65.8235 99.01 66.1242 98.933 66.4029 98.779C66.6889 98.625 66.9199 98.394 67.0959 98.086C67.2719 97.778 67.3599 97.404 67.3599 96.964C67.3599 96.524 67.2755 96.1537 67.1069 95.853C66.9382 95.545 66.7145 95.314 66.4359 95.16C66.1572 95.006 65.8565 94.929 65.5339 94.929C65.2112 94.929 64.9105 95.006 64.6319 95.16C64.3605 95.314 64.1442 95.545 63.9829 95.853C63.8215 96.1537 63.7409 96.524 63.7409 96.964C63.7409 97.6167 63.9059 98.1227 64.2359 98.482C64.5732 98.834 64.9949 99.01 65.5009 99.01ZM72.4275 94.962H71.3055V100H70.0405V94.962H69.3255V93.939H70.0405V93.51C70.0405 92.8133 70.2239 92.3073 70.5905 91.992C70.9645 91.6693 71.5475 91.508 72.3395 91.508V92.553C71.9582 92.553 71.6905 92.6263 71.5365 92.773C71.3825 92.9123 71.3055 93.158 71.3055 93.51V93.939H72.4275V94.962ZM82.0613 92.355L79.5313 97.228V100H78.2773V97.228L75.7363 92.355H77.1333L78.9043 96.106L80.6753 92.355H82.0613ZM85.6854 100.099C85.1134 100.099 84.5964 99.9707 84.1344 99.714C83.6724 99.45 83.3094 99.0833 83.0454 98.614C82.7814 98.1373 82.6494 97.5873 82.6494 96.964C82.6494 96.348 82.7851 95.8017 83.0564 95.325C83.3278 94.8483 83.6981 94.4817 84.1674 94.225C84.6368 93.9683 85.1611 93.84 85.7404 93.84C86.3198 93.84 86.8441 93.9683 87.3134 94.225C87.7828 94.4817 88.1531 94.8483 88.4244 95.325C88.6958 95.8017 88.8314 96.348 88.8314 96.964C88.8314 97.58 88.6921 98.1263 88.4134 98.603C88.1348 99.0797 87.7534 99.45 87.2694 99.714C86.7928 99.9707 86.2648 100.099 85.6854 100.099ZM85.6854 99.01C86.0081 99.01 86.3088 98.933 86.5874 98.779C86.8734 98.625 87.1044 98.394 87.2804 98.086C87.4564 97.778 87.5444 97.404 87.5444 96.964C87.5444 96.524 87.4601 96.1537 87.2914 95.853C87.1228 95.545 86.8991 95.314 86.6204 95.16C86.3418 95.006 86.0411 94.929 85.7184 94.929C85.3958 94.929 85.0951 95.006 84.8164 95.16C84.5451 95.314 84.3288 95.545 84.1674 95.853C84.0061 96.1537 83.9254 96.524 83.9254 96.964C83.9254 97.6167 84.0904 98.1227 84.4204 98.482C84.7578 98.834 85.1794 99.01 85.6854 99.01ZM95.5601 93.939V100H94.3061V99.285C94.1081 99.5343 93.8478 99.7323 93.5251 99.879C93.2098 100.018 92.8724 100.088 92.5131 100.088C92.0364 100.088 91.6074 99.989 91.2261 99.791C90.8521 99.593 90.5551 99.2997 90.3351 98.911C90.1224 98.5223 90.0161 98.053 90.0161 97.503V93.939H91.2591V97.316C91.2591 97.8587 91.3948 98.2767 91.6661 98.57C91.9374 98.856 92.3078 98.999 92.7771 98.999C93.2464 98.999 93.6168 98.856 93.8881 98.57C94.1668 98.2767 94.3061 97.8587 94.3061 97.316V93.939H95.5601Z"></path>
<path fill="#695657" d="M1 11C1 5.47715 5.47715 1 11 1H111C116.523 1 121 5.47715 121 11V81H1V11Z"></path>
<path fill-opacity="0.5" fill="black" d="M1 11C1 5.47715 5.47715 1 11 1H111C116.523 1 121 5.47715 121 11V81H1V11Z"></path>
<circle stroke-width="3.2" stroke="url(#paint1_linear_1051_92)" fill="url(#paint0_linear_1051_92)" r="17.6" cy="40.9998" cx="60.9998"></circle>
<path fill="url(#paint2_linear_1051_92)" d="M56.2002 48.2709V33.7293C56.2002 32.4241 57.6789 31.668 58.737 32.4322L68.8042 39.703C69.6885 40.3417 69.6885 41.6585 68.8042 42.2972L58.737 49.568C57.6789 50.3322 56.2002 49.5761 56.2002 48.2709Z"></path>
<path stroke-width="1.6" stroke-opacity="0.2" stroke="black" d="M55.4002 33.7293V48.2709C55.4002 50.2287 57.6182 51.3628 59.2054 50.2165L69.2726 42.9457C70.5991 41.9877 70.599 40.0124 69.2726 39.0545L59.2054 31.7837C57.6182 30.6374 55.4002 31.7715 55.4002 33.7293Z"></path>
<path fill-opacity="0.05" fill="white" d="M61 116C61 113.239 63.2386 111 66 111H106C108.761 111 111 113.239 111 116V126C111 128.761 108.761 131 106 131H66C63.2386 131 61 128.761 61 126V116Z"></path>
<path fill="white" d="M80.0838 117.745V124H79.0578V119.716L77.1498 124H76.4388L74.5218 119.716V124H73.4958V117.745H74.6028L76.7988 122.65L78.9858 117.745H80.0838ZM85.9233 119.041V124H84.8973V123.415C84.7353 123.619 84.5223 123.781 84.2583 123.901C84.0003 124.015 83.7243 124.072 83.4303 124.072C83.0403 124.072 82.6893 123.991 82.3773 123.829C82.0713 123.667 81.8283 123.427 81.6483 123.109C81.4743 122.791 81.3873 122.407 81.3873 121.957V119.041H82.4043V121.804C82.4043 122.248 82.5153 122.59 82.7373 122.83C82.9593 123.064 83.2623 123.181 83.6463 123.181C84.0303 123.181 84.3333 123.064 84.5553 122.83C84.7833 122.59 84.8973 122.248 84.8973 121.804V119.041H85.9233ZM89.0771 124.081C88.6871 124.081 88.3361 124.012 88.0241 123.874C87.7181 123.73 87.4751 123.538 87.2951 123.298C87.1151 123.052 87.0191 122.779 87.0071 122.479H88.0691C88.0871 122.689 88.1861 122.866 88.3661 123.01C88.5521 123.148 88.7831 123.217 89.0591 123.217C89.3471 123.217 89.5691 123.163 89.7251 123.055C89.8871 122.941 89.9681 122.797 89.9681 122.623C89.9681 122.437 89.8781 122.299 89.6981 122.209C89.5241 122.119 89.2451 122.02 88.8611 121.912C88.4891 121.81 88.1861 121.711 87.9521 121.615C87.7181 121.519 87.5141 121.372 87.3401 121.174C87.1721 120.976 87.0881 120.715 87.0881 120.391C87.0881 120.127 87.1661 119.887 87.3221 119.671C87.4781 119.449 87.7001 119.275 87.9881 119.149C88.2821 119.023 88.6181 118.96 88.9961 118.96C89.5601 118.96 90.0131 119.104 90.3551 119.392C90.7031 119.674 90.8891 120.061 90.9131 120.553H89.8871C89.8691 120.331 89.7791 120.154 89.6171 120.022C89.4551 119.89 89.2361 119.824 88.9601 119.824C88.6901 119.824 88.4831 119.875 88.3391 119.977C88.1951 120.079 88.1231 120.214 88.1231 120.382C88.1231 120.514 88.1711 120.625 88.2671 120.715C88.3631 120.805 88.4801 120.877 88.6181 120.931C88.7561 120.979 88.9601 121.042 89.2301 121.12C89.5901 121.216 89.8841 121.315 90.1121 121.417C90.3461 121.513 90.5471 121.657 90.7151 121.849C90.8831 122.041 90.9701 122.296 90.9761 122.614C90.9761 122.896 90.8981 123.148 90.7421 123.37C90.5861 123.592 90.3641 123.766 90.0761 123.892C89.7941 124.018 89.4611 124.081 89.0771 124.081ZM92.6067 118.384C92.4207 118.384 92.2647 118.321 92.1387 118.195C92.0127 118.069 91.9497 117.913 91.9497 117.727C91.9497 117.541 92.0127 117.385 92.1387 117.259C92.2647 117.133 92.4207 117.07 92.6067 117.07C92.7867 117.07 92.9397 117.133 93.0657 117.259C93.1917 117.385 93.2547 117.541 93.2547 117.727C93.2547 117.913 93.1917 118.069 93.0657 118.195C92.9397 118.321 92.7867 118.384 92.6067 118.384ZM93.1107 119.041V124H92.0847V119.041H93.1107ZM94.1157 121.516C94.1157 121.006 94.2177 120.559 94.4217 120.175C94.6317 119.785 94.9197 119.485 95.2857 119.275C95.6517 119.065 96.0717 118.96 96.5457 118.96C97.1457 118.96 97.6407 119.104 98.0307 119.392C98.4267 119.674 98.6937 120.079 98.8317 120.607H97.7247C97.6347 120.361 97.4907 120.169 97.2927 120.031C97.0947 119.893 96.8457 119.824 96.5457 119.824C96.1257 119.824 95.7897 119.974 95.5377 120.274C95.2917 120.568 95.1687 120.982 95.1687 121.516C95.1687 122.05 95.2917 122.467 95.5377 122.767C95.7897 123.067 96.1257 123.217 96.5457 123.217C97.1397 123.217 97.5327 122.956 97.7247 122.434H98.8317C98.6877 122.938 98.4177 123.34 98.0217 123.64C97.6257 123.934 97.1337 124.081 96.5457 124.081C96.0717 124.081 95.6517 123.976 95.2857 123.766C94.9197 123.55 94.6317 123.25 94.4217 122.866C94.2177 122.476 94.1157 122.026 94.1157 121.516Z"></path>
<defs>
<linearGradient gradientUnits="userSpaceOnUse" y2="60.1998" x2="72.1998" y1="21.7998" x1="49.7998" id="paint0_linear_1051_92">
<stop stop-color="#4D4D4D" offset="0.139158"></stop>
<stop stop-color="#242424" offset="0.856518"></stop>
</linearGradient>
<linearGradient gradientUnits="userSpaceOnUse" y2="60.1998" x2="72.1998" y1="21.7998" x1="49.7998" id="paint1_linear_1051_92">
<stop stop-color="#FE924A" offset="0.140625"></stop>
<stop stop-color="#9264BA" offset="0.864583"></stop>
</linearGradient>
<linearGradient gradientUnits="userSpaceOnUse" y2="50.6001" x2="56.2002" y1="31.4001" x1="56.2002" id="paint2_linear_1051_92">
<stop stop-color="white"></stop>
<stop stop-color="#E3E3E3" offset="1"></stop>
</linearGradient>
</defs>
</svg>
