<svg xmlns="http://www.w3.org/2000/svg" fill="none" viewBox="0 0 480 360" height="360" width="480">
<path fill="black" d="M197.44 68.168C196.272 68.168 195.216 67.968 194.272 67.568C193.344 67.168 192.608 66.592 192.064 65.84C191.52 65.088 191.24 64.2 191.224 63.176H194.824C194.872 63.864 195.112 64.408 195.544 64.808C195.992 65.208 196.6 65.408 197.368 65.408C198.152 65.408 198.768 65.224 199.216 64.856C199.664 64.472 199.888 63.976 199.888 63.368C199.888 62.872 199.736 62.464 199.432 62.144C199.128 61.824 198.744 61.576 198.28 61.4C197.832 61.208 197.208 61 196.408 60.776C195.32 60.456 194.432 60.144 193.744 59.84C193.072 59.52 192.488 59.048 191.992 58.424C191.512 57.784 191.272 56.936 191.272 55.88C191.272 54.888 191.52 54.024 192.016 53.288C192.512 52.552 193.208 51.992 194.104 51.608C195 51.208 196.024 51.008 197.176 51.008C198.904 51.008 200.304 51.432 201.376 52.28C202.464 53.112 203.064 54.28 203.176 55.784H199.48C199.448 55.208 199.2 54.736 198.736 54.368C198.288 53.984 197.688 53.792 196.936 53.792C196.28 53.792 195.752 53.96 195.352 54.296C194.968 54.632 194.776 55.12 194.776 55.76C194.776 56.208 194.92 56.584 195.208 56.888C195.512 57.176 195.88 57.416 196.312 57.608C196.76 57.784 197.384 57.992 198.184 58.232C199.272 58.552 200.16 58.872 200.848 59.192C201.536 59.512 202.128 59.992 202.624 60.632C203.12 61.272 203.368 62.112 203.368 63.152C203.368 64.048 203.136 64.88 202.672 65.648C202.208 66.416 201.528 67.032 200.632 67.496C199.736 67.944 198.672 68.168 197.44 68.168ZM212.185 68.216C210.905 68.216 209.753 67.936 208.729 67.376C207.705 66.8 206.897 65.992 206.305 64.952C205.729 63.912 205.441 62.712 205.441 61.352C205.441 59.992 205.737 58.792 206.329 57.752C206.937 56.712 207.761 55.912 208.801 55.352C209.841 54.776 211.001 54.488 212.281 54.488C213.561 54.488 214.721 54.776 215.761 55.352C216.801 55.912 217.617 56.712 218.209 57.752C218.817 58.792 219.121 59.992 219.121 61.352C219.121 62.712 218.809 63.912 218.185 64.952C217.577 65.992 216.745 66.8 215.689 67.376C214.649 67.936 213.481 68.216 212.185 68.216ZM212.185 65.288C212.793 65.288 213.361 65.144 213.889 64.856C214.433 64.552 214.865 64.104 215.185 63.512C215.505 62.92 215.665 62.2 215.665 61.352C215.665 60.088 215.329 59.12 214.657 58.448C214.001 57.76 213.193 57.416 212.233 57.416C211.273 57.416 210.465 57.76 209.809 58.448C209.169 59.12 208.849 60.088 208.849 61.352C208.849 62.616 209.161 63.592 209.785 64.28C210.425 64.952 211.225 65.288 212.185 65.288ZM234.138 54.704V68H230.754V66.32C230.322 66.896 229.754 67.352 229.05 67.688C228.362 68.008 227.61 68.168 226.794 68.168C225.754 68.168 224.834 67.952 224.034 67.52C223.234 67.072 222.602 66.424 222.138 65.576C221.69 64.712 221.466 63.688 221.466 62.504V54.704H224.826V62.024C224.826 63.08 225.09 63.896 225.618 64.472C226.146 65.032 226.866 65.312 227.778 65.312C228.706 65.312 229.434 65.032 229.962 64.472C230.49 63.896 230.754 63.08 230.754 62.024V54.704H234.138ZM244.821 54.512C246.405 54.512 247.685 55.016 248.661 56.024C249.637 57.016 250.125 58.408 250.125 60.2V68H246.765V60.656C246.765 59.6 246.501 58.792 245.973 58.232C245.445 57.656 244.725 57.368 243.813 57.368C242.885 57.368 242.149 57.656 241.605 58.232C241.077 58.792 240.813 59.6 240.813 60.656V68H237.453V54.704H240.813V56.36C241.261 55.784 241.829 55.336 242.517 55.016C243.221 54.68 243.989 54.512 244.821 54.512ZM252.456 61.304C252.456 59.96 252.72 58.768 253.248 57.728C253.792 56.688 254.528 55.888 255.456 55.328C256.384 54.768 257.416 54.488 258.552 54.488C259.416 54.488 260.24 54.68 261.024 55.064C261.808 55.432 262.432 55.928 262.896 56.552V50.24H266.304V68H262.896V66.032C262.48 66.688 261.896 67.216 261.144 67.616C260.392 68.016 259.52 68.216 258.528 68.216C257.408 68.216 256.384 67.928 255.456 67.352C254.528 66.776 253.792 65.968 253.248 64.928C252.72 63.872 252.456 62.664 252.456 61.304ZM262.92 61.352C262.92 60.536 262.76 59.84 262.44 59.264C262.12 58.672 261.688 58.224 261.144 57.92C260.6 57.6 260.016 57.44 259.392 57.44C258.768 57.44 258.192 57.592 257.664 57.896C257.136 58.2 256.704 58.648 256.368 59.24C256.048 59.816 255.888 60.504 255.888 61.304C255.888 62.104 256.048 62.808 256.368 63.416C256.704 64.008 257.136 64.464 257.664 64.784C258.208 65.104 258.784 65.264 259.392 65.264C260.016 65.264 260.6 65.112 261.144 64.808C261.688 64.488 262.12 64.04 262.44 63.464C262.76 62.872 262.92 62.168 262.92 61.352ZM274.674 68.216C273.586 68.216 272.61 68.024 271.746 67.64C270.882 67.24 270.194 66.704 269.682 66.032C269.186 65.36 268.914 64.616 268.866 63.8H272.25C272.314 64.312 272.562 64.736 272.994 65.072C273.442 65.408 273.994 65.576 274.65 65.576C275.29 65.576 275.786 65.448 276.138 65.192C276.506 64.936 276.69 64.608 276.69 64.208C276.69 63.776 276.466 63.456 276.018 63.248C275.586 63.024 274.89 62.784 273.93 62.528C272.938 62.288 272.122 62.04 271.482 61.784C270.858 61.528 270.314 61.136 269.85 60.608C269.402 60.08 269.178 59.368 269.178 58.472C269.178 57.736 269.386 57.064 269.802 56.456C270.234 55.848 270.842 55.368 271.626 55.016C272.426 54.664 273.362 54.488 274.434 54.488C276.018 54.488 277.282 54.888 278.226 55.688C279.17 56.472 279.69 57.536 279.786 58.88H276.57C276.522 58.352 276.298 57.936 275.898 57.632C275.514 57.312 274.994 57.152 274.338 57.152C273.73 57.152 273.258 57.264 272.922 57.488C272.602 57.712 272.442 58.024 272.442 58.424C272.442 58.872 272.666 59.216 273.114 59.456C273.562 59.68 274.258 59.912 275.202 60.152C276.162 60.392 276.954 60.64 277.578 60.896C278.202 61.152 278.738 61.552 279.186 62.096C279.65 62.624 279.89 63.328 279.906 64.208C279.906 64.976 279.69 65.664 279.258 66.272C278.842 66.88 278.234 67.36 277.434 67.712C276.65 68.048 275.73 68.216 274.674 68.216Z"></path>
<path fill-opacity="0.05" fill="black" d="M190 99C190 96.2386 192.239 94 195 94H465C467.761 94 470 96.2386 470 99V160H190V99Z"></path>
<path fill-opacity="0.05" fill="black" d="M190 161H470V205C470 207.761 467.761 210 465 210H195C192.239 210 190 207.761 190 205V161Z"></path>
<path fill="black" d="M253.344 131.077C252.831 131.077 252.369 130.989 251.958 130.813C251.547 130.63 251.225 130.373 250.99 130.043C250.755 129.713 250.638 129.328 250.638 128.888H251.98C252.009 129.218 252.138 129.489 252.365 129.702C252.6 129.915 252.926 130.021 253.344 130.021C253.777 130.021 254.114 129.918 254.356 129.713C254.598 129.5 254.719 129.229 254.719 128.899C254.719 128.642 254.642 128.433 254.488 128.272C254.341 128.111 254.154 127.986 253.927 127.898C253.707 127.81 253.399 127.715 253.003 127.612C252.504 127.48 252.097 127.348 251.782 127.216C251.474 127.077 251.21 126.864 250.99 126.578C250.77 126.292 250.66 125.911 250.66 125.434C250.66 124.994 250.77 124.609 250.99 124.279C251.21 123.949 251.518 123.696 251.914 123.52C252.31 123.344 252.768 123.256 253.289 123.256C254.03 123.256 254.635 123.443 255.104 123.817C255.581 124.184 255.845 124.69 255.896 125.335H254.51C254.488 125.056 254.356 124.818 254.114 124.62C253.872 124.422 253.553 124.323 253.157 124.323C252.798 124.323 252.504 124.415 252.277 124.598C252.05 124.781 251.936 125.045 251.936 125.39C251.936 125.625 252.006 125.819 252.145 125.973C252.292 126.12 252.475 126.237 252.695 126.325C252.915 126.413 253.216 126.508 253.597 126.611C254.103 126.75 254.514 126.89 254.829 127.029C255.152 127.168 255.423 127.385 255.643 127.678C255.87 127.964 255.984 128.349 255.984 128.833C255.984 129.222 255.878 129.588 255.665 129.933C255.46 130.278 255.155 130.556 254.752 130.769C254.356 130.974 253.887 131.077 253.344 131.077ZM262.92 124.939L259.202 133.849H257.904L259.136 130.901L256.749 124.939H258.146L259.851 129.559L261.622 124.939H262.92ZM266.066 131.099C265.589 131.099 265.16 131.015 264.779 130.846C264.405 130.67 264.108 130.435 263.888 130.142C263.668 129.841 263.551 129.508 263.536 129.141H264.834C264.856 129.398 264.977 129.614 265.197 129.79C265.424 129.959 265.707 130.043 266.044 130.043C266.396 130.043 266.667 129.977 266.858 129.845C267.056 129.706 267.155 129.53 267.155 129.317C267.155 129.09 267.045 128.921 266.825 128.811C266.612 128.701 266.271 128.58 265.802 128.448C265.347 128.323 264.977 128.202 264.691 128.085C264.405 127.968 264.156 127.788 263.943 127.546C263.738 127.304 263.635 126.985 263.635 126.589C263.635 126.266 263.73 125.973 263.921 125.709C264.112 125.438 264.383 125.225 264.735 125.071C265.094 124.917 265.505 124.84 265.967 124.84C266.656 124.84 267.21 125.016 267.628 125.368C268.053 125.713 268.281 126.186 268.31 126.787H267.056C267.034 126.516 266.924 126.299 266.726 126.138C266.528 125.977 266.26 125.896 265.923 125.896C265.593 125.896 265.34 125.958 265.164 126.083C264.988 126.208 264.9 126.373 264.9 126.578C264.9 126.739 264.959 126.875 265.076 126.985C265.193 127.095 265.336 127.183 265.505 127.249C265.674 127.308 265.923 127.385 266.253 127.48C266.693 127.597 267.052 127.718 267.331 127.843C267.617 127.96 267.863 128.136 268.068 128.371C268.273 128.606 268.38 128.917 268.387 129.306C268.387 129.651 268.292 129.959 268.101 130.23C267.91 130.501 267.639 130.714 267.287 130.868C266.942 131.022 266.535 131.099 266.066 131.099ZM271.205 125.962V129.317C271.205 129.544 271.256 129.709 271.359 129.812C271.469 129.907 271.652 129.955 271.909 129.955H272.679V131H271.689C271.124 131 270.692 130.868 270.391 130.604C270.09 130.34 269.94 129.911 269.94 129.317V125.962H269.225V124.939H269.94V123.432H271.205V124.939H272.679V125.962H271.205ZM279.39 127.821C279.39 128.048 279.375 128.254 279.346 128.437H274.715C274.751 128.921 274.931 129.31 275.254 129.603C275.576 129.896 275.972 130.043 276.442 130.043C277.116 130.043 277.593 129.761 277.872 129.196H279.225C279.041 129.753 278.708 130.212 278.224 130.571C277.747 130.923 277.153 131.099 276.442 131.099C275.862 131.099 275.342 130.971 274.88 130.714C274.425 130.45 274.066 130.083 273.802 129.614C273.545 129.137 273.417 128.587 273.417 127.964C273.417 127.341 273.541 126.794 273.791 126.325C274.047 125.848 274.403 125.482 274.858 125.225C275.32 124.968 275.848 124.84 276.442 124.84C277.014 124.84 277.523 124.965 277.971 125.214C278.418 125.463 278.766 125.815 279.016 126.27C279.265 126.717 279.39 127.234 279.39 127.821ZM278.081 127.425C278.073 126.963 277.908 126.593 277.586 126.314C277.263 126.035 276.863 125.896 276.387 125.896C275.954 125.896 275.584 126.035 275.276 126.314C274.968 126.585 274.784 126.956 274.726 127.425H278.081ZM287.961 124.84C288.437 124.84 288.863 124.939 289.237 125.137C289.618 125.335 289.915 125.628 290.128 126.017C290.348 126.406 290.458 126.875 290.458 127.425V131H289.215V127.612C289.215 127.069 289.079 126.655 288.808 126.369C288.536 126.076 288.166 125.929 287.697 125.929C287.227 125.929 286.853 126.076 286.575 126.369C286.303 126.655 286.168 127.069 286.168 127.612V131H284.925V127.612C284.925 127.069 284.789 126.655 284.518 126.369C284.246 126.076 283.876 125.929 283.407 125.929C282.937 125.929 282.563 126.076 282.285 126.369C282.013 126.655 281.878 127.069 281.878 127.612V131H280.624V124.939H281.878V125.632C282.083 125.383 282.343 125.188 282.659 125.049C282.974 124.91 283.311 124.84 283.671 124.84C284.155 124.84 284.587 124.943 284.969 125.148C285.35 125.353 285.643 125.65 285.849 126.039C286.032 125.672 286.318 125.383 286.707 125.17C287.095 124.95 287.513 124.84 287.961 124.84ZM297.254 129.878L298.97 124.939H300.301L297.991 131H296.495L294.196 124.939H295.538L297.254 129.878ZM303.878 131.099C303.306 131.099 302.789 130.971 302.327 130.714C301.865 130.45 301.502 130.083 301.238 129.614C300.974 129.137 300.842 128.587 300.842 127.964C300.842 127.348 300.977 126.802 301.249 126.325C301.52 125.848 301.89 125.482 302.36 125.225C302.829 124.968 303.353 124.84 303.933 124.84C304.512 124.84 305.036 124.968 305.506 125.225C305.975 125.482 306.345 125.848 306.617 126.325C306.888 126.802 307.024 127.348 307.024 127.964C307.024 128.58 306.884 129.126 306.606 129.603C306.327 130.08 305.946 130.45 305.462 130.714C304.985 130.971 304.457 131.099 303.878 131.099ZM303.878 130.01C304.2 130.01 304.501 129.933 304.78 129.779C305.066 129.625 305.297 129.394 305.473 129.086C305.649 128.778 305.737 128.404 305.737 127.964C305.737 127.524 305.652 127.154 305.484 126.853C305.315 126.545 305.091 126.314 304.813 126.16C304.534 126.006 304.233 125.929 303.911 125.929C303.588 125.929 303.287 126.006 303.009 126.16C302.737 126.314 302.521 126.545 302.36 126.853C302.198 127.154 302.118 127.524 302.118 127.964C302.118 128.617 302.283 129.123 302.613 129.482C302.95 129.834 303.372 130.01 303.878 130.01ZM309.517 122.86V131H308.263V122.86H309.517ZM316.653 124.939V131H315.399V130.285C315.201 130.534 314.941 130.732 314.618 130.879C314.303 131.018 313.965 131.088 313.606 131.088C313.129 131.088 312.7 130.989 312.319 130.791C311.945 130.593 311.648 130.3 311.428 129.911C311.215 129.522 311.109 129.053 311.109 128.503V124.939H312.352V128.316C312.352 128.859 312.488 129.277 312.759 129.57C313.03 129.856 313.401 129.999 313.87 129.999C314.339 129.999 314.71 129.856 314.981 129.57C315.26 129.277 315.399 128.859 315.399 128.316V124.939H316.653ZM325.644 124.84C326.121 124.84 326.546 124.939 326.92 125.137C327.302 125.335 327.599 125.628 327.811 126.017C328.031 126.406 328.141 126.875 328.141 127.425V131H326.898V127.612C326.898 127.069 326.763 126.655 326.491 126.369C326.22 126.076 325.85 125.929 325.38 125.929C324.911 125.929 324.537 126.076 324.258 126.369C323.987 126.655 323.851 127.069 323.851 127.612V131H322.608V127.612C322.608 127.069 322.473 126.655 322.201 126.369C321.93 126.076 321.56 125.929 321.09 125.929C320.621 125.929 320.247 126.076 319.968 126.369C319.697 126.655 319.561 127.069 319.561 127.612V131H318.307V124.939H319.561V125.632C319.767 125.383 320.027 125.188 320.342 125.049C320.658 124.91 320.995 124.84 321.354 124.84C321.838 124.84 322.271 124.943 322.652 125.148C323.034 125.353 323.327 125.65 323.532 126.039C323.716 125.672 324.002 125.383 324.39 125.17C324.779 124.95 325.197 124.84 325.644 124.84ZM335.292 127.821C335.292 128.048 335.277 128.254 335.248 128.437H330.617C330.654 128.921 330.833 129.31 331.156 129.603C331.479 129.896 331.875 130.043 332.344 130.043C333.019 130.043 333.495 129.761 333.774 129.196H335.127C334.944 129.753 334.61 130.212 334.126 130.571C333.649 130.923 333.055 131.099 332.344 131.099C331.765 131.099 331.244 130.971 330.782 130.714C330.327 130.45 329.968 130.083 329.704 129.614C329.447 129.137 329.319 128.587 329.319 127.964C329.319 127.341 329.444 126.794 329.693 126.325C329.95 125.848 330.305 125.482 330.76 125.225C331.222 124.968 331.75 124.84 332.344 124.84C332.916 124.84 333.426 124.965 333.873 125.214C334.32 125.463 334.669 125.815 334.918 126.27C335.167 126.717 335.292 127.234 335.292 127.821ZM333.983 127.425C333.976 126.963 333.811 126.593 333.488 126.314C333.165 126.035 332.766 125.896 332.289 125.896C331.856 125.896 331.486 126.035 331.178 126.314C330.87 126.585 330.687 126.956 330.628 127.425H333.983Z"></path>
<path stroke-width="1.5" stroke="black" d="M214 123.75H214.311L214.53 123.53L217.823 120.237C217.981 120.08 218.25 120.191 218.25 120.414V133.586C218.25 133.809 217.981 133.92 217.823 133.763L214.53 130.47L214.311 130.25H214H212C211.31 130.25 210.75 129.69 210.75 129V125C210.75 124.31 211.31 123.75 212 123.75H214Z"></path>
<path stroke-linejoin="round" stroke-linecap="round" stroke-width="1.5" stroke="black" d="M221.005 123.995C221.4 124.389 221.713 124.858 221.926 125.374C222.14 125.889 222.25 126.442 222.25 127C222.25 127.558 222.14 128.111 221.926 128.626C221.713 129.142 221.4 129.611 221.005 130.005"></path>
<path stroke-linejoin="round" stroke-linecap="round" stroke-width="1.5" stroke="black" d="M223.834 121.166C224.6 121.932 225.207 122.842 225.622 123.843C226.037 124.844 226.25 125.917 226.25 127C226.25 128.083 226.037 129.156 225.622 130.157C225.207 131.158 224.6 132.068 223.834 132.834"></path>
<path stroke-linejoin="round" stroke-linecap="round" stroke-width="1.5" stroke="black" d="M226.662 118.338C227.8 119.475 228.702 120.826 229.318 122.312C229.933 123.798 230.25 125.391 230.25 127C230.25 128.609 229.933 130.202 229.318 131.688C228.702 133.174 227.8 134.525 226.662 135.662"></path>
<path fill="#0076B3" d="M242 185C242 183.895 242.895 183 244 183H448C449.105 183 450 183.895 450 185V185C450 186.105 449.105 187 448 187H244C242.895 187 242 186.105 242 185V185Z"></path>
<path fill="black" d="M207 184C207 182.895 207.895 182 209 182H210L212.793 179.207C212.926 179.074 213.105 179 213.293 179V179C213.683 179 214 179.317 214 179.707V190.293C214 190.683 213.683 191 213.293 191V191C213.105 191 212.926 190.926 212.793 190.793L210 188L211 187L213 189V181L211 183H209C208.448 183 208 183.448 208 184V186C208 186.552 208.448 187 209 187H211L210 188H209C207.895 188 207 187.105 207 186V184Z"></path>
<path fill="black" d="M219.718 191.718C219.913 191.913 220.23 191.914 220.416 191.709C222.075 189.875 223 187.485 223 185C223 182.515 222.075 180.125 220.416 178.291C220.23 178.086 219.913 178.087 219.718 178.282V178.282C219.522 178.478 219.523 178.793 219.708 178.999C221.18 180.645 222 182.78 222 185C222 187.22 221.18 189.355 219.708 191.001C219.523 191.207 219.522 191.522 219.718 191.718V191.718Z"></path>
<path fill="black" d="M217.595 189.595C217.791 189.791 218.11 189.792 218.291 189.583C219.39 188.315 220 186.689 220 185C220 183.311 219.39 181.685 218.291 180.417C218.11 180.208 217.791 180.209 217.595 180.405V180.405C217.399 180.601 217.401 180.917 217.58 181.129C218.491 182.207 218.997 183.577 218.997 185C218.997 186.423 218.491 187.793 217.58 188.871C217.401 189.083 217.399 189.399 217.595 189.595V189.595Z"></path>
<path fill="black" d="M215.475 187.475C215.67 187.67 215.99 187.672 216.159 187.454C216.701 186.756 217 185.893 217 185C217 184.107 216.701 183.244 216.159 182.546C215.99 182.328 215.67 182.33 215.475 182.525V182.525C215.28 182.72 215.284 183.035 215.444 183.26C215.803 183.765 216 184.372 216 185C216 185.628 215.803 186.235 215.444 186.74C215.284 186.965 215.28 187.28 215.475 187.475V187.475Z"></path>
<path fill-opacity="0.05" fill="black" d="M190 219C190 216.239 192.239 214 195 214H465C467.761 214 470 216.239 470 219V280H190V219Z"></path>
<path fill-opacity="0.05" fill="black" d="M190 281H470V325C470 327.761 467.761 330 465 330H195C192.239 330 190 327.761 190 325V281Z"></path>
<path fill="black" d="M258.877 243.355V251H257.623V245.764L255.291 251H254.422L252.079 245.764V251H250.825V243.355H252.178L254.862 249.35L257.535 243.355H258.877ZM266.08 247.821C266.08 248.048 266.066 248.254 266.036 248.437H261.405C261.442 248.921 261.622 249.31 261.944 249.603C262.267 249.896 262.663 250.043 263.132 250.043C263.807 250.043 264.284 249.761 264.562 249.196H265.915C265.732 249.753 265.398 250.212 264.914 250.571C264.438 250.923 263.844 251.099 263.132 251.099C262.553 251.099 262.032 250.971 261.57 250.714C261.116 250.45 260.756 250.083 260.492 249.614C260.236 249.137 260.107 248.587 260.107 247.964C260.107 247.341 260.232 246.794 260.481 246.325C260.738 245.848 261.094 245.482 261.548 245.225C262.01 244.968 262.538 244.84 263.132 244.84C263.704 244.84 264.214 244.965 264.661 245.214C265.109 245.463 265.457 245.815 265.706 246.27C265.956 246.717 266.08 247.234 266.08 247.821ZM264.771 247.425C264.764 246.963 264.599 246.593 264.276 246.314C263.954 246.035 263.554 245.896 263.077 245.896C262.645 245.896 262.274 246.035 261.966 246.314C261.658 246.585 261.475 246.956 261.416 247.425H264.771ZM266.896 247.942C266.896 247.333 267.021 246.794 267.27 246.325C267.527 245.856 267.872 245.493 268.304 245.236C268.744 244.972 269.232 244.84 269.767 244.84C270.163 244.84 270.552 244.928 270.933 245.104C271.322 245.273 271.63 245.5 271.857 245.786V242.86H273.122V251H271.857V250.087C271.652 250.38 271.366 250.622 270.999 250.813C270.64 251.004 270.226 251.099 269.756 251.099C269.228 251.099 268.744 250.967 268.304 250.703C267.872 250.432 267.527 250.058 267.27 249.581C267.021 249.097 266.896 248.551 266.896 247.942ZM271.857 247.964C271.857 247.546 271.769 247.183 271.593 246.875C271.425 246.567 271.201 246.332 270.922 246.171C270.644 246.01 270.343 245.929 270.02 245.929C269.698 245.929 269.397 246.01 269.118 246.171C268.84 246.325 268.612 246.556 268.436 246.864C268.268 247.165 268.183 247.524 268.183 247.942C268.183 248.36 268.268 248.727 268.436 249.042C268.612 249.357 268.84 249.599 269.118 249.768C269.404 249.929 269.705 250.01 270.02 250.01C270.343 250.01 270.644 249.929 270.922 249.768C271.201 249.607 271.425 249.372 271.593 249.064C271.769 248.749 271.857 248.382 271.857 247.964ZM275.407 244.136C275.18 244.136 274.989 244.059 274.835 243.905C274.681 243.751 274.604 243.56 274.604 243.333C274.604 243.106 274.681 242.915 274.835 242.761C274.989 242.607 275.18 242.53 275.407 242.53C275.627 242.53 275.814 242.607 275.968 242.761C276.122 242.915 276.199 243.106 276.199 243.333C276.199 243.56 276.122 243.751 275.968 243.905C275.814 244.059 275.627 244.136 275.407 244.136ZM276.023 244.939V251H274.769V244.939H276.023ZM277.252 247.942C277.252 247.333 277.376 246.794 277.626 246.325C277.882 245.856 278.227 245.493 278.66 245.236C279.1 244.972 279.584 244.84 280.112 244.84C280.588 244.84 281.003 244.935 281.355 245.126C281.714 245.309 282 245.54 282.213 245.819V244.939H283.478V251H282.213V250.098C282 250.384 281.71 250.622 281.344 250.813C280.977 251.004 280.559 251.099 280.09 251.099C279.569 251.099 279.092 250.967 278.66 250.703C278.227 250.432 277.882 250.058 277.626 249.581C277.376 249.097 277.252 248.551 277.252 247.942ZM282.213 247.964C282.213 247.546 282.125 247.183 281.949 246.875C281.78 246.567 281.556 246.332 281.278 246.171C280.999 246.01 280.698 245.929 280.376 245.929C280.053 245.929 279.752 246.01 279.474 246.171C279.195 246.325 278.968 246.556 278.792 246.864C278.623 247.165 278.539 247.524 278.539 247.942C278.539 248.36 278.623 248.727 278.792 249.042C278.968 249.357 279.195 249.599 279.474 249.768C279.76 249.929 280.06 250.01 280.376 250.01C280.698 250.01 280.999 249.929 281.278 249.768C281.556 249.607 281.78 249.372 281.949 249.064C282.125 248.749 282.213 248.382 282.213 247.964ZM290.325 249.878L292.041 244.939H293.372L291.062 251H289.566L287.267 244.939H288.609L290.325 249.878ZM296.949 251.099C296.377 251.099 295.86 250.971 295.398 250.714C294.936 250.45 294.573 250.083 294.309 249.614C294.045 249.137 293.913 248.587 293.913 247.964C293.913 247.348 294.049 246.802 294.32 246.325C294.591 245.848 294.962 245.482 295.431 245.225C295.9 244.968 296.425 244.84 297.004 244.84C297.583 244.84 298.108 244.968 298.577 245.225C299.046 245.482 299.417 245.848 299.688 246.325C299.959 246.802 300.095 247.348 300.095 247.964C300.095 248.58 299.956 249.126 299.677 249.603C299.398 250.08 299.017 250.45 298.533 250.714C298.056 250.971 297.528 251.099 296.949 251.099ZM296.949 250.01C297.272 250.01 297.572 249.933 297.851 249.779C298.137 249.625 298.368 249.394 298.544 249.086C298.72 248.778 298.808 248.404 298.808 247.964C298.808 247.524 298.724 247.154 298.555 246.853C298.386 246.545 298.163 246.314 297.884 246.16C297.605 246.006 297.305 245.929 296.982 245.929C296.659 245.929 296.359 246.006 296.08 246.16C295.809 246.314 295.592 246.545 295.431 246.853C295.27 247.154 295.189 247.524 295.189 247.964C295.189 248.617 295.354 249.123 295.684 249.482C296.021 249.834 296.443 250.01 296.949 250.01ZM302.589 242.86V251H301.335V242.86H302.589ZM309.724 244.939V251H308.47V250.285C308.272 250.534 308.012 250.732 307.689 250.879C307.374 251.018 307.036 251.088 306.677 251.088C306.2 251.088 305.771 250.989 305.39 250.791C305.016 250.593 304.719 250.3 304.499 249.911C304.286 249.522 304.18 249.053 304.18 248.503V244.939H305.423V248.316C305.423 248.859 305.559 249.277 305.83 249.57C306.101 249.856 306.472 249.999 306.941 249.999C307.41 249.999 307.781 249.856 308.052 249.57C308.331 249.277 308.47 248.859 308.47 248.316V244.939H309.724ZM318.716 244.84C319.192 244.84 319.618 244.939 319.992 245.137C320.373 245.335 320.67 245.628 320.883 246.017C321.103 246.406 321.213 246.875 321.213 247.425V251H319.97V247.612C319.97 247.069 319.834 246.655 319.563 246.369C319.291 246.076 318.921 245.929 318.452 245.929C317.982 245.929 317.608 246.076 317.33 246.369C317.058 246.655 316.923 247.069 316.923 247.612V251H315.68V247.612C315.68 247.069 315.544 246.655 315.273 246.369C315.001 246.076 314.631 245.929 314.162 245.929C313.692 245.929 313.318 246.076 313.04 246.369C312.768 246.655 312.633 247.069 312.633 247.612V251H311.379V244.939H312.633V245.632C312.838 245.383 313.098 245.188 313.414 245.049C313.729 244.91 314.066 244.84 314.426 244.84C314.91 244.84 315.342 244.943 315.724 245.148C316.105 245.353 316.398 245.65 316.604 246.039C316.787 245.672 317.073 245.383 317.462 245.17C317.85 244.95 318.268 244.84 318.716 244.84ZM328.363 247.821C328.363 248.048 328.349 248.254 328.319 248.437H323.688C323.725 248.921 323.905 249.31 324.227 249.603C324.55 249.896 324.946 250.043 325.415 250.043C326.09 250.043 326.567 249.761 326.845 249.196H328.198C328.015 249.753 327.681 250.212 327.197 250.571C326.721 250.923 326.127 251.099 325.415 251.099C324.836 251.099 324.315 250.971 323.853 250.714C323.399 250.45 323.039 250.083 322.775 249.614C322.519 249.137 322.39 248.587 322.39 247.964C322.39 247.341 322.515 246.794 322.764 246.325C323.021 245.848 323.377 245.482 323.831 245.225C324.293 244.968 324.821 244.84 325.415 244.84C325.987 244.84 326.497 244.965 326.944 245.214C327.392 245.463 327.74 245.815 327.989 246.27C328.239 246.717 328.363 247.234 328.363 247.821ZM327.054 247.425C327.047 246.963 326.882 246.593 326.559 246.314C326.237 246.035 325.837 245.896 325.36 245.896C324.928 245.896 324.557 246.035 324.249 246.314C323.941 246.585 323.758 246.956 323.699 247.425H327.054Z"></path>
<path stroke-width="1.5" stroke="black" d="M214 243.75H214.311L214.53 243.53L217.823 240.237C217.981 240.08 218.25 240.191 218.25 240.414V253.586C218.25 253.809 217.981 253.92 217.823 253.763L214.53 250.47L214.311 250.25H214H212C211.31 250.25 210.75 249.69 210.75 249V245C210.75 244.31 211.31 243.75 212 243.75H214Z"></path>
<path stroke-linejoin="round" stroke-linecap="round" stroke-width="1.5" stroke="black" d="M221.005 243.995C221.4 244.389 221.713 244.858 221.926 245.374C222.14 245.889 222.25 246.442 222.25 247C222.25 247.558 222.14 248.111 221.926 248.626C221.713 249.142 221.4 249.611 221.005 250.005"></path>
<path stroke-linejoin="round" stroke-linecap="round" stroke-width="1.5" stroke="black" d="M223.834 241.166C224.6 241.932 225.207 242.842 225.622 243.843C226.037 244.844 226.25 245.917 226.25 247C226.25 248.083 226.037 249.156 225.622 250.157C225.207 251.158 224.6 252.068 223.834 252.834"></path>
<path stroke-linejoin="round" stroke-linecap="round" stroke-width="1.5" stroke="black" d="M226.662 238.338C227.8 239.475 228.702 240.826 229.318 242.312C229.933 243.798 230.25 245.391 230.25 247C230.25 248.609 229.933 250.202 229.318 251.688C228.702 253.174 227.8 254.525 226.662 255.662"></path>
<path fill="#0076B3" d="M242 305C242 303.895 242.895 303 244 303H448C449.105 303 450 303.895 450 305V305C450 306.105 449.105 307 448 307H244C242.895 307 242 306.105 242 305V305Z"></path>
<path fill="black" d="M207 304C207 302.895 207.895 302 209 302H210L212.793 299.207C212.926 299.074 213.105 299 213.293 299V299C213.683 299 214 299.317 214 299.707V310.293C214 310.683 213.683 311 213.293 311V311C213.105 311 212.926 310.926 212.793 310.793L210 308L211 307L213 309V301L211 303H209C208.448 303 208 303.448 208 304V306C208 306.552 208.448 307 209 307H211L210 308H209C207.895 308 207 307.105 207 306V304Z"></path>
<path fill="black" d="M219.718 311.718C219.913 311.913 220.23 311.914 220.416 311.709C222.075 309.875 223 307.485 223 305C223 302.515 222.075 300.125 220.416 298.291C220.23 298.086 219.913 298.087 219.718 298.282V298.282C219.522 298.478 219.523 298.793 219.708 298.999C221.18 300.645 222 302.78 222 305C222 307.22 221.18 309.355 219.708 311.001C219.523 311.207 219.522 311.522 219.718 311.718V311.718Z"></path>
<path fill="black" d="M217.595 309.595C217.791 309.791 218.11 309.792 218.291 309.583C219.39 308.315 220 306.689 220 305C220 303.311 219.39 301.685 218.291 300.417C218.11 300.208 217.791 300.209 217.595 300.405V300.405C217.399 300.601 217.401 300.917 217.58 301.129C218.491 302.207 218.997 303.577 218.997 305C218.997 306.423 218.491 307.793 217.58 308.871C217.401 309.083 217.399 309.399 217.595 309.595V309.595Z"></path>
<path fill="black" d="M215.475 307.475C215.67 307.67 215.99 307.672 216.159 307.454C216.701 306.756 217 305.893 217 305C217 304.107 216.701 303.244 216.159 302.546C215.99 302.328 215.67 302.33 215.475 302.525V302.525C215.28 302.72 215.284 303.035 215.444 303.26C215.803 303.765 216 304.372 216 305C216 305.628 215.803 306.235 215.444 306.74C215.284 306.965 215.28 307.28 215.475 307.475V307.475Z"></path>
</svg>
