<svg xmlns="http://www.w3.org/2000/svg" fill="none" viewBox="0 0 52 10" height="10" width="52">
<rect fill="black" rx="3" height="6" width="6" y="2" x="16"></rect>
<rect fill="#808080" rx="2" height="4" width="4" y="3" x="31"></rect>
<path fill="#808080" d="M1.5 5.86603C0.833335 5.48113 0.833334 4.51887 1.5 4.13397L6 1.5359C6.66667 1.151 7.5 1.63212 7.5 2.40192L7.5 7.59808C7.5 8.36788 6.66667 8.849 6 8.4641L1.5 5.86603Z"></path>
<path fill="black" d="M50.5 4.13397C51.1667 4.51887 51.1667 5.48112 50.5 5.86603L46 8.4641C45.3333 8.849 44.5 8.36788 44.5 7.59808L44.5 2.40192C44.5 1.63212 45.3333 1.151 46 1.5359L50.5 4.13397Z"></path>
</svg>
