<svg xmlns="http://www.w3.org/2000/svg" fill="none" viewBox="0 0 114 37" height="37" width="114">
<rect fill-opacity="0.05" fill="white" rx="5" height="37" width="114"></rect>
<path fill="white" d="M50.2688 18.161C50.2688 17.413 50.4411 16.742 50.7858 16.148C51.1378 15.554 51.6108 15.092 52.2048 14.762C52.8061 14.4247 53.4625 14.256 54.1738 14.256C54.9878 14.256 55.7102 14.4577 56.3408 14.861C56.9788 15.257 57.4408 15.8217 57.7268 16.555H56.2198C56.0218 16.1517 55.7468 15.851 55.3948 15.653C55.0428 15.455 54.6358 15.356 54.1738 15.356C53.6678 15.356 53.2168 15.4697 52.8208 15.697C52.4248 15.9243 52.1131 16.2507 51.8858 16.676C51.6658 17.1013 51.5558 17.5963 51.5558 18.161C51.5558 18.7257 51.6658 19.2207 51.8858 19.646C52.1131 20.0713 52.4248 20.4013 52.8208 20.636C53.2168 20.8633 53.6678 20.977 54.1738 20.977C54.6358 20.977 55.0428 20.878 55.3948 20.68C55.7468 20.482 56.0218 20.1813 56.2198 19.778H57.7268C57.4408 20.5113 56.9788 21.076 56.3408 21.472C55.7102 21.868 54.9878 22.066 54.1738 22.066C53.4551 22.066 52.7988 21.901 52.2048 21.571C51.6108 21.2337 51.1378 20.768 50.7858 20.174C50.4411 19.58 50.2688 18.909 50.2688 18.161ZM60.4486 15.367V17.611H63.0886V18.634H60.4486V20.977H63.4186V22H59.1946V14.344H63.4186V15.367H60.4486Z"></path>
</svg>
