<svg xmlns="http://www.w3.org/2000/svg" fill="none" viewBox="0 0 44 24" height="24" width="44">
<path fill-opacity="0.5" fill="#FF0000" d="M2 12C2 6.47715 6.47715 2 12 2H32C37.5228 2 42 6.47715 42 12V12C42 17.5228 37.5228 22 32 22H12C6.47715 22 2 17.5228 2 12V12Z"></path>
<path stroke-width="2" stroke-opacity="0.2" stroke="#FF0000" d="M32 1H12C5.92487 1 1 5.92487 1 12C1 18.0751 5.92487 23 12 23H32C38.0751 23 43 18.0751 43 12C43 5.92487 38.0751 1 32 1Z"></path>
<path fill="white" d="M15.2839 9.412C15.3319 8.668 15.6159 8.088 16.1359 7.672C16.6639 7.256 17.3359 7.048 18.1519 7.048C18.7119 7.048 19.1959 7.148 19.6039 7.348C20.0119 7.548 20.3199 7.82 20.5279 8.164C20.7359 8.508 20.8399 8.896 20.8399 9.328C20.8399 9.824 20.7079 10.248 20.4439 10.6C20.1799 10.952 19.8639 11.188 19.4959 11.308V11.356C19.9679 11.5 20.3359 11.764 20.5999 12.148C20.8639 12.524 20.9959 13.008 20.9959 13.6C20.9959 14.072 20.8879 14.492 20.6719 14.86C20.4559 15.228 20.1359 15.52 19.7119 15.736C19.2879 15.944 18.7799 16.048 18.1879 16.048C17.3239 16.048 16.6119 15.828 16.0519 15.388C15.4999 14.94 15.2039 14.3 15.1639 13.468H16.4839C16.5159 13.892 16.6799 14.24 16.9759 14.512C17.2719 14.776 17.6719 14.908 18.1759 14.908C18.6639 14.908 19.0399 14.776 19.3039 14.512C19.5679 14.24 19.6999 13.892 19.6999 13.468C19.6999 12.908 19.5199 12.512 19.1599 12.28C18.8079 12.04 18.2639 11.92 17.5279 11.92H17.2159V10.792H17.5399C18.1879 10.784 18.6799 10.676 19.0159 10.468C19.3599 10.26 19.5319 9.932 19.5319 9.484C19.5319 9.1 19.4079 8.796 19.1599 8.572C18.9119 8.34 18.5599 8.224 18.1039 8.224C17.6559 8.224 17.3079 8.34 17.0599 8.572C16.8119 8.796 16.6639 9.076 16.6159 9.412H15.2839ZM27.1369 9.28C27.0489 8.912 26.8889 8.636 26.6569 8.452C26.4249 8.268 26.1009 8.176 25.6849 8.176C25.0529 8.176 24.5809 8.42 24.2689 8.908C23.9569 9.388 23.7929 10.188 23.7769 11.308C23.9849 10.956 24.2889 10.684 24.6889 10.492C25.0889 10.3 25.5209 10.204 25.9849 10.204C26.5129 10.204 26.9769 10.32 27.3769 10.552C27.7849 10.776 28.1009 11.104 28.3249 11.536C28.5569 11.968 28.6729 12.484 28.6729 13.084C28.6729 13.644 28.5609 14.144 28.3369 14.584C28.1209 15.024 27.7969 15.372 27.3649 15.628C26.9329 15.876 26.4129 16 25.8049 16C24.9809 16 24.3329 15.82 23.8609 15.46C23.3969 15.092 23.0689 14.576 22.8769 13.912C22.6929 13.248 22.6009 12.42 22.6009 11.428C22.6009 8.5 23.6329 7.036 25.6969 7.036C26.4969 7.036 27.1249 7.252 27.5809 7.684C28.0449 8.116 28.3169 8.648 28.3969 9.28H27.1369ZM25.6849 11.356C25.1969 11.356 24.7809 11.504 24.4369 11.8C24.1009 12.088 23.9329 12.508 23.9329 13.06C23.9329 13.612 24.0889 14.052 24.4009 14.38C24.7209 14.7 25.1649 14.86 25.7329 14.86C26.2369 14.86 26.6329 14.704 26.9209 14.392C27.2169 14.08 27.3649 13.664 27.3649 13.144C27.3649 12.6 27.2209 12.168 26.9329 11.848C26.6529 11.52 26.2369 11.356 25.6849 11.356Z"></path>
</svg>
