<svg version="1.1" xmlns="http://www.w3.org/2000/svg" xmlns:xlink="http://www.w3.org/1999/xlink" width="40" height="20" viewBox="0,0,40,20"><g transform="translate(-220,-167)"><g data-paper-data="{&quot;isPaintingLayer&quot;:true}" fill-rule="nonzero" stroke="none" stroke-width="1" stroke-linecap="butt" stroke-linejoin="miter" stroke-miterlimit="10" stroke-dasharray="" stroke-dashoffset="0" style="mix-blend-mode: normal"><path d="M220,187v-20h40v20z" fill="none"></path><path d="M246.936,174.06c-0.216,-0.416 -0.516,-0.728 -0.9,-0.936c-0.384,-0.216 -0.828,-0.324 -1.332,-0.324c-0.552,0 -1.044,0.124 -1.476,0.372c-0.432,0.248 -0.772,0.6 -1.02,1.056c-0.24,0.456 -0.36,0.984 -0.36,1.584c0,0.6 0.12,1.132 0.36,1.596c0.248,0.456 0.588,0.808 1.02,1.056c0.432,0.248 0.924,0.372 1.476,0.372c0.744,0 1.348,-0.208 1.812,-0.624c0.464,-0.416 0.748,-0.98 0.852,-1.692h-3.132v-1.092h4.596v1.068c-0.088,0.648 -0.32,1.244 -0.696,1.788c-0.368,0.544 -0.852,0.98 -1.452,1.308c-0.592,0.32 -1.252,0.48 -1.98,0.48c-0.784,0 -1.5,-0.18 -2.148,-0.54c-0.648,-0.368 -1.164,-0.876 -1.548,-1.524c-0.376,-0.648 -0.564,-1.38 -0.564,-2.196c0,-0.816 0.188,-1.548 0.564,-2.196c0.384,-0.648 0.9,-1.152 1.548,-1.512c0.656,-0.368 1.372,-0.552 2.148,-0.552c0.888,0 1.676,0.22 2.364,0.66c0.696,0.432 1.2,1.048 1.512,1.848z" fill="#ff0000"></path></g></g></svg>