<svg xmlns="http://www.w3.org/2000/svg" fill="none" viewBox="0 0 960 130" height="130" width="960">
<rect fill="#FFC641" height="130" width="960"></rect>
<path fill="#50F539" d="M116 94.4995L128.5 96.9995V104.999L116 102.499V94.4995Z"></path>
<path fill="#3BC52A" d="M128.5 96.9995L131.5 90.9995V98.9995L128.5 104.999V96.9995Z"></path>
<path fill="#50F539" d="M110 79.4995L132.5 83.9995V99.9995L110 95.4995V79.4995Z"></path>
<path fill="#3BC52A" d="M132.5 83.9995L137.5 73.9995V89.9995L132.5 99.9995V83.9995Z"></path>
<path fill="#7CFF57" d="M115 69.5001L137.5 73.9995L132.5 83.9982L110 79.4995L115 69.5001Z"></path>
<path fill="#3BC52A" d="M112.5 89.9996L113.409 90.1814L112.5 91.9996V89.9996Z"></path>
<path fill="#7CFF57" d="M112.5 91.9996L113.409 90.1814L112.5 89.9996L130 93.4996L130 95.4996L112.5 91.9996Z"></path>
<path fill="#ECFFFB" d="M115 90.4996L120 91.4996V93.4996L115 92.4996V90.4996Z"></path>
<path fill="#ECFFFB" d="M122.5 91.9996L127.5 92.9996V94.9996L122.5 93.9996V91.9996Z"></path>
<path fill="#B5FABF" d="M120 91.4996L120.909 91.6814L120 93.4996V91.4996Z"></path>
<path fill="#B5FABF" d="M127.5 92.9996L128.409 93.1814L127.5 94.9996V92.9996Z"></path>
<path fill="#ECFFFB" d="M111.5 83.9996L119 85.4996V91.4996L111.5 89.9996V83.9996Z"></path>
<path fill="#ECFFFB" d="M121.5 85.9996L129 87.4996V93.4996L121.5 91.9996V85.9996Z"></path>
<path fill="white" d="M112.5 81.9996L120 83.4996L119 85.4996L111.5 83.9996L112.5 81.9996Z"></path>
<path fill="white" d="M122.5 83.9996L130 85.4996L129 87.4996L121.5 85.9996L122.5 83.9996Z"></path>
<path fill="#B5FABF" d="M120 83.4996V89.4996L119 91.4996V85.4996L120 83.4996Z"></path>
<path fill="#B5FABF" d="M130 85.4996V91.4996L129 93.4996V87.4996L130 85.4996Z"></path>
<path fill="#3ABF25" d="M116 102.499L128.5 104.999V103L116 100.5V102.499Z"></path>
<path fill="#279D15" d="M128.5 104.999L131.5 98.9995L131.136 99.7267L130.227 99.5449L128.5 103V104.999Z"></path>
<path fill="#423522" d="M114 86.4996L116.5 86.9996V88.9996L114 88.4996V86.4996Z"></path>
<path fill="#423522" d="M124 88.4995L126.5 88.9995V90.9995L124 90.4995V88.4995Z"></path>
<path fill="#3ABF25" d="M122 73.5032L124.5 74.0032V78.0032L122 77.5032V73.5032Z"></path>
<path fill="#279D15" d="M124.5 74.0032L125.5 72.0032V76.0032L124.5 78.0032V74.0032Z"></path>
<path fill="#7FFF4A" d="M118.5 69.0027L126 70.5027V76.5027L118.5 75.0027V69.0027Z"></path>
<path fill="#5DD536" d="M126 70.5027L129 64.5027V70.5027L126 76.5027V70.5027Z"></path>
<path fill="#C1FF6E" d="M121.5 63L129 64.5L126 70.5027L118.5 69.0027L121.5 63Z"></path>
<path fill="#5DD536" d="M129.5 103L130.5 100.999V103L129.5 105V103Z"></path>
<path fill="#7FFF4A" d="M129.5 103V105L128.591 104.818L129.5 103Z"></path>
<path fill="#721523" d="M359 99.0019L364 100.002V104.002L359 103.002V99.0019Z"></path>
<path fill="#410C18" d="M364 100.002L366 96.0004V100.002L364 104.002V100.002Z"></path>
<path fill="#8787B7" d="M359 95.0004L364 96.0019V100.002L359 99.0019V95.0004Z"></path>
<path fill="#4F507E" d="M364 96.0019L366 92.0005V96.0004L364 100.002V96.0019Z"></path>
<path fill="#204F31" d="M359 91.0004L364 92.0004V96.0019L359 95.0004V91.0004Z"></path>
<path fill="#122E22" d="M364 92.0004L366 88.0005V92.0005L364 96.0019V92.0004Z"></path>
<path fill="#8787B7" d="M359 87.0025L364 87.9998V92.0004L359 91.0004V87.0025Z"></path>
<path fill="#4F507E" d="M364 87.9998L366 83.9999V88.0005L364 92.0004V87.9998Z"></path>
<path fill="#721523" d="M359 83.0025L364 84.0008V87.9998L359 87.0025V83.0025Z"></path>
<path fill="#410C18" d="M364 84.0008L366 79.9993V83.9999L364 87.9998V84.0008Z"></path>
<path fill="#8787B7" d="M359 78.9993L364 80.0008V84.0008L359 83.0025V78.9993Z"></path>
<path fill="#4F507E" d="M364 80.0008L366 75.9994V79.9993L364 84.0008V80.0008Z"></path>
<path fill="#204F31" d="M359 74.9993L364 75.9993V80.0008L359 78.9993V74.9993Z"></path>
<path fill="#122E22" d="M364 75.9993L366 71.9994V75.9994L364 80.0008V75.9993Z"></path>
<path fill="#8787B7" d="M359 71.0011L364 72.0015V75.9993L359 74.9993V71.0011Z"></path>
<path fill="#4F507E" d="M364 72.0015L366 68.0016V71.9994L364 75.9993V72.0015Z"></path>
<path fill="#F7F3FF" d="M359 71.0011L361 67.002L366 68.0016L364 72.0015L359 71.0011Z"></path>
<path fill="#721523" d="M354 69.9983L359 70.9983V74.9993L354 73.9983V69.9983Z"></path>
<path fill="#CD2738" d="M354 69.9983L356 65.9988L361 66.9984L359 70.9983L354 69.9983Z"></path>
<path fill="#F7F3FF" d="M349 68.9971L351 64.9976L356 65.9972L354 69.9971L349 68.9971Z"></path>
<path fill="#8787B7" d="M349 68.9999L354 70.0003V73.9983L349 72.9981V68.9999Z"></path>
<path fill="#204F31" d="M344 67.9995L349 68.9999V72.9995L344 71.9995V67.9995Z"></path>
<path fill="#3A8D4E" d="M344 67.9995L346 64L351 64.9996L349 68.9999L344 67.9995Z"></path>
<path fill="#8787B7" d="M344 71.9976L349 72.9981V76.9959L344 75.9957V71.9976Z"></path>
<path fill="#721523" d="M344 75.9957L349 76.9959V80.9967L344 79.9957V75.9957Z"></path>
<path fill="#410C18" d="M349 76.9959L350.817 73.3615L351 73.3981V76.9959L349 80.9967V76.9959Z"></path>
<path fill="#4F507E" d="M349 72.9995L350.817 73.3615L349 76.9972V72.9995Z"></path>
<path fill="#946A52" d="M281.25 83.9998L308.75 89.4999V112.5L281.25 107V83.9998Z"></path>
<path fill="#553D38" d="M308.75 89.4999L323.75 59.5V82.5L308.75 112.5V89.4999Z"></path>
<path fill="#FFBF81" d="M296.25 54L323.75 59.5L308.75 89.4999L281.25 83.9998L296.25 54Z"></path>
<path fill="#D46841" d="M314.25 82.5002L318 83.2502L315 89.2501L311.25 88.5001L314.25 82.5002Z"></path>
<path fill="#763927" d="M311.25 88.5001L315 89.2501V97.2501L311.25 96.5001V88.5001Z"></path>
<path fill="#43221B" d="M315 89.2501L318 83.2502V91.2502L315 97.2501V89.2501Z"></path>
<path fill="#763927" d="M284.75 107.7L289.75 108.7V110.5L284.75 109.5V107.7Z"></path>
<path fill="#43221B" d="M289.75 108.7L290.568 108.864L289.75 110.5V108.7Z"></path>
<path fill="#763927" d="M302.25 111.2L307.25 112.2V114L302.25 113V111.2Z"></path>
<path fill="#43221B" d="M307.25 112.2L308.068 112.364L307.25 114V112.2Z"></path>
<path fill="#D46841" d="M309.5 56.2505L314.5 57.2505L314.318 57.6137L309.318 56.6137L309.5 56.2505Z"></path>
<path fill="#43221B" d="M314.318 57.6137L314.5 57.2505V57.65L314.318 57.6137Z"></path>
<path fill="#D46841" d="M283 76.2504L284.932 76.6367L281.932 82.6366L280 82.2502L283 76.2504Z"></path>
<path fill="#763927" d="M280 82.2502L281.932 82.6366L281.25 83.9998V90.5002L280 90.2502V82.2502Z"></path>
<path fill="#D46841" d="M291.25 87L298.75 88.5L297.75 90.5L290.25 89L291.25 87Z"></path>
<path fill="#43221B" d="M297.75 90.5L298.75 88.5V92.5001L297.75 94.25V90.5Z"></path>
<path fill="#832B21" d="M293.25 88.5506L295.75 89.0506L295.25 90L292.75 89.5L293.25 88.5506Z"></path>
<path fill="#763927" d="M290.25 89L297.75 90.5V94.25L290.25 92.75V89Z"></path>
<path fill="#450E25" d="M292.75 89.5L295.25 90V92L292.75 91.5V89.5Z"></path>
<path fill="#481818" d="M303.75 90.5002L306.25 91.0002V93.0002L303.75 92.5002V90.5002Z"></path>
<path fill="#481818" d="M283.75 86.5L286.25 87V89L283.75 88.5V86.5Z"></path>
<path fill="#FFFFFE" d="M283.75 91.5505L306.25 96.0505L305.25 97.9999L282.75 93.4998L283.75 91.5505Z"></path>
<path fill="#5A577A" d="M305.25 97.9999L306.25 96.0505V108L305.25 109.75V97.9999Z"></path>
<path fill="#9794A9" d="M282.75 93.4998L305.25 97.9999V109.75L298.25 108.35L282.75 105.25V93.4998Z"></path>
<path fill="#481818" d="M285.25 98L287.75 98.5V100.5L285.25 100V98Z"></path>
<path fill="#481818" d="M300.25 101L302.75 101.5V103.5L300.25 103V101Z"></path>
<path fill="#F8B775" d="M290.25 98L297.75 99.5L296.75 101.5L289.25 100L290.25 98Z"></path>
<path fill="#503937" d="M296.75 101.5L297.75 99.5V102.75L296.75 104.5V101.5Z"></path>
<path fill="#832B21" d="M292.25 99.5506L294.75 100.051L294.25 101L291.75 100.5L292.25 99.5506Z"></path>
<path fill="#9A6B37" d="M289.25 100L296.75 101.5V104.5L289.25 103V100Z"></path>
<path fill="#450E25" d="M291.75 100.5L294.25 101V103L291.75 102.5V100.5Z"></path>
<path fill="#8F8579" d="M282.75 97.5L285.25 98V100L287.75 100.5V98.5L282.75 97.5V95.5L290.25 97V98L289.25 100V102.8L282.75 101.5V97.5Z"></path>
<path fill="#9A6B37" d="M291 103.35L296 104.35V106.25L291 105.25V103.35Z"></path>
<path fill="#503937" d="M296 104.35L296.5 104.45V105.5L296 106.25V104.35Z"></path>
<path fill="#9C374F" d="M292.25 103.6L294.75 104.1V105L292.25 104.5V103.6Z"></path>
<path fill="#5D5D75" d="M292.75 107.25L295.25 107.75V109.75L292.75 109.25V107.25Z"></path>
<path fill="#40405A" d="M295.25 107.75L295.75 107.85V108.75L295.25 109.75V107.75Z"></path>
<path fill="#717092" d="M290.75 106.85L292.75 107.25V109.25L295.25 109.75L295.75 108.75V107.85L298.25 108.35V114.25L297 114V111L292 110V112L297 113V114L290.75 112.75V106.85Z"></path>
<path fill="#40405A" d="M298.25 108.35L298.75 108.45V113.25L298.25 114.25V108.35Z"></path>
<path fill="#40405A" d="M292 110L292.5 110.1V111L292 112V110Z"></path>
<path fill="#CFC6E3" d="M292.5 111L297 111.9V113L292 112L292.5 111Z"></path>
<path fill="#CC1515" d="M160.167 64.3332L175.167 67.3331L175.167 71.3331L173.834 73.9998V75.3335L175.167 72.6669V73.9998V83.3331L160.167 80.3331V64.3332Z"></path>
<path fill="#7F0D0D" d="M175.167 67.3331L179.167 59.3332L179.167 60.6665L180.501 58.0003V59.3332L181.167 57.9999V71.3331L175.167 83.3331V73.9998V72.6669L173.834 75.3335V73.9998L175.167 71.3331L175.167 67.3331Z"></path>
<path fill="#FF1B1B" d="M166.167 55L181.167 57.9999L180.501 59.3332V58.0003L179.167 60.6665L179.167 59.3332L175.167 67.3331L160.167 64.3332L164.167 56.3333L164.773 56.4548L165.5 55.0003L166.106 55.1215L166.167 55Z"></path>
<path fill="#FFB88C" d="M160.167 70.9999V72.6003L173.834 75.3335L174.561 73.8786L175.167 73.9998V83.3331L160.167 80.3331V70.9999Z"></path>
<path fill="#AA6F5A" d="M175.167 73.9998L179.167 65.9999V67.3331L180.501 64.6666V66.0003L181.167 64.6666V71.3331L175.167 83.3331V73.9998Z"></path>
<path fill="#CCCCCC" d="M165.167 66.667L170.167 67.667V70.3336L165.167 69.3336V66.667Z"></path>
<path fill="#FF1B1B" d="M160.167 68.3333L175.167 71.3331L173.834 73.9998L158.834 70.9998L160.167 68.3333Z"></path>
<path fill="#CC1515" d="M158.834 70.9998L173.834 73.9998V75.3335L158.834 72.3336V70.9998Z"></path>
<path fill="#AA6F5A" d="M182.5 69.3336V73.3336L181.167 76.0002V72.0002L182.5 69.3336Z"></path>
<path fill="#FFB88C" d="M181.167 72.0002V76.0002L177.834 75.3335V71.3336L181.167 72.0002Z"></path>
<path fill="#FFD9B1" d="M182.5 69.3336L181.167 72.0002L177.834 71.3336L179.167 68.6669L182.5 69.3336Z"></path>
<path fill="#B17762" d="M179.501 73.0002V74.3336L177.834 74.0002V72.6669L179.501 73.0002Z"></path>
<path fill="#32120E" d="M179.167 65.9999V67.3331L180.501 64.6666V66.0003L181.167 64.6666V69.067L179.167 68.6669L177.834 71.3336V72.6669L177.167 73.9998V69.9999L179.167 65.9999Z"></path>
<path fill="#AA6F5A" d="M170.167 76.9998V79.6664L168.834 82.3331V79.6664L170.167 76.9998Z"></path>
<path fill="#FFB88C" d="M168.834 79.6664V82.3331L163.834 81.3331V78.6664L168.834 79.6664Z"></path>
<path fill="#FFD9B1" d="M170.167 76.9998L168.834 79.6664L163.834 78.6664L165.167 75.9998L170.167 76.9998Z"></path>
<path fill="#CCCCCC" d="M171.834 74.9336V78.6669L170.167 78.3334V76.9998L168.501 76.6669V74.267L171.834 74.9336Z"></path>
<path fill="#CCCCCC" d="M166.834 73.9337V76.3335L165.167 76.0001V75.9998L164.561 77.2123L163.501 77.0002V73.267L166.834 73.9337Z"></path>
<path fill="#2766D1" d="M165.167 73.9998L166.834 74.3336V76.3335L165.167 75.9998V73.9998Z"></path>
<path fill="#2766D1" d="M168.501 74.6669L170.168 75.0007V77.0006L168.501 76.6669V74.6669Z"></path>
<path fill="#CC1515" d="M161.5 82.0663L163.167 82.3997L163.834 81.3331L168.834 82.3331L169.5 81L171.168 81.3335V82.6668V84.0002L171.774 82.788L172.834 83.0002L172.895 82.8786L175.167 83.3331L175.894 81.879L176.5 82.0001V99.3334L161.5 96.3334V82.0663Z"></path>
<path fill="#7F0D0D" d="M176.5 82.0001L178.985 77.0305L181.167 76.0002L180.5 102L177.833 107.333V96.6668L176.5 99.3334V82.0001Z"></path>
<path fill="#FF1B1B" d="M181.167 76.0002L178.985 77.0305L176.5 82.0001L175.894 81.879L175.167 83.3331L179.046 75.576L181.167 76.0002Z"></path>
<path fill="#1E56D4" d="M176.5 86.0001V99.3334L161.5 96.3334V83.0001L163.168 83.3335L163.167 82.3997L166.501 83.0668V83.3332V84.0002L171.501 85.0002V84.0665L171.501 83.3331L171.774 82.788L172.834 83.0002L172.895 82.8786L175.167 83.3331L174.834 83.2665V83.999V85.6668L176.5 86.0001Z"></path>
<path fill="#FEDD34" d="M166.501 84.0002V86.6668L163.168 86.0002V83.3335L166.501 84.0002Z"></path>
<path fill="#FEDD34" d="M174.834 85.6668V88.3335L171.501 87.6668V85.0002L174.834 85.6668Z"></path>
<path fill="#12349E" d="M181.167 76.0002L180.5 102L177.833 107.333V96.6668L176.5 99.3338V86.0006L179.834 79.3335V78.0002L180.198 77.273L181.167 76.0002Z"></path>
<path fill="#1E56D4" d="M171.166 98.2666L176.5 99.3338L177.833 96.6668V107.333L171.166 106V98.2666Z"></path>
<path fill="#1E56D4" d="M162.833 96.6L169.5 97.9338V105.666L162.833 104.332V96.6Z"></path>
<path fill="#12349E" d="M169.5 97.9338L171.166 98.2666L171.168 102.333L169.5 105.666V97.9338Z"></path>
<path fill="#502D2C" d="M180.5 102V106L176.5 114V111.333L177.833 108.667V107.333L180.5 102Z"></path>
<path fill="#874633" d="M177.833 107.333V108.667L176.5 111.333V114L169.833 112.666V110L171.166 107.333V106L177.833 107.333Z"></path>
<path fill="#D37753" d="M177.833 108.667L176.5 111.333L169.833 110L171.166 107.333L177.833 108.667Z"></path>
<path fill="#502D2C" d="M171.168 102.333L171.166 106.335L168.167 112.333V109.667L169.501 107V105.667L171.168 102.333Z"></path>
<path fill="#874633" d="M169.501 105.667V107L168.167 109.667V112.333L161.5 111V108.333L162.834 105.667V104.333L169.501 105.667Z"></path>
<path fill="#D37753" d="M169.501 107L168.167 109.667L161.5 108.333L162.834 105.667L169.501 107Z"></path>
<path fill="#7F0D0D" d="M185.668 76.5002V88.5001L183.668 92.5001V80.5002L185.668 76.5002Z"></path>
<path fill="#CC1515" d="M183.668 80.5002V92.5001L178.668 91.4996V83.4996L177.834 83.3341V79.3341L183.668 80.5002Z"></path>
<path fill="#FF1B1B" d="M185.668 76.5002L183.668 80.5002L177.834 79.3341L178.985 77.0305L181.167 76.0002L181.348 75.6371L185.668 76.5002Z"></path>
<path fill="#7F7F7F" d="M185.668 88.5001V92.5001L183.668 96.5001V92.5001L185.668 88.5001Z"></path>
<path fill="#CBCBCB" d="M183.668 92.5001V96.5001L178.668 95.4995V91.4996L183.668 92.5001Z"></path>
<path fill="#261F24" d="M161.168 78.0002L162.834 78.3335V79.6669L163.834 79.8668V81.3331L168.834 82.3331L169.5 81L171.168 81.3335V80.0002L172.834 80.3335V83.0002L171.168 82.6668V84.0002L162.834 82.3335V81.0002L161.168 80.6669V78.0002Z"></path>
<path fill="#533A41" d="M161.834 76.6669L163.501 77.0002L162.834 78.3335L161.168 78.0002L161.834 76.6669Z"></path>
<path fill="#533A41" d="M163.501 78.3335L163.955 78.4243L163.834 78.6664V81.3331L168.834 82.3331L170.167 79.6664L171.228 79.879L171.168 80.0002V81.3335L169.5 81L168.834 82.3331L163.834 81.3331V79.8668L162.834 79.6669L163.501 78.3335Z"></path>
<path fill="#533A41" d="M171.834 78.6669L173.501 79.0002L172.834 80.3335L171.168 80.0002L171.834 78.6669Z"></path>
<path fill="#04040A" d="M173.501 79.0002V81.6668L172.834 83.0002V80.3335L173.501 79.0002Z"></path>
<path fill="#04040A" d="M163.501 77.0002L163.501 78.3335L162.834 79.6669V78.3335L163.501 77.0002Z"></path>
<path fill="#04040A" d="M171.774 82.788L171.168 84.0002V82.6668L171.774 82.788Z"></path>
<path fill="#FFB88C" d="M160.167 67.8003L160.167 68.3333L159.5 69.6665V67.6669L160.167 67.8003Z"></path>
<path fill="#FFD9B1" d="M160.167 66.3333V67.8003L159.5 67.6669L160.167 66.3333Z"></path>
<path fill="#7F0D0D" d="M161.5 82.0663V88.0683V88.0673V82.0663Z"></path>
<path fill="#CC1515" d="M160.167 75.8V80.3331L161.168 80.5331V80.6669L162.834 81.0002V82.3335L161.5 82.0663V88.0673L157 87.1668V75.1669L160.167 75.8Z"></path>
<path fill="#FF1B1B" d="M158.834 70.9998V72.3336L160.167 72.6003V75.8L157 75.1669L158.834 71.5002L158.834 71.0002L158.834 70.9998Z"></path>
<path fill="#7F7F7F" d="M161.5 88.0683V92.0673V88.0673V88.0683Z"></path>
<path fill="#CBCBCB" d="M161.5 88.0673V92.0673L157 91.1668V87.1668L161.5 88.0673Z"></path>
<path fill="#141520" d="M208.009 86L238.009 92V96L208.009 90V86Z"></path>
<path fill="#101018" d="M238.009 92L242.009 84V80L246.009 72V76L250.009 68V72L238.009 96V92Z"></path>
<path fill="#2A2E3D" d="M220.009 62L250.009 68L246.009 76V72L242.009 80V84L238.009 92L208.009 86L220.009 62Z"></path>
<path fill="#22263C" d="M212.509 76.5L237.509 81.5V87.5L212.509 82.5V76.5Z"></path>
<path fill="#1D1D2C" d="M237.509 81.5L245.509 65.5V71.5L237.509 87.5V81.5Z"></path>
<path fill="#485374" d="M220.509 60.5L245.509 65.5L237.509 81.5L212.509 76.5L220.509 60.5Z"></path>
<path fill="#444B68" d="M230.509 62.5L222.509 78.5L217.509 77.5L225.509 61.5L230.509 62.5Z"></path>
<path fill="#444B68" d="M240.509 64.5L232.509 80.5L227.509 79.5L235.509 63.5L240.509 64.5Z"></path>
<path fill="#1B1A28" d="M222.509 78.5V84.5L217.509 83.5V77.5L222.509 78.5Z"></path>
<path fill="#1B1A28" d="M232.509 80.5V86.5L227.509 85.5V79.5L232.509 80.5Z"></path>
<path fill="#141520" d="M239.509 79.5L242.009 80V84L239.509 83.5V79.5Z"></path>
<path fill="#2A2E3D" d="M243.509 71.5L246.009 72L242.009 80L239.509 79.5L243.509 71.5Z"></path>
<path fill="#ADB39F" d="M248.509 72.5L261 75L257.009 83L244.509 80.5L248.509 72.5Z"></path>
<path fill="#453F3F" d="M261 75V83L257.009 91V83L261 75Z"></path>
<path fill="#535454" d="M257.009 83V91L244.509 88.5V80.5L257.009 83Z"></path>
<path fill="#141620" d="M252.009 84V86L249.509 85.5V83.5L252.009 84Z"></path>
<path fill="#ADB39F" d="M245.009 76L246.6 76.3182L244.6 80.3182L243.009 80L245.009 76Z"></path>
<path fill="#535454" d="M244.6 80.3182L244.509 80.5V84.3L243.009 84V80L244.6 80.3182Z"></path>
<path fill="#ADB39F" d="M230.509 94.5L235.509 95.5L230.509 105.5L223.009 104L224.009 102L226.509 102.5L230.509 94.5Z"></path>
<path fill="#453F3F" d="M235.509 95.5L236.418 95.6818L230.509 107.5V105.5L235.509 95.5Z"></path>
<path fill="#535454" d="M230.509 105.5V107.5L223.009 106V104L230.509 105.5Z"></path>
<path fill="#ADB39F" d="M245.009 60L252.509 61.5L249.327 67.8636L245.509 67.1V65.5L245.055 65.4091L246.509 62.5L244.009 62L245.009 60Z"></path>
<path fill="#453F3F" d="M252.509 61.5V63.5L250.009 68.5V68L249.327 67.8636L252.509 61.5Z"></path>
<path fill="#535454" d="M246.509 62.5L245.6 64.3182L244.009 64V62L246.509 62.5Z"></path>
<path fill="#ADB39F" d="M208 79L211.19 79.638L209.19 83.638L206 83L208 79Z"></path>
<path fill="#535454" d="M209.19 83.638L208.281 85.4562L206 85L206 83L209.19 83.638Z"></path>
<path fill="#ADB39F" d="M212 71L214.963 71.5926L212.963 75.5926L210 75L212 71Z"></path>
<path fill="#535454" d="M212.963 75.5926L212.5 76.5L212.509 77L212.281 77.4562L210 77L210 75L212.963 75.5926Z"></path>
<path stroke-width="2" stroke="white" fill="#56C6F8" d="M308 15H309V14V13H373V14V15H374H375V49H374H373V50V51H309V50V49H308H307V15H308Z"></path>
<path fill="#2CACE8" d="M308 44H310V46H372V44H374V48H372V50H310V48H308V44Z"></path>
<path fill="white" d="M342.5 24H350V25.5H351.5V30H350V31.5H351.5V36H348.5V33H347V31.5H345.5V28.5H348.5V27H345.5V28.5V31.5V36H342.5V24Z"></path>
<path fill="white" d="M353 25.5H354.5V24H362V27H356V28.5H359V31.5H356V33H362V36H354.5V34.5H353V25.5Z"></path>
<path fill="white" d="M320 24H323V25.5H324.5V27H326V25.5H327.5V24H330.5V36H327.5V30H326V31.5H324.5V30H323V36H320V24Z"></path>
<path fill="white" d="M332 25.5H333.5V24H339.5V25.5H341V27H338H335V33H338V27H341V34.5H339.5V36H333.5V34.5H332V25.5Z"></path>
<path fill="white" d="M118 24H128V26H130V32H128V34H130V40H126V36H124V34H122V30H126V28H122V30V34V40H118V24Z"></path>
<path fill="white" d="M160 26H162V24H172V28H164V30H168V34H164V36V40H162H160V38V26Z"></path>
<path fill="white" d="M186 26V24H184H182V28V36H178V24H174V38H176V40H184V38H186V28V26Z"></path>
<path fill="white" d="M230 26H232V24H242V28H234V30V34V36H238V34H236V30H242V38V40H240H232V38H230V26Z"></path>
<path fill="white" d="M244 26H246V24H254V26H256V40H252V28H248V30H252V34H248V36V40H246H244V38V26Z"></path>
<path fill="white" d="M274 26H276V24H286V28H278V30H282V34H278V36H286V40H276V38H274V26Z"></path>
<path fill="white" d="M258 24H262V26H264V28H266V26H268V24H272V40H268V32H266V34H264V32H262V40H258V24Z"></path>
<path fill="white" d="M104 26V24H106H116V28H112V36V40H108V36V28H104V26Z"></path>
<path fill="white" d="M132 26V24H134H136V30H140V24H144V32H142V34H140V40H136V34H134V32H132V26Z"></path>
<path fill="white" d="M188 26V24H190H192V28V36H200V40H190V38H188V28V26Z"></path>
<path fill="white" d="M202 26V24H204H206V28V36H214V40H204V38H202V28V26Z"></path>
</svg>
