<svg version="1.1" xmlns="http://www.w3.org/2000/svg" xmlns:xlink="http://www.w3.org/1999/xlink" width="40" height="20" viewBox="0,0,40,20"><g transform="translate(-220,-167)"><g data-paper-data="{&quot;isPaintingLayer&quot;:true}" fill-rule="nonzero" stroke="none" stroke-width="1" stroke-linecap="butt" stroke-linejoin="miter" stroke-miterlimit="10" stroke-dasharray="" stroke-dashoffset="0" style="mix-blend-mode: normal"><path d="M220,187v-20h40v20z" fill="none"></path><path d="M240.444,176.688c0,-0.68 0.136,-1.276 0.408,-1.788c0.28,-0.52 0.664,-0.92 1.152,-1.2c0.488,-0.28 1.048,-0.42 1.68,-0.42c0.8,0 1.46,0.192 1.98,0.576c0.528,0.376 0.884,0.916 1.068,1.62h-1.476c-0.12,-0.328 -0.312,-0.584 -0.576,-0.768c-0.264,-0.184 -0.596,-0.276 -0.996,-0.276c-0.56,0 -1.008,0.2 -1.344,0.6c-0.328,0.392 -0.492,0.944 -0.492,1.656c0,0.712 0.164,1.268 0.492,1.668c0.336,0.4 0.784,0.6 1.344,0.6c0.792,0 1.316,-0.348 1.572,-1.044h1.476c-0.192,0.672 -0.552,1.208 -1.08,1.608c-0.528,0.392 -1.184,0.588 -1.968,0.588c-0.632,0 -1.192,-0.14 -1.68,-0.42c-0.488,-0.288 -0.872,-0.688 -1.152,-1.2c-0.272,-0.52 -0.408,-1.12 -0.408,-1.8z" fill="#ff0000"></path></g></g></svg>