<svg xmlns="http://www.w3.org/2000/svg" fill="none" viewBox="0 0 504 384" height="384" width="504">
<path fill="#1A1A1A" d="M2 12C2 6.47716 6.47715 2 12 2L492 2C497.523 2 502 6.47715 502 12L502 372C502 377.523 497.523 382 492 382L12 382C6.47713 382 1.99999 377.523 1.99999 372L2 12Z"></path>
<path stroke-width="2" stroke-opacity="0.2" stroke="white" d="M12 1C5.92487 1 1 5.92488 1 12L0.999985 372C0.999985 378.075 5.92484 383 12 383L492 383C498.075 383 503 378.075 503 372L503 12C503 5.92487 498.075 1 492 1L12 1Z"></path>
<path fill="black" d="M228 152C230.209 152 232 150.209 232 148V148C232 145.791 233.791 144 236 144H292C294.209 144 296 145.791 296 148V196C296 198.209 294.209 200 292 200V200C289.791 200 288 201.791 288 204V236C288 238.209 286.209 240 284 240H220C217.791 240 216 238.209 216 236V228C216 225.791 214.209 224 212 224V224C209.791 224 208 222.209 208 220V196C208 193.791 209.791 192 212 192V192C214.209 192 216 190.209 216 188V156C216 153.791 217.791 152 220 152H228Z"></path>
<path fill="#FFFF00" d="M220 160C220 157.791 221.791 156 224 156H232C234.209 156 236 154.209 236 152V152C236 149.791 237.791 148 240 148H288C290.209 148 292 149.791 292 152V192C292 194.209 290.209 196 288 196V196C285.791 196 284 197.791 284 200V200C284 202.209 282.209 204 280 204H248C245.791 204 244 202.209 244 200V200C244 197.791 242.209 196 240 196H236V212H280C282.209 212 284 213.791 284 216V232C284 234.209 282.209 236 280 236H272C269.791 236 268 234.209 268 232V224C268 221.791 266.209 220 264 220V220C261.791 220 260 221.791 260 224V232C260 234.209 258.209 236 256 236H240C237.791 236 236 234.209 236 232V212H232C229.791 212 228 213.791 228 216V232C228 234.209 226.209 236 224 236V236C221.791 236 220 234.209 220 232V224C220 221.791 218.209 220 216 220V220C213.791 220 212 218.209 212 216V200C212 197.791 213.791 196 216 196V196C218.209 196 220 194.209 220 192V192C220 189.791 221.791 188 224 188V188C226.209 188 228 189.791 228 192V192C228 194.209 229.791 196 232 196H236V184C236 181.791 234.209 180 232 180H224C221.791 180 220 178.209 220 176V176C220 173.791 221.791 172 224 172H232C234.209 172 236 170.209 236 168V168C236 165.791 234.209 164 232 164H224C221.791 164 220 162.209 220 160V160Z"></path>
<path fill="black" d="M252 192C252 189.791 253.791 188 256 188H272C274.209 188 276 189.791 276 192V192C276 194.209 274.209 196 272 196H256C253.791 196 252 194.209 252 192V192Z"></path>
<path fill="black" d="M252 168C252 165.791 253.791 164 256 164V164C258.209 164 260 165.791 260 168V176C260 178.209 258.209 180 256 180V180C253.791 180 252 178.209 252 176V168Z"></path>
<path fill="black" d="M276 168C276 165.791 277.791 164 280 164V164C282.209 164 284 165.791 284 168V176C284 178.209 282.209 180 280 180V180C277.791 180 276 178.209 276 176V168Z"></path>
</svg>
