<svg xmlns="http://www.w3.org/2000/svg" fill="none" viewBox="0 0 100 100" height="100" width="100">
<g clip-path="url(#clip0_502_148)">
<path fill="url(#paint0_linear_502_148)" d="M100 50C100 22.3858 77.6142 0 50 0C22.3858 0 0 22.3858 0 50C0 77.6142 22.3858 100 50 100C77.6142 100 100 77.6142 100 50Z"></path>
<path stroke-linecap="round" stroke-width="10" stroke="url(#paint1_linear_502_148)" d="M64.1667 30.8335V53.7501C64.1667 61.8043 57.6375 68.3335 49.5833 68.3335C41.5292 68.3335 35 61.8043 35 53.7501"></path>
<path stroke-linecap="round" stroke-width="10" stroke="url(#paint2_linear_502_148)" d="M64.1667 53.75C64.1667 61.8042 57.6375 68.3333 49.5834 68.3333C41.5292 68.3333 35 61.8042 35 53.75"></path>
</g>
<defs>
<linearGradient gradientUnits="userSpaceOnUse" y2="66.7656" x2="118.694" y1="0" x1="0" id="paint0_linear_502_148">
<stop stop-color="#330000"></stop>
<stop stop-color="#33001A" offset="1"></stop>
</linearGradient>
<linearGradient gradientUnits="userSpaceOnUse" y2="68.7436" x2="64.1675" y1="31.2436" x1="35.0008" id="paint1_linear_502_148">
<stop stop-color="#800000"></stop>
<stop stop-color="#800040" offset="1"></stop>
</linearGradient>
<linearGradient gradientUnits="userSpaceOnUse" y2="68.7435" x2="64.1675" y1="31.2435" x1="35.0008" id="paint2_linear_502_148">
<stop stop-color="#FF0000"></stop>
<stop stop-color="#FF0080" offset="1"></stop>
</linearGradient>
<clipPath id="clip0_502_148">
<rect fill="white" height="100" width="100"></rect>
</clipPath>
</defs>
</svg>
