<svg xmlns="http://www.w3.org/2000/svg" fill="none" viewBox="0 0 480 90" height="90" width="480">
<path fill-opacity="0.9" fill="#E6E6E6" d="M88 30C88 24.4772 92.4772 20 98 20H382C387.523 20 392 24.4772 392 30V60C392 65.5228 387.523 70 382 70H98C92.4772 70 88 65.5228 88 60V30Z"></path>
<path stroke-width="2" stroke-opacity="0.2" stroke="black" d="M382 19H98C91.9249 19 87 23.9249 87 30V60C87 66.0751 91.9249 71 98 71H382C388.075 71 393 66.0751 393 60V30C393 23.9249 388.075 19 382 19Z"></path>
<path fill="black" d="M281.08 42.367V44.611H283.72V45.634H281.08V47.977H284.05V49H279.826V41.344H284.05V42.367H281.08ZM285.177 45.942C285.177 45.3333 285.301 44.7943 285.551 44.325C285.807 43.8557 286.152 43.4927 286.585 43.236C287.025 42.972 287.512 42.84 288.048 42.84C288.444 42.84 288.832 42.928 289.214 43.104C289.602 43.2727 289.91 43.5 290.138 43.786V40.86H291.403V49H290.138V48.087C289.932 48.3803 289.646 48.6223 289.28 48.813C288.92 49.0037 288.506 49.099 288.037 49.099C287.509 49.099 287.025 48.967 286.585 48.703C286.152 48.4317 285.807 48.0577 285.551 47.581C285.301 47.097 285.177 46.5507 285.177 45.942ZM290.138 45.964C290.138 45.546 290.05 45.183 289.874 44.875C289.705 44.567 289.481 44.3323 289.203 44.171C288.924 44.0097 288.623 43.929 288.301 43.929C287.978 43.929 287.677 44.0097 287.399 44.171C287.12 44.325 286.893 44.556 286.717 44.864C286.548 45.1647 286.464 45.524 286.464 45.942C286.464 46.36 286.548 46.7267 286.717 47.042C286.893 47.3573 287.12 47.5993 287.399 47.768C287.685 47.9293 287.985 48.01 288.301 48.01C288.623 48.01 288.924 47.9293 289.203 47.768C289.481 47.6067 289.705 47.372 289.874 47.064C290.05 46.7487 290.138 46.382 290.138 45.964ZM293.688 42.136C293.46 42.136 293.27 42.059 293.116 41.905C292.962 41.751 292.885 41.5603 292.885 41.333C292.885 41.1057 292.962 40.915 293.116 40.761C293.27 40.607 293.46 40.53 293.688 40.53C293.908 40.53 294.095 40.607 294.249 40.761C294.403 40.915 294.48 41.1057 294.48 41.333C294.48 41.5603 294.403 41.751 294.249 41.905C294.095 42.059 293.908 42.136 293.688 42.136ZM294.304 42.939V49H293.05V42.939H294.304ZM297.413 43.962V47.317C297.413 47.5443 297.464 47.7093 297.567 47.812C297.677 47.9073 297.86 47.955 298.117 47.955H298.887V49H297.897C297.332 49 296.9 48.868 296.599 48.604C296.298 48.34 296.148 47.911 296.148 47.317V43.962H295.433V42.939H296.148V41.432H297.413V42.939H298.887V43.962H297.413ZM311.04 42.939L309.159 49H307.839L306.618 44.523L305.397 49H304.077L302.185 42.939H303.461L304.726 47.812L306.013 42.939H307.322L308.554 47.79L309.808 42.939H311.04ZM312.615 42.136C312.388 42.136 312.197 42.059 312.043 41.905C311.889 41.751 311.812 41.5603 311.812 41.333C311.812 41.1057 311.889 40.915 312.043 40.761C312.197 40.607 312.388 40.53 312.615 40.53C312.835 40.53 313.022 40.607 313.176 40.761C313.33 40.915 313.407 41.1057 313.407 41.333C313.407 41.5603 313.33 41.751 313.176 41.905C313.022 42.059 312.835 42.136 312.615 42.136ZM313.231 42.939V49H311.977V42.939H313.231ZM316.341 43.962V47.317C316.341 47.5443 316.392 47.7093 316.495 47.812C316.605 47.9073 316.788 47.955 317.045 47.955H317.815V49H316.825C316.26 49 315.827 48.868 315.527 48.604C315.226 48.34 315.076 47.911 315.076 47.317V43.962H314.361V42.939H315.076V41.432H316.341V42.939H317.815V43.962H316.341ZM322.106 42.84C322.568 42.84 322.978 42.939 323.338 43.137C323.704 43.335 323.99 43.6283 324.196 44.017C324.408 44.4057 324.515 44.875 324.515 45.425V49H323.272V45.612C323.272 45.0693 323.136 44.655 322.865 44.369C322.593 44.0757 322.223 43.929 321.754 43.929C321.284 43.929 320.91 44.0757 320.632 44.369C320.36 44.655 320.225 45.0693 320.225 45.612V49H318.971V40.86H320.225V43.643C320.437 43.3863 320.705 43.1883 321.028 43.049C321.358 42.9097 321.717 42.84 322.106 42.84ZM334.317 43.632C334.317 44.0207 334.226 44.3873 334.042 44.732C333.859 45.0767 333.566 45.359 333.162 45.579C332.759 45.7917 332.242 45.898 331.611 45.898H330.225V49H328.971V41.355H331.611C332.198 41.355 332.693 41.4577 333.096 41.663C333.507 41.861 333.811 42.1323 334.009 42.477C334.215 42.8217 334.317 43.2067 334.317 43.632ZM331.611 44.875C332.088 44.875 332.444 44.7687 332.678 44.556C332.913 44.336 333.03 44.028 333.03 43.632C333.03 42.796 332.557 42.378 331.611 42.378H330.225V44.875H331.611ZM335.095 45.942C335.095 45.3333 335.22 44.7943 335.469 44.325C335.726 43.8557 336.071 43.4927 336.503 43.236C336.943 42.972 337.427 42.84 337.955 42.84C338.432 42.84 338.846 42.9353 339.198 43.126C339.558 43.3093 339.844 43.5403 340.056 43.819V42.939H341.321V49H340.056V48.098C339.844 48.384 339.554 48.6223 339.187 48.813C338.821 49.0037 338.403 49.099 337.933 49.099C337.413 49.099 336.936 48.967 336.503 48.703C336.071 48.4317 335.726 48.0577 335.469 47.581C335.22 47.097 335.095 46.5507 335.095 45.942ZM340.056 45.964C340.056 45.546 339.968 45.183 339.792 44.875C339.624 44.567 339.4 44.3323 339.121 44.171C338.843 44.0097 338.542 43.929 338.219 43.929C337.897 43.929 337.596 44.0097 337.317 44.171C337.039 44.325 336.811 44.556 336.635 44.864C336.467 45.1647 336.382 45.524 336.382 45.942C336.382 46.36 336.467 46.7267 336.635 47.042C336.811 47.3573 337.039 47.5993 337.317 47.768C337.603 47.9293 337.904 48.01 338.219 48.01C338.542 48.01 338.843 47.9293 339.121 47.768C339.4 47.6067 339.624 47.372 339.792 47.064C339.968 46.7487 340.056 46.382 340.056 45.964ZM343.607 42.136C343.379 42.136 343.189 42.059 343.035 41.905C342.881 41.751 342.804 41.5603 342.804 41.333C342.804 41.1057 342.881 40.915 343.035 40.761C343.189 40.607 343.379 40.53 343.607 40.53C343.827 40.53 344.014 40.607 344.168 40.761C344.322 40.915 344.399 41.1057 344.399 41.333C344.399 41.5603 344.322 41.751 344.168 41.905C344.014 42.059 343.827 42.136 343.607 42.136ZM344.223 42.939V49H342.969V42.939H344.223ZM348.927 42.84C349.404 42.84 349.829 42.939 350.203 43.137C350.584 43.335 350.881 43.6283 351.094 44.017C351.307 44.4057 351.413 44.875 351.413 45.425V49H350.17V45.612C350.17 45.0693 350.034 44.655 349.763 44.369C349.492 44.0757 349.121 43.929 348.652 43.929C348.183 43.929 347.809 44.0757 347.53 44.369C347.259 44.655 347.123 45.0693 347.123 45.612V49H345.869V42.939H347.123V43.632C347.328 43.3827 347.589 43.1883 347.904 43.049C348.227 42.9097 348.568 42.84 348.927 42.84ZM354.476 43.962V47.317C354.476 47.5443 354.527 47.7093 354.63 47.812C354.74 47.9073 354.923 47.955 355.18 47.955H355.95V49H354.96C354.395 49 353.962 48.868 353.662 48.604C353.361 48.34 353.211 47.911 353.211 47.317V43.962H352.496V42.939H353.211V41.432H354.476V42.939H355.95V43.962H354.476Z"></path>
<path fill="url(#paint0_linear_1013_232)" d="M264 37C259.999 36.9995 255 40.6662 255 46.3333C255 47.9644 255.369 50 257 50C258.666 50 259.333 47.3333 260.667 47.3333C261.219 47.3333 261.667 47.6662 261.667 48.3333C261.667 49.3328 260.667 49.3328 260.667 50.6667C260.667 51.6662 261.333 52.3333 262.333 52.3333C266 52.3333 270.333 48.0359 270.333 43.3333C270.333 40.3328 267.884 37.0005 264 37Z"></path>
<rect fill="url(#paint1_linear_1013_232)" rx="1.33333" height="2.66667" width="2.66667" y="43.6663" x="256.333"></rect>
<rect fill-opacity="0.5" fill="black" rx="1" height="2" width="2" y="44.3328" x="262.333"></rect>
<rect fill="url(#paint2_linear_1013_232)" rx="1.33333" height="2.66667" width="2.66667" y="40.3328" x="258.333"></rect>
<rect fill="url(#paint3_linear_1013_232)" rx="1.33333" height="2.66667" width="2.66667" y="38.9995" x="261.666"></rect>
<path fill="url(#paint4_linear_1013_232)" d="M265.666 44.9988L267.666 44.9997L267.361 52.3327C267.345 52.705 267.039 52.9988 266.666 52.9988V52.9988C266.294 52.9988 265.987 52.705 265.972 52.3327L265.666 44.9988Z"></path>
<path fill="url(#paint5_linear_1013_232)" d="M265.666 44.9988V44.3331H267.666V44.9997L265.666 44.9988Z"></path>
<path fill="url(#paint6_linear_1013_232)" d="M265.666 44.332L265.057 43.1136C264.724 42.4487 265.208 41.6663 265.951 41.6663H267.382C268.125 41.6663 268.609 42.4486 268.276 43.1135L267.666 44.3331L265.666 44.332Z"></path>
<rect fill-opacity="0.05" fill="black" rx="5" height="36" width="140" y="27" x="95"></rect>
<rect fill="url(#paint7_linear_1013_232)" rx="2" height="16" width="16" y="37" x="105"></rect>
<path fill="white" d="M110.879 44.1213C112.05 42.9497 113.95 42.9497 115.121 44.1213L119.414 48.4142C119.789 48.7893 120 49.298 120 49.8284V50C120 51.1046 119.105 52 118 52H108C106.895 52 106 51.1046 106 50V49.8284C106 49.298 106.211 48.7893 106.586 48.4142L110.879 44.1213Z"></path>
<path stroke-opacity="0.1" stroke="black" d="M108 52.5H118C119.381 52.5 120.5 51.3807 120.5 50V49.8284C120.5 49.1654 120.237 48.5295 119.768 48.0607L115.475 43.7678C114.108 42.4009 111.892 42.4009 110.525 43.7678L106.232 48.0607C105.763 48.5295 105.5 49.1654 105.5 49.8284V50C105.5 51.3807 106.619 52.5 108 52.5Z"></path>
<path fill="url(#paint8_linear_1013_232)" d="M108 53L115.293 45.7071C115.683 45.3166 116.317 45.3166 116.707 45.7071L120.414 49.4142C120.789 49.7893 121 50.298 121 50.8284V51C121 52.1046 120.105 53 119 53H108Z"></path>
<path fill="url(#paint9_linear_1013_232)" d="M105 50.8284C105 50.298 105.211 49.7893 105.586 49.4142L110.879 44.1213C112.05 42.9497 113.95 42.9497 115.121 44.1213L118 47V47C116.895 45.8954 115.105 45.8954 114 47L108.586 52.4142C108.211 52.7893 107.702 53 107.172 53H107C105.895 53 105 52.1046 105 51V50.8284Z"></path>
<rect fill="white" rx="1.5" height="3" width="3" y="39" x="115"></rect>
<rect stroke-opacity="0.1" stroke="black" rx="2" height="4" width="4" y="38.5" x="114.5"></rect>
<path fill="black" d="M132.344 49.077C131.831 49.077 131.369 48.989 130.958 48.813C130.547 48.6297 130.225 48.373 129.99 48.043C129.755 47.713 129.638 47.328 129.638 46.888H130.98C131.009 47.218 131.138 47.4893 131.365 47.702C131.6 47.9147 131.926 48.021 132.344 48.021C132.777 48.021 133.114 47.9183 133.356 47.713C133.598 47.5003 133.719 47.229 133.719 46.899C133.719 46.6423 133.642 46.4333 133.488 46.272C133.341 46.1107 133.154 45.986 132.927 45.898C132.707 45.81 132.399 45.7147 132.003 45.612C131.504 45.48 131.097 45.348 130.782 45.216C130.474 45.0767 130.21 44.864 129.99 44.578C129.77 44.292 129.66 43.9107 129.66 43.434C129.66 42.994 129.77 42.609 129.99 42.279C130.21 41.949 130.518 41.696 130.914 41.52C131.31 41.344 131.768 41.256 132.289 41.256C133.03 41.256 133.635 41.443 134.104 41.817C134.581 42.1837 134.845 42.6897 134.896 43.335H133.51C133.488 43.0563 133.356 42.818 133.114 42.62C132.872 42.422 132.553 42.323 132.157 42.323C131.798 42.323 131.504 42.4147 131.277 42.598C131.05 42.7813 130.936 43.0453 130.936 43.39C130.936 43.6247 131.006 43.819 131.145 43.973C131.292 44.1197 131.475 44.237 131.695 44.325C131.915 44.413 132.216 44.5083 132.597 44.611C133.103 44.7503 133.514 44.8897 133.829 45.029C134.152 45.1683 134.423 45.3847 134.643 45.678C134.87 45.964 134.984 46.349 134.984 46.833C134.984 47.2217 134.878 47.5883 134.665 47.933C134.46 48.2777 134.155 48.5563 133.752 48.769C133.356 48.9743 132.887 49.077 132.344 49.077ZM142.019 45.821C142.019 46.0483 142.004 46.2537 141.975 46.437H137.344C137.38 46.921 137.56 47.3097 137.883 47.603C138.205 47.8963 138.601 48.043 139.071 48.043C139.745 48.043 140.222 47.7607 140.501 47.196H141.854C141.67 47.7533 141.337 48.2117 140.853 48.571C140.376 48.923 139.782 49.099 139.071 49.099C138.491 49.099 137.971 48.9707 137.509 48.714C137.054 48.45 136.695 48.0833 136.431 47.614C136.174 47.1373 136.046 46.5873 136.046 45.964C136.046 45.3407 136.17 44.7943 136.42 44.325C136.676 43.8483 137.032 43.4817 137.487 43.225C137.949 42.9683 138.477 42.84 139.071 42.84C139.643 42.84 140.152 42.9647 140.6 43.214C141.047 43.4633 141.395 43.8153 141.645 44.27C141.894 44.7173 142.019 45.2343 142.019 45.821ZM140.71 45.425C140.702 44.963 140.537 44.5927 140.215 44.314C139.892 44.0353 139.492 43.896 139.016 43.896C138.583 43.896 138.213 44.0353 137.905 44.314C137.597 44.5853 137.413 44.9557 137.355 45.425H140.71ZM144.716 43.962V47.317C144.716 47.5443 144.767 47.7093 144.87 47.812C144.98 47.9073 145.163 47.955 145.42 47.955H146.19V49H145.2C144.635 49 144.202 48.868 143.902 48.604C143.601 48.34 143.451 47.911 143.451 47.317V43.962H142.736V42.939H143.451V41.432H144.716V42.939H146.19V43.962H144.716ZM149.785 45.942C149.785 45.3333 149.91 44.7943 150.159 44.325C150.416 43.8557 150.76 43.4927 151.193 43.236C151.633 42.972 152.117 42.84 152.645 42.84C153.122 42.84 153.536 42.9353 153.888 43.126C154.247 43.3093 154.533 43.5403 154.746 43.819V42.939H156.011V49H154.746V48.098C154.533 48.384 154.244 48.6223 153.877 48.813C153.51 49.0037 153.092 49.099 152.623 49.099C152.102 49.099 151.626 48.967 151.193 48.703C150.76 48.4317 150.416 48.0577 150.159 47.581C149.91 47.097 149.785 46.5507 149.785 45.942ZM154.746 45.964C154.746 45.546 154.658 45.183 154.482 44.875C154.313 44.567 154.09 44.3323 153.811 44.171C153.532 44.0097 153.232 43.929 152.909 43.929C152.586 43.929 152.286 44.0097 152.007 44.171C151.728 44.325 151.501 44.556 151.325 44.864C151.156 45.1647 151.072 45.524 151.072 45.942C151.072 46.36 151.156 46.7267 151.325 47.042C151.501 47.3573 151.728 47.5993 152.007 47.768C152.293 47.9293 152.594 48.01 152.909 48.01C153.232 48.01 153.532 47.9293 153.811 47.768C154.09 47.6067 154.313 47.372 154.482 47.064C154.658 46.7487 154.746 46.382 154.746 45.964ZM159.858 49.099C159.381 49.099 158.952 49.0147 158.571 48.846C158.197 48.67 157.9 48.4353 157.68 48.142C157.46 47.8413 157.343 47.5077 157.328 47.141H158.626C158.648 47.3977 158.769 47.614 158.989 47.79C159.216 47.9587 159.499 48.043 159.836 48.043C160.188 48.043 160.459 47.977 160.65 47.845C160.848 47.7057 160.947 47.5297 160.947 47.317C160.947 47.0897 160.837 46.921 160.617 46.811C160.404 46.701 160.063 46.58 159.594 46.448C159.139 46.3233 158.769 46.2023 158.483 46.085C158.197 45.9677 157.948 45.788 157.735 45.546C157.53 45.304 157.427 44.985 157.427 44.589C157.427 44.2663 157.522 43.973 157.713 43.709C157.904 43.4377 158.175 43.225 158.527 43.071C158.886 42.917 159.297 42.84 159.759 42.84C160.448 42.84 161.002 43.016 161.42 43.368C161.845 43.7127 162.073 44.1857 162.102 44.787H160.848C160.826 44.5157 160.716 44.2993 160.518 44.138C160.32 43.9767 160.052 43.896 159.715 43.896C159.385 43.896 159.132 43.9583 158.956 44.083C158.78 44.2077 158.692 44.3727 158.692 44.578C158.692 44.7393 158.751 44.875 158.868 44.985C158.985 45.095 159.128 45.183 159.297 45.249C159.466 45.3077 159.715 45.3847 160.045 45.48C160.485 45.5973 160.844 45.7183 161.123 45.843C161.409 45.9603 161.655 46.1363 161.86 46.371C162.065 46.6057 162.172 46.9173 162.179 47.306C162.179 47.6507 162.084 47.9587 161.893 48.23C161.702 48.5013 161.431 48.714 161.079 48.868C160.734 49.022 160.327 49.099 159.858 49.099ZM174.531 42.939L172.65 49H171.33L170.109 44.523L168.888 49H167.568L165.676 42.939H166.952L168.217 47.812L169.504 42.939H170.813L172.045 47.79L173.299 42.939H174.531ZM175.051 45.942C175.051 45.3333 175.175 44.7943 175.425 44.325C175.681 43.8557 176.026 43.4927 176.459 43.236C176.899 42.972 177.383 42.84 177.911 42.84C178.387 42.84 178.802 42.9353 179.154 43.126C179.513 43.3093 179.799 43.5403 180.012 43.819V42.939H181.277V49H180.012V48.098C179.799 48.384 179.509 48.6223 179.143 48.813C178.776 49.0037 178.358 49.099 177.889 49.099C177.368 49.099 176.891 48.967 176.459 48.703C176.026 48.4317 175.681 48.0577 175.425 47.581C175.175 47.097 175.051 46.5507 175.051 45.942ZM180.012 45.964C180.012 45.546 179.924 45.183 179.748 44.875C179.579 44.567 179.355 44.3323 179.077 44.171C178.798 44.0097 178.497 43.929 178.175 43.929C177.852 43.929 177.551 44.0097 177.273 44.171C176.994 44.325 176.767 44.556 176.591 44.864C176.422 45.1647 176.338 45.524 176.338 45.942C176.338 46.36 176.422 46.7267 176.591 47.042C176.767 47.3573 176.994 47.5993 177.273 47.768C177.559 47.9293 177.859 48.01 178.175 48.01C178.497 48.01 178.798 47.9293 179.077 47.768C179.355 47.6067 179.579 47.372 179.748 47.064C179.924 46.7487 180.012 46.382 180.012 45.964ZM184.178 40.86V49H182.924V40.86H184.178ZM187.078 40.86V49H185.824V40.86H187.078ZM189.978 43.83C190.191 43.5513 190.481 43.3167 190.847 43.126C191.214 42.9353 191.628 42.84 192.09 42.84C192.618 42.84 193.099 42.972 193.531 43.236C193.971 43.4927 194.316 43.8557 194.565 44.325C194.815 44.7943 194.939 45.3333 194.939 45.942C194.939 46.5507 194.815 47.097 194.565 47.581C194.316 48.0577 193.971 48.4317 193.531 48.703C193.099 48.967 192.618 49.099 192.09 49.099C191.628 49.099 191.218 49.0073 190.858 48.824C190.499 48.6333 190.206 48.3987 189.978 48.12V51.882H188.724V42.939H189.978V43.83ZM193.663 45.942C193.663 45.524 193.575 45.1647 193.399 44.864C193.231 44.556 193.003 44.325 192.717 44.171C192.439 44.0097 192.138 43.929 191.815 43.929C191.5 43.929 191.199 44.0097 190.913 44.171C190.635 44.3323 190.407 44.567 190.231 44.875C190.063 45.183 189.978 45.546 189.978 45.964C189.978 46.382 190.063 46.7487 190.231 47.064C190.407 47.372 190.635 47.6067 190.913 47.768C191.199 47.9293 191.5 48.01 191.815 48.01C192.138 48.01 192.439 47.9293 192.717 47.768C193.003 47.5993 193.231 47.3573 193.399 47.042C193.575 46.7267 193.663 46.36 193.663 45.942ZM195.761 45.942C195.761 45.3333 195.886 44.7943 196.135 44.325C196.392 43.8557 196.737 43.4927 197.169 43.236C197.609 42.972 198.093 42.84 198.621 42.84C199.098 42.84 199.512 42.9353 199.864 43.126C200.224 43.3093 200.51 43.5403 200.722 43.819V42.939H201.987V49H200.722V48.098C200.51 48.384 200.22 48.6223 199.853 48.813C199.487 49.0037 199.069 49.099 198.599 49.099C198.079 49.099 197.602 48.967 197.169 48.703C196.737 48.4317 196.392 48.0577 196.135 47.581C195.886 47.097 195.761 46.5507 195.761 45.942ZM200.722 45.964C200.722 45.546 200.634 45.183 200.458 44.875C200.29 44.567 200.066 44.3323 199.787 44.171C199.509 44.0097 199.208 43.929 198.885 43.929C198.563 43.929 198.262 44.0097 197.983 44.171C197.705 44.325 197.477 44.556 197.301 44.864C197.133 45.1647 197.048 45.524 197.048 45.942C197.048 46.36 197.133 46.7267 197.301 47.042C197.477 47.3573 197.705 47.5993 197.983 47.768C198.269 47.9293 198.57 48.01 198.885 48.01C199.208 48.01 199.509 47.9293 199.787 47.768C200.066 47.6067 200.29 47.372 200.458 47.064C200.634 46.7487 200.722 46.382 200.722 45.964ZM204.889 43.83C205.101 43.5513 205.391 43.3167 205.758 43.126C206.124 42.9353 206.539 42.84 207.001 42.84C207.529 42.84 208.009 42.972 208.442 43.236C208.882 43.4927 209.226 43.8557 209.476 44.325C209.725 44.7943 209.85 45.3333 209.85 45.942C209.85 46.5507 209.725 47.097 209.476 47.581C209.226 48.0577 208.882 48.4317 208.442 48.703C208.009 48.967 207.529 49.099 207.001 49.099C206.539 49.099 206.128 49.0073 205.769 48.824C205.409 48.6333 205.116 48.3987 204.889 48.12V51.882H203.635V42.939H204.889V43.83ZM208.574 45.942C208.574 45.524 208.486 45.1647 208.31 44.864C208.141 44.556 207.914 44.325 207.628 44.171C207.349 44.0097 207.048 43.929 206.726 43.929C206.41 43.929 206.11 44.0097 205.824 44.171C205.545 44.3323 205.318 44.567 205.142 44.875C204.973 45.183 204.889 45.546 204.889 45.964C204.889 46.382 204.973 46.7487 205.142 47.064C205.318 47.372 205.545 47.6067 205.824 47.768C206.11 47.9293 206.41 48.01 206.726 48.01C207.048 48.01 207.349 47.9293 207.628 47.768C207.914 47.5993 208.141 47.3573 208.31 47.042C208.486 46.7267 208.574 46.36 208.574 45.942ZM216.645 45.821C216.645 46.0483 216.63 46.2537 216.601 46.437H211.97C212.006 46.921 212.186 47.3097 212.509 47.603C212.831 47.8963 213.227 48.043 213.697 48.043C214.371 48.043 214.848 47.7607 215.127 47.196H216.48C216.296 47.7533 215.963 48.2117 215.479 48.571C215.002 48.923 214.408 49.099 213.697 49.099C213.117 49.099 212.597 48.9707 212.135 48.714C211.68 48.45 211.321 48.0833 211.057 47.614C210.8 47.1373 210.672 46.5873 210.672 45.964C210.672 45.3407 210.796 44.7943 211.046 44.325C211.302 43.8483 211.658 43.4817 212.113 43.225C212.575 42.9683 213.103 42.84 213.697 42.84C214.269 42.84 214.778 42.9647 215.226 43.214C215.673 43.4633 216.021 43.8153 216.271 44.27C216.52 44.7173 216.645 45.2343 216.645 45.821ZM215.336 45.425C215.328 44.963 215.163 44.5927 214.841 44.314C214.518 44.0353 214.118 43.896 213.642 43.896C213.209 43.896 212.839 44.0353 212.531 44.314C212.223 44.5853 212.039 44.9557 211.981 45.425H215.336ZM219.133 43.819C219.316 43.511 219.558 43.2727 219.859 43.104C220.167 42.928 220.53 42.84 220.948 42.84V44.138H220.629C220.137 44.138 219.763 44.2627 219.507 44.512C219.257 44.7613 219.133 45.194 219.133 45.81V49H217.879V42.939H219.133V43.819Z"></path>
<defs>
<linearGradient gradientUnits="userSpaceOnUse" y2="50.3328" x2="266.999" y1="38.9995" x1="258.333" id="paint0_linear_1013_232">
<stop stop-color="#50E6FF"></stop>
<stop stop-color="#0270C2" offset="1"></stop>
</linearGradient>
<linearGradient gradientUnits="userSpaceOnUse" y2="45.6663" x2="258.333" y1="44.3329" x1="257" id="paint1_linear_1013_232">
<stop stop-color="#E25113"></stop>
<stop stop-color="#C7390A" offset="1"></stop>
</linearGradient>
<linearGradient gradientUnits="userSpaceOnUse" y2="42.3328" x2="260.333" y1="40.9994" x1="259" id="paint2_linear_1013_232">
<stop stop-color="#55B50E"></stop>
<stop stop-color="#1C8610" offset="1"></stop>
</linearGradient>
<linearGradient gradientUnits="userSpaceOnUse" y2="40.9995" x2="263.666" y1="39.6662" x1="262.333" id="paint3_linear_1013_232">
<stop stop-color="#FFD300"></stop>
<stop stop-color="#F39808" offset="1"></stop>
</linearGradient>
<linearGradient gradientUnits="userSpaceOnUse" y2="44.9996" x2="267.666" y1="44.9996" x1="265.666" id="paint4_linear_1013_232">
<stop stop-color="#AA6701"></stop>
<stop stop-color="#814406" offset="1"></stop>
</linearGradient>
<linearGradient gradientUnits="userSpaceOnUse" y2="44.9996" x2="267.666" y1="44.9996" x1="265.666" id="paint5_linear_1013_232">
<stop stop-color="#CAD2D9"></stop>
<stop stop-color="#939BA2" offset="1"></stop>
</linearGradient>
<linearGradient gradientUnits="userSpaceOnUse" y2="44.3329" x2="267.666" y1="41.6663" x1="265" id="paint6_linear_1013_232">
<stop stop-color="#F7DEAA"></stop>
<stop stop-color="#C3935E" offset="1"></stop>
</linearGradient>
<linearGradient gradientUnits="userSpaceOnUse" y2="49" x2="121" y1="38" x1="106" id="paint7_linear_1013_232">
<stop stop-color="#188EDB"></stop>
<stop stop-color="#7D5AB6" offset="1"></stop>
</linearGradient>
<linearGradient gradientUnits="userSpaceOnUse" y2="53" x2="119" y1="48" x1="114" id="paint8_linear_1013_232">
<stop stop-color="#037AD2"></stop>
<stop stop-color="#2C9EE2" offset="1"></stop>
</linearGradient>
<linearGradient gradientUnits="userSpaceOnUse" y2="49" x2="112" y1="45" x1="108" id="paint9_linear_1013_232">
<stop stop-color="#4DDDFB"></stop>
<stop stop-color="#2AB2EB" offset="1"></stop>
</linearGradient>
</defs>
</svg>
