<svg version="1.1" xmlns="http://www.w3.org/2000/svg" xmlns:xlink="http://www.w3.org/1999/xlink" width="40" height="20" viewBox="0,0,40,20"><g transform="translate(-220,-167)"><g data-paper-data="{&quot;isPaintingLayer&quot;:true}" fill-rule="nonzero" stroke="none" stroke-width="1" stroke-linecap="butt" stroke-linejoin="miter" stroke-miterlimit="10" stroke-dasharray="" stroke-dashoffset="0" style="mix-blend-mode: normal"><path d="M220,187v-20h40v20z" fill="none"></path><path d="M246.696,178.908v1.116h-5.556l-0.24,-0.744c0.336,-0.36 0.584,-0.716 0.744,-1.068c0.16,-0.36 0.24,-0.804 0.24,-1.332c0,-0.16 -0.02,-0.328 -0.06,-0.504h-1.32v-0.948h1.02c-0.168,-0.504 -0.252,-0.992 -0.252,-1.464c0,-0.536 0.116,-1 0.348,-1.392c0.232,-0.392 0.552,-0.692 0.96,-0.9c0.408,-0.216 0.88,-0.324 1.416,-0.324c0.856,0 1.504,0.24 1.944,0.72c0.44,0.48 0.668,1.092 0.684,1.836h-1.248c0,-0.432 -0.112,-0.772 -0.336,-1.02c-0.224,-0.256 -0.572,-0.384 -1.044,-0.384c-0.432,0 -0.78,0.124 -1.044,0.372c-0.256,0.248 -0.384,0.636 -0.384,1.164c0,0.232 0.024,0.456 0.072,0.672c0.048,0.216 0.116,0.456 0.204,0.72h2.328v0.948h-2.052c0.04,0.184 0.06,0.356 0.06,0.516c0,0.776 -0.268,1.448 -0.804,2.016z" fill="#ff0000"></path></g></g></svg>