<svg xmlns="http://www.w3.org/2000/svg" fill="none" viewBox="0 0 100 80" height="80" width="100">
<rect fill-opacity="0.05" fill="black" rx="5" height="80" width="100"></rect>
<path fill="black" d="M17.5357 56.355V64H16.2817V58.764L13.9497 64H13.0807L10.7377 58.764V64H9.48369V56.355H10.8367L13.5207 62.35L16.1937 56.355H17.5357ZM19.8219 57.136C19.5946 57.136 19.4039 57.059 19.2499 56.905C19.0959 56.751 19.0189 56.5603 19.0189 56.333C19.0189 56.1057 19.0959 55.915 19.2499 55.761C19.4039 55.607 19.5946 55.53 19.8219 55.53C20.0419 55.53 20.2289 55.607 20.3829 55.761C20.5369 55.915 20.6139 56.1057 20.6139 56.333C20.6139 56.5603 20.5369 56.751 20.3829 56.905C20.2289 57.059 20.0419 57.136 19.8219 57.136ZM20.4379 57.939V64H19.1839V57.939H20.4379ZM21.6663 60.964C21.6663 60.3407 21.7909 59.7943 22.0403 59.325C22.2969 58.8483 22.6489 58.4817 23.0963 58.225C23.5436 57.9683 24.0569 57.84 24.6363 57.84C25.3696 57.84 25.9746 58.016 26.4513 58.368C26.9353 58.7127 27.2616 59.2077 27.4303 59.853H26.0773C25.9673 59.5523 25.7913 59.3177 25.5493 59.149C25.3073 58.9803 25.0029 58.896 24.6363 58.896C24.1229 58.896 23.7123 59.0793 23.4043 59.446C23.1036 59.8053 22.9533 60.3113 22.9533 60.964C22.9533 61.6167 23.1036 62.1263 23.4043 62.493C23.7123 62.8597 24.1229 63.043 24.6363 63.043C25.3623 63.043 25.8426 62.724 26.0773 62.086H27.4303C27.2543 62.702 26.9243 63.1933 26.4403 63.56C25.9563 63.9193 25.3549 64.099 24.6363 64.099C24.0569 64.099 23.5436 63.9707 23.0963 63.714C22.6489 63.45 22.2969 63.0833 22.0403 62.614C21.7909 62.1373 21.6663 61.5873 21.6663 60.964ZM29.934 58.819C30.1173 58.511 30.3593 58.2727 30.66 58.104C30.968 57.928 31.331 57.84 31.749 57.84V59.138H31.43C30.9386 59.138 30.5646 59.2627 30.308 59.512C30.0586 59.7613 29.934 60.194 29.934 60.81V64H28.68V57.939H29.934V58.819ZM35.5307 64.099C34.9587 64.099 34.4417 63.9707 33.9797 63.714C33.5177 63.45 33.1547 63.0833 32.8907 62.614C32.6267 62.1373 32.4947 61.5873 32.4947 60.964C32.4947 60.348 32.6303 59.8017 32.9017 59.325C33.173 58.8483 33.5433 58.4817 34.0127 58.225C34.482 57.9683 35.0063 57.84 35.5857 57.84C36.165 57.84 36.6893 57.9683 37.1587 58.225C37.628 58.4817 37.9983 58.8483 38.2697 59.325C38.541 59.8017 38.6767 60.348 38.6767 60.964C38.6767 61.58 38.5373 62.1263 38.2587 62.603C37.98 63.0797 37.5987 63.45 37.1147 63.714C36.638 63.9707 36.11 64.099 35.5307 64.099ZM35.5307 63.01C35.8533 63.01 36.154 62.933 36.4327 62.779C36.7187 62.625 36.9497 62.394 37.1257 62.086C37.3017 61.778 37.3897 61.404 37.3897 60.964C37.3897 60.524 37.3053 60.1537 37.1367 59.853C36.968 59.545 36.7443 59.314 36.4657 59.16C36.187 59.006 35.8863 58.929 35.5637 58.929C35.241 58.929 34.9403 59.006 34.6617 59.16C34.3903 59.314 34.174 59.545 34.0127 59.853C33.8513 60.1537 33.7707 60.524 33.7707 60.964C33.7707 61.6167 33.9357 62.1227 34.2657 62.482C34.603 62.834 35.0247 63.01 35.5307 63.01ZM42.1163 64.099C41.6396 64.099 41.2106 64.0147 40.8293 63.846C40.4553 63.67 40.1583 63.4353 39.9383 63.142C39.7183 62.8413 39.601 62.5077 39.5863 62.141H40.8843C40.9063 62.3977 41.0273 62.614 41.2473 62.79C41.4746 62.9587 41.757 63.043 42.0943 63.043C42.4463 63.043 42.7176 62.977 42.9083 62.845C43.1063 62.7057 43.2053 62.5297 43.2053 62.317C43.2053 62.0897 43.0953 61.921 42.8753 61.811C42.6626 61.701 42.3216 61.58 41.8523 61.448C41.3976 61.3233 41.0273 61.2023 40.7413 61.085C40.4553 60.9677 40.206 60.788 39.9933 60.546C39.788 60.304 39.6853 59.985 39.6853 59.589C39.6853 59.2663 39.7806 58.973 39.9713 58.709C40.162 58.4377 40.4333 58.225 40.7853 58.071C41.1446 57.917 41.5553 57.84 42.0173 57.84C42.7066 57.84 43.2603 58.016 43.6783 58.368C44.1036 58.7127 44.331 59.1857 44.3603 59.787H43.1063C43.0843 59.5157 42.9743 59.2993 42.7763 59.138C42.5783 58.9767 42.3106 58.896 41.9733 58.896C41.6433 58.896 41.3903 58.9583 41.2143 59.083C41.0383 59.2077 40.9503 59.3727 40.9503 59.578C40.9503 59.7393 41.009 59.875 41.1263 59.985C41.2436 60.095 41.3866 60.183 41.5553 60.249C41.724 60.3077 41.9733 60.3847 42.3033 60.48C42.7433 60.5973 43.1026 60.7183 43.3813 60.843C43.6673 60.9603 43.913 61.1363 44.1183 61.371C44.3236 61.6057 44.43 61.9173 44.4373 62.306C44.4373 62.6507 44.342 62.9587 44.1513 63.23C43.9606 63.5013 43.6893 63.714 43.3373 63.868C42.9926 64.022 42.5856 64.099 42.1163 64.099ZM48.4213 64.099C47.8493 64.099 47.3323 63.9707 46.8703 63.714C46.4083 63.45 46.0453 63.0833 45.7813 62.614C45.5173 62.1373 45.3853 61.5873 45.3853 60.964C45.3853 60.348 45.521 59.8017 45.7923 59.325C46.0636 58.8483 46.434 58.4817 46.9033 58.225C47.3726 57.9683 47.897 57.84 48.4763 57.84C49.0556 57.84 49.58 57.9683 50.0493 58.225C50.5186 58.4817 50.889 58.8483 51.1603 59.325C51.4316 59.8017 51.5673 60.348 51.5673 60.964C51.5673 61.58 51.428 62.1263 51.1493 62.603C50.8706 63.0797 50.4893 63.45 50.0053 63.714C49.5286 63.9707 49.0006 64.099 48.4213 64.099ZM48.4213 63.01C48.744 63.01 49.0446 62.933 49.3233 62.779C49.6093 62.625 49.8403 62.394 50.0163 62.086C50.1923 61.778 50.2803 61.404 50.2803 60.964C50.2803 60.524 50.196 60.1537 50.0273 59.853C49.8586 59.545 49.635 59.314 49.3563 59.16C49.0776 59.006 48.777 58.929 48.4543 58.929C48.1316 58.929 47.831 59.006 47.5523 59.16C47.281 59.314 47.0646 59.545 46.9033 59.853C46.742 60.1537 46.6613 60.524 46.6613 60.964C46.6613 61.6167 46.8263 62.1227 47.1563 62.482C47.4936 62.834 47.9153 63.01 48.4213 63.01ZM55.3479 58.962H54.2259V64H52.9609V58.962H52.2459V57.939H52.9609V57.51C52.9609 56.8133 53.1443 56.3073 53.5109 55.992C53.8849 55.6693 54.4679 55.508 55.2599 55.508V56.553C54.8786 56.553 54.6109 56.6263 54.4569 56.773C54.3029 56.9123 54.2259 57.158 54.2259 57.51V57.939H55.3479V58.962ZM57.9223 58.962V62.317C57.9223 62.5443 57.9736 62.7093 58.0763 62.812C58.1863 62.9073 58.3696 62.955 58.6263 62.955H59.3963V64H58.4063C57.8416 64 57.4089 63.868 57.1083 63.604C56.8076 63.34 56.6573 62.911 56.6573 62.317V58.962H55.9423V57.939H56.6573V56.432H57.9223V57.939H59.3963V58.962H57.9223ZM65.9285 64.077C65.4151 64.077 64.9531 63.989 64.5425 63.813C64.1318 63.6297 63.8091 63.373 63.5745 63.043C63.3398 62.713 63.2225 62.328 63.2225 61.888H64.5645C64.5938 62.218 64.7221 62.4893 64.9495 62.702C65.1841 62.9147 65.5105 63.021 65.9285 63.021C66.3611 63.021 66.6985 62.9183 66.9405 62.713C67.1825 62.5003 67.3035 62.229 67.3035 61.899C67.3035 61.6423 67.2265 61.4333 67.0725 61.272C66.9258 61.1107 66.7388 60.986 66.5115 60.898C66.2915 60.81 65.9835 60.7147 65.5875 60.612C65.0888 60.48 64.6818 60.348 64.3665 60.216C64.0585 60.0767 63.7945 59.864 63.5745 59.578C63.3545 59.292 63.2445 58.9107 63.2445 58.434C63.2445 57.994 63.3545 57.609 63.5745 57.279C63.7945 56.949 64.1025 56.696 64.4985 56.52C64.8945 56.344 65.3528 56.256 65.8735 56.256C66.6141 56.256 67.2191 56.443 67.6885 56.817C68.1651 57.1837 68.4291 57.6897 68.4805 58.335H67.0945C67.0725 58.0563 66.9405 57.818 66.6985 57.62C66.4565 57.422 66.1375 57.323 65.7415 57.323C65.3821 57.323 65.0888 57.4147 64.8615 57.598C64.6341 57.7813 64.5205 58.0453 64.5205 58.39C64.5205 58.6247 64.5901 58.819 64.7295 58.973C64.8761 59.1197 65.0595 59.237 65.2795 59.325C65.4995 59.413 65.8001 59.5083 66.1815 59.611C66.6875 59.7503 67.0981 59.8897 67.4135 60.029C67.7361 60.1683 68.0075 60.3847 68.2275 60.678C68.4548 60.964 68.5685 61.349 68.5685 61.833C68.5685 62.2217 68.4621 62.5883 68.2495 62.933C68.0441 63.2777 67.7398 63.5563 67.3365 63.769C66.9405 63.9743 66.4711 64.077 65.9285 64.077ZM71.5111 58.962V62.317C71.5111 62.5443 71.5625 62.7093 71.6651 62.812C71.7751 62.9073 71.9585 62.955 72.2151 62.955H72.9851V64H71.9951C71.4305 64 70.9978 63.868 70.6971 63.604C70.3965 63.34 70.2461 62.911 70.2461 62.317V58.962H69.5311V57.939H70.2461V56.432H71.5111V57.939H72.9851V58.962H71.5111ZM76.7699 64.099C76.1979 64.099 75.6809 63.9707 75.2189 63.714C74.7569 63.45 74.3939 63.0833 74.1299 62.614C73.8659 62.1373 73.7339 61.5873 73.7339 60.964C73.7339 60.348 73.8696 59.8017 74.1409 59.325C74.4123 58.8483 74.7826 58.4817 75.2519 58.225C75.7213 57.9683 76.2456 57.84 76.8249 57.84C77.4043 57.84 77.9286 57.9683 78.3979 58.225C78.8673 58.4817 79.2376 58.8483 79.5089 59.325C79.7803 59.8017 79.9159 60.348 79.9159 60.964C79.9159 61.58 79.7766 62.1263 79.4979 62.603C79.2193 63.0797 78.8379 63.45 78.3539 63.714C77.8773 63.9707 77.3493 64.099 76.7699 64.099ZM76.7699 63.01C77.0926 63.01 77.3933 62.933 77.6719 62.779C77.9579 62.625 78.1889 62.394 78.3649 62.086C78.5409 61.778 78.6289 61.404 78.6289 60.964C78.6289 60.524 78.5446 60.1537 78.3759 59.853C78.2073 59.545 77.9836 59.314 77.7049 59.16C77.4263 59.006 77.1256 58.929 76.8029 58.929C76.4803 58.929 76.1796 59.006 75.9009 59.16C75.6296 59.314 75.4133 59.545 75.2519 59.853C75.0906 60.1537 75.0099 60.524 75.0099 60.964C75.0099 61.6167 75.1749 62.1227 75.5049 62.482C75.8423 62.834 76.2639 63.01 76.7699 63.01ZM82.4096 58.819C82.5929 58.511 82.8349 58.2727 83.1356 58.104C83.4436 57.928 83.8066 57.84 84.2246 57.84V59.138H83.9056C83.4142 59.138 83.0402 59.2627 82.7836 59.512C82.5342 59.7613 82.4096 60.194 82.4096 60.81V64H81.1556V57.939H82.4096V58.819ZM90.9322 60.821C90.9322 61.0483 90.9176 61.2537 90.8882 61.437H86.2572C86.2939 61.921 86.4736 62.3097 86.7962 62.603C87.1189 62.8963 87.5149 63.043 87.9842 63.043C88.6589 63.043 89.1356 62.7607 89.4142 62.196H90.7672C90.5839 62.7533 90.2502 63.2117 89.7662 63.571C89.2896 63.923 88.6956 64.099 87.9842 64.099C87.4049 64.099 86.8842 63.9707 86.4222 63.714C85.9676 63.45 85.6082 63.0833 85.3442 62.614C85.0876 62.1373 84.9592 61.5873 84.9592 60.964C84.9592 60.3407 85.0839 59.7943 85.3332 59.325C85.5899 58.8483 85.9456 58.4817 86.4002 58.225C86.8622 57.9683 87.3902 57.84 87.9842 57.84C88.5562 57.84 89.0659 57.9647 89.5132 58.214C89.9606 58.4633 90.3089 58.8153 90.5582 59.27C90.8076 59.7173 90.9322 60.2343 90.9322 60.821ZM89.6232 60.425C89.6159 59.963 89.4509 59.5927 89.1282 59.314C88.8056 59.0353 88.4059 58.896 87.9292 58.896C87.4966 58.896 87.1262 59.0353 86.8182 59.314C86.5102 59.5853 86.3269 59.9557 86.2682 60.425H89.6232Z"></path>
<path fill="url(#paint0_linear_723_78)" d="M38 23.5C38 22.6716 38.6716 22 39.5 22H59.5C60.3284 22 61 22.6716 61 23.5V37C61 39.2091 59.2091 41 57 41H42C39.7909 41 38 39.2091 38 37V23.5Z"></path>
<path fill="#F25022" d="M45 27H49V31H45V27Z"></path>
<path fill="#7FBA00" d="M50 27H54V31H50V27Z"></path>
<path fill="#FFB900" d="M50 32H54V36H50V32Z"></path>
<path fill="#00A4EF" d="M45 32H49V36H45V32Z"></path>
<path fill="url(#paint1_linear_723_78)" d="M43 20C43 18.8954 43.8954 18 45 18V23C45 23.5523 44.5523 24 44 24C43.4477 24 43 23.5523 43 23V20Z"></path>
<path fill="url(#paint2_linear_723_78)" d="M54 18C55.1046 18 56 18.8954 56 20V23C56 23.5523 55.5523 24 55 24C54.4477 24 54 23.5523 54 23V18Z"></path>
<path fill="url(#paint3_linear_723_78)" d="M45 18H54V20H45V18Z"></path>
<path fill-opacity="0.2" fill="black" d="M45 18H54V20H45V18Z"></path>
<defs>
<linearGradient gradientUnits="userSpaceOnUse" y2="40" x2="60" y1="22" x1="38" id="paint0_linear_723_78">
<stop stop-color="#0767B8"></stop>
<stop stop-color="#243A5F" offset="1"></stop>
</linearGradient>
<linearGradient gradientUnits="userSpaceOnUse" y2="18" x2="45" y1="24" x1="45" id="paint1_linear_723_78">
<stop stop-color="#0094D4"></stop>
<stop stop-color="#30DAFF" offset="1"></stop>
</linearGradient>
<linearGradient gradientUnits="userSpaceOnUse" y2="18" x2="45" y1="24" x1="45" id="paint2_linear_723_78">
<stop stop-color="#0094D4"></stop>
<stop stop-color="#30DAFF" offset="1"></stop>
</linearGradient>
<linearGradient gradientUnits="userSpaceOnUse" y2="18" x2="45" y1="24" x1="45" id="paint3_linear_723_78">
<stop stop-color="#0094D4"></stop>
<stop stop-color="#30DAFF" offset="1"></stop>
</linearGradient>
</defs>
</svg>
