<svg xmlns="http://www.w3.org/2000/svg" fill="none" viewBox="0 0 480 360" height="360" width="480">
<rect fill="#1A1A1A" rx="5" height="30" width="70" y="20" x="20"></rect>
<rect stroke-width="2" stroke-opacity="0.2" stroke="white" rx="6" height="32" width="72" y="19" x="19"></rect>
<path fill="white" d="M54.917 35.073C55.3277 35.1463 55.676 35.3627 55.962 35.722C56.248 36.0813 56.391 36.4883 56.391 36.943C56.391 37.3317 56.2883 37.6837 56.083 37.999C55.885 38.307 55.5953 38.5527 55.214 38.736C54.8327 38.912 54.389 39 53.883 39H50.825V31.355H53.74C54.2607 31.355 54.708 31.443 55.082 31.619C55.456 31.795 55.7383 32.0333 55.929 32.334C56.1197 32.6273 56.215 32.9573 56.215 33.324C56.215 33.764 56.0977 34.1307 55.863 34.424C55.6283 34.7173 55.313 34.9337 54.917 35.073ZM52.079 34.567H53.63C54.0407 34.567 54.3597 34.4753 54.587 34.292C54.8217 34.1013 54.939 33.83 54.939 33.478C54.939 33.1333 54.8217 32.8657 54.587 32.675C54.3597 32.477 54.0407 32.378 53.63 32.378H52.079V34.567ZM53.773 37.977C54.1983 37.977 54.532 37.8743 54.774 37.669C55.016 37.4637 55.137 37.1777 55.137 36.811C55.137 36.437 55.0087 36.14 54.752 35.92C54.4953 35.7 54.1543 35.59 53.729 35.59H52.079V37.977H53.773ZM57.3357 35.942C57.3357 35.3333 57.4604 34.7943 57.7097 34.325C57.9664 33.8557 58.311 33.4927 58.7437 33.236C59.1837 32.972 59.6677 32.84 60.1957 32.84C60.6724 32.84 61.0867 32.9353 61.4387 33.126C61.798 33.3093 62.084 33.5403 62.2967 33.819V32.939H63.5617V39H62.2967V38.098C62.084 38.384 61.7944 38.6223 61.4277 38.813C61.061 39.0037 60.643 39.099 60.1737 39.099C59.653 39.099 59.1764 38.967 58.7437 38.703C58.311 38.4317 57.9664 38.0577 57.7097 37.581C57.4604 37.097 57.3357 36.5507 57.3357 35.942ZM62.2967 35.964C62.2967 35.546 62.2087 35.183 62.0327 34.875C61.864 34.567 61.6404 34.3323 61.3617 34.171C61.083 34.0097 60.7824 33.929 60.4597 33.929C60.137 33.929 59.8364 34.0097 59.5577 34.171C59.279 34.325 59.0517 34.556 58.8757 34.864C58.707 35.1647 58.6227 35.524 58.6227 35.942C58.6227 36.36 58.707 36.7267 58.8757 37.042C59.0517 37.3573 59.279 37.5993 59.5577 37.768C59.8437 37.9293 60.1444 38.01 60.4597 38.01C60.7824 38.01 61.083 37.9293 61.3617 37.768C61.6404 37.6067 61.864 37.372 62.0327 37.064C62.2087 36.7487 62.2967 36.382 62.2967 35.964ZM64.7908 35.964C64.7908 35.3407 64.9155 34.7943 65.1648 34.325C65.4215 33.8483 65.7735 33.4817 66.2208 33.225C66.6681 32.9683 67.1815 32.84 67.7608 32.84C68.4941 32.84 69.0991 33.016 69.5758 33.368C70.0598 33.7127 70.3861 34.2077 70.5548 34.853H69.2018C69.0918 34.5523 68.9158 34.3177 68.6738 34.149C68.4318 33.9803 68.1275 33.896 67.7608 33.896C67.2475 33.896 66.8368 34.0793 66.5288 34.446C66.2281 34.8053 66.0778 35.3113 66.0778 35.964C66.0778 36.6167 66.2281 37.1263 66.5288 37.493C66.8368 37.8597 67.2475 38.043 67.7608 38.043C68.4868 38.043 68.9671 37.724 69.2018 37.086H70.5548C70.3788 37.702 70.0488 38.1933 69.5648 38.56C69.0808 38.9193 68.4795 39.099 67.7608 39.099C67.1815 39.099 66.6681 38.9707 66.2208 38.714C65.7735 38.45 65.4215 38.0833 65.1648 37.614C64.9155 37.1373 64.7908 36.5873 64.7908 35.964ZM74.2025 35.975L76.9965 39H75.3025L73.0585 36.393V39H71.8045V30.86H73.0585V35.59L75.2585 32.939H76.9965L74.2025 35.975Z"></path>
<path stroke-linejoin="round" stroke-linecap="round" stroke="white" d="M30 35L35 30M30 35L40 35M30 35L35 40"></path>
</svg>
