<svg xmlns="http://www.w3.org/2000/svg" fill="none" viewBox="0 0 480 360" height="360" width="480">
<path fill="white" d="M179.919 37.248L175.239 54H171.279L168.135 42.072L164.847 54L160.911 54.024L156.399 37.248H159.999L162.951 50.256L166.359 37.248H170.103L173.319 50.184L176.295 37.248H179.919ZM183.817 39.12C183.225 39.12 182.729 38.936 182.329 38.568C181.945 38.184 181.753 37.712 181.753 37.152C181.753 36.592 181.945 36.128 182.329 35.76C182.729 35.376 183.225 35.184 183.817 35.184C184.409 35.184 184.897 35.376 185.281 35.76C185.681 36.128 185.881 36.592 185.881 37.152C185.881 37.712 185.681 38.184 185.281 38.568C184.897 38.936 184.409 39.12 183.817 39.12ZM185.473 40.704V54H182.113V40.704H185.473ZM196.161 40.512C197.745 40.512 199.025 41.016 200.001 42.024C200.977 43.016 201.465 44.408 201.465 46.2V54H198.105V46.656C198.105 45.6 197.841 44.792 197.313 44.232C196.785 43.656 196.065 43.368 195.153 43.368C194.225 43.368 193.489 43.656 192.945 44.232C192.417 44.792 192.153 45.6 192.153 46.656V54H188.793V40.704H192.153V42.36C192.601 41.784 193.169 41.336 193.857 41.016C194.561 40.68 195.329 40.512 196.161 40.512ZM203.796 47.304C203.796 45.96 204.06 44.768 204.588 43.728C205.132 42.688 205.868 41.888 206.796 41.328C207.724 40.768 208.756 40.488 209.892 40.488C210.756 40.488 211.58 40.68 212.364 41.064C213.148 41.432 213.772 41.928 214.236 42.552V36.24H217.644V54H214.236V52.032C213.82 52.688 213.236 53.216 212.484 53.616C211.732 54.016 210.86 54.216 209.868 54.216C208.748 54.216 207.724 53.928 206.796 53.352C205.868 52.776 205.132 51.968 204.588 50.928C204.06 49.872 203.796 48.664 203.796 47.304ZM214.26 47.352C214.26 46.536 214.1 45.84 213.78 45.264C213.46 44.672 213.028 44.224 212.484 43.92C211.94 43.6 211.356 43.44 210.732 43.44C210.108 43.44 209.532 43.592 209.004 43.896C208.476 44.2 208.044 44.648 207.708 45.24C207.388 45.816 207.228 46.504 207.228 47.304C207.228 48.104 207.388 48.808 207.708 49.416C208.044 50.008 208.476 50.464 209.004 50.784C209.548 51.104 210.124 51.264 210.732 51.264C211.356 51.264 211.94 51.112 212.484 50.808C213.028 50.488 213.46 50.04 213.78 49.464C214.1 48.872 214.26 48.168 214.26 47.352ZM226.83 54.216C225.55 54.216 224.398 53.936 223.374 53.376C222.35 52.8 221.542 51.992 220.95 50.952C220.374 49.912 220.086 48.712 220.086 47.352C220.086 45.992 220.382 44.792 220.974 43.752C221.582 42.712 222.406 41.912 223.446 41.352C224.486 40.776 225.646 40.488 226.926 40.488C228.206 40.488 229.366 40.776 230.406 41.352C231.446 41.912 232.262 42.712 232.854 43.752C233.462 44.792 233.766 45.992 233.766 47.352C233.766 48.712 233.454 49.912 232.83 50.952C232.222 51.992 231.39 52.8 230.334 53.376C229.294 53.936 228.126 54.216 226.83 54.216ZM226.83 51.288C227.438 51.288 228.006 51.144 228.534 50.856C229.078 50.552 229.51 50.104 229.83 49.512C230.15 48.92 230.31 48.2 230.31 47.352C230.31 46.088 229.974 45.12 229.302 44.448C228.646 43.76 227.838 43.416 226.878 43.416C225.918 43.416 225.11 43.76 224.454 44.448C223.814 45.12 223.494 46.088 223.494 47.352C223.494 48.616 223.806 49.592 224.43 50.28C225.07 50.952 225.87 51.288 226.83 51.288ZM254.662 40.704L250.774 54H247.15L244.726 44.712L242.302 54H238.654L234.742 40.704H238.15L240.502 50.832L243.046 40.704H246.598L249.094 50.808L251.446 40.704H254.662ZM261.568 54.216C260.48 54.216 259.504 54.024 258.64 53.64C257.776 53.24 257.088 52.704 256.576 52.032C256.08 51.36 255.808 50.616 255.76 49.8H259.144C259.208 50.312 259.456 50.736 259.888 51.072C260.336 51.408 260.888 51.576 261.544 51.576C262.184 51.576 262.68 51.448 263.032 51.192C263.4 50.936 263.584 50.608 263.584 50.208C263.584 49.776 263.36 49.456 262.912 49.248C262.48 49.024 261.784 48.784 260.824 48.528C259.832 48.288 259.016 48.04 258.376 47.784C257.752 47.528 257.208 47.136 256.744 46.608C256.296 46.08 256.072 45.368 256.072 44.472C256.072 43.736 256.28 43.064 256.696 42.456C257.128 41.848 257.736 41.368 258.52 41.016C259.32 40.664 260.256 40.488 261.328 40.488C262.912 40.488 264.176 40.888 265.12 41.688C266.064 42.472 266.584 43.536 266.68 44.88H263.464C263.416 44.352 263.192 43.936 262.792 43.632C262.408 43.312 261.888 43.152 261.232 43.152C260.624 43.152 260.152 43.264 259.816 43.488C259.496 43.712 259.336 44.024 259.336 44.424C259.336 44.872 259.56 45.216 260.008 45.456C260.456 45.68 261.152 45.912 262.096 46.152C263.056 46.392 263.848 46.64 264.472 46.896C265.096 47.152 265.632 47.552 266.08 48.096C266.544 48.624 266.784 49.328 266.8 50.208C266.8 50.976 266.584 51.664 266.152 52.272C265.736 52.88 265.128 53.36 264.328 53.712C263.544 54.048 262.624 54.216 261.568 54.216ZM274.485 39.6V36.504H280.269V54H276.813V39.6H274.485ZM283.18 39.6V36.504H288.964V54H285.508V39.6H283.18ZM304.17 54.168C303.002 54.168 301.946 53.968 301.002 53.568C300.074 53.168 299.338 52.592 298.794 51.84C298.25 51.088 297.97 50.2 297.954 49.176H301.554C301.602 49.864 301.842 50.408 302.274 50.808C302.722 51.208 303.33 51.408 304.098 51.408C304.882 51.408 305.498 51.224 305.946 50.856C306.394 50.472 306.618 49.976 306.618 49.368C306.618 48.872 306.466 48.464 306.162 48.144C305.858 47.824 305.474 47.576 305.01 47.4C304.562 47.208 303.938 47 303.138 46.776C302.05 46.456 301.162 46.144 300.474 45.84C299.802 45.52 299.218 45.048 298.722 44.424C298.242 43.784 298.002 42.936 298.002 41.88C298.002 40.888 298.25 40.024 298.746 39.288C299.242 38.552 299.938 37.992 300.834 37.608C301.73 37.208 302.754 37.008 303.906 37.008C305.634 37.008 307.034 37.432 308.106 38.28C309.194 39.112 309.794 40.28 309.906 41.784H306.21C306.178 41.208 305.93 40.736 305.466 40.368C305.018 39.984 304.418 39.792 303.666 39.792C303.01 39.792 302.482 39.96 302.082 40.296C301.698 40.632 301.506 41.12 301.506 41.76C301.506 42.208 301.65 42.584 301.938 42.888C302.242 43.176 302.61 43.416 303.042 43.608C303.49 43.784 304.114 43.992 304.914 44.232C306.002 44.552 306.89 44.872 307.578 45.192C308.266 45.512 308.858 45.992 309.354 46.632C309.85 47.272 310.098 48.112 310.098 49.152C310.098 50.048 309.866 50.88 309.402 51.648C308.938 52.416 308.258 53.032 307.362 53.496C306.466 53.944 305.402 54.168 304.17 54.168ZM316.371 39.96V44.16H322.011V46.824H316.371V51.264H322.731V54H313.011V37.224H322.731V39.96H316.371Z"></path>
<path fill-opacity="0.75" fill="white" d="M160.573 77L158.263 72.92H157.273V77H155.173V66.53H159.103C159.913 66.53 160.603 66.675 161.173 66.965C161.743 67.245 162.168 67.63 162.448 68.12C162.738 68.6 162.883 69.14 162.883 69.74C162.883 70.43 162.683 71.055 162.283 71.615C161.883 72.165 161.288 72.545 160.498 72.755L163.003 77H160.573ZM157.273 71.345H159.028C159.598 71.345 160.023 71.21 160.303 70.94C160.583 70.66 160.723 70.275 160.723 69.785C160.723 69.305 160.583 68.935 160.303 68.675C160.023 68.405 159.598 68.27 159.028 68.27H157.273V71.345ZM172.508 72.665C172.508 72.965 172.488 73.235 172.448 73.475H166.373C166.423 74.075 166.633 74.545 167.003 74.885C167.373 75.225 167.828 75.395 168.368 75.395C169.148 75.395 169.703 75.06 170.033 74.39H172.298C172.058 75.19 171.598 75.85 170.918 76.37C170.238 76.88 169.403 77.135 168.413 77.135C167.613 77.135 166.893 76.96 166.253 76.61C165.623 76.25 165.128 75.745 164.768 75.095C164.418 74.445 164.243 73.695 164.243 72.845C164.243 71.985 164.418 71.23 164.768 70.58C165.118 69.93 165.608 69.43 166.238 69.08C166.868 68.73 167.593 68.555 168.413 68.555C169.203 68.555 169.908 68.725 170.528 69.065C171.158 69.405 171.643 69.89 171.983 70.52C172.333 71.14 172.508 71.855 172.508 72.665ZM170.333 72.065C170.323 71.525 170.128 71.095 169.748 70.775C169.368 70.445 168.903 70.28 168.353 70.28C167.833 70.28 167.393 70.44 167.033 70.76C166.683 71.07 166.468 71.505 166.388 72.065H170.333ZM173.5 72.845C173.5 71.985 173.675 71.235 174.025 70.595C174.375 69.945 174.86 69.445 175.48 69.095C176.1 68.735 176.81 68.555 177.61 68.555C178.64 68.555 179.49 68.815 180.16 69.335C180.84 69.845 181.295 70.565 181.525 71.495H179.26C179.14 71.135 178.935 70.855 178.645 70.655C178.365 70.445 178.015 70.34 177.595 70.34C176.995 70.34 176.52 70.56 176.17 71C175.82 71.43 175.645 72.045 175.645 72.845C175.645 73.635 175.82 74.25 176.17 74.69C176.52 75.12 176.995 75.335 177.595 75.335C178.445 75.335 179 74.955 179.26 74.195H181.525C181.295 75.095 180.84 75.81 180.16 76.34C179.48 76.87 178.63 77.135 177.61 77.135C176.81 77.135 176.1 76.96 175.48 76.61C174.86 76.25 174.375 75.75 174.025 75.11C173.675 74.46 173.5 73.705 173.5 72.845ZM186.754 77.135C185.954 77.135 185.234 76.96 184.594 76.61C183.954 76.25 183.449 75.745 183.079 75.095C182.719 74.445 182.539 73.695 182.539 72.845C182.539 71.995 182.724 71.245 183.094 70.595C183.474 69.945 183.989 69.445 184.639 69.095C185.289 68.735 186.014 68.555 186.814 68.555C187.614 68.555 188.339 68.735 188.989 69.095C189.639 69.445 190.149 69.945 190.519 70.595C190.899 71.245 191.089 71.995 191.089 72.845C191.089 73.695 190.894 74.445 190.504 75.095C190.124 75.745 189.604 76.25 188.944 76.61C188.294 76.96 187.564 77.135 186.754 77.135ZM186.754 75.305C187.134 75.305 187.489 75.215 187.819 75.035C188.159 74.845 188.429 74.565 188.629 74.195C188.829 73.825 188.929 73.375 188.929 72.845C188.929 72.055 188.719 71.45 188.299 71.03C187.889 70.6 187.384 70.385 186.784 70.385C186.184 70.385 185.679 70.6 185.269 71.03C184.869 71.45 184.669 72.055 184.669 72.845C184.669 73.635 184.864 74.245 185.254 74.675C185.654 75.095 186.154 75.305 186.754 75.305ZM196.094 75.065L198.194 68.69H200.429L197.354 77H194.804L191.744 68.69H193.994L196.094 75.065ZM209.334 72.665C209.334 72.965 209.314 73.235 209.274 73.475H203.199C203.249 74.075 203.459 74.545 203.829 74.885C204.199 75.225 204.654 75.395 205.194 75.395C205.974 75.395 206.529 75.06 206.859 74.39H209.124C208.884 75.19 208.424 75.85 207.744 76.37C207.064 76.88 206.229 77.135 205.239 77.135C204.439 77.135 203.719 76.96 203.079 76.61C202.449 76.25 201.954 75.745 201.594 75.095C201.244 74.445 201.069 73.695 201.069 72.845C201.069 71.985 201.244 71.23 201.594 70.58C201.944 69.93 202.434 69.43 203.064 69.08C203.694 68.73 204.419 68.555 205.239 68.555C206.029 68.555 206.734 68.725 207.354 69.065C207.984 69.405 208.469 69.89 208.809 70.52C209.159 71.14 209.334 71.855 209.334 72.665ZM207.159 72.065C207.149 71.525 206.954 71.095 206.574 70.775C206.194 70.445 205.729 70.28 205.179 70.28C204.659 70.28 204.219 70.44 203.859 70.76C203.509 71.07 203.294 71.505 203.214 72.065H207.159ZM212.967 69.98C213.237 69.54 213.587 69.195 214.017 68.945C214.457 68.695 214.957 68.57 215.517 68.57V70.775H214.962C214.302 70.775 213.802 70.93 213.462 71.24C213.132 71.55 212.967 72.09 212.967 72.86V77H210.867V68.69H212.967V69.98ZM224.881 68.69L219.736 80.93H217.501L219.301 76.79L215.971 68.69H218.326L220.471 74.495L222.646 68.69H224.881ZM231.687 68.225V70.85H235.212V72.515H231.687V75.29H235.662V77H229.587V66.515H235.662V68.225H231.687ZM242.176 68.57C243.166 68.57 243.966 68.885 244.576 69.515C245.186 70.135 245.491 71.005 245.491 72.125V77H243.391V72.41C243.391 71.75 243.226 71.245 242.896 70.895C242.566 70.535 242.116 70.355 241.546 70.355C240.966 70.355 240.506 70.535 240.166 70.895C239.836 71.245 239.671 71.75 239.671 72.41V77H237.571V68.69H239.671V69.725C239.951 69.365 240.306 69.085 240.736 68.885C241.176 68.675 241.656 68.57 242.176 68.57ZM250.953 75.065L253.053 68.69H255.288L252.213 77H249.663L246.603 68.69H248.853L250.953 75.065ZM257.532 67.7C257.162 67.7 256.852 67.585 256.602 67.355C256.362 67.115 256.242 66.82 256.242 66.47C256.242 66.12 256.362 65.83 256.602 65.6C256.852 65.36 257.162 65.24 257.532 65.24C257.902 65.24 258.207 65.36 258.447 65.6C258.697 65.83 258.822 66.12 258.822 66.47C258.822 66.82 258.697 67.115 258.447 67.355C258.207 67.585 257.902 67.7 257.532 67.7ZM258.567 68.69V77H256.467V68.69H258.567ZM262.742 69.98C263.012 69.54 263.362 69.195 263.792 68.945C264.232 68.695 264.732 68.57 265.292 68.57V70.775H264.737C264.077 70.775 263.577 70.93 263.237 71.24C262.907 71.55 262.742 72.09 262.742 72.86V77H260.642V68.69H262.742V69.98ZM270.396 77.135C269.596 77.135 268.876 76.96 268.236 76.61C267.596 76.25 267.091 75.745 266.721 75.095C266.361 74.445 266.181 73.695 266.181 72.845C266.181 71.995 266.366 71.245 266.736 70.595C267.116 69.945 267.631 69.445 268.281 69.095C268.931 68.735 269.656 68.555 270.456 68.555C271.256 68.555 271.981 68.735 272.631 69.095C273.281 69.445 273.791 69.945 274.161 70.595C274.541 71.245 274.731 71.995 274.731 72.845C274.731 73.695 274.536 74.445 274.146 75.095C273.766 75.745 273.246 76.25 272.586 76.61C271.936 76.96 271.206 77.135 270.396 77.135ZM270.396 75.305C270.776 75.305 271.131 75.215 271.461 75.035C271.801 74.845 272.071 74.565 272.271 74.195C272.471 73.825 272.571 73.375 272.571 72.845C272.571 72.055 272.361 71.45 271.941 71.03C271.531 70.6 271.026 70.385 270.426 70.385C269.826 70.385 269.321 70.6 268.911 71.03C268.511 71.45 268.311 72.055 268.311 72.845C268.311 73.635 268.506 74.245 268.896 74.675C269.296 75.095 269.796 75.305 270.396 75.305ZM280.877 68.57C281.867 68.57 282.667 68.885 283.277 69.515C283.887 70.135 284.192 71.005 284.192 72.125V77H282.092V72.41C282.092 71.75 281.927 71.245 281.597 70.895C281.267 70.535 280.817 70.355 280.247 70.355C279.667 70.355 279.207 70.535 278.867 70.895C278.537 71.245 278.372 71.75 278.372 72.41V77H276.272V68.69H278.372V69.725C278.652 69.365 279.007 69.085 279.437 68.885C279.877 68.675 280.357 68.57 280.877 68.57ZM296.509 68.57C297.529 68.57 298.349 68.885 298.969 69.515C299.599 70.135 299.914 71.005 299.914 72.125V77H297.814V72.41C297.814 71.76 297.649 71.265 297.319 70.925C296.989 70.575 296.539 70.4 295.969 70.4C295.399 70.4 294.944 70.575 294.604 70.925C294.274 71.265 294.109 71.76 294.109 72.41V77H292.009V72.41C292.009 71.76 291.844 71.265 291.514 70.925C291.184 70.575 290.734 70.4 290.164 70.4C289.584 70.4 289.124 70.575 288.784 70.925C288.454 71.265 288.289 71.76 288.289 72.41V77H286.189V68.69H288.289V69.695C288.559 69.345 288.904 69.07 289.324 68.87C289.754 68.67 290.224 68.57 290.734 68.57C291.384 68.57 291.964 68.71 292.474 68.99C292.984 69.26 293.379 69.65 293.659 70.16C293.929 69.68 294.319 69.295 294.829 69.005C295.349 68.715 295.909 68.57 296.509 68.57ZM309.632 72.665C309.632 72.965 309.612 73.235 309.572 73.475H303.497C303.547 74.075 303.757 74.545 304.127 74.885C304.497 75.225 304.952 75.395 305.492 75.395C306.272 75.395 306.827 75.06 307.157 74.39H309.422C309.182 75.19 308.722 75.85 308.042 76.37C307.362 76.88 306.527 77.135 305.537 77.135C304.737 77.135 304.017 76.96 303.377 76.61C302.747 76.25 302.252 75.745 301.892 75.095C301.542 74.445 301.367 73.695 301.367 72.845C301.367 71.985 301.542 71.23 301.892 70.58C302.242 69.93 302.732 69.43 303.362 69.08C303.992 68.73 304.717 68.555 305.537 68.555C306.327 68.555 307.032 68.725 307.652 69.065C308.282 69.405 308.767 69.89 309.107 70.52C309.457 71.14 309.632 71.855 309.632 72.665ZM307.457 72.065C307.447 71.525 307.252 71.095 306.872 70.775C306.492 70.445 306.027 70.28 305.477 70.28C304.957 70.28 304.517 70.44 304.157 70.76C303.807 71.07 303.592 71.505 303.512 72.065H307.457ZM315.769 68.57C316.759 68.57 317.559 68.885 318.169 69.515C318.779 70.135 319.084 71.005 319.084 72.125V77H316.984V72.41C316.984 71.75 316.819 71.245 316.489 70.895C316.159 70.535 315.709 70.355 315.139 70.355C314.559 70.355 314.099 70.535 313.759 70.895C313.429 71.245 313.264 71.75 313.264 72.41V77H311.164V68.69H313.264V69.725C313.544 69.365 313.899 69.085 314.329 68.885C314.769 68.675 315.249 68.57 315.769 68.57ZM323.526 70.415V74.435C323.526 74.715 323.591 74.92 323.721 75.05C323.861 75.17 324.091 75.23 324.411 75.23H325.386V77H324.066C322.296 77 321.411 76.14 321.411 74.42V70.415H320.421V68.69H321.411V66.635H323.526V68.69H325.386V70.415H323.526Z"></path>
<path fill-opacity="0.75" fill="white" d="M166.473 303.734C166.473 304.219 166.356 304.674 166.122 305.099C165.897 305.524 165.537 305.866 165.043 306.126C164.558 306.386 163.943 306.516 163.197 306.516H161.676V310H159.856V300.926H163.197C163.899 300.926 164.497 301.047 164.991 301.29C165.485 301.533 165.854 301.866 166.096 302.291C166.348 302.716 166.473 303.197 166.473 303.734ZM163.119 305.047C163.622 305.047 163.995 304.934 164.237 304.709C164.48 304.475 164.601 304.15 164.601 303.734C164.601 302.85 164.107 302.408 163.119 302.408H161.676V305.047H163.119ZM169.586 303.916C169.82 303.535 170.123 303.236 170.496 303.019C170.877 302.802 171.31 302.694 171.796 302.694V304.605H171.315C170.743 304.605 170.309 304.739 170.015 305.008C169.729 305.277 169.586 305.745 169.586 306.412V310H167.766V302.798H169.586V303.916ZM176.22 310.117C175.526 310.117 174.902 309.965 174.348 309.662C173.793 309.35 173.355 308.912 173.035 308.349C172.723 307.786 172.567 307.136 172.567 306.399C172.567 305.662 172.727 305.012 173.048 304.449C173.377 303.886 173.823 303.452 174.387 303.149C174.95 302.837 175.578 302.681 176.272 302.681C176.965 302.681 177.593 302.837 178.157 303.149C178.72 303.452 179.162 303.886 179.483 304.449C179.812 305.012 179.977 305.662 179.977 306.399C179.977 307.136 179.808 307.786 179.47 308.349C179.14 308.912 178.69 309.35 178.118 309.662C177.554 309.965 176.922 310.117 176.22 310.117ZM176.22 308.531C176.549 308.531 176.857 308.453 177.143 308.297C177.437 308.132 177.671 307.89 177.845 307.569C178.018 307.248 178.105 306.858 178.105 306.399C178.105 305.714 177.923 305.19 177.559 304.826C177.203 304.453 176.766 304.267 176.246 304.267C175.726 304.267 175.288 304.453 174.933 304.826C174.586 305.19 174.413 305.714 174.413 306.399C174.413 307.084 174.582 307.612 174.92 307.985C175.266 308.349 175.7 308.531 176.22 308.531ZM182.235 301.94C181.905 301.94 181.632 301.84 181.416 301.641C181.208 301.433 181.104 301.177 181.104 300.874C181.104 300.571 181.208 300.319 181.416 300.12C181.632 299.912 181.905 299.808 182.235 299.808C182.555 299.808 182.82 299.912 183.028 300.12C183.236 300.319 183.34 300.571 183.34 300.874C183.34 301.177 183.236 301.433 183.028 301.641C182.82 301.84 182.555 301.94 182.235 301.94ZM183.132 311.183C183.132 311.98 182.932 312.552 182.534 312.899C182.144 313.254 181.58 313.432 180.844 313.432H180.038V311.885H180.558C180.835 311.885 181.03 311.829 181.143 311.716C181.255 311.612 181.312 311.439 181.312 311.196V302.798H183.132V311.183ZM191.625 306.243C191.625 306.503 191.607 306.737 191.573 306.945H186.308C186.351 307.465 186.533 307.872 186.854 308.167C187.174 308.462 187.569 308.609 188.037 308.609C188.713 308.609 189.194 308.319 189.48 307.738H191.443C191.235 308.431 190.836 309.003 190.247 309.454C189.657 309.896 188.934 310.117 188.076 310.117C187.382 310.117 186.758 309.965 186.204 309.662C185.658 309.35 185.229 308.912 184.917 308.349C184.613 307.786 184.462 307.136 184.462 306.399C184.462 305.654 184.613 304.999 184.917 304.436C185.22 303.873 185.645 303.439 186.191 303.136C186.737 302.833 187.365 302.681 188.076 302.681C188.76 302.681 189.371 302.828 189.909 303.123C190.455 303.418 190.875 303.838 191.17 304.384C191.473 304.921 191.625 305.541 191.625 306.243ZM189.74 305.723C189.731 305.255 189.562 304.882 189.233 304.605C188.903 304.319 188.5 304.176 188.024 304.176C187.573 304.176 187.192 304.315 186.88 304.592C186.576 304.861 186.39 305.238 186.321 305.723H189.74ZM192.485 306.399C192.485 305.654 192.637 305.004 192.94 304.449C193.243 303.886 193.664 303.452 194.201 303.149C194.738 302.837 195.354 302.681 196.047 302.681C196.94 302.681 197.676 302.906 198.257 303.357C198.846 303.799 199.241 304.423 199.44 305.229H197.477C197.373 304.917 197.195 304.674 196.944 304.501C196.701 304.319 196.398 304.228 196.034 304.228C195.514 304.228 195.102 304.419 194.799 304.8C194.496 305.173 194.344 305.706 194.344 306.399C194.344 307.084 194.496 307.617 194.799 307.998C195.102 308.371 195.514 308.557 196.034 308.557C196.771 308.557 197.252 308.228 197.477 307.569H199.44C199.241 308.349 198.846 308.969 198.257 309.428C197.668 309.887 196.931 310.117 196.047 310.117C195.354 310.117 194.738 309.965 194.201 309.662C193.664 309.35 193.243 308.917 192.94 308.362C192.637 307.799 192.485 307.144 192.485 306.399ZM202.892 304.293V307.777C202.892 308.02 202.949 308.197 203.061 308.31C203.183 308.414 203.382 308.466 203.659 308.466H204.504V310H203.36C201.826 310 201.059 309.255 201.059 307.764V304.293H200.201V302.798H201.059V301.017H202.892V302.798H204.504V304.293H202.892ZM217.855 302.694C218.739 302.694 219.45 302.967 219.987 303.513C220.533 304.05 220.806 304.804 220.806 305.775V310H218.986V306.022C218.986 305.459 218.843 305.03 218.557 304.735C218.271 304.432 217.881 304.28 217.387 304.28C216.893 304.28 216.499 304.432 216.204 304.735C215.918 305.03 215.775 305.459 215.775 306.022V310H213.955V306.022C213.955 305.459 213.812 305.03 213.526 304.735C213.24 304.432 212.85 304.28 212.356 304.28C211.853 304.28 211.455 304.432 211.16 304.735C210.874 305.03 210.731 305.459 210.731 306.022V310H208.911V302.798H210.731V303.669C210.965 303.366 211.264 303.127 211.628 302.954C212.001 302.781 212.408 302.694 212.85 302.694C213.413 302.694 213.916 302.815 214.358 303.058C214.8 303.292 215.142 303.63 215.385 304.072C215.619 303.656 215.957 303.322 216.399 303.071C216.85 302.82 217.335 302.694 217.855 302.694ZM222.065 306.373C222.065 305.645 222.208 304.999 222.494 304.436C222.789 303.873 223.183 303.439 223.677 303.136C224.18 302.833 224.739 302.681 225.354 302.681C225.892 302.681 226.36 302.789 226.758 303.006C227.166 303.223 227.491 303.496 227.733 303.825V302.798H229.566V310H227.733V308.947C227.499 309.285 227.174 309.567 226.758 309.792C226.351 310.009 225.879 310.117 225.341 310.117C224.735 310.117 224.18 309.961 223.677 309.649C223.183 309.337 222.789 308.899 222.494 308.336C222.208 307.764 222.065 307.11 222.065 306.373ZM227.733 306.399C227.733 305.957 227.647 305.58 227.473 305.268C227.3 304.947 227.066 304.705 226.771 304.54C226.477 304.367 226.16 304.28 225.822 304.28C225.484 304.28 225.172 304.362 224.886 304.527C224.6 304.692 224.366 304.934 224.184 305.255C224.011 305.567 223.924 305.94 223.924 306.373C223.924 306.806 224.011 307.188 224.184 307.517C224.366 307.838 224.6 308.085 224.886 308.258C225.181 308.431 225.493 308.518 225.822 308.518C226.16 308.518 226.477 308.436 226.771 308.271C227.066 308.098 227.3 307.855 227.473 307.543C227.647 307.222 227.733 306.841 227.733 306.399ZM230.876 306.373C230.876 305.645 231.019 304.999 231.305 304.436C231.599 303.873 231.998 303.439 232.501 303.136C233.003 302.833 233.562 302.681 234.178 302.681C234.646 302.681 235.092 302.785 235.517 302.993C235.941 303.192 236.279 303.461 236.531 303.799V300.38H238.377V310H236.531V308.934C236.305 309.289 235.989 309.575 235.582 309.792C235.174 310.009 234.702 310.117 234.165 310.117C233.558 310.117 233.003 309.961 232.501 309.649C231.998 309.337 231.599 308.899 231.305 308.336C231.019 307.764 230.876 307.11 230.876 306.373ZM236.544 306.399C236.544 305.957 236.457 305.58 236.284 305.268C236.11 304.947 235.876 304.705 235.582 304.54C235.287 304.367 234.971 304.28 234.633 304.28C234.295 304.28 233.983 304.362 233.697 304.527C233.411 304.692 233.177 304.934 232.995 305.255C232.821 305.567 232.735 305.94 232.735 306.373C232.735 306.806 232.821 307.188 232.995 307.517C233.177 307.838 233.411 308.085 233.697 308.258C233.991 308.431 234.303 308.518 234.633 308.518C234.971 308.518 235.287 308.436 235.582 308.271C235.876 308.098 236.11 307.855 236.284 307.543C236.457 307.222 236.544 306.841 236.544 306.399ZM246.849 306.243C246.849 306.503 246.832 306.737 246.797 306.945H241.532C241.576 307.465 241.758 307.872 242.078 308.167C242.399 308.462 242.793 308.609 243.261 308.609C243.937 308.609 244.418 308.319 244.704 307.738H246.667C246.459 308.431 246.061 309.003 245.471 309.454C244.882 309.896 244.158 310.117 243.3 310.117C242.607 310.117 241.983 309.965 241.428 309.662C240.882 309.35 240.453 308.912 240.141 308.349C239.838 307.786 239.686 307.136 239.686 306.399C239.686 305.654 239.838 304.999 240.141 304.436C240.445 303.873 240.869 303.439 241.415 303.136C241.961 302.833 242.59 302.681 243.3 302.681C243.985 302.681 244.596 302.828 245.133 303.123C245.679 303.418 246.1 303.838 246.394 304.384C246.698 304.921 246.849 305.541 246.849 306.243ZM244.964 305.723C244.956 305.255 244.787 304.882 244.457 304.605C244.128 304.319 243.725 304.176 243.248 304.176C242.798 304.176 242.416 304.315 242.104 304.592C241.801 304.861 241.615 305.238 241.545 305.723H244.964ZM253.095 303.851C253.329 303.504 253.65 303.223 254.057 303.006C254.473 302.789 254.946 302.681 255.474 302.681C256.09 302.681 256.644 302.833 257.138 303.136C257.641 303.439 258.035 303.873 258.321 304.436C258.616 304.991 258.763 305.636 258.763 306.373C258.763 307.11 258.616 307.764 258.321 308.336C258.035 308.899 257.641 309.337 257.138 309.649C256.644 309.961 256.09 310.117 255.474 310.117C254.937 310.117 254.465 310.013 254.057 309.805C253.659 309.588 253.338 309.311 253.095 308.973V310H251.275V300.38H253.095V303.851ZM256.904 306.373C256.904 305.94 256.813 305.567 256.631 305.255C256.458 304.934 256.224 304.692 255.929 304.527C255.643 304.362 255.331 304.28 254.993 304.28C254.664 304.28 254.352 304.367 254.057 304.54C253.771 304.705 253.537 304.947 253.355 305.268C253.182 305.589 253.095 305.966 253.095 306.399C253.095 306.832 253.182 307.209 253.355 307.53C253.537 307.851 253.771 308.098 254.057 308.271C254.352 308.436 254.664 308.518 254.993 308.518C255.331 308.518 255.643 308.431 255.929 308.258C256.224 308.085 256.458 307.838 256.631 307.517C256.813 307.196 256.904 306.815 256.904 306.373ZM266.976 302.798L262.517 313.406H260.58L262.14 309.818L259.254 302.798H261.295L263.154 307.829L265.039 302.798H266.976ZM277.984 301.472C278.989 301.472 279.86 301.658 280.597 302.031C281.333 302.404 281.897 302.928 282.287 303.604C282.685 304.28 282.885 305.06 282.885 305.944C282.885 306.655 282.759 307.326 282.508 307.959C282.265 308.592 281.91 309.103 281.442 309.493C280.974 309.883 280.419 310.078 279.778 310.078C279.327 310.078 278.963 309.987 278.686 309.805C278.408 309.614 278.231 309.346 278.153 308.999C277.901 309.337 277.576 309.606 277.178 309.805C276.779 309.996 276.359 310.091 275.917 310.091C275.258 310.091 274.742 309.896 274.37 309.506C273.997 309.107 273.811 308.566 273.811 307.881C273.811 307.231 273.945 306.624 274.214 306.061C274.482 305.498 274.855 305.047 275.332 304.709C275.808 304.362 276.346 304.189 276.944 304.189C277.689 304.189 278.2 304.449 278.478 304.969L278.595 304.293H280.116L279.505 307.803C279.479 307.968 279.466 308.119 279.466 308.258C279.466 308.466 279.509 308.622 279.596 308.726C279.682 308.83 279.83 308.882 280.038 308.882C280.35 308.882 280.61 308.735 280.818 308.44C281.034 308.145 281.195 307.777 281.299 307.335C281.411 306.893 281.468 306.451 281.468 306.009C281.468 304.96 281.147 304.15 280.506 303.578C279.864 302.997 278.959 302.707 277.789 302.707C276.792 302.707 275.891 302.95 275.085 303.435C274.279 303.912 273.646 304.566 273.187 305.398C272.736 306.221 272.511 307.14 272.511 308.154C272.511 309.229 272.827 310.056 273.46 310.637C274.101 311.218 275.007 311.508 276.177 311.508C277.017 311.508 277.758 311.356 278.4 311.053L278.66 312.249C277.836 312.596 276.922 312.769 275.917 312.769C274.946 312.769 274.097 312.583 273.369 312.21C272.641 311.846 272.077 311.326 271.679 310.65C271.28 309.974 271.081 309.19 271.081 308.297C271.081 307.023 271.375 305.866 271.965 304.826C272.563 303.786 273.386 302.967 274.435 302.369C275.492 301.771 276.675 301.472 277.984 301.472ZM276.489 308.739C276.801 308.739 277.087 308.648 277.347 308.466C277.607 308.284 277.81 308.041 277.958 307.738C278.114 307.435 278.192 307.11 278.192 306.763C278.192 306.399 278.092 306.104 277.893 305.879C277.693 305.654 277.416 305.541 277.061 305.541C276.74 305.541 276.458 305.641 276.216 305.84C275.973 306.031 275.782 306.282 275.644 306.594C275.514 306.906 275.449 307.235 275.449 307.582C275.449 307.937 275.535 308.219 275.709 308.427C275.882 308.635 276.142 308.739 276.489 308.739ZM290.006 300.926V307.296C290.006 308.18 289.75 308.869 289.239 309.363C288.728 309.848 288.043 310.091 287.185 310.091C286.318 310.091 285.616 309.84 285.079 309.337C284.55 308.834 284.286 308.132 284.286 307.231H286.106C286.115 307.621 286.206 307.924 286.379 308.141C286.561 308.358 286.821 308.466 287.159 308.466C287.488 308.466 287.74 308.362 287.913 308.154C288.086 307.946 288.173 307.66 288.173 307.296V300.926H290.006ZM293.949 300.38V310H292.129V300.38H293.949ZM298.945 310.117C298.252 310.117 297.628 309.965 297.073 309.662C296.518 309.35 296.081 308.912 295.76 308.349C295.448 307.786 295.292 307.136 295.292 306.399C295.292 305.662 295.452 305.012 295.773 304.449C296.102 303.886 296.549 303.452 297.112 303.149C297.675 302.837 298.304 302.681 298.997 302.681C299.69 302.681 300.319 302.837 300.882 303.149C301.445 303.452 301.887 303.886 302.208 304.449C302.537 305.012 302.702 305.662 302.702 306.399C302.702 307.136 302.533 307.786 302.195 308.349C301.866 308.912 301.415 309.35 300.843 309.662C300.28 309.965 299.647 310.117 298.945 310.117ZM298.945 308.531C299.274 308.531 299.582 308.453 299.868 308.297C300.163 308.132 300.397 307.89 300.57 307.569C300.743 307.248 300.83 306.858 300.83 306.399C300.83 305.714 300.648 305.19 300.284 304.826C299.929 304.453 299.491 304.267 298.971 304.267C298.451 304.267 298.013 304.453 297.658 304.826C297.311 305.19 297.138 305.714 297.138 306.399C297.138 307.084 297.307 307.612 297.645 307.985C297.992 308.349 298.425 308.531 298.945 308.531ZM309.601 308.271H305.987L305.389 310H303.478L306.741 300.913H308.86L312.123 310H310.199L309.601 308.271ZM309.107 306.815L307.794 303.019L306.481 306.815H309.107ZM320.142 302.798V310H318.309V309.09C318.075 309.402 317.767 309.649 317.386 309.831C317.013 310.004 316.606 310.091 316.164 310.091C315.6 310.091 315.102 309.974 314.669 309.74C314.235 309.497 313.893 309.146 313.642 308.687C313.399 308.219 313.278 307.664 313.278 307.023V302.798H315.098V306.763C315.098 307.335 315.241 307.777 315.527 308.089C315.813 308.392 316.203 308.544 316.697 308.544C317.199 308.544 317.594 308.392 317.88 308.089C318.166 307.777 318.309 307.335 318.309 306.763V302.798H320.142Z"></path>
</svg>
