<svg xmlns="http://www.w3.org/2000/svg" fill="none" viewBox="0 0 260 160" height="160" width="260">
<path fill-opacity="0.9" fill="#1B1B1B" d="M20 30C20 24.4772 24.4772 20 30 20H230C235.523 20 240 24.4772 240 30V110C240 115.523 235.523 120 230 120H30C24.4772 120 20 115.523 20 110V30Z"></path>
<path stroke-width="2" stroke-opacity="0.2" stroke="white" d="M30 19C23.9249 19 19 23.9249 19 30V110C19 116.075 23.9249 121 30 121H230C236.075 121 241 116.075 241 110V30C241 23.9249 236.075 19 230 19H30Z"></path>
<path fill="white" d="M73.648 49.084C73.088 49.084 72.584 48.988 72.136 48.796C71.688 48.596 71.336 48.316 71.08 47.956C70.824 47.596 70.696 47.176 70.696 46.696H72.16C72.192 47.056 72.332 47.352 72.58 47.584C72.836 47.816 73.192 47.932 73.648 47.932C74.12 47.932 74.488 47.82 74.752 47.596C75.016 47.364 75.148 47.068 75.148 46.708C75.148 46.428 75.064 46.2 74.896 46.024C74.736 45.848 74.532 45.712 74.284 45.616C74.044 45.52 73.708 45.416 73.276 45.304C72.732 45.16 72.288 45.016 71.944 44.872C71.608 44.72 71.32 44.488 71.08 44.176C70.84 43.864 70.72 43.448 70.72 42.928C70.72 42.448 70.84 42.028 71.08 41.668C71.32 41.308 71.656 41.032 72.088 40.84C72.52 40.648 73.02 40.552 73.588 40.552C74.396 40.552 75.056 40.756 75.568 41.164C76.088 41.564 76.376 42.116 76.432 42.82H74.92C74.896 42.516 74.752 42.256 74.488 42.04C74.224 41.824 73.876 41.716 73.444 41.716C73.052 41.716 72.732 41.816 72.484 42.016C72.236 42.216 72.112 42.504 72.112 42.88C72.112 43.136 72.188 43.348 72.34 43.516C72.5 43.676 72.7 43.804 72.94 43.9C73.18 43.996 73.508 44.1 73.924 44.212C74.476 44.364 74.924 44.516 75.268 44.668C75.62 44.82 75.916 45.056 76.156 45.376C76.404 45.688 76.528 46.108 76.528 46.636C76.528 47.06 76.412 47.46 76.18 47.836C75.956 48.212 75.624 48.516 75.184 48.748C74.752 48.972 74.24 49.084 73.648 49.084ZM79.7382 43.504V47.164C79.7382 47.412 79.7942 47.592 79.9062 47.704C80.0262 47.808 80.2262 47.86 80.5062 47.86H81.3462V49H80.2662C79.6502 49 79.1782 48.856 78.8502 48.568C78.5222 48.28 78.3582 47.812 78.3582 47.164V43.504H77.5782V42.388H78.3582V40.744H79.7382V42.388H81.3462V43.504H79.7382ZM85.475 49.108C84.851 49.108 84.287 48.968 83.783 48.688C83.279 48.4 82.883 48 82.595 47.488C82.307 46.968 82.163 46.368 82.163 45.688C82.163 45.016 82.311 44.42 82.607 43.9C82.903 43.38 83.307 42.98 83.819 42.7C84.331 42.42 84.903 42.28 85.535 42.28C86.167 42.28 86.739 42.42 87.251 42.7C87.763 42.98 88.167 43.38 88.463 43.9C88.759 44.42 88.907 45.016 88.907 45.688C88.907 46.36 88.755 46.956 88.451 47.476C88.147 47.996 87.731 48.4 87.203 48.688C86.683 48.968 86.107 49.108 85.475 49.108ZM85.475 47.92C85.827 47.92 86.155 47.836 86.459 47.668C86.771 47.5 87.023 47.248 87.215 46.912C87.407 46.576 87.503 46.168 87.503 45.688C87.503 45.208 87.411 44.804 87.227 44.476C87.043 44.14 86.799 43.888 86.495 43.72C86.191 43.552 85.863 43.468 85.511 43.468C85.159 43.468 84.831 43.552 84.527 43.72C84.231 43.888 83.995 44.14 83.819 44.476C83.643 44.804 83.555 45.208 83.555 45.688C83.555 46.4 83.735 46.952 84.095 47.344C84.463 47.728 84.923 47.92 85.475 47.92ZM91.6274 43.348C91.8274 43.012 92.0914 42.752 92.4194 42.568C92.7554 42.376 93.1514 42.28 93.6074 42.28V43.696H93.2594C92.7234 43.696 92.3154 43.832 92.0354 44.104C91.7634 44.376 91.6274 44.848 91.6274 45.52V49H90.2594V42.388H91.6274V43.348ZM100.925 45.532C100.925 45.78 100.909 46.004 100.877 46.204H95.8248C95.8648 46.732 96.0608 47.156 96.4128 47.476C96.7648 47.796 97.1968 47.956 97.7088 47.956C98.4448 47.956 98.9648 47.648 99.2688 47.032H100.745C100.545 47.64 100.181 48.14 99.6528 48.532C99.1328 48.916 98.4848 49.108 97.7088 49.108C97.0768 49.108 96.5088 48.968 96.0048 48.688C95.5088 48.4 95.1168 48 94.8288 47.488C94.5488 46.968 94.4088 46.368 94.4088 45.688C94.4088 45.008 94.5448 44.412 94.8168 43.9C95.0968 43.38 95.4848 42.98 95.9808 42.7C96.4848 42.42 97.0608 42.28 97.7088 42.28C98.3328 42.28 98.8888 42.416 99.3768 42.688C99.8648 42.96 100.245 43.344 100.517 43.84C100.789 44.328 100.925 44.892 100.925 45.532ZM99.4968 45.1C99.4888 44.596 99.3088 44.192 98.9568 43.888C98.6048 43.584 98.1688 43.432 97.6488 43.432C97.1768 43.432 96.7728 43.584 96.4368 43.888C96.1008 44.184 95.9008 44.588 95.8368 45.1H99.4968Z"></path>
<path fill="#BEBEBE" d="M45.324 74.355V75.378H42.079V77.633H44.609V78.656H42.079V82H40.825V74.355H45.324ZM46.0681 78.942C46.0681 78.3333 46.1928 77.7943 46.4421 77.325C46.6988 76.8557 47.0435 76.4927 47.4761 76.236C47.9161 75.972 48.4001 75.84 48.9281 75.84C49.4048 75.84 49.8191 75.9353 50.1711 76.126C50.5305 76.3093 50.8165 76.5403 51.0291 76.819V75.939H52.2941V82H51.0291V81.098C50.8165 81.384 50.5268 81.6223 50.1601 81.813C49.7935 82.0037 49.3755 82.099 48.9061 82.099C48.3855 82.099 47.9088 81.967 47.4761 81.703C47.0435 81.4317 46.6988 81.0577 46.4421 80.581C46.1928 80.097 46.0681 79.5507 46.0681 78.942ZM51.0291 78.964C51.0291 78.546 50.9411 78.183 50.7651 77.875C50.5965 77.567 50.3728 77.3323 50.0941 77.171C49.8155 77.0097 49.5148 76.929 49.1921 76.929C48.8695 76.929 48.5688 77.0097 48.2901 77.171C48.0115 77.325 47.7841 77.556 47.6081 77.864C47.4395 78.1647 47.3551 78.524 47.3551 78.942C47.3551 79.36 47.4395 79.7267 47.6081 80.042C47.7841 80.3573 48.0115 80.5993 48.2901 80.768C48.5761 80.9293 48.8768 81.01 49.1921 81.01C49.5148 81.01 49.8155 80.9293 50.0941 80.768C50.3728 80.6067 50.5965 80.372 50.7651 80.064C50.9411 79.7487 51.0291 79.382 51.0291 78.964ZM54.5792 75.136C54.3519 75.136 54.1612 75.059 54.0072 74.905C53.8532 74.751 53.7762 74.5603 53.7762 74.333C53.7762 74.1057 53.8532 73.915 54.0072 73.761C54.1612 73.607 54.3519 73.53 54.5792 73.53C54.7992 73.53 54.9862 73.607 55.1402 73.761C55.2942 73.915 55.3712 74.1057 55.3712 74.333C55.3712 74.5603 55.2942 74.751 55.1402 74.905C54.9862 75.059 54.7992 75.136 54.5792 75.136ZM55.1952 75.939V82H53.9412V75.939H55.1952ZM58.0956 73.86V82H56.8416V73.86H58.0956ZM65.297 78.821C65.297 79.0483 65.2823 79.2537 65.253 79.437H60.622C60.6587 79.921 60.8383 80.3097 61.161 80.603C61.4837 80.8963 61.8797 81.043 62.349 81.043C63.0237 81.043 63.5003 80.7607 63.779 80.196H65.132C64.9487 80.7533 64.615 81.2117 64.131 81.571C63.6543 81.923 63.0603 82.099 62.349 82.099C61.7697 82.099 61.249 81.9707 60.787 81.714C60.3323 81.45 59.973 81.0833 59.709 80.614C59.4523 80.1373 59.324 79.5873 59.324 78.964C59.324 78.3407 59.4487 77.7943 59.698 77.325C59.9547 76.8483 60.3103 76.4817 60.765 76.225C61.227 75.9683 61.755 75.84 62.349 75.84C62.921 75.84 63.4307 75.9647 63.878 76.214C64.3253 76.4633 64.6737 76.8153 64.923 77.27C65.1723 77.7173 65.297 78.2343 65.297 78.821ZM63.988 78.425C63.9807 77.963 63.8157 77.5927 63.493 77.314C63.1703 77.0353 62.7707 76.896 62.294 76.896C61.8613 76.896 61.491 77.0353 61.183 77.314C60.875 77.5853 60.6917 77.9557 60.633 78.425H63.988ZM66.1131 78.942C66.1131 78.3333 66.2377 77.7943 66.4871 77.325C66.7437 76.8557 67.0884 76.4927 67.5211 76.236C67.9611 75.972 68.4487 75.84 68.9841 75.84C69.3801 75.84 69.7687 75.928 70.1501 76.104C70.5387 76.2727 70.8467 76.5 71.0741 76.786V73.86H72.3391V82H71.0741V81.087C70.8687 81.3803 70.5827 81.6223 70.2161 81.813C69.8567 82.0037 69.4424 82.099 68.9731 82.099C68.4451 82.099 67.9611 81.967 67.5211 81.703C67.0884 81.4317 66.7437 81.0577 66.4871 80.581C66.2377 80.097 66.1131 79.5507 66.1131 78.942ZM71.0741 78.964C71.0741 78.546 70.9861 78.183 70.8101 77.875C70.6414 77.567 70.4177 77.3323 70.1391 77.171C69.8604 77.0097 69.5597 76.929 69.2371 76.929C68.9144 76.929 68.6137 77.0097 68.3351 77.171C68.0564 77.325 67.8291 77.556 67.6531 77.864C67.4844 78.1647 67.4001 78.524 67.4001 78.942C67.4001 79.36 67.4844 79.7267 67.6531 80.042C67.8291 80.3573 68.0564 80.5993 68.3351 80.768C68.6211 80.9293 68.9217 81.01 69.2371 81.01C69.5597 81.01 69.8604 80.9293 70.1391 80.768C70.4177 80.6067 70.6414 80.372 70.8101 80.064C70.9861 79.7487 71.0741 79.382 71.0741 78.964ZM78.3066 76.962V80.317C78.3066 80.5443 78.3579 80.7093 78.4606 80.812C78.5706 80.9073 78.7539 80.955 79.0106 80.955H79.7806V82H78.7906C78.2259 82 77.7932 81.868 77.4926 81.604C77.1919 81.34 77.0416 80.911 77.0416 80.317V76.962H76.3266V75.939H77.0416V74.432H78.3066V75.939H79.7806V76.962H78.3066ZM83.5653 82.099C82.9933 82.099 82.4763 81.9707 82.0143 81.714C81.5523 81.45 81.1893 81.0833 80.9253 80.614C80.6613 80.1373 80.5293 79.5873 80.5293 78.964C80.5293 78.348 80.665 77.8017 80.9363 77.325C81.2077 76.8483 81.578 76.4817 82.0473 76.225C82.5167 75.9683 83.041 75.84 83.6203 75.84C84.1997 75.84 84.724 75.9683 85.1933 76.225C85.6627 76.4817 86.033 76.8483 86.3043 77.325C86.5757 77.8017 86.7113 78.348 86.7113 78.964C86.7113 79.58 86.572 80.1263 86.2933 80.603C86.0147 81.0797 85.6333 81.45 85.1493 81.714C84.6727 81.9707 84.1447 82.099 83.5653 82.099ZM83.5653 81.01C83.888 81.01 84.1887 80.933 84.4673 80.779C84.7533 80.625 84.9843 80.394 85.1603 80.086C85.3363 79.778 85.4243 79.404 85.4243 78.964C85.4243 78.524 85.34 78.1537 85.1713 77.853C85.0027 77.545 84.779 77.314 84.5003 77.16C84.2217 77.006 83.921 76.929 83.5983 76.929C83.2757 76.929 82.975 77.006 82.6963 77.16C82.425 77.314 82.2087 77.545 82.0473 77.853C81.886 78.1537 81.8053 78.524 81.8053 78.964C81.8053 79.6167 81.9703 80.1227 82.3003 80.482C82.6377 80.834 83.0593 81.01 83.5653 81.01ZM91.4464 75.136C91.2191 75.136 91.0284 75.059 90.8744 74.905C90.7204 74.751 90.6434 74.5603 90.6434 74.333C90.6434 74.1057 90.7204 73.915 90.8744 73.761C91.0284 73.607 91.2191 73.53 91.4464 73.53C91.6664 73.53 91.8534 73.607 92.0074 73.761C92.1614 73.915 92.2384 74.1057 92.2384 74.333C92.2384 74.5603 92.1614 74.751 92.0074 74.905C91.8534 75.059 91.6664 75.136 91.4464 75.136ZM92.0624 75.939V82H90.8084V75.939H92.0624ZM96.7668 75.84C97.2435 75.84 97.6688 75.939 98.0428 76.137C98.4241 76.335 98.7211 76.6283 98.9338 77.017C99.1465 77.4057 99.2528 77.875 99.2528 78.425V82H98.0098V78.612C98.0098 78.0693 97.8741 77.655 97.6028 77.369C97.3315 77.0757 96.9611 76.929 96.4918 76.929C96.0225 76.929 95.6485 77.0757 95.3698 77.369C95.0985 77.655 94.9628 78.0693 94.9628 78.612V82H93.7088V75.939H94.9628V76.632C95.1681 76.3827 95.4285 76.1883 95.7438 76.049C96.0665 75.9097 96.4075 75.84 96.7668 75.84ZM103.052 82.099C102.576 82.099 102.147 82.0147 101.765 81.846C101.391 81.67 101.094 81.4353 100.874 81.142C100.654 80.8413 100.537 80.5077 100.522 80.141H101.82C101.842 80.3977 101.963 80.614 102.183 80.79C102.411 80.9587 102.693 81.043 103.03 81.043C103.382 81.043 103.654 80.977 103.844 80.845C104.042 80.7057 104.141 80.5297 104.141 80.317C104.141 80.0897 104.031 79.921 103.811 79.811C103.599 79.701 103.258 79.58 102.788 79.448C102.334 79.3233 101.963 79.2023 101.677 79.085C101.391 78.9677 101.142 78.788 100.929 78.546C100.724 78.304 100.621 77.985 100.621 77.589C100.621 77.2663 100.717 76.973 100.907 76.709C101.098 76.4377 101.369 76.225 101.721 76.071C102.081 75.917 102.491 75.84 102.953 75.84C103.643 75.84 104.196 76.016 104.614 76.368C105.04 76.7127 105.267 77.1857 105.296 77.787H104.042C104.02 77.5157 103.91 77.2993 103.712 77.138C103.514 76.9767 103.247 76.896 102.909 76.896C102.579 76.896 102.326 76.9583 102.15 77.083C101.974 77.2077 101.886 77.3727 101.886 77.578C101.886 77.7393 101.945 77.875 102.062 77.985C102.18 78.095 102.323 78.183 102.491 78.249C102.66 78.3077 102.909 78.3847 103.239 78.48C103.679 78.5973 104.039 78.7183 104.317 78.843C104.603 78.9603 104.849 79.1363 105.054 79.371C105.26 79.6057 105.366 79.9173 105.373 80.306C105.373 80.6507 105.278 80.9587 105.087 81.23C104.897 81.5013 104.625 81.714 104.273 81.868C103.929 82.022 103.522 82.099 103.052 82.099ZM108.191 76.962V80.317C108.191 80.5443 108.243 80.7093 108.345 80.812C108.455 80.9073 108.639 80.955 108.895 80.955H109.665V82H108.675C108.111 82 107.678 81.868 107.377 81.604C107.077 81.34 106.926 80.911 106.926 80.317V76.962H106.211V75.939H106.926V74.432H108.191V75.939H109.665V76.962H108.191ZM110.403 78.942C110.403 78.3333 110.528 77.7943 110.777 77.325C111.034 76.8557 111.378 76.4927 111.811 76.236C112.251 75.972 112.735 75.84 113.263 75.84C113.74 75.84 114.154 75.9353 114.506 76.126C114.865 76.3093 115.151 76.5403 115.364 76.819V75.939H116.629V82H115.364V81.098C115.151 81.384 114.862 81.6223 114.495 81.813C114.128 82.0037 113.71 82.099 113.241 82.099C112.72 82.099 112.244 81.967 111.811 81.703C111.378 81.4317 111.034 81.0577 110.777 80.581C110.528 80.097 110.403 79.5507 110.403 78.942ZM115.364 78.964C115.364 78.546 115.276 78.183 115.1 77.875C114.931 77.567 114.708 77.3323 114.429 77.171C114.15 77.0097 113.85 76.929 113.527 76.929C113.204 76.929 112.904 77.0097 112.625 77.171C112.346 77.325 112.119 77.556 111.943 77.864C111.774 78.1647 111.69 78.524 111.69 78.942C111.69 79.36 111.774 79.7267 111.943 80.042C112.119 80.3573 112.346 80.5993 112.625 80.768C112.911 80.9293 113.212 81.01 113.527 81.01C113.85 81.01 114.15 80.9293 114.429 80.768C114.708 80.6067 114.931 80.372 115.1 80.064C115.276 79.7487 115.364 79.382 115.364 78.964ZM119.53 73.86V82H118.276V73.86H119.53ZM122.431 73.86V82H121.177V73.86H122.431ZM128.397 76.962V80.317C128.397 80.5443 128.449 80.7093 128.551 80.812C128.661 80.9073 128.845 80.955 129.101 80.955H129.871V82H128.881C128.317 82 127.884 81.868 127.583 81.604C127.283 81.34 127.132 80.911 127.132 80.317V76.962H126.417V75.939H127.132V74.432H128.397V75.939H129.871V76.962H128.397ZM134.162 75.84C134.624 75.84 135.035 75.939 135.394 76.137C135.761 76.335 136.047 76.6283 136.252 77.017C136.465 77.4057 136.571 77.875 136.571 78.425V82H135.328V78.612C135.328 78.0693 135.192 77.655 134.921 77.369C134.65 77.0757 134.279 76.929 133.81 76.929C133.341 76.929 132.967 77.0757 132.688 77.369C132.417 77.655 132.281 78.0693 132.281 78.612V82H131.027V73.86H132.281V76.643C132.494 76.3863 132.761 76.1883 133.084 76.049C133.414 75.9097 133.773 75.84 134.162 75.84ZM143.726 78.821C143.726 79.0483 143.711 79.2537 143.682 79.437H139.051C139.087 79.921 139.267 80.3097 139.59 80.603C139.912 80.8963 140.308 81.043 140.778 81.043C141.452 81.043 141.929 80.7607 142.208 80.196H143.561C143.377 80.7533 143.044 81.2117 142.56 81.571C142.083 81.923 141.489 82.099 140.778 82.099C140.198 82.099 139.678 81.9707 139.216 81.714C138.761 81.45 138.402 81.0833 138.138 80.614C137.881 80.1373 137.753 79.5873 137.753 78.964C137.753 78.3407 137.877 77.7943 138.127 77.325C138.383 76.8483 138.739 76.4817 139.194 76.225C139.656 75.9683 140.184 75.84 140.778 75.84C141.35 75.84 141.859 75.9647 142.307 76.214C142.754 76.4633 143.102 76.8153 143.352 77.27C143.601 77.7173 143.726 78.2343 143.726 78.821ZM142.417 78.425C142.409 77.963 142.244 77.5927 141.922 77.314C141.599 77.0353 141.199 76.896 140.723 76.896C140.29 76.896 139.92 77.0353 139.612 77.314C139.304 77.5853 139.12 77.9557 139.062 78.425H142.417ZM147.399 78.942C147.399 78.3333 147.524 77.7943 147.773 77.325C148.03 76.8557 148.375 76.4927 148.807 76.236C149.247 75.972 149.731 75.84 150.259 75.84C150.736 75.84 151.15 75.9353 151.502 76.126C151.862 76.3093 152.148 76.5403 152.36 76.819V75.939H153.625V82H152.36V81.098C152.148 81.384 151.858 81.6223 151.491 81.813C151.125 82.0037 150.707 82.099 150.237 82.099C149.717 82.099 149.24 81.967 148.807 81.703C148.375 81.4317 148.03 81.0577 147.773 80.581C147.524 80.097 147.399 79.5507 147.399 78.942ZM152.36 78.964C152.36 78.546 152.272 78.183 152.096 77.875C151.928 77.567 151.704 77.3323 151.425 77.171C151.147 77.0097 150.846 76.929 150.523 76.929C150.201 76.929 149.9 77.0097 149.621 77.171C149.343 77.325 149.115 77.556 148.939 77.864C148.771 78.1647 148.686 78.524 148.686 78.942C148.686 79.36 148.771 79.7267 148.939 80.042C149.115 80.3573 149.343 80.5993 149.621 80.768C149.907 80.9293 150.208 81.01 150.523 81.01C150.846 81.01 151.147 80.9293 151.425 80.768C151.704 80.6067 151.928 80.372 152.096 80.064C152.272 79.7487 152.36 79.382 152.36 78.964ZM156.526 76.83C156.739 76.5513 157.029 76.3167 157.395 76.126C157.762 75.9353 158.176 75.84 158.638 75.84C159.166 75.84 159.647 75.972 160.079 76.236C160.519 76.4927 160.864 76.8557 161.113 77.325C161.363 77.7943 161.487 78.3333 161.487 78.942C161.487 79.5507 161.363 80.097 161.113 80.581C160.864 81.0577 160.519 81.4317 160.079 81.703C159.647 81.967 159.166 82.099 158.638 82.099C158.176 82.099 157.766 82.0073 157.406 81.824C157.047 81.6333 156.754 81.3987 156.526 81.12V84.882H155.272V75.939H156.526V76.83ZM160.211 78.942C160.211 78.524 160.123 78.1647 159.947 77.864C159.779 77.556 159.551 77.325 159.265 77.171C158.987 77.0097 158.686 76.929 158.363 76.929C158.048 76.929 157.747 77.0097 157.461 77.171C157.183 77.3323 156.955 77.567 156.779 77.875C156.611 78.183 156.526 78.546 156.526 78.964C156.526 79.382 156.611 79.7487 156.779 80.064C156.955 80.372 157.183 80.6067 157.461 80.768C157.747 80.9293 158.048 81.01 158.363 81.01C158.686 81.01 158.987 80.9293 159.265 80.768C159.551 80.5993 159.779 80.3573 159.947 80.042C160.123 79.7267 160.211 79.36 160.211 78.942ZM163.981 76.83C164.194 76.5513 164.484 76.3167 164.85 76.126C165.217 75.9353 165.631 75.84 166.093 75.84C166.621 75.84 167.102 75.972 167.534 76.236C167.974 76.4927 168.319 76.8557 168.568 77.325C168.818 77.7943 168.942 78.3333 168.942 78.942C168.942 79.5507 168.818 80.097 168.568 80.581C168.319 81.0577 167.974 81.4317 167.534 81.703C167.102 81.967 166.621 82.099 166.093 82.099C165.631 82.099 165.221 82.0073 164.861 81.824C164.502 81.6333 164.209 81.3987 163.981 81.12V84.882H162.727V75.939H163.981V76.83ZM167.666 78.942C167.666 78.524 167.578 78.1647 167.402 77.864C167.234 77.556 167.006 77.325 166.72 77.171C166.442 77.0097 166.141 76.929 165.818 76.929C165.503 76.929 165.202 77.0097 164.916 77.171C164.638 77.3323 164.41 77.567 164.234 77.875C164.066 78.183 163.981 78.546 163.981 78.964C163.981 79.382 164.066 79.7487 164.234 80.064C164.41 80.372 164.638 80.6067 164.916 80.768C165.202 80.9293 165.503 81.01 165.818 81.01C166.141 81.01 166.442 80.9293 166.72 80.768C167.006 80.5993 167.234 80.3573 167.402 80.042C167.578 79.7267 167.666 79.36 167.666 78.942ZM170.688 82.077C170.461 82.077 170.27 82 170.116 81.846C169.962 81.692 169.885 81.5013 169.885 81.274C169.885 81.0467 169.962 80.856 170.116 80.702C170.27 80.548 170.461 80.471 170.688 80.471C170.908 80.471 171.095 80.548 171.249 80.702C171.403 80.856 171.48 81.0467 171.48 81.274C171.48 81.5013 171.403 81.692 171.249 81.846C171.095 82 170.908 82.077 170.688 82.077ZM176.947 80.988H179.532V82H175.693V74.355H176.947V80.988ZM183.21 82.099C182.638 82.099 182.121 81.9707 181.659 81.714C181.197 81.45 180.834 81.0833 180.57 80.614C180.306 80.1373 180.174 79.5873 180.174 78.964C180.174 78.348 180.31 77.8017 180.581 77.325C180.852 76.8483 181.223 76.4817 181.692 76.225C182.161 75.9683 182.686 75.84 183.265 75.84C183.844 75.84 184.369 75.9683 184.838 76.225C185.307 76.4817 185.678 76.8483 185.949 77.325C186.22 77.8017 186.356 78.348 186.356 78.964C186.356 79.58 186.217 80.1263 185.938 80.603C185.659 81.0797 185.278 81.45 184.794 81.714C184.317 81.9707 183.789 82.099 183.21 82.099ZM183.21 81.01C183.533 81.01 183.833 80.933 184.112 80.779C184.398 80.625 184.629 80.394 184.805 80.086C184.981 79.778 185.069 79.404 185.069 78.964C185.069 78.524 184.985 78.1537 184.816 77.853C184.647 77.545 184.424 77.314 184.145 77.16C183.866 77.006 183.566 76.929 183.243 76.929C182.92 76.929 182.62 77.006 182.341 77.16C182.07 77.314 181.853 77.545 181.692 77.853C181.531 78.1537 181.45 78.524 181.45 78.964C181.45 79.6167 181.615 80.1227 181.945 80.482C182.282 80.834 182.704 81.01 183.21 81.01ZM187.178 78.964C187.178 78.3407 187.302 77.7943 187.552 77.325C187.808 76.8483 188.16 76.4817 188.608 76.225C189.055 75.9683 189.568 75.84 190.148 75.84C190.881 75.84 191.486 76.016 191.963 76.368C192.447 76.7127 192.773 77.2077 192.942 77.853H191.589C191.479 77.5523 191.303 77.3177 191.061 77.149C190.819 76.9803 190.514 76.896 190.148 76.896C189.634 76.896 189.224 77.0793 188.916 77.446C188.615 77.8053 188.465 78.3113 188.465 78.964C188.465 79.6167 188.615 80.1263 188.916 80.493C189.224 80.8597 189.634 81.043 190.148 81.043C190.874 81.043 191.354 80.724 191.589 80.086H192.942C192.766 80.702 192.436 81.1933 191.952 81.56C191.468 81.9193 190.866 82.099 190.148 82.099C189.568 82.099 189.055 81.9707 188.608 81.714C188.16 81.45 187.808 81.0833 187.552 80.614C187.302 80.1373 187.178 79.5873 187.178 78.964ZM193.773 78.942C193.773 78.3333 193.898 77.7943 194.147 77.325C194.404 76.8557 194.749 76.4927 195.181 76.236C195.621 75.972 196.105 75.84 196.633 75.84C197.11 75.84 197.524 75.9353 197.876 76.126C198.236 76.3093 198.522 76.5403 198.734 76.819V75.939H199.999V82H198.734V81.098C198.522 81.384 198.232 81.6223 197.865 81.813C197.499 82.0037 197.081 82.099 196.611 82.099C196.091 82.099 195.614 81.967 195.181 81.703C194.749 81.4317 194.404 81.0577 194.147 80.581C193.898 80.097 193.773 79.5507 193.773 78.942ZM198.734 78.964C198.734 78.546 198.646 78.183 198.47 77.875C198.302 77.567 198.078 77.3323 197.799 77.171C197.521 77.0097 197.22 76.929 196.897 76.929C196.575 76.929 196.274 77.0097 195.995 77.171C195.717 77.325 195.489 77.556 195.313 77.864C195.145 78.1647 195.06 78.524 195.06 78.942C195.06 79.36 195.145 79.7267 195.313 80.042C195.489 80.3573 195.717 80.5993 195.995 80.768C196.281 80.9293 196.582 81.01 196.897 81.01C197.22 81.01 197.521 80.9293 197.799 80.768C198.078 80.6067 198.302 80.372 198.47 80.064C198.646 79.7487 198.734 79.382 198.734 78.964ZM202.9 73.86V82H201.646V73.86H202.9ZM40.407 94.942C40.407 94.3333 40.5317 93.7943 40.781 93.325C41.0377 92.8557 41.3823 92.4927 41.815 92.236C42.255 91.972 42.7427 91.84 43.278 91.84C43.674 91.84 44.0627 91.928 44.444 92.104C44.8327 92.2727 45.1407 92.5 45.368 92.786V89.86H46.633V98H45.368V97.087C45.1627 97.3803 44.8767 97.6223 44.51 97.813C44.1507 98.0037 43.7363 98.099 43.267 98.099C42.739 98.099 42.255 97.967 41.815 97.703C41.3823 97.4317 41.0377 97.0577 40.781 96.581C40.5317 96.097 40.407 95.5507 40.407 94.942ZM45.368 94.964C45.368 94.546 45.28 94.183 45.104 93.875C44.9353 93.567 44.7117 93.3323 44.433 93.171C44.1543 93.0097 43.8537 92.929 43.531 92.929C43.2083 92.929 42.9077 93.0097 42.629 93.171C42.3503 93.325 42.123 93.556 41.947 93.864C41.7783 94.1647 41.694 94.524 41.694 94.942C41.694 95.36 41.7783 95.7267 41.947 96.042C42.123 96.3573 42.3503 96.5993 42.629 96.768C42.915 96.9293 43.2157 97.01 43.531 97.01C43.8537 97.01 44.1543 96.9293 44.433 96.768C44.7117 96.6067 44.9353 96.372 45.104 96.064C45.28 95.7487 45.368 95.382 45.368 94.964ZM48.9181 91.136C48.6907 91.136 48.5001 91.059 48.3461 90.905C48.1921 90.751 48.1151 90.5603 48.1151 90.333C48.1151 90.1057 48.1921 89.915 48.3461 89.761C48.5001 89.607 48.6907 89.53 48.9181 89.53C49.1381 89.53 49.3251 89.607 49.4791 89.761C49.6331 89.915 49.7101 90.1057 49.7101 90.333C49.7101 90.5603 49.6331 90.751 49.4791 90.905C49.3251 91.059 49.1381 91.136 48.9181 91.136ZM49.5341 91.939V98H48.2801V91.939H49.5341ZM53.3805 98.099C52.9038 98.099 52.4748 98.0147 52.0935 97.846C51.7195 97.67 51.4225 97.4353 51.2025 97.142C50.9825 96.8413 50.8651 96.5077 50.8505 96.141H52.1485C52.1705 96.3977 52.2915 96.614 52.5115 96.79C52.7388 96.9587 53.0211 97.043 53.3585 97.043C53.7105 97.043 53.9818 96.977 54.1725 96.845C54.3705 96.7057 54.4695 96.5297 54.4695 96.317C54.4695 96.0897 54.3595 95.921 54.1395 95.811C53.9268 95.701 53.5858 95.58 53.1165 95.448C52.6618 95.3233 52.2915 95.2023 52.0055 95.085C51.7195 94.9677 51.4701 94.788 51.2575 94.546C51.0521 94.304 50.9495 93.985 50.9495 93.589C50.9495 93.2663 51.0448 92.973 51.2355 92.709C51.4261 92.4377 51.6975 92.225 52.0495 92.071C52.4088 91.917 52.8195 91.84 53.2815 91.84C53.9708 91.84 54.5245 92.016 54.9425 92.368C55.3678 92.7127 55.5951 93.1857 55.6245 93.787H54.3705C54.3485 93.5157 54.2385 93.2993 54.0405 93.138C53.8425 92.9767 53.5748 92.896 53.2375 92.896C52.9075 92.896 52.6545 92.9583 52.4785 93.083C52.3025 93.2077 52.2145 93.3727 52.2145 93.578C52.2145 93.7393 52.2731 93.875 52.3905 93.985C52.5078 94.095 52.6508 94.183 52.8195 94.249C52.9881 94.3077 53.2375 94.3847 53.5675 94.48C54.0075 94.5973 54.3668 94.7183 54.6455 94.843C54.9315 94.9603 55.1771 95.1363 55.3825 95.371C55.5878 95.6057 55.6941 95.9173 55.7015 96.306C55.7015 96.6507 55.6061 96.9587 55.4155 97.23C55.2248 97.5013 54.9535 97.714 54.6015 97.868C54.2568 98.022 53.8498 98.099 53.3805 98.099ZM59.4544 94.975L62.2484 98H60.5544L58.3104 95.393V98H57.0564V89.86H58.3104V94.59L60.5104 91.939H62.2484L59.4544 94.975ZM66.6427 91.136C66.4154 91.136 66.2247 91.059 66.0707 90.905C65.9167 90.751 65.8397 90.5603 65.8397 90.333C65.8397 90.1057 65.9167 89.915 66.0707 89.761C66.2247 89.607 66.4154 89.53 66.6427 89.53C66.8627 89.53 67.0497 89.607 67.2037 89.761C67.3577 89.915 67.4347 90.1057 67.4347 90.333C67.4347 90.5603 67.3577 90.751 67.2037 90.905C67.0497 91.059 66.8627 91.136 66.6427 91.136ZM67.2587 91.939V98H66.0047V91.939H67.2587ZM71.1051 98.099C70.6284 98.099 70.1994 98.0147 69.8181 97.846C69.4441 97.67 69.1471 97.4353 68.9271 97.142C68.7071 96.8413 68.5897 96.5077 68.5751 96.141H69.8731C69.8951 96.3977 70.0161 96.614 70.2361 96.79C70.4634 96.9587 70.7457 97.043 71.0831 97.043C71.4351 97.043 71.7064 96.977 71.8971 96.845C72.0951 96.7057 72.1941 96.5297 72.1941 96.317C72.1941 96.0897 72.0841 95.921 71.8641 95.811C71.6514 95.701 71.3104 95.58 70.8411 95.448C70.3864 95.3233 70.0161 95.2023 69.7301 95.085C69.4441 94.9677 69.1947 94.788 68.9821 94.546C68.7767 94.304 68.6741 93.985 68.6741 93.589C68.6741 93.2663 68.7694 92.973 68.9601 92.709C69.1507 92.4377 69.4221 92.225 69.7741 92.071C70.1334 91.917 70.5441 91.84 71.0061 91.84C71.6954 91.84 72.2491 92.016 72.6671 92.368C73.0924 92.7127 73.3197 93.1857 73.3491 93.787H72.0951C72.0731 93.5157 71.9631 93.2993 71.7651 93.138C71.5671 92.9767 71.2994 92.896 70.9621 92.896C70.6321 92.896 70.3791 92.9583 70.2031 93.083C70.0271 93.2077 69.9391 93.3727 69.9391 93.578C69.9391 93.7393 69.9977 93.875 70.1151 93.985C70.2324 94.095 70.3754 94.183 70.5441 94.249C70.7127 94.3077 70.9621 94.3847 71.2921 94.48C71.7321 94.5973 72.0914 94.7183 72.3701 94.843C72.6561 94.9603 72.9017 95.1363 73.1071 95.371C73.3124 95.6057 73.4187 95.9173 73.4261 96.306C73.4261 96.6507 73.3307 96.9587 73.1401 97.23C72.9494 97.5013 72.6781 97.714 72.3261 97.868C71.9814 98.022 71.5744 98.099 71.1051 98.099ZM80.1795 92.962H79.0575V98H77.7925V92.962H77.0775V91.939H77.7925V91.51C77.7925 90.8133 77.9758 90.3073 78.3425 89.992C78.7165 89.6693 79.2995 89.508 80.0915 89.508V90.553C79.7101 90.553 79.4425 90.6263 79.2885 90.773C79.1345 90.9123 79.0575 91.158 79.0575 91.51V91.939H80.1795V92.962ZM86.7798 91.939V98H85.5258V97.285C85.3278 97.5343 85.0675 97.7323 84.7448 97.879C84.4295 98.0183 84.0922 98.088 83.7328 98.088C83.2562 98.088 82.8272 97.989 82.4458 97.791C82.0718 97.593 81.7748 97.2997 81.5548 96.911C81.3422 96.5223 81.2358 96.053 81.2358 95.503V91.939H82.4788V95.316C82.4788 95.8587 82.6145 96.2767 82.8858 96.57C83.1572 96.856 83.5275 96.999 83.9968 96.999C84.4662 96.999 84.8365 96.856 85.1078 96.57C85.3865 96.2767 85.5258 95.8587 85.5258 95.316V91.939H86.7798ZM89.6884 89.86V98H88.4344V89.86H89.6884ZM92.5888 89.86V98H91.3348V89.86H92.5888ZM94.7412 98.077C94.5138 98.077 94.3232 98 94.1692 97.846C94.0152 97.692 93.9382 97.5013 93.9382 97.274C93.9382 97.0467 94.0152 96.856 94.1692 96.702C94.3232 96.548 94.5138 96.471 94.7412 96.471C94.9612 96.471 95.1482 96.548 95.3022 96.702C95.4562 96.856 95.5332 97.0467 95.5332 97.274C95.5332 97.5013 95.4562 97.692 95.3022 97.846C95.1482 98 94.9612 98.077 94.7412 98.077Z"></path>
<path stroke-linejoin="round" stroke-linecap="round" stroke-width="1.5" stroke="#BFBFBF" d="M211.464 41.4645L218.536 48.5356M218.536 41.4645L211.464 48.5356"></path>
<path fill="url(#paint0_linear_964_175)" d="M37.7998 41.1C37.7998 40.6029 38.2027 40.2 38.6998 40.2H50.6998C51.1969 40.2 51.5998 40.6029 51.5998 41.1V49.1999C51.5998 50.5254 50.5253 51.6 49.1998 51.6H40.1998C38.8743 51.6 37.7998 50.5254 37.7998 49.2V41.1Z"></path>
<path fill="#F25022" d="M42 43.2H44.4V45.6H42V43.2Z"></path>
<path fill="#7FBA00" d="M45 43.2H47.4V45.6H45V43.2Z"></path>
<path fill="#FFB900" d="M45 46.2H47.4V48.6H45V46.2Z"></path>
<path fill="#00A4EF" d="M42 46.2H44.4V48.6H42V46.2Z"></path>
<path fill="url(#paint1_linear_964_175)" d="M40.7998 39C40.7998 38.3373 41.3371 37.8 41.9998 37.8V40.8C41.9998 41.1314 41.7312 41.4 41.3998 41.4C41.0684 41.4 40.7998 41.1314 40.7998 40.8V39Z"></path>
<path fill="url(#paint2_linear_964_175)" d="M47.3998 37.8C48.0625 37.8 48.5998 38.3373 48.5998 39V40.8C48.5998 41.1314 48.3312 41.4 47.9998 41.4C47.6684 41.4 47.3998 41.1314 47.3998 40.8V37.8Z"></path>
<path fill="url(#paint3_linear_964_175)" d="M41.9998 37.8H47.3998V39H41.9998V37.8Z"></path>
<path fill-opacity="0.2" fill="black" d="M41.9998 37.8H47.3998V39H41.9998V37.8Z"></path>
<defs>
<linearGradient gradientUnits="userSpaceOnUse" y2="51" x2="50.9998" y1="40.2" x1="37.7998" id="paint0_linear_964_175">
<stop stop-color="white"></stop>
<stop stop-color="#DFDFDF" offset="1"></stop>
</linearGradient>
<linearGradient gradientUnits="userSpaceOnUse" y2="37.8" x2="41.9998" y1="41.4" x1="41.9998" id="paint1_linear_964_175">
<stop stop-color="#0094D4"></stop>
<stop stop-color="#30DAFF" offset="1"></stop>
</linearGradient>
<linearGradient gradientUnits="userSpaceOnUse" y2="37.8" x2="41.9998" y1="41.4" x1="41.9998" id="paint2_linear_964_175">
<stop stop-color="#0094D4"></stop>
<stop stop-color="#30DAFF" offset="1"></stop>
</linearGradient>
<linearGradient gradientUnits="userSpaceOnUse" y2="37.8" x2="41.9998" y1="41.4" x1="41.9998" id="paint3_linear_964_175">
<stop stop-color="#0094D4"></stop>
<stop stop-color="#30DAFF" offset="1"></stop>
</linearGradient>
</defs>
</svg>
