<svg xmlns="http://www.w3.org/2000/svg" fill="none" viewBox="0 0 44 24" height="24" width="44">
<path fill-opacity="0.5" fill="#FF0000" d="M2 12C2 6.47715 6.47715 2 12 2H32C37.5228 2 42 6.47715 42 12V12C42 17.5228 37.5228 22 32 22H12C6.47715 22 2 17.5228 2 12V12Z"></path>
<path stroke-width="2" stroke-opacity="0.2" stroke="#FF0000" d="M32 1H12C5.92487 1 1 5.92487 1 12C1 18.0751 5.92487 23 12 23H32C38.0751 23 43 18.0751 43 12C43 5.92487 38.0751 1 32 1Z"></path>
<path fill="white" d="M19.7306 9.28C19.6426 8.912 19.4826 8.636 19.2506 8.452C19.0186 8.268 18.6946 8.176 18.2786 8.176C17.6466 8.176 17.1746 8.42 16.8626 8.908C16.5506 9.388 16.3866 10.188 16.3706 11.308C16.5786 10.956 16.8826 10.684 17.2826 10.492C17.6826 10.3 18.1146 10.204 18.5786 10.204C19.1066 10.204 19.5706 10.32 19.9706 10.552C20.3786 10.776 20.6946 11.104 20.9186 11.536C21.1506 11.968 21.2666 12.484 21.2666 13.084C21.2666 13.644 21.1546 14.144 20.9306 14.584C20.7146 15.024 20.3906 15.372 19.9586 15.628C19.5266 15.876 19.0066 16 18.3986 16C17.5746 16 16.9266 15.82 16.4546 15.46C15.9906 15.092 15.6626 14.576 15.4706 13.912C15.2866 13.248 15.1946 12.42 15.1946 11.428C15.1946 8.5 16.2266 7.036 18.2906 7.036C19.0906 7.036 19.7186 7.252 20.1746 7.684C20.6386 8.116 20.9106 8.648 20.9906 9.28H19.7306ZM18.2786 11.356C17.7906 11.356 17.3746 11.504 17.0306 11.8C16.6946 12.088 16.5266 12.508 16.5266 13.06C16.5266 13.612 16.6826 14.052 16.9946 14.38C17.3146 14.7 17.7586 14.86 18.3266 14.86C18.8306 14.86 19.2266 14.704 19.5146 14.392C19.8106 14.08 19.9586 13.664 19.9586 13.144C19.9586 12.6 19.8146 12.168 19.5266 11.848C19.2466 11.52 18.8306 11.356 18.2786 11.356ZM22.7259 11.512C22.7259 10.128 22.9579 9.048 23.4219 8.272C23.8939 7.488 24.7019 7.096 25.8459 7.096C26.9899 7.096 27.7939 7.488 28.2579 8.272C28.7299 9.048 28.9659 10.128 28.9659 11.512C28.9659 12.912 28.7299 14.008 28.2579 14.8C27.7939 15.584 26.9899 15.976 25.8459 15.976C24.7019 15.976 23.8939 15.584 23.4219 14.8C22.9579 14.008 22.7259 12.912 22.7259 11.512ZM27.6219 11.512C27.6219 10.864 27.5779 10.316 27.4899 9.868C27.4099 9.42 27.2419 9.056 26.9859 8.776C26.7299 8.488 26.3499 8.344 25.8459 8.344C25.3419 8.344 24.9619 8.488 24.7059 8.776C24.4499 9.056 24.2779 9.42 24.1899 9.868C24.1099 10.316 24.0699 10.864 24.0699 11.512C24.0699 12.184 24.1099 12.748 24.1899 13.204C24.2699 13.66 24.4379 14.028 24.6939 14.308C24.9579 14.588 25.3419 14.728 25.8459 14.728C26.3499 14.728 26.7299 14.588 26.9859 14.308C27.2499 14.028 27.4219 13.66 27.5019 13.204C27.5819 12.748 27.6219 12.184 27.6219 11.512Z"></path>
</svg>
