<svg xmlns="http://www.w3.org/2000/svg" fill="none" viewBox="0 0 44 24" height="24" width="44">
<path fill-opacity="0.5" fill="#FF0000" d="M2 12C2 6.47715 6.47715 2 12 2H32C37.5228 2 42 6.47715 42 12V12C42 17.5228 37.5228 22 32 22H12C6.47715 22 2 17.5228 2 12V12Z"></path>
<path stroke-width="2" stroke-opacity="0.2" stroke="#FF0000" d="M32 1H12C5.92487 1 1 5.92487 1 12C1 18.0751 5.92487 23 12 23H32C38.0751 23 43 18.0751 43 12C43 5.92487 38.0751 1 32 1Z"></path>
<path fill="white" d="M16.6338 8.5V7.252H19.1298V16H17.7498V8.5H16.6338ZM22.7131 13.624C22.7931 14.024 22.9651 14.328 23.2291 14.536C23.4931 14.744 23.8491 14.848 24.2971 14.848C24.8651 14.848 25.2811 14.624 25.5451 14.176C25.8091 13.728 25.9411 12.964 25.9411 11.884C25.7491 12.156 25.4771 12.368 25.1251 12.52C24.7811 12.664 24.4051 12.736 23.9971 12.736C23.4771 12.736 23.0051 12.632 22.5811 12.424C22.1571 12.208 21.8211 11.892 21.5731 11.476C21.3331 11.052 21.2131 10.54 21.2131 9.94C21.2131 9.06 21.4691 8.36 21.9811 7.84C22.5011 7.312 23.2131 7.048 24.1171 7.048C25.2051 7.048 25.9771 7.412 26.4331 8.14C26.8971 8.86 27.1291 9.968 27.1291 11.464C27.1291 12.496 27.0411 13.34 26.8651 13.996C26.6971 14.652 26.4011 15.148 25.9771 15.484C25.5531 15.82 24.9651 15.988 24.2131 15.988C23.3571 15.988 22.6971 15.764 22.2331 15.316C21.7691 14.868 21.5091 14.304 21.4531 13.624H22.7131ZM24.2371 11.584C24.7171 11.584 25.0931 11.436 25.3651 11.14C25.6451 10.836 25.7851 10.436 25.7851 9.94C25.7851 9.388 25.6371 8.96 25.3411 8.656C25.0531 8.344 24.6571 8.188 24.1531 8.188C23.6491 8.188 23.2491 8.348 22.9531 8.668C22.6651 8.98 22.5211 9.392 22.5211 9.904C22.5211 10.392 22.6611 10.796 22.9411 11.116C23.2291 11.428 23.6611 11.584 24.2371 11.584Z"></path>
</svg>
