<svg version="1.1" xmlns="http://www.w3.org/2000/svg" xmlns:xlink="http://www.w3.org/1999/xlink" width="40" height="20" viewBox="0,0,40,20"><g transform="translate(-220,-167)"><g data-paper-data="{&quot;isPaintingLayer&quot;:true}" fill-rule="nonzero" stroke="none" stroke-width="1" stroke-linecap="butt" stroke-linejoin="miter" stroke-miterlimit="10" stroke-dasharray="" stroke-dashoffset="0" style="mix-blend-mode: normal"><path d="M220,187v-20h40v20z" fill="none"></path><path d="M247.344,180l-1.032,-1.032c-0.4,0.4 -0.836,0.7 -1.308,0.9c-0.472,0.192 -1,0.288 -1.584,0.288c-0.592,0 -1.116,-0.104 -1.572,-0.312c-0.456,-0.208 -0.808,-0.504 -1.056,-0.888c-0.248,-0.392 -0.372,-0.844 -0.372,-1.356c0,-0.576 0.164,-1.088 0.492,-1.536c0.328,-0.456 0.816,-0.816 1.464,-1.08c-0.232,-0.28 -0.396,-0.54 -0.492,-0.78c-0.096,-0.248 -0.144,-0.52 -0.144,-0.816c0,-0.368 0.092,-0.696 0.276,-0.984c0.192,-0.288 0.464,-0.516 0.816,-0.684c0.352,-0.168 0.76,-0.252 1.224,-0.252c0.472,0 0.872,0.092 1.2,0.276c0.336,0.176 0.584,0.42 0.744,0.732c0.168,0.312 0.236,0.66 0.204,1.044h-1.368c0.008,-0.296 -0.064,-0.524 -0.216,-0.684c-0.152,-0.168 -0.36,-0.252 -0.624,-0.252c-0.264,0 -0.48,0.08 -0.648,0.24c-0.16,0.152 -0.24,0.34 -0.24,0.564c0,0.216 0.06,0.432 0.18,0.648c0.128,0.208 0.348,0.48 0.66,0.816l2.208,2.196l0.852,-1.404h1.476l-1.08,1.848l-0.3,0.492l2.028,2.016zM243.42,178.992c0.752,0 1.416,-0.308 1.992,-0.924l-2.208,-2.22c-0.944,0.376 -1.416,0.944 -1.416,1.704c0,0.408 0.152,0.752 0.456,1.032c0.304,0.272 0.696,0.408 1.176,0.408z" fill="#ff0000"></path></g></g></svg>