<svg xmlns="http://www.w3.org/2000/svg" fill="none" viewBox="0 0 90 90" height="90" width="90">
<path fill="#FF8067" d="M44.5884 55.5892V54.7678L43.7649 55.1785L42.9414 54.7678V53.9464L46.2355 52.3035V49.8392L47.059 50.2499L47.8826 49.8392V52.3035L49.5296 53.1249V53.9464L45.412 55.9999L44.5884 55.5892Z"></path>
<path fill="#FF8067" d="M40.4708 53.5356V52.7142L39.6473 53.1249L38.8237 52.7142V51.8928L42.1178 50.2499V47.7856L42.9414 48.1964L43.7649 47.7856V50.2499L45.412 51.0714V51.8928L41.2943 53.9464L40.4708 53.5356Z"></path>
<path fill="#FF956F" d="M38.8237 51.8928L39.6473 52.3035V53.1249L38.8237 52.7142V51.8928Z"></path>
<path fill="#FF956F" d="M40.4708 52.7142L41.2943 53.1249V53.9464L40.4708 53.5357V52.7142Z"></path>
<path fill="#FF956F" d="M42.9414 53.9464L43.7649 54.3571V55.1785L42.9414 54.7678V53.9464Z"></path>
<path fill="#FF956F" d="M44.5884 54.7678L45.412 55.1785V55.9999L44.5884 55.5892V54.7678Z"></path>
<path fill="#FF956F" d="M41.2943 51.4821L42.1178 51.8928L41.2943 52.3035V51.4821Z"></path>
<path fill="#FF956F" d="M45.412 53.5357L46.2355 53.9464L45.412 54.3571V53.5357Z"></path>
<path fill="#FF956F" d="M46.2355 49.8392L47.059 50.2499V53.5357L46.2355 53.1249V49.8392Z"></path>
<path fill="#FF956F" d="M42.1178 47.7856L42.9414 48.1963V51.4821L42.1178 51.0714V47.7856Z"></path>
<path fill="#EC5957" d="M41.294 51.482L39.647 52.3034V53.1249L41.294 52.3034V51.482Z"></path>
<path fill="#EC5957" d="M45.4117 51.0713L41.294 53.1249V53.9463L45.4117 51.8927V51.0713Z"></path>
<path fill="#EC5957" d="M45.4117 53.5356L43.7646 54.357V55.1784L45.4117 54.357V53.5356Z"></path>
<path fill="#EC5957" d="M49.5293 53.1249L45.4117 55.1784V55.9999L49.5293 53.9463V53.1249Z"></path>
<path fill="#EC5957" d="M47.8823 49.8391L47.0587 50.2499V53.5356L47.8823 53.1249V49.8391Z"></path>
<path fill="#EC5957" d="M43.7646 47.7857L42.9411 48.1964V51.4821L43.7646 51.0714V47.7857Z"></path>
<path fill="white" d="M38.8237 49.4287V36.2859L44.5884 33.4109L49.5296 35.8752V40.8037L52.0002 42.0359V48.6073L47.059 51.0716L46.2355 50.6609L43.7649 51.893L38.8237 49.4287Z"></path>
<path fill="#F5E4EE" d="M43.7646 38.75L49.5294 35.875V44.0893L51.9999 42.8571L51.1764 42.4464L51.9999 42.0357V48.6071L47.0588 51.0714V47.7857L51.9999 45.3214L50.3529 44.5L45.4117 46.9643V50.25L46.2352 50.6607L43.7646 51.8928V38.75Z"></path>
<path fill="#FF5D94" d="M41.2943 36.6964V34.6429L44.5884 33L46.2355 33.8214V35.875L42.9414 37.5179L41.2943 36.6964Z"></path>
<path fill="#FF5D94" d="M38.8237 44.0893V42.0357L40.4708 41.2143L42.1178 42.0357V44.0893L40.4708 44.9107L38.8237 44.0893Z"></path>
<path fill="#FF6EA5" d="M42.9414 35.4643L41.2943 34.6428V36.6964L42.9414 37.5178V35.4643Z"></path>
<path fill="#FF6EA5" d="M40.4708 42.8571L38.8237 42.0357V44.0892L40.4708 44.9107V42.8571Z"></path>
<path fill="#FF8067" d="M38 42.4464V40.3928L40.4706 39.1606L42.1176 39.9821V42.0356L39.6471 43.2678L38 42.4464Z"></path>
<path fill="#EC5957" d="M42.1176 39.9822L39.647 41.2143L39.647 43.2679L42.1176 42.0358L42.1176 39.9822Z"></path>
<path fill="#FF956F" d="M38 40.3931L39.6471 41.2145L39.6472 43.2681L38 42.4466L38 40.3931Z"></path>
<path fill="#E53C75" d="M42.9413 35.4641L46.2354 33.8213V35.8749L42.9413 37.5177V35.4641Z"></path>
<path fill="#E53C75" d="M40.4707 42.857L42.1178 42.0356V44.0891L40.4707 44.9106V42.857Z"></path>
<path fill="#2F0020" d="M45.4116 39.982L46.2352 39.5713V40.3927L45.4116 40.8034V39.982Z"></path>
</svg>
