<svg xmlns="http://www.w3.org/2000/svg" fill="none" viewBox="0 0 114 37" height="37" width="114">
<rect fill-opacity="0.05" fill="white" rx="5" height="37" width="114"></rect>
<path stroke-width="1.5" stroke="white" d="M54.8445 13.0835H63C63.6904 13.0835 64.25 13.6431 64.25 14.3335V22.6668C64.25 23.3572 63.6904 23.9168 63 23.9168H54.8445C54.5071 23.9168 54.1839 23.7804 53.9486 23.5385L49.8946 19.3719C49.4224 18.8866 49.4224 18.1137 49.8946 17.6285L53.9486 13.4618C54.1839 13.2199 54.5071 13.0835 54.8445 13.0835Z"></path>
<path stroke-linecap="round" stroke-width="1.5" stroke="white" d="M61 20.5554L59 18.4999M57 16.4443L59 18.4999M59 18.4999L61 16.4443M59 18.4999L57 20.5554"></path>
</svg>
