<svg xmlns="http://www.w3.org/2000/svg" fill="none" viewBox="0 0 90 90" height="90" width="90">
<rect fill="url(#paint0_linear_405_2)" rx="2" height="8" width="18" y="49" x="36"></rect>
<rect fill="url(#paint1_linear_405_2)" rx="2" height="8" width="18" y="47" x="36"></rect>
<rect fill="url(#paint2_linear_405_2)" rx="2" height="19" width="18" y="34" x="36"></rect>
<rect fill="#057093" rx="1" height="3" width="2" y="33" x="38"></rect>
<rect fill="#057093" rx="1" height="3" width="2" y="33" x="42"></rect>
<rect fill="#057093" rx="1" height="3" width="2" y="33" x="46"></rect>
<rect fill="#057093" rx="1" height="3" width="2" y="33" x="50"></rect>
<rect fill="#057093" rx="1" height="2" width="12" y="39" x="39"></rect>
<rect fill="#057093" rx="1" height="2" width="12" y="43" x="39"></rect>
<rect fill="#057093" rx="1" height="2" width="12" y="47" x="39"></rect>
<defs>
<linearGradient gradientUnits="userSpaceOnUse" y2="57" x2="45" y1="55" x1="45" id="paint0_linear_405_2">
<stop stop-color="#7D3E08"></stop>
<stop stop-color="#AA540C" offset="1"></stop>
</linearGradient>
<linearGradient gradientUnits="userSpaceOnUse" y2="55" x2="45" y1="53" x1="45" id="paint1_linear_405_2">
<stop stop-color="#D3D3D3"></stop>
<stop stop-color="#E4E4E4" offset="1"></stop>
</linearGradient>
<linearGradient gradientUnits="userSpaceOnUse" y2="53" x2="45" y1="34" x1="45" id="paint2_linear_405_2">
<stop stop-color="#7DD8F3"></stop>
<stop stop-color="#57BDDC" offset="1"></stop>
</linearGradient>
</defs>
</svg>
