<svg xmlns="http://www.w3.org/2000/svg" fill="none" viewBox="0 0 44 24" height="24" width="44">
<path fill-opacity="0.5" fill="#FF0000" d="M2 12C2 6.47715 6.47715 2 12 2H32C37.5228 2 42 6.47715 42 12V12C42 17.5228 37.5228 22 32 22H12C6.47715 22 2 17.5228 2 12V12Z"></path>
<path stroke-width="2" stroke-opacity="0.2" stroke="#FF0000" d="M32 1H12C5.92487 1 1 5.92487 1 12C1 18.0751 5.92487 23 12 23H32C38.0751 23 43 18.0751 43 12C43 5.92487 38.0751 1 32 1Z"></path>
<path fill="white" d="M16.1635 14.14C16.9315 13.476 17.5355 12.932 17.9755 12.508C18.4235 12.076 18.7955 11.628 19.0915 11.164C19.3875 10.7 19.5355 10.236 19.5355 9.772C19.5355 9.292 19.4195 8.916 19.1875 8.644C18.9635 8.372 18.6075 8.236 18.1195 8.236C17.6475 8.236 17.2795 8.388 17.0155 8.692C16.7595 8.988 16.6235 9.388 16.6075 9.892H15.2875C15.3115 8.98 15.5835 8.284 16.1035 7.804C16.6315 7.316 17.2995 7.072 18.1075 7.072C18.9795 7.072 19.6595 7.312 20.1475 7.792C20.6435 8.272 20.8915 8.912 20.8915 9.712C20.8915 10.288 20.7435 10.844 20.4475 11.38C20.1595 11.908 19.8115 12.384 19.4035 12.808C19.0035 13.224 18.4915 13.708 17.8675 14.26L17.3275 14.74H21.1315V15.88H15.2995V14.884L16.1635 14.14ZM27.0373 9.28C26.9493 8.912 26.7893 8.636 26.5573 8.452C26.3253 8.268 26.0013 8.176 25.5853 8.176C24.9533 8.176 24.4813 8.42 24.1693 8.908C23.8573 9.388 23.6933 10.188 23.6773 11.308C23.8853 10.956 24.1893 10.684 24.5893 10.492C24.9893 10.3 25.4213 10.204 25.8853 10.204C26.4133 10.204 26.8773 10.32 27.2773 10.552C27.6853 10.776 28.0013 11.104 28.2253 11.536C28.4573 11.968 28.5733 12.484 28.5733 13.084C28.5733 13.644 28.4613 14.144 28.2373 14.584C28.0213 15.024 27.6973 15.372 27.2653 15.628C26.8333 15.876 26.3133 16 25.7053 16C24.8813 16 24.2333 15.82 23.7613 15.46C23.2973 15.092 22.9693 14.576 22.7773 13.912C22.5933 13.248 22.5013 12.42 22.5013 11.428C22.5013 8.5 23.5333 7.036 25.5973 7.036C26.3973 7.036 27.0253 7.252 27.4813 7.684C27.9453 8.116 28.2173 8.648 28.2973 9.28H27.0373ZM25.5853 11.356C25.0973 11.356 24.6813 11.504 24.3373 11.8C24.0013 12.088 23.8333 12.508 23.8333 13.06C23.8333 13.612 23.9893 14.052 24.3013 14.38C24.6213 14.7 25.0653 14.86 25.6333 14.86C26.1373 14.86 26.5333 14.704 26.8213 14.392C27.1173 14.08 27.2653 13.664 27.2653 13.144C27.2653 12.6 27.1213 12.168 26.8333 11.848C26.5533 11.52 26.1373 11.356 25.5853 11.356Z"></path>
</svg>
