<svg xmlns="http://www.w3.org/2000/svg" fill="none" viewBox="0 0 480 360" height="360" width="480">
<path fill-opacity="0.9" fill="#D9D9D9" d="M60 320C60 314.477 64.4772 310 70 310H460C465.523 310 470 314.477 470 320V340C470 345.523 465.523 350 460 350H70C64.4771 350 60 345.523 60 340V320Z"></path>
<path stroke-opacity="0.2" stroke="white" d="M460 309.5H70C64.201 309.5 59.5 314.201 59.5 320V340C59.5 345.799 64.201 350.5 70 350.5H460C465.799 350.5 470.5 345.799 470.5 340V320C470.5 314.201 465.799 309.5 460 309.5Z"></path>
<path fill="black" d="M104.129 326.355V334H102.875V328.764L100.543 334H99.6738L97.3308 328.764V334H96.0768V326.355H97.4298L100.114 332.35L102.787 326.355H104.129ZM111.266 327.939V334H110.012V333.285C109.814 333.534 109.554 333.732 109.231 333.879C108.916 334.018 108.578 334.088 108.219 334.088C107.742 334.088 107.313 333.989 106.932 333.791C106.558 333.593 106.261 333.3 106.041 332.911C105.828 332.522 105.722 332.053 105.722 331.503V327.939H106.965V331.316C106.965 331.859 107.101 332.277 107.372 332.57C107.643 332.856 108.014 332.999 108.483 332.999C108.952 332.999 109.323 332.856 109.594 332.57C109.873 332.277 110.012 331.859 110.012 331.316V327.939H111.266ZM115.121 334.099C114.644 334.099 114.215 334.015 113.834 333.846C113.46 333.67 113.163 333.435 112.943 333.142C112.723 332.841 112.605 332.508 112.591 332.141H113.889C113.911 332.398 114.032 332.614 114.252 332.79C114.479 332.959 114.761 333.043 115.099 333.043C115.451 333.043 115.722 332.977 115.913 332.845C116.111 332.706 116.21 332.53 116.21 332.317C116.21 332.09 116.1 331.921 115.88 331.811C115.667 331.701 115.326 331.58 114.857 331.448C114.402 331.323 114.032 331.202 113.746 331.085C113.46 330.968 113.21 330.788 112.998 330.546C112.792 330.304 112.69 329.985 112.69 329.589C112.69 329.266 112.785 328.973 112.976 328.709C113.166 328.438 113.438 328.225 113.79 328.071C114.149 327.917 114.56 327.84 115.022 327.84C115.711 327.84 116.265 328.016 116.683 328.368C117.108 328.713 117.335 329.186 117.365 329.787H116.111C116.089 329.516 115.979 329.299 115.781 329.138C115.583 328.977 115.315 328.896 114.978 328.896C114.648 328.896 114.395 328.958 114.219 329.083C114.043 329.208 113.955 329.373 113.955 329.578C113.955 329.739 114.013 329.875 114.131 329.985C114.248 330.095 114.391 330.183 114.56 330.249C114.728 330.308 114.978 330.385 115.308 330.48C115.748 330.597 116.107 330.718 116.386 330.843C116.672 330.96 116.917 331.136 117.123 331.371C117.328 331.606 117.434 331.917 117.442 332.306C117.442 332.651 117.346 332.959 117.156 333.23C116.965 333.501 116.694 333.714 116.342 333.868C115.997 334.022 115.59 334.099 115.121 334.099ZM119.434 327.136C119.207 327.136 119.016 327.059 118.862 326.905C118.708 326.751 118.631 326.56 118.631 326.333C118.631 326.106 118.708 325.915 118.862 325.761C119.016 325.607 119.207 325.53 119.434 325.53C119.654 325.53 119.841 325.607 119.995 325.761C120.149 325.915 120.226 326.106 120.226 326.333C120.226 326.56 120.149 326.751 119.995 326.905C119.841 327.059 119.654 327.136 119.434 327.136ZM120.05 327.939V334H118.796V327.939H120.05ZM121.279 330.964C121.279 330.341 121.404 329.794 121.653 329.325C121.91 328.848 122.262 328.482 122.709 328.225C123.156 327.968 123.67 327.84 124.249 327.84C124.982 327.84 125.587 328.016 126.064 328.368C126.548 328.713 126.874 329.208 127.043 329.853H125.69C125.58 329.552 125.404 329.318 125.162 329.149C124.92 328.98 124.616 328.896 124.249 328.896C123.736 328.896 123.325 329.079 123.017 329.446C122.716 329.805 122.566 330.311 122.566 330.964C122.566 331.617 122.716 332.126 123.017 332.493C123.325 332.86 123.736 333.043 124.249 333.043C124.975 333.043 125.455 332.724 125.69 332.086H127.043C126.867 332.702 126.537 333.193 126.053 333.56C125.569 333.919 124.968 334.099 124.249 334.099C123.67 334.099 123.156 333.971 122.709 333.714C122.262 333.45 121.91 333.083 121.653 332.614C121.404 332.137 121.279 331.587 121.279 330.964ZM133.691 328.962H132.569V334H131.304V328.962H130.589V327.939H131.304V327.51C131.304 326.813 131.487 326.307 131.854 325.992C132.228 325.669 132.811 325.508 133.603 325.508V326.553C133.222 326.553 132.954 326.626 132.8 326.773C132.646 326.912 132.569 327.158 132.569 327.51V327.939H133.691V328.962ZM136.056 328.819C136.24 328.511 136.482 328.273 136.782 328.104C137.09 327.928 137.453 327.84 137.871 327.84V329.138H137.552C137.061 329.138 136.687 329.263 136.43 329.512C136.181 329.761 136.056 330.194 136.056 330.81V334H134.802V327.939H136.056V328.819ZM141.653 334.099C141.081 334.099 140.564 333.971 140.102 333.714C139.64 333.45 139.277 333.083 139.013 332.614C138.749 332.137 138.617 331.587 138.617 330.964C138.617 330.348 138.753 329.802 139.024 329.325C139.295 328.848 139.666 328.482 140.135 328.225C140.604 327.968 141.129 327.84 141.708 327.84C142.287 327.84 142.812 327.968 143.281 328.225C143.75 328.482 144.121 328.848 144.392 329.325C144.663 329.802 144.799 330.348 144.799 330.964C144.799 331.58 144.66 332.126 144.381 332.603C144.102 333.08 143.721 333.45 143.237 333.714C142.76 333.971 142.232 334.099 141.653 334.099ZM141.653 333.01C141.976 333.01 142.276 332.933 142.555 332.779C142.841 332.625 143.072 332.394 143.248 332.086C143.424 331.778 143.512 331.404 143.512 330.964C143.512 330.524 143.428 330.154 143.259 329.853C143.09 329.545 142.867 329.314 142.588 329.16C142.309 329.006 142.009 328.929 141.686 328.929C141.363 328.929 141.063 329.006 140.784 329.16C140.513 329.314 140.296 329.545 140.135 329.853C139.974 330.154 139.893 330.524 139.893 330.964C139.893 331.617 140.058 332.123 140.388 332.482C140.725 332.834 141.147 333.01 141.653 333.01ZM153.376 327.84C153.852 327.84 154.278 327.939 154.652 328.137C155.033 328.335 155.33 328.628 155.543 329.017C155.763 329.406 155.873 329.875 155.873 330.425V334H154.63V330.612C154.63 330.069 154.494 329.655 154.223 329.369C153.951 329.076 153.581 328.929 153.112 328.929C152.642 328.929 152.268 329.076 151.99 329.369C151.718 329.655 151.583 330.069 151.583 330.612V334H150.34V330.612C150.34 330.069 150.204 329.655 149.933 329.369C149.661 329.076 149.291 328.929 148.822 328.929C148.352 328.929 147.978 329.076 147.7 329.369C147.428 329.655 147.293 330.069 147.293 330.612V334H146.039V327.939H147.293V328.632C147.498 328.383 147.758 328.188 148.074 328.049C148.389 327.91 148.726 327.84 149.086 327.84C149.57 327.84 150.002 327.943 150.384 328.148C150.765 328.353 151.058 328.65 151.264 329.039C151.447 328.672 151.733 328.383 152.122 328.17C152.51 327.95 152.928 327.84 153.376 327.84ZM161.569 326.355V331.228C161.569 331.807 161.719 332.244 162.02 332.537C162.328 332.83 162.753 332.977 163.296 332.977C163.846 332.977 164.271 332.83 164.572 332.537C164.88 332.244 165.034 331.807 165.034 331.228V326.355H166.288V331.206C166.288 331.829 166.152 332.357 165.881 332.79C165.609 333.223 165.246 333.545 164.792 333.758C164.337 333.971 163.835 334.077 163.285 334.077C162.735 334.077 162.232 333.971 161.778 333.758C161.33 333.545 160.975 333.223 160.711 332.79C160.447 332.357 160.315 331.829 160.315 331.206V326.355H161.569ZM170.979 327.84C171.455 327.84 171.881 327.939 172.255 328.137C172.636 328.335 172.933 328.628 173.146 329.017C173.358 329.406 173.465 329.875 173.465 330.425V334H172.222V330.612C172.222 330.069 172.086 329.655 171.815 329.369C171.543 329.076 171.173 328.929 170.704 328.929C170.234 328.929 169.86 329.076 169.582 329.369C169.31 329.655 169.175 330.069 169.175 330.612V334H167.921V327.939H169.175V328.632C169.38 328.383 169.64 328.188 169.956 328.049C170.278 327.91 170.619 327.84 170.979 327.84ZM182.401 327.84C182.878 327.84 183.303 327.939 183.677 328.137C184.058 328.335 184.355 328.628 184.568 329.017C184.788 329.406 184.898 329.875 184.898 330.425V334H183.655V330.612C183.655 330.069 183.519 329.655 183.248 329.369C182.977 329.076 182.606 328.929 182.137 328.929C181.668 328.929 181.294 329.076 181.015 329.369C180.744 329.655 180.608 330.069 180.608 330.612V334H179.365V330.612C179.365 330.069 179.229 329.655 178.958 329.369C178.687 329.076 178.316 328.929 177.847 328.929C177.378 328.929 177.004 329.076 176.725 329.369C176.454 329.655 176.318 330.069 176.318 330.612V334H175.064V327.939H176.318V328.632C176.523 328.383 176.784 328.188 177.099 328.049C177.414 327.91 177.752 327.84 178.111 327.84C178.595 327.84 179.028 327.943 179.409 328.148C179.79 328.353 180.084 328.65 180.289 329.039C180.472 328.672 180.758 328.383 181.147 328.17C181.536 327.95 181.954 327.84 182.401 327.84ZM187.132 327.136C186.904 327.136 186.714 327.059 186.56 326.905C186.406 326.751 186.329 326.56 186.329 326.333C186.329 326.106 186.406 325.915 186.56 325.761C186.714 325.607 186.904 325.53 187.132 325.53C187.352 325.53 187.539 325.607 187.693 325.761C187.847 325.915 187.924 326.106 187.924 326.333C187.924 326.56 187.847 326.751 187.693 326.905C187.539 327.059 187.352 327.136 187.132 327.136ZM187.748 327.939V334H186.494V327.939H187.748ZM192.452 327.84C192.929 327.84 193.354 327.939 193.728 328.137C194.109 328.335 194.406 328.628 194.619 329.017C194.832 329.406 194.938 329.875 194.938 330.425V334H193.695V330.612C193.695 330.069 193.559 329.655 193.288 329.369C193.017 329.076 192.646 328.929 192.177 328.929C191.708 328.929 191.334 329.076 191.055 329.369C190.784 329.655 190.648 330.069 190.648 330.612V334H189.394V327.939H190.648V328.632C190.853 328.383 191.114 328.188 191.429 328.049C191.752 327.91 192.093 327.84 192.452 327.84ZM202.027 327.939V334H200.773V333.285C200.575 333.534 200.314 333.732 199.992 333.879C199.676 334.018 199.339 334.088 198.98 334.088C198.503 334.088 198.074 333.989 197.693 333.791C197.319 333.593 197.022 333.3 196.802 332.911C196.589 332.522 196.483 332.053 196.483 331.503V327.939H197.726V331.316C197.726 331.859 197.861 332.277 198.133 332.57C198.404 332.856 198.774 332.999 199.244 332.999C199.713 332.999 200.083 332.856 200.355 332.57C200.633 332.277 200.773 331.859 200.773 331.316V327.939H202.027ZM205.881 334.099C205.405 334.099 204.976 334.015 204.594 333.846C204.22 333.67 203.923 333.435 203.703 333.142C203.483 332.841 203.366 332.508 203.351 332.141H204.649C204.671 332.398 204.792 332.614 205.012 332.79C205.24 332.959 205.522 333.043 205.859 333.043C206.211 333.043 206.483 332.977 206.673 332.845C206.871 332.706 206.97 332.53 206.97 332.317C206.97 332.09 206.86 331.921 206.64 331.811C206.428 331.701 206.087 331.58 205.617 331.448C205.163 331.323 204.792 331.202 204.506 331.085C204.22 330.968 203.971 330.788 203.758 330.546C203.553 330.304 203.45 329.985 203.45 329.589C203.45 329.266 203.546 328.973 203.736 328.709C203.927 328.438 204.198 328.225 204.55 328.071C204.91 327.917 205.32 327.84 205.782 327.84C206.472 327.84 207.025 328.016 207.443 328.368C207.869 328.713 208.096 329.186 208.125 329.787H206.871C206.849 329.516 206.739 329.299 206.541 329.138C206.343 328.977 206.076 328.896 205.738 328.896C205.408 328.896 205.155 328.958 204.979 329.083C204.803 329.208 204.715 329.373 204.715 329.578C204.715 329.739 204.774 329.875 204.891 329.985C205.009 330.095 205.152 330.183 205.32 330.249C205.489 330.308 205.738 330.385 206.068 330.48C206.508 330.597 206.868 330.718 207.146 330.843C207.432 330.96 207.678 331.136 207.883 331.371C208.089 331.606 208.195 331.917 208.202 332.306C208.202 332.651 208.107 332.959 207.916 333.23C207.726 333.501 207.454 333.714 207.102 333.868C206.758 334.022 206.351 334.099 205.881 334.099ZM210.063 334.077C209.836 334.077 209.645 334 209.491 333.846C209.337 333.692 209.26 333.501 209.26 333.274C209.26 333.047 209.337 332.856 209.491 332.702C209.645 332.548 209.836 332.471 210.063 332.471C210.283 332.471 210.47 332.548 210.624 332.702C210.778 332.856 210.855 333.047 210.855 333.274C210.855 333.501 210.778 333.692 210.624 333.846C210.47 334 210.283 334.077 210.063 334.077ZM214.65 330.161C214.65 329.413 214.822 328.742 215.167 328.148C215.519 327.554 215.992 327.092 216.586 326.762C217.187 326.425 217.844 326.256 218.555 326.256C219.369 326.256 220.091 326.458 220.722 326.861C221.36 327.257 221.822 327.822 222.108 328.555H220.601C220.403 328.152 220.128 327.851 219.776 327.653C219.424 327.455 219.017 327.356 218.555 327.356C218.049 327.356 217.598 327.47 217.202 327.697C216.806 327.924 216.494 328.251 216.267 328.676C216.047 329.101 215.937 329.596 215.937 330.161C215.937 330.726 216.047 331.221 216.267 331.646C216.494 332.071 216.806 332.401 217.202 332.636C217.598 332.863 218.049 332.977 218.555 332.977C219.017 332.977 219.424 332.878 219.776 332.68C220.128 332.482 220.403 332.181 220.601 331.778H222.108C221.822 332.511 221.36 333.076 220.722 333.472C220.091 333.868 219.369 334.066 218.555 334.066C217.836 334.066 217.18 333.901 216.586 333.571C215.992 333.234 215.519 332.768 215.167 332.174C214.822 331.58 214.65 330.909 214.65 330.161ZM226.711 327.84C227.173 327.84 227.583 327.939 227.943 328.137C228.309 328.335 228.595 328.628 228.801 329.017C229.013 329.406 229.12 329.875 229.12 330.425V334H227.877V330.612C227.877 330.069 227.741 329.655 227.47 329.369C227.198 329.076 226.828 328.929 226.359 328.929C225.889 328.929 225.515 329.076 225.237 329.369C224.965 329.655 224.83 330.069 224.83 330.612V334H223.576V325.86H224.83V328.643C225.042 328.386 225.31 328.188 225.633 328.049C225.963 327.91 226.322 327.84 226.711 327.84ZM236.274 330.821C236.274 331.048 236.26 331.254 236.23 331.437H231.599C231.636 331.921 231.816 332.31 232.138 332.603C232.461 332.896 232.857 333.043 233.326 333.043C234.001 333.043 234.478 332.761 234.756 332.196H236.109C235.926 332.753 235.592 333.212 235.108 333.571C234.632 333.923 234.038 334.099 233.326 334.099C232.747 334.099 232.226 333.971 231.764 333.714C231.31 333.45 230.95 333.083 230.686 332.614C230.43 332.137 230.301 331.587 230.301 330.964C230.301 330.341 230.426 329.794 230.675 329.325C230.932 328.848 231.288 328.482 231.742 328.225C232.204 327.968 232.732 327.84 233.326 327.84C233.898 327.84 234.408 327.965 234.855 328.214C235.303 328.463 235.651 328.815 235.9 329.27C236.15 329.717 236.274 330.234 236.274 330.821ZM234.965 330.425C234.958 329.963 234.793 329.593 234.47 329.314C234.148 329.035 233.748 328.896 233.271 328.896C232.839 328.896 232.468 329.035 232.16 329.314C231.852 329.585 231.669 329.956 231.61 330.425H234.965ZM237.09 330.964C237.09 330.341 237.215 329.794 237.464 329.325C237.721 328.848 238.073 328.482 238.52 328.225C238.968 327.968 239.481 327.84 240.06 327.84C240.794 327.84 241.399 328.016 241.875 328.368C242.359 328.713 242.686 329.208 242.854 329.853H241.501C241.391 329.552 241.215 329.318 240.973 329.149C240.731 328.98 240.427 328.896 240.06 328.896C239.547 328.896 239.136 329.079 238.828 329.446C238.528 329.805 238.377 330.311 238.377 330.964C238.377 331.617 238.528 332.126 238.828 332.493C239.136 332.86 239.547 333.043 240.06 333.043C240.786 333.043 241.267 332.724 241.501 332.086H242.854C242.678 332.702 242.348 333.193 241.864 333.56C241.38 333.919 240.779 334.099 240.06 334.099C239.481 334.099 238.968 333.971 238.52 333.714C238.073 333.45 237.721 333.083 237.464 332.614C237.215 332.137 237.09 331.587 237.09 330.964ZM246.502 330.975L249.296 334H247.602L245.358 331.393V334H244.104V325.86H245.358V330.59L247.558 327.939H249.296L246.502 330.975ZM254.515 328.962V332.317C254.515 332.544 254.567 332.709 254.669 332.812C254.779 332.907 254.963 332.955 255.219 332.955H255.989V334H254.999C254.435 334 254.002 333.868 253.701 333.604C253.401 333.34 253.25 332.911 253.25 332.317V328.962H252.535V327.939H253.25V326.432H254.515V327.939H255.989V328.962H254.515ZM260.28 327.84C260.742 327.84 261.153 327.939 261.512 328.137C261.879 328.335 262.165 328.628 262.37 329.017C262.583 329.406 262.689 329.875 262.689 330.425V334H261.446V330.612C261.446 330.069 261.31 329.655 261.039 329.369C260.768 329.076 260.397 328.929 259.928 328.929C259.459 328.929 259.085 329.076 258.806 329.369C258.535 329.655 258.399 330.069 258.399 330.612V334H257.145V325.86H258.399V328.643C258.612 328.386 258.879 328.188 259.202 328.049C259.532 327.91 259.891 327.84 260.28 327.84ZM269.844 330.821C269.844 331.048 269.829 331.254 269.8 331.437H265.169C265.205 331.921 265.385 332.31 265.708 332.603C266.03 332.896 266.426 333.043 266.896 333.043C267.57 333.043 268.047 332.761 268.326 332.196H269.679C269.495 332.753 269.162 333.212 268.678 333.571C268.201 333.923 267.607 334.099 266.896 334.099C266.316 334.099 265.796 333.971 265.334 333.714C264.879 333.45 264.52 333.083 264.256 332.614C263.999 332.137 263.871 331.587 263.871 330.964C263.871 330.341 263.995 329.794 264.245 329.325C264.501 328.848 264.857 328.482 265.312 328.225C265.774 327.968 266.302 327.84 266.896 327.84C267.468 327.84 267.977 327.965 268.425 328.214C268.872 328.463 269.22 328.815 269.47 329.27C269.719 329.717 269.844 330.234 269.844 330.821ZM268.535 330.425C268.527 329.963 268.362 329.593 268.04 329.314C267.717 329.035 267.317 328.896 266.841 328.896C266.408 328.896 266.038 329.035 265.73 329.314C265.422 329.585 265.238 329.956 265.18 330.425H268.535ZM283.89 326.355L281.624 334H280.205L278.599 328.214L276.894 334L275.486 334.011L273.319 326.355H274.65L276.234 332.581L277.95 326.355H279.358L280.953 332.548L282.548 326.355H283.89ZM285.562 327.136C285.335 327.136 285.144 327.059 284.99 326.905C284.836 326.751 284.759 326.56 284.759 326.333C284.759 326.106 284.836 325.915 284.99 325.761C285.144 325.607 285.335 325.53 285.562 325.53C285.782 325.53 285.969 325.607 286.123 325.761C286.277 325.915 286.354 326.106 286.354 326.333C286.354 326.56 286.277 326.751 286.123 326.905C285.969 327.059 285.782 327.136 285.562 327.136ZM286.178 327.939V334H284.924V327.939H286.178ZM290.883 327.84C291.359 327.84 291.785 327.939 292.159 328.137C292.54 328.335 292.837 328.628 293.05 329.017C293.262 329.406 293.369 329.875 293.369 330.425V334H292.126V330.612C292.126 330.069 291.99 329.655 291.719 329.369C291.447 329.076 291.077 328.929 290.608 328.929C290.138 328.929 289.764 329.076 289.486 329.369C289.214 329.655 289.079 330.069 289.079 330.612V334H287.825V327.939H289.079V328.632C289.284 328.383 289.544 328.188 289.86 328.049C290.182 327.91 290.523 327.84 290.883 327.84ZM294.55 330.942C294.55 330.333 294.675 329.794 294.924 329.325C295.181 328.856 295.526 328.493 295.958 328.236C296.398 327.972 296.886 327.84 297.421 327.84C297.817 327.84 298.206 327.928 298.587 328.104C298.976 328.273 299.284 328.5 299.511 328.786V325.86H300.776V334H299.511V333.087C299.306 333.38 299.02 333.622 298.653 333.813C298.294 334.004 297.88 334.099 297.41 334.099C296.882 334.099 296.398 333.967 295.958 333.703C295.526 333.432 295.181 333.058 294.924 332.581C294.675 332.097 294.55 331.551 294.55 330.942ZM299.511 330.964C299.511 330.546 299.423 330.183 299.247 329.875C299.079 329.567 298.855 329.332 298.576 329.171C298.298 329.01 297.997 328.929 297.674 328.929C297.352 328.929 297.051 329.01 296.772 329.171C296.494 329.325 296.266 329.556 296.09 329.864C295.922 330.165 295.837 330.524 295.837 330.942C295.837 331.36 295.922 331.727 296.09 332.042C296.266 332.357 296.494 332.599 296.772 332.768C297.058 332.929 297.359 333.01 297.674 333.01C297.997 333.01 298.298 332.929 298.576 332.768C298.855 332.607 299.079 332.372 299.247 332.064C299.423 331.749 299.511 331.382 299.511 330.964ZM305.052 334.099C304.48 334.099 303.963 333.971 303.501 333.714C303.039 333.45 302.676 333.083 302.412 332.614C302.148 332.137 302.016 331.587 302.016 330.964C302.016 330.348 302.152 329.802 302.423 329.325C302.695 328.848 303.065 328.482 303.534 328.225C304.004 327.968 304.528 327.84 305.107 327.84C305.687 327.84 306.211 327.968 306.68 328.225C307.15 328.482 307.52 328.848 307.791 329.325C308.063 329.802 308.198 330.348 308.198 330.964C308.198 331.58 308.059 332.126 307.78 332.603C307.502 333.08 307.12 333.45 306.636 333.714C306.16 333.971 305.632 334.099 305.052 334.099ZM305.052 333.01C305.375 333.01 305.676 332.933 305.954 332.779C306.24 332.625 306.471 332.394 306.647 332.086C306.823 331.778 306.911 331.404 306.911 330.964C306.911 330.524 306.827 330.154 306.658 329.853C306.49 329.545 306.266 329.314 305.987 329.16C305.709 329.006 305.408 328.929 305.085 328.929C304.763 328.929 304.462 329.006 304.183 329.16C303.912 329.314 303.696 329.545 303.534 329.853C303.373 330.154 303.292 330.524 303.292 330.964C303.292 331.617 303.457 332.123 303.787 332.482C304.125 332.834 304.546 333.01 305.052 333.01ZM317.578 327.939L315.697 334H314.377L313.156 329.523L311.935 334H310.615L308.723 327.939H309.999L311.264 332.812L312.551 327.939H313.86L315.092 332.79L316.346 327.939H317.578ZM320.715 334.099C320.239 334.099 319.81 334.015 319.428 333.846C319.054 333.67 318.757 333.435 318.537 333.142C318.317 332.841 318.2 332.508 318.185 332.141H319.483C319.505 332.398 319.626 332.614 319.846 332.79C320.074 332.959 320.356 333.043 320.693 333.043C321.045 333.043 321.317 332.977 321.507 332.845C321.705 332.706 321.804 332.53 321.804 332.317C321.804 332.09 321.694 331.921 321.474 331.811C321.262 331.701 320.921 331.58 320.451 331.448C319.997 331.323 319.626 331.202 319.34 331.085C319.054 330.968 318.805 330.788 318.592 330.546C318.387 330.304 318.284 329.985 318.284 329.589C318.284 329.266 318.38 328.973 318.57 328.709C318.761 328.438 319.032 328.225 319.384 328.071C319.744 327.917 320.154 327.84 320.616 327.84C321.306 327.84 321.859 328.016 322.277 328.368C322.703 328.713 322.93 329.186 322.959 329.787H321.705C321.683 329.516 321.573 329.299 321.375 329.138C321.177 328.977 320.91 328.896 320.572 328.896C320.242 328.896 319.989 328.958 319.813 329.083C319.637 329.208 319.549 329.373 319.549 329.578C319.549 329.739 319.608 329.875 319.725 329.985C319.843 330.095 319.986 330.183 320.154 330.249C320.323 330.308 320.572 330.385 320.902 330.48C321.342 330.597 321.702 330.718 321.98 330.843C322.266 330.96 322.512 331.136 322.717 331.371C322.923 331.606 323.029 331.917 323.036 332.306C323.036 332.651 322.941 332.959 322.75 333.23C322.56 333.501 322.288 333.714 321.936 333.868C321.592 334.022 321.185 334.099 320.715 334.099ZM326.919 327.125V325.981H329.207V334H327.942V327.125H326.919ZM330.764 327.125V325.981H333.052V334H331.787V327.125H330.764ZM340.316 334.077C339.803 334.077 339.341 333.989 338.93 333.813C338.52 333.63 338.197 333.373 337.962 333.043C337.728 332.713 337.61 332.328 337.61 331.888H338.952C338.982 332.218 339.11 332.489 339.337 332.702C339.572 332.915 339.898 333.021 340.316 333.021C340.749 333.021 341.086 332.918 341.328 332.713C341.57 332.5 341.691 332.229 341.691 331.899C341.691 331.642 341.614 331.433 341.46 331.272C341.314 331.111 341.127 330.986 340.899 330.898C340.679 330.81 340.371 330.715 339.975 330.612C339.477 330.48 339.07 330.348 338.754 330.216C338.446 330.077 338.182 329.864 337.962 329.578C337.742 329.292 337.632 328.911 337.632 328.434C337.632 327.994 337.742 327.609 337.962 327.279C338.182 326.949 338.49 326.696 338.886 326.52C339.282 326.344 339.741 326.256 340.261 326.256C341.002 326.256 341.607 326.443 342.076 326.817C342.553 327.184 342.817 327.69 342.868 328.335H341.482C341.46 328.056 341.328 327.818 341.086 327.62C340.844 327.422 340.525 327.323 340.129 327.323C339.77 327.323 339.477 327.415 339.249 327.598C339.022 327.781 338.908 328.045 338.908 328.39C338.908 328.625 338.978 328.819 339.117 328.973C339.264 329.12 339.447 329.237 339.667 329.325C339.887 329.413 340.188 329.508 340.569 329.611C341.075 329.75 341.486 329.89 341.801 330.029C342.124 330.168 342.395 330.385 342.615 330.678C342.843 330.964 342.956 331.349 342.956 331.833C342.956 332.222 342.85 332.588 342.637 332.933C342.432 333.278 342.128 333.556 341.724 333.769C341.328 333.974 340.859 334.077 340.316 334.077ZM345.69 327.367V329.611H348.33V330.634H345.69V332.977H348.66V334H344.436V326.344H348.66V327.367H345.69ZM354.316 328.83C354.529 328.551 354.818 328.317 355.185 328.126C355.552 327.935 355.966 327.84 356.428 327.84C356.956 327.84 357.436 327.972 357.869 328.236C358.309 328.493 358.654 328.856 358.903 329.325C359.152 329.794 359.277 330.333 359.277 330.942C359.277 331.551 359.152 332.097 358.903 332.581C358.654 333.058 358.309 333.432 357.869 333.703C357.436 333.967 356.956 334.099 356.428 334.099C355.966 334.099 355.555 334.007 355.196 333.824C354.837 333.633 354.543 333.399 354.316 333.12V336.882H353.062V327.939H354.316V328.83ZM358.001 330.942C358.001 330.524 357.913 330.165 357.737 329.864C357.568 329.556 357.341 329.325 357.055 329.171C356.776 329.01 356.476 328.929 356.153 328.929C355.838 328.929 355.537 329.01 355.251 329.171C354.972 329.332 354.745 329.567 354.569 329.875C354.4 330.183 354.316 330.546 354.316 330.964C354.316 331.382 354.4 331.749 354.569 332.064C354.745 332.372 354.972 332.607 355.251 332.768C355.537 332.929 355.838 333.01 356.153 333.01C356.476 333.01 356.776 332.929 357.055 332.768C357.341 332.599 357.568 332.357 357.737 332.042C357.913 331.727 358.001 331.36 358.001 330.942ZM361.771 328.819C361.955 328.511 362.197 328.273 362.497 328.104C362.805 327.928 363.168 327.84 363.586 327.84V329.138H363.267C362.776 329.138 362.402 329.263 362.145 329.512C361.896 329.761 361.771 330.194 361.771 330.81V334H360.517V327.939H361.771V328.819ZM367.368 334.099C366.796 334.099 366.279 333.971 365.817 333.714C365.355 333.45 364.992 333.083 364.728 332.614C364.464 332.137 364.332 331.587 364.332 330.964C364.332 330.348 364.468 329.802 364.739 329.325C365.01 328.848 365.381 328.482 365.85 328.225C366.319 327.968 366.844 327.84 367.423 327.84C368.002 327.84 368.527 327.968 368.996 328.225C369.465 328.482 369.836 328.848 370.107 329.325C370.378 329.802 370.514 330.348 370.514 330.964C370.514 331.58 370.375 332.126 370.096 332.603C369.817 333.08 369.436 333.45 368.952 333.714C368.475 333.971 367.947 334.099 367.368 334.099ZM367.368 333.01C367.691 333.01 367.991 332.933 368.27 332.779C368.556 332.625 368.787 332.394 368.963 332.086C369.139 331.778 369.227 331.404 369.227 330.964C369.227 330.524 369.143 330.154 368.974 329.853C368.805 329.545 368.582 329.314 368.303 329.16C368.024 329.006 367.724 328.929 367.401 328.929C367.078 328.929 366.778 329.006 366.499 329.16C366.228 329.314 366.011 329.545 365.85 329.853C365.689 330.154 365.608 330.524 365.608 330.964C365.608 331.617 365.773 332.123 366.103 332.482C366.44 332.834 366.862 333.01 367.368 333.01ZM372.392 327.136C372.164 327.136 371.974 327.059 371.82 326.905C371.666 326.751 371.589 326.56 371.589 326.333C371.589 326.106 371.666 325.915 371.82 325.761C371.974 325.607 372.164 325.53 372.392 325.53C372.612 325.53 372.799 325.607 372.953 325.761C373.107 325.915 373.184 326.106 373.184 326.333C373.184 326.56 373.107 326.751 372.953 326.905C372.799 327.059 372.612 327.136 372.392 327.136ZM373.008 335.188C373.008 335.782 372.857 336.211 372.557 336.475C372.263 336.746 371.834 336.882 371.27 336.882H370.621V335.826H371.05C371.306 335.826 371.486 335.775 371.589 335.672C371.699 335.577 371.754 335.415 371.754 335.188V327.939H373.008V335.188ZM380.209 330.821C380.209 331.048 380.194 331.254 380.165 331.437H375.534C375.571 331.921 375.75 332.31 376.073 332.603C376.396 332.896 376.792 333.043 377.261 333.043C377.936 333.043 378.412 332.761 378.691 332.196H380.044C379.861 332.753 379.527 333.212 379.043 333.571C378.566 333.923 377.972 334.099 377.261 334.099C376.682 334.099 376.161 333.971 375.699 333.714C375.244 333.45 374.885 333.083 374.621 332.614C374.364 332.137 374.236 331.587 374.236 330.964C374.236 330.341 374.361 329.794 374.61 329.325C374.867 328.848 375.222 328.482 375.677 328.225C376.139 327.968 376.667 327.84 377.261 327.84C377.833 327.84 378.343 327.965 378.79 328.214C379.237 328.463 379.586 328.815 379.835 329.27C380.084 329.717 380.209 330.234 380.209 330.821ZM378.9 330.425C378.893 329.963 378.728 329.593 378.405 329.314C378.082 329.035 377.683 328.896 377.206 328.896C376.773 328.896 376.403 329.035 376.095 329.314C375.787 329.585 375.604 329.956 375.545 330.425H378.9ZM381.025 330.964C381.025 330.341 381.15 329.794 381.399 329.325C381.656 328.848 382.008 328.482 382.455 328.225C382.902 327.968 383.416 327.84 383.995 327.84C384.728 327.84 385.333 328.016 385.81 328.368C386.294 328.713 386.62 329.208 386.789 329.853H385.436C385.326 329.552 385.15 329.318 384.908 329.149C384.666 328.98 384.362 328.896 383.995 328.896C383.482 328.896 383.071 329.079 382.763 329.446C382.462 329.805 382.312 330.311 382.312 330.964C382.312 331.617 382.462 332.126 382.763 332.493C383.071 332.86 383.482 333.043 383.995 333.043C384.721 333.043 385.201 332.724 385.436 332.086H386.789C386.613 332.702 386.283 333.193 385.799 333.56C385.315 333.919 384.714 334.099 383.995 334.099C383.416 334.099 382.902 333.971 382.455 333.714C382.008 333.45 381.656 333.083 381.399 332.614C381.15 332.137 381.025 331.587 381.025 330.964ZM389.502 328.962V332.317C389.502 332.544 389.553 332.709 389.656 332.812C389.766 332.907 389.949 332.955 390.206 332.955H390.976V334H389.986C389.421 334 388.988 333.868 388.688 333.604C388.387 333.34 388.237 332.911 388.237 332.317V328.962H387.522V327.939H388.237V326.432H389.502V327.939H390.976V328.962H389.502ZM394.571 330.964C394.571 330.341 394.696 329.794 394.945 329.325C395.202 328.848 395.554 328.482 396.001 328.225C396.448 327.968 396.962 327.84 397.541 327.84C398.274 327.84 398.879 328.016 399.356 328.368C399.84 328.713 400.166 329.208 400.335 329.853H398.982C398.872 329.552 398.696 329.318 398.454 329.149C398.212 328.98 397.908 328.896 397.541 328.896C397.028 328.896 396.617 329.079 396.309 329.446C396.008 329.805 395.858 330.311 395.858 330.964C395.858 331.617 396.008 332.126 396.309 332.493C396.617 332.86 397.028 333.043 397.541 333.043C398.267 333.043 398.747 332.724 398.982 332.086H400.335C400.159 332.702 399.829 333.193 399.345 333.56C398.861 333.919 398.26 334.099 397.541 334.099C396.962 334.099 396.448 333.971 396.001 333.714C395.554 333.45 395.202 333.083 394.945 332.614C394.696 332.137 394.571 331.587 394.571 330.964ZM402.839 328.819C403.022 328.511 403.264 328.273 403.565 328.104C403.873 327.928 404.236 327.84 404.654 327.84V329.138H404.335C403.843 329.138 403.469 329.263 403.213 329.512C402.963 329.761 402.839 330.194 402.839 330.81V334H401.585V327.939H402.839V328.819ZM411.361 330.821C411.361 331.048 411.347 331.254 411.317 331.437H406.686C406.723 331.921 406.903 332.31 407.225 332.603C407.548 332.896 407.944 333.043 408.413 333.043C409.088 333.043 409.565 332.761 409.843 332.196H411.196C411.013 332.753 410.679 333.212 410.195 333.571C409.719 333.923 409.125 334.099 408.413 334.099C407.834 334.099 407.313 333.971 406.851 333.714C406.397 333.45 406.037 333.083 405.773 332.614C405.517 332.137 405.388 331.587 405.388 330.964C405.388 330.341 405.513 329.794 405.762 329.325C406.019 328.848 406.375 328.482 406.829 328.225C407.291 327.968 407.819 327.84 408.413 327.84C408.985 327.84 409.495 327.965 409.942 328.214C410.39 328.463 410.738 328.815 410.987 329.27C411.237 329.717 411.361 330.234 411.361 330.821ZM410.052 330.425C410.045 329.963 409.88 329.593 409.557 329.314C409.235 329.035 408.835 328.896 408.358 328.896C407.926 328.896 407.555 329.035 407.247 329.314C406.939 329.585 406.756 329.956 406.697 330.425H410.052ZM412.177 330.942C412.177 330.333 412.302 329.794 412.551 329.325C412.808 328.856 413.153 328.493 413.585 328.236C414.025 327.972 414.513 327.84 415.048 327.84C415.444 327.84 415.833 327.928 416.214 328.104C416.603 328.273 416.911 328.5 417.138 328.786V325.86H418.403V334H417.138V333.087C416.933 333.38 416.647 333.622 416.28 333.813C415.921 334.004 415.507 334.099 415.037 334.099C414.509 334.099 414.025 333.967 413.585 333.703C413.153 333.432 412.808 333.058 412.551 332.581C412.302 332.097 412.177 331.551 412.177 330.942ZM417.138 330.964C417.138 330.546 417.05 330.183 416.874 329.875C416.706 329.567 416.482 329.332 416.203 329.171C415.925 329.01 415.624 328.929 415.301 328.929C414.979 328.929 414.678 329.01 414.399 329.171C414.121 329.325 413.893 329.556 413.717 329.864C413.549 330.165 413.464 330.524 413.464 330.942C413.464 331.36 413.549 331.727 413.717 332.042C413.893 332.357 414.121 332.599 414.399 332.768C414.685 332.929 414.986 333.01 415.301 333.01C415.624 333.01 415.925 332.929 416.203 332.768C416.482 332.607 416.706 332.372 416.874 332.064C417.05 331.749 417.138 331.382 417.138 330.964ZM420.688 327.136C420.461 327.136 420.27 327.059 420.116 326.905C419.962 326.751 419.885 326.56 419.885 326.333C419.885 326.106 419.962 325.915 420.116 325.761C420.27 325.607 420.461 325.53 420.688 325.53C420.908 325.53 421.095 325.607 421.249 325.761C421.403 325.915 421.48 326.106 421.48 326.333C421.48 326.56 421.403 326.751 421.249 326.905C421.095 327.059 420.908 327.136 420.688 327.136ZM421.304 327.939V334H420.05V327.939H421.304ZM424.414 328.962V332.317C424.414 332.544 424.465 332.709 424.568 332.812C424.678 332.907 424.861 332.955 425.118 332.955H425.888V334H424.898C424.333 334 423.9 333.868 423.6 333.604C423.299 333.34 423.149 332.911 423.149 332.317V328.962H422.434V327.939H423.149V326.432H424.414V327.939H425.888V328.962H424.414ZM429.244 334.099C428.767 334.099 428.338 334.015 427.957 333.846C427.583 333.67 427.286 333.435 427.066 333.142C426.846 332.841 426.728 332.508 426.714 332.141H428.012C428.034 332.398 428.155 332.614 428.375 332.79C428.602 332.959 428.884 333.043 429.222 333.043C429.574 333.043 429.845 332.977 430.036 332.845C430.234 332.706 430.333 332.53 430.333 332.317C430.333 332.09 430.223 331.921 430.003 331.811C429.79 331.701 429.449 331.58 428.98 331.448C428.525 331.323 428.155 331.202 427.869 331.085C427.583 330.968 427.333 330.788 427.121 330.546C426.915 330.304 426.813 329.985 426.813 329.589C426.813 329.266 426.908 328.973 427.099 328.709C427.289 328.438 427.561 328.225 427.913 328.071C428.272 327.917 428.683 327.84 429.145 327.84C429.834 327.84 430.388 328.016 430.806 328.368C431.231 328.713 431.458 329.186 431.488 329.787H430.234C430.212 329.516 430.102 329.299 429.904 329.138C429.706 328.977 429.438 328.896 429.101 328.896C428.771 328.896 428.518 328.958 428.342 329.083C428.166 329.208 428.078 329.373 428.078 329.578C428.078 329.739 428.136 329.875 428.254 329.985C428.371 330.095 428.514 330.183 428.683 330.249C428.851 330.308 429.101 330.385 429.431 330.48C429.871 330.597 430.23 330.718 430.509 330.843C430.795 330.96 431.04 331.136 431.246 331.371C431.451 331.606 431.557 331.917 431.565 332.306C431.565 332.651 431.469 332.959 431.279 333.23C431.088 333.501 430.817 333.714 430.465 333.868C430.12 334.022 429.713 334.099 429.244 334.099ZM433.426 334.077C433.198 334.077 433.008 334 432.854 333.846C432.7 333.692 432.623 333.501 432.623 333.274C432.623 333.047 432.7 332.856 432.854 332.702C433.008 332.548 433.198 332.471 433.426 332.471C433.646 332.471 433.833 332.548 433.987 332.702C434.141 332.856 434.218 333.047 434.218 333.274C434.218 333.501 434.141 333.692 433.987 333.846C433.833 334 433.646 334.077 433.426 334.077Z"></path>
<path fill="black" d="M188.976 177.192C188.976 177.757 188.843 178.291 188.576 178.792C188.309 179.293 187.883 179.704 187.296 180.024C186.709 180.333 185.957 180.488 185.04 180.488H183.024V185H181.2V173.88H185.04C185.893 173.88 186.613 174.029 187.2 174.328C187.797 174.616 188.24 175.011 188.528 175.512C188.827 176.013 188.976 176.573 188.976 177.192ZM185.04 179C185.733 179 186.251 178.845 186.592 178.536C186.933 178.216 187.104 177.768 187.104 177.192C187.104 175.976 186.416 175.368 185.04 175.368H183.024V179H185.04ZM191.644 175.016C191.313 175.016 191.036 174.904 190.812 174.68C190.588 174.456 190.476 174.179 190.476 173.848C190.476 173.517 190.588 173.24 190.812 173.016C191.036 172.792 191.313 172.68 191.644 172.68C191.964 172.68 192.236 172.792 192.46 173.016C192.684 173.24 192.796 173.517 192.796 173.848C192.796 174.179 192.684 174.456 192.46 174.68C192.236 174.904 191.964 175.016 191.644 175.016ZM192.54 176.184V185H190.716V176.184H192.54ZM196.758 177.464C197.025 177.016 197.377 176.669 197.814 176.424C198.262 176.168 198.79 176.04 199.398 176.04V177.928H198.934C198.22 177.928 197.676 178.109 197.302 178.472C196.94 178.835 196.758 179.464 196.758 180.36V185H194.934V176.184H196.758V177.464ZM200.467 180.552C200.467 179.667 200.648 178.883 201.011 178.2C201.384 177.517 201.886 176.989 202.515 176.616C203.155 176.232 203.859 176.04 204.627 176.04C205.32 176.04 205.923 176.179 206.435 176.456C206.958 176.723 207.374 177.059 207.683 177.464V176.184H209.523V185H207.683V183.688C207.374 184.104 206.952 184.451 206.419 184.728C205.886 185.005 205.278 185.144 204.595 185.144C203.838 185.144 203.144 184.952 202.515 184.568C201.886 184.173 201.384 183.629 201.011 182.936C200.648 182.232 200.467 181.437 200.467 180.552ZM207.683 180.584C207.683 179.976 207.555 179.448 207.299 179C207.054 178.552 206.728 178.211 206.323 177.976C205.918 177.741 205.48 177.624 205.011 177.624C204.542 177.624 204.104 177.741 203.699 177.976C203.294 178.2 202.963 178.536 202.707 178.984C202.462 179.421 202.339 179.944 202.339 180.552C202.339 181.16 202.462 181.693 202.707 182.152C202.963 182.611 203.294 182.963 203.699 183.208C204.115 183.443 204.552 183.56 205.011 183.56C205.48 183.56 205.918 183.443 206.323 183.208C206.728 182.973 207.054 182.632 207.299 182.184C207.555 181.725 207.683 181.192 207.683 180.584ZM214.047 177.672V182.552C214.047 182.883 214.121 183.123 214.271 183.272C214.431 183.411 214.697 183.48 215.071 183.48H216.191V185H214.751C213.929 185 213.3 184.808 212.863 184.424C212.425 184.04 212.207 183.416 212.207 182.552V177.672H211.167V176.184H212.207V173.992H214.047V176.184H216.191V177.672H214.047ZM221.696 185.144C220.864 185.144 220.112 184.957 219.44 184.584C218.768 184.2 218.24 183.667 217.856 182.984C217.472 182.291 217.28 181.491 217.28 180.584C217.28 179.688 217.477 178.893 217.872 178.2C218.267 177.507 218.805 176.973 219.488 176.6C220.171 176.227 220.933 176.04 221.776 176.04C222.619 176.04 223.381 176.227 224.064 176.6C224.747 176.973 225.285 177.507 225.68 178.2C226.075 178.893 226.272 179.688 226.272 180.584C226.272 181.48 226.069 182.275 225.664 182.968C225.259 183.661 224.704 184.2 224 184.584C223.307 184.957 222.539 185.144 221.696 185.144ZM221.696 183.56C222.165 183.56 222.603 183.448 223.008 183.224C223.424 183 223.76 182.664 224.016 182.216C224.272 181.768 224.4 181.224 224.4 180.584C224.4 179.944 224.277 179.405 224.032 178.968C223.787 178.52 223.461 178.184 223.056 177.96C222.651 177.736 222.213 177.624 221.744 177.624C221.275 177.624 220.837 177.736 220.432 177.96C220.037 178.184 219.723 178.52 219.488 178.968C219.253 179.405 219.136 179.944 219.136 180.584C219.136 181.533 219.376 182.269 219.856 182.792C220.347 183.304 220.96 183.56 221.696 183.56ZM231.275 185.144C230.582 185.144 229.958 185.021 229.403 184.776C228.859 184.52 228.427 184.179 228.107 183.752C227.787 183.315 227.616 182.829 227.595 182.296H229.483C229.515 182.669 229.691 182.984 230.011 183.24C230.342 183.485 230.752 183.608 231.243 183.608C231.755 183.608 232.15 183.512 232.427 183.32C232.715 183.117 232.859 182.861 232.859 182.552C232.859 182.221 232.699 181.976 232.379 181.816C232.07 181.656 231.574 181.48 230.891 181.288C230.23 181.107 229.691 180.931 229.275 180.76C228.859 180.589 228.496 180.328 228.187 179.976C227.888 179.624 227.739 179.16 227.739 178.584C227.739 178.115 227.878 177.688 228.155 177.304C228.432 176.909 228.827 176.6 229.339 176.376C229.862 176.152 230.459 176.04 231.131 176.04C232.134 176.04 232.939 176.296 233.547 176.808C234.166 177.309 234.496 177.997 234.539 178.872H232.715C232.683 178.477 232.523 178.163 232.235 177.928C231.947 177.693 231.558 177.576 231.067 177.576C230.587 177.576 230.219 177.667 229.963 177.848C229.707 178.029 229.579 178.269 229.579 178.568C229.579 178.803 229.664 179 229.835 179.16C230.006 179.32 230.214 179.448 230.459 179.544C230.704 179.629 231.067 179.741 231.547 179.88C232.187 180.051 232.71 180.227 233.115 180.408C233.531 180.579 233.888 180.835 234.187 181.176C234.486 181.517 234.64 181.971 234.651 182.536C234.651 183.037 234.512 183.485 234.235 183.88C233.958 184.275 233.563 184.584 233.051 184.808C232.55 185.032 231.958 185.144 231.275 185.144Z"></path>
<path fill="#0076B3" d="M190.78 198.355L188.514 206H187.095L185.489 200.214L183.784 206L182.376 206.011L180.209 198.355H181.54L183.124 204.581L184.84 198.355H186.248L187.843 204.548L189.438 198.355H190.78ZM194.443 206.099C193.871 206.099 193.354 205.971 192.892 205.714C192.43 205.45 192.067 205.083 191.803 204.614C191.539 204.137 191.407 203.587 191.407 202.964C191.407 202.348 191.543 201.802 191.814 201.325C192.086 200.848 192.456 200.482 192.925 200.225C193.395 199.968 193.919 199.84 194.498 199.84C195.078 199.84 195.602 199.968 196.071 200.225C196.541 200.482 196.911 200.848 197.182 201.325C197.454 201.802 197.589 202.348 197.589 202.964C197.589 203.58 197.45 204.126 197.171 204.603C196.893 205.08 196.511 205.45 196.027 205.714C195.551 205.971 195.023 206.099 194.443 206.099ZM194.443 205.01C194.766 205.01 195.067 204.933 195.345 204.779C195.631 204.625 195.862 204.394 196.038 204.086C196.214 203.778 196.302 203.404 196.302 202.964C196.302 202.524 196.218 202.154 196.049 201.853C195.881 201.545 195.657 201.314 195.378 201.16C195.1 201.006 194.799 200.929 194.476 200.929C194.154 200.929 193.853 201.006 193.574 201.16C193.303 201.314 193.087 201.545 192.925 201.853C192.764 202.154 192.683 202.524 192.683 202.964C192.683 203.617 192.848 204.123 193.178 204.482C193.516 204.834 193.937 205.01 194.443 205.01ZM206.969 199.939L205.088 206H203.768L202.547 201.523L201.326 206H200.006L198.114 199.939H199.39L200.655 204.812L201.942 199.939H203.251L204.483 204.79L205.737 199.939H206.969ZM207.488 202.942C207.488 202.333 207.613 201.794 207.862 201.325C208.119 200.856 208.463 200.493 208.896 200.236C209.336 199.972 209.82 199.84 210.348 199.84C210.825 199.84 211.239 199.935 211.591 200.126C211.95 200.309 212.236 200.54 212.449 200.819V199.939H213.714V206H212.449V205.098C212.236 205.384 211.947 205.622 211.58 205.813C211.213 206.004 210.795 206.099 210.326 206.099C209.805 206.099 209.329 205.967 208.896 205.703C208.463 205.432 208.119 205.058 207.862 204.581C207.613 204.097 207.488 203.551 207.488 202.942ZM212.449 202.964C212.449 202.546 212.361 202.183 212.185 201.875C212.016 201.567 211.793 201.332 211.514 201.171C211.235 201.01 210.935 200.929 210.612 200.929C210.289 200.929 209.989 201.01 209.71 201.171C209.431 201.325 209.204 201.556 209.028 201.864C208.859 202.165 208.775 202.524 208.775 202.942C208.775 203.36 208.859 203.727 209.028 204.042C209.204 204.357 209.431 204.599 209.71 204.768C209.996 204.929 210.297 205.01 210.612 205.01C210.935 205.01 211.235 204.929 211.514 204.768C211.793 204.607 212.016 204.372 212.185 204.064C212.361 203.749 212.449 203.382 212.449 202.964Z"></path>
<circle stroke-width="3.2" stroke="url(#paint1_linear_1051_537)" fill="url(#paint0_linear_1051_537)" r="17.6" cy="190" cx="120"></circle>
<path fill="url(#paint2_linear_1051_537)" d="M115.2 197.271V182.729C115.2 181.424 116.679 180.668 117.737 181.432L127.804 188.703C128.689 189.342 128.689 190.659 127.804 191.297L117.737 198.568C116.679 199.332 115.2 198.576 115.2 197.271Z"></path>
<path stroke-width="1.6" stroke-opacity="0.2" stroke="black" d="M114.4 182.729V197.271C114.4 199.229 116.618 200.363 118.205 199.217L128.273 191.946C129.599 190.988 129.599 189.012 128.273 188.054L118.205 180.784C116.618 179.637 114.4 180.771 114.4 182.729Z"></path>
<defs>
<linearGradient gradientUnits="userSpaceOnUse" y2="209.2" x2="131.2" y1="170.8" x1="108.8" id="paint0_linear_1051_537">
<stop stop-color="#4D4D4D" offset="0.139158"></stop>
<stop stop-color="#242424" offset="0.856518"></stop>
</linearGradient>
<linearGradient gradientUnits="userSpaceOnUse" y2="209.2" x2="131.2" y1="170.8" x1="108.8" id="paint1_linear_1051_537">
<stop stop-color="#FE924A" offset="0.140625"></stop>
<stop stop-color="#9264BA" offset="0.864583"></stop>
</linearGradient>
<linearGradient gradientUnits="userSpaceOnUse" y2="199.6" x2="115.2" y1="180.4" x1="115.2" id="paint2_linear_1051_537">
<stop stop-color="white"></stop>
<stop stop-color="#E3E3E3" offset="1"></stop>
</linearGradient>
</defs>
</svg>
