<svg xmlns="http://www.w3.org/2000/svg" fill="none" viewBox="0 0 100 80" height="80" width="100">
<rect fill-opacity="0.05" fill="black" rx="5" height="80" width="100"></rect>
<path fill="black" d="M42.1041 58.632C42.1041 59.0207 42.0124 59.3873 41.8291 59.732C41.6458 60.0767 41.3524 60.359 40.9491 60.579C40.5458 60.7917 40.0288 60.898 39.3981 60.898H38.0121V64H36.7581V56.355H39.3981C39.9848 56.355 40.4798 56.4577 40.8831 56.663C41.2938 56.861 41.5981 57.1323 41.7961 57.477C42.0014 57.8217 42.1041 58.2067 42.1041 58.632ZM39.3981 59.875C39.8748 59.875 40.2304 59.7687 40.4651 59.556C40.6998 59.336 40.8171 59.028 40.8171 58.632C40.8171 57.796 40.3441 57.378 39.3981 57.378H38.0121V59.875H39.3981ZM42.8821 60.942C42.8821 60.3333 43.0068 59.7943 43.2561 59.325C43.5128 58.8557 43.8574 58.4927 44.2901 58.236C44.7301 57.972 45.2141 57.84 45.7421 57.84C46.2188 57.84 46.6331 57.9353 46.9851 58.126C47.3444 58.3093 47.6304 58.5403 47.8431 58.819V57.939H49.1081V64H47.8431V63.098C47.6304 63.384 47.3408 63.6223 46.9741 63.813C46.6074 64.0037 46.1894 64.099 45.7201 64.099C45.1994 64.099 44.7228 63.967 44.2901 63.703C43.8574 63.4317 43.5128 63.0577 43.2561 62.581C43.0068 62.097 42.8821 61.5507 42.8821 60.942ZM47.8431 60.964C47.8431 60.546 47.7551 60.183 47.5791 59.875C47.4104 59.567 47.1868 59.3323 46.9081 59.171C46.6294 59.0097 46.3288 58.929 46.0061 58.929C45.6834 58.929 45.3828 59.0097 45.1041 59.171C44.8254 59.325 44.5981 59.556 44.4221 59.864C44.2534 60.1647 44.1691 60.524 44.1691 60.942C44.1691 61.36 44.2534 61.7267 44.4221 62.042C44.5981 62.3573 44.8254 62.5993 45.1041 62.768C45.3901 62.9293 45.6908 63.01 46.0061 63.01C46.3288 63.01 46.6294 62.9293 46.9081 62.768C47.1868 62.6067 47.4104 62.372 47.5791 62.064C47.7551 61.7487 47.8431 61.382 47.8431 60.964ZM51.3932 57.136C51.1658 57.136 50.9752 57.059 50.8212 56.905C50.6672 56.751 50.5902 56.5603 50.5902 56.333C50.5902 56.1057 50.6672 55.915 50.8212 55.761C50.9752 55.607 51.1658 55.53 51.3932 55.53C51.6132 55.53 51.8002 55.607 51.9542 55.761C52.1082 55.915 52.1852 56.1057 52.1852 56.333C52.1852 56.5603 52.1082 56.751 51.9542 56.905C51.8002 57.059 51.6132 57.136 51.3932 57.136ZM52.0092 57.939V64H50.7552V57.939H52.0092ZM56.7136 57.84C57.1902 57.84 57.6156 57.939 57.9896 58.137C58.3709 58.335 58.6679 58.6283 58.8806 59.017C59.0932 59.4057 59.1996 59.875 59.1996 60.425V64H57.9566V60.612C57.9566 60.0693 57.8209 59.655 57.5496 59.369C57.2782 59.0757 56.9079 58.929 56.4386 58.929C55.9692 58.929 55.5952 59.0757 55.3166 59.369C55.0452 59.655 54.9096 60.0693 54.9096 60.612V64H53.6556V57.939H54.9096V58.632C55.1149 58.3827 55.3752 58.1883 55.6906 58.049C56.0132 57.9097 56.3542 57.84 56.7136 57.84ZM62.2621 58.962V62.317C62.2621 62.5443 62.3135 62.7093 62.4161 62.812C62.5261 62.9073 62.7095 62.955 62.9661 62.955H63.7361V64H62.7461C62.1815 64 61.7488 63.868 61.4481 63.604C61.1475 63.34 60.9971 62.911 60.9971 62.317V58.962H60.2821V57.939H60.9971V56.432H62.2621V57.939H63.7361V58.962H62.2621Z"></path>
<path fill="url(#paint0_linear_807_192)" d="M51.5 18C45.499 17.9993 37.9996 23.4993 38 32C38.0001 34.4466 38.5534 37.5 41 37.5C43.4994 37.5 44.4994 33.5 46.5 33.5C47.3284 33.5 48 33.9993 48 35C48 36.4993 46.5 36.4993 46.5 38.5C46.5 39.9993 47.4994 41 49 41C54.4994 41 61 34.5538 61 27.5C61 22.9993 57.3262 18.0007 51.5 18Z"></path>
<rect fill="url(#paint1_linear_807_192)" rx="2" height="4" width="4" y="27.9993" x="39.999"></rect>
<rect fill-opacity="0.5" fill="black" rx="1.5" height="3" width="3" y="28.9993" x="48.999"></rect>
<rect fill="url(#paint2_linear_807_192)" rx="2" height="4" width="4" y="22.9993" x="42.999"></rect>
<rect fill="url(#paint3_linear_807_192)" rx="2" height="4" width="4" y="20.9993" x="47.999"></rect>
<path fill="url(#paint4_linear_807_192)" d="M53.999 29.9981L56.999 29.9995L56.5388 41.0397C56.5164 41.5753 56.0757 41.998 55.5396 41.998H55.458C54.9219 41.998 54.4812 41.5753 54.4589 41.0397L53.999 29.9981Z"></path>
<path fill="url(#paint5_linear_807_192)" d="M53.999 29.9981V28.9995H56.999V29.9995L53.999 29.9981Z"></path>
<path fill="url(#paint6_linear_807_192)" d="M53.999 28.9979L52.7229 26.4466C52.3904 25.7817 52.8739 24.9993 53.6173 24.9993H57.381C58.1244 24.9993 58.6079 25.7816 58.2755 26.4465L56.999 28.9995L53.999 28.9979Z"></path>
<defs>
<linearGradient gradientUnits="userSpaceOnUse" y2="37.9993" x2="55.999" y1="20.9993" x1="42.999" id="paint0_linear_807_192">
<stop stop-color="#50E6FF"></stop>
<stop stop-color="#0270C2" offset="1"></stop>
</linearGradient>
<linearGradient gradientUnits="userSpaceOnUse" y2="30.9993" x2="42.999" y1="28.9993" x1="40.999" id="paint1_linear_807_192">
<stop stop-color="#E25113"></stop>
<stop stop-color="#C7390A" offset="1"></stop>
</linearGradient>
<linearGradient gradientUnits="userSpaceOnUse" y2="25.9993" x2="45.999" y1="23.9993" x1="43.999" id="paint2_linear_807_192">
<stop stop-color="#55B50E"></stop>
<stop stop-color="#1C8610" offset="1"></stop>
</linearGradient>
<linearGradient gradientUnits="userSpaceOnUse" y2="23.9993" x2="50.999" y1="21.9993" x1="48.999" id="paint3_linear_807_192">
<stop stop-color="#FFD300"></stop>
<stop stop-color="#F39808" offset="1"></stop>
</linearGradient>
<linearGradient gradientUnits="userSpaceOnUse" y2="29.9993" x2="56.999" y1="29.9993" x1="53.999" id="paint4_linear_807_192">
<stop stop-color="#AA6701"></stop>
<stop stop-color="#814406" offset="1"></stop>
</linearGradient>
<linearGradient gradientUnits="userSpaceOnUse" y2="29.9993" x2="56.999" y1="29.9993" x1="53.999" id="paint5_linear_807_192">
<stop stop-color="#CAD2D9"></stop>
<stop stop-color="#939BA2" offset="1"></stop>
</linearGradient>
<linearGradient gradientUnits="userSpaceOnUse" y2="28.9993" x2="56.999" y1="24.9993" x1="52.999" id="paint6_linear_807_192">
<stop stop-color="#F7DEAA"></stop>
<stop stop-color="#C3935E" offset="1"></stop>
</linearGradient>
</defs>
</svg>
