<svg xmlns="http://www.w3.org/2000/svg" fill="none" viewBox="0 0 44 24" height="24" width="44">
<path fill-opacity="0.5" fill="#FF0000" d="M2 12C2 6.47715 6.47715 2 12 2H32C37.5228 2 42 6.47715 42 12V12C42 17.5228 37.5228 22 32 22H12C6.47715 22 2 17.5228 2 12V12Z"></path>
<path stroke-width="2" stroke-opacity="0.2" stroke="#FF0000" d="M32 1H12C5.92487 1 1 5.92487 1 12C1 18.0751 5.92487 23 12 23H32C38.0751 23 43 18.0751 43 12C43 5.92487 38.0751 1 32 1Z"></path>
<path fill="white" d="M21.1705 8.428H17.1505V10.816C17.3185 10.592 17.5665 10.404 17.8945 10.252C18.2305 10.1 18.5865 10.024 18.9625 10.024C19.6345 10.024 20.1785 10.168 20.5945 10.456C21.0185 10.744 21.3185 11.108 21.4945 11.548C21.6785 11.988 21.7705 12.452 21.7705 12.94C21.7705 13.532 21.6545 14.06 21.4225 14.524C21.1985 14.98 20.8585 15.34 20.4025 15.604C19.9545 15.868 19.4025 16 18.7465 16C17.8745 16 17.1745 15.784 16.6465 15.352C16.1185 14.92 15.8025 14.348 15.6985 13.636H17.0305C17.1185 14.012 17.3145 14.312 17.6185 14.536C17.9225 14.752 18.3025 14.86 18.7585 14.86C19.3265 14.86 19.7505 14.688 20.0305 14.344C20.3185 14 20.4625 13.544 20.4625 12.976C20.4625 12.4 20.3185 11.96 20.0305 11.656C19.7425 11.344 19.3185 11.188 18.7585 11.188C18.3665 11.188 18.0345 11.288 17.7625 11.488C17.4985 11.68 17.3065 11.944 17.1865 12.28H15.8905V7.228H21.1705V8.428ZM28.7386 8.308L25.4026 16H24.0226L27.3946 8.452H22.9546V7.288H28.7386V8.308Z"></path>
</svg>
