<svg xmlns="http://www.w3.org/2000/svg" fill="none" viewBox="0 0 114 37" height="37" width="114">
<rect fill-opacity="0.05" fill="white" rx="5" height="37" width="114"></rect>
<path fill="white" d="M59.3173 15.059H55.6323V17.248C55.7863 17.0427 56.0136 16.8703 56.3143 16.731C56.6223 16.5917 56.9486 16.522 57.2933 16.522C57.9093 16.522 58.408 16.654 58.7893 16.918C59.178 17.182 59.453 17.5157 59.6143 17.919C59.783 18.3223 59.8673 18.7477 59.8673 19.195C59.8673 19.7377 59.761 20.2217 59.5483 20.647C59.343 21.065 59.0313 21.395 58.6133 21.637C58.2026 21.879 57.6966 22 57.0953 22C56.296 22 55.6543 21.802 55.1703 21.406C54.6863 21.01 54.3966 20.4857 54.3013 19.833H55.5223C55.603 20.1777 55.7826 20.4527 56.0613 20.658C56.34 20.856 56.6883 20.955 57.1063 20.955C57.627 20.955 58.0156 20.7973 58.2723 20.482C58.5363 20.1667 58.6683 19.7487 58.6683 19.228C58.6683 18.7 58.5363 18.2967 58.2723 18.018C58.0083 17.732 57.6196 17.589 57.1063 17.589C56.747 17.589 56.4426 17.6807 56.1933 17.864C55.9513 18.04 55.7753 18.282 55.6653 18.59H54.4773V13.959H59.3173V15.059Z"></path>
</svg>
