<svg xmlns="http://www.w3.org/2000/svg" fill="none" viewBox="0 0 100 80" height="80" width="100">
<path fill="white" d="M21.2634 60.161C21.2634 59.413 21.4358 58.742 21.7804 58.148C22.1324 57.554 22.6054 57.092 23.1994 56.762C23.8008 56.4247 24.4571 56.256 25.1684 56.256C25.9824 56.256 26.7048 56.4577 27.3354 56.861C27.9734 57.257 28.4354 57.8217 28.7214 58.555H27.2144C27.0164 58.1517 26.7414 57.851 26.3894 57.653C26.0374 57.455 25.6304 57.356 25.1684 57.356C24.6624 57.356 24.2114 57.4697 23.8154 57.697C23.4194 57.9243 23.1078 58.2507 22.8804 58.676C22.6604 59.1013 22.5504 59.5963 22.5504 60.161C22.5504 60.7257 22.6604 61.2207 22.8804 61.646C23.1078 62.0713 23.4194 62.4013 23.8154 62.636C24.2114 62.8633 24.6624 62.977 25.1684 62.977C25.6304 62.977 26.0374 62.878 26.3894 62.68C26.7414 62.482 27.0164 62.1813 27.2144 61.778H28.7214C28.4354 62.5113 27.9734 63.076 27.3354 63.472C26.7048 63.868 25.9824 64.066 25.1684 64.066C24.4498 64.066 23.7934 63.901 23.1994 63.571C22.6054 63.2337 22.1324 62.768 21.7804 62.174C21.4358 61.58 21.2634 60.909 21.2634 60.161ZM29.7713 60.942C29.7713 60.3333 29.8959 59.7943 30.1453 59.325C30.4019 58.8557 30.7466 58.4927 31.1793 58.236C31.6193 57.972 32.1033 57.84 32.6313 57.84C33.1079 57.84 33.5223 57.9353 33.8743 58.126C34.2336 58.3093 34.5196 58.5403 34.7323 58.819V57.939H35.9973V64H34.7323V63.098C34.5196 63.384 34.2299 63.6223 33.8633 63.813C33.4966 64.0037 33.0786 64.099 32.6093 64.099C32.0886 64.099 31.6119 63.967 31.1793 63.703C30.7466 63.4317 30.4019 63.0577 30.1453 62.581C29.8959 62.097 29.7713 61.5507 29.7713 60.942ZM34.7323 60.964C34.7323 60.546 34.6443 60.183 34.4683 59.875C34.2996 59.567 34.0759 59.3323 33.7973 59.171C33.5186 59.0097 33.2179 58.929 32.8953 58.929C32.5726 58.929 32.2719 59.0097 31.9933 59.171C31.7146 59.325 31.4873 59.556 31.3113 59.864C31.1426 60.1647 31.0583 60.524 31.0583 60.942C31.0583 61.36 31.1426 61.7267 31.3113 62.042C31.4873 62.3573 31.7146 62.5993 31.9933 62.768C32.2793 62.9293 32.5799 63.01 32.8953 63.01C33.2179 63.01 33.5186 62.9293 33.7973 62.768C34.0759 62.6067 34.2996 62.372 34.4683 62.064C34.6443 61.7487 34.7323 61.382 34.7323 60.964ZM38.8983 55.86V64H37.6443V55.86H38.8983ZM40.1267 60.964C40.1267 60.3407 40.2514 59.7943 40.5007 59.325C40.7574 58.8483 41.1094 58.4817 41.5567 58.225C42.0041 57.9683 42.5174 57.84 43.0967 57.84C43.8301 57.84 44.4351 58.016 44.9117 58.368C45.3957 58.7127 45.7221 59.2077 45.8907 59.853H44.5377C44.4277 59.5523 44.2517 59.3177 44.0097 59.149C43.7677 58.9803 43.4634 58.896 43.0967 58.896C42.5834 58.896 42.1727 59.0793 41.8647 59.446C41.5641 59.8053 41.4137 60.3113 41.4137 60.964C41.4137 61.6167 41.5641 62.1263 41.8647 62.493C42.1727 62.8597 42.5834 63.043 43.0967 63.043C43.8227 63.043 44.3031 62.724 44.5377 62.086H45.8907C45.7147 62.702 45.3847 63.1933 44.9007 63.56C44.4167 63.9193 43.8154 64.099 43.0967 64.099C42.5174 64.099 42.0041 63.9707 41.5567 63.714C41.1094 63.45 40.7574 63.0833 40.5007 62.614C40.2514 62.1373 40.1267 61.5873 40.1267 60.964ZM52.6294 57.939V64H51.3754V63.285C51.1774 63.5343 50.9171 63.7323 50.5944 63.879C50.2791 64.0183 49.9418 64.088 49.5824 64.088C49.1058 64.088 48.6768 63.989 48.2954 63.791C47.9214 63.593 47.6244 63.2997 47.4044 62.911C47.1918 62.5223 47.0854 62.053 47.0854 61.503V57.939H48.3284V61.316C48.3284 61.8587 48.4641 62.2767 48.7354 62.57C49.0068 62.856 49.3771 62.999 49.8464 62.999C50.3158 62.999 50.6861 62.856 50.9574 62.57C51.2361 62.2767 51.3754 61.8587 51.3754 61.316V57.939H52.6294ZM55.538 55.86V64H54.284V55.86H55.538ZM56.7664 60.942C56.7664 60.3333 56.891 59.7943 57.1404 59.325C57.397 58.8557 57.7417 58.4927 58.1744 58.236C58.6144 57.972 59.0984 57.84 59.6264 57.84C60.103 57.84 60.5174 57.9353 60.8694 58.126C61.2287 58.3093 61.5147 58.5403 61.7274 58.819V57.939H62.9924V64H61.7274V63.098C61.5147 63.384 61.225 63.6223 60.8584 63.813C60.4917 64.0037 60.0737 64.099 59.6044 64.099C59.0837 64.099 58.607 63.967 58.1744 63.703C57.7417 63.4317 57.397 63.0577 57.1404 62.581C56.891 62.097 56.7664 61.5507 56.7664 60.942ZM61.7274 60.964C61.7274 60.546 61.6394 60.183 61.4634 59.875C61.2947 59.567 61.071 59.3323 60.7924 59.171C60.5137 59.0097 60.213 58.929 59.8904 58.929C59.5677 58.929 59.267 59.0097 58.9884 59.171C58.7097 59.325 58.4824 59.556 58.3064 59.864C58.1377 60.1647 58.0534 60.524 58.0534 60.942C58.0534 61.36 58.1377 61.7267 58.3064 62.042C58.4824 62.3573 58.7097 62.5993 58.9884 62.768C59.2744 62.9293 59.575 63.01 59.8904 63.01C60.213 63.01 60.5137 62.9293 60.7924 62.768C61.071 62.6067 61.2947 62.372 61.4634 62.064C61.6394 61.7487 61.7274 61.382 61.7274 60.964ZM66.1025 58.962V62.317C66.1025 62.5443 66.1538 62.7093 66.2565 62.812C66.3665 62.9073 66.5498 62.955 66.8065 62.955H67.5765V64H66.5865C66.0218 64 65.5891 63.868 65.2885 63.604C64.9878 63.34 64.8375 62.911 64.8375 62.317V58.962H64.1225V57.939H64.8375V56.432H66.1025V57.939H67.5765V58.962H66.1025ZM71.3612 64.099C70.7892 64.099 70.2722 63.9707 69.8102 63.714C69.3482 63.45 68.9852 63.0833 68.7212 62.614C68.4572 62.1373 68.3252 61.5873 68.3252 60.964C68.3252 60.348 68.4609 59.8017 68.7322 59.325C69.0036 58.8483 69.3739 58.4817 69.8432 58.225C70.3126 57.9683 70.8369 57.84 71.4162 57.84C71.9956 57.84 72.5199 57.9683 72.9892 58.225C73.4586 58.4817 73.8289 58.8483 74.1002 59.325C74.3716 59.8017 74.5072 60.348 74.5072 60.964C74.5072 61.58 74.3679 62.1263 74.0892 62.603C73.8106 63.0797 73.4292 63.45 72.9452 63.714C72.4686 63.9707 71.9406 64.099 71.3612 64.099ZM71.3612 63.01C71.6839 63.01 71.9846 62.933 72.2632 62.779C72.5492 62.625 72.7802 62.394 72.9562 62.086C73.1322 61.778 73.2202 61.404 73.2202 60.964C73.2202 60.524 73.1359 60.1537 72.9672 59.853C72.7986 59.545 72.5749 59.314 72.2962 59.16C72.0176 59.006 71.7169 58.929 71.3942 58.929C71.0716 58.929 70.7709 59.006 70.4922 59.16C70.2209 59.314 70.0046 59.545 69.8432 59.853C69.6819 60.1537 69.6012 60.524 69.6012 60.964C69.6012 61.6167 69.7662 62.1227 70.0962 62.482C70.4336 62.834 70.8552 63.01 71.3612 63.01ZM77.0009 58.819C77.1842 58.511 77.4262 58.2727 77.7269 58.104C78.0349 57.928 78.3979 57.84 78.8159 57.84V59.138H78.4969C78.0055 59.138 77.6315 59.2627 77.3749 59.512C77.1255 59.7613 77.0009 60.194 77.0009 60.81V64H75.7469V57.939H77.0009V58.819Z"></path>
<rect fill="url(#paint0_linear_311_238)" rx="2" height="24" width="18" y="18" x="41"></rect>
<rect fill="#CAD2D9" rx="0.5" height="4" width="4" y="26" x="43"></rect>
<rect fill="#CAD2D9" rx="0.5" height="4" width="4" y="31" x="43"></rect>
<rect fill="#CAD2D9" rx="0.5" height="4" width="4" y="36" x="43"></rect>
<rect fill="#CAD2D9" rx="0.5" height="4" width="4" y="36" x="48"></rect>
<rect fill="#CAD2D9" rx="0.5" height="4" width="4" y="31" x="48"></rect>
<rect fill="#CAD2D9" rx="0.5" height="4" width="4" y="26" x="48"></rect>
<rect fill="#CAD2D9" rx="0.5" height="4" width="4" y="26" x="53"></rect>
<rect fill="url(#paint1_linear_311_238)" rx="0.5" height="9" width="4" y="31" x="53"></rect>
<rect fill="#6A6A6A" rx="0.5" height="4" width="14" y="21" x="43"></rect>
<rect fill="url(#paint2_linear_311_238)" rx="0.5" height="4" width="14" y="20" x="43"></rect>
<defs>
<linearGradient gradientUnits="userSpaceOnUse" y2="42" x2="56" y1="18" x1="44" id="paint0_linear_311_238">
<stop stop-color="#8A9198"></stop>
<stop stop-color="#65717C" offset="1"></stop>
</linearGradient>
<linearGradient gradientUnits="userSpaceOnUse" y2="40" x2="57" y1="31" x1="53" id="paint1_linear_311_238">
<stop stop-color="#174D8B"></stop>
<stop stop-color="#1B4077" offset="1"></stop>
</linearGradient>
<linearGradient gradientUnits="userSpaceOnUse" y2="24.7749" x2="43.2695" y1="20" x1="43" id="paint2_linear_311_238">
<stop stop-color="#50E6FF"></stop>
<stop stop-color="#31BCEF" offset="1"></stop>
</linearGradient>
</defs>
</svg>
