<svg xmlns="http://www.w3.org/2000/svg" fill="none" viewBox="0 0 44 24" height="24" width="44">
<path fill-opacity="0.5" fill="#FF0000" d="M2 12C2 6.47715 6.47715 2 12 2H32C37.5228 2 42 6.47715 42 12V12C42 17.5228 37.5228 22 32 22H12C6.47715 22 2 17.5228 2 12V12Z"></path>
<path stroke-width="2" stroke-opacity="0.2" stroke="#FF0000" d="M32 1H12C5.92487 1 1 5.92487 1 12C1 18.0751 5.92487 23 12 23H32C38.0751 23 43 18.0751 43 12C43 5.92487 38.0751 1 32 1Z"></path>
<path fill="white" d="M14.8176 14.176V13.144L18.8496 7.36H20.5056V12.988H21.6216V14.176H20.5056V16H19.1616V14.176H14.8176ZM19.2216 8.752L16.3896 12.988H19.2216V8.752ZM27.4592 9.28C27.3712 8.912 27.2112 8.636 26.9792 8.452C26.7472 8.268 26.4232 8.176 26.0072 8.176C25.3752 8.176 24.9032 8.42 24.5912 8.908C24.2792 9.388 24.1152 10.188 24.0992 11.308C24.3072 10.956 24.6112 10.684 25.0112 10.492C25.4112 10.3 25.8432 10.204 26.3072 10.204C26.8352 10.204 27.2992 10.32 27.6992 10.552C28.1072 10.776 28.4232 11.104 28.6472 11.536C28.8792 11.968 28.9952 12.484 28.9952 13.084C28.9952 13.644 28.8832 14.144 28.6592 14.584C28.4432 15.024 28.1192 15.372 27.6872 15.628C27.2552 15.876 26.7352 16 26.1272 16C25.3032 16 24.6552 15.82 24.1832 15.46C23.7192 15.092 23.3912 14.576 23.1992 13.912C23.0152 13.248 22.9232 12.42 22.9232 11.428C22.9232 8.5 23.9552 7.036 26.0192 7.036C26.8192 7.036 27.4472 7.252 27.9032 7.684C28.3672 8.116 28.6392 8.648 28.7192 9.28H27.4592ZM26.0072 11.356C25.5192 11.356 25.1032 11.504 24.7592 11.8C24.4232 12.088 24.2552 12.508 24.2552 13.06C24.2552 13.612 24.4112 14.052 24.7232 14.38C25.0432 14.7 25.4872 14.86 26.0552 14.86C26.5592 14.86 26.9552 14.704 27.2432 14.392C27.5392 14.08 27.6872 13.664 27.6872 13.144C27.6872 12.6 27.5432 12.168 27.2552 11.848C26.9752 11.52 26.5592 11.356 26.0072 11.356Z"></path>
</svg>
