<svg xmlns="http://www.w3.org/2000/svg" fill="none" viewBox="0 0 122 142" height="142" width="122">
<path fill-opacity="0.9" fill="#CCCCCC" d="M1 11C1 5.47716 5.47715 1 11 1H111C116.523 1 121 5.47715 121 11V131C121 136.523 116.523 141 111 141H11C5.47715 141 1 136.523 1 131V11Z"></path>
<path stroke-opacity="0.2" stroke="white" d="M111 0.5H11C5.20101 0.5 0.5 5.20101 0.5 11V131C0.5 136.799 5.20101 141.5 11 141.5H111C116.799 141.5 121.5 136.799 121.5 131V11C121.5 5.20101 116.799 0.5 111 0.5Z"></path>
<path fill="black" d="M11.407 96.161C11.407 95.413 11.5793 94.742 11.924 94.148C12.276 93.554 12.749 93.092 13.343 92.762C13.9443 92.4247 14.6007 92.256 15.312 92.256C16.126 92.256 16.8483 92.4577 17.479 92.861C18.117 93.257 18.579 93.8217 18.865 94.555H17.358C17.16 94.1517 16.885 93.851 16.533 93.653C16.181 93.455 15.774 93.356 15.312 93.356C14.806 93.356 14.355 93.4697 13.959 93.697C13.563 93.9243 13.2513 94.2507 13.024 94.676C12.804 95.1013 12.694 95.5963 12.694 96.161C12.694 96.7257 12.804 97.2207 13.024 97.646C13.2513 98.0713 13.563 98.4013 13.959 98.636C14.355 98.8633 14.806 98.977 15.312 98.977C15.774 98.977 16.181 98.878 16.533 98.68C16.885 98.482 17.16 98.1813 17.358 97.778H18.865C18.579 98.5113 18.117 99.076 17.479 99.472C16.8483 99.868 16.126 100.066 15.312 100.066C14.5933 100.066 13.937 99.901 13.343 99.571C12.749 99.2337 12.276 98.768 11.924 98.174C11.5793 97.58 11.407 96.909 11.407 96.161ZM19.9148 96.942C19.9148 96.3333 20.0395 95.7943 20.2888 95.325C20.5455 94.8557 20.8901 94.4927 21.3228 94.236C21.7628 93.972 22.2468 93.84 22.7748 93.84C23.2515 93.84 23.6658 93.9353 24.0178 94.126C24.3771 94.3093 24.6631 94.5403 24.8758 94.819V93.939H26.1408V100H24.8758V99.098C24.6631 99.384 24.3735 99.6223 24.0068 99.813C23.6401 100.004 23.2221 100.099 22.7528 100.099C22.2321 100.099 21.7555 99.967 21.3228 99.703C20.8901 99.4317 20.5455 99.0577 20.2888 98.581C20.0395 98.097 19.9148 97.5507 19.9148 96.942ZM24.8758 96.964C24.8758 96.546 24.7878 96.183 24.6118 95.875C24.4431 95.567 24.2195 95.3323 23.9408 95.171C23.6621 95.0097 23.3615 94.929 23.0388 94.929C22.7161 94.929 22.4155 95.0097 22.1368 95.171C21.8581 95.325 21.6308 95.556 21.4548 95.864C21.2861 96.1647 21.2018 96.524 21.2018 96.942C21.2018 97.36 21.2861 97.7267 21.4548 98.042C21.6308 98.3573 21.8581 98.5993 22.1368 98.768C22.4228 98.9293 22.7235 99.01 23.0388 99.01C23.3615 99.01 23.6621 98.9293 23.9408 98.768C24.2195 98.6067 24.4431 98.372 24.6118 98.064C24.7878 97.7487 24.8758 97.382 24.8758 96.964ZM29.0419 91.86V100H27.7879V91.86H29.0419ZM30.2703 96.964C30.2703 96.3407 30.3949 95.7943 30.6443 95.325C30.9009 94.8483 31.2529 94.4817 31.7003 94.225C32.1476 93.9683 32.6609 93.84 33.2403 93.84C33.9736 93.84 34.5786 94.016 35.0553 94.368C35.5393 94.7127 35.8656 95.2077 36.0343 95.853H34.6813C34.5713 95.5523 34.3953 95.3177 34.1533 95.149C33.9113 94.9803 33.6069 94.896 33.2403 94.896C32.7269 94.896 32.3163 95.0793 32.0083 95.446C31.7076 95.8053 31.5573 96.3113 31.5573 96.964C31.5573 97.6167 31.7076 98.1263 32.0083 98.493C32.3163 98.8597 32.7269 99.043 33.2403 99.043C33.9663 99.043 34.4466 98.724 34.6813 98.086H36.0343C35.8583 98.702 35.5283 99.1933 35.0443 99.56C34.5603 99.9193 33.9589 100.099 33.2403 100.099C32.6609 100.099 32.1476 99.9707 31.7003 99.714C31.2529 99.45 30.9009 99.0833 30.6443 98.614C30.3949 98.1373 30.2703 97.5873 30.2703 96.964ZM42.773 93.939V100H41.519V99.285C41.321 99.5343 41.0607 99.7323 40.738 99.879C40.4227 100.018 40.0853 100.088 39.726 100.088C39.2493 100.088 38.8203 99.989 38.439 99.791C38.065 99.593 37.768 99.2997 37.548 98.911C37.3353 98.5223 37.229 98.053 37.229 97.503V93.939H38.472V97.316C38.472 97.8587 38.6077 98.2767 38.879 98.57C39.1503 98.856 39.5207 98.999 39.99 98.999C40.4593 98.999 40.8297 98.856 41.101 98.57C41.3797 98.2767 41.519 97.8587 41.519 97.316V93.939H42.773ZM45.6815 91.86V100H44.4275V91.86H45.6815ZM46.9099 96.942C46.9099 96.3333 47.0346 95.7943 47.2839 95.325C47.5406 94.8557 47.8853 94.4927 48.3179 94.236C48.7579 93.972 49.2419 93.84 49.7699 93.84C50.2466 93.84 50.6609 93.9353 51.0129 94.126C51.3723 94.3093 51.6583 94.5403 51.8709 94.819V93.939H53.1359V100H51.8709V99.098C51.6583 99.384 51.3686 99.6223 51.0019 99.813C50.6353 100.004 50.2173 100.099 49.7479 100.099C49.2273 100.099 48.7506 99.967 48.3179 99.703C47.8853 99.4317 47.5406 99.0577 47.2839 98.581C47.0346 98.097 46.9099 97.5507 46.9099 96.942ZM51.8709 96.964C51.8709 96.546 51.7829 96.183 51.6069 95.875C51.4383 95.567 51.2146 95.3323 50.9359 95.171C50.6573 95.0097 50.3566 94.929 50.0339 94.929C49.7113 94.929 49.4106 95.0097 49.1319 95.171C48.8533 95.325 48.6259 95.556 48.4499 95.864C48.2813 96.1647 48.1969 96.524 48.1969 96.942C48.1969 97.36 48.2813 97.7267 48.4499 98.042C48.6259 98.3573 48.8533 98.5993 49.1319 98.768C49.4179 98.9293 49.7186 99.01 50.0339 99.01C50.3566 99.01 50.6573 98.9293 50.9359 98.768C51.2146 98.6067 51.4383 98.372 51.6069 98.064C51.7829 97.7487 51.8709 97.382 51.8709 96.964ZM56.246 94.962V98.317C56.246 98.5443 56.2973 98.7093 56.4 98.812C56.51 98.9073 56.6933 98.955 56.95 98.955H57.72V100H56.73C56.1653 100 55.7327 99.868 55.432 99.604C55.1313 99.34 54.981 98.911 54.981 98.317V94.962H54.266V93.939H54.981V92.432H56.246V93.939H57.72V94.962H56.246ZM61.5048 100.099C60.9328 100.099 60.4158 99.9707 59.9538 99.714C59.4918 99.45 59.1288 99.0833 58.8648 98.614C58.6008 98.1373 58.4688 97.5873 58.4688 96.964C58.4688 96.348 58.6044 95.8017 58.8758 95.325C59.1471 94.8483 59.5174 94.4817 59.9868 94.225C60.4561 93.9683 60.9804 93.84 61.5598 93.84C62.1391 93.84 62.6634 93.9683 63.1328 94.225C63.6021 94.4817 63.9724 94.8483 64.2438 95.325C64.5151 95.8017 64.6508 96.348 64.6508 96.964C64.6508 97.58 64.5114 98.1263 64.2328 98.603C63.9541 99.0797 63.5728 99.45 63.0888 99.714C62.6121 99.9707 62.0841 100.099 61.5048 100.099ZM61.5048 99.01C61.8274 99.01 62.1281 98.933 62.4068 98.779C62.6928 98.625 62.9238 98.394 63.0998 98.086C63.2758 97.778 63.3638 97.404 63.3638 96.964C63.3638 96.524 63.2794 96.1537 63.1108 95.853C62.9421 95.545 62.7184 95.314 62.4398 95.16C62.1611 95.006 61.8604 94.929 61.5378 94.929C61.2151 94.929 60.9144 95.006 60.6358 95.16C60.3644 95.314 60.1481 95.545 59.9868 95.853C59.8254 96.1537 59.7448 96.524 59.7448 96.964C59.7448 97.6167 59.9098 98.1227 60.2398 98.482C60.5771 98.834 60.9988 99.01 61.5048 99.01ZM67.1444 94.819C67.3278 94.511 67.5698 94.2727 67.8704 94.104C68.1784 93.928 68.5414 93.84 68.9594 93.84V95.138H68.6404C68.1491 95.138 67.7751 95.2627 67.5184 95.512C67.2691 95.7613 67.1444 96.194 67.1444 96.81V100H65.8904V93.939H67.1444V94.819Z"></path>
<path fill="#819098" d="M1 11C1 5.47715 5.47715 1 11 1H111C116.523 1 121 5.47715 121 11V81H1V11Z"></path>
<path fill-opacity="0.5" fill="white" d="M1 11C1 5.47715 5.47715 1 11 1H111C116.523 1 121 5.47715 121 11V81H1V11Z"></path>
<rect fill="url(#paint0_linear_936_396)" rx="3.2" height="38.4" width="28.8" y="21.8003" x="46.5996"></rect>
<rect fill="#CAD2D9" rx="0.8" height="6.4" width="6.4" y="34.6001" x="49.7998"></rect>
<rect fill="#CAD2D9" rx="0.8" height="6.4" width="6.4" y="42.6001" x="49.7998"></rect>
<rect fill="#CAD2D9" rx="0.8" height="6.4" width="6.4" y="50.6001" x="49.7998"></rect>
<rect fill="#CAD2D9" rx="0.8" height="6.4" width="6.4" y="50.6001" x="57.7998"></rect>
<rect fill="#CAD2D9" rx="0.8" height="6.4" width="6.4" y="42.6001" x="57.7998"></rect>
<rect fill="#CAD2D9" rx="0.8" height="6.4" width="6.4" y="34.6001" x="57.7998"></rect>
<rect fill="#CAD2D9" rx="0.8" height="6.4" width="6.4" y="34.6001" x="65.7998"></rect>
<rect fill="url(#paint1_linear_936_396)" rx="0.8" height="14.4" width="6.4" y="42.6001" x="65.7998"></rect>
<rect fill="#6A6A6A" rx="0.8" height="6.4" width="22.4" y="26.6001" x="49.7998"></rect>
<rect fill="url(#paint2_linear_936_396)" rx="0.8" height="6.4" width="22.4" y="25.0005" x="49.7998"></rect>
<path fill-opacity="0.05" fill="black" d="M61 116C61 113.239 63.2386 111 66 111H106C108.761 111 111 113.239 111 116V126C111 128.761 108.761 131 106 131H66C63.2386 131 61 128.761 61 126V116Z"></path>
<path fill="black" d="M81.2087 122.722H78.5897L78.1397 124H77.0687L79.3097 117.736H80.4977L82.7387 124H81.6587L81.2087 122.722ZM80.9207 121.885L79.9037 118.978L78.8777 121.885H80.9207ZM84.7391 119.77C84.9131 119.542 85.1501 119.35 85.4501 119.194C85.7501 119.038 86.0891 118.96 86.4671 118.96C86.8991 118.96 87.2921 119.068 87.6461 119.284C88.0061 119.494 88.2881 119.791 88.4921 120.175C88.6961 120.559 88.7981 121 88.7981 121.498C88.7981 121.996 88.6961 122.443 88.4921 122.839C88.2881 123.229 88.0061 123.535 87.6461 123.757C87.2921 123.973 86.8991 124.081 86.4671 124.081C86.0891 124.081 85.7531 124.006 85.4591 123.856C85.1651 123.7 84.9251 123.508 84.7391 123.28V126.358H83.7131V119.041H84.7391V119.77ZM87.7541 121.498C87.7541 121.156 87.6821 120.862 87.5381 120.616C87.4001 120.364 87.2141 120.175 86.9801 120.049C86.7521 119.917 86.5061 119.851 86.2421 119.851C85.9841 119.851 85.7381 119.917 85.5041 120.049C85.2761 120.181 85.0901 120.373 84.9461 120.625C84.8081 120.877 84.7391 121.174 84.7391 121.516C84.7391 121.858 84.8081 122.158 84.9461 122.416C85.0901 122.668 85.2761 122.86 85.5041 122.992C85.7381 123.124 85.9841 123.19 86.2421 123.19C86.5061 123.19 86.7521 123.124 86.9801 122.992C87.2141 122.854 87.4001 122.656 87.5381 122.398C87.6821 122.14 87.7541 121.84 87.7541 121.498ZM90.8387 119.77C91.0127 119.542 91.2497 119.35 91.5497 119.194C91.8497 119.038 92.1887 118.96 92.5667 118.96C92.9987 118.96 93.3917 119.068 93.7457 119.284C94.1057 119.494 94.3877 119.791 94.5917 120.175C94.7957 120.559 94.8977 121 94.8977 121.498C94.8977 121.996 94.7957 122.443 94.5917 122.839C94.3877 123.229 94.1057 123.535 93.7457 123.757C93.3917 123.973 92.9987 124.081 92.5667 124.081C92.1887 124.081 91.8527 124.006 91.5587 123.856C91.2647 123.7 91.0247 123.508 90.8387 123.28V126.358H89.8127V119.041H90.8387V119.77ZM93.8537 121.498C93.8537 121.156 93.7817 120.862 93.6377 120.616C93.4997 120.364 93.3137 120.175 93.0797 120.049C92.8517 119.917 92.6057 119.851 92.3417 119.851C92.0837 119.851 91.8377 119.917 91.6037 120.049C91.3757 120.181 91.1897 120.373 91.0457 120.625C90.9077 120.877 90.8387 121.174 90.8387 121.516C90.8387 121.858 90.9077 122.158 91.0457 122.416C91.1897 122.668 91.3757 122.86 91.6037 122.992C91.8377 123.124 92.0837 123.19 92.3417 123.19C92.6057 123.19 92.8517 123.124 93.0797 122.992C93.3137 122.854 93.4997 122.656 93.6377 122.398C93.7817 122.14 93.8537 121.84 93.8537 121.498Z"></path>
<defs>
<linearGradient gradientUnits="userSpaceOnUse" y2="60.2003" x2="70.5996" y1="21.8003" x1="51.3996" id="paint0_linear_936_396">
<stop stop-color="#8A9198"></stop>
<stop stop-color="#65717C" offset="1"></stop>
</linearGradient>
<linearGradient gradientUnits="userSpaceOnUse" y2="57.0001" x2="72.1998" y1="42.6001" x1="65.7998" id="paint1_linear_936_396">
<stop stop-color="#174D8B"></stop>
<stop stop-color="#1B4077" offset="1"></stop>
</linearGradient>
<linearGradient gradientUnits="userSpaceOnUse" y2="32.6404" x2="50.231" y1="25.0005" x1="49.7998" id="paint2_linear_936_396">
<stop stop-color="#50E6FF"></stop>
<stop stop-color="#31BCEF" offset="1"></stop>
</linearGradient>
</defs>
</svg>
