<svg xmlns="http://www.w3.org/2000/svg" fill="none" viewBox="0 0 480 360" height="360" width="480">
<g clip-path="url(#clip0_706_2)">
<path fill="black" d="M52 260C52 253.373 46.6274 248 40 248C33.3726 248 28 253.373 28 260C28 266.627 33.3726 272 40 272C46.6274 272 52 266.627 52 260Z"></path>
<path fill="url(#paint0_linear_706_2)" d="M35.2 256.64C35.2 255.845 35.8447 255.2 36.64 255.2H39.76V259.76H35.2V256.64Z"></path>
<path fill="url(#paint1_linear_706_2)" d="M35.2 260.24H39.76V264.8H36.64C35.8447 264.8 35.2 264.155 35.2 263.36V260.24Z"></path>
<path fill="url(#paint2_linear_706_2)" d="M40.24 260.24H44.8V263.36C44.8 264.155 44.1553 264.8 43.36 264.8H40.24V260.24Z"></path>
<path fill="url(#paint3_linear_706_2)" d="M40.24 255.2H43.36C44.1553 255.2 44.8 255.845 44.8 256.64V259.76H40.24V255.2Z"></path>
</g>
<defs>
<linearGradient gradientUnits="userSpaceOnUse" y2="266.72" x2="40" y1="253.28" x1="40" id="paint0_linear_706_2">
<stop stop-color="#1493DF"></stop>
<stop stop-color="#0179D5" offset="1"></stop>
</linearGradient>
<linearGradient gradientUnits="userSpaceOnUse" y2="266.72" x2="40" y1="253.28" x1="40" id="paint1_linear_706_2">
<stop stop-color="#1493DF"></stop>
<stop stop-color="#0179D5" offset="1"></stop>
</linearGradient>
<linearGradient gradientUnits="userSpaceOnUse" y2="266.72" x2="40" y1="253.28" x1="40" id="paint2_linear_706_2">
<stop stop-color="#1493DF"></stop>
<stop stop-color="#0179D5" offset="1"></stop>
</linearGradient>
<linearGradient gradientUnits="userSpaceOnUse" y2="266.72" x2="40" y1="253.28" x1="40" id="paint3_linear_706_2">
<stop stop-color="#1493DF"></stop>
<stop stop-color="#0179D5" offset="1"></stop>
</linearGradient>
<clipPath id="clip0_706_2">
<rect transform="translate(28 248)" fill="white" height="24" width="24"></rect>
</clipPath>
</defs>
</svg>
