<svg xmlns="http://www.w3.org/2000/svg" fill="none" viewBox="0 0 44 24" height="24" width="44">
<path fill-opacity="0.5" fill="#FF0000" d="M2 12C2 6.47715 6.47715 2 12 2H32C37.5228 2 42 6.47715 42 12V12C42 17.5228 37.5228 22 32 22H12C6.47715 22 2 17.5228 2 12V12Z"></path>
<path stroke-width="2" stroke-opacity="0.2" stroke="#FF0000" d="M32 1H12C5.92487 1 1 5.92487 1 12C1 18.0751 5.92487 23 12 23H32C38.0751 23 43 18.0751 43 12C43 5.92487 38.0751 1 32 1Z"></path>
<path fill="white" d="M14.8235 14.176V13.144L18.8555 7.36H20.5115V12.988H21.6275V14.176H20.5115V16H19.1675V14.176H14.8235ZM19.2275 8.752L16.3955 12.988H19.2275V8.752ZM22.761 11.512C22.761 10.128 22.993 9.048 23.457 8.272C23.929 7.488 24.737 7.096 25.881 7.096C27.025 7.096 27.829 7.488 28.293 8.272C28.765 9.048 29.001 10.128 29.001 11.512C29.001 12.912 28.765 14.008 28.293 14.8C27.829 15.584 27.025 15.976 25.881 15.976C24.737 15.976 23.929 15.584 23.457 14.8C22.993 14.008 22.761 12.912 22.761 11.512ZM27.657 11.512C27.657 10.864 27.613 10.316 27.525 9.868C27.445 9.42 27.277 9.056 27.021 8.776C26.765 8.488 26.385 8.344 25.881 8.344C25.377 8.344 24.997 8.488 24.741 8.776C24.485 9.056 24.313 9.42 24.225 9.868C24.145 10.316 24.105 10.864 24.105 11.512C24.105 12.184 24.145 12.748 24.225 13.204C24.305 13.66 24.473 14.028 24.729 14.308C24.993 14.588 25.377 14.728 25.881 14.728C26.385 14.728 26.765 14.588 27.021 14.308C27.285 14.028 27.457 13.66 27.537 13.204C27.617 12.748 27.657 12.184 27.657 11.512Z"></path>
</svg>
