<svg xmlns="http://www.w3.org/2000/svg" fill="none" viewBox="0 0 480 360" height="360" width="480">
<rect fill="#4CC2FF" rx="8" height="16" width="16" y="27" x="437"></rect>
<path fill="black" d="M445.631 31.355L445.488 36.69H444.443L444.3 31.355H445.631ZM445.004 39.077C444.777 39.077 444.586 39 444.432 38.846C444.278 38.692 444.201 38.5013 444.201 38.274C444.201 38.0467 444.278 37.856 444.432 37.702C444.586 37.548 444.777 37.471 445.004 37.471C445.224 37.471 445.411 37.548 445.565 37.702C445.719 37.856 445.796 38.0467 445.796 38.274C445.796 38.5013 445.719 38.692 445.565 38.846C445.411 39 445.224 39.077 445.004 39.077Z"></path>
<path fill="white" d="M377 30C377 28.8954 377.895 28 379 28H387V29H379C378.448 29 378 29.4477 378 30V38C378 38.5523 378.448 39 379 39H389V40H383V42H382V40H379C377.895 40 377 39.1046 377 38V30Z"></path>
<path fill="white" d="M380 42H387V40H388V42H389V43H380V42Z"></path>
<path fill="white" d="M390 34V34C388.895 34 388 33.1046 388 32V30H389V32C389 32.5523 389.448 33 390 33H391C391.552 33 392 32.5523 392 32V29C392 28.4477 391.552 28 391 28V28V27V27C392.105 27 393 27.8954 393 29V32C393 33.1046 392.105 34 391 34V34V43H390V34Z"></path>
<path fill="white" d="M392 30H388V29C388 27.8954 388.895 27 390 27H391V28H390C389.448 28 389 28.4477 389 29V29H392V30Z"></path>
<path fill="white" d="M407 34C407 32.8954 407.895 32 409 32H410L412.793 29.2071C412.926 29.0745 413.105 29 413.293 29V29C413.683 29 414 29.3166 414 29.7071V40.2929C414 40.6834 413.683 41 413.293 41V41C413.105 41 412.926 40.9255 412.793 40.7929L410 38L411 37L413 39V31L411 33H409C408.448 33 408 33.4477 408 34V36C408 36.5523 408.448 37 409 37H411L410 38H409C407.895 38 407 37.1046 407 36V34Z"></path>
<path fill="white" d="M419.718 41.7175C419.913 41.9128 420.23 41.9136 420.416 41.7088C422.075 39.8748 423 37.4851 423 35C423 32.5149 422.075 30.1252 420.416 28.2912C420.23 28.0864 419.913 28.0872 419.718 28.2825V28.2825C419.522 28.4777 419.523 28.7935 419.708 28.9993C421.18 30.6449 422 32.7802 422 35C422 37.2198 421.18 39.3551 419.708 41.0007C419.523 41.2065 419.522 41.5223 419.718 41.7175V41.7175Z"></path>
<path fill="white" d="M417.595 39.5951C417.791 39.791 418.11 39.7921 418.291 39.5827C419.39 38.3146 420 36.6887 420 35C420 33.3113 419.39 31.6854 418.291 30.4173C418.11 30.2079 417.791 30.209 417.595 30.4049V30.4049C417.399 30.6008 417.401 30.9171 417.58 31.1286C418.491 32.2069 418.997 33.5774 418.997 35C418.997 36.4226 418.491 37.7931 417.58 38.8714C417.401 39.0829 417.399 39.3992 417.595 39.5951V39.5951Z"></path>
<path fill="white" d="M415.475 37.4749C415.67 37.6701 415.99 37.6718 416.159 37.4537C416.701 36.7557 417 35.8932 417 35C417 34.1068 416.701 33.2443 416.159 32.5463C415.99 32.3282 415.67 32.3299 415.475 32.5251V32.5251C415.28 32.7204 415.284 33.0351 415.444 33.26C415.803 33.7647 416 34.3722 416 35C416 35.6278 415.803 36.2353 415.444 36.74C415.284 36.9649 415.28 37.2796 415.475 37.4749V37.4749Z"></path>
</svg>
