<svg xmlns="http://www.w3.org/2000/svg" fill="none" viewBox="0 0 480 360" height="360" width="480">
<rect fill="#FF0040" height="360" width="480"></rect>
<path fill="url(#paint0_linear_503_2)" d="M0 0H480V360H0L147.5 203C160.479 203 171 192.479 171 179.5V174.5H179V197C179 200.314 181.686 203 185 203C188.314 203 191 200.314 191 197V174.5L199 179.5C199 192.479 209.521 203 222.5 203C235.479 203 246 192.479 246 179.5H254V197C254 200.314 256.686 203 260 203C263.314 203 266 200.314 266 197V169.5C266 163.149 271.149 158 277.5 158C283.851 158 289 163.149 289 169.5V170V176.5L288.767 176.373C285.311 174.488 281.437 173.5 277.5 173.5C274.186 173.5 271.5 176.186 271.5 179.5C271.5 182.814 274.186 185.5 277.5 185.5C283.851 185.5 289 190.649 289 197C289 200.314 291.686 203 295 203C298.314 203 301 200.314 301 197V174.5L309 179.5C309 192.479 319.521 203 332.5 203C345.479 203 356 192.479 356 179.5V162C356 158.686 353.314 156 350 156C346.686 156 344 158.686 344 162V179.5C344 185.851 338.851 191 332.5 191C326.149 191 321 185.851 321 179.5V162C321 158.686 318.314 156 315 156C311.686 156 309 158.686 309 162V179.5L301 174.5V169.5C301 156.521 290.479 146 277.5 146C264.521 146 254 156.521 254 169.5V179.5H246C246 166.521 235.479 156 222.5 156V168C228.851 168 234 173.149 234 179.5C234 185.851 228.851 191 222.5 191C216.149 191 211 185.851 211 179.5C211 173.149 216.149 168 222.5 168V156C209.521 156 199 166.521 199 179.5L191 174.5V152C191 148.686 188.314 146 185 146C181.686 146 179 148.686 179 152V174.5H171V152C171 148.686 168.314 146 165 146C161.686 146 159 148.686 159 152V179.5C159 185.851 153.851 191 147.5 191C141.149 191 136 185.741 136 179.389C136 176.168 133.388 173.5 130.167 173.5H129.71C126.556 173.5 124 176.113 124 179.266C124 192.245 134.521 203 147.5 203L0 360V0Z"></path>
<defs>
<linearGradient gradientUnits="userSpaceOnUse" y2="360" x2="480" y1="0" x1="0" id="paint0_linear_503_2">
<stop stop-color="#330000"></stop>
<stop stop-color="#33001A" offset="1"></stop>
</linearGradient>
</defs>
</svg>
