<svg xmlns="http://www.w3.org/2000/svg" fill="none" viewBox="0 0 30 30" height="30" width="30">
<rect fill="#797774" rx="2" height="12" width="16" y="9" x="7"></rect>
<path fill="#FAFAFA" d="M8 12C8 11.4477 8.44772 11 9 11H21C21.5523 11 22 11.4477 22 12V19C22 19.5523 21.5523 20 21 20H9C8.44772 20 8 19.5523 8 19V12Z"></path>
<path fill="#797774" d="M9 12.5C9 12.2239 9.22386 12 9.5 12H10.5C10.7761 12 11 12.2239 11 12.5C11 12.7761 10.7761 13 10.5 13H9.5C9.22386 13 9 12.7761 9 12.5Z"></path>
<path fill="#797774" d="M9 14.5C9 14.2239 9.22386 14 9.5 14H10.5C10.7761 14 11 14.2239 11 14.5C11 14.7761 10.7761 15 10.5 15H9.5C9.22386 15 9 14.7761 9 14.5Z"></path>
<path fill="#797774" d="M9 16.5C9 16.2239 9.22386 16 9.5 16H10.5C10.7761 16 11 16.2239 11 16.5C11 16.7761 10.7761 17 10.5 17H9.5C9.22386 17 9 16.7761 9 16.5Z"></path>
<path fill="#797774" d="M9 18.5C9 18.2239 9.22386 18 9.5 18H10.5C10.7761 18 11 18.2239 11 18.5C11 18.7761 10.7761 19 10.5 19H9.5C9.22386 19 9 18.7761 9 18.5Z"></path>
<path fill="#797774" d="M19 12.5C19 12.2239 19.2239 12 19.5 12H20.5C20.7761 12 21 12.2239 21 12.5C21 12.7761 20.7761 13 20.5 13H19.5C19.2239 13 19 12.7761 19 12.5Z"></path>
<path fill="#797774" d="M19 14.5C19 14.2239 19.2239 14 19.5 14H20.5C20.7761 14 21 14.2239 21 14.5C21 14.7761 20.7761 15 20.5 15H19.5C19.2239 15 19 14.7761 19 14.5Z"></path>
<path fill="#C4C4C4" d="M20 10.5C20 10.2239 20.2239 10 20.5 10C20.7761 10 21 10.2239 21 10.5C21 10.7761 20.7761 11 20.5 11C20.2239 11 20 10.7761 20 10.5Z"></path>
<path fill="#C4C4C4" d="M18 10.5C18 10.2239 18.2239 10 18.5 10C18.7761 10 19 10.2239 19 10.5C19 10.7761 18.7761 11 18.5 11C18.2239 11 18 10.7761 18 10.5Z"></path>
<path fill="url(#paint0_linear_639_480)" d="M12 13C12 12.4477 12.4477 12 13 12H17C17.5523 12 18 12.4477 18 13V18C18 18.5523 17.5523 19 17 19H13C12.4477 19 12 18.5523 12 18V13Z"></path>
<defs>
<linearGradient gradientUnits="userSpaceOnUse" y2="19" x2="16.5" y1="12" x1="16.5" id="paint0_linear_639_480">
<stop stop-color="#118BD8"></stop>
<stop stop-color="#066ABD" offset="1"></stop>
</linearGradient>
</defs>
</svg>
