<svg xmlns="http://www.w3.org/2000/svg" fill="none" viewBox="0 0 480 360" height="360" width="480">
<rect fill-opacity="0.05" fill="white" rx="5" height="36" width="76" y="50" x="146"></rect>
<path fill="white" d="M184.344 72.077C183.831 72.077 183.369 71.989 182.958 71.813C182.547 71.6297 182.225 71.373 181.99 71.043C181.755 70.713 181.638 70.328 181.638 69.888H182.98C183.009 70.218 183.138 70.4893 183.365 70.702C183.6 70.9147 183.926 71.021 184.344 71.021C184.777 71.021 185.114 70.9183 185.356 70.713C185.598 70.5003 185.719 70.229 185.719 69.899C185.719 69.6423 185.642 69.4333 185.488 69.272C185.341 69.1107 185.154 68.986 184.927 68.898C184.707 68.81 184.399 68.7147 184.003 68.612C183.504 68.48 183.097 68.348 182.782 68.216C182.474 68.0767 182.21 67.864 181.99 67.578C181.77 67.292 181.66 66.9107 181.66 66.434C181.66 65.994 181.77 65.609 181.99 65.279C182.21 64.949 182.518 64.696 182.914 64.52C183.31 64.344 183.768 64.256 184.289 64.256C185.03 64.256 185.635 64.443 186.104 64.817C186.581 65.1837 186.845 65.6897 186.896 66.335H185.51C185.488 66.0563 185.356 65.818 185.114 65.62C184.872 65.422 184.553 65.323 184.157 65.323C183.798 65.323 183.504 65.4147 183.277 65.598C183.05 65.7813 182.936 66.0453 182.936 66.39C182.936 66.6247 183.006 66.819 183.145 66.973C183.292 67.1197 183.475 67.237 183.695 67.325C183.915 67.413 184.216 67.5083 184.597 67.611C185.103 67.7503 185.514 67.8897 185.829 68.029C186.152 68.1683 186.423 68.3847 186.643 68.678C186.87 68.964 186.984 69.349 186.984 69.833C186.984 70.2217 186.878 70.5883 186.665 70.933C186.46 71.2777 186.155 71.5563 185.752 71.769C185.356 71.9743 184.887 72.077 184.344 72.077ZM188.046 68.942C188.046 68.3333 188.17 67.7943 188.42 67.325C188.676 66.8557 189.021 66.4927 189.454 66.236C189.894 65.972 190.378 65.84 190.906 65.84C191.382 65.84 191.797 65.9353 192.149 66.126C192.508 66.3093 192.794 66.5403 193.007 66.819V65.939H194.272V72H193.007V71.098C192.794 71.384 192.504 71.6223 192.138 71.813C191.771 72.0037 191.353 72.099 190.884 72.099C190.363 72.099 189.886 71.967 189.454 71.703C189.021 71.4317 188.676 71.0577 188.42 70.581C188.17 70.097 188.046 69.5507 188.046 68.942ZM193.007 68.964C193.007 68.546 192.919 68.183 192.743 67.875C192.574 67.567 192.35 67.3323 192.072 67.171C191.793 67.0097 191.492 66.929 191.17 66.929C190.847 66.929 190.546 67.0097 190.268 67.171C189.989 67.325 189.762 67.556 189.586 67.864C189.417 68.1647 189.333 68.524 189.333 68.942C189.333 69.36 189.417 69.7267 189.586 70.042C189.762 70.3573 189.989 70.5993 190.268 70.768C190.554 70.9293 190.854 71.01 191.17 71.01C191.492 71.01 191.793 70.9293 192.072 70.768C192.35 70.6067 192.574 70.372 192.743 70.064C192.919 69.7487 193.007 69.382 193.007 68.964ZM198.262 70.878L199.978 65.939H201.309L198.999 72H197.503L195.204 65.939H196.546L198.262 70.878ZM207.812 68.821C207.812 69.0483 207.797 69.2537 207.768 69.437H203.137C203.173 69.921 203.353 70.3097 203.676 70.603C203.998 70.8963 204.394 71.043 204.864 71.043C205.538 71.043 206.015 70.7607 206.294 70.196H207.647C207.463 70.7533 207.13 71.2117 206.646 71.571C206.169 71.923 205.575 72.099 204.864 72.099C204.284 72.099 203.764 71.9707 203.302 71.714C202.847 71.45 202.488 71.0833 202.224 70.614C201.967 70.1373 201.839 69.5873 201.839 68.964C201.839 68.3407 201.963 67.7943 202.213 67.325C202.469 66.8483 202.825 66.4817 203.28 66.225C203.742 65.9683 204.27 65.84 204.864 65.84C205.436 65.84 205.945 65.9647 206.393 66.214C206.84 66.4633 207.188 66.8153 207.438 67.27C207.687 67.7173 207.812 68.2343 207.812 68.821ZM206.503 68.425C206.495 67.963 206.33 67.5927 206.008 67.314C205.685 67.0353 205.285 66.896 204.809 66.896C204.376 66.896 204.006 67.0353 203.698 67.314C203.39 67.5853 203.206 67.9557 203.148 68.425H206.503Z"></path>
<path stroke-linecap="round" stroke="#4CC2FF" d="M171.5 70.5L164.5 70.5M164.5 70.5L167.5 73.5M164.5 70.5L167.5 67.5"></path>
<path stroke-linejoin="round" stroke-linecap="round" stroke="#CCCCCC" d="M159.5 75.5H159C157.619 75.5 156.5 74.3807 156.5 73V63C156.5 61.6193 157.619 60.5 159 60.5H159.5M159.5 75.5H168.5H169C170.381 75.5 171.5 74.3807 171.5 73V72.5M159.5 75.5V70.5C159.5 69.9477 159.948 69.5 160.5 69.5H163M159.5 60.5H167.5M159.5 60.5V64.5C159.5 65.0523 159.948 65.5 160.5 65.5H166.5C167.052 65.5 167.5 65.0523 167.5 64.5V60.5M167.5 60.5V60.5C167.82 60.5 168.127 60.6272 168.354 60.8536L171.146 63.6464C171.373 63.8728 171.5 64.1799 171.5 64.5V64.5V68.5M165.5 63.5V62.5"></path>
</svg>
