<svg xmlns="http://www.w3.org/2000/svg" fill="none" viewBox="0 0 100 100" height="100" width="100">
<g clip-path="url(#clip0_502_169)">
<path fill="#F8AA36" d="M100 50C100 22.3858 77.6142 0 50 0C22.3858 0 0 22.3858 0 50C0 77.6142 22.3858 100 50 100C77.6142 100 100 77.6142 100 50Z"></path>
<path stroke-width="6.012" stroke="white" fill="#F8AA36" d="M50.0063 24.8093C49.8163 24.945 49.6407 25.0817 49.4789 25.2167C48.6403 25.0798 47.5367 24.9576 46.3827 25.0028C41.7963 25.1823 38.03 27.065 35.502 30.5305C33.0596 33.8788 32 38.3889 32 43.5005C32 45.3749 32.2466 46.909 32.5274 48.0478C31.6395 49.0253 30.5 50.7145 30.5 53.0005C30.5 55.1249 30.3833 56.8521 30.2589 58.6953L30.2567 58.7267C30.1315 60.5809 29.9999 62.5449 30 65.0006C30.0001 67.7588 30.7598 70.7026 32.5695 73.0295C34.4518 75.4498 37.3267 77.0005 41 77.0005C43.5642 77.0005 45.7613 75.9234 47.1649 75.0369C47.7428 74.6719 48.2345 74.3083 48.62 74.0005H50C60.3232 74.0005 69 66.4719 69 57.0005C69 53.3902 67.9412 50.6241 66.8413 48.7386C66.5904 48.3086 66.3379 47.925 66.096 47.5877C66.3336 46.8659 66.5001 46.0006 66.5001 44.9999C66.5001 43.2161 66.6051 41.8424 66.7241 40.2857C66.7298 40.2109 66.7356 40.1358 66.7413 40.0601C66.8681 38.3972 66.9999 36.5581 67 34.0006C67.0001 28.5945 62.8997 23.0003 55.9999 23.0005C53.3268 23.0005 51.3496 23.8498 50.0063 24.8093Z"></path>
<path fill="white" d="M47.9431 47.9344C45.6621 47.6393 44.3586 46.1639 45.0103 42.0328V41.4426C45.6621 37.9016 45.9879 37.0164 47.9431 37.0164C48.5948 37.0164 49.2466 37.3115 49.8983 37.9016C50.55 38.4918 51.8534 39.377 52.5052 41.1475C53.1569 42.3279 53.1569 43.2131 53.4828 44.0984V45.2787C53.4828 45.8689 54.1345 46.459 55.1121 46.7541C56.0897 47.0492 57.0672 46.1639 57.3931 45.2787C57.3931 45.2787 58.0448 34.0656 58.0448 33.7705C58.0448 32.8852 57.0672 32 56.0897 32C55.1121 32 54.1345 32.8852 54.1345 33.7705V37.0164C52.5052 35.541 50.55 34.0656 48.269 34.0656C42.0776 33.1803 41.4259 38.1967 41.1 41.1475V41.7377C40.4483 47.3443 42.4034 50.8852 47.2914 51.7705C52.5052 52.6557 56.0897 53.541 56.0897 56.4918C56.0897 57.6721 55.4379 58.8525 54.1345 59.7377C52.831 60.918 50.8759 61.2131 48.9207 60.918C48.269 60.918 47.9431 60.6229 47.2914 60.6229C46.6397 60.3279 44.6845 59.4426 44.0328 58.2623C43.7069 57.082 43.381 55.6066 43.381 54.7213V54.1312C43.381 53.2459 42.4034 52.3607 41.4259 52.3607C40.4483 52.3607 39.4707 53.2459 39.4707 54.1312C39.4707 54.1312 39.4707 57.6721 39.1448 59.7377C38.819 63.2787 39.1448 65.9344 39.1448 66.2295C39.1448 67.1148 40.1224 68 41.1 68C42.0776 68 43.0552 67.1148 43.0552 66.2295V62.9836C44.3586 63.8689 46.3138 64.7541 48.5948 65.0492C51.5276 65.6393 54.4603 64.7541 56.7414 62.9836C58.6966 61.5082 60 59.1475 60 57.082C60 49.7049 51.8534 48.5246 47.9431 47.9344Z"></path>
</g>
<defs>
<clipPath id="clip0_502_169">
<rect fill="white" height="100" width="100"></rect>
</clipPath>
</defs>
</svg>
