<svg xmlns="http://www.w3.org/2000/svg" fill="none" viewBox="0 0 480 130" height="130" width="480">
<path fill-opacity="0.9" fill="#1A1A1A" d="M10 30C10 24.4772 14.4772 20 20 20H460C465.523 20 470 24.4772 470 30V100C470 105.523 465.523 110 460 110H20C14.4772 110 10 105.523 10 100V30Z"></path>
<path stroke-width="2" stroke-opacity="0.2" stroke="white" d="M20 19C13.9249 19 9 23.9249 9 30V100C9 106.075 13.9249 111 20 111H460C466.075 111 471 106.075 471 100V30C471 23.9249 466.075 19 460 19H20Z"></path>
<path fill="white" d="M35.434 51.438H32.233L31.683 53H30.374L33.113 45.344H34.565L37.304 53H35.984L35.434 51.438ZM35.082 50.415L33.839 46.862L32.585 50.415H35.082ZM39.7489 47.819C39.9323 47.511 40.1743 47.2727 40.4749 47.104C40.7829 46.928 41.1459 46.84 41.5639 46.84V48.138H41.2449C40.7536 48.138 40.3796 48.2627 40.1229 48.512C39.8736 48.7613 39.7489 49.194 39.7489 49.81V53H38.4949V46.939H39.7489V47.819ZM48.2716 49.821C48.2716 50.0483 48.2569 50.2537 48.2276 50.437H43.5966C43.6333 50.921 43.8129 51.3097 44.1356 51.603C44.4583 51.8963 44.8543 52.043 45.3236 52.043C45.9983 52.043 46.4749 51.7607 46.7536 51.196H48.1066C47.9233 51.7533 47.5896 52.2117 47.1056 52.571C46.6289 52.923 46.0349 53.099 45.3236 53.099C44.7443 53.099 44.2236 52.9707 43.7616 52.714C43.3069 52.45 42.9476 52.0833 42.6836 51.614C42.4269 51.1373 42.2986 50.5873 42.2986 49.964C42.2986 49.3407 42.4233 48.7943 42.6726 48.325C42.9293 47.8483 43.2849 47.4817 43.7396 47.225C44.2016 46.9683 44.7296 46.84 45.3236 46.84C45.8956 46.84 46.4053 46.9647 46.8526 47.214C47.2999 47.4633 47.6483 47.8153 47.8976 48.27C48.1469 48.7173 48.2716 49.2343 48.2716 49.821ZM46.9626 49.425C46.9553 48.963 46.7903 48.5927 46.4676 48.314C46.1449 48.0353 45.7453 47.896 45.2686 47.896C44.8359 47.896 44.4656 48.0353 44.1576 48.314C43.8496 48.5853 43.6663 48.9557 43.6076 49.425H46.9626ZM57.8191 46.939L54.1011 55.849H52.8031L54.0351 52.901L51.6481 46.939H53.0451L54.7501 51.559L56.5211 46.939H57.8191ZM61.3944 53.099C60.8224 53.099 60.3054 52.9707 59.8434 52.714C59.3814 52.45 59.0184 52.0833 58.7544 51.614C58.4904 51.1373 58.3584 50.5873 58.3584 49.964C58.3584 49.348 58.4941 48.8017 58.7654 48.325C59.0368 47.8483 59.4071 47.4817 59.8764 47.225C60.3458 46.9683 60.8701 46.84 61.4494 46.84C62.0288 46.84 62.5531 46.9683 63.0224 47.225C63.4918 47.4817 63.8621 47.8483 64.1334 48.325C64.4048 48.8017 64.5404 49.348 64.5404 49.964C64.5404 50.58 64.4011 51.1263 64.1224 51.603C63.8438 52.0797 63.4624 52.45 62.9784 52.714C62.5018 52.9707 61.9738 53.099 61.3944 53.099ZM61.3944 52.01C61.7171 52.01 62.0178 51.933 62.2964 51.779C62.5824 51.625 62.8134 51.394 62.9894 51.086C63.1654 50.778 63.2534 50.404 63.2534 49.964C63.2534 49.524 63.1691 49.1537 63.0004 48.853C62.8318 48.545 62.6081 48.314 62.3294 48.16C62.0508 48.006 61.7501 47.929 61.4274 47.929C61.1048 47.929 60.8041 48.006 60.5254 48.16C60.2541 48.314 60.0378 48.545 59.8764 48.853C59.7151 49.1537 59.6344 49.524 59.6344 49.964C59.6344 50.6167 59.7994 51.1227 60.1294 51.482C60.4668 51.834 60.8884 52.01 61.3944 52.01ZM71.2691 46.939V53H70.0151V52.285C69.8171 52.5343 69.5567 52.7323 69.2341 52.879C68.9187 53.0183 68.5814 53.088 68.2221 53.088C67.7454 53.088 67.3164 52.989 66.9351 52.791C66.5611 52.593 66.2641 52.2997 66.0441 51.911C65.8314 51.5223 65.7251 51.053 65.7251 50.503V46.939H66.9681V50.316C66.9681 50.8587 67.1037 51.2767 67.3751 51.57C67.6464 51.856 68.0167 51.999 68.4861 51.999C68.9554 51.999 69.3257 51.856 69.5971 51.57C69.8757 51.2767 70.0151 50.8587 70.0151 50.316V46.939H71.2691ZM77.9811 53.099C77.5044 53.099 77.0754 53.0147 76.6941 52.846C76.3201 52.67 76.0231 52.4353 75.8031 52.142C75.5831 51.8413 75.4657 51.5077 75.4511 51.141H76.7491C76.7711 51.3977 76.8921 51.614 77.1121 51.79C77.3394 51.9587 77.6217 52.043 77.9591 52.043C78.3111 52.043 78.5824 51.977 78.7731 51.845C78.9711 51.7057 79.0701 51.5297 79.0701 51.317C79.0701 51.0897 78.9601 50.921 78.7401 50.811C78.5274 50.701 78.1864 50.58 77.7171 50.448C77.2624 50.3233 76.8921 50.2023 76.6061 50.085C76.3201 49.9677 76.0707 49.788 75.8581 49.546C75.6527 49.304 75.5501 48.985 75.5501 48.589C75.5501 48.2663 75.6454 47.973 75.8361 47.709C76.0267 47.4377 76.2981 47.225 76.6501 47.071C77.0094 46.917 77.4201 46.84 77.8821 46.84C78.5714 46.84 79.1251 47.016 79.5431 47.368C79.9684 47.7127 80.1957 48.1857 80.2251 48.787H78.9711C78.9491 48.5157 78.8391 48.2993 78.6411 48.138C78.4431 47.9767 78.1754 47.896 77.8381 47.896C77.5081 47.896 77.2551 47.9583 77.0791 48.083C76.9031 48.2077 76.8151 48.3727 76.8151 48.578C76.8151 48.7393 76.8737 48.875 76.9911 48.985C77.1084 49.095 77.2514 49.183 77.4201 49.249C77.5887 49.3077 77.8381 49.3847 78.1681 49.48C78.6081 49.5973 78.9674 49.7183 79.2461 49.843C79.5321 49.9603 79.7777 50.1363 79.9831 50.371C80.1884 50.6057 80.2947 50.9173 80.3021 51.306C80.3021 51.6507 80.2067 51.9587 80.0161 52.23C79.8254 52.5013 79.5541 52.714 79.2021 52.868C78.8574 53.022 78.4504 53.099 77.9811 53.099ZM87.146 46.939V53H85.892V52.285C85.694 52.5343 85.4337 52.7323 85.111 52.879C84.7957 53.0183 84.4584 53.088 84.099 53.088C83.6224 53.088 83.1934 52.989 82.812 52.791C82.438 52.593 82.141 52.2997 81.921 51.911C81.7084 51.5223 81.602 51.053 81.602 50.503V46.939H82.845V50.316C82.845 50.8587 82.9807 51.2767 83.252 51.57C83.5234 51.856 83.8937 51.999 84.363 51.999C84.8324 51.999 85.2027 51.856 85.474 51.57C85.7527 51.2767 85.892 50.8587 85.892 50.316V46.939H87.146ZM90.0546 47.819C90.2379 47.511 90.4799 47.2727 90.7806 47.104C91.0886 46.928 91.4516 46.84 91.8696 46.84V48.138H91.5506C91.0593 48.138 90.6853 48.2627 90.4286 48.512C90.1793 48.7613 90.0546 49.194 90.0546 49.81V53H88.8006V46.939H90.0546V47.819ZM98.5773 49.821C98.5773 50.0483 98.5626 50.2537 98.5333 50.437H93.9023C93.9389 50.921 94.1186 51.3097 94.4413 51.603C94.7639 51.8963 95.1599 52.043 95.6293 52.043C96.3039 52.043 96.7806 51.7607 97.0593 51.196H98.4123C98.2289 51.7533 97.8953 52.2117 97.4113 52.571C96.9346 52.923 96.3406 53.099 95.6293 53.099C95.0499 53.099 94.5293 52.9707 94.0673 52.714C93.6126 52.45 93.2533 52.0833 92.9893 51.614C92.7326 51.1373 92.6043 50.5873 92.6043 49.964C92.6043 49.3407 92.7289 48.7943 92.9783 48.325C93.2349 47.8483 93.5906 47.4817 94.0453 47.225C94.5073 46.9683 95.0353 46.84 95.6293 46.84C96.2013 46.84 96.7109 46.9647 97.1583 47.214C97.6056 47.4633 97.9539 47.8153 98.2033 48.27C98.4526 48.7173 98.5773 49.2343 98.5773 49.821ZM97.2683 49.425C97.2609 48.963 97.0959 48.5927 96.7733 48.314C96.4506 48.0353 96.0509 47.896 95.5743 47.896C95.1416 47.896 94.7713 48.0353 94.4633 48.314C94.1553 48.5853 93.9719 48.9557 93.9133 49.425H97.2683ZM108.125 46.939L104.407 55.849H103.109L104.341 52.901L101.954 46.939H103.351L105.056 51.559L106.827 46.939H108.125ZM111.7 53.099C111.128 53.099 110.611 52.9707 110.149 52.714C109.687 52.45 109.324 52.0833 109.06 51.614C108.796 51.1373 108.664 50.5873 108.664 49.964C108.664 49.348 108.8 48.8017 109.071 48.325C109.342 47.8483 109.713 47.4817 110.182 47.225C110.651 46.9683 111.176 46.84 111.755 46.84C112.334 46.84 112.859 46.9683 113.328 47.225C113.797 47.4817 114.168 47.8483 114.439 48.325C114.71 48.8017 114.846 49.348 114.846 49.964C114.846 50.58 114.707 51.1263 114.428 51.603C114.149 52.0797 113.768 52.45 113.284 52.714C112.807 52.9707 112.279 53.099 111.7 53.099ZM111.7 52.01C112.023 52.01 112.323 51.933 112.602 51.779C112.888 51.625 113.119 51.394 113.295 51.086C113.471 50.778 113.559 50.404 113.559 49.964C113.559 49.524 113.475 49.1537 113.306 48.853C113.137 48.545 112.914 48.314 112.635 48.16C112.356 48.006 112.056 47.929 111.733 47.929C111.41 47.929 111.11 48.006 110.831 48.16C110.56 48.314 110.343 48.545 110.182 48.853C110.021 49.1537 109.94 49.524 109.94 49.964C109.94 50.6167 110.105 51.1227 110.435 51.482C110.772 51.834 111.194 52.01 111.7 52.01ZM121.575 46.939V53H120.321V52.285C120.123 52.5343 119.862 52.7323 119.54 52.879C119.224 53.0183 118.887 53.088 118.528 53.088C118.051 53.088 117.622 52.989 117.241 52.791C116.867 52.593 116.57 52.2997 116.35 51.911C116.137 51.5223 116.031 51.053 116.031 50.503V46.939H117.274V50.316C117.274 50.8587 117.409 51.2767 117.681 51.57C117.952 51.856 118.322 51.999 118.792 51.999C119.261 51.999 119.631 51.856 119.903 51.57C120.181 51.2767 120.321 50.8587 120.321 50.316V46.939H121.575ZM134.227 46.939L132.346 53H131.026L129.805 48.523L128.584 53H127.264L125.372 46.939H126.648L127.913 51.812L129.2 46.939H130.509L131.741 51.79L132.995 46.939H134.227ZM134.746 49.942C134.746 49.3333 134.871 48.7943 135.12 48.325C135.377 47.8557 135.721 47.4927 136.154 47.236C136.594 46.972 137.078 46.84 137.606 46.84C138.083 46.84 138.497 46.9353 138.849 47.126C139.208 47.3093 139.494 47.5403 139.707 47.819V46.939H140.972V53H139.707V52.098C139.494 52.384 139.205 52.6223 138.838 52.813C138.471 53.0037 138.053 53.099 137.584 53.099C137.063 53.099 136.587 52.967 136.154 52.703C135.721 52.4317 135.377 52.0577 135.12 51.581C134.871 51.097 134.746 50.5507 134.746 49.942ZM139.707 49.964C139.707 49.546 139.619 49.183 139.443 48.875C139.274 48.567 139.051 48.3323 138.772 48.171C138.493 48.0097 138.193 47.929 137.87 47.929C137.547 47.929 137.247 48.0097 136.968 48.171C136.689 48.325 136.462 48.556 136.286 48.864C136.117 49.1647 136.033 49.524 136.033 49.942C136.033 50.36 136.117 50.7267 136.286 51.042C136.462 51.3573 136.689 51.5993 136.968 51.768C137.254 51.9293 137.555 52.01 137.87 52.01C138.193 52.01 138.493 51.9293 138.772 51.768C139.051 51.6067 139.274 51.372 139.443 51.064C139.619 50.7487 139.707 50.382 139.707 49.964ZM145.677 46.84C146.154 46.84 146.579 46.939 146.953 47.137C147.334 47.335 147.631 47.6283 147.844 48.017C148.057 48.4057 148.163 48.875 148.163 49.425V53H146.92V49.612C146.92 49.0693 146.784 48.655 146.513 48.369C146.242 48.0757 145.871 47.929 145.402 47.929C144.933 47.929 144.559 48.0757 144.28 48.369C144.009 48.655 143.873 49.0693 143.873 49.612V53H142.619V46.939H143.873V47.632C144.078 47.3827 144.339 47.1883 144.654 47.049C144.977 46.9097 145.318 46.84 145.677 46.84ZM151.226 47.962V51.317C151.226 51.5443 151.277 51.7093 151.38 51.812C151.49 51.9073 151.673 51.955 151.93 51.955H152.7V53H151.71C151.145 53 150.712 52.868 150.412 52.604C150.111 52.34 149.961 51.911 149.961 51.317V47.962H149.246V46.939H149.961V45.432H151.226V46.939H152.7V47.962H151.226ZM158.176 47.962V51.317C158.176 51.5443 158.227 51.7093 158.33 51.812C158.44 51.9073 158.623 51.955 158.88 51.955H159.65V53H158.66C158.095 53 157.662 52.868 157.362 52.604C157.061 52.34 156.911 51.911 156.911 51.317V47.962H156.196V46.939H156.911V45.432H158.176V46.939H159.65V47.962H158.176ZM163.434 53.099C162.862 53.099 162.345 52.9707 161.883 52.714C161.421 52.45 161.058 52.0833 160.794 51.614C160.53 51.1373 160.398 50.5873 160.398 49.964C160.398 49.348 160.534 48.8017 160.805 48.325C161.077 47.8483 161.447 47.4817 161.916 47.225C162.386 46.9683 162.91 46.84 163.489 46.84C164.069 46.84 164.593 46.9683 165.062 47.225C165.532 47.4817 165.902 47.8483 166.173 48.325C166.445 48.8017 166.58 49.348 166.58 49.964C166.58 50.58 166.441 51.1263 166.162 51.603C165.884 52.0797 165.502 52.45 165.018 52.714C164.542 52.9707 164.014 53.099 163.434 53.099ZM163.434 52.01C163.757 52.01 164.058 51.933 164.336 51.779C164.622 51.625 164.853 51.394 165.029 51.086C165.205 50.778 165.293 50.404 165.293 49.964C165.293 49.524 165.209 49.1537 165.04 48.853C164.872 48.545 164.648 48.314 164.369 48.16C164.091 48.006 163.79 47.929 163.467 47.929C163.145 47.929 162.844 48.006 162.565 48.16C162.294 48.314 162.078 48.545 161.916 48.853C161.755 49.1537 161.674 49.524 161.674 49.964C161.674 50.6167 161.839 51.1227 162.169 51.482C162.507 51.834 162.928 52.01 163.434 52.01ZM171.316 46.136C171.088 46.136 170.898 46.059 170.744 45.905C170.59 45.751 170.513 45.5603 170.513 45.333C170.513 45.1057 170.59 44.915 170.744 44.761C170.898 44.607 171.088 44.53 171.316 44.53C171.536 44.53 171.723 44.607 171.877 44.761C172.031 44.915 172.108 45.1057 172.108 45.333C172.108 45.5603 172.031 45.751 171.877 45.905C171.723 46.059 171.536 46.136 171.316 46.136ZM171.932 46.939V53H170.678V46.939H171.932ZM180.915 46.84C181.392 46.84 181.817 46.939 182.191 47.137C182.572 47.335 182.869 47.6283 183.082 48.017C183.302 48.4057 183.412 48.875 183.412 49.425V53H182.169V49.612C182.169 49.0693 182.033 48.655 181.762 48.369C181.491 48.0757 181.12 47.929 180.651 47.929C180.182 47.929 179.808 48.0757 179.529 48.369C179.258 48.655 179.122 49.0693 179.122 49.612V53H177.879V49.612C177.879 49.0693 177.743 48.655 177.472 48.369C177.201 48.0757 176.83 47.929 176.361 47.929C175.892 47.929 175.518 48.0757 175.239 48.369C174.968 48.655 174.832 49.0693 174.832 49.612V53H173.578V46.939H174.832V47.632C175.037 47.3827 175.298 47.1883 175.613 47.049C175.928 46.9097 176.266 46.84 176.625 46.84C177.109 46.84 177.542 46.9427 177.923 47.148C178.304 47.3533 178.598 47.6503 178.803 48.039C178.986 47.6723 179.272 47.3827 179.661 47.17C180.05 46.95 180.468 46.84 180.915 46.84ZM186.262 47.83C186.474 47.5513 186.764 47.3167 187.131 47.126C187.497 46.9353 187.912 46.84 188.374 46.84C188.902 46.84 189.382 46.972 189.815 47.236C190.255 47.4927 190.599 47.8557 190.849 48.325C191.098 48.7943 191.223 49.3333 191.223 49.942C191.223 50.5507 191.098 51.097 190.849 51.581C190.599 52.0577 190.255 52.4317 189.815 52.703C189.382 52.967 188.902 53.099 188.374 53.099C187.912 53.099 187.501 53.0073 187.142 52.824C186.782 52.6333 186.489 52.3987 186.262 52.12V55.882H185.008V46.939H186.262V47.83ZM189.947 49.942C189.947 49.524 189.859 49.1647 189.683 48.864C189.514 48.556 189.287 48.325 189.001 48.171C188.722 48.0097 188.421 47.929 188.099 47.929C187.783 47.929 187.483 48.0097 187.197 48.171C186.918 48.3323 186.691 48.567 186.515 48.875C186.346 49.183 186.262 49.546 186.262 49.964C186.262 50.382 186.346 50.7487 186.515 51.064C186.691 51.372 186.918 51.6067 187.197 51.768C187.483 51.9293 187.783 52.01 188.099 52.01C188.421 52.01 188.722 51.9293 189.001 51.768C189.287 51.5993 189.514 51.3573 189.683 51.042C189.859 50.7267 189.947 50.36 189.947 49.942ZM195.092 53.099C194.52 53.099 194.003 52.9707 193.541 52.714C193.079 52.45 192.716 52.0833 192.452 51.614C192.188 51.1373 192.056 50.5873 192.056 49.964C192.056 49.348 192.191 48.8017 192.463 48.325C192.734 47.8483 193.104 47.4817 193.574 47.225C194.043 46.9683 194.567 46.84 195.147 46.84C195.726 46.84 196.25 46.9683 196.72 47.225C197.189 47.4817 197.559 47.8483 197.831 48.325C198.102 48.8017 198.238 49.348 198.238 49.964C198.238 50.58 198.098 51.1263 197.82 51.603C197.541 52.0797 197.16 52.45 196.676 52.714C196.199 52.9707 195.671 53.099 195.092 53.099ZM195.092 52.01C195.414 52.01 195.715 51.933 195.994 51.779C196.28 51.625 196.511 51.394 196.687 51.086C196.863 50.778 196.951 50.404 196.951 49.964C196.951 49.524 196.866 49.1537 196.698 48.853C196.529 48.545 196.305 48.314 196.027 48.16C195.748 48.006 195.447 47.929 195.125 47.929C194.802 47.929 194.501 48.006 194.223 48.16C193.951 48.314 193.735 48.545 193.574 48.853C193.412 49.1537 193.332 49.524 193.332 49.964C193.332 50.6167 193.497 51.1227 193.827 51.482C194.164 51.834 194.586 52.01 195.092 52.01ZM200.731 47.819C200.915 47.511 201.157 47.2727 201.457 47.104C201.765 46.928 202.128 46.84 202.546 46.84V48.138H202.227C201.736 48.138 201.362 48.2627 201.105 48.512C200.856 48.7613 200.731 49.194 200.731 49.81V53H199.477V46.939H200.731V47.819ZM205.162 47.962V51.317C205.162 51.5443 205.213 51.7093 205.316 51.812C205.426 51.9073 205.609 51.955 205.866 51.955H206.636V53H205.646C205.081 53 204.649 52.868 204.348 52.604C204.047 52.34 203.897 51.911 203.897 51.317V47.962H203.182V46.939H203.897V45.432H205.162V46.939H206.636V47.962H205.162ZM212.112 47.962V51.317C212.112 51.5443 212.164 51.7093 212.266 51.812C212.376 51.9073 212.56 51.955 212.816 51.955H213.586V53H212.596C212.032 53 211.599 52.868 211.298 52.604C210.998 52.34 210.847 51.911 210.847 51.317V47.962H210.132V46.939H210.847V45.432H212.112V46.939H213.586V47.962H212.112ZM217.877 46.84C218.339 46.84 218.75 46.939 219.109 47.137C219.476 47.335 219.762 47.6283 219.967 48.017C220.18 48.4057 220.286 48.875 220.286 49.425V53H219.043V49.612C219.043 49.0693 218.907 48.655 218.636 48.369C218.365 48.0757 217.994 47.929 217.525 47.929C217.056 47.929 216.682 48.0757 216.403 48.369C216.132 48.655 215.996 49.0693 215.996 49.612V53H214.742V44.86H215.996V47.643C216.209 47.3863 216.476 47.1883 216.799 47.049C217.129 46.9097 217.488 46.84 217.877 46.84ZM222.524 46.136C222.296 46.136 222.106 46.059 221.952 45.905C221.798 45.751 221.721 45.5603 221.721 45.333C221.721 45.1057 221.798 44.915 221.952 44.761C222.106 44.607 222.296 44.53 222.524 44.53C222.744 44.53 222.931 44.607 223.085 44.761C223.239 44.915 223.316 45.1057 223.316 45.333C223.316 45.5603 223.239 45.751 223.085 45.905C222.931 46.059 222.744 46.136 222.524 46.136ZM223.14 46.939V53H221.886V46.939H223.14ZM226.986 53.099C226.509 53.099 226.08 53.0147 225.699 52.846C225.325 52.67 225.028 52.4353 224.808 52.142C224.588 51.8413 224.471 51.5077 224.456 51.141H225.754C225.776 51.3977 225.897 51.614 226.117 51.79C226.344 51.9587 226.627 52.043 226.964 52.043C227.316 52.043 227.587 51.977 227.778 51.845C227.976 51.7057 228.075 51.5297 228.075 51.317C228.075 51.0897 227.965 50.921 227.745 50.811C227.532 50.701 227.191 50.58 226.722 50.448C226.267 50.3233 225.897 50.2023 225.611 50.085C225.325 49.9677 225.076 49.788 224.863 49.546C224.658 49.304 224.555 48.985 224.555 48.589C224.555 48.2663 224.65 47.973 224.841 47.709C225.032 47.4377 225.303 47.225 225.655 47.071C226.014 46.917 226.425 46.84 226.887 46.84C227.576 46.84 228.13 47.016 228.548 47.368C228.973 47.7127 229.201 48.1857 229.23 48.787H227.976C227.954 48.5157 227.844 48.2993 227.646 48.138C227.448 47.9767 227.18 47.896 226.843 47.896C226.513 47.896 226.26 47.9583 226.084 48.083C225.908 48.2077 225.82 48.3727 225.82 48.578C225.82 48.7393 225.879 48.875 225.996 48.985C226.113 49.095 226.256 49.183 226.425 49.249C226.594 49.3077 226.843 49.3847 227.173 49.48C227.613 49.5973 227.972 49.7183 228.251 49.843C228.537 49.9603 228.783 50.1363 228.988 50.371C229.193 50.6057 229.3 50.9173 229.307 51.306C229.307 51.6507 229.212 51.9587 229.021 52.23C228.83 52.5013 228.559 52.714 228.207 52.868C227.862 53.022 227.455 53.099 226.986 53.099ZM234.773 47.841C234.986 47.5477 235.276 47.3093 235.642 47.126C236.016 46.9353 236.431 46.84 236.885 46.84C237.421 46.84 237.905 46.9683 238.337 47.225C238.77 47.4817 239.111 47.8483 239.36 48.325C239.61 48.7943 239.734 49.3333 239.734 49.942C239.734 50.5507 239.61 51.097 239.36 51.581C239.111 52.0577 238.766 52.4317 238.326 52.703C237.894 52.967 237.413 53.099 236.885 53.099C236.416 53.099 235.998 53.0073 235.631 52.824C235.272 52.6407 234.986 52.406 234.773 52.12V53H233.519V44.86H234.773V47.841ZM238.458 49.942C238.458 49.524 238.37 49.1647 238.194 48.864C238.026 48.556 237.798 48.325 237.512 48.171C237.234 48.0097 236.933 47.929 236.61 47.929C236.295 47.929 235.994 48.0097 235.708 48.171C235.43 48.3323 235.202 48.567 235.026 48.875C234.858 49.183 234.773 49.546 234.773 49.964C234.773 50.382 234.858 50.7487 235.026 51.064C235.202 51.372 235.43 51.6067 235.708 51.768C235.994 51.9293 236.295 52.01 236.61 52.01C236.933 52.01 237.234 51.9293 237.512 51.768C237.798 51.5993 238.026 51.3573 238.194 51.042C238.37 50.7267 238.458 50.36 238.458 49.942ZM240.556 49.942C240.556 49.3333 240.681 48.7943 240.93 48.325C241.187 47.8557 241.532 47.4927 241.964 47.236C242.404 46.972 242.888 46.84 243.416 46.84C243.893 46.84 244.307 46.9353 244.659 47.126C245.019 47.3093 245.305 47.5403 245.517 47.819V46.939H246.782V53H245.517V52.098C245.305 52.384 245.015 52.6223 244.648 52.813C244.282 53.0037 243.864 53.099 243.394 53.099C242.874 53.099 242.397 52.967 241.964 52.703C241.532 52.4317 241.187 52.0577 240.93 51.581C240.681 51.097 240.556 50.5507 240.556 49.942ZM245.517 49.964C245.517 49.546 245.429 49.183 245.253 48.875C245.085 48.567 244.861 48.3323 244.582 48.171C244.304 48.0097 244.003 47.929 243.68 47.929C243.358 47.929 243.057 48.0097 242.778 48.171C242.5 48.325 242.272 48.556 242.096 48.864C241.928 49.1647 241.843 49.524 241.843 49.942C241.843 50.36 241.928 50.7267 242.096 51.042C242.272 51.3573 242.5 51.5993 242.778 51.768C243.064 51.9293 243.365 52.01 243.68 52.01C244.003 52.01 244.304 51.9293 244.582 51.768C244.861 51.6067 245.085 51.372 245.253 51.064C245.429 50.7487 245.517 50.382 245.517 49.964ZM248.011 49.964C248.011 49.3407 248.136 48.7943 248.385 48.325C248.642 47.8483 248.994 47.4817 249.441 47.225C249.889 46.9683 250.402 46.84 250.981 46.84C251.715 46.84 252.32 47.016 252.796 47.368C253.28 47.7127 253.607 48.2077 253.775 48.853H252.422C252.312 48.5523 252.136 48.3177 251.894 48.149C251.652 47.9803 251.348 47.896 250.981 47.896C250.468 47.896 250.057 48.0793 249.749 48.446C249.449 48.8053 249.298 49.3113 249.298 49.964C249.298 50.6167 249.449 51.1263 249.749 51.493C250.057 51.8597 250.468 52.043 250.981 52.043C251.707 52.043 252.188 51.724 252.422 51.086H253.775C253.599 51.702 253.269 52.1933 252.785 52.56C252.301 52.9193 251.7 53.099 250.981 53.099C250.402 53.099 249.889 52.9707 249.441 52.714C248.994 52.45 248.642 52.0833 248.385 51.614C248.136 51.1373 248.011 50.5873 248.011 49.964ZM257.423 49.975L260.217 53H258.523L256.279 50.393V53H255.025V44.86H256.279V49.59L258.479 46.939H260.217L257.423 49.975ZM266.605 46.939V53H265.351V52.285C265.153 52.5343 264.893 52.7323 264.57 52.879C264.255 53.0183 263.917 53.088 263.558 53.088C263.081 53.088 262.652 52.989 262.271 52.791C261.897 52.593 261.6 52.2997 261.38 51.911C261.167 51.5223 261.061 51.053 261.061 50.503V46.939H262.304V50.316C262.304 50.8587 262.44 51.2767 262.711 51.57C262.982 51.856 263.353 51.999 263.822 51.999C264.291 51.999 264.662 51.856 264.933 51.57C265.212 51.2767 265.351 50.8587 265.351 50.316V46.939H266.605ZM269.514 47.83C269.726 47.5513 270.016 47.3167 270.383 47.126C270.749 46.9353 271.164 46.84 271.626 46.84C272.154 46.84 272.634 46.972 273.067 47.236C273.507 47.4927 273.851 47.8557 274.101 48.325C274.35 48.7943 274.475 49.3333 274.475 49.942C274.475 50.5507 274.35 51.097 274.101 51.581C273.851 52.0577 273.507 52.4317 273.067 52.703C272.634 52.967 272.154 53.099 271.626 53.099C271.164 53.099 270.753 53.0073 270.394 52.824C270.034 52.6333 269.741 52.3987 269.514 52.12V55.882H268.26V46.939H269.514V47.83ZM273.199 49.942C273.199 49.524 273.111 49.1647 272.935 48.864C272.766 48.556 272.539 48.325 272.253 48.171C271.974 48.0097 271.673 47.929 271.351 47.929C271.035 47.929 270.735 48.0097 270.449 48.171C270.17 48.3323 269.943 48.567 269.767 48.875C269.598 49.183 269.514 49.546 269.514 49.964C269.514 50.382 269.598 50.7487 269.767 51.064C269.943 51.372 270.17 51.6067 270.449 51.768C270.735 51.9293 271.035 52.01 271.351 52.01C271.673 52.01 271.974 51.9293 272.253 51.768C272.539 51.5993 272.766 51.3573 272.935 51.042C273.111 50.7267 273.199 50.36 273.199 49.942ZM277.772 45.245C278.52 45.245 279.117 45.4503 279.565 45.861C280.019 46.2717 280.247 46.8327 280.247 47.544C280.247 48.2847 280.012 48.842 279.543 49.216C279.073 49.59 278.45 49.777 277.673 49.777L277.629 50.646H276.54L276.485 48.919H276.848C277.559 48.919 278.102 48.8237 278.476 48.633C278.857 48.4423 279.048 48.0793 279.048 47.544C279.048 47.1553 278.934 46.851 278.707 46.631C278.487 46.411 278.179 46.301 277.783 46.301C277.387 46.301 277.075 46.4073 276.848 46.62C276.62 46.8327 276.507 47.1297 276.507 47.511H275.33C275.33 47.071 275.429 46.6787 275.627 46.334C275.825 45.9893 276.107 45.7217 276.474 45.531C276.848 45.3403 277.28 45.245 277.772 45.245ZM277.068 53.077C276.84 53.077 276.65 53 276.496 52.846C276.342 52.692 276.265 52.5013 276.265 52.274C276.265 52.0467 276.342 51.856 276.496 51.702C276.65 51.548 276.84 51.471 277.068 51.471C277.288 51.471 277.475 51.548 277.629 51.702C277.783 51.856 277.86 52.0467 277.86 52.274C277.86 52.5013 277.783 52.692 277.629 52.846C277.475 53 277.288 53.077 277.068 53.077ZM289.1 51.438H285.899L285.349 53H284.04L286.779 45.344H288.231L290.97 53H289.65L289.1 51.438ZM288.748 50.415L287.505 46.862L286.251 50.415H288.748ZM293.415 44.86V53H292.161V44.86H293.415ZM296.315 44.86V53H295.061V44.86H296.315ZM306.275 46.939L302.557 55.849H301.259L302.491 52.901L300.104 46.939H301.501L303.206 51.559L304.977 46.939H306.275ZM309.85 53.099C309.278 53.099 308.761 52.9707 308.299 52.714C307.837 52.45 307.474 52.0833 307.21 51.614C306.946 51.1373 306.814 50.5873 306.814 49.964C306.814 49.348 306.95 48.8017 307.221 48.325C307.493 47.8483 307.863 47.4817 308.332 47.225C308.802 46.9683 309.326 46.84 309.905 46.84C310.485 46.84 311.009 46.9683 311.478 47.225C311.948 47.4817 312.318 47.8483 312.589 48.325C312.861 48.8017 312.996 49.348 312.996 49.964C312.996 50.58 312.857 51.1263 312.578 51.603C312.3 52.0797 311.918 52.45 311.434 52.714C310.958 52.9707 310.43 53.099 309.85 53.099ZM309.85 52.01C310.173 52.01 310.474 51.933 310.752 51.779C311.038 51.625 311.269 51.394 311.445 51.086C311.621 50.778 311.709 50.404 311.709 49.964C311.709 49.524 311.625 49.1537 311.456 48.853C311.288 48.545 311.064 48.314 310.785 48.16C310.507 48.006 310.206 47.929 309.883 47.929C309.561 47.929 309.26 48.006 308.981 48.16C308.71 48.314 308.494 48.545 308.332 48.853C308.171 49.1537 308.09 49.524 308.09 49.964C308.09 50.6167 308.255 51.1227 308.585 51.482C308.923 51.834 309.344 52.01 309.85 52.01ZM319.725 46.939V53H318.471V52.285C318.273 52.5343 318.013 52.7323 317.69 52.879C317.375 53.0183 317.037 53.088 316.678 53.088C316.201 53.088 315.772 52.989 315.391 52.791C315.017 52.593 314.72 52.2997 314.5 51.911C314.287 51.5223 314.181 51.053 314.181 50.503V46.939H315.424V50.316C315.424 50.8587 315.56 51.2767 315.831 51.57C316.102 51.856 316.473 51.999 316.942 51.999C317.411 51.999 317.782 51.856 318.053 51.57C318.332 51.2767 318.471 50.8587 318.471 50.316V46.939H319.725ZM322.634 47.819C322.817 47.511 323.059 47.2727 323.36 47.104C323.668 46.928 324.031 46.84 324.449 46.84V48.138H324.13C323.638 48.138 323.264 48.2627 323.008 48.512C322.758 48.7613 322.634 49.194 322.634 49.81V53H321.38V46.939H322.634V47.819ZM329.713 47.83C329.925 47.5513 330.215 47.3167 330.582 47.126C330.948 46.9353 331.363 46.84 331.825 46.84C332.353 46.84 332.833 46.972 333.266 47.236C333.706 47.4927 334.05 47.8557 334.3 48.325C334.549 48.7943 334.674 49.3333 334.674 49.942C334.674 50.5507 334.549 51.097 334.3 51.581C334.05 52.0577 333.706 52.4317 333.266 52.703C332.833 52.967 332.353 53.099 331.825 53.099C331.363 53.099 330.952 53.0073 330.593 52.824C330.233 52.6333 329.94 52.3987 329.713 52.12V55.882H328.459V46.939H329.713V47.83ZM333.398 49.942C333.398 49.524 333.31 49.1647 333.134 48.864C332.965 48.556 332.738 48.325 332.452 48.171C332.173 48.0097 331.872 47.929 331.55 47.929C331.234 47.929 330.934 48.0097 330.648 48.171C330.369 48.3323 330.142 48.567 329.966 48.875C329.797 49.183 329.713 49.546 329.713 49.964C329.713 50.382 329.797 50.7487 329.966 51.064C330.142 51.372 330.369 51.6067 330.648 51.768C330.934 51.9293 331.234 52.01 331.55 52.01C331.872 52.01 332.173 51.9293 332.452 51.768C332.738 51.5993 332.965 51.3573 333.134 51.042C333.31 50.7267 333.398 50.36 333.398 49.942ZM341.469 49.821C341.469 50.0483 341.454 50.2537 341.425 50.437H336.794C336.831 50.921 337.01 51.3097 337.333 51.603C337.656 51.8963 338.052 52.043 338.521 52.043C339.196 52.043 339.672 51.7607 339.951 51.196H341.304C341.121 51.7533 340.787 52.2117 340.303 52.571C339.826 52.923 339.232 53.099 338.521 53.099C337.942 53.099 337.421 52.9707 336.959 52.714C336.504 52.45 336.145 52.0833 335.881 51.614C335.624 51.1373 335.496 50.5873 335.496 49.964C335.496 49.3407 335.621 48.7943 335.87 48.325C336.127 47.8483 336.482 47.4817 336.937 47.225C337.399 46.9683 337.927 46.84 338.521 46.84C339.093 46.84 339.603 46.9647 340.05 47.214C340.497 47.4633 340.846 47.8153 341.095 48.27C341.344 48.7173 341.469 49.2343 341.469 49.821ZM340.16 49.425C340.153 48.963 339.988 48.5927 339.665 48.314C339.342 48.0353 338.943 47.896 338.466 47.896C338.033 47.896 337.663 48.0353 337.355 48.314C337.047 48.5853 336.864 48.9557 336.805 49.425H340.16ZM343.957 47.819C344.14 47.511 344.382 47.2727 344.683 47.104C344.991 46.928 345.354 46.84 345.772 46.84V48.138H345.453C344.962 48.138 344.588 48.2627 344.331 48.512C344.082 48.7613 343.957 49.194 343.957 49.81V53H342.703V46.939H343.957V47.819ZM349.125 53.099C348.648 53.099 348.219 53.0147 347.838 52.846C347.464 52.67 347.167 52.4353 346.947 52.142C346.727 51.8413 346.609 51.5077 346.595 51.141H347.893C347.915 51.3977 348.036 51.614 348.256 51.79C348.483 51.9587 348.765 52.043 349.103 52.043C349.455 52.043 349.726 51.977 349.917 51.845C350.115 51.7057 350.214 51.5297 350.214 51.317C350.214 51.0897 350.104 50.921 349.884 50.811C349.671 50.701 349.33 50.58 348.861 50.448C348.406 50.3233 348.036 50.2023 347.75 50.085C347.464 49.9677 347.214 49.788 347.002 49.546C346.796 49.304 346.694 48.985 346.694 48.589C346.694 48.2663 346.789 47.973 346.98 47.709C347.17 47.4377 347.442 47.225 347.794 47.071C348.153 46.917 348.564 46.84 349.026 46.84C349.715 46.84 350.269 47.016 350.687 47.368C351.112 47.7127 351.339 48.1857 351.369 48.787H350.115C350.093 48.5157 349.983 48.2993 349.785 48.138C349.587 47.9767 349.319 47.896 348.982 47.896C348.652 47.896 348.399 47.9583 348.223 48.083C348.047 48.2077 347.959 48.3727 347.959 48.578C347.959 48.7393 348.017 48.875 348.135 48.985C348.252 49.095 348.395 49.183 348.564 49.249C348.732 49.3077 348.982 49.3847 349.312 49.48C349.752 49.5973 350.111 49.7183 350.39 49.843C350.676 49.9603 350.921 50.1363 351.127 50.371C351.332 50.6057 351.438 50.9173 351.446 51.306C351.446 51.6507 351.35 51.9587 351.16 52.23C350.969 52.5013 350.698 52.714 350.346 52.868C350.001 53.022 349.594 53.099 349.125 53.099ZM355.43 53.099C354.858 53.099 354.341 52.9707 353.879 52.714C353.417 52.45 353.054 52.0833 352.79 51.614C352.526 51.1373 352.394 50.5873 352.394 49.964C352.394 49.348 352.529 48.8017 352.801 48.325C353.072 47.8483 353.442 47.4817 353.912 47.225C354.381 46.9683 354.905 46.84 355.485 46.84C356.064 46.84 356.588 46.9683 357.058 47.225C357.527 47.4817 357.897 47.8483 358.169 48.325C358.44 48.8017 358.576 49.348 358.576 49.964C358.576 50.58 358.436 51.1263 358.158 51.603C357.879 52.0797 357.498 52.45 357.014 52.714C356.537 52.9707 356.009 53.099 355.43 53.099ZM355.43 52.01C355.752 52.01 356.053 51.933 356.332 51.779C356.618 51.625 356.849 51.394 357.025 51.086C357.201 50.778 357.289 50.404 357.289 49.964C357.289 49.524 357.204 49.1537 357.036 48.853C356.867 48.545 356.643 48.314 356.365 48.16C356.086 48.006 355.785 47.929 355.463 47.929C355.14 47.929 354.839 48.006 354.561 48.16C354.289 48.314 354.073 48.545 353.912 48.853C353.75 49.1537 353.67 49.524 353.67 49.964C353.67 50.6167 353.835 51.1227 354.165 51.482C354.502 51.834 354.924 52.01 355.43 52.01ZM362.873 46.84C363.35 46.84 363.775 46.939 364.149 47.137C364.531 47.335 364.828 47.6283 365.04 48.017C365.253 48.4057 365.359 48.875 365.359 49.425V53H364.116V49.612C364.116 49.0693 363.981 48.655 363.709 48.369C363.438 48.0757 363.068 47.929 362.598 47.929C362.129 47.929 361.755 48.0757 361.476 48.369C361.205 48.655 361.069 49.0693 361.069 49.612V53H359.815V46.939H361.069V47.632C361.275 47.3827 361.535 47.1883 361.85 47.049C362.173 46.9097 362.514 46.84 362.873 46.84ZM366.541 49.942C366.541 49.3333 366.665 48.7943 366.915 48.325C367.171 47.8557 367.516 47.4927 367.949 47.236C368.389 46.972 368.873 46.84 369.401 46.84C369.877 46.84 370.292 46.9353 370.644 47.126C371.003 47.3093 371.289 47.5403 371.502 47.819V46.939H372.767V53H371.502V52.098C371.289 52.384 370.999 52.6223 370.633 52.813C370.266 53.0037 369.848 53.099 369.379 53.099C368.858 53.099 368.381 52.967 367.949 52.703C367.516 52.4317 367.171 52.0577 366.915 51.581C366.665 51.097 366.541 50.5507 366.541 49.942ZM371.502 49.964C371.502 49.546 371.414 49.183 371.238 48.875C371.069 48.567 370.845 48.3323 370.567 48.171C370.288 48.0097 369.987 47.929 369.665 47.929C369.342 47.929 369.041 48.0097 368.763 48.171C368.484 48.325 368.257 48.556 368.081 48.864C367.912 49.1647 367.828 49.524 367.828 49.942C367.828 50.36 367.912 50.7267 368.081 51.042C368.257 51.3573 368.484 51.5993 368.763 51.768C369.049 51.9293 369.349 52.01 369.665 52.01C369.987 52.01 370.288 51.9293 370.567 51.768C370.845 51.6067 371.069 51.372 371.238 51.064C371.414 50.7487 371.502 50.382 371.502 49.964ZM375.668 44.86V53H374.414V44.86H375.668ZM33.366 63.962H32.244V69H30.979V63.962H30.264V62.939H30.979V62.51C30.979 61.8133 31.1623 61.3073 31.529 60.992C31.903 60.6693 32.486 60.508 33.278 60.508V61.553C32.8967 61.553 32.629 61.6263 32.475 61.773C32.321 61.9123 32.244 62.158 32.244 62.51V62.939H33.366V63.962ZM35.1153 62.136C34.888 62.136 34.6973 62.059 34.5433 61.905C34.3893 61.751 34.3123 61.5603 34.3123 61.333C34.3123 61.1057 34.3893 60.915 34.5433 60.761C34.6973 60.607 34.888 60.53 35.1153 60.53C35.3353 60.53 35.5223 60.607 35.6763 60.761C35.8303 60.915 35.9073 61.1057 35.9073 61.333C35.9073 61.5603 35.8303 61.751 35.6763 61.905C35.5223 62.059 35.3353 62.136 35.1153 62.136ZM35.7313 62.939V69H34.4773V62.939H35.7313ZM38.6317 60.86V69H37.3777V60.86H38.6317ZM45.8331 65.821C45.8331 66.0483 45.8185 66.2537 45.7891 66.437H41.1581C41.1948 66.921 41.3745 67.3097 41.6971 67.603C42.0198 67.8963 42.4158 68.043 42.8851 68.043C43.5598 68.043 44.0365 67.7607 44.3151 67.196H45.6681C45.4848 67.7533 45.1511 68.2117 44.6671 68.571C44.1905 68.923 43.5965 69.099 42.8851 69.099C42.3058 69.099 41.7851 68.9707 41.3231 68.714C40.8685 68.45 40.5091 68.0833 40.2451 67.614C39.9885 67.1373 39.8601 66.5873 39.8601 65.964C39.8601 65.3407 39.9848 64.7943 40.2341 64.325C40.4908 63.8483 40.8465 63.4817 41.3011 63.225C41.7631 62.9683 42.2911 62.84 42.8851 62.84C43.4571 62.84 43.9668 62.9647 44.4141 63.214C44.8615 63.4633 45.2098 63.8153 45.4591 64.27C45.7085 64.7173 45.8331 65.2343 45.8331 65.821ZM44.5241 65.425C44.5168 64.963 44.3518 64.5927 44.0291 64.314C43.7065 64.0353 43.3068 63.896 42.8301 63.896C42.3975 63.896 42.0271 64.0353 41.7191 64.314C41.4111 64.5853 41.2278 64.9557 41.1691 65.425H44.5241ZM49.2672 69.099C48.7905 69.099 48.3615 69.0147 47.9802 68.846C47.6062 68.67 47.3092 68.4353 47.0892 68.142C46.8692 67.8413 46.7519 67.5077 46.7372 67.141H48.0352C48.0572 67.3977 48.1782 67.614 48.3982 67.79C48.6255 67.9587 48.9079 68.043 49.2452 68.043C49.5972 68.043 49.8685 67.977 50.0592 67.845C50.2572 67.7057 50.3562 67.5297 50.3562 67.317C50.3562 67.0897 50.2462 66.921 50.0262 66.811C49.8135 66.701 49.4725 66.58 49.0032 66.448C48.5485 66.3233 48.1782 66.2023 47.8922 66.085C47.6062 65.9677 47.3569 65.788 47.1442 65.546C46.9389 65.304 46.8362 64.985 46.8362 64.589C46.8362 64.2663 46.9315 63.973 47.1222 63.709C47.3129 63.4377 47.5842 63.225 47.9362 63.071C48.2955 62.917 48.7062 62.84 49.1682 62.84C49.8575 62.84 50.4112 63.016 50.8292 63.368C51.2545 63.7127 51.4819 64.1857 51.5112 64.787H50.2572C50.2352 64.5157 50.1252 64.2993 49.9272 64.138C49.7292 63.9767 49.4615 63.896 49.1242 63.896C48.7942 63.896 48.5412 63.9583 48.3652 64.083C48.1892 64.2077 48.1012 64.3727 48.1012 64.578C48.1012 64.7393 48.1599 64.875 48.2772 64.985C48.3945 65.095 48.5375 65.183 48.7062 65.249C48.8749 65.3077 49.1242 65.3847 49.4542 65.48C49.8942 65.5973 50.2535 65.7183 50.5322 65.843C50.8182 65.9603 51.0639 66.1363 51.2692 66.371C51.4745 66.6057 51.5809 66.9173 51.5882 67.306C51.5882 67.6507 51.4929 67.9587 51.3022 68.23C51.1115 68.5013 50.8402 68.714 50.4882 68.868C50.1435 69.022 49.7365 69.099 49.2672 69.099ZM58.0006 69.099C57.5239 69.099 57.0949 69.0147 56.7136 68.846C56.3396 68.67 56.0426 68.4353 55.8226 68.142C55.6026 67.8413 55.4853 67.5077 55.4706 67.141H56.7686C56.7906 67.3977 56.9116 67.614 57.1316 67.79C57.3589 67.9587 57.6413 68.043 57.9786 68.043C58.3306 68.043 58.6019 67.977 58.7926 67.845C58.9906 67.7057 59.0896 67.5297 59.0896 67.317C59.0896 67.0897 58.9796 66.921 58.7596 66.811C58.5469 66.701 58.2059 66.58 57.7366 66.448C57.2819 66.3233 56.9116 66.2023 56.6256 66.085C56.3396 65.9677 56.0903 65.788 55.8776 65.546C55.6723 65.304 55.5696 64.985 55.5696 64.589C55.5696 64.2663 55.6649 63.973 55.8556 63.709C56.0463 63.4377 56.3176 63.225 56.6696 63.071C57.0289 62.917 57.4396 62.84 57.9016 62.84C58.5909 62.84 59.1446 63.016 59.5626 63.368C59.9879 63.7127 60.2153 64.1857 60.2446 64.787H58.9906C58.9686 64.5157 58.8586 64.2993 58.6606 64.138C58.4626 63.9767 58.1949 63.896 57.8576 63.896C57.5276 63.896 57.2746 63.9583 57.0986 64.083C56.9226 64.2077 56.8346 64.3727 56.8346 64.578C56.8346 64.7393 56.8933 64.875 57.0106 64.985C57.1279 65.095 57.2709 65.183 57.4396 65.249C57.6083 65.3077 57.8576 65.3847 58.1876 65.48C58.6276 65.5973 58.9869 65.7183 59.2656 65.843C59.5516 65.9603 59.7973 66.1363 60.0026 66.371C60.2079 66.6057 60.3143 66.9173 60.3216 67.306C60.3216 67.6507 60.2263 67.9587 60.0356 68.23C59.8449 68.5013 59.5736 68.714 59.2216 68.868C58.8769 69.022 58.4699 69.099 58.0006 69.099ZM61.2586 65.942C61.2586 65.3333 61.3832 64.7943 61.6326 64.325C61.8892 63.8557 62.2339 63.4927 62.6666 63.236C63.1066 62.972 63.5906 62.84 64.1186 62.84C64.5952 62.84 65.0096 62.9353 65.3616 63.126C65.7209 63.3093 66.0069 63.5403 66.2196 63.819V62.939H67.4846V69H66.2196V68.098C66.0069 68.384 65.7172 68.6223 65.3506 68.813C64.9839 69.0037 64.5659 69.099 64.0966 69.099C63.5759 69.099 63.0992 68.967 62.6666 68.703C62.2339 68.4317 61.8892 68.0577 61.6326 67.581C61.3832 67.097 61.2586 66.5507 61.2586 65.942ZM66.2196 65.964C66.2196 65.546 66.1316 65.183 65.9556 64.875C65.7869 64.567 65.5632 64.3323 65.2846 64.171C65.0059 64.0097 64.7052 63.929 64.3826 63.929C64.0599 63.929 63.7592 64.0097 63.4806 64.171C63.2019 64.325 62.9746 64.556 62.7986 64.864C62.6299 65.1647 62.5456 65.524 62.5456 65.942C62.5456 66.36 62.6299 66.7267 62.7986 67.042C62.9746 67.3573 63.2019 67.5993 63.4806 67.768C63.7666 67.9293 64.0672 68.01 64.3826 68.01C64.7052 68.01 65.0059 67.9293 65.2846 67.768C65.5632 67.6067 65.7869 67.372 65.9556 67.064C66.1316 66.7487 66.2196 66.382 66.2196 65.964ZM71.4746 67.878L73.1906 62.939H74.5216L72.2116 69H70.7156L68.4166 62.939H69.7586L71.4746 67.878ZM81.0245 65.821C81.0245 66.0483 81.0099 66.2537 80.9805 66.437H76.3495C76.3862 66.921 76.5659 67.3097 76.8885 67.603C77.2112 67.8963 77.6072 68.043 78.0765 68.043C78.7512 68.043 79.2279 67.7607 79.5065 67.196H80.8595C80.6762 67.7533 80.3425 68.2117 79.8585 68.571C79.3819 68.923 78.7879 69.099 78.0765 69.099C77.4972 69.099 76.9765 68.9707 76.5145 68.714C76.0599 68.45 75.7005 68.0833 75.4365 67.614C75.1799 67.1373 75.0515 66.5873 75.0515 65.964C75.0515 65.3407 75.1762 64.7943 75.4255 64.325C75.6822 63.8483 76.0379 63.4817 76.4925 63.225C76.9545 62.9683 77.4825 62.84 78.0765 62.84C78.6485 62.84 79.1582 62.9647 79.6055 63.214C80.0529 63.4633 80.4012 63.8153 80.6505 64.27C80.8999 64.7173 81.0245 65.2343 81.0245 65.821ZM79.7155 65.425C79.7082 64.963 79.5432 64.5927 79.2205 64.314C78.8979 64.0353 78.4982 63.896 78.0215 63.896C77.5889 63.896 77.2185 64.0353 76.9105 64.314C76.6025 64.5853 76.4192 64.9557 76.3605 65.425H79.7155ZM81.8406 65.942C81.8406 65.3333 81.9653 64.7943 82.2146 64.325C82.4713 63.8557 82.8159 63.4927 83.2486 63.236C83.6886 62.972 84.1763 62.84 84.7116 62.84C85.1076 62.84 85.4963 62.928 85.8776 63.104C86.2663 63.2727 86.5743 63.5 86.8016 63.786V60.86H88.0666V69H86.8016V68.087C86.5963 68.3803 86.3103 68.6223 85.9436 68.813C85.5843 69.0037 85.1699 69.099 84.7006 69.099C84.1726 69.099 83.6886 68.967 83.2486 68.703C82.8159 68.4317 82.4713 68.0577 82.2146 67.581C81.9653 67.097 81.8406 66.5507 81.8406 65.942ZM86.8016 65.964C86.8016 65.546 86.7136 65.183 86.5376 64.875C86.3689 64.567 86.1453 64.3323 85.8666 64.171C85.5879 64.0097 85.2873 63.929 84.9646 63.929C84.6419 63.929 84.3413 64.0097 84.0626 64.171C83.7839 64.325 83.5566 64.556 83.3806 64.864C83.2119 65.1647 83.1276 65.524 83.1276 65.942C83.1276 66.36 83.2119 66.7267 83.3806 67.042C83.5566 67.3573 83.7839 67.5993 84.0626 67.768C84.3486 67.9293 84.6493 68.01 84.9646 68.01C85.2873 68.01 85.5879 67.9293 85.8666 67.768C86.1453 67.6067 86.3689 67.372 86.5376 67.064C86.7136 66.7487 86.8016 66.382 86.8016 65.964ZM95.2001 69.099C94.6281 69.099 94.1111 68.9707 93.6491 68.714C93.1871 68.45 92.8241 68.0833 92.5601 67.614C92.2961 67.1373 92.1641 66.5873 92.1641 65.964C92.1641 65.348 92.2998 64.8017 92.5711 64.325C92.8424 63.8483 93.2128 63.4817 93.6821 63.225C94.1514 62.9683 94.6758 62.84 95.2551 62.84C95.8344 62.84 96.3588 62.9683 96.8281 63.225C97.2974 63.4817 97.6678 63.8483 97.9391 64.325C98.2104 64.8017 98.3461 65.348 98.3461 65.964C98.3461 66.58 98.2068 67.1263 97.9281 67.603C97.6494 68.0797 97.2681 68.45 96.7841 68.714C96.3074 68.9707 95.7794 69.099 95.2001 69.099ZM95.2001 68.01C95.5228 68.01 95.8234 67.933 96.1021 67.779C96.3881 67.625 96.6191 67.394 96.7951 67.086C96.9711 66.778 97.0591 66.404 97.0591 65.964C97.0591 65.524 96.9748 65.1537 96.8061 64.853C96.6374 64.545 96.4138 64.314 96.1351 64.16C95.8564 64.006 95.5558 63.929 95.2331 63.929C94.9104 63.929 94.6098 64.006 94.3311 64.16C94.0598 64.314 93.8434 64.545 93.6821 64.853C93.5208 65.1537 93.4401 65.524 93.4401 65.964C93.4401 66.6167 93.6051 67.1227 93.9351 67.482C94.2724 67.834 94.6941 68.01 95.2001 68.01ZM102.644 62.84C103.12 62.84 103.546 62.939 103.92 63.137C104.301 63.335 104.598 63.6283 104.811 64.017C105.023 64.4057 105.13 64.875 105.13 65.425V69H103.887V65.612C103.887 65.0693 103.751 64.655 103.48 64.369C103.208 64.0757 102.838 63.929 102.369 63.929C101.899 63.929 101.525 64.0757 101.247 64.369C100.975 64.655 100.84 65.0693 100.84 65.612V69H99.5857V62.939H100.84V63.632C101.045 63.3827 101.305 63.1883 101.621 63.049C101.943 62.9097 102.284 62.84 102.644 62.84ZM115.043 62.939L111.325 71.849H110.027L111.259 68.901L108.872 62.939H110.269L111.974 67.559L113.745 62.939H115.043ZM118.618 69.099C118.046 69.099 117.529 68.9707 117.067 68.714C116.605 68.45 116.242 68.0833 115.978 67.614C115.714 67.1373 115.582 66.5873 115.582 65.964C115.582 65.348 115.718 64.8017 115.989 64.325C116.26 63.8483 116.631 63.4817 117.1 63.225C117.569 62.9683 118.094 62.84 118.673 62.84C119.252 62.84 119.777 62.9683 120.246 63.225C120.715 63.4817 121.086 63.8483 121.357 64.325C121.628 64.8017 121.764 65.348 121.764 65.964C121.764 66.58 121.625 67.1263 121.346 67.603C121.067 68.0797 120.686 68.45 120.202 68.714C119.725 68.9707 119.197 69.099 118.618 69.099ZM118.618 68.01C118.941 68.01 119.241 67.933 119.52 67.779C119.806 67.625 120.037 67.394 120.213 67.086C120.389 66.778 120.477 66.404 120.477 65.964C120.477 65.524 120.393 65.1537 120.224 64.853C120.055 64.545 119.832 64.314 119.553 64.16C119.274 64.006 118.974 63.929 118.651 63.929C118.328 63.929 118.028 64.006 117.749 64.16C117.478 64.314 117.261 64.545 117.1 64.853C116.939 65.1537 116.858 65.524 116.858 65.964C116.858 66.6167 117.023 67.1227 117.353 67.482C117.69 67.834 118.112 68.01 118.618 68.01ZM128.493 62.939V69H127.239V68.285C127.041 68.5343 126.78 68.7323 126.458 68.879C126.142 69.0183 125.805 69.088 125.446 69.088C124.969 69.088 124.54 68.989 124.159 68.791C123.785 68.593 123.488 68.2997 123.268 67.911C123.055 67.5223 122.949 67.053 122.949 66.503V62.939H124.192V66.316C124.192 66.8587 124.327 67.2767 124.599 67.57C124.87 67.856 125.24 67.999 125.71 67.999C126.179 67.999 126.549 67.856 126.821 67.57C127.099 67.2767 127.239 66.8587 127.239 66.316V62.939H128.493ZM131.401 63.819C131.585 63.511 131.827 63.2727 132.127 63.104C132.435 62.928 132.798 62.84 133.216 62.84V64.138H132.897C132.406 64.138 132.032 64.2627 131.775 64.512C131.526 64.7613 131.401 65.194 131.401 65.81V69H130.147V62.939H131.401V63.819ZM136.808 65.942C136.808 65.3333 136.933 64.7943 137.182 64.325C137.439 63.8557 137.784 63.4927 138.216 63.236C138.656 62.972 139.144 62.84 139.679 62.84C140.075 62.84 140.464 62.928 140.845 63.104C141.234 63.2727 141.542 63.5 141.769 63.786V60.86H143.034V69H141.769V68.087C141.564 68.3803 141.278 68.6223 140.911 68.813C140.552 69.0037 140.138 69.099 139.668 69.099C139.14 69.099 138.656 68.967 138.216 68.703C137.784 68.4317 137.439 68.0577 137.182 67.581C136.933 67.097 136.808 66.5507 136.808 65.942ZM141.769 65.964C141.769 65.546 141.681 65.183 141.505 64.875C141.337 64.567 141.113 64.3323 140.834 64.171C140.556 64.0097 140.255 63.929 139.932 63.929C139.61 63.929 139.309 64.0097 139.03 64.171C138.752 64.325 138.524 64.556 138.348 64.864C138.18 65.1647 138.095 65.524 138.095 65.942C138.095 66.36 138.18 66.7267 138.348 67.042C138.524 67.3573 138.752 67.5993 139.03 67.768C139.316 67.9293 139.617 68.01 139.932 68.01C140.255 68.01 140.556 67.9293 140.834 67.768C141.113 67.6067 141.337 67.372 141.505 67.064C141.681 66.7487 141.769 66.382 141.769 65.964ZM145.319 62.136C145.092 62.136 144.901 62.059 144.747 61.905C144.593 61.751 144.516 61.5603 144.516 61.333C144.516 61.1057 144.593 60.915 144.747 60.761C144.901 60.607 145.092 60.53 145.319 60.53C145.539 60.53 145.726 60.607 145.88 60.761C146.034 60.915 146.111 61.1057 146.111 61.333C146.111 61.5603 146.034 61.751 145.88 61.905C145.726 62.059 145.539 62.136 145.319 62.136ZM145.935 62.939V69H144.681V62.939H145.935ZM149.782 69.099C149.305 69.099 148.876 69.0147 148.495 68.846C148.121 68.67 147.824 68.4353 147.604 68.142C147.384 67.8413 147.267 67.5077 147.252 67.141H148.55C148.572 67.3977 148.693 67.614 148.913 67.79C149.14 67.9587 149.423 68.043 149.76 68.043C150.112 68.043 150.383 67.977 150.574 67.845C150.772 67.7057 150.871 67.5297 150.871 67.317C150.871 67.0897 150.761 66.921 150.541 66.811C150.328 66.701 149.987 66.58 149.518 66.448C149.063 66.3233 148.693 66.2023 148.407 66.085C148.121 65.9677 147.872 65.788 147.659 65.546C147.454 65.304 147.351 64.985 147.351 64.589C147.351 64.2663 147.446 63.973 147.637 63.709C147.828 63.4377 148.099 63.225 148.451 63.071C148.81 62.917 149.221 62.84 149.683 62.84C150.372 62.84 150.926 63.016 151.344 63.368C151.769 63.7127 151.997 64.1857 152.026 64.787H150.772C150.75 64.5157 150.64 64.2993 150.442 64.138C150.244 63.9767 149.976 63.896 149.639 63.896C149.309 63.896 149.056 63.9583 148.88 64.083C148.704 64.2077 148.616 64.3727 148.616 64.578C148.616 64.7393 148.675 64.875 148.792 64.985C148.909 65.095 149.052 65.183 149.221 65.249C149.39 65.3077 149.639 65.3847 149.969 65.48C150.409 65.5973 150.768 65.7183 151.047 65.843C151.333 65.9603 151.579 66.1363 151.784 66.371C151.989 66.6057 152.096 66.9173 152.103 67.306C152.103 67.6507 152.008 67.9587 151.817 68.23C151.626 68.5013 151.355 68.714 151.003 68.868C150.658 69.022 150.251 69.099 149.782 69.099ZM155.856 65.975L158.65 69H156.956L154.712 66.393V69H153.458V60.86H154.712V65.59L156.912 62.939H158.65L155.856 65.975ZM170.546 62.939L168.665 69H167.345L166.124 64.523L164.903 69H163.583L161.691 62.939H162.967L164.232 67.812L165.519 62.939H166.828L168.06 67.79L169.314 62.939H170.546ZM172.121 62.136C171.894 62.136 171.703 62.059 171.549 61.905C171.395 61.751 171.318 61.5603 171.318 61.333C171.318 61.1057 171.395 60.915 171.549 60.761C171.703 60.607 171.894 60.53 172.121 60.53C172.341 60.53 172.528 60.607 172.682 60.761C172.836 60.915 172.913 61.1057 172.913 61.333C172.913 61.5603 172.836 61.751 172.682 61.905C172.528 62.059 172.341 62.136 172.121 62.136ZM172.737 62.939V69H171.483V62.939H172.737ZM175.638 60.86V69H174.384V60.86H175.638ZM178.538 60.86V69H177.284V60.86H178.538ZM184.296 63.841C184.508 63.5477 184.798 63.3093 185.165 63.126C185.539 62.9353 185.953 62.84 186.408 62.84C186.943 62.84 187.427 62.9683 187.86 63.225C188.292 63.4817 188.633 63.8483 188.883 64.325C189.132 64.7943 189.257 65.3333 189.257 65.942C189.257 66.5507 189.132 67.097 188.883 67.581C188.633 68.0577 188.289 68.4317 187.849 68.703C187.416 68.967 186.936 69.099 186.408 69.099C185.938 69.099 185.52 69.0073 185.154 68.824C184.794 68.6407 184.508 68.406 184.296 68.12V69H183.042V60.86H184.296V63.841ZM187.981 65.942C187.981 65.524 187.893 65.1647 187.717 64.864C187.548 64.556 187.321 64.325 187.035 64.171C186.756 64.0097 186.455 63.929 186.133 63.929C185.817 63.929 185.517 64.0097 185.231 64.171C184.952 64.3323 184.725 64.567 184.549 64.875C184.38 65.183 184.296 65.546 184.296 65.964C184.296 66.382 184.38 66.7487 184.549 67.064C184.725 67.372 184.952 67.6067 185.231 67.768C185.517 67.9293 185.817 68.01 186.133 68.01C186.455 68.01 186.756 67.9293 187.035 67.768C187.321 67.5993 187.548 67.3573 187.717 67.042C187.893 66.7267 187.981 66.36 187.981 65.942ZM196.052 65.821C196.052 66.0483 196.037 66.2537 196.008 66.437H191.377C191.414 66.921 191.593 67.3097 191.916 67.603C192.239 67.8963 192.635 68.043 193.104 68.043C193.779 68.043 194.255 67.7607 194.534 67.196H195.887C195.704 67.7533 195.37 68.2117 194.886 68.571C194.409 68.923 193.815 69.099 193.104 69.099C192.525 69.099 192.004 68.9707 191.542 68.714C191.087 68.45 190.728 68.0833 190.464 67.614C190.207 67.1373 190.079 66.5873 190.079 65.964C190.079 65.3407 190.204 64.7943 190.453 64.325C190.71 63.8483 191.065 63.4817 191.52 63.225C191.982 62.9683 192.51 62.84 193.104 62.84C193.676 62.84 194.186 62.9647 194.633 63.214C195.08 63.4633 195.429 63.8153 195.678 64.27C195.927 64.7173 196.052 65.2343 196.052 65.821ZM194.743 65.425C194.736 64.963 194.571 64.5927 194.248 64.314C193.925 64.0353 193.526 63.896 193.049 63.896C192.616 63.896 192.246 64.0353 191.938 64.314C191.63 64.5853 191.447 64.9557 191.388 65.425H194.743ZM201.397 60.86V69H200.143V60.86H201.397ZM205.673 69.099C205.101 69.099 204.584 68.9707 204.122 68.714C203.66 68.45 203.297 68.0833 203.033 67.614C202.769 67.1373 202.637 66.5873 202.637 65.964C202.637 65.348 202.772 64.8017 203.044 64.325C203.315 63.8483 203.685 63.4817 204.155 63.225C204.624 62.9683 205.148 62.84 205.728 62.84C206.307 62.84 206.831 62.9683 207.301 63.225C207.77 63.4817 208.14 63.8483 208.412 64.325C208.683 64.8017 208.819 65.348 208.819 65.964C208.819 66.58 208.679 67.1263 208.401 67.603C208.122 68.0797 207.741 68.45 207.257 68.714C206.78 68.9707 206.252 69.099 205.673 69.099ZM205.673 68.01C205.995 68.01 206.296 67.933 206.575 67.779C206.861 67.625 207.092 67.394 207.268 67.086C207.444 66.778 207.532 66.404 207.532 65.964C207.532 65.524 207.447 65.1537 207.279 64.853C207.11 64.545 206.886 64.314 206.608 64.16C206.329 64.006 206.028 63.929 205.706 63.929C205.383 63.929 205.082 64.006 204.804 64.16C204.532 64.314 204.316 64.545 204.155 64.853C203.993 65.1537 203.913 65.524 203.913 65.964C203.913 66.6167 204.078 67.1227 204.408 67.482C204.745 67.834 205.167 68.01 205.673 68.01ZM212.258 69.099C211.782 69.099 211.353 69.0147 210.971 68.846C210.597 68.67 210.3 68.4353 210.08 68.142C209.86 67.8413 209.743 67.5077 209.728 67.141H211.026C211.048 67.3977 211.169 67.614 211.389 67.79C211.617 67.9587 211.899 68.043 212.236 68.043C212.588 68.043 212.86 67.977 213.05 67.845C213.248 67.7057 213.347 67.5297 213.347 67.317C213.347 67.0897 213.237 66.921 213.017 66.811C212.805 66.701 212.464 66.58 211.994 66.448C211.54 66.3233 211.169 66.2023 210.883 66.085C210.597 65.9677 210.348 65.788 210.135 65.546C209.93 65.304 209.827 64.985 209.827 64.589C209.827 64.2663 209.923 63.973 210.113 63.709C210.304 63.4377 210.575 63.225 210.927 63.071C211.287 62.917 211.697 62.84 212.159 62.84C212.849 62.84 213.402 63.016 213.82 63.368C214.246 63.7127 214.473 64.1857 214.502 64.787H213.248C213.226 64.5157 213.116 64.2993 212.918 64.138C212.72 63.9767 212.453 63.896 212.115 63.896C211.785 63.896 211.532 63.9583 211.356 64.083C211.18 64.2077 211.092 64.3727 211.092 64.578C211.092 64.7393 211.151 64.875 211.268 64.985C211.386 65.095 211.529 65.183 211.697 65.249C211.866 65.3077 212.115 65.3847 212.445 65.48C212.885 65.5973 213.245 65.7183 213.523 65.843C213.809 65.9603 214.055 66.1363 214.26 66.371C214.466 66.6057 214.572 66.9173 214.579 67.306C214.579 67.6507 214.484 67.9587 214.293 68.23C214.103 68.5013 213.831 68.714 213.479 68.868C213.135 69.022 212.728 69.099 212.258 69.099ZM217.397 63.962V67.317C217.397 67.5443 217.449 67.7093 217.551 67.812C217.661 67.9073 217.845 67.955 218.101 67.955H218.871V69H217.881C217.317 69 216.884 68.868 216.583 68.604C216.283 68.34 216.132 67.911 216.132 67.317V63.962H215.417V62.939H216.132V61.432H217.397V62.939H218.871V63.962H217.397ZM221.6 61.355L221.457 66.69H220.412L220.269 61.355H221.6ZM220.973 69.077C220.746 69.077 220.555 69 220.401 68.846C220.247 68.692 220.17 68.5013 220.17 68.274C220.17 68.0467 220.247 67.856 220.401 67.702C220.555 67.548 220.746 67.471 220.973 67.471C221.193 67.471 221.38 67.548 221.534 67.702C221.688 67.856 221.765 68.0467 221.765 68.274C221.765 68.5013 221.688 68.692 221.534 68.846C221.38 69 221.193 69.077 220.973 69.077ZM232.062 61.894C232.898 61.894 233.62 62.048 234.229 62.356C234.837 62.664 235.299 63.0967 235.615 63.654C235.937 64.204 236.099 64.8457 236.099 65.579C236.099 66.1657 235.996 66.7267 235.791 67.262C235.593 67.7973 235.303 68.2337 234.922 68.571C234.548 68.9083 234.104 69.077 233.591 69.077C233.217 69.077 232.923 68.9963 232.711 68.835C232.498 68.6663 232.366 68.4317 232.315 68.131C232.087 68.4243 231.801 68.6553 231.457 68.824C231.112 68.9927 230.753 69.077 230.379 69.077C229.814 69.077 229.37 68.9083 229.048 68.571C228.732 68.2263 228.575 67.7607 228.575 67.174C228.575 66.6167 228.688 66.096 228.916 65.612C229.15 65.128 229.477 64.743 229.895 64.457C230.313 64.1637 230.782 64.017 231.303 64.017C231.941 64.017 232.388 64.2333 232.645 64.666L232.744 64.116H233.833L233.283 67.262C233.261 67.416 233.25 67.5517 233.25 67.669C233.25 67.8597 233.286 68.0027 233.36 68.098C233.44 68.1933 233.58 68.241 233.778 68.241C234.056 68.241 234.295 68.1053 234.493 67.834C234.691 67.5553 234.837 67.2143 234.933 66.811C235.035 66.4077 235.087 66.0153 235.087 65.634C235.087 64.7027 234.815 63.9913 234.273 63.5C233.73 63.0087 232.942 62.763 231.908 62.763C231.042 62.763 230.265 62.9683 229.576 63.379C228.894 63.7897 228.358 64.3543 227.97 65.073C227.581 65.7917 227.387 66.591 227.387 67.471C227.387 68.4097 227.665 69.1247 228.223 69.616C228.78 70.1073 229.576 70.353 230.61 70.353C231.306 70.353 231.915 70.2247 232.436 69.968L232.601 70.804C231.933 71.09 231.185 71.233 230.357 71.233C229.557 71.233 228.857 71.0827 228.256 70.782C227.654 70.4813 227.189 70.0523 226.859 69.495C226.529 68.945 226.364 68.3033 226.364 67.57C226.364 66.5213 226.606 65.5643 227.09 64.699C227.581 63.8337 228.259 63.1517 229.125 62.653C229.99 62.147 230.969 61.894 232.062 61.894ZM230.764 68.109C231.072 68.109 231.35 68.021 231.6 67.845C231.856 67.6617 232.058 67.4233 232.205 67.13C232.351 66.8293 232.425 66.5103 232.425 66.173C232.425 65.821 232.326 65.535 232.128 65.315C231.937 65.0877 231.666 64.974 231.314 64.974C230.998 64.974 230.72 65.073 230.478 65.271C230.243 65.4617 230.06 65.711 229.928 66.019C229.803 66.327 229.741 66.6497 229.741 66.987C229.741 67.3317 229.825 67.6067 229.994 67.812C230.162 68.01 230.419 68.109 230.764 68.109ZM241.867 61.355V66.866C241.867 67.548 241.658 68.087 241.24 68.483C240.829 68.879 240.287 69.077 239.612 69.077C238.937 69.077 238.391 68.879 237.973 68.483C237.562 68.087 237.357 67.548 237.357 66.866H238.622C238.629 67.2033 238.714 67.471 238.875 67.669C239.044 67.867 239.289 67.966 239.612 67.966C239.935 67.966 240.18 67.867 240.349 67.669C240.518 67.4637 240.602 67.196 240.602 66.866V61.355H241.867ZM245.161 60.86V69H243.907V60.86H245.161ZM249.436 69.099C248.864 69.099 248.347 68.9707 247.885 68.714C247.423 68.45 247.06 68.0833 246.796 67.614C246.532 67.1373 246.4 66.5873 246.4 65.964C246.4 65.348 246.536 64.8017 246.807 64.325C247.079 63.8483 247.449 63.4817 247.918 63.225C248.388 62.9683 248.912 62.84 249.491 62.84C250.071 62.84 250.595 62.9683 251.064 63.225C251.534 63.4817 251.904 63.8483 252.175 64.325C252.447 64.8017 252.582 65.348 252.582 65.964C252.582 66.58 252.443 67.1263 252.164 67.603C251.886 68.0797 251.504 68.45 251.02 68.714C250.544 68.9707 250.016 69.099 249.436 69.099ZM249.436 68.01C249.759 68.01 250.06 67.933 250.338 67.779C250.624 67.625 250.855 67.394 251.031 67.086C251.207 66.778 251.295 66.404 251.295 65.964C251.295 65.524 251.211 65.1537 251.042 64.853C250.874 64.545 250.65 64.314 250.371 64.16C250.093 64.006 249.792 63.929 249.469 63.929C249.147 63.929 248.846 64.006 248.567 64.16C248.296 64.314 248.08 64.545 247.918 64.853C247.757 65.1537 247.676 65.524 247.676 65.964C247.676 66.6167 247.841 67.1227 248.171 67.482C248.509 67.834 248.93 68.01 249.436 68.01ZM258.431 67.438H255.23L254.68 69H253.371L256.11 61.344H257.562L260.301 69H258.981L258.431 67.438ZM258.079 66.415L256.836 62.862L255.582 66.415H258.079ZM266.981 62.939V69H265.727V68.285C265.529 68.5343 265.269 68.7323 264.946 68.879C264.631 69.0183 264.293 69.088 263.934 69.088C263.457 69.088 263.028 68.989 262.647 68.791C262.273 68.593 261.976 68.2997 261.756 67.911C261.543 67.5223 261.437 67.053 261.437 66.503V62.939H262.68V66.316C262.68 66.8587 262.816 67.2767 263.087 67.57C263.358 67.856 263.729 67.999 264.198 67.999C264.667 67.999 265.038 67.856 265.309 67.57C265.588 67.2767 265.727 66.8587 265.727 66.316V62.939H266.981ZM272.131 62.136C271.904 62.136 271.713 62.059 271.559 61.905C271.405 61.751 271.328 61.5603 271.328 61.333C271.328 61.1057 271.405 60.915 271.559 60.761C271.713 60.607 271.904 60.53 272.131 60.53C272.351 60.53 272.538 60.607 272.692 60.761C272.846 60.915 272.923 61.1057 272.923 61.333C272.923 61.5603 272.846 61.751 272.692 61.905C272.538 62.059 272.351 62.136 272.131 62.136ZM272.747 62.939V69H271.493V62.939H272.747ZM276.593 69.099C276.117 69.099 275.688 69.0147 275.306 68.846C274.932 68.67 274.635 68.4353 274.415 68.142C274.195 67.8413 274.078 67.5077 274.063 67.141H275.361C275.383 67.3977 275.504 67.614 275.724 67.79C275.952 67.9587 276.234 68.043 276.571 68.043C276.923 68.043 277.195 67.977 277.385 67.845C277.583 67.7057 277.682 67.5297 277.682 67.317C277.682 67.0897 277.572 66.921 277.352 66.811C277.14 66.701 276.799 66.58 276.329 66.448C275.875 66.3233 275.504 66.2023 275.218 66.085C274.932 65.9677 274.683 65.788 274.47 65.546C274.265 65.304 274.162 64.985 274.162 64.589C274.162 64.2663 274.258 63.973 274.448 63.709C274.639 63.4377 274.91 63.225 275.262 63.071C275.622 62.917 276.032 62.84 276.494 62.84C277.184 62.84 277.737 63.016 278.155 63.368C278.581 63.7127 278.808 64.1857 278.837 64.787H277.583C277.561 64.5157 277.451 64.2993 277.253 64.138C277.055 63.9767 276.788 63.896 276.45 63.896C276.12 63.896 275.867 63.9583 275.691 64.083C275.515 64.2077 275.427 64.3727 275.427 64.578C275.427 64.7393 275.486 64.875 275.603 64.985C275.721 65.095 275.864 65.183 276.032 65.249C276.201 65.3077 276.45 65.3847 276.78 65.48C277.22 65.5973 277.58 65.7183 277.858 65.843C278.144 65.9603 278.39 66.1363 278.595 66.371C278.801 66.6057 278.907 66.9173 278.914 67.306C278.914 67.6507 278.819 67.9587 278.628 68.23C278.438 68.5013 278.166 68.714 277.814 68.868C277.47 69.022 277.063 69.099 276.593 69.099ZM286.185 62.84C286.661 62.84 287.087 62.939 287.461 63.137C287.842 63.335 288.139 63.6283 288.352 64.017C288.564 64.4057 288.671 64.875 288.671 65.425V69H287.428V65.612C287.428 65.0693 287.292 64.655 287.021 64.369C286.749 64.0757 286.379 63.929 285.91 63.929C285.44 63.929 285.066 64.0757 284.788 64.369C284.516 64.655 284.381 65.0693 284.381 65.612V69H283.127V62.939H284.381V63.632C284.586 63.3827 284.846 63.1883 285.162 63.049C285.484 62.9097 285.825 62.84 286.185 62.84ZM292.899 69.099C292.327 69.099 291.81 68.9707 291.348 68.714C290.886 68.45 290.523 68.0833 290.259 67.614C289.995 67.1373 289.863 66.5873 289.863 65.964C289.863 65.348 289.999 64.8017 290.27 64.325C290.542 63.8483 290.912 63.4817 291.381 63.225C291.851 62.9683 292.375 62.84 292.954 62.84C293.534 62.84 294.058 62.9683 294.527 63.225C294.997 63.4817 295.367 63.8483 295.638 64.325C295.91 64.8017 296.045 65.348 296.045 65.964C296.045 66.58 295.906 67.1263 295.627 67.603C295.349 68.0797 294.967 68.45 294.483 68.714C294.007 68.9707 293.479 69.099 292.899 69.099ZM292.899 68.01C293.222 68.01 293.523 67.933 293.801 67.779C294.087 67.625 294.318 67.394 294.494 67.086C294.67 66.778 294.758 66.404 294.758 65.964C294.758 65.524 294.674 65.1537 294.505 64.853C294.337 64.545 294.113 64.314 293.834 64.16C293.556 64.006 293.255 63.929 292.932 63.929C292.61 63.929 292.309 64.006 292.03 64.16C291.759 64.314 291.543 64.545 291.381 64.853C291.22 65.1537 291.139 65.524 291.139 65.964C291.139 66.6167 291.304 67.1227 291.634 67.482C291.972 67.834 292.393 68.01 292.899 68.01ZM298.748 63.962V67.317C298.748 67.5443 298.799 67.7093 298.902 67.812C299.012 67.9073 299.195 67.955 299.452 67.955H300.222V69H299.232C298.667 69 298.235 68.868 297.934 68.604C297.633 68.34 297.483 67.911 297.483 67.317V63.962H296.768V62.939H297.483V61.432H298.748V62.939H300.222V63.962H298.748ZM305.489 63.819C305.672 63.511 305.914 63.2727 306.215 63.104C306.523 62.928 306.886 62.84 307.304 62.84V64.138H306.985C306.494 64.138 306.12 64.2627 305.863 64.512C305.614 64.7613 305.489 65.194 305.489 65.81V69H304.235V62.939H305.489V63.819ZM314.012 65.821C314.012 66.0483 313.997 66.2537 313.968 66.437H309.337C309.374 66.921 309.553 67.3097 309.876 67.603C310.199 67.8963 310.595 68.043 311.064 68.043C311.739 68.043 312.215 67.7607 312.494 67.196H313.847C313.664 67.7533 313.33 68.2117 312.846 68.571C312.369 68.923 311.775 69.099 311.064 69.099C310.485 69.099 309.964 68.9707 309.502 68.714C309.047 68.45 308.688 68.0833 308.424 67.614C308.167 67.1373 308.039 66.5873 308.039 65.964C308.039 65.3407 308.164 64.7943 308.413 64.325C308.67 63.8483 309.025 63.4817 309.48 63.225C309.942 62.9683 310.47 62.84 311.064 62.84C311.636 62.84 312.146 62.9647 312.593 63.214C313.04 63.4633 313.389 63.8153 313.638 64.27C313.887 64.7173 314.012 65.2343 314.012 65.821ZM312.703 65.425C312.696 64.963 312.531 64.5927 312.208 64.314C311.885 64.0353 311.486 63.896 311.009 63.896C310.576 63.896 310.206 64.0353 309.898 64.314C309.59 64.5853 309.407 64.9557 309.348 65.425H312.703ZM317.446 69.099C316.969 69.099 316.54 69.0147 316.159 68.846C315.785 68.67 315.488 68.4353 315.268 68.142C315.048 67.8413 314.931 67.5077 314.916 67.141H316.214C316.236 67.3977 316.357 67.614 316.577 67.79C316.804 67.9587 317.087 68.043 317.424 68.043C317.776 68.043 318.047 67.977 318.238 67.845C318.436 67.7057 318.535 67.5297 318.535 67.317C318.535 67.0897 318.425 66.921 318.205 66.811C317.992 66.701 317.651 66.58 317.182 66.448C316.727 66.3233 316.357 66.2023 316.071 66.085C315.785 65.9677 315.536 65.788 315.323 65.546C315.118 65.304 315.015 64.985 315.015 64.589C315.015 64.2663 315.11 63.973 315.301 63.709C315.492 63.4377 315.763 63.225 316.115 63.071C316.474 62.917 316.885 62.84 317.347 62.84C318.036 62.84 318.59 63.016 319.008 63.368C319.433 63.7127 319.661 64.1857 319.69 64.787H318.436C318.414 64.5157 318.304 64.2993 318.106 64.138C317.908 63.9767 317.64 63.896 317.303 63.896C316.973 63.896 316.72 63.9583 316.544 64.083C316.368 64.2077 316.28 64.3727 316.28 64.578C316.28 64.7393 316.339 64.875 316.456 64.985C316.573 65.095 316.716 65.183 316.885 65.249C317.054 65.3077 317.303 65.3847 317.633 65.48C318.073 65.5973 318.432 65.7183 318.711 65.843C318.997 65.9603 319.243 66.1363 319.448 66.371C319.653 66.6057 319.76 66.9173 319.767 67.306C319.767 67.6507 319.672 67.9587 319.481 68.23C319.29 68.5013 319.019 68.714 318.667 68.868C318.322 69.022 317.915 69.099 317.446 69.099ZM322.376 63.83C322.589 63.5513 322.878 63.3167 323.245 63.126C323.612 62.9353 324.026 62.84 324.488 62.84C325.016 62.84 325.496 62.972 325.929 63.236C326.369 63.4927 326.714 63.8557 326.963 64.325C327.212 64.7943 327.337 65.3333 327.337 65.942C327.337 66.5507 327.212 67.097 326.963 67.581C326.714 68.0577 326.369 68.4317 325.929 68.703C325.496 68.967 325.016 69.099 324.488 69.099C324.026 69.099 323.615 69.0073 323.256 68.824C322.897 68.6333 322.603 68.3987 322.376 68.12V71.882H321.122V62.939H322.376V63.83ZM326.061 65.942C326.061 65.524 325.973 65.1647 325.797 64.864C325.628 64.556 325.401 64.325 325.115 64.171C324.836 64.0097 324.536 63.929 324.213 63.929C323.898 63.929 323.597 64.0097 323.311 64.171C323.032 64.3323 322.805 64.567 322.629 64.875C322.46 65.183 322.376 65.546 322.376 65.964C322.376 66.382 322.46 66.7487 322.629 67.064C322.805 67.372 323.032 67.6067 323.311 67.768C323.597 67.9293 323.898 68.01 324.213 68.01C324.536 68.01 324.836 67.9293 325.115 67.768C325.401 67.5993 325.628 67.3573 325.797 67.042C325.973 66.7267 326.061 66.36 326.061 65.942ZM331.206 69.099C330.634 69.099 330.117 68.9707 329.655 68.714C329.193 68.45 328.83 68.0833 328.566 67.614C328.302 67.1373 328.17 66.5873 328.17 65.964C328.17 65.348 328.306 64.8017 328.577 64.325C328.848 63.8483 329.219 63.4817 329.688 63.225C330.157 62.9683 330.682 62.84 331.261 62.84C331.84 62.84 332.365 62.9683 332.834 63.225C333.303 63.4817 333.674 63.8483 333.945 64.325C334.216 64.8017 334.352 65.348 334.352 65.964C334.352 66.58 334.213 67.1263 333.934 67.603C333.655 68.0797 333.274 68.45 332.79 68.714C332.313 68.9707 331.785 69.099 331.206 69.099ZM331.206 68.01C331.529 68.01 331.829 67.933 332.108 67.779C332.394 67.625 332.625 67.394 332.801 67.086C332.977 66.778 333.065 66.404 333.065 65.964C333.065 65.524 332.981 65.1537 332.812 64.853C332.643 64.545 332.42 64.314 332.141 64.16C331.862 64.006 331.562 63.929 331.239 63.929C330.916 63.929 330.616 64.006 330.337 64.16C330.066 64.314 329.849 64.545 329.688 64.853C329.527 65.1537 329.446 65.524 329.446 65.964C329.446 66.6167 329.611 67.1227 329.941 67.482C330.278 67.834 330.7 68.01 331.206 68.01ZM338.65 62.84C339.126 62.84 339.552 62.939 339.926 63.137C340.307 63.335 340.604 63.6283 340.817 64.017C341.029 64.4057 341.136 64.875 341.136 65.425V69H339.893V65.612C339.893 65.0693 339.757 64.655 339.486 64.369C339.214 64.0757 338.844 63.929 338.375 63.929C337.905 63.929 337.531 64.0757 337.253 64.369C336.981 64.655 336.846 65.0693 336.846 65.612V69H335.592V62.939H336.846V63.632C337.051 63.3827 337.311 63.1883 337.627 63.049C337.949 62.9097 338.29 62.84 338.65 62.84ZM344.935 69.099C344.458 69.099 344.029 69.0147 343.648 68.846C343.274 68.67 342.977 68.4353 342.757 68.142C342.537 67.8413 342.42 67.5077 342.405 67.141H343.703C343.725 67.3977 343.846 67.614 344.066 67.79C344.293 67.9587 344.576 68.043 344.913 68.043C345.265 68.043 345.536 67.977 345.727 67.845C345.925 67.7057 346.024 67.5297 346.024 67.317C346.024 67.0897 345.914 66.921 345.694 66.811C345.481 66.701 345.14 66.58 344.671 66.448C344.216 66.3233 343.846 66.2023 343.56 66.085C343.274 65.9677 343.025 65.788 342.812 65.546C342.607 65.304 342.504 64.985 342.504 64.589C342.504 64.2663 342.599 63.973 342.79 63.709C342.981 63.4377 343.252 63.225 343.604 63.071C343.963 62.917 344.374 62.84 344.836 62.84C345.525 62.84 346.079 63.016 346.497 63.368C346.922 63.7127 347.15 64.1857 347.179 64.787H345.925C345.903 64.5157 345.793 64.2993 345.595 64.138C345.397 63.9767 345.129 63.896 344.792 63.896C344.462 63.896 344.209 63.9583 344.033 64.083C343.857 64.2077 343.769 64.3727 343.769 64.578C343.769 64.7393 343.828 64.875 343.945 64.985C344.062 65.095 344.205 65.183 344.374 65.249C344.543 65.3077 344.792 65.3847 345.122 65.48C345.562 65.5973 345.921 65.7183 346.2 65.843C346.486 65.9603 346.732 66.1363 346.937 66.371C347.142 66.6057 347.249 66.9173 347.256 67.306C347.256 67.6507 347.161 67.9587 346.97 68.23C346.779 68.5013 346.508 68.714 346.156 68.868C345.811 69.022 345.404 69.099 344.935 69.099ZM349.249 62.136C349.022 62.136 348.831 62.059 348.677 61.905C348.523 61.751 348.446 61.5603 348.446 61.333C348.446 61.1057 348.523 60.915 348.677 60.761C348.831 60.607 349.022 60.53 349.249 60.53C349.469 60.53 349.656 60.607 349.81 60.761C349.964 60.915 350.041 61.1057 350.041 61.333C350.041 61.5603 349.964 61.751 349.81 61.905C349.656 62.059 349.469 62.136 349.249 62.136ZM349.865 62.939V69H348.611V62.939H349.865ZM352.766 63.841C352.978 63.5477 353.268 63.3093 353.635 63.126C354.009 62.9353 354.423 62.84 354.878 62.84C355.413 62.84 355.897 62.9683 356.33 63.225C356.762 63.4817 357.103 63.8483 357.353 64.325C357.602 64.7943 357.727 65.3333 357.727 65.942C357.727 66.5507 357.602 67.097 357.353 67.581C357.103 68.0577 356.759 68.4317 356.319 68.703C355.886 68.967 355.406 69.099 354.878 69.099C354.408 69.099 353.99 69.0073 353.624 68.824C353.264 68.6407 352.978 68.406 352.766 68.12V69H351.512V60.86H352.766V63.841ZM356.451 65.942C356.451 65.524 356.363 65.1647 356.187 64.864C356.018 64.556 355.791 64.325 355.505 64.171C355.226 64.0097 354.925 63.929 354.603 63.929C354.287 63.929 353.987 64.0097 353.701 64.171C353.422 64.3323 353.195 64.567 353.019 64.875C352.85 65.183 352.766 65.546 352.766 65.964C352.766 66.382 352.85 66.7487 353.019 67.064C353.195 67.372 353.422 67.6067 353.701 67.768C353.987 67.9293 354.287 68.01 354.603 68.01C354.925 68.01 355.226 67.9293 355.505 67.768C355.791 67.5993 356.018 67.3573 356.187 67.042C356.363 66.7267 356.451 66.36 356.451 65.942ZM360.221 60.86V69H358.967V60.86H360.221ZM367.422 65.821C367.422 66.0483 367.407 66.2537 367.378 66.437H362.747C362.784 66.921 362.963 67.3097 363.286 67.603C363.609 67.8963 364.005 68.043 364.474 68.043C365.149 68.043 365.625 67.7607 365.904 67.196H367.257C367.074 67.7533 366.74 68.2117 366.256 68.571C365.779 68.923 365.185 69.099 364.474 69.099C363.895 69.099 363.374 68.9707 362.912 68.714C362.457 68.45 362.098 68.0833 361.834 67.614C361.577 67.1373 361.449 66.5873 361.449 65.964C361.449 65.3407 361.574 64.7943 361.823 64.325C362.08 63.8483 362.435 63.4817 362.89 63.225C363.352 62.9683 363.88 62.84 364.474 62.84C365.046 62.84 365.556 62.9647 366.003 63.214C366.45 63.4633 366.799 63.8153 367.048 64.27C367.297 64.7173 367.422 65.2343 367.422 65.821ZM366.113 65.425C366.106 64.963 365.941 64.5927 365.618 64.314C365.295 64.0353 364.896 63.896 364.419 63.896C363.986 63.896 363.616 64.0353 363.308 64.314C363 64.5853 362.817 64.9557 362.758 65.425H366.113ZM374.054 63.962H372.932V69H371.667V63.962H370.952V62.939H371.667V62.51C371.667 61.8133 371.851 61.3073 372.217 60.992C372.591 60.6693 373.174 60.508 373.966 60.508V61.553C373.585 61.553 373.317 61.6263 373.163 61.773C373.009 61.9123 372.932 62.158 372.932 62.51V62.939H374.054V63.962ZM377.795 69.099C377.223 69.099 376.706 68.9707 376.244 68.714C375.782 68.45 375.419 68.0833 375.155 67.614C374.891 67.1373 374.759 66.5873 374.759 65.964C374.759 65.348 374.894 64.8017 375.166 64.325C375.437 63.8483 375.807 63.4817 376.277 63.225C376.746 62.9683 377.27 62.84 377.85 62.84C378.429 62.84 378.953 62.9683 379.423 63.225C379.892 63.4817 380.262 63.8483 380.534 64.325C380.805 64.8017 380.941 65.348 380.941 65.964C380.941 66.58 380.801 67.1263 380.523 67.603C380.244 68.0797 379.863 68.45 379.379 68.714C378.902 68.9707 378.374 69.099 377.795 69.099ZM377.795 68.01C378.117 68.01 378.418 67.933 378.697 67.779C378.983 67.625 379.214 67.394 379.39 67.086C379.566 66.778 379.654 66.404 379.654 65.964C379.654 65.524 379.569 65.1537 379.401 64.853C379.232 64.545 379.008 64.314 378.73 64.16C378.451 64.006 378.15 63.929 377.828 63.929C377.505 63.929 377.204 64.006 376.926 64.16C376.654 64.314 376.438 64.545 376.277 64.853C376.115 65.1537 376.035 65.524 376.035 65.964C376.035 66.6167 376.2 67.1227 376.53 67.482C376.867 67.834 377.289 68.01 377.795 68.01ZM383.434 63.819C383.618 63.511 383.86 63.2727 384.16 63.104C384.468 62.928 384.831 62.84 385.249 62.84V64.138H384.93C384.439 64.138 384.065 64.2627 383.808 64.512C383.559 64.7613 383.434 65.194 383.434 65.81V69H382.18V62.939H383.434V63.819ZM40.78 77.355L38.514 85H37.095L35.489 79.214L33.784 85L32.376 85.011L30.209 77.355H31.54L33.124 83.581L34.84 77.355H36.248L37.843 83.548L39.438 77.355H40.78ZM42.4523 78.136C42.2249 78.136 42.0343 78.059 41.8803 77.905C41.7263 77.751 41.6493 77.5603 41.6493 77.333C41.6493 77.1057 41.7263 76.915 41.8803 76.761C42.0343 76.607 42.2249 76.53 42.4523 76.53C42.6723 76.53 42.8593 76.607 43.0133 76.761C43.1673 76.915 43.2443 77.1057 43.2443 77.333C43.2443 77.5603 43.1673 77.751 43.0133 77.905C42.8593 78.059 42.6723 78.136 42.4523 78.136ZM43.0683 78.939V85H41.8143V78.939H43.0683ZM47.7726 78.84C48.2493 78.84 48.6746 78.939 49.0486 79.137C49.43 79.335 49.727 79.6283 49.9396 80.017C50.1523 80.4057 50.2586 80.875 50.2586 81.425V85H49.0156V81.612C49.0156 81.0693 48.88 80.655 48.6086 80.369C48.3373 80.0757 47.967 79.929 47.4976 79.929C47.0283 79.929 46.6543 80.0757 46.3756 80.369C46.1043 80.655 45.9686 81.0693 45.9686 81.612V85H44.7146V78.939H45.9686V79.632C46.174 79.3827 46.4343 79.1883 46.7496 79.049C47.0723 78.9097 47.4133 78.84 47.7726 78.84ZM51.4402 81.942C51.4402 81.3333 51.5649 80.7943 51.8142 80.325C52.0709 79.8557 52.4155 79.4927 52.8482 79.236C53.2882 78.972 53.7759 78.84 54.3112 78.84C54.7072 78.84 55.0959 78.928 55.4772 79.104C55.8659 79.2727 56.1739 79.5 56.4012 79.786V76.86H57.6662V85H56.4012V84.087C56.1959 84.3803 55.9099 84.6223 55.5432 84.813C55.1839 85.0037 54.7695 85.099 54.3002 85.099C53.7722 85.099 53.2882 84.967 52.8482 84.703C52.4155 84.4317 52.0709 84.0577 51.8142 83.581C51.5649 83.097 51.4402 82.5507 51.4402 81.942ZM56.4012 81.964C56.4012 81.546 56.3132 81.183 56.1372 80.875C55.9685 80.567 55.7449 80.3323 55.4662 80.171C55.1875 80.0097 54.8869 79.929 54.5642 79.929C54.2415 79.929 53.9409 80.0097 53.6622 80.171C53.3835 80.325 53.1562 80.556 52.9802 80.864C52.8115 81.1647 52.7272 81.524 52.7272 81.942C52.7272 82.36 52.8115 82.7267 52.9802 83.042C53.1562 83.3573 53.3835 83.5993 53.6622 83.768C53.9482 83.9293 54.2489 84.01 54.5642 84.01C54.8869 84.01 55.1875 83.9293 55.4662 83.768C55.7449 83.6067 55.9685 83.372 56.1372 83.064C56.3132 82.7487 56.4012 82.382 56.4012 81.964ZM61.9423 85.099C61.3703 85.099 60.8533 84.9707 60.3913 84.714C59.9293 84.45 59.5663 84.0833 59.3023 83.614C59.0383 83.1373 58.9063 82.5873 58.9063 81.964C58.9063 81.348 59.0419 80.8017 59.3133 80.325C59.5846 79.8483 59.9549 79.4817 60.4243 79.225C60.8936 78.9683 61.4179 78.84 61.9973 78.84C62.5766 78.84 63.1009 78.9683 63.5703 79.225C64.0396 79.4817 64.4099 79.8483 64.6813 80.325C64.9526 80.8017 65.0883 81.348 65.0883 81.964C65.0883 82.58 64.9489 83.1263 64.6703 83.603C64.3916 84.0797 64.0103 84.45 63.5263 84.714C63.0496 84.9707 62.5216 85.099 61.9423 85.099ZM61.9423 84.01C62.2649 84.01 62.5656 83.933 62.8443 83.779C63.1303 83.625 63.3613 83.394 63.5373 83.086C63.7133 82.778 63.8013 82.404 63.8013 81.964C63.8013 81.524 63.7169 81.1537 63.5483 80.853C63.3796 80.545 63.1559 80.314 62.8773 80.16C62.5986 80.006 62.2979 79.929 61.9753 79.929C61.6526 79.929 61.3519 80.006 61.0733 80.16C60.8019 80.314 60.5856 80.545 60.4243 80.853C60.2629 81.1537 60.1823 81.524 60.1823 81.964C60.1823 82.6167 60.3473 83.1227 60.6773 83.482C61.0146 83.834 61.4363 84.01 61.9423 84.01ZM74.4679 78.939L72.5869 85H71.2669L70.0459 80.523L68.8249 85H67.5049L65.6129 78.939H66.8889L68.1539 83.812L69.4409 78.939H70.7499L71.9819 83.79L73.2359 78.939H74.4679ZM77.6051 85.099C77.1284 85.099 76.6994 85.0147 76.3181 84.846C75.9441 84.67 75.6471 84.4353 75.4271 84.142C75.2071 83.8413 75.0897 83.5077 75.0751 83.141H76.3731C76.3951 83.3977 76.5161 83.614 76.7361 83.79C76.9634 83.9587 77.2457 84.043 77.5831 84.043C77.9351 84.043 78.2064 83.977 78.3971 83.845C78.5951 83.7057 78.6941 83.5297 78.6941 83.317C78.6941 83.0897 78.5841 82.921 78.3641 82.811C78.1514 82.701 77.8104 82.58 77.3411 82.448C76.8864 82.3233 76.5161 82.2023 76.2301 82.085C75.9441 81.9677 75.6947 81.788 75.4821 81.546C75.2767 81.304 75.1741 80.985 75.1741 80.589C75.1741 80.2663 75.2694 79.973 75.4601 79.709C75.6507 79.4377 75.9221 79.225 76.2741 79.071C76.6334 78.917 77.0441 78.84 77.5061 78.84C78.1954 78.84 78.7491 79.016 79.1671 79.368C79.5924 79.7127 79.8197 80.1857 79.8491 80.787H78.5951C78.5731 80.5157 78.4631 80.2993 78.2651 80.138C78.0671 79.9767 77.7994 79.896 77.4621 79.896C77.1321 79.896 76.8791 79.9583 76.7031 80.083C76.5271 80.2077 76.4391 80.3727 76.4391 80.578C76.4391 80.7393 76.4977 80.875 76.6151 80.985C76.7324 81.095 76.8754 81.183 77.0441 81.249C77.2127 81.3077 77.4621 81.3847 77.7921 81.48C78.2321 81.5973 78.5914 81.7183 78.8701 81.843C79.1561 81.9603 79.4017 82.1363 79.6071 82.371C79.8124 82.6057 79.9187 82.9173 79.9261 83.306C79.9261 83.6507 79.8307 83.9587 79.6401 84.23C79.4494 84.5013 79.1781 84.714 78.8261 84.868C78.4814 85.022 78.0744 85.099 77.6051 85.099ZM83.8085 78.125V76.981H86.0965V85H84.8315V78.125H83.8085ZM87.6542 78.125V76.981H89.9422V85H88.6772V78.125H87.6542ZM97.2063 85.077C96.693 85.077 96.231 84.989 95.8203 84.813C95.4096 84.6297 95.087 84.373 94.8523 84.043C94.6176 83.713 94.5003 83.328 94.5003 82.888H95.8423C95.8716 83.218 96 83.4893 96.2273 83.702C96.462 83.9147 96.7883 84.021 97.2063 84.021C97.639 84.021 97.9763 83.9183 98.2183 83.713C98.4603 83.5003 98.5813 83.229 98.5813 82.899C98.5813 82.6423 98.5043 82.4333 98.3503 82.272C98.2036 82.1107 98.0166 81.986 97.7893 81.898C97.5693 81.81 97.2613 81.7147 96.8653 81.612C96.3666 81.48 95.9596 81.348 95.6443 81.216C95.3363 81.0767 95.0723 80.864 94.8523 80.578C94.6323 80.292 94.5223 79.9107 94.5223 79.434C94.5223 78.994 94.6323 78.609 94.8523 78.279C95.0723 77.949 95.3803 77.696 95.7763 77.52C96.1723 77.344 96.6306 77.256 97.1513 77.256C97.892 77.256 98.497 77.443 98.9663 77.817C99.443 78.1837 99.707 78.6897 99.7583 79.335H98.3723C98.3503 79.0563 98.2183 78.818 97.9763 78.62C97.7343 78.422 97.4153 78.323 97.0193 78.323C96.66 78.323 96.3666 78.4147 96.1393 78.598C95.912 78.7813 95.7983 79.0453 95.7983 79.39C95.7983 79.6247 95.868 79.819 96.0073 79.973C96.154 80.1197 96.3373 80.237 96.5573 80.325C96.7773 80.413 97.078 80.5083 97.4593 80.611C97.9653 80.7503 98.376 80.8897 98.6913 81.029C99.014 81.1683 99.2853 81.3847 99.5053 81.678C99.7326 81.964 99.8463 82.349 99.8463 82.833C99.8463 83.2217 99.74 83.5883 99.5273 83.933C99.322 84.2777 99.0176 84.5563 98.6143 84.769C98.2183 84.9743 97.749 85.077 97.2063 85.077ZM102.58 78.367V80.611H105.22V81.634H102.58V83.977H105.55V85H101.326V77.344H105.55V78.367H102.58ZM117.289 78.84C117.766 78.84 118.191 78.939 118.565 79.137C118.946 79.335 119.243 79.6283 119.456 80.017C119.676 80.4057 119.786 80.875 119.786 81.425V85H118.543V81.612C118.543 81.0693 118.407 80.655 118.136 80.369C117.865 80.0757 117.494 79.929 117.025 79.929C116.556 79.929 116.182 80.0757 115.903 80.369C115.632 80.655 115.496 81.0693 115.496 81.612V85H114.253V81.612C114.253 81.0693 114.117 80.655 113.846 80.369C113.575 80.0757 113.204 79.929 112.735 79.929C112.266 79.929 111.892 80.0757 111.613 80.369C111.342 80.655 111.206 81.0693 111.206 81.612V85H109.952V78.939H111.206V79.632C111.411 79.3827 111.672 79.1883 111.987 79.049C112.302 78.9097 112.64 78.84 112.999 78.84C113.483 78.84 113.916 78.9427 114.297 79.148C114.678 79.3533 114.972 79.6503 115.177 80.039C115.36 79.6723 115.646 79.3827 116.035 79.17C116.424 78.95 116.842 78.84 117.289 78.84ZM120.964 81.942C120.964 81.3333 121.088 80.7943 121.338 80.325C121.594 79.8557 121.939 79.4927 122.372 79.236C122.812 78.972 123.296 78.84 123.824 78.84C124.3 78.84 124.715 78.9353 125.067 79.126C125.426 79.3093 125.712 79.5403 125.925 79.819V78.939H127.19V85H125.925V84.098C125.712 84.384 125.422 84.6223 125.056 84.813C124.689 85.0037 124.271 85.099 123.802 85.099C123.281 85.099 122.804 84.967 122.372 84.703C121.939 84.4317 121.594 84.0577 121.338 83.581C121.088 83.097 120.964 82.5507 120.964 81.942ZM125.925 81.964C125.925 81.546 125.837 81.183 125.661 80.875C125.492 80.567 125.268 80.3323 124.99 80.171C124.711 80.0097 124.41 79.929 124.088 79.929C123.765 79.929 123.464 80.0097 123.186 80.171C122.907 80.325 122.68 80.556 122.504 80.864C122.335 81.1647 122.251 81.524 122.251 81.942C122.251 82.36 122.335 82.7267 122.504 83.042C122.68 83.3573 122.907 83.5993 123.186 83.768C123.472 83.9293 123.772 84.01 124.088 84.01C124.41 84.01 124.711 83.9293 124.99 83.768C125.268 83.6067 125.492 83.372 125.661 83.064C125.837 82.7487 125.925 82.382 125.925 81.964ZM130.091 76.86V85H128.837V76.86H130.091ZM134.278 79.962H133.156V85H131.891V79.962H131.176V78.939H131.891V78.51C131.891 77.8133 132.074 77.3073 132.441 76.992C132.815 76.6693 133.398 76.508 134.19 76.508V77.553C133.809 77.553 133.541 77.6263 133.387 77.773C133.233 77.9123 133.156 78.158 133.156 78.51V78.939H134.278V79.962ZM140.878 78.939V85H139.624V84.285C139.426 84.5343 139.166 84.7323 138.843 84.879C138.528 85.0183 138.191 85.088 137.831 85.088C137.355 85.088 136.926 84.989 136.544 84.791C136.17 84.593 135.873 84.2997 135.653 83.911C135.441 83.5223 135.334 83.053 135.334 82.503V78.939H136.577V82.316C136.577 82.8587 136.713 83.2767 136.984 83.57C137.256 83.856 137.626 83.999 138.095 83.999C138.565 83.999 138.935 83.856 139.206 83.57C139.485 83.2767 139.624 82.8587 139.624 82.316V78.939H140.878ZM145.591 78.84C146.068 78.84 146.493 78.939 146.867 79.137C147.248 79.335 147.545 79.6283 147.758 80.017C147.971 80.4057 148.077 80.875 148.077 81.425V85H146.834V81.612C146.834 81.0693 146.698 80.655 146.427 80.369C146.156 80.0757 145.785 79.929 145.316 79.929C144.847 79.929 144.473 80.0757 144.194 80.369C143.923 80.655 143.787 81.0693 143.787 81.612V85H142.533V78.939H143.787V79.632C143.992 79.3827 144.253 79.1883 144.568 79.049C144.891 78.9097 145.232 78.84 145.591 78.84ZM149.259 81.964C149.259 81.3407 149.383 80.7943 149.633 80.325C149.889 79.8483 150.241 79.4817 150.689 79.225C151.136 78.9683 151.649 78.84 152.229 78.84C152.962 78.84 153.567 79.016 154.044 79.368C154.528 79.7127 154.854 80.2077 155.023 80.853H153.67C153.56 80.5523 153.384 80.3177 153.142 80.149C152.9 79.9803 152.595 79.896 152.229 79.896C151.715 79.896 151.305 80.0793 150.997 80.446C150.696 80.8053 150.546 81.3113 150.546 81.964C150.546 82.6167 150.696 83.1263 150.997 83.493C151.305 83.8597 151.715 84.043 152.229 84.043C152.955 84.043 153.435 83.724 153.67 83.086H155.023C154.847 83.702 154.517 84.1933 154.033 84.56C153.549 84.9193 152.947 85.099 152.229 85.099C151.649 85.099 151.136 84.9707 150.689 84.714C150.241 84.45 149.889 84.0833 149.633 83.614C149.383 83.1373 149.259 82.5873 149.259 81.964ZM157.735 79.962V83.317C157.735 83.5443 157.787 83.7093 157.889 83.812C157.999 83.9073 158.183 83.955 158.439 83.955H159.209V85H158.219C157.655 85 157.222 84.868 156.921 84.604C156.621 84.34 156.47 83.911 156.47 83.317V79.962H155.755V78.939H156.47V77.432H157.735V78.939H159.209V79.962H157.735ZM161.003 78.136C160.776 78.136 160.585 78.059 160.431 77.905C160.277 77.751 160.2 77.5603 160.2 77.333C160.2 77.1057 160.277 76.915 160.431 76.761C160.585 76.607 160.776 76.53 161.003 76.53C161.223 76.53 161.41 76.607 161.564 76.761C161.718 76.915 161.795 77.1057 161.795 77.333C161.795 77.5603 161.718 77.751 161.564 77.905C161.41 78.059 161.223 78.136 161.003 78.136ZM161.619 78.939V85H160.365V78.939H161.619ZM165.894 85.099C165.322 85.099 164.805 84.9707 164.343 84.714C163.881 84.45 163.518 84.0833 163.254 83.614C162.99 83.1373 162.858 82.5873 162.858 81.964C162.858 81.348 162.994 80.8017 163.265 80.325C163.537 79.8483 163.907 79.4817 164.376 79.225C164.846 78.9683 165.37 78.84 165.949 78.84C166.529 78.84 167.053 78.9683 167.522 79.225C167.992 79.4817 168.362 79.8483 168.633 80.325C168.905 80.8017 169.04 81.348 169.04 81.964C169.04 82.58 168.901 83.1263 168.622 83.603C168.344 84.0797 167.962 84.45 167.478 84.714C167.002 84.9707 166.474 85.099 165.894 85.099ZM165.894 84.01C166.217 84.01 166.518 83.933 166.796 83.779C167.082 83.625 167.313 83.394 167.489 83.086C167.665 82.778 167.753 82.404 167.753 81.964C167.753 81.524 167.669 81.1537 167.5 80.853C167.332 80.545 167.108 80.314 166.829 80.16C166.551 80.006 166.25 79.929 165.927 79.929C165.605 79.929 165.304 80.006 165.025 80.16C164.754 80.314 164.538 80.545 164.376 80.853C164.215 81.1537 164.134 81.524 164.134 81.964C164.134 82.6167 164.299 83.1227 164.629 83.482C164.967 83.834 165.388 84.01 165.894 84.01ZM173.338 78.84C173.815 78.84 174.24 78.939 174.614 79.137C174.995 79.335 175.292 79.6283 175.505 80.017C175.718 80.4057 175.824 80.875 175.824 81.425V85H174.581V81.612C174.581 81.0693 174.445 80.655 174.174 80.369C173.903 80.0757 173.532 79.929 173.063 79.929C172.594 79.929 172.22 80.0757 171.941 80.369C171.67 80.655 171.534 81.0693 171.534 81.612V85H170.28V78.939H171.534V79.632C171.739 79.3827 172 79.1883 172.315 79.049C172.638 78.9097 172.979 78.84 173.338 78.84ZM179.624 85.099C179.147 85.099 178.718 85.0147 178.337 84.846C177.963 84.67 177.666 84.4353 177.446 84.142C177.226 83.8413 177.108 83.5077 177.094 83.141H178.392C178.414 83.3977 178.535 83.614 178.755 83.79C178.982 83.9587 179.264 84.043 179.602 84.043C179.954 84.043 180.225 83.977 180.416 83.845C180.614 83.7057 180.713 83.5297 180.713 83.317C180.713 83.0897 180.603 82.921 180.383 82.811C180.17 82.701 179.829 82.58 179.36 82.448C178.905 82.3233 178.535 82.2023 178.249 82.085C177.963 81.9677 177.713 81.788 177.501 81.546C177.295 81.304 177.193 80.985 177.193 80.589C177.193 80.2663 177.288 79.973 177.479 79.709C177.669 79.4377 177.941 79.225 178.293 79.071C178.652 78.917 179.063 78.84 179.525 78.84C180.214 78.84 180.768 79.016 181.186 79.368C181.611 79.7127 181.838 80.1857 181.868 80.787H180.614C180.592 80.5157 180.482 80.2993 180.284 80.138C180.086 79.9767 179.818 79.896 179.481 79.896C179.151 79.896 178.898 79.9583 178.722 80.083C178.546 80.2077 178.458 80.3727 178.458 80.578C178.458 80.7393 178.516 80.875 178.634 80.985C178.751 81.095 178.894 81.183 179.063 81.249C179.231 81.3077 179.481 81.3847 179.811 81.48C180.251 81.5973 180.61 81.7183 180.889 81.843C181.175 81.9603 181.42 82.1363 181.626 82.371C181.831 82.6057 181.937 82.9173 181.945 83.306C181.945 83.6507 181.849 83.9587 181.659 84.23C181.468 84.5013 181.197 84.714 180.845 84.868C180.5 85.022 180.093 85.099 179.624 85.099ZM183.806 85.077C183.578 85.077 183.388 85 183.234 84.846C183.08 84.692 183.003 84.5013 183.003 84.274C183.003 84.0467 183.08 83.856 183.234 83.702C183.388 83.548 183.578 83.471 183.806 83.471C184.026 83.471 184.213 83.548 184.367 83.702C184.521 83.856 184.598 84.0467 184.598 84.274C184.598 84.5013 184.521 84.692 184.367 84.846C184.213 85 184.026 85.077 183.806 85.077Z"></path>
<mask fill="white" id="path-4-inside-1_747_129">
<path d="M410 75C410 72.2386 412.239 70 415 70H455C457.761 70 460 72.2386 460 75V95C460 97.7614 457.761 100 455 100H415C412.239 100 410 97.7614 410 95V75Z"></path>
</mask>
<path fill-opacity="0.05" fill="white" d="M410 75C410 72.2386 412.239 70 415 70H455C457.761 70 460 72.2386 460 75V95C460 97.7614 457.761 100 455 100H415C412.239 100 410 97.7614 410 95V75Z"></path>
<path mask="url(#path-4-inside-1_747_129)" fill-opacity="0.05" fill="white" d="M410 75C410 71.6863 412.686 69 416 69H454C457.314 69 460 71.6863 460 75C460 72.7909 457.761 71 455 71H415C412.239 71 410 72.7909 410 75ZM460 100H410H460ZM410 100V70V100ZM460 70V100V70Z"></path>
<path fill="white" d="M431.827 81.355L429.297 86.228V89H428.043V86.228L425.502 81.355H426.899L428.67 85.106L430.441 81.355H431.827ZM438.378 85.821C438.378 86.0483 438.363 86.2537 438.334 86.437H433.703C433.739 86.921 433.919 87.3097 434.242 87.603C434.564 87.8963 434.96 88.043 435.43 88.043C436.104 88.043 436.581 87.7607 436.86 87.196H438.213C438.029 87.7533 437.696 88.2117 437.212 88.571C436.735 88.923 436.141 89.099 435.43 89.099C434.85 89.099 434.33 88.9707 433.868 88.714C433.413 88.45 433.054 88.0833 432.79 87.614C432.533 87.1373 432.405 86.5873 432.405 85.964C432.405 85.3407 432.529 84.7943 432.779 84.325C433.035 83.8483 433.391 83.4817 433.846 83.225C434.308 82.9683 434.836 82.84 435.43 82.84C436.002 82.84 436.511 82.9647 436.959 83.214C437.406 83.4633 437.754 83.8153 438.004 84.27C438.253 84.7173 438.378 85.2343 438.378 85.821ZM437.069 85.425C437.061 84.963 436.896 84.5927 436.574 84.314C436.251 84.0353 435.851 83.896 435.375 83.896C434.942 83.896 434.572 84.0353 434.264 84.314C433.956 84.5853 433.772 84.9557 433.714 85.425H437.069ZM441.812 89.099C441.335 89.099 440.906 89.0147 440.525 88.846C440.151 88.67 439.854 88.4353 439.634 88.142C439.414 87.8413 439.296 87.5077 439.282 87.141H440.58C440.602 87.3977 440.723 87.614 440.943 87.79C441.17 87.9587 441.452 88.043 441.79 88.043C442.142 88.043 442.413 87.977 442.604 87.845C442.802 87.7057 442.901 87.5297 442.901 87.317C442.901 87.0897 442.791 86.921 442.571 86.811C442.358 86.701 442.017 86.58 441.548 86.448C441.093 86.3233 440.723 86.2023 440.437 86.085C440.151 85.9677 439.901 85.788 439.689 85.546C439.483 85.304 439.381 84.985 439.381 84.589C439.381 84.2663 439.476 83.973 439.667 83.709C439.857 83.4377 440.129 83.225 440.481 83.071C440.84 82.917 441.251 82.84 441.713 82.84C442.402 82.84 442.956 83.016 443.374 83.368C443.799 83.7127 444.026 84.1857 444.056 84.787H442.802C442.78 84.5157 442.67 84.2993 442.472 84.138C442.274 83.9767 442.006 83.896 441.669 83.896C441.339 83.896 441.086 83.9583 440.91 84.083C440.734 84.2077 440.646 84.3727 440.646 84.578C440.646 84.7393 440.704 84.875 440.822 84.985C440.939 85.095 441.082 85.183 441.251 85.249C441.419 85.3077 441.669 85.3847 441.999 85.48C442.439 85.5973 442.798 85.7183 443.077 85.843C443.363 85.9603 443.608 86.1363 443.814 86.371C444.019 86.6057 444.125 86.9173 444.133 87.306C444.133 87.6507 444.037 87.9587 443.847 88.23C443.656 88.5013 443.385 88.714 443.033 88.868C442.688 89.022 442.281 89.099 441.812 89.099Z"></path>
<mask fill="white" id="path-7-inside-2_747_129">
<path d="M410 35C410 32.2386 412.239 30 415 30H455C457.761 30 460 32.2386 460 35V55C460 57.7614 457.761 60 455 60H415C412.239 60 410 57.7614 410 55V35Z"></path>
</mask>
<path fill-opacity="0.05" fill="white" d="M410 35C410 32.2386 412.239 30 415 30H455C457.761 30 460 32.2386 460 35V55C460 57.7614 457.761 60 455 60H415C412.239 60 410 57.7614 410 55V35Z"></path>
<path mask="url(#path-7-inside-2_747_129)" fill-opacity="0.05" fill="white" d="M410 35C410 31.6863 412.686 29 416 29H454C457.314 29 460 31.6863 460 35C460 32.7909 457.761 31 455 31H415C412.239 31 410 32.7909 410 35ZM460 60H410H460ZM410 60V30V60ZM460 30V60V30Z"></path>
<path fill="white" d="M434.635 49H433.381L429.608 43.291V49H428.354V41.344H429.608L433.381 47.042V41.344H434.635V49ZM438.911 49.099C438.339 49.099 437.822 48.9707 437.36 48.714C436.898 48.45 436.535 48.0833 436.271 47.614C436.007 47.1373 435.875 46.5873 435.875 45.964C435.875 45.348 436.01 44.8017 436.282 44.325C436.553 43.8483 436.923 43.4817 437.393 43.225C437.862 42.9683 438.386 42.84 438.966 42.84C439.545 42.84 440.069 42.9683 440.539 43.225C441.008 43.4817 441.378 43.8483 441.65 44.325C441.921 44.8017 442.057 45.348 442.057 45.964C442.057 46.58 441.917 47.1263 441.639 47.603C441.36 48.0797 440.979 48.45 440.495 48.714C440.018 48.9707 439.49 49.099 438.911 49.099ZM438.911 48.01C439.233 48.01 439.534 47.933 439.813 47.779C440.099 47.625 440.33 47.394 440.506 47.086C440.682 46.778 440.77 46.404 440.77 45.964C440.77 45.524 440.685 45.1537 440.517 44.853C440.348 44.545 440.124 44.314 439.846 44.16C439.567 44.006 439.266 43.929 438.944 43.929C438.621 43.929 438.32 44.006 438.042 44.16C437.77 44.314 437.554 44.545 437.393 44.853C437.231 45.1537 437.151 45.524 437.151 45.964C437.151 46.6167 437.316 47.1227 437.646 47.482C437.983 47.834 438.405 48.01 438.911 48.01Z"></path>
</svg>
