<svg xmlns="http://www.w3.org/2000/svg" fill="none" viewBox="0 0 44 24" height="24" width="44">
<path fill-opacity="0.5" fill="#FF0000" d="M2 12C2 6.47715 6.47715 2 12 2H32C37.5228 2 42 6.47715 42 12V12C42 17.5228 37.5228 22 32 22H12C6.47715 22 2 17.5228 2 12V12Z"></path>
<path stroke-width="2" stroke-opacity="0.2" stroke="#FF0000" d="M32 1H12C5.92487 1 1 5.92487 1 12C1 18.0751 5.92487 23 12 23H32C38.0751 23 43 18.0751 43 12C43 5.92487 38.0751 1 32 1Z"></path>
<path fill="white" d="M23.5744 9.28C23.4864 8.912 23.3264 8.636 23.0944 8.452C22.8624 8.268 22.5384 8.176 22.1224 8.176C21.4904 8.176 21.0184 8.42 20.7064 8.908C20.3944 9.388 20.2304 10.188 20.2144 11.308C20.4224 10.956 20.7264 10.684 21.1264 10.492C21.5264 10.3 21.9584 10.204 22.4224 10.204C22.9504 10.204 23.4144 10.32 23.8144 10.552C24.2224 10.776 24.5384 11.104 24.7624 11.536C24.9944 11.968 25.1104 12.484 25.1104 13.084C25.1104 13.644 24.9984 14.144 24.7744 14.584C24.5584 15.024 24.2344 15.372 23.8024 15.628C23.3704 15.876 22.8504 16 22.2424 16C21.4184 16 20.7704 15.82 20.2984 15.46C19.8344 15.092 19.5064 14.576 19.3144 13.912C19.1304 13.248 19.0384 12.42 19.0384 11.428C19.0384 8.5 20.0704 7.036 22.1344 7.036C22.9344 7.036 23.5624 7.252 24.0184 7.684C24.4824 8.116 24.7544 8.648 24.8344 9.28H23.5744ZM22.1224 11.356C21.6344 11.356 21.2184 11.504 20.8744 11.8C20.5384 12.088 20.3704 12.508 20.3704 13.06C20.3704 13.612 20.5264 14.052 20.8384 14.38C21.1584 14.7 21.6024 14.86 22.1704 14.86C22.6744 14.86 23.0704 14.704 23.3584 14.392C23.6544 14.08 23.8024 13.664 23.8024 13.144C23.8024 12.6 23.6584 12.168 23.3704 11.848C23.0904 11.52 22.6744 11.356 22.1224 11.356Z"></path>
</svg>
