<svg xmlns="http://www.w3.org/2000/svg" fill="none" viewBox="0 0 480 90" height="90" width="480">
<path fill-opacity="0.9" fill="#E6E6E6" d="M10 30C10 24.4772 14.4772 20 20 20H460C465.523 20 470 24.4772 470 30V60C470 65.5228 465.523 70 460 70H20C14.4772 70 10 65.5228 10 60V30Z"></path>
<path stroke-width="2" stroke-opacity="0.2" stroke="black" d="M20 19C13.9249 19 9 23.9249 9 30V60C9 66.0751 13.9249 71 20 71H460C466.075 71 471 66.0751 471 60V30C471 23.9249 466.075 19 460 19H20Z"></path>
<path fill="black" d="M35.764 41.355V42.378H33.729V49H32.475V42.378H30.429V41.355H35.764ZM40.169 42.84C40.631 42.84 41.0417 42.939 41.401 43.137C41.7677 43.335 42.0537 43.6283 42.259 44.017C42.4717 44.4057 42.578 44.875 42.578 45.425V49H41.335V45.612C41.335 45.0693 41.1993 44.655 40.928 44.369C40.6567 44.0757 40.2863 43.929 39.817 43.929C39.3477 43.929 38.9737 44.0757 38.695 44.369C38.4237 44.655 38.288 45.0693 38.288 45.612V49H37.034V40.86H38.288V43.643C38.5007 43.3863 38.7683 43.1883 39.091 43.049C39.421 42.9097 39.7803 42.84 40.169 42.84ZM49.7325 45.821C49.7325 46.0483 49.7179 46.2537 49.6885 46.437H45.0575C45.0942 46.921 45.2739 47.3097 45.5965 47.603C45.9192 47.8963 46.3152 48.043 46.7845 48.043C47.4592 48.043 47.9359 47.7607 48.2145 47.196H49.5675C49.3842 47.7533 49.0505 48.2117 48.5665 48.571C48.0899 48.923 47.4959 49.099 46.7845 49.099C46.2052 49.099 45.6845 48.9707 45.2225 48.714C44.7679 48.45 44.4085 48.0833 44.1445 47.614C43.8879 47.1373 43.7595 46.5873 43.7595 45.964C43.7595 45.3407 43.8842 44.7943 44.1335 44.325C44.3902 43.8483 44.7459 43.4817 45.2005 43.225C45.6625 42.9683 46.1905 42.84 46.7845 42.84C47.3565 42.84 47.8662 42.9647 48.3135 43.214C48.7609 43.4633 49.1092 43.8153 49.3585 44.27C49.6079 44.7173 49.7325 45.2343 49.7325 45.821ZM48.4235 45.425C48.4162 44.963 48.2512 44.5927 47.9285 44.314C47.6059 44.0353 47.2062 43.896 46.7295 43.896C46.2969 43.896 45.9265 44.0353 45.6185 44.314C45.3105 44.5853 45.1272 44.9557 45.0685 45.425H48.4235ZM55.078 43.841C55.2907 43.5477 55.5804 43.3093 55.947 43.126C56.321 42.9353 56.7354 42.84 57.19 42.84C57.7254 42.84 58.2094 42.9683 58.642 43.225C59.0747 43.4817 59.4157 43.8483 59.665 44.325C59.9144 44.7943 60.039 45.3333 60.039 45.942C60.039 46.5507 59.9144 47.097 59.665 47.581C59.4157 48.0577 59.071 48.4317 58.631 48.703C58.1984 48.967 57.718 49.099 57.19 49.099C56.7207 49.099 56.3027 49.0073 55.936 48.824C55.5767 48.6407 55.2907 48.406 55.078 48.12V49H53.824V40.86H55.078V43.841ZM58.763 45.942C58.763 45.524 58.675 45.1647 58.499 44.864C58.3304 44.556 58.103 44.325 57.817 44.171C57.5384 44.0097 57.2377 43.929 56.915 43.929C56.5997 43.929 56.299 44.0097 56.013 44.171C55.7344 44.3323 55.507 44.567 55.331 44.875C55.1624 45.183 55.078 45.546 55.078 45.964C55.078 46.382 55.1624 46.7487 55.331 47.064C55.507 47.372 55.7344 47.6067 56.013 47.768C56.299 47.9293 56.5997 48.01 56.915 48.01C57.2377 48.01 57.5384 47.9293 57.817 47.768C58.103 47.5993 58.3304 47.3573 58.499 47.042C58.675 46.7267 58.763 46.36 58.763 45.942ZM60.8611 45.942C60.8611 45.3333 60.9858 44.7943 61.2351 44.325C61.4918 43.8557 61.8364 43.4927 62.2691 43.236C62.7091 42.972 63.1931 42.84 63.7211 42.84C64.1978 42.84 64.6121 42.9353 64.9641 43.126C65.3234 43.3093 65.6094 43.5403 65.8221 43.819V42.939H67.0871V49H65.8221V48.098C65.6094 48.384 65.3198 48.6223 64.9531 48.813C64.5864 49.0037 64.1684 49.099 63.6991 49.099C63.1784 49.099 62.7018 48.967 62.2691 48.703C61.8364 48.4317 61.4918 48.0577 61.2351 47.581C60.9858 47.097 60.8611 46.5507 60.8611 45.942ZM65.8221 45.964C65.8221 45.546 65.7341 45.183 65.5581 44.875C65.3894 44.567 65.1658 44.3323 64.8871 44.171C64.6084 44.0097 64.3078 43.929 63.9851 43.929C63.6624 43.929 63.3618 44.0097 63.0831 44.171C62.8044 44.325 62.5771 44.556 62.4011 44.864C62.2324 45.1647 62.1481 45.524 62.1481 45.942C62.1481 46.36 62.2324 46.7267 62.4011 47.042C62.5771 47.3573 62.8044 47.5993 63.0831 47.768C63.3691 47.9293 63.6698 48.01 63.9851 48.01C64.3078 48.01 64.6084 47.9293 64.8871 47.768C65.1658 47.6067 65.3894 47.372 65.5581 47.064C65.7341 46.7487 65.8221 46.382 65.8221 45.964ZM68.3162 45.964C68.3162 45.3407 68.4408 44.7943 68.6902 44.325C68.9468 43.8483 69.2988 43.4817 69.7462 43.225C70.1935 42.9683 70.7068 42.84 71.2862 42.84C72.0195 42.84 72.6245 43.016 73.1012 43.368C73.5852 43.7127 73.9115 44.2077 74.0802 44.853H72.7272C72.6172 44.5523 72.4412 44.3177 72.1992 44.149C71.9572 43.9803 71.6528 43.896 71.2862 43.896C70.7728 43.896 70.3622 44.0793 70.0542 44.446C69.7535 44.8053 69.6032 45.3113 69.6032 45.964C69.6032 46.6167 69.7535 47.1263 70.0542 47.493C70.3622 47.8597 70.7728 48.043 71.2862 48.043C72.0122 48.043 72.4925 47.724 72.7272 47.086H74.0802C73.9042 47.702 73.5742 48.1933 73.0902 48.56C72.6062 48.9193 72.0048 49.099 71.2862 49.099C70.7068 49.099 70.1935 48.9707 69.7462 48.714C69.2988 48.45 68.9468 48.0833 68.6902 47.614C68.4408 47.1373 68.3162 46.5873 68.3162 45.964ZM77.7279 45.975L80.5219 49H78.8279L76.5839 46.393V49H75.3299V40.86H76.5839V45.59L78.7839 42.939H80.5219L77.7279 45.975ZM86.9097 42.939V49H85.6557V48.285C85.4577 48.5343 85.1974 48.7323 84.8747 48.879C84.5594 49.0183 84.222 49.088 83.8627 49.088C83.386 49.088 82.957 48.989 82.5757 48.791C82.2017 48.593 81.9047 48.2997 81.6847 47.911C81.472 47.5223 81.3657 47.053 81.3657 46.503V42.939H82.6087V46.316C82.6087 46.8587 82.7444 47.2767 83.0157 47.57C83.287 47.856 83.6574 47.999 84.1267 47.999C84.596 47.999 84.9664 47.856 85.2377 47.57C85.5164 47.2767 85.6557 46.8587 85.6557 46.316V42.939H86.9097ZM89.8183 43.83C90.0309 43.5513 90.3206 43.3167 90.6873 43.126C91.0539 42.9353 91.4683 42.84 91.9303 42.84C92.4583 42.84 92.9386 42.972 93.3713 43.236C93.8113 43.4927 94.1559 43.8557 94.4053 44.325C94.6546 44.7943 94.7793 45.3333 94.7793 45.942C94.7793 46.5507 94.6546 47.097 94.4053 47.581C94.1559 48.0577 93.8113 48.4317 93.3713 48.703C92.9386 48.967 92.4583 49.099 91.9303 49.099C91.4683 49.099 91.0576 49.0073 90.6983 48.824C90.3389 48.6333 90.0456 48.3987 89.8183 48.12V51.882H88.5643V42.939H89.8183V43.83ZM93.5033 45.942C93.5033 45.524 93.4153 45.1647 93.2393 44.864C93.0706 44.556 92.8433 44.325 92.5573 44.171C92.2786 44.0097 91.9779 43.929 91.6553 43.929C91.3399 43.929 91.0393 44.0097 90.7533 44.171C90.4746 44.3323 90.2473 44.567 90.0713 44.875C89.9026 45.183 89.8183 45.546 89.8183 45.964C89.8183 46.382 89.9026 46.7487 90.0713 47.064C90.2473 47.372 90.4746 47.6067 90.7533 47.768C91.0393 47.9293 91.3399 48.01 91.6553 48.01C91.9779 48.01 92.2786 47.9293 92.5573 47.768C92.8433 47.5993 93.0706 47.3573 93.2393 47.042C93.4153 46.7267 93.5033 46.36 93.5033 45.942ZM107.017 42.939L105.136 49H103.816L102.595 44.523L101.374 49H100.054L98.1618 42.939H99.4378L100.703 47.812L101.99 42.939H103.299L104.531 47.79L105.785 42.939H107.017ZM107.536 45.942C107.536 45.3333 107.661 44.7943 107.91 44.325C108.167 43.8557 108.511 43.4927 108.944 43.236C109.384 42.972 109.868 42.84 110.396 42.84C110.873 42.84 111.287 42.9353 111.639 43.126C111.998 43.3093 112.284 43.5403 112.497 43.819V42.939H113.762V49H112.497V48.098C112.284 48.384 111.995 48.6223 111.628 48.813C111.261 49.0037 110.843 49.099 110.374 49.099C109.853 49.099 109.377 48.967 108.944 48.703C108.511 48.4317 108.167 48.0577 107.91 47.581C107.661 47.097 107.536 46.5507 107.536 45.942ZM112.497 45.964C112.497 45.546 112.409 45.183 112.233 44.875C112.064 44.567 111.841 44.3323 111.562 44.171C111.283 44.0097 110.983 43.929 110.66 43.929C110.337 43.929 110.037 44.0097 109.758 44.171C109.479 44.325 109.252 44.556 109.076 44.864C108.907 45.1647 108.823 45.524 108.823 45.942C108.823 46.36 108.907 46.7267 109.076 47.042C109.252 47.3573 109.479 47.5993 109.758 47.768C110.044 47.9293 110.345 48.01 110.66 48.01C110.983 48.01 111.283 47.9293 111.562 47.768C111.841 47.6067 112.064 47.372 112.233 47.064C112.409 46.7487 112.497 46.382 112.497 45.964ZM117.609 49.099C117.132 49.099 116.703 49.0147 116.322 48.846C115.948 48.67 115.651 48.4353 115.431 48.142C115.211 47.8413 115.094 47.5077 115.079 47.141H116.377C116.399 47.3977 116.52 47.614 116.74 47.79C116.967 47.9587 117.25 48.043 117.587 48.043C117.939 48.043 118.21 47.977 118.401 47.845C118.599 47.7057 118.698 47.5297 118.698 47.317C118.698 47.0897 118.588 46.921 118.368 46.811C118.155 46.701 117.814 46.58 117.345 46.448C116.89 46.3233 116.52 46.2023 116.234 46.085C115.948 45.9677 115.699 45.788 115.486 45.546C115.281 45.304 115.178 44.985 115.178 44.589C115.178 44.2663 115.273 43.973 115.464 43.709C115.655 43.4377 115.926 43.225 116.278 43.071C116.637 42.917 117.048 42.84 117.51 42.84C118.199 42.84 118.753 43.016 119.171 43.368C119.596 43.7127 119.824 44.1857 119.853 44.787H118.599C118.577 44.5157 118.467 44.2993 118.269 44.138C118.071 43.9767 117.803 43.896 117.466 43.896C117.136 43.896 116.883 43.9583 116.707 44.083C116.531 44.2077 116.443 44.3727 116.443 44.578C116.443 44.7393 116.502 44.875 116.619 44.985C116.736 45.095 116.879 45.183 117.048 45.249C117.217 45.3077 117.466 45.3847 117.796 45.48C118.236 45.5973 118.595 45.7183 118.874 45.843C119.16 45.9603 119.406 46.1363 119.611 46.371C119.816 46.6057 119.923 46.9173 119.93 47.306C119.93 47.6507 119.835 47.9587 119.644 48.23C119.453 48.5013 119.182 48.714 118.83 48.868C118.485 49.022 118.078 49.099 117.609 49.099ZM126.342 49.099C125.866 49.099 125.437 49.0147 125.055 48.846C124.681 48.67 124.384 48.4353 124.164 48.142C123.944 47.8413 123.827 47.5077 123.812 47.141H125.11C125.132 47.3977 125.253 47.614 125.473 47.79C125.701 47.9587 125.983 48.043 126.32 48.043C126.672 48.043 126.944 47.977 127.134 47.845C127.332 47.7057 127.431 47.5297 127.431 47.317C127.431 47.0897 127.321 46.921 127.101 46.811C126.889 46.701 126.548 46.58 126.078 46.448C125.624 46.3233 125.253 46.2023 124.967 46.085C124.681 45.9677 124.432 45.788 124.219 45.546C124.014 45.304 123.911 44.985 123.911 44.589C123.911 44.2663 124.007 43.973 124.197 43.709C124.388 43.4377 124.659 43.225 125.011 43.071C125.371 42.917 125.781 42.84 126.243 42.84C126.933 42.84 127.486 43.016 127.904 43.368C128.33 43.7127 128.557 44.1857 128.586 44.787H127.332C127.31 44.5157 127.2 44.2993 127.002 44.138C126.804 43.9767 126.537 43.896 126.199 43.896C125.869 43.896 125.616 43.9583 125.44 44.083C125.264 44.2077 125.176 44.3727 125.176 44.578C125.176 44.7393 125.235 44.875 125.352 44.985C125.47 45.095 125.613 45.183 125.781 45.249C125.95 45.3077 126.199 45.3847 126.529 45.48C126.969 45.5973 127.329 45.7183 127.607 45.843C127.893 45.9603 128.139 46.1363 128.344 46.371C128.55 46.6057 128.656 46.9173 128.663 47.306C128.663 47.6507 128.568 47.9587 128.377 48.23C128.187 48.5013 127.915 48.714 127.563 48.868C127.219 49.022 126.812 49.099 126.342 49.099ZM135.507 42.939V49H134.253V48.285C134.055 48.5343 133.795 48.7323 133.472 48.879C133.157 49.0183 132.82 49.088 132.46 49.088C131.984 49.088 131.555 48.989 131.173 48.791C130.799 48.593 130.502 48.2997 130.282 47.911C130.07 47.5223 129.963 47.053 129.963 46.503V42.939H131.206V46.316C131.206 46.8587 131.342 47.2767 131.613 47.57C131.885 47.856 132.255 47.999 132.724 47.999C133.194 47.999 133.564 47.856 133.835 47.57C134.114 47.2767 134.253 46.8587 134.253 46.316V42.939H135.507ZM136.744 45.964C136.744 45.3407 136.869 44.7943 137.118 44.325C137.375 43.8483 137.727 43.4817 138.174 43.225C138.621 42.9683 139.135 42.84 139.714 42.84C140.447 42.84 141.052 43.016 141.529 43.368C142.013 43.7127 142.339 44.2077 142.508 44.853H141.155C141.045 44.5523 140.869 44.3177 140.627 44.149C140.385 43.9803 140.081 43.896 139.714 43.896C139.201 43.896 138.79 44.0793 138.482 44.446C138.181 44.8053 138.031 45.3113 138.031 45.964C138.031 46.6167 138.181 47.1263 138.482 47.493C138.79 47.8597 139.201 48.043 139.714 48.043C140.44 48.043 140.92 47.724 141.155 47.086H142.508C142.332 47.702 142.002 48.1933 141.518 48.56C141.034 48.9193 140.433 49.099 139.714 49.099C139.135 49.099 138.621 48.9707 138.174 48.714C137.727 48.45 137.375 48.0833 137.118 47.614C136.869 47.1373 136.744 46.5873 136.744 45.964ZM143.34 45.964C143.34 45.3407 143.464 44.7943 143.714 44.325C143.97 43.8483 144.322 43.4817 144.77 43.225C145.217 42.9683 145.73 42.84 146.31 42.84C147.043 42.84 147.648 43.016 148.125 43.368C148.609 43.7127 148.935 44.2077 149.104 44.853H147.751C147.641 44.5523 147.465 44.3177 147.223 44.149C146.981 43.9803 146.676 43.896 146.31 43.896C145.796 43.896 145.386 44.0793 145.078 44.446C144.777 44.8053 144.627 45.3113 144.627 45.964C144.627 46.6167 144.777 47.1263 145.078 47.493C145.386 47.8597 145.796 48.043 146.31 48.043C147.036 48.043 147.516 47.724 147.751 47.086H149.104C148.928 47.702 148.598 48.1933 148.114 48.56C147.63 48.9193 147.028 49.099 146.31 49.099C145.73 49.099 145.217 48.9707 144.77 48.714C144.322 48.45 143.97 48.0833 143.714 47.614C143.464 47.1373 143.34 46.5873 143.34 45.964ZM155.908 45.821C155.908 46.0483 155.894 46.2537 155.864 46.437H151.233C151.27 46.921 151.45 47.3097 151.772 47.603C152.095 47.8963 152.491 48.043 152.96 48.043C153.635 48.043 154.112 47.7607 154.39 47.196H155.743C155.56 47.7533 155.226 48.2117 154.742 48.571C154.266 48.923 153.672 49.099 152.96 49.099C152.381 49.099 151.86 48.9707 151.398 48.714C150.944 48.45 150.584 48.0833 150.32 47.614C150.064 47.1373 149.935 46.5873 149.935 45.964C149.935 45.3407 150.06 44.7943 150.309 44.325C150.566 43.8483 150.922 43.4817 151.376 43.225C151.838 42.9683 152.366 42.84 152.96 42.84C153.532 42.84 154.042 42.9647 154.489 43.214C154.937 43.4633 155.285 43.8153 155.534 44.27C155.784 44.7173 155.908 45.2343 155.908 45.821ZM154.599 45.425C154.592 44.963 154.427 44.5927 154.104 44.314C153.782 44.0353 153.382 43.896 152.905 43.896C152.473 43.896 152.102 44.0353 151.794 44.314C151.486 44.5853 151.303 44.9557 151.244 45.425H154.599ZM159.342 49.099C158.866 49.099 158.437 49.0147 158.055 48.846C157.681 48.67 157.384 48.4353 157.164 48.142C156.944 47.8413 156.827 47.5077 156.812 47.141H158.11C158.132 47.3977 158.253 47.614 158.473 47.79C158.701 47.9587 158.983 48.043 159.32 48.043C159.672 48.043 159.944 47.977 160.134 47.845C160.332 47.7057 160.431 47.5297 160.431 47.317C160.431 47.0897 160.321 46.921 160.101 46.811C159.889 46.701 159.548 46.58 159.078 46.448C158.624 46.3233 158.253 46.2023 157.967 46.085C157.681 45.9677 157.432 45.788 157.219 45.546C157.014 45.304 156.911 44.985 156.911 44.589C156.911 44.2663 157.007 43.973 157.197 43.709C157.388 43.4377 157.659 43.225 158.011 43.071C158.371 42.917 158.781 42.84 159.243 42.84C159.933 42.84 160.486 43.016 160.904 43.368C161.33 43.7127 161.557 44.1857 161.586 44.787H160.332C160.31 44.5157 160.2 44.2993 160.002 44.138C159.804 43.9767 159.537 43.896 159.199 43.896C158.869 43.896 158.616 43.9583 158.44 44.083C158.264 44.2077 158.176 44.3727 158.176 44.578C158.176 44.7393 158.235 44.875 158.352 44.985C158.47 45.095 158.613 45.183 158.781 45.249C158.95 45.3077 159.199 45.3847 159.529 45.48C159.969 45.5973 160.329 45.7183 160.607 45.843C160.893 45.9603 161.139 46.1363 161.344 46.371C161.55 46.6057 161.656 46.9173 161.663 47.306C161.663 47.6507 161.568 47.9587 161.377 48.23C161.187 48.5013 160.915 48.714 160.563 48.868C160.219 49.022 159.812 49.099 159.342 49.099ZM165.218 49.099C164.742 49.099 164.313 49.0147 163.931 48.846C163.557 48.67 163.26 48.4353 163.04 48.142C162.82 47.8413 162.703 47.5077 162.688 47.141H163.986C164.008 47.3977 164.129 47.614 164.349 47.79C164.577 47.9587 164.859 48.043 165.196 48.043C165.548 48.043 165.82 47.977 166.01 47.845C166.208 47.7057 166.307 47.5297 166.307 47.317C166.307 47.0897 166.197 46.921 165.977 46.811C165.765 46.701 165.424 46.58 164.954 46.448C164.5 46.3233 164.129 46.2023 163.843 46.085C163.557 45.9677 163.308 45.788 163.095 45.546C162.89 45.304 162.787 44.985 162.787 44.589C162.787 44.2663 162.883 43.973 163.073 43.709C163.264 43.4377 163.535 43.225 163.887 43.071C164.247 42.917 164.657 42.84 165.119 42.84C165.809 42.84 166.362 43.016 166.78 43.368C167.206 43.7127 167.433 44.1857 167.462 44.787H166.208C166.186 44.5157 166.076 44.2993 165.878 44.138C165.68 43.9767 165.413 43.896 165.075 43.896C164.745 43.896 164.492 43.9583 164.316 44.083C164.14 44.2077 164.052 44.3727 164.052 44.578C164.052 44.7393 164.111 44.875 164.228 44.985C164.346 45.095 164.489 45.183 164.657 45.249C164.826 45.3077 165.075 45.3847 165.405 45.48C165.845 45.5973 166.205 45.7183 166.483 45.843C166.769 45.9603 167.015 46.1363 167.22 46.371C167.426 46.6057 167.532 46.9173 167.539 47.306C167.539 47.6507 167.444 47.9587 167.253 48.23C167.063 48.5013 166.791 48.714 166.439 48.868C166.095 49.022 165.688 49.099 165.218 49.099ZM171.435 43.962H170.313V49H169.048V43.962H168.333V42.939H169.048V42.51C169.048 41.8133 169.232 41.3073 169.598 40.992C169.972 40.6693 170.555 40.508 171.347 40.508V41.553C170.966 41.553 170.698 41.6263 170.544 41.773C170.39 41.9123 170.313 42.158 170.313 42.51V42.939H171.435V43.962ZM178.036 42.939V49H176.782V48.285C176.584 48.5343 176.323 48.7323 176.001 48.879C175.685 49.0183 175.348 49.088 174.989 49.088C174.512 49.088 174.083 48.989 173.702 48.791C173.328 48.593 173.031 48.2997 172.811 47.911C172.598 47.5223 172.492 47.053 172.492 46.503V42.939H173.735V46.316C173.735 46.8587 173.87 47.2767 174.142 47.57C174.413 47.856 174.783 47.999 175.253 47.999C175.722 47.999 176.092 47.856 176.364 47.57C176.642 47.2767 176.782 46.8587 176.782 46.316V42.939H178.036ZM180.944 40.86V49H179.69V40.86H180.944ZM183.845 40.86V49H182.591V40.86H183.845ZM190.947 42.939L187.229 51.849H185.931L187.163 48.901L184.776 42.939H186.173L187.878 47.559L189.649 42.939H190.947ZM195.389 42.136C195.161 42.136 194.971 42.059 194.817 41.905C194.663 41.751 194.586 41.5603 194.586 41.333C194.586 41.1057 194.663 40.915 194.817 40.761C194.971 40.607 195.161 40.53 195.389 40.53C195.609 40.53 195.796 40.607 195.95 40.761C196.104 40.915 196.181 41.1057 196.181 41.333C196.181 41.5603 196.104 41.751 195.95 41.905C195.796 42.059 195.609 42.136 195.389 42.136ZM196.005 42.939V49H194.751V42.939H196.005ZM204.988 42.84C205.465 42.84 205.89 42.939 206.264 43.137C206.646 43.335 206.943 43.6283 207.155 44.017C207.375 44.4057 207.485 44.875 207.485 45.425V49H206.242V45.612C206.242 45.0693 206.107 44.655 205.835 44.369C205.564 44.0757 205.194 43.929 204.724 43.929C204.255 43.929 203.881 44.0757 203.602 44.369C203.331 44.655 203.195 45.0693 203.195 45.612V49H201.952V45.612C201.952 45.0693 201.817 44.655 201.545 44.369C201.274 44.0757 200.904 43.929 200.434 43.929C199.965 43.929 199.591 44.0757 199.312 44.369C199.041 44.655 198.905 45.0693 198.905 45.612V49H197.651V42.939H198.905V43.632C199.111 43.3827 199.371 43.1883 199.686 43.049C200.002 42.9097 200.339 42.84 200.698 42.84C201.182 42.84 201.615 42.9427 201.996 43.148C202.378 43.3533 202.671 43.6503 202.876 44.039C203.06 43.6723 203.346 43.3827 203.734 43.17C204.123 42.95 204.541 42.84 204.988 42.84ZM210.335 43.83C210.548 43.5513 210.837 43.3167 211.204 43.126C211.571 42.9353 211.985 42.84 212.447 42.84C212.975 42.84 213.455 42.972 213.888 43.236C214.328 43.4927 214.673 43.8557 214.922 44.325C215.171 44.7943 215.296 45.3333 215.296 45.942C215.296 46.5507 215.171 47.097 214.922 47.581C214.673 48.0577 214.328 48.4317 213.888 48.703C213.455 48.967 212.975 49.099 212.447 49.099C211.985 49.099 211.574 49.0073 211.215 48.824C210.856 48.6333 210.562 48.3987 210.335 48.12V51.882H209.081V42.939H210.335V43.83ZM214.02 45.942C214.02 45.524 213.932 45.1647 213.756 44.864C213.587 44.556 213.36 44.325 213.074 44.171C212.795 44.0097 212.495 43.929 212.172 43.929C211.857 43.929 211.556 44.0097 211.27 44.171C210.991 44.3323 210.764 44.567 210.588 44.875C210.419 45.183 210.335 45.546 210.335 45.964C210.335 46.382 210.419 46.7487 210.588 47.064C210.764 47.372 210.991 47.6067 211.27 47.768C211.556 47.9293 211.857 48.01 212.172 48.01C212.495 48.01 212.795 47.9293 213.074 47.768C213.36 47.5993 213.587 47.3573 213.756 47.042C213.932 46.7267 214.02 46.36 214.02 45.942ZM219.165 49.099C218.593 49.099 218.076 48.9707 217.614 48.714C217.152 48.45 216.789 48.0833 216.525 47.614C216.261 47.1373 216.129 46.5873 216.129 45.964C216.129 45.348 216.265 44.8017 216.536 44.325C216.807 43.8483 217.178 43.4817 217.647 43.225C218.116 42.9683 218.641 42.84 219.22 42.84C219.799 42.84 220.324 42.9683 220.793 43.225C221.262 43.4817 221.633 43.8483 221.904 44.325C222.175 44.8017 222.311 45.348 222.311 45.964C222.311 46.58 222.172 47.1263 221.893 47.603C221.614 48.0797 221.233 48.45 220.749 48.714C220.272 48.9707 219.744 49.099 219.165 49.099ZM219.165 48.01C219.488 48.01 219.788 47.933 220.067 47.779C220.353 47.625 220.584 47.394 220.76 47.086C220.936 46.778 221.024 46.404 221.024 45.964C221.024 45.524 220.94 45.1537 220.771 44.853C220.602 44.545 220.379 44.314 220.1 44.16C219.821 44.006 219.521 43.929 219.198 43.929C218.875 43.929 218.575 44.006 218.296 44.16C218.025 44.314 217.808 44.545 217.647 44.853C217.486 45.1537 217.405 45.524 217.405 45.964C217.405 46.6167 217.57 47.1227 217.9 47.482C218.237 47.834 218.659 48.01 219.165 48.01ZM224.805 43.819C224.988 43.511 225.23 43.2727 225.531 43.104C225.839 42.928 226.202 42.84 226.62 42.84V44.138H226.301C225.809 44.138 225.435 44.2627 225.179 44.512C224.929 44.7613 224.805 45.194 224.805 45.81V49H223.551V42.939H224.805V43.819ZM229.235 43.962V47.317C229.235 47.5443 229.287 47.7093 229.389 47.812C229.499 47.9073 229.683 47.955 229.939 47.955H230.709V49H229.719C229.155 49 228.722 48.868 228.421 48.604C228.121 48.34 227.97 47.911 227.97 47.317V43.962H227.255V42.939H227.97V41.432H229.235V42.939H230.709V43.962H229.235ZM237.42 45.821C237.42 46.0483 237.405 46.2537 237.376 46.437H232.745C232.782 46.921 232.961 47.3097 233.284 47.603C233.607 47.8963 234.003 48.043 234.472 48.043C235.147 48.043 235.623 47.7607 235.902 47.196H237.255C237.072 47.7533 236.738 48.2117 236.254 48.571C235.777 48.923 235.183 49.099 234.472 49.099C233.893 49.099 233.372 48.9707 232.91 48.714C232.455 48.45 232.096 48.0833 231.832 47.614C231.575 47.1373 231.447 46.5873 231.447 45.964C231.447 45.3407 231.572 44.7943 231.821 44.325C232.078 43.8483 232.433 43.4817 232.888 43.225C233.35 42.9683 233.878 42.84 234.472 42.84C235.044 42.84 235.554 42.9647 236.001 43.214C236.448 43.4633 236.797 43.8153 237.046 44.27C237.295 44.7173 237.42 45.2343 237.42 45.821ZM236.111 45.425C236.104 44.963 235.939 44.5927 235.616 44.314C235.293 44.0353 234.894 43.896 234.417 43.896C233.984 43.896 233.614 44.0353 233.306 44.314C232.998 44.5853 232.815 44.9557 232.756 45.425H236.111ZM238.236 45.942C238.236 45.3333 238.361 44.7943 238.61 44.325C238.867 43.8557 239.211 43.4927 239.644 43.236C240.084 42.972 240.572 42.84 241.107 42.84C241.503 42.84 241.892 42.928 242.273 43.104C242.662 43.2727 242.97 43.5 243.197 43.786V40.86H244.462V49H243.197V48.087C242.992 48.3803 242.706 48.6223 242.339 48.813C241.98 49.0037 241.565 49.099 241.096 49.099C240.568 49.099 240.084 48.967 239.644 48.703C239.211 48.4317 238.867 48.0577 238.61 47.581C238.361 47.097 238.236 46.5507 238.236 45.942ZM243.197 45.964C243.197 45.546 243.109 45.183 242.933 44.875C242.764 44.567 242.541 44.3323 242.262 44.171C241.983 44.0097 241.683 43.929 241.36 43.929C241.037 43.929 240.737 44.0097 240.458 44.171C240.179 44.325 239.952 44.556 239.776 44.864C239.607 45.1647 239.523 45.524 239.523 45.942C239.523 46.36 239.607 46.7267 239.776 47.042C239.952 47.3573 240.179 47.5993 240.458 47.768C240.744 47.9293 241.045 48.01 241.36 48.01C241.683 48.01 241.983 47.9293 242.262 47.768C242.541 47.6067 242.764 47.372 242.933 47.064C243.109 46.7487 243.197 46.382 243.197 45.964ZM246.615 49.077C246.388 49.077 246.197 49 246.043 48.846C245.889 48.692 245.812 48.5013 245.812 48.274C245.812 48.0467 245.889 47.856 246.043 47.702C246.197 47.548 246.388 47.471 246.615 47.471C246.835 47.471 247.022 47.548 247.176 47.702C247.33 47.856 247.407 48.0467 247.407 48.274C247.407 48.5013 247.33 48.692 247.176 48.846C247.022 49 246.835 49.077 246.615 49.077ZM255.591 49L253.831 45.942H252.874V49H251.62V41.355H254.26C254.847 41.355 255.342 41.4577 255.745 41.663C256.156 41.8683 256.46 42.1433 256.658 42.488C256.863 42.8327 256.966 43.2177 256.966 43.643C256.966 44.1417 256.819 44.5963 256.526 45.007C256.24 45.4103 255.796 45.6853 255.195 45.832L257.087 49H255.591ZM252.874 44.941H254.26C254.729 44.941 255.081 44.8237 255.316 44.589C255.558 44.3543 255.679 44.039 255.679 43.643C255.679 43.247 255.562 42.939 255.327 42.719C255.092 42.4917 254.737 42.378 254.26 42.378H252.874V44.941ZM264.125 45.821C264.125 46.0483 264.11 46.2537 264.081 46.437H259.45C259.487 46.921 259.666 47.3097 259.989 47.603C260.312 47.8963 260.708 48.043 261.177 48.043C261.852 48.043 262.328 47.7607 262.607 47.196H263.96C263.777 47.7533 263.443 48.2117 262.959 48.571C262.482 48.923 261.888 49.099 261.177 49.099C260.598 49.099 260.077 48.9707 259.615 48.714C259.16 48.45 258.801 48.0833 258.537 47.614C258.28 47.1373 258.152 46.5873 258.152 45.964C258.152 45.3407 258.277 44.7943 258.526 44.325C258.783 43.8483 259.138 43.4817 259.593 43.225C260.055 42.9683 260.583 42.84 261.177 42.84C261.749 42.84 262.259 42.9647 262.706 43.214C263.153 43.4633 263.502 43.8153 263.751 44.27C264 44.7173 264.125 45.2343 264.125 45.821ZM262.816 45.425C262.809 44.963 262.644 44.5927 262.321 44.314C261.998 44.0353 261.599 43.896 261.122 43.896C260.689 43.896 260.319 44.0353 260.011 44.314C259.703 44.5853 259.52 44.9557 259.461 45.425H262.816ZM267.559 49.099C267.083 49.099 266.654 49.0147 266.272 48.846C265.898 48.67 265.601 48.4353 265.381 48.142C265.161 47.8413 265.044 47.5077 265.029 47.141H266.327C266.349 47.3977 266.47 47.614 266.69 47.79C266.918 47.9587 267.2 48.043 267.537 48.043C267.889 48.043 268.161 47.977 268.351 47.845C268.549 47.7057 268.648 47.5297 268.648 47.317C268.648 47.0897 268.538 46.921 268.318 46.811C268.106 46.701 267.765 46.58 267.295 46.448C266.841 46.3233 266.47 46.2023 266.184 46.085C265.898 45.9677 265.649 45.788 265.436 45.546C265.231 45.304 265.128 44.985 265.128 44.589C265.128 44.2663 265.224 43.973 265.414 43.709C265.605 43.4377 265.876 43.225 266.228 43.071C266.588 42.917 266.998 42.84 267.46 42.84C268.15 42.84 268.703 43.016 269.121 43.368C269.547 43.7127 269.774 44.1857 269.803 44.787H268.549C268.527 44.5157 268.417 44.2993 268.219 44.138C268.021 43.9767 267.754 43.896 267.416 43.896C267.086 43.896 266.833 43.9583 266.657 44.083C266.481 44.2077 266.393 44.3727 266.393 44.578C266.393 44.7393 266.452 44.875 266.569 44.985C266.687 45.095 266.83 45.183 266.998 45.249C267.167 45.3077 267.416 45.3847 267.746 45.48C268.186 45.5973 268.546 45.7183 268.824 45.843C269.11 45.9603 269.356 46.1363 269.561 46.371C269.767 46.6057 269.873 46.9173 269.88 47.306C269.88 47.6507 269.785 47.9587 269.594 48.23C269.404 48.5013 269.132 48.714 268.78 48.868C268.436 49.022 268.029 49.099 267.559 49.099ZM272.698 43.962V47.317C272.698 47.5443 272.749 47.7093 272.852 47.812C272.962 47.9073 273.145 47.955 273.402 47.955H274.172V49H273.182C272.617 49 272.185 48.868 271.884 48.604C271.583 48.34 271.433 47.911 271.433 47.317V43.962H270.718V42.939H271.433V41.432H272.698V42.939H274.172V43.962H272.698ZM274.91 45.942C274.91 45.3333 275.035 44.7943 275.284 44.325C275.541 43.8557 275.885 43.4927 276.318 43.236C276.758 42.972 277.242 42.84 277.77 42.84C278.247 42.84 278.661 42.9353 279.013 43.126C279.372 43.3093 279.658 43.5403 279.871 43.819V42.939H281.136V49H279.871V48.098C279.658 48.384 279.369 48.6223 279.002 48.813C278.635 49.0037 278.217 49.099 277.748 49.099C277.227 49.099 276.751 48.967 276.318 48.703C275.885 48.4317 275.541 48.0577 275.284 47.581C275.035 47.097 274.91 46.5507 274.91 45.942ZM279.871 45.964C279.871 45.546 279.783 45.183 279.607 44.875C279.438 44.567 279.215 44.3323 278.936 44.171C278.657 44.0097 278.357 43.929 278.034 43.929C277.711 43.929 277.411 44.0097 277.132 44.171C276.853 44.325 276.626 44.556 276.45 44.864C276.281 45.1647 276.197 45.524 276.197 45.942C276.197 46.36 276.281 46.7267 276.45 47.042C276.626 47.3573 276.853 47.5993 277.132 47.768C277.418 47.9293 277.719 48.01 278.034 48.01C278.357 48.01 278.657 47.9293 278.936 47.768C279.215 47.6067 279.438 47.372 279.607 47.064C279.783 46.7487 279.871 46.382 279.871 45.964ZM284.037 43.819C284.22 43.511 284.462 43.2727 284.763 43.104C285.071 42.928 285.434 42.84 285.852 42.84V44.138H285.533C285.042 44.138 284.668 44.2627 284.411 44.512C284.162 44.7613 284.037 45.194 284.037 45.81V49H282.783V42.939H284.037V43.819ZM288.468 43.962V47.317C288.468 47.5443 288.519 47.7093 288.622 47.812C288.732 47.9073 288.915 47.955 289.172 47.955H289.942V49H288.952C288.387 49 287.954 48.868 287.654 48.604C287.353 48.34 287.203 47.911 287.203 47.317V43.962H286.488V42.939H287.203V41.432H288.468V42.939H289.942V43.962H288.468ZM295.418 43.962V47.317C295.418 47.5443 295.469 47.7093 295.572 47.812C295.682 47.9073 295.865 47.955 296.122 47.955H296.892V49H295.902C295.337 49 294.905 48.868 294.604 48.604C294.303 48.34 294.153 47.911 294.153 47.317V43.962H293.438V42.939H294.153V41.432H295.418V42.939H296.892V43.962H295.418ZM300.677 49.099C300.105 49.099 299.588 48.9707 299.126 48.714C298.664 48.45 298.301 48.0833 298.037 47.614C297.773 47.1373 297.641 46.5873 297.641 45.964C297.641 45.348 297.776 44.8017 298.048 44.325C298.319 43.8483 298.689 43.4817 299.159 43.225C299.628 42.9683 300.152 42.84 300.732 42.84C301.311 42.84 301.835 42.9683 302.305 43.225C302.774 43.4817 303.144 43.8483 303.416 44.325C303.687 44.8017 303.823 45.348 303.823 45.964C303.823 46.58 303.683 47.1263 303.405 47.603C303.126 48.0797 302.745 48.45 302.261 48.714C301.784 48.9707 301.256 49.099 300.677 49.099ZM300.677 48.01C300.999 48.01 301.3 47.933 301.579 47.779C301.865 47.625 302.096 47.394 302.272 47.086C302.448 46.778 302.536 46.404 302.536 45.964C302.536 45.524 302.451 45.1537 302.283 44.853C302.114 44.545 301.89 44.314 301.612 44.16C301.333 44.006 301.032 43.929 300.71 43.929C300.387 43.929 300.086 44.006 299.808 44.16C299.536 44.314 299.32 44.545 299.159 44.853C298.997 45.1537 298.917 45.524 298.917 45.964C298.917 46.6167 299.082 47.1227 299.412 47.482C299.749 47.834 300.171 48.01 300.677 48.01ZM307.502 45.942C307.502 45.3333 307.626 44.7943 307.876 44.325C308.132 43.8557 308.477 43.4927 308.91 43.236C309.35 42.972 309.834 42.84 310.362 42.84C310.838 42.84 311.253 42.9353 311.605 43.126C311.964 43.3093 312.25 43.5403 312.463 43.819V42.939H313.728V49H312.463V48.098C312.25 48.384 311.96 48.6223 311.594 48.813C311.227 49.0037 310.809 49.099 310.34 49.099C309.819 49.099 309.342 48.967 308.91 48.703C308.477 48.4317 308.132 48.0577 307.876 47.581C307.626 47.097 307.502 46.5507 307.502 45.942ZM312.463 45.964C312.463 45.546 312.375 45.183 312.199 44.875C312.03 44.567 311.806 44.3323 311.528 44.171C311.249 44.0097 310.948 43.929 310.626 43.929C310.303 43.929 310.002 44.0097 309.724 44.171C309.445 44.325 309.218 44.556 309.042 44.864C308.873 45.1647 308.789 45.524 308.789 45.942C308.789 46.36 308.873 46.7267 309.042 47.042C309.218 47.3573 309.445 47.5993 309.724 47.768C310.01 47.9293 310.31 48.01 310.626 48.01C310.948 48.01 311.249 47.9293 311.528 47.768C311.806 47.6067 312.03 47.372 312.199 47.064C312.375 46.7487 312.463 46.382 312.463 45.964ZM316.629 43.83C316.841 43.5513 317.131 43.3167 317.498 43.126C317.864 42.9353 318.279 42.84 318.741 42.84C319.269 42.84 319.749 42.972 320.182 43.236C320.622 43.4927 320.966 43.8557 321.216 44.325C321.465 44.7943 321.59 45.3333 321.59 45.942C321.59 46.5507 321.465 47.097 321.216 47.581C320.966 48.0577 320.622 48.4317 320.182 48.703C319.749 48.967 319.269 49.099 318.741 49.099C318.279 49.099 317.868 49.0073 317.509 48.824C317.149 48.6333 316.856 48.3987 316.629 48.12V51.882H315.375V42.939H316.629V43.83ZM320.314 45.942C320.314 45.524 320.226 45.1647 320.05 44.864C319.881 44.556 319.654 44.325 319.368 44.171C319.089 44.0097 318.788 43.929 318.466 43.929C318.15 43.929 317.85 44.0097 317.564 44.171C317.285 44.3323 317.058 44.567 316.882 44.875C316.713 45.183 316.629 45.546 316.629 45.964C316.629 46.382 316.713 46.7487 316.882 47.064C317.058 47.372 317.285 47.6067 317.564 47.768C317.85 47.9293 318.15 48.01 318.466 48.01C318.788 48.01 319.089 47.9293 319.368 47.768C319.654 47.5993 319.881 47.3573 320.05 47.042C320.226 46.7267 320.314 46.36 320.314 45.942ZM324.084 43.83C324.297 43.5513 324.586 43.3167 324.953 43.126C325.32 42.9353 325.734 42.84 326.196 42.84C326.724 42.84 327.204 42.972 327.637 43.236C328.077 43.4927 328.422 43.8557 328.671 44.325C328.92 44.7943 329.045 45.3333 329.045 45.942C329.045 46.5507 328.92 47.097 328.671 47.581C328.422 48.0577 328.077 48.4317 327.637 48.703C327.204 48.967 326.724 49.099 326.196 49.099C325.734 49.099 325.323 49.0073 324.964 48.824C324.605 48.6333 324.311 48.3987 324.084 48.12V51.882H322.83V42.939H324.084V43.83ZM327.769 45.942C327.769 45.524 327.681 45.1647 327.505 44.864C327.336 44.556 327.109 44.325 326.823 44.171C326.544 44.0097 326.244 43.929 325.921 43.929C325.606 43.929 325.305 44.0097 325.019 44.171C324.74 44.3323 324.513 44.567 324.337 44.875C324.168 45.183 324.084 45.546 324.084 45.964C324.084 46.382 324.168 46.7487 324.337 47.064C324.513 47.372 324.74 47.6067 325.019 47.768C325.305 47.9293 325.606 48.01 325.921 48.01C326.244 48.01 326.544 47.9293 326.823 47.768C327.109 47.5993 327.336 47.3573 327.505 47.042C327.681 46.7267 327.769 46.36 327.769 45.942ZM331.539 40.86V49H330.285V40.86H331.539ZM338.641 42.939L334.923 51.849H333.625L334.857 48.901L332.47 42.939H333.867L335.572 47.559L337.343 42.939H338.641ZM342.027 45.964C342.027 45.3407 342.152 44.7943 342.401 44.325C342.658 43.8483 343.01 43.4817 343.457 43.225C343.904 42.9683 344.418 42.84 344.997 42.84C345.73 42.84 346.335 43.016 346.812 43.368C347.296 43.7127 347.622 44.2077 347.791 44.853H346.438C346.328 44.5523 346.152 44.3177 345.91 44.149C345.668 43.9803 345.364 43.896 344.997 43.896C344.484 43.896 344.073 44.0793 343.765 44.446C343.464 44.8053 343.314 45.3113 343.314 45.964C343.314 46.6167 343.464 47.1263 343.765 47.493C344.073 47.8597 344.484 48.043 344.997 48.043C345.723 48.043 346.203 47.724 346.438 47.086H347.791C347.615 47.702 347.285 48.1933 346.801 48.56C346.317 48.9193 345.716 49.099 344.997 49.099C344.418 49.099 343.904 48.9707 343.457 48.714C343.01 48.45 342.658 48.0833 342.401 47.614C342.152 47.1373 342.027 46.5873 342.027 45.964ZM352.176 42.84C352.638 42.84 353.048 42.939 353.408 43.137C353.774 43.335 354.06 43.6283 354.266 44.017C354.478 44.4057 354.585 44.875 354.585 45.425V49H353.342V45.612C353.342 45.0693 353.206 44.655 352.935 44.369C352.663 44.0757 352.293 43.929 351.824 43.929C351.354 43.929 350.98 44.0757 350.702 44.369C350.43 44.655 350.295 45.0693 350.295 45.612V49H349.041V40.86H350.295V43.643C350.507 43.3863 350.775 43.1883 351.098 43.049C351.428 42.9097 351.787 42.84 352.176 42.84ZM355.766 45.942C355.766 45.3333 355.891 44.7943 356.14 44.325C356.397 43.8557 356.742 43.4927 357.174 43.236C357.614 42.972 358.098 42.84 358.626 42.84C359.103 42.84 359.517 42.9353 359.869 43.126C360.229 43.3093 360.515 43.5403 360.727 43.819V42.939H361.992V49H360.727V48.098C360.515 48.384 360.225 48.6223 359.858 48.813C359.492 49.0037 359.074 49.099 358.604 49.099C358.084 49.099 357.607 48.967 357.174 48.703C356.742 48.4317 356.397 48.0577 356.14 47.581C355.891 47.097 355.766 46.5507 355.766 45.942ZM360.727 45.964C360.727 45.546 360.639 45.183 360.463 44.875C360.295 44.567 360.071 44.3323 359.792 44.171C359.514 44.0097 359.213 43.929 358.89 43.929C358.568 43.929 358.267 44.0097 357.988 44.171C357.71 44.325 357.482 44.556 357.306 44.864C357.138 45.1647 357.053 45.524 357.053 45.942C357.053 46.36 357.138 46.7267 357.306 47.042C357.482 47.3573 357.71 47.5993 357.988 47.768C358.274 47.9293 358.575 48.01 358.89 48.01C359.213 48.01 359.514 47.9293 359.792 47.768C360.071 47.6067 360.295 47.372 360.463 47.064C360.639 46.7487 360.727 46.382 360.727 45.964ZM366.697 42.84C367.174 42.84 367.599 42.939 367.973 43.137C368.355 43.335 368.652 43.6283 368.864 44.017C369.077 44.4057 369.183 44.875 369.183 45.425V49H367.94V45.612C367.94 45.0693 367.805 44.655 367.533 44.369C367.262 44.0757 366.892 43.929 366.422 43.929C365.953 43.929 365.579 44.0757 365.3 44.369C365.029 44.655 364.893 45.0693 364.893 45.612V49H363.639V42.939H364.893V43.632C365.099 43.3827 365.359 43.1883 365.674 43.049C365.997 42.9097 366.338 42.84 366.697 42.84ZM373.225 42.84C373.694 42.84 374.109 42.9353 374.468 43.126C374.835 43.3093 375.121 43.5403 375.326 43.819V42.939H376.591V49.099C376.591 49.6563 376.474 50.1513 376.239 50.584C376.004 51.024 375.663 51.3687 375.216 51.618C374.776 51.8673 374.248 51.992 373.632 51.992C372.811 51.992 372.129 51.7977 371.586 51.409C371.043 51.0277 370.735 50.507 370.662 49.847H371.905C372 50.1623 372.202 50.4153 372.51 50.606C372.825 50.804 373.199 50.903 373.632 50.903C374.138 50.903 374.545 50.749 374.853 50.441C375.168 50.133 375.326 49.6857 375.326 49.099V48.087C375.113 48.373 374.824 48.615 374.457 48.813C374.098 49.0037 373.687 49.099 373.225 49.099C372.697 49.099 372.213 48.967 371.773 48.703C371.34 48.4317 370.996 48.0577 370.739 47.581C370.49 47.097 370.365 46.5507 370.365 45.942C370.365 45.3333 370.49 44.7943 370.739 44.325C370.996 43.8557 371.34 43.4927 371.773 43.236C372.213 42.972 372.697 42.84 373.225 42.84ZM375.326 45.964C375.326 45.546 375.238 45.183 375.062 44.875C374.893 44.567 374.67 44.3323 374.391 44.171C374.112 44.0097 373.812 43.929 373.489 43.929C373.166 43.929 372.866 44.0097 372.587 44.171C372.308 44.325 372.081 44.556 371.905 44.864C371.736 45.1647 371.652 45.524 371.652 45.942C371.652 46.36 371.736 46.7267 371.905 47.042C372.081 47.3573 372.308 47.5993 372.587 47.768C372.873 47.9293 373.174 48.01 373.489 48.01C373.812 48.01 374.112 47.9293 374.391 47.768C374.67 47.6067 374.893 47.372 375.062 47.064C375.238 46.7487 375.326 46.382 375.326 45.964ZM383.793 45.821C383.793 46.0483 383.778 46.2537 383.749 46.437H379.118C379.155 46.921 379.334 47.3097 379.657 47.603C379.98 47.8963 380.376 48.043 380.845 48.043C381.52 48.043 381.996 47.7607 382.275 47.196H383.628C383.445 47.7533 383.111 48.2117 382.627 48.571C382.15 48.923 381.556 49.099 380.845 49.099C380.266 49.099 379.745 48.9707 379.283 48.714C378.828 48.45 378.469 48.0833 378.205 47.614C377.948 47.1373 377.82 46.5873 377.82 45.964C377.82 45.3407 377.945 44.7943 378.194 44.325C378.451 43.8483 378.806 43.4817 379.261 43.225C379.723 42.9683 380.251 42.84 380.845 42.84C381.417 42.84 381.927 42.9647 382.374 43.214C382.821 43.4633 383.17 43.8153 383.419 44.27C383.668 44.7173 383.793 45.2343 383.793 45.821ZM382.484 45.425C382.477 44.963 382.312 44.5927 381.989 44.314C381.666 44.0353 381.267 43.896 380.79 43.896C380.357 43.896 379.987 44.0353 379.679 44.314C379.371 44.5853 379.188 44.9557 379.129 45.425H382.484ZM387.227 49.099C386.75 49.099 386.321 49.0147 385.94 48.846C385.566 48.67 385.269 48.4353 385.049 48.142C384.829 47.8413 384.712 47.5077 384.697 47.141H385.995C386.017 47.3977 386.138 47.614 386.358 47.79C386.585 47.9587 386.868 48.043 387.205 48.043C387.557 48.043 387.828 47.977 388.019 47.845C388.217 47.7057 388.316 47.5297 388.316 47.317C388.316 47.0897 388.206 46.921 387.986 46.811C387.773 46.701 387.432 46.58 386.963 46.448C386.508 46.3233 386.138 46.2023 385.852 46.085C385.566 45.9677 385.317 45.788 385.104 45.546C384.899 45.304 384.796 44.985 384.796 44.589C384.796 44.2663 384.891 43.973 385.082 43.709C385.273 43.4377 385.544 43.225 385.896 43.071C386.255 42.917 386.666 42.84 387.128 42.84C387.817 42.84 388.371 43.016 388.789 43.368C389.214 43.7127 389.442 44.1857 389.471 44.787H388.217C388.195 44.5157 388.085 44.2993 387.887 44.138C387.689 43.9767 387.421 43.896 387.084 43.896C386.754 43.896 386.501 43.9583 386.325 44.083C386.149 44.2077 386.061 44.3727 386.061 44.578C386.061 44.7393 386.12 44.875 386.237 44.985C386.354 45.095 386.497 45.183 386.666 45.249C386.835 45.3077 387.084 45.3847 387.414 45.48C387.854 45.5973 388.213 45.7183 388.492 45.843C388.778 45.9603 389.024 46.1363 389.229 46.371C389.434 46.6057 389.541 46.9173 389.548 47.306C389.548 47.6507 389.453 47.9587 389.262 48.23C389.071 48.5013 388.8 48.714 388.448 48.868C388.103 49.022 387.696 49.099 387.227 49.099ZM391.409 49.077C391.182 49.077 390.991 49 390.837 48.846C390.683 48.692 390.606 48.5013 390.606 48.274C390.606 48.0467 390.683 47.856 390.837 47.702C390.991 47.548 391.182 47.471 391.409 47.471C391.629 47.471 391.816 47.548 391.97 47.702C392.124 47.856 392.201 48.0467 392.201 48.274C392.201 48.5013 392.124 48.692 391.97 48.846C391.816 49 391.629 49.077 391.409 49.077Z"></path>
<mask fill="white" id="path-4-inside-1_747_178">
<path d="M400 35C400 32.2386 402.239 30 405 30H455C457.761 30 460 32.2386 460 35V55C460 57.7614 457.761 60 455 60H405C402.239 60 400 57.7614 400 55V35Z"></path>
</mask>
<path fill-opacity="0.05" fill="black" d="M400 35C400 32.2386 402.239 30 405 30H455C457.761 30 460 32.2386 460 35V55C460 57.7614 457.761 60 455 60H405C402.239 60 400 57.7614 400 55V35Z"></path>
<path mask="url(#path-4-inside-1_747_178)" fill-opacity="0.05" fill="black" d="M400 35C400 31.6863 402.686 29 406 29H454C457.314 29 460 31.6863 460 35C460 32.7909 457.761 31 455 31H405C402.239 31 400 32.7909 400 35ZM460 60H400H460ZM400 60V30V60ZM460 30V60V30Z"></path>
<path fill="black" d="M415.057 49L413.297 45.942H412.34V49H411.086V41.355H413.726C414.313 41.355 414.808 41.4577 415.211 41.663C415.622 41.8683 415.926 42.1433 416.124 42.488C416.33 42.8327 416.432 43.2177 416.432 43.643C416.432 44.1417 416.286 44.5963 415.992 45.007C415.706 45.4103 415.263 45.6853 414.661 45.832L416.553 49H415.057ZM412.34 44.941H413.726C414.196 44.941 414.548 44.8237 414.782 44.589C415.024 44.3543 415.145 44.039 415.145 43.643C415.145 43.247 415.028 42.939 414.793 42.719C414.559 42.4917 414.203 42.378 413.726 42.378H412.34V44.941ZM423.591 45.821C423.591 46.0483 423.577 46.2537 423.547 46.437H418.916C418.953 46.921 419.133 47.3097 419.455 47.603C419.778 47.8963 420.174 48.043 420.643 48.043C421.318 48.043 421.795 47.7607 422.073 47.196H423.426C423.243 47.7533 422.909 48.2117 422.425 48.571C421.949 48.923 421.355 49.099 420.643 49.099C420.064 49.099 419.543 48.9707 419.081 48.714C418.627 48.45 418.267 48.0833 418.003 47.614C417.747 47.1373 417.618 46.5873 417.618 45.964C417.618 45.3407 417.743 44.7943 417.992 44.325C418.249 43.8483 418.605 43.4817 419.059 43.225C419.521 42.9683 420.049 42.84 420.643 42.84C421.215 42.84 421.725 42.9647 422.172 43.214C422.62 43.4633 422.968 43.8153 423.217 44.27C423.467 44.7173 423.591 45.2343 423.591 45.821ZM422.282 45.425C422.275 44.963 422.11 44.5927 421.787 44.314C421.465 44.0353 421.065 43.896 420.588 43.896C420.156 43.896 419.785 44.0353 419.477 44.314C419.169 44.5853 418.986 44.9557 418.927 45.425H422.282ZM427.025 49.099C426.549 49.099 426.12 49.0147 425.738 48.846C425.364 48.67 425.067 48.4353 424.847 48.142C424.627 47.8413 424.51 47.5077 424.495 47.141H425.793C425.815 47.3977 425.936 47.614 426.156 47.79C426.384 47.9587 426.666 48.043 427.003 48.043C427.355 48.043 427.627 47.977 427.817 47.845C428.015 47.7057 428.114 47.5297 428.114 47.317C428.114 47.0897 428.004 46.921 427.784 46.811C427.572 46.701 427.231 46.58 426.761 46.448C426.307 46.3233 425.936 46.2023 425.65 46.085C425.364 45.9677 425.115 45.788 424.902 45.546C424.697 45.304 424.594 44.985 424.594 44.589C424.594 44.2663 424.69 43.973 424.88 43.709C425.071 43.4377 425.342 43.225 425.694 43.071C426.054 42.917 426.464 42.84 426.926 42.84C427.616 42.84 428.169 43.016 428.587 43.368C429.013 43.7127 429.24 44.1857 429.269 44.787H428.015C427.993 44.5157 427.883 44.2993 427.685 44.138C427.487 43.9767 427.22 43.896 426.882 43.896C426.552 43.896 426.299 43.9583 426.123 44.083C425.947 44.2077 425.859 44.3727 425.859 44.578C425.859 44.7393 425.918 44.875 426.035 44.985C426.153 45.095 426.296 45.183 426.464 45.249C426.633 45.3077 426.882 45.3847 427.212 45.48C427.652 45.5973 428.012 45.7183 428.29 45.843C428.576 45.9603 428.822 46.1363 429.027 46.371C429.233 46.6057 429.339 46.9173 429.346 47.306C429.346 47.6507 429.251 47.9587 429.06 48.23C428.87 48.5013 428.598 48.714 428.246 48.868C427.902 49.022 427.495 49.099 427.025 49.099ZM432.164 43.962V47.317C432.164 47.5443 432.216 47.7093 432.318 47.812C432.428 47.9073 432.612 47.955 432.868 47.955H433.638V49H432.648C432.084 49 431.651 48.868 431.35 48.604C431.05 48.34 430.899 47.911 430.899 47.317V43.962H430.184V42.939H430.899V41.432H432.164V42.939H433.638V43.962H432.164ZM434.376 45.942C434.376 45.3333 434.501 44.7943 434.75 44.325C435.007 43.8557 435.352 43.4927 435.784 43.236C436.224 42.972 436.708 42.84 437.236 42.84C437.713 42.84 438.127 42.9353 438.479 43.126C438.839 43.3093 439.125 43.5403 439.337 43.819V42.939H440.602V49H439.337V48.098C439.125 48.384 438.835 48.6223 438.468 48.813C438.102 49.0037 437.684 49.099 437.214 49.099C436.694 49.099 436.217 48.967 435.784 48.703C435.352 48.4317 435.007 48.0577 434.75 47.581C434.501 47.097 434.376 46.5507 434.376 45.942ZM439.337 45.964C439.337 45.546 439.249 45.183 439.073 44.875C438.905 44.567 438.681 44.3323 438.402 44.171C438.124 44.0097 437.823 43.929 437.5 43.929C437.178 43.929 436.877 44.0097 436.598 44.171C436.32 44.325 436.092 44.556 435.916 44.864C435.748 45.1647 435.663 45.524 435.663 45.942C435.663 46.36 435.748 46.7267 435.916 47.042C436.092 47.3573 436.32 47.5993 436.598 47.768C436.884 47.9293 437.185 48.01 437.5 48.01C437.823 48.01 438.124 47.9293 438.402 47.768C438.681 47.6067 438.905 47.372 439.073 47.064C439.249 46.7487 439.337 46.382 439.337 45.964ZM443.503 43.819C443.687 43.511 443.929 43.2727 444.229 43.104C444.537 42.928 444.9 42.84 445.318 42.84V44.138H444.999C444.508 44.138 444.134 44.2627 443.877 44.512C443.628 44.7613 443.503 45.194 443.503 45.81V49H442.249V42.939H443.503V43.819ZM447.934 43.962V47.317C447.934 47.5443 447.985 47.7093 448.088 47.812C448.198 47.9073 448.381 47.955 448.638 47.955H449.408V49H448.418C447.853 49 447.421 48.868 447.12 48.604C446.819 48.34 446.669 47.911 446.669 47.317V43.962H445.954V42.939H446.669V41.432H447.934V42.939H449.408V43.962H447.934Z"></path>
</svg>
