<svg xmlns="http://www.w3.org/2000/svg" fill="none" viewBox="0 0 480 360" height="360" width="480">
<path fill="white" d="M191.577 43L187.881 36.472H186.297V43H182.937V26.248H189.225C190.521 26.248 191.625 26.48 192.537 26.944C193.449 27.392 194.129 28.008 194.577 28.792C195.041 29.56 195.273 30.424 195.273 31.384C195.273 32.488 194.953 33.488 194.313 34.384C193.673 35.264 192.721 35.872 191.457 36.208L195.465 43H191.577ZM186.297 33.952H189.105C190.017 33.952 190.697 33.736 191.145 33.304C191.593 32.856 191.817 32.24 191.817 31.456C191.817 30.688 191.593 30.096 191.145 29.68C190.697 29.248 190.017 29.032 189.105 29.032H186.297V33.952ZM210.672 36.064C210.672 36.544 210.64 36.976 210.576 37.36H200.856C200.936 38.32 201.272 39.072 201.864 39.616C202.456 40.16 203.184 40.432 204.048 40.432C205.296 40.432 206.184 39.896 206.712 38.824H210.336C209.952 40.104 209.216 41.16 208.128 41.992C207.04 42.808 205.704 43.216 204.12 43.216C202.84 43.216 201.688 42.936 200.664 42.376C199.656 41.8 198.864 40.992 198.288 39.952C197.728 38.912 197.448 37.712 197.448 36.352C197.448 34.976 197.728 33.768 198.288 32.728C198.848 31.688 199.632 30.888 200.64 30.328C201.648 29.768 202.808 29.488 204.12 29.488C205.384 29.488 206.512 29.76 207.504 30.304C208.512 30.848 209.288 31.624 209.832 32.632C210.392 33.624 210.672 34.768 210.672 36.064ZM207.192 35.104C207.176 34.24 206.864 33.552 206.256 33.04C205.648 32.512 204.904 32.248 204.024 32.248C203.192 32.248 202.488 32.504 201.912 33.016C201.352 33.512 201.008 34.208 200.88 35.104H207.192ZM214.829 28.12C214.237 28.12 213.741 27.936 213.341 27.568C212.957 27.184 212.765 26.712 212.765 26.152C212.765 25.592 212.957 25.128 213.341 24.76C213.741 24.376 214.237 24.184 214.829 24.184C215.421 24.184 215.909 24.376 216.293 24.76C216.693 25.128 216.893 25.592 216.893 26.152C216.893 26.712 216.693 27.184 216.293 27.568C215.909 27.936 215.421 28.12 214.829 28.12ZM216.485 29.704V43H213.125V29.704H216.485ZM227.172 29.512C228.756 29.512 230.036 30.016 231.012 31.024C231.988 32.016 232.476 33.408 232.476 35.2V43H229.116V35.656C229.116 34.6 228.852 33.792 228.324 33.232C227.796 32.656 227.076 32.368 226.164 32.368C225.236 32.368 224.5 32.656 223.956 33.232C223.428 33.792 223.164 34.6 223.164 35.656V43H219.804V29.704H223.164V31.36C223.612 30.784 224.18 30.336 224.868 30.016C225.572 29.68 226.34 29.512 227.172 29.512ZM240.76 43.216C239.672 43.216 238.696 43.024 237.832 42.64C236.968 42.24 236.28 41.704 235.768 41.032C235.272 40.36 235 39.616 234.952 38.8H238.336C238.4 39.312 238.648 39.736 239.08 40.072C239.528 40.408 240.08 40.576 240.736 40.576C241.376 40.576 241.872 40.448 242.224 40.192C242.592 39.936 242.776 39.608 242.776 39.208C242.776 38.776 242.552 38.456 242.104 38.248C241.672 38.024 240.976 37.784 240.016 37.528C239.024 37.288 238.208 37.04 237.568 36.784C236.944 36.528 236.4 36.136 235.936 35.608C235.488 35.08 235.264 34.368 235.264 33.472C235.264 32.736 235.472 32.064 235.888 31.456C236.32 30.848 236.928 30.368 237.712 30.016C238.512 29.664 239.448 29.488 240.52 29.488C242.104 29.488 243.368 29.888 244.312 30.688C245.256 31.472 245.776 32.536 245.872 33.88H242.656C242.608 33.352 242.384 32.936 241.984 32.632C241.6 32.312 241.08 32.152 240.424 32.152C239.816 32.152 239.344 32.264 239.008 32.488C238.688 32.712 238.528 33.024 238.528 33.424C238.528 33.872 238.752 34.216 239.2 34.456C239.648 34.68 240.344 34.912 241.288 35.152C242.248 35.392 243.04 35.64 243.664 35.896C244.288 36.152 244.824 36.552 245.272 37.096C245.736 37.624 245.976 38.328 245.992 39.208C245.992 39.976 245.776 40.664 245.344 41.272C244.928 41.88 244.32 42.36 243.52 42.712C242.736 43.048 241.816 43.216 240.76 43.216ZM252.662 32.464V38.896C252.662 39.344 252.766 39.672 252.974 39.88C253.198 40.072 253.566 40.168 254.078 40.168H255.638V43H253.526C250.694 43 249.278 41.624 249.278 38.872V32.464H247.694V29.704H249.278V26.416H252.662V29.704H255.638V32.464H252.662ZM257.19 36.304C257.19 34.96 257.454 33.768 257.982 32.728C258.526 31.688 259.254 30.888 260.166 30.328C261.094 29.768 262.126 29.488 263.262 29.488C264.254 29.488 265.118 29.688 265.854 30.088C266.606 30.488 267.206 30.992 267.654 31.6V29.704H271.038V43H267.654V41.056C267.222 41.68 266.622 42.2 265.854 42.616C265.102 43.016 264.23 43.216 263.238 43.216C262.118 43.216 261.094 42.928 260.166 42.352C259.254 41.776 258.526 40.968 257.982 39.928C257.454 38.872 257.19 37.664 257.19 36.304ZM267.654 36.352C267.654 35.536 267.494 34.84 267.174 34.264C266.854 33.672 266.422 33.224 265.878 32.92C265.334 32.6 264.75 32.44 264.126 32.44C263.502 32.44 262.926 32.592 262.398 32.896C261.87 33.2 261.438 33.648 261.102 34.24C260.782 34.816 260.622 35.504 260.622 36.304C260.622 37.104 260.782 37.808 261.102 38.416C261.438 39.008 261.87 39.464 262.398 39.784C262.942 40.104 263.518 40.264 264.126 40.264C264.75 40.264 265.334 40.112 265.878 39.808C266.422 39.488 266.854 39.04 267.174 38.464C267.494 37.872 267.654 37.168 267.654 36.352ZM277.68 25.24V43H274.32V25.24H277.68ZM284.36 25.24V43H281V25.24H284.36ZM315.79 26.248L311.11 43H307.15L304.006 31.072L300.718 43L296.782 43.024L292.27 26.248H295.87L298.822 39.256L302.23 26.248H305.974L309.19 39.184L312.166 26.248H315.79ZM319.688 28.12C319.096 28.12 318.6 27.936 318.2 27.568C317.816 27.184 317.624 26.712 317.624 26.152C317.624 25.592 317.816 25.128 318.2 24.76C318.6 24.376 319.096 24.184 319.688 24.184C320.28 24.184 320.768 24.376 321.152 24.76C321.552 25.128 321.752 25.592 321.752 26.152C321.752 26.712 321.552 27.184 321.152 27.568C320.768 27.936 320.28 28.12 319.688 28.12ZM321.344 29.704V43H317.984V29.704H321.344ZM332.032 29.512C333.616 29.512 334.896 30.016 335.872 31.024C336.848 32.016 337.336 33.408 337.336 35.2V43H333.976V35.656C333.976 34.6 333.712 33.792 333.184 33.232C332.656 32.656 331.936 32.368 331.024 32.368C330.096 32.368 329.36 32.656 328.816 33.232C328.288 33.792 328.024 34.6 328.024 35.656V43H324.664V29.704H328.024V31.36C328.472 30.784 329.04 30.336 329.728 30.016C330.432 29.68 331.2 29.512 332.032 29.512ZM339.667 36.304C339.667 34.96 339.931 33.768 340.459 32.728C341.003 31.688 341.739 30.888 342.667 30.328C343.595 29.768 344.627 29.488 345.763 29.488C346.627 29.488 347.451 29.68 348.235 30.064C349.019 30.432 349.643 30.928 350.107 31.552V25.24H353.515V43H350.107V41.032C349.691 41.688 349.107 42.216 348.355 42.616C347.603 43.016 346.731 43.216 345.739 43.216C344.619 43.216 343.595 42.928 342.667 42.352C341.739 41.776 341.003 40.968 340.459 39.928C339.931 38.872 339.667 37.664 339.667 36.304ZM350.131 36.352C350.131 35.536 349.971 34.84 349.651 34.264C349.331 33.672 348.899 33.224 348.355 32.92C347.811 32.6 347.227 32.44 346.603 32.44C345.979 32.44 345.403 32.592 344.875 32.896C344.347 33.2 343.915 33.648 343.579 34.24C343.259 34.816 343.099 35.504 343.099 36.304C343.099 37.104 343.259 37.808 343.579 38.416C343.915 39.008 344.347 39.464 344.875 39.784C345.419 40.104 345.995 40.264 346.603 40.264C347.227 40.264 347.811 40.112 348.355 39.808C348.899 39.488 349.331 39.04 349.651 38.464C349.971 37.872 350.131 37.168 350.131 36.352ZM362.701 43.216C361.421 43.216 360.269 42.936 359.245 42.376C358.221 41.8 357.413 40.992 356.821 39.952C356.245 38.912 355.957 37.712 355.957 36.352C355.957 34.992 356.253 33.792 356.845 32.752C357.453 31.712 358.277 30.912 359.317 30.352C360.357 29.776 361.517 29.488 362.797 29.488C364.077 29.488 365.237 29.776 366.277 30.352C367.317 30.912 368.133 31.712 368.725 32.752C369.333 33.792 369.637 34.992 369.637 36.352C369.637 37.712 369.325 38.912 368.701 39.952C368.093 40.992 367.261 41.8 366.205 42.376C365.165 42.936 363.997 43.216 362.701 43.216ZM362.701 40.288C363.309 40.288 363.877 40.144 364.405 39.856C364.949 39.552 365.381 39.104 365.701 38.512C366.021 37.92 366.181 37.2 366.181 36.352C366.181 35.088 365.845 34.12 365.173 33.448C364.517 32.76 363.709 32.416 362.749 32.416C361.789 32.416 360.981 32.76 360.325 33.448C359.685 34.12 359.365 35.088 359.365 36.352C359.365 37.616 359.677 38.592 360.301 39.28C360.941 39.952 361.741 40.288 362.701 40.288ZM390.533 29.704L386.645 43H383.021L380.597 33.712L378.173 43H374.525L370.613 29.704H374.021L376.373 39.832L378.917 29.704H382.469L384.965 39.808L387.317 29.704H390.533ZM397.439 43.216C396.351 43.216 395.375 43.024 394.511 42.64C393.647 42.24 392.959 41.704 392.447 41.032C391.951 40.36 391.679 39.616 391.631 38.8H395.015C395.079 39.312 395.327 39.736 395.759 40.072C396.207 40.408 396.759 40.576 397.415 40.576C398.055 40.576 398.551 40.448 398.903 40.192C399.271 39.936 399.455 39.608 399.455 39.208C399.455 38.776 399.231 38.456 398.783 38.248C398.351 38.024 397.655 37.784 396.695 37.528C395.703 37.288 394.887 37.04 394.247 36.784C393.623 36.528 393.079 36.136 392.615 35.608C392.167 35.08 391.943 34.368 391.943 33.472C391.943 32.736 392.151 32.064 392.567 31.456C392.999 30.848 393.607 30.368 394.391 30.016C395.191 29.664 396.127 29.488 397.199 29.488C398.783 29.488 400.047 29.888 400.991 30.688C401.935 31.472 402.455 32.536 402.551 33.88H399.335C399.287 33.352 399.063 32.936 398.663 32.632C398.279 32.312 397.759 32.152 397.103 32.152C396.495 32.152 396.023 32.264 395.687 32.488C395.367 32.712 395.207 33.024 395.207 33.424C395.207 33.872 395.431 34.216 395.879 34.456C396.327 34.68 397.023 34.912 397.967 35.152C398.927 35.392 399.719 35.64 400.343 35.896C400.967 36.152 401.503 36.552 401.951 37.096C402.415 37.624 402.655 38.328 402.671 39.208C402.671 39.976 402.455 40.664 402.023 41.272C401.607 41.88 400.999 42.36 400.199 42.712C399.415 43.048 398.495 43.216 397.439 43.216ZM410.356 28.6V25.504H416.14V43H412.684V28.6H410.356ZM419.052 28.6V25.504H424.836V43H421.38V28.6H419.052ZM440.042 43.168C438.874 43.168 437.818 42.968 436.874 42.568C435.946 42.168 435.21 41.592 434.666 40.84C434.122 40.088 433.842 39.2 433.826 38.176H437.426C437.474 38.864 437.714 39.408 438.146 39.808C438.594 40.208 439.202 40.408 439.97 40.408C440.754 40.408 441.37 40.224 441.818 39.856C442.266 39.472 442.49 38.976 442.49 38.368C442.49 37.872 442.338 37.464 442.034 37.144C441.73 36.824 441.346 36.576 440.882 36.4C440.434 36.208 439.81 36 439.01 35.776C437.922 35.456 437.034 35.144 436.346 34.84C435.674 34.52 435.09 34.048 434.594 33.424C434.114 32.784 433.874 31.936 433.874 30.88C433.874 29.888 434.122 29.024 434.618 28.288C435.114 27.552 435.81 26.992 436.706 26.608C437.602 26.208 438.626 26.008 439.778 26.008C441.506 26.008 442.906 26.432 443.978 27.28C445.066 28.112 445.666 29.28 445.778 30.784H442.082C442.05 30.208 441.802 29.736 441.338 29.368C440.89 28.984 440.29 28.792 439.538 28.792C438.882 28.792 438.354 28.96 437.954 29.296C437.57 29.632 437.378 30.12 437.378 30.76C437.378 31.208 437.522 31.584 437.81 31.888C438.114 32.176 438.482 32.416 438.914 32.608C439.362 32.784 439.986 32.992 440.786 33.232C441.874 33.552 442.762 33.872 443.45 34.192C444.138 34.512 444.73 34.992 445.226 35.632C445.722 36.272 445.97 37.112 445.97 38.152C445.97 39.048 445.738 39.88 445.274 40.648C444.81 41.416 444.13 42.032 443.234 42.496C442.338 42.944 441.274 43.168 440.042 43.168ZM452.243 28.96V33.16H457.883V35.824H452.243V40.264H458.603V43H448.883V26.224H458.603V28.96H452.243Z"></path>
<path fill-opacity="0.75" fill="white" d="M66.2562 76.355V84H65.0022V76.355H66.2562ZM70.4436 78.962H69.3216V84H68.0566V78.962H67.3416V77.939H68.0566V77.51C68.0566 76.8133 68.24 76.3073 68.6066 75.992C68.9806 75.6693 69.5636 75.508 70.3556 75.508V76.553C69.9743 76.553 69.7066 76.6263 69.5526 76.773C69.3986 76.9123 69.3216 77.158 69.3216 77.51V77.939H70.4436V78.962ZM84.3674 76.355L82.1014 84H80.6824L79.0764 78.214L77.3714 84L75.9634 84.011L73.7964 76.355H75.1274L76.7114 82.581L78.4274 76.355H79.8354L81.4304 82.548L83.0254 76.355H84.3674ZM86.0397 77.136C85.8123 77.136 85.6217 77.059 85.4677 76.905C85.3137 76.751 85.2367 76.5603 85.2367 76.333C85.2367 76.1057 85.3137 75.915 85.4677 75.761C85.6217 75.607 85.8123 75.53 86.0397 75.53C86.2597 75.53 86.4467 75.607 86.6007 75.761C86.7547 75.915 86.8317 76.1057 86.8317 76.333C86.8317 76.5603 86.7547 76.751 86.6007 76.905C86.4467 77.059 86.2597 77.136 86.0397 77.136ZM86.6557 77.939V84H85.4017V77.939H86.6557ZM91.3601 77.84C91.8367 77.84 92.2621 77.939 92.6361 78.137C93.0174 78.335 93.3144 78.6283 93.5271 79.017C93.7397 79.4057 93.8461 79.875 93.8461 80.425V84H92.6031V80.612C92.6031 80.0693 92.4674 79.655 92.1961 79.369C91.9247 79.0757 91.5544 78.929 91.0851 78.929C90.6157 78.929 90.2417 79.0757 89.9631 79.369C89.6917 79.655 89.5561 80.0693 89.5561 80.612V84H88.3021V77.939H89.5561V78.632C89.7614 78.3827 90.0217 78.1883 90.3371 78.049C90.6597 77.9097 91.0007 77.84 91.3601 77.84ZM95.0276 80.942C95.0276 80.3333 95.1523 79.7943 95.4016 79.325C95.6583 78.8557 96.0029 78.4927 96.4356 78.236C96.8756 77.972 97.3633 77.84 97.8986 77.84C98.2946 77.84 98.6833 77.928 99.0646 78.104C99.4533 78.2727 99.7613 78.5 99.9886 78.786V75.86H101.254V84H99.9886V83.087C99.7833 83.3803 99.4973 83.6223 99.1306 83.813C98.7713 84.0037 98.3569 84.099 97.8876 84.099C97.3596 84.099 96.8756 83.967 96.4356 83.703C96.0029 83.4317 95.6583 83.0577 95.4016 82.581C95.1523 82.097 95.0276 81.5507 95.0276 80.942ZM99.9886 80.964C99.9886 80.546 99.9006 80.183 99.7246 79.875C99.5559 79.567 99.3323 79.3323 99.0536 79.171C98.7749 79.0097 98.4743 78.929 98.1516 78.929C97.8289 78.929 97.5283 79.0097 97.2496 79.171C96.9709 79.325 96.7436 79.556 96.5676 79.864C96.3989 80.1647 96.3146 80.524 96.3146 80.942C96.3146 81.36 96.3989 81.7267 96.5676 82.042C96.7436 82.3573 96.9709 82.5993 97.2496 82.768C97.5356 82.9293 97.8363 83.01 98.1516 83.01C98.4743 83.01 98.7749 82.9293 99.0536 82.768C99.3323 82.6067 99.5559 82.372 99.7246 82.064C99.9006 81.7487 99.9886 81.382 99.9886 80.964ZM105.53 84.099C104.958 84.099 104.441 83.9707 103.979 83.714C103.517 83.45 103.154 83.0833 102.89 82.614C102.626 82.1373 102.494 81.5873 102.494 80.964C102.494 80.348 102.629 79.8017 102.901 79.325C103.172 78.8483 103.542 78.4817 104.012 78.225C104.481 77.9683 105.005 77.84 105.585 77.84C106.164 77.84 106.688 77.9683 107.158 78.225C107.627 78.4817 107.997 78.8483 108.269 79.325C108.54 79.8017 108.676 80.348 108.676 80.964C108.676 81.58 108.536 82.1263 108.258 82.603C107.979 83.0797 107.598 83.45 107.114 83.714C106.637 83.9707 106.109 84.099 105.53 84.099ZM105.53 83.01C105.852 83.01 106.153 82.933 106.432 82.779C106.718 82.625 106.949 82.394 107.125 82.086C107.301 81.778 107.389 81.404 107.389 80.964C107.389 80.524 107.304 80.1537 107.136 79.853C106.967 79.545 106.743 79.314 106.465 79.16C106.186 79.006 105.885 78.929 105.563 78.929C105.24 78.929 104.939 79.006 104.661 79.16C104.389 79.314 104.173 79.545 104.012 79.853C103.85 80.1537 103.77 80.524 103.77 80.964C103.77 81.6167 103.935 82.1227 104.265 82.482C104.602 82.834 105.024 83.01 105.53 83.01ZM118.055 77.939L116.174 84H114.854L113.633 79.523L112.412 84H111.092L109.2 77.939H110.476L111.741 82.812L113.028 77.939H114.337L115.569 82.79L116.823 77.939H118.055ZM121.192 84.099C120.716 84.099 120.287 84.0147 119.905 83.846C119.531 83.67 119.234 83.4353 119.014 83.142C118.794 82.8413 118.677 82.5077 118.662 82.141H119.96C119.982 82.3977 120.103 82.614 120.323 82.79C120.551 82.9587 120.833 83.043 121.17 83.043C121.522 83.043 121.794 82.977 121.984 82.845C122.182 82.7057 122.281 82.5297 122.281 82.317C122.281 82.0897 122.171 81.921 121.951 81.811C121.739 81.701 121.398 81.58 120.928 81.448C120.474 81.3233 120.103 81.2023 119.817 81.085C119.531 80.9677 119.282 80.788 119.069 80.546C118.864 80.304 118.761 79.985 118.761 79.589C118.761 79.2663 118.857 78.973 119.047 78.709C119.238 78.4377 119.509 78.225 119.861 78.071C120.221 77.917 120.631 77.84 121.093 77.84C121.783 77.84 122.336 78.016 122.754 78.368C123.18 78.7127 123.407 79.1857 123.436 79.787H122.182C122.16 79.5157 122.05 79.2993 121.852 79.138C121.654 78.9767 121.387 78.896 121.049 78.896C120.719 78.896 120.466 78.9583 120.29 79.083C120.114 79.2077 120.026 79.3727 120.026 79.578C120.026 79.7393 120.085 79.875 120.202 79.985C120.32 80.095 120.463 80.183 120.631 80.249C120.8 80.3077 121.049 80.3847 121.379 80.48C121.819 80.5973 122.179 80.7183 122.457 80.843C122.743 80.9603 122.989 81.1363 123.194 81.371C123.4 81.6057 123.506 81.9173 123.513 82.306C123.513 82.6507 123.418 82.9587 123.227 83.23C123.037 83.5013 122.765 83.714 122.413 83.868C122.069 84.022 121.662 84.099 121.192 84.099ZM127.396 77.125V75.981H129.684V84H128.419V77.125H127.396ZM131.242 77.125V75.981H133.53V84H132.265V77.125H131.242ZM140.794 84.077C140.28 84.077 139.818 83.989 139.408 83.813C138.997 83.6297 138.674 83.373 138.44 83.043C138.205 82.713 138.088 82.328 138.088 81.888H139.43C139.459 82.218 139.587 82.4893 139.815 82.702C140.049 82.9147 140.376 83.021 140.794 83.021C141.226 83.021 141.564 82.9183 141.806 82.713C142.048 82.5003 142.169 82.229 142.169 81.899C142.169 81.6423 142.092 81.4333 141.938 81.272C141.791 81.1107 141.604 80.986 141.377 80.898C141.157 80.81 140.849 80.7147 140.453 80.612C139.954 80.48 139.547 80.348 139.232 80.216C138.924 80.0767 138.66 79.864 138.44 79.578C138.22 79.292 138.11 78.9107 138.11 78.434C138.11 77.994 138.22 77.609 138.44 77.279C138.66 76.949 138.968 76.696 139.364 76.52C139.76 76.344 140.218 76.256 140.739 76.256C141.479 76.256 142.084 76.443 142.554 76.817C143.03 77.1837 143.294 77.6897 143.346 78.335H141.96C141.938 78.0563 141.806 77.818 141.564 77.62C141.322 77.422 141.003 77.323 140.607 77.323C140.247 77.323 139.954 77.4147 139.727 77.598C139.499 77.7813 139.386 78.0453 139.386 78.39C139.386 78.6247 139.455 78.819 139.595 78.973C139.741 79.1197 139.925 79.237 140.145 79.325C140.365 79.413 140.665 79.5083 141.047 79.611C141.553 79.7503 141.963 79.8897 142.279 80.029C142.601 80.1683 142.873 80.3847 143.093 80.678C143.32 80.964 143.434 81.349 143.434 81.833C143.434 82.2217 143.327 82.5883 143.115 82.933C142.909 83.2777 142.605 83.5563 142.202 83.769C141.806 83.9743 141.336 84.077 140.794 84.077ZM146.167 77.367V79.611H148.807V80.634H146.167V82.977H149.137V84H144.913V76.344H149.137V77.367H146.167ZM153.121 80.942C153.121 80.3333 153.246 79.7943 153.495 79.325C153.752 78.8557 154.097 78.4927 154.529 78.236C154.969 77.972 155.457 77.84 155.992 77.84C156.388 77.84 156.777 77.928 157.158 78.104C157.547 78.2727 157.855 78.5 158.082 78.786V75.86H159.347V84H158.082V83.087C157.877 83.3803 157.591 83.6223 157.224 83.813C156.865 84.0037 156.451 84.099 155.981 84.099C155.453 84.099 154.969 83.967 154.529 83.703C154.097 83.4317 153.752 83.0577 153.495 82.581C153.246 82.097 153.121 81.5507 153.121 80.942ZM158.082 80.964C158.082 80.546 157.994 80.183 157.818 79.875C157.65 79.567 157.426 79.3323 157.147 79.171C156.869 79.0097 156.568 78.929 156.245 78.929C155.923 78.929 155.622 79.0097 155.343 79.171C155.065 79.325 154.837 79.556 154.661 79.864C154.493 80.1647 154.408 80.524 154.408 80.942C154.408 81.36 154.493 81.7267 154.661 82.042C154.837 82.3573 155.065 82.5993 155.343 82.768C155.629 82.9293 155.93 83.01 156.245 83.01C156.568 83.01 156.869 82.9293 157.147 82.768C157.426 82.6067 157.65 82.372 157.818 82.064C157.994 81.7487 158.082 81.382 158.082 80.964ZM163.623 84.099C163.051 84.099 162.534 83.9707 162.072 83.714C161.61 83.45 161.247 83.0833 160.983 82.614C160.719 82.1373 160.587 81.5873 160.587 80.964C160.587 80.348 160.723 79.8017 160.994 79.325C161.266 78.8483 161.636 78.4817 162.105 78.225C162.575 77.9683 163.099 77.84 163.678 77.84C164.258 77.84 164.782 77.9683 165.251 78.225C165.721 78.4817 166.091 78.8483 166.362 79.325C166.634 79.8017 166.769 80.348 166.769 80.964C166.769 81.58 166.63 82.1263 166.351 82.603C166.073 83.0797 165.691 83.45 165.207 83.714C164.731 83.9707 164.203 84.099 163.623 84.099ZM163.623 83.01C163.946 83.01 164.247 82.933 164.525 82.779C164.811 82.625 165.042 82.394 165.218 82.086C165.394 81.778 165.482 81.404 165.482 80.964C165.482 80.524 165.398 80.1537 165.229 79.853C165.061 79.545 164.837 79.314 164.558 79.16C164.28 79.006 163.979 78.929 163.656 78.929C163.334 78.929 163.033 79.006 162.754 79.16C162.483 79.314 162.267 79.545 162.105 79.853C161.944 80.1537 161.863 80.524 161.863 80.964C161.863 81.6167 162.028 82.1227 162.358 82.482C162.696 82.834 163.117 83.01 163.623 83.01ZM173.564 80.821C173.564 81.0483 173.549 81.2537 173.52 81.437H168.889C168.926 81.921 169.105 82.3097 169.428 82.603C169.751 82.8963 170.147 83.043 170.616 83.043C171.291 83.043 171.767 82.7607 172.046 82.196H173.399C173.216 82.7533 172.882 83.2117 172.398 83.571C171.921 83.923 171.327 84.099 170.616 84.099C170.037 84.099 169.516 83.9707 169.054 83.714C168.599 83.45 168.24 83.0833 167.976 82.614C167.719 82.1373 167.591 81.5873 167.591 80.964C167.591 80.3407 167.716 79.7943 167.965 79.325C168.222 78.8483 168.577 78.4817 169.032 78.225C169.494 77.9683 170.022 77.84 170.616 77.84C171.188 77.84 171.698 77.9647 172.145 78.214C172.592 78.4633 172.941 78.8153 173.19 79.27C173.439 79.7173 173.564 80.2343 173.564 80.821ZM172.255 80.425C172.248 79.963 172.083 79.5927 171.76 79.314C171.437 79.0353 171.038 78.896 170.561 78.896C170.128 78.896 169.758 79.0353 169.45 79.314C169.142 79.5853 168.959 79.9557 168.9 80.425H172.255ZM176.998 84.099C176.521 84.099 176.092 84.0147 175.711 83.846C175.337 83.67 175.04 83.4353 174.82 83.142C174.6 82.8413 174.483 82.5077 174.468 82.141H175.766C175.788 82.3977 175.909 82.614 176.129 82.79C176.356 82.9587 176.639 83.043 176.976 83.043C177.328 83.043 177.599 82.977 177.79 82.845C177.988 82.7057 178.087 82.5297 178.087 82.317C178.087 82.0897 177.977 81.921 177.757 81.811C177.544 81.701 177.203 81.58 176.734 81.448C176.279 81.3233 175.909 81.2023 175.623 81.085C175.337 80.9677 175.088 80.788 174.875 80.546C174.67 80.304 174.567 79.985 174.567 79.589C174.567 79.2663 174.662 78.973 174.853 78.709C175.044 78.4377 175.315 78.225 175.667 78.071C176.026 77.917 176.437 77.84 176.899 77.84C177.588 77.84 178.142 78.016 178.56 78.368C178.985 78.7127 179.213 79.1857 179.242 79.787H177.988C177.966 79.5157 177.856 79.2993 177.658 79.138C177.46 78.9767 177.192 78.896 176.855 78.896C176.525 78.896 176.272 78.9583 176.096 79.083C175.92 79.2077 175.832 79.3727 175.832 79.578C175.832 79.7393 175.891 79.875 176.008 79.985C176.125 80.095 176.268 80.183 176.437 80.249C176.606 80.3077 176.855 80.3847 177.185 80.48C177.625 80.5973 177.984 80.7183 178.263 80.843C178.549 80.9603 178.795 81.1363 179 81.371C179.205 81.6057 179.312 81.9173 179.319 82.306C179.319 82.6507 179.224 82.9587 179.033 83.23C178.842 83.5013 178.571 83.714 178.219 83.868C177.874 84.022 177.467 84.099 176.998 84.099ZM183.732 77.84C184.209 77.84 184.634 77.939 185.008 78.137C185.389 78.335 185.686 78.6283 185.899 79.017C186.112 79.4057 186.218 79.875 186.218 80.425V84H184.975V80.612C184.975 80.0693 184.839 79.655 184.568 79.369C184.297 79.0757 183.926 78.929 183.457 78.929C182.988 78.929 182.614 79.0757 182.335 79.369C182.064 79.655 181.928 80.0693 181.928 80.612V84H180.674V77.939H181.928V78.632C182.133 78.3827 182.394 78.1883 182.709 78.049C183.032 77.9097 183.373 77.84 183.732 77.84ZM188.016 76.355H189.38L188.225 78.973H187.345L188.016 76.355ZM191.945 78.962V82.317C191.945 82.5443 191.996 82.7093 192.099 82.812C192.209 82.9073 192.392 82.955 192.649 82.955H193.419V84H192.429C191.864 84 191.431 83.868 191.131 83.604C190.83 83.34 190.68 82.911 190.68 82.317V78.962H189.965V77.939H190.68V76.432H191.945V77.939H193.419V78.962H191.945ZM205.572 77.939L203.691 84H202.371L201.15 79.523L199.929 84H198.609L196.717 77.939H197.993L199.258 82.812L200.545 77.939H201.854L203.086 82.79L204.34 77.939H205.572ZM209.138 84.099C208.566 84.099 208.049 83.9707 207.587 83.714C207.125 83.45 206.762 83.0833 206.498 82.614C206.234 82.1373 206.102 81.5873 206.102 80.964C206.102 80.348 206.238 79.8017 206.509 79.325C206.78 78.8483 207.151 78.4817 207.62 78.225C208.089 77.9683 208.614 77.84 209.193 77.84C209.772 77.84 210.297 77.9683 210.766 78.225C211.235 78.4817 211.606 78.8483 211.877 79.325C212.148 79.8017 212.284 80.348 212.284 80.964C212.284 81.58 212.145 82.1263 211.866 82.603C211.587 83.0797 211.206 83.45 210.722 83.714C210.245 83.9707 209.717 84.099 209.138 84.099ZM209.138 83.01C209.461 83.01 209.761 82.933 210.04 82.779C210.326 82.625 210.557 82.394 210.733 82.086C210.909 81.778 210.997 81.404 210.997 80.964C210.997 80.524 210.913 80.1537 210.744 79.853C210.575 79.545 210.352 79.314 210.073 79.16C209.794 79.006 209.494 78.929 209.171 78.929C208.848 78.929 208.548 79.006 208.269 79.16C207.998 79.314 207.781 79.545 207.62 79.853C207.459 80.1537 207.378 80.524 207.378 80.964C207.378 81.6167 207.543 82.1227 207.873 82.482C208.21 82.834 208.632 83.01 209.138 83.01ZM214.778 78.819C214.961 78.511 215.203 78.2727 215.504 78.104C215.812 77.928 216.175 77.84 216.593 77.84V79.138H216.274C215.782 79.138 215.408 79.2627 215.152 79.512C214.902 79.7613 214.778 80.194 214.778 80.81V84H213.524V77.939H214.778V78.819ZM220.143 80.975L222.937 84H221.243L218.999 81.393V84H217.745V75.86H218.999V80.59L221.199 77.939H222.937L220.143 80.975ZM226.276 80.964C226.276 80.3407 226.4 79.7943 226.65 79.325C226.906 78.8483 227.258 78.4817 227.706 78.225C228.153 77.9683 228.666 77.84 229.246 77.84C229.979 77.84 230.584 78.016 231.061 78.368C231.545 78.7127 231.871 79.2077 232.04 79.853H230.687C230.577 79.5523 230.401 79.3177 230.159 79.149C229.917 78.9803 229.612 78.896 229.246 78.896C228.732 78.896 228.322 79.0793 228.014 79.446C227.713 79.8053 227.563 80.3113 227.563 80.964C227.563 81.6167 227.713 82.1263 228.014 82.493C228.322 82.8597 228.732 83.043 229.246 83.043C229.972 83.043 230.452 82.724 230.687 82.086H232.04C231.864 82.702 231.534 83.1933 231.05 83.56C230.566 83.9193 229.964 84.099 229.246 84.099C228.666 84.099 228.153 83.9707 227.706 83.714C227.258 83.45 226.906 83.0833 226.65 82.614C226.4 82.1373 226.276 81.5873 226.276 80.964ZM235.918 84.099C235.346 84.099 234.829 83.9707 234.367 83.714C233.905 83.45 233.542 83.0833 233.278 82.614C233.014 82.1373 232.882 81.5873 232.882 80.964C232.882 80.348 233.018 79.8017 233.289 79.325C233.561 78.8483 233.931 78.4817 234.4 78.225C234.87 77.9683 235.394 77.84 235.973 77.84C236.553 77.84 237.077 77.9683 237.546 78.225C238.016 78.4817 238.386 78.8483 238.657 79.325C238.929 79.8017 239.064 80.348 239.064 80.964C239.064 81.58 238.925 82.1263 238.646 82.603C238.368 83.0797 237.986 83.45 237.502 83.714C237.026 83.9707 236.498 84.099 235.918 84.099ZM235.918 83.01C236.241 83.01 236.542 82.933 236.82 82.779C237.106 82.625 237.337 82.394 237.513 82.086C237.689 81.778 237.777 81.404 237.777 80.964C237.777 80.524 237.693 80.1537 237.524 79.853C237.356 79.545 237.132 79.314 236.853 79.16C236.575 79.006 236.274 78.929 235.951 78.929C235.629 78.929 235.328 79.006 235.049 79.16C234.778 79.314 234.562 79.545 234.4 79.853C234.239 80.1537 234.158 80.524 234.158 80.964C234.158 81.6167 234.323 82.1227 234.653 82.482C234.991 82.834 235.412 83.01 235.918 83.01ZM241.558 78.819C241.741 78.511 241.983 78.2727 242.284 78.104C242.592 77.928 242.955 77.84 243.373 77.84V79.138H243.054C242.563 79.138 242.189 79.2627 241.932 79.512C241.683 79.7613 241.558 80.194 241.558 80.81V84H240.304V77.939H241.558V78.819ZM245.78 78.819C245.963 78.511 246.205 78.2727 246.506 78.104C246.814 77.928 247.177 77.84 247.595 77.84V79.138H247.276C246.784 79.138 246.41 79.2627 246.154 79.512C245.904 79.7613 245.78 80.194 245.78 80.81V84H244.526V77.939H245.78V78.819ZM254.302 80.821C254.302 81.0483 254.288 81.2537 254.258 81.437H249.627C249.664 81.921 249.844 82.3097 250.166 82.603C250.489 82.8963 250.885 83.043 251.354 83.043C252.029 83.043 252.506 82.7607 252.784 82.196H254.137C253.954 82.7533 253.62 83.2117 253.136 83.571C252.66 83.923 252.066 84.099 251.354 84.099C250.775 84.099 250.254 83.9707 249.792 83.714C249.338 83.45 248.978 83.0833 248.714 82.614C248.458 82.1373 248.329 81.5873 248.329 80.964C248.329 80.3407 248.454 79.7943 248.703 79.325C248.96 78.8483 249.316 78.4817 249.77 78.225C250.232 77.9683 250.76 77.84 251.354 77.84C251.926 77.84 252.436 77.9647 252.883 78.214C253.331 78.4633 253.679 78.8153 253.928 79.27C254.178 79.7173 254.302 80.2343 254.302 80.821ZM252.993 80.425C252.986 79.963 252.821 79.5927 252.498 79.314C252.176 79.0353 251.776 78.896 251.299 78.896C250.867 78.896 250.496 79.0353 250.188 79.314C249.88 79.5853 249.697 79.9557 249.638 80.425H252.993ZM255.118 80.964C255.118 80.3407 255.243 79.7943 255.492 79.325C255.749 78.8483 256.101 78.4817 256.548 78.225C256.996 77.9683 257.509 77.84 258.088 77.84C258.822 77.84 259.427 78.016 259.903 78.368C260.387 78.7127 260.714 79.2077 260.882 79.853H259.529C259.419 79.5523 259.243 79.3177 259.001 79.149C258.759 78.9803 258.455 78.896 258.088 78.896C257.575 78.896 257.164 79.0793 256.856 79.446C256.556 79.8053 256.405 80.3113 256.405 80.964C256.405 81.6167 256.556 82.1263 256.856 82.493C257.164 82.8597 257.575 83.043 258.088 83.043C258.814 83.043 259.295 82.724 259.529 82.086H260.882C260.706 82.702 260.376 83.1933 259.892 83.56C259.408 83.9193 258.807 84.099 258.088 84.099C257.509 84.099 256.996 83.9707 256.548 83.714C256.101 83.45 255.749 83.0833 255.492 82.614C255.243 82.1373 255.118 81.5873 255.118 80.964ZM263.595 78.962V82.317C263.595 82.5443 263.646 82.7093 263.749 82.812C263.859 82.9073 264.042 82.955 264.299 82.955H265.069V84H264.079C263.514 84 263.082 83.868 262.781 83.604C262.48 83.34 262.33 82.911 262.33 82.317V78.962H261.615V77.939H262.33V76.432H263.595V77.939H265.069V78.962H263.595ZM267.479 75.86V84H266.225V75.86H267.479ZM274.581 77.939L270.863 86.849H269.565L270.797 83.901L268.41 77.939H269.807L271.512 82.559L273.283 77.939H274.581ZM276.903 82.493L275.572 85.529H274.758L275.539 82.493H276.903ZM286.312 77.939L282.594 86.849H281.296L282.528 83.901L280.141 77.939H281.538L283.243 82.559L285.014 77.939H286.312ZM289.887 84.099C289.315 84.099 288.798 83.9707 288.336 83.714C287.874 83.45 287.511 83.0833 287.247 82.614C286.983 82.1373 286.851 81.5873 286.851 80.964C286.851 80.348 286.987 79.8017 287.258 79.325C287.529 78.8483 287.9 78.4817 288.369 78.225C288.838 77.9683 289.363 77.84 289.942 77.84C290.521 77.84 291.046 77.9683 291.515 78.225C291.984 78.4817 292.355 78.8483 292.626 79.325C292.897 79.8017 293.033 80.348 293.033 80.964C293.033 81.58 292.894 82.1263 292.615 82.603C292.336 83.0797 291.955 83.45 291.471 83.714C290.994 83.9707 290.466 84.099 289.887 84.099ZM289.887 83.01C290.21 83.01 290.51 82.933 290.789 82.779C291.075 82.625 291.306 82.394 291.482 82.086C291.658 81.778 291.746 81.404 291.746 80.964C291.746 80.524 291.662 80.1537 291.493 79.853C291.324 79.545 291.101 79.314 290.822 79.16C290.543 79.006 290.243 78.929 289.92 78.929C289.597 78.929 289.297 79.006 289.018 79.16C288.747 79.314 288.53 79.545 288.369 79.853C288.208 80.1537 288.127 80.524 288.127 80.964C288.127 81.6167 288.292 82.1227 288.622 82.482C288.959 82.834 289.381 83.01 289.887 83.01ZM299.762 77.939V84H298.508V83.285C298.31 83.5343 298.049 83.7323 297.727 83.879C297.411 84.0183 297.074 84.088 296.715 84.088C296.238 84.088 295.809 83.989 295.428 83.791C295.054 83.593 294.757 83.2997 294.537 82.911C294.324 82.5223 294.218 82.053 294.218 81.503V77.939H295.461V81.316C295.461 81.8587 295.596 82.2767 295.868 82.57C296.139 82.856 296.509 82.999 296.979 82.999C297.448 82.999 297.818 82.856 298.09 82.57C298.368 82.2767 298.508 81.8587 298.508 81.316V77.939H299.762ZM303.856 80.964C303.856 80.3407 303.98 79.7943 304.23 79.325C304.486 78.8483 304.838 78.4817 305.286 78.225C305.733 77.9683 306.246 77.84 306.826 77.84C307.559 77.84 308.164 78.016 308.641 78.368C309.125 78.7127 309.451 79.2077 309.62 79.853H308.267C308.157 79.5523 307.981 79.3177 307.739 79.149C307.497 78.9803 307.192 78.896 306.826 78.896C306.312 78.896 305.902 79.0793 305.594 79.446C305.293 79.8053 305.143 80.3113 305.143 80.964C305.143 81.6167 305.293 82.1263 305.594 82.493C305.902 82.8597 306.312 83.043 306.826 83.043C307.552 83.043 308.032 82.724 308.267 82.086H309.62C309.444 82.702 309.114 83.1933 308.63 83.56C308.146 83.9193 307.544 84.099 306.826 84.099C306.246 84.099 305.733 83.9707 305.286 83.714C304.838 83.45 304.486 83.0833 304.23 82.614C303.98 82.1373 303.856 81.5873 303.856 80.964ZM310.451 80.942C310.451 80.3333 310.576 79.7943 310.825 79.325C311.082 78.8557 311.427 78.4927 311.859 78.236C312.299 77.972 312.783 77.84 313.311 77.84C313.788 77.84 314.202 77.9353 314.554 78.126C314.914 78.3093 315.2 78.5403 315.412 78.819V77.939H316.677V84H315.412V83.098C315.2 83.384 314.91 83.6223 314.543 83.813C314.177 84.0037 313.759 84.099 313.289 84.099C312.769 84.099 312.292 83.967 311.859 83.703C311.427 83.4317 311.082 83.0577 310.825 82.581C310.576 82.097 310.451 81.5507 310.451 80.942ZM315.412 80.964C315.412 80.546 315.324 80.183 315.148 79.875C314.98 79.567 314.756 79.3323 314.477 79.171C314.199 79.0097 313.898 78.929 313.575 78.929C313.253 78.929 312.952 79.0097 312.673 79.171C312.395 79.325 312.167 79.556 311.991 79.864C311.823 80.1647 311.738 80.524 311.738 80.942C311.738 81.36 311.823 81.7267 311.991 82.042C312.167 82.3573 312.395 82.5993 312.673 82.768C312.959 82.9293 313.26 83.01 313.575 83.01C313.898 83.01 314.199 82.9293 314.477 82.768C314.756 82.6067 314.98 82.372 315.148 82.064C315.324 81.7487 315.412 81.382 315.412 80.964ZM321.383 77.84C321.859 77.84 322.285 77.939 322.659 78.137C323.04 78.335 323.337 78.6283 323.55 79.017C323.762 79.4057 323.869 79.875 323.869 80.425V84H322.626V80.612C322.626 80.0693 322.49 79.655 322.219 79.369C321.947 79.0757 321.577 78.929 321.108 78.929C320.638 78.929 320.264 79.0757 319.986 79.369C319.714 79.655 319.579 80.0693 319.579 80.612V84H318.325V77.939H319.579V78.632C319.784 78.3827 320.044 78.1883 320.36 78.049C320.682 77.9097 321.023 77.84 321.383 77.84ZM329.788 78.962V82.317C329.788 82.5443 329.84 82.7093 329.942 82.812C330.052 82.9073 330.236 82.955 330.492 82.955H331.262V84H330.272C329.708 84 329.275 83.868 328.974 83.604C328.674 83.34 328.523 82.911 328.523 82.317V78.962H327.808V77.939H328.523V76.432H329.788V77.939H331.262V78.962H329.788ZM333.672 78.819C333.856 78.511 334.098 78.2727 334.398 78.104C334.706 77.928 335.069 77.84 335.487 77.84V79.138H335.168C334.677 79.138 334.303 79.2627 334.046 79.512C333.797 79.7613 333.672 80.194 333.672 80.81V84H332.418V77.939H333.672V78.819ZM342.096 77.939L338.378 86.849H337.08L338.312 83.901L335.925 77.939H337.322L339.027 82.559L340.798 77.939H342.096ZM347.363 78.962V82.317C347.363 82.5443 347.414 82.7093 347.517 82.812C347.627 82.9073 347.81 82.955 348.067 82.955H348.837V84H347.847C347.282 84 346.849 83.868 346.549 83.604C346.248 83.34 346.098 82.911 346.098 82.317V78.962H345.383V77.939H346.098V76.432H347.363V77.939H348.837V78.962H347.363ZM352.621 84.099C352.049 84.099 351.532 83.9707 351.07 83.714C350.608 83.45 350.245 83.0833 349.981 82.614C349.717 82.1373 349.585 81.5873 349.585 80.964C349.585 80.348 349.721 79.8017 349.992 79.325C350.264 78.8483 350.634 78.4817 351.103 78.225C351.573 77.9683 352.097 77.84 352.676 77.84C353.256 77.84 353.78 77.9683 354.249 78.225C354.719 78.4817 355.089 78.8483 355.36 79.325C355.632 79.8017 355.767 80.348 355.767 80.964C355.767 81.58 355.628 82.1263 355.349 82.603C355.071 83.0797 354.689 83.45 354.205 83.714C353.729 83.9707 353.201 84.099 352.621 84.099ZM352.621 83.01C352.944 83.01 353.245 82.933 353.523 82.779C353.809 82.625 354.04 82.394 354.216 82.086C354.392 81.778 354.48 81.404 354.48 80.964C354.48 80.524 354.396 80.1537 354.227 79.853C354.059 79.545 353.835 79.314 353.556 79.16C353.278 79.006 352.977 78.929 352.654 78.929C352.332 78.929 352.031 79.006 351.752 79.16C351.481 79.314 351.265 79.545 351.103 79.853C350.942 80.1537 350.861 80.524 350.861 80.964C350.861 81.6167 351.026 82.1227 351.356 82.482C351.694 82.834 352.115 83.01 352.621 83.01ZM361.119 78.819C361.302 78.511 361.544 78.2727 361.845 78.104C362.153 77.928 362.516 77.84 362.934 77.84V79.138H362.615C362.123 79.138 361.749 79.2627 361.493 79.512C361.243 79.7613 361.119 80.194 361.119 80.81V84H359.865V77.939H361.119V78.819ZM369.641 80.821C369.641 81.0483 369.627 81.2537 369.597 81.437H364.966C365.003 81.921 365.183 82.3097 365.505 82.603C365.828 82.8963 366.224 83.043 366.693 83.043C367.368 83.043 367.845 82.7607 368.123 82.196H369.476C369.293 82.7533 368.959 83.2117 368.475 83.571C367.999 83.923 367.405 84.099 366.693 84.099C366.114 84.099 365.593 83.9707 365.131 83.714C364.677 83.45 364.317 83.0833 364.053 82.614C363.797 82.1373 363.668 81.5873 363.668 80.964C363.668 80.3407 363.793 79.7943 364.042 79.325C364.299 78.8483 364.655 78.4817 365.109 78.225C365.571 77.9683 366.099 77.84 366.693 77.84C367.265 77.84 367.775 77.9647 368.222 78.214C368.67 78.4633 369.018 78.8153 369.267 79.27C369.517 79.7173 369.641 80.2343 369.641 80.821ZM368.332 80.425C368.325 79.963 368.16 79.5927 367.837 79.314C367.515 79.0353 367.115 78.896 366.638 78.896C366.206 78.896 365.835 79.0353 365.527 79.314C365.219 79.5853 365.036 79.9557 364.977 80.425H368.332ZM371.513 77.136C371.286 77.136 371.095 77.059 370.941 76.905C370.787 76.751 370.71 76.5603 370.71 76.333C370.71 76.1057 370.787 75.915 370.941 75.761C371.095 75.607 371.286 75.53 371.513 75.53C371.733 75.53 371.92 75.607 372.074 75.761C372.228 75.915 372.305 76.1057 372.305 76.333C372.305 76.5603 372.228 76.751 372.074 76.905C371.92 77.059 371.733 77.136 371.513 77.136ZM372.129 77.939V84H370.875V77.939H372.129ZM376.834 77.84C377.31 77.84 377.736 77.939 378.11 78.137C378.491 78.335 378.788 78.6283 379.001 79.017C379.213 79.4057 379.32 79.875 379.32 80.425V84H378.077V80.612C378.077 80.0693 377.941 79.655 377.67 79.369C377.398 79.0757 377.028 78.929 376.559 78.929C376.089 78.929 375.715 79.0757 375.437 79.369C375.165 79.655 375.03 80.0693 375.03 80.612V84H373.776V77.939H375.03V78.632C375.235 78.3827 375.495 78.1883 375.811 78.049C376.133 77.9097 376.474 77.84 376.834 77.84ZM383.119 84.099C382.643 84.099 382.214 84.0147 381.832 83.846C381.458 83.67 381.161 83.4353 380.941 83.142C380.721 82.8413 380.604 82.5077 380.589 82.141H381.887C381.909 82.3977 382.03 82.614 382.25 82.79C382.478 82.9587 382.76 83.043 383.097 83.043C383.449 83.043 383.721 82.977 383.911 82.845C384.109 82.7057 384.208 82.5297 384.208 82.317C384.208 82.0897 384.098 81.921 383.878 81.811C383.666 81.701 383.325 81.58 382.855 81.448C382.401 81.3233 382.03 81.2023 381.744 81.085C381.458 80.9677 381.209 80.788 380.996 80.546C380.791 80.304 380.688 79.985 380.688 79.589C380.688 79.2663 380.784 78.973 380.974 78.709C381.165 78.4377 381.436 78.225 381.788 78.071C382.148 77.917 382.558 77.84 383.02 77.84C383.71 77.84 384.263 78.016 384.681 78.368C385.107 78.7127 385.334 79.1857 385.363 79.787H384.109C384.087 79.5157 383.977 79.2993 383.779 79.138C383.581 78.9767 383.314 78.896 382.976 78.896C382.646 78.896 382.393 78.9583 382.217 79.083C382.041 79.2077 381.953 79.3727 381.953 79.578C381.953 79.7393 382.012 79.875 382.129 79.985C382.247 80.095 382.39 80.183 382.558 80.249C382.727 80.3077 382.976 80.3847 383.306 80.48C383.746 80.5973 384.106 80.7183 384.384 80.843C384.67 80.9603 384.916 81.1363 385.121 81.371C385.327 81.6057 385.433 81.9173 385.44 82.306C385.44 82.6507 385.345 82.9587 385.154 83.23C384.964 83.5013 384.692 83.714 384.34 83.868C383.996 84.022 383.589 84.099 383.119 84.099ZM388.258 78.962V82.317C388.258 82.5443 388.31 82.7093 388.412 82.812C388.522 82.9073 388.706 82.955 388.962 82.955H389.732V84H388.742C388.178 84 387.745 83.868 387.444 83.604C387.144 83.34 386.993 82.911 386.993 82.317V78.962H386.278V77.939H386.993V76.432H388.258V77.939H389.732V78.962H388.258ZM390.47 80.942C390.47 80.3333 390.595 79.7943 390.844 79.325C391.101 78.8557 391.445 78.4927 391.878 78.236C392.318 77.972 392.802 77.84 393.33 77.84C393.807 77.84 394.221 77.9353 394.573 78.126C394.932 78.3093 395.218 78.5403 395.431 78.819V77.939H396.696V84H395.431V83.098C395.218 83.384 394.929 83.6223 394.562 83.813C394.195 84.0037 393.777 84.099 393.308 84.099C392.787 84.099 392.311 83.967 391.878 83.703C391.445 83.4317 391.101 83.0577 390.844 82.581C390.595 82.097 390.47 81.5507 390.47 80.942ZM395.431 80.964C395.431 80.546 395.343 80.183 395.167 79.875C394.998 79.567 394.775 79.3323 394.496 79.171C394.217 79.0097 393.917 78.929 393.594 78.929C393.271 78.929 392.971 79.0097 392.692 79.171C392.413 79.325 392.186 79.556 392.01 79.864C391.841 80.1647 391.757 80.524 391.757 80.942C391.757 81.36 391.841 81.7267 392.01 82.042C392.186 82.3573 392.413 82.5993 392.692 82.768C392.978 82.9293 393.279 83.01 393.594 83.01C393.917 83.01 394.217 82.9293 394.496 82.768C394.775 82.6067 394.998 82.372 395.167 82.064C395.343 81.7487 395.431 81.382 395.431 80.964ZM399.597 75.86V84H398.343V75.86H399.597ZM402.497 75.86V84H401.243V75.86H402.497ZM407.639 77.136C407.412 77.136 407.221 77.059 407.067 76.905C406.913 76.751 406.836 76.5603 406.836 76.333C406.836 76.1057 406.913 75.915 407.067 75.761C407.221 75.607 407.412 75.53 407.639 75.53C407.859 75.53 408.046 75.607 408.2 75.761C408.354 75.915 408.431 76.1057 408.431 76.333C408.431 76.5603 408.354 76.751 408.2 76.905C408.046 77.059 407.859 77.136 407.639 77.136ZM408.255 77.939V84H407.001V77.939H408.255ZM411.365 78.962V82.317C411.365 82.5443 411.416 82.7093 411.519 82.812C411.629 82.9073 411.812 82.955 412.069 82.955H412.839V84H411.849C411.284 84 410.851 83.868 410.551 83.604C410.25 83.34 410.1 82.911 410.1 82.317V78.962H409.385V77.939H410.1V76.432H411.365V77.939H412.839V78.962H411.365ZM414.5 84.077C414.273 84.077 414.082 84 413.928 83.846C413.774 83.692 413.697 83.5013 413.697 83.274C413.697 83.0467 413.774 82.856 413.928 82.702C414.082 82.548 414.273 82.471 414.5 82.471C414.72 82.471 414.907 82.548 415.061 82.702C415.215 82.856 415.292 83.0467 415.292 83.274C415.292 83.5013 415.215 83.692 415.061 83.846C414.907 84 414.72 84.077 414.5 84.077Z"></path>
</svg>
