<svg xmlns="http://www.w3.org/2000/svg" fill="none" viewBox="0 0 480 360" height="360" width="480">
<path stroke-linejoin="round" stroke-width="1.5" stroke="#666666" d="M28 225.75C28.4142 225.75 28.75 225.414 28.75 225V217C28.75 216.31 29.3096 215.75 30 215.75H31.0557C31.5603 215.75 32.0579 215.867 32.5092 216.093L34.559 217.118C34.9825 217.33 35.25 217.763 35.25 218.236V219.019C35.25 219.831 34.3952 220.359 33.6687 219.996C32.5575 219.44 31.25 220.248 31.25 221.491V230C31.25 232.347 29.3472 234.25 27 234.25C24.6528 234.25 22.75 232.347 22.75 230C22.75 227.653 24.6528 225.75 27 225.75H28Z"></path>
<path stroke-linejoin="round" stroke-width="1.5" stroke="#666666" d="M30 124.25C30 124.664 30.3358 125 30.75 125H37C37.6904 125 38.25 125.56 38.25 126.25V132C38.25 132.69 37.6904 133.25 37 133.25H30H23C22.3096 133.25 21.75 132.69 21.75 132V125V118C21.75 117.31 22.3096 116.75 23 116.75H28.75C29.4404 116.75 30 117.31 30 118V124.25Z"></path>
<path fill="#666666" d="M29.5 125.75C29.9142 125.75 30.25 125.414 30.25 125C30.25 124.586 29.9142 124.25 29.5 124.25V125.75ZM30.75 125.5C30.75 125.086 30.4142 124.75 30 124.75C29.5858 124.75 29.25 125.086 29.25 125.5H30.75ZM22.5 125.75H29.5V124.25H22.5V125.75ZM29.25 125.5V132.5H30.75V125.5H29.25Z"></path>
<path stroke-width="1.5" stroke="#666666" d="M33.6161 116.081C34.1043 115.593 34.8957 115.593 35.3839 116.081L38.9194 119.616C39.4076 120.104 39.4076 120.896 38.9194 121.384L36.091 124.213C35.2123 125.091 33.7877 125.091 32.909 124.213L30.7877 122.091C29.909 121.213 29.909 119.788 30.7877 118.909L33.6161 116.081Z"></path>
<path stroke-linejoin="round" stroke-width="1.5" stroke="#666666" d="M32.75 77C32.75 76.5858 32.4142 76.25 32 76.25H28C27.5858 76.25 27.25 76.5858 27.25 77V83C27.25 83.6904 26.6904 84.25 26 84.25H23C22.3096 84.25 21.75 83.6904 21.75 83V73.3472C21.75 72.7045 22.0248 72.0925 22.5052 71.6655L28.5052 66.3322C29.3577 65.5744 30.6423 65.5744 31.4948 66.3322L37.4948 71.6655C37.9752 72.0925 38.25 72.7045 38.25 73.3472V83C38.25 83.6904 37.6904 84.25 37 84.25H34C33.3096 84.25 32.75 83.6904 32.75 83V77Z"></path>
<path fill="#0076B3" d="M22.6775 169.649C23.4649 168.37 24.9905 167.748 26.448 168.112C28.7801 168.695 31.2199 168.695 33.552 168.112C35.0095 167.748 36.5351 168.37 37.3225 169.649L37.7749 170.384C39.2297 172.748 40 175.47 40 178.246V179.333C40 180.806 38.8061 182 37.3333 182C36.494 182 35.7036 181.605 35.2 180.933L33 178H27L24.8 180.933C24.2964 181.605 23.506 182 22.6667 182C21.1939 182 20 180.806 20 179.333V178.246C20 175.47 20.7703 172.748 22.2251 170.384L22.6775 169.649Z"></path>
<path stroke-linecap="round" stroke-width="1.5" stroke="#E6E6E6" d="M29.5 172H30.5"></path>
</svg>
