<svg xmlns="http://www.w3.org/2000/svg" fill="none" viewBox="0 0 480 360" height="360" width="480">
<path fill-opacity="0.9" fill="#1B1B1B" d="M10 180C10 174.477 14.4772 170 20 170H460C465.523 170 470 174.477 470 180V340C470 345.523 465.523 350 460 350H20C14.4772 350 10 345.523 10 340V180Z"></path>
<path stroke-width="2" stroke-opacity="0.2" stroke="white" d="M20 169C13.9249 169 9 173.925 9 180V340C9 346.075 13.9249 351 20 351H460C466.075 351 471 346.075 471 340V180C471 173.925 466.075 169 460 169H20Z"></path>
<rect fill-opacity="0.05" fill="white" rx="5" height="36" width="36" y="182" x="22"></rect>
<path fill="white" d="M38.2582 196.8V195.252H41.1502V204H39.4222V196.8H38.2582Z"></path>
<rect fill-opacity="0.05" fill="white" rx="5" height="36" width="36" y="182" x="62"></rect>
<path fill="white" d="M77.7187 202.104C78.4867 201.464 79.0987 200.932 79.5547 200.508C80.0107 200.076 80.3907 199.628 80.6947 199.164C80.9987 198.7 81.1507 198.244 81.1507 197.796C81.1507 197.388 81.0547 197.068 80.8627 196.836C80.6707 196.604 80.3747 196.488 79.9747 196.488C79.5747 196.488 79.2667 196.624 79.0507 196.896C78.8347 197.16 78.7227 197.524 78.7147 197.988H77.0827C77.1147 197.028 77.3987 196.3 77.9347 195.804C78.4787 195.308 79.1667 195.06 79.9987 195.06C80.9107 195.06 81.6107 195.304 82.0987 195.792C82.5867 196.272 82.8307 196.908 82.8307 197.7C82.8307 198.324 82.6627 198.92 82.3267 199.488C81.9907 200.056 81.6067 200.552 81.1747 200.976C80.7427 201.392 80.1787 201.896 79.4827 202.488H83.0227V203.88H77.0947V202.632L77.7187 202.104Z"></path>
<rect fill-opacity="0.05" fill="white" rx="5" height="36" width="36" y="182" x="102"></rect>
<path fill="white" d="M117.068 197.556C117.108 196.756 117.388 196.14 117.908 195.708C118.436 195.268 119.128 195.048 119.984 195.048C120.568 195.048 121.068 195.152 121.484 195.36C121.9 195.56 122.212 195.836 122.42 196.188C122.636 196.532 122.744 196.924 122.744 197.364C122.744 197.868 122.612 198.296 122.348 198.648C122.092 198.992 121.784 199.224 121.424 199.344V199.392C121.888 199.536 122.248 199.792 122.504 200.16C122.768 200.528 122.9 201 122.9 201.576C122.9 202.056 122.788 202.484 122.564 202.86C122.348 203.236 122.024 203.532 121.592 203.748C121.168 203.956 120.656 204.06 120.056 204.06C119.152 204.06 118.416 203.832 117.848 203.376C117.28 202.92 116.98 202.248 116.948 201.36H118.58C118.596 201.752 118.728 202.068 118.976 202.308C119.232 202.54 119.58 202.656 120.02 202.656C120.428 202.656 120.74 202.544 120.956 202.32C121.18 202.088 121.292 201.792 121.292 201.432C121.292 200.952 121.14 200.608 120.836 200.4C120.532 200.192 120.06 200.088 119.42 200.088H119.072V198.708H119.42C120.556 198.708 121.124 198.328 121.124 197.568C121.124 197.224 121.02 196.956 120.812 196.764C120.612 196.572 120.32 196.476 119.936 196.476C119.56 196.476 119.268 196.58 119.06 196.788C118.86 196.988 118.744 197.244 118.712 197.556H117.068Z"></path>
<rect fill-opacity="0.05" fill="white" rx="5" height="36" width="36" y="182" x="142"></rect>
<path fill="white" d="M156.597 202.296V200.976L160.521 195.36H162.477V200.832H163.533V202.296H162.477V204H160.797V202.296H156.597ZM160.905 197.16L158.445 200.832H160.905V197.16Z"></path>
<rect fill-opacity="0.05" fill="white" rx="5" height="36" width="36" y="182" x="182"></rect>
<path fill="white" d="M202.655 196.704H198.767V198.756C198.935 198.548 199.175 198.38 199.487 198.252C199.799 198.116 200.131 198.048 200.483 198.048C201.123 198.048 201.647 198.188 202.055 198.468C202.463 198.748 202.759 199.108 202.943 199.548C203.127 199.98 203.219 200.444 203.219 200.94C203.219 201.86 202.955 202.6 202.427 203.16C201.907 203.72 201.163 204 200.195 204C199.283 204 198.555 203.772 198.011 203.316C197.467 202.86 197.159 202.264 197.087 201.528H198.719C198.791 201.848 198.951 202.104 199.199 202.296C199.455 202.488 199.779 202.584 200.171 202.584C200.643 202.584 200.999 202.436 201.239 202.14C201.479 201.844 201.599 201.452 201.599 200.964C201.599 200.468 201.475 200.092 201.227 199.836C200.987 199.572 200.631 199.44 200.159 199.44C199.823 199.44 199.543 199.524 199.319 199.692C199.095 199.86 198.935 200.084 198.839 200.364H197.231V195.228H202.655V196.704Z"></path>
<rect fill-opacity="0.05" fill="white" rx="5" height="36" width="36" y="182" x="222"></rect>
<path fill="white" d="M241.334 197.436C241.254 197.1 241.114 196.848 240.914 196.68C240.722 196.512 240.442 196.428 240.074 196.428C239.522 196.428 239.114 196.652 238.85 197.1C238.594 197.54 238.462 198.26 238.454 199.26C238.646 198.94 238.926 198.692 239.294 198.516C239.662 198.332 240.062 198.24 240.494 198.24C241.014 198.24 241.474 198.352 241.874 198.576C242.274 198.8 242.586 199.128 242.81 199.56C243.034 199.984 243.146 200.496 243.146 201.096C243.146 201.664 243.03 202.172 242.798 202.62C242.574 203.06 242.242 203.404 241.802 203.652C241.362 203.9 240.838 204.024 240.23 204.024C239.398 204.024 238.742 203.84 238.262 203.472C237.79 203.104 237.458 202.592 237.266 201.936C237.082 201.272 236.99 200.456 236.99 199.488C236.99 198.024 237.242 196.92 237.746 196.176C238.25 195.424 239.046 195.048 240.134 195.048C240.974 195.048 241.626 195.276 242.09 195.732C242.554 196.188 242.822 196.756 242.894 197.436H241.334ZM240.11 199.62C239.686 199.62 239.33 199.744 239.042 199.992C238.754 200.24 238.61 200.6 238.61 201.072C238.61 201.544 238.742 201.916 239.006 202.188C239.278 202.46 239.658 202.596 240.146 202.596C240.578 202.596 240.918 202.464 241.166 202.2C241.422 201.936 241.55 201.58 241.55 201.132C241.55 200.668 241.426 200.3 241.178 200.028C240.938 199.756 240.582 199.62 240.11 199.62Z"></path>
<rect fill-opacity="0.05" fill="white" rx="5" height="36" width="36" y="182" x="262"></rect>
<path fill="white" d="M282.917 196.524L279.725 204H278.021L281.237 196.716H277.133V195.276H282.917V196.524Z"></path>
<rect fill-opacity="0.05" fill="white" rx="5" height="36" width="36" y="182" x="302"></rect>
<path fill="white" d="M318.245 199.368C317.445 198.952 317.045 198.308 317.045 197.436C317.045 197.004 317.153 196.612 317.369 196.26C317.593 195.9 317.925 195.616 318.365 195.408C318.813 195.192 319.357 195.084 319.997 195.084C320.637 195.084 321.177 195.192 321.617 195.408C322.065 195.616 322.397 195.9 322.613 196.26C322.837 196.612 322.949 197.004 322.949 197.436C322.949 197.876 322.841 198.264 322.625 198.6C322.409 198.928 322.121 199.184 321.761 199.368C322.201 199.56 322.545 199.84 322.793 200.208C323.041 200.576 323.165 201.012 323.165 201.516C323.165 202.06 323.025 202.536 322.745 202.944C322.473 203.344 322.097 203.652 321.617 203.868C321.137 204.084 320.597 204.192 319.997 204.192C319.397 204.192 318.857 204.084 318.377 203.868C317.905 203.652 317.529 203.344 317.249 202.944C316.977 202.536 316.841 202.06 316.841 201.516C316.841 201.012 316.965 200.576 317.213 200.208C317.461 199.832 317.805 199.552 318.245 199.368ZM321.317 197.676C321.317 197.284 321.197 196.98 320.957 196.764C320.725 196.548 320.405 196.44 319.997 196.44C319.597 196.44 319.277 196.548 319.037 196.764C318.805 196.98 318.689 197.288 318.689 197.688C318.689 198.048 318.809 198.336 319.049 198.552C319.297 198.768 319.613 198.876 319.997 198.876C320.381 198.876 320.697 198.768 320.945 198.552C321.193 198.328 321.317 198.036 321.317 197.676ZM319.997 200.1C319.541 200.1 319.169 200.216 318.881 200.448C318.601 200.68 318.461 201.012 318.461 201.444C318.461 201.844 318.597 202.172 318.869 202.428C319.149 202.676 319.525 202.8 319.997 202.8C320.469 202.8 320.841 202.672 321.113 202.416C321.385 202.16 321.521 201.836 321.521 201.444C321.521 201.02 321.381 200.692 321.101 200.46C320.821 200.22 320.453 200.1 319.997 200.1Z"></path>
<rect fill-opacity="0.05" fill="white" rx="5" height="36" width="36" y="182" x="342"></rect>
<path fill="white" d="M358.824 201.54C358.888 201.892 359.032 202.164 359.256 202.356C359.488 202.54 359.796 202.632 360.18 202.632C360.676 202.632 361.036 202.428 361.26 202.02C361.484 201.604 361.596 200.908 361.596 199.932C361.412 200.188 361.152 200.388 360.816 200.532C360.488 200.676 360.132 200.748 359.748 200.748C359.236 200.748 358.772 200.644 358.356 200.436C357.948 200.22 357.624 199.904 357.384 199.488C357.144 199.064 357.024 198.552 357.024 197.952C357.024 197.064 357.288 196.36 357.816 195.84C358.344 195.312 359.064 195.048 359.976 195.048C361.112 195.048 361.912 195.412 362.376 196.14C362.848 196.868 363.084 197.964 363.084 199.428C363.084 200.468 362.992 201.32 362.808 201.984C362.632 202.648 362.324 203.152 361.884 203.496C361.452 203.84 360.86 204.012 360.108 204.012C359.516 204.012 359.012 203.9 358.596 203.676C358.18 203.444 357.86 203.144 357.636 202.776C357.42 202.4 357.296 201.988 357.264 201.54H358.824ZM360.096 199.38C360.512 199.38 360.84 199.252 361.08 198.996C361.32 198.74 361.44 198.396 361.44 197.964C361.44 197.492 361.312 197.128 361.056 196.872C360.808 196.608 360.468 196.476 360.036 196.476C359.604 196.476 359.26 196.612 359.004 196.884C358.756 197.148 358.632 197.5 358.632 197.94C358.632 198.364 358.752 198.712 358.992 198.984C359.24 199.248 359.608 199.38 360.096 199.38Z"></path>
<rect fill-opacity="0.05" fill="white" rx="5" height="36" width="36" y="182" x="382"></rect>
<path fill="white" d="M396.757 199.512C396.757 198.128 397.005 197.044 397.501 196.26C398.005 195.476 398.837 195.084 399.997 195.084C401.157 195.084 401.985 195.476 402.481 196.26C402.985 197.044 403.237 198.128 403.237 199.512C403.237 200.904 402.985 201.996 402.481 202.788C401.985 203.58 401.157 203.976 399.997 203.976C398.837 203.976 398.005 203.58 397.501 202.788C397.005 201.996 396.757 200.904 396.757 199.512ZM401.581 199.512C401.581 198.92 401.541 198.424 401.461 198.024C401.389 197.616 401.237 197.284 401.005 197.028C400.781 196.772 400.445 196.644 399.997 196.644C399.549 196.644 399.209 196.772 398.977 197.028C398.753 197.284 398.601 197.616 398.521 198.024C398.449 198.424 398.413 198.92 398.413 199.512C398.413 200.12 398.449 200.632 398.521 201.048C398.593 201.456 398.745 201.788 398.977 202.044C399.209 202.292 399.549 202.416 399.997 202.416C400.445 202.416 400.785 202.292 401.017 202.044C401.249 201.788 401.401 201.456 401.473 201.048C401.545 200.632 401.581 200.12 401.581 199.512Z"></path>
<rect fill-opacity="0.05" fill="white" rx="5" height="36" width="36" y="222" x="22"></rect>
<path fill="white" d="M42.9382 242.692V244.036H37.1182L36.8542 243.172C37.2142 242.82 37.4782 242.464 37.6462 242.104C37.8142 241.736 37.8982 241.28 37.8982 240.736C37.8982 240.68 37.8902 240.588 37.8742 240.46H36.5422V239.308H37.5382C37.3782 238.764 37.2982 238.272 37.2982 237.832C37.2982 237.288 37.4142 236.82 37.6462 236.428C37.8862 236.028 38.2182 235.724 38.6422 235.516C39.0662 235.308 39.5542 235.204 40.1062 235.204C40.9942 235.204 41.6702 235.452 42.1342 235.948C42.6062 236.436 42.8542 237.064 42.8782 237.832H41.3302C41.3222 237.448 41.2222 237.148 41.0302 236.932C40.8382 236.708 40.5382 236.596 40.1302 236.596C39.7542 236.596 39.4542 236.708 39.2302 236.932C39.0142 237.156 38.9062 237.5 38.9062 237.964C38.9062 238.172 38.9262 238.38 38.9662 238.588C39.0142 238.788 39.0822 239.028 39.1702 239.308H41.4262V240.46H39.4702C39.4862 240.588 39.4942 240.684 39.4942 240.748C39.4942 241.092 39.4262 241.436 39.2902 241.78C39.1622 242.116 38.9622 242.42 38.6902 242.692H42.9382Z"></path>
<rect fill-opacity="0.05" fill="white" rx="5" height="36" width="36" y="222" x="62"></rect>
<path fill="white" d="M80.523 242.536C80.979 242.536 81.379 242.436 81.723 242.236C82.067 242.036 82.339 241.744 82.539 241.36H84.459C84.179 242.216 83.687 242.884 82.983 243.364C82.287 243.836 81.471 244.072 80.535 244.072C79.575 244.072 78.731 243.816 78.003 243.304C77.283 242.784 76.783 242.092 76.503 241.228H75.483V240.232H76.311C76.295 240.04 76.287 239.896 76.287 239.8C76.287 239.688 76.295 239.536 76.311 239.344H75.483V238.348H76.515C76.795 237.484 77.295 236.796 78.015 236.284C78.743 235.772 79.583 235.516 80.535 235.516C81.471 235.516 82.287 235.756 82.983 236.236C83.687 236.716 84.179 237.38 84.459 238.228H82.539C82.339 237.844 82.067 237.556 81.723 237.364C81.379 237.164 80.979 237.064 80.523 237.064C80.035 237.064 79.599 237.176 79.215 237.4C78.839 237.624 78.547 237.94 78.339 238.348H80.643V239.344H78.039C78.023 239.536 78.015 239.688 78.015 239.8C78.015 239.896 78.023 240.04 78.039 240.232H80.643V241.228H78.327C78.535 241.636 78.831 241.956 79.215 242.188C79.599 242.42 80.035 242.536 80.523 242.536Z"></path>
<rect fill-opacity="0.05" fill="white" rx="5" height="36" width="36" y="222" x="102"></rect>
<path fill="white" d="M122.878 241.588C122.878 242.004 122.77 242.396 122.554 242.764C122.346 243.124 122.034 243.424 121.618 243.664C121.21 243.896 120.726 244.032 120.166 244.072V245.044H119.398V244.06C118.598 243.988 117.954 243.748 117.466 243.34C116.978 242.924 116.726 242.364 116.71 241.66H118.51C118.558 242.236 118.854 242.584 119.398 242.704V240.412C118.822 240.268 118.358 240.124 118.006 239.98C117.654 239.836 117.35 239.604 117.094 239.284C116.838 238.964 116.71 238.528 116.71 237.976C116.71 237.28 116.958 236.712 117.454 236.272C117.958 235.832 118.606 235.58 119.398 235.516V234.544H120.166V235.516C120.934 235.58 121.546 235.812 122.002 236.212C122.466 236.612 122.726 237.164 122.782 237.868H120.97C120.946 237.636 120.862 237.436 120.718 237.268C120.582 237.092 120.398 236.968 120.166 236.896V239.164C120.766 239.316 121.238 239.464 121.582 239.608C121.934 239.744 122.238 239.972 122.494 240.292C122.75 240.604 122.878 241.036 122.878 241.588ZM118.462 237.892C118.462 238.156 118.542 238.372 118.702 238.54C118.862 238.7 119.094 238.832 119.398 238.936V236.86C119.11 236.9 118.882 237.008 118.714 237.184C118.546 237.36 118.462 237.596 118.462 237.892ZM120.166 242.728C120.47 242.672 120.706 242.548 120.874 242.356C121.05 242.164 121.138 241.932 121.138 241.66C121.138 241.396 121.054 241.184 120.886 241.024C120.718 240.864 120.478 240.732 120.166 240.628V242.728Z"></path>
<rect fill-opacity="0.05" fill="white" rx="5" height="36" width="36" y="222" x="142"></rect>
<path fill="white" d="M156.33 240.652C156.33 239.98 156.462 239.384 156.726 238.864C156.998 238.344 157.362 237.944 157.818 237.664C158.282 237.384 158.798 237.244 159.366 237.244C159.862 237.244 160.294 237.344 160.662 237.544C161.038 237.744 161.338 237.996 161.562 238.3V237.352H163.254V244H161.562V243.028C161.346 243.34 161.046 243.6 160.662 243.808C160.286 244.008 159.85 244.108 159.354 244.108C158.794 244.108 158.282 243.964 157.818 243.676C157.362 243.388 156.998 242.984 156.726 242.464C156.462 241.936 156.33 241.332 156.33 240.652ZM161.562 240.676C161.562 240.268 161.482 239.92 161.322 239.632C161.162 239.336 160.946 239.112 160.674 238.96C160.402 238.8 160.11 238.72 159.798 238.72C159.486 238.72 159.198 238.796 158.934 238.948C158.67 239.1 158.454 239.324 158.286 239.62C158.126 239.908 158.046 240.252 158.046 240.652C158.046 241.052 158.126 241.404 158.286 241.708C158.454 242.004 158.67 242.232 158.934 242.392C159.206 242.552 159.494 242.632 159.798 242.632C160.11 242.632 160.402 242.556 160.674 242.404C160.946 242.244 161.162 242.02 161.322 241.732C161.482 241.436 161.562 241.084 161.562 240.676ZM161.334 235.684V236.884L158.574 235.624V234.256L161.334 235.684Z"></path>
<rect fill-opacity="0.05" fill="white" rx="5" height="36" width="36" y="222" x="182"></rect>
<path fill="white" d="M196.33 240.652C196.33 239.98 196.462 239.384 196.726 238.864C196.998 238.344 197.362 237.944 197.818 237.664C198.282 237.384 198.798 237.244 199.366 237.244C199.862 237.244 200.294 237.344 200.662 237.544C201.038 237.744 201.338 237.996 201.562 238.3V237.352H203.254V244H201.562V243.028C201.346 243.34 201.046 243.6 200.662 243.808C200.286 244.008 199.85 244.108 199.354 244.108C198.794 244.108 198.282 243.964 197.818 243.676C197.362 243.388 196.998 242.984 196.726 242.464C196.462 241.936 196.33 241.332 196.33 240.652ZM201.562 240.676C201.562 240.268 201.482 239.92 201.322 239.632C201.162 239.336 200.946 239.112 200.674 238.96C200.402 238.8 200.11 238.72 199.798 238.72C199.486 238.72 199.198 238.796 198.934 238.948C198.67 239.1 198.454 239.324 198.286 239.62C198.126 239.908 198.046 240.252 198.046 240.652C198.046 241.052 198.126 241.404 198.286 241.708C198.454 242.004 198.67 242.232 198.934 242.392C199.206 242.552 199.494 242.632 199.798 242.632C200.11 242.632 200.402 242.556 200.674 242.404C200.946 242.244 201.162 242.02 201.322 241.732C201.482 241.436 201.562 241.084 201.562 240.676ZM200.026 235.876L198.238 236.884V235.66L200.026 234.688L201.802 235.66V236.884L200.026 235.876Z"></path>
<rect fill-opacity="0.05" fill="white" rx="5" height="36" width="36" y="222" x="222"></rect>
<path fill="white" d="M236.33 240.652C236.33 239.98 236.462 239.384 236.726 238.864C236.998 238.344 237.362 237.944 237.818 237.664C238.282 237.384 238.798 237.244 239.366 237.244C239.862 237.244 240.294 237.344 240.662 237.544C241.038 237.744 241.338 237.996 241.562 238.3V237.352H243.254V244H241.562V243.028C241.346 243.34 241.046 243.6 240.662 243.808C240.286 244.008 239.85 244.108 239.354 244.108C238.794 244.108 238.282 243.964 237.818 243.676C237.362 243.388 236.998 242.984 236.726 242.464C236.462 241.936 236.33 241.332 236.33 240.652ZM241.562 240.676C241.562 240.268 241.482 239.92 241.322 239.632C241.162 239.336 240.946 239.112 240.674 238.96C240.402 238.8 240.11 238.72 239.798 238.72C239.486 238.72 239.198 238.796 238.934 238.948C238.67 239.1 238.454 239.324 238.286 239.62C238.126 239.908 238.046 240.252 238.046 240.652C238.046 241.052 238.126 241.404 238.286 241.708C238.454 242.004 238.67 242.232 238.934 242.392C239.206 242.552 239.494 242.632 239.798 242.632C240.11 242.632 240.402 242.556 240.674 242.404C240.946 242.244 241.162 242.02 241.322 241.732C241.482 241.436 241.562 241.084 241.562 240.676ZM238.91 236.56C238.686 236.56 238.498 236.484 238.346 236.332C238.194 236.18 238.118 235.992 238.118 235.768C238.118 235.544 238.194 235.356 238.346 235.204C238.498 235.044 238.686 234.964 238.91 234.964C239.134 234.964 239.322 235.044 239.474 235.204C239.634 235.356 239.714 235.544 239.714 235.768C239.714 235.992 239.634 236.18 239.474 236.332C239.322 236.484 239.134 236.56 238.91 236.56ZM241.13 236.56C240.906 236.56 240.718 236.484 240.566 236.332C240.414 236.18 240.338 235.992 240.338 235.768C240.338 235.544 240.414 235.356 240.566 235.204C240.718 235.044 240.906 234.964 241.13 234.964C241.354 234.964 241.542 235.044 241.694 235.204C241.854 235.356 241.934 235.544 241.934 235.768C241.934 235.992 241.854 236.18 241.694 236.332C241.542 236.484 241.354 236.56 241.13 236.56Z"></path>
<rect fill-opacity="0.05" fill="white" rx="5" height="36" width="36" y="222" x="262"></rect>
<path fill="white" d="M280.063 242.668C280.743 242.668 281.187 242.364 281.395 241.756H283.207C283.039 242.404 282.727 242.932 282.271 243.34C281.823 243.748 281.259 243.992 280.579 244.072V244.54C281.019 244.54 281.387 244.652 281.683 244.876C281.987 245.1 282.139 245.424 282.139 245.848C282.139 246.28 281.983 246.612 281.671 246.844C281.367 247.076 280.991 247.192 280.543 247.192H278.839V246.208H280.267C280.459 246.208 280.603 246.18 280.699 246.124C280.803 246.068 280.855 245.968 280.855 245.824C280.855 245.68 280.803 245.58 280.699 245.524C280.603 245.476 280.459 245.452 280.267 245.452H279.523V244.072C278.979 243.992 278.499 243.804 278.083 243.508C277.675 243.204 277.355 242.812 277.123 242.332C276.899 241.844 276.787 241.292 276.787 240.676C276.787 239.988 276.927 239.388 277.207 238.876C277.487 238.356 277.875 237.956 278.371 237.676C278.867 237.388 279.435 237.244 280.075 237.244C280.899 237.244 281.579 237.452 282.115 237.868C282.659 238.276 283.023 238.852 283.207 239.596H281.395C281.299 239.308 281.135 239.084 280.903 238.924C280.679 238.756 280.399 238.672 280.063 238.672C279.583 238.672 279.203 238.848 278.923 239.2C278.643 239.544 278.503 240.036 278.503 240.676C278.503 241.308 278.643 241.8 278.923 242.152C279.203 242.496 279.583 242.668 280.063 242.668Z"></path>
<rect fill-opacity="0.05" fill="white" rx="5" height="36" width="36" y="262" x="302"></rect>
<path fill="white" d="M323.137 277.352V284H321.445V283.16C321.229 283.448 320.945 283.676 320.593 283.844C320.249 284.004 319.873 284.084 319.465 284.084C318.945 284.084 318.485 283.976 318.085 283.76C317.685 283.536 317.369 283.212 317.137 282.788C316.913 282.356 316.801 281.844 316.801 281.252V277.352H318.481V281.012C318.481 281.54 318.613 281.948 318.877 282.236C319.141 282.516 319.501 282.656 319.957 282.656C320.421 282.656 320.785 282.516 321.049 282.236C321.313 281.948 321.445 281.54 321.445 281.012V277.352H323.137ZM321.313 275.684V276.884L318.553 275.624V274.256L321.313 275.684Z"></path>
<rect fill-opacity="0.05" fill="white" rx="5" height="36" width="36" y="262" x="342"></rect>
<path fill="white" d="M363.137 277.352V284H361.445V283.16C361.229 283.448 360.945 283.676 360.593 283.844C360.249 284.004 359.873 284.084 359.465 284.084C358.945 284.084 358.485 283.976 358.085 283.76C357.685 283.536 357.369 283.212 357.137 282.788C356.913 282.356 356.801 281.844 356.801 281.252V277.352H358.481V281.012C358.481 281.54 358.613 281.948 358.877 282.236C359.141 282.516 359.501 282.656 359.957 282.656C360.421 282.656 360.785 282.516 361.049 282.236C361.313 281.948 361.445 281.54 361.445 281.012V277.352H363.137ZM360.005 275.876L358.217 276.884V275.66L360.005 274.688L361.781 275.66V276.884L360.005 275.876Z"></path>
<rect fill-opacity="0.05" fill="white" rx="5" height="36" width="36" y="262" x="382"></rect>
<path fill="white" d="M403.137 277.352V284H401.445V283.16C401.229 283.448 400.945 283.676 400.593 283.844C400.249 284.004 399.873 284.084 399.465 284.084C398.945 284.084 398.485 283.976 398.085 283.76C397.685 283.536 397.369 283.212 397.137 282.788C396.913 282.356 396.801 281.844 396.801 281.252V277.352H398.481V281.012C398.481 281.54 398.613 281.948 398.877 282.236C399.141 282.516 399.501 282.656 399.957 282.656C400.421 282.656 400.785 282.516 401.049 282.236C401.313 281.948 401.445 281.54 401.445 281.012V277.352H403.137ZM398.889 276.56C398.665 276.56 398.477 276.484 398.325 276.332C398.173 276.18 398.097 275.992 398.097 275.768C398.097 275.544 398.173 275.356 398.325 275.204C398.477 275.044 398.665 274.964 398.889 274.964C399.113 274.964 399.301 275.044 399.453 275.204C399.613 275.356 399.693 275.544 399.693 275.768C399.693 275.992 399.613 276.18 399.453 276.332C399.301 276.484 399.113 276.56 398.889 276.56ZM401.109 276.56C400.885 276.56 400.697 276.484 400.545 276.332C400.393 276.18 400.317 275.992 400.317 275.768C400.317 275.544 400.393 275.356 400.545 275.204C400.697 275.044 400.885 274.964 401.109 274.964C401.333 274.964 401.521 275.044 401.673 275.204C401.833 275.356 401.913 275.544 401.913 275.768C401.913 275.992 401.833 276.18 401.673 276.332C401.521 276.484 401.333 276.56 401.109 276.56Z"></path>
<rect fill-opacity="0.05" fill="white" rx="5" height="36" width="36" y="262" x="422"></rect>
<path fill="white" d="M436.265 277.412C436.265 276.9 436.385 276.444 436.625 276.044C436.865 275.636 437.221 275.32 437.693 275.096C438.173 274.864 438.753 274.748 439.433 274.748C440.025 274.748 440.541 274.848 440.981 275.048C441.421 275.24 441.753 275.5 441.977 275.828C442.209 276.148 442.325 276.496 442.325 276.872C442.325 277.264 442.237 277.588 442.061 277.844C441.885 278.1 441.641 278.372 441.329 278.66C441.161 278.812 441.037 278.936 440.957 279.032C440.885 279.12 440.849 279.208 440.849 279.296C440.849 279.432 440.925 279.552 441.077 279.656C441.237 279.76 441.553 279.896 442.025 280.064C442.633 280.28 443.073 280.548 443.345 280.868C443.617 281.18 443.753 281.58 443.753 282.068C443.753 282.684 443.525 283.18 443.069 283.556C442.621 283.932 442.013 284.12 441.245 284.12C440.485 284.12 439.869 283.924 439.397 283.532C438.933 283.14 438.661 282.588 438.581 281.876H440.201C440.225 282.18 440.325 282.42 440.501 282.596C440.677 282.764 440.917 282.848 441.221 282.848C441.501 282.848 441.713 282.792 441.857 282.68C442.009 282.568 442.085 282.4 442.085 282.176C442.085 281.952 442.009 281.772 441.857 281.636C441.713 281.492 441.441 281.352 441.041 281.216C440.369 280.984 439.885 280.744 439.589 280.496C439.301 280.248 439.157 279.936 439.157 279.56C439.157 279.296 439.225 279.06 439.361 278.852C439.505 278.644 439.709 278.412 439.973 278.156C440.205 277.924 440.373 277.732 440.477 277.58C440.589 277.428 440.645 277.26 440.645 277.076C440.645 276.788 440.529 276.564 440.297 276.404C440.073 276.236 439.765 276.152 439.373 276.152C438.877 276.152 438.513 276.276 438.281 276.524C438.057 276.764 437.945 277.116 437.945 277.58V284H436.265V277.412Z"></path>
<rect fill-opacity="0.05" fill="white" rx="5" height="36" width="36" y="262" x="62"></rect>
<path fill="white" d="M83.3049 280.532C83.3049 280.772 83.2889 280.988 83.2569 281.18H78.3969C78.4369 281.66 78.6049 282.036 78.9009 282.308C79.1969 282.58 79.5609 282.716 79.9929 282.716C80.6169 282.716 81.0609 282.448 81.3249 281.912H83.1369C82.9449 282.552 82.5769 283.08 82.0329 283.496C81.4889 283.904 80.8209 284.108 80.0289 284.108C79.3889 284.108 78.8129 283.968 78.3009 283.688C77.7969 283.4 77.4009 282.996 77.1129 282.476C76.8329 281.956 76.6929 281.356 76.6929 280.676C76.6929 279.988 76.8329 279.384 77.1129 278.864C77.3929 278.344 77.7849 277.944 78.2889 277.664C78.7929 277.384 79.3729 277.244 80.0289 277.244C80.6609 277.244 81.2249 277.38 81.7209 277.652C82.2249 277.924 82.6129 278.312 82.8849 278.816C83.1649 279.312 83.3049 279.884 83.3049 280.532ZM81.5649 280.052C81.5569 279.62 81.4009 279.276 81.0969 279.02C80.7929 278.756 80.4209 278.624 79.9809 278.624C79.5649 278.624 79.2129 278.752 78.9249 279.008C78.6449 279.256 78.4729 279.604 78.4089 280.052H81.5649ZM81.3129 275.6L78.5529 276.86V275.66L81.3129 274.232V275.6Z"></path>
<rect fill-opacity="0.03" fill="white" rx="5" height="36" width="36" y="262" x="22"></rect>
<path fill="white" d="M32.7962 282.42C33.4362 281.887 33.9462 281.443 34.3262 281.09C34.7062 280.73 35.0228 280.357 35.2762 279.97C35.5295 279.583 35.6562 279.203 35.6562 278.83C35.6562 278.49 35.5762 278.223 35.4162 278.03C35.2562 277.837 35.0095 277.74 34.6762 277.74C34.3428 277.74 34.0862 277.853 33.9062 278.08C33.7262 278.3 33.6328 278.603 33.6262 278.99H32.2662C32.2928 278.19 32.5295 277.583 32.9762 277.17C33.4295 276.757 34.0028 276.55 34.6962 276.55C35.4562 276.55 36.0395 276.753 36.4462 277.16C36.8528 277.56 37.0562 278.09 37.0562 278.75C37.0562 279.27 36.9162 279.767 36.6362 280.24C36.3562 280.713 36.0362 281.127 35.6762 281.48C35.3162 281.827 34.8462 282.247 34.2662 282.74H37.2162V283.9H32.2762V282.86L32.7962 282.42ZM42.0084 274.53L39.3084 285.81H37.9384L40.6384 274.53H42.0084ZM43.4016 282.42C44.0416 281.887 44.5516 281.443 44.9316 281.09C45.3116 280.73 45.6283 280.357 45.8816 279.97C46.135 279.583 46.2616 279.203 46.2616 278.83C46.2616 278.49 46.1816 278.223 46.0216 278.03C45.8616 277.837 45.615 277.74 45.2816 277.74C44.9483 277.74 44.6916 277.853 44.5116 278.08C44.3316 278.3 44.2383 278.603 44.2316 278.99H42.8716C42.8983 278.19 43.135 277.583 43.5816 277.17C44.035 276.757 44.6083 276.55 45.3016 276.55C46.0616 276.55 46.645 276.753 47.0516 277.16C47.4583 277.56 47.6616 278.09 47.6616 278.75C47.6616 279.27 47.5216 279.767 47.2416 280.24C46.9616 280.713 46.6416 281.127 46.2816 281.48C45.9216 281.827 45.4516 282.247 44.8716 282.74H47.8216V283.9H42.8816V282.86L43.4016 282.42Z"></path>
<rect fill-opacity="0.05" fill="white" rx="5" height="36" width="36" y="262" x="102"></rect>
<path fill="white" d="M123.305 280.532C123.305 280.772 123.289 280.988 123.257 281.18H118.397C118.437 281.66 118.605 282.036 118.901 282.308C119.197 282.58 119.561 282.716 119.993 282.716C120.617 282.716 121.061 282.448 121.325 281.912H123.137C122.945 282.552 122.577 283.08 122.033 283.496C121.489 283.904 120.821 284.108 120.029 284.108C119.389 284.108 118.813 283.968 118.301 283.688C117.797 283.4 117.401 282.996 117.113 282.476C116.833 281.956 116.693 281.356 116.693 280.676C116.693 279.988 116.833 279.384 117.113 278.864C117.393 278.344 117.785 277.944 118.289 277.664C118.793 277.384 119.373 277.244 120.029 277.244C120.661 277.244 121.225 277.38 121.721 277.652C122.225 277.924 122.613 278.312 122.885 278.816C123.165 279.312 123.305 279.884 123.305 280.532ZM121.565 280.052C121.557 279.62 121.401 279.276 121.097 279.02C120.793 278.756 120.421 278.624 119.981 278.624C119.565 278.624 119.213 278.752 118.925 279.008C118.645 279.256 118.473 279.604 118.409 280.052H121.565ZM121.313 275.66V276.86L118.553 275.6V274.232L121.313 275.66Z"></path>
<rect fill-opacity="0.05" fill="white" rx="5" height="36" width="36" y="262" x="142"></rect>
<path fill="white" d="M163.305 280.532C163.305 280.772 163.289 280.988 163.257 281.18H158.397C158.437 281.66 158.605 282.036 158.901 282.308C159.197 282.58 159.561 282.716 159.993 282.716C160.617 282.716 161.061 282.448 161.325 281.912H163.137C162.945 282.552 162.577 283.08 162.033 283.496C161.489 283.904 160.821 284.108 160.029 284.108C159.389 284.108 158.813 283.968 158.301 283.688C157.797 283.4 157.401 282.996 157.113 282.476C156.833 281.956 156.693 281.356 156.693 280.676C156.693 279.988 156.833 279.384 157.113 278.864C157.393 278.344 157.785 277.944 158.289 277.664C158.793 277.384 159.373 277.244 160.029 277.244C160.661 277.244 161.225 277.38 161.721 277.652C162.225 277.924 162.613 278.312 162.885 278.816C163.165 279.312 163.305 279.884 163.305 280.532ZM161.565 280.052C161.557 279.62 161.401 279.276 161.097 279.02C160.793 278.756 160.421 278.624 159.981 278.624C159.565 278.624 159.213 278.752 158.925 279.008C158.645 279.256 158.473 279.604 158.409 280.052H161.565ZM160.005 275.852L158.217 276.86V275.636L160.005 274.664L161.781 275.636V276.86L160.005 275.852Z"></path>
<rect fill-opacity="0.05" fill="white" rx="5" height="36" width="36" y="262" x="182"></rect>
<path fill="white" d="M203.305 280.532C203.305 280.772 203.289 280.988 203.257 281.18H198.397C198.437 281.66 198.605 282.036 198.901 282.308C199.197 282.58 199.561 282.716 199.993 282.716C200.617 282.716 201.061 282.448 201.325 281.912H203.137C202.945 282.552 202.577 283.08 202.033 283.496C201.489 283.904 200.821 284.108 200.029 284.108C199.389 284.108 198.813 283.968 198.301 283.688C197.797 283.4 197.401 282.996 197.113 282.476C196.833 281.956 196.693 281.356 196.693 280.676C196.693 279.988 196.833 279.384 197.113 278.864C197.393 278.344 197.785 277.944 198.289 277.664C198.793 277.384 199.373 277.244 200.029 277.244C200.661 277.244 201.225 277.38 201.721 277.652C202.225 277.924 202.613 278.312 202.885 278.816C203.165 279.312 203.305 279.884 203.305 280.532ZM201.565 280.052C201.557 279.62 201.401 279.276 201.097 279.02C200.793 278.756 200.421 278.624 199.981 278.624C199.565 278.624 199.213 278.752 198.925 279.008C198.645 279.256 198.473 279.604 198.409 280.052H201.565ZM198.889 276.536C198.665 276.536 198.477 276.46 198.325 276.308C198.173 276.156 198.097 275.968 198.097 275.744C198.097 275.52 198.173 275.332 198.325 275.18C198.477 275.02 198.665 274.94 198.889 274.94C199.113 274.94 199.301 275.02 199.453 275.18C199.613 275.332 199.693 275.52 199.693 275.744C199.693 275.968 199.613 276.156 199.453 276.308C199.301 276.46 199.113 276.536 198.889 276.536ZM201.109 276.536C200.885 276.536 200.697 276.46 200.545 276.308C200.393 276.156 200.317 275.968 200.317 275.744C200.317 275.52 200.393 275.332 200.545 275.18C200.697 275.02 200.885 274.94 201.109 274.94C201.333 274.94 201.521 275.02 201.673 275.18C201.833 275.332 201.913 275.52 201.913 275.744C201.913 275.968 201.833 276.156 201.673 276.308C201.521 276.46 201.333 276.536 201.109 276.536Z"></path>
<rect fill-opacity="0.05" fill="white" rx="5" height="36" width="36" y="262" x="222"></rect>
<path fill="white" d="M240.84 277.352V284H239.16V277.352H240.84ZM240.012 275.876L238.224 276.884V275.66L240.012 274.688L241.788 275.66V276.884L240.012 275.876Z"></path>
<rect fill-opacity="0.05" fill="white" rx="5" height="36" width="36" y="262" x="262"></rect>
<path fill="white" d="M280.84 277.352V284H279.16V277.352H280.84ZM278.884 276.56C278.66 276.56 278.472 276.484 278.32 276.332C278.168 276.18 278.092 275.992 278.092 275.768C278.092 275.544 278.168 275.356 278.32 275.204C278.472 275.044 278.66 274.964 278.884 274.964C279.108 274.964 279.296 275.044 279.448 275.204C279.608 275.356 279.688 275.544 279.688 275.768C279.688 275.992 279.608 276.18 279.448 276.332C279.296 276.484 279.108 276.56 278.884 276.56ZM281.104 276.56C280.88 276.56 280.692 276.484 280.54 276.332C280.388 276.18 280.312 275.992 280.312 275.768C280.312 275.544 280.388 275.356 280.54 275.204C280.692 275.044 280.88 274.964 281.104 274.964C281.328 274.964 281.516 275.044 281.668 275.204C281.828 275.356 281.908 275.544 281.908 275.768C281.908 275.992 281.828 276.18 281.668 276.332C281.516 276.484 281.328 276.56 281.104 276.56Z"></path>
<rect fill-opacity="0.05" fill="white" rx="5" height="36" width="36" y="222" x="302"></rect>
<path fill="white" d="M319.954 244.108C319.314 244.108 318.738 243.968 318.226 243.688C317.714 243.4 317.31 242.996 317.014 242.476C316.726 241.956 316.582 241.356 316.582 240.676C316.582 239.996 316.73 239.396 317.026 238.876C317.33 238.356 317.742 237.956 318.262 237.676C318.782 237.388 319.362 237.244 320.002 237.244C320.642 237.244 321.222 237.388 321.742 237.676C322.262 237.956 322.67 238.356 322.966 238.876C323.27 239.396 323.422 239.996 323.422 240.676C323.422 241.356 323.266 241.956 322.954 242.476C322.65 242.996 322.234 243.4 321.706 243.688C321.186 243.968 320.602 244.108 319.954 244.108ZM319.954 242.644C320.258 242.644 320.542 242.572 320.806 242.428C321.078 242.276 321.294 242.052 321.454 241.756C321.614 241.46 321.694 241.1 321.694 240.676C321.694 240.044 321.526 239.56 321.19 239.224C320.862 238.88 320.458 238.708 319.978 238.708C319.498 238.708 319.094 238.88 318.766 239.224C318.446 239.56 318.286 240.044 318.286 240.676C318.286 241.308 318.442 241.796 318.754 242.14C319.074 242.476 319.474 242.644 319.954 242.644ZM320.074 235.792L318.286 236.8V235.576L320.074 234.604L321.85 235.576V236.8L320.074 235.792Z"></path>
<rect fill-opacity="0.05" fill="white" rx="5" height="36" width="36" y="222" x="342"></rect>
<path fill="white" d="M359.954 244.108C359.314 244.108 358.738 243.968 358.226 243.688C357.714 243.4 357.31 242.996 357.014 242.476C356.726 241.956 356.582 241.356 356.582 240.676C356.582 239.996 356.73 239.396 357.026 238.876C357.33 238.356 357.742 237.956 358.262 237.676C358.782 237.388 359.362 237.244 360.002 237.244C360.642 237.244 361.222 237.388 361.742 237.676C362.262 237.956 362.67 238.356 362.966 238.876C363.27 239.396 363.422 239.996 363.422 240.676C363.422 241.356 363.266 241.956 362.954 242.476C362.65 242.996 362.234 243.4 361.706 243.688C361.186 243.968 360.602 244.108 359.954 244.108ZM359.954 242.644C360.258 242.644 360.542 242.572 360.806 242.428C361.078 242.276 361.294 242.052 361.454 241.756C361.614 241.46 361.694 241.1 361.694 240.676C361.694 240.044 361.526 239.56 361.19 239.224C360.862 238.88 360.458 238.708 359.978 238.708C359.498 238.708 359.094 238.88 358.766 239.224C358.446 239.56 358.286 240.044 358.286 240.676C358.286 241.308 358.442 241.796 358.754 242.14C359.074 242.476 359.474 242.644 359.954 242.644ZM358.958 236.476C358.734 236.476 358.546 236.4 358.394 236.248C358.242 236.096 358.166 235.908 358.166 235.684C358.166 235.46 358.242 235.272 358.394 235.12C358.546 234.96 358.734 234.88 358.958 234.88C359.182 234.88 359.37 234.96 359.522 235.12C359.682 235.272 359.762 235.46 359.762 235.684C359.762 235.908 359.682 236.096 359.522 236.248C359.37 236.4 359.182 236.476 358.958 236.476ZM361.178 236.476C360.954 236.476 360.766 236.4 360.614 236.248C360.462 236.096 360.386 235.908 360.386 235.684C360.386 235.46 360.462 235.272 360.614 235.12C360.766 234.96 360.954 234.88 361.178 234.88C361.402 234.88 361.59 234.96 361.742 235.12C361.902 235.272 361.982 235.46 361.982 235.684C361.982 235.908 361.902 236.096 361.742 236.248C361.59 236.4 361.402 236.476 361.178 236.476Z"></path>
<rect fill-opacity="0.03" fill="white" rx="5" height="36" width="76" y="222" x="382"></rect>
<path stroke-linejoin="round" stroke-linecap="round" stroke-width="1.5" stroke="white" d="M418 238L414.5 241.5M425.5 236V239.5C425.5 240.605 424.605 241.5 423.5 241.5H414.5M414.5 241.5L418 245"></path>
<rect fill-opacity="0.03" fill="white" rx="5" height="36" width="36" y="182" x="422"></rect>
<path stroke-width="1.5" stroke="white" d="M436.945 195.116C437.179 194.882 437.497 194.75 437.828 194.75H446C446.69 194.75 447.25 195.31 447.25 196V204C447.25 204.69 446.69 205.25 446 205.25H437.828C437.497 205.25 437.179 205.118 436.945 204.884L432.945 200.884C432.456 200.396 432.456 199.604 432.945 199.116L436.945 195.116Z"></path>
<path stroke-linecap="round" stroke-width="1.5" stroke="white" d="M444 202L442 200M440 198L442 200M442 200L444 198M442 200L440 202"></path>
<rect fill-opacity="0.03" fill="white" rx="5" height="36" width="116" y="302" x="22"></rect>
<path fill="white" d="M68.6538 320.652C68.6538 319.98 68.7858 319.384 69.0498 318.864C69.3218 318.344 69.6858 317.944 70.1418 317.664C70.6058 317.384 71.1218 317.244 71.6898 317.244C72.1858 317.244 72.6178 317.344 72.9858 317.544C73.3618 317.744 73.6618 317.996 73.8858 318.3V317.352H75.5778V324H73.8858V323.028C73.6698 323.34 73.3698 323.6 72.9858 323.808C72.6098 324.008 72.1738 324.108 71.6778 324.108C71.1178 324.108 70.6058 323.964 70.1418 323.676C69.6858 323.388 69.3218 322.984 69.0498 322.464C68.7858 321.936 68.6538 321.332 68.6538 320.652ZM73.8858 320.676C73.8858 320.268 73.8058 319.92 73.6458 319.632C73.4858 319.336 73.2698 319.112 72.9978 318.96C72.7258 318.8 72.4338 318.72 72.1218 318.72C71.8098 318.72 71.5218 318.796 71.2578 318.948C70.9938 319.1 70.7778 319.324 70.6098 319.62C70.4498 319.908 70.3698 320.252 70.3698 320.652C70.3698 321.052 70.4498 321.404 70.6098 321.708C70.7778 322.004 70.9938 322.232 71.2578 322.392C71.5298 322.552 71.8178 322.632 72.1218 322.632C72.4338 322.632 72.7258 322.556 72.9978 322.404C73.2698 322.244 73.4858 322.02 73.6458 321.732C73.8058 321.436 73.8858 321.084 73.8858 320.676ZM78.8986 318.324C79.1146 318.004 79.4106 317.744 79.7866 317.544C80.1706 317.344 80.6066 317.244 81.0946 317.244C81.6626 317.244 82.1746 317.384 82.6306 317.664C83.0946 317.944 83.4586 318.344 83.7226 318.864C83.9946 319.376 84.1306 319.972 84.1306 320.652C84.1306 321.332 83.9946 321.936 83.7226 322.464C83.4586 322.984 83.0946 323.388 82.6306 323.676C82.1746 323.964 81.6626 324.108 81.0946 324.108C80.5986 324.108 80.1626 324.012 79.7866 323.82C79.4186 323.62 79.1226 323.364 78.8986 323.052V324H77.2186V315.12H78.8986V318.324ZM82.4146 320.652C82.4146 320.252 82.3306 319.908 82.1626 319.62C82.0026 319.324 81.7866 319.1 81.5146 318.948C81.2506 318.796 80.9626 318.72 80.6506 318.72C80.3466 318.72 80.0586 318.8 79.7866 318.96C79.5226 319.112 79.3066 319.336 79.1386 319.632C78.9786 319.928 78.8986 320.276 78.8986 320.676C78.8986 321.076 78.9786 321.424 79.1386 321.72C79.3066 322.016 79.5226 322.244 79.7866 322.404C80.0586 322.556 80.3466 322.632 80.6506 322.632C80.9626 322.632 81.2506 322.552 81.5146 322.392C81.7866 322.232 82.0026 322.004 82.1626 321.708C82.3306 321.412 82.4146 321.06 82.4146 320.652ZM84.9194 320.676C84.9194 319.988 85.0594 319.388 85.3394 318.876C85.6194 318.356 86.0074 317.956 86.5034 317.676C86.9994 317.388 87.5674 317.244 88.2074 317.244C89.0314 317.244 89.7114 317.452 90.2474 317.868C90.7914 318.276 91.1554 318.852 91.3394 319.596H89.5274C89.4314 319.308 89.2674 319.084 89.0354 318.924C88.8114 318.756 88.5314 318.672 88.1954 318.672C87.7154 318.672 87.3354 318.848 87.0554 319.2C86.7754 319.544 86.6354 320.036 86.6354 320.676C86.6354 321.308 86.7754 321.8 87.0554 322.152C87.3354 322.496 87.7154 322.668 88.1954 322.668C88.8754 322.668 89.3194 322.364 89.5274 321.756H91.3394C91.1554 322.476 90.7914 323.048 90.2474 323.472C89.7034 323.896 89.0234 324.108 88.2074 324.108C87.5674 324.108 86.9994 323.968 86.5034 323.688C86.0074 323.4 85.6194 323 85.3394 322.488C85.0594 321.968 84.9194 321.364 84.9194 320.676Z"></path>
<rect fill-opacity="0.03" fill="white" rx="5" height="36" width="116" y="302" x="342"></rect>
<path stroke-linecap="round" stroke-width="1.5" stroke="white" d="M381 323L378 320M375 317L378 320M378 320L381 317M378 320L375 323"></path>
<path fill="white" d="M390.346 319.8C390.346 318.976 390.53 318.24 390.898 317.592C391.274 316.936 391.782 316.428 392.422 316.068C393.07 315.7 393.794 315.516 394.594 315.516C395.53 315.516 396.35 315.756 397.054 316.236C397.758 316.716 398.25 317.38 398.53 318.228H396.598C396.406 317.828 396.134 317.528 395.782 317.328C395.438 317.128 395.038 317.028 394.582 317.028C394.094 317.028 393.658 317.144 393.274 317.376C392.898 317.6 392.602 317.92 392.386 318.336C392.178 318.752 392.074 319.24 392.074 319.8C392.074 320.352 392.178 320.84 392.386 321.264C392.602 321.68 392.898 322.004 393.274 322.236C393.658 322.46 394.094 322.572 394.582 322.572C395.038 322.572 395.438 322.472 395.782 322.272C396.134 322.064 396.406 321.76 396.598 321.36H398.53C398.25 322.216 397.758 322.884 397.054 323.364C396.358 323.836 395.538 324.072 394.594 324.072C393.794 324.072 393.07 323.892 392.422 323.532C391.782 323.164 391.274 322.656 390.898 322.008C390.53 321.36 390.346 320.624 390.346 319.8ZM401.645 315.12V324H399.965V315.12H401.645ZM406.257 324.108C405.617 324.108 405.041 323.968 404.529 323.688C404.017 323.4 403.613 322.996 403.317 322.476C403.029 321.956 402.885 321.356 402.885 320.676C402.885 319.996 403.033 319.396 403.329 318.876C403.633 318.356 404.045 317.956 404.565 317.676C405.085 317.388 405.665 317.244 406.305 317.244C406.945 317.244 407.525 317.388 408.045 317.676C408.565 317.956 408.973 318.356 409.269 318.876C409.573 319.396 409.725 319.996 409.725 320.676C409.725 321.356 409.569 321.956 409.257 322.476C408.953 322.996 408.537 323.4 408.009 323.688C407.489 323.968 406.905 324.108 406.257 324.108ZM406.257 322.644C406.561 322.644 406.845 322.572 407.109 322.428C407.381 322.276 407.597 322.052 407.757 321.756C407.917 321.46 407.997 321.1 407.997 320.676C407.997 320.044 407.829 319.56 407.493 319.224C407.165 318.88 406.761 318.708 406.281 318.708C405.801 318.708 405.397 318.88 405.069 319.224C404.749 319.56 404.589 320.044 404.589 320.676C404.589 321.308 404.745 321.796 405.057 322.14C405.377 322.476 405.777 322.644 406.257 322.644ZM413.501 324.108C412.957 324.108 412.469 324.012 412.037 323.82C411.605 323.62 411.261 323.352 411.005 323.016C410.757 322.68 410.621 322.308 410.597 321.9H412.289C412.321 322.156 412.445 322.368 412.661 322.536C412.885 322.704 413.161 322.788 413.489 322.788C413.809 322.788 414.057 322.724 414.233 322.596C414.417 322.468 414.509 322.304 414.509 322.104C414.509 321.888 414.397 321.728 414.173 321.624C413.957 321.512 413.609 321.392 413.129 321.264C412.633 321.144 412.225 321.02 411.905 320.892C411.593 320.764 411.321 320.568 411.089 320.304C410.865 320.04 410.753 319.684 410.753 319.236C410.753 318.868 410.857 318.532 411.065 318.228C411.281 317.924 411.585 317.684 411.977 317.508C412.377 317.332 412.845 317.244 413.381 317.244C414.173 317.244 414.805 317.444 415.277 317.844C415.749 318.236 416.009 318.768 416.057 319.44H414.449C414.425 319.176 414.313 318.968 414.113 318.816C413.921 318.656 413.661 318.576 413.333 318.576C413.029 318.576 412.793 318.632 412.625 318.744C412.465 318.856 412.385 319.012 412.385 319.212C412.385 319.436 412.497 319.608 412.721 319.728C412.945 319.84 413.293 319.956 413.765 320.076C414.245 320.196 414.641 320.32 414.953 320.448C415.265 320.576 415.533 320.776 415.757 321.048C415.989 321.312 416.109 321.664 416.117 322.104C416.117 322.488 416.009 322.832 415.793 323.136C415.585 323.44 415.281 323.68 414.881 323.856C414.489 324.024 414.029 324.108 413.501 324.108ZM423.676 320.532C423.676 320.772 423.66 320.988 423.628 321.18H418.768C418.808 321.66 418.976 322.036 419.272 322.308C419.568 322.58 419.932 322.716 420.364 322.716C420.988 322.716 421.432 322.448 421.696 321.912H423.508C423.316 322.552 422.948 323.08 422.404 323.496C421.86 323.904 421.192 324.108 420.4 324.108C419.76 324.108 419.184 323.968 418.672 323.688C418.168 323.4 417.772 322.996 417.484 322.476C417.204 321.956 417.064 321.356 417.064 320.676C417.064 319.988 417.204 319.384 417.484 318.864C417.764 318.344 418.156 317.944 418.66 317.664C419.164 317.384 419.744 317.244 420.4 317.244C421.032 317.244 421.596 317.38 422.092 317.652C422.596 317.924 422.984 318.312 423.256 318.816C423.536 319.312 423.676 319.884 423.676 320.532ZM421.936 320.052C421.928 319.62 421.772 319.276 421.468 319.02C421.164 318.756 420.792 318.624 420.352 318.624C419.936 318.624 419.584 318.752 419.296 319.008C419.016 319.256 418.844 319.604 418.78 320.052H421.936Z"></path>
<rect fill-opacity="0.03" fill="white" rx="5" height="36" width="196" y="302" x="142"></rect>
<path stroke-linecap="round" stroke-width="1.5" stroke-opacity="0.5" stroke="white" d="M190.5 319.5H289.5"></path>
</svg>
