<svg xmlns="http://www.w3.org/2000/svg" fill="none" viewBox="0 0 480 360" height="360" width="480">
<path fill="white" d="M188.384 173.88V175.368H185.424V185H183.6V175.368H180.624V173.88H188.384ZM194.055 185.144C193.223 185.144 192.471 184.957 191.799 184.584C191.127 184.2 190.599 183.667 190.215 182.984C189.831 182.291 189.639 181.491 189.639 180.584C189.639 179.688 189.837 178.893 190.231 178.2C190.626 177.507 191.165 176.973 191.847 176.6C192.53 176.227 193.293 176.04 194.135 176.04C194.978 176.04 195.741 176.227 196.423 176.6C197.106 176.973 197.645 177.507 198.039 178.2C198.434 178.893 198.631 179.688 198.631 180.584C198.631 181.48 198.429 182.275 198.023 182.968C197.618 183.661 197.063 184.2 196.359 184.584C195.666 184.957 194.898 185.144 194.055 185.144ZM194.055 183.56C194.525 183.56 194.962 183.448 195.367 183.224C195.783 183 196.119 182.664 196.375 182.216C196.631 181.768 196.759 181.224 196.759 180.584C196.759 179.944 196.637 179.405 196.391 178.968C196.146 178.52 195.821 178.184 195.415 177.96C195.01 177.736 194.573 177.624 194.103 177.624C193.634 177.624 193.197 177.736 192.791 177.96C192.397 178.184 192.082 178.52 191.847 178.968C191.613 179.405 191.495 179.944 191.495 180.584C191.495 181.533 191.735 182.269 192.215 182.792C192.706 183.304 193.319 183.56 194.055 183.56ZM211.106 176.04C211.8 176.04 212.418 176.184 212.962 176.472C213.517 176.76 213.949 177.187 214.258 177.752C214.578 178.317 214.738 179 214.738 179.8V185H212.93V180.072C212.93 179.283 212.733 178.68 212.338 178.264C211.944 177.837 211.405 177.624 210.722 177.624C210.04 177.624 209.496 177.837 209.09 178.264C208.696 178.68 208.498 179.283 208.498 180.072V185H206.69V180.072C206.69 179.283 206.493 178.68 206.098 178.264C205.704 177.837 205.165 177.624 204.482 177.624C203.8 177.624 203.256 177.837 202.85 178.264C202.456 178.68 202.258 179.283 202.258 180.072V185H200.434V176.184H202.258V177.192C202.557 176.829 202.936 176.547 203.394 176.344C203.853 176.141 204.344 176.04 204.866 176.04C205.57 176.04 206.2 176.189 206.754 176.488C207.309 176.787 207.736 177.219 208.034 177.784C208.301 177.251 208.717 176.829 209.282 176.52C209.848 176.2 210.456 176.04 211.106 176.04ZM218.883 177.496C219.193 177.069 219.614 176.723 220.147 176.456C220.691 176.179 221.294 176.04 221.955 176.04C222.734 176.04 223.438 176.227 224.067 176.6C224.697 176.973 225.193 177.507 225.555 178.2C225.918 178.883 226.099 179.667 226.099 180.552C226.099 181.437 225.918 182.232 225.555 182.936C225.193 183.629 224.691 184.173 224.051 184.568C223.422 184.952 222.723 185.144 221.955 185.144C221.273 185.144 220.665 185.011 220.131 184.744C219.609 184.477 219.193 184.136 218.883 183.72V185H217.059V173.16H218.883V177.496ZM224.243 180.552C224.243 179.944 224.115 179.421 223.859 178.984C223.614 178.536 223.283 178.2 222.867 177.976C222.462 177.741 222.025 177.624 221.555 177.624C221.097 177.624 220.659 177.741 220.243 177.976C219.838 178.211 219.507 178.552 219.251 179C219.006 179.448 218.883 179.976 218.883 180.584C218.883 181.192 219.006 181.725 219.251 182.184C219.507 182.632 219.838 182.973 220.243 183.208C220.659 183.443 221.097 183.56 221.555 183.56C222.025 183.56 222.462 183.443 222.867 183.208C223.283 182.963 223.614 182.611 223.859 182.152C224.115 181.693 224.243 181.16 224.243 180.552ZM235.883 185.144C235.051 185.144 234.299 184.957 233.627 184.584C232.955 184.2 232.427 183.667 232.043 182.984C231.659 182.291 231.467 181.491 231.467 180.584C231.467 179.688 231.665 178.893 232.059 178.2C232.454 177.507 232.993 176.973 233.675 176.6C234.358 176.227 235.121 176.04 235.963 176.04C236.806 176.04 237.569 176.227 238.251 176.6C238.934 176.973 239.473 177.507 239.867 178.2C240.262 178.893 240.459 179.688 240.459 180.584C240.459 181.48 240.257 182.275 239.851 182.968C239.446 183.661 238.891 184.2 238.187 184.584C237.494 184.957 236.726 185.144 235.883 185.144ZM235.883 183.56C236.353 183.56 236.79 183.448 237.195 183.224C237.611 183 237.947 182.664 238.203 182.216C238.459 181.768 238.587 181.224 238.587 180.584C238.587 179.944 238.465 179.405 238.219 178.968C237.974 178.52 237.649 178.184 237.243 177.96C236.838 177.736 236.401 177.624 235.931 177.624C235.462 177.624 235.025 177.736 234.619 177.96C234.225 178.184 233.91 178.52 233.675 178.968C233.441 179.405 233.323 179.944 233.323 180.584C233.323 181.533 233.563 182.269 234.043 182.792C234.534 183.304 235.147 183.56 235.883 183.56ZM245.959 177.672H244.327V185H242.487V177.672H241.447V176.184H242.487V175.56C242.487 174.547 242.753 173.811 243.287 173.352C243.831 172.883 244.679 172.648 245.831 172.648V174.168C245.276 174.168 244.887 174.275 244.663 174.488C244.439 174.691 244.327 175.048 244.327 175.56V176.184H245.959V177.672ZM253.859 177.672V182.552C253.859 182.883 253.934 183.123 254.083 183.272C254.243 183.411 254.51 183.48 254.883 183.48H256.003V185H254.563C253.742 185 253.113 184.808 252.675 184.424C252.238 184.04 252.019 183.416 252.019 182.552V177.672H250.979V176.184H252.019V173.992H253.859V176.184H256.003V177.672H253.859ZM262.244 176.04C262.916 176.04 263.514 176.184 264.036 176.472C264.57 176.76 264.986 177.187 265.284 177.752C265.594 178.317 265.748 179 265.748 179.8V185H263.94V180.072C263.94 179.283 263.743 178.68 263.348 178.264C262.954 177.837 262.415 177.624 261.732 177.624C261.05 177.624 260.506 177.837 260.1 178.264C259.706 178.68 259.508 179.283 259.508 180.072V185H257.684V173.16H259.508V177.208C259.818 176.835 260.207 176.547 260.676 176.344C261.156 176.141 261.679 176.04 262.244 176.04ZM276.155 180.376C276.155 180.707 276.134 181.005 276.091 181.272H269.355C269.408 181.976 269.67 182.541 270.139 182.968C270.608 183.395 271.184 183.608 271.867 183.608C272.848 183.608 273.542 183.197 273.947 182.376H275.915C275.648 183.187 275.163 183.853 274.459 184.376C273.766 184.888 272.902 185.144 271.867 185.144C271.024 185.144 270.267 184.957 269.595 184.584C268.934 184.2 268.411 183.667 268.027 182.984C267.654 182.291 267.467 181.491 267.467 180.584C267.467 179.677 267.648 178.883 268.011 178.2C268.384 177.507 268.902 176.973 269.563 176.6C270.235 176.227 271.003 176.04 271.867 176.04C272.699 176.04 273.44 176.221 274.091 176.584C274.742 176.947 275.248 177.459 275.611 178.12C275.974 178.771 276.155 179.523 276.155 180.376ZM274.251 179.8C274.24 179.128 274 178.589 273.531 178.184C273.062 177.779 272.48 177.576 271.787 177.576C271.158 177.576 270.619 177.779 270.171 178.184C269.723 178.579 269.456 179.117 269.371 179.8H274.251ZM293.818 173.88V185H291.994V177.384L288.602 185H287.338L283.93 177.384V185H282.106V173.88H284.074L287.978 182.6L291.866 173.88H293.818ZM295.608 180.552C295.608 179.667 295.789 178.883 296.152 178.2C296.525 177.517 297.026 176.989 297.656 176.616C298.296 176.232 299 176.04 299.768 176.04C300.461 176.04 301.064 176.179 301.576 176.456C302.098 176.723 302.514 177.059 302.824 177.464V176.184H304.664V185H302.824V183.688C302.514 184.104 302.093 184.451 301.56 184.728C301.026 185.005 300.418 185.144 299.736 185.144C298.978 185.144 298.285 184.952 297.656 184.568C297.026 184.173 296.525 183.629 296.152 182.936C295.789 182.232 295.608 181.437 295.608 180.552ZM302.824 180.584C302.824 179.976 302.696 179.448 302.44 179C302.194 178.552 301.869 178.211 301.464 177.976C301.058 177.741 300.621 177.624 300.152 177.624C299.682 177.624 299.245 177.741 298.84 177.976C298.434 178.2 298.104 178.536 297.848 178.984C297.602 179.421 297.48 179.944 297.48 180.552C297.48 181.16 297.602 181.693 297.848 182.152C298.104 182.611 298.434 182.963 298.84 183.208C299.256 183.443 299.693 183.56 300.152 183.56C300.621 183.56 301.058 183.443 301.464 183.208C301.869 182.973 302.194 182.632 302.44 182.184C302.696 181.725 302.824 181.192 302.824 180.584ZM310.259 185.144C309.566 185.144 308.942 185.021 308.387 184.776C307.843 184.52 307.411 184.179 307.091 183.752C306.771 183.315 306.601 182.829 306.579 182.296H308.467C308.499 182.669 308.675 182.984 308.995 183.24C309.326 183.485 309.737 183.608 310.227 183.608C310.739 183.608 311.134 183.512 311.411 183.32C311.699 183.117 311.843 182.861 311.843 182.552C311.843 182.221 311.683 181.976 311.363 181.816C311.054 181.656 310.558 181.48 309.875 181.288C309.214 181.107 308.675 180.931 308.259 180.76C307.843 180.589 307.481 180.328 307.171 179.976C306.873 179.624 306.723 179.16 306.723 178.584C306.723 178.115 306.862 177.688 307.139 177.304C307.417 176.909 307.811 176.6 308.323 176.376C308.846 176.152 309.443 176.04 310.115 176.04C311.118 176.04 311.923 176.296 312.531 176.808C313.15 177.309 313.481 177.997 313.523 178.872H311.699C311.667 178.477 311.507 178.163 311.219 177.928C310.931 177.693 310.542 177.576 310.051 177.576C309.571 177.576 309.203 177.667 308.947 177.848C308.691 178.029 308.563 178.269 308.563 178.568C308.563 178.803 308.649 179 308.819 179.16C308.99 179.32 309.198 179.448 309.443 179.544C309.689 179.629 310.051 179.741 310.531 179.88C311.171 180.051 311.694 180.227 312.099 180.408C312.515 180.579 312.873 180.835 313.171 181.176C313.47 181.517 313.625 181.971 313.635 182.536C313.635 183.037 313.497 183.485 313.219 183.88C312.942 184.275 312.547 184.584 312.035 184.808C311.534 185.032 310.942 185.144 310.259 185.144ZM319.094 180.6L323.158 185H320.694L317.43 181.208V185H315.606V173.16H317.43V180.04L320.63 176.184H323.158L319.094 180.6Z"></path>
<path fill="#4CC2FF" d="M184.994 198.355V203.866C184.994 204.548 184.785 205.087 184.367 205.483C183.956 205.879 183.414 206.077 182.739 206.077C182.064 206.077 181.518 205.879 181.1 205.483C180.689 205.087 180.484 204.548 180.484 203.866H181.749C181.756 204.203 181.841 204.471 182.002 204.669C182.171 204.867 182.416 204.966 182.739 204.966C183.062 204.966 183.307 204.867 183.476 204.669C183.645 204.464 183.729 204.196 183.729 203.866V198.355H184.994ZM188.288 197.86V206H187.034V197.86H188.288ZM192.563 206.099C191.991 206.099 191.474 205.971 191.012 205.714C190.55 205.45 190.187 205.083 189.923 204.614C189.659 204.137 189.527 203.587 189.527 202.964C189.527 202.348 189.663 201.802 189.934 201.325C190.206 200.848 190.576 200.482 191.045 200.225C191.515 199.968 192.039 199.84 192.618 199.84C193.198 199.84 193.722 199.968 194.191 200.225C194.661 200.482 195.031 200.848 195.302 201.325C195.574 201.802 195.709 202.348 195.709 202.964C195.709 203.58 195.57 204.126 195.291 204.603C195.013 205.08 194.631 205.45 194.147 205.714C193.671 205.971 193.143 206.099 192.563 206.099ZM192.563 205.01C192.886 205.01 193.187 204.933 193.465 204.779C193.751 204.625 193.982 204.394 194.158 204.086C194.334 203.778 194.422 203.404 194.422 202.964C194.422 202.524 194.338 202.154 194.169 201.853C194.001 201.545 193.777 201.314 193.498 201.16C193.22 201.006 192.919 200.929 192.596 200.929C192.274 200.929 191.973 201.006 191.694 201.16C191.423 201.314 191.207 201.545 191.045 201.853C190.884 202.154 190.803 202.524 190.803 202.964C190.803 203.617 190.968 204.123 191.298 204.482C191.636 204.834 192.057 205.01 192.563 205.01ZM201.558 204.438H198.357L197.807 206H196.498L199.237 198.344H200.689L203.428 206H202.108L201.558 204.438ZM201.206 203.415L199.963 199.862L198.709 203.415H201.206ZM210.108 199.939V206H208.854V205.285C208.656 205.534 208.396 205.732 208.073 205.879C207.758 206.018 207.42 206.088 207.061 206.088C206.584 206.088 206.155 205.989 205.774 205.791C205.4 205.593 205.103 205.3 204.883 204.911C204.67 204.522 204.564 204.053 204.564 203.503V199.939H205.807V203.316C205.807 203.859 205.943 204.277 206.214 204.57C206.485 204.856 206.856 204.999 207.325 204.999C207.794 204.999 208.165 204.856 208.436 204.57C208.715 204.277 208.854 203.859 208.854 203.316V199.939H210.108Z"></path>
<path fill="black" d="M110.4 174C111.284 174 112 173.283 112 172.4V172.4C112 171.516 112.717 170.8 113.6 170.8H136C136.884 170.8 137.6 171.516 137.6 172.4V191.6C137.6 192.483 136.884 193.2 136 193.2V193.2C135.117 193.2 134.4 193.916 134.4 194.8V207.6C134.4 208.483 133.684 209.2 132.8 209.2H107.2C106.317 209.2 105.6 208.483 105.6 207.6V204.4C105.6 203.516 104.884 202.8 104 202.8V202.8C103.117 202.8 102.4 202.083 102.4 201.2V191.6C102.4 190.716 103.117 190 104 190V190C104.884 190 105.6 189.283 105.6 188.4V175.6C105.6 174.716 106.317 174 107.2 174H110.4Z"></path>
<path fill="#FFFF00" d="M107.2 177.2C107.2 176.316 107.917 175.6 108.8 175.6H112C112.884 175.6 113.6 174.883 113.6 174V174C113.6 173.116 114.317 172.4 115.2 172.4H134.4C135.284 172.4 136 173.116 136 174V190C136 190.883 135.284 191.6 134.4 191.6V191.6C133.517 191.6 132.8 192.316 132.8 193.2V193.2C132.8 194.083 132.084 194.8 131.2 194.8H118.4C117.517 194.8 116.8 194.083 116.8 193.2V193.2C116.8 192.316 116.084 191.6 115.2 191.6H113.6V198H131.2C132.084 198 132.8 198.716 132.8 199.6V206C132.8 206.883 132.084 207.6 131.2 207.6H128C127.117 207.6 126.4 206.883 126.4 206V202.8C126.4 201.916 125.684 201.2 124.8 201.2V201.2C123.917 201.2 123.2 201.916 123.2 202.8V206C123.2 206.883 122.484 207.6 121.6 207.6H115.2C114.317 207.6 113.6 206.883 113.6 206V198H112C111.117 198 110.4 198.716 110.4 199.6V206C110.4 206.883 109.684 207.6 108.8 207.6V207.6C107.917 207.6 107.2 206.883 107.2 206V202.8C107.2 201.916 106.484 201.2 105.6 201.2V201.2C104.717 201.2 104 200.483 104 199.6V193.2C104 192.316 104.717 191.6 105.6 191.6V191.6C106.484 191.6 107.2 190.883 107.2 190V190C107.2 189.116 107.917 188.4 108.8 188.4V188.4C109.684 188.4 110.4 189.116 110.4 190V190C110.4 190.883 111.117 191.6 112 191.6H113.6V186.8C113.6 185.916 112.884 185.2 112 185.2H108.8C107.917 185.2 107.2 184.483 107.2 183.6V183.6C107.2 182.716 107.917 182 108.8 182H112C112.884 182 113.6 181.283 113.6 180.4V180.4C113.6 179.516 112.884 178.8 112 178.8H108.8C107.917 178.8 107.2 178.083 107.2 177.2V177.2Z"></path>
<path fill="black" d="M120 190C120 189.116 120.717 188.4 121.6 188.4H128C128.884 188.4 129.6 189.116 129.6 190V190C129.6 190.883 128.884 191.6 128 191.6H121.6C120.717 191.6 120 190.883 120 190V190Z"></path>
<path fill="black" d="M120 180.4C120 179.516 120.717 178.8 121.6 178.8V178.8C122.484 178.8 123.2 179.516 123.2 180.4V183.6C123.2 184.483 122.484 185.2 121.6 185.2V185.2C120.717 185.2 120 184.483 120 183.6V180.4Z"></path>
<path fill="black" d="M129.6 180.4C129.6 179.516 130.317 178.8 131.2 178.8V178.8C132.084 178.8 132.8 179.516 132.8 180.4V183.6C132.8 184.483 132.084 185.2 131.2 185.2V185.2C130.317 185.2 129.6 184.483 129.6 183.6V180.4Z"></path>
<path fill-opacity="0.9" fill="#262626" d="M60 310C60 304.477 64.4772 300 70 300H460C465.523 300 470 304.477 470 310V340C470 345.523 465.523 350 460 350H70C64.4771 350 60 345.523 60 340V310Z"></path>
<path stroke-opacity="0.2" stroke="black" d="M460 299.5H70C64.201 299.5 59.5 304.201 59.5 310V340C59.5 345.799 64.201 350.5 70 350.5H460C465.799 350.5 470.5 345.799 470.5 340V310C470.5 304.201 465.799 299.5 460 299.5Z"></path>
<path fill="white" d="M87.5804 315.355V323H86.3264V317.764L83.9944 323H83.1254L80.7824 317.764V323H79.5284V315.355H80.8814L83.5654 321.35L86.2384 315.355H87.5804ZM88.8106 319.942C88.8106 319.333 88.9353 318.794 89.1846 318.325C89.4413 317.856 89.786 317.493 90.2186 317.236C90.6586 316.972 91.1426 316.84 91.6706 316.84C92.1473 316.84 92.5616 316.935 92.9136 317.126C93.273 317.309 93.559 317.54 93.7716 317.819V316.939H95.0366V323H93.7716V322.098C93.559 322.384 93.2693 322.622 92.9026 322.813C92.536 323.004 92.118 323.099 91.6486 323.099C91.128 323.099 90.6513 322.967 90.2186 322.703C89.786 322.432 89.4413 322.058 89.1846 321.581C88.9353 321.097 88.8106 320.551 88.8106 319.942ZM93.7716 319.964C93.7716 319.546 93.6836 319.183 93.5076 318.875C93.339 318.567 93.1153 318.332 92.8366 318.171C92.558 318.01 92.2573 317.929 91.9346 317.929C91.612 317.929 91.3113 318.01 91.0326 318.171C90.754 318.325 90.5266 318.556 90.3506 318.864C90.182 319.165 90.0976 319.524 90.0976 319.942C90.0976 320.36 90.182 320.727 90.3506 321.042C90.5266 321.357 90.754 321.599 91.0326 321.768C91.3186 321.929 91.6193 322.01 91.9346 322.01C92.2573 322.01 92.558 321.929 92.8366 321.768C93.1153 321.607 93.339 321.372 93.5076 321.064C93.6836 320.749 93.7716 320.382 93.7716 319.964ZM97.7947 321.977H100.545V323H96.3427V321.977L99.1037 317.962H96.3427V316.939H100.545V317.962L97.7947 321.977ZM107.416 319.821C107.416 320.048 107.402 320.254 107.372 320.437H102.741C102.778 320.921 102.958 321.31 103.28 321.603C103.603 321.896 103.999 322.043 104.468 322.043C105.143 322.043 105.62 321.761 105.898 321.196H107.251C107.068 321.753 106.734 322.212 106.25 322.571C105.774 322.923 105.18 323.099 104.468 323.099C103.889 323.099 103.368 322.971 102.906 322.714C102.452 322.45 102.092 322.083 101.828 321.614C101.572 321.137 101.443 320.587 101.443 319.964C101.443 319.341 101.568 318.794 101.817 318.325C102.074 317.848 102.43 317.482 102.884 317.225C103.346 316.968 103.874 316.84 104.468 316.84C105.04 316.84 105.55 316.965 105.997 317.214C106.445 317.463 106.793 317.815 107.042 318.27C107.292 318.717 107.416 319.234 107.416 319.821ZM106.107 319.425C106.1 318.963 105.935 318.593 105.612 318.314C105.29 318.035 104.89 317.896 104.413 317.896C103.981 317.896 103.61 318.035 103.302 318.314C102.994 318.585 102.811 318.956 102.752 319.425H106.107ZM113.95 316.84C114.419 316.84 114.834 316.935 115.193 317.126C115.56 317.309 115.846 317.54 116.051 317.819V316.939H117.316V323.099C117.316 323.656 117.199 324.151 116.964 324.584C116.729 325.024 116.388 325.369 115.941 325.618C115.501 325.867 114.973 325.992 114.357 325.992C113.536 325.992 112.854 325.798 112.311 325.409C111.768 325.028 111.46 324.507 111.387 323.847H112.63C112.725 324.162 112.927 324.415 113.235 324.606C113.55 324.804 113.924 324.903 114.357 324.903C114.863 324.903 115.27 324.749 115.578 324.441C115.893 324.133 116.051 323.686 116.051 323.099V322.087C115.838 322.373 115.549 322.615 115.182 322.813C114.823 323.004 114.412 323.099 113.95 323.099C113.422 323.099 112.938 322.967 112.498 322.703C112.065 322.432 111.721 322.058 111.464 321.581C111.215 321.097 111.09 320.551 111.09 319.942C111.09 319.333 111.215 318.794 111.464 318.325C111.721 317.856 112.065 317.493 112.498 317.236C112.938 316.972 113.422 316.84 113.95 316.84ZM116.051 319.964C116.051 319.546 115.963 319.183 115.787 318.875C115.618 318.567 115.395 318.332 115.116 318.171C114.837 318.01 114.537 317.929 114.214 317.929C113.891 317.929 113.591 318.01 113.312 318.171C113.033 318.325 112.806 318.556 112.63 318.864C112.461 319.165 112.377 319.524 112.377 319.942C112.377 320.36 112.461 320.727 112.63 321.042C112.806 321.357 113.033 321.599 113.312 321.768C113.598 321.929 113.899 322.01 114.214 322.01C114.537 322.01 114.837 321.929 115.116 321.768C115.395 321.607 115.618 321.372 115.787 321.064C115.963 320.749 116.051 320.382 116.051 319.964ZM118.545 319.942C118.545 319.333 118.67 318.794 118.919 318.325C119.176 317.856 119.52 317.493 119.953 317.236C120.393 316.972 120.877 316.84 121.405 316.84C121.882 316.84 122.296 316.935 122.648 317.126C123.007 317.309 123.293 317.54 123.506 317.819V316.939H124.771V323H123.506V322.098C123.293 322.384 123.004 322.622 122.637 322.813C122.27 323.004 121.852 323.099 121.383 323.099C120.862 323.099 120.386 322.967 119.953 322.703C119.52 322.432 119.176 322.058 118.919 321.581C118.67 321.097 118.545 320.551 118.545 319.942ZM123.506 319.964C123.506 319.546 123.418 319.183 123.242 318.875C123.073 318.567 122.85 318.332 122.571 318.171C122.292 318.01 121.992 317.929 121.669 317.929C121.346 317.929 121.046 318.01 120.767 318.171C120.488 318.325 120.261 318.556 120.085 318.864C119.916 319.165 119.832 319.524 119.832 319.942C119.832 320.36 119.916 320.727 120.085 321.042C120.261 321.357 120.488 321.599 120.767 321.768C121.053 321.929 121.354 322.01 121.669 322.01C121.992 322.01 122.292 321.929 122.571 321.768C122.85 321.607 123.073 321.372 123.242 321.064C123.418 320.749 123.506 320.382 123.506 319.964ZM133.755 316.84C134.232 316.84 134.657 316.939 135.031 317.137C135.412 317.335 135.709 317.628 135.922 318.017C136.142 318.406 136.252 318.875 136.252 319.425V323H135.009V319.612C135.009 319.069 134.873 318.655 134.602 318.369C134.331 318.076 133.96 317.929 133.491 317.929C133.022 317.929 132.648 318.076 132.369 318.369C132.098 318.655 131.962 319.069 131.962 319.612V323H130.719V319.612C130.719 319.069 130.583 318.655 130.312 318.369C130.041 318.076 129.67 317.929 129.201 317.929C128.732 317.929 128.358 318.076 128.079 318.369C127.808 318.655 127.672 319.069 127.672 319.612V323H126.418V316.939H127.672V317.632C127.877 317.383 128.138 317.188 128.453 317.049C128.768 316.91 129.106 316.84 129.465 316.84C129.949 316.84 130.382 316.943 130.763 317.148C131.144 317.353 131.438 317.65 131.643 318.039C131.826 317.672 132.112 317.383 132.501 317.17C132.89 316.95 133.308 316.84 133.755 316.84ZM143.403 319.821C143.403 320.048 143.388 320.254 143.359 320.437H138.728C138.764 320.921 138.944 321.31 139.267 321.603C139.589 321.896 139.985 322.043 140.455 322.043C141.129 322.043 141.606 321.761 141.885 321.196H143.238C143.054 321.753 142.721 322.212 142.237 322.571C141.76 322.923 141.166 323.099 140.455 323.099C139.875 323.099 139.355 322.971 138.893 322.714C138.438 322.45 138.079 322.083 137.815 321.614C137.558 321.137 137.43 320.587 137.43 319.964C137.43 319.341 137.554 318.794 137.804 318.325C138.06 317.848 138.416 317.482 138.871 317.225C139.333 316.968 139.861 316.84 140.455 316.84C141.027 316.84 141.536 316.965 141.984 317.214C142.431 317.463 142.779 317.815 143.029 318.27C143.278 318.717 143.403 319.234 143.403 319.821ZM142.094 319.425C142.086 318.963 141.921 318.593 141.599 318.314C141.276 318.035 140.876 317.896 140.4 317.896C139.967 317.896 139.597 318.035 139.289 318.314C138.981 318.585 138.797 318.956 138.739 319.425H142.094ZM145.143 323.077C144.915 323.077 144.725 323 144.571 322.846C144.417 322.692 144.34 322.501 144.34 322.274C144.34 322.047 144.417 321.856 144.571 321.702C144.725 321.548 144.915 321.471 145.143 321.471C145.363 321.471 145.55 321.548 145.704 321.702C145.858 321.856 145.935 322.047 145.935 322.274C145.935 322.501 145.858 322.692 145.704 322.846C145.55 323 145.363 323.077 145.143 323.077ZM151.402 316.367V318.611H154.042V319.634H151.402V321.977H154.372V323H150.148V315.344H154.372V316.367H151.402ZM158.116 323.099C157.639 323.099 157.21 323.015 156.829 322.846C156.455 322.67 156.158 322.435 155.938 322.142C155.718 321.841 155.601 321.508 155.586 321.141H156.884C156.906 321.398 157.027 321.614 157.247 321.79C157.474 321.959 157.757 322.043 158.094 322.043C158.446 322.043 158.717 321.977 158.908 321.845C159.106 321.706 159.205 321.53 159.205 321.317C159.205 321.09 159.095 320.921 158.875 320.811C158.662 320.701 158.321 320.58 157.852 320.448C157.397 320.323 157.027 320.202 156.741 320.085C156.455 319.968 156.206 319.788 155.993 319.546C155.788 319.304 155.685 318.985 155.685 318.589C155.685 318.266 155.78 317.973 155.971 317.709C156.162 317.438 156.433 317.225 156.785 317.071C157.144 316.917 157.555 316.84 158.017 316.84C158.706 316.84 159.26 317.016 159.678 317.368C160.103 317.713 160.331 318.186 160.36 318.787H159.106C159.084 318.516 158.974 318.299 158.776 318.138C158.578 317.977 158.31 317.896 157.973 317.896C157.643 317.896 157.39 317.958 157.214 318.083C157.038 318.208 156.95 318.373 156.95 318.578C156.95 318.739 157.009 318.875 157.126 318.985C157.243 319.095 157.386 319.183 157.555 319.249C157.724 319.308 157.973 319.385 158.303 319.48C158.743 319.597 159.102 319.718 159.381 319.843C159.667 319.96 159.913 320.136 160.118 320.371C160.323 320.606 160.43 320.917 160.437 321.306C160.437 321.651 160.342 321.959 160.151 322.23C159.96 322.501 159.689 322.714 159.337 322.868C158.992 323.022 158.585 323.099 158.116 323.099ZM161.374 319.964C161.374 319.341 161.499 318.794 161.748 318.325C162.005 317.848 162.357 317.482 162.804 317.225C163.251 316.968 163.765 316.84 164.344 316.84C165.077 316.84 165.682 317.016 166.159 317.368C166.643 317.713 166.969 318.208 167.138 318.853H165.785C165.675 318.552 165.499 318.318 165.257 318.149C165.015 317.98 164.711 317.896 164.344 317.896C163.831 317.896 163.42 318.079 163.112 318.446C162.811 318.805 162.661 319.311 162.661 319.964C162.661 320.617 162.811 321.126 163.112 321.493C163.42 321.86 163.831 322.043 164.344 322.043C165.07 322.043 165.55 321.724 165.785 321.086H167.138C166.962 321.702 166.632 322.193 166.148 322.56C165.664 322.919 165.063 323.099 164.344 323.099C163.765 323.099 163.251 322.971 162.804 322.714C162.357 322.45 162.005 322.083 161.748 321.614C161.499 321.137 161.374 320.587 161.374 319.964ZM167.97 319.942C167.97 319.333 168.094 318.794 168.344 318.325C168.6 317.856 168.945 317.493 169.378 317.236C169.818 316.972 170.302 316.84 170.83 316.84C171.306 316.84 171.721 316.935 172.073 317.126C172.432 317.309 172.718 317.54 172.931 317.819V316.939H174.196V323H172.931V322.098C172.718 322.384 172.428 322.622 172.062 322.813C171.695 323.004 171.277 323.099 170.808 323.099C170.287 323.099 169.81 322.967 169.378 322.703C168.945 322.432 168.6 322.058 168.344 321.581C168.094 321.097 167.97 320.551 167.97 319.942ZM172.931 319.964C172.931 319.546 172.843 319.183 172.667 318.875C172.498 318.567 172.274 318.332 171.996 318.171C171.717 318.01 171.416 317.929 171.094 317.929C170.771 317.929 170.47 318.01 170.192 318.171C169.913 318.325 169.686 318.556 169.51 318.864C169.341 319.165 169.257 319.524 169.257 319.942C169.257 320.36 169.341 320.727 169.51 321.042C169.686 321.357 169.913 321.599 170.192 321.768C170.478 321.929 170.778 322.01 171.094 322.01C171.416 322.01 171.717 321.929 171.996 321.768C172.274 321.607 172.498 321.372 172.667 321.064C172.843 320.749 172.931 320.382 172.931 319.964ZM177.097 317.83C177.31 317.551 177.599 317.317 177.966 317.126C178.333 316.935 178.747 316.84 179.209 316.84C179.737 316.84 180.217 316.972 180.65 317.236C181.09 317.493 181.435 317.856 181.684 318.325C181.933 318.794 182.058 319.333 182.058 319.942C182.058 320.551 181.933 321.097 181.684 321.581C181.435 322.058 181.09 322.432 180.65 322.703C180.217 322.967 179.737 323.099 179.209 323.099C178.747 323.099 178.336 323.007 177.977 322.824C177.618 322.633 177.324 322.399 177.097 322.12V325.882H175.843V316.939H177.097V317.83ZM180.782 319.942C180.782 319.524 180.694 319.165 180.518 318.864C180.349 318.556 180.122 318.325 179.836 318.171C179.557 318.01 179.257 317.929 178.934 317.929C178.619 317.929 178.318 318.01 178.032 318.171C177.753 318.332 177.526 318.567 177.35 318.875C177.181 319.183 177.097 319.546 177.097 319.964C177.097 320.382 177.181 320.749 177.35 321.064C177.526 321.372 177.753 321.607 178.032 321.768C178.318 321.929 178.619 322.01 178.934 322.01C179.257 322.01 179.557 321.929 179.836 321.768C180.122 321.599 180.349 321.357 180.518 321.042C180.694 320.727 180.782 320.36 180.782 319.942ZM188.853 319.821C188.853 320.048 188.838 320.254 188.809 320.437H184.178C184.215 320.921 184.394 321.31 184.717 321.603C185.04 321.896 185.436 322.043 185.905 322.043C186.58 322.043 187.056 321.761 187.335 321.196H188.688C188.505 321.753 188.171 322.212 187.687 322.571C187.21 322.923 186.616 323.099 185.905 323.099C185.326 323.099 184.805 322.971 184.343 322.714C183.888 322.45 183.529 322.083 183.265 321.614C183.008 321.137 182.88 320.587 182.88 319.964C182.88 319.341 183.005 318.794 183.254 318.325C183.511 317.848 183.866 317.482 184.321 317.225C184.783 316.968 185.311 316.84 185.905 316.84C186.477 316.84 186.987 316.965 187.434 317.214C187.881 317.463 188.23 317.815 188.479 318.27C188.728 318.717 188.853 319.234 188.853 319.821ZM187.544 319.425C187.537 318.963 187.372 318.593 187.049 318.314C186.726 318.035 186.327 317.896 185.85 317.896C185.417 317.896 185.047 318.035 184.739 318.314C184.431 318.585 184.248 318.956 184.189 319.425H187.544ZM194.407 317.962V321.317C194.407 321.544 194.459 321.709 194.561 321.812C194.671 321.907 194.855 321.955 195.111 321.955H195.881V323H194.891C194.327 323 193.894 322.868 193.593 322.604C193.293 322.34 193.142 321.911 193.142 321.317V317.962H192.427V316.939H193.142V315.432H194.407V316.939H195.881V317.962H194.407ZM200.172 316.84C200.634 316.84 201.045 316.939 201.404 317.137C201.771 317.335 202.057 317.628 202.262 318.017C202.475 318.406 202.581 318.875 202.581 319.425V323H201.338V319.612C201.338 319.069 201.203 318.655 200.931 318.369C200.66 318.076 200.29 317.929 199.82 317.929C199.351 317.929 198.977 318.076 198.698 318.369C198.427 318.655 198.291 319.069 198.291 319.612V323H197.037V314.86H198.291V317.643C198.504 317.386 198.772 317.188 199.094 317.049C199.424 316.91 199.784 316.84 200.172 316.84ZM209.736 319.821C209.736 320.048 209.721 320.254 209.692 320.437H205.061C205.097 320.921 205.277 321.31 205.6 321.603C205.922 321.896 206.318 322.043 206.788 322.043C207.462 322.043 207.939 321.761 208.218 321.196H209.571C209.387 321.753 209.054 322.212 208.57 322.571C208.093 322.923 207.499 323.099 206.788 323.099C206.208 323.099 205.688 322.971 205.226 322.714C204.771 322.45 204.412 322.083 204.148 321.614C203.891 321.137 203.763 320.587 203.763 319.964C203.763 319.341 203.887 318.794 204.137 318.325C204.393 317.848 204.749 317.482 205.204 317.225C205.666 316.968 206.194 316.84 206.788 316.84C207.36 316.84 207.869 316.965 208.317 317.214C208.764 317.463 209.112 317.815 209.362 318.27C209.611 318.717 209.736 319.234 209.736 319.821ZM208.427 319.425C208.419 318.963 208.254 318.593 207.932 318.314C207.609 318.035 207.209 317.896 206.733 317.896C206.3 317.896 205.93 318.035 205.622 318.314C205.314 318.585 205.13 318.956 205.072 319.425H208.427ZM221.164 316.84C221.641 316.84 222.066 316.939 222.44 317.137C222.822 317.335 223.119 317.628 223.331 318.017C223.551 318.406 223.661 318.875 223.661 319.425V323H222.418V319.612C222.418 319.069 222.283 318.655 222.011 318.369C221.74 318.076 221.37 317.929 220.9 317.929C220.431 317.929 220.057 318.076 219.778 318.369C219.507 318.655 219.371 319.069 219.371 319.612V323H218.128V319.612C218.128 319.069 217.993 318.655 217.721 318.369C217.45 318.076 217.08 317.929 216.61 317.929C216.141 317.929 215.767 318.076 215.488 318.369C215.217 318.655 215.081 319.069 215.081 319.612V323H213.827V316.939H215.081V317.632C215.287 317.383 215.547 317.188 215.862 317.049C216.178 316.91 216.515 316.84 216.874 316.84C217.358 316.84 217.791 316.943 218.172 317.148C218.554 317.353 218.847 317.65 219.052 318.039C219.236 317.672 219.522 317.383 219.91 317.17C220.299 316.95 220.717 316.84 221.164 316.84ZM224.839 319.942C224.839 319.333 224.964 318.794 225.213 318.325C225.47 317.856 225.814 317.493 226.247 317.236C226.687 316.972 227.171 316.84 227.699 316.84C228.176 316.84 228.59 316.935 228.942 317.126C229.301 317.309 229.587 317.54 229.8 317.819V316.939H231.065V323H229.8V322.098C229.587 322.384 229.298 322.622 228.931 322.813C228.564 323.004 228.146 323.099 227.677 323.099C227.156 323.099 226.68 322.967 226.247 322.703C225.814 322.432 225.47 322.058 225.213 321.581C224.964 321.097 224.839 320.551 224.839 319.942ZM229.8 319.964C229.8 319.546 229.712 319.183 229.536 318.875C229.367 318.567 229.144 318.332 228.865 318.171C228.586 318.01 228.286 317.929 227.963 317.929C227.64 317.929 227.34 318.01 227.061 318.171C226.782 318.325 226.555 318.556 226.379 318.864C226.21 319.165 226.126 319.524 226.126 319.942C226.126 320.36 226.21 320.727 226.379 321.042C226.555 321.357 226.782 321.599 227.061 321.768C227.347 321.929 227.648 322.01 227.963 322.01C228.286 322.01 228.586 321.929 228.865 321.768C229.144 321.607 229.367 321.372 229.536 321.064C229.712 320.749 229.8 320.382 229.8 319.964ZM233.823 321.977H236.573V323H232.371V321.977L235.132 317.962H232.371V316.939H236.573V317.962L233.823 321.977ZM243.445 319.821C243.445 320.048 243.43 320.254 243.401 320.437H238.77C238.806 320.921 238.986 321.31 239.309 321.603C239.631 321.896 240.027 322.043 240.497 322.043C241.171 322.043 241.648 321.761 241.927 321.196H243.28C243.096 321.753 242.763 322.212 242.279 322.571C241.802 322.923 241.208 323.099 240.497 323.099C239.917 323.099 239.397 322.971 238.935 322.714C238.48 322.45 238.121 322.083 237.857 321.614C237.6 321.137 237.472 320.587 237.472 319.964C237.472 319.341 237.596 318.794 237.846 318.325C238.102 317.848 238.458 317.482 238.913 317.225C239.375 316.968 239.903 316.84 240.497 316.84C241.069 316.84 241.578 316.965 242.026 317.214C242.473 317.463 242.821 317.815 243.071 318.27C243.32 318.717 243.445 319.234 243.445 319.821ZM242.136 319.425C242.128 318.963 241.963 318.593 241.641 318.314C241.318 318.035 240.918 317.896 240.442 317.896C240.009 317.896 239.639 318.035 239.331 318.314C239.023 318.585 238.839 318.956 238.781 319.425H242.136ZM255.676 316.939L253.795 323H252.475L251.254 318.523L250.033 323H248.713L246.821 316.939H248.097L249.362 321.812L250.649 316.939H251.958L253.19 321.79L254.444 316.939H255.676ZM257.251 316.136C257.024 316.136 256.833 316.059 256.679 315.905C256.525 315.751 256.448 315.56 256.448 315.333C256.448 315.106 256.525 314.915 256.679 314.761C256.833 314.607 257.024 314.53 257.251 314.53C257.471 314.53 257.658 314.607 257.812 314.761C257.966 314.915 258.043 315.106 258.043 315.333C258.043 315.56 257.966 315.751 257.812 315.905C257.658 316.059 257.471 316.136 257.251 316.136ZM257.867 316.939V323H256.613V316.939H257.867ZM260.977 317.962V321.317C260.977 321.544 261.028 321.709 261.131 321.812C261.241 321.907 261.424 321.955 261.681 321.955H262.451V323H261.461C260.896 323 260.463 322.868 260.163 322.604C259.862 322.34 259.712 321.911 259.712 321.317V317.962H258.997V316.939H259.712V315.432H260.977V316.939H262.451V317.962H260.977ZM266.742 316.84C267.204 316.84 267.614 316.939 267.974 317.137C268.34 317.335 268.626 317.628 268.832 318.017C269.044 318.406 269.151 318.875 269.151 319.425V323H267.908V319.612C267.908 319.069 267.772 318.655 267.501 318.369C267.229 318.076 266.859 317.929 266.39 317.929C265.92 317.929 265.546 318.076 265.268 318.369C264.996 318.655 264.861 319.069 264.861 319.612V323H263.607V314.86H264.861V317.643C265.073 317.386 265.341 317.188 265.664 317.049C265.994 316.91 266.353 316.84 266.742 316.84ZM273.379 323.099C272.807 323.099 272.29 322.971 271.828 322.714C271.366 322.45 271.003 322.083 270.739 321.614C270.475 321.137 270.343 320.587 270.343 319.964C270.343 319.348 270.479 318.802 270.75 318.325C271.021 317.848 271.392 317.482 271.861 317.225C272.33 316.968 272.855 316.84 273.434 316.84C274.013 316.84 274.538 316.968 275.007 317.225C275.476 317.482 275.847 317.848 276.118 318.325C276.389 318.802 276.525 319.348 276.525 319.964C276.525 320.58 276.386 321.126 276.107 321.603C275.828 322.08 275.447 322.45 274.963 322.714C274.486 322.971 273.958 323.099 273.379 323.099ZM273.379 322.01C273.702 322.01 274.002 321.933 274.281 321.779C274.567 321.625 274.798 321.394 274.974 321.086C275.15 320.778 275.238 320.404 275.238 319.964C275.238 319.524 275.154 319.154 274.985 318.853C274.816 318.545 274.593 318.314 274.314 318.16C274.035 318.006 273.735 317.929 273.412 317.929C273.089 317.929 272.789 318.006 272.51 318.16C272.239 318.314 272.022 318.545 271.861 318.853C271.7 319.154 271.619 319.524 271.619 319.964C271.619 320.617 271.784 321.123 272.114 321.482C272.451 321.834 272.873 322.01 273.379 322.01ZM283.254 316.939V323H282V322.285C281.802 322.534 281.541 322.732 281.219 322.879C280.903 323.018 280.566 323.088 280.207 323.088C279.73 323.088 279.301 322.989 278.92 322.791C278.546 322.593 278.249 322.3 278.029 321.911C277.816 321.522 277.71 321.053 277.71 320.503V316.939H278.953V320.316C278.953 320.859 279.088 321.277 279.36 321.57C279.631 321.856 280.001 321.999 280.471 321.999C280.94 321.999 281.31 321.856 281.582 321.57C281.86 321.277 282 320.859 282 320.316V316.939H283.254ZM286.371 317.962V321.317C286.371 321.544 286.423 321.709 286.525 321.812C286.635 321.907 286.819 321.955 287.075 321.955H287.845V323H286.855C286.291 323 285.858 322.868 285.557 322.604C285.257 322.34 285.106 321.911 285.106 321.317V317.962H284.391V316.939H285.106V315.432H286.371V316.939H287.845V317.962H286.371ZM294.301 316.84C294.77 316.84 295.184 316.935 295.544 317.126C295.91 317.309 296.196 317.54 296.402 317.819V316.939H297.667V323.099C297.667 323.656 297.549 324.151 297.315 324.584C297.08 325.024 296.739 325.369 296.292 325.618C295.852 325.867 295.324 325.992 294.708 325.992C293.886 325.992 293.204 325.798 292.662 325.409C292.119 325.028 291.811 324.507 291.738 323.847H292.981C293.076 324.162 293.278 324.415 293.586 324.606C293.901 324.804 294.275 324.903 294.708 324.903C295.214 324.903 295.621 324.749 295.929 324.441C296.244 324.133 296.402 323.686 296.402 323.099V322.087C296.189 322.373 295.899 322.615 295.533 322.813C295.173 323.004 294.763 323.099 294.301 323.099C293.773 323.099 293.289 322.967 292.849 322.703C292.416 322.432 292.071 322.058 291.815 321.581C291.565 321.097 291.441 320.551 291.441 319.942C291.441 319.333 291.565 318.794 291.815 318.325C292.071 317.856 292.416 317.493 292.849 317.236C293.289 316.972 293.773 316.84 294.301 316.84ZM296.402 319.964C296.402 319.546 296.314 319.183 296.138 318.875C295.969 318.567 295.745 318.332 295.467 318.171C295.188 318.01 294.887 317.929 294.565 317.929C294.242 317.929 293.941 318.01 293.663 318.171C293.384 318.325 293.157 318.556 292.981 318.864C292.812 319.165 292.728 319.524 292.728 319.942C292.728 320.36 292.812 320.727 292.981 321.042C293.157 321.357 293.384 321.599 293.663 321.768C293.949 321.929 294.249 322.01 294.565 322.01C294.887 322.01 295.188 321.929 295.467 321.768C295.745 321.607 295.969 321.372 296.138 321.064C296.314 320.749 296.402 320.382 296.402 319.964ZM304.869 319.821C304.869 320.048 304.854 320.254 304.825 320.437H300.194C300.23 320.921 300.41 321.31 300.733 321.603C301.055 321.896 301.451 322.043 301.921 322.043C302.595 322.043 303.072 321.761 303.351 321.196H304.704C304.52 321.753 304.187 322.212 303.703 322.571C303.226 322.923 302.632 323.099 301.921 323.099C301.341 323.099 300.821 322.971 300.359 322.714C299.904 322.45 299.545 322.083 299.281 321.614C299.024 321.137 298.896 320.587 298.896 319.964C298.896 319.341 299.02 318.794 299.27 318.325C299.526 317.848 299.882 317.482 300.337 317.225C300.799 316.968 301.327 316.84 301.921 316.84C302.493 316.84 303.002 316.965 303.45 317.214C303.897 317.463 304.245 317.815 304.495 318.27C304.744 318.717 304.869 319.234 304.869 319.821ZM303.56 319.425C303.552 318.963 303.387 318.593 303.065 318.314C302.742 318.035 302.342 317.896 301.866 317.896C301.433 317.896 301.063 318.035 300.755 318.314C300.447 318.585 300.263 318.956 300.205 319.425H303.56ZM307.566 317.962V321.317C307.566 321.544 307.617 321.709 307.72 321.812C307.83 321.907 308.013 321.955 308.27 321.955H309.04V323H308.05C307.485 323 307.052 322.868 306.752 322.604C306.451 322.34 306.301 321.911 306.301 321.317V317.962H305.586V316.939H306.301V315.432H307.566V316.939H309.04V317.962H307.566ZM311.658 317.962V321.317C311.658 321.544 311.71 321.709 311.812 321.812C311.922 321.907 312.106 321.955 312.362 321.955H313.132V323H312.142C311.578 323 311.145 322.868 310.844 322.604C310.544 322.34 310.393 321.911 310.393 321.317V317.962H309.678V316.939H310.393V315.432H311.658V316.939H313.132V317.962H311.658ZM314.926 316.136C314.699 316.136 314.508 316.059 314.354 315.905C314.2 315.751 314.123 315.56 314.123 315.333C314.123 315.106 314.2 314.915 314.354 314.761C314.508 314.607 314.699 314.53 314.926 314.53C315.146 314.53 315.333 314.607 315.487 314.761C315.641 314.915 315.718 315.106 315.718 315.333C315.718 315.56 315.641 315.751 315.487 315.905C315.333 316.059 315.146 316.136 314.926 316.136ZM315.542 316.939V323H314.288V316.939H315.542ZM320.247 316.84C320.723 316.84 321.149 316.939 321.523 317.137C321.904 317.335 322.201 317.628 322.414 318.017C322.626 318.406 322.733 318.875 322.733 319.425V323H321.49V319.612C321.49 319.069 321.354 318.655 321.083 318.369C320.811 318.076 320.441 317.929 319.972 317.929C319.502 317.929 319.128 318.076 318.85 318.369C318.578 318.655 318.443 319.069 318.443 319.612V323H317.189V316.939H318.443V317.632C318.648 317.383 318.908 317.188 319.224 317.049C319.546 316.91 319.887 316.84 320.247 316.84ZM326.774 316.84C327.243 316.84 327.658 316.935 328.017 317.126C328.384 317.309 328.67 317.54 328.875 317.819V316.939H330.14V323.099C330.14 323.656 330.023 324.151 329.788 324.584C329.553 325.024 329.212 325.369 328.765 325.618C328.325 325.867 327.797 325.992 327.181 325.992C326.36 325.992 325.678 325.798 325.135 325.409C324.592 325.028 324.284 324.507 324.211 323.847H325.454C325.549 324.162 325.751 324.415 326.059 324.606C326.374 324.804 326.748 324.903 327.181 324.903C327.687 324.903 328.094 324.749 328.402 324.441C328.717 324.133 328.875 323.686 328.875 323.099V322.087C328.662 322.373 328.373 322.615 328.006 322.813C327.647 323.004 327.236 323.099 326.774 323.099C326.246 323.099 325.762 322.967 325.322 322.703C324.889 322.432 324.545 322.058 324.288 321.581C324.039 321.097 323.914 320.551 323.914 319.942C323.914 319.333 324.039 318.794 324.288 318.325C324.545 317.856 324.889 317.493 325.322 317.236C325.762 316.972 326.246 316.84 326.774 316.84ZM328.875 319.964C328.875 319.546 328.787 319.183 328.611 318.875C328.442 318.567 328.219 318.332 327.94 318.171C327.661 318.01 327.361 317.929 327.038 317.929C326.715 317.929 326.415 318.01 326.136 318.171C325.857 318.325 325.63 318.556 325.454 318.864C325.285 319.165 325.201 319.524 325.201 319.942C325.201 320.36 325.285 320.727 325.454 321.042C325.63 321.357 325.857 321.599 326.136 321.768C326.422 321.929 326.723 322.01 327.038 322.01C327.361 322.01 327.661 321.929 327.94 321.768C328.219 321.607 328.442 321.372 328.611 321.064C328.787 320.749 328.875 320.382 328.875 319.964ZM334.227 319.964C334.227 319.341 334.351 318.794 334.601 318.325C334.857 317.848 335.209 317.482 335.657 317.225C336.104 316.968 336.617 316.84 337.197 316.84C337.93 316.84 338.535 317.016 339.012 317.368C339.496 317.713 339.822 318.208 339.991 318.853H338.638C338.528 318.552 338.352 318.318 338.11 318.149C337.868 317.98 337.563 317.896 337.197 317.896C336.683 317.896 336.273 318.079 335.965 318.446C335.664 318.805 335.514 319.311 335.514 319.964C335.514 320.617 335.664 321.126 335.965 321.493C336.273 321.86 336.683 322.043 337.197 322.043C337.923 322.043 338.403 321.724 338.638 321.086H339.991C339.815 321.702 339.485 322.193 339.001 322.56C338.517 322.919 337.915 323.099 337.197 323.099C336.617 323.099 336.104 322.971 335.657 322.714C335.209 322.45 334.857 322.083 334.601 321.614C334.351 321.137 334.227 320.587 334.227 319.964ZM340.822 319.942C340.822 319.333 340.947 318.794 341.196 318.325C341.453 317.856 341.798 317.493 342.23 317.236C342.67 316.972 343.154 316.84 343.682 316.84C344.159 316.84 344.573 316.935 344.925 317.126C345.285 317.309 345.571 317.54 345.783 317.819V316.939H347.048V323H345.783V322.098C345.571 322.384 345.281 322.622 344.914 322.813C344.548 323.004 344.13 323.099 343.66 323.099C343.14 323.099 342.663 322.967 342.23 322.703C341.798 322.432 341.453 322.058 341.196 321.581C340.947 321.097 340.822 320.551 340.822 319.942ZM345.783 319.964C345.783 319.546 345.695 319.183 345.519 318.875C345.351 318.567 345.127 318.332 344.848 318.171C344.57 318.01 344.269 317.929 343.946 317.929C343.624 317.929 343.323 318.01 343.044 318.171C342.766 318.325 342.538 318.556 342.362 318.864C342.194 319.165 342.109 319.524 342.109 319.942C342.109 320.36 342.194 320.727 342.362 321.042C342.538 321.357 342.766 321.599 343.044 321.768C343.33 321.929 343.631 322.01 343.946 322.01C344.269 322.01 344.57 321.929 344.848 321.768C345.127 321.607 345.351 321.372 345.519 321.064C345.695 320.749 345.783 320.382 345.783 319.964ZM354.184 316.939V323H352.93V322.285C352.732 322.534 352.472 322.732 352.149 322.879C351.834 323.018 351.497 323.088 351.137 323.088C350.661 323.088 350.232 322.989 349.85 322.791C349.476 322.593 349.179 322.3 348.959 321.911C348.747 321.522 348.64 321.053 348.64 320.503V316.939H349.883V320.316C349.883 320.859 350.019 321.277 350.29 321.57C350.562 321.856 350.932 321.999 351.401 321.999C351.871 321.999 352.241 321.856 352.512 321.57C352.791 321.277 352.93 320.859 352.93 320.316V316.939H354.184ZM358.281 316.84C358.75 316.84 359.165 316.935 359.524 317.126C359.891 317.309 360.177 317.54 360.382 317.819V316.939H361.647V323.099C361.647 323.656 361.53 324.151 361.295 324.584C361.06 325.024 360.719 325.369 360.272 325.618C359.832 325.867 359.304 325.992 358.688 325.992C357.867 325.992 357.185 325.798 356.642 325.409C356.099 325.028 355.791 324.507 355.718 323.847H356.961C357.056 324.162 357.258 324.415 357.566 324.606C357.881 324.804 358.255 324.903 358.688 324.903C359.194 324.903 359.601 324.749 359.909 324.441C360.224 324.133 360.382 323.686 360.382 323.099V322.087C360.169 322.373 359.88 322.615 359.513 322.813C359.154 323.004 358.743 323.099 358.281 323.099C357.753 323.099 357.269 322.967 356.829 322.703C356.396 322.432 356.052 322.058 355.795 321.581C355.546 321.097 355.421 320.551 355.421 319.942C355.421 319.333 355.546 318.794 355.795 318.325C356.052 317.856 356.396 317.493 356.829 317.236C357.269 316.972 357.753 316.84 358.281 316.84ZM360.382 319.964C360.382 319.546 360.294 319.183 360.118 318.875C359.949 318.567 359.726 318.332 359.447 318.171C359.168 318.01 358.868 317.929 358.545 317.929C358.222 317.929 357.922 318.01 357.643 318.171C357.364 318.325 357.137 318.556 356.961 318.864C356.792 319.165 356.708 319.524 356.708 319.942C356.708 320.36 356.792 320.727 356.961 321.042C357.137 321.357 357.364 321.599 357.643 321.768C357.929 321.929 358.23 322.01 358.545 322.01C358.868 322.01 359.168 321.929 359.447 321.768C359.726 321.607 359.949 321.372 360.118 321.064C360.294 320.749 360.382 320.382 360.382 319.964ZM366.429 316.84C366.891 316.84 367.302 316.939 367.661 317.137C368.028 317.335 368.314 317.628 368.519 318.017C368.732 318.406 368.838 318.875 368.838 319.425V323H367.595V319.612C367.595 319.069 367.459 318.655 367.188 318.369C366.917 318.076 366.546 317.929 366.077 317.929C365.608 317.929 365.234 318.076 364.955 318.369C364.684 318.655 364.548 319.069 364.548 319.612V323H363.294V314.86H364.548V317.643C364.761 317.386 365.028 317.188 365.351 317.049C365.681 316.91 366.04 316.84 366.429 316.84ZM371.901 317.962V321.317C371.901 321.544 371.952 321.709 372.055 321.812C372.165 321.907 372.348 321.955 372.605 321.955H373.375V323H372.385C371.82 323 371.387 322.868 371.087 322.604C370.786 322.34 370.636 321.911 370.636 321.317V317.962H369.921V316.939H370.636V315.432H371.901V316.939H373.375V317.962H371.901ZM378.026 316.136C377.798 316.136 377.608 316.059 377.454 315.905C377.3 315.751 377.223 315.56 377.223 315.333C377.223 315.106 377.3 314.915 377.454 314.761C377.608 314.607 377.798 314.53 378.026 314.53C378.246 314.53 378.433 314.607 378.587 314.761C378.741 314.915 378.818 315.106 378.818 315.333C378.818 315.56 378.741 315.751 378.587 315.905C378.433 316.059 378.246 316.136 378.026 316.136ZM378.642 316.939V323H377.388V316.939H378.642ZM383.346 316.84C383.823 316.84 384.248 316.939 384.622 317.137C385.004 317.335 385.301 317.628 385.513 318.017C385.726 318.406 385.832 318.875 385.832 319.425V323H384.589V319.612C384.589 319.069 384.454 318.655 384.182 318.369C383.911 318.076 383.541 317.929 383.071 317.929C382.602 317.929 382.228 318.076 381.949 318.369C381.678 318.655 381.542 319.069 381.542 319.612V323H380.288V316.939H381.542V317.632C381.748 317.383 382.008 317.188 382.323 317.049C382.646 316.91 382.987 316.84 383.346 316.84ZM391.752 317.962V321.317C391.752 321.544 391.804 321.709 391.906 321.812C392.016 321.907 392.2 321.955 392.456 321.955H393.226V323H392.236C391.672 323 391.239 322.868 390.938 322.604C390.638 322.34 390.487 321.911 390.487 321.317V317.962H389.772V316.939H390.487V315.432H391.752V316.939H393.226V317.962H391.752ZM397.517 316.84C397.979 316.84 398.39 316.939 398.749 317.137C399.116 317.335 399.402 317.628 399.607 318.017C399.82 318.406 399.926 318.875 399.926 319.425V323H398.683V319.612C398.683 319.069 398.547 318.655 398.276 318.369C398.005 318.076 397.634 317.929 397.165 317.929C396.696 317.929 396.322 318.076 396.043 318.369C395.772 318.655 395.636 319.069 395.636 319.612V323H394.382V314.86H395.636V317.643C395.849 317.386 396.116 317.188 396.439 317.049C396.769 316.91 397.128 316.84 397.517 316.84ZM407.081 319.821C407.081 320.048 407.066 320.254 407.037 320.437H402.406C402.442 320.921 402.622 321.31 402.945 321.603C403.267 321.896 403.663 322.043 404.133 322.043C404.807 322.043 405.284 321.761 405.563 321.196H406.916C406.732 321.753 406.399 322.212 405.915 322.571C405.438 322.923 404.844 323.099 404.133 323.099C403.553 323.099 403.033 322.971 402.571 322.714C402.116 322.45 401.757 322.083 401.493 321.614C401.236 321.137 401.108 320.587 401.108 319.964C401.108 319.341 401.232 318.794 401.482 318.325C401.738 317.848 402.094 317.482 402.549 317.225C403.011 316.968 403.539 316.84 404.133 316.84C404.705 316.84 405.214 316.965 405.662 317.214C406.109 317.463 406.457 317.815 406.707 318.27C406.956 318.717 407.081 319.234 407.081 319.821ZM405.772 319.425C405.764 318.963 405.599 318.593 405.277 318.314C404.954 318.035 404.554 317.896 404.078 317.896C403.645 317.896 403.275 318.035 402.967 318.314C402.659 318.585 402.475 318.956 402.417 319.425H405.772ZM413.515 321.878L415.231 316.939H416.562L414.252 323H412.756L410.457 316.939H411.799L413.515 321.878ZM417.092 319.942C417.092 319.333 417.217 318.794 417.466 318.325C417.723 317.856 418.067 317.493 418.5 317.236C418.94 316.972 419.424 316.84 419.952 316.84C420.429 316.84 420.843 316.935 421.195 317.126C421.554 317.309 421.84 317.54 422.053 317.819V316.939H423.318V323H422.053V322.098C421.84 322.384 421.551 322.622 421.184 322.813C420.817 323.004 420.399 323.099 419.93 323.099C419.409 323.099 418.933 322.967 418.5 322.703C418.067 322.432 417.723 322.058 417.466 321.581C417.217 321.097 417.092 320.551 417.092 319.942ZM422.053 319.964C422.053 319.546 421.965 319.183 421.789 318.875C421.62 318.567 421.397 318.332 421.118 318.171C420.839 318.01 420.539 317.929 420.216 317.929C419.893 317.929 419.593 318.01 419.314 318.171C419.035 318.325 418.808 318.556 418.632 318.864C418.463 319.165 418.379 319.524 418.379 319.942C418.379 320.36 418.463 320.727 418.632 321.042C418.808 321.357 419.035 321.599 419.314 321.768C419.6 321.929 419.901 322.01 420.216 322.01C420.539 322.01 420.839 321.929 421.118 321.768C421.397 321.607 421.62 321.372 421.789 321.064C421.965 320.749 422.053 320.382 422.053 319.964ZM426.219 317.819C426.402 317.511 426.644 317.273 426.945 317.104C427.253 316.928 427.616 316.84 428.034 316.84V318.138H427.715C427.224 318.138 426.85 318.263 426.593 318.512C426.344 318.761 426.219 319.194 426.219 319.81V323H424.965V316.939H426.219V317.819ZM429.825 316.136C429.597 316.136 429.407 316.059 429.253 315.905C429.099 315.751 429.022 315.56 429.022 315.333C429.022 315.106 429.099 314.915 429.253 314.761C429.407 314.607 429.597 314.53 429.825 314.53C430.045 314.53 430.232 314.607 430.386 314.761C430.54 314.915 430.617 315.106 430.617 315.333C430.617 315.56 430.54 315.751 430.386 315.905C430.232 316.059 430.045 316.136 429.825 316.136ZM430.441 316.939V323H429.187V316.939H430.441ZM434.716 323.099C434.144 323.099 433.627 322.971 433.165 322.714C432.703 322.45 432.34 322.083 432.076 321.614C431.812 321.137 431.68 320.587 431.68 319.964C431.68 319.348 431.816 318.802 432.087 318.325C432.358 317.848 432.729 317.482 433.198 317.225C433.667 316.968 434.192 316.84 434.771 316.84C435.35 316.84 435.875 316.968 436.344 317.225C436.813 317.482 437.184 317.848 437.455 318.325C437.726 318.802 437.862 319.348 437.862 319.964C437.862 320.58 437.723 321.126 437.444 321.603C437.165 322.08 436.784 322.45 436.3 322.714C435.823 322.971 435.295 323.099 434.716 323.099ZM434.716 322.01C435.039 322.01 435.339 321.933 435.618 321.779C435.904 321.625 436.135 321.394 436.311 321.086C436.487 320.778 436.575 320.404 436.575 319.964C436.575 319.524 436.491 319.154 436.322 318.853C436.153 318.545 435.93 318.314 435.651 318.16C435.372 318.006 435.072 317.929 434.749 317.929C434.426 317.929 434.126 318.006 433.847 318.16C433.576 318.314 433.359 318.545 433.198 318.853C433.037 319.154 432.956 319.524 432.956 319.964C432.956 320.617 433.121 321.123 433.451 321.482C433.788 321.834 434.21 322.01 434.716 322.01ZM444.591 316.939V323H443.337V322.285C443.139 322.534 442.878 322.732 442.556 322.879C442.24 323.018 441.903 323.088 441.544 323.088C441.067 323.088 440.638 322.989 440.257 322.791C439.883 322.593 439.586 322.3 439.366 321.911C439.153 321.522 439.047 321.053 439.047 320.503V316.939H440.29V320.316C440.29 320.859 440.425 321.277 440.697 321.57C440.968 321.856 441.338 321.999 441.808 321.999C442.277 321.999 442.647 321.856 442.919 321.57C443.197 321.277 443.337 320.859 443.337 320.316V316.939H444.591ZM448.445 323.099C447.969 323.099 447.54 323.015 447.158 322.846C446.784 322.67 446.487 322.435 446.267 322.142C446.047 321.841 445.93 321.508 445.915 321.141H447.213C447.235 321.398 447.356 321.614 447.576 321.79C447.804 321.959 448.086 322.043 448.423 322.043C448.775 322.043 449.047 321.977 449.237 321.845C449.435 321.706 449.534 321.53 449.534 321.317C449.534 321.09 449.424 320.921 449.204 320.811C448.992 320.701 448.651 320.58 448.181 320.448C447.727 320.323 447.356 320.202 447.07 320.085C446.784 319.968 446.535 319.788 446.322 319.546C446.117 319.304 446.014 318.985 446.014 318.589C446.014 318.266 446.11 317.973 446.3 317.709C446.491 317.438 446.762 317.225 447.114 317.071C447.474 316.917 447.884 316.84 448.346 316.84C449.036 316.84 449.589 317.016 450.007 317.368C450.433 317.713 450.66 318.186 450.689 318.787H449.435C449.413 318.516 449.303 318.299 449.105 318.138C448.907 317.977 448.64 317.896 448.302 317.896C447.972 317.896 447.719 317.958 447.543 318.083C447.367 318.208 447.279 318.373 447.279 318.578C447.279 318.739 447.338 318.875 447.455 318.985C447.573 319.095 447.716 319.183 447.884 319.249C448.053 319.308 448.302 319.385 448.632 319.48C449.072 319.597 449.432 319.718 449.71 319.843C449.996 319.96 450.242 320.136 450.447 320.371C450.653 320.606 450.759 320.917 450.766 321.306C450.766 321.651 450.671 321.959 450.48 322.23C450.29 322.501 450.018 322.714 449.666 322.868C449.322 323.022 448.915 323.099 448.445 323.099ZM250.97 328.962V332.317C250.97 332.544 251.022 332.709 251.124 332.812C251.234 332.907 251.418 332.955 251.674 332.955H252.444V334H251.454C250.89 334 250.457 333.868 250.156 333.604C249.856 333.34 249.705 332.911 249.705 332.317V328.962H248.99V327.939H249.705V326.432H250.97V327.939H252.444V328.962H250.97ZM254.854 328.819C255.038 328.511 255.28 328.273 255.58 328.104C255.888 327.928 256.251 327.84 256.669 327.84V329.138H256.35C255.859 329.138 255.485 329.263 255.228 329.512C254.979 329.761 254.854 330.194 254.854 330.81V334H253.6V327.939H254.854V328.819ZM257.404 330.942C257.404 330.333 257.529 329.794 257.778 329.325C258.035 328.856 258.379 328.493 258.812 328.236C259.252 327.972 259.736 327.84 260.264 327.84C260.741 327.84 261.155 327.935 261.507 328.126C261.866 328.309 262.152 328.54 262.365 328.819V327.939H263.63V334H262.365V333.098C262.152 333.384 261.863 333.622 261.496 333.813C261.129 334.004 260.711 334.099 260.242 334.099C259.721 334.099 259.245 333.967 258.812 333.703C258.379 333.432 258.035 333.058 257.778 332.581C257.529 332.097 257.404 331.551 257.404 330.942ZM262.365 330.964C262.365 330.546 262.277 330.183 262.101 329.875C261.932 329.567 261.709 329.332 261.43 329.171C261.151 329.01 260.851 328.929 260.528 328.929C260.205 328.929 259.905 329.01 259.626 329.171C259.347 329.325 259.12 329.556 258.944 329.864C258.775 330.165 258.691 330.524 258.691 330.942C258.691 331.36 258.775 331.727 258.944 332.042C259.12 332.357 259.347 332.599 259.626 332.768C259.912 332.929 260.213 333.01 260.528 333.01C260.851 333.01 261.151 332.929 261.43 332.768C261.709 332.607 261.932 332.372 262.101 332.064C262.277 331.749 262.365 331.382 262.365 330.964ZM266.531 328.83C266.744 328.551 267.033 328.317 267.4 328.126C267.767 327.935 268.181 327.84 268.643 327.84C269.171 327.84 269.651 327.972 270.084 328.236C270.524 328.493 270.869 328.856 271.118 329.325C271.367 329.794 271.492 330.333 271.492 330.942C271.492 331.551 271.367 332.097 271.118 332.581C270.869 333.058 270.524 333.432 270.084 333.703C269.651 333.967 269.171 334.099 268.643 334.099C268.181 334.099 267.77 334.007 267.411 333.824C267.052 333.633 266.758 333.399 266.531 333.12V336.882H265.277V327.939H266.531V328.83ZM270.216 330.942C270.216 330.524 270.128 330.165 269.952 329.864C269.783 329.556 269.556 329.325 269.27 329.171C268.991 329.01 268.691 328.929 268.368 328.929C268.053 328.929 267.752 329.01 267.466 329.171C267.187 329.332 266.96 329.567 266.784 329.875C266.615 330.183 266.531 330.546 266.531 330.964C266.531 331.382 266.615 331.749 266.784 332.064C266.96 332.372 267.187 332.607 267.466 332.768C267.752 332.929 268.053 333.01 268.368 333.01C268.691 333.01 268.991 332.929 269.27 332.768C269.556 332.599 269.783 332.357 269.952 332.042C270.128 331.727 270.216 331.36 270.216 330.942ZM274.932 334.099C274.455 334.099 274.026 334.015 273.645 333.846C273.271 333.67 272.974 333.435 272.754 333.142C272.534 332.841 272.417 332.508 272.402 332.141H273.7C273.722 332.398 273.843 332.614 274.063 332.79C274.29 332.959 274.573 333.043 274.91 333.043C275.262 333.043 275.533 332.977 275.724 332.845C275.922 332.706 276.021 332.53 276.021 332.317C276.021 332.09 275.911 331.921 275.691 331.811C275.478 331.701 275.137 331.58 274.668 331.448C274.213 331.323 273.843 331.202 273.557 331.085C273.271 330.968 273.022 330.788 272.809 330.546C272.604 330.304 272.501 329.985 272.501 329.589C272.501 329.266 272.596 328.973 272.787 328.709C272.978 328.438 273.249 328.225 273.601 328.071C273.96 327.917 274.371 327.84 274.833 327.84C275.522 327.84 276.076 328.016 276.494 328.368C276.919 328.713 277.147 329.186 277.176 329.787H275.922C275.9 329.516 275.79 329.299 275.592 329.138C275.394 328.977 275.126 328.896 274.789 328.896C274.459 328.896 274.206 328.958 274.03 329.083C273.854 329.208 273.766 329.373 273.766 329.578C273.766 329.739 273.825 329.875 273.942 329.985C274.059 330.095 274.202 330.183 274.371 330.249C274.54 330.308 274.789 330.385 275.119 330.48C275.559 330.597 275.918 330.718 276.197 330.843C276.483 330.96 276.729 331.136 276.934 331.371C277.139 331.606 277.246 331.917 277.253 332.306C277.253 332.651 277.158 332.959 276.967 333.23C276.776 333.501 276.505 333.714 276.153 333.868C275.808 334.022 275.401 334.099 274.932 334.099ZM280.181 326.355L280.038 331.69H278.993L278.85 326.355H280.181ZM279.554 334.077C279.327 334.077 279.136 334 278.982 333.846C278.828 333.692 278.751 333.501 278.751 333.274C278.751 333.047 278.828 332.856 278.982 332.702C279.136 332.548 279.327 332.471 279.554 332.471C279.774 332.471 279.961 332.548 280.115 332.702C280.269 332.856 280.346 333.047 280.346 333.274C280.346 333.501 280.269 333.692 280.115 333.846C279.961 334 279.774 334.077 279.554 334.077Z"></path>
</svg>
