<svg xmlns="http://www.w3.org/2000/svg" fill="none" viewBox="0 0 44 24" height="24" width="44">
<path fill-opacity="0.5" fill="#FF0000" d="M2 12C2 6.47715 6.47715 2 12 2H32C37.5228 2 42 6.47715 42 12V12C42 17.5228 37.5228 22 32 22H12C6.47715 22 2 17.5228 2 12V12Z"></path>
<path stroke-width="2" stroke-opacity="0.2" stroke="#FF0000" d="M32 1H12C5.92487 1 1 5.92487 1 12C1 18.0751 5.92487 23 12 23H32C38.0751 23 43 18.0751 43 12C43 5.92487 38.0751 1 32 1Z"></path>
<path fill="white" d="M21.0651 8.428H17.0451V10.816C17.2131 10.592 17.4611 10.404 17.7891 10.252C18.1251 10.1 18.4811 10.024 18.8571 10.024C19.5291 10.024 20.0731 10.168 20.4891 10.456C20.9131 10.744 21.2131 11.108 21.3891 11.548C21.5731 11.988 21.6651 12.452 21.6651 12.94C21.6651 13.532 21.5491 14.06 21.3171 14.524C21.0931 14.98 20.7531 15.34 20.2971 15.604C19.8491 15.868 19.2971 16 18.6411 16C17.7691 16 17.0691 15.784 16.5411 15.352C16.0131 14.92 15.6971 14.348 15.5931 13.636H16.9251C17.0131 14.012 17.2091 14.312 17.5131 14.536C17.8171 14.752 18.1971 14.86 18.6531 14.86C19.2211 14.86 19.6451 14.688 19.9251 14.344C20.2131 14 20.3571 13.544 20.3571 12.976C20.3571 12.4 20.2131 11.96 19.9251 11.656C19.6371 11.344 19.2131 11.188 18.6531 11.188C18.2611 11.188 17.9291 11.288 17.6571 11.488C17.3931 11.68 17.2011 11.944 17.0811 12.28H15.7851V7.228H21.0651V8.428ZM23.8451 14.14C24.6131 13.476 25.2171 12.932 25.6571 12.508C26.1051 12.076 26.4771 11.628 26.7731 11.164C27.0691 10.7 27.2171 10.236 27.2171 9.772C27.2171 9.292 27.1011 8.916 26.8691 8.644C26.6451 8.372 26.2891 8.236 25.8011 8.236C25.3291 8.236 24.9611 8.388 24.6971 8.692C24.4411 8.988 24.3051 9.388 24.2891 9.892H22.9691C22.9931 8.98 23.2651 8.284 23.7851 7.804C24.3131 7.316 24.9811 7.072 25.7891 7.072C26.6611 7.072 27.3411 7.312 27.8291 7.792C28.3251 8.272 28.5731 8.912 28.5731 9.712C28.5731 10.288 28.4251 10.844 28.1291 11.38C27.8411 11.908 27.4931 12.384 27.0851 12.808C26.6851 13.224 26.1731 13.708 25.5491 14.26L25.0091 14.74H28.8131V15.88H22.9811V14.884L23.8451 14.14Z"></path>
</svg>
