<svg version="1.1" xmlns="http://www.w3.org/2000/svg" xmlns:xlink="http://www.w3.org/1999/xlink" width="40" height="20" viewBox="0,0,40,20"><g transform="translate(-220,-167)"><g data-paper-data="{&quot;isPaintingLayer&quot;:true}" fill-rule="nonzero" stroke="none" stroke-width="1" stroke-linecap="butt" stroke-linejoin="miter" stroke-miterlimit="10" stroke-dasharray="" stroke-dashoffset="0" style="mix-blend-mode: normal"><path d="M220,187v-20h40v20z" fill="none"></path><path d="M242.256,171.66v5.316c0,0.632 0.164,1.108 0.492,1.428c0.336,0.32 0.8,0.48 1.392,0.48c0.6,0 1.064,-0.16 1.392,-0.48c0.336,-0.32 0.504,-0.796 0.504,-1.428v-5.316h1.368v5.292c0,0.68 -0.148,1.256 -0.444,1.728c-0.296,0.472 -0.692,0.824 -1.188,1.056c-0.496,0.232 -1.044,0.348 -1.644,0.348c-0.6,0 -1.148,-0.116 -1.644,-0.348c-0.488,-0.232 -0.876,-0.584 -1.164,-1.056c-0.288,-0.472 -0.432,-1.048 -0.432,-1.728v-5.292z" fill="#ff0000"></path></g></g></svg>