<svg xmlns="http://www.w3.org/2000/svg" fill="none" viewBox="0 0 122 142" height="142" width="122">
<path fill-opacity="0.9" fill="#CCCCCC" d="M1 11C1 5.47716 5.47715 1 11 1H111C116.523 1 121 5.47715 121 11V131C121 136.523 116.523 141 111 141H11C5.47715 141 1 136.523 1 131V11Z"></path>
<path stroke-opacity="0.2" stroke="white" d="M11 0.5C5.20101 0.5 0.5 5.20101 0.5 11V131C0.5 136.799 5.20101 141.5 11 141.5H111C116.799 141.5 121.5 136.799 121.5 131V11C121.5 5.20101 116.799 0.5 111 0.5H11Z"></path>
<path fill="black" d="M19.877 92.355V100H18.623V94.764L16.291 100H15.422L13.079 94.764V100H11.825V92.355H13.178L15.862 98.35L18.535 92.355H19.877ZM27.0802 96.821C27.0802 97.0483 27.0655 97.2537 27.0362 97.437H22.4052C22.4419 97.921 22.6215 98.3097 22.9442 98.603C23.2669 98.8963 23.6629 99.043 24.1322 99.043C24.8069 99.043 25.2835 98.7607 25.5622 98.196H26.9152C26.7319 98.7533 26.3982 99.2117 25.9142 99.571C25.4375 99.923 24.8435 100.099 24.1322 100.099C23.5529 100.099 23.0322 99.9707 22.5702 99.714C22.1155 99.45 21.7562 99.0833 21.4922 98.614C21.2355 98.1373 21.1072 97.5873 21.1072 96.964C21.1072 96.3407 21.2319 95.7943 21.4812 95.325C21.7379 94.8483 22.0935 94.4817 22.5482 94.225C23.0102 93.9683 23.5382 93.84 24.1322 93.84C24.7042 93.84 25.2139 93.9647 25.6612 94.214C26.1085 94.4633 26.4569 94.8153 26.7062 95.27C26.9555 95.7173 27.0802 96.2343 27.0802 96.821ZM25.7712 96.425C25.7639 95.963 25.5989 95.5927 25.2762 95.314C24.9535 95.0353 24.5539 94.896 24.0772 94.896C23.6445 94.896 23.2742 95.0353 22.9662 95.314C22.6582 95.5853 22.4749 95.9557 22.4162 96.425H25.7712ZM27.8963 96.942C27.8963 96.3333 28.0209 95.7943 28.2703 95.325C28.5269 94.8557 28.8716 94.4927 29.3043 94.236C29.7443 93.972 30.2319 93.84 30.7673 93.84C31.1633 93.84 31.5519 93.928 31.9333 94.104C32.3219 94.2727 32.6299 94.5 32.8573 94.786V91.86H34.1223V100H32.8573V99.087C32.6519 99.3803 32.3659 99.6223 31.9993 99.813C31.6399 100.004 31.2256 100.099 30.7563 100.099C30.2283 100.099 29.7443 99.967 29.3043 99.703C28.8716 99.4317 28.5269 99.0577 28.2703 98.581C28.0209 98.097 27.8963 97.5507 27.8963 96.942ZM32.8573 96.964C32.8573 96.546 32.7693 96.183 32.5933 95.875C32.4246 95.567 32.2009 95.3323 31.9223 95.171C31.6436 95.0097 31.3429 94.929 31.0203 94.929C30.6976 94.929 30.3969 95.0097 30.1183 95.171C29.8396 95.325 29.6123 95.556 29.4363 95.864C29.2676 96.1647 29.1833 96.524 29.1833 96.942C29.1833 97.36 29.2676 97.7267 29.4363 98.042C29.6123 98.3573 29.8396 98.5993 30.1183 98.768C30.4043 98.9293 30.7049 99.01 31.0203 99.01C31.3429 99.01 31.6436 98.9293 31.9223 98.768C32.2009 98.6067 32.4246 98.372 32.5933 98.064C32.7693 97.7487 32.8573 97.382 32.8573 96.964ZM36.4073 93.136C36.18 93.136 35.9893 93.059 35.8353 92.905C35.6813 92.751 35.6043 92.5603 35.6043 92.333C35.6043 92.1057 35.6813 91.915 35.8353 91.761C35.9893 91.607 36.18 91.53 36.4073 91.53C36.6273 91.53 36.8143 91.607 36.9683 91.761C37.1223 91.915 37.1993 92.1057 37.1993 92.333C37.1993 92.5603 37.1223 92.751 36.9683 92.905C36.8143 93.059 36.6273 93.136 36.4073 93.136ZM37.0233 93.939V100H35.7693V93.939H37.0233ZM38.2517 96.942C38.2517 96.3333 38.3764 95.7943 38.6257 95.325C38.8824 94.8557 39.2271 94.4927 39.6597 94.236C40.0997 93.972 40.5837 93.84 41.1117 93.84C41.5884 93.84 42.0027 93.9353 42.3547 94.126C42.7141 94.3093 43.0001 94.5403 43.2127 94.819V93.939H44.4777V100H43.2127V99.098C43.0001 99.384 42.7104 99.6223 42.3437 99.813C41.9771 100.004 41.5591 100.099 41.0897 100.099C40.5691 100.099 40.0924 99.967 39.6597 99.703C39.2271 99.4317 38.8824 99.0577 38.6257 98.581C38.3764 98.097 38.2517 97.5507 38.2517 96.942ZM43.2127 96.964C43.2127 96.546 43.1247 96.183 42.9487 95.875C42.7801 95.567 42.5564 95.3323 42.2777 95.171C41.9991 95.0097 41.6984 94.929 41.3757 94.929C41.0531 94.929 40.7524 95.0097 40.4737 95.171C40.1951 95.325 39.9677 95.556 39.7917 95.864C39.6231 96.1647 39.5387 96.524 39.5387 96.942C39.5387 97.36 39.6231 97.7267 39.7917 98.042C39.9677 98.3573 40.1951 98.5993 40.4737 98.768C40.7597 98.9293 41.0604 99.01 41.3757 99.01C41.6984 99.01 41.9991 98.9293 42.2777 98.768C42.5564 98.6067 42.7801 98.372 42.9487 98.064C43.1247 97.7487 43.2127 97.382 43.2127 96.964ZM54.3282 94.632C54.3282 95.0207 54.2366 95.3873 54.0532 95.732C53.8699 96.0767 53.5766 96.359 53.1732 96.579C52.7699 96.7917 52.2529 96.898 51.6222 96.898H50.2362V100H48.9822V92.355H51.6222C52.2089 92.355 52.7039 92.4577 53.1072 92.663C53.5179 92.861 53.8222 93.1323 54.0202 93.477C54.2256 93.8217 54.3282 94.2067 54.3282 94.632ZM51.6222 95.875C52.0989 95.875 52.4546 95.7687 52.6892 95.556C52.9239 95.336 53.0412 95.028 53.0412 94.632C53.0412 93.796 52.5682 93.378 51.6222 93.378H50.2362V95.875H51.6222ZM56.7782 91.86V100H55.5242V91.86H56.7782ZM58.0066 96.942C58.0066 96.3333 58.1313 95.7943 58.3806 95.325C58.6373 94.8557 58.9819 94.4927 59.4146 94.236C59.8546 93.972 60.3386 93.84 60.8666 93.84C61.3433 93.84 61.7576 93.9353 62.1096 94.126C62.4689 94.3093 62.7549 94.5403 62.9676 94.819V93.939H64.2326V100H62.9676V99.098C62.7549 99.384 62.4653 99.6223 62.0986 99.813C61.7319 100.004 61.3139 100.099 60.8446 100.099C60.3239 100.099 59.8473 99.967 59.4146 99.703C58.9819 99.4317 58.6373 99.0577 58.3806 98.581C58.1313 98.097 58.0066 97.5507 58.0066 96.942ZM62.9676 96.964C62.9676 96.546 62.8796 96.183 62.7036 95.875C62.5349 95.567 62.3113 95.3323 62.0326 95.171C61.7539 95.0097 61.4533 94.929 61.1306 94.929C60.8079 94.929 60.5073 95.0097 60.2286 95.171C59.9499 95.325 59.7226 95.556 59.5466 95.864C59.3779 96.1647 59.2936 96.524 59.2936 96.942C59.2936 97.36 59.3779 97.7267 59.5466 98.042C59.7226 98.3573 59.9499 98.5993 60.2286 98.768C60.5146 98.9293 60.8153 99.01 61.1306 99.01C61.4533 99.01 61.7539 98.9293 62.0326 98.768C62.3113 98.6067 62.5349 98.372 62.7036 98.064C62.8796 97.7487 62.9676 97.382 62.9676 96.964ZM71.3357 93.939L67.6177 102.849H66.3197L67.5517 99.901L65.1647 93.939H66.5617L68.2667 98.559L70.0377 93.939H71.3357ZM77.837 96.821C77.837 97.0483 77.8224 97.2537 77.793 97.437H73.162C73.1987 97.921 73.3784 98.3097 73.701 98.603C74.0237 98.8963 74.4197 99.043 74.889 99.043C75.5637 99.043 76.0404 98.7607 76.319 98.196H77.672C77.4887 98.7533 77.155 99.2117 76.671 99.571C76.1944 99.923 75.6004 100.099 74.889 100.099C74.3097 100.099 73.789 99.9707 73.327 99.714C72.8724 99.45 72.513 99.0833 72.249 98.614C71.9924 98.1373 71.864 97.5873 71.864 96.964C71.864 96.3407 71.9887 95.7943 72.238 95.325C72.4947 94.8483 72.8504 94.4817 73.305 94.225C73.767 93.9683 74.295 93.84 74.889 93.84C75.461 93.84 75.9707 93.9647 76.418 94.214C76.8654 94.4633 77.2137 94.8153 77.463 95.27C77.7124 95.7173 77.837 96.2343 77.837 96.821ZM76.528 96.425C76.5207 95.963 76.3557 95.5927 76.033 95.314C75.7104 95.0353 75.3107 94.896 74.834 94.896C74.4014 94.896 74.031 95.0353 73.723 95.314C73.415 95.5853 73.2317 95.9557 73.173 96.425H76.528ZM80.3251 94.819C80.5084 94.511 80.7504 94.2727 81.0511 94.104C81.3591 93.928 81.7221 93.84 82.1401 93.84V95.138H81.8211C81.3298 95.138 80.9558 95.2627 80.6991 95.512C80.4498 95.7613 80.3251 96.194 80.3251 96.81V100H79.0711V93.939H80.3251V94.819Z"></path>
<path fill="#536988" d="M1 11C1 5.47715 5.47715 1 11 1H111C116.523 1 121 5.47715 121 11V81H1V11Z"></path>
<path fill-opacity="0.5" fill="white" d="M1 11C1 5.47715 5.47715 1 11 1H111C116.523 1 121 5.47715 121 11V81H1V11Z"></path>
<path fill-opacity="0.05" fill="black" d="M61 116C61 113.239 63.2386 111 66 111H106C108.761 111 111 113.239 111 116V126C111 128.761 108.761 131 106 131H66C63.2386 131 61 128.761 61 126V116Z"></path>
<path fill="black" d="M81.2087 122.722H78.5897L78.1397 124H77.0687L79.3097 117.736H80.4977L82.7387 124H81.6587L81.2087 122.722ZM80.9207 121.885L79.9037 118.978L78.8777 121.885H80.9207ZM84.7391 119.77C84.9131 119.542 85.1501 119.35 85.4501 119.194C85.7501 119.038 86.0891 118.96 86.4671 118.96C86.8991 118.96 87.2921 119.068 87.6461 119.284C88.0061 119.494 88.2881 119.791 88.4921 120.175C88.6961 120.559 88.7981 121 88.7981 121.498C88.7981 121.996 88.6961 122.443 88.4921 122.839C88.2881 123.229 88.0061 123.535 87.6461 123.757C87.2921 123.973 86.8991 124.081 86.4671 124.081C86.0891 124.081 85.7531 124.006 85.4591 123.856C85.1651 123.7 84.9251 123.508 84.7391 123.28V126.358H83.7131V119.041H84.7391V119.77ZM87.7541 121.498C87.7541 121.156 87.6821 120.862 87.5381 120.616C87.4001 120.364 87.2141 120.175 86.9801 120.049C86.7521 119.917 86.5061 119.851 86.2421 119.851C85.9841 119.851 85.7381 119.917 85.5041 120.049C85.2761 120.181 85.0901 120.373 84.9461 120.625C84.8081 120.877 84.7391 121.174 84.7391 121.516C84.7391 121.858 84.8081 122.158 84.9461 122.416C85.0901 122.668 85.2761 122.86 85.5041 122.992C85.7381 123.124 85.9841 123.19 86.2421 123.19C86.5061 123.19 86.7521 123.124 86.9801 122.992C87.2141 122.854 87.4001 122.656 87.5381 122.398C87.6821 122.14 87.7541 121.84 87.7541 121.498ZM90.8387 119.77C91.0127 119.542 91.2497 119.35 91.5497 119.194C91.8497 119.038 92.1887 118.96 92.5667 118.96C92.9987 118.96 93.3917 119.068 93.7457 119.284C94.1057 119.494 94.3877 119.791 94.5917 120.175C94.7957 120.559 94.8977 121 94.8977 121.498C94.8977 121.996 94.7957 122.443 94.5917 122.839C94.3877 123.229 94.1057 123.535 93.7457 123.757C93.3917 123.973 92.9987 124.081 92.5667 124.081C92.1887 124.081 91.8527 124.006 91.5587 123.856C91.2647 123.7 91.0247 123.508 90.8387 123.28V126.358H89.8127V119.041H90.8387V119.77ZM93.8537 121.498C93.8537 121.156 93.7817 120.862 93.6377 120.616C93.4997 120.364 93.3137 120.175 93.0797 120.049C92.8517 119.917 92.6057 119.851 92.3417 119.851C92.0837 119.851 91.8377 119.917 91.6037 120.049C91.3757 120.181 91.1897 120.373 91.0457 120.625C90.9077 120.877 90.8387 121.174 90.8387 121.516C90.8387 121.858 90.9077 122.158 91.0457 122.416C91.1897 122.668 91.3757 122.86 91.6037 122.992C91.8377 123.124 92.0837 123.19 92.3417 123.19C92.6057 123.19 92.8517 123.124 93.0797 122.992C93.3137 122.854 93.4997 122.656 93.6377 122.398C93.7817 122.14 93.8537 121.84 93.8537 121.498Z"></path>
<rect fill="url(#paint0_linear_948_87)" rx="3.2" height="25.6" width="25.6" y="21.7998" x="41.7998"></rect>
<path fill="white" d="M51.2053 33.1939C53.0798 31.3194 56.119 31.3194 57.9935 33.1939L64.8622 40.0625C65.4623 40.6627 65.7994 41.4766 65.7994 42.3253V42.5998C65.7994 44.3671 64.3667 45.7998 62.5994 45.7998H46.5994C44.8321 45.7998 43.3994 44.3671 43.3994 42.5998V42.3253C43.3994 41.4766 43.7366 40.6627 44.3367 40.0625L51.2053 33.1939Z"></path>
<path stroke-width="1.6" stroke-opacity="0.1" stroke="black" d="M46.5994 46.5998H62.5994C64.8086 46.5998 66.5994 44.8089 66.5994 42.5998V42.3253C66.5994 41.2644 66.178 40.247 65.4278 39.4969L58.5592 32.6282C56.3723 30.4413 52.8266 30.4413 50.6396 32.6282L43.771 39.4969C43.0208 40.247 42.5994 41.2644 42.5994 42.3253V42.5998C42.5994 44.8089 44.3903 46.5998 46.5994 46.5998Z"></path>
<path fill="url(#paint1_linear_948_87)" d="M46.5996 47.3996L58.2682 35.731C58.8931 35.1061 59.9061 35.1061 60.531 35.731L66.4624 41.6624C67.0625 42.2625 67.3996 43.0764 67.3996 43.9251V44.1996C67.3996 45.9669 65.9669 47.3996 64.1996 47.3996H46.5996Z"></path>
<path fill="url(#paint2_linear_948_87)" d="M41.7998 43.9253C41.7998 43.0766 42.1369 42.2627 42.7371 41.6625L51.2057 33.1939C53.0802 31.3194 56.1194 31.3194 57.9939 33.1939L62.5998 37.7998V37.7998C60.8325 36.0325 57.9671 36.0325 56.1998 37.7998L47.5371 46.4625C46.9369 47.0627 46.123 47.3998 45.2743 47.3998H44.9998C43.2325 47.3998 41.7998 45.9671 41.7998 44.1998V43.9253Z"></path>
<rect fill="white" rx="2.4" height="4.8" width="4.8" y="25" x="57.7998"></rect>
<rect stroke-width="1.6" stroke-opacity="0.1" stroke="black" rx="3.2" height="6.4" width="6.4" y="24.2" x="56.9998"></rect>
<rect stroke-width="2.4" stroke="url(#paint4_linear_948_87)" fill="url(#paint3_linear_948_87)" rx="11.6" height="23.2" width="23.2" y="35.8001" x="55.8006"></rect>
<path fill="white" d="M64.2002 52.229V42.571C64.2002 41.9172 64.942 41.5395 65.4707 41.924L72.1106 46.753C72.5499 47.0725 72.5499 47.7275 72.1106 48.047L65.4707 52.876C64.942 53.2605 64.2002 52.8828 64.2002 52.229Z"></path>
<path stroke-linejoin="round" stroke-width="1.6" stroke-opacity="0.2" stroke="black" d="M63.4002 42.571V52.229C63.4002 53.5366 64.8837 54.2921 65.9413 53.523L72.5811 48.694C73.4597 48.055 73.4597 46.745 72.5811 46.106L65.9413 41.277C64.8837 40.5079 63.4002 41.2634 63.4002 42.571Z"></path>
<defs>
<linearGradient gradientUnits="userSpaceOnUse" y2="40.9998" x2="67.3998" y1="23.3998" x1="43.3998" id="paint0_linear_948_87">
<stop stop-color="#188EDB"></stop>
<stop stop-color="#7D5AB6" offset="1"></stop>
</linearGradient>
<linearGradient gradientUnits="userSpaceOnUse" y2="47.3996" x2="64.1996" y1="39.3996" x1="56.1996" id="paint1_linear_948_87">
<stop stop-color="#037AD2"></stop>
<stop stop-color="#2C9EE2" offset="1"></stop>
</linearGradient>
<linearGradient gradientUnits="userSpaceOnUse" y2="40.9998" x2="52.9998" y1="34.5998" x1="46.5998" id="paint2_linear_948_87">
<stop stop-color="#4DDDFB"></stop>
<stop stop-color="#2AB2EB" offset="1"></stop>
</linearGradient>
<linearGradient gradientUnits="userSpaceOnUse" y2="55.4001" x2="75.4006" y1="39.4001" x1="59.4006" id="paint3_linear_948_87">
<stop stop-color="#4C4C4C"></stop>
<stop stop-color="#242424" offset="1"></stop>
</linearGradient>
<linearGradient gradientUnits="userSpaceOnUse" y2="56.2001" x2="76.2006" y1="38.6001" x1="58.6006" id="paint4_linear_948_87">
<stop stop-color="#FC914C"></stop>
<stop stop-color="#8D63BE" offset="1"></stop>
</linearGradient>
</defs>
</svg>
