<svg version="1.1" xmlns="http://www.w3.org/2000/svg" xmlns:xlink="http://www.w3.org/1999/xlink" width="40" height="20" viewBox="0,0,40,20"><g transform="translate(-220,-167)"><g data-paper-data="{&quot;isPaintingLayer&quot;:true}" fill-rule="nonzero" stroke="none" stroke-width="1" stroke-linecap="butt" stroke-linejoin="miter" stroke-miterlimit="10" stroke-dasharray="" stroke-dashoffset="0" style="mix-blend-mode: normal"><path d="M220,187v-20h40v20z" fill="none"></path><path d="M242.196,175.428c-0.832,-0.416 -1.248,-1.072 -1.248,-1.968c0,-0.432 0.108,-0.828 0.324,-1.188c0.216,-0.36 0.54,-0.644 0.972,-0.852c0.432,-0.216 0.96,-0.324 1.584,-0.324c0.616,0 1.14,0.108 1.572,0.324c0.44,0.208 0.768,0.492 0.984,0.852c0.216,0.36 0.324,0.756 0.324,1.188c0,0.448 -0.116,0.844 -0.348,1.188c-0.224,0.336 -0.524,0.596 -0.9,0.78c0.456,0.168 0.816,0.444 1.08,0.828c0.264,0.376 0.396,0.82 0.396,1.332c0,0.52 -0.132,0.98 -0.396,1.38c-0.264,0.4 -0.632,0.708 -1.104,0.924c-0.472,0.216 -1.008,0.324 -1.608,0.324c-0.6,0 -1.136,-0.108 -1.608,-0.324c-0.464,-0.216 -0.828,-0.524 -1.092,-0.924c-0.264,-0.4 -0.396,-0.86 -0.396,-1.38c0,-0.52 0.132,-0.968 0.396,-1.344c0.264,-0.376 0.62,-0.648 1.068,-0.816zM245.4,173.628c0,-0.448 -0.14,-0.792 -0.42,-1.032c-0.28,-0.24 -0.664,-0.36 -1.152,-0.36c-0.48,0 -0.86,0.12 -1.14,0.36c-0.28,0.24 -0.42,0.588 -0.42,1.044c0,0.4 0.144,0.728 0.432,0.984c0.296,0.248 0.672,0.372 1.128,0.372c0.456,0 0.832,-0.128 1.128,-0.384c0.296,-0.256 0.444,-0.584 0.444,-0.984zM243.828,176.028c-0.528,0 -0.96,0.132 -1.296,0.396c-0.328,0.256 -0.492,0.628 -0.492,1.116c0,0.456 0.16,0.828 0.48,1.116c0.32,0.28 0.756,0.42 1.308,0.42c0.544,0 0.972,-0.144 1.284,-0.432c0.32,-0.288 0.48,-0.656 0.48,-1.104c0,-0.48 -0.164,-0.852 -0.492,-1.116c-0.32,-0.264 -0.744,-0.396 -1.272,-0.396z" fill="#ff0000"></path></g></g></svg>