<svg xmlns="http://www.w3.org/2000/svg" fill="none" viewBox="0 0 480 360" height="360" width="480">
<path fill-opacity="0.9" fill="#1A1A1A" d="M360 20C360 14.4772 364.477 10 370 10H430C435.523 10 440 14.4772 440 20V50C440 55.5228 435.523 60 430 60H370C364.477 60 360 55.5228 360 50V20Z"></path>
<path stroke-width="2" stroke-opacity="0.2" stroke="white" d="M430 9H370C363.925 9 359 13.9249 359 20V50C359 56.0751 363.925 61 370 61H430C436.075 61 441 56.0751 441 50V20C441 13.9249 436.075 9 430 9Z"></path>
</svg>
