<svg xmlns="http://www.w3.org/2000/svg" fill="none" viewBox="0 0 260 160" height="160" width="260">
<path fill-opacity="0.9" fill="#1B1B1B" d="M20 30C20 24.4772 24.4772 20 30 20H230C235.523 20 240 24.4772 240 30V110C240 115.523 235.523 120 230 120H30C24.4772 120 20 115.523 20 110V30Z"></path>
<path stroke-width="2" stroke-opacity="0.2" stroke="white" d="M30 19C23.9249 19 19 23.9249 19 30V110C19 116.075 23.9249 121 30 121H230C236.075 121 241 116.075 241 110V30C241 23.9249 236.075 19 230 19H30Z"></path>
<path fill="white" d="M72.268 41.764V44.212H75.148V45.328H72.268V47.884H75.508V49H70.9V40.648H75.508V41.764H72.268ZM80.025 45.652L82.161 49H80.613L79.185 46.756L77.841 49H76.413L78.549 45.748L76.413 42.388H77.961L79.389 44.632L80.733 42.388H82.161L80.025 45.652ZM84.5493 43.36C84.7813 43.056 85.0973 42.8 85.4973 42.592C85.8973 42.384 86.3493 42.28 86.8533 42.28C87.4293 42.28 87.9533 42.424 88.4253 42.712C88.9053 42.992 89.2813 43.388 89.5533 43.9C89.8253 44.412 89.9613 45 89.9613 45.664C89.9613 46.328 89.8253 46.924 89.5533 47.452C89.2813 47.972 88.9053 48.38 88.4253 48.676C87.9533 48.964 87.4293 49.108 86.8533 49.108C86.3493 49.108 85.9013 49.008 85.5093 48.808C85.1173 48.6 84.7973 48.344 84.5493 48.04V52.144H83.1813V42.388H84.5493V43.36ZM88.5693 45.664C88.5693 45.208 88.4733 44.816 88.2812 44.488C88.0973 44.152 87.8493 43.9 87.5373 43.732C87.2333 43.556 86.9053 43.468 86.5533 43.468C86.2093 43.468 85.8813 43.556 85.5693 43.732C85.2653 43.908 85.0173 44.164 84.8253 44.5C84.6413 44.836 84.5493 45.232 84.5493 45.688C84.5493 46.144 84.6413 46.544 84.8253 46.888C85.0173 47.224 85.2653 47.48 85.5693 47.656C85.8813 47.832 86.2093 47.92 86.5533 47.92C86.9053 47.92 87.2333 47.832 87.5373 47.656C87.8493 47.472 88.0973 47.208 88.2812 46.864C88.4733 46.52 88.5693 46.12 88.5693 45.664ZM92.6821 40.12V49H91.3141V40.12H92.6821ZM97.3461 49.108C96.7221 49.108 96.1581 48.968 95.6541 48.688C95.1501 48.4 94.7541 48 94.4661 47.488C94.1781 46.968 94.0341 46.368 94.0341 45.688C94.0341 45.016 94.1821 44.42 94.4781 43.9C94.7741 43.38 95.1781 42.98 95.6901 42.7C96.2021 42.42 96.7741 42.28 97.4061 42.28C98.0381 42.28 98.6101 42.42 99.1221 42.7C99.6341 42.98 100.038 43.38 100.334 43.9C100.63 44.42 100.778 45.016 100.778 45.688C100.778 46.36 100.626 46.956 100.322 47.476C100.018 47.996 99.6021 48.4 99.0741 48.688C98.5541 48.968 97.9781 49.108 97.3461 49.108ZM97.3461 47.92C97.6981 47.92 98.0261 47.836 98.3301 47.668C98.6421 47.5 98.8941 47.248 99.0861 46.912C99.2781 46.576 99.3741 46.168 99.3741 45.688C99.3741 45.208 99.2821 44.804 99.0981 44.476C98.9141 44.14 98.6701 43.888 98.3661 43.72C98.0621 43.552 97.7341 43.468 97.3821 43.468C97.0301 43.468 96.7021 43.552 96.3981 43.72C96.1021 43.888 95.8661 44.14 95.6901 44.476C95.5141 44.804 95.4261 45.208 95.4261 45.688C95.4261 46.4 95.6061 46.952 95.9661 47.344C96.3341 47.728 96.7941 47.92 97.3461 47.92ZM103.498 43.348C103.698 43.012 103.962 42.752 104.29 42.568C104.626 42.376 105.022 42.28 105.478 42.28V43.696H105.13C104.594 43.696 104.186 43.832 103.906 44.104C103.634 44.376 103.498 44.848 103.498 45.52V49H102.13V42.388H103.498V43.348ZM112.796 45.532C112.796 45.78 112.78 46.004 112.748 46.204H107.696C107.736 46.732 107.932 47.156 108.284 47.476C108.636 47.796 109.068 47.956 109.58 47.956C110.316 47.956 110.836 47.648 111.14 47.032H112.616C112.416 47.64 112.052 48.14 111.524 48.532C111.004 48.916 110.356 49.108 109.58 49.108C108.948 49.108 108.38 48.968 107.876 48.688C107.38 48.4 106.988 48 106.7 47.488C106.42 46.968 106.28 46.368 106.28 45.688C106.28 45.008 106.416 44.412 106.688 43.9C106.968 43.38 107.356 42.98 107.852 42.7C108.356 42.42 108.932 42.28 109.58 42.28C110.204 42.28 110.76 42.416 111.248 42.688C111.736 42.96 112.116 43.344 112.388 43.84C112.66 44.328 112.796 44.892 112.796 45.532ZM111.368 45.1C111.36 44.596 111.18 44.192 110.828 43.888C110.476 43.584 110.04 43.432 109.52 43.432C109.048 43.432 108.644 43.584 108.308 43.888C107.972 44.184 107.772 44.588 107.708 45.1H111.368ZM115.51 43.348C115.71 43.012 115.974 42.752 116.302 42.568C116.638 42.376 117.034 42.28 117.49 42.28V43.696H117.142C116.606 43.696 116.198 43.832 115.918 44.104C115.646 44.376 115.51 44.848 115.51 45.52V49H114.142V42.388H115.51V43.348Z"></path>
<path fill="#BEBEBE" d="M42.068 74.355V79.228C42.068 79.8073 42.2183 80.2437 42.519 80.537C42.827 80.8303 43.2523 80.977 43.795 80.977C44.345 80.977 44.7703 80.8303 45.071 80.537C45.379 80.2437 45.533 79.8073 45.533 79.228V74.355H46.787V79.206C46.787 79.8293 46.6513 80.3573 46.38 80.79C46.1087 81.2227 45.7457 81.5453 45.291 81.758C44.8363 81.9707 44.334 82.077 43.784 82.077C43.234 82.077 42.7317 81.9707 42.277 81.758C41.8297 81.5453 41.474 81.2227 41.21 80.79C40.946 80.3573 40.814 79.8293 40.814 79.206V74.355H42.068ZM51.4777 75.84C51.9544 75.84 52.3797 75.939 52.7537 76.137C53.1351 76.335 53.4321 76.6283 53.6447 77.017C53.8574 77.4057 53.9637 77.875 53.9637 78.425V82H52.7207V78.612C52.7207 78.0693 52.5851 77.655 52.3137 77.369C52.0424 77.0757 51.6721 76.929 51.2027 76.929C50.7334 76.929 50.3594 77.0757 50.0807 77.369C49.8094 77.655 49.6737 78.0693 49.6737 78.612V82H48.4197V75.939H49.6737V76.632C49.8791 76.3827 50.1394 76.1883 50.4547 76.049C50.7774 75.9097 51.1184 75.84 51.4777 75.84ZM55.1453 78.942C55.1453 78.3333 55.2699 77.7943 55.5193 77.325C55.7759 76.8557 56.1206 76.4927 56.5533 76.236C56.9933 75.972 57.4773 75.84 58.0053 75.84C58.4819 75.84 58.8963 75.9353 59.2483 76.126C59.6076 76.3093 59.8936 76.5403 60.1063 76.819V75.939H61.3713V82H60.1063V81.098C59.8936 81.384 59.6039 81.6223 59.2373 81.813C58.8706 82.0037 58.4526 82.099 57.9833 82.099C57.4626 82.099 56.9859 81.967 56.5533 81.703C56.1206 81.4317 55.7759 81.0577 55.5193 80.581C55.2699 80.097 55.1453 79.5507 55.1453 78.942ZM60.1063 78.964C60.1063 78.546 60.0183 78.183 59.8423 77.875C59.6736 77.567 59.4499 77.3323 59.1713 77.171C58.8926 77.0097 58.5919 76.929 58.2693 76.929C57.9466 76.929 57.6459 77.0097 57.3673 77.171C57.0886 77.325 56.8613 77.556 56.6853 77.864C56.5166 78.1647 56.4323 78.524 56.4323 78.942C56.4323 79.36 56.5166 79.7267 56.6853 80.042C56.8613 80.3573 57.0886 80.5993 57.3673 80.768C57.6533 80.9293 57.9539 81.01 58.2693 81.01C58.5919 81.01 58.8926 80.9293 59.1713 80.768C59.4499 80.6067 59.6736 80.372 59.8423 80.064C60.0183 79.7487 60.1063 79.382 60.1063 78.964ZM64.2724 76.841C64.485 76.5477 64.7747 76.3093 65.1414 76.126C65.5154 75.9353 65.9297 75.84 66.3844 75.84C66.9197 75.84 67.4037 75.9683 67.8364 76.225C68.269 76.4817 68.61 76.8483 68.8594 77.325C69.1087 77.7943 69.2334 78.3333 69.2334 78.942C69.2334 79.5507 69.1087 80.097 68.8594 80.581C68.61 81.0577 68.2654 81.4317 67.8254 81.703C67.3927 81.967 66.9124 82.099 66.3844 82.099C65.915 82.099 65.497 82.0073 65.1304 81.824C64.771 81.6407 64.485 81.406 64.2724 81.12V82H63.0184V73.86H64.2724V76.841ZM67.9574 78.942C67.9574 78.524 67.8694 78.1647 67.6934 77.864C67.5247 77.556 67.2974 77.325 67.0114 77.171C66.7327 77.0097 66.432 76.929 66.1094 76.929C65.794 76.929 65.4934 77.0097 65.2074 77.171C64.9287 77.3323 64.7014 77.567 64.5254 77.875C64.3567 78.183 64.2724 78.546 64.2724 78.964C64.2724 79.382 64.3567 79.7487 64.5254 80.064C64.7014 80.372 64.9287 80.6067 65.2074 80.768C65.4934 80.9293 65.794 81.01 66.1094 81.01C66.432 81.01 66.7327 80.9293 67.0114 80.768C67.2974 80.5993 67.5247 80.3573 67.6934 80.042C67.8694 79.7267 67.9574 79.36 67.9574 78.942ZM71.7274 73.86V82H70.4734V73.86H71.7274ZM78.9288 78.821C78.9288 79.0483 78.9142 79.2537 78.8848 79.437H74.2538C74.2905 79.921 74.4702 80.3097 74.7928 80.603C75.1155 80.8963 75.5115 81.043 75.9808 81.043C76.6555 81.043 77.1322 80.7607 77.4108 80.196H78.7638C78.5805 80.7533 78.2468 81.2117 77.7628 81.571C77.2862 81.923 76.6922 82.099 75.9808 82.099C75.4015 82.099 74.8808 81.9707 74.4188 81.714C73.9642 81.45 73.6048 81.0833 73.3408 80.614C73.0842 80.1373 72.9558 79.5873 72.9558 78.964C72.9558 78.3407 73.0805 77.7943 73.3298 77.325C73.5865 76.8483 73.9422 76.4817 74.3968 76.225C74.8588 75.9683 75.3868 75.84 75.9808 75.84C76.5528 75.84 77.0625 75.9647 77.5098 76.214C77.9572 76.4633 78.3055 76.8153 78.5548 77.27C78.8042 77.7173 78.9288 78.2343 78.9288 78.821ZM77.6198 78.425C77.6125 77.963 77.4475 77.5927 77.1248 77.314C76.8022 77.0353 76.4025 76.896 75.9258 76.896C75.4932 76.896 75.1228 77.0353 74.8148 77.314C74.5068 77.5853 74.3235 77.9557 74.2648 78.425H77.6198ZM84.4833 76.962V80.317C84.4833 80.5443 84.5346 80.7093 84.6373 80.812C84.7473 80.9073 84.9306 80.955 85.1873 80.955H85.9573V82H84.9673C84.4026 82 83.97 81.868 83.6693 81.604C83.3686 81.34 83.2183 80.911 83.2183 80.317V76.962H82.5033V75.939H83.2183V74.432H84.4833V75.939H85.9573V76.962H84.4833ZM89.7421 82.099C89.1701 82.099 88.6531 81.9707 88.1911 81.714C87.7291 81.45 87.3661 81.0833 87.1021 80.614C86.8381 80.1373 86.7061 79.5873 86.7061 78.964C86.7061 78.348 86.8418 77.8017 87.1131 77.325C87.3844 76.8483 87.7548 76.4817 88.2241 76.225C88.6934 75.9683 89.2178 75.84 89.7971 75.84C90.3764 75.84 90.9008 75.9683 91.3701 76.225C91.8394 76.4817 92.2098 76.8483 92.4811 77.325C92.7524 77.8017 92.8881 78.348 92.8881 78.964C92.8881 79.58 92.7488 80.1263 92.4701 80.603C92.1914 81.0797 91.8101 81.45 91.3261 81.714C90.8494 81.9707 90.3214 82.099 89.7421 82.099ZM89.7421 81.01C90.0648 81.01 90.3654 80.933 90.6441 80.779C90.9301 80.625 91.1611 80.394 91.3371 80.086C91.5131 79.778 91.6011 79.404 91.6011 78.964C91.6011 78.524 91.5168 78.1537 91.3481 77.853C91.1794 77.545 90.9558 77.314 90.6771 77.16C90.3984 77.006 90.0978 76.929 89.7751 76.929C89.4524 76.929 89.1518 77.006 88.8731 77.16C88.6018 77.314 88.3854 77.545 88.2241 77.853C88.0628 78.1537 87.9821 78.524 87.9821 78.964C87.9821 79.6167 88.1471 80.1227 88.4771 80.482C88.8144 80.834 89.2361 81.01 89.7421 81.01ZM98.2392 76.83C98.4518 76.5513 98.7415 76.3167 99.1082 76.126C99.4748 75.9353 99.8892 75.84 100.351 75.84C100.879 75.84 101.359 75.972 101.792 76.236C102.232 76.4927 102.577 76.8557 102.826 77.325C103.075 77.7943 103.2 78.3333 103.2 78.942C103.2 79.5507 103.075 80.097 102.826 80.581C102.577 81.0577 102.232 81.4317 101.792 81.703C101.359 81.967 100.879 82.099 100.351 82.099C99.8892 82.099 99.4785 82.0073 99.1192 81.824C98.7598 81.6333 98.4665 81.3987 98.2392 81.12V84.882H96.9852V75.939H98.2392V76.83ZM101.924 78.942C101.924 78.524 101.836 78.1647 101.66 77.864C101.491 77.556 101.264 77.325 100.978 77.171C100.699 77.0097 100.399 76.929 100.076 76.929C99.7608 76.929 99.4602 77.0097 99.1742 77.171C98.8955 77.3323 98.6682 77.567 98.4922 77.875C98.3235 78.183 98.2392 78.546 98.2392 78.964C98.2392 79.382 98.3235 79.7487 98.4922 80.064C98.6682 80.372 98.8955 80.6067 99.1742 80.768C99.4602 80.9293 99.7608 81.01 100.076 81.01C100.399 81.01 100.699 80.9293 100.978 80.768C101.264 80.5993 101.491 80.3573 101.66 80.042C101.836 79.7267 101.924 79.36 101.924 78.942ZM104.022 78.942C104.022 78.3333 104.147 77.7943 104.396 77.325C104.653 76.8557 104.998 76.4927 105.43 76.236C105.87 75.972 106.354 75.84 106.882 75.84C107.359 75.84 107.773 75.9353 108.125 76.126C108.485 76.3093 108.771 76.5403 108.983 76.819V75.939H110.248V82H108.983V81.098C108.771 81.384 108.481 81.6223 108.114 81.813C107.748 82.0037 107.33 82.099 106.86 82.099C106.34 82.099 105.863 81.967 105.43 81.703C104.998 81.4317 104.653 81.0577 104.396 80.581C104.147 80.097 104.022 79.5507 104.022 78.942ZM108.983 78.964C108.983 78.546 108.895 78.183 108.719 77.875C108.551 77.567 108.327 77.3323 108.048 77.171C107.77 77.0097 107.469 76.929 107.146 76.929C106.824 76.929 106.523 77.0097 106.244 77.171C105.966 77.325 105.738 77.556 105.562 77.864C105.394 78.1647 105.309 78.524 105.309 78.942C105.309 79.36 105.394 79.7267 105.562 80.042C105.738 80.3573 105.966 80.5993 106.244 80.768C106.53 80.9293 106.831 81.01 107.146 81.01C107.469 81.01 107.77 80.9293 108.048 80.768C108.327 80.6067 108.551 80.372 108.719 80.064C108.895 79.7487 108.983 79.382 108.983 78.964ZM114.095 82.099C113.619 82.099 113.19 82.0147 112.808 81.846C112.434 81.67 112.137 81.4353 111.917 81.142C111.697 80.8413 111.58 80.5077 111.565 80.141H112.863C112.885 80.3977 113.006 80.614 113.226 80.79C113.454 80.9587 113.736 81.043 114.073 81.043C114.425 81.043 114.697 80.977 114.887 80.845C115.085 80.7057 115.184 80.5297 115.184 80.317C115.184 80.0897 115.074 79.921 114.854 79.811C114.642 79.701 114.301 79.58 113.831 79.448C113.377 79.3233 113.006 79.2023 112.72 79.085C112.434 78.9677 112.185 78.788 111.972 78.546C111.767 78.304 111.664 77.985 111.664 77.589C111.664 77.2663 111.76 76.973 111.95 76.709C112.141 76.4377 112.412 76.225 112.764 76.071C113.124 75.917 113.534 75.84 113.996 75.84C114.686 75.84 115.239 76.016 115.657 76.368C116.083 76.7127 116.31 77.1857 116.339 77.787H115.085C115.063 77.5157 114.953 77.2993 114.755 77.138C114.557 76.9767 114.29 76.896 113.952 76.896C113.622 76.896 113.369 76.9583 113.193 77.083C113.017 77.2077 112.929 77.3727 112.929 77.578C112.929 77.7393 112.988 77.875 113.105 77.985C113.223 78.095 113.366 78.183 113.534 78.249C113.703 78.3077 113.952 78.3847 114.282 78.48C114.722 78.5973 115.082 78.7183 115.36 78.843C115.646 78.9603 115.892 79.1363 116.097 79.371C116.303 79.6057 116.409 79.9173 116.416 80.306C116.416 80.6507 116.321 80.9587 116.13 81.23C115.94 81.5013 115.668 81.714 115.316 81.868C114.972 82.022 114.565 82.099 114.095 82.099ZM119.234 76.962V80.317C119.234 80.5443 119.286 80.7093 119.388 80.812C119.498 80.9073 119.682 80.955 119.938 80.955H120.708V82H119.718C119.154 82 118.721 81.868 118.42 81.604C118.12 81.34 117.969 80.911 117.969 80.317V76.962H117.254V75.939H117.969V74.432H119.234V75.939H120.708V76.962H119.234ZM127.419 78.821C127.419 79.0483 127.404 79.2537 127.375 79.437H122.744C122.781 79.921 122.96 80.3097 123.283 80.603C123.606 80.8963 124.002 81.043 124.471 81.043C125.146 81.043 125.622 80.7607 125.901 80.196H127.254C127.071 80.7533 126.737 81.2117 126.253 81.571C125.776 81.923 125.182 82.099 124.471 82.099C123.892 82.099 123.371 81.9707 122.909 81.714C122.454 81.45 122.095 81.0833 121.831 80.614C121.574 80.1373 121.446 79.5873 121.446 78.964C121.446 78.3407 121.571 77.7943 121.82 77.325C122.077 76.8483 122.432 76.4817 122.887 76.225C123.349 75.9683 123.877 75.84 124.471 75.84C125.043 75.84 125.553 75.9647 126 76.214C126.447 76.4633 126.796 76.8153 127.045 77.27C127.294 77.7173 127.419 78.2343 127.419 78.821ZM126.11 78.425C126.103 77.963 125.938 77.5927 125.615 77.314C125.292 77.0353 124.893 76.896 124.416 76.896C123.983 76.896 123.613 77.0353 123.305 77.314C122.997 77.5853 122.814 77.9557 122.755 78.425H126.11ZM132.974 76.962V80.317C132.974 80.5443 133.025 80.7093 133.128 80.812C133.238 80.9073 133.421 80.955 133.678 80.955H134.448V82H133.458C132.893 82 132.46 81.868 132.16 81.604C131.859 81.34 131.709 80.911 131.709 80.317V76.962H130.994V75.939H131.709V74.432H132.974V75.939H134.448V76.962H132.974ZM138.738 75.84C139.2 75.84 139.611 75.939 139.97 76.137C140.337 76.335 140.623 76.6283 140.828 77.017C141.041 77.4057 141.147 77.875 141.147 78.425V82H139.904V78.612C139.904 78.0693 139.769 77.655 139.497 77.369C139.226 77.0757 138.856 76.929 138.386 76.929C137.917 76.929 137.543 77.0757 137.264 77.369C136.993 77.655 136.857 78.0693 136.857 78.612V82H135.603V73.86H136.857V76.643C137.07 76.3863 137.338 76.1883 137.66 76.049C137.99 75.9097 138.35 75.84 138.738 75.84ZM148.302 78.821C148.302 79.0483 148.287 79.2537 148.258 79.437H143.627C143.664 79.921 143.843 80.3097 144.166 80.603C144.489 80.8963 144.885 81.043 145.354 81.043C146.029 81.043 146.505 80.7607 146.784 80.196H148.137C147.954 80.7533 147.62 81.2117 147.136 81.571C146.659 81.923 146.065 82.099 145.354 82.099C144.775 82.099 144.254 81.9707 143.792 81.714C143.337 81.45 142.978 81.0833 142.714 80.614C142.457 80.1373 142.329 79.5873 142.329 78.964C142.329 78.3407 142.454 77.7943 142.703 77.325C142.96 76.8483 143.315 76.4817 143.77 76.225C144.232 75.9683 144.76 75.84 145.354 75.84C145.926 75.84 146.436 75.9647 146.883 76.214C147.33 76.4633 147.679 76.8153 147.928 77.27C148.177 77.7173 148.302 78.2343 148.302 78.821ZM146.993 78.425C146.986 77.963 146.821 77.5927 146.498 77.314C146.175 77.0353 145.776 76.896 145.299 76.896C144.866 76.896 144.496 77.0353 144.188 77.314C143.88 77.5853 143.697 77.9557 143.638 78.425H146.993ZM154.934 76.962H153.812V82H152.547V76.962H151.832V75.939H152.547V75.51C152.547 74.8133 152.731 74.3073 153.097 73.992C153.471 73.6693 154.054 73.508 154.846 73.508V74.553C154.465 74.553 154.197 74.6263 154.043 74.773C153.889 74.9123 153.812 75.158 153.812 75.51V75.939H154.934V76.962ZM156.684 75.136C156.456 75.136 156.266 75.059 156.112 74.905C155.958 74.751 155.881 74.5603 155.881 74.333C155.881 74.1057 155.958 73.915 156.112 73.761C156.266 73.607 156.456 73.53 156.684 73.53C156.904 73.53 157.091 73.607 157.245 73.761C157.399 73.915 157.476 74.1057 157.476 74.333C157.476 74.5603 157.399 74.751 157.245 74.905C157.091 75.059 156.904 75.136 156.684 75.136ZM157.3 75.939V82H156.046V75.939H157.3ZM160.2 73.86V82H158.946V73.86H160.2ZM167.401 78.821C167.401 79.0483 167.387 79.2537 167.357 79.437H162.726C162.763 79.921 162.943 80.3097 163.265 80.603C163.588 80.8963 163.984 81.043 164.453 81.043C165.128 81.043 165.605 80.7607 165.883 80.196H167.236C167.053 80.7533 166.719 81.2117 166.235 81.571C165.759 81.923 165.165 82.099 164.453 82.099C163.874 82.099 163.353 81.9707 162.891 81.714C162.437 81.45 162.077 81.0833 161.813 80.614C161.557 80.1373 161.428 79.5873 161.428 78.964C161.428 78.3407 161.553 77.7943 161.802 77.325C162.059 76.8483 162.415 76.4817 162.869 76.225C163.331 75.9683 163.859 75.84 164.453 75.84C165.025 75.84 165.535 75.9647 165.982 76.214C166.43 76.4633 166.778 76.8153 167.027 77.27C167.277 77.7173 167.401 78.2343 167.401 78.821ZM166.092 78.425C166.085 77.963 165.92 77.5927 165.597 77.314C165.275 77.0353 164.875 76.896 164.398 76.896C163.966 76.896 163.595 77.0353 163.287 77.314C162.979 77.5853 162.796 77.9557 162.737 78.425H166.092ZM169.142 82.077C168.914 82.077 168.724 82 168.57 81.846C168.416 81.692 168.339 81.5013 168.339 81.274C168.339 81.0467 168.416 80.856 168.57 80.702C168.724 80.548 168.914 80.471 169.142 80.471C169.362 80.471 169.549 80.548 169.703 80.702C169.857 80.856 169.934 81.0467 169.934 81.274C169.934 81.5013 169.857 81.692 169.703 81.846C169.549 82 169.362 82.077 169.142 82.077ZM175.4 80.988H177.985V82H174.146V74.355H175.4V80.988ZM181.663 82.099C181.091 82.099 180.574 81.9707 180.112 81.714C179.65 81.45 179.287 81.0833 179.023 80.614C178.759 80.1373 178.627 79.5873 178.627 78.964C178.627 78.348 178.763 77.8017 179.034 77.325C179.305 76.8483 179.676 76.4817 180.145 76.225C180.614 75.9683 181.139 75.84 181.718 75.84C182.297 75.84 182.822 75.9683 183.291 76.225C183.76 76.4817 184.131 76.8483 184.402 77.325C184.673 77.8017 184.809 78.348 184.809 78.964C184.809 79.58 184.67 80.1263 184.391 80.603C184.112 81.0797 183.731 81.45 183.247 81.714C182.77 81.9707 182.242 82.099 181.663 82.099ZM181.663 81.01C181.986 81.01 182.286 80.933 182.565 80.779C182.851 80.625 183.082 80.394 183.258 80.086C183.434 79.778 183.522 79.404 183.522 78.964C183.522 78.524 183.438 78.1537 183.269 77.853C183.1 77.545 182.877 77.314 182.598 77.16C182.319 77.006 182.019 76.929 181.696 76.929C181.373 76.929 181.073 77.006 180.794 77.16C180.523 77.314 180.306 77.545 180.145 77.853C179.984 78.1537 179.903 78.524 179.903 78.964C179.903 79.6167 180.068 80.1227 180.398 80.482C180.735 80.834 181.157 81.01 181.663 81.01ZM185.631 78.964C185.631 78.3407 185.755 77.7943 186.005 77.325C186.261 76.8483 186.613 76.4817 187.061 76.225C187.508 75.9683 188.021 75.84 188.601 75.84C189.334 75.84 189.939 76.016 190.416 76.368C190.9 76.7127 191.226 77.2077 191.395 77.853H190.042C189.932 77.5523 189.756 77.3177 189.514 77.149C189.272 76.9803 188.967 76.896 188.601 76.896C188.087 76.896 187.677 77.0793 187.369 77.446C187.068 77.8053 186.918 78.3113 186.918 78.964C186.918 79.6167 187.068 80.1263 187.369 80.493C187.677 80.8597 188.087 81.043 188.601 81.043C189.327 81.043 189.807 80.724 190.042 80.086H191.395C191.219 80.702 190.889 81.1933 190.405 81.56C189.921 81.9193 189.319 82.099 188.601 82.099C188.021 82.099 187.508 81.9707 187.061 81.714C186.613 81.45 186.261 81.0833 186.005 80.614C185.755 80.1373 185.631 79.5873 185.631 78.964ZM192.226 78.942C192.226 78.3333 192.351 77.7943 192.6 77.325C192.857 76.8557 193.202 76.4927 193.634 76.236C194.074 75.972 194.558 75.84 195.086 75.84C195.563 75.84 195.977 75.9353 196.329 76.126C196.689 76.3093 196.975 76.5403 197.187 76.819V75.939H198.452V82H197.187V81.098C196.975 81.384 196.685 81.6223 196.318 81.813C195.952 82.0037 195.534 82.099 195.064 82.099C194.544 82.099 194.067 81.967 193.634 81.703C193.202 81.4317 192.857 81.0577 192.6 80.581C192.351 80.097 192.226 79.5507 192.226 78.942ZM197.187 78.964C197.187 78.546 197.099 78.183 196.923 77.875C196.755 77.567 196.531 77.3323 196.252 77.171C195.974 77.0097 195.673 76.929 195.35 76.929C195.028 76.929 194.727 77.0097 194.448 77.171C194.17 77.325 193.942 77.556 193.766 77.864C193.598 78.1647 193.513 78.524 193.513 78.942C193.513 79.36 193.598 79.7267 193.766 80.042C193.942 80.3573 194.17 80.5993 194.448 80.768C194.734 80.9293 195.035 81.01 195.35 81.01C195.673 81.01 195.974 80.9293 196.252 80.768C196.531 80.6067 196.755 80.372 196.923 80.064C197.099 79.7487 197.187 79.382 197.187 78.964ZM201.353 73.86V82H200.099V73.86H201.353ZM40.407 94.942C40.407 94.3333 40.5317 93.7943 40.781 93.325C41.0377 92.8557 41.3823 92.4927 41.815 92.236C42.255 91.972 42.7427 91.84 43.278 91.84C43.674 91.84 44.0627 91.928 44.444 92.104C44.8327 92.2727 45.1407 92.5 45.368 92.786V89.86H46.633V98H45.368V97.087C45.1627 97.3803 44.8767 97.6223 44.51 97.813C44.1507 98.0037 43.7363 98.099 43.267 98.099C42.739 98.099 42.255 97.967 41.815 97.703C41.3823 97.4317 41.0377 97.0577 40.781 96.581C40.5317 96.097 40.407 95.5507 40.407 94.942ZM45.368 94.964C45.368 94.546 45.28 94.183 45.104 93.875C44.9353 93.567 44.7117 93.3323 44.433 93.171C44.1543 93.0097 43.8537 92.929 43.531 92.929C43.2083 92.929 42.9077 93.0097 42.629 93.171C42.3503 93.325 42.123 93.556 41.947 93.864C41.7783 94.1647 41.694 94.524 41.694 94.942C41.694 95.36 41.7783 95.7267 41.947 96.042C42.123 96.3573 42.3503 96.5993 42.629 96.768C42.915 96.9293 43.2157 97.01 43.531 97.01C43.8537 97.01 44.1543 96.9293 44.433 96.768C44.7117 96.6067 44.9353 96.372 45.104 96.064C45.28 95.7487 45.368 95.382 45.368 94.964ZM48.9181 91.136C48.6907 91.136 48.5001 91.059 48.3461 90.905C48.1921 90.751 48.1151 90.5603 48.1151 90.333C48.1151 90.1057 48.1921 89.915 48.3461 89.761C48.5001 89.607 48.6907 89.53 48.9181 89.53C49.1381 89.53 49.3251 89.607 49.4791 89.761C49.6331 89.915 49.7101 90.1057 49.7101 90.333C49.7101 90.5603 49.6331 90.751 49.4791 90.905C49.3251 91.059 49.1381 91.136 48.9181 91.136ZM49.5341 91.939V98H48.2801V91.939H49.5341ZM53.3805 98.099C52.9038 98.099 52.4748 98.0147 52.0935 97.846C51.7195 97.67 51.4225 97.4353 51.2025 97.142C50.9825 96.8413 50.8651 96.5077 50.8505 96.141H52.1485C52.1705 96.3977 52.2915 96.614 52.5115 96.79C52.7388 96.9587 53.0211 97.043 53.3585 97.043C53.7105 97.043 53.9818 96.977 54.1725 96.845C54.3705 96.7057 54.4695 96.5297 54.4695 96.317C54.4695 96.0897 54.3595 95.921 54.1395 95.811C53.9268 95.701 53.5858 95.58 53.1165 95.448C52.6618 95.3233 52.2915 95.2023 52.0055 95.085C51.7195 94.9677 51.4701 94.788 51.2575 94.546C51.0521 94.304 50.9495 93.985 50.9495 93.589C50.9495 93.2663 51.0448 92.973 51.2355 92.709C51.4261 92.4377 51.6975 92.225 52.0495 92.071C52.4088 91.917 52.8195 91.84 53.2815 91.84C53.9708 91.84 54.5245 92.016 54.9425 92.368C55.3678 92.7127 55.5951 93.1857 55.6245 93.787H54.3705C54.3485 93.5157 54.2385 93.2993 54.0405 93.138C53.8425 92.9767 53.5748 92.896 53.2375 92.896C52.9075 92.896 52.6545 92.9583 52.4785 93.083C52.3025 93.2077 52.2145 93.3727 52.2145 93.578C52.2145 93.7393 52.2731 93.875 52.3905 93.985C52.5078 94.095 52.6508 94.183 52.8195 94.249C52.9881 94.3077 53.2375 94.3847 53.5675 94.48C54.0075 94.5973 54.3668 94.7183 54.6455 94.843C54.9315 94.9603 55.1771 95.1363 55.3825 95.371C55.5878 95.6057 55.6941 95.9173 55.7015 96.306C55.7015 96.6507 55.6061 96.9587 55.4155 97.23C55.2248 97.5013 54.9535 97.714 54.6015 97.868C54.2568 98.022 53.8498 98.099 53.3805 98.099ZM59.4544 94.975L62.2484 98H60.5544L58.3104 95.393V98H57.0564V89.86H58.3104V94.59L60.5104 91.939H62.2484L59.4544 94.975ZM66.6427 91.136C66.4154 91.136 66.2247 91.059 66.0707 90.905C65.9167 90.751 65.8397 90.5603 65.8397 90.333C65.8397 90.1057 65.9167 89.915 66.0707 89.761C66.2247 89.607 66.4154 89.53 66.6427 89.53C66.8627 89.53 67.0497 89.607 67.2037 89.761C67.3577 89.915 67.4347 90.1057 67.4347 90.333C67.4347 90.5603 67.3577 90.751 67.2037 90.905C67.0497 91.059 66.8627 91.136 66.6427 91.136ZM67.2587 91.939V98H66.0047V91.939H67.2587ZM71.1051 98.099C70.6284 98.099 70.1994 98.0147 69.8181 97.846C69.4441 97.67 69.1471 97.4353 68.9271 97.142C68.7071 96.8413 68.5897 96.5077 68.5751 96.141H69.8731C69.8951 96.3977 70.0161 96.614 70.2361 96.79C70.4634 96.9587 70.7457 97.043 71.0831 97.043C71.4351 97.043 71.7064 96.977 71.8971 96.845C72.0951 96.7057 72.1941 96.5297 72.1941 96.317C72.1941 96.0897 72.0841 95.921 71.8641 95.811C71.6514 95.701 71.3104 95.58 70.8411 95.448C70.3864 95.3233 70.0161 95.2023 69.7301 95.085C69.4441 94.9677 69.1947 94.788 68.9821 94.546C68.7767 94.304 68.6741 93.985 68.6741 93.589C68.6741 93.2663 68.7694 92.973 68.9601 92.709C69.1507 92.4377 69.4221 92.225 69.7741 92.071C70.1334 91.917 70.5441 91.84 71.0061 91.84C71.6954 91.84 72.2491 92.016 72.6671 92.368C73.0924 92.7127 73.3197 93.1857 73.3491 93.787H72.0951C72.0731 93.5157 71.9631 93.2993 71.7651 93.138C71.5671 92.9767 71.2994 92.896 70.9621 92.896C70.6321 92.896 70.3791 92.9583 70.2031 93.083C70.0271 93.2077 69.9391 93.3727 69.9391 93.578C69.9391 93.7393 69.9977 93.875 70.1151 93.985C70.2324 94.095 70.3754 94.183 70.5441 94.249C70.7127 94.3077 70.9621 94.3847 71.2921 94.48C71.7321 94.5973 72.0914 94.7183 72.3701 94.843C72.6561 94.9603 72.9017 95.1363 73.1071 95.371C73.3124 95.6057 73.4187 95.9173 73.4261 96.306C73.4261 96.6507 73.3307 96.9587 73.1401 97.23C72.9494 97.5013 72.6781 97.714 72.3261 97.868C71.9814 98.022 71.5744 98.099 71.1051 98.099ZM80.1795 92.962H79.0575V98H77.7925V92.962H77.0775V91.939H77.7925V91.51C77.7925 90.8133 77.9758 90.3073 78.3425 89.992C78.7165 89.6693 79.2995 89.508 80.0915 89.508V90.553C79.7101 90.553 79.4425 90.6263 79.2885 90.773C79.1345 90.9123 79.0575 91.158 79.0575 91.51V91.939H80.1795V92.962ZM86.7798 91.939V98H85.5258V97.285C85.3278 97.5343 85.0675 97.7323 84.7448 97.879C84.4295 98.0183 84.0922 98.088 83.7328 98.088C83.2562 98.088 82.8272 97.989 82.4458 97.791C82.0718 97.593 81.7748 97.2997 81.5548 96.911C81.3422 96.5223 81.2358 96.053 81.2358 95.503V91.939H82.4788V95.316C82.4788 95.8587 82.6145 96.2767 82.8858 96.57C83.1572 96.856 83.5275 96.999 83.9968 96.999C84.4662 96.999 84.8365 96.856 85.1078 96.57C85.3865 96.2767 85.5258 95.8587 85.5258 95.316V91.939H86.7798ZM89.6884 89.86V98H88.4344V89.86H89.6884ZM92.5888 89.86V98H91.3348V89.86H92.5888ZM94.7412 98.077C94.5138 98.077 94.3232 98 94.1692 97.846C94.0152 97.692 93.9382 97.5013 93.9382 97.274C93.9382 97.0467 94.0152 96.856 94.1692 96.702C94.3232 96.548 94.5138 96.471 94.7412 96.471C94.9612 96.471 95.1482 96.548 95.3022 96.702C95.4562 96.856 95.5332 97.0467 95.5332 97.274C95.5332 97.5013 95.4562 97.692 95.3022 97.846C95.1482 98 94.9612 98.077 94.7412 98.077Z"></path>
<path stroke-linejoin="round" stroke-linecap="round" stroke-width="1.5" stroke="#BFBFBF" d="M211.464 41.4645L218.536 48.5356M218.536 41.4645L211.464 48.5356"></path>
<rect fill="url(#paint0_linear_964_152)" rx="1.2" height="11.4" width="14.4" y="40.2" x="37.7998"></rect>
<path fill="url(#paint1_linear_964_152)" d="M37.7998 39.5999C37.7998 38.9372 38.3371 38.3999 38.9998 38.3999H43.1576C43.5588 38.3999 43.9335 38.6004 44.156 38.9343L44.9998 40.1999L44.156 41.4655C43.9335 41.7994 43.5588 41.9999 43.1576 41.9999H37.7998V39.5999Z"></path>
<path fill="url(#paint2_linear_964_152)" d="M40.2002 49.8C40.2002 48.8059 41.0061 48 42.0002 48H48.0002C48.9943 48 49.8002 48.8059 49.8002 49.8V51.6H40.2002V49.8Z"></path>
<rect fill="#0C6BB5" rx="0.6" height="1.2" width="4.8" y="49.2" x="42.6001"></rect>
<defs>
<linearGradient gradientUnits="userSpaceOnUse" y2="40.2" x2="47.3998" y1="51.6" x1="47.3998" id="paint0_linear_964_152">
<stop stop-color="#F7B70A"></stop>
<stop stop-color="#FFD04B" offset="1"></stop>
</linearGradient>
<linearGradient gradientUnits="userSpaceOnUse" y2="41.9999" x2="41.3998" y1="38.3999" x1="41.3998" id="paint1_linear_964_152">
<stop stop-color="#E09F00"></stop>
<stop stop-color="#BA8400" offset="1"></stop>
</linearGradient>
<linearGradient gradientUnits="userSpaceOnUse" y2="50.25" x2="40.2002" y1="50.25" x1="49.8002" id="paint2_linear_964_152">
<stop stop-color="#046CBD"></stop>
<stop stop-color="#108AD7" offset="1"></stop>
</linearGradient>
</defs>
</svg>
