<svg xmlns="http://www.w3.org/2000/svg" fill="none" viewBox="0 0 480 360" height="360" width="480">
<path fill-opacity="0.9" fill="#E6E6E6" d="M10 180C10 174.477 14.4772 170 20 170H460C465.523 170 470 174.477 470 180V340C470 345.523 465.523 350 460 350H20C14.4772 350 10 345.523 10 340V180Z"></path>
<path stroke-width="2" stroke-opacity="0.2" stroke="black" d="M20 169C13.9249 169 9 173.925 9 180V340C9 346.075 13.9249 351 20 351H460C466.075 351 471 346.075 471 340V180C471 173.925 466.075 169 460 169H20Z"></path>
<rect fill-opacity="0.05" fill="black" rx="5" height="36" width="36" y="182" x="22"></rect>
<path fill="black" d="M42.3453 205.476L41.0733 203.952C40.7213 204.04 40.3613 204.084 39.9933 204.084C39.2093 204.084 38.4893 203.9 37.8333 203.532C37.1773 203.164 36.6573 202.656 36.2733 202.008C35.8893 201.352 35.6973 200.612 35.6973 199.788C35.6973 198.972 35.8893 198.24 36.2733 197.592C36.6573 196.936 37.1773 196.424 37.8333 196.056C38.4893 195.688 39.2093 195.504 39.9933 195.504C40.7853 195.504 41.5053 195.688 42.1533 196.056C42.8093 196.424 43.3253 196.936 43.7013 197.592C44.0853 198.24 44.2773 198.972 44.2773 199.788C44.2773 200.532 44.1173 201.212 43.7973 201.828C43.4853 202.436 43.0573 202.932 42.5133 203.316L44.4333 205.476H42.3453ZM37.4253 199.788C37.4253 200.348 37.5333 200.84 37.7493 201.264C37.9653 201.688 38.2653 202.016 38.6493 202.248C39.0413 202.472 39.4893 202.584 39.9933 202.584C40.4973 202.584 40.9413 202.472 41.3253 202.248C41.7093 202.016 42.0093 201.688 42.2253 201.264C42.4413 200.84 42.5493 200.348 42.5493 199.788C42.5493 199.228 42.4413 198.74 42.2253 198.324C42.0093 197.9 41.7093 197.576 41.3253 197.352C40.9413 197.128 40.4973 197.016 39.9933 197.016C39.4893 197.016 39.0413 197.128 38.6493 197.352C38.2653 197.576 37.9653 197.9 37.7493 198.324C37.5333 198.74 37.4253 199.228 37.4253 199.788Z"></path>
<rect fill-opacity="0.05" fill="black" rx="5" height="36" width="36" y="182" x="62"></rect>
<path fill="black" d="M85.8775 195.624L83.5375 204H81.5575L79.9855 198.036L78.3415 204L76.3735 204.012L74.1175 195.624H75.9175L77.3935 202.128L79.0975 195.624H80.9695L82.5775 202.092L84.0655 195.624H85.8775Z"></path>
<rect fill-opacity="0.05" fill="black" rx="5" height="36" width="36" y="182" x="102"></rect>
<path fill="black" d="M119.315 196.98V199.08H122.135V200.412H119.315V202.632H122.495V204H117.635V195.612H122.495V196.98H119.315Z"></path>
<rect fill-opacity="0.05" fill="black" rx="5" height="36" width="36" y="182" x="142"></rect>
<path fill="black" d="M161.304 204L159.456 200.736H158.664V204H156.984V195.624H160.128C160.776 195.624 161.328 195.74 161.784 195.972C162.24 196.196 162.58 196.504 162.804 196.896C163.036 197.28 163.152 197.712 163.152 198.192C163.152 198.744 162.992 199.244 162.672 199.692C162.352 200.132 161.876 200.436 161.244 200.604L163.248 204H161.304ZM158.664 199.476H160.068C160.524 199.476 160.864 199.368 161.088 199.152C161.312 198.928 161.424 198.62 161.424 198.228C161.424 197.844 161.312 197.548 161.088 197.34C160.864 197.124 160.524 197.016 160.068 197.016H158.664V199.476Z"></path>
<rect fill-opacity="0.05" fill="black" rx="5" height="36" width="36" y="182" x="182"></rect>
<path fill="black" d="M203.065 195.624V196.98H200.833V204H199.153V196.98H196.921V195.624H203.065Z"></path>
<rect fill-opacity="0.05" fill="black" rx="5" height="36" width="36" y="182" x="222"></rect>
<path fill="black" d="M243.674 195.624L240.842 201.084V204H239.162V201.084L236.318 195.624H238.214L240.014 199.452L241.802 195.624H243.674Z"></path>
<rect fill-opacity="0.05" fill="black" rx="5" height="36" width="36" y="182" x="262"></rect>
<path fill="black" d="M278.3 195.624V200.808C278.3 201.376 278.448 201.812 278.744 202.116C279.04 202.412 279.456 202.56 279.992 202.56C280.536 202.56 280.956 202.412 281.252 202.116C281.548 201.812 281.696 201.376 281.696 200.808V195.624H283.388V200.796C283.388 201.508 283.232 202.112 282.92 202.608C282.616 203.096 282.204 203.464 281.684 203.712C281.172 203.96 280.6 204.084 279.968 204.084C279.344 204.084 278.776 203.96 278.264 203.712C277.76 203.464 277.36 203.096 277.064 202.608C276.768 202.112 276.62 201.508 276.62 200.796V195.624H278.3Z"></path>
<rect fill-opacity="0.05" fill="black" rx="5" height="36" width="36" y="182" x="302"></rect>
<path fill="black" d="M320.838 195.624V204H319.158V195.624H320.838Z"></path>
<rect fill-opacity="0.05" fill="black" rx="5" height="36" width="36" y="182" x="342"></rect>
<path fill="black" d="M360.005 204.084C359.221 204.084 358.501 203.9 357.845 203.532C357.189 203.164 356.669 202.656 356.285 202.008C355.901 201.352 355.709 200.612 355.709 199.788C355.709 198.972 355.901 198.24 356.285 197.592C356.669 196.936 357.189 196.424 357.845 196.056C358.501 195.688 359.221 195.504 360.005 195.504C360.797 195.504 361.517 195.688 362.165 196.056C362.821 196.424 363.337 196.936 363.713 197.592C364.097 198.24 364.289 198.972 364.289 199.788C364.289 200.612 364.097 201.352 363.713 202.008C363.337 202.656 362.821 203.164 362.165 203.532C361.509 203.9 360.789 204.084 360.005 204.084ZM360.005 202.584C360.509 202.584 360.953 202.472 361.337 202.248C361.721 202.016 362.021 201.688 362.237 201.264C362.453 200.84 362.561 200.348 362.561 199.788C362.561 199.228 362.453 198.74 362.237 198.324C362.021 197.9 361.721 197.576 361.337 197.352C360.953 197.128 360.509 197.016 360.005 197.016C359.501 197.016 359.053 197.128 358.661 197.352C358.277 197.576 357.977 197.9 357.761 198.324C357.545 198.74 357.437 199.228 357.437 199.788C357.437 200.348 357.545 200.84 357.761 201.264C357.977 201.688 358.277 202.016 358.661 202.248C359.053 202.472 359.501 202.584 360.005 202.584Z"></path>
<rect fill-opacity="0.05" fill="black" rx="5" height="36" width="36" y="182" x="382"></rect>
<path fill="black" d="M403.286 198.216C403.286 198.664 403.178 199.084 402.962 199.476C402.754 199.868 402.422 200.184 401.966 200.424C401.518 200.664 400.95 200.784 400.262 200.784H398.858V204H397.178V195.624H400.262C400.91 195.624 401.462 195.736 401.918 195.96C402.374 196.184 402.714 196.492 402.938 196.884C403.17 197.276 403.286 197.72 403.286 198.216ZM400.19 199.428C400.654 199.428 400.998 199.324 401.222 199.116C401.446 198.9 401.558 198.6 401.558 198.216C401.558 197.4 401.102 196.992 400.19 196.992H398.858V199.428H400.19Z"></path>
<rect fill-opacity="0.05" fill="black" rx="5" height="36" width="36" y="222" x="22"></rect>
<path fill="black" d="M41.6691 242.404H38.3331L37.7811 244H36.0171L39.0291 235.612H40.9851L43.9971 244H42.2211L41.6691 242.404ZM41.2131 241.06L40.0011 237.556L38.7891 241.06H41.2131Z"></path>
<rect fill-opacity="0.05" fill="black" rx="5" height="36" width="36" y="222" x="62"></rect>
<path fill="black" d="M80.0638 244.084C79.4798 244.084 78.9518 243.984 78.4798 243.784C78.0158 243.584 77.6478 243.296 77.3758 242.92C77.1038 242.544 76.9638 242.1 76.9558 241.588H78.7558C78.7798 241.932 78.8998 242.204 79.1158 242.404C79.3398 242.604 79.6438 242.704 80.0278 242.704C80.4198 242.704 80.7278 242.612 80.9518 242.428C81.1758 242.236 81.2878 241.988 81.2878 241.684C81.2878 241.436 81.2118 241.232 81.0598 241.072C80.9078 240.912 80.7158 240.788 80.4838 240.7C80.2598 240.604 79.9478 240.5 79.5478 240.388C79.0038 240.228 78.5598 240.072 78.2158 239.92C77.8798 239.76 77.5878 239.524 77.3398 239.212C77.0998 238.892 76.9798 238.468 76.9798 237.94C76.9798 237.444 77.1038 237.012 77.3518 236.644C77.5998 236.276 77.9478 235.996 78.3958 235.804C78.8438 235.604 79.3558 235.504 79.9318 235.504C80.7958 235.504 81.4958 235.716 82.0318 236.14C82.5758 236.556 82.8758 237.14 82.9318 237.892H81.0838C81.0678 237.604 80.9438 237.368 80.7118 237.184C80.4878 236.992 80.1878 236.896 79.8118 236.896C79.4838 236.896 79.2198 236.98 79.0198 237.148C78.8278 237.316 78.7318 237.56 78.7318 237.88C78.7318 238.104 78.8038 238.292 78.9478 238.444C79.0998 238.588 79.2838 238.708 79.4998 238.804C79.7238 238.892 80.0358 238.996 80.4358 239.116C80.9798 239.276 81.4238 239.436 81.7678 239.596C82.1118 239.756 82.4078 239.996 82.6558 240.316C82.9038 240.636 83.0278 241.056 83.0278 241.576C83.0278 242.024 82.9118 242.44 82.6797 242.824C82.4478 243.208 82.1078 243.516 81.6598 243.748C81.2118 243.972 80.6798 244.084 80.0638 244.084Z"></path>
<rect fill-opacity="0.05" fill="black" rx="5" height="36" width="36" y="222" x="102"></rect>
<path fill="black" d="M119.455 235.624C120.335 235.624 121.107 235.796 121.771 236.14C122.443 236.484 122.959 236.976 123.319 237.616C123.687 238.248 123.871 238.984 123.871 239.824C123.871 240.664 123.687 241.4 123.319 242.032C122.959 242.656 122.443 243.14 121.771 243.484C121.107 243.828 120.335 244 119.455 244H116.527V235.624H119.455ZM119.395 242.572C120.275 242.572 120.955 242.332 121.435 241.852C121.915 241.372 122.155 240.696 122.155 239.824C122.155 238.952 121.915 238.272 121.435 237.784C120.955 237.288 120.275 237.04 119.395 237.04H118.207V242.572H119.395Z"></path>
<rect fill-opacity="0.05" fill="black" rx="5" height="36" width="36" y="222" x="142"></rect>
<path fill="black" d="M162.818 235.624V236.98H159.326V239.128H162.002V240.46H159.326V244H157.646V235.624H162.818Z"></path>
<rect fill-opacity="0.05" fill="black" rx="5" height="36" width="36" y="222" x="182"></rect>
<path fill="black" d="M202.055 238.144C201.863 237.792 201.599 237.524 201.263 237.34C200.927 237.156 200.535 237.064 200.087 237.064C199.591 237.064 199.151 237.176 198.767 237.4C198.383 237.624 198.083 237.944 197.867 238.36C197.651 238.776 197.543 239.256 197.543 239.8C197.543 240.36 197.651 240.848 197.867 241.264C198.091 241.68 198.399 242 198.791 242.224C199.183 242.448 199.639 242.56 200.159 242.56C200.799 242.56 201.323 242.392 201.731 242.056C202.139 241.712 202.407 241.236 202.535 240.628H199.655V239.344H204.191V240.808C204.079 241.392 203.839 241.932 203.471 242.428C203.103 242.924 202.627 243.324 202.043 243.628C201.467 243.924 200.819 244.072 200.099 244.072C199.291 244.072 198.559 243.892 197.903 243.532C197.255 243.164 196.743 242.656 196.367 242.008C195.999 241.36 195.815 240.624 195.815 239.8C195.815 238.976 195.999 238.24 196.367 237.592C196.743 236.936 197.255 236.428 197.903 236.068C198.559 235.7 199.287 235.516 200.087 235.516C201.031 235.516 201.851 235.748 202.547 236.212C203.243 236.668 203.723 237.312 203.987 238.144H202.055Z"></path>
<rect fill-opacity="0.05" fill="black" rx="5" height="36" width="36" y="222" x="222"></rect>
<path fill="black" d="M243.475 235.624V244H241.795V240.436H238.207V244H236.527V235.624H238.207V239.068H241.795V235.624H243.475Z"></path>
<rect fill-opacity="0.05" fill="black" rx="5" height="36" width="36" y="222" x="262"></rect>
<path fill="black" d="M282.29 235.624V241.504C282.29 242.32 282.054 242.956 281.582 243.412C281.11 243.86 280.478 244.084 279.686 244.084C278.886 244.084 278.238 243.852 277.742 243.388C277.254 242.924 277.01 242.276 277.01 241.444H278.69C278.698 241.804 278.782 242.084 278.942 242.284C279.11 242.484 279.35 242.584 279.662 242.584C279.966 242.584 280.198 242.488 280.358 242.296C280.518 242.104 280.598 241.84 280.598 241.504V235.624H282.29Z"></path>
<rect fill-opacity="0.05" fill="black" rx="5" height="36" width="36" y="222" x="302"></rect>
<path fill="black" d="M321.577 244L318.529 240.268V244H316.849V235.624H318.529V239.38L321.577 235.624H323.605L320.149 239.776L323.701 244H321.577Z"></path>
<rect fill-opacity="0.05" fill="black" rx="5" height="36" width="36" y="222" x="342"></rect>
<path fill="black" d="M359.754 242.668H362.514V244H358.074V235.624H359.754V242.668Z"></path>
<rect fill-opacity="0.05" fill="black" rx="5" height="36" width="36" y="262" x="62"></rect>
<path fill="black" d="M79.087 282.584H82.855V284H77.143V282.704L80.887 277.04H77.143V275.624H82.855V276.92L79.087 282.584Z"></path>
<rect fill-opacity="0.05" fill="black" rx="5" height="36" width="36" y="262" x="102"></rect>
<path fill="black" d="M121.731 284L119.919 281.18L118.275 284H116.379L119.019 279.776L116.343 275.624H118.275L120.087 278.432L121.719 275.624H123.615L120.987 279.836L123.663 284H121.731Z"></path>
<rect fill-opacity="0.05" fill="black" rx="5" height="36" width="36" y="262" x="142"></rect>
<path fill="black" d="M155.815 279.8C155.815 278.976 155.999 278.24 156.367 277.592C156.743 276.936 157.251 276.428 157.891 276.068C158.539 275.7 159.263 275.516 160.063 275.516C160.999 275.516 161.819 275.756 162.523 276.236C163.227 276.716 163.719 277.38 163.999 278.228H162.067C161.875 277.828 161.603 277.528 161.251 277.328C160.907 277.128 160.507 277.028 160.051 277.028C159.563 277.028 159.127 277.144 158.743 277.376C158.367 277.6 158.071 277.92 157.855 278.336C157.647 278.752 157.543 279.24 157.543 279.8C157.543 280.352 157.647 280.84 157.855 281.264C158.071 281.68 158.367 282.004 158.743 282.236C159.127 282.46 159.563 282.572 160.051 282.572C160.507 282.572 160.907 282.472 161.251 282.272C161.603 282.064 161.875 281.76 162.067 281.36H163.999C163.719 282.216 163.227 282.884 162.523 283.364C161.827 283.836 161.007 284.072 160.063 284.072C159.263 284.072 158.539 283.892 157.891 283.532C157.251 283.164 156.743 282.656 156.367 282.008C155.999 281.36 155.815 280.624 155.815 279.8Z"></path>
<rect fill-opacity="0.05" fill="black" rx="5" height="36" width="36" y="262" x="182"></rect>
<path fill="black" d="M204.086 275.624L201.014 284H198.974L195.902 275.624H197.702L200.006 282.284L202.298 275.624H204.086Z"></path>
<rect fill-opacity="0.05" fill="black" rx="5" height="36" width="36" y="262" x="222"></rect>
<path fill="black" d="M241.725 279.704C242.197 279.792 242.585 280.028 242.889 280.412C243.193 280.796 243.345 281.236 243.345 281.732C243.345 282.18 243.233 282.576 243.009 282.92C242.793 283.256 242.477 283.52 242.061 283.712C241.645 283.904 241.153 284 240.585 284H236.973V275.624H240.429C240.997 275.624 241.485 275.716 241.893 275.9C242.309 276.084 242.621 276.34 242.829 276.668C243.045 276.996 243.153 277.368 243.153 277.784C243.153 278.272 243.021 278.68 242.757 279.008C242.501 279.336 242.157 279.568 241.725 279.704ZM238.653 279.08H240.189C240.589 279.08 240.897 278.992 241.113 278.816C241.329 278.632 241.437 278.372 241.437 278.036C241.437 277.7 241.329 277.44 241.113 277.256C240.897 277.072 240.589 276.98 240.189 276.98H238.653V279.08ZM240.345 282.632C240.753 282.632 241.069 282.536 241.293 282.344C241.525 282.152 241.641 281.88 241.641 281.528C241.641 281.168 241.521 280.888 241.281 280.688C241.041 280.48 240.717 280.376 240.309 280.376H238.653V282.632H240.345Z"></path>
<rect fill-opacity="0.05" fill="black" rx="5" height="36" width="36" y="262" x="262"></rect>
<path fill="black" d="M283.58 284H281.9L278.096 278.252V284H276.416V275.612H278.096L281.9 281.372V275.612H283.58V284Z"></path>
<rect fill-opacity="0.05" fill="black" rx="5" height="36" width="36" y="262" x="302"></rect>
<path fill="black" d="M324.564 275.624V284H322.884V278.552L320.64 284H319.368L317.112 278.552V284H315.432V275.624H317.34L320.004 281.852L322.668 275.624H324.564Z"></path>
<rect fill-opacity="0.05" fill="black" rx="5" height="36" width="36" y="262" x="342"></rect>
<path fill="black" d="M362.442 279.008V280.424H357.354V279.008H362.442Z"></path>
<rect fill-opacity="0.05" fill="black" rx="5" height="36" width="36" y="262" x="382"></rect>
<path fill="black" d="M403.588 284.48V286.076H396.544V284.48H403.588Z"></path>
<rect fill-opacity="0.03" fill="black" rx="5" height="36" width="36" y="182" x="422"></rect>
<path stroke-width="1.5" stroke="black" d="M436.945 195.116C437.179 194.882 437.497 194.75 437.828 194.75H446C446.69 194.75 447.25 195.31 447.25 196V204C447.25 204.69 446.69 205.25 446 205.25H437.828C437.497 205.25 437.179 205.118 436.945 204.884L432.945 200.884C432.456 200.396 432.456 199.604 432.945 199.116L436.945 195.116Z"></path>
<path stroke-linecap="round" stroke-width="1.5" stroke="black" d="M444 202L442 200M440 198L442 200M442 200L444 198M442 200L440 202"></path>
<rect fill-opacity="0.03" fill="black" rx="5" height="36" width="116" y="302" x="22"></rect>
<path fill="black" d="M71.2211 316.8V315.252H74.1131V324H72.3851V316.8H71.2211ZM76.3007 322.104C77.0687 321.464 77.6807 320.932 78.1367 320.508C78.5927 320.076 78.9727 319.628 79.2767 319.164C79.5807 318.7 79.7327 318.244 79.7327 317.796C79.7327 317.388 79.6367 317.068 79.4447 316.836C79.2527 316.604 78.9567 316.488 78.5567 316.488C78.1567 316.488 77.8487 316.624 77.6327 316.896C77.4167 317.16 77.3047 317.524 77.2967 317.988H75.6647C75.6967 317.028 75.9807 316.3 76.5167 315.804C77.0607 315.308 77.7487 315.06 78.5807 315.06C79.4927 315.06 80.1927 315.304 80.6807 315.792C81.1687 316.272 81.4127 316.908 81.4127 317.7C81.4127 318.324 81.2447 318.92 80.9087 319.488C80.5727 320.056 80.1887 320.552 79.7567 320.976C79.3247 321.392 78.7607 321.896 78.0647 322.488H81.6047V323.88H75.6767V322.632L76.3007 322.104ZM82.6873 317.556C82.7273 316.756 83.0073 316.14 83.5273 315.708C84.0553 315.268 84.7473 315.048 85.6033 315.048C86.1873 315.048 86.6873 315.152 87.1033 315.36C87.5193 315.56 87.8313 315.836 88.0393 316.188C88.2553 316.532 88.3633 316.924 88.3633 317.364C88.3633 317.868 88.2313 318.296 87.9673 318.648C87.7113 318.992 87.4033 319.224 87.0433 319.344V319.392C87.5073 319.536 87.8673 319.792 88.1233 320.16C88.3873 320.528 88.5193 321 88.5193 321.576C88.5193 322.056 88.4073 322.484 88.1833 322.86C87.9673 323.236 87.6433 323.532 87.2113 323.748C86.7873 323.956 86.2753 324.06 85.6753 324.06C84.7713 324.06 84.0353 323.832 83.4673 323.376C82.8993 322.92 82.5993 322.248 82.5673 321.36H84.1993C84.2153 321.752 84.3473 322.068 84.5953 322.308C84.8513 322.54 85.1993 322.656 85.6393 322.656C86.0473 322.656 86.3593 322.544 86.5753 322.32C86.7993 322.088 86.9113 321.792 86.9113 321.432C86.9113 320.952 86.7593 320.608 86.4553 320.4C86.1513 320.192 85.6793 320.088 85.0393 320.088H84.6913V318.708H85.0393C86.1753 318.708 86.7433 318.328 86.7433 317.568C86.7433 317.224 86.6393 316.956 86.4313 316.764C86.2313 316.572 85.9393 316.476 85.5553 316.476C85.1793 316.476 84.8873 316.58 84.6793 316.788C84.4793 316.988 84.3633 317.244 84.3313 317.556H82.6873Z"></path>
<rect fill-opacity="0.03" fill="black" rx="5" height="36" width="116" y="302" x="342"></rect>
<path stroke-linecap="round" stroke-width="1.5" stroke="black" d="M381 323L378 320M375 317L378 320M378 320L381 317M378 320L375 323"></path>
<path fill="black" d="M390.346 319.8C390.346 318.976 390.53 318.24 390.898 317.592C391.274 316.936 391.782 316.428 392.422 316.068C393.07 315.7 393.794 315.516 394.594 315.516C395.53 315.516 396.35 315.756 397.054 316.236C397.758 316.716 398.25 317.38 398.53 318.228H396.598C396.406 317.828 396.134 317.528 395.782 317.328C395.438 317.128 395.038 317.028 394.582 317.028C394.094 317.028 393.658 317.144 393.274 317.376C392.898 317.6 392.602 317.92 392.386 318.336C392.178 318.752 392.074 319.24 392.074 319.8C392.074 320.352 392.178 320.84 392.386 321.264C392.602 321.68 392.898 322.004 393.274 322.236C393.658 322.46 394.094 322.572 394.582 322.572C395.038 322.572 395.438 322.472 395.782 322.272C396.134 322.064 396.406 321.76 396.598 321.36H398.53C398.25 322.216 397.758 322.884 397.054 323.364C396.358 323.836 395.538 324.072 394.594 324.072C393.794 324.072 393.07 323.892 392.422 323.532C391.782 323.164 391.274 322.656 390.898 322.008C390.53 321.36 390.346 320.624 390.346 319.8ZM401.645 315.12V324H399.965V315.12H401.645ZM406.257 324.108C405.617 324.108 405.041 323.968 404.529 323.688C404.017 323.4 403.613 322.996 403.317 322.476C403.029 321.956 402.885 321.356 402.885 320.676C402.885 319.996 403.033 319.396 403.329 318.876C403.633 318.356 404.045 317.956 404.565 317.676C405.085 317.388 405.665 317.244 406.305 317.244C406.945 317.244 407.525 317.388 408.045 317.676C408.565 317.956 408.973 318.356 409.269 318.876C409.573 319.396 409.725 319.996 409.725 320.676C409.725 321.356 409.569 321.956 409.257 322.476C408.953 322.996 408.537 323.4 408.009 323.688C407.489 323.968 406.905 324.108 406.257 324.108ZM406.257 322.644C406.561 322.644 406.845 322.572 407.109 322.428C407.381 322.276 407.597 322.052 407.757 321.756C407.917 321.46 407.997 321.1 407.997 320.676C407.997 320.044 407.829 319.56 407.493 319.224C407.165 318.88 406.761 318.708 406.281 318.708C405.801 318.708 405.397 318.88 405.069 319.224C404.749 319.56 404.589 320.044 404.589 320.676C404.589 321.308 404.745 321.796 405.057 322.14C405.377 322.476 405.777 322.644 406.257 322.644ZM413.501 324.108C412.957 324.108 412.469 324.012 412.037 323.82C411.605 323.62 411.261 323.352 411.005 323.016C410.757 322.68 410.621 322.308 410.597 321.9H412.289C412.321 322.156 412.445 322.368 412.661 322.536C412.885 322.704 413.161 322.788 413.489 322.788C413.809 322.788 414.057 322.724 414.233 322.596C414.417 322.468 414.509 322.304 414.509 322.104C414.509 321.888 414.397 321.728 414.173 321.624C413.957 321.512 413.609 321.392 413.129 321.264C412.633 321.144 412.225 321.02 411.905 320.892C411.593 320.764 411.321 320.568 411.089 320.304C410.865 320.04 410.753 319.684 410.753 319.236C410.753 318.868 410.857 318.532 411.065 318.228C411.281 317.924 411.585 317.684 411.977 317.508C412.377 317.332 412.845 317.244 413.381 317.244C414.173 317.244 414.805 317.444 415.277 317.844C415.749 318.236 416.009 318.768 416.057 319.44H414.449C414.425 319.176 414.313 318.968 414.113 318.816C413.921 318.656 413.661 318.576 413.333 318.576C413.029 318.576 412.793 318.632 412.625 318.744C412.465 318.856 412.385 319.012 412.385 319.212C412.385 319.436 412.497 319.608 412.721 319.728C412.945 319.84 413.293 319.956 413.765 320.076C414.245 320.196 414.641 320.32 414.953 320.448C415.265 320.576 415.533 320.776 415.757 321.048C415.989 321.312 416.109 321.664 416.117 322.104C416.117 322.488 416.009 322.832 415.793 323.136C415.585 323.44 415.281 323.68 414.881 323.856C414.489 324.024 414.029 324.108 413.501 324.108ZM423.676 320.532C423.676 320.772 423.66 320.988 423.628 321.18H418.768C418.808 321.66 418.976 322.036 419.272 322.308C419.568 322.58 419.932 322.716 420.364 322.716C420.988 322.716 421.432 322.448 421.696 321.912H423.508C423.316 322.552 422.948 323.08 422.404 323.496C421.86 323.904 421.192 324.108 420.4 324.108C419.76 324.108 419.184 323.968 418.672 323.688C418.168 323.4 417.772 322.996 417.484 322.476C417.204 321.956 417.064 321.356 417.064 320.676C417.064 319.988 417.204 319.384 417.484 318.864C417.764 318.344 418.156 317.944 418.66 317.664C419.164 317.384 419.744 317.244 420.4 317.244C421.032 317.244 421.596 317.38 422.092 317.652C422.596 317.924 422.984 318.312 423.256 318.816C423.536 319.312 423.676 319.884 423.676 320.532ZM421.936 320.052C421.928 319.62 421.772 319.276 421.468 319.02C421.164 318.756 420.792 318.624 420.352 318.624C419.936 318.624 419.584 318.752 419.296 319.008C419.016 319.256 418.844 319.604 418.78 320.052H421.936Z"></path>
<rect fill-opacity="0.03" fill="black" rx="5" height="36" width="196" y="302" x="142"></rect>
<path stroke-linecap="round" stroke-width="1.5" stroke-opacity="0.5" stroke="black" d="M190.5 319.5H289.5"></path>
</svg>
