<svg xmlns="http://www.w3.org/2000/svg" fill="none" viewBox="0 0 480 360" height="360" width="480">
<rect fill="#D9D9D9" height="46" width="480" y="45"></rect>
<mask fill="white" id="path-2-inside-1_654_666">
<path d="M410 58C410 55.2386 412.239 53 415 53H465C467.761 53 470 55.2386 470 58V78C470 80.7614 467.761 83 465 83H415C412.239 83 410 80.7614 410 78V58Z"></path>
</mask>
<path fill-opacity="0.05" fill="black" d="M410 58C410 55.2386 412.239 53 415 53H465C467.761 53 470 55.2386 470 58V78C470 80.7614 467.761 83 465 83H415C412.239 83 410 80.7614 410 78V58Z"></path>
<path mask="url(#path-2-inside-1_654_666)" fill-opacity="0.05" fill="black" d="M410 58C410 54.6863 412.686 52 416 52H464C467.314 52 470 54.6863 470 58C470 55.7909 467.761 54 465 54H415C412.239 54 410 55.7909 410 58ZM470 83H410H470ZM410 83V53V83ZM470 53V83V53Z"></path>
<path fill="black" d="M420.711 68.161C420.711 67.413 420.884 66.742 421.228 66.148C421.58 65.554 422.053 65.092 422.647 64.762C423.249 64.4247 423.905 64.256 424.616 64.256C425.43 64.256 426.153 64.4577 426.783 64.861C427.421 65.257 427.883 65.8217 428.169 66.555H426.662C426.464 66.1517 426.189 65.851 425.837 65.653C425.485 65.455 425.078 65.356 424.616 65.356C424.11 65.356 423.659 65.4697 423.263 65.697C422.867 65.9243 422.556 66.2507 422.328 66.676C422.108 67.1013 421.998 67.5963 421.998 68.161C421.998 68.7257 422.108 69.2207 422.328 69.646C422.556 70.0713 422.867 70.4013 423.263 70.636C423.659 70.8633 424.11 70.977 424.616 70.977C425.078 70.977 425.485 70.878 425.837 70.68C426.189 70.482 426.464 70.1813 426.662 69.778H428.169C427.883 70.5113 427.421 71.076 426.783 71.472C426.153 71.868 425.43 72.066 424.616 72.066C423.898 72.066 423.241 71.901 422.647 71.571C422.053 71.2337 421.58 70.768 421.228 70.174C420.884 69.58 420.711 68.909 420.711 68.161ZM429.219 68.942C429.219 68.3333 429.344 67.7943 429.593 67.325C429.85 66.8557 430.194 66.4927 430.627 66.236C431.067 65.972 431.551 65.84 432.079 65.84C432.556 65.84 432.97 65.9353 433.322 66.126C433.681 66.3093 433.967 66.5403 434.18 66.819V65.939H435.445V72H434.18V71.098C433.967 71.384 433.678 71.6223 433.311 71.813C432.944 72.0037 432.526 72.099 432.057 72.099C431.536 72.099 431.06 71.967 430.627 71.703C430.194 71.4317 429.85 71.0577 429.593 70.581C429.344 70.097 429.219 69.5507 429.219 68.942ZM434.18 68.964C434.18 68.546 434.092 68.183 433.916 67.875C433.747 67.567 433.524 67.3323 433.245 67.171C432.966 67.0097 432.666 66.929 432.343 66.929C432.02 66.929 431.72 67.0097 431.441 67.171C431.162 67.325 430.935 67.556 430.759 67.864C430.59 68.1647 430.506 68.524 430.506 68.942C430.506 69.36 430.59 69.7267 430.759 70.042C430.935 70.3573 431.162 70.5993 431.441 70.768C431.727 70.9293 432.028 71.01 432.343 71.01C432.666 71.01 432.966 70.9293 433.245 70.768C433.524 70.6067 433.747 70.372 433.916 70.064C434.092 69.7487 434.18 69.382 434.18 68.964ZM440.15 65.84C440.627 65.84 441.052 65.939 441.426 66.137C441.807 66.335 442.104 66.6283 442.317 67.017C442.53 67.4057 442.636 67.875 442.636 68.425V72H441.393V68.612C441.393 68.0693 441.257 67.655 440.986 67.369C440.715 67.0757 440.344 66.929 439.875 66.929C439.406 66.929 439.032 67.0757 438.753 67.369C438.482 67.655 438.346 68.0693 438.346 68.612V72H437.092V65.939H438.346V66.632C438.551 66.3827 438.812 66.1883 439.127 66.049C439.45 65.9097 439.791 65.84 440.15 65.84ZM443.818 68.964C443.818 68.3407 443.942 67.7943 444.192 67.325C444.448 66.8483 444.8 66.4817 445.248 66.225C445.695 65.9683 446.208 65.84 446.788 65.84C447.521 65.84 448.126 66.016 448.603 66.368C449.087 66.7127 449.413 67.2077 449.582 67.853H448.229C448.119 67.5523 447.943 67.3177 447.701 67.149C447.459 66.9803 447.154 66.896 446.788 66.896C446.274 66.896 445.864 67.0793 445.556 67.446C445.255 67.8053 445.105 68.3113 445.105 68.964C445.105 69.6167 445.255 70.1263 445.556 70.493C445.864 70.8597 446.274 71.043 446.788 71.043C447.514 71.043 447.994 70.724 448.229 70.086H449.582C449.406 70.702 449.076 71.1933 448.592 71.56C448.108 71.9193 447.506 72.099 446.788 72.099C446.208 72.099 445.695 71.9707 445.248 71.714C444.8 71.45 444.448 71.0833 444.192 70.614C443.942 70.1373 443.818 69.5873 443.818 68.964ZM456.386 68.821C456.386 69.0483 456.372 69.2537 456.342 69.437H451.711C451.748 69.921 451.928 70.3097 452.25 70.603C452.573 70.8963 452.969 71.043 453.438 71.043C454.113 71.043 454.59 70.7607 454.868 70.196H456.221C456.038 70.7533 455.704 71.2117 455.22 71.571C454.744 71.923 454.15 72.099 453.438 72.099C452.859 72.099 452.338 71.9707 451.876 71.714C451.422 71.45 451.062 71.0833 450.798 70.614C450.542 70.1373 450.413 69.5873 450.413 68.964C450.413 68.3407 450.538 67.7943 450.787 67.325C451.044 66.8483 451.4 66.4817 451.854 66.225C452.316 65.9683 452.844 65.84 453.438 65.84C454.01 65.84 454.52 65.9647 454.967 66.214C455.415 66.4633 455.763 66.8153 456.012 67.27C456.262 67.7173 456.386 68.2343 456.386 68.821ZM455.077 68.425C455.07 67.963 454.905 67.5927 454.582 67.314C454.26 67.0353 453.86 66.896 453.383 66.896C452.951 66.896 452.58 67.0353 452.272 67.314C451.964 67.5853 451.781 67.9557 451.722 68.425H455.077ZM458.874 63.86V72H457.62V63.86H458.874Z"></path>
<path fill="black" d="M24.1228 72.077C23.6095 72.077 23.1475 71.989 22.7368 71.813C22.3261 71.6297 22.0035 71.373 21.7688 71.043C21.5341 70.713 21.4168 70.328 21.4168 69.888H22.7588C22.7881 70.218 22.9165 70.4893 23.1438 70.702C23.3785 70.9147 23.7048 71.021 24.1228 71.021C24.5555 71.021 24.8928 70.9183 25.1348 70.713C25.3768 70.5003 25.4978 70.229 25.4978 69.899C25.4978 69.6423 25.4208 69.4333 25.2668 69.272C25.1201 69.1107 24.9331 68.986 24.7058 68.898C24.4858 68.81 24.1778 68.7147 23.7818 68.612C23.2831 68.48 22.8761 68.348 22.5608 68.216C22.2528 68.0767 21.9888 67.864 21.7688 67.578C21.5488 67.292 21.4388 66.9107 21.4388 66.434C21.4388 65.994 21.5488 65.609 21.7688 65.279C21.9888 64.949 22.2968 64.696 22.6928 64.52C23.0888 64.344 23.5471 64.256 24.0678 64.256C24.8085 64.256 25.4135 64.443 25.8828 64.817C26.3595 65.1837 26.6235 65.6897 26.6748 66.335H25.2888C25.2668 66.0563 25.1348 65.818 24.8928 65.62C24.6508 65.422 24.3318 65.323 23.9358 65.323C23.5765 65.323 23.2831 65.4147 23.0558 65.598C22.8285 65.7813 22.7148 66.0453 22.7148 66.39C22.7148 66.6247 22.7845 66.819 22.9238 66.973C23.0705 67.1197 23.2538 67.237 23.4738 67.325C23.6938 67.413 23.9945 67.5083 24.3758 67.611C24.8818 67.7503 25.2925 67.8897 25.6078 68.029C25.9305 68.1683 26.2018 68.3847 26.4218 68.678C26.6491 68.964 26.7628 69.349 26.7628 69.833C26.7628 70.2217 26.6565 70.5883 26.4438 70.933C26.2385 71.2777 25.9341 71.5563 25.5308 71.769C25.1348 71.9743 24.6655 72.077 24.1228 72.077ZM33.7975 68.821C33.7975 69.0483 33.7828 69.2537 33.7535 69.437H29.1225C29.1591 69.921 29.3388 70.3097 29.6615 70.603C29.9841 70.8963 30.3801 71.043 30.8495 71.043C31.5241 71.043 32.0008 70.7607 32.2795 70.196H33.6325C33.4491 70.7533 33.1155 71.2117 32.6315 71.571C32.1548 71.923 31.5608 72.099 30.8495 72.099C30.2701 72.099 29.7495 71.9707 29.2875 71.714C28.8328 71.45 28.4735 71.0833 28.2095 70.614C27.9528 70.1373 27.8245 69.5873 27.8245 68.964C27.8245 68.3407 27.9491 67.7943 28.1985 67.325C28.4551 66.8483 28.8108 66.4817 29.2655 66.225C29.7275 65.9683 30.2555 65.84 30.8495 65.84C31.4215 65.84 31.9311 65.9647 32.3785 66.214C32.8258 66.4633 33.1741 66.8153 33.4235 67.27C33.6728 67.7173 33.7975 68.2343 33.7975 68.821ZM32.4885 68.425C32.4811 67.963 32.3161 67.5927 31.9935 67.314C31.6708 67.0353 31.2711 66.896 30.7945 66.896C30.3618 66.896 29.9915 67.0353 29.6835 67.314C29.3755 67.5853 29.1921 67.9557 29.1335 68.425H32.4885ZM36.2855 63.86V72H35.0315V63.86H36.2855ZM43.4869 68.821C43.4869 69.0483 43.4723 69.2537 43.4429 69.437H38.8119C38.8486 69.921 39.0283 70.3097 39.3509 70.603C39.6736 70.8963 40.0696 71.043 40.5389 71.043C41.2136 71.043 41.6903 70.7607 41.9689 70.196H43.3219C43.1386 70.7533 42.8049 71.2117 42.3209 71.571C41.8443 71.923 41.2503 72.099 40.5389 72.099C39.9596 72.099 39.4389 71.9707 38.9769 71.714C38.5223 71.45 38.1629 71.0833 37.8989 70.614C37.6423 70.1373 37.5139 69.5873 37.5139 68.964C37.5139 68.3407 37.6386 67.7943 37.8879 67.325C38.1446 66.8483 38.5003 66.4817 38.9549 66.225C39.4169 65.9683 39.9449 65.84 40.5389 65.84C41.1109 65.84 41.6206 65.9647 42.0679 66.214C42.5153 66.4633 42.8636 66.8153 43.1129 67.27C43.3623 67.7173 43.4869 68.2343 43.4869 68.821ZM42.1779 68.425C42.1706 67.963 42.0056 67.5927 41.6829 67.314C41.3603 67.0353 40.9606 66.896 40.4839 66.896C40.0513 66.896 39.6809 67.0353 39.3729 67.314C39.0649 67.5853 38.8816 67.9557 38.8229 68.425H42.1779ZM44.303 68.964C44.303 68.3407 44.4277 67.7943 44.677 67.325C44.9337 66.8483 45.2857 66.4817 45.733 66.225C46.1803 65.9683 46.6937 65.84 47.273 65.84C48.0063 65.84 48.6113 66.016 49.088 66.368C49.572 66.7127 49.8983 67.2077 50.067 67.853H48.714C48.604 67.5523 48.428 67.3177 48.186 67.149C47.944 66.9803 47.6397 66.896 47.273 66.896C46.7597 66.896 46.349 67.0793 46.041 67.446C45.7403 67.8053 45.59 68.3113 45.59 68.964C45.59 69.6167 45.7403 70.1263 46.041 70.493C46.349 70.8597 46.7597 71.043 47.273 71.043C47.999 71.043 48.4793 70.724 48.714 70.086H50.067C49.891 70.702 49.561 71.1933 49.077 71.56C48.593 71.9193 47.9917 72.099 47.273 72.099C46.6937 72.099 46.1803 71.9707 45.733 71.714C45.2857 71.45 44.9337 71.0833 44.677 70.614C44.4277 70.1373 44.303 69.5873 44.303 68.964ZM52.7797 66.962V70.317C52.7797 70.5443 52.831 70.7093 52.9337 70.812C53.0437 70.9073 53.227 70.955 53.4837 70.955H54.2537V72H53.2637C52.699 72 52.2664 71.868 51.9657 71.604C51.665 71.34 51.5147 70.911 51.5147 70.317V66.962H50.7997V65.939H51.5147V64.432H52.7797V65.939H54.2537V66.962H52.7797ZM57.8489 68.942C57.8489 68.3333 57.9736 67.7943 58.2229 67.325C58.4796 66.8557 58.8242 66.4927 59.2569 66.236C59.6969 65.972 60.1809 65.84 60.7089 65.84C61.1856 65.84 61.5999 65.9353 61.9519 66.126C62.3112 66.3093 62.5972 66.5403 62.8099 66.819V65.939H64.0749V72H62.8099V71.098C62.5972 71.384 62.3076 71.6223 61.9409 71.813C61.5742 72.0037 61.1562 72.099 60.6869 72.099C60.1662 72.099 59.6896 71.967 59.2569 71.703C58.8242 71.4317 58.4796 71.0577 58.2229 70.581C57.9736 70.097 57.8489 69.5507 57.8489 68.942ZM62.8099 68.964C62.8099 68.546 62.7219 68.183 62.5459 67.875C62.3772 67.567 62.1536 67.3323 61.8749 67.171C61.5962 67.0097 61.2956 66.929 60.9729 66.929C60.6502 66.929 60.3496 67.0097 60.0709 67.171C59.7922 67.325 59.5649 67.556 59.3889 67.864C59.2202 68.1647 59.1359 68.524 59.1359 68.942C59.1359 69.36 59.2202 69.7267 59.3889 70.042C59.5649 70.3573 59.7922 70.5993 60.0709 70.768C60.3569 70.9293 60.6576 71.01 60.9729 71.01C61.2956 71.01 61.5962 70.9293 61.8749 70.768C62.1536 70.6067 62.3772 70.372 62.5459 70.064C62.7219 69.7487 62.8099 69.382 62.8099 68.964ZM71.1204 66.962H69.9984V72H68.7334V66.962H68.0184V65.939H68.7334V65.51C68.7334 64.8133 68.9167 64.3073 69.2834 63.992C69.6574 63.6693 70.2404 63.508 71.0324 63.508V64.553C70.6511 64.553 70.3834 64.6263 70.2294 64.773C70.0754 64.9123 69.9984 65.158 69.9984 65.51V65.939H71.1204V66.962ZM72.8697 65.136C72.6424 65.136 72.4517 65.059 72.2977 64.905C72.1437 64.751 72.0667 64.5603 72.0667 64.333C72.0667 64.1057 72.1437 63.915 72.2977 63.761C72.4517 63.607 72.6424 63.53 72.8697 63.53C73.0897 63.53 73.2767 63.607 73.4307 63.761C73.5847 63.915 73.6617 64.1057 73.6617 64.333C73.6617 64.5603 73.5847 64.751 73.4307 64.905C73.2767 65.059 73.0897 65.136 72.8697 65.136ZM73.4857 65.939V72H72.2317V65.939H73.4857ZM76.3861 63.86V72H75.1321V63.86H76.3861ZM83.5875 68.821C83.5875 69.0483 83.5729 69.2537 83.5435 69.437H78.9125C78.9492 69.921 79.1289 70.3097 79.4515 70.603C79.7742 70.8963 80.1702 71.043 80.6395 71.043C81.3142 71.043 81.7909 70.7607 82.0695 70.196H83.4225C83.2392 70.7533 82.9055 71.2117 82.4215 71.571C81.9449 71.923 81.3509 72.099 80.6395 72.099C80.0602 72.099 79.5395 71.9707 79.0775 71.714C78.6229 71.45 78.2635 71.0833 77.9995 70.614C77.7429 70.1373 77.6145 69.5873 77.6145 68.964C77.6145 68.3407 77.7392 67.7943 77.9885 67.325C78.2452 66.8483 78.6009 66.4817 79.0555 66.225C79.5175 65.9683 80.0455 65.84 80.6395 65.84C81.2115 65.84 81.7212 65.9647 82.1685 66.214C82.6159 66.4633 82.9642 66.8153 83.2135 67.27C83.4629 67.7173 83.5875 68.2343 83.5875 68.821ZM82.2785 68.425C82.2712 67.963 82.1062 67.5927 81.7835 67.314C81.4609 67.0353 81.0612 66.896 80.5845 66.896C80.1519 66.896 79.7815 67.0353 79.4735 67.314C79.1655 67.5853 78.9822 67.9557 78.9235 68.425H82.2785ZM89.142 66.962V70.317C89.142 70.5443 89.1933 70.7093 89.296 70.812C89.406 70.9073 89.5893 70.955 89.846 70.955H90.616V72H89.626C89.0613 72 88.6287 71.868 88.328 71.604C88.0273 71.34 87.877 70.911 87.877 70.317V66.962H87.162V65.939H87.877V64.432H89.142V65.939H90.616V66.962H89.142ZM94.4008 72.099C93.8288 72.099 93.3118 71.9707 92.8498 71.714C92.3878 71.45 92.0248 71.0833 91.7608 70.614C91.4968 70.1373 91.3648 69.5873 91.3648 68.964C91.3648 68.348 91.5004 67.8017 91.7718 67.325C92.0431 66.8483 92.4134 66.4817 92.8828 66.225C93.3521 65.9683 93.8764 65.84 94.4558 65.84C95.0351 65.84 95.5594 65.9683 96.0288 66.225C96.4981 66.4817 96.8684 66.8483 97.1398 67.325C97.4111 67.8017 97.5468 68.348 97.5468 68.964C97.5468 69.58 97.4074 70.1263 97.1288 70.603C96.8501 71.0797 96.4688 71.45 95.9848 71.714C95.5081 71.9707 94.9801 72.099 94.4008 72.099ZM94.4008 71.01C94.7234 71.01 95.0241 70.933 95.3028 70.779C95.5888 70.625 95.8198 70.394 95.9958 70.086C96.1718 69.778 96.2598 69.404 96.2598 68.964C96.2598 68.524 96.1754 68.1537 96.0068 67.853C95.8381 67.545 95.6144 67.314 95.3358 67.16C95.0571 67.006 94.7564 66.929 94.4338 66.929C94.1111 66.929 93.8104 67.006 93.5318 67.16C93.2604 67.314 93.0441 67.545 92.8828 67.853C92.7214 68.1537 92.6408 68.524 92.6408 68.964C92.6408 69.6167 92.8058 70.1227 93.1358 70.482C93.4731 70.834 93.8948 71.01 94.4008 71.01ZM104.273 72.099C103.701 72.099 103.184 71.9707 102.722 71.714C102.26 71.45 101.897 71.0833 101.633 70.614C101.369 70.1373 101.237 69.5873 101.237 68.964C101.237 68.348 101.373 67.8017 101.644 67.325C101.915 66.8483 102.286 66.4817 102.755 66.225C103.224 65.9683 103.749 65.84 104.328 65.84C104.907 65.84 105.432 65.9683 105.901 66.225C106.37 66.4817 106.741 66.8483 107.012 67.325C107.283 67.8017 107.419 68.348 107.419 68.964C107.419 69.58 107.28 70.1263 107.001 70.603C106.722 71.0797 106.341 71.45 105.857 71.714C105.38 71.9707 104.852 72.099 104.273 72.099ZM104.273 71.01C104.596 71.01 104.896 70.933 105.175 70.779C105.461 70.625 105.692 70.394 105.868 70.086C106.044 69.778 106.132 69.404 106.132 68.964C106.132 68.524 106.048 68.1537 105.879 67.853C105.71 67.545 105.487 67.314 105.208 67.16C104.929 67.006 104.629 66.929 104.306 66.929C103.983 66.929 103.683 67.006 103.404 67.16C103.133 67.314 102.916 67.545 102.755 67.853C102.594 68.1537 102.513 68.524 102.513 68.964C102.513 69.6167 102.678 70.1227 103.008 70.482C103.345 70.834 103.767 71.01 104.273 71.01ZM109.912 66.83C110.125 66.5513 110.415 66.3167 110.781 66.126C111.148 65.9353 111.562 65.84 112.024 65.84C112.552 65.84 113.033 65.972 113.465 66.236C113.905 66.4927 114.25 66.8557 114.499 67.325C114.749 67.7943 114.873 68.3333 114.873 68.942C114.873 69.5507 114.749 70.097 114.499 70.581C114.25 71.0577 113.905 71.4317 113.465 71.703C113.033 71.967 112.552 72.099 112.024 72.099C111.562 72.099 111.152 72.0073 110.792 71.824C110.433 71.6333 110.14 71.3987 109.912 71.12V74.882H108.658V65.939H109.912V66.83ZM113.597 68.942C113.597 68.524 113.509 68.1647 113.333 67.864C113.165 67.556 112.937 67.325 112.651 67.171C112.373 67.0097 112.072 66.929 111.749 66.929C111.434 66.929 111.133 67.0097 110.847 67.171C110.569 67.3323 110.341 67.567 110.165 67.875C109.997 68.183 109.912 68.546 109.912 68.964C109.912 69.382 109.997 69.7487 110.165 70.064C110.341 70.372 110.569 70.6067 110.847 70.768C111.133 70.9293 111.434 71.01 111.749 71.01C112.072 71.01 112.373 70.9293 112.651 70.768C112.937 70.5993 113.165 70.3573 113.333 70.042C113.509 69.7267 113.597 69.36 113.597 68.942ZM121.669 68.821C121.669 69.0483 121.654 69.2537 121.625 69.437H116.994C117.03 69.921 117.21 70.3097 117.533 70.603C117.855 70.8963 118.251 71.043 118.721 71.043C119.395 71.043 119.872 70.7607 120.151 70.196H121.504C121.32 70.7533 120.987 71.2117 120.503 71.571C120.026 71.923 119.432 72.099 118.721 72.099C118.141 72.099 117.621 71.9707 117.159 71.714C116.704 71.45 116.345 71.0833 116.081 70.614C115.824 70.1373 115.696 69.5873 115.696 68.964C115.696 68.3407 115.82 67.7943 116.07 67.325C116.326 66.8483 116.682 66.4817 117.137 66.225C117.599 65.9683 118.127 65.84 118.721 65.84C119.293 65.84 119.802 65.9647 120.25 66.214C120.697 66.4633 121.045 66.8153 121.295 67.27C121.544 67.7173 121.669 68.2343 121.669 68.821ZM120.36 68.425C120.352 67.963 120.187 67.5927 119.865 67.314C119.542 67.0353 119.142 66.896 118.666 66.896C118.233 66.896 117.863 67.0353 117.555 67.314C117.247 67.5853 117.063 67.9557 117.005 68.425H120.36ZM125.961 65.84C126.437 65.84 126.863 65.939 127.237 66.137C127.618 66.335 127.915 66.6283 128.128 67.017C128.34 67.4057 128.447 67.875 128.447 68.425V72H127.204V68.612C127.204 68.0693 127.068 67.655 126.797 67.369C126.525 67.0757 126.155 66.929 125.686 66.929C125.216 66.929 124.842 67.0757 124.564 67.369C124.292 67.655 124.157 68.0693 124.157 68.612V72H122.903V65.939H124.157V66.632C124.362 66.3827 124.622 66.1883 124.938 66.049C125.26 65.9097 125.601 65.84 125.961 65.84Z"></path>
</svg>
