<svg xmlns="http://www.w3.org/2000/svg" fill="none" viewBox="0 0 114 37" height="37" width="114">
<rect fill-opacity="0.05" fill="white" rx="5" height="37" width="114"></rect>
<path fill="white" d="M54.3724 15.961C54.4164 15.279 54.6767 14.7473 55.1534 14.366C55.6374 13.9847 56.2534 13.794 57.0014 13.794C57.5147 13.794 57.9584 13.8857 58.3324 14.069C58.7064 14.2523 58.9887 14.5017 59.1794 14.817C59.37 15.1323 59.4654 15.488 59.4654 15.884C59.4654 16.3387 59.3444 16.7273 59.1024 17.05C58.8604 17.3727 58.5707 17.589 58.2334 17.699V17.743C58.666 17.875 59.0034 18.117 59.2454 18.469C59.4874 18.8137 59.6084 19.2573 59.6084 19.8C59.6084 20.2327 59.5094 20.6177 59.3114 20.955C59.1134 21.2923 58.82 21.56 58.4314 21.758C58.0427 21.9487 57.577 22.044 57.0344 22.044C56.2424 22.044 55.5897 21.8423 55.0764 21.439C54.5704 21.0283 54.299 20.4417 54.2624 19.679H55.4724C55.5017 20.0677 55.652 20.3867 55.9234 20.636C56.1947 20.878 56.5614 20.999 57.0234 20.999C57.4707 20.999 57.8154 20.878 58.0574 20.636C58.2994 20.3867 58.4204 20.0677 58.4204 19.679C58.4204 19.1657 58.2554 18.8027 57.9254 18.59C57.6027 18.37 57.104 18.26 56.4294 18.26H56.1434V17.226H56.4404C57.0344 17.2187 57.4854 17.1197 57.7934 16.929C58.1087 16.7383 58.2664 16.4377 58.2664 16.027C58.2664 15.675 58.1527 15.3963 57.9254 15.191C57.698 14.9783 57.3754 14.872 56.9574 14.872C56.5467 14.872 56.2277 14.9783 56.0004 15.191C55.773 15.3963 55.6374 15.653 55.5934 15.961H54.3724Z"></path>
</svg>
