<svg xmlns="http://www.w3.org/2000/svg" fill="none" viewBox="0 0 480 360" height="360" width="480">
<path fill="black" d="M178.976 177.192C178.976 177.757 178.843 178.291 178.576 178.792C178.309 179.293 177.883 179.704 177.296 180.024C176.709 180.333 175.957 180.488 175.04 180.488H173.024V185H171.2V173.88H175.04C175.893 173.88 176.613 174.029 177.2 174.328C177.797 174.616 178.24 175.011 178.528 175.512C178.827 176.013 178.976 176.573 178.976 177.192ZM175.04 179C175.733 179 176.251 178.845 176.592 178.536C176.933 178.216 177.104 177.768 177.104 177.192C177.104 175.976 176.416 175.368 175.04 175.368H173.024V179H175.04ZM180.108 180.552C180.108 179.667 180.289 178.883 180.652 178.2C181.025 177.517 181.526 176.989 182.156 176.616C182.796 176.232 183.5 176.04 184.268 176.04C184.961 176.04 185.564 176.179 186.076 176.456C186.598 176.723 187.014 177.059 187.324 177.464V176.184H189.164V185H187.324V183.688C187.014 184.104 186.593 184.451 186.06 184.728C185.526 185.005 184.918 185.144 184.236 185.144C183.478 185.144 182.785 184.952 182.156 184.568C181.526 184.173 181.025 183.629 180.652 182.936C180.289 182.232 180.108 181.437 180.108 180.552ZM187.324 180.584C187.324 179.976 187.196 179.448 186.94 179C186.694 178.552 186.369 178.211 185.964 177.976C185.558 177.741 185.121 177.624 184.652 177.624C184.182 177.624 183.745 177.741 183.34 177.976C182.934 178.2 182.604 178.536 182.348 178.984C182.102 179.421 181.98 179.944 181.98 180.552C181.98 181.16 182.102 181.693 182.348 182.152C182.604 182.611 182.934 182.963 183.34 183.208C183.756 183.443 184.193 183.56 184.652 183.56C185.121 183.56 185.558 183.443 185.964 183.208C186.369 182.973 186.694 182.632 186.94 182.184C187.196 181.725 187.324 181.192 187.324 180.584ZM192.487 175.016C192.157 175.016 191.879 174.904 191.655 174.68C191.431 174.456 191.319 174.179 191.319 173.848C191.319 173.517 191.431 173.24 191.655 173.016C191.879 172.792 192.157 172.68 192.487 172.68C192.807 172.68 193.079 172.792 193.303 173.016C193.527 173.24 193.639 173.517 193.639 173.848C193.639 174.179 193.527 174.456 193.303 174.68C193.079 174.904 192.807 175.016 192.487 175.016ZM193.383 176.184V185H191.559V176.184H193.383ZM200.226 176.04C200.919 176.04 201.538 176.184 202.082 176.472C202.637 176.76 203.069 177.187 203.378 177.752C203.687 178.317 203.842 179 203.842 179.8V185H202.034V180.072C202.034 179.283 201.837 178.68 201.442 178.264C201.047 177.837 200.509 177.624 199.826 177.624C199.143 177.624 198.599 177.837 198.194 178.264C197.799 178.68 197.602 179.283 197.602 180.072V185H195.778V176.184H197.602V177.192C197.901 176.829 198.279 176.547 198.738 176.344C199.207 176.141 199.703 176.04 200.226 176.04ZM208.297 177.672V182.552C208.297 182.883 208.371 183.123 208.521 183.272C208.681 183.411 208.947 183.48 209.321 183.48H210.441V185H209.001C208.179 185 207.55 184.808 207.113 184.424C206.675 184.04 206.457 183.416 206.457 182.552V177.672H205.417V176.184H206.457V173.992H208.297V176.184H210.441V177.672H208.297Z"></path>
<path fill="#0076B3" d="M174.994 198.355V203.866C174.994 204.548 174.785 205.087 174.367 205.483C173.956 205.879 173.414 206.077 172.739 206.077C172.064 206.077 171.518 205.879 171.1 205.483C170.689 205.087 170.484 204.548 170.484 203.866H171.749C171.756 204.203 171.841 204.471 172.002 204.669C172.171 204.867 172.416 204.966 172.739 204.966C173.062 204.966 173.307 204.867 173.476 204.669C173.645 204.464 173.729 204.196 173.729 203.866V198.355H174.994ZM178.288 197.86V206H177.034V197.86H178.288ZM182.563 206.099C181.991 206.099 181.474 205.971 181.012 205.714C180.55 205.45 180.187 205.083 179.923 204.614C179.659 204.137 179.527 203.587 179.527 202.964C179.527 202.348 179.663 201.802 179.934 201.325C180.206 200.848 180.576 200.482 181.045 200.225C181.515 199.968 182.039 199.84 182.618 199.84C183.198 199.84 183.722 199.968 184.191 200.225C184.661 200.482 185.031 200.848 185.302 201.325C185.574 201.802 185.709 202.348 185.709 202.964C185.709 203.58 185.57 204.126 185.291 204.603C185.013 205.08 184.631 205.45 184.147 205.714C183.671 205.971 183.143 206.099 182.563 206.099ZM182.563 205.01C182.886 205.01 183.187 204.933 183.465 204.779C183.751 204.625 183.982 204.394 184.158 204.086C184.334 203.778 184.422 203.404 184.422 202.964C184.422 202.524 184.338 202.154 184.169 201.853C184.001 201.545 183.777 201.314 183.498 201.16C183.22 201.006 182.919 200.929 182.596 200.929C182.274 200.929 181.973 201.006 181.694 201.16C181.423 201.314 181.207 201.545 181.045 201.853C180.884 202.154 180.803 202.524 180.803 202.964C180.803 203.617 180.968 204.123 181.298 204.482C181.636 204.834 182.057 205.01 182.563 205.01ZM191.558 204.438H188.357L187.807 206H186.498L189.237 198.344H190.689L193.428 206H192.108L191.558 204.438ZM191.206 203.415L189.963 199.862L188.709 203.415H191.206ZM200.108 199.939V206H198.854V205.285C198.656 205.534 198.396 205.732 198.073 205.879C197.758 206.018 197.42 206.088 197.061 206.088C196.584 206.088 196.155 205.989 195.774 205.791C195.4 205.593 195.103 205.3 194.883 204.911C194.67 204.522 194.564 204.053 194.564 203.503V199.939H195.807V203.316C195.807 203.859 195.943 204.277 196.214 204.57C196.485 204.856 196.856 204.999 197.325 204.999C197.794 204.999 198.165 204.856 198.436 204.57C198.715 204.277 198.854 203.859 198.854 203.316V199.939H200.108Z"></path>
<path fill="url(#paint0_linear_930_2)" d="M112.4 170.8C102.798 170.799 90.7992 179.599 90.7998 193.2C90.8 197.114 91.6852 202 95.5998 202C99.5989 202 101.199 195.6 104.4 195.6C105.725 195.6 106.8 196.399 106.8 198C106.8 200.399 104.4 200.399 104.4 203.6C104.4 205.999 105.999 207.6 108.4 207.6C117.199 207.6 127.6 197.286 127.6 186C127.6 178.799 121.722 170.801 112.4 170.8Z"></path>
<rect fill="url(#paint1_linear_930_2)" rx="3.2" height="6.4" width="6.4" y="186.798" x="93.998"></rect>
<rect fill-opacity="0.5" fill="black" rx="2.4" height="4.8" width="4.8" y="188.398" x="108.398"></rect>
<rect fill="url(#paint2_linear_930_2)" rx="3.2" height="6.4" width="6.4" y="178.798" x="98.7988"></rect>
<rect fill="url(#paint3_linear_930_2)" rx="3.2" height="6.4" width="6.4" y="175.599" x="106.799"></rect>
<path fill="url(#paint4_linear_930_2)" d="M116.398 189.997L121.198 189.999L120.462 207.663C120.426 208.52 119.721 209.197 118.863 209.197H118.733C117.875 209.197 117.17 208.52 117.134 207.663L116.398 189.997Z"></path>
<path fill="url(#paint5_linear_930_2)" d="M116.398 189.997V188.399H121.198V189.999L116.398 189.997Z"></path>
<path fill="url(#paint6_linear_930_2)" d="M116.398 188.396L114.357 184.314C113.824 183.25 114.598 181.999 115.787 181.999H121.809C122.999 181.999 123.772 183.25 123.241 184.314L121.198 188.399L116.398 188.396Z"></path>
<path fill-opacity="0.9" fill="#D9D9D9" d="M50 320C50 314.477 54.4772 310 60 310H460C465.523 310 470 314.477 470 320V340C470 345.523 465.523 350 460 350H60C54.4772 350 50 345.523 50 340V320Z"></path>
<path stroke-opacity="0.2" stroke="white" d="M460 309.5H60C54.201 309.5 49.5 314.201 49.5 320V340C49.5 345.799 54.201 350.5 60 350.5H460C465.799 350.5 470.5 345.799 470.5 340V320C470.5 314.201 465.799 309.5 460 309.5Z"></path>
<path fill="black" d="M120.467 326.355C121.281 326.355 121.992 326.513 122.601 326.828C123.217 327.136 123.69 327.583 124.02 328.17C124.357 328.749 124.526 329.428 124.526 330.205C124.526 330.982 124.357 331.657 124.02 332.229C123.69 332.801 123.217 333.241 122.601 333.549C121.992 333.85 121.281 334 120.467 334H117.97V326.355H120.467ZM120.467 332.977C121.362 332.977 122.047 332.735 122.524 332.251C123.001 331.767 123.239 331.085 123.239 330.205C123.239 329.318 123.001 328.625 122.524 328.126C122.047 327.627 121.362 327.378 120.467 327.378H119.224V332.977H120.467ZM127.023 328.819C127.206 328.511 127.448 328.273 127.749 328.104C128.057 327.928 128.42 327.84 128.838 327.84V329.138H128.519C128.028 329.138 127.654 329.263 127.397 329.512C127.148 329.761 127.023 330.194 127.023 330.81V334H125.769V327.939H127.023V328.819ZM129.573 330.942C129.573 330.333 129.697 329.794 129.947 329.325C130.203 328.856 130.548 328.493 130.981 328.236C131.421 327.972 131.905 327.84 132.433 327.84C132.909 327.84 133.324 327.935 133.676 328.126C134.035 328.309 134.321 328.54 134.534 328.819V327.939H135.799V334H134.534V333.098C134.321 333.384 134.031 333.622 133.665 333.813C133.298 334.004 132.88 334.099 132.411 334.099C131.89 334.099 131.413 333.967 130.981 333.703C130.548 333.432 130.203 333.058 129.947 332.581C129.697 332.097 129.573 331.551 129.573 330.942ZM134.534 330.964C134.534 330.546 134.446 330.183 134.27 329.875C134.101 329.567 133.877 329.332 133.599 329.171C133.32 329.01 133.019 328.929 132.697 328.929C132.374 328.929 132.073 329.01 131.795 329.171C131.516 329.325 131.289 329.556 131.113 329.864C130.944 330.165 130.86 330.524 130.86 330.942C130.86 331.36 130.944 331.727 131.113 332.042C131.289 332.357 131.516 332.599 131.795 332.768C132.081 332.929 132.381 333.01 132.697 333.01C133.019 333.01 133.32 332.929 133.599 332.768C133.877 332.607 134.101 332.372 134.27 332.064C134.446 331.749 134.534 331.382 134.534 330.964ZM145.586 327.939L143.705 334H142.385L141.164 329.523L139.943 334H138.623L136.731 327.939H138.007L139.272 332.812L140.559 327.939H141.868L143.1 332.79L144.354 327.939H145.586ZM148.962 330.942C148.962 330.333 149.087 329.794 149.336 329.325C149.593 328.856 149.938 328.493 150.37 328.236C150.81 327.972 151.294 327.84 151.822 327.84C152.299 327.84 152.713 327.935 153.065 328.126C153.425 328.309 153.711 328.54 153.923 328.819V327.939H155.188V334H153.923V333.098C153.711 333.384 153.421 333.622 153.054 333.813C152.688 334.004 152.27 334.099 151.8 334.099C151.28 334.099 150.803 333.967 150.37 333.703C149.938 333.432 149.593 333.058 149.336 332.581C149.087 332.097 148.962 331.551 148.962 330.942ZM153.923 330.964C153.923 330.546 153.835 330.183 153.659 329.875C153.491 329.567 153.267 329.332 152.988 329.171C152.71 329.01 152.409 328.929 152.086 328.929C151.764 328.929 151.463 329.01 151.184 329.171C150.906 329.325 150.678 329.556 150.502 329.864C150.334 330.165 150.249 330.524 150.249 330.942C150.249 331.36 150.334 331.727 150.502 332.042C150.678 332.357 150.906 332.599 151.184 332.768C151.47 332.929 151.771 333.01 152.086 333.01C152.409 333.01 152.71 332.929 152.988 332.768C153.267 332.607 153.491 332.372 153.659 332.064C153.835 331.749 153.923 331.382 153.923 330.964ZM159.893 327.84C160.37 327.84 160.795 327.939 161.169 328.137C161.551 328.335 161.848 328.628 162.06 329.017C162.273 329.406 162.379 329.875 162.379 330.425V334H161.136V330.612C161.136 330.069 161.001 329.655 160.729 329.369C160.458 329.076 160.088 328.929 159.618 328.929C159.149 328.929 158.775 329.076 158.496 329.369C158.225 329.655 158.089 330.069 158.089 330.612V334H156.835V327.939H158.089V328.632C158.295 328.383 158.555 328.188 158.87 328.049C159.193 327.91 159.534 327.84 159.893 327.84ZM169.435 327.939L165.717 336.849H164.419L165.651 333.901L163.264 327.939H164.661L166.366 332.559L168.137 327.939H169.435ZM171.844 328.962V332.317C171.844 332.544 171.895 332.709 171.998 332.812C172.108 332.907 172.291 332.955 172.548 332.955H173.318V334H172.328C171.763 334 171.331 333.868 171.03 333.604C170.729 333.34 170.579 332.911 170.579 332.317V328.962H169.864V327.939H170.579V326.432H171.844V327.939H173.318V328.962H171.844ZM177.609 327.84C178.071 327.84 178.482 327.939 178.841 328.137C179.208 328.335 179.494 328.628 179.699 329.017C179.912 329.406 180.018 329.875 180.018 330.425V334H178.775V330.612C178.775 330.069 178.639 329.655 178.368 329.369C178.097 329.076 177.726 328.929 177.257 328.929C176.788 328.929 176.414 329.076 176.135 329.369C175.864 329.655 175.728 330.069 175.728 330.612V334H174.474V325.86H175.728V328.643C175.941 328.386 176.208 328.188 176.531 328.049C176.861 327.91 177.22 327.84 177.609 327.84ZM182.255 327.136C182.028 327.136 181.837 327.059 181.683 326.905C181.529 326.751 181.452 326.56 181.452 326.333C181.452 326.106 181.529 325.915 181.683 325.761C181.837 325.607 182.028 325.53 182.255 325.53C182.475 325.53 182.662 325.607 182.816 325.761C182.97 325.915 183.047 326.106 183.047 326.333C183.047 326.56 182.97 326.751 182.816 326.905C182.662 327.059 182.475 327.136 182.255 327.136ZM182.871 327.939V334H181.617V327.939H182.871ZM187.576 327.84C188.053 327.84 188.478 327.939 188.852 328.137C189.233 328.335 189.53 328.628 189.743 329.017C189.956 329.406 190.062 329.875 190.062 330.425V334H188.819V330.612C188.819 330.069 188.683 329.655 188.412 329.369C188.141 329.076 187.77 328.929 187.301 328.929C186.832 328.929 186.458 329.076 186.179 329.369C185.908 329.655 185.772 330.069 185.772 330.612V334H184.518V327.939H185.772V328.632C185.977 328.383 186.238 328.188 186.553 328.049C186.876 327.91 187.217 327.84 187.576 327.84ZM194.103 327.84C194.573 327.84 194.987 327.935 195.346 328.126C195.713 328.309 195.999 328.54 196.204 328.819V327.939H197.469V334.099C197.469 334.656 197.352 335.151 197.117 335.584C196.883 336.024 196.542 336.369 196.094 336.618C195.654 336.867 195.126 336.992 194.51 336.992C193.689 336.992 193.007 336.798 192.464 336.409C191.922 336.028 191.614 335.507 191.54 334.847H192.783C192.879 335.162 193.08 335.415 193.388 335.606C193.704 335.804 194.078 335.903 194.51 335.903C195.016 335.903 195.423 335.749 195.731 335.441C196.047 335.133 196.204 334.686 196.204 334.099V333.087C195.992 333.373 195.702 333.615 195.335 333.813C194.976 334.004 194.565 334.099 194.103 334.099C193.575 334.099 193.091 333.967 192.651 333.703C192.219 333.432 191.874 333.058 191.617 332.581C191.368 332.097 191.243 331.551 191.243 330.942C191.243 330.333 191.368 329.794 191.617 329.325C191.874 328.856 192.219 328.493 192.651 328.236C193.091 327.972 193.575 327.84 194.103 327.84ZM196.204 330.964C196.204 330.546 196.116 330.183 195.94 329.875C195.772 329.567 195.548 329.332 195.269 329.171C194.991 329.01 194.69 328.929 194.367 328.929C194.045 328.929 193.744 329.01 193.465 329.171C193.187 329.325 192.959 329.556 192.783 329.864C192.615 330.165 192.53 330.524 192.53 330.942C192.53 331.36 192.615 331.727 192.783 332.042C192.959 332.357 193.187 332.599 193.465 332.768C193.751 332.929 194.052 333.01 194.367 333.01C194.69 333.01 194.991 332.929 195.269 332.768C195.548 332.607 195.772 332.372 195.94 332.064C196.116 331.749 196.204 331.382 196.204 330.964ZM207.43 327.939L203.712 336.849H202.414L203.646 333.901L201.259 327.939H202.656L204.361 332.559L206.132 327.939H207.43ZM211.005 334.099C210.433 334.099 209.916 333.971 209.454 333.714C208.992 333.45 208.629 333.083 208.365 332.614C208.101 332.137 207.969 331.587 207.969 330.964C207.969 330.348 208.105 329.802 208.376 329.325C208.648 328.848 209.018 328.482 209.487 328.225C209.957 327.968 210.481 327.84 211.06 327.84C211.64 327.84 212.164 327.968 212.633 328.225C213.103 328.482 213.473 328.848 213.744 329.325C214.016 329.802 214.151 330.348 214.151 330.964C214.151 331.58 214.012 332.126 213.733 332.603C213.455 333.08 213.073 333.45 212.589 333.714C212.113 333.971 211.585 334.099 211.005 334.099ZM211.005 333.01C211.328 333.01 211.629 332.933 211.907 332.779C212.193 332.625 212.424 332.394 212.6 332.086C212.776 331.778 212.864 331.404 212.864 330.964C212.864 330.524 212.78 330.154 212.611 329.853C212.443 329.545 212.219 329.314 211.94 329.16C211.662 329.006 211.361 328.929 211.038 328.929C210.716 328.929 210.415 329.006 210.136 329.16C209.865 329.314 209.649 329.545 209.487 329.853C209.326 330.154 209.245 330.524 209.245 330.964C209.245 331.617 209.41 332.123 209.74 332.482C210.078 332.834 210.499 333.01 211.005 333.01ZM220.88 327.939V334H219.626V333.285C219.428 333.534 219.168 333.732 218.845 333.879C218.53 334.018 218.192 334.088 217.833 334.088C217.356 334.088 216.927 333.989 216.546 333.791C216.172 333.593 215.875 333.3 215.655 332.911C215.442 332.522 215.336 332.053 215.336 331.503V327.939H216.579V331.316C216.579 331.859 216.715 332.277 216.986 332.57C217.257 332.856 217.628 332.999 218.097 332.999C218.566 332.999 218.937 332.856 219.208 332.57C219.487 332.277 219.626 331.859 219.626 331.316V327.939H220.88ZM233.532 327.939L231.651 334H230.331L229.11 329.523L227.889 334H226.569L224.677 327.939H225.953L227.218 332.812L228.505 327.939H229.814L231.046 332.79L232.3 327.939H233.532ZM234.051 330.942C234.051 330.333 234.176 329.794 234.425 329.325C234.682 328.856 235.026 328.493 235.459 328.236C235.899 327.972 236.383 327.84 236.911 327.84C237.388 327.84 237.802 327.935 238.154 328.126C238.513 328.309 238.799 328.54 239.012 328.819V327.939H240.277V334H239.012V333.098C238.799 333.384 238.51 333.622 238.143 333.813C237.776 334.004 237.358 334.099 236.889 334.099C236.368 334.099 235.892 333.967 235.459 333.703C235.026 333.432 234.682 333.058 234.425 332.581C234.176 332.097 234.051 331.551 234.051 330.942ZM239.012 330.964C239.012 330.546 238.924 330.183 238.748 329.875C238.579 329.567 238.356 329.332 238.077 329.171C237.798 329.01 237.498 328.929 237.175 328.929C236.852 328.929 236.552 329.01 236.273 329.171C235.994 329.325 235.767 329.556 235.591 329.864C235.422 330.165 235.338 330.524 235.338 330.942C235.338 331.36 235.422 331.727 235.591 332.042C235.767 332.357 235.994 332.599 236.273 332.768C236.559 332.929 236.86 333.01 237.175 333.01C237.498 333.01 237.798 332.929 238.077 332.768C238.356 332.607 238.579 332.372 238.748 332.064C238.924 331.749 239.012 331.382 239.012 330.964ZM244.982 327.84C245.459 327.84 245.884 327.939 246.258 328.137C246.639 328.335 246.936 328.628 247.149 329.017C247.362 329.406 247.468 329.875 247.468 330.425V334H246.225V330.612C246.225 330.069 246.089 329.655 245.818 329.369C245.547 329.076 245.176 328.929 244.707 328.929C244.238 328.929 243.864 329.076 243.585 329.369C243.314 329.655 243.178 330.069 243.178 330.612V334H241.924V327.939H243.178V328.632C243.383 328.383 243.644 328.188 243.959 328.049C244.282 327.91 244.623 327.84 244.982 327.84ZM250.531 328.962V332.317C250.531 332.544 250.582 332.709 250.685 332.812C250.795 332.907 250.978 332.955 251.235 332.955H252.005V334H251.015C250.45 334 250.017 333.868 249.717 333.604C249.416 333.34 249.266 332.911 249.266 332.317V328.962H248.551V327.939H249.266V326.432H250.531V327.939H252.005V328.962H250.531ZM261.507 327.939V334H260.253V333.285C260.055 333.534 259.795 333.732 259.472 333.879C259.157 334.018 258.819 334.088 258.46 334.088C257.983 334.088 257.554 333.989 257.173 333.791C256.799 333.593 256.502 333.3 256.282 332.911C256.069 332.522 255.963 332.053 255.963 331.503V327.939H257.206V331.316C257.206 331.859 257.342 332.277 257.613 332.57C257.884 332.856 258.255 332.999 258.724 332.999C259.193 332.999 259.564 332.856 259.835 332.57C260.114 332.277 260.253 331.859 260.253 331.316V327.939H261.507ZM265.361 334.099C264.885 334.099 264.456 334.015 264.074 333.846C263.7 333.67 263.403 333.435 263.183 333.142C262.963 332.841 262.846 332.508 262.831 332.141H264.129C264.151 332.398 264.272 332.614 264.492 332.79C264.72 332.959 265.002 333.043 265.339 333.043C265.691 333.043 265.963 332.977 266.153 332.845C266.351 332.706 266.45 332.53 266.45 332.317C266.45 332.09 266.34 331.921 266.12 331.811C265.908 331.701 265.567 331.58 265.097 331.448C264.643 331.323 264.272 331.202 263.986 331.085C263.7 330.968 263.451 330.788 263.238 330.546C263.033 330.304 262.93 329.985 262.93 329.589C262.93 329.266 263.026 328.973 263.216 328.709C263.407 328.438 263.678 328.225 264.03 328.071C264.39 327.917 264.8 327.84 265.262 327.84C265.952 327.84 266.505 328.016 266.923 328.368C267.349 328.713 267.576 329.186 267.605 329.787H266.351C266.329 329.516 266.219 329.299 266.021 329.138C265.823 328.977 265.556 328.896 265.218 328.896C264.888 328.896 264.635 328.958 264.459 329.083C264.283 329.208 264.195 329.373 264.195 329.578C264.195 329.739 264.254 329.875 264.371 329.985C264.489 330.095 264.632 330.183 264.8 330.249C264.969 330.308 265.218 330.385 265.548 330.48C265.988 330.597 266.348 330.718 266.626 330.843C266.912 330.96 267.158 331.136 267.363 331.371C267.569 331.606 267.675 331.917 267.682 332.306C267.682 332.651 267.587 332.959 267.396 333.23C267.206 333.501 266.934 333.714 266.582 333.868C266.238 334.022 265.831 334.099 265.361 334.099ZM269.675 327.136C269.448 327.136 269.257 327.059 269.103 326.905C268.949 326.751 268.872 326.56 268.872 326.333C268.872 326.106 268.949 325.915 269.103 325.761C269.257 325.607 269.448 325.53 269.675 325.53C269.895 325.53 270.082 325.607 270.236 325.761C270.39 325.915 270.467 326.106 270.467 326.333C270.467 326.56 270.39 326.751 270.236 326.905C270.082 327.059 269.895 327.136 269.675 327.136ZM270.291 327.939V334H269.037V327.939H270.291ZM274.996 327.84C275.472 327.84 275.898 327.939 276.272 328.137C276.653 328.335 276.95 328.628 277.163 329.017C277.375 329.406 277.482 329.875 277.482 330.425V334H276.239V330.612C276.239 330.069 276.103 329.655 275.832 329.369C275.56 329.076 275.19 328.929 274.721 328.929C274.251 328.929 273.877 329.076 273.599 329.369C273.327 329.655 273.192 330.069 273.192 330.612V334H271.938V327.939H273.192V328.632C273.397 328.383 273.657 328.188 273.973 328.049C274.295 327.91 274.636 327.84 274.996 327.84ZM281.523 327.84C281.993 327.84 282.407 327.935 282.766 328.126C283.133 328.309 283.419 328.54 283.624 328.819V327.939H284.889V334.099C284.889 334.656 284.772 335.151 284.537 335.584C284.303 336.024 283.962 336.369 283.514 336.618C283.074 336.867 282.546 336.992 281.93 336.992C281.109 336.992 280.427 336.798 279.884 336.409C279.342 336.028 279.034 335.507 278.96 334.847H280.203C280.299 335.162 280.5 335.415 280.808 335.606C281.124 335.804 281.498 335.903 281.93 335.903C282.436 335.903 282.843 335.749 283.151 335.441C283.467 335.133 283.624 334.686 283.624 334.099V333.087C283.412 333.373 283.122 333.615 282.755 333.813C282.396 334.004 281.985 334.099 281.523 334.099C280.995 334.099 280.511 333.967 280.071 333.703C279.639 333.432 279.294 333.058 279.037 332.581C278.788 332.097 278.663 331.551 278.663 330.942C278.663 330.333 278.788 329.794 279.037 329.325C279.294 328.856 279.639 328.493 280.071 328.236C280.511 327.972 280.995 327.84 281.523 327.84ZM283.624 330.964C283.624 330.546 283.536 330.183 283.36 329.875C283.192 329.567 282.968 329.332 282.689 329.171C282.411 329.01 282.11 328.929 281.787 328.929C281.465 328.929 281.164 329.01 280.885 329.171C280.607 329.325 280.379 329.556 280.203 329.864C280.035 330.165 279.95 330.524 279.95 330.942C279.95 331.36 280.035 331.727 280.203 332.042C280.379 332.357 280.607 332.599 280.885 332.768C281.171 332.929 281.472 333.01 281.787 333.01C282.11 333.01 282.411 332.929 282.689 332.768C282.968 332.607 283.192 332.372 283.36 332.064C283.536 331.749 283.624 331.382 283.624 330.964ZM296.731 327.84C297.208 327.84 297.633 327.939 298.007 328.137C298.388 328.335 298.685 328.628 298.898 329.017C299.118 329.406 299.228 329.875 299.228 330.425V334H297.985V330.612C297.985 330.069 297.849 329.655 297.578 329.369C297.307 329.076 296.936 328.929 296.467 328.929C295.998 328.929 295.624 329.076 295.345 329.369C295.074 329.655 294.938 330.069 294.938 330.612V334H293.695V330.612C293.695 330.069 293.559 329.655 293.288 329.369C293.017 329.076 292.646 328.929 292.177 328.929C291.708 328.929 291.334 329.076 291.055 329.369C290.784 329.655 290.648 330.069 290.648 330.612V334H289.394V327.939H290.648V328.632C290.853 328.383 291.114 328.188 291.429 328.049C291.744 327.91 292.082 327.84 292.441 327.84C292.925 327.84 293.358 327.943 293.739 328.148C294.12 328.353 294.414 328.65 294.619 329.039C294.802 328.672 295.088 328.383 295.477 328.17C295.866 327.95 296.284 327.84 296.731 327.84ZM300.406 330.942C300.406 330.333 300.53 329.794 300.78 329.325C301.036 328.856 301.381 328.493 301.814 328.236C302.254 327.972 302.738 327.84 303.266 327.84C303.742 327.84 304.157 327.935 304.509 328.126C304.868 328.309 305.154 328.54 305.367 328.819V327.939H306.632V334H305.367V333.098C305.154 333.384 304.864 333.622 304.498 333.813C304.131 334.004 303.713 334.099 303.244 334.099C302.723 334.099 302.246 333.967 301.814 333.703C301.381 333.432 301.036 333.058 300.78 332.581C300.53 332.097 300.406 331.551 300.406 330.942ZM305.367 330.964C305.367 330.546 305.279 330.183 305.103 329.875C304.934 329.567 304.71 329.332 304.432 329.171C304.153 329.01 303.852 328.929 303.53 328.929C303.207 328.929 302.906 329.01 302.628 329.171C302.349 329.325 302.122 329.556 301.946 329.864C301.777 330.165 301.693 330.524 301.693 330.942C301.693 331.36 301.777 331.727 301.946 332.042C302.122 332.357 302.349 332.599 302.628 332.768C302.914 332.929 303.214 333.01 303.53 333.01C303.852 333.01 304.153 332.929 304.432 332.768C304.71 332.607 304.934 332.372 305.103 332.064C305.279 331.749 305.367 331.382 305.367 330.964ZM311.337 327.84C311.813 327.84 312.239 327.939 312.613 328.137C312.994 328.335 313.291 328.628 313.504 329.017C313.716 329.406 313.823 329.875 313.823 330.425V334H312.58V330.612C312.58 330.069 312.444 329.655 312.173 329.369C311.901 329.076 311.531 328.929 311.062 328.929C310.592 328.929 310.218 329.076 309.94 329.369C309.668 329.655 309.533 330.069 309.533 330.612V334H308.279V327.939H309.533V328.632C309.738 328.383 309.998 328.188 310.314 328.049C310.636 327.91 310.977 327.84 311.337 327.84ZM320.878 327.939L317.16 336.849H315.862L317.094 333.901L314.707 327.939H316.104L317.809 332.559L319.58 327.939H320.878ZM324.264 330.942C324.264 330.333 324.389 329.794 324.638 329.325C324.895 328.856 325.239 328.493 325.672 328.236C326.112 327.972 326.6 327.84 327.135 327.84C327.531 327.84 327.92 327.928 328.301 328.104C328.69 328.273 328.998 328.5 329.225 328.786V325.86H330.49V334H329.225V333.087C329.02 333.38 328.734 333.622 328.367 333.813C328.008 334.004 327.593 334.099 327.124 334.099C326.596 334.099 326.112 333.967 325.672 333.703C325.239 333.432 324.895 333.058 324.638 332.581C324.389 332.097 324.264 331.551 324.264 330.942ZM329.225 330.964C329.225 330.546 329.137 330.183 328.961 329.875C328.792 329.567 328.569 329.332 328.29 329.171C328.011 329.01 327.711 328.929 327.388 328.929C327.065 328.929 326.765 329.01 326.486 329.171C326.207 329.325 325.98 329.556 325.804 329.864C325.635 330.165 325.551 330.524 325.551 330.942C325.551 331.36 325.635 331.727 325.804 332.042C325.98 332.357 326.207 332.599 326.486 332.768C326.772 332.929 327.073 333.01 327.388 333.01C327.711 333.01 328.011 332.929 328.29 332.768C328.569 332.607 328.792 332.372 328.961 332.064C329.137 331.749 329.225 331.382 329.225 330.964ZM333.391 328.819C333.574 328.511 333.816 328.273 334.117 328.104C334.425 327.928 334.788 327.84 335.206 327.84V329.138H334.887C334.396 329.138 334.022 329.263 333.765 329.512C333.516 329.761 333.391 330.194 333.391 330.81V334H332.137V327.939H333.391V328.819ZM335.941 330.942C335.941 330.333 336.065 329.794 336.315 329.325C336.571 328.856 336.916 328.493 337.349 328.236C337.789 327.972 338.273 327.84 338.801 327.84C339.277 327.84 339.692 327.935 340.044 328.126C340.403 328.309 340.689 328.54 340.902 328.819V327.939H342.167V334H340.902V333.098C340.689 333.384 340.399 333.622 340.033 333.813C339.666 334.004 339.248 334.099 338.779 334.099C338.258 334.099 337.781 333.967 337.349 333.703C336.916 333.432 336.571 333.058 336.315 332.581C336.065 332.097 335.941 331.551 335.941 330.942ZM340.902 330.964C340.902 330.546 340.814 330.183 340.638 329.875C340.469 329.567 340.245 329.332 339.967 329.171C339.688 329.01 339.387 328.929 339.065 328.929C338.742 328.929 338.441 329.01 338.163 329.171C337.884 329.325 337.657 329.556 337.481 329.864C337.312 330.165 337.228 330.524 337.228 330.942C337.228 331.36 337.312 331.727 337.481 332.042C337.657 332.357 337.884 332.599 338.163 332.768C338.449 332.929 338.749 333.01 339.065 333.01C339.387 333.01 339.688 332.929 339.967 332.768C340.245 332.607 340.469 332.372 340.638 332.064C340.814 331.749 340.902 331.382 340.902 330.964ZM351.954 327.939L350.073 334H348.753L347.532 329.523L346.311 334H344.991L343.099 327.939H344.375L345.64 332.812L346.927 327.939H348.236L349.468 332.79L350.722 327.939H351.954ZM353.529 327.136C353.302 327.136 353.111 327.059 352.957 326.905C352.803 326.751 352.726 326.56 352.726 326.333C352.726 326.106 352.803 325.915 352.957 325.761C353.111 325.607 353.302 325.53 353.529 325.53C353.749 325.53 353.936 325.607 354.09 325.761C354.244 325.915 354.321 326.106 354.321 326.333C354.321 326.56 354.244 326.751 354.09 326.905C353.936 327.059 353.749 327.136 353.529 327.136ZM354.145 327.939V334H352.891V327.939H354.145ZM358.849 327.84C359.326 327.84 359.751 327.939 360.125 328.137C360.507 328.335 360.804 328.628 361.016 329.017C361.229 329.406 361.335 329.875 361.335 330.425V334H360.092V330.612C360.092 330.069 359.957 329.655 359.685 329.369C359.414 329.076 359.044 328.929 358.574 328.929C358.105 328.929 357.731 329.076 357.452 329.369C357.181 329.655 357.045 330.069 357.045 330.612V334H355.791V327.939H357.045V328.632C357.251 328.383 357.511 328.188 357.826 328.049C358.149 327.91 358.49 327.84 358.849 327.84ZM365.377 327.84C365.846 327.84 366.261 327.935 366.62 328.126C366.987 328.309 367.273 328.54 367.478 328.819V327.939H368.743V334.099C368.743 334.656 368.626 335.151 368.391 335.584C368.156 336.024 367.815 336.369 367.368 336.618C366.928 336.867 366.4 336.992 365.784 336.992C364.963 336.992 364.281 336.798 363.738 336.409C363.195 336.028 362.887 335.507 362.814 334.847H364.057C364.152 335.162 364.354 335.415 364.662 335.606C364.977 335.804 365.351 335.903 365.784 335.903C366.29 335.903 366.697 335.749 367.005 335.441C367.32 335.133 367.478 334.686 367.478 334.099V333.087C367.265 333.373 366.976 333.615 366.609 333.813C366.25 334.004 365.839 334.099 365.377 334.099C364.849 334.099 364.365 333.967 363.925 333.703C363.492 333.432 363.148 333.058 362.891 332.581C362.642 332.097 362.517 331.551 362.517 330.942C362.517 330.333 362.642 329.794 362.891 329.325C363.148 328.856 363.492 328.493 363.925 328.236C364.365 327.972 364.849 327.84 365.377 327.84ZM367.478 330.964C367.478 330.546 367.39 330.183 367.214 329.875C367.045 329.567 366.822 329.332 366.543 329.171C366.264 329.01 365.964 328.929 365.641 328.929C365.318 328.929 365.018 329.01 364.739 329.171C364.46 329.325 364.233 329.556 364.057 329.864C363.888 330.165 363.804 330.524 363.804 330.942C363.804 331.36 363.888 331.727 364.057 332.042C364.233 332.357 364.46 332.599 364.739 332.768C365.025 332.929 365.326 333.01 365.641 333.01C365.964 333.01 366.264 332.929 366.543 332.768C366.822 332.607 367.045 332.372 367.214 332.064C367.39 331.749 367.478 331.382 367.478 330.964ZM374.71 328.962V332.317C374.71 332.544 374.762 332.709 374.864 332.812C374.974 332.907 375.158 332.955 375.414 332.955H376.184V334H375.194C374.63 334 374.197 333.868 373.896 333.604C373.596 333.34 373.445 332.911 373.445 332.317V328.962H372.73V327.939H373.445V326.432H374.71V327.939H376.184V328.962H374.71ZM379.969 334.099C379.397 334.099 378.88 333.971 378.418 333.714C377.956 333.45 377.593 333.083 377.329 332.614C377.065 332.137 376.933 331.587 376.933 330.964C376.933 330.348 377.069 329.802 377.34 329.325C377.611 328.848 377.982 328.482 378.451 328.225C378.92 327.968 379.445 327.84 380.024 327.84C380.603 327.84 381.128 327.968 381.597 328.225C382.066 328.482 382.437 328.848 382.708 329.325C382.979 329.802 383.115 330.348 383.115 330.964C383.115 331.58 382.976 332.126 382.697 332.603C382.418 333.08 382.037 333.45 381.553 333.714C381.076 333.971 380.548 334.099 379.969 334.099ZM379.969 333.01C380.292 333.01 380.592 332.933 380.871 332.779C381.157 332.625 381.388 332.394 381.564 332.086C381.74 331.778 381.828 331.404 381.828 330.964C381.828 330.524 381.744 330.154 381.575 329.853C381.406 329.545 381.183 329.314 380.904 329.16C380.625 329.006 380.325 328.929 380.002 328.929C379.679 328.929 379.379 329.006 379.1 329.16C378.829 329.314 378.612 329.545 378.451 329.853C378.29 330.154 378.209 330.524 378.209 330.964C378.209 331.617 378.374 332.123 378.704 332.482C379.041 332.834 379.463 333.01 379.969 333.01ZM386.984 334.099C386.412 334.099 385.895 333.971 385.433 333.714C384.971 333.45 384.608 333.083 384.344 332.614C384.08 332.137 383.948 331.587 383.948 330.964C383.948 330.348 384.083 329.802 384.355 329.325C384.626 328.848 384.996 328.482 385.466 328.225C385.935 327.968 386.459 327.84 387.039 327.84C387.618 327.84 388.142 327.968 388.612 328.225C389.081 328.482 389.451 328.848 389.723 329.325C389.994 329.802 390.13 330.348 390.13 330.964C390.13 331.58 389.99 332.126 389.712 332.603C389.433 333.08 389.052 333.45 388.568 333.714C388.091 333.971 387.563 334.099 386.984 334.099ZM386.984 333.01C387.306 333.01 387.607 332.933 387.886 332.779C388.172 332.625 388.403 332.394 388.579 332.086C388.755 331.778 388.843 331.404 388.843 330.964C388.843 330.524 388.758 330.154 388.59 329.853C388.421 329.545 388.197 329.314 387.919 329.16C387.64 329.006 387.339 328.929 387.017 328.929C386.694 328.929 386.393 329.006 386.115 329.16C385.843 329.314 385.627 329.545 385.466 329.853C385.304 330.154 385.224 330.524 385.224 330.964C385.224 331.617 385.389 332.123 385.719 332.482C386.056 332.834 386.478 333.01 386.984 333.01ZM392.623 325.86V334H391.369V325.86H392.623ZM396.47 334.099C395.993 334.099 395.564 334.015 395.183 333.846C394.809 333.67 394.512 333.435 394.292 333.142C394.072 332.841 393.954 332.508 393.94 332.141H395.238C395.26 332.398 395.381 332.614 395.601 332.79C395.828 332.959 396.11 333.043 396.448 333.043C396.8 333.043 397.071 332.977 397.262 332.845C397.46 332.706 397.559 332.53 397.559 332.317C397.559 332.09 397.449 331.921 397.229 331.811C397.016 331.701 396.675 331.58 396.206 331.448C395.751 331.323 395.381 331.202 395.095 331.085C394.809 330.968 394.559 330.788 394.347 330.546C394.141 330.304 394.039 329.985 394.039 329.589C394.039 329.266 394.134 328.973 394.325 328.709C394.515 328.438 394.787 328.225 395.139 328.071C395.498 327.917 395.909 327.84 396.371 327.84C397.06 327.84 397.614 328.016 398.032 328.368C398.457 328.713 398.684 329.186 398.714 329.787H397.46C397.438 329.516 397.328 329.299 397.13 329.138C396.932 328.977 396.664 328.896 396.327 328.896C395.997 328.896 395.744 328.958 395.568 329.083C395.392 329.208 395.304 329.373 395.304 329.578C395.304 329.739 395.362 329.875 395.48 329.985C395.597 330.095 395.74 330.183 395.909 330.249C396.077 330.308 396.327 330.385 396.657 330.48C397.097 330.597 397.456 330.718 397.735 330.843C398.021 330.96 398.266 331.136 398.472 331.371C398.677 331.606 398.783 331.917 398.791 332.306C398.791 332.651 398.695 332.959 398.505 333.23C398.314 333.501 398.043 333.714 397.691 333.868C397.346 334.022 396.939 334.099 396.47 334.099ZM401.719 326.355L401.576 331.69H400.531L400.388 326.355H401.719ZM401.092 334.077C400.864 334.077 400.674 334 400.52 333.846C400.366 333.692 400.289 333.501 400.289 333.274C400.289 333.047 400.366 332.856 400.52 332.702C400.674 332.548 400.864 332.471 401.092 332.471C401.312 332.471 401.499 332.548 401.653 332.702C401.807 332.856 401.884 333.047 401.884 333.274C401.884 333.501 401.807 333.692 401.653 333.846C401.499 334 401.312 334.077 401.092 334.077Z"></path>
<defs>
<linearGradient gradientUnits="userSpaceOnUse" y2="202.799" x2="119.598" y1="175.599" x1="98.7982" id="paint0_linear_930_2">
<stop stop-color="#50E6FF"></stop>
<stop stop-color="#0270C2" offset="1"></stop>
</linearGradient>
<linearGradient gradientUnits="userSpaceOnUse" y2="191.598" x2="98.798" y1="188.398" x1="95.598" id="paint1_linear_930_2">
<stop stop-color="#E25113"></stop>
<stop stop-color="#C7390A" offset="1"></stop>
</linearGradient>
<linearGradient gradientUnits="userSpaceOnUse" y2="183.598" x2="103.599" y1="180.398" x1="100.399" id="paint2_linear_930_2">
<stop stop-color="#55B50E"></stop>
<stop stop-color="#1C8610" offset="1"></stop>
</linearGradient>
<linearGradient gradientUnits="userSpaceOnUse" y2="180.399" x2="111.599" y1="177.199" x1="108.399" id="paint3_linear_930_2">
<stop stop-color="#FFD300"></stop>
<stop stop-color="#F39808" offset="1"></stop>
</linearGradient>
<linearGradient gradientUnits="userSpaceOnUse" y2="189.999" x2="121.198" y1="189.999" x1="116.398" id="paint4_linear_930_2">
<stop stop-color="#AA6701"></stop>
<stop stop-color="#814406" offset="1"></stop>
</linearGradient>
<linearGradient gradientUnits="userSpaceOnUse" y2="189.999" x2="121.198" y1="189.999" x1="116.398" id="paint5_linear_930_2">
<stop stop-color="#CAD2D9"></stop>
<stop stop-color="#939BA2" offset="1"></stop>
</linearGradient>
<linearGradient gradientUnits="userSpaceOnUse" y2="188.399" x2="121.198" y1="181.999" x1="114.798" id="paint6_linear_930_2">
<stop stop-color="#F7DEAA"></stop>
<stop stop-color="#C3935E" offset="1"></stop>
</linearGradient>
</defs>
</svg>
