<svg xmlns="http://www.w3.org/2000/svg" fill="none" viewBox="0 0 114 37" height="37" width="114">
<rect fill-opacity="0.05" fill="white" rx="5" height="37" width="114"></rect>
<path fill="white" d="M57.0841 16.445C56.8568 16.445 56.6661 16.368 56.5121 16.214C56.3581 16.06 56.2811 15.8693 56.2811 15.642C56.2811 15.4147 56.3581 15.224 56.5121 15.07C56.6661 14.916 56.8568 14.839 57.0841 14.839C57.3041 14.839 57.4911 14.916 57.6451 15.07C57.7991 15.224 57.8761 15.4147 57.8761 15.642C57.8761 15.8693 57.7991 16.06 57.6451 16.214C57.4911 16.368 57.3041 16.445 57.0841 16.445ZM59.8671 17.49V18.546H54.2571V17.49H59.8671ZM57.0841 21.175C56.8568 21.175 56.6661 21.098 56.5121 20.944C56.3581 20.79 56.2811 20.5993 56.2811 20.372C56.2811 20.1447 56.3581 19.954 56.5121 19.8C56.6661 19.646 56.8568 19.569 57.0841 19.569C57.3041 19.569 57.4911 19.646 57.6451 19.8C57.7991 19.954 57.8761 20.1447 57.8761 20.372C57.8761 20.5993 57.7991 20.79 57.6451 20.944C57.4911 21.098 57.3041 21.175 57.0841 21.175Z"></path>
</svg>
