<svg xmlns="http://www.w3.org/2000/svg" fill="none" viewBox="0 0 240 90" height="90" width="240">
<path fill-opacity="0.9" fill="#E6E6E6" d="M35 30C35 24.4772 39.4772 20 45 20H195C200.523 20 205 24.4772 205 30V60C205 65.5228 200.523 70 195 70H45C39.4772 70 35 65.5228 35 60V30Z"></path>
<path stroke-width="2" stroke-opacity="0.2" stroke="black" d="M195 19H45C38.9249 19 34 23.9249 34 30V60C34 66.0751 38.9249 71 45 71H195C201.075 71 206 66.0751 206 60V30C206 23.9249 201.075 19 195 19Z"></path>
<path fill="black" d="M88.648 49.084C88.088 49.084 87.584 48.988 87.136 48.796C86.688 48.596 86.336 48.316 86.08 47.956C85.824 47.596 85.696 47.176 85.696 46.696H87.16C87.192 47.056 87.332 47.352 87.58 47.584C87.836 47.816 88.192 47.932 88.648 47.932C89.12 47.932 89.488 47.82 89.752 47.596C90.016 47.364 90.148 47.068 90.148 46.708C90.148 46.428 90.064 46.2 89.896 46.024C89.736 45.848 89.532 45.712 89.284 45.616C89.044 45.52 88.708 45.416 88.276 45.304C87.732 45.16 87.288 45.016 86.944 44.872C86.608 44.72 86.32 44.488 86.08 44.176C85.84 43.864 85.72 43.448 85.72 42.928C85.72 42.448 85.84 42.028 86.08 41.668C86.32 41.308 86.656 41.032 87.088 40.84C87.52 40.648 88.02 40.552 88.588 40.552C89.396 40.552 90.056 40.756 90.568 41.164C91.088 41.564 91.376 42.116 91.432 42.82H89.92C89.896 42.516 89.752 42.256 89.488 42.04C89.224 41.824 88.876 41.716 88.444 41.716C88.052 41.716 87.732 41.816 87.484 42.016C87.236 42.216 87.112 42.504 87.112 42.88C87.112 43.136 87.188 43.348 87.34 43.516C87.5 43.676 87.7 43.804 87.94 43.9C88.18 43.996 88.508 44.1 88.924 44.212C89.476 44.364 89.924 44.516 90.268 44.668C90.62 44.82 90.916 45.056 91.156 45.376C91.404 45.688 91.528 46.108 91.528 46.636C91.528 47.06 91.412 47.46 91.18 47.836C90.956 48.212 90.624 48.516 90.184 48.748C89.752 48.972 89.24 49.084 88.648 49.084ZM99.0942 42.388L95.0382 52.108H93.6222L94.9662 48.892L92.3622 42.388H93.8862L95.7462 47.428L97.6782 42.388H99.0942ZM102.527 49.108C102.007 49.108 101.539 49.016 101.123 48.832C100.715 48.64 100.391 48.384 100.151 48.064C99.9106 47.736 99.7826 47.372 99.7666 46.972H101.183C101.207 47.252 101.339 47.488 101.579 47.68C101.827 47.864 102.135 47.956 102.503 47.956C102.887 47.956 103.183 47.884 103.391 47.74C103.607 47.588 103.715 47.396 103.715 47.164C103.715 46.916 103.595 46.732 103.355 46.612C103.123 46.492 102.751 46.36 102.239 46.216C101.743 46.08 101.339 45.948 101.027 45.82C100.715 45.692 100.443 45.496 100.211 45.232C99.9866 44.968 99.8746 44.62 99.8746 44.188C99.8746 43.836 99.9786 43.516 100.187 43.228C100.395 42.932 100.691 42.7 101.075 42.532C101.467 42.364 101.915 42.28 102.419 42.28C103.171 42.28 103.775 42.472 104.231 42.856C104.695 43.232 104.943 43.748 104.975 44.404H103.607C103.583 44.108 103.463 43.872 103.247 43.696C103.031 43.52 102.739 43.432 102.371 43.432C102.011 43.432 101.735 43.5 101.543 43.636C101.351 43.772 101.255 43.952 101.255 44.176C101.255 44.352 101.319 44.5 101.447 44.62C101.575 44.74 101.731 44.836 101.915 44.908C102.099 44.972 102.371 45.056 102.731 45.16C103.211 45.288 103.603 45.42 103.907 45.556C104.219 45.684 104.487 45.876 104.711 46.132C104.935 46.388 105.051 46.728 105.059 47.152C105.059 47.528 104.955 47.864 104.747 48.16C104.539 48.456 104.243 48.688 103.859 48.856C103.483 49.024 103.039 49.108 102.527 49.108ZM108.133 43.504V47.164C108.133 47.412 108.189 47.592 108.301 47.704C108.421 47.808 108.621 47.86 108.901 47.86H109.741V49H108.661C108.045 49 107.573 48.856 107.245 48.568C106.917 48.28 106.753 47.812 106.753 47.164V43.504H105.973V42.388H106.753V40.744H108.133V42.388H109.741V43.504H108.133ZM117.062 45.532C117.062 45.78 117.046 46.004 117.014 46.204H111.962C112.002 46.732 112.198 47.156 112.55 47.476C112.902 47.796 113.334 47.956 113.846 47.956C114.582 47.956 115.102 47.648 115.406 47.032H116.882C116.682 47.64 116.318 48.14 115.79 48.532C115.27 48.916 114.622 49.108 113.846 49.108C113.214 49.108 112.646 48.968 112.142 48.688C111.646 48.4 111.254 48 110.966 47.488C110.686 46.968 110.546 46.368 110.546 45.688C110.546 45.008 110.682 44.412 110.954 43.9C111.234 43.38 111.622 42.98 112.118 42.7C112.622 42.42 113.198 42.28 113.846 42.28C114.47 42.28 115.026 42.416 115.514 42.688C116.002 42.96 116.382 43.344 116.654 43.84C116.926 44.328 117.062 44.892 117.062 45.532ZM115.634 45.1C115.626 44.596 115.446 44.192 115.094 43.888C114.742 43.584 114.306 43.432 113.786 43.432C113.314 43.432 112.91 43.584 112.574 43.888C112.238 44.184 112.038 44.588 111.974 45.1H115.634ZM126.412 42.28C126.932 42.28 127.396 42.388 127.804 42.604C128.22 42.82 128.544 43.14 128.776 43.564C129.016 43.988 129.136 44.5 129.136 45.1V49H127.78V45.304C127.78 44.712 127.632 44.26 127.336 43.948C127.04 43.628 126.636 43.468 126.124 43.468C125.612 43.468 125.204 43.628 124.9 43.948C124.604 44.26 124.456 44.712 124.456 45.304V49H123.1V45.304C123.1 44.712 122.952 44.26 122.656 43.948C122.36 43.628 121.956 43.468 121.444 43.468C120.932 43.468 120.524 43.628 120.22 43.948C119.924 44.26 119.776 44.712 119.776 45.304V49H118.408V42.388H119.776V43.144C120 42.872 120.284 42.66 120.628 42.508C120.972 42.356 121.34 42.28 121.732 42.28C122.26 42.28 122.732 42.392 123.148 42.616C123.564 42.84 123.884 43.164 124.108 43.588C124.308 43.188 124.62 42.872 125.044 42.64C125.468 42.4 125.924 42.28 126.412 42.28ZM142.778 40.66V49H141.41V43.288L138.866 49H137.918L135.362 43.288V49H133.994V40.66H135.47L138.398 47.2L141.314 40.66H142.778ZM147.444 49.108C146.82 49.108 146.256 48.968 145.752 48.688C145.248 48.4 144.852 48 144.564 47.488C144.276 46.968 144.132 46.368 144.132 45.688C144.132 45.016 144.28 44.42 144.576 43.9C144.872 43.38 145.276 42.98 145.788 42.7C146.3 42.42 146.872 42.28 147.504 42.28C148.136 42.28 148.708 42.42 149.22 42.7C149.732 42.98 150.136 43.38 150.432 43.9C150.728 44.42 150.876 45.016 150.876 45.688C150.876 46.36 150.724 46.956 150.42 47.476C150.116 47.996 149.7 48.4 149.172 48.688C148.652 48.968 148.076 49.108 147.444 49.108ZM147.444 47.92C147.796 47.92 148.124 47.836 148.428 47.668C148.74 47.5 148.992 47.248 149.184 46.912C149.376 46.576 149.472 46.168 149.472 45.688C149.472 45.208 149.38 44.804 149.196 44.476C149.012 44.14 148.768 43.888 148.464 43.72C148.16 43.552 147.832 43.468 147.48 43.468C147.128 43.468 146.8 43.552 146.496 43.72C146.2 43.888 145.964 44.14 145.788 44.476C145.612 44.804 145.524 45.208 145.524 45.688C145.524 46.4 145.704 46.952 146.064 47.344C146.432 47.728 146.892 47.92 147.444 47.92ZM155.564 42.28C156.084 42.28 156.548 42.388 156.956 42.604C157.372 42.82 157.696 43.14 157.928 43.564C158.16 43.988 158.276 44.5 158.276 45.1V49H156.92V45.304C156.92 44.712 156.772 44.26 156.476 43.948C156.18 43.628 155.776 43.468 155.264 43.468C154.752 43.468 154.344 43.628 154.04 43.948C153.744 44.26 153.596 44.712 153.596 45.304V49H152.228V42.388H153.596V43.144C153.82 42.872 154.104 42.66 154.448 42.508C154.8 42.356 155.172 42.28 155.564 42.28ZM160.717 41.512C160.469 41.512 160.261 41.428 160.093 41.26C159.925 41.092 159.841 40.884 159.841 40.636C159.841 40.388 159.925 40.18 160.093 40.012C160.261 39.844 160.469 39.76 160.717 39.76C160.957 39.76 161.161 39.844 161.329 40.012C161.497 40.18 161.581 40.388 161.581 40.636C161.581 40.884 161.497 41.092 161.329 41.26C161.161 41.428 160.957 41.512 160.717 41.512ZM161.389 42.388V49H160.021V42.388H161.389ZM164.781 43.504V47.164C164.781 47.412 164.837 47.592 164.949 47.704C165.069 47.808 165.269 47.86 165.549 47.86H166.389V49H165.309C164.693 49 164.221 48.856 163.893 48.568C163.565 48.28 163.401 47.812 163.401 47.164V43.504H162.621V42.388H163.401V40.744H164.781V42.388H166.389V43.504H164.781ZM170.518 49.108C169.894 49.108 169.33 48.968 168.826 48.688C168.322 48.4 167.926 48 167.638 47.488C167.35 46.968 167.206 46.368 167.206 45.688C167.206 45.016 167.354 44.42 167.65 43.9C167.946 43.38 168.35 42.98 168.862 42.7C169.374 42.42 169.946 42.28 170.578 42.28C171.21 42.28 171.782 42.42 172.294 42.7C172.806 42.98 173.21 43.38 173.506 43.9C173.802 44.42 173.95 45.016 173.95 45.688C173.95 46.36 173.798 46.956 173.494 47.476C173.19 47.996 172.774 48.4 172.246 48.688C171.726 48.968 171.15 49.108 170.518 49.108ZM170.518 47.92C170.87 47.92 171.198 47.836 171.502 47.668C171.814 47.5 172.066 47.248 172.258 46.912C172.45 46.576 172.546 46.168 172.546 45.688C172.546 45.208 172.454 44.804 172.27 44.476C172.086 44.14 171.842 43.888 171.538 43.72C171.234 43.552 170.906 43.468 170.554 43.468C170.202 43.468 169.874 43.552 169.57 43.72C169.274 43.888 169.038 44.14 168.862 44.476C168.686 44.804 168.598 45.208 168.598 45.688C168.598 46.4 168.778 46.952 169.138 47.344C169.506 47.728 169.966 47.92 170.518 47.92ZM176.67 43.348C176.87 43.012 177.134 42.752 177.462 42.568C177.798 42.376 178.194 42.28 178.65 42.28V43.696H178.302C177.766 43.696 177.358 43.832 177.078 44.104C176.806 44.376 176.67 44.848 176.67 45.52V49H175.302V42.388H176.67V43.348Z"></path>
<path stroke-width="0.2" stroke="url(#paint1_linear_1006_39)" fill="url(#paint0_linear_1006_39)" d="M57.9231 37.0386L55.8462 37.7309L60 45.0001L64.1539 37.7309L62.077 37.0386V37.0386C61.4361 39.0681 58.564 39.0681 57.9231 37.0386V37.0386Z"></path>
<path stroke-width="0.2" stroke="url(#paint3_linear_1006_39)" fill="url(#paint2_linear_1006_39)" d="M62.0769 52.9614L64.1538 52.2691L60 44.9999L55.8461 52.2691L57.923 52.9614V52.9614C58.5639 50.9319 61.436 50.9319 62.0769 52.9614V52.9614Z"></path>
<path stroke-width="0.2" stroke="url(#paint5_linear_1006_39)" fill="url(#paint4_linear_1006_39)" d="M65.8563 39.2205L64.2183 37.768L59.9999 45L68.3722 44.9627L67.9333 42.8179V42.8179C65.8552 43.2776 64.4192 40.7904 65.8563 39.2205V39.2205Z"></path>
<path stroke-width="0.2" stroke="url(#paint7_linear_1006_39)" fill="url(#paint6_linear_1006_39)" d="M54.1437 50.7795L55.7817 52.232L60.0001 45L51.6278 45.0373L52.0667 47.1821V47.1821C54.1448 46.7224 55.5808 49.2096 54.1437 50.7795V50.7795Z"></path>
<path stroke-width="0.2" stroke="url(#paint9_linear_1006_39)" fill="url(#paint8_linear_1006_39)" d="M52.0663 42.818L51.6274 44.9629L59.9996 45.0001L55.7812 37.7682L54.1432 39.2207V39.2207C55.5804 40.7905 54.1444 43.2778 52.0663 42.818V42.818Z"></path>
<path stroke-width="0.2" stroke="url(#paint11_linear_1006_39)" fill="url(#paint10_linear_1006_39)" d="M67.9332 47.182L68.3721 45.0371L59.9999 44.9999L64.2183 52.2318L65.8563 50.7793V50.7793C64.4191 49.2095 65.8551 46.7222 67.9332 47.182V47.182Z"></path>
<rect stroke-width="1.38462" stroke="url(#paint13_linear_1006_39)" fill="url(#paint12_linear_1006_39)" rx="3.46154" height="6.92308" width="6.92308" y="41.5385" x="56.5385"></rect>
<defs>
<linearGradient gradientUnits="userSpaceOnUse" y2="53.3078" x2="68.3077" y1="36.6924" x1="51.6923" id="paint0_linear_1006_39">
<stop stop-color="#8A9199"></stop>
<stop stop-color="#66737D" offset="1"></stop>
</linearGradient>
<linearGradient gradientUnits="userSpaceOnUse" y2="53.3078" x2="68.3077" y1="36.6924" x1="51.6923" id="paint1_linear_1006_39">
<stop stop-color="#8A9199"></stop>
<stop stop-color="#66737D" offset="1"></stop>
</linearGradient>
<linearGradient gradientUnits="userSpaceOnUse" y2="53.3076" x2="68.3077" y1="36.6922" x1="51.6923" id="paint2_linear_1006_39">
<stop stop-color="#8A9199"></stop>
<stop stop-color="#66737D" offset="1"></stop>
</linearGradient>
<linearGradient gradientUnits="userSpaceOnUse" y2="53.3076" x2="68.3077" y1="36.6922" x1="51.6923" id="paint3_linear_1006_39">
<stop stop-color="#8A9199"></stop>
<stop stop-color="#66737D" offset="1"></stop>
</linearGradient>
<linearGradient gradientUnits="userSpaceOnUse" y2="53.3077" x2="68.3076" y1="36.6923" x1="51.6922" id="paint4_linear_1006_39">
<stop stop-color="#8A9199"></stop>
<stop stop-color="#66737D" offset="1"></stop>
</linearGradient>
<linearGradient gradientUnits="userSpaceOnUse" y2="53.3077" x2="68.3076" y1="36.6923" x1="51.6922" id="paint5_linear_1006_39">
<stop stop-color="#8A9199"></stop>
<stop stop-color="#66737D" offset="1"></stop>
</linearGradient>
<linearGradient gradientUnits="userSpaceOnUse" y2="53.3077" x2="68.3078" y1="36.6923" x1="51.6924" id="paint6_linear_1006_39">
<stop stop-color="#8A9199"></stop>
<stop stop-color="#66737D" offset="1"></stop>
</linearGradient>
<linearGradient gradientUnits="userSpaceOnUse" y2="53.3077" x2="68.3078" y1="36.6923" x1="51.6924" id="paint7_linear_1006_39">
<stop stop-color="#8A9199"></stop>
<stop stop-color="#66737D" offset="1"></stop>
</linearGradient>
<linearGradient gradientUnits="userSpaceOnUse" y2="53.3078" x2="68.3073" y1="36.6924" x1="51.692" id="paint8_linear_1006_39">
<stop stop-color="#8A9199"></stop>
<stop stop-color="#66737D" offset="1"></stop>
</linearGradient>
<linearGradient gradientUnits="userSpaceOnUse" y2="53.3078" x2="68.3073" y1="36.6924" x1="51.692" id="paint9_linear_1006_39">
<stop stop-color="#8A9199"></stop>
<stop stop-color="#66737D" offset="1"></stop>
</linearGradient>
<linearGradient gradientUnits="userSpaceOnUse" y2="53.3076" x2="68.3076" y1="36.6922" x1="51.6922" id="paint10_linear_1006_39">
<stop stop-color="#8A9199"></stop>
<stop stop-color="#66737D" offset="1"></stop>
</linearGradient>
<linearGradient gradientUnits="userSpaceOnUse" y2="53.3076" x2="68.3076" y1="36.6922" x1="51.6922" id="paint11_linear_1006_39">
<stop stop-color="#8A9199"></stop>
<stop stop-color="#66737D" offset="1"></stop>
</linearGradient>
<linearGradient gradientUnits="userSpaceOnUse" y2="47.077" x2="62.077" y1="42.9231" x1="57.9231" id="paint12_linear_1006_39">
<stop stop-color="#0669BC"></stop>
<stop stop-color="#0F4F93" offset="1"></stop>
</linearGradient>
<linearGradient gradientUnits="userSpaceOnUse" y2="48.1154" x2="62.7693" y1="42.2308" x1="56.8847" id="paint13_linear_1006_39">
<stop stop-color="#BEC4C9"></stop>
<stop stop-color="#F7F7F8" offset="1"></stop>
</linearGradient>
</defs>
</svg>
