<svg xmlns="http://www.w3.org/2000/svg" fill="none" viewBox="0 0 480 180" height="180" width="480">
<path fill-opacity="0.9" fill="#1A1A1A" d="M50 30C50 24.4772 54.4772 20 60 20H420C425.523 20 430 24.4772 430 30V150C430 155.523 425.523 160 420 160H60C54.4772 160 50 155.523 50 150V30Z"></path>
<path stroke-width="2" stroke-opacity="0.2" stroke="white" d="M60 19C53.9249 19 49 23.9249 49 30V150C49 156.075 53.9249 161 60 161H420C426.075 161 431 156.075 431 150V30C431 23.9249 426.075 19 420 19H60Z"></path>
<path fill="white" d="M115.418 41.355V42.378H113.383V49H112.129V42.378H110.083V41.355H115.418ZM117.326 42.136C117.099 42.136 116.908 42.059 116.754 41.905C116.6 41.751 116.523 41.5603 116.523 41.333C116.523 41.1057 116.6 40.915 116.754 40.761C116.908 40.607 117.099 40.53 117.326 40.53C117.546 40.53 117.733 40.607 117.887 40.761C118.041 40.915 118.118 41.1057 118.118 41.333C118.118 41.5603 118.041 41.751 117.887 41.905C117.733 42.059 117.546 42.136 117.326 42.136ZM117.942 42.939V49H116.688V42.939H117.942ZM122.647 42.84C123.123 42.84 123.549 42.939 123.923 43.137C124.304 43.335 124.601 43.6283 124.814 44.017C125.026 44.4057 125.133 44.875 125.133 45.425V49H123.89V45.612C123.89 45.0693 123.754 44.655 123.483 44.369C123.211 44.0757 122.841 43.929 122.372 43.929C121.902 43.929 121.528 44.0757 121.25 44.369C120.978 44.655 120.843 45.0693 120.843 45.612V49H119.589V42.939H120.843V43.632C121.048 43.3827 121.308 43.1883 121.624 43.049C121.946 42.9097 122.287 42.84 122.647 42.84ZM128.195 43.962V47.317C128.195 47.5443 128.247 47.7093 128.349 47.812C128.459 47.9073 128.643 47.955 128.899 47.955H129.669V49H128.679C128.115 49 127.682 48.868 127.381 48.604C127.081 48.34 126.93 47.911 126.93 47.317V43.962H126.215V42.939H126.93V41.432H128.195V42.939H129.669V43.962H128.195Z"></path>
<path fill="white" d="M76.4902 75.073C76.9009 75.1463 77.2492 75.3627 77.5352 75.722C77.8212 76.0813 77.9642 76.4883 77.9642 76.943C77.9642 77.3317 77.8616 77.6837 77.6562 77.999C77.4582 78.307 77.1686 78.5527 76.7872 78.736C76.4059 78.912 75.9622 79 75.4562 79H72.3982V71.355H75.3132C75.8339 71.355 76.2812 71.443 76.6552 71.619C77.0292 71.795 77.3116 72.0333 77.5022 72.334C77.6929 72.6273 77.7882 72.9573 77.7882 73.324C77.7882 73.764 77.6709 74.1307 77.4362 74.424C77.2016 74.7173 76.8862 74.9337 76.4902 75.073ZM73.6522 74.567H75.2032C75.6139 74.567 75.9329 74.4753 76.1602 74.292C76.3949 74.1013 76.5122 73.83 76.5122 73.478C76.5122 73.1333 76.3949 72.8657 76.1602 72.675C75.9329 72.477 75.6139 72.378 75.2032 72.378H73.6522V74.567ZM75.3462 77.977C75.7716 77.977 76.1052 77.8743 76.3472 77.669C76.5892 77.4637 76.7102 77.1777 76.7102 76.811C76.7102 76.437 76.5819 76.14 76.3252 75.92C76.0686 75.7 75.7276 75.59 75.3022 75.59H73.6522V77.977H75.3462ZM80.581 73.819C80.7643 73.511 81.0063 73.2727 81.307 73.104C81.615 72.928 81.978 72.84 82.396 72.84V74.138H82.077C81.5856 74.138 81.2116 74.2627 80.955 74.512C80.7056 74.7613 80.581 75.194 80.581 75.81V79H79.327V72.939H80.581V73.819ZM84.1866 72.136C83.9593 72.136 83.7686 72.059 83.6146 71.905C83.4606 71.751 83.3836 71.5603 83.3836 71.333C83.3836 71.1057 83.4606 70.915 83.6146 70.761C83.7686 70.607 83.9593 70.53 84.1866 70.53C84.4066 70.53 84.5936 70.607 84.7476 70.761C84.9016 70.915 84.9786 71.1057 84.9786 71.333C84.9786 71.5603 84.9016 71.751 84.7476 71.905C84.5936 72.059 84.4066 72.136 84.1866 72.136ZM84.8026 72.939V79H83.5486V72.939H84.8026ZM88.891 72.84C89.3604 72.84 89.7747 72.9353 90.134 73.126C90.5007 73.3093 90.7867 73.5403 90.992 73.819V72.939H92.257V79.099C92.257 79.6563 92.1397 80.1513 91.905 80.584C91.6704 81.024 91.3294 81.3687 90.882 81.618C90.442 81.8673 89.914 81.992 89.298 81.992C88.4767 81.992 87.7947 81.7977 87.252 81.409C86.7094 81.0277 86.4014 80.507 86.328 79.847H87.571C87.6664 80.1623 87.868 80.4153 88.176 80.606C88.4914 80.804 88.8654 80.903 89.298 80.903C89.804 80.903 90.211 80.749 90.519 80.441C90.8344 80.133 90.992 79.6857 90.992 79.099V78.087C90.7794 78.373 90.4897 78.615 90.123 78.813C89.7637 79.0037 89.353 79.099 88.891 79.099C88.363 79.099 87.879 78.967 87.439 78.703C87.0064 78.4317 86.6617 78.0577 86.405 77.581C86.1557 77.097 86.031 76.5507 86.031 75.942C86.031 75.3333 86.1557 74.7943 86.405 74.325C86.6617 73.8557 87.0064 73.4927 87.439 73.236C87.879 72.972 88.363 72.84 88.891 72.84ZM90.992 75.964C90.992 75.546 90.904 75.183 90.728 74.875C90.5594 74.567 90.3357 74.3323 90.057 74.171C89.7784 74.0097 89.4777 73.929 89.155 73.929C88.8324 73.929 88.5317 74.0097 88.253 74.171C87.9744 74.325 87.747 74.556 87.571 74.864C87.4024 75.1647 87.318 75.524 87.318 75.942C87.318 76.36 87.4024 76.7267 87.571 77.042C87.747 77.3573 87.9744 77.5993 88.253 77.768C88.539 77.9293 88.8397 78.01 89.155 78.01C89.4777 78.01 89.7784 77.9293 90.057 77.768C90.3357 77.6067 90.5594 77.372 90.728 77.064C90.904 76.7487 90.992 76.382 90.992 75.964ZM97.0391 72.84C97.5011 72.84 97.9118 72.939 98.2711 73.137C98.6378 73.335 98.9238 73.6283 99.1291 74.017C99.3418 74.4057 99.4481 74.875 99.4481 75.425V79H98.2051V75.612C98.2051 75.0693 98.0694 74.655 97.7981 74.369C97.5268 74.0757 97.1564 73.929 96.6871 73.929C96.2178 73.929 95.8438 74.0757 95.5651 74.369C95.2938 74.655 95.1581 75.0693 95.1581 75.612V79H93.9041V70.86H95.1581V73.643C95.3708 73.3863 95.6384 73.1883 95.9611 73.049C96.2911 72.9097 96.6504 72.84 97.0391 72.84ZM102.511 73.962V77.317C102.511 77.5443 102.562 77.7093 102.665 77.812C102.775 77.9073 102.958 77.955 103.215 77.955H103.985V79H102.995C102.43 79 101.997 78.868 101.697 78.604C101.396 78.34 101.246 77.911 101.246 77.317V73.962H100.531V72.939H101.246V71.432H102.511V72.939H103.985V73.962H102.511ZM108.198 72.84C108.675 72.84 109.1 72.939 109.474 73.137C109.856 73.335 110.153 73.6283 110.365 74.017C110.578 74.4057 110.684 74.875 110.684 75.425V79H109.441V75.612C109.441 75.0693 109.306 74.655 109.034 74.369C108.763 74.0757 108.393 73.929 107.923 73.929C107.454 73.929 107.08 74.0757 106.801 74.369C106.53 74.655 106.394 75.0693 106.394 75.612V79H105.14V72.939H106.394V73.632C106.6 73.3827 106.86 73.1883 107.175 73.049C107.498 72.9097 107.839 72.84 108.198 72.84ZM117.839 75.821C117.839 76.0483 117.824 76.2537 117.795 76.437H113.164C113.201 76.921 113.38 77.3097 113.703 77.603C114.026 77.8963 114.422 78.043 114.891 78.043C115.566 78.043 116.042 77.7607 116.321 77.196H117.674C117.491 77.7533 117.157 78.2117 116.673 78.571C116.196 78.923 115.602 79.099 114.891 79.099C114.312 79.099 113.791 78.9707 113.329 78.714C112.874 78.45 112.515 78.0833 112.251 77.614C111.994 77.1373 111.866 76.5873 111.866 75.964C111.866 75.3407 111.991 74.7943 112.24 74.325C112.497 73.8483 112.852 73.4817 113.307 73.225C113.769 72.9683 114.297 72.84 114.891 72.84C115.463 72.84 115.973 72.9647 116.42 73.214C116.867 73.4633 117.216 73.8153 117.465 74.27C117.714 74.7173 117.839 75.2343 117.839 75.821ZM116.53 75.425C116.523 74.963 116.358 74.5927 116.035 74.314C115.712 74.0353 115.313 73.896 114.836 73.896C114.403 73.896 114.033 74.0353 113.725 74.314C113.417 74.5853 113.234 74.9557 113.175 75.425H116.53ZM121.273 79.099C120.796 79.099 120.367 79.0147 119.986 78.846C119.612 78.67 119.315 78.4353 119.095 78.142C118.875 77.8413 118.758 77.5077 118.743 77.141H120.041C120.063 77.3977 120.184 77.614 120.404 77.79C120.631 77.9587 120.914 78.043 121.251 78.043C121.603 78.043 121.874 77.977 122.065 77.845C122.263 77.7057 122.362 77.5297 122.362 77.317C122.362 77.0897 122.252 76.921 122.032 76.811C121.819 76.701 121.478 76.58 121.009 76.448C120.554 76.3233 120.184 76.2023 119.898 76.085C119.612 75.9677 119.363 75.788 119.15 75.546C118.945 75.304 118.842 74.985 118.842 74.589C118.842 74.2663 118.937 73.973 119.128 73.709C119.319 73.4377 119.59 73.225 119.942 73.071C120.301 72.917 120.712 72.84 121.174 72.84C121.863 72.84 122.417 73.016 122.835 73.368C123.26 73.7127 123.488 74.1857 123.517 74.787H122.263C122.241 74.5157 122.131 74.2993 121.933 74.138C121.735 73.9767 121.467 73.896 121.13 73.896C120.8 73.896 120.547 73.9583 120.371 74.083C120.195 74.2077 120.107 74.3727 120.107 74.578C120.107 74.7393 120.166 74.875 120.283 74.985C120.4 75.095 120.543 75.183 120.712 75.249C120.881 75.3077 121.13 75.3847 121.46 75.48C121.9 75.5973 122.259 75.7183 122.538 75.843C122.824 75.9603 123.07 76.1363 123.275 76.371C123.48 76.6057 123.587 76.9173 123.594 77.306C123.594 77.6507 123.499 77.9587 123.308 78.23C123.117 78.5013 122.846 78.714 122.494 78.868C122.149 79.022 121.742 79.099 121.273 79.099ZM127.149 79.099C126.672 79.099 126.243 79.0147 125.862 78.846C125.488 78.67 125.191 78.4353 124.971 78.142C124.751 77.8413 124.634 77.5077 124.619 77.141H125.917C125.939 77.3977 126.06 77.614 126.28 77.79C126.507 77.9587 126.79 78.043 127.127 78.043C127.479 78.043 127.75 77.977 127.941 77.845C128.139 77.7057 128.238 77.5297 128.238 77.317C128.238 77.0897 128.128 76.921 127.908 76.811C127.695 76.701 127.354 76.58 126.885 76.448C126.43 76.3233 126.06 76.2023 125.774 76.085C125.488 75.9677 125.239 75.788 125.026 75.546C124.821 75.304 124.718 74.985 124.718 74.589C124.718 74.2663 124.813 73.973 125.004 73.709C125.195 73.4377 125.466 73.225 125.818 73.071C126.177 72.917 126.588 72.84 127.05 72.84C127.739 72.84 128.293 73.016 128.711 73.368C129.136 73.7127 129.364 74.1857 129.393 74.787H128.139C128.117 74.5157 128.007 74.2993 127.809 74.138C127.611 73.9767 127.343 73.896 127.006 73.896C126.676 73.896 126.423 73.9583 126.247 74.083C126.071 74.2077 125.983 74.3727 125.983 74.578C125.983 74.7393 126.042 74.875 126.159 74.985C126.276 75.095 126.419 75.183 126.588 75.249C126.757 75.3077 127.006 75.3847 127.336 75.48C127.776 75.5973 128.135 75.7183 128.414 75.843C128.7 75.9603 128.946 76.1363 129.151 76.371C129.356 76.6057 129.463 76.9173 129.47 77.306C129.47 77.6507 129.375 77.9587 129.184 78.23C128.993 78.5013 128.722 78.714 128.37 78.868C128.025 79.022 127.618 79.099 127.149 79.099Z"></path>
<path fill="white" d="M75.1858 109.077C74.6725 109.077 74.2105 108.989 73.7998 108.813C73.3891 108.63 73.0665 108.373 72.8318 108.043C72.5971 107.713 72.4798 107.328 72.4798 106.888H73.8218C73.8511 107.218 73.9795 107.489 74.2068 107.702C74.4415 107.915 74.7678 108.021 75.1858 108.021C75.6185 108.021 75.9558 107.918 76.1978 107.713C76.4398 107.5 76.5608 107.229 76.5608 106.899C76.5608 106.642 76.4838 106.433 76.3298 106.272C76.1831 106.111 75.9961 105.986 75.7688 105.898C75.5488 105.81 75.2408 105.715 74.8448 105.612C74.3461 105.48 73.9391 105.348 73.6238 105.216C73.3158 105.077 73.0518 104.864 72.8318 104.578C72.6118 104.292 72.5018 103.911 72.5018 103.434C72.5018 102.994 72.6118 102.609 72.8318 102.279C73.0518 101.949 73.3598 101.696 73.7558 101.52C74.1518 101.344 74.6101 101.256 75.1308 101.256C75.8715 101.256 76.4765 101.443 76.9458 101.817C77.4225 102.184 77.6865 102.69 77.7378 103.335H76.3518C76.3298 103.056 76.1978 102.818 75.9558 102.62C75.7138 102.422 75.3948 102.323 74.9988 102.323C74.6395 102.323 74.3461 102.415 74.1188 102.598C73.8915 102.781 73.7778 103.045 73.7778 103.39C73.7778 103.625 73.8475 103.819 73.9868 103.973C74.1335 104.12 74.3168 104.237 74.5368 104.325C74.7568 104.413 75.0575 104.508 75.4388 104.611C75.9448 104.75 76.3555 104.89 76.6708 105.029C76.9935 105.168 77.2648 105.385 77.4848 105.678C77.7121 105.964 77.8258 106.349 77.8258 106.833C77.8258 107.222 77.7195 107.588 77.5068 107.933C77.3015 108.278 76.9971 108.556 76.5938 108.769C76.1978 108.974 75.7285 109.077 75.1858 109.077ZM78.8875 105.942C78.8875 105.333 79.0121 104.794 79.2615 104.325C79.5181 103.856 79.8628 103.493 80.2955 103.236C80.7355 102.972 81.2195 102.84 81.7475 102.84C82.2241 102.84 82.6385 102.935 82.9905 103.126C83.3498 103.309 83.6358 103.54 83.8485 103.819V102.939H85.1135V109H83.8485V108.098C83.6358 108.384 83.3461 108.622 82.9795 108.813C82.6128 109.004 82.1948 109.099 81.7255 109.099C81.2048 109.099 80.7281 108.967 80.2955 108.703C79.8628 108.432 79.5181 108.058 79.2615 107.581C79.0121 107.097 78.8875 106.551 78.8875 105.942ZM83.8485 105.964C83.8485 105.546 83.7605 105.183 83.5845 104.875C83.4158 104.567 83.1921 104.332 82.9135 104.171C82.6348 104.01 82.3341 103.929 82.0115 103.929C81.6888 103.929 81.3881 104.01 81.1095 104.171C80.8308 104.325 80.6035 104.556 80.4275 104.864C80.2588 105.165 80.1745 105.524 80.1745 105.942C80.1745 106.36 80.2588 106.727 80.4275 107.042C80.6035 107.357 80.8308 107.599 81.1095 107.768C81.3955 107.929 81.6961 108.01 82.0115 108.01C82.3341 108.01 82.6348 107.929 82.9135 107.768C83.1921 107.607 83.4158 107.372 83.5845 107.064C83.7605 106.749 83.8485 106.382 83.8485 105.964ZM88.2235 103.962V107.317C88.2235 107.544 88.2749 107.709 88.3775 107.812C88.4875 107.907 88.6709 107.955 88.9275 107.955H89.6975V109H88.7075C88.1429 109 87.7102 108.868 87.4095 108.604C87.1089 108.34 86.9585 107.911 86.9585 107.317V103.962H86.2435V102.939H86.9585V101.432H88.2235V102.939H89.6975V103.962H88.2235ZM96.3423 102.939V109H95.0883V108.285C94.8903 108.534 94.63 108.732 94.3073 108.879C93.992 109.018 93.6547 109.088 93.2953 109.088C92.8187 109.088 92.3897 108.989 92.0083 108.791C91.6343 108.593 91.3373 108.3 91.1173 107.911C90.9047 107.522 90.7983 107.053 90.7983 106.503V102.939H92.0413V106.316C92.0413 106.859 92.177 107.277 92.4483 107.57C92.7197 107.856 93.09 107.999 93.5593 107.999C94.0287 107.999 94.399 107.856 94.6703 107.57C94.949 107.277 95.0883 106.859 95.0883 106.316V102.939H96.3423ZM99.2509 103.819C99.4342 103.511 99.6762 103.273 99.9769 103.104C100.285 102.928 100.648 102.84 101.066 102.84V104.138H100.747C100.256 104.138 99.8815 104.263 99.6249 104.512C99.3755 104.761 99.2509 105.194 99.2509 105.81V109H97.9969V102.939H99.2509V103.819ZM101.801 105.942C101.801 105.333 101.925 104.794 102.175 104.325C102.431 103.856 102.776 103.493 103.209 103.236C103.649 102.972 104.133 102.84 104.661 102.84C105.137 102.84 105.552 102.935 105.904 103.126C106.263 103.309 106.549 103.54 106.762 103.819V102.939H108.027V109H106.762V108.098C106.549 108.384 106.259 108.622 105.893 108.813C105.526 109.004 105.108 109.099 104.639 109.099C104.118 109.099 103.641 108.967 103.209 108.703C102.776 108.432 102.431 108.058 102.175 107.581C101.925 107.097 101.801 106.551 101.801 105.942ZM106.762 105.964C106.762 105.546 106.674 105.183 106.498 104.875C106.329 104.567 106.105 104.332 105.827 104.171C105.548 104.01 105.247 103.929 104.925 103.929C104.602 103.929 104.301 104.01 104.023 104.171C103.744 104.325 103.517 104.556 103.341 104.864C103.172 105.165 103.088 105.524 103.088 105.942C103.088 106.36 103.172 106.727 103.341 107.042C103.517 107.357 103.744 107.599 104.023 107.768C104.309 107.929 104.609 108.01 104.925 108.01C105.247 108.01 105.548 107.929 105.827 107.768C106.105 107.607 106.329 107.372 106.498 107.064C106.674 106.749 106.762 106.382 106.762 105.964ZM111.137 103.962V107.317C111.137 107.544 111.188 107.709 111.291 107.812C111.401 107.907 111.584 107.955 111.841 107.955H112.611V109H111.621C111.056 109 110.623 108.868 110.323 108.604C110.022 108.34 109.872 107.911 109.872 107.317V103.962H109.157V102.939H109.872V101.432H111.137V102.939H112.611V103.962H111.137ZM114.404 102.136C114.177 102.136 113.986 102.059 113.832 101.905C113.678 101.751 113.601 101.56 113.601 101.333C113.601 101.106 113.678 100.915 113.832 100.761C113.986 100.607 114.177 100.53 114.404 100.53C114.624 100.53 114.811 100.607 114.965 100.761C115.119 100.915 115.196 101.106 115.196 101.333C115.196 101.56 115.119 101.751 114.965 101.905C114.811 102.059 114.624 102.136 114.404 102.136ZM115.02 102.939V109H113.766V102.939H115.02ZM119.296 109.099C118.724 109.099 118.207 108.971 117.745 108.714C117.283 108.45 116.92 108.083 116.656 107.614C116.392 107.137 116.26 106.587 116.26 105.964C116.26 105.348 116.395 104.802 116.667 104.325C116.938 103.848 117.308 103.482 117.778 103.225C118.247 102.968 118.771 102.84 119.351 102.84C119.93 102.84 120.454 102.968 120.924 103.225C121.393 103.482 121.763 103.848 122.035 104.325C122.306 104.802 122.442 105.348 122.442 105.964C122.442 106.58 122.302 107.126 122.024 107.603C121.745 108.08 121.364 108.45 120.88 108.714C120.403 108.971 119.875 109.099 119.296 109.099ZM119.296 108.01C119.618 108.01 119.919 107.933 120.198 107.779C120.484 107.625 120.715 107.394 120.891 107.086C121.067 106.778 121.155 106.404 121.155 105.964C121.155 105.524 121.07 105.154 120.902 104.853C120.733 104.545 120.509 104.314 120.231 104.16C119.952 104.006 119.651 103.929 119.329 103.929C119.006 103.929 118.705 104.006 118.427 104.16C118.155 104.314 117.939 104.545 117.778 104.853C117.616 105.154 117.536 105.524 117.536 105.964C117.536 106.617 117.701 107.123 118.031 107.482C118.368 107.834 118.79 108.01 119.296 108.01ZM126.739 102.84C127.216 102.84 127.641 102.939 128.015 103.137C128.397 103.335 128.694 103.628 128.906 104.017C129.119 104.406 129.225 104.875 129.225 105.425V109H127.982V105.612C127.982 105.069 127.847 104.655 127.575 104.369C127.304 104.076 126.934 103.929 126.464 103.929C125.995 103.929 125.621 104.076 125.342 104.369C125.071 104.655 124.935 105.069 124.935 105.612V109H123.681V102.939H124.935V103.632C125.141 103.383 125.401 103.188 125.716 103.049C126.039 102.91 126.38 102.84 126.739 102.84Z"></path>
<path fill="url(#paint0_linear_969_186)" d="M150 45C150 43.8954 150.895 43 152 43H366C367.105 43 368 43.8954 368 45C368 46.1046 367.105 47 366 47H152C150.895 47 150 46.1046 150 45Z"></path>
<path fill="white" d="M177.079 132.367V134.611H179.719V135.634H177.079V137.977H180.049V139H175.825V131.344H180.049V132.367H177.079ZM184.652 132.84C185.128 132.84 185.554 132.939 185.928 133.137C186.309 133.335 186.606 133.628 186.819 134.017C187.031 134.406 187.138 134.875 187.138 135.425V139H185.895V135.612C185.895 135.069 185.759 134.655 185.488 134.369C185.216 134.076 184.846 133.929 184.377 133.929C183.907 133.929 183.533 134.076 183.255 134.369C182.983 134.655 182.848 135.069 182.848 135.612V139H181.594V132.939H182.848V133.632C183.053 133.383 183.313 133.188 183.629 133.049C183.951 132.91 184.292 132.84 184.652 132.84ZM188.319 135.942C188.319 135.333 188.444 134.794 188.693 134.325C188.95 133.856 189.294 133.493 189.727 133.236C190.167 132.972 190.651 132.84 191.179 132.84C191.656 132.84 192.07 132.935 192.422 133.126C192.781 133.309 193.067 133.54 193.28 133.819V132.939H194.545V139H193.28V138.098C193.067 138.384 192.778 138.622 192.411 138.813C192.044 139.004 191.626 139.099 191.157 139.099C190.636 139.099 190.16 138.967 189.727 138.703C189.294 138.432 188.95 138.058 188.693 137.581C188.444 137.097 188.319 136.551 188.319 135.942ZM193.28 135.964C193.28 135.546 193.192 135.183 193.016 134.875C192.847 134.567 192.624 134.332 192.345 134.171C192.066 134.01 191.766 133.929 191.443 133.929C191.12 133.929 190.82 134.01 190.541 134.171C190.262 134.325 190.035 134.556 189.859 134.864C189.69 135.165 189.606 135.524 189.606 135.942C189.606 136.36 189.69 136.727 189.859 137.042C190.035 137.357 190.262 137.599 190.541 137.768C190.827 137.929 191.128 138.01 191.443 138.01C191.766 138.01 192.066 137.929 192.345 137.768C192.624 137.607 192.847 137.372 193.016 137.064C193.192 136.749 193.28 136.382 193.28 135.964ZM197.446 133.841C197.659 133.548 197.949 133.309 198.315 133.126C198.689 132.935 199.104 132.84 199.558 132.84C200.094 132.84 200.578 132.968 201.01 133.225C201.443 133.482 201.784 133.848 202.033 134.325C202.283 134.794 202.407 135.333 202.407 135.942C202.407 136.551 202.283 137.097 202.033 137.581C201.784 138.058 201.439 138.432 200.999 138.703C200.567 138.967 200.086 139.099 199.558 139.099C199.089 139.099 198.671 139.007 198.304 138.824C197.945 138.641 197.659 138.406 197.446 138.12V139H196.192V130.86H197.446V133.841ZM201.131 135.942C201.131 135.524 201.043 135.165 200.867 134.864C200.699 134.556 200.471 134.325 200.185 134.171C199.907 134.01 199.606 133.929 199.283 133.929C198.968 133.929 198.667 134.01 198.381 134.171C198.103 134.332 197.875 134.567 197.699 134.875C197.531 135.183 197.446 135.546 197.446 135.964C197.446 136.382 197.531 136.749 197.699 137.064C197.875 137.372 198.103 137.607 198.381 137.768C198.667 137.929 198.968 138.01 199.283 138.01C199.606 138.01 199.907 137.929 200.185 137.768C200.471 137.599 200.699 137.357 200.867 137.042C201.043 136.727 201.131 136.36 201.131 135.942ZM204.901 130.86V139H203.647V130.86H204.901ZM212.103 135.821C212.103 136.048 212.088 136.254 212.059 136.437H207.428C207.464 136.921 207.644 137.31 207.967 137.603C208.289 137.896 208.685 138.043 209.155 138.043C209.829 138.043 210.306 137.761 210.585 137.196H211.938C211.754 137.753 211.421 138.212 210.937 138.571C210.46 138.923 209.866 139.099 209.155 139.099C208.575 139.099 208.055 138.971 207.593 138.714C207.138 138.45 206.779 138.083 206.515 137.614C206.258 137.137 206.13 136.587 206.13 135.964C206.13 135.341 206.254 134.794 206.504 134.325C206.76 133.848 207.116 133.482 207.571 133.225C208.033 132.968 208.561 132.84 209.155 132.84C209.727 132.84 210.236 132.965 210.684 133.214C211.131 133.463 211.479 133.815 211.729 134.27C211.978 134.717 212.103 135.234 212.103 135.821ZM210.794 135.425C210.786 134.963 210.621 134.593 210.299 134.314C209.976 134.035 209.576 133.896 209.1 133.896C208.667 133.896 208.297 134.035 207.989 134.314C207.681 134.585 207.497 134.956 207.439 135.425H210.794ZM218.735 133.962H217.613V139H216.348V133.962H215.633V132.939H216.348V132.51C216.348 131.813 216.531 131.307 216.898 130.992C217.272 130.669 217.855 130.508 218.647 130.508V131.553C218.266 131.553 217.998 131.626 217.844 131.773C217.69 131.912 217.613 132.158 217.613 132.51V132.939H218.735V133.962ZM220.484 132.136C220.257 132.136 220.066 132.059 219.912 131.905C219.758 131.751 219.681 131.56 219.681 131.333C219.681 131.106 219.758 130.915 219.912 130.761C220.066 130.607 220.257 130.53 220.484 130.53C220.704 130.53 220.891 130.607 221.045 130.761C221.199 130.915 221.276 131.106 221.276 131.333C221.276 131.56 221.199 131.751 221.045 131.905C220.891 132.059 220.704 132.136 220.484 132.136ZM221.1 132.939V139H219.846V132.939H221.1ZM224.001 130.86V139H222.747V130.86H224.001ZM226.901 130.86V139H225.647V130.86H226.901ZM229.186 132.136C228.958 132.136 228.768 132.059 228.614 131.905C228.46 131.751 228.383 131.56 228.383 131.333C228.383 131.106 228.46 130.915 228.614 130.761C228.768 130.607 228.958 130.53 229.186 130.53C229.406 130.53 229.593 130.607 229.747 130.761C229.901 130.915 229.978 131.106 229.978 131.333C229.978 131.56 229.901 131.751 229.747 131.905C229.593 132.059 229.406 132.136 229.186 132.136ZM229.802 132.939V139H228.548V132.939H229.802ZM234.506 132.84C234.983 132.84 235.408 132.939 235.782 133.137C236.163 133.335 236.46 133.628 236.673 134.017C236.886 134.406 236.992 134.875 236.992 135.425V139H235.749V135.612C235.749 135.069 235.613 134.655 235.342 134.369C235.071 134.076 234.7 133.929 234.231 133.929C233.762 133.929 233.388 134.076 233.109 134.369C232.838 134.655 232.702 135.069 232.702 135.612V139H231.448V132.939H232.702V133.632C232.907 133.383 233.168 133.188 233.483 133.049C233.806 132.91 234.147 132.84 234.506 132.84ZM241.034 132.84C241.503 132.84 241.917 132.935 242.277 133.126C242.643 133.309 242.929 133.54 243.135 133.819V132.939H244.4V139.099C244.4 139.656 244.282 140.151 244.048 140.584C243.813 141.024 243.472 141.369 243.025 141.618C242.585 141.867 242.057 141.992 241.441 141.992C240.619 141.992 239.937 141.798 239.395 141.409C238.852 141.028 238.544 140.507 238.471 139.847H239.714C239.809 140.162 240.011 140.415 240.319 140.606C240.634 140.804 241.008 140.903 241.441 140.903C241.947 140.903 242.354 140.749 242.662 140.441C242.977 140.133 243.135 139.686 243.135 139.099V138.087C242.922 138.373 242.632 138.615 242.266 138.813C241.906 139.004 241.496 139.099 241.034 139.099C240.506 139.099 240.022 138.967 239.582 138.703C239.149 138.432 238.804 138.058 238.548 137.581C238.298 137.097 238.174 136.551 238.174 135.942C238.174 135.333 238.298 134.794 238.548 134.325C238.804 133.856 239.149 133.493 239.582 133.236C240.022 132.972 240.506 132.84 241.034 132.84ZM243.135 135.964C243.135 135.546 243.047 135.183 242.871 134.875C242.702 134.567 242.478 134.332 242.2 134.171C241.921 134.01 241.62 133.929 241.298 133.929C240.975 133.929 240.674 134.01 240.396 134.171C240.117 134.325 239.89 134.556 239.714 134.864C239.545 135.165 239.461 135.524 239.461 135.942C239.461 136.36 239.545 136.727 239.714 137.042C239.89 137.357 240.117 137.599 240.396 137.768C240.682 137.929 240.982 138.01 241.298 138.01C241.62 138.01 241.921 137.929 242.2 137.768C242.478 137.607 242.702 137.372 242.871 137.064C243.047 136.749 243.135 136.382 243.135 135.964Z"></path>
<rect fill="#4CC2FF" rx="10" height="20" width="40" y="125" x="265"></rect>
<rect fill="black" rx="6" height="12" width="12" y="129" x="289"></rect>
<defs>
<linearGradient gradientUnits="userSpaceOnUse" y2="47" x2="368" y1="47.0001" x1="150" id="paint0_linear_969_186">
<stop stop-color="#FF0000"></stop>
<stop stop-color="#FFBD00" offset="0.125"></stop>
<stop stop-color="#80FF00" offset="0.25"></stop>
<stop stop-color="#00FF40" offset="0.375"></stop>
<stop stop-color="#00FFFF" offset="0.5"></stop>
<stop stop-color="#0040FF" offset="0.625"></stop>
<stop stop-color="#8000FF" offset="0.75"></stop>
<stop stop-color="#FF00BF" offset="0.875"></stop>
<stop stop-color="#FF0000" offset="1"></stop>
</linearGradient>
</defs>
</svg>
