<svg xmlns="http://www.w3.org/2000/svg" fill="none" viewBox="0 0 260 160" height="160" width="260">
<path fill-opacity="0.9" fill="#1B1B1B" d="M20 30C20 24.4772 24.4772 20 30 20H230C235.523 20 240 24.4772 240 30V125C240 130.523 235.523 135 230 135H30C24.4772 135 20 130.523 20 125V30Z"></path>
<path stroke-width="2" stroke-opacity="0.2" stroke="white" d="M230 19H30C23.9249 19 19 23.9249 19 30V125C19 131.075 23.9249 136 30 136H230C236.075 136 241 131.075 241 125V30C241 23.9249 236.075 19 230 19Z"></path>
<path fill="white" d="M73.624 40.66C74.512 40.66 75.288 40.832 75.952 41.176C76.624 41.512 77.14 42 77.5 42.64C77.868 43.272 78.052 44.012 78.052 44.86C78.052 45.708 77.868 46.444 77.5 47.068C77.14 47.692 76.624 48.172 75.952 48.508C75.288 48.836 74.512 49 73.624 49H70.9V40.66H73.624ZM73.624 47.884C74.6 47.884 75.348 47.62 75.868 47.092C76.388 46.564 76.648 45.82 76.648 44.86C76.648 43.892 76.388 43.136 75.868 42.592C75.348 42.048 74.6 41.776 73.624 41.776H72.268V47.884H73.624ZM85.4678 45.532C85.4678 45.78 85.4518 46.004 85.4198 46.204H80.3678C80.4078 46.732 80.6038 47.156 80.9558 47.476C81.3078 47.796 81.7398 47.956 82.2518 47.956C82.9878 47.956 83.5078 47.648 83.8118 47.032H85.2878C85.0878 47.64 84.7238 48.14 84.1958 48.532C83.6758 48.916 83.0278 49.108 82.2518 49.108C81.6198 49.108 81.0518 48.968 80.5478 48.688C80.0518 48.4 79.6598 48 79.3718 47.488C79.0918 46.968 78.9518 46.368 78.9518 45.688C78.9518 45.008 79.0878 44.412 79.3598 43.9C79.6398 43.38 80.0278 42.98 80.5238 42.7C81.0278 42.42 81.6038 42.28 82.2518 42.28C82.8758 42.28 83.4318 42.416 83.9198 42.688C84.4078 42.96 84.7878 43.344 85.0598 43.84C85.3318 44.328 85.4678 44.892 85.4678 45.532ZM84.0398 45.1C84.0318 44.596 83.8518 44.192 83.4998 43.888C83.1478 43.584 82.7118 43.432 82.1918 43.432C81.7198 43.432 81.3158 43.584 80.9798 43.888C80.6438 44.184 80.4438 44.588 80.3798 45.1H84.0398ZM89.3701 47.776L91.2421 42.388H92.6941L90.1741 49H88.5421L86.0341 42.388H87.4981L89.3701 47.776ZM99.7881 45.532C99.7881 45.78 99.7721 46.004 99.7401 46.204H94.6881C94.7281 46.732 94.9241 47.156 95.2761 47.476C95.6281 47.796 96.0601 47.956 96.5721 47.956C97.3081 47.956 97.8281 47.648 98.1321 47.032H99.6081C99.4081 47.64 99.0441 48.14 98.5161 48.532C97.9961 48.916 97.3481 49.108 96.5721 49.108C95.9401 49.108 95.3721 48.968 94.8681 48.688C94.3721 48.4 93.9801 48 93.6921 47.488C93.4121 46.968 93.2721 46.368 93.2721 45.688C93.2721 45.008 93.4081 44.412 93.6801 43.9C93.9601 43.38 94.3481 42.98 94.8441 42.7C95.3481 42.42 95.9241 42.28 96.5721 42.28C97.1961 42.28 97.7521 42.416 98.2401 42.688C98.7281 42.96 99.1081 43.344 99.3801 43.84C99.6521 44.328 99.7881 44.892 99.7881 45.532ZM98.3601 45.1C98.3521 44.596 98.1721 44.192 97.8201 43.888C97.4681 43.584 97.0321 43.432 96.5121 43.432C96.0401 43.432 95.6361 43.584 95.3001 43.888C94.9641 44.184 94.7641 44.588 94.7001 45.1H98.3601ZM102.502 40.12V49H101.134V40.12H102.502ZM107.166 49.108C106.542 49.108 105.978 48.968 105.474 48.688C104.97 48.4 104.574 48 104.286 47.488C103.998 46.968 103.854 46.368 103.854 45.688C103.854 45.016 104.002 44.42 104.298 43.9C104.594 43.38 104.998 42.98 105.51 42.7C106.022 42.42 106.594 42.28 107.226 42.28C107.858 42.28 108.43 42.42 108.942 42.7C109.454 42.98 109.858 43.38 110.154 43.9C110.45 44.42 110.598 45.016 110.598 45.688C110.598 46.36 110.446 46.956 110.142 47.476C109.838 47.996 109.422 48.4 108.894 48.688C108.374 48.968 107.798 49.108 107.166 49.108ZM107.166 47.92C107.518 47.92 107.846 47.836 108.15 47.668C108.462 47.5 108.714 47.248 108.906 46.912C109.098 46.576 109.194 46.168 109.194 45.688C109.194 45.208 109.102 44.804 108.918 44.476C108.734 44.14 108.49 43.888 108.186 43.72C107.882 43.552 107.554 43.468 107.202 43.468C106.85 43.468 106.522 43.552 106.218 43.72C105.922 43.888 105.686 44.14 105.51 44.476C105.334 44.804 105.246 45.208 105.246 45.688C105.246 46.4 105.426 46.952 105.786 47.344C106.154 47.728 106.614 47.92 107.166 47.92ZM113.319 43.36C113.551 43.056 113.867 42.8 114.267 42.592C114.667 42.384 115.119 42.28 115.623 42.28C116.199 42.28 116.723 42.424 117.195 42.712C117.675 42.992 118.051 43.388 118.323 43.9C118.595 44.412 118.731 45 118.731 45.664C118.731 46.328 118.595 46.924 118.323 47.452C118.051 47.972 117.675 48.38 117.195 48.676C116.723 48.964 116.199 49.108 115.623 49.108C115.119 49.108 114.671 49.008 114.279 48.808C113.887 48.6 113.567 48.344 113.319 48.04V52.144H111.951V42.388H113.319V43.36ZM117.339 45.664C117.339 45.208 117.243 44.816 117.051 44.488C116.867 44.152 116.619 43.9 116.307 43.732C116.003 43.556 115.675 43.468 115.323 43.468C114.979 43.468 114.651 43.556 114.339 43.732C114.035 43.908 113.787 44.164 113.595 44.5C113.411 44.836 113.319 45.232 113.319 45.688C113.319 46.144 113.411 46.544 113.595 46.888C113.787 47.224 114.035 47.48 114.339 47.656C114.651 47.832 114.979 47.92 115.323 47.92C115.675 47.92 116.003 47.832 116.307 47.656C116.619 47.472 116.867 47.208 117.051 46.864C117.243 46.52 117.339 46.12 117.339 45.664ZM126.144 45.532C126.144 45.78 126.128 46.004 126.096 46.204H121.044C121.084 46.732 121.28 47.156 121.632 47.476C121.984 47.796 122.416 47.956 122.928 47.956C123.664 47.956 124.184 47.648 124.488 47.032H125.964C125.764 47.64 125.4 48.14 124.872 48.532C124.352 48.916 123.704 49.108 122.928 49.108C122.296 49.108 121.728 48.968 121.224 48.688C120.728 48.4 120.336 48 120.048 47.488C119.768 46.968 119.628 46.368 119.628 45.688C119.628 45.008 119.764 44.412 120.036 43.9C120.316 43.38 120.704 42.98 121.2 42.7C121.704 42.42 122.28 42.28 122.928 42.28C123.552 42.28 124.108 42.416 124.596 42.688C125.084 42.96 125.464 43.344 125.736 43.84C126.008 44.328 126.144 44.892 126.144 45.532ZM124.716 45.1C124.708 44.596 124.528 44.192 124.176 43.888C123.824 43.584 123.388 43.432 122.868 43.432C122.396 43.432 121.992 43.584 121.656 43.888C121.32 44.184 121.12 44.588 121.056 45.1H124.716ZM128.858 43.348C129.058 43.012 129.322 42.752 129.65 42.568C129.986 42.376 130.382 42.28 130.838 42.28V43.696H130.49C129.954 43.696 129.546 43.832 129.266 44.104C128.994 44.376 128.858 44.848 128.858 45.52V49H127.49V42.388H128.858V43.348Z"></path>
<path fill="#BEBEBE" d="M42.079 74.355V82H40.825V74.355H42.079ZM46.2664 76.962H45.1444V82H43.8794V76.962H43.1644V75.939H43.8794V75.51C43.8794 74.8133 44.0627 74.3073 44.4294 73.992C44.8034 73.6693 45.3864 73.508 46.1784 73.508V74.553C45.7971 74.553 45.5294 74.6263 45.3754 74.773C45.2214 74.9123 45.1444 75.158 45.1444 75.51V75.939H46.2664V76.962ZM55.6912 75.939L51.9732 84.849H50.6752L51.9072 81.901L49.5202 75.939H50.9172L52.6222 80.559L54.3932 75.939H55.6912ZM59.2665 82.099C58.6945 82.099 58.1775 81.9707 57.7155 81.714C57.2535 81.45 56.8905 81.0833 56.6265 80.614C56.3625 80.1373 56.2305 79.5873 56.2305 78.964C56.2305 78.348 56.3662 77.8017 56.6375 77.325C56.9088 76.8483 57.2792 76.4817 57.7485 76.225C58.2178 75.9683 58.7422 75.84 59.3215 75.84C59.9008 75.84 60.4252 75.9683 60.8945 76.225C61.3638 76.4817 61.7342 76.8483 62.0055 77.325C62.2768 77.8017 62.4125 78.348 62.4125 78.964C62.4125 79.58 62.2732 80.1263 61.9945 80.603C61.7158 81.0797 61.3345 81.45 60.8505 81.714C60.3738 81.9707 59.8458 82.099 59.2665 82.099ZM59.2665 81.01C59.5892 81.01 59.8898 80.933 60.1685 80.779C60.4545 80.625 60.6855 80.394 60.8615 80.086C61.0375 79.778 61.1255 79.404 61.1255 78.964C61.1255 78.524 61.0412 78.1537 60.8725 77.853C60.7038 77.545 60.4802 77.314 60.2015 77.16C59.9228 77.006 59.6222 76.929 59.2995 76.929C58.9768 76.929 58.6762 77.006 58.3975 77.16C58.1262 77.314 57.9098 77.545 57.7485 77.853C57.5872 78.1537 57.5065 78.524 57.5065 78.964C57.5065 79.6167 57.6715 80.1227 58.0015 80.482C58.3388 80.834 58.7605 81.01 59.2665 81.01ZM69.1411 75.939V82H67.8871V81.285C67.6891 81.5343 67.4288 81.7323 67.1061 81.879C66.7908 82.0183 66.4535 82.088 66.0941 82.088C65.6175 82.088 65.1885 81.989 64.8071 81.791C64.4331 81.593 64.1361 81.2997 63.9161 80.911C63.7035 80.5223 63.5971 80.053 63.5971 79.503V75.939H64.8401V79.316C64.8401 79.8587 64.9758 80.2767 65.2471 80.57C65.5185 80.856 65.8888 80.999 66.3581 80.999C66.8275 80.999 67.1978 80.856 67.4691 80.57C67.7478 80.2767 67.8871 79.8587 67.8871 79.316V75.939H69.1411ZM74.9071 73.86V82H73.6531V73.86H74.9071ZM77.1915 75.136C76.9642 75.136 76.7735 75.059 76.6195 74.905C76.4655 74.751 76.3885 74.5603 76.3885 74.333C76.3885 74.1057 76.4655 73.915 76.6195 73.761C76.7735 73.607 76.9642 73.53 77.1915 73.53C77.4115 73.53 77.5985 73.607 77.7525 73.761C77.9065 73.915 77.9835 74.1057 77.9835 74.333C77.9835 74.5603 77.9065 74.751 77.7525 74.905C77.5985 75.059 77.4115 75.136 77.1915 75.136ZM77.8075 75.939V82H76.5535V75.939H77.8075ZM81.8519 78.975L84.6459 82H82.9519L80.7079 79.393V82H79.4539V73.86H80.7079V78.59L82.9079 75.939H84.6459L81.8519 78.975ZM91.0997 78.821C91.0997 79.0483 91.0851 79.2537 91.0557 79.437H86.4247C86.4614 79.921 86.6411 80.3097 86.9637 80.603C87.2864 80.8963 87.6824 81.043 88.1517 81.043C88.8264 81.043 89.3031 80.7607 89.5817 80.196H90.9347C90.7514 80.7533 90.4177 81.2117 89.9337 81.571C89.4571 81.923 88.8631 82.099 88.1517 82.099C87.5724 82.099 87.0517 81.9707 86.5897 81.714C86.1351 81.45 85.7757 81.0833 85.5117 80.614C85.2551 80.1373 85.1267 79.5873 85.1267 78.964C85.1267 78.3407 85.2514 77.7943 85.5007 77.325C85.7574 76.8483 86.1131 76.4817 86.5677 76.225C87.0297 75.9683 87.5577 75.84 88.1517 75.84C88.7237 75.84 89.2334 75.9647 89.6807 76.214C90.1281 76.4633 90.4764 76.8153 90.7257 77.27C90.9751 77.7173 91.0997 78.2343 91.0997 78.821ZM89.7907 78.425C89.7834 77.963 89.6184 77.5927 89.2957 77.314C88.9731 77.0353 88.5734 76.896 88.0967 76.896C87.6641 76.896 87.2937 77.0353 86.9857 77.314C86.6777 77.5853 86.4944 77.9557 86.4357 78.425H89.7907ZM96.6542 76.962V80.317C96.6542 80.5443 96.7055 80.7093 96.8082 80.812C96.9182 80.9073 97.1015 80.955 97.3582 80.955H98.1282V82H97.1382C96.5735 82 96.1409 81.868 95.8402 81.604C95.5395 81.34 95.3892 80.911 95.3892 80.317V76.962H94.6742V75.939H95.3892V74.432H96.6542V75.939H98.1282V76.962H96.6542ZM102.419 75.84C102.881 75.84 103.292 75.939 103.651 76.137C104.018 76.335 104.304 76.6283 104.509 77.017C104.722 77.4057 104.828 77.875 104.828 78.425V82H103.585V78.612C103.585 78.0693 103.449 77.655 103.178 77.369C102.907 77.0757 102.536 76.929 102.067 76.929C101.598 76.929 101.224 77.0757 100.945 77.369C100.674 77.655 100.538 78.0693 100.538 78.612V82H99.284V73.86H100.538V76.643C100.751 76.3863 101.018 76.1883 101.341 76.049C101.671 75.9097 102.03 75.84 102.419 75.84ZM107.066 75.136C106.838 75.136 106.648 75.059 106.494 74.905C106.34 74.751 106.263 74.5603 106.263 74.333C106.263 74.1057 106.34 73.915 106.494 73.761C106.648 73.607 106.838 73.53 107.066 73.53C107.286 73.53 107.473 73.607 107.627 73.761C107.781 73.915 107.858 74.1057 107.858 74.333C107.858 74.5603 107.781 74.751 107.627 74.905C107.473 75.059 107.286 75.136 107.066 75.136ZM107.682 75.939V82H106.428V75.939H107.682ZM111.528 82.099C111.051 82.099 110.622 82.0147 110.241 81.846C109.867 81.67 109.57 81.4353 109.35 81.142C109.13 80.8413 109.013 80.5077 108.998 80.141H110.296C110.318 80.3977 110.439 80.614 110.659 80.79C110.886 80.9587 111.169 81.043 111.506 81.043C111.858 81.043 112.129 80.977 112.32 80.845C112.518 80.7057 112.617 80.5297 112.617 80.317C112.617 80.0897 112.507 79.921 112.287 79.811C112.074 79.701 111.733 79.58 111.264 79.448C110.809 79.3233 110.439 79.2023 110.153 79.085C109.867 78.9677 109.618 78.788 109.405 78.546C109.2 78.304 109.097 77.985 109.097 77.589C109.097 77.2663 109.192 76.973 109.383 76.709C109.574 76.4377 109.845 76.225 110.197 76.071C110.556 75.917 110.967 75.84 111.429 75.84C112.118 75.84 112.672 76.016 113.09 76.368C113.515 76.7127 113.743 77.1857 113.772 77.787H112.518C112.496 77.5157 112.386 77.2993 112.188 77.138C111.99 76.9767 111.722 76.896 111.385 76.896C111.055 76.896 110.802 76.9583 110.626 77.083C110.45 77.2077 110.362 77.3727 110.362 77.578C110.362 77.7393 110.421 77.875 110.538 77.985C110.655 78.095 110.798 78.183 110.967 78.249C111.136 78.3077 111.385 78.3847 111.715 78.48C112.155 78.5973 112.514 78.7183 112.793 78.843C113.079 78.9603 113.325 79.1363 113.53 79.371C113.735 79.6057 113.842 79.9173 113.849 80.306C113.849 80.6507 113.754 80.9587 113.563 81.23C113.372 81.5013 113.101 81.714 112.749 81.868C112.404 82.022 111.997 82.099 111.528 82.099ZM119.315 76.83C119.528 76.5513 119.818 76.3167 120.184 76.126C120.551 75.9353 120.965 75.84 121.427 75.84C121.955 75.84 122.436 75.972 122.868 76.236C123.308 76.4927 123.653 76.8557 123.902 77.325C124.152 77.7943 124.276 78.3333 124.276 78.942C124.276 79.5507 124.152 80.097 123.902 80.581C123.653 81.0577 123.308 81.4317 122.868 81.703C122.436 81.967 121.955 82.099 121.427 82.099C120.965 82.099 120.555 82.0073 120.195 81.824C119.836 81.6333 119.543 81.3987 119.315 81.12V84.882H118.061V75.939H119.315V76.83ZM123 78.942C123 78.524 122.912 78.1647 122.736 77.864C122.568 77.556 122.34 77.325 122.054 77.171C121.776 77.0097 121.475 76.929 121.152 76.929C120.837 76.929 120.536 77.0097 120.25 77.171C119.972 77.3323 119.744 77.567 119.568 77.875C119.4 78.183 119.315 78.546 119.315 78.964C119.315 79.382 119.4 79.7487 119.568 80.064C119.744 80.372 119.972 80.6067 120.25 80.768C120.536 80.9293 120.837 81.01 121.152 81.01C121.475 81.01 121.776 80.9293 122.054 80.768C122.34 80.5993 122.568 80.3573 122.736 80.042C122.912 79.7267 123 79.36 123 78.942ZM126.77 76.819C126.954 76.511 127.196 76.2727 127.496 76.104C127.804 75.928 128.167 75.84 128.585 75.84V77.138H128.266C127.775 77.138 127.401 77.2627 127.144 77.512C126.895 77.7613 126.77 78.194 126.77 78.81V82H125.516V75.939H126.77V76.819ZM132.367 82.099C131.795 82.099 131.278 81.9707 130.816 81.714C130.354 81.45 129.991 81.0833 129.727 80.614C129.463 80.1373 129.331 79.5873 129.331 78.964C129.331 78.348 129.467 77.8017 129.738 77.325C130.009 76.8483 130.38 76.4817 130.849 76.225C131.318 75.9683 131.843 75.84 132.422 75.84C133.001 75.84 133.526 75.9683 133.995 76.225C134.464 76.4817 134.835 76.8483 135.106 77.325C135.377 77.8017 135.513 78.348 135.513 78.964C135.513 79.58 135.374 80.1263 135.095 80.603C134.816 81.0797 134.435 81.45 133.951 81.714C133.474 81.9707 132.946 82.099 132.367 82.099ZM132.367 81.01C132.69 81.01 132.99 80.933 133.269 80.779C133.555 80.625 133.786 80.394 133.962 80.086C134.138 79.778 134.226 79.404 134.226 78.964C134.226 78.524 134.142 78.1537 133.973 77.853C133.804 77.545 133.581 77.314 133.302 77.16C133.023 77.006 132.723 76.929 132.4 76.929C132.077 76.929 131.777 77.006 131.498 77.16C131.227 77.314 131.01 77.545 130.849 77.853C130.688 78.1537 130.607 78.524 130.607 78.964C130.607 79.6167 130.772 80.1227 131.102 80.482C131.439 80.834 131.861 81.01 132.367 81.01ZM137.391 75.136C137.163 75.136 136.973 75.059 136.819 74.905C136.665 74.751 136.588 74.5603 136.588 74.333C136.588 74.1057 136.665 73.915 136.819 73.761C136.973 73.607 137.163 73.53 137.391 73.53C137.611 73.53 137.798 73.607 137.952 73.761C138.106 73.915 138.183 74.1057 138.183 74.333C138.183 74.5603 138.106 74.751 137.952 74.905C137.798 75.059 137.611 75.136 137.391 75.136ZM138.007 83.188C138.007 83.782 137.856 84.211 137.556 84.475C137.262 84.7463 136.833 84.882 136.269 84.882H135.62V83.826H136.049C136.305 83.826 136.485 83.7747 136.588 83.672C136.698 83.5767 136.753 83.4153 136.753 83.188V75.939H138.007V83.188ZM145.208 78.821C145.208 79.0483 145.193 79.2537 145.164 79.437H140.533C140.57 79.921 140.749 80.3097 141.072 80.603C141.395 80.8963 141.791 81.043 142.26 81.043C142.935 81.043 143.411 80.7607 143.69 80.196H145.043C144.86 80.7533 144.526 81.2117 144.042 81.571C143.565 81.923 142.971 82.099 142.26 82.099C141.681 82.099 141.16 81.9707 140.698 81.714C140.243 81.45 139.884 81.0833 139.62 80.614C139.363 80.1373 139.235 79.5873 139.235 78.964C139.235 78.3407 139.36 77.7943 139.609 77.325C139.866 76.8483 140.221 76.4817 140.676 76.225C141.138 75.9683 141.666 75.84 142.26 75.84C142.832 75.84 143.342 75.9647 143.789 76.214C144.236 76.4633 144.585 76.8153 144.834 77.27C145.083 77.7173 145.208 78.2343 145.208 78.821ZM143.899 78.425C143.892 77.963 143.727 77.5927 143.404 77.314C143.081 77.0353 142.682 76.896 142.205 76.896C141.772 76.896 141.402 77.0353 141.094 77.314C140.786 77.5853 140.603 77.9557 140.544 78.425H143.899ZM146.024 78.964C146.024 78.3407 146.149 77.7943 146.398 77.325C146.655 76.8483 147.007 76.4817 147.454 76.225C147.902 75.9683 148.415 75.84 148.994 75.84C149.728 75.84 150.333 76.016 150.809 76.368C151.293 76.7127 151.62 77.2077 151.788 77.853H150.435C150.325 77.5523 150.149 77.3177 149.907 77.149C149.665 76.9803 149.361 76.896 148.994 76.896C148.481 76.896 148.07 77.0793 147.762 77.446C147.462 77.8053 147.311 78.3113 147.311 78.964C147.311 79.6167 147.462 80.1263 147.762 80.493C148.07 80.8597 148.481 81.043 148.994 81.043C149.72 81.043 150.201 80.724 150.435 80.086H151.788C151.612 80.702 151.282 81.1933 150.798 81.56C150.314 81.9193 149.713 82.099 148.994 82.099C148.415 82.099 147.902 81.9707 147.454 81.714C147.007 81.45 146.655 81.0833 146.398 80.614C146.149 80.1373 146.024 79.5873 146.024 78.964ZM154.501 76.962V80.317C154.501 80.5443 154.552 80.7093 154.655 80.812C154.765 80.9073 154.948 80.955 155.205 80.955H155.975V82H154.985C154.42 82 153.988 81.868 153.687 81.604C153.386 81.34 153.236 80.911 153.236 80.317V76.962H152.521V75.939H153.236V74.432H154.501V75.939H155.975V76.962H154.501ZM158.506 80.493L157.175 83.529H156.361L157.142 80.493H158.506ZM162.041 78.942C162.041 78.3333 162.165 77.7943 162.415 77.325C162.671 76.8557 163.016 76.4927 163.449 76.236C163.889 75.972 164.376 75.84 164.912 75.84C165.308 75.84 165.696 75.928 166.078 76.104C166.466 76.2727 166.774 76.5 167.002 76.786V73.86H168.267V82H167.002V81.087C166.796 81.3803 166.51 81.6223 166.144 81.813C165.784 82.0037 165.37 82.099 164.901 82.099C164.373 82.099 163.889 81.967 163.449 81.703C163.016 81.4317 162.671 81.0577 162.415 80.581C162.165 80.097 162.041 79.5507 162.041 78.942ZM167.002 78.964C167.002 78.546 166.914 78.183 166.738 77.875C166.569 77.567 166.345 77.3323 166.067 77.171C165.788 77.0097 165.487 76.929 165.165 76.929C164.842 76.929 164.541 77.0097 164.263 77.171C163.984 77.325 163.757 77.556 163.581 77.864C163.412 78.1647 163.328 78.524 163.328 78.942C163.328 79.36 163.412 79.7267 163.581 80.042C163.757 80.3573 163.984 80.5993 164.263 80.768C164.549 80.9293 164.849 81.01 165.165 81.01C165.487 81.01 165.788 80.9293 166.067 80.768C166.345 80.6067 166.569 80.372 166.738 80.064C166.914 79.7487 167.002 79.382 167.002 78.964ZM172.543 82.099C171.971 82.099 171.454 81.9707 170.992 81.714C170.53 81.45 170.167 81.0833 169.903 80.614C169.639 80.1373 169.507 79.5873 169.507 78.964C169.507 78.348 169.643 77.8017 169.914 77.325C170.185 76.8483 170.556 76.4817 171.025 76.225C171.494 75.9683 172.019 75.84 172.598 75.84C173.177 75.84 173.702 75.9683 174.171 76.225C174.64 76.4817 175.011 76.8483 175.282 77.325C175.553 77.8017 175.689 78.348 175.689 78.964C175.689 79.58 175.55 80.1263 175.271 80.603C174.992 81.0797 174.611 81.45 174.127 81.714C173.65 81.9707 173.122 82.099 172.543 82.099ZM172.543 81.01C172.866 81.01 173.166 80.933 173.445 80.779C173.731 80.625 173.962 80.394 174.138 80.086C174.314 79.778 174.402 79.404 174.402 78.964C174.402 78.524 174.318 78.1537 174.149 77.853C173.98 77.545 173.757 77.314 173.478 77.16C173.199 77.006 172.899 76.929 172.576 76.929C172.253 76.929 171.953 77.006 171.674 77.16C171.403 77.314 171.186 77.545 171.025 77.853C170.864 78.1537 170.783 78.524 170.783 78.964C170.783 79.6167 170.948 80.1227 171.278 80.482C171.615 80.834 172.037 81.01 172.543 81.01ZM179.987 75.84C180.463 75.84 180.889 75.939 181.263 76.137C181.644 76.335 181.941 76.6283 182.154 77.017C182.366 77.4057 182.473 77.875 182.473 78.425V82H181.23V78.612C181.23 78.0693 181.094 77.655 180.823 77.369C180.551 77.0757 180.181 76.929 179.712 76.929C179.242 76.929 178.868 77.0757 178.59 77.369C178.318 77.655 178.183 78.0693 178.183 78.612V82H176.929V75.939H178.183V76.632C178.388 76.3827 178.648 76.1883 178.964 76.049C179.286 75.9097 179.627 75.84 179.987 75.84ZM184.27 74.355H185.634L184.479 76.973H183.599L184.27 74.355ZM188.199 76.962V80.317C188.199 80.5443 188.25 80.7093 188.353 80.812C188.463 80.9073 188.646 80.955 188.903 80.955H189.673V82H188.683C188.118 82 187.686 81.868 187.385 81.604C187.084 81.34 186.934 80.911 186.934 80.317V76.962H186.219V75.939H186.934V74.432H188.199V75.939H189.673V76.962H188.199ZM43.366 92.962H42.244V98H40.979V92.962H40.264V91.939H40.979V91.51C40.979 90.8133 41.1623 90.3073 41.529 89.992C41.903 89.6693 42.486 89.508 43.278 89.508V90.553C42.8967 90.553 42.629 90.6263 42.475 90.773C42.321 90.9123 42.244 91.158 42.244 91.51V91.939H43.366V92.962ZM47.1063 98.099C46.5343 98.099 46.0173 97.9707 45.5553 97.714C45.0933 97.45 44.7303 97.0833 44.4663 96.614C44.2023 96.1373 44.0703 95.5873 44.0703 94.964C44.0703 94.348 44.206 93.8017 44.4773 93.325C44.7487 92.8483 45.119 92.4817 45.5883 92.225C46.0577 91.9683 46.582 91.84 47.1613 91.84C47.7407 91.84 48.265 91.9683 48.7343 92.225C49.2037 92.4817 49.574 92.8483 49.8453 93.325C50.1167 93.8017 50.2523 94.348 50.2523 94.964C50.2523 95.58 50.113 96.1263 49.8343 96.603C49.5557 97.0797 49.1743 97.45 48.6903 97.714C48.2137 97.9707 47.6857 98.099 47.1063 98.099ZM47.1063 97.01C47.429 97.01 47.7297 96.933 48.0083 96.779C48.2943 96.625 48.5253 96.394 48.7013 96.086C48.8773 95.778 48.9653 95.404 48.9653 94.964C48.9653 94.524 48.881 94.1537 48.7123 93.853C48.5437 93.545 48.32 93.314 48.0413 93.16C47.7627 93.006 47.462 92.929 47.1393 92.929C46.8167 92.929 46.516 93.006 46.2373 93.16C45.966 93.314 45.7497 93.545 45.5883 93.853C45.427 94.1537 45.3463 94.524 45.3463 94.964C45.3463 95.6167 45.5113 96.1227 45.8413 96.482C46.1787 96.834 46.6003 97.01 47.1063 97.01ZM52.746 92.819C52.9293 92.511 53.1713 92.2727 53.472 92.104C53.78 91.928 54.143 91.84 54.561 91.84V93.138H54.242C53.7507 93.138 53.3767 93.2627 53.12 93.512C52.8707 93.7613 52.746 94.194 52.746 94.81V98H51.492V91.939H52.746V92.819ZM58.1557 91.84C58.625 91.84 59.0393 91.9353 59.3987 92.126C59.7653 92.3093 60.0513 92.5403 60.2567 92.819V91.939H61.5217V98.099C61.5217 98.6563 61.4043 99.1513 61.1697 99.584C60.935 100.024 60.594 100.369 60.1467 100.618C59.7067 100.867 59.1787 100.992 58.5627 100.992C57.7413 100.992 57.0593 100.798 56.5167 100.409C55.974 100.028 55.666 99.507 55.5927 98.847H56.8357C56.931 99.1623 57.1327 99.4153 57.4407 99.606C57.756 99.804 58.13 99.903 58.5627 99.903C59.0687 99.903 59.4757 99.749 59.7837 99.441C60.099 99.133 60.2567 98.6857 60.2567 98.099V97.087C60.044 97.373 59.7543 97.615 59.3877 97.813C59.0283 98.0037 58.6177 98.099 58.1557 98.099C57.6277 98.099 57.1437 97.967 56.7037 97.703C56.271 97.4317 55.9263 97.0577 55.6697 96.581C55.4203 96.097 55.2957 95.5507 55.2957 94.942C55.2957 94.3333 55.4203 93.7943 55.6697 93.325C55.9263 92.8557 56.271 92.4927 56.7037 92.236C57.1437 91.972 57.6277 91.84 58.1557 91.84ZM60.2567 94.964C60.2567 94.546 60.1687 94.183 59.9927 93.875C59.824 93.567 59.6003 93.3323 59.3217 93.171C59.043 93.0097 58.7423 92.929 58.4197 92.929C58.097 92.929 57.7963 93.0097 57.5177 93.171C57.239 93.325 57.0117 93.556 56.8357 93.864C56.667 94.1647 56.5827 94.524 56.5827 94.942C56.5827 95.36 56.667 95.7267 56.8357 96.042C57.0117 96.3573 57.239 96.5993 57.5177 96.768C57.8037 96.9293 58.1043 97.01 58.4197 97.01C58.7423 97.01 59.043 96.9293 59.3217 96.768C59.6003 96.6067 59.824 96.372 59.9927 96.064C60.1687 95.7487 60.2567 95.382 60.2567 94.964ZM68.7238 94.821C68.7238 95.0483 68.7091 95.2537 68.6798 95.437H64.0488C64.0854 95.921 64.2651 96.3097 64.5878 96.603C64.9104 96.8963 65.3064 97.043 65.7758 97.043C66.4504 97.043 66.9271 96.7607 67.2058 96.196H68.5587C68.3754 96.7533 68.0418 97.2117 67.5578 97.571C67.0811 97.923 66.4871 98.099 65.7758 98.099C65.1964 98.099 64.6758 97.9707 64.2138 97.714C63.7591 97.45 63.3998 97.0833 63.1358 96.614C62.8791 96.1373 62.7508 95.5873 62.7508 94.964C62.7508 94.3407 62.8754 93.7943 63.1248 93.325C63.3814 92.8483 63.7371 92.4817 64.1918 92.225C64.6538 91.9683 65.1818 91.84 65.7758 91.84C66.3478 91.84 66.8574 91.9647 67.3048 92.214C67.7521 92.4633 68.1004 92.8153 68.3498 93.27C68.5991 93.7173 68.7238 94.2343 68.7238 94.821ZM67.4148 94.425C67.4074 93.963 67.2424 93.5927 66.9198 93.314C66.5971 93.0353 66.1974 92.896 65.7208 92.896C65.2881 92.896 64.9178 93.0353 64.6098 93.314C64.3018 93.5853 64.1184 93.9557 64.0598 94.425H67.4148ZM71.4208 92.962V96.317C71.4208 96.5443 71.4721 96.7093 71.5748 96.812C71.6848 96.9073 71.8681 96.955 72.1248 96.955H72.8948V98H71.9048C71.3401 98 70.9075 97.868 70.6068 97.604C70.3061 97.34 70.1558 96.911 70.1558 96.317V92.962H69.4408V91.939H70.1558V90.432H71.4208V91.939H72.8948V92.962H71.4208ZM78.371 92.962V96.317C78.371 96.5443 78.4223 96.7093 78.525 96.812C78.635 96.9073 78.8183 96.955 79.075 96.955H79.845V98H78.855C78.2903 98 77.8577 97.868 77.557 97.604C77.2563 97.34 77.106 96.911 77.106 96.317V92.962H76.391V91.939H77.106V90.432H78.371V91.939H79.845V92.962H78.371ZM83.6298 98.099C83.0578 98.099 82.5408 97.9707 82.0788 97.714C81.6168 97.45 81.2538 97.0833 80.9898 96.614C80.7258 96.1373 80.5938 95.5873 80.5938 94.964C80.5938 94.348 80.7294 93.8017 81.0008 93.325C81.2721 92.8483 81.6424 92.4817 82.1118 92.225C82.5811 91.9683 83.1054 91.84 83.6848 91.84C84.2641 91.84 84.7884 91.9683 85.2578 92.225C85.7271 92.4817 86.0974 92.8483 86.3688 93.325C86.6401 93.8017 86.7758 94.348 86.7758 94.964C86.7758 95.58 86.6364 96.1263 86.3578 96.603C86.0791 97.0797 85.6978 97.45 85.2138 97.714C84.7371 97.9707 84.2091 98.099 83.6298 98.099ZM83.6298 97.01C83.9524 97.01 84.2531 96.933 84.5318 96.779C84.8178 96.625 85.0488 96.394 85.2248 96.086C85.4008 95.778 85.4888 95.404 85.4888 94.964C85.4888 94.524 85.4044 94.1537 85.2358 93.853C85.0671 93.545 84.8434 93.314 84.5648 93.16C84.2861 93.006 83.9854 92.929 83.6628 92.929C83.3401 92.929 83.0394 93.006 82.7608 93.16C82.4894 93.314 82.2731 93.545 82.1118 93.853C81.9504 94.1537 81.8698 94.524 81.8698 94.964C81.8698 95.6167 82.0348 96.1227 82.3648 96.482C82.7021 96.834 83.1238 97.01 83.6298 97.01ZM92.1269 89.86V98H90.8729V89.86H92.1269ZM94.4112 91.136C94.1839 91.136 93.9932 91.059 93.8392 90.905C93.6852 90.751 93.6082 90.5603 93.6082 90.333C93.6082 90.1057 93.6852 89.915 93.8392 89.761C93.9932 89.607 94.1839 89.53 94.4112 89.53C94.6312 89.53 94.8182 89.607 94.9722 89.761C95.1262 89.915 95.2032 90.1057 95.2032 90.333C95.2032 90.5603 95.1262 90.751 94.9722 90.905C94.8182 91.059 94.6312 91.136 94.4112 91.136ZM95.0272 91.939V98H93.7732V91.939H95.0272ZM99.0716 94.975L101.866 98H100.172L97.9276 95.393V98H96.6736V89.86H97.9276V94.59L100.128 91.939H101.866L99.0716 94.975ZM108.319 94.821C108.319 95.0483 108.305 95.2537 108.275 95.437H103.644C103.681 95.921 103.861 96.3097 104.183 96.603C104.506 96.8963 104.902 97.043 105.371 97.043C106.046 97.043 106.523 96.7607 106.801 96.196H108.154C107.971 96.7533 107.637 97.2117 107.153 97.571C106.677 97.923 106.083 98.099 105.371 98.099C104.792 98.099 104.271 97.9707 103.809 97.714C103.355 97.45 102.995 97.0833 102.731 96.614C102.475 96.1373 102.346 95.5873 102.346 94.964C102.346 94.3407 102.471 93.7943 102.72 93.325C102.977 92.8483 103.333 92.4817 103.787 92.225C104.249 91.9683 104.777 91.84 105.371 91.84C105.943 91.84 106.453 91.9647 106.9 92.214C107.348 92.4633 107.696 92.8153 107.945 93.27C108.195 93.7173 108.319 94.2343 108.319 94.821ZM107.01 94.425C107.003 93.963 106.838 93.5927 106.515 93.314C106.193 93.0353 105.793 92.896 105.316 92.896C104.884 92.896 104.513 93.0353 104.205 93.314C103.897 93.5853 103.714 93.9557 103.655 94.425H107.01ZM110.929 96.493L109.598 99.529H108.784L109.565 96.493H110.929ZM117.423 92.962H116.301V98H115.036V92.962H114.321V91.939H115.036V91.51C115.036 90.8133 115.219 90.3073 115.586 89.992C115.96 89.6693 116.543 89.508 117.335 89.508V90.553C116.953 90.553 116.686 90.6263 116.532 90.773C116.378 90.9123 116.301 91.158 116.301 91.51V91.939H117.423V92.962ZM118.116 94.942C118.116 94.3333 118.241 93.7943 118.49 93.325C118.747 92.8557 119.091 92.4927 119.524 92.236C119.964 91.972 120.448 91.84 120.976 91.84C121.453 91.84 121.867 91.9353 122.219 92.126C122.578 92.3093 122.864 92.5403 123.077 92.819V91.939H124.342V98H123.077V97.098C122.864 97.384 122.575 97.6223 122.208 97.813C121.841 98.0037 121.423 98.099 120.954 98.099C120.433 98.099 119.957 97.967 119.524 97.703C119.091 97.4317 118.747 97.0577 118.49 96.581C118.241 96.097 118.116 95.5507 118.116 94.942ZM123.077 94.964C123.077 94.546 122.989 94.183 122.813 93.875C122.644 93.567 122.421 93.3323 122.142 93.171C121.863 93.0097 121.563 92.929 121.24 92.929C120.917 92.929 120.617 93.0097 120.338 93.171C120.059 93.325 119.832 93.556 119.656 93.864C119.487 94.1647 119.403 94.524 119.403 94.942C119.403 95.36 119.487 95.7267 119.656 96.042C119.832 96.3573 120.059 96.5993 120.338 96.768C120.624 96.9293 120.925 97.01 121.24 97.01C121.563 97.01 121.863 96.9293 122.142 96.768C122.421 96.6067 122.644 96.372 122.813 96.064C122.989 95.7487 123.077 95.382 123.077 94.964ZM128.332 96.878L130.048 91.939H131.379L129.069 98H127.573L125.274 91.939H126.616L128.332 96.878ZM133.702 96.493L132.371 99.529H131.557L132.338 96.493H133.702ZM139.855 98.099C139.378 98.099 138.949 98.0147 138.568 97.846C138.194 97.67 137.897 97.4353 137.677 97.142C137.457 96.8413 137.34 96.5077 137.325 96.141H138.623C138.645 96.3977 138.766 96.614 138.986 96.79C139.213 96.9587 139.496 97.043 139.833 97.043C140.185 97.043 140.456 96.977 140.647 96.845C140.845 96.7057 140.944 96.5297 140.944 96.317C140.944 96.0897 140.834 95.921 140.614 95.811C140.401 95.701 140.06 95.58 139.591 95.448C139.136 95.3233 138.766 95.2023 138.48 95.085C138.194 94.9677 137.945 94.788 137.732 94.546C137.527 94.304 137.424 93.985 137.424 93.589C137.424 93.2663 137.519 92.973 137.71 92.709C137.901 92.4377 138.172 92.225 138.524 92.071C138.883 91.917 139.294 91.84 139.756 91.84C140.445 91.84 140.999 92.016 141.417 92.368C141.842 92.7127 142.07 93.1857 142.099 93.787H140.845C140.823 93.5157 140.713 93.2993 140.515 93.138C140.317 92.9767 140.049 92.896 139.712 92.896C139.382 92.896 139.129 92.9583 138.953 93.083C138.777 93.2077 138.689 93.3727 138.689 93.578C138.689 93.7393 138.748 93.875 138.865 93.985C138.982 94.095 139.125 94.183 139.294 94.249C139.463 94.3077 139.712 94.3847 140.042 94.48C140.482 94.5973 140.841 94.7183 141.12 94.843C141.406 94.9603 141.652 95.1363 141.857 95.371C142.062 95.6057 142.169 95.9173 142.176 96.306C142.176 96.6507 142.081 96.9587 141.89 97.23C141.699 97.5013 141.428 97.714 141.076 97.868C140.731 98.022 140.324 98.099 139.855 98.099ZM146.666 91.84C147.128 91.84 147.539 91.939 147.898 92.137C148.265 92.335 148.551 92.6283 148.756 93.017C148.969 93.4057 149.075 93.875 149.075 94.425V98H147.832V94.612C147.832 94.0693 147.696 93.655 147.425 93.369C147.154 93.0757 146.783 92.929 146.314 92.929C145.845 92.929 145.471 93.0757 145.192 93.369C144.921 93.655 144.785 94.0693 144.785 94.612V98H143.531V89.86H144.785V92.643C144.998 92.3863 145.265 92.1883 145.588 92.049C145.918 91.9097 146.277 91.84 146.666 91.84ZM150.257 94.942C150.257 94.3333 150.381 93.7943 150.631 93.325C150.887 92.8557 151.232 92.4927 151.665 92.236C152.105 91.972 152.589 91.84 153.117 91.84C153.593 91.84 154.008 91.9353 154.36 92.126C154.719 92.3093 155.005 92.5403 155.218 92.819V91.939H156.483V98H155.218V97.098C155.005 97.384 154.715 97.6223 154.349 97.813C153.982 98.0037 153.564 98.099 153.095 98.099C152.574 98.099 152.097 97.967 151.665 97.703C151.232 97.4317 150.887 97.0577 150.631 96.581C150.381 96.097 150.257 95.5507 150.257 94.942ZM155.218 94.964C155.218 94.546 155.13 94.183 154.954 93.875C154.785 93.567 154.561 93.3323 154.283 93.171C154.004 93.0097 153.703 92.929 153.381 92.929C153.058 92.929 152.757 93.0097 152.479 93.171C152.2 93.325 151.973 93.556 151.797 93.864C151.628 94.1647 151.544 94.524 151.544 94.942C151.544 95.36 151.628 95.7267 151.797 96.042C151.973 96.3573 152.2 96.5993 152.479 96.768C152.765 96.9293 153.065 97.01 153.381 97.01C153.703 97.01 154.004 96.9293 154.283 96.768C154.561 96.6067 154.785 96.372 154.954 96.064C155.13 95.7487 155.218 95.382 155.218 94.964ZM159.384 92.819C159.567 92.511 159.809 92.2727 160.11 92.104C160.418 91.928 160.781 91.84 161.199 91.84V93.138H160.88C160.388 93.138 160.014 93.2627 159.758 93.512C159.508 93.7613 159.384 94.194 159.384 94.81V98H158.13V91.939H159.384V92.819ZM167.906 94.821C167.906 95.0483 167.892 95.2537 167.862 95.437H163.231C163.268 95.921 163.448 96.3097 163.77 96.603C164.093 96.8963 164.489 97.043 164.958 97.043C165.633 97.043 166.11 96.7607 166.388 96.196H167.741C167.558 96.7533 167.224 97.2117 166.74 97.571C166.264 97.923 165.67 98.099 164.958 98.099C164.379 98.099 163.858 97.9707 163.396 97.714C162.942 97.45 162.582 97.0833 162.318 96.614C162.062 96.1373 161.933 95.5873 161.933 94.964C161.933 94.3407 162.058 93.7943 162.307 93.325C162.564 92.8483 162.92 92.4817 163.374 92.225C163.836 91.9683 164.364 91.84 164.958 91.84C165.53 91.84 166.04 91.9647 166.487 92.214C166.935 92.4633 167.283 92.8153 167.532 93.27C167.782 93.7173 167.906 94.2343 167.906 94.821ZM166.597 94.425C166.59 93.963 166.425 93.5927 166.102 93.314C165.78 93.0353 165.38 92.896 164.903 92.896C164.471 92.896 164.1 93.0353 163.792 93.314C163.484 93.5853 163.301 93.9557 163.242 94.425H166.597ZM170.515 96.493L169.184 99.529H168.37L169.151 96.493H170.515ZM40.407 110.964C40.407 110.341 40.5317 109.794 40.781 109.325C41.0377 108.848 41.3897 108.482 41.837 108.225C42.2843 107.968 42.7977 107.84 43.377 107.84C44.1103 107.84 44.7153 108.016 45.192 108.368C45.676 108.713 46.0023 109.208 46.171 109.853H44.818C44.708 109.552 44.532 109.318 44.29 109.149C44.048 108.98 43.7437 108.896 43.377 108.896C42.8637 108.896 42.453 109.079 42.145 109.446C41.8443 109.805 41.694 110.311 41.694 110.964C41.694 111.617 41.8443 112.126 42.145 112.493C42.453 112.86 42.8637 113.043 43.377 113.043C44.103 113.043 44.5833 112.724 44.818 112.086H46.171C45.995 112.702 45.665 113.193 45.181 113.56C44.697 113.919 44.0957 114.099 43.377 114.099C42.7977 114.099 42.2843 113.971 41.837 113.714C41.3897 113.45 41.0377 113.083 40.781 112.614C40.5317 112.137 40.407 111.587 40.407 110.964ZM50.0497 114.099C49.4777 114.099 48.9607 113.971 48.4987 113.714C48.0367 113.45 47.6737 113.083 47.4097 112.614C47.1457 112.137 47.0137 111.587 47.0137 110.964C47.0137 110.348 47.1494 109.802 47.4207 109.325C47.692 108.848 48.0624 108.482 48.5317 108.225C49.001 107.968 49.5254 107.84 50.1047 107.84C50.684 107.84 51.2084 107.968 51.6777 108.225C52.147 108.482 52.5174 108.848 52.7887 109.325C53.06 109.802 53.1957 110.348 53.1957 110.964C53.1957 111.58 53.0564 112.126 52.7777 112.603C52.499 113.08 52.1177 113.45 51.6337 113.714C51.157 113.971 50.629 114.099 50.0497 114.099ZM50.0497 113.01C50.3724 113.01 50.673 112.933 50.9517 112.779C51.2377 112.625 51.4687 112.394 51.6447 112.086C51.8207 111.778 51.9087 111.404 51.9087 110.964C51.9087 110.524 51.8244 110.154 51.6557 109.853C51.487 109.545 51.2634 109.314 50.9847 109.16C50.706 109.006 50.4054 108.929 50.0827 108.929C49.76 108.929 49.4594 109.006 49.1807 109.16C48.9094 109.314 48.693 109.545 48.5317 109.853C48.3704 110.154 48.2897 110.524 48.2897 110.964C48.2897 111.617 48.4547 112.123 48.7847 112.482C49.122 112.834 49.5437 113.01 50.0497 113.01ZM61.7724 107.84C62.249 107.84 62.6744 107.939 63.0484 108.137C63.4297 108.335 63.7267 108.628 63.9394 109.017C64.1594 109.406 64.2694 109.875 64.2694 110.425V114H63.0264V110.612C63.0264 110.069 62.8907 109.655 62.6194 109.369C62.348 109.076 61.9777 108.929 61.5084 108.929C61.039 108.929 60.665 109.076 60.3864 109.369C60.115 109.655 59.9794 110.069 59.9794 110.612V114H58.7364V110.612C58.7364 110.069 58.6007 109.655 58.3294 109.369C58.058 109.076 57.6877 108.929 57.2184 108.929C56.749 108.929 56.375 109.076 56.0964 109.369C55.825 109.655 55.6894 110.069 55.6894 110.612V114H54.4354V107.939H55.6894V108.632C55.8947 108.383 56.155 108.188 56.4704 108.049C56.7857 107.91 57.123 107.84 57.4824 107.84C57.9664 107.84 58.399 107.943 58.7804 108.148C59.1617 108.353 59.455 108.65 59.6604 109.039C59.8437 108.672 60.1297 108.383 60.5184 108.17C60.907 107.95 61.325 107.84 61.7724 107.84ZM73.202 107.84C73.6787 107.84 74.104 107.939 74.478 108.137C74.8594 108.335 75.1564 108.628 75.369 109.017C75.589 109.406 75.699 109.875 75.699 110.425V114H74.456V110.612C74.456 110.069 74.3204 109.655 74.049 109.369C73.7777 109.076 73.4074 108.929 72.938 108.929C72.4687 108.929 72.0947 109.076 71.816 109.369C71.5447 109.655 71.409 110.069 71.409 110.612V114H70.166V110.612C70.166 110.069 70.0304 109.655 69.759 109.369C69.4877 109.076 69.1174 108.929 68.648 108.929C68.1787 108.929 67.8047 109.076 67.526 109.369C67.2547 109.655 67.119 110.069 67.119 110.612V114H65.865V107.939H67.119V108.632C67.3244 108.383 67.5847 108.188 67.9 108.049C68.2154 107.91 68.5527 107.84 68.912 107.84C69.396 107.84 69.8287 107.943 70.21 108.148C70.5914 108.353 70.8847 108.65 71.09 109.039C71.2734 108.672 71.5594 108.383 71.948 108.17C72.3367 107.95 72.7547 107.84 73.202 107.84ZM82.8497 110.821C82.8497 111.048 82.8351 111.254 82.8057 111.437H78.1747C78.2114 111.921 78.3911 112.31 78.7137 112.603C79.0364 112.896 79.4324 113.043 79.9017 113.043C80.5764 113.043 81.0531 112.761 81.3317 112.196H82.6847C82.5014 112.753 82.1677 113.212 81.6837 113.571C81.2071 113.923 80.6131 114.099 79.9017 114.099C79.3224 114.099 78.8017 113.971 78.3397 113.714C77.8851 113.45 77.5257 113.083 77.2617 112.614C77.0051 112.137 76.8767 111.587 76.8767 110.964C76.8767 110.341 77.0014 109.794 77.2507 109.325C77.5074 108.848 77.8631 108.482 78.3177 108.225C78.7797 107.968 79.3077 107.84 79.9017 107.84C80.4737 107.84 80.9834 107.965 81.4307 108.214C81.8781 108.463 82.2264 108.815 82.4757 109.27C82.7251 109.717 82.8497 110.234 82.8497 110.821ZM81.5407 110.425C81.5334 109.963 81.3684 109.593 81.0457 109.314C80.7231 109.035 80.3234 108.896 79.8467 108.896C79.4141 108.896 79.0437 109.035 78.7357 109.314C78.4277 109.585 78.2444 109.956 78.1857 110.425H81.5407ZM87.1418 107.84C87.6185 107.84 88.0438 107.939 88.4178 108.137C88.7991 108.335 89.0961 108.628 89.3088 109.017C89.5215 109.406 89.6278 109.875 89.6278 110.425V114H88.3848V110.612C88.3848 110.069 88.2491 109.655 87.9778 109.369C87.7065 109.076 87.3361 108.929 86.8668 108.929C86.3975 108.929 86.0235 109.076 85.7448 109.369C85.4735 109.655 85.3378 110.069 85.3378 110.612V114H84.0838V107.939H85.3378V108.632C85.5431 108.383 85.8035 108.188 86.1188 108.049C86.4415 107.91 86.7825 107.84 87.1418 107.84ZM92.6903 108.962V112.317C92.6903 112.544 92.7417 112.709 92.8443 112.812C92.9543 112.907 93.1377 112.955 93.3943 112.955H94.1643V114H93.1743C92.6097 114 92.177 113.868 91.8763 113.604C91.5757 113.34 91.4253 112.911 91.4253 112.317V108.962H90.7103V107.939H91.4253V106.432H92.6903V107.939H94.1643V108.962H92.6903ZM96.6951 112.493L95.3641 115.529H94.5501L95.3311 112.493H96.6951ZM103.277 114.099C102.705 114.099 102.188 113.971 101.726 113.714C101.264 113.45 100.901 113.083 100.637 112.614C100.373 112.137 100.241 111.587 100.241 110.964C100.241 110.348 100.377 109.802 100.648 109.325C100.92 108.848 101.29 108.482 101.759 108.225C102.229 107.968 102.753 107.84 103.332 107.84C103.912 107.84 104.436 107.968 104.905 108.225C105.375 108.482 105.745 108.848 106.016 109.325C106.288 109.802 106.423 110.348 106.423 110.964C106.423 111.58 106.284 112.126 106.005 112.603C105.727 113.08 105.345 113.45 104.861 113.714C104.385 113.971 103.857 114.099 103.277 114.099ZM103.277 113.01C103.6 113.01 103.901 112.933 104.179 112.779C104.465 112.625 104.696 112.394 104.872 112.086C105.048 111.778 105.136 111.404 105.136 110.964C105.136 110.524 105.052 110.154 104.883 109.853C104.715 109.545 104.491 109.314 104.212 109.16C103.934 109.006 103.633 108.929 103.31 108.929C102.988 108.929 102.687 109.006 102.408 109.16C102.137 109.314 101.921 109.545 101.759 109.853C101.598 110.154 101.517 110.524 101.517 110.964C101.517 111.617 101.682 112.123 102.012 112.482C102.35 112.834 102.771 113.01 103.277 113.01ZM108.917 108.819C109.1 108.511 109.342 108.273 109.643 108.104C109.951 107.928 110.314 107.84 110.732 107.84V109.138H110.413C109.922 109.138 109.548 109.263 109.291 109.512C109.042 109.761 108.917 110.194 108.917 110.81V114H107.663V107.939H108.917V108.819ZM120.297 110.821C120.297 111.048 120.282 111.254 120.253 111.437H115.622C115.659 111.921 115.838 112.31 116.161 112.603C116.484 112.896 116.88 113.043 117.349 113.043C118.024 113.043 118.5 112.761 118.779 112.196H120.132C119.949 112.753 119.615 113.212 119.131 113.571C118.654 113.923 118.06 114.099 117.349 114.099C116.77 114.099 116.249 113.971 115.787 113.714C115.332 113.45 114.973 113.083 114.709 112.614C114.452 112.137 114.324 111.587 114.324 110.964C114.324 110.341 114.449 109.794 114.698 109.325C114.955 108.848 115.31 108.482 115.765 108.225C116.227 107.968 116.755 107.84 117.349 107.84C117.921 107.84 118.431 107.965 118.878 108.214C119.325 108.463 119.674 108.815 119.923 109.27C120.172 109.717 120.297 110.234 120.297 110.821ZM118.988 110.425C118.981 109.963 118.816 109.593 118.493 109.314C118.17 109.035 117.771 108.896 117.294 108.896C116.861 108.896 116.491 109.035 116.183 109.314C115.875 109.585 115.692 109.956 115.633 110.425H118.988ZM123.874 112.878L125.59 107.939H126.921L124.611 114H123.115L120.816 107.939H122.158L123.874 112.878ZM133.424 110.821C133.424 111.048 133.409 111.254 133.38 111.437H128.749C128.786 111.921 128.965 112.31 129.288 112.603C129.611 112.896 130.007 113.043 130.476 113.043C131.151 113.043 131.627 112.761 131.906 112.196H133.259C133.076 112.753 132.742 113.212 132.258 113.571C131.781 113.923 131.187 114.099 130.476 114.099C129.897 114.099 129.376 113.971 128.914 113.714C128.459 113.45 128.1 113.083 127.836 112.614C127.579 112.137 127.451 111.587 127.451 110.964C127.451 110.341 127.576 109.794 127.825 109.325C128.082 108.848 128.437 108.482 128.892 108.225C129.354 107.968 129.882 107.84 130.476 107.84C131.048 107.84 131.558 107.965 132.005 108.214C132.452 108.463 132.801 108.815 133.05 109.27C133.299 109.717 133.424 110.234 133.424 110.821ZM132.115 110.425C132.108 109.963 131.943 109.593 131.62 109.314C131.297 109.035 130.898 108.896 130.421 108.896C129.988 108.896 129.618 109.035 129.31 109.314C129.002 109.585 128.819 109.956 128.76 110.425H132.115ZM137.716 107.84C138.193 107.84 138.618 107.939 138.992 108.137C139.373 108.335 139.67 108.628 139.883 109.017C140.096 109.406 140.202 109.875 140.202 110.425V114H138.959V110.612C138.959 110.069 138.823 109.655 138.552 109.369C138.281 109.076 137.91 108.929 137.441 108.929C136.972 108.929 136.598 109.076 136.319 109.369C136.048 109.655 135.912 110.069 135.912 110.612V114H134.658V107.939H135.912V108.632C136.117 108.383 136.378 108.188 136.693 108.049C137.016 107.91 137.357 107.84 137.716 107.84ZM147.2 108.962H146.078V114H144.813V108.962H144.098V107.939H144.813V107.51C144.813 106.813 144.996 106.307 145.363 105.992C145.737 105.669 146.32 105.508 147.112 105.508V106.553C146.731 106.553 146.463 106.626 146.309 106.773C146.155 106.912 146.078 107.158 146.078 107.51V107.939H147.2V108.962ZM150.94 114.099C150.368 114.099 149.851 113.971 149.389 113.714C148.927 113.45 148.564 113.083 148.3 112.614C148.036 112.137 147.904 111.587 147.904 110.964C147.904 110.348 148.04 109.802 148.311 109.325C148.583 108.848 148.953 108.482 149.422 108.225C149.892 107.968 150.416 107.84 150.995 107.84C151.575 107.84 152.099 107.968 152.568 108.225C153.038 108.482 153.408 108.848 153.679 109.325C153.951 109.802 154.086 110.348 154.086 110.964C154.086 111.58 153.947 112.126 153.668 112.603C153.39 113.08 153.008 113.45 152.524 113.714C152.048 113.971 151.52 114.099 150.94 114.099ZM150.94 113.01C151.263 113.01 151.564 112.933 151.842 112.779C152.128 112.625 152.359 112.394 152.535 112.086C152.711 111.778 152.799 111.404 152.799 110.964C152.799 110.524 152.715 110.154 152.546 109.853C152.378 109.545 152.154 109.314 151.875 109.16C151.597 109.006 151.296 108.929 150.973 108.929C150.651 108.929 150.35 109.006 150.071 109.16C149.8 109.314 149.584 109.545 149.422 109.853C149.261 110.154 149.18 110.524 149.18 110.964C149.18 111.617 149.345 112.123 149.675 112.482C150.013 112.834 150.434 113.01 150.94 113.01ZM156.58 105.86V114H155.326V105.86H156.58ZM159.48 105.86V114H158.226V105.86H159.48ZM163.756 114.099C163.184 114.099 162.667 113.971 162.205 113.714C161.743 113.45 161.38 113.083 161.116 112.614C160.852 112.137 160.72 111.587 160.72 110.964C160.72 110.348 160.855 109.802 161.127 109.325C161.398 108.848 161.768 108.482 162.238 108.225C162.707 107.968 163.231 107.84 163.811 107.84C164.39 107.84 164.914 107.968 165.384 108.225C165.853 108.482 166.223 108.848 166.495 109.325C166.766 109.802 166.902 110.348 166.902 110.964C166.902 111.58 166.762 112.126 166.484 112.603C166.205 113.08 165.824 113.45 165.34 113.714C164.863 113.971 164.335 114.099 163.756 114.099ZM163.756 113.01C164.078 113.01 164.379 112.933 164.658 112.779C164.944 112.625 165.175 112.394 165.351 112.086C165.527 111.778 165.615 111.404 165.615 110.964C165.615 110.524 165.53 110.154 165.362 109.853C165.193 109.545 164.969 109.314 164.691 109.16C164.412 109.006 164.111 108.929 163.789 108.929C163.466 108.929 163.165 109.006 162.887 109.16C162.615 109.314 162.399 109.545 162.238 109.853C162.076 110.154 161.996 110.524 161.996 110.964C161.996 111.617 162.161 112.123 162.491 112.482C162.828 112.834 163.25 113.01 163.756 113.01ZM176.281 107.939L174.4 114H173.08L171.859 109.523L170.638 114H169.318L167.426 107.939H168.702L169.967 112.812L171.254 107.939H172.563L173.795 112.79L175.049 107.939H176.281ZM187.413 107.84C187.89 107.84 188.315 107.939 188.689 108.137C189.07 108.335 189.367 108.628 189.58 109.017C189.8 109.406 189.91 109.875 189.91 110.425V114H188.667V110.612C188.667 110.069 188.531 109.655 188.26 109.369C187.989 109.076 187.618 108.929 187.149 108.929C186.68 108.929 186.306 109.076 186.027 109.369C185.756 109.655 185.62 110.069 185.62 110.612V114H184.377V110.612C184.377 110.069 184.241 109.655 183.97 109.369C183.699 109.076 183.328 108.929 182.859 108.929C182.39 108.929 182.016 109.076 181.737 109.369C181.466 109.655 181.33 110.069 181.33 110.612V114H180.076V107.939H181.33V108.632C181.535 108.383 181.796 108.188 182.111 108.049C182.426 107.91 182.764 107.84 183.123 107.84C183.607 107.84 184.04 107.943 184.421 108.148C184.802 108.353 185.096 108.65 185.301 109.039C185.484 108.672 185.77 108.383 186.159 108.17C186.548 107.95 186.966 107.84 187.413 107.84ZM197.061 110.821C197.061 111.048 197.046 111.254 197.017 111.437H192.386C192.422 111.921 192.602 112.31 192.925 112.603C193.247 112.896 193.643 113.043 194.113 113.043C194.787 113.043 195.264 112.761 195.543 112.196H196.896C196.712 112.753 196.379 113.212 195.895 113.571C195.418 113.923 194.824 114.099 194.113 114.099C193.533 114.099 193.013 113.971 192.551 113.714C192.096 113.45 191.737 113.083 191.473 112.614C191.216 112.137 191.088 111.587 191.088 110.964C191.088 110.341 191.212 109.794 191.462 109.325C191.718 108.848 192.074 108.482 192.529 108.225C192.991 107.968 193.519 107.84 194.113 107.84C194.685 107.84 195.194 107.965 195.642 108.214C196.089 108.463 196.437 108.815 196.687 109.27C196.936 109.717 197.061 110.234 197.061 110.821ZM195.752 110.425C195.744 109.963 195.579 109.593 195.257 109.314C194.934 109.035 194.534 108.896 194.058 108.896C193.625 108.896 193.255 109.035 192.947 109.314C192.639 109.585 192.455 109.956 192.397 110.425H195.752ZM199.868 106.355L199.725 111.69H198.68L198.537 106.355H199.868ZM199.241 114.077C199.013 114.077 198.823 114 198.669 113.846C198.515 113.692 198.438 113.501 198.438 113.274C198.438 113.047 198.515 112.856 198.669 112.702C198.823 112.548 199.013 112.471 199.241 112.471C199.461 112.471 199.648 112.548 199.802 112.702C199.956 112.856 200.033 113.047 200.033 113.274C200.033 113.501 199.956 113.692 199.802 113.846C199.648 114 199.461 114.077 199.241 114.077Z"></path>
<path stroke-linejoin="round" stroke-linecap="round" stroke-width="1.5" stroke="#BFBFBF" d="M211.464 41.4645L218.536 48.5356M218.536 41.4645L211.464 48.5356"></path>
<path stroke-linecap="round" stroke-width="3" stroke-opacity="0.5" stroke="white" d="M49.25 39.25V46.125C49.25 48.5412 47.2913 50.5 44.875 50.5V50.5C42.4588 50.5 40.5 48.5412 40.5 46.125V46.125"></path>
<path stroke-linecap="round" stroke-width="3" stroke="white" d="M49.25 46.125V46.125C49.25 48.5412 47.2913 50.5 44.875 50.5V50.5C42.4588 50.5 40.5 48.5412 40.5 46.125V46.125"></path>
</svg>
