<svg xmlns="http://www.w3.org/2000/svg" fill="none" viewBox="0 0 122 142" height="142" width="122">
<path fill-opacity="0.9" fill="#CCCCCC" d="M1 11C1 5.47716 5.47715 1 11 1H111C116.523 1 121 5.47715 121 11V131C121 136.523 116.523 141 111 141H11C5.47715 141 1 136.523 1 131V11Z"></path>
<path stroke-opacity="0.2" stroke="white" d="M111 0.5H11C5.20101 0.5 0.5 5.20101 0.5 11V131C0.5 136.799 5.20101 141.5 11 141.5H111C116.799 141.5 121.5 136.799 121.5 131V11C121.5 5.20101 116.799 0.5 111 0.5Z"></path>
<path fill="black" d="M16.324 92.355V93.378H13.079V95.633H15.609V96.656H13.079V100H11.825V92.355H16.324ZM17.0681 96.942C17.0681 96.3333 17.1928 95.7943 17.4421 95.325C17.6988 94.8557 18.0435 94.4927 18.4761 94.236C18.9161 93.972 19.4001 93.84 19.9281 93.84C20.4048 93.84 20.8191 93.9353 21.1711 94.126C21.5305 94.3093 21.8165 94.5403 22.0291 94.819V93.939H23.2941V100H22.0291V99.098C21.8165 99.384 21.5268 99.6223 21.1601 99.813C20.7935 100.004 20.3755 100.099 19.9061 100.099C19.3855 100.099 18.9088 99.967 18.4761 99.703C18.0435 99.4317 17.6988 99.0577 17.4421 98.581C17.1928 98.097 17.0681 97.5507 17.0681 96.942ZM22.0291 96.964C22.0291 96.546 21.9411 96.183 21.7651 95.875C21.5965 95.567 21.3728 95.3323 21.0941 95.171C20.8155 95.0097 20.5148 94.929 20.1921 94.929C19.8695 94.929 19.5688 95.0097 19.2901 95.171C19.0115 95.325 18.7841 95.556 18.6081 95.864C18.4395 96.1647 18.3551 96.524 18.3551 96.942C18.3551 97.36 18.4395 97.7267 18.6081 98.042C18.7841 98.3573 19.0115 98.5993 19.2901 98.768C19.5761 98.9293 19.8768 99.01 20.1921 99.01C20.5148 99.01 20.8155 98.9293 21.0941 98.768C21.3728 98.6067 21.5965 98.372 21.7651 98.064C21.9411 97.7487 22.0291 97.382 22.0291 96.964ZM26.1952 91.86V100H24.9412V91.86H26.1952ZM29.0956 91.86V100H27.8416V91.86H29.0956ZM31.38 93.136C31.1527 93.136 30.962 93.059 30.808 92.905C30.654 92.751 30.577 92.5603 30.577 92.333C30.577 92.1057 30.654 91.915 30.808 91.761C30.962 91.607 31.1527 91.53 31.38 91.53C31.6 91.53 31.787 91.607 31.941 91.761C32.095 91.915 32.172 92.1057 32.172 92.333C32.172 92.5603 32.095 92.751 31.941 92.905C31.787 93.059 31.6 93.136 31.38 93.136ZM31.996 93.939V100H30.742V93.939H31.996ZM36.7004 93.84C37.177 93.84 37.6024 93.939 37.9764 94.137C38.3577 94.335 38.6547 94.6283 38.8674 95.017C39.08 95.4057 39.1864 95.875 39.1864 96.425V100H37.9434V96.612C37.9434 96.0693 37.8077 95.655 37.5364 95.369C37.265 95.0757 36.8947 94.929 36.4254 94.929C35.956 94.929 35.582 95.0757 35.3034 95.369C35.032 95.655 34.8964 96.0693 34.8964 96.612V100H33.6424V93.939H34.8964V94.632C35.1017 94.3827 35.362 94.1883 35.6774 94.049C36 93.9097 36.341 93.84 36.7004 93.84ZM43.2279 93.84C43.6973 93.84 44.1116 93.9353 44.4709 94.126C44.8376 94.3093 45.1236 94.5403 45.3289 94.819V93.939H46.5939V100.099C46.5939 100.656 46.4766 101.151 46.2419 101.584C46.0073 102.024 45.6663 102.369 45.2189 102.618C44.7789 102.867 44.2509 102.992 43.6349 102.992C42.8136 102.992 42.1316 102.798 41.5889 102.409C41.0463 102.028 40.7383 101.507 40.6649 100.847H41.9079C42.0033 101.162 42.2049 101.415 42.5129 101.606C42.8283 101.804 43.2023 101.903 43.6349 101.903C44.1409 101.903 44.5479 101.749 44.8559 101.441C45.1713 101.133 45.3289 100.686 45.3289 100.099V99.087C45.1163 99.373 44.8266 99.615 44.4599 99.813C44.1006 100.004 43.6899 100.099 43.2279 100.099C42.6999 100.099 42.2159 99.967 41.7759 99.703C41.3433 99.4317 40.9986 99.0577 40.7419 98.581C40.4926 98.097 40.3679 97.5507 40.3679 96.942C40.3679 96.3333 40.4926 95.7943 40.7419 95.325C40.9986 94.8557 41.3433 94.4927 41.7759 94.236C42.2159 93.972 42.6999 93.84 43.2279 93.84ZM45.3289 96.964C45.3289 96.546 45.2409 96.183 45.0649 95.875C44.8963 95.567 44.6726 95.3323 44.3939 95.171C44.1153 95.0097 43.8146 94.929 43.4919 94.929C43.1693 94.929 42.8686 95.0097 42.5899 95.171C42.3113 95.325 42.0839 95.556 41.9079 95.864C41.7393 96.1647 41.6549 96.524 41.6549 96.942C41.6549 97.36 41.7393 97.7267 41.9079 98.042C42.0839 98.3573 42.3113 98.5993 42.5899 98.768C42.8759 98.9293 43.1766 99.01 43.4919 99.01C43.8146 99.01 44.1153 98.9293 44.3939 98.768C44.6726 98.6067 44.8963 98.372 45.0649 98.064C45.2409 97.7487 45.3289 97.382 45.3289 96.964ZM52.3524 93.367V95.611H54.9924V96.634H52.3524V98.977H55.3224V100H51.0984V92.344H55.3224V93.367H52.3524ZM56.449 96.942C56.449 96.3333 56.5737 95.7943 56.823 95.325C57.0797 94.8557 57.4243 94.4927 57.857 94.236C58.297 93.972 58.7847 93.84 59.32 93.84C59.7893 93.84 60.2037 93.9353 60.563 94.126C60.9297 94.3167 61.212 94.5477 61.41 94.819V93.939H62.675V102.882H61.41V99.12C61.212 99.3913 60.926 99.6223 60.552 99.813C60.178 100.004 59.7527 100.099 59.276 100.099C58.7553 100.099 58.2787 99.967 57.846 99.703C57.4207 99.4317 57.0797 99.0577 56.823 98.581C56.5737 98.097 56.449 97.5507 56.449 96.942ZM61.41 96.964C61.41 96.546 61.322 96.183 61.146 95.875C60.9773 95.567 60.7537 95.3323 60.475 95.171C60.1963 95.0097 59.8957 94.929 59.573 94.929C59.2503 94.929 58.9497 95.0097 58.671 95.171C58.3923 95.325 58.165 95.556 57.989 95.864C57.8203 96.1647 57.736 96.524 57.736 96.942C57.736 97.36 57.8203 97.7267 57.989 98.042C58.165 98.3573 58.3923 98.5993 58.671 98.768C58.957 98.9293 59.2577 99.01 59.573 99.01C59.8957 99.01 60.1963 98.9293 60.475 98.768C60.7537 98.6067 60.9773 98.372 61.146 98.064C61.322 97.7487 61.41 97.382 61.41 96.964ZM69.8111 93.939V100H68.5571V99.285C68.3591 99.5343 68.0987 99.7323 67.7761 99.879C67.4607 100.018 67.1234 100.088 66.7641 100.088C66.2874 100.088 65.8584 99.989 65.4771 99.791C65.1031 99.593 64.8061 99.2997 64.5861 98.911C64.3734 98.5223 64.2671 98.053 64.2671 97.503V93.939H65.5101V97.316C65.5101 97.8587 65.6457 98.2767 65.9171 98.57C66.1884 98.856 66.5587 98.999 67.0281 98.999C67.4974 98.999 67.8677 98.856 68.1391 98.57C68.4177 98.2767 68.5571 97.8587 68.5571 97.316V93.939H69.8111ZM71.0476 96.942C71.0476 96.3333 71.1723 95.7943 71.4216 95.325C71.6783 94.8557 72.023 94.4927 72.4556 94.236C72.8956 93.972 73.3796 93.84 73.9076 93.84C74.3843 93.84 74.7986 93.9353 75.1506 94.126C75.51 94.3093 75.796 94.5403 76.0086 94.819V93.939H77.2736V100H76.0086V99.098C75.796 99.384 75.5063 99.6223 75.1396 99.813C74.773 100.004 74.355 100.099 73.8856 100.099C73.365 100.099 72.8883 99.967 72.4556 99.703C72.023 99.4317 71.6783 99.0577 71.4216 98.581C71.1723 98.097 71.0476 97.5507 71.0476 96.942ZM76.0086 96.964C76.0086 96.546 75.9206 96.183 75.7446 95.875C75.576 95.567 75.3523 95.3323 75.0736 95.171C74.795 95.0097 74.4943 94.929 74.1716 94.929C73.849 94.929 73.5483 95.0097 73.2696 95.171C72.991 95.325 72.7636 95.556 72.5876 95.864C72.419 96.1647 72.3346 96.524 72.3346 96.942C72.3346 97.36 72.419 97.7267 72.5876 98.042C72.7636 98.3573 72.991 98.5993 73.2696 98.768C73.5556 98.9293 73.8563 99.01 74.1716 99.01C74.4943 99.01 74.795 98.9293 75.0736 98.768C75.3523 98.6067 75.576 98.372 75.7446 98.064C75.9206 97.7487 76.0086 97.382 76.0086 96.964ZM80.1747 91.86V100H78.9207V91.86H80.1747ZM82.4591 93.136C82.2318 93.136 82.0411 93.059 81.8871 92.905C81.7331 92.751 81.6561 92.5603 81.6561 92.333C81.6561 92.1057 81.7331 91.915 81.8871 91.761C82.0411 91.607 82.2318 91.53 82.4591 91.53C82.6791 91.53 82.8661 91.607 83.0201 91.761C83.1741 91.915 83.2511 92.1057 83.2511 92.333C83.2511 92.5603 83.1741 92.751 83.0201 92.905C82.8661 93.059 82.6791 93.136 82.4591 93.136ZM83.0751 93.939V100H81.8211V93.939H83.0751ZM85.8325 98.977H88.5825V100H84.3805V98.977L87.1415 94.962H84.3805V93.939H88.5825V94.962L85.8325 98.977ZM95.4542 96.821C95.4542 97.0483 95.4396 97.2537 95.4102 97.437H90.7792C90.8159 97.921 90.9956 98.3097 91.3182 98.603C91.6409 98.8963 92.0369 99.043 92.5062 99.043C93.1809 99.043 93.6576 98.7607 93.9362 98.196H95.2892C95.1059 98.7533 94.7722 99.2117 94.2882 99.571C93.8116 99.923 93.2176 100.099 92.5062 100.099C91.9269 100.099 91.4062 99.9707 90.9442 99.714C90.4896 99.45 90.1302 99.0833 89.8662 98.614C89.6096 98.1373 89.4812 97.5873 89.4812 96.964C89.4812 96.3407 89.6059 95.7943 89.8552 95.325C90.1119 94.8483 90.4676 94.4817 90.9222 94.225C91.3842 93.9683 91.9122 93.84 92.5062 93.84C93.0782 93.84 93.5879 93.9647 94.0352 94.214C94.4826 94.4633 94.8309 94.8153 95.0802 95.27C95.3296 95.7173 95.4542 96.2343 95.4542 96.821ZM94.1452 96.425C94.1379 95.963 93.9729 95.5927 93.6502 95.314C93.3276 95.0353 92.9279 94.896 92.4512 94.896C92.0186 94.896 91.6482 95.0353 91.3402 95.314C91.0322 95.5853 90.8489 95.9557 90.7902 96.425H94.1452ZM97.9423 94.819C98.1256 94.511 98.3676 94.2727 98.6683 94.104C98.9763 93.928 99.3393 93.84 99.7573 93.84V95.138H99.4383C98.9469 95.138 98.5729 95.2627 98.3163 95.512C98.0669 95.7613 97.9423 96.194 97.9423 96.81V100H96.6883V93.939H97.9423V94.819Z"></path>
<path fill="#910924" d="M1 11C1 5.47715 5.47715 1 11 1H111C116.523 1 121 5.47715 121 11V81H1V11Z"></path>
<path fill-opacity="0.5" fill="white" d="M1 11C1 5.47715 5.47715 1 11 1H111C116.523 1 121 5.47715 121 11V81H1V11Z"></path>
<path fill-opacity="0.05" fill="black" d="M61 116C61 113.239 63.2386 111 66 111H106C108.761 111 111 113.239 111 116V126C111 128.761 108.761 131 106 131H66C63.2386 131 61 128.761 61 126V116Z"></path>
<path fill="black" d="M77.2186 119.545C77.0566 119.233 76.8316 118.999 76.5436 118.843C76.2556 118.681 75.9226 118.6 75.5446 118.6C75.1306 118.6 74.7616 118.693 74.4376 118.879C74.1136 119.065 73.8586 119.329 73.6726 119.671C73.4926 120.013 73.4026 120.409 73.4026 120.859C73.4026 121.309 73.4926 121.708 73.6726 122.056C73.8586 122.398 74.1136 122.662 74.4376 122.848C74.7616 123.034 75.1306 123.127 75.5446 123.127C76.1026 123.127 76.5556 122.971 76.9036 122.659C77.2516 122.347 77.4646 121.924 77.5426 121.39H75.1936V120.571H78.6406V121.372C78.5746 121.858 78.4006 122.305 78.1186 122.713C77.8426 123.121 77.4796 123.448 77.0296 123.694C76.5856 123.934 76.0906 124.054 75.5446 124.054C74.9566 124.054 74.4196 123.919 73.9336 123.649C73.4476 123.373 73.0606 122.992 72.7726 122.506C72.4906 122.02 72.3496 121.471 72.3496 120.859C72.3496 120.247 72.4906 119.698 72.7726 119.212C73.0606 118.726 73.4476 118.348 73.9336 118.078C74.4256 117.802 74.9626 117.664 75.5446 117.664C76.2106 117.664 76.8016 117.829 77.3176 118.159C77.8396 118.483 78.2176 118.945 78.4516 119.545H77.2186ZM79.3105 121.498C79.3105 121 79.4125 120.559 79.6165 120.175C79.8265 119.791 80.1085 119.494 80.4625 119.284C80.8225 119.068 81.2185 118.96 81.6505 118.96C82.0405 118.96 82.3795 119.038 82.6675 119.194C82.9615 119.344 83.1955 119.533 83.3695 119.761V119.041H84.4045V124H83.3695V123.262C83.1955 123.496 82.9585 123.691 82.6585 123.847C82.3585 124.003 82.0165 124.081 81.6325 124.081C81.2065 124.081 80.8165 123.973 80.4625 123.757C80.1085 123.535 79.8265 123.229 79.6165 122.839C79.4125 122.443 79.3105 121.996 79.3105 121.498ZM83.3695 121.516C83.3695 121.174 83.2975 120.877 83.1535 120.625C83.0155 120.373 82.8325 120.181 82.6045 120.049C82.3765 119.917 82.1305 119.851 81.8665 119.851C81.6025 119.851 81.3565 119.917 81.1285 120.049C80.9005 120.175 80.7145 120.364 80.5705 120.616C80.4325 120.862 80.3635 121.156 80.3635 121.498C80.3635 121.84 80.4325 122.14 80.5705 122.398C80.7145 122.656 80.9005 122.854 81.1285 122.992C81.3625 123.124 81.6085 123.19 81.8665 123.19C82.1305 123.19 82.3765 123.124 82.6045 122.992C82.8325 122.86 83.0155 122.668 83.1535 122.416C83.2975 122.158 83.3695 121.858 83.3695 121.516ZM91.7551 118.96C92.1451 118.96 92.4931 119.041 92.7991 119.203C93.1111 119.365 93.3541 119.605 93.5281 119.923C93.7081 120.241 93.7981 120.625 93.7981 121.075V124H92.7811V121.228C92.7811 120.784 92.6701 120.445 92.4481 120.211C92.2261 119.971 91.9231 119.851 91.5391 119.851C91.1551 119.851 90.8491 119.971 90.6211 120.211C90.3991 120.445 90.2881 120.784 90.2881 121.228V124H89.2711V121.228C89.2711 120.784 89.1601 120.445 88.9381 120.211C88.7161 119.971 88.4131 119.851 88.0291 119.851C87.6451 119.851 87.3391 119.971 87.1111 120.211C86.8891 120.445 86.7781 120.784 86.7781 121.228V124H85.7521V119.041H86.7781V119.608C86.9461 119.404 87.1591 119.245 87.4171 119.131C87.6751 119.017 87.9511 118.96 88.2451 118.96C88.6411 118.96 88.9951 119.044 89.3071 119.212C89.6191 119.38 89.8591 119.623 90.0271 119.941C90.1771 119.641 90.4111 119.404 90.7291 119.23C91.0471 119.05 91.3891 118.96 91.7551 118.96ZM99.6487 121.399C99.6487 121.585 99.6367 121.753 99.6127 121.903H95.8237C95.8537 122.299 96.0007 122.617 96.2647 122.857C96.5287 123.097 96.8527 123.217 97.2367 123.217C97.7887 123.217 98.1787 122.986 98.4067 122.524H99.5137C99.3637 122.98 99.0907 123.355 98.6947 123.649C98.3047 123.937 97.8187 124.081 97.2367 124.081C96.7627 124.081 96.3367 123.976 95.9587 123.766C95.5867 123.55 95.2927 123.25 95.0767 122.866C94.8667 122.476 94.7617 122.026 94.7617 121.516C94.7617 121.006 94.8637 120.559 95.0677 120.175C95.2777 119.785 95.5687 119.485 95.9407 119.275C96.3187 119.065 96.7507 118.96 97.2367 118.96C97.7047 118.96 98.1217 119.062 98.4877 119.266C98.8537 119.47 99.1387 119.758 99.3427 120.13C99.5467 120.496 99.6487 120.919 99.6487 121.399ZM98.5777 121.075C98.5717 120.697 98.4367 120.394 98.1727 120.166C97.9087 119.938 97.5817 119.824 97.1917 119.824C96.8377 119.824 96.5347 119.938 96.2827 120.166C96.0307 120.388 95.8807 120.691 95.8327 121.075H98.5777Z"></path>
<path stroke-linecap="round" stroke-width="12.8" stroke="#1A1A1A" d="M48.2002 42.5999L73.8002 39.3999"></path>
<path stroke-linecap="round" stroke-width="8" stroke="#DA002B" d="M61 40.9999L73.8 39.3999"></path>
</svg>
