<svg xmlns="http://www.w3.org/2000/svg" fill="none" viewBox="0 0 114 37" height="37" width="114">
<rect fill-opacity="0.05" fill="white" rx="5" height="37" width="114"></rect>
<path fill="white" d="M55.5057 17.809C54.743 17.4277 54.3617 16.8263 54.3617 16.005C54.3617 15.609 54.4607 15.246 54.6587 14.916C54.8567 14.586 55.1537 14.3257 55.5497 14.135C55.9457 13.937 56.4297 13.838 57.0017 13.838C57.5663 13.838 58.0467 13.937 58.4427 14.135C58.846 14.3257 59.1467 14.586 59.3447 14.916C59.5427 15.246 59.6417 15.609 59.6417 16.005C59.6417 16.4157 59.5353 16.7787 59.3227 17.094C59.1173 17.402 58.8423 17.6403 58.4977 17.809C58.9157 17.963 59.2457 18.216 59.4877 18.568C59.7297 18.9127 59.8507 19.3197 59.8507 19.789C59.8507 20.2657 59.7297 20.6873 59.4877 21.054C59.2457 21.4207 58.9083 21.703 58.4757 21.901C58.043 22.099 57.5517 22.198 57.0017 22.198C56.4517 22.198 55.9603 22.099 55.5277 21.901C55.1023 21.703 54.7687 21.4207 54.5267 21.054C54.2847 20.6873 54.1637 20.2657 54.1637 19.789C54.1637 19.3123 54.2847 18.9017 54.5267 18.557C54.7687 18.2123 55.095 17.963 55.5057 17.809ZM58.4427 16.159C58.4427 15.7483 58.3143 15.433 58.0577 15.213C57.801 14.993 57.449 14.883 57.0017 14.883C56.5617 14.883 56.2133 14.993 55.9567 15.213C55.7 15.433 55.5717 15.752 55.5717 16.17C55.5717 16.5367 55.7037 16.8373 55.9677 17.072C56.239 17.2993 56.5837 17.413 57.0017 17.413C57.4197 17.413 57.7643 17.2957 58.0357 17.061C58.307 16.8263 58.4427 16.5257 58.4427 16.159ZM57.0017 18.359C56.5177 18.359 56.1217 18.48 55.8137 18.722C55.513 18.9567 55.3627 19.2977 55.3627 19.745C55.3627 20.163 55.5093 20.504 55.8027 20.768C56.096 21.0247 56.4957 21.153 57.0017 21.153C57.5003 21.153 57.8927 21.021 58.1787 20.757C58.472 20.493 58.6187 20.1557 58.6187 19.745C58.6187 19.305 58.4683 18.964 58.1677 18.722C57.8743 18.48 57.4857 18.359 57.0017 18.359Z"></path>
</svg>
