<svg xmlns="http://www.w3.org/2000/svg" fill="none" viewBox="0 0 480 360" height="360" width="480">
<path fill="white" d="M201.928 64.808H195.256L194.152 68H190.624L196.648 51.224H200.56L206.584 68H203.032L201.928 64.808ZM201.016 62.12L198.592 55.112L196.168 62.12H201.016ZM212.196 56.648C212.628 56.008 213.22 55.488 213.972 55.088C214.74 54.688 215.612 54.488 216.588 54.488C217.724 54.488 218.748 54.768 219.66 55.328C220.588 55.888 221.316 56.688 221.844 57.728C222.388 58.752 222.66 59.944 222.66 61.304C222.66 62.664 222.388 63.872 221.844 64.928C221.316 65.968 220.588 66.776 219.66 67.352C218.748 67.928 217.724 68.216 216.588 68.216C215.596 68.216 214.724 68.024 213.972 67.64C213.236 67.24 212.644 66.728 212.196 66.104V68H208.836V50.24H212.196V56.648ZM219.228 61.304C219.228 60.504 219.06 59.816 218.724 59.24C218.404 58.648 217.972 58.2 217.428 57.896C216.9 57.592 216.324 57.44 215.7 57.44C215.092 57.44 214.516 57.6 213.972 57.92C213.444 58.224 213.012 58.672 212.676 59.264C212.356 59.856 212.196 60.552 212.196 61.352C212.196 62.152 212.356 62.848 212.676 63.44C213.012 64.032 213.444 64.488 213.972 64.808C214.516 65.112 215.092 65.264 215.7 65.264C216.324 65.264 216.9 65.104 217.428 64.784C217.972 64.464 218.404 64.008 218.724 63.416C219.06 62.824 219.228 62.12 219.228 61.304ZM231.005 68.216C229.725 68.216 228.573 67.936 227.549 67.376C226.525 66.8 225.717 65.992 225.125 64.952C224.549 63.912 224.261 62.712 224.261 61.352C224.261 59.992 224.557 58.792 225.149 57.752C225.757 56.712 226.581 55.912 227.621 55.352C228.661 54.776 229.821 54.488 231.101 54.488C232.381 54.488 233.541 54.776 234.581 55.352C235.621 55.912 236.437 56.712 237.029 57.752C237.637 58.792 237.941 59.992 237.941 61.352C237.941 62.712 237.629 63.912 237.005 64.952C236.397 65.992 235.565 66.8 234.509 67.376C233.469 67.936 232.301 68.216 231.005 68.216ZM231.005 65.288C231.613 65.288 232.181 65.144 232.709 64.856C233.253 64.552 233.685 64.104 234.005 63.512C234.325 62.92 234.485 62.2 234.485 61.352C234.485 60.088 234.149 59.12 233.477 58.448C232.821 57.76 232.013 57.416 231.053 57.416C230.093 57.416 229.285 57.76 228.629 58.448C227.989 59.12 227.669 60.088 227.669 61.352C227.669 62.616 227.981 63.592 228.605 64.28C229.245 64.952 230.045 65.288 231.005 65.288ZM252.958 54.704V68H249.574V66.32C249.142 66.896 248.574 67.352 247.87 67.688C247.182 68.008 246.43 68.168 245.614 68.168C244.574 68.168 243.654 67.952 242.854 67.52C242.054 67.072 241.422 66.424 240.958 65.576C240.51 64.712 240.286 63.688 240.286 62.504V54.704H243.646V62.024C243.646 63.08 243.91 63.896 244.438 64.472C244.966 65.032 245.686 65.312 246.598 65.312C247.526 65.312 248.254 65.032 248.782 64.472C249.31 63.896 249.574 63.08 249.574 62.024V54.704H252.958ZM260.185 57.464V63.896C260.185 64.344 260.289 64.672 260.497 64.88C260.721 65.072 261.089 65.168 261.601 65.168H263.161V68H261.049C258.217 68 256.801 66.624 256.801 63.872V57.464H255.217V54.704H256.801V51.416H260.185V54.704H263.161V57.464H260.185Z"></path>
<path fill-opacity="0.05" fill="white" d="M190 99C190 96.2386 192.239 94 195 94H465C467.761 94 470 96.2386 470 99V155C470 157.761 467.761 160 465 160H195C192.239 160 190 157.761 190 155V99Z"></path>
<path stroke-linejoin="round" stroke-linecap="round" stroke-width="1.5" stroke="white" d="M438 132L442.293 127.707C442.683 127.317 442.683 126.683 442.293 126.293L438 122"></path>
<path fill="white" d="M253.344 123.077C252.831 123.077 252.369 122.989 251.958 122.813C251.547 122.63 251.225 122.373 250.99 122.043C250.755 121.713 250.638 121.328 250.638 120.888H251.98C252.009 121.218 252.138 121.489 252.365 121.702C252.6 121.915 252.926 122.021 253.344 122.021C253.777 122.021 254.114 121.918 254.356 121.713C254.598 121.5 254.719 121.229 254.719 120.899C254.719 120.642 254.642 120.433 254.488 120.272C254.341 120.111 254.154 119.986 253.927 119.898C253.707 119.81 253.399 119.715 253.003 119.612C252.504 119.48 252.097 119.348 251.782 119.216C251.474 119.077 251.21 118.864 250.99 118.578C250.77 118.292 250.66 117.911 250.66 117.434C250.66 116.994 250.77 116.609 250.99 116.279C251.21 115.949 251.518 115.696 251.914 115.52C252.31 115.344 252.768 115.256 253.289 115.256C254.03 115.256 254.635 115.443 255.104 115.817C255.581 116.184 255.845 116.69 255.896 117.335H254.51C254.488 117.056 254.356 116.818 254.114 116.62C253.872 116.422 253.553 116.323 253.157 116.323C252.798 116.323 252.504 116.415 252.277 116.598C252.05 116.781 251.936 117.045 251.936 117.39C251.936 117.625 252.006 117.819 252.145 117.973C252.292 118.12 252.475 118.237 252.695 118.325C252.915 118.413 253.216 118.508 253.597 118.611C254.103 118.75 254.514 118.89 254.829 119.029C255.152 119.168 255.423 119.385 255.643 119.678C255.87 119.964 255.984 120.349 255.984 120.833C255.984 121.222 255.878 121.588 255.665 121.933C255.46 122.278 255.155 122.556 254.752 122.769C254.356 122.974 253.887 123.077 253.344 123.077ZM262.92 116.939L259.202 125.849H257.904L259.136 122.901L256.749 116.939H258.146L259.851 121.559L261.622 116.939H262.92ZM266.066 123.099C265.589 123.099 265.16 123.015 264.779 122.846C264.405 122.67 264.108 122.435 263.888 122.142C263.668 121.841 263.551 121.508 263.536 121.141H264.834C264.856 121.398 264.977 121.614 265.197 121.79C265.424 121.959 265.707 122.043 266.044 122.043C266.396 122.043 266.667 121.977 266.858 121.845C267.056 121.706 267.155 121.53 267.155 121.317C267.155 121.09 267.045 120.921 266.825 120.811C266.612 120.701 266.271 120.58 265.802 120.448C265.347 120.323 264.977 120.202 264.691 120.085C264.405 119.968 264.156 119.788 263.943 119.546C263.738 119.304 263.635 118.985 263.635 118.589C263.635 118.266 263.73 117.973 263.921 117.709C264.112 117.438 264.383 117.225 264.735 117.071C265.094 116.917 265.505 116.84 265.967 116.84C266.656 116.84 267.21 117.016 267.628 117.368C268.053 117.713 268.281 118.186 268.31 118.787H267.056C267.034 118.516 266.924 118.299 266.726 118.138C266.528 117.977 266.26 117.896 265.923 117.896C265.593 117.896 265.34 117.958 265.164 118.083C264.988 118.208 264.9 118.373 264.9 118.578C264.9 118.739 264.959 118.875 265.076 118.985C265.193 119.095 265.336 119.183 265.505 119.249C265.674 119.308 265.923 119.385 266.253 119.48C266.693 119.597 267.052 119.718 267.331 119.843C267.617 119.96 267.863 120.136 268.068 120.371C268.273 120.606 268.38 120.917 268.387 121.306C268.387 121.651 268.292 121.959 268.101 122.23C267.91 122.501 267.639 122.714 267.287 122.868C266.942 123.022 266.535 123.099 266.066 123.099ZM271.205 117.962V121.317C271.205 121.544 271.256 121.709 271.359 121.812C271.469 121.907 271.652 121.955 271.909 121.955H272.679V123H271.689C271.124 123 270.692 122.868 270.391 122.604C270.09 122.34 269.94 121.911 269.94 121.317V117.962H269.225V116.939H269.94V115.432H271.205V116.939H272.679V117.962H271.205ZM279.39 119.821C279.39 120.048 279.375 120.254 279.346 120.437H274.715C274.751 120.921 274.931 121.31 275.254 121.603C275.576 121.896 275.972 122.043 276.442 122.043C277.116 122.043 277.593 121.761 277.872 121.196H279.225C279.041 121.753 278.708 122.212 278.224 122.571C277.747 122.923 277.153 123.099 276.442 123.099C275.862 123.099 275.342 122.971 274.88 122.714C274.425 122.45 274.066 122.083 273.802 121.614C273.545 121.137 273.417 120.587 273.417 119.964C273.417 119.341 273.541 118.794 273.791 118.325C274.047 117.848 274.403 117.482 274.858 117.225C275.32 116.968 275.848 116.84 276.442 116.84C277.014 116.84 277.523 116.965 277.971 117.214C278.418 117.463 278.766 117.815 279.016 118.27C279.265 118.717 279.39 119.234 279.39 119.821ZM278.081 119.425C278.073 118.963 277.908 118.593 277.586 118.314C277.263 118.035 276.863 117.896 276.387 117.896C275.954 117.896 275.584 118.035 275.276 118.314C274.968 118.585 274.784 118.956 274.726 119.425H278.081ZM287.961 116.84C288.437 116.84 288.863 116.939 289.237 117.137C289.618 117.335 289.915 117.628 290.128 118.017C290.348 118.406 290.458 118.875 290.458 119.425V123H289.215V119.612C289.215 119.069 289.079 118.655 288.808 118.369C288.536 118.076 288.166 117.929 287.697 117.929C287.227 117.929 286.853 118.076 286.575 118.369C286.303 118.655 286.168 119.069 286.168 119.612V123H284.925V119.612C284.925 119.069 284.789 118.655 284.518 118.369C284.246 118.076 283.876 117.929 283.407 117.929C282.937 117.929 282.563 118.076 282.285 118.369C282.013 118.655 281.878 119.069 281.878 119.612V123H280.624V116.939H281.878V117.632C282.083 117.383 282.343 117.188 282.659 117.049C282.974 116.91 283.311 116.84 283.671 116.84C284.155 116.84 284.587 116.943 284.969 117.148C285.35 117.353 285.643 117.65 285.849 118.039C286.032 117.672 286.318 117.383 286.707 117.17C287.095 116.95 287.513 116.84 287.961 116.84ZM295.549 116.136C295.322 116.136 295.131 116.059 294.977 115.905C294.823 115.751 294.746 115.56 294.746 115.333C294.746 115.106 294.823 114.915 294.977 114.761C295.131 114.607 295.322 114.53 295.549 114.53C295.769 114.53 295.956 114.607 296.11 114.761C296.264 114.915 296.341 115.106 296.341 115.333C296.341 115.56 296.264 115.751 296.11 115.905C295.956 116.059 295.769 116.136 295.549 116.136ZM296.165 116.939V123H294.911V116.939H296.165ZM300.869 116.84C301.346 116.84 301.771 116.939 302.145 117.137C302.527 117.335 302.824 117.628 303.036 118.017C303.249 118.406 303.355 118.875 303.355 119.425V123H302.112V119.612C302.112 119.069 301.977 118.655 301.705 118.369C301.434 118.076 301.064 117.929 300.594 117.929C300.125 117.929 299.751 118.076 299.472 118.369C299.201 118.655 299.065 119.069 299.065 119.612V123H297.811V116.939H299.065V117.632C299.271 117.383 299.531 117.188 299.846 117.049C300.169 116.91 300.51 116.84 300.869 116.84ZM307.496 117.962H306.374V123H305.109V117.962H304.394V116.939H305.109V116.51C305.109 115.813 305.292 115.307 305.659 114.992C306.033 114.669 306.616 114.508 307.408 114.508V115.553C307.027 115.553 306.759 115.626 306.605 115.773C306.451 115.912 306.374 116.158 306.374 116.51V116.939H307.496V117.962ZM311.236 123.099C310.664 123.099 310.147 122.971 309.685 122.714C309.223 122.45 308.86 122.083 308.596 121.614C308.332 121.137 308.2 120.587 308.2 119.964C308.2 119.348 308.336 118.802 308.607 118.325C308.879 117.848 309.249 117.482 309.718 117.225C310.188 116.968 310.712 116.84 311.291 116.84C311.871 116.84 312.395 116.968 312.864 117.225C313.334 117.482 313.704 117.848 313.975 118.325C314.247 118.802 314.382 119.348 314.382 119.964C314.382 120.58 314.243 121.126 313.964 121.603C313.686 122.08 313.304 122.45 312.82 122.714C312.344 122.971 311.816 123.099 311.236 123.099ZM311.236 122.01C311.559 122.01 311.86 121.933 312.138 121.779C312.424 121.625 312.655 121.394 312.831 121.086C313.007 120.778 313.095 120.404 313.095 119.964C313.095 119.524 313.011 119.154 312.842 118.853C312.674 118.545 312.45 118.314 312.171 118.16C311.893 118.006 311.592 117.929 311.269 117.929C310.947 117.929 310.646 118.006 310.367 118.16C310.096 118.314 309.88 118.545 309.718 118.853C309.557 119.154 309.476 119.524 309.476 119.964C309.476 120.617 309.641 121.123 309.971 121.482C310.309 121.834 310.73 122.01 311.236 122.01ZM316.876 117.819C317.059 117.511 317.301 117.273 317.602 117.104C317.91 116.928 318.273 116.84 318.691 116.84V118.138H318.372C317.881 118.138 317.507 118.263 317.25 118.512C317.001 118.761 316.876 119.194 316.876 119.81V123H315.622V116.939H316.876V117.819ZM327.181 116.84C327.657 116.84 328.083 116.939 328.457 117.137C328.838 117.335 329.135 117.628 329.348 118.017C329.568 118.406 329.678 118.875 329.678 119.425V123H328.435V119.612C328.435 119.069 328.299 118.655 328.028 118.369C327.756 118.076 327.386 117.929 326.917 117.929C326.447 117.929 326.073 118.076 325.795 118.369C325.523 118.655 325.388 119.069 325.388 119.612V123H324.145V119.612C324.145 119.069 324.009 118.655 323.738 118.369C323.466 118.076 323.096 117.929 322.627 117.929C322.157 117.929 321.783 118.076 321.505 118.369C321.233 118.655 321.098 119.069 321.098 119.612V123H319.844V116.939H321.098V117.632C321.303 117.383 321.563 117.188 321.879 117.049C322.194 116.91 322.531 116.84 322.891 116.84C323.375 116.84 323.807 116.943 324.189 117.148C324.57 117.353 324.863 117.65 325.069 118.039C325.252 117.672 325.538 117.383 325.927 117.17C326.315 116.95 326.733 116.84 327.181 116.84ZM330.855 119.942C330.855 119.333 330.98 118.794 331.229 118.325C331.486 117.856 331.831 117.493 332.263 117.236C332.703 116.972 333.187 116.84 333.715 116.84C334.192 116.84 334.606 116.935 334.958 117.126C335.318 117.309 335.604 117.54 335.816 117.819V116.939H337.081V123H335.816V122.098C335.604 122.384 335.314 122.622 334.947 122.813C334.581 123.004 334.163 123.099 333.693 123.099C333.173 123.099 332.696 122.967 332.263 122.703C331.831 122.432 331.486 122.058 331.229 121.581C330.98 121.097 330.855 120.551 330.855 119.942ZM335.816 119.964C335.816 119.546 335.728 119.183 335.552 118.875C335.384 118.567 335.16 118.332 334.881 118.171C334.603 118.01 334.302 117.929 333.979 117.929C333.657 117.929 333.356 118.01 333.077 118.171C332.799 118.325 332.571 118.556 332.395 118.864C332.227 119.165 332.142 119.524 332.142 119.942C332.142 120.36 332.227 120.727 332.395 121.042C332.571 121.357 332.799 121.599 333.077 121.768C333.363 121.929 333.664 122.01 333.979 122.01C334.302 122.01 334.603 121.929 334.881 121.768C335.16 121.607 335.384 121.372 335.552 121.064C335.728 120.749 335.816 120.382 335.816 119.964ZM340.191 117.962V121.317C340.191 121.544 340.243 121.709 340.345 121.812C340.455 121.907 340.639 121.955 340.895 121.955H341.665V123H340.675C340.111 123 339.678 122.868 339.377 122.604C339.077 122.34 338.926 121.911 338.926 121.317V117.962H338.211V116.939H338.926V115.432H340.191V116.939H341.665V117.962H340.191ZM343.459 116.136C343.232 116.136 343.041 116.059 342.887 115.905C342.733 115.751 342.656 115.56 342.656 115.333C342.656 115.106 342.733 114.915 342.887 114.761C343.041 114.607 343.232 114.53 343.459 114.53C343.679 114.53 343.866 114.607 344.02 114.761C344.174 114.915 344.251 115.106 344.251 115.333C344.251 115.56 344.174 115.751 344.02 115.905C343.866 116.059 343.679 116.136 343.459 116.136ZM344.075 116.939V123H342.821V116.939H344.075ZM348.35 123.099C347.778 123.099 347.261 122.971 346.799 122.714C346.337 122.45 345.974 122.083 345.71 121.614C345.446 121.137 345.314 120.587 345.314 119.964C345.314 119.348 345.45 118.802 345.721 118.325C345.993 117.848 346.363 117.482 346.832 117.225C347.302 116.968 347.826 116.84 348.405 116.84C348.985 116.84 349.509 116.968 349.978 117.225C350.448 117.482 350.818 117.848 351.089 118.325C351.361 118.802 351.496 119.348 351.496 119.964C351.496 120.58 351.357 121.126 351.078 121.603C350.8 122.08 350.418 122.45 349.934 122.714C349.458 122.971 348.93 123.099 348.35 123.099ZM348.35 122.01C348.673 122.01 348.974 121.933 349.252 121.779C349.538 121.625 349.769 121.394 349.945 121.086C350.121 120.778 350.209 120.404 350.209 119.964C350.209 119.524 350.125 119.154 349.956 118.853C349.788 118.545 349.564 118.314 349.285 118.16C349.007 118.006 348.706 117.929 348.383 117.929C348.061 117.929 347.76 118.006 347.481 118.16C347.21 118.314 346.994 118.545 346.832 118.853C346.671 119.154 346.59 119.524 346.59 119.964C346.59 120.617 346.755 121.123 347.085 121.482C347.423 121.834 347.844 122.01 348.35 122.01ZM355.794 116.84C356.271 116.84 356.696 116.939 357.07 117.137C357.451 117.335 357.748 117.628 357.961 118.017C358.174 118.406 358.28 118.875 358.28 119.425V123H357.037V119.612C357.037 119.069 356.901 118.655 356.63 118.369C356.359 118.076 355.988 117.929 355.519 117.929C355.05 117.929 354.676 118.076 354.397 118.369C354.126 118.655 353.99 119.069 353.99 119.612V123H352.736V116.939H353.99V117.632C354.195 117.383 354.456 117.188 354.771 117.049C355.094 116.91 355.435 116.84 355.794 116.84Z"></path>
<path fill-opacity="0.75" fill="white" d="M252.718 132.745C253.384 132.745 253.966 132.874 254.464 133.132C254.968 133.384 255.355 133.75 255.625 134.23C255.901 134.704 256.039 135.259 256.039 135.895C256.039 136.531 255.901 137.083 255.625 137.551C255.355 138.019 254.968 138.379 254.464 138.631C253.966 138.877 253.384 139 252.718 139H250.675V132.745H252.718ZM252.718 138.163C253.45 138.163 254.011 137.965 254.401 137.569C254.791 137.173 254.986 136.615 254.986 135.895C254.986 135.169 254.791 134.602 254.401 134.194C254.011 133.786 253.45 133.582 252.718 133.582H251.701V138.163H252.718ZM261.601 136.399C261.601 136.585 261.589 136.753 261.565 136.903H257.776C257.806 137.299 257.953 137.617 258.217 137.857C258.481 138.097 258.805 138.217 259.189 138.217C259.741 138.217 260.131 137.986 260.359 137.524H261.466C261.316 137.98 261.043 138.355 260.647 138.649C260.257 138.937 259.771 139.081 259.189 139.081C258.715 139.081 258.289 138.976 257.911 138.766C257.539 138.55 257.245 138.25 257.029 137.866C256.819 137.476 256.714 137.026 256.714 136.516C256.714 136.006 256.816 135.559 257.02 135.175C257.23 134.785 257.521 134.485 257.893 134.275C258.271 134.065 258.703 133.96 259.189 133.96C259.657 133.96 260.074 134.062 260.44 134.266C260.806 134.47 261.091 134.758 261.295 135.13C261.499 135.496 261.601 135.919 261.601 136.399ZM260.53 136.075C260.524 135.697 260.389 135.394 260.125 135.166C259.861 134.938 259.534 134.824 259.144 134.824C258.79 134.824 258.487 134.938 258.235 135.166C257.983 135.388 257.833 135.691 257.785 136.075H260.53ZM264.528 138.082L265.932 134.041H267.021L265.131 139H263.907L262.026 134.041H263.124L264.528 138.082ZM268.318 133.384C268.132 133.384 267.976 133.321 267.85 133.195C267.724 133.069 267.661 132.913 267.661 132.727C267.661 132.541 267.724 132.385 267.85 132.259C267.976 132.133 268.132 132.07 268.318 132.07C268.498 132.07 268.651 132.133 268.777 132.259C268.903 132.385 268.966 132.541 268.966 132.727C268.966 132.913 268.903 133.069 268.777 133.195C268.651 133.321 268.498 133.384 268.318 133.384ZM268.822 134.041V139H267.796V134.041H268.822ZM269.827 136.516C269.827 136.006 269.929 135.559 270.133 135.175C270.343 134.785 270.631 134.485 270.997 134.275C271.363 134.065 271.783 133.96 272.257 133.96C272.857 133.96 273.352 134.104 273.742 134.392C274.138 134.674 274.405 135.079 274.543 135.607H273.436C273.346 135.361 273.202 135.169 273.004 135.031C272.806 134.893 272.557 134.824 272.257 134.824C271.837 134.824 271.501 134.974 271.249 135.274C271.003 135.568 270.88 135.982 270.88 136.516C270.88 137.05 271.003 137.467 271.249 137.767C271.501 138.067 271.837 138.217 272.257 138.217C272.851 138.217 273.244 137.956 273.436 137.434H274.543C274.399 137.938 274.129 138.34 273.733 138.64C273.337 138.934 272.845 139.081 272.257 139.081C271.783 139.081 271.363 138.976 270.997 138.766C270.631 138.55 270.343 138.25 270.133 137.866C269.929 137.476 269.827 137.026 269.827 136.516ZM280.111 136.399C280.111 136.585 280.099 136.753 280.075 136.903H276.286C276.316 137.299 276.463 137.617 276.727 137.857C276.991 138.097 277.315 138.217 277.699 138.217C278.251 138.217 278.641 137.986 278.869 137.524H279.976C279.826 137.98 279.553 138.355 279.157 138.649C278.767 138.937 278.281 139.081 277.699 139.081C277.225 139.081 276.799 138.976 276.421 138.766C276.049 138.55 275.755 138.25 275.539 137.866C275.329 137.476 275.224 137.026 275.224 136.516C275.224 136.006 275.326 135.559 275.53 135.175C275.74 134.785 276.031 134.485 276.403 134.275C276.781 134.065 277.213 133.96 277.699 133.96C278.167 133.96 278.584 134.062 278.95 134.266C279.316 134.47 279.601 134.758 279.805 135.13C280.009 135.496 280.111 135.919 280.111 136.399ZM279.04 136.075C279.034 135.697 278.899 135.394 278.635 135.166C278.371 134.938 278.044 134.824 277.654 134.824C277.3 134.824 276.997 134.938 276.745 135.166C276.493 135.388 276.343 135.691 276.295 136.075H279.04ZM283.98 133.384C283.794 133.384 283.638 133.321 283.512 133.195C283.386 133.069 283.323 132.913 283.323 132.727C283.323 132.541 283.386 132.385 283.512 132.259C283.638 132.133 283.794 132.07 283.98 132.07C284.16 132.07 284.313 132.133 284.439 132.259C284.565 132.385 284.628 132.541 284.628 132.727C284.628 132.913 284.565 133.069 284.439 133.195C284.313 133.321 284.16 133.384 283.98 133.384ZM284.484 134.041V139H283.458V134.041H284.484ZM288.333 133.96C288.723 133.96 289.071 134.041 289.377 134.203C289.689 134.365 289.932 134.605 290.106 134.923C290.28 135.241 290.367 135.625 290.367 136.075V139H289.35V136.228C289.35 135.784 289.239 135.445 289.017 135.211C288.795 134.971 288.492 134.851 288.108 134.851C287.724 134.851 287.418 134.971 287.19 135.211C286.968 135.445 286.857 135.784 286.857 136.228V139H285.831V134.041H286.857V134.608C287.025 134.404 287.238 134.245 287.496 134.131C287.76 134.017 288.039 133.96 288.333 133.96ZM293.755 134.878H292.837V139H291.802V134.878H291.217V134.041H291.802V133.69C291.802 133.12 291.952 132.706 292.252 132.448C292.558 132.184 293.035 132.052 293.683 132.052V132.907C293.371 132.907 293.152 132.967 293.026 133.087C292.9 133.201 292.837 133.402 292.837 133.69V134.041H293.755V134.878ZM296.815 139.081C296.347 139.081 295.924 138.976 295.546 138.766C295.168 138.55 294.871 138.25 294.655 137.866C294.439 137.476 294.331 137.026 294.331 136.516C294.331 136.012 294.442 135.565 294.664 135.175C294.886 134.785 295.189 134.485 295.573 134.275C295.957 134.065 296.386 133.96 296.86 133.96C297.334 133.96 297.763 134.065 298.147 134.275C298.531 134.485 298.834 134.785 299.056 135.175C299.278 135.565 299.389 136.012 299.389 136.516C299.389 137.02 299.275 137.467 299.047 137.857C298.819 138.247 298.507 138.55 298.111 138.766C297.721 138.976 297.289 139.081 296.815 139.081ZM296.815 138.19C297.079 138.19 297.325 138.127 297.553 138.001C297.787 137.875 297.976 137.686 298.12 137.434C298.264 137.182 298.336 136.876 298.336 136.516C298.336 136.156 298.267 135.853 298.129 135.607C297.991 135.355 297.808 135.166 297.58 135.04C297.352 134.914 297.106 134.851 296.842 134.851C296.578 134.851 296.332 134.914 296.104 135.04C295.882 135.166 295.705 135.355 295.573 135.607C295.441 135.853 295.375 136.156 295.375 136.516C295.375 137.05 295.51 137.464 295.78 137.758C296.056 138.046 296.401 138.19 296.815 138.19ZM301.43 134.761C301.58 134.509 301.778 134.314 302.024 134.176C302.276 134.032 302.573 133.96 302.915 133.96V135.022H302.654C302.252 135.022 301.946 135.124 301.736 135.328C301.532 135.532 301.43 135.886 301.43 136.39V139H300.404V134.041H301.43V134.761ZM309.861 133.96C310.251 133.96 310.599 134.041 310.905 134.203C311.217 134.365 311.46 134.605 311.634 134.923C311.814 135.241 311.904 135.625 311.904 136.075V139H310.887V136.228C310.887 135.784 310.776 135.445 310.554 135.211C310.332 134.971 310.029 134.851 309.645 134.851C309.261 134.851 308.955 134.971 308.727 135.211C308.505 135.445 308.394 135.784 308.394 136.228V139H307.377V136.228C307.377 135.784 307.266 135.445 307.044 135.211C306.822 134.971 306.519 134.851 306.135 134.851C305.751 134.851 305.445 134.971 305.217 135.211C304.995 135.445 304.884 135.784 304.884 136.228V139H303.858V134.041H304.884V134.608C305.052 134.404 305.265 134.245 305.523 134.131C305.781 134.017 306.057 133.96 306.351 133.96C306.747 133.96 307.101 134.044 307.413 134.212C307.725 134.38 307.965 134.623 308.133 134.941C308.283 134.641 308.517 134.404 308.835 134.23C309.153 134.05 309.495 133.96 309.861 133.96ZM312.867 136.498C312.867 136 312.969 135.559 313.173 135.175C313.383 134.791 313.665 134.494 314.019 134.284C314.379 134.068 314.775 133.96 315.207 133.96C315.597 133.96 315.936 134.038 316.224 134.194C316.518 134.344 316.752 134.533 316.926 134.761V134.041H317.961V139H316.926V138.262C316.752 138.496 316.515 138.691 316.215 138.847C315.915 139.003 315.573 139.081 315.189 139.081C314.763 139.081 314.373 138.973 314.019 138.757C313.665 138.535 313.383 138.229 313.173 137.839C312.969 137.443 312.867 136.996 312.867 136.498ZM316.926 136.516C316.926 136.174 316.854 135.877 316.71 135.625C316.572 135.373 316.389 135.181 316.161 135.049C315.933 134.917 315.687 134.851 315.423 134.851C315.159 134.851 314.913 134.917 314.685 135.049C314.457 135.175 314.271 135.364 314.127 135.616C313.989 135.862 313.92 136.156 313.92 136.498C313.92 136.84 313.989 137.14 314.127 137.398C314.271 137.656 314.457 137.854 314.685 137.992C314.919 138.124 315.165 138.19 315.423 138.19C315.687 138.19 315.933 138.124 316.161 137.992C316.389 137.86 316.572 137.668 316.71 137.416C316.854 137.158 316.926 136.858 316.926 136.516ZM320.506 134.878V137.623C320.506 137.809 320.548 137.944 320.632 138.028C320.722 138.106 320.872 138.145 321.082 138.145H321.712V139H320.902C320.44 139 320.086 138.892 319.84 138.676C319.594 138.46 319.471 138.109 319.471 137.623V134.878H318.886V134.041H319.471V132.808H320.506V134.041H321.712V134.878H320.506ZM323.179 133.384C322.993 133.384 322.837 133.321 322.711 133.195C322.585 133.069 322.522 132.913 322.522 132.727C322.522 132.541 322.585 132.385 322.711 132.259C322.837 132.133 322.993 132.07 323.179 132.07C323.359 132.07 323.512 132.133 323.638 132.259C323.764 132.385 323.827 132.541 323.827 132.727C323.827 132.913 323.764 133.069 323.638 133.195C323.512 133.321 323.359 133.384 323.179 133.384ZM323.683 134.041V139H322.657V134.041H323.683ZM327.181 139.081C326.713 139.081 326.29 138.976 325.912 138.766C325.534 138.55 325.237 138.25 325.021 137.866C324.805 137.476 324.697 137.026 324.697 136.516C324.697 136.012 324.808 135.565 325.03 135.175C325.252 134.785 325.555 134.485 325.939 134.275C326.323 134.065 326.752 133.96 327.226 133.96C327.7 133.96 328.129 134.065 328.513 134.275C328.897 134.485 329.2 134.785 329.422 135.175C329.644 135.565 329.755 136.012 329.755 136.516C329.755 137.02 329.641 137.467 329.413 137.857C329.185 138.247 328.873 138.55 328.477 138.766C328.087 138.976 327.655 139.081 327.181 139.081ZM327.181 138.19C327.445 138.19 327.691 138.127 327.919 138.001C328.153 137.875 328.342 137.686 328.486 137.434C328.63 137.182 328.702 136.876 328.702 136.516C328.702 136.156 328.633 135.853 328.495 135.607C328.357 135.355 328.174 135.166 327.946 135.04C327.718 134.914 327.472 134.851 327.208 134.851C326.944 134.851 326.698 134.914 326.47 135.04C326.248 135.166 326.071 135.355 325.939 135.607C325.807 135.853 325.741 136.156 325.741 136.516C325.741 137.05 325.876 137.464 326.146 137.758C326.422 138.046 326.767 138.19 327.181 138.19ZM333.272 133.96C333.662 133.96 334.01 134.041 334.316 134.203C334.628 134.365 334.871 134.605 335.045 134.923C335.219 135.241 335.306 135.625 335.306 136.075V139H334.289V136.228C334.289 135.784 334.178 135.445 333.956 135.211C333.734 134.971 333.431 134.851 333.047 134.851C332.663 134.851 332.357 134.971 332.129 135.211C331.907 135.445 331.796 135.784 331.796 136.228V139H330.77V134.041H331.796V134.608C331.964 134.404 332.177 134.245 332.435 134.131C332.699 134.017 332.978 133.96 333.272 133.96Z"></path>
<path stroke-linecap="round" stroke-width="1.5" stroke="white" d="M220 127V131M220 135V135C224.418 135 228 131.418 228 127V127C228 122.582 224.418 119 220 119V119C215.582 119 212 122.582 212 127V127C212 131.418 215.582 135 220 135Z"></path>
<path fill="white" d="M219 124C219 123.448 219.448 123 220 123V123C220.552 123 221 123.448 221 124V124C221 124.552 220.552 125 220 125V125C219.448 125 219 124.552 219 124V124Z"></path>
<path fill-opacity="0.05" fill="white" d="M190 169C190 166.239 192.239 164 195 164H465C467.761 164 470 166.239 470 169V225C470 227.761 467.761 230 465 230H195C192.239 230 190 227.761 190 225V169Z"></path>
<path stroke-linejoin="round" stroke-linecap="round" stroke-width="1.5" stroke="white" d="M438 202L442.293 197.707C442.683 197.317 442.683 196.683 442.293 196.293L438 192"></path>
<path fill="white" d="M255.434 191.438H252.233L251.683 193H250.374L253.113 185.344H254.565L257.304 193H255.984L255.434 191.438ZM255.082 190.415L253.839 186.862L252.585 190.415H255.082ZM259.749 187.841C259.962 187.548 260.251 187.309 260.618 187.126C260.992 186.935 261.406 186.84 261.861 186.84C262.396 186.84 262.88 186.968 263.313 187.225C263.746 187.482 264.087 187.848 264.336 188.325C264.585 188.794 264.71 189.333 264.71 189.942C264.71 190.551 264.585 191.097 264.336 191.581C264.087 192.058 263.742 192.432 263.302 192.703C262.869 192.967 262.389 193.099 261.861 193.099C261.392 193.099 260.974 193.007 260.607 192.824C260.248 192.641 259.962 192.406 259.749 192.12V193H258.495V184.86H259.749V187.841ZM263.434 189.942C263.434 189.524 263.346 189.165 263.17 188.864C263.001 188.556 262.774 188.325 262.488 188.171C262.209 188.01 261.909 187.929 261.586 187.929C261.271 187.929 260.97 188.01 260.684 188.171C260.405 188.332 260.178 188.567 260.002 188.875C259.833 189.183 259.749 189.546 259.749 189.964C259.749 190.382 259.833 190.749 260.002 191.064C260.178 191.372 260.405 191.607 260.684 191.768C260.97 191.929 261.271 192.01 261.586 192.01C261.909 192.01 262.209 191.929 262.488 191.768C262.774 191.599 263.001 191.357 263.17 191.042C263.346 190.727 263.434 190.36 263.434 189.942ZM268.579 193.099C268.007 193.099 267.49 192.971 267.028 192.714C266.566 192.45 266.203 192.083 265.939 191.614C265.675 191.137 265.543 190.587 265.543 189.964C265.543 189.348 265.679 188.802 265.95 188.325C266.221 187.848 266.592 187.482 267.061 187.225C267.53 186.968 268.055 186.84 268.634 186.84C269.213 186.84 269.738 186.968 270.207 187.225C270.676 187.482 271.047 187.848 271.318 188.325C271.589 188.802 271.725 189.348 271.725 189.964C271.725 190.58 271.586 191.126 271.307 191.603C271.028 192.08 270.647 192.45 270.163 192.714C269.686 192.971 269.158 193.099 268.579 193.099ZM268.579 192.01C268.902 192.01 269.202 191.933 269.481 191.779C269.767 191.625 269.998 191.394 270.174 191.086C270.35 190.778 270.438 190.404 270.438 189.964C270.438 189.524 270.354 189.154 270.185 188.853C270.016 188.545 269.793 188.314 269.514 188.16C269.235 188.006 268.935 187.929 268.612 187.929C268.289 187.929 267.989 188.006 267.71 188.16C267.439 188.314 267.222 188.545 267.061 188.853C266.9 189.154 266.819 189.524 266.819 189.964C266.819 190.617 266.984 191.123 267.314 191.482C267.651 191.834 268.073 192.01 268.579 192.01ZM278.454 186.939V193H277.2V192.285C277.002 192.534 276.741 192.732 276.419 192.879C276.103 193.018 275.766 193.088 275.407 193.088C274.93 193.088 274.501 192.989 274.12 192.791C273.746 192.593 273.449 192.3 273.229 191.911C273.016 191.522 272.91 191.053 272.91 190.503V186.939H274.153V190.316C274.153 190.859 274.288 191.277 274.56 191.57C274.831 191.856 275.201 191.999 275.671 191.999C276.14 191.999 276.51 191.856 276.782 191.57C277.06 191.277 277.2 190.859 277.2 190.316V186.939H278.454ZM281.571 187.962V191.317C281.571 191.544 281.623 191.709 281.725 191.812C281.835 191.907 282.019 191.955 282.275 191.955H283.045V193H282.055C281.491 193 281.058 192.868 280.757 192.604C280.457 192.34 280.306 191.911 280.306 191.317V187.962H279.591V186.939H280.306V185.432H281.571V186.939H283.045V187.962H281.571ZM297.013 185.355L294.747 193H293.328L291.722 187.214L290.017 193L288.609 193.011L286.442 185.355H287.773L289.357 191.581L291.073 185.355H292.481L294.076 191.548L295.671 185.355H297.013ZM298.686 186.136C298.458 186.136 298.268 186.059 298.114 185.905C297.96 185.751 297.883 185.56 297.883 185.333C297.883 185.106 297.96 184.915 298.114 184.761C298.268 184.607 298.458 184.53 298.686 184.53C298.906 184.53 299.093 184.607 299.247 184.761C299.401 184.915 299.478 185.106 299.478 185.333C299.478 185.56 299.401 185.751 299.247 185.905C299.093 186.059 298.906 186.136 298.686 186.136ZM299.302 186.939V193H298.048V186.939H299.302ZM304.006 186.84C304.483 186.84 304.908 186.939 305.282 187.137C305.663 187.335 305.96 187.628 306.173 188.017C306.386 188.406 306.492 188.875 306.492 189.425V193H305.249V189.612C305.249 189.069 305.113 188.655 304.842 188.369C304.571 188.076 304.2 187.929 303.731 187.929C303.262 187.929 302.888 188.076 302.609 188.369C302.338 188.655 302.202 189.069 302.202 189.612V193H300.948V186.939H302.202V187.632C302.407 187.383 302.668 187.188 302.983 187.049C303.306 186.91 303.647 186.84 304.006 186.84ZM307.674 189.942C307.674 189.333 307.798 188.794 308.048 188.325C308.304 187.856 308.649 187.493 309.082 187.236C309.522 186.972 310.009 186.84 310.545 186.84C310.941 186.84 311.329 186.928 311.711 187.104C312.099 187.273 312.407 187.5 312.635 187.786V184.86H313.9V193H312.635V192.087C312.429 192.38 312.143 192.622 311.777 192.813C311.417 193.004 311.003 193.099 310.534 193.099C310.006 193.099 309.522 192.967 309.082 192.703C308.649 192.432 308.304 192.058 308.048 191.581C307.798 191.097 307.674 190.551 307.674 189.942ZM312.635 189.964C312.635 189.546 312.547 189.183 312.371 188.875C312.202 188.567 311.978 188.332 311.7 188.171C311.421 188.01 311.12 187.929 310.798 187.929C310.475 187.929 310.174 188.01 309.896 188.171C309.617 188.325 309.39 188.556 309.214 188.864C309.045 189.165 308.961 189.524 308.961 189.942C308.961 190.36 309.045 190.727 309.214 191.042C309.39 191.357 309.617 191.599 309.896 191.768C310.182 191.929 310.482 192.01 310.798 192.01C311.12 192.01 311.421 191.929 311.7 191.768C311.978 191.607 312.202 191.372 312.371 191.064C312.547 190.749 312.635 190.382 312.635 189.964ZM318.176 193.099C317.604 193.099 317.087 192.971 316.625 192.714C316.163 192.45 315.8 192.083 315.536 191.614C315.272 191.137 315.14 190.587 315.14 189.964C315.14 189.348 315.275 188.802 315.547 188.325C315.818 187.848 316.188 187.482 316.658 187.225C317.127 186.968 317.651 186.84 318.231 186.84C318.81 186.84 319.334 186.968 319.804 187.225C320.273 187.482 320.643 187.848 320.915 188.325C321.186 188.802 321.322 189.348 321.322 189.964C321.322 190.58 321.182 191.126 320.904 191.603C320.625 192.08 320.244 192.45 319.76 192.714C319.283 192.971 318.755 193.099 318.176 193.099ZM318.176 192.01C318.498 192.01 318.799 191.933 319.078 191.779C319.364 191.625 319.595 191.394 319.771 191.086C319.947 190.778 320.035 190.404 320.035 189.964C320.035 189.524 319.95 189.154 319.782 188.853C319.613 188.545 319.389 188.314 319.111 188.16C318.832 188.006 318.531 187.929 318.209 187.929C317.886 187.929 317.585 188.006 317.307 188.16C317.035 188.314 316.819 188.545 316.658 188.853C316.496 189.154 316.416 189.524 316.416 189.964C316.416 190.617 316.581 191.123 316.911 191.482C317.248 191.834 317.67 192.01 318.176 192.01ZM330.701 186.939L328.82 193H327.5L326.279 188.523L325.058 193H323.738L321.846 186.939H323.122L324.387 191.812L325.674 186.939H326.983L328.215 191.79L329.469 186.939H330.701ZM333.838 193.099C333.362 193.099 332.933 193.015 332.551 192.846C332.177 192.67 331.88 192.435 331.66 192.142C331.44 191.841 331.323 191.508 331.308 191.141H332.606C332.628 191.398 332.749 191.614 332.969 191.79C333.197 191.959 333.479 192.043 333.816 192.043C334.168 192.043 334.44 191.977 334.63 191.845C334.828 191.706 334.927 191.53 334.927 191.317C334.927 191.09 334.817 190.921 334.597 190.811C334.385 190.701 334.044 190.58 333.574 190.448C333.12 190.323 332.749 190.202 332.463 190.085C332.177 189.968 331.928 189.788 331.715 189.546C331.51 189.304 331.407 188.985 331.407 188.589C331.407 188.266 331.503 187.973 331.693 187.709C331.884 187.438 332.155 187.225 332.507 187.071C332.867 186.917 333.277 186.84 333.739 186.84C334.429 186.84 334.982 187.016 335.4 187.368C335.826 187.713 336.053 188.186 336.082 188.787H334.828C334.806 188.516 334.696 188.299 334.498 188.138C334.3 187.977 334.033 187.896 333.695 187.896C333.365 187.896 333.112 187.958 332.936 188.083C332.76 188.208 332.672 188.373 332.672 188.578C332.672 188.739 332.731 188.875 332.848 188.985C332.966 189.095 333.109 189.183 333.277 189.249C333.446 189.308 333.695 189.385 334.025 189.48C334.465 189.597 334.825 189.718 335.103 189.843C335.389 189.96 335.635 190.136 335.84 190.371C336.046 190.606 336.152 190.917 336.159 191.306C336.159 191.651 336.064 191.959 335.873 192.23C335.683 192.501 335.411 192.714 335.059 192.868C334.715 193.022 334.308 193.099 333.838 193.099Z"></path>
<path fill-opacity="0.75" fill="white" d="M258.82 202.745L256.966 209H255.805L254.491 204.266L253.096 209L251.944 209.009L250.171 202.745H251.26L252.556 207.839L253.96 202.745H255.112L256.417 207.812L257.722 202.745H258.82ZM260.188 203.384C260.002 203.384 259.846 203.321 259.72 203.195C259.594 203.069 259.531 202.913 259.531 202.727C259.531 202.541 259.594 202.385 259.72 202.259C259.846 202.133 260.002 202.07 260.188 202.07C260.368 202.07 260.521 202.133 260.647 202.259C260.773 202.385 260.836 202.541 260.836 202.727C260.836 202.913 260.773 203.069 260.647 203.195C260.521 203.321 260.368 203.384 260.188 203.384ZM260.692 204.041V209H259.666V204.041H260.692ZM264.541 203.96C264.931 203.96 265.279 204.041 265.585 204.203C265.897 204.365 266.14 204.605 266.314 204.923C266.488 205.241 266.575 205.625 266.575 206.075V209H265.558V206.228C265.558 205.784 265.447 205.445 265.225 205.211C265.003 204.971 264.7 204.851 264.316 204.851C263.932 204.851 263.626 204.971 263.398 205.211C263.176 205.445 263.065 205.784 263.065 206.228V209H262.039V204.041H263.065V204.608C263.233 204.404 263.446 204.245 263.704 204.131C263.968 204.017 264.247 203.96 264.541 203.96ZM267.542 206.498C267.542 206 267.644 205.559 267.848 205.175C268.058 204.791 268.34 204.494 268.694 204.284C269.054 204.068 269.453 203.96 269.891 203.96C270.215 203.96 270.533 204.032 270.845 204.176C271.163 204.314 271.415 204.5 271.601 204.734V202.34H272.636V209H271.601V208.253C271.433 208.493 271.199 208.691 270.899 208.847C270.605 209.003 270.266 209.081 269.882 209.081C269.45 209.081 269.054 208.973 268.694 208.757C268.34 208.535 268.058 208.229 267.848 207.839C267.644 207.443 267.542 206.996 267.542 206.498ZM271.601 206.516C271.601 206.174 271.529 205.877 271.385 205.625C271.247 205.373 271.064 205.181 270.836 205.049C270.608 204.917 270.362 204.851 270.098 204.851C269.834 204.851 269.588 204.917 269.36 205.049C269.132 205.175 268.946 205.364 268.802 205.616C268.664 205.862 268.595 206.156 268.595 206.498C268.595 206.84 268.664 207.14 268.802 207.398C268.946 207.656 269.132 207.854 269.36 207.992C269.594 208.124 269.84 208.19 270.098 208.19C270.362 208.19 270.608 208.124 270.836 207.992C271.064 207.86 271.247 207.668 271.385 207.416C271.529 207.158 271.601 206.858 271.601 206.516ZM276.135 209.081C275.667 209.081 275.244 208.976 274.866 208.766C274.488 208.55 274.191 208.25 273.975 207.866C273.759 207.476 273.651 207.026 273.651 206.516C273.651 206.012 273.762 205.565 273.984 205.175C274.206 204.785 274.509 204.485 274.893 204.275C275.277 204.065 275.706 203.96 276.18 203.96C276.654 203.96 277.083 204.065 277.467 204.275C277.851 204.485 278.154 204.785 278.376 205.175C278.598 205.565 278.709 206.012 278.709 206.516C278.709 207.02 278.595 207.467 278.367 207.857C278.139 208.247 277.827 208.55 277.431 208.766C277.041 208.976 276.609 209.081 276.135 209.081ZM276.135 208.19C276.399 208.19 276.645 208.127 276.873 208.001C277.107 207.875 277.296 207.686 277.44 207.434C277.584 207.182 277.656 206.876 277.656 206.516C277.656 206.156 277.587 205.853 277.449 205.607C277.311 205.355 277.128 205.166 276.9 205.04C276.672 204.914 276.426 204.851 276.162 204.851C275.898 204.851 275.652 204.914 275.424 205.04C275.202 205.166 275.025 205.355 274.893 205.607C274.761 205.853 274.695 206.156 274.695 206.516C274.695 207.05 274.83 207.464 275.1 207.758C275.376 208.046 275.721 208.19 276.135 208.19ZM286.383 204.041L284.844 209H283.764L282.765 205.337L281.766 209H280.686L279.138 204.041H280.182L281.217 208.028L282.27 204.041H283.341L284.349 208.01L285.375 204.041H286.383ZM288.95 209.081C288.56 209.081 288.209 209.012 287.897 208.874C287.591 208.73 287.348 208.538 287.168 208.298C286.988 208.052 286.892 207.779 286.88 207.479H287.942C287.96 207.689 288.059 207.866 288.239 208.01C288.425 208.148 288.656 208.217 288.932 208.217C289.22 208.217 289.442 208.163 289.598 208.055C289.76 207.941 289.841 207.797 289.841 207.623C289.841 207.437 289.751 207.299 289.571 207.209C289.397 207.119 289.118 207.02 288.734 206.912C288.362 206.81 288.059 206.711 287.825 206.615C287.591 206.519 287.387 206.372 287.213 206.174C287.045 205.976 286.961 205.715 286.961 205.391C286.961 205.127 287.039 204.887 287.195 204.671C287.351 204.449 287.573 204.275 287.861 204.149C288.155 204.023 288.491 203.96 288.869 203.96C289.433 203.96 289.886 204.104 290.228 204.392C290.576 204.674 290.762 205.061 290.786 205.553H289.76C289.742 205.331 289.652 205.154 289.49 205.022C289.328 204.89 289.109 204.824 288.833 204.824C288.563 204.824 288.356 204.875 288.212 204.977C288.068 205.079 287.996 205.214 287.996 205.382C287.996 205.514 288.044 205.625 288.14 205.715C288.236 205.805 288.353 205.877 288.491 205.931C288.629 205.979 288.833 206.042 289.103 206.12C289.463 206.216 289.757 206.315 289.985 206.417C290.219 206.513 290.42 206.657 290.588 206.849C290.756 207.041 290.843 207.296 290.849 207.614C290.849 207.896 290.771 208.148 290.615 208.37C290.459 208.592 290.237 208.766 289.949 208.892C289.667 209.018 289.334 209.081 288.95 209.081ZM296.212 208.082L297.616 204.041H298.705L296.815 209H295.591L293.71 204.041H294.808L296.212 208.082ZM304.026 206.399C304.026 206.585 304.014 206.753 303.99 206.903H300.201C300.231 207.299 300.378 207.617 300.642 207.857C300.906 208.097 301.23 208.217 301.614 208.217C302.166 208.217 302.556 207.986 302.784 207.524H303.891C303.741 207.98 303.468 208.355 303.072 208.649C302.682 208.937 302.196 209.081 301.614 209.081C301.14 209.081 300.714 208.976 300.336 208.766C299.964 208.55 299.67 208.25 299.454 207.866C299.244 207.476 299.139 207.026 299.139 206.516C299.139 206.006 299.241 205.559 299.445 205.175C299.655 204.785 299.946 204.485 300.318 204.275C300.696 204.065 301.128 203.96 301.614 203.96C302.082 203.96 302.499 204.062 302.865 204.266C303.231 204.47 303.516 204.758 303.72 205.13C303.924 205.496 304.026 205.919 304.026 206.399ZM302.955 206.075C302.949 205.697 302.814 205.394 302.55 205.166C302.286 204.938 301.959 204.824 301.569 204.824C301.215 204.824 300.912 204.938 300.66 205.166C300.408 205.388 300.258 205.691 300.21 206.075H302.955ZM306.061 204.761C306.211 204.509 306.409 204.314 306.655 204.176C306.907 204.032 307.204 203.96 307.546 203.96V205.022H307.285C306.883 205.022 306.577 205.124 306.367 205.328C306.163 205.532 306.061 205.886 306.061 206.39V209H305.035V204.041H306.061V204.761ZM310.289 209.081C309.899 209.081 309.548 209.012 309.236 208.874C308.93 208.73 308.687 208.538 308.507 208.298C308.327 208.052 308.231 207.779 308.219 207.479H309.281C309.299 207.689 309.398 207.866 309.578 208.01C309.764 208.148 309.995 208.217 310.271 208.217C310.559 208.217 310.781 208.163 310.937 208.055C311.099 207.941 311.18 207.797 311.18 207.623C311.18 207.437 311.09 207.299 310.91 207.209C310.736 207.119 310.457 207.02 310.073 206.912C309.701 206.81 309.398 206.711 309.164 206.615C308.93 206.519 308.726 206.372 308.552 206.174C308.384 205.976 308.3 205.715 308.3 205.391C308.3 205.127 308.378 204.887 308.534 204.671C308.69 204.449 308.912 204.275 309.2 204.149C309.494 204.023 309.83 203.96 310.208 203.96C310.772 203.96 311.225 204.104 311.567 204.392C311.915 204.674 312.101 205.061 312.125 205.553H311.099C311.081 205.331 310.991 205.154 310.829 205.022C310.667 204.89 310.448 204.824 310.172 204.824C309.902 204.824 309.695 204.875 309.551 204.977C309.407 205.079 309.335 205.214 309.335 205.382C309.335 205.514 309.383 205.625 309.479 205.715C309.575 205.805 309.692 205.877 309.83 205.931C309.968 205.979 310.172 206.042 310.442 206.12C310.802 206.216 311.096 206.315 311.324 206.417C311.558 206.513 311.759 206.657 311.927 206.849C312.095 207.041 312.182 207.296 312.188 207.614C312.188 207.896 312.11 208.148 311.954 208.37C311.798 208.592 311.576 208.766 311.288 208.892C311.006 209.018 310.673 209.081 310.289 209.081ZM313.819 203.384C313.633 203.384 313.477 203.321 313.351 203.195C313.225 203.069 313.162 202.913 313.162 202.727C313.162 202.541 313.225 202.385 313.351 202.259C313.477 202.133 313.633 202.07 313.819 202.07C313.999 202.07 314.152 202.133 314.278 202.259C314.404 202.385 314.467 202.541 314.467 202.727C314.467 202.913 314.404 203.069 314.278 203.195C314.152 203.321 313.999 203.384 313.819 203.384ZM314.323 204.041V209H313.297V204.041H314.323ZM317.821 209.081C317.353 209.081 316.93 208.976 316.552 208.766C316.174 208.55 315.877 208.25 315.661 207.866C315.445 207.476 315.337 207.026 315.337 206.516C315.337 206.012 315.448 205.565 315.67 205.175C315.892 204.785 316.195 204.485 316.579 204.275C316.963 204.065 317.392 203.96 317.866 203.96C318.34 203.96 318.769 204.065 319.153 204.275C319.537 204.485 319.84 204.785 320.062 205.175C320.284 205.565 320.395 206.012 320.395 206.516C320.395 207.02 320.281 207.467 320.053 207.857C319.825 208.247 319.513 208.55 319.117 208.766C318.727 208.976 318.295 209.081 317.821 209.081ZM317.821 208.19C318.085 208.19 318.331 208.127 318.559 208.001C318.793 207.875 318.982 207.686 319.126 207.434C319.27 207.182 319.342 206.876 319.342 206.516C319.342 206.156 319.273 205.853 319.135 205.607C318.997 205.355 318.814 205.166 318.586 205.04C318.358 204.914 318.112 204.851 317.848 204.851C317.584 204.851 317.338 204.914 317.11 205.04C316.888 205.166 316.711 205.355 316.579 205.607C316.447 205.853 316.381 206.156 316.381 206.516C316.381 207.05 316.516 207.464 316.786 207.758C317.062 208.046 317.407 208.19 317.821 208.19ZM323.911 203.96C324.301 203.96 324.649 204.041 324.955 204.203C325.267 204.365 325.51 204.605 325.684 204.923C325.858 205.241 325.945 205.625 325.945 206.075V209H324.928V206.228C324.928 205.784 324.817 205.445 324.595 205.211C324.373 204.971 324.07 204.851 323.686 204.851C323.302 204.851 322.996 204.971 322.768 205.211C322.546 205.445 322.435 205.784 322.435 206.228V209H321.409V204.041H322.435V204.608C322.603 204.404 322.816 204.245 323.074 204.131C323.338 204.017 323.617 203.96 323.911 203.96ZM328.379 207.767L327.29 210.251H326.624L327.263 207.767H328.379ZM339.758 202.745L337.904 209H336.743L335.429 204.266L334.034 209L332.882 209.009L331.109 202.745H332.198L333.494 207.839L334.898 202.745H336.05L337.355 207.812L338.66 202.745H339.758ZM341.127 203.384C340.941 203.384 340.785 203.321 340.659 203.195C340.533 203.069 340.47 202.913 340.47 202.727C340.47 202.541 340.533 202.385 340.659 202.259C340.785 202.133 340.941 202.07 341.127 202.07C341.307 202.07 341.46 202.133 341.586 202.259C341.712 202.385 341.775 202.541 341.775 202.727C341.775 202.913 341.712 203.069 341.586 203.195C341.46 203.321 341.307 203.384 341.127 203.384ZM341.631 204.041V209H340.605V204.041H341.631ZM345.48 203.96C345.87 203.96 346.218 204.041 346.524 204.203C346.836 204.365 347.079 204.605 347.253 204.923C347.427 205.241 347.514 205.625 347.514 206.075V209H346.497V206.228C346.497 205.784 346.386 205.445 346.164 205.211C345.942 204.971 345.639 204.851 345.255 204.851C344.871 204.851 344.565 204.971 344.337 205.211C344.115 205.445 344.004 205.784 344.004 206.228V209H342.978V204.041H344.004V204.608C344.172 204.404 344.385 204.245 344.643 204.131C344.907 204.017 345.186 203.96 345.48 203.96ZM348.48 206.498C348.48 206 348.582 205.559 348.786 205.175C348.996 204.791 349.278 204.494 349.632 204.284C349.992 204.068 350.391 203.96 350.829 203.96C351.153 203.96 351.471 204.032 351.783 204.176C352.101 204.314 352.353 204.5 352.539 204.734V202.34H353.574V209H352.539V208.253C352.371 208.493 352.137 208.691 351.837 208.847C351.543 209.003 351.204 209.081 350.82 209.081C350.388 209.081 349.992 208.973 349.632 208.757C349.278 208.535 348.996 208.229 348.786 207.839C348.582 207.443 348.48 206.996 348.48 206.498ZM352.539 206.516C352.539 206.174 352.467 205.877 352.323 205.625C352.185 205.373 352.002 205.181 351.774 205.049C351.546 204.917 351.3 204.851 351.036 204.851C350.772 204.851 350.526 204.917 350.298 205.049C350.07 205.175 349.884 205.364 349.74 205.616C349.602 205.862 349.533 206.156 349.533 206.498C349.533 206.84 349.602 207.14 349.74 207.398C349.884 207.656 350.07 207.854 350.298 207.992C350.532 208.124 350.778 208.19 351.036 208.19C351.3 208.19 351.546 208.124 351.774 207.992C352.002 207.86 352.185 207.668 352.323 207.416C352.467 207.158 352.539 206.858 352.539 206.516ZM357.073 209.081C356.605 209.081 356.182 208.976 355.804 208.766C355.426 208.55 355.129 208.25 354.913 207.866C354.697 207.476 354.589 207.026 354.589 206.516C354.589 206.012 354.7 205.565 354.922 205.175C355.144 204.785 355.447 204.485 355.831 204.275C356.215 204.065 356.644 203.96 357.118 203.96C357.592 203.96 358.021 204.065 358.405 204.275C358.789 204.485 359.092 204.785 359.314 205.175C359.536 205.565 359.647 206.012 359.647 206.516C359.647 207.02 359.533 207.467 359.305 207.857C359.077 208.247 358.765 208.55 358.369 208.766C357.979 208.976 357.547 209.081 357.073 209.081ZM357.073 208.19C357.337 208.19 357.583 208.127 357.811 208.001C358.045 207.875 358.234 207.686 358.378 207.434C358.522 207.182 358.594 206.876 358.594 206.516C358.594 206.156 358.525 205.853 358.387 205.607C358.249 205.355 358.066 205.166 357.838 205.04C357.61 204.914 357.364 204.851 357.1 204.851C356.836 204.851 356.59 204.914 356.362 205.04C356.14 205.166 355.963 205.355 355.831 205.607C355.699 205.853 355.633 206.156 355.633 206.516C355.633 207.05 355.768 207.464 356.038 207.758C356.314 208.046 356.659 208.19 357.073 208.19ZM367.321 204.041L365.782 209H364.702L363.703 205.337L362.704 209H361.624L360.076 204.041H361.12L362.155 208.028L363.208 204.041H364.279L365.287 208.01L366.313 204.041H367.321ZM369.888 209.081C369.498 209.081 369.147 209.012 368.835 208.874C368.529 208.73 368.286 208.538 368.106 208.298C367.926 208.052 367.83 207.779 367.818 207.479H368.88C368.898 207.689 368.997 207.866 369.177 208.01C369.363 208.148 369.594 208.217 369.87 208.217C370.158 208.217 370.38 208.163 370.536 208.055C370.698 207.941 370.779 207.797 370.779 207.623C370.779 207.437 370.689 207.299 370.509 207.209C370.335 207.119 370.056 207.02 369.672 206.912C369.3 206.81 368.997 206.711 368.763 206.615C368.529 206.519 368.325 206.372 368.151 206.174C367.983 205.976 367.899 205.715 367.899 205.391C367.899 205.127 367.977 204.887 368.133 204.671C368.289 204.449 368.511 204.275 368.799 204.149C369.093 204.023 369.429 203.96 369.807 203.96C370.371 203.96 370.824 204.104 371.166 204.392C371.514 204.674 371.7 205.061 371.724 205.553H370.698C370.68 205.331 370.59 205.154 370.428 205.022C370.266 204.89 370.047 204.824 369.771 204.824C369.501 204.824 369.294 204.875 369.15 204.977C369.006 205.079 368.934 205.214 368.934 205.382C368.934 205.514 368.982 205.625 369.078 205.715C369.174 205.805 369.291 205.877 369.429 205.931C369.567 205.979 369.771 206.042 370.041 206.12C370.401 206.216 370.695 206.315 370.923 206.417C371.157 206.513 371.358 206.657 371.526 206.849C371.694 207.041 371.781 207.296 371.787 207.614C371.787 207.896 371.709 208.148 371.553 208.37C371.397 208.592 371.175 208.766 370.887 208.892C370.605 209.018 370.272 209.081 369.888 209.081ZM379.779 206.399C379.779 206.585 379.767 206.753 379.743 206.903H375.954C375.984 207.299 376.131 207.617 376.395 207.857C376.659 208.097 376.983 208.217 377.367 208.217C377.919 208.217 378.309 207.986 378.537 207.524H379.644C379.494 207.98 379.221 208.355 378.825 208.649C378.435 208.937 377.949 209.081 377.367 209.081C376.893 209.081 376.467 208.976 376.089 208.766C375.717 208.55 375.423 208.25 375.207 207.866C374.997 207.476 374.892 207.026 374.892 206.516C374.892 206.006 374.994 205.559 375.198 205.175C375.408 204.785 375.699 204.485 376.071 204.275C376.449 204.065 376.881 203.96 377.367 203.96C377.835 203.96 378.252 204.062 378.618 204.266C378.984 204.47 379.269 204.758 379.473 205.13C379.677 205.496 379.779 205.919 379.779 206.399ZM378.708 206.075C378.702 205.697 378.567 205.394 378.303 205.166C378.039 204.938 377.712 204.824 377.322 204.824C376.968 204.824 376.665 204.938 376.413 205.166C376.161 205.388 376.011 205.691 375.963 206.075H378.708ZM380.446 206.498C380.446 206 380.548 205.559 380.752 205.175C380.962 204.791 381.244 204.494 381.598 204.284C381.958 204.068 382.357 203.96 382.795 203.96C383.119 203.96 383.437 204.032 383.749 204.176C384.067 204.314 384.319 204.5 384.505 204.734V202.34H385.54V209H384.505V208.253C384.337 208.493 384.103 208.691 383.803 208.847C383.509 209.003 383.17 209.081 382.786 209.081C382.354 209.081 381.958 208.973 381.598 208.757C381.244 208.535 380.962 208.229 380.752 207.839C380.548 207.443 380.446 206.996 380.446 206.498ZM384.505 206.516C384.505 206.174 384.433 205.877 384.289 205.625C384.151 205.373 383.968 205.181 383.74 205.049C383.512 204.917 383.266 204.851 383.002 204.851C382.738 204.851 382.492 204.917 382.264 205.049C382.036 205.175 381.85 205.364 381.706 205.616C381.568 205.862 381.499 206.156 381.499 206.498C381.499 206.84 381.568 207.14 381.706 207.398C381.85 207.656 382.036 207.854 382.264 207.992C382.498 208.124 382.744 208.19 383.002 208.19C383.266 208.19 383.512 208.124 383.74 207.992C383.968 207.86 384.151 207.668 384.289 207.416C384.433 207.158 384.505 206.858 384.505 206.516ZM387.41 203.384C387.224 203.384 387.068 203.321 386.942 203.195C386.816 203.069 386.753 202.913 386.753 202.727C386.753 202.541 386.816 202.385 386.942 202.259C387.068 202.133 387.224 202.07 387.41 202.07C387.59 202.07 387.743 202.133 387.869 202.259C387.995 202.385 388.058 202.541 388.058 202.727C388.058 202.913 387.995 203.069 387.869 203.195C387.743 203.321 387.59 203.384 387.41 203.384ZM387.914 204.041V209H386.888V204.041H387.914ZM390.458 204.878V207.623C390.458 207.809 390.5 207.944 390.584 208.028C390.674 208.106 390.824 208.145 391.034 208.145H391.664V209H390.854C390.392 209 390.038 208.892 389.792 208.676C389.546 208.46 389.423 208.109 389.423 207.623V204.878H388.838V204.041H389.423V202.808H390.458V204.041H391.664V204.878H390.458ZM393.132 203.384C392.946 203.384 392.79 203.321 392.664 203.195C392.538 203.069 392.475 202.913 392.475 202.727C392.475 202.541 392.538 202.385 392.664 202.259C392.79 202.133 392.946 202.07 393.132 202.07C393.312 202.07 393.465 202.133 393.591 202.259C393.717 202.385 393.78 202.541 393.78 202.727C393.78 202.913 393.717 203.069 393.591 203.195C393.465 203.321 393.312 203.384 393.132 203.384ZM393.636 204.041V209H392.61V204.041H393.636ZM397.134 209.081C396.666 209.081 396.243 208.976 395.865 208.766C395.487 208.55 395.19 208.25 394.974 207.866C394.758 207.476 394.65 207.026 394.65 206.516C394.65 206.012 394.761 205.565 394.983 205.175C395.205 204.785 395.508 204.485 395.892 204.275C396.276 204.065 396.705 203.96 397.179 203.96C397.653 203.96 398.082 204.065 398.466 204.275C398.85 204.485 399.153 204.785 399.375 205.175C399.597 205.565 399.708 206.012 399.708 206.516C399.708 207.02 399.594 207.467 399.366 207.857C399.138 208.247 398.826 208.55 398.43 208.766C398.04 208.976 397.608 209.081 397.134 209.081ZM397.134 208.19C397.398 208.19 397.644 208.127 397.872 208.001C398.106 207.875 398.295 207.686 398.439 207.434C398.583 207.182 398.655 206.876 398.655 206.516C398.655 206.156 398.586 205.853 398.448 205.607C398.31 205.355 398.127 205.166 397.899 205.04C397.671 204.914 397.425 204.851 397.161 204.851C396.897 204.851 396.651 204.914 396.423 205.04C396.201 205.166 396.024 205.355 395.892 205.607C395.76 205.853 395.694 206.156 395.694 206.516C395.694 207.05 395.829 207.464 396.099 207.758C396.375 208.046 396.72 208.19 397.134 208.19ZM403.224 203.96C403.614 203.96 403.962 204.041 404.268 204.203C404.58 204.365 404.823 204.605 404.997 204.923C405.171 205.241 405.258 205.625 405.258 206.075V209H404.241V206.228C404.241 205.784 404.13 205.445 403.908 205.211C403.686 204.971 403.383 204.851 402.999 204.851C402.615 204.851 402.309 204.971 402.081 205.211C401.859 205.445 401.748 205.784 401.748 206.228V209H400.722V204.041H401.748V204.608C401.916 204.404 402.129 204.245 402.387 204.131C402.651 204.017 402.93 203.96 403.224 203.96Z"></path>
<path fill="white" d="M211 191C211 189.343 212.343 188 214 188H219V196H211V191Z"></path>
<path fill="white" d="M211 197H219V205H214C212.343 205 211 203.657 211 202V197Z"></path>
<path fill="white" d="M220 197H228V202C228 203.657 226.657 205 225 205H220V197Z"></path>
<path fill="white" d="M220 188H225C226.657 188 228 189.343 228 191V196H220V188Z"></path>
<path fill-opacity="0.05" fill="white" d="M190 239C190 236.239 192.239 234 195 234H465C467.761 234 470 236.239 470 239V295C470 297.761 467.761 300 465 300H195C192.239 300 190 297.761 190 295V239Z"></path>
<path stroke-linejoin="round" stroke-linecap="round" stroke-width="1.5" stroke="white" d="M438 272L442.293 267.707C442.683 267.317 442.683 266.683 442.293 266.293L438 262"></path>
<path fill="white" d="M255.434 269.438H252.233L251.683 271H250.374L253.113 263.344H254.565L257.304 271H255.984L255.434 269.438ZM255.082 268.415L253.839 264.862L252.585 268.415H255.082ZM259.749 265.841C259.962 265.548 260.251 265.309 260.618 265.126C260.992 264.935 261.406 264.84 261.861 264.84C262.396 264.84 262.88 264.968 263.313 265.225C263.746 265.482 264.087 265.848 264.336 266.325C264.585 266.794 264.71 267.333 264.71 267.942C264.71 268.551 264.585 269.097 264.336 269.581C264.087 270.058 263.742 270.432 263.302 270.703C262.869 270.967 262.389 271.099 261.861 271.099C261.392 271.099 260.974 271.007 260.607 270.824C260.248 270.641 259.962 270.406 259.749 270.12V271H258.495V262.86H259.749V265.841ZM263.434 267.942C263.434 267.524 263.346 267.165 263.17 266.864C263.001 266.556 262.774 266.325 262.488 266.171C262.209 266.01 261.909 265.929 261.586 265.929C261.271 265.929 260.97 266.01 260.684 266.171C260.405 266.332 260.178 266.567 260.002 266.875C259.833 267.183 259.749 267.546 259.749 267.964C259.749 268.382 259.833 268.749 260.002 269.064C260.178 269.372 260.405 269.607 260.684 269.768C260.97 269.929 261.271 270.01 261.586 270.01C261.909 270.01 262.209 269.929 262.488 269.768C262.774 269.599 263.001 269.357 263.17 269.042C263.346 268.727 263.434 268.36 263.434 267.942ZM268.579 271.099C268.007 271.099 267.49 270.971 267.028 270.714C266.566 270.45 266.203 270.083 265.939 269.614C265.675 269.137 265.543 268.587 265.543 267.964C265.543 267.348 265.679 266.802 265.95 266.325C266.221 265.848 266.592 265.482 267.061 265.225C267.53 264.968 268.055 264.84 268.634 264.84C269.213 264.84 269.738 264.968 270.207 265.225C270.676 265.482 271.047 265.848 271.318 266.325C271.589 266.802 271.725 267.348 271.725 267.964C271.725 268.58 271.586 269.126 271.307 269.603C271.028 270.08 270.647 270.45 270.163 270.714C269.686 270.971 269.158 271.099 268.579 271.099ZM268.579 270.01C268.902 270.01 269.202 269.933 269.481 269.779C269.767 269.625 269.998 269.394 270.174 269.086C270.35 268.778 270.438 268.404 270.438 267.964C270.438 267.524 270.354 267.154 270.185 266.853C270.016 266.545 269.793 266.314 269.514 266.16C269.235 266.006 268.935 265.929 268.612 265.929C268.289 265.929 267.989 266.006 267.71 266.16C267.439 266.314 267.222 266.545 267.061 266.853C266.9 267.154 266.819 267.524 266.819 267.964C266.819 268.617 266.984 269.123 267.314 269.482C267.651 269.834 268.073 270.01 268.579 270.01ZM278.454 264.939V271H277.2V270.285C277.002 270.534 276.741 270.732 276.419 270.879C276.103 271.018 275.766 271.088 275.407 271.088C274.93 271.088 274.501 270.989 274.12 270.791C273.746 270.593 273.449 270.3 273.229 269.911C273.016 269.522 272.91 269.053 272.91 268.503V264.939H274.153V268.316C274.153 268.859 274.288 269.277 274.56 269.57C274.831 269.856 275.201 269.999 275.671 269.999C276.14 269.999 276.51 269.856 276.782 269.57C277.06 269.277 277.2 268.859 277.2 268.316V264.939H278.454ZM281.571 265.962V269.317C281.571 269.544 281.623 269.709 281.725 269.812C281.835 269.907 282.019 269.955 282.275 269.955H283.045V271H282.055C281.491 271 281.058 270.868 280.757 270.604C280.457 270.34 280.306 269.911 280.306 269.317V265.962H279.591V264.939H280.306V263.432H281.571V264.939H283.045V265.962H281.571ZM292.701 263.894C293.537 263.894 294.26 264.048 294.868 264.356C295.477 264.664 295.939 265.097 296.254 265.654C296.577 266.204 296.738 266.846 296.738 267.579C296.738 268.166 296.636 268.727 296.43 269.262C296.232 269.797 295.943 270.234 295.561 270.571C295.187 270.908 294.744 271.077 294.23 271.077C293.856 271.077 293.563 270.996 293.35 270.835C293.138 270.666 293.006 270.432 292.954 270.131C292.727 270.424 292.441 270.655 292.096 270.824C291.752 270.993 291.392 271.077 291.018 271.077C290.454 271.077 290.01 270.908 289.687 270.571C289.372 270.226 289.214 269.761 289.214 269.174C289.214 268.617 289.328 268.096 289.555 267.612C289.79 267.128 290.116 266.743 290.534 266.457C290.952 266.164 291.422 266.017 291.942 266.017C292.58 266.017 293.028 266.233 293.284 266.666L293.383 266.116H294.472L293.922 269.262C293.9 269.416 293.889 269.552 293.889 269.669C293.889 269.86 293.926 270.003 293.999 270.098C294.08 270.193 294.219 270.241 294.417 270.241C294.696 270.241 294.934 270.105 295.132 269.834C295.33 269.555 295.477 269.214 295.572 268.811C295.675 268.408 295.726 268.015 295.726 267.634C295.726 266.703 295.455 265.991 294.912 265.5C294.37 265.009 293.581 264.763 292.547 264.763C291.682 264.763 290.905 264.968 290.215 265.379C289.533 265.79 288.998 266.354 288.609 267.073C288.221 267.792 288.026 268.591 288.026 269.471C288.026 270.41 288.305 271.125 288.862 271.616C289.42 272.107 290.215 272.353 291.249 272.353C291.946 272.353 292.555 272.225 293.075 271.968L293.24 272.804C292.573 273.09 291.825 273.233 290.996 273.233C290.197 273.233 289.497 273.083 288.895 272.782C288.294 272.481 287.828 272.052 287.498 271.495C287.168 270.945 287.003 270.303 287.003 269.57C287.003 268.521 287.245 267.564 287.729 266.699C288.221 265.834 288.899 265.152 289.764 264.653C290.63 264.147 291.609 263.894 292.701 263.894ZM291.403 270.109C291.711 270.109 291.99 270.021 292.239 269.845C292.496 269.662 292.698 269.423 292.844 269.13C292.991 268.829 293.064 268.51 293.064 268.173C293.064 267.821 292.965 267.535 292.767 267.315C292.577 267.088 292.305 266.974 291.953 266.974C291.638 266.974 291.359 267.073 291.117 267.271C290.883 267.462 290.699 267.711 290.567 268.019C290.443 268.327 290.38 268.65 290.38 268.987C290.38 269.332 290.465 269.607 290.633 269.812C290.802 270.01 291.059 270.109 291.403 270.109ZM302.507 263.355V268.866C302.507 269.548 302.298 270.087 301.88 270.483C301.469 270.879 300.926 271.077 300.252 271.077C299.577 271.077 299.031 270.879 298.613 270.483C298.202 270.087 297.997 269.548 297.997 268.866H299.262C299.269 269.203 299.353 269.471 299.515 269.669C299.683 269.867 299.929 269.966 300.252 269.966C300.574 269.966 300.82 269.867 300.989 269.669C301.157 269.464 301.242 269.196 301.242 268.866V263.355H302.507ZM305.801 262.86V271H304.547V262.86H305.801ZM310.076 271.099C309.504 271.099 308.987 270.971 308.525 270.714C308.063 270.45 307.7 270.083 307.436 269.614C307.172 269.137 307.04 268.587 307.04 267.964C307.04 267.348 307.176 266.802 307.447 266.325C307.718 265.848 308.089 265.482 308.558 265.225C309.027 264.968 309.552 264.84 310.131 264.84C310.71 264.84 311.235 264.968 311.704 265.225C312.173 265.482 312.544 265.848 312.815 266.325C313.086 266.802 313.222 267.348 313.222 267.964C313.222 268.58 313.083 269.126 312.804 269.603C312.525 270.08 312.144 270.45 311.66 270.714C311.183 270.971 310.655 271.099 310.076 271.099ZM310.076 270.01C310.399 270.01 310.699 269.933 310.978 269.779C311.264 269.625 311.495 269.394 311.671 269.086C311.847 268.778 311.935 268.404 311.935 267.964C311.935 267.524 311.851 267.154 311.682 266.853C311.513 266.545 311.29 266.314 311.011 266.16C310.732 266.006 310.432 265.929 310.109 265.929C309.786 265.929 309.486 266.006 309.207 266.16C308.936 266.314 308.719 266.545 308.558 266.853C308.397 267.154 308.316 267.524 308.316 267.964C308.316 268.617 308.481 269.123 308.811 269.482C309.148 269.834 309.57 270.01 310.076 270.01ZM319.071 269.438H315.87L315.32 271H314.011L316.75 263.344H318.202L320.941 271H319.621L319.071 269.438ZM318.719 268.415L317.476 264.862L316.222 268.415H318.719ZM327.621 264.939V271H326.367V270.285C326.169 270.534 325.908 270.732 325.586 270.879C325.27 271.018 324.933 271.088 324.574 271.088C324.097 271.088 323.668 270.989 323.287 270.791C322.913 270.593 322.616 270.3 322.396 269.911C322.183 269.522 322.077 269.053 322.077 268.503V264.939H323.32V268.316C323.32 268.859 323.455 269.277 323.727 269.57C323.998 269.856 324.368 269.999 324.838 269.999C325.307 269.999 325.677 269.856 325.949 269.57C326.227 269.277 326.367 268.859 326.367 268.316V264.939H327.621Z"></path>
<path stroke-linecap="round" stroke-width="3" stroke-opacity="0.5" stroke="white" d="M224.25 261.25V268.125C224.25 270.541 222.291 272.5 219.875 272.5V272.5C217.459 272.5 215.5 270.541 215.5 268.125V268.125"></path>
<path stroke-linecap="round" stroke-width="3" stroke="white" d="M224.25 268.125V268.125C224.25 270.541 222.291 272.5 219.875 272.5V272.5C217.459 272.5 215.5 270.541 215.5 268.125V268.125"></path>
</svg>
