<svg xmlns="http://www.w3.org/2000/svg" fill="none" viewBox="0 0 480 360" height="360" width="480">
<rect fill="#1A1A1A" rx="5" height="70" width="190" y="110" x="245"></rect>
<rect stroke-width="2" stroke-opacity="0.2" stroke="white" rx="6" height="72" width="192" y="109" x="244"></rect>
<path fill="white" d="M305.407 132.161C305.407 131.413 305.579 130.742 305.924 130.148C306.276 129.554 306.749 129.092 307.343 128.762C307.944 128.425 308.601 128.256 309.312 128.256C310.126 128.256 310.848 128.458 311.479 128.861C312.117 129.257 312.579 129.822 312.865 130.555H311.358C311.16 130.152 310.885 129.851 310.533 129.653C310.181 129.455 309.774 129.356 309.312 129.356C308.806 129.356 308.355 129.47 307.959 129.697C307.563 129.924 307.251 130.251 307.024 130.676C306.804 131.101 306.694 131.596 306.694 132.161C306.694 132.726 306.804 133.221 307.024 133.646C307.251 134.071 307.563 134.401 307.959 134.636C308.355 134.863 308.806 134.977 309.312 134.977C309.774 134.977 310.181 134.878 310.533 134.68C310.885 134.482 311.16 134.181 311.358 133.778H312.865C312.579 134.511 312.117 135.076 311.479 135.472C310.848 135.868 310.126 136.066 309.312 136.066C308.593 136.066 307.937 135.901 307.343 135.571C306.749 135.234 306.276 134.768 305.924 134.174C305.579 133.58 305.407 132.909 305.407 132.161ZM315.587 127.86V136H314.333V127.86H315.587ZM322.788 132.821C322.788 133.048 322.774 133.254 322.744 133.437H318.113C318.15 133.921 318.33 134.31 318.652 134.603C318.975 134.896 319.371 135.043 319.84 135.043C320.515 135.043 320.992 134.761 321.27 134.196H322.623C322.44 134.753 322.106 135.212 321.622 135.571C321.146 135.923 320.552 136.099 319.84 136.099C319.261 136.099 318.74 135.971 318.278 135.714C317.824 135.45 317.464 135.083 317.2 134.614C316.944 134.137 316.815 133.587 316.815 132.964C316.815 132.341 316.94 131.794 317.189 131.325C317.446 130.848 317.802 130.482 318.256 130.225C318.718 129.968 319.246 129.84 319.84 129.84C320.412 129.84 320.922 129.965 321.369 130.214C321.817 130.463 322.165 130.815 322.414 131.27C322.664 131.717 322.788 132.234 322.788 132.821ZM321.479 132.425C321.472 131.963 321.307 131.593 320.984 131.314C320.662 131.035 320.262 130.896 319.785 130.896C319.353 130.896 318.982 131.035 318.674 131.314C318.366 131.585 318.183 131.956 318.124 132.425H321.479ZM323.604 132.942C323.604 132.333 323.729 131.794 323.978 131.325C324.235 130.856 324.58 130.493 325.012 130.236C325.452 129.972 325.936 129.84 326.464 129.84C326.941 129.84 327.355 129.935 327.707 130.126C328.067 130.309 328.353 130.54 328.565 130.819V129.939H329.83V136H328.565V135.098C328.353 135.384 328.063 135.622 327.696 135.813C327.33 136.004 326.912 136.099 326.442 136.099C325.922 136.099 325.445 135.967 325.012 135.703C324.58 135.432 324.235 135.058 323.978 134.581C323.729 134.097 323.604 133.551 323.604 132.942ZM328.565 132.964C328.565 132.546 328.477 132.183 328.301 131.875C328.133 131.567 327.909 131.332 327.63 131.171C327.352 131.01 327.051 130.929 326.728 130.929C326.406 130.929 326.105 131.01 325.826 131.171C325.548 131.325 325.32 131.556 325.144 131.864C324.976 132.165 324.891 132.524 324.891 132.942C324.891 133.36 324.976 133.727 325.144 134.042C325.32 134.357 325.548 134.599 325.826 134.768C326.112 134.929 326.413 135.01 326.728 135.01C327.051 135.01 327.352 134.929 327.63 134.768C327.909 134.607 328.133 134.372 328.301 134.064C328.477 133.749 328.565 133.382 328.565 132.964ZM334.535 129.84C335.012 129.84 335.437 129.939 335.811 130.137C336.193 130.335 336.49 130.628 336.702 131.017C336.915 131.406 337.021 131.875 337.021 132.425V136H335.778V132.612C335.778 132.069 335.643 131.655 335.371 131.369C335.1 131.076 334.73 130.929 334.26 130.929C333.791 130.929 333.417 131.076 333.138 131.369C332.867 131.655 332.731 132.069 332.731 132.612V136H331.477V129.939H332.731V130.632C332.937 130.383 333.197 130.188 333.512 130.049C333.835 129.91 334.176 129.84 334.535 129.84ZM342.116 129.136C341.889 129.136 341.698 129.059 341.544 128.905C341.39 128.751 341.313 128.56 341.313 128.333C341.313 128.106 341.39 127.915 341.544 127.761C341.698 127.607 341.889 127.53 342.116 127.53C342.336 127.53 342.523 127.607 342.677 127.761C342.831 127.915 342.908 128.106 342.908 128.333C342.908 128.56 342.831 128.751 342.677 128.905C342.523 129.059 342.336 129.136 342.116 129.136ZM342.732 129.939V136H341.478V129.939H342.732ZM347.437 129.84C347.913 129.84 348.339 129.939 348.713 130.137C349.094 130.335 349.391 130.628 349.604 131.017C349.816 131.406 349.923 131.875 349.923 132.425V136H348.68V132.612C348.68 132.069 348.544 131.655 348.273 131.369C348.001 131.076 347.631 130.929 347.162 130.929C346.692 130.929 346.318 131.076 346.04 131.369C345.768 131.655 345.633 132.069 345.633 132.612V136H344.379V129.939H345.633V130.632C345.838 130.383 346.098 130.188 346.414 130.049C346.736 129.91 347.077 129.84 347.437 129.84ZM353.722 136.099C353.246 136.099 352.817 136.015 352.435 135.846C352.061 135.67 351.764 135.435 351.544 135.142C351.324 134.841 351.207 134.508 351.192 134.141H352.49C352.512 134.398 352.633 134.614 352.853 134.79C353.081 134.959 353.363 135.043 353.7 135.043C354.052 135.043 354.324 134.977 354.514 134.845C354.712 134.706 354.811 134.53 354.811 134.317C354.811 134.09 354.701 133.921 354.481 133.811C354.269 133.701 353.928 133.58 353.458 133.448C353.004 133.323 352.633 133.202 352.347 133.085C352.061 132.968 351.812 132.788 351.599 132.546C351.394 132.304 351.291 131.985 351.291 131.589C351.291 131.266 351.387 130.973 351.577 130.709C351.768 130.438 352.039 130.225 352.391 130.071C352.751 129.917 353.161 129.84 353.623 129.84C354.313 129.84 354.866 130.016 355.284 130.368C355.71 130.713 355.937 131.186 355.966 131.787H354.712C354.69 131.516 354.58 131.299 354.382 131.138C354.184 130.977 353.917 130.896 353.579 130.896C353.249 130.896 352.996 130.958 352.82 131.083C352.644 131.208 352.556 131.373 352.556 131.578C352.556 131.739 352.615 131.875 352.732 131.985C352.85 132.095 352.993 132.183 353.161 132.249C353.33 132.308 353.579 132.385 353.909 132.48C354.349 132.597 354.709 132.718 354.987 132.843C355.273 132.96 355.519 133.136 355.724 133.371C355.93 133.606 356.036 133.917 356.043 134.306C356.043 134.651 355.948 134.959 355.757 135.23C355.567 135.501 355.295 135.714 354.943 135.868C354.599 136.022 354.192 136.099 353.722 136.099ZM358.861 130.962V134.317C358.861 134.544 358.913 134.709 359.015 134.812C359.125 134.907 359.309 134.955 359.565 134.955H360.335V136H359.345C358.781 136 358.348 135.868 358.047 135.604C357.747 135.34 357.596 134.911 357.596 134.317V130.962H356.881V129.939H357.596V128.432H358.861V129.939H360.335V130.962H358.861ZM361.073 132.942C361.073 132.333 361.198 131.794 361.447 131.325C361.704 130.856 362.048 130.493 362.481 130.236C362.921 129.972 363.405 129.84 363.933 129.84C364.41 129.84 364.824 129.935 365.176 130.126C365.535 130.309 365.821 130.54 366.034 130.819V129.939H367.299V136H366.034V135.098C365.821 135.384 365.532 135.622 365.165 135.813C364.798 136.004 364.38 136.099 363.911 136.099C363.39 136.099 362.914 135.967 362.481 135.703C362.048 135.432 361.704 135.058 361.447 134.581C361.198 134.097 361.073 133.551 361.073 132.942ZM366.034 132.964C366.034 132.546 365.946 132.183 365.77 131.875C365.601 131.567 365.378 131.332 365.099 131.171C364.82 131.01 364.52 130.929 364.197 130.929C363.874 130.929 363.574 131.01 363.295 131.171C363.016 131.325 362.789 131.556 362.613 131.864C362.444 132.165 362.36 132.524 362.36 132.942C362.36 133.36 362.444 133.727 362.613 134.042C362.789 134.357 363.016 134.599 363.295 134.768C363.581 134.929 363.882 135.01 364.197 135.01C364.52 135.01 364.82 134.929 365.099 134.768C365.378 134.607 365.601 134.372 365.77 134.064C365.946 133.749 366.034 133.382 366.034 132.964ZM370.2 127.86V136H368.946V127.86H370.2ZM373.1 127.86V136H371.846V127.86H373.1Z"></path>
<path fill-opacity="0.75" fill="white" d="M309.716 142.745V143.582H308.051V149H307.025V143.582H305.351V142.745H309.716ZM313.32 143.96C313.698 143.96 314.034 144.041 314.328 144.203C314.628 144.365 314.862 144.605 315.03 144.923C315.204 145.241 315.291 145.625 315.291 146.075V149H314.274V146.228C314.274 145.784 314.163 145.445 313.941 145.211C313.719 144.971 313.416 144.851 313.032 144.851C312.648 144.851 312.342 144.971 312.114 145.211C311.892 145.445 311.781 145.784 311.781 146.228V149H310.755V142.34H311.781V144.617C311.955 144.407 312.174 144.245 312.438 144.131C312.708 144.017 313.002 143.96 313.32 143.96ZM321.145 146.399C321.145 146.585 321.133 146.753 321.109 146.903H317.32C317.35 147.299 317.497 147.617 317.761 147.857C318.025 148.097 318.349 148.217 318.733 148.217C319.285 148.217 319.675 147.986 319.903 147.524H321.01C320.86 147.98 320.587 148.355 320.191 148.649C319.801 148.937 319.315 149.081 318.733 149.081C318.259 149.081 317.833 148.976 317.455 148.766C317.083 148.55 316.789 148.25 316.573 147.866C316.363 147.476 316.258 147.026 316.258 146.516C316.258 146.006 316.36 145.559 316.564 145.175C316.774 144.785 317.065 144.485 317.437 144.275C317.815 144.065 318.247 143.96 318.733 143.96C319.201 143.96 319.618 144.062 319.984 144.266C320.35 144.47 320.635 144.758 320.839 145.13C321.043 145.496 321.145 145.919 321.145 146.399ZM320.074 146.075C320.068 145.697 319.933 145.394 319.669 145.166C319.405 144.938 319.078 144.824 318.688 144.824C318.334 144.824 318.031 144.938 317.779 145.166C317.527 145.388 317.377 145.691 317.329 146.075H320.074ZM331.152 144.041L329.613 149H328.533L327.534 145.337L326.535 149H325.455L323.907 144.041H324.951L325.986 148.028L327.039 144.041H328.11L329.118 148.01L330.144 144.041H331.152ZM334.484 143.96C334.862 143.96 335.198 144.041 335.492 144.203C335.792 144.365 336.026 144.605 336.194 144.923C336.368 145.241 336.455 145.625 336.455 146.075V149H335.438V146.228C335.438 145.784 335.327 145.445 335.105 145.211C334.883 144.971 334.58 144.851 334.196 144.851C333.812 144.851 333.506 144.971 333.278 145.211C333.056 145.445 332.945 145.784 332.945 146.228V149H331.919V142.34H332.945V144.617C333.119 144.407 333.338 144.245 333.602 144.131C333.872 144.017 334.166 143.96 334.484 143.96ZM339.915 149.081C339.447 149.081 339.024 148.976 338.646 148.766C338.268 148.55 337.971 148.25 337.755 147.866C337.539 147.476 337.431 147.026 337.431 146.516C337.431 146.012 337.542 145.565 337.764 145.175C337.986 144.785 338.289 144.485 338.673 144.275C339.057 144.065 339.486 143.96 339.96 143.96C340.434 143.96 340.863 144.065 341.247 144.275C341.631 144.485 341.934 144.785 342.156 145.175C342.378 145.565 342.489 146.012 342.489 146.516C342.489 147.02 342.375 147.467 342.147 147.857C341.919 148.247 341.607 148.55 341.211 148.766C340.821 148.976 340.389 149.081 339.915 149.081ZM339.915 148.19C340.179 148.19 340.425 148.127 340.653 148.001C340.887 147.875 341.076 147.686 341.22 147.434C341.364 147.182 341.436 146.876 341.436 146.516C341.436 146.156 341.367 145.853 341.229 145.607C341.091 145.355 340.908 145.166 340.68 145.04C340.452 144.914 340.206 144.851 339.942 144.851C339.678 144.851 339.432 144.914 339.204 145.04C338.982 145.166 338.805 145.355 338.673 145.607C338.541 145.853 338.475 146.156 338.475 146.516C338.475 147.05 338.61 147.464 338.88 147.758C339.156 148.046 339.501 148.19 339.915 148.19ZM344.529 142.34V149H343.503V142.34H344.529ZM350.421 146.399C350.421 146.585 350.409 146.753 350.385 146.903H346.596C346.626 147.299 346.773 147.617 347.037 147.857C347.301 148.097 347.625 148.217 348.009 148.217C348.561 148.217 348.951 147.986 349.179 147.524H350.286C350.136 147.98 349.863 148.355 349.467 148.649C349.077 148.937 348.591 149.081 348.009 149.081C347.535 149.081 347.109 148.976 346.731 148.766C346.359 148.55 346.065 148.25 345.849 147.866C345.639 147.476 345.534 147.026 345.534 146.516C345.534 146.006 345.636 145.559 345.84 145.175C346.05 144.785 346.341 144.485 346.713 144.275C347.091 144.065 347.523 143.96 348.009 143.96C348.477 143.96 348.894 144.062 349.26 144.266C349.626 144.47 349.911 144.758 350.115 145.13C350.319 145.496 350.421 145.919 350.421 146.399ZM349.35 146.075C349.344 145.697 349.209 145.394 348.945 145.166C348.681 144.938 348.354 144.824 347.964 144.824C347.61 144.824 347.307 144.938 347.055 145.166C346.803 145.388 346.653 145.691 346.605 146.075H349.35ZM353.427 146.498C353.427 146 353.529 145.559 353.733 145.175C353.943 144.791 354.225 144.494 354.579 144.284C354.939 144.068 355.338 143.96 355.776 143.96C356.1 143.96 356.418 144.032 356.73 144.176C357.048 144.314 357.3 144.5 357.486 144.734V142.34H358.521V149H357.486V148.253C357.318 148.493 357.084 148.691 356.784 148.847C356.49 149.003 356.151 149.081 355.767 149.081C355.335 149.081 354.939 148.973 354.579 148.757C354.225 148.535 353.943 148.229 353.733 147.839C353.529 147.443 353.427 146.996 353.427 146.498ZM357.486 146.516C357.486 146.174 357.414 145.877 357.27 145.625C357.132 145.373 356.949 145.181 356.721 145.049C356.493 144.917 356.247 144.851 355.983 144.851C355.719 144.851 355.473 144.917 355.245 145.049C355.017 145.175 354.831 145.364 354.687 145.616C354.549 145.862 354.48 146.156 354.48 146.498C354.48 146.84 354.549 147.14 354.687 147.398C354.831 147.656 355.017 147.854 355.245 147.992C355.479 148.124 355.725 148.19 355.983 148.19C356.247 148.19 356.493 148.124 356.721 147.992C356.949 147.86 357.132 147.668 357.27 147.416C357.414 147.158 357.486 146.858 357.486 146.516ZM360.39 143.384C360.204 143.384 360.048 143.321 359.922 143.195C359.796 143.069 359.733 142.913 359.733 142.727C359.733 142.541 359.796 142.385 359.922 142.259C360.048 142.133 360.204 142.07 360.39 142.07C360.57 142.07 360.723 142.133 360.849 142.259C360.975 142.385 361.038 142.541 361.038 142.727C361.038 142.913 360.975 143.069 360.849 143.195C360.723 143.321 360.57 143.384 360.39 143.384ZM360.894 144.041V149H359.868V144.041H360.894ZM364.041 149.081C363.651 149.081 363.3 149.012 362.988 148.874C362.682 148.73 362.439 148.538 362.259 148.298C362.079 148.052 361.983 147.779 361.971 147.479H363.033C363.051 147.689 363.15 147.866 363.33 148.01C363.516 148.148 363.747 148.217 364.023 148.217C364.311 148.217 364.533 148.163 364.689 148.055C364.851 147.941 364.932 147.797 364.932 147.623C364.932 147.437 364.842 147.299 364.662 147.209C364.488 147.119 364.209 147.02 363.825 146.912C363.453 146.81 363.15 146.711 362.916 146.615C362.682 146.519 362.478 146.372 362.304 146.174C362.136 145.976 362.052 145.715 362.052 145.391C362.052 145.127 362.13 144.887 362.286 144.671C362.442 144.449 362.664 144.275 362.952 144.149C363.246 144.023 363.582 143.96 363.96 143.96C364.524 143.96 364.977 144.104 365.319 144.392C365.667 144.674 365.853 145.061 365.877 145.553H364.851C364.833 145.331 364.743 145.154 364.581 145.022C364.419 144.89 364.2 144.824 363.924 144.824C363.654 144.824 363.447 144.875 363.303 144.977C363.159 145.079 363.087 145.214 363.087 145.382C363.087 145.514 363.135 145.625 363.231 145.715C363.327 145.805 363.444 145.877 363.582 145.931C363.72 145.979 363.924 146.042 364.194 146.12C364.554 146.216 364.848 146.315 365.076 146.417C365.31 146.513 365.511 146.657 365.679 146.849C365.847 147.041 365.934 147.296 365.94 147.614C365.94 147.896 365.862 148.148 365.706 148.37C365.55 148.592 365.328 148.766 365.04 148.892C364.758 149.018 364.425 149.081 364.041 149.081ZM369.011 146.525L371.297 149H369.911L368.075 146.867V149H367.049V142.34H368.075V146.21L369.875 144.041H371.297L369.011 146.525ZM381.03 144.041L379.491 149H378.411L377.412 145.337L376.413 149H375.333L373.785 144.041H374.829L375.864 148.028L376.917 144.041H377.988L378.996 148.01L380.022 144.041H381.03ZM382.319 143.384C382.133 143.384 381.977 143.321 381.851 143.195C381.725 143.069 381.662 142.913 381.662 142.727C381.662 142.541 381.725 142.385 381.851 142.259C381.977 142.133 382.133 142.07 382.319 142.07C382.499 142.07 382.652 142.133 382.778 142.259C382.904 142.385 382.967 142.541 382.967 142.727C382.967 142.913 382.904 143.069 382.778 143.195C382.652 143.321 382.499 143.384 382.319 143.384ZM382.823 144.041V149H381.797V144.041H382.823ZM385.196 142.34V149H384.17V142.34H385.196ZM387.569 142.34V149H386.543V142.34H387.569ZM392.28 144.779C392.454 144.539 392.691 144.344 392.991 144.194C393.297 144.038 393.636 143.96 394.008 143.96C394.446 143.96 394.842 144.065 395.196 144.275C395.55 144.485 395.829 144.785 396.033 145.175C396.237 145.559 396.339 146 396.339 146.498C396.339 146.996 396.237 147.443 396.033 147.839C395.829 148.229 395.547 148.535 395.187 148.757C394.833 148.973 394.44 149.081 394.008 149.081C393.624 149.081 393.282 149.006 392.982 148.856C392.688 148.706 392.454 148.514 392.28 148.28V149H391.254V142.34H392.28V144.779ZM395.295 146.498C395.295 146.156 395.223 145.862 395.079 145.616C394.941 145.364 394.755 145.175 394.521 145.049C394.293 144.917 394.047 144.851 393.783 144.851C393.525 144.851 393.279 144.917 393.045 145.049C392.817 145.181 392.631 145.373 392.487 145.625C392.349 145.877 392.28 146.174 392.28 146.516C392.28 146.858 392.349 147.158 392.487 147.416C392.631 147.668 392.817 147.86 393.045 147.992C393.279 148.124 393.525 148.19 393.783 148.19C394.047 148.19 394.293 148.124 394.521 147.992C394.755 147.854 394.941 147.656 395.079 147.398C395.223 147.14 395.295 146.84 395.295 146.498ZM401.899 146.399C401.899 146.585 401.887 146.753 401.863 146.903H398.074C398.104 147.299 398.251 147.617 398.515 147.857C398.779 148.097 399.103 148.217 399.487 148.217C400.039 148.217 400.429 147.986 400.657 147.524H401.764C401.614 147.98 401.341 148.355 400.945 148.649C400.555 148.937 400.069 149.081 399.487 149.081C399.013 149.081 398.587 148.976 398.209 148.766C397.837 148.55 397.543 148.25 397.327 147.866C397.117 147.476 397.012 147.026 397.012 146.516C397.012 146.006 397.114 145.559 397.318 145.175C397.528 144.785 397.819 144.485 398.191 144.275C398.569 144.065 399.001 143.96 399.487 143.96C399.955 143.96 400.372 144.062 400.738 144.266C401.104 144.47 401.389 144.758 401.593 145.13C401.797 145.496 401.899 145.919 401.899 146.399ZM400.828 146.075C400.822 145.697 400.687 145.394 400.423 145.166C400.159 144.938 399.832 144.824 399.442 144.824C399.088 144.824 398.785 144.938 398.533 145.166C398.281 145.388 398.131 145.691 398.083 146.075H400.828ZM305.333 159.498C305.333 159 305.435 158.559 305.639 158.175C305.849 157.791 306.131 157.494 306.485 157.284C306.845 157.068 307.244 156.96 307.682 156.96C308.006 156.96 308.324 157.032 308.636 157.176C308.954 157.314 309.206 157.5 309.392 157.734V155.34H310.427V162H309.392V161.253C309.224 161.493 308.99 161.691 308.69 161.847C308.396 162.003 308.057 162.081 307.673 162.081C307.241 162.081 306.845 161.973 306.485 161.757C306.131 161.535 305.849 161.229 305.639 160.839C305.435 160.443 305.333 159.996 305.333 159.498ZM309.392 159.516C309.392 159.174 309.32 158.877 309.176 158.625C309.038 158.373 308.855 158.181 308.627 158.049C308.399 157.917 308.153 157.851 307.889 157.851C307.625 157.851 307.379 157.917 307.151 158.049C306.923 158.175 306.737 158.364 306.593 158.616C306.455 158.862 306.386 159.156 306.386 159.498C306.386 159.84 306.455 160.14 306.593 160.398C306.737 160.656 306.923 160.854 307.151 160.992C307.385 161.124 307.631 161.19 307.889 161.19C308.153 161.19 308.399 161.124 308.627 160.992C308.855 160.86 309.038 160.668 309.176 160.416C309.32 160.158 309.392 159.858 309.392 159.516ZM316.32 159.399C316.32 159.585 316.308 159.753 316.284 159.903H312.495C312.525 160.299 312.672 160.617 312.936 160.857C313.2 161.097 313.524 161.217 313.908 161.217C314.46 161.217 314.85 160.986 315.078 160.524H316.185C316.035 160.98 315.762 161.355 315.366 161.649C314.976 161.937 314.49 162.081 313.908 162.081C313.434 162.081 313.008 161.976 312.63 161.766C312.258 161.55 311.964 161.25 311.748 160.866C311.538 160.476 311.433 160.026 311.433 159.516C311.433 159.006 311.535 158.559 311.739 158.175C311.949 157.785 312.24 157.485 312.612 157.275C312.99 157.065 313.422 156.96 313.908 156.96C314.376 156.96 314.793 157.062 315.159 157.266C315.525 157.47 315.81 157.758 316.014 158.13C316.218 158.496 316.32 158.919 316.32 159.399ZM315.249 159.075C315.243 158.697 315.108 158.394 314.844 158.166C314.58 157.938 314.253 157.824 313.863 157.824C313.509 157.824 313.206 157.938 312.954 158.166C312.702 158.388 312.552 158.691 312.504 159.075H315.249ZM318.355 155.34V162H317.329V155.34H318.355ZM324.247 159.399C324.247 159.585 324.235 159.753 324.211 159.903H320.422C320.452 160.299 320.599 160.617 320.863 160.857C321.127 161.097 321.451 161.217 321.835 161.217C322.387 161.217 322.777 160.986 323.005 160.524H324.112C323.962 160.98 323.689 161.355 323.293 161.649C322.903 161.937 322.417 162.081 321.835 162.081C321.361 162.081 320.935 161.976 320.557 161.766C320.185 161.55 319.891 161.25 319.675 160.866C319.465 160.476 319.36 160.026 319.36 159.516C319.36 159.006 319.462 158.559 319.666 158.175C319.876 157.785 320.167 157.485 320.539 157.275C320.917 157.065 321.349 156.96 321.835 156.96C322.303 156.96 322.72 157.062 323.086 157.266C323.452 157.47 323.737 157.758 323.941 158.13C324.145 158.496 324.247 158.919 324.247 159.399ZM323.176 159.075C323.17 158.697 323.035 158.394 322.771 158.166C322.507 157.938 322.18 157.824 321.79 157.824C321.436 157.824 321.133 157.938 320.881 158.166C320.629 158.388 320.479 158.691 320.431 159.075H323.176ZM326.454 157.878V160.623C326.454 160.809 326.496 160.944 326.58 161.028C326.67 161.106 326.82 161.145 327.03 161.145H327.66V162H326.85C326.388 162 326.034 161.892 325.788 161.676C325.542 161.46 325.419 161.109 325.419 160.623V157.878H324.834V157.041H325.419V155.808H326.454V157.041H327.66V157.878H326.454ZM333.151 159.399C333.151 159.585 333.139 159.753 333.115 159.903H329.326C329.356 160.299 329.503 160.617 329.767 160.857C330.031 161.097 330.355 161.217 330.739 161.217C331.291 161.217 331.681 160.986 331.909 160.524H333.016C332.866 160.98 332.593 161.355 332.197 161.649C331.807 161.937 331.321 162.081 330.739 162.081C330.265 162.081 329.839 161.976 329.461 161.766C329.089 161.55 328.795 161.25 328.579 160.866C328.369 160.476 328.264 160.026 328.264 159.516C328.264 159.006 328.366 158.559 328.57 158.175C328.78 157.785 329.071 157.485 329.443 157.275C329.821 157.065 330.253 156.96 330.739 156.96C331.207 156.96 331.624 157.062 331.99 157.266C332.356 157.47 332.641 157.758 332.845 158.13C333.049 158.496 333.151 158.919 333.151 159.399ZM332.08 159.075C332.074 158.697 331.939 158.394 331.675 158.166C331.411 157.938 331.084 157.824 330.694 157.824C330.34 157.824 330.037 157.938 329.785 158.166C329.533 158.388 329.383 158.691 329.335 159.075H332.08ZM333.818 159.498C333.818 159 333.92 158.559 334.124 158.175C334.334 157.791 334.616 157.494 334.97 157.284C335.33 157.068 335.729 156.96 336.167 156.96C336.491 156.96 336.809 157.032 337.121 157.176C337.439 157.314 337.691 157.5 337.877 157.734V155.34H338.912V162H337.877V161.253C337.709 161.493 337.475 161.691 337.175 161.847C336.881 162.003 336.542 162.081 336.158 162.081C335.726 162.081 335.33 161.973 334.97 161.757C334.616 161.535 334.334 161.229 334.124 160.839C333.92 160.443 333.818 159.996 333.818 159.498ZM337.877 159.516C337.877 159.174 337.805 158.877 337.661 158.625C337.523 158.373 337.34 158.181 337.112 158.049C336.884 157.917 336.638 157.851 336.374 157.851C336.11 157.851 335.864 157.917 335.636 158.049C335.408 158.175 335.222 158.364 335.078 158.616C334.94 158.862 334.871 159.156 334.871 159.498C334.871 159.84 334.94 160.14 335.078 160.398C335.222 160.656 335.408 160.854 335.636 160.992C335.87 161.124 336.116 161.19 336.374 161.19C336.638 161.19 336.884 161.124 337.112 160.992C337.34 160.86 337.523 160.668 337.661 160.416C337.805 160.158 337.877 159.858 337.877 159.516ZM340.674 162.063C340.488 162.063 340.332 162 340.206 161.874C340.08 161.748 340.017 161.592 340.017 161.406C340.017 161.22 340.08 161.064 340.206 160.938C340.332 160.812 340.488 160.749 340.674 160.749C340.854 160.749 341.007 160.812 341.133 160.938C341.259 161.064 341.322 161.22 341.322 161.406C341.322 161.592 341.259 161.748 341.133 161.874C341.007 162 340.854 162.063 340.674 162.063Z"></path>
<path stroke-width="0.842105" stroke="white" d="M271.632 146H268.684C267.754 146 267 146.754 267 147.684V150.211C267 151.141 267.754 151.895 268.684 151.895H281.316C282.246 151.895 283 151.141 283 150.211V147.684C283 146.754 282.246 146 281.316 146H277.526"></path>
<path fill="white" d="M278.789 148.947C278.789 148.25 279.355 147.684 280.052 147.684C280.75 147.684 281.315 148.25 281.315 148.947C281.315 149.645 280.75 150.211 280.052 150.211C279.355 150.211 278.789 149.645 278.789 148.947Z"></path>
<path stroke-linejoin="round" stroke-linecap="round" stroke-width="0.842105" stroke="white" d="M270.789 143.474C270.789 144.223 271.011 144.956 271.428 145.579C271.844 146.202 272.436 146.688 273.128 146.975C273.821 147.262 274.583 147.337 275.318 147.19C276.053 147.044 276.728 146.683 277.258 146.153C277.788 145.623 278.149 144.948 278.295 144.213C278.441 143.478 278.366 142.716 278.08 142.024C277.793 141.331 277.307 140.739 276.684 140.323C276.061 139.906 275.328 139.684 274.579 139.684H270.789M270.789 139.684L272.473 138M270.789 139.684L272.473 141.368"></path>
</svg>
