<svg xmlns="http://www.w3.org/2000/svg" fill="none" viewBox="0 0 480 360" height="360" width="480">
<rect fill="#1A1A1A" rx="5" height="40" width="150" y="310" x="165"></rect>
<rect stroke-width="2" stroke-opacity="0.2" stroke="white" rx="6" height="42" width="152" y="309" x="164"></rect>
<path fill="white" d="M231.576 334.077C230.864 334.077 230.208 333.912 229.607 333.582C229.013 333.245 228.54 332.779 228.188 332.185C227.843 331.584 227.671 330.909 227.671 330.161C227.671 329.413 227.843 328.742 228.188 328.148C228.54 327.554 229.013 327.092 229.607 326.762C230.208 326.425 230.864 326.256 231.576 326.256C232.294 326.256 232.951 326.425 233.545 326.762C234.146 327.092 234.619 327.554 234.964 328.148C235.308 328.742 235.481 329.413 235.481 330.161C235.481 330.909 235.308 331.584 234.964 332.185C234.619 332.779 234.146 333.245 233.545 333.582C232.951 333.912 232.294 334.077 231.576 334.077ZM231.576 332.988C232.082 332.988 232.533 332.874 232.929 332.647C233.325 332.412 233.633 332.082 233.853 331.657C234.08 331.224 234.194 330.726 234.194 330.161C234.194 329.596 234.08 329.101 233.853 328.676C233.633 328.251 233.325 327.924 232.929 327.697C232.533 327.47 232.082 327.356 231.576 327.356C231.07 327.356 230.619 327.47 230.223 327.697C229.827 327.924 229.515 328.251 229.288 328.676C229.068 329.101 228.958 329.596 228.958 330.161C228.958 330.726 229.068 331.224 229.288 331.657C229.515 332.082 229.827 332.412 230.223 332.647C230.619 332.874 231.07 332.988 231.576 332.988ZM237.969 328.83C238.181 328.551 238.471 328.317 238.838 328.126C239.204 327.935 239.619 327.84 240.081 327.84C240.609 327.84 241.089 327.972 241.522 328.236C241.962 328.493 242.306 328.856 242.556 329.325C242.805 329.794 242.93 330.333 242.93 330.942C242.93 331.551 242.805 332.097 242.556 332.581C242.306 333.058 241.962 333.432 241.522 333.703C241.089 333.967 240.609 334.099 240.081 334.099C239.619 334.099 239.208 334.007 238.849 333.824C238.489 333.633 238.196 333.399 237.969 333.12V336.882H236.715V327.939H237.969V328.83ZM241.654 330.942C241.654 330.524 241.566 330.165 241.39 329.864C241.221 329.556 240.994 329.325 240.708 329.171C240.429 329.01 240.128 328.929 239.806 328.929C239.49 328.929 239.19 329.01 238.904 329.171C238.625 329.332 238.398 329.567 238.222 329.875C238.053 330.183 237.969 330.546 237.969 330.964C237.969 331.382 238.053 331.749 238.222 332.064C238.398 332.372 238.625 332.607 238.904 332.768C239.19 332.929 239.49 333.01 239.806 333.01C240.128 333.01 240.429 332.929 240.708 332.768C240.994 332.599 241.221 332.357 241.39 332.042C241.566 331.727 241.654 331.36 241.654 330.942ZM249.725 330.821C249.725 331.048 249.71 331.254 249.681 331.437H245.05C245.086 331.921 245.266 332.31 245.589 332.603C245.911 332.896 246.307 333.043 246.777 333.043C247.451 333.043 247.928 332.761 248.207 332.196H249.56C249.376 332.753 249.043 333.212 248.559 333.571C248.082 333.923 247.488 334.099 246.777 334.099C246.197 334.099 245.677 333.971 245.215 333.714C244.76 333.45 244.401 333.083 244.137 332.614C243.88 332.137 243.752 331.587 243.752 330.964C243.752 330.341 243.876 329.794 244.126 329.325C244.382 328.848 244.738 328.482 245.193 328.225C245.655 327.968 246.183 327.84 246.777 327.84C247.349 327.84 247.858 327.965 248.306 328.214C248.753 328.463 249.101 328.815 249.351 329.27C249.6 329.717 249.725 330.234 249.725 330.821ZM248.416 330.425C248.408 329.963 248.243 329.593 247.921 329.314C247.598 329.035 247.198 328.896 246.722 328.896C246.289 328.896 245.919 329.035 245.611 329.314C245.303 329.585 245.119 329.956 245.061 330.425H248.416ZM254.017 327.84C254.493 327.84 254.919 327.939 255.293 328.137C255.674 328.335 255.971 328.628 256.184 329.017C256.396 329.406 256.503 329.875 256.503 330.425V334H255.26V330.612C255.26 330.069 255.124 329.655 254.853 329.369C254.581 329.076 254.211 328.929 253.742 328.929C253.272 328.929 252.898 329.076 252.62 329.369C252.348 329.655 252.213 330.069 252.213 330.612V334H250.959V327.939H252.213V328.632C252.418 328.383 252.678 328.188 252.994 328.049C253.316 327.91 253.657 327.84 254.017 327.84ZM258.74 327.136C258.513 327.136 258.322 327.059 258.168 326.905C258.014 326.751 257.937 326.56 257.937 326.333C257.937 326.106 258.014 325.915 258.168 325.761C258.322 325.607 258.513 325.53 258.74 325.53C258.96 325.53 259.147 325.607 259.301 325.761C259.455 325.915 259.532 326.106 259.532 326.333C259.532 326.56 259.455 326.751 259.301 326.905C259.147 327.059 258.96 327.136 258.74 327.136ZM259.356 327.939V334H258.102V327.939H259.356ZM264.061 327.84C264.537 327.84 264.963 327.939 265.337 328.137C265.718 328.335 266.015 328.628 266.228 329.017C266.44 329.406 266.547 329.875 266.547 330.425V334H265.304V330.612C265.304 330.069 265.168 329.655 264.897 329.369C264.625 329.076 264.255 328.929 263.786 328.929C263.316 328.929 262.942 329.076 262.664 329.369C262.392 329.655 262.257 330.069 262.257 330.612V334H261.003V327.939H262.257V328.632C262.462 328.383 262.722 328.188 263.038 328.049C263.36 327.91 263.701 327.84 264.061 327.84ZM270.588 327.84C271.058 327.84 271.472 327.935 271.831 328.126C272.198 328.309 272.484 328.54 272.689 328.819V327.939H273.954V334.099C273.954 334.656 273.837 335.151 273.602 335.584C273.368 336.024 273.027 336.369 272.579 336.618C272.139 336.867 271.611 336.992 270.995 336.992C270.174 336.992 269.492 336.798 268.949 336.409C268.407 336.028 268.099 335.507 268.025 334.847H269.268C269.364 335.162 269.565 335.415 269.873 335.606C270.189 335.804 270.563 335.903 270.995 335.903C271.501 335.903 271.908 335.749 272.216 335.441C272.532 335.133 272.689 334.686 272.689 334.099V333.087C272.477 333.373 272.187 333.615 271.82 333.813C271.461 334.004 271.05 334.099 270.588 334.099C270.06 334.099 269.576 333.967 269.136 333.703C268.704 333.432 268.359 333.058 268.102 332.581C267.853 332.097 267.728 331.551 267.728 330.942C267.728 330.333 267.853 329.794 268.102 329.325C268.359 328.856 268.704 328.493 269.136 328.236C269.576 327.972 270.06 327.84 270.588 327.84ZM272.689 330.964C272.689 330.546 272.601 330.183 272.425 329.875C272.257 329.567 272.033 329.332 271.754 329.171C271.476 329.01 271.175 328.929 270.852 328.929C270.53 328.929 270.229 329.01 269.95 329.171C269.672 329.325 269.444 329.556 269.268 329.864C269.1 330.165 269.015 330.524 269.015 330.942C269.015 331.36 269.1 331.727 269.268 332.042C269.444 332.357 269.672 332.599 269.95 332.768C270.236 332.929 270.537 333.01 270.852 333.01C271.175 333.01 271.476 332.929 271.754 332.768C272.033 332.607 272.257 332.372 272.425 332.064C272.601 331.749 272.689 331.382 272.689 330.964ZM276.107 334.077C275.88 334.077 275.689 334 275.535 333.846C275.381 333.692 275.304 333.501 275.304 333.274C275.304 333.047 275.381 332.856 275.535 332.702C275.689 332.548 275.88 332.471 276.107 332.471C276.327 332.471 276.514 332.548 276.668 332.702C276.822 332.856 276.899 333.047 276.899 333.274C276.899 333.501 276.822 333.692 276.668 333.846C276.514 334 276.327 334.077 276.107 334.077ZM278.761 334.077C278.533 334.077 278.343 334 278.189 333.846C278.035 333.692 277.958 333.501 277.958 333.274C277.958 333.047 278.035 332.856 278.189 332.702C278.343 332.548 278.533 332.471 278.761 332.471C278.981 332.471 279.168 332.548 279.322 332.702C279.476 332.856 279.553 333.047 279.553 333.274C279.553 333.501 279.476 333.692 279.322 333.846C279.168 334 278.981 334.077 278.761 334.077ZM281.414 334.077C281.187 334.077 280.996 334 280.842 333.846C280.688 333.692 280.611 333.501 280.611 333.274C280.611 333.047 280.688 332.856 280.842 332.702C280.996 332.548 281.187 332.471 281.414 332.471C281.634 332.471 281.821 332.548 281.975 332.702C282.129 332.856 282.206 333.047 282.206 333.274C282.206 333.501 282.129 333.692 281.975 333.846C281.821 334 281.634 334.077 281.414 334.077Z"></path>
<path stroke-width="0.842105" stroke="white" d="M181.632 331H178.684C177.754 331 177 331.754 177 332.684V335.211C177 336.141 177.754 336.895 178.684 336.895H191.316C192.246 336.895 193 336.141 193 335.211V332.684C193 331.754 192.246 331 191.316 331H187.526"></path>
<path fill="white" d="M188.789 333.947C188.789 333.25 189.355 332.684 190.052 332.684V332.684C190.75 332.684 191.315 333.25 191.315 333.947V333.947C191.315 334.645 190.75 335.21 190.052 335.21V335.21C189.355 335.21 188.789 334.645 188.789 333.947V333.947Z"></path>
<path stroke-linejoin="round" stroke-linecap="round" stroke-width="0.842105" stroke="white" d="M180.789 328.474C180.789 329.223 181.011 329.956 181.428 330.579C181.844 331.202 182.436 331.688 183.128 331.975C183.821 332.262 184.583 332.337 185.318 332.19C186.053 332.044 186.728 331.683 187.258 331.153C187.788 330.623 188.149 329.948 188.295 329.213C188.441 328.478 188.366 327.716 188.08 327.024C187.793 326.331 187.307 325.739 186.684 325.323C186.061 324.906 185.328 324.684 184.579 324.684H180.789M180.789 324.684L182.473 323M180.789 324.684L182.473 326.368"></path>
</svg>
