<svg xmlns="http://www.w3.org/2000/svg" fill="none" viewBox="0 0 44 24" height="24" width="44">
<path fill-opacity="0.5" fill="#FF0000" d="M2 12C2 6.47715 6.47715 2 12 2H32C37.5228 2 42 6.47715 42 12V12C42 17.5228 37.5228 22 32 22H12C6.47715 22 2 17.5228 2 12V12Z"></path>
<path stroke-width="2" stroke-opacity="0.2" stroke="#FF0000" d="M32 1H12C5.92487 1 1 5.92487 1 12C1 18.0751 5.92487 23 12 23H32C38.0751 23 43 18.0751 43 12C43 5.92487 38.0751 1 32 1Z"></path>
<path fill="white" d="M20.6784 8.428H16.6584V10.816C16.8264 10.592 17.0744 10.404 17.4024 10.252C17.7384 10.1 18.0944 10.024 18.4704 10.024C19.1424 10.024 19.6864 10.168 20.1024 10.456C20.5264 10.744 20.8264 11.108 21.0024 11.548C21.1864 11.988 21.2784 12.452 21.2784 12.94C21.2784 13.532 21.1624 14.06 20.9304 14.524C20.7064 14.98 20.3664 15.34 19.9104 15.604C19.4624 15.868 18.9104 16 18.2544 16C17.3824 16 16.6824 15.784 16.1544 15.352C15.6264 14.92 15.3104 14.348 15.2064 13.636H16.5384C16.6264 14.012 16.8224 14.312 17.1264 14.536C17.4304 14.752 17.8104 14.86 18.2664 14.86C18.8344 14.86 19.2584 14.688 19.5384 14.344C19.8264 14 19.9704 13.544 19.9704 12.976C19.9704 12.4 19.8264 11.96 19.5384 11.656C19.2504 11.344 18.8264 11.188 18.2664 11.188C17.8744 11.188 17.5424 11.288 17.2704 11.488C17.0064 11.68 16.8144 11.944 16.6944 12.28H15.3984V7.228H20.6784V8.428ZM27.4064 9.28C27.3184 8.912 27.1584 8.636 26.9264 8.452C26.6944 8.268 26.3704 8.176 25.9544 8.176C25.3224 8.176 24.8504 8.42 24.5384 8.908C24.2264 9.388 24.0624 10.188 24.0464 11.308C24.2544 10.956 24.5584 10.684 24.9584 10.492C25.3584 10.3 25.7904 10.204 26.2544 10.204C26.7824 10.204 27.2464 10.32 27.6464 10.552C28.0544 10.776 28.3704 11.104 28.5944 11.536C28.8264 11.968 28.9424 12.484 28.9424 13.084C28.9424 13.644 28.8304 14.144 28.6064 14.584C28.3904 15.024 28.0664 15.372 27.6344 15.628C27.2024 15.876 26.6824 16 26.0744 16C25.2504 16 24.6024 15.82 24.1304 15.46C23.6664 15.092 23.3384 14.576 23.1464 13.912C22.9624 13.248 22.8704 12.42 22.8704 11.428C22.8704 8.5 23.9024 7.036 25.9664 7.036C26.7664 7.036 27.3944 7.252 27.8504 7.684C28.3144 8.116 28.5864 8.648 28.6664 9.28H27.4064ZM25.9544 11.356C25.4664 11.356 25.0504 11.504 24.7064 11.8C24.3704 12.088 24.2024 12.508 24.2024 13.06C24.2024 13.612 24.3584 14.052 24.6704 14.38C24.9904 14.7 25.4344 14.86 26.0024 14.86C26.5064 14.86 26.9024 14.704 27.1904 14.392C27.4864 14.08 27.6344 13.664 27.6344 13.144C27.6344 12.6 27.4904 12.168 27.2024 11.848C26.9224 11.52 26.5064 11.356 25.9544 11.356Z"></path>
</svg>
