<svg xmlns="http://www.w3.org/2000/svg" fill="none" viewBox="0 0 44 24" height="24" width="44">
<path fill-opacity="0.5" fill="#FF0000" d="M2 12C2 6.47715 6.47715 2 12 2H32C37.5228 2 42 6.47715 42 12V12C42 17.5228 37.5228 22 32 22H12C6.47715 22 2 17.5228 2 12V12Z"></path>
<path stroke-width="2" stroke-opacity="0.2" stroke="#FF0000" d="M32 1H12C5.92487 1 1 5.92487 1 12C1 18.0751 5.92487 23 12 23H32C38.0751 23 43 18.0751 43 12C43 5.92487 38.0751 1 32 1Z"></path>
<path fill="white" d="M16.5696 14.176V13.144L20.6016 7.36H22.2576V12.988H23.3736V14.176H22.2576V16H20.9136V14.176H16.5696ZM20.9736 8.752L18.1416 12.988H20.9736V8.752ZM24.3271 8.5V7.252H26.8231V16H25.4431V8.5H24.3271Z"></path>
</svg>
