<svg xmlns="http://www.w3.org/2000/svg" fill="none" viewBox="0 0 114 37" height="37" width="114">
<rect fill-opacity="0.05" fill="black" rx="5" height="37" width="114"></rect>
<path fill="black" d="M55.7308 19.822C55.8041 20.1887 55.9618 20.4673 56.2038 20.658C56.4458 20.8487 56.7721 20.944 57.1828 20.944C57.7035 20.944 58.0848 20.7387 58.3268 20.328C58.5688 19.9173 58.6898 19.217 58.6898 18.227C58.5138 18.4763 58.2645 18.6707 57.9418 18.81C57.6265 18.942 57.2818 19.008 56.9078 19.008C56.4311 19.008 55.9985 18.9127 55.6098 18.722C55.2211 18.524 54.9131 18.2343 54.6858 17.853C54.4658 17.4643 54.3558 16.995 54.3558 16.445C54.3558 15.6383 54.5905 14.9967 55.0598 14.52C55.5365 14.036 56.1891 13.794 57.0178 13.794C58.0151 13.794 58.7228 14.1277 59.1408 14.795C59.5661 15.455 59.7788 16.4707 59.7788 17.842C59.7788 18.788 59.6981 19.5617 59.5368 20.163C59.3828 20.7643 59.1115 21.219 58.7228 21.527C58.3341 21.835 57.7951 21.989 57.1058 21.989C56.3211 21.989 55.7161 21.7837 55.2908 21.373C54.8655 20.9623 54.6271 20.4453 54.5758 19.822H55.7308ZM57.1278 17.952C57.5678 17.952 57.9125 17.8163 58.1618 17.545C58.4185 17.2663 58.5468 16.8997 58.5468 16.445C58.5468 15.939 58.4111 15.5467 58.1398 15.268C57.8758 14.982 57.5128 14.839 57.0508 14.839C56.5888 14.839 56.2221 14.9857 55.9508 15.279C55.6868 15.565 55.5548 15.9427 55.5548 16.412C55.5548 16.8593 55.6831 17.2297 55.9398 17.523C56.2038 17.809 56.5998 17.952 57.1278 17.952Z"></path>
</svg>
