<svg xmlns="http://www.w3.org/2000/svg" fill="none" viewBox="0 0 480 360" height="360" width="480">
<path stroke-linejoin="round" stroke-width="1.5" stroke="#666666" d="M33.6 177.55C33.4584 177.361 33.2361 177.25 33 177.25H27C26.7639 177.25 26.5416 177.361 26.4 177.55L24.2 180.483C23.838 180.966 23.27 181.25 22.6667 181.25C21.6081 181.25 20.75 180.392 20.75 179.333V178.246C20.75 175.609 21.4818 173.023 22.8639 170.777L23.3163 170.042C23.9323 169.041 25.1258 168.555 26.2661 168.84C28.7176 169.452 31.2824 169.452 33.7339 168.84C34.8742 168.555 36.0677 169.041 36.6837 170.042L37.1361 170.777C38.5182 173.023 39.25 175.609 39.25 178.246V179.333C39.25 180.392 38.3919 181.25 37.3333 181.25C36.73 181.25 36.162 180.966 35.8 180.483L33.6 177.55Z"></path>
<path stroke-linecap="round" stroke-width="1.5" stroke="#666666" d="M29.5 172H30.5"></path>
<path stroke-linejoin="round" stroke-width="1.5" stroke="#666666" d="M30 124.25C30 124.664 30.3358 125 30.75 125H37C37.6904 125 38.25 125.56 38.25 126.25V132C38.25 132.69 37.6904 133.25 37 133.25H30H23C22.3096 133.25 21.75 132.69 21.75 132V125V118C21.75 117.31 22.3096 116.75 23 116.75H28.75C29.4404 116.75 30 117.31 30 118V124.25Z"></path>
<path fill="#666666" d="M29.5 125.75C29.9142 125.75 30.25 125.414 30.25 125C30.25 124.586 29.9142 124.25 29.5 124.25V125.75ZM30.75 125.5C30.75 125.086 30.4142 124.75 30 124.75C29.5858 124.75 29.25 125.086 29.25 125.5H30.75ZM22.5 125.75H29.5V124.25H22.5V125.75ZM29.25 125.5V132.5H30.75V125.5H29.25Z"></path>
<path stroke-width="1.5" stroke="#666666" d="M33.6161 116.081C34.1043 115.593 34.8957 115.593 35.3839 116.081L38.9194 119.616C39.4076 120.104 39.4076 120.896 38.9194 121.384L36.091 124.213C35.2123 125.091 33.7877 125.091 32.909 124.213L30.7877 122.091C29.909 121.213 29.909 119.788 30.7877 118.909L33.6161 116.081Z"></path>
<path stroke-linejoin="round" stroke-width="1.5" stroke="#666666" d="M32.75 77C32.75 76.5858 32.4142 76.25 32 76.25H28C27.5858 76.25 27.25 76.5858 27.25 77V83C27.25 83.6904 26.6904 84.25 26 84.25H23C22.3096 84.25 21.75 83.6904 21.75 83V73.3472C21.75 72.7045 22.0248 72.0925 22.5052 71.6655L28.5052 66.3322C29.3577 65.5744 30.6423 65.5744 31.4948 66.3322L37.4948 71.6655C37.9752 72.0925 38.25 72.7045 38.25 73.3472V83C38.25 83.6904 37.6904 84.25 37 84.25H34C33.3096 84.25 32.75 83.6904 32.75 83V77Z"></path>
<path fill="#0076B3" d="M31.0557 215H30C28.8954 215 28 215.895 28 217V225H27C24.2386 225 22 227.239 22 230C22 232.761 24.2386 235 27 235C29.7614 235 32 232.761 32 230V221.491C32 220.806 32.7208 220.36 33.3333 220.667C34.5585 221.279 36 220.388 36 219.019V218.236C36 217.479 35.572 216.786 34.8944 216.447L32.8446 215.422C32.2892 215.145 31.6767 215 31.0557 215Z"></path>
</svg>
