<svg xmlns="http://www.w3.org/2000/svg" fill="none" viewBox="0 0 30 30" height="30" width="30">
<mask fill="white" id="path-1-inside-1_639_431">
<path d="M8 9C8 7.89543 8.89543 7 10 7H20C21.1046 7 22 7.89543 22 9V21C22 22.1046 21.1046 23 20 23H10C8.89543 23 8 22.1046 8 21V9Z"></path>
</mask>
<path fill="url(#paint0_linear_639_431)" d="M8 9C8 7.89543 8.89543 7 10 7H20C21.1046 7 22 7.89543 22 9V21C22 22.1046 21.1046 23 20 23H10C8.89543 23 8 22.1046 8 21V9Z"></path>
<path mask="url(#path-1-inside-1_639_431)" fill-opacity="0.25" fill="white" d="M8 9C8 7.34315 9.34315 6 11 6H19C20.6569 6 22 7.34315 22 9C22 8.44772 21.1046 8 20 8H10C8.89543 8 8 8.44772 8 9ZM22 23H8H22ZM8 23V7V23ZM22 7V23V7Z"></path>
<path fill-opacity="0.5" fill="black" d="M9 11C9 10.4477 9.44772 10 10 10C10.5523 10 11 10.4477 11 11C11 11.5523 10.5523 12 10 12C9.44772 12 9 11.5523 9 11Z"></path>
<path fill-opacity="0.5" fill="black" d="M9 15C9 14.4477 9.44772 14 10 14C10.5523 14 11 14.4477 11 15C11 15.5523 10.5523 16 10 16C9.44772 16 9 15.5523 9 15Z"></path>
<path fill-opacity="0.5" fill="black" d="M9 19C9 18.4477 9.44772 18 10 18C10.5523 18 11 18.4477 11 19C11 19.5523 10.5523 20 10 20C9.44772 20 9 19.5523 9 19Z"></path>
<path fill-opacity="0.5" fill="black" d="M19 19C19 18.4477 19.4477 18 20 18C20.5523 18 21 18.4477 21 19C21 19.5523 20.5523 20 20 20C19.4477 20 19 19.5523 19 19Z"></path>
<path fill-opacity="0.5" fill="black" d="M19 15C19 14.4477 19.4477 14 20 14C20.5523 14 21 14.4477 21 15C21 15.5523 20.5523 16 20 16C19.4477 16 19 15.5523 19 15Z"></path>
<path fill-opacity="0.5" fill="black" d="M19 11C19 10.4477 19.4477 10 20 10C20.5523 10 21 10.4477 21 11C21 11.5523 20.5523 12 20 12C19.4477 12 19 11.5523 19 11Z"></path>
<path fill-opacity="0.5" fill="black" d="M13 18.4449V12.4108C13 12.0163 13.4356 11.7772 13.7684 11.989L17.9168 14.6289C18.2042 14.8117 18.2286 15.2221 17.965 15.4377L13.8166 18.8319C13.4902 19.099 13 18.8667 13 18.4449Z"></path>
<path fill="white" d="M13 17.5892V12.4108C13 12.0163 13.4356 11.7772 13.7684 11.989L17.8371 14.5782C18.1459 14.7746 18.1459 15.2254 17.8371 15.4218L13.7684 18.011C13.4356 18.2228 13 17.9837 13 17.5892Z"></path>
<defs>
<linearGradient gradientUnits="userSpaceOnUse" y2="23" x2="15" y1="7" x1="15" id="paint0_linear_639_431">
<stop stop-color="#B275F5"></stop>
<stop stop-color="#8E4BEB" offset="1"></stop>
</linearGradient>
</defs>
</svg>
