<svg xmlns="http://www.w3.org/2000/svg" fill="none" viewBox="0 0 260 160" height="160" width="260">
<path fill-opacity="0.9" fill="#1A1A1A" d="M20 30C20 24.4772 24.4772 20 30 20H230C235.523 20 240 24.4772 240 30V110C240 115.523 235.523 120 230 120H30C24.4772 120 20 115.523 20 110V30Z"></path>
<path stroke-width="2" stroke-opacity="0.2" stroke="white" d="M230 19H30C23.9249 19 19 23.9249 19 30V110C19 116.075 23.9249 121 30 121H230C236.075 121 241 116.075 241 110V30C241 23.9249 236.075 19 230 19Z"></path>
<path fill="white" d="M72.268 41.764V44.212H75.148V45.328H72.268V47.884H75.508V49H70.9V40.648H75.508V41.764H72.268ZM80.025 45.652L82.161 49H80.613L79.185 46.756L77.841 49H76.413L78.549 45.748L76.413 42.388H77.961L79.389 44.632L80.733 42.388H82.161L80.025 45.652ZM84.5493 43.36C84.7813 43.056 85.0973 42.8 85.4973 42.592C85.8973 42.384 86.3493 42.28 86.8533 42.28C87.4293 42.28 87.9533 42.424 88.4253 42.712C88.9053 42.992 89.2813 43.388 89.5533 43.9C89.8253 44.412 89.9613 45 89.9613 45.664C89.9613 46.328 89.8253 46.924 89.5533 47.452C89.2813 47.972 88.9053 48.38 88.4253 48.676C87.9533 48.964 87.4293 49.108 86.8533 49.108C86.3493 49.108 85.9013 49.008 85.5093 48.808C85.1173 48.6 84.7973 48.344 84.5493 48.04V52.144H83.1813V42.388H84.5493V43.36ZM88.5693 45.664C88.5693 45.208 88.4733 44.816 88.2812 44.488C88.0973 44.152 87.8493 43.9 87.5373 43.732C87.2333 43.556 86.9053 43.468 86.5533 43.468C86.2093 43.468 85.8813 43.556 85.5693 43.732C85.2653 43.908 85.0173 44.164 84.8253 44.5C84.6413 44.836 84.5493 45.232 84.5493 45.688C84.5493 46.144 84.6413 46.544 84.8253 46.888C85.0173 47.224 85.2653 47.48 85.5693 47.656C85.8813 47.832 86.2093 47.92 86.5533 47.92C86.9053 47.92 87.2333 47.832 87.5373 47.656C87.8493 47.472 88.0973 47.208 88.2812 46.864C88.4733 46.52 88.5693 46.12 88.5693 45.664ZM92.6821 40.12V49H91.3141V40.12H92.6821ZM97.3461 49.108C96.7221 49.108 96.1581 48.968 95.6541 48.688C95.1501 48.4 94.7541 48 94.4661 47.488C94.1781 46.968 94.0341 46.368 94.0341 45.688C94.0341 45.016 94.1821 44.42 94.4781 43.9C94.7741 43.38 95.1781 42.98 95.6901 42.7C96.2021 42.42 96.7741 42.28 97.4061 42.28C98.0381 42.28 98.6101 42.42 99.1221 42.7C99.6341 42.98 100.038 43.38 100.334 43.9C100.63 44.42 100.778 45.016 100.778 45.688C100.778 46.36 100.626 46.956 100.322 47.476C100.018 47.996 99.6021 48.4 99.0741 48.688C98.5541 48.968 97.9781 49.108 97.3461 49.108ZM97.3461 47.92C97.6981 47.92 98.0261 47.836 98.3301 47.668C98.6421 47.5 98.8941 47.248 99.0861 46.912C99.2781 46.576 99.3741 46.168 99.3741 45.688C99.3741 45.208 99.2821 44.804 99.0981 44.476C98.9141 44.14 98.6701 43.888 98.3661 43.72C98.0621 43.552 97.7341 43.468 97.3821 43.468C97.0301 43.468 96.7021 43.552 96.3981 43.72C96.1021 43.888 95.8661 44.14 95.6901 44.476C95.5141 44.804 95.4261 45.208 95.4261 45.688C95.4261 46.4 95.6061 46.952 95.9661 47.344C96.3341 47.728 96.7941 47.92 97.3461 47.92ZM103.498 43.348C103.698 43.012 103.962 42.752 104.29 42.568C104.626 42.376 105.022 42.28 105.478 42.28V43.696H105.13C104.594 43.696 104.186 43.832 103.906 44.104C103.634 44.376 103.498 44.848 103.498 45.52V49H102.13V42.388H103.498V43.348ZM112.796 45.532C112.796 45.78 112.78 46.004 112.748 46.204H107.696C107.736 46.732 107.932 47.156 108.284 47.476C108.636 47.796 109.068 47.956 109.58 47.956C110.316 47.956 110.836 47.648 111.14 47.032H112.616C112.416 47.64 112.052 48.14 111.524 48.532C111.004 48.916 110.356 49.108 109.58 49.108C108.948 49.108 108.38 48.968 107.876 48.688C107.38 48.4 106.988 48 106.7 47.488C106.42 46.968 106.28 46.368 106.28 45.688C106.28 45.008 106.416 44.412 106.688 43.9C106.968 43.38 107.356 42.98 107.852 42.7C108.356 42.42 108.932 42.28 109.58 42.28C110.204 42.28 110.76 42.416 111.248 42.688C111.736 42.96 112.116 43.344 112.388 43.84C112.66 44.328 112.796 44.892 112.796 45.532ZM111.368 45.1C111.36 44.596 111.18 44.192 110.828 43.888C110.476 43.584 110.04 43.432 109.52 43.432C109.048 43.432 108.644 43.584 108.308 43.888C107.972 44.184 107.772 44.588 107.708 45.1H111.368ZM115.51 43.348C115.71 43.012 115.974 42.752 116.302 42.568C116.638 42.376 117.034 42.28 117.49 42.28V43.696H117.142C116.606 43.696 116.198 43.832 115.918 44.104C115.646 44.376 115.51 44.848 115.51 45.52V49H114.142V42.388H115.51V43.348Z"></path>
<path fill="#BFBFBF" d="M42.068 74.355V79.228C42.068 79.8073 42.2183 80.2437 42.519 80.537C42.827 80.8303 43.2523 80.977 43.795 80.977C44.345 80.977 44.7703 80.8303 45.071 80.537C45.379 80.2437 45.533 79.8073 45.533 79.228V74.355H46.787V79.206C46.787 79.8293 46.6513 80.3573 46.38 80.79C46.1087 81.2227 45.7457 81.5453 45.291 81.758C44.8363 81.9707 44.334 82.077 43.784 82.077C43.234 82.077 42.7317 81.9707 42.277 81.758C41.8297 81.5453 41.474 81.2227 41.21 80.79C40.946 80.3573 40.814 79.8293 40.814 79.206V74.355H42.068ZM51.4777 75.84C51.9544 75.84 52.3797 75.939 52.7537 76.137C53.1351 76.335 53.4321 76.6283 53.6447 77.017C53.8574 77.4057 53.9637 77.875 53.9637 78.425V82H52.7207V78.612C52.7207 78.0693 52.5851 77.655 52.3137 77.369C52.0424 77.0757 51.6721 76.929 51.2027 76.929C50.7334 76.929 50.3594 77.0757 50.0807 77.369C49.8094 77.655 49.6737 78.0693 49.6737 78.612V82H48.4197V75.939H49.6737V76.632C49.8791 76.3827 50.1394 76.1883 50.4547 76.049C50.7774 75.9097 51.1184 75.84 51.4777 75.84ZM55.1453 78.942C55.1453 78.3333 55.2699 77.7943 55.5193 77.325C55.7759 76.8557 56.1206 76.4927 56.5533 76.236C56.9933 75.972 57.4773 75.84 58.0053 75.84C58.4819 75.84 58.8963 75.9353 59.2483 76.126C59.6076 76.3093 59.8936 76.5403 60.1063 76.819V75.939H61.3713V82H60.1063V81.098C59.8936 81.384 59.6039 81.6223 59.2373 81.813C58.8706 82.0037 58.4526 82.099 57.9833 82.099C57.4626 82.099 56.9859 81.967 56.5533 81.703C56.1206 81.4317 55.7759 81.0577 55.5193 80.581C55.2699 80.097 55.1453 79.5507 55.1453 78.942ZM60.1063 78.964C60.1063 78.546 60.0183 78.183 59.8423 77.875C59.6736 77.567 59.4499 77.3323 59.1713 77.171C58.8926 77.0097 58.5919 76.929 58.2693 76.929C57.9466 76.929 57.6459 77.0097 57.3673 77.171C57.0886 77.325 56.8613 77.556 56.6853 77.864C56.5166 78.1647 56.4323 78.524 56.4323 78.942C56.4323 79.36 56.5166 79.7267 56.6853 80.042C56.8613 80.3573 57.0886 80.5993 57.3673 80.768C57.6533 80.9293 57.9539 81.01 58.2693 81.01C58.5919 81.01 58.8926 80.9293 59.1713 80.768C59.4499 80.6067 59.6736 80.372 59.8423 80.064C60.0183 79.7487 60.1063 79.382 60.1063 78.964ZM64.2724 76.841C64.485 76.5477 64.7747 76.3093 65.1414 76.126C65.5154 75.9353 65.9297 75.84 66.3844 75.84C66.9197 75.84 67.4037 75.9683 67.8364 76.225C68.269 76.4817 68.61 76.8483 68.8594 77.325C69.1087 77.7943 69.2334 78.3333 69.2334 78.942C69.2334 79.5507 69.1087 80.097 68.8594 80.581C68.61 81.0577 68.2654 81.4317 67.8254 81.703C67.3927 81.967 66.9124 82.099 66.3844 82.099C65.915 82.099 65.497 82.0073 65.1304 81.824C64.771 81.6407 64.485 81.406 64.2724 81.12V82H63.0184V73.86H64.2724V76.841ZM67.9574 78.942C67.9574 78.524 67.8694 78.1647 67.6934 77.864C67.5247 77.556 67.2974 77.325 67.0114 77.171C66.7327 77.0097 66.432 76.929 66.1094 76.929C65.794 76.929 65.4934 77.0097 65.2074 77.171C64.9287 77.3323 64.7014 77.567 64.5254 77.875C64.3567 78.183 64.2724 78.546 64.2724 78.964C64.2724 79.382 64.3567 79.7487 64.5254 80.064C64.7014 80.372 64.9287 80.6067 65.2074 80.768C65.4934 80.9293 65.794 81.01 66.1094 81.01C66.432 81.01 66.7327 80.9293 67.0114 80.768C67.2974 80.5993 67.5247 80.3573 67.6934 80.042C67.8694 79.7267 67.9574 79.36 67.9574 78.942ZM71.7274 73.86V82H70.4734V73.86H71.7274ZM78.9288 78.821C78.9288 79.0483 78.9142 79.2537 78.8848 79.437H74.2538C74.2905 79.921 74.4702 80.3097 74.7928 80.603C75.1155 80.8963 75.5115 81.043 75.9808 81.043C76.6555 81.043 77.1322 80.7607 77.4108 80.196H78.7638C78.5805 80.7533 78.2468 81.2117 77.7628 81.571C77.2862 81.923 76.6922 82.099 75.9808 82.099C75.4015 82.099 74.8808 81.9707 74.4188 81.714C73.9642 81.45 73.6048 81.0833 73.3408 80.614C73.0842 80.1373 72.9558 79.5873 72.9558 78.964C72.9558 78.3407 73.0805 77.7943 73.3298 77.325C73.5865 76.8483 73.9422 76.4817 74.3968 76.225C74.8588 75.9683 75.3868 75.84 75.9808 75.84C76.5528 75.84 77.0625 75.9647 77.5098 76.214C77.9572 76.4633 78.3055 76.8153 78.5548 77.27C78.8042 77.7173 78.9288 78.2343 78.9288 78.821ZM77.6198 78.425C77.6125 77.963 77.4475 77.5927 77.1248 77.314C76.8022 77.0353 76.4025 76.896 75.9258 76.896C75.4932 76.896 75.1228 77.0353 74.8148 77.314C74.5068 77.5853 74.3235 77.9557 74.2648 78.425H77.6198ZM84.4833 76.962V80.317C84.4833 80.5443 84.5346 80.7093 84.6373 80.812C84.7473 80.9073 84.9306 80.955 85.1873 80.955H85.9573V82H84.9673C84.4026 82 83.97 81.868 83.6693 81.604C83.3686 81.34 83.2183 80.911 83.2183 80.317V76.962H82.5033V75.939H83.2183V74.432H84.4833V75.939H85.9573V76.962H84.4833ZM89.7421 82.099C89.1701 82.099 88.6531 81.9707 88.1911 81.714C87.7291 81.45 87.3661 81.0833 87.1021 80.614C86.8381 80.1373 86.7061 79.5873 86.7061 78.964C86.7061 78.348 86.8418 77.8017 87.1131 77.325C87.3844 76.8483 87.7548 76.4817 88.2241 76.225C88.6934 75.9683 89.2178 75.84 89.7971 75.84C90.3764 75.84 90.9008 75.9683 91.3701 76.225C91.8394 76.4817 92.2098 76.8483 92.4811 77.325C92.7524 77.8017 92.8881 78.348 92.8881 78.964C92.8881 79.58 92.7488 80.1263 92.4701 80.603C92.1914 81.0797 91.8101 81.45 91.3261 81.714C90.8494 81.9707 90.3214 82.099 89.7421 82.099ZM89.7421 81.01C90.0648 81.01 90.3654 80.933 90.6441 80.779C90.9301 80.625 91.1611 80.394 91.3371 80.086C91.5131 79.778 91.6011 79.404 91.6011 78.964C91.6011 78.524 91.5168 78.1537 91.3481 77.853C91.1794 77.545 90.9558 77.314 90.6771 77.16C90.3984 77.006 90.0978 76.929 89.7751 76.929C89.4524 76.929 89.1518 77.006 88.8731 77.16C88.6018 77.314 88.3854 77.545 88.2241 77.853C88.0628 78.1537 87.9821 78.524 87.9821 78.964C87.9821 79.6167 88.1471 80.1227 88.4771 80.482C88.8144 80.834 89.2361 81.01 89.7421 81.01ZM99.6142 82.099C99.0422 82.099 98.5252 81.9707 98.0632 81.714C97.6012 81.45 97.2382 81.0833 96.9742 80.614C96.7102 80.1373 96.5782 79.5873 96.5782 78.964C96.5782 78.348 96.7138 77.8017 96.9852 77.325C97.2565 76.8483 97.6268 76.4817 98.0962 76.225C98.5655 75.9683 99.0898 75.84 99.6692 75.84C100.248 75.84 100.773 75.9683 101.242 76.225C101.711 76.4817 102.082 76.8483 102.353 77.325C102.624 77.8017 102.76 78.348 102.76 78.964C102.76 79.58 102.621 80.1263 102.342 80.603C102.063 81.0797 101.682 81.45 101.198 81.714C100.721 81.9707 100.193 82.099 99.6142 82.099ZM99.6142 81.01C99.9368 81.01 100.237 80.933 100.516 80.779C100.802 80.625 101.033 80.394 101.209 80.086C101.385 79.778 101.473 79.404 101.473 78.964C101.473 78.524 101.389 78.1537 101.22 77.853C101.051 77.545 100.828 77.314 100.549 77.16C100.27 77.006 99.9698 76.929 99.6472 76.929C99.3245 76.929 99.0238 77.006 98.7452 77.16C98.4738 77.314 98.2575 77.545 98.0962 77.853C97.9348 78.1537 97.8542 78.524 97.8542 78.964C97.8542 79.6167 98.0192 80.1227 98.3492 80.482C98.6865 80.834 99.1082 81.01 99.6142 81.01ZM105.254 76.83C105.466 76.5513 105.756 76.3167 106.123 76.126C106.489 75.9353 106.904 75.84 107.366 75.84C107.894 75.84 108.374 75.972 108.807 76.236C109.247 76.4927 109.591 76.8557 109.841 77.325C110.09 77.7943 110.215 78.3333 110.215 78.942C110.215 79.5507 110.09 80.097 109.841 80.581C109.591 81.0577 109.247 81.4317 108.807 81.703C108.374 81.967 107.894 82.099 107.366 82.099C106.904 82.099 106.493 82.0073 106.134 81.824C105.774 81.6333 105.481 81.3987 105.254 81.12V84.882H104V75.939H105.254V76.83ZM108.939 78.942C108.939 78.524 108.851 78.1647 108.675 77.864C108.506 77.556 108.279 77.325 107.993 77.171C107.714 77.0097 107.413 76.929 107.091 76.929C106.775 76.929 106.475 77.0097 106.189 77.171C105.91 77.3323 105.683 77.567 105.507 77.875C105.338 78.183 105.254 78.546 105.254 78.964C105.254 79.382 105.338 79.7487 105.507 80.064C105.683 80.372 105.91 80.6067 106.189 80.768C106.475 80.9293 106.775 81.01 107.091 81.01C107.413 81.01 107.714 80.9293 107.993 80.768C108.279 80.5993 108.506 80.3573 108.675 80.042C108.851 79.7267 108.939 79.36 108.939 78.942ZM117.01 78.821C117.01 79.0483 116.995 79.2537 116.966 79.437H112.335C112.372 79.921 112.551 80.3097 112.874 80.603C113.197 80.8963 113.593 81.043 114.062 81.043C114.737 81.043 115.213 80.7607 115.492 80.196H116.845C116.662 80.7533 116.328 81.2117 115.844 81.571C115.367 81.923 114.773 82.099 114.062 82.099C113.483 82.099 112.962 81.9707 112.5 81.714C112.045 81.45 111.686 81.0833 111.422 80.614C111.165 80.1373 111.037 79.5873 111.037 78.964C111.037 78.3407 111.162 77.7943 111.411 77.325C111.668 76.8483 112.023 76.4817 112.478 76.225C112.94 75.9683 113.468 75.84 114.062 75.84C114.634 75.84 115.144 75.9647 115.591 76.214C116.038 76.4633 116.387 76.8153 116.636 77.27C116.885 77.7173 117.01 78.2343 117.01 78.821ZM115.701 78.425C115.694 77.963 115.529 77.5927 115.206 77.314C114.883 77.0353 114.484 76.896 114.007 76.896C113.574 76.896 113.204 77.0353 112.896 77.314C112.588 77.5853 112.405 77.9557 112.346 78.425H115.701ZM121.302 75.84C121.779 75.84 122.204 75.939 122.578 76.137C122.959 76.335 123.256 76.6283 123.469 77.017C123.682 77.4057 123.788 77.875 123.788 78.425V82H122.545V78.612C122.545 78.0693 122.409 77.655 122.138 77.369C121.867 77.0757 121.496 76.929 121.027 76.929C120.558 76.929 120.184 77.0757 119.905 77.369C119.634 77.655 119.498 78.0693 119.498 78.612V82H118.244V75.939H119.498V76.632C119.703 76.3827 119.964 76.1883 120.279 76.049C120.602 75.9097 120.943 75.84 121.302 75.84ZM129.708 76.962V80.317C129.708 80.5443 129.759 80.7093 129.862 80.812C129.972 80.9073 130.155 80.955 130.412 80.955H131.182V82H130.192C129.627 82 129.195 81.868 128.894 81.604C128.593 81.34 128.443 80.911 128.443 80.317V76.962H127.728V75.939H128.443V74.432H129.708V75.939H131.182V76.962H129.708ZM135.473 75.84C135.935 75.84 136.345 75.939 136.705 76.137C137.071 76.335 137.357 76.6283 137.563 77.017C137.775 77.4057 137.882 77.875 137.882 78.425V82H136.639V78.612C136.639 78.0693 136.503 77.655 136.232 77.369C135.96 77.0757 135.59 76.929 135.121 76.929C134.651 76.929 134.277 77.0757 133.999 77.369C133.727 77.655 133.592 78.0693 133.592 78.612V82H132.338V73.86H133.592V76.643C133.804 76.3863 134.072 76.1883 134.395 76.049C134.725 75.9097 135.084 75.84 135.473 75.84ZM140.119 75.136C139.892 75.136 139.701 75.059 139.547 74.905C139.393 74.751 139.316 74.5603 139.316 74.333C139.316 74.1057 139.393 73.915 139.547 73.761C139.701 73.607 139.892 73.53 140.119 73.53C140.339 73.53 140.526 73.607 140.68 73.761C140.834 73.915 140.911 74.1057 140.911 74.333C140.911 74.5603 140.834 74.751 140.68 74.905C140.526 75.059 140.339 75.136 140.119 75.136ZM140.735 75.939V82H139.481V75.939H140.735ZM144.582 82.099C144.105 82.099 143.676 82.0147 143.295 81.846C142.921 81.67 142.624 81.4353 142.404 81.142C142.184 80.8413 142.066 80.5077 142.052 80.141H143.35C143.372 80.3977 143.493 80.614 143.713 80.79C143.94 80.9587 144.222 81.043 144.56 81.043C144.912 81.043 145.183 80.977 145.374 80.845C145.572 80.7057 145.671 80.5297 145.671 80.317C145.671 80.0897 145.561 79.921 145.341 79.811C145.128 79.701 144.787 79.58 144.318 79.448C143.863 79.3233 143.493 79.2023 143.207 79.085C142.921 78.9677 142.671 78.788 142.459 78.546C142.253 78.304 142.151 77.985 142.151 77.589C142.151 77.2663 142.246 76.973 142.437 76.709C142.627 76.4377 142.899 76.225 143.251 76.071C143.61 75.917 144.021 75.84 144.483 75.84C145.172 75.84 145.726 76.016 146.144 76.368C146.569 76.7127 146.796 77.1857 146.826 77.787H145.572C145.55 77.5157 145.44 77.2993 145.242 77.138C145.044 76.9767 144.776 76.896 144.439 76.896C144.109 76.896 143.856 76.9583 143.68 77.083C143.504 77.2077 143.416 77.3727 143.416 77.578C143.416 77.7393 143.474 77.875 143.592 77.985C143.709 78.095 143.852 78.183 144.021 78.249C144.189 78.3077 144.439 78.3847 144.769 78.48C145.209 78.5973 145.568 78.7183 145.847 78.843C146.133 78.9603 146.378 79.1363 146.584 79.371C146.789 79.6057 146.895 79.9173 146.903 80.306C146.903 80.6507 146.807 80.9587 146.617 81.23C146.426 81.5013 146.155 81.714 145.803 81.868C145.458 82.022 145.051 82.099 144.582 82.099ZM153.656 76.962H152.534V82H151.269V76.962H150.554V75.939H151.269V75.51C151.269 74.8133 151.452 74.3073 151.819 73.992C152.193 73.6693 152.776 73.508 153.568 73.508V74.553C153.187 74.553 152.919 74.6263 152.765 74.773C152.611 74.9123 152.534 75.158 152.534 75.51V75.939H153.656V76.962ZM155.405 75.136C155.178 75.136 154.987 75.059 154.833 74.905C154.679 74.751 154.602 74.5603 154.602 74.333C154.602 74.1057 154.679 73.915 154.833 73.761C154.987 73.607 155.178 73.53 155.405 73.53C155.625 73.53 155.812 73.607 155.966 73.761C156.12 73.915 156.197 74.1057 156.197 74.333C156.197 74.5603 156.12 74.751 155.966 74.905C155.812 75.059 155.625 75.136 155.405 75.136ZM156.021 75.939V82H154.767V75.939H156.021ZM158.922 73.86V82H157.668V73.86H158.922ZM166.123 78.821C166.123 79.0483 166.108 79.2537 166.079 79.437H161.448C161.485 79.921 161.664 80.3097 161.987 80.603C162.31 80.8963 162.706 81.043 163.175 81.043C163.85 81.043 164.326 80.7607 164.605 80.196H165.958C165.775 80.7533 165.441 81.2117 164.957 81.571C164.48 81.923 163.886 82.099 163.175 82.099C162.596 82.099 162.075 81.9707 161.613 81.714C161.158 81.45 160.799 81.0833 160.535 80.614C160.278 80.1373 160.15 79.5873 160.15 78.964C160.15 78.3407 160.275 77.7943 160.524 77.325C160.781 76.8483 161.136 76.4817 161.591 76.225C162.053 75.9683 162.581 75.84 163.175 75.84C163.747 75.84 164.257 75.9647 164.704 76.214C165.151 76.4633 165.5 76.8153 165.749 77.27C165.998 77.7173 166.123 78.2343 166.123 78.821ZM164.814 78.425C164.807 77.963 164.642 77.5927 164.319 77.314C163.996 77.0353 163.597 76.896 163.12 76.896C162.687 76.896 162.317 77.0353 162.009 77.314C161.701 77.5853 161.518 77.9557 161.459 78.425H164.814ZM168.732 80.493L167.401 83.529H166.587L167.368 80.493H168.732ZM174.148 76.962V80.317C174.148 80.5443 174.2 80.7093 174.302 80.812C174.412 80.9073 174.596 80.955 174.852 80.955H175.622V82H174.632C174.068 82 173.635 81.868 173.334 81.604C173.034 81.34 172.883 80.911 172.883 80.317V76.962H172.168V75.939H172.883V74.432H174.148V75.939H175.622V76.962H174.148ZM179.913 75.84C180.375 75.84 180.786 75.939 181.145 76.137C181.512 76.335 181.798 76.6283 182.003 77.017C182.216 77.4057 182.322 77.875 182.322 78.425V82H181.079V78.612C181.079 78.0693 180.943 77.655 180.672 77.369C180.401 77.0757 180.03 76.929 179.561 76.929C179.092 76.929 178.718 77.0757 178.439 77.369C178.168 77.655 178.032 78.0693 178.032 78.612V82H176.778V73.86H178.032V76.643C178.245 76.3863 178.512 76.1883 178.835 76.049C179.165 75.9097 179.524 75.84 179.913 75.84ZM189.477 78.821C189.477 79.0483 189.462 79.2537 189.433 79.437H184.802C184.838 79.921 185.018 80.3097 185.341 80.603C185.663 80.8963 186.059 81.043 186.529 81.043C187.203 81.043 187.68 80.7607 187.959 80.196H189.312C189.128 80.7533 188.795 81.2117 188.311 81.571C187.834 81.923 187.24 82.099 186.529 82.099C185.949 82.099 185.429 81.9707 184.967 81.714C184.512 81.45 184.153 81.0833 183.889 80.614C183.632 80.1373 183.504 79.5873 183.504 78.964C183.504 78.3407 183.628 77.7943 183.878 77.325C184.134 76.8483 184.49 76.4817 184.945 76.225C185.407 75.9683 185.935 75.84 186.529 75.84C187.101 75.84 187.61 75.9647 188.058 76.214C188.505 76.4633 188.853 76.8153 189.103 77.27C189.352 77.7173 189.477 78.2343 189.477 78.821ZM188.168 78.425C188.16 77.963 187.995 77.5927 187.673 77.314C187.35 77.0353 186.95 76.896 186.474 76.896C186.041 76.896 185.671 77.0353 185.363 77.314C185.055 77.5853 184.871 77.9557 184.813 78.425H188.168ZM43.883 91.84C44.3597 91.84 44.785 91.939 45.159 92.137C45.5403 92.335 45.8373 92.6283 46.05 93.017C46.2627 93.4057 46.369 93.875 46.369 94.425V98H45.126V94.612C45.126 94.0693 44.9903 93.655 44.719 93.369C44.4477 93.0757 44.0773 92.929 43.608 92.929C43.1387 92.929 42.7647 93.0757 42.486 93.369C42.2147 93.655 42.079 94.0693 42.079 94.612V98H40.825V91.939H42.079V92.632C42.2843 92.3827 42.5447 92.1883 42.86 92.049C43.1827 91.9097 43.5237 91.84 43.883 91.84ZM53.5236 94.821C53.5236 95.0483 53.5089 95.2537 53.4796 95.437H48.8486C48.8852 95.921 49.0649 96.3097 49.3876 96.603C49.7102 96.8963 50.1062 97.043 50.5756 97.043C51.2502 97.043 51.7269 96.7607 52.0056 96.196H53.3586C53.1752 96.7533 52.8416 97.2117 52.3576 97.571C51.8809 97.923 51.2869 98.099 50.5756 98.099C49.9962 98.099 49.4756 97.9707 49.0136 97.714C48.5589 97.45 48.1996 97.0833 47.9356 96.614C47.6789 96.1373 47.5506 95.5873 47.5506 94.964C47.5506 94.3407 47.6752 93.7943 47.9246 93.325C48.1812 92.8483 48.5369 92.4817 48.9916 92.225C49.4536 91.9683 49.9816 91.84 50.5756 91.84C51.1476 91.84 51.6572 91.9647 52.1046 92.214C52.5519 92.4633 52.9002 92.8153 53.1496 93.27C53.3989 93.7173 53.5236 94.2343 53.5236 94.821ZM52.2146 94.425C52.2072 93.963 52.0422 93.5927 51.7196 93.314C51.3969 93.0353 50.9972 92.896 50.5206 92.896C50.0879 92.896 49.7176 93.0353 49.4096 93.314C49.1016 93.5853 48.9182 93.9557 48.8596 94.425H52.2146ZM60.3126 94.821C60.3126 95.0483 60.298 95.2537 60.2686 95.437H55.6376C55.6743 95.921 55.854 96.3097 56.1766 96.603C56.4993 96.8963 56.8953 97.043 57.3646 97.043C58.0393 97.043 58.516 96.7607 58.7946 96.196H60.1476C59.9643 96.7533 59.6306 97.2117 59.1466 97.571C58.67 97.923 58.076 98.099 57.3646 98.099C56.7853 98.099 56.2646 97.9707 55.8026 97.714C55.348 97.45 54.9886 97.0833 54.7246 96.614C54.468 96.1373 54.3396 95.5873 54.3396 94.964C54.3396 94.3407 54.4643 93.7943 54.7136 93.325C54.9703 92.8483 55.326 92.4817 55.7806 92.225C56.2426 91.9683 56.7706 91.84 57.3646 91.84C57.9366 91.84 58.4463 91.9647 58.8936 92.214C59.341 92.4633 59.6893 92.8153 59.9386 93.27C60.188 93.7173 60.3126 94.2343 60.3126 94.821ZM59.0036 94.425C58.9963 93.963 58.8313 93.5927 58.5086 93.314C58.186 93.0353 57.7863 92.896 57.3096 92.896C56.877 92.896 56.5066 93.0353 56.1986 93.314C55.8906 93.5853 55.7073 93.9557 55.6486 94.425H59.0036ZM61.1287 94.942C61.1287 94.3333 61.2533 93.7943 61.5027 93.325C61.7593 92.8557 62.104 92.4927 62.5367 92.236C62.9767 91.972 63.4643 91.84 63.9997 91.84C64.3957 91.84 64.7843 91.928 65.1657 92.104C65.5543 92.2727 65.8623 92.5 66.0897 92.786V89.86H67.3547V98H66.0897V97.087C65.8843 97.3803 65.5983 97.6223 65.2317 97.813C64.8723 98.0037 64.458 98.099 63.9887 98.099C63.4607 98.099 62.9767 97.967 62.5367 97.703C62.104 97.4317 61.7593 97.0577 61.5027 96.581C61.2533 96.097 61.1287 95.5507 61.1287 94.942ZM66.0897 94.964C66.0897 94.546 66.0017 94.183 65.8257 93.875C65.657 93.567 65.4333 93.3323 65.1547 93.171C64.876 93.0097 64.5753 92.929 64.2527 92.929C63.93 92.929 63.6293 93.0097 63.3507 93.171C63.072 93.325 62.8447 93.556 62.6687 93.864C62.5 94.1647 62.4157 94.524 62.4157 94.942C62.4157 95.36 62.5 95.7267 62.6687 96.042C62.8447 96.3573 63.072 96.5993 63.3507 96.768C63.6367 96.9293 63.9373 97.01 64.2527 97.01C64.5753 97.01 64.876 96.9293 65.1547 96.768C65.4333 96.6067 65.657 96.372 65.8257 96.064C66.0017 95.7487 66.0897 95.382 66.0897 94.964ZM74.5568 94.821C74.5568 95.0483 74.5421 95.2537 74.5128 95.437H69.8818C69.9184 95.921 70.0981 96.3097 70.4208 96.603C70.7434 96.8963 71.1394 97.043 71.6088 97.043C72.2834 97.043 72.7601 96.7607 73.0388 96.196H74.3918C74.2084 96.7533 73.8748 97.2117 73.3908 97.571C72.9141 97.923 72.3201 98.099 71.6088 98.099C71.0294 98.099 70.5088 97.9707 70.0468 97.714C69.5921 97.45 69.2328 97.0833 68.9688 96.614C68.7121 96.1373 68.5838 95.5873 68.5838 94.964C68.5838 94.3407 68.7084 93.7943 68.9578 93.325C69.2144 92.8483 69.5701 92.4817 70.0248 92.225C70.4868 91.9683 71.0148 91.84 71.6088 91.84C72.1808 91.84 72.6904 91.9647 73.1378 92.214C73.5851 92.4633 73.9334 92.8153 74.1828 93.27C74.4321 93.7173 74.5568 94.2343 74.5568 94.821ZM73.2478 94.425C73.2404 93.963 73.0754 93.5927 72.7528 93.314C72.4301 93.0353 72.0304 92.896 71.5538 92.896C71.1211 92.896 70.7508 93.0353 70.4428 93.314C70.1348 93.5853 69.9514 93.9557 69.8928 94.425H73.2478ZM75.3728 94.942C75.3728 94.3333 75.4975 93.7943 75.7468 93.325C76.0035 92.8557 76.3482 92.4927 76.7808 92.236C77.2208 91.972 77.7085 91.84 78.2438 91.84C78.6398 91.84 79.0285 91.928 79.4098 92.104C79.7985 92.2727 80.1065 92.5 80.3338 92.786V89.86H81.5988V98H80.3338V97.087C80.1285 97.3803 79.8425 97.6223 79.4758 97.813C79.1165 98.0037 78.7022 98.099 78.2328 98.099C77.7048 98.099 77.2208 97.967 76.7808 97.703C76.3482 97.4317 76.0035 97.0577 75.7468 96.581C75.4975 96.097 75.3728 95.5507 75.3728 94.942ZM80.3338 94.964C80.3338 94.546 80.2458 94.183 80.0698 93.875C79.9012 93.567 79.6775 93.3323 79.3988 93.171C79.1202 93.0097 78.8195 92.929 78.4968 92.929C78.1742 92.929 77.8735 93.0097 77.5948 93.171C77.3162 93.325 77.0888 93.556 76.9128 93.864C76.7442 94.1647 76.6598 94.524 76.6598 94.942C76.6598 95.36 76.7442 95.7267 76.9128 96.042C77.0888 96.3573 77.3162 96.5993 77.5948 96.768C77.8808 96.9293 78.1815 97.01 78.4968 97.01C78.8195 97.01 79.1202 96.9293 79.3988 96.768C79.6775 96.6067 79.9012 96.372 80.0698 96.064C80.2458 95.7487 80.3338 95.382 80.3338 94.964ZM85.6853 94.942C85.6853 94.3333 85.81 93.7943 86.0593 93.325C86.316 92.8557 86.6607 92.4927 87.0933 92.236C87.5333 91.972 88.0173 91.84 88.5453 91.84C89.022 91.84 89.4363 91.9353 89.7883 92.126C90.1477 92.3093 90.4337 92.5403 90.6463 92.819V91.939H91.9113V98H90.6463V97.098C90.4337 97.384 90.144 97.6223 89.7773 97.813C89.4107 98.0037 88.9927 98.099 88.5233 98.099C88.0027 98.099 87.526 97.967 87.0933 97.703C86.6607 97.4317 86.316 97.0577 86.0593 96.581C85.81 96.097 85.6853 95.5507 85.6853 94.942ZM90.6463 94.964C90.6463 94.546 90.5583 94.183 90.3823 93.875C90.2137 93.567 89.99 93.3323 89.7113 93.171C89.4327 93.0097 89.132 92.929 88.8093 92.929C88.4867 92.929 88.186 93.0097 87.9073 93.171C87.6287 93.325 87.4013 93.556 87.2253 93.864C87.0567 94.1647 86.9723 94.524 86.9723 94.942C86.9723 95.36 87.0567 95.7267 87.2253 96.042C87.4013 96.3573 87.6287 96.5993 87.9073 96.768C88.1933 96.9293 88.494 97.01 88.8093 97.01C89.132 97.01 89.4327 96.9293 89.7113 96.768C89.99 96.6067 90.2137 96.372 90.3823 96.064C90.5583 95.7487 90.6463 95.382 90.6463 94.964ZM94.8124 92.83C95.0251 92.5513 95.3147 92.3167 95.6814 92.126C96.0481 91.9353 96.4624 91.84 96.9244 91.84C97.4524 91.84 97.9327 91.972 98.3654 92.236C98.8054 92.4927 99.1501 92.8557 99.3994 93.325C99.6487 93.7943 99.7734 94.3333 99.7734 94.942C99.7734 95.5507 99.6487 96.097 99.3994 96.581C99.1501 97.0577 98.8054 97.4317 98.3654 97.703C97.9327 97.967 97.4524 98.099 96.9244 98.099C96.4624 98.099 96.0517 98.0073 95.6924 97.824C95.3331 97.6333 95.0397 97.3987 94.8124 97.12V100.882H93.5584V91.939H94.8124V92.83ZM98.4974 94.942C98.4974 94.524 98.4094 94.1647 98.2334 93.864C98.0647 93.556 97.8374 93.325 97.5514 93.171C97.2727 93.0097 96.9721 92.929 96.6494 92.929C96.3341 92.929 96.0334 93.0097 95.7474 93.171C95.4687 93.3323 95.2414 93.567 95.0654 93.875C94.8967 94.183 94.8124 94.546 94.8124 94.964C94.8124 95.382 94.8967 95.7487 95.0654 96.064C95.2414 96.372 95.4687 96.6067 95.7474 96.768C96.0334 96.9293 96.3341 97.01 96.6494 97.01C96.9721 97.01 97.2727 96.9293 97.5514 96.768C97.8374 96.5993 98.0647 96.3573 98.2334 96.042C98.4094 95.7267 98.4974 95.36 98.4974 94.942ZM102.267 92.83C102.48 92.5513 102.77 92.3167 103.136 92.126C103.503 91.9353 103.917 91.84 104.379 91.84C104.907 91.84 105.388 91.972 105.82 92.236C106.26 92.4927 106.605 92.8557 106.854 93.325C107.104 93.7943 107.228 94.3333 107.228 94.942C107.228 95.5507 107.104 96.097 106.854 96.581C106.605 97.0577 106.26 97.4317 105.82 97.703C105.388 97.967 104.907 98.099 104.379 98.099C103.917 98.099 103.507 98.0073 103.147 97.824C102.788 97.6333 102.495 97.3987 102.267 97.12V100.882H101.013V91.939H102.267V92.83ZM105.952 94.942C105.952 94.524 105.864 94.1647 105.688 93.864C105.52 93.556 105.292 93.325 105.006 93.171C104.728 93.0097 104.427 92.929 104.104 92.929C103.789 92.929 103.488 93.0097 103.202 93.171C102.924 93.3323 102.696 93.567 102.52 93.875C102.352 94.183 102.267 94.546 102.267 94.964C102.267 95.382 102.352 95.7487 102.52 96.064C102.696 96.372 102.924 96.6067 103.202 96.768C103.488 96.9293 103.789 97.01 104.104 97.01C104.427 97.01 104.728 96.9293 105.006 96.768C105.292 96.5993 105.52 96.3573 105.688 96.042C105.864 95.7267 105.952 95.36 105.952 94.942ZM111.964 91.136C111.737 91.136 111.546 91.059 111.392 90.905C111.238 90.751 111.161 90.5603 111.161 90.333C111.161 90.1057 111.238 89.915 111.392 89.761C111.546 89.607 111.737 89.53 111.964 89.53C112.184 89.53 112.371 89.607 112.525 89.761C112.679 89.915 112.756 90.1057 112.756 90.333C112.756 90.5603 112.679 90.751 112.525 90.905C112.371 91.059 112.184 91.136 111.964 91.136ZM112.58 91.939V98H111.326V91.939H112.58ZM116.426 98.099C115.95 98.099 115.521 98.0147 115.139 97.846C114.765 97.67 114.468 97.4353 114.248 97.142C114.028 96.8413 113.911 96.5077 113.896 96.141H115.194C115.216 96.3977 115.337 96.614 115.557 96.79C115.785 96.9587 116.067 97.043 116.404 97.043C116.756 97.043 117.028 96.977 117.218 96.845C117.416 96.7057 117.515 96.5297 117.515 96.317C117.515 96.0897 117.405 95.921 117.185 95.811C116.973 95.701 116.632 95.58 116.162 95.448C115.708 95.3233 115.337 95.2023 115.051 95.085C114.765 94.9677 114.516 94.788 114.303 94.546C114.098 94.304 113.995 93.985 113.995 93.589C113.995 93.2663 114.091 92.973 114.281 92.709C114.472 92.4377 114.743 92.225 115.095 92.071C115.455 91.917 115.865 91.84 116.327 91.84C117.017 91.84 117.57 92.016 117.988 92.368C118.414 92.7127 118.641 93.1857 118.67 93.787H117.416C117.394 93.5157 117.284 93.2993 117.086 93.138C116.888 92.9767 116.621 92.896 116.283 92.896C115.953 92.896 115.7 92.9583 115.524 93.083C115.348 93.2077 115.26 93.3727 115.26 93.578C115.26 93.7393 115.319 93.875 115.436 93.985C115.554 94.095 115.697 94.183 115.865 94.249C116.034 94.3077 116.283 94.3847 116.613 94.48C117.053 94.5973 117.413 94.7183 117.691 94.843C117.977 94.9603 118.223 95.1363 118.428 95.371C118.634 95.6057 118.74 95.9173 118.747 96.306C118.747 96.6507 118.652 96.9587 118.461 97.23C118.271 97.5013 117.999 97.714 117.647 97.868C117.303 98.022 116.896 98.099 116.426 98.099ZM130.297 91.84C130.773 91.84 131.199 91.939 131.573 92.137C131.954 92.335 132.251 92.6283 132.464 93.017C132.684 93.4057 132.794 93.875 132.794 94.425V98H131.551V94.612C131.551 94.0693 131.415 93.655 131.144 93.369C130.872 93.0757 130.502 92.929 130.033 92.929C129.563 92.929 129.189 93.0757 128.911 93.369C128.639 93.655 128.504 94.0693 128.504 94.612V98H127.261V94.612C127.261 94.0693 127.125 93.655 126.854 93.369C126.582 93.0757 126.212 92.929 125.743 92.929C125.273 92.929 124.899 93.0757 124.621 93.369C124.349 93.655 124.214 94.0693 124.214 94.612V98H122.96V91.939H124.214V92.632C124.419 92.3827 124.679 92.1883 124.995 92.049C125.31 91.9097 125.647 91.84 126.007 91.84C126.491 91.84 126.923 91.9427 127.305 92.148C127.686 92.3533 127.979 92.6503 128.185 93.039C128.368 92.6723 128.654 92.3827 129.043 92.17C129.431 91.95 129.849 91.84 130.297 91.84ZM135.027 91.136C134.8 91.136 134.609 91.059 134.455 90.905C134.301 90.751 134.224 90.5603 134.224 90.333C134.224 90.1057 134.301 89.915 134.455 89.761C134.609 89.607 134.8 89.53 135.027 89.53C135.247 89.53 135.434 89.607 135.588 89.761C135.742 89.915 135.819 90.1057 135.819 90.333C135.819 90.5603 135.742 90.751 135.588 90.905C135.434 91.059 135.247 91.136 135.027 91.136ZM135.643 91.939V98H134.389V91.939H135.643ZM139.49 98.099C139.013 98.099 138.584 98.0147 138.203 97.846C137.829 97.67 137.532 97.4353 137.312 97.142C137.092 96.8413 136.975 96.5077 136.96 96.141H138.258C138.28 96.3977 138.401 96.614 138.621 96.79C138.848 96.9587 139.131 97.043 139.468 97.043C139.82 97.043 140.091 96.977 140.282 96.845C140.48 96.7057 140.579 96.5297 140.579 96.317C140.579 96.0897 140.469 95.921 140.249 95.811C140.036 95.701 139.695 95.58 139.226 95.448C138.771 95.3233 138.401 95.2023 138.115 95.085C137.829 94.9677 137.58 94.788 137.367 94.546C137.162 94.304 137.059 93.985 137.059 93.589C137.059 93.2663 137.154 92.973 137.345 92.709C137.536 92.4377 137.807 92.225 138.159 92.071C138.518 91.917 138.929 91.84 139.391 91.84C140.08 91.84 140.634 92.016 141.052 92.368C141.477 92.7127 141.705 93.1857 141.734 93.787H140.48C140.458 93.5157 140.348 93.2993 140.15 93.138C139.952 92.9767 139.684 92.896 139.347 92.896C139.017 92.896 138.764 92.9583 138.588 93.083C138.412 93.2077 138.324 93.3727 138.324 93.578C138.324 93.7393 138.383 93.875 138.5 93.985C138.617 94.095 138.76 94.183 138.929 94.249C139.098 94.3077 139.347 94.3847 139.677 94.48C140.117 94.5973 140.476 94.7183 140.755 94.843C141.041 94.9603 141.287 95.1363 141.492 95.371C141.697 95.6057 141.804 95.9173 141.811 96.306C141.811 96.6507 141.716 96.9587 141.525 97.23C141.334 97.5013 141.063 97.714 140.711 97.868C140.366 98.022 139.959 98.099 139.49 98.099ZM145.366 98.099C144.889 98.099 144.46 98.0147 144.079 97.846C143.705 97.67 143.408 97.4353 143.188 97.142C142.968 96.8413 142.85 96.5077 142.836 96.141H144.134C144.156 96.3977 144.277 96.614 144.497 96.79C144.724 96.9587 145.006 97.043 145.344 97.043C145.696 97.043 145.967 96.977 146.158 96.845C146.356 96.7057 146.455 96.5297 146.455 96.317C146.455 96.0897 146.345 95.921 146.125 95.811C145.912 95.701 145.571 95.58 145.102 95.448C144.647 95.3233 144.277 95.2023 143.991 95.085C143.705 94.9677 143.455 94.788 143.243 94.546C143.037 94.304 142.935 93.985 142.935 93.589C142.935 93.2663 143.03 92.973 143.221 92.709C143.411 92.4377 143.683 92.225 144.035 92.071C144.394 91.917 144.805 91.84 145.267 91.84C145.956 91.84 146.51 92.016 146.928 92.368C147.353 92.7127 147.58 93.1857 147.61 93.787H146.356C146.334 93.5157 146.224 93.2993 146.026 93.138C145.828 92.9767 145.56 92.896 145.223 92.896C144.893 92.896 144.64 92.9583 144.464 93.083C144.288 93.2077 144.2 93.3727 144.2 93.578C144.2 93.7393 144.258 93.875 144.376 93.985C144.493 94.095 144.636 94.183 144.805 94.249C144.973 94.3077 145.223 94.3847 145.553 94.48C145.993 94.5973 146.352 94.7183 146.631 94.843C146.917 94.9603 147.162 95.1363 147.368 95.371C147.573 95.6057 147.679 95.9173 147.687 96.306C147.687 96.6507 147.591 96.9587 147.401 97.23C147.21 97.5013 146.939 97.714 146.587 97.868C146.242 98.022 145.835 98.099 145.366 98.099ZM149.68 91.136C149.452 91.136 149.262 91.059 149.108 90.905C148.954 90.751 148.877 90.5603 148.877 90.333C148.877 90.1057 148.954 89.915 149.108 89.761C149.262 89.607 149.452 89.53 149.68 89.53C149.9 89.53 150.087 89.607 150.241 89.761C150.395 89.915 150.472 90.1057 150.472 90.333C150.472 90.5603 150.395 90.751 150.241 90.905C150.087 91.059 149.9 91.136 149.68 91.136ZM150.296 91.939V98H149.042V91.939H150.296ZM155 91.84C155.477 91.84 155.902 91.939 156.276 92.137C156.658 92.335 156.955 92.6283 157.167 93.017C157.38 93.4057 157.486 93.875 157.486 94.425V98H156.243V94.612C156.243 94.0693 156.108 93.655 155.836 93.369C155.565 93.0757 155.195 92.929 154.725 92.929C154.256 92.929 153.882 93.0757 153.603 93.369C153.332 93.655 153.196 94.0693 153.196 94.612V98H151.942V91.939H153.196V92.632C153.402 92.3827 153.662 92.1883 153.977 92.049C154.3 91.9097 154.641 91.84 155 91.84ZM161.528 91.84C161.997 91.84 162.411 91.9353 162.771 92.126C163.137 92.3093 163.423 92.5403 163.629 92.819V91.939H164.894V98.099C164.894 98.6563 164.776 99.1513 164.542 99.584C164.307 100.024 163.966 100.369 163.519 100.618C163.079 100.867 162.551 100.992 161.935 100.992C161.113 100.992 160.431 100.798 159.889 100.409C159.346 100.028 159.038 99.507 158.965 98.847H160.208C160.303 99.1623 160.505 99.4153 160.813 99.606C161.128 99.804 161.502 99.903 161.935 99.903C162.441 99.903 162.848 99.749 163.156 99.441C163.471 99.133 163.629 98.6857 163.629 98.099V97.087C163.416 97.373 163.126 97.615 162.76 97.813C162.4 98.0037 161.99 98.099 161.528 98.099C161 98.099 160.516 97.967 160.076 97.703C159.643 97.4317 159.298 97.0577 159.042 96.581C158.792 96.097 158.668 95.5507 158.668 94.942C158.668 94.3333 158.792 93.7943 159.042 93.325C159.298 92.8557 159.643 92.4927 160.076 92.236C160.516 91.972 161 91.84 161.528 91.84ZM163.629 94.964C163.629 94.546 163.541 94.183 163.365 93.875C163.196 93.567 162.972 93.3323 162.694 93.171C162.415 93.0097 162.114 92.929 161.792 92.929C161.469 92.929 161.168 93.0097 160.89 93.171C160.611 93.325 160.384 93.556 160.208 93.864C160.039 94.1647 159.955 94.524 159.955 94.942C159.955 95.36 160.039 95.7267 160.208 96.042C160.384 96.3573 160.611 96.5993 160.89 96.768C161.176 96.9293 161.476 97.01 161.792 97.01C162.114 97.01 162.415 96.9293 162.694 96.768C162.972 96.6067 163.196 96.372 163.365 96.064C163.541 95.7487 163.629 95.382 163.629 94.964ZM167.047 98.077C166.819 98.077 166.629 98 166.475 97.846C166.321 97.692 166.244 97.5013 166.244 97.274C166.244 97.0467 166.321 96.856 166.475 96.702C166.629 96.548 166.819 96.471 167.047 96.471C167.267 96.471 167.454 96.548 167.608 96.702C167.762 96.856 167.839 97.0467 167.839 97.274C167.839 97.5013 167.762 97.692 167.608 97.846C167.454 98 167.267 98.077 167.047 98.077Z"></path>
<path stroke-linejoin="round" stroke-linecap="round" stroke-width="1.5" stroke="#BFBFBF" d="M211.464 41.4642L218.536 48.5353M218.536 41.4642L211.464 48.5353"></path>
<rect fill="url(#paint0_linear_1030_5)" rx="1.2" height="11.4" width="14.4" y="40.2002" x="37.7998"></rect>
<path fill="url(#paint1_linear_1030_5)" d="M37.7998 39.5999C37.7998 38.9372 38.3371 38.3999 38.9998 38.3999H43.1576C43.5588 38.3999 43.9335 38.6004 44.156 38.9343L44.9998 40.1999L44.156 41.4655C43.9335 41.7994 43.5588 41.9999 43.1576 41.9999H37.7998V39.5999Z"></path>
<path fill="url(#paint2_linear_1030_5)" d="M40.2002 49.8C40.2002 48.8059 41.0061 48 42.0002 48H48.0002C48.9943 48 49.8002 48.8059 49.8002 49.8V51.6H40.2002V49.8Z"></path>
<rect fill="#0C6BB5" rx="0.6" height="1.2" width="4.8" y="49.2002" x="42.6001"></rect>
<defs>
<linearGradient gradientUnits="userSpaceOnUse" y2="40.2002" x2="47.3998" y1="51.6002" x1="47.3998" id="paint0_linear_1030_5">
<stop stop-color="#F7B70A"></stop>
<stop stop-color="#FFD04B" offset="1"></stop>
</linearGradient>
<linearGradient gradientUnits="userSpaceOnUse" y2="41.9999" x2="41.3998" y1="38.3999" x1="41.3998" id="paint1_linear_1030_5">
<stop stop-color="#E09F00"></stop>
<stop stop-color="#BA8400" offset="1"></stop>
</linearGradient>
<linearGradient gradientUnits="userSpaceOnUse" y2="50.25" x2="40.2002" y1="50.25" x1="49.8002" id="paint2_linear_1030_5">
<stop stop-color="#046CBD"></stop>
<stop stop-color="#108AD7" offset="1"></stop>
</linearGradient>
</defs>
</svg>
