<svg xmlns="http://www.w3.org/2000/svg" fill="none" viewBox="0 0 122 142" height="142" width="122">
<path fill-opacity="0.9" fill="#CCCCCC" d="M1 11C1 5.47716 5.47715 1 11 1H111C116.523 1 121 5.47715 121 11V131C121 136.523 116.523 141 111 141H11C5.47715 141 1 136.523 1 131V11Z"></path>
<path stroke-opacity="0.2" stroke="white" d="M111 0.5H11C5.20101 0.5 0.5 5.20101 0.5 11V131C0.5 136.799 5.20101 141.5 11 141.5H111C116.799 141.5 121.5 136.799 121.5 131V11C121.5 5.20101 116.799 0.5 111 0.5Z"></path>
<path fill="black" d="M18.106 100H16.852L13.079 94.291V100H11.825V92.344H13.079L16.852 98.042V92.344H18.106V100ZM19.3347 96.942C19.3347 96.3333 19.4594 95.7943 19.7087 95.325C19.9654 94.8557 20.3101 94.4927 20.7427 94.236C21.1827 93.972 21.6667 93.84 22.1947 93.84C22.6714 93.84 23.0857 93.9353 23.4377 94.126C23.7971 94.3093 24.0831 94.5403 24.2957 94.819V93.939H25.5607V100H24.2957V99.098C24.0831 99.384 23.7934 99.6223 23.4267 99.813C23.0601 100.004 22.6421 100.099 22.1727 100.099C21.6521 100.099 21.1754 99.967 20.7427 99.703C20.3101 99.4317 19.9654 99.0577 19.7087 98.581C19.4594 98.097 19.3347 97.5507 19.3347 96.942ZM24.2957 96.964C24.2957 96.546 24.2077 96.183 24.0317 95.875C23.8631 95.567 23.6394 95.3323 23.3607 95.171C23.0821 95.0097 22.7814 94.929 22.4587 94.929C22.1361 94.929 21.8354 95.0097 21.5567 95.171C21.2781 95.325 21.0507 95.556 20.8747 95.864C20.7061 96.1647 20.6217 96.524 20.6217 96.942C20.6217 97.36 20.7061 97.7267 20.8747 98.042C21.0507 98.3573 21.2781 98.5993 21.5567 98.768C21.8427 98.9293 22.1434 99.01 22.4587 99.01C22.7814 99.01 23.0821 98.9293 23.3607 98.768C23.6394 98.6067 23.8631 98.372 24.0317 98.064C24.2077 97.7487 24.2957 97.382 24.2957 96.964ZM32.6638 93.939L28.9458 102.849H27.6478L28.8798 99.901L26.4928 93.939H27.8898L29.5948 98.559L31.3658 93.939H32.6638ZM33.1922 96.942C33.1922 96.3333 33.3168 95.7943 33.5662 95.325C33.8228 94.8557 34.1675 94.4927 34.6002 94.236C35.0402 93.972 35.5242 93.84 36.0522 93.84C36.5288 93.84 36.9432 93.9353 37.2952 94.126C37.6545 94.3093 37.9405 94.5403 38.1532 94.819V93.939H39.4182V100H38.1532V99.098C37.9405 99.384 37.6508 99.6223 37.2842 99.813C36.9175 100.004 36.4995 100.099 36.0302 100.099C35.5095 100.099 35.0328 99.967 34.6002 99.703C34.1675 99.4317 33.8228 99.0577 33.5662 98.581C33.3168 98.097 33.1922 97.5507 33.1922 96.942ZM38.1532 96.964C38.1532 96.546 38.0652 96.183 37.8892 95.875C37.7205 95.567 37.4968 95.3323 37.2182 95.171C36.9395 95.0097 36.6388 94.929 36.3162 94.929C35.9935 94.929 35.6928 95.0097 35.4142 95.171C35.1355 95.325 34.9082 95.556 34.7322 95.864C34.5635 96.1647 34.4792 96.524 34.4792 96.942C34.4792 97.36 34.5635 97.7267 34.7322 98.042C34.9082 98.3573 35.1355 98.5993 35.4142 98.768C35.7002 98.9293 36.0008 99.01 36.3162 99.01C36.6388 99.01 36.9395 98.9293 37.2182 98.768C37.4968 98.6067 37.7205 98.372 37.8892 98.064C38.0652 97.7487 38.1532 97.382 38.1532 96.964Z"></path>
<path fill="#695657" d="M1 11C1 5.47715 5.47715 1 11 1H111C116.523 1 121 5.47715 121 11V81H1V11Z"></path>
<path fill-opacity="0.5" fill="white" d="M1 11C1 5.47715 5.47715 1 11 1H111C116.523 1 121 5.47715 121 11V81H1V11Z"></path>
<path fill-opacity="0.05" fill="black" d="M61 116C61 113.239 63.2386 111 66 111H106C108.761 111 111 113.239 111 116V126C111 128.761 108.761 131 106 131H66C63.2386 131 61 128.761 61 126V116Z"></path>
<path fill="black" d="M80.0838 117.745V124H79.0578V119.716L77.1498 124H76.4388L74.5218 119.716V124H73.4958V117.745H74.6028L76.7988 122.65L78.9858 117.745H80.0838ZM85.9233 119.041V124H84.8973V123.415C84.7353 123.619 84.5223 123.781 84.2583 123.901C84.0003 124.015 83.7243 124.072 83.4303 124.072C83.0403 124.072 82.6893 123.991 82.3773 123.829C82.0713 123.667 81.8283 123.427 81.6483 123.109C81.4743 122.791 81.3873 122.407 81.3873 121.957V119.041H82.4043V121.804C82.4043 122.248 82.5153 122.59 82.7373 122.83C82.9593 123.064 83.2623 123.181 83.6463 123.181C84.0303 123.181 84.3333 123.064 84.5553 122.83C84.7833 122.59 84.8973 122.248 84.8973 121.804V119.041H85.9233ZM89.0771 124.081C88.6871 124.081 88.3361 124.012 88.0241 123.874C87.7181 123.73 87.4751 123.538 87.2951 123.298C87.1151 123.052 87.0191 122.779 87.0071 122.479H88.0691C88.0871 122.689 88.1861 122.866 88.3661 123.01C88.5521 123.148 88.7831 123.217 89.0591 123.217C89.3471 123.217 89.5691 123.163 89.7251 123.055C89.8871 122.941 89.9681 122.797 89.9681 122.623C89.9681 122.437 89.8781 122.299 89.6981 122.209C89.5241 122.119 89.2451 122.02 88.8611 121.912C88.4891 121.81 88.1861 121.711 87.9521 121.615C87.7181 121.519 87.5141 121.372 87.3401 121.174C87.1721 120.976 87.0881 120.715 87.0881 120.391C87.0881 120.127 87.1661 119.887 87.3221 119.671C87.4781 119.449 87.7001 119.275 87.9881 119.149C88.2821 119.023 88.6181 118.96 88.9961 118.96C89.5601 118.96 90.0131 119.104 90.3551 119.392C90.7031 119.674 90.8891 120.061 90.9131 120.553H89.8871C89.8691 120.331 89.7791 120.154 89.6171 120.022C89.4551 119.89 89.2361 119.824 88.9601 119.824C88.6901 119.824 88.4831 119.875 88.3391 119.977C88.1951 120.079 88.1231 120.214 88.1231 120.382C88.1231 120.514 88.1711 120.625 88.2671 120.715C88.3631 120.805 88.4801 120.877 88.6181 120.931C88.7561 120.979 88.9601 121.042 89.2301 121.12C89.5901 121.216 89.8841 121.315 90.1121 121.417C90.3461 121.513 90.5471 121.657 90.7151 121.849C90.8831 122.041 90.9701 122.296 90.9761 122.614C90.9761 122.896 90.8981 123.148 90.7421 123.37C90.5861 123.592 90.3641 123.766 90.0761 123.892C89.7941 124.018 89.4611 124.081 89.0771 124.081ZM92.6067 118.384C92.4207 118.384 92.2647 118.321 92.1387 118.195C92.0127 118.069 91.9497 117.913 91.9497 117.727C91.9497 117.541 92.0127 117.385 92.1387 117.259C92.2647 117.133 92.4207 117.07 92.6067 117.07C92.7867 117.07 92.9397 117.133 93.0657 117.259C93.1917 117.385 93.2547 117.541 93.2547 117.727C93.2547 117.913 93.1917 118.069 93.0657 118.195C92.9397 118.321 92.7867 118.384 92.6067 118.384ZM93.1107 119.041V124H92.0847V119.041H93.1107ZM94.1157 121.516C94.1157 121.006 94.2177 120.559 94.4217 120.175C94.6317 119.785 94.9197 119.485 95.2857 119.275C95.6517 119.065 96.0717 118.96 96.5457 118.96C97.1457 118.96 97.6407 119.104 98.0307 119.392C98.4267 119.674 98.6937 120.079 98.8317 120.607H97.7247C97.6347 120.361 97.4907 120.169 97.2927 120.031C97.0947 119.893 96.8457 119.824 96.5457 119.824C96.1257 119.824 95.7897 119.974 95.5377 120.274C95.2917 120.568 95.1687 120.982 95.1687 121.516C95.1687 122.05 95.2917 122.467 95.5377 122.767C95.7897 123.067 96.1257 123.217 96.5457 123.217C97.1397 123.217 97.5327 122.956 97.7247 122.434H98.8317C98.6877 122.938 98.4177 123.34 98.0217 123.64C97.6257 123.934 97.1337 124.081 96.5457 124.081C96.0717 124.081 95.6517 123.976 95.2857 123.766C94.9197 123.55 94.6317 123.25 94.4217 122.866C94.2177 122.476 94.1157 122.026 94.1157 121.516Z"></path>
<circle stroke-width="3.2" stroke="url(#paint1_linear_1051_164)" fill="url(#paint0_linear_1051_164)" r="17.6" cy="40.9998" cx="60.9998"></circle>
<path fill="url(#paint2_linear_1051_164)" d="M56.2002 48.2704V33.7288C56.2002 32.4236 57.6789 31.6675 58.737 32.4317L68.8042 39.7025C69.6885 40.3412 69.6885 41.658 68.8042 42.2967L58.737 49.5675C57.6789 50.3317 56.2002 49.5756 56.2002 48.2704Z"></path>
<path stroke-width="1.6" stroke-opacity="0.2" stroke="black" d="M55.4002 33.7288V48.2704C55.4002 50.2282 57.6182 51.3623 59.2054 50.216L69.2726 42.9452C70.5991 41.9873 70.599 40.012 69.2726 39.054L59.2054 31.7832C57.6182 30.6369 55.4002 31.771 55.4002 33.7288Z"></path>
<defs>
<linearGradient gradientUnits="userSpaceOnUse" y2="60.1998" x2="72.1998" y1="21.7998" x1="49.7998" id="paint0_linear_1051_164">
<stop stop-color="#4D4D4D" offset="0.139158"></stop>
<stop stop-color="#242424" offset="0.856518"></stop>
</linearGradient>
<linearGradient gradientUnits="userSpaceOnUse" y2="60.1998" x2="72.1998" y1="21.7998" x1="49.7998" id="paint1_linear_1051_164">
<stop stop-color="#FE924A" offset="0.140625"></stop>
<stop stop-color="#9264BA" offset="0.864583"></stop>
</linearGradient>
<linearGradient gradientUnits="userSpaceOnUse" y2="50.5996" x2="56.2002" y1="31.3996" x1="56.2002" id="paint2_linear_1051_164">
<stop stop-color="white"></stop>
<stop stop-color="#E3E3E3" offset="1"></stop>
</linearGradient>
</defs>
</svg>
