<svg version="1.1" xmlns="http://www.w3.org/2000/svg" xmlns:xlink="http://www.w3.org/1999/xlink" width="40" height="20" viewBox="0,0,40,20"><g transform="translate(-220,-167)"><g data-paper-data="{&quot;isPaintingLayer&quot;:true}" fill-rule="nonzero" stroke="none" stroke-width="1" stroke-linecap="butt" stroke-linejoin="miter" stroke-miterlimit="10" stroke-dasharray="" stroke-dashoffset="0" style="mix-blend-mode: normal"><path d="M220,187v-20h40v20z" fill="none"></path><path d="M242.424,177.624c0.08,0.4 0.252,0.704 0.516,0.912c0.264,0.208 0.62,0.312 1.068,0.312c0.568,0 0.984,-0.224 1.248,-0.672c0.264,-0.448 0.396,-1.212 0.396,-2.292c-0.192,0.272 -0.464,0.484 -0.816,0.636c-0.344,0.144 -0.72,0.216 -1.128,0.216c-0.52,0 -0.992,-0.104 -1.416,-0.312c-0.424,-0.216 -0.76,-0.532 -1.008,-0.948c-0.24,-0.424 -0.36,-0.936 -0.36,-1.536c0,-0.88 0.256,-1.58 0.768,-2.1c0.52,-0.528 1.232,-0.792 2.136,-0.792c1.088,0 1.86,0.364 2.316,1.092c0.464,0.72 0.696,1.828 0.696,3.324c0,1.032 -0.088,1.876 -0.264,2.532c-0.168,0.656 -0.464,1.152 -0.888,1.488c-0.424,0.336 -1.012,0.504 -1.764,0.504c-0.856,0 -1.516,-0.224 -1.98,-0.672c-0.464,-0.448 -0.724,-1.012 -0.78,-1.692zM243.948,175.584c0.48,0 0.856,-0.148 1.128,-0.444c0.28,-0.304 0.42,-0.704 0.42,-1.2c0,-0.552 -0.148,-0.98 -0.444,-1.284c-0.288,-0.312 -0.684,-0.468 -1.188,-0.468c-0.504,0 -0.904,0.16 -1.2,0.48c-0.288,0.312 -0.432,0.724 -0.432,1.236c0,0.488 0.14,0.892 0.42,1.212c0.288,0.312 0.72,0.468 1.296,0.468z" fill="#ff0000"></path></g></g></svg>