<svg version="1.1" xmlns="http://www.w3.org/2000/svg" xmlns:xlink="http://www.w3.org/1999/xlink" width="40" height="20" viewBox="0,0,40,20"><g transform="translate(-220,-167)"><g data-paper-data="{&quot;isPaintingLayer&quot;:true}" fill-rule="nonzero" stroke="none" stroke-width="1" stroke-linecap="butt" stroke-linejoin="miter" stroke-miterlimit="10" stroke-dasharray="" stroke-dashoffset="0" style="mix-blend-mode: normal"><path d="M220,187v-20h40v20z" fill="none"></path><path d="M243.144,171.54c0.816,0 1.468,0.224 1.956,0.672c0.496,0.448 0.744,1.06 0.744,1.836c0,0.808 -0.256,1.416 -0.768,1.824c-0.512,0.408 -1.192,0.612 -2.04,0.612l-0.048,0.948h-1.188l-0.06,-1.884h0.396c0.776,0 1.368,-0.104 1.776,-0.312c0.416,-0.208 0.624,-0.604 0.624,-1.188c0,-0.424 -0.124,-0.756 -0.372,-0.996c-0.24,-0.24 -0.576,-0.36 -1.008,-0.36c-0.432,0 -0.772,0.116 -1.02,0.348c-0.248,0.232 -0.372,0.556 -0.372,0.972h-1.284c0,-0.48 0.108,-0.908 0.324,-1.284c0.216,-0.376 0.524,-0.668 0.924,-0.876c0.408,-0.208 0.88,-0.312 1.416,-0.312zM242.376,180.084c-0.248,0 -0.456,-0.084 -0.624,-0.252c-0.168,-0.168 -0.252,-0.376 -0.252,-0.624c0,-0.248 0.084,-0.456 0.252,-0.624c0.168,-0.168 0.376,-0.252 0.624,-0.252c0.24,0 0.444,0.084 0.612,0.252c0.168,0.168 0.252,0.376 0.252,0.624c0,0.248 -0.084,0.456 -0.252,0.624c-0.168,0.168 -0.372,0.252 -0.612,0.252z" fill="#ff0000"></path></g></g></svg>