<svg xmlns="http://www.w3.org/2000/svg" fill="none" viewBox="0 0 480 360" height="360" width="480">
<path fill-opacity="0.9" fill="#E6E6E6" d="M40 110C40 104.477 44.4772 100 50 100H430C435.523 100 440 104.477 440 110V250C440 255.523 435.523 260 430 260H50C44.4771 260 40 255.523 40 250V110Z"></path>
<path stroke-width="2" stroke-opacity="0.2" stroke="black" d="M430 99H50C43.9249 99 39 103.925 39 110V250C39 256.075 43.9249 261 50 261H430C436.075 261 441 256.075 441 250V110C441 103.925 436.075 99 430 99Z"></path>
<path fill="url(#paint0_linear_318_2)" d="M80 148C80 143.582 83.5817 140 88 140H119V179H80V148Z"></path>
<path fill="url(#paint1_linear_318_2)" d="M80 181H119L119 220H88C83.5817 220 80 216.418 80 212L80 181Z"></path>
<path fill="url(#paint2_linear_318_2)" d="M121 181H160V212C160 216.418 156.418 220 152 220H121L121 181Z"></path>
<path fill="url(#paint3_linear_318_2)" d="M121 140H152C156.418 140 160 143.582 160 148V179H121V140Z"></path>
<path fill="black" d="M238.076 146.476L230.666 173H224.396L219.418 154.114L214.212 173L207.98 173.038L200.836 146.476H206.536L211.21 167.072L216.606 146.476H222.534L227.626 166.958L232.338 146.476H238.076ZM244.248 149.44C243.31 149.44 242.525 149.149 241.892 148.566C241.284 147.958 240.98 147.211 240.98 146.324C240.98 145.437 241.284 144.703 241.892 144.12C242.525 143.512 243.31 143.208 244.248 143.208C245.185 143.208 245.958 143.512 246.566 144.12C247.199 144.703 247.516 145.437 247.516 146.324C247.516 147.211 247.199 147.958 246.566 148.566C245.958 149.149 245.185 149.44 244.248 149.44ZM246.87 151.948V173H241.55V151.948H246.87ZM263.792 151.644C266.3 151.644 268.327 152.442 269.872 154.038C271.417 155.609 272.19 157.813 272.19 160.65V173H266.87V161.372C266.87 159.7 266.452 158.421 265.616 157.534C264.78 156.622 263.64 156.166 262.196 156.166C260.727 156.166 259.561 156.622 258.7 157.534C257.864 158.421 257.446 159.7 257.446 161.372V173H252.126V151.948H257.446V154.57C258.155 153.658 259.055 152.949 260.144 152.442C261.259 151.91 262.475 151.644 263.792 151.644ZM275.881 162.398C275.881 160.27 276.299 158.383 277.135 156.736C277.996 155.089 279.162 153.823 280.631 152.936C282.1 152.049 283.734 151.606 285.533 151.606C286.901 151.606 288.206 151.91 289.447 152.518C290.688 153.101 291.676 153.886 292.411 154.874V144.88H297.807V173H292.411V169.884C291.752 170.923 290.828 171.759 289.637 172.392C288.446 173.025 287.066 173.342 285.495 173.342C283.722 173.342 282.1 172.886 280.631 171.974C279.162 171.062 277.996 169.783 277.135 168.136C276.299 166.464 275.881 164.551 275.881 162.398ZM292.449 162.474C292.449 161.182 292.196 160.08 291.689 159.168C291.182 158.231 290.498 157.521 289.637 157.04C288.776 156.533 287.851 156.28 286.863 156.28C285.875 156.28 284.963 156.521 284.127 157.002C283.291 157.483 282.607 158.193 282.075 159.13C281.568 160.042 281.315 161.131 281.315 162.398C281.315 163.665 281.568 164.779 282.075 165.742C282.607 166.679 283.291 167.401 284.127 167.908C284.988 168.415 285.9 168.668 286.863 168.668C287.851 168.668 288.776 168.427 289.637 167.946C290.498 167.439 291.182 166.73 291.689 165.818C292.196 164.881 292.449 163.766 292.449 162.474ZM312.351 173.342C310.324 173.342 308.5 172.899 306.879 172.012C305.258 171.1 303.978 169.821 303.041 168.174C302.129 166.527 301.673 164.627 301.673 162.474C301.673 160.321 302.142 158.421 303.079 156.774C304.042 155.127 305.346 153.861 306.993 152.974C308.64 152.062 310.476 151.606 312.503 151.606C314.53 151.606 316.366 152.062 318.013 152.974C319.66 153.861 320.952 155.127 321.889 156.774C322.852 158.421 323.333 160.321 323.333 162.474C323.333 164.627 322.839 166.527 321.851 168.174C320.888 169.821 319.571 171.1 317.899 172.012C316.252 172.899 314.403 173.342 312.351 173.342ZM312.351 168.706C313.314 168.706 314.213 168.478 315.049 168.022C315.91 167.541 316.594 166.831 317.101 165.894C317.608 164.957 317.861 163.817 317.861 162.474C317.861 160.473 317.329 158.94 316.265 157.876C315.226 156.787 313.947 156.242 312.427 156.242C310.907 156.242 309.628 156.787 308.589 157.876C307.576 158.94 307.069 160.473 307.069 162.474C307.069 164.475 307.563 166.021 308.551 167.11C309.564 168.174 310.831 168.706 312.351 168.706ZM356.419 151.948L350.263 173H344.525L340.687 158.294L336.849 173H331.073L324.879 151.948H330.275L333.999 167.984L338.027 151.948H343.651L347.603 167.946L351.327 151.948H356.419ZM367.354 173.342C365.631 173.342 364.086 173.038 362.718 172.43C361.35 171.797 360.26 170.948 359.45 169.884C358.664 168.82 358.234 167.642 358.158 166.35H363.516C363.617 167.161 364.01 167.832 364.694 168.364C365.403 168.896 366.277 169.162 367.316 169.162C368.329 169.162 369.114 168.959 369.672 168.554C370.254 168.149 370.546 167.629 370.546 166.996C370.546 166.312 370.191 165.805 369.482 165.476C368.798 165.121 367.696 164.741 366.176 164.336C364.605 163.956 363.313 163.563 362.3 163.158C361.312 162.753 360.45 162.132 359.716 161.296C359.006 160.46 358.652 159.333 358.652 157.914C358.652 156.749 358.981 155.685 359.64 154.722C360.324 153.759 361.286 152.999 362.528 152.442C363.794 151.885 365.276 151.606 366.974 151.606C369.482 151.606 371.483 152.239 372.978 153.506C374.472 154.747 375.296 156.432 375.448 158.56H370.356C370.28 157.724 369.925 157.065 369.292 156.584C368.684 156.077 367.86 155.824 366.822 155.824C365.859 155.824 365.112 156.001 364.58 156.356C364.073 156.711 363.82 157.205 363.82 157.838C363.82 158.547 364.174 159.092 364.884 159.472C365.593 159.827 366.695 160.194 368.19 160.574C369.71 160.954 370.964 161.347 371.952 161.752C372.94 162.157 373.788 162.791 374.498 163.652C375.232 164.488 375.612 165.603 375.638 166.996C375.638 168.212 375.296 169.301 374.612 170.264C373.953 171.227 372.99 171.987 371.724 172.544C370.482 173.076 369.026 173.342 367.354 173.342ZM387.806 150.2V145.298H396.964V173H391.492V150.2H387.806ZM401.573 150.2V145.298H410.731V173H405.259V150.2H401.573Z"></path>
<path fill="black" d="M208.68 210.196C207.317 210.196 206.085 209.963 204.984 209.496C203.901 209.029 203.043 208.357 202.408 207.48C201.773 206.603 201.447 205.567 201.428 204.372H205.628C205.684 205.175 205.964 205.809 206.468 206.276C206.991 206.743 207.7 206.976 208.596 206.976C209.511 206.976 210.229 206.761 210.752 206.332C211.275 205.884 211.536 205.305 211.536 204.596C211.536 204.017 211.359 203.541 211.004 203.168C210.649 202.795 210.201 202.505 209.66 202.3C209.137 202.076 208.409 201.833 207.476 201.572C206.207 201.199 205.171 200.835 204.368 200.48C203.584 200.107 202.903 199.556 202.324 198.828C201.764 198.081 201.484 197.092 201.484 195.86C201.484 194.703 201.773 193.695 202.352 192.836C202.931 191.977 203.743 191.324 204.788 190.876C205.833 190.409 207.028 190.176 208.372 190.176C210.388 190.176 212.021 190.671 213.272 191.66C214.541 192.631 215.241 193.993 215.372 195.748H211.06C211.023 195.076 210.733 194.525 210.192 194.096C209.669 193.648 208.969 193.424 208.092 193.424C207.327 193.424 206.711 193.62 206.244 194.012C205.796 194.404 205.572 194.973 205.572 195.72C205.572 196.243 205.74 196.681 206.076 197.036C206.431 197.372 206.86 197.652 207.364 197.876C207.887 198.081 208.615 198.324 209.548 198.604C210.817 198.977 211.853 199.351 212.656 199.724C213.459 200.097 214.149 200.657 214.728 201.404C215.307 202.151 215.596 203.131 215.596 204.344C215.596 205.389 215.325 206.36 214.784 207.256C214.243 208.152 213.449 208.871 212.404 209.412C211.359 209.935 210.117 210.196 208.68 210.196ZM217.986 202.244C217.986 200.639 218.313 199.239 218.967 198.044C219.62 196.831 220.525 195.897 221.683 195.244C222.84 194.572 224.165 194.236 225.659 194.236C227.581 194.236 229.168 194.721 230.419 195.692C231.688 196.644 232.537 197.988 232.967 199.724H228.739C228.515 199.052 228.132 198.529 227.591 198.156C227.068 197.764 226.415 197.568 225.631 197.568C224.511 197.568 223.624 197.979 222.971 198.8C222.317 199.603 221.991 200.751 221.991 202.244C221.991 203.719 222.317 204.867 222.971 205.688C223.624 206.491 224.511 206.892 225.631 206.892C227.217 206.892 228.253 206.183 228.739 204.764H232.967C232.537 206.444 231.688 207.779 230.419 208.768C229.149 209.757 227.563 210.252 225.659 210.252C224.165 210.252 222.84 209.925 221.683 209.272C220.525 208.6 219.62 207.667 218.967 206.472C218.313 205.259 217.986 203.849 217.986 202.244ZM239.758 196.896C240.262 196.075 240.916 195.431 241.718 194.964C242.54 194.497 243.473 194.264 244.518 194.264V198.38H243.482C242.25 198.38 241.317 198.669 240.682 199.248C240.066 199.827 239.758 200.835 239.758 202.272V210H235.838V194.488H239.758V196.896ZM246.151 202.188C246.151 200.62 246.459 199.229 247.075 198.016C247.709 196.803 248.559 195.869 249.623 195.216C250.705 194.563 251.909 194.236 253.235 194.236C254.392 194.236 255.4 194.469 256.259 194.936C257.136 195.403 257.836 195.991 258.359 196.7V194.488H262.307V210H258.359V207.732C257.855 208.46 257.155 209.067 256.259 209.552C255.381 210.019 254.364 210.252 253.207 210.252C251.9 210.252 250.705 209.916 249.623 209.244C248.559 208.572 247.709 207.629 247.075 206.416C246.459 205.184 246.151 203.775 246.151 202.188ZM258.359 202.244C258.359 201.292 258.172 200.48 257.799 199.808C257.425 199.117 256.921 198.595 256.287 198.24C255.652 197.867 254.971 197.68 254.243 197.68C253.515 197.68 252.843 197.857 252.227 198.212C251.611 198.567 251.107 199.089 250.715 199.78C250.341 200.452 250.155 201.255 250.155 202.188C250.155 203.121 250.341 203.943 250.715 204.652C251.107 205.343 251.611 205.875 252.227 206.248C252.861 206.621 253.533 206.808 254.243 206.808C254.971 206.808 255.652 206.631 256.287 206.276C256.921 205.903 257.425 205.38 257.799 204.708C258.172 204.017 258.359 203.196 258.359 202.244ZM270.699 197.708V205.212C270.699 205.735 270.82 206.117 271.063 206.36C271.324 206.584 271.754 206.696 272.351 206.696H274.171V210H271.707C268.403 210 266.751 208.395 266.751 205.184V197.708H264.903V194.488H266.751V190.652H270.699V194.488H274.171V197.708H270.699ZM275.983 202.244C275.983 200.639 276.309 199.239 276.963 198.044C277.616 196.831 278.521 195.897 279.679 195.244C280.836 194.572 282.161 194.236 283.655 194.236C285.577 194.236 287.164 194.721 288.415 195.692C289.684 196.644 290.533 197.988 290.963 199.724H286.735C286.511 199.052 286.128 198.529 285.587 198.156C285.064 197.764 284.411 197.568 283.627 197.568C282.507 197.568 281.62 197.979 280.967 198.8C280.313 199.603 279.987 200.751 279.987 202.244C279.987 203.719 280.313 204.867 280.967 205.688C281.62 206.491 282.507 206.892 283.627 206.892C285.213 206.892 286.249 206.183 286.735 204.764H290.963C290.533 206.444 289.684 207.779 288.415 208.768C287.145 209.757 285.559 210.252 283.655 210.252C282.161 210.252 280.836 209.925 279.679 209.272C278.521 208.6 277.616 207.667 276.963 206.472C276.309 205.259 275.983 203.849 275.983 202.244ZM302.57 194.264C303.746 194.264 304.792 194.525 305.706 195.048C306.621 195.552 307.33 196.308 307.834 197.316C308.357 198.305 308.618 199.5 308.618 200.9V210H304.698V201.432C304.698 200.2 304.39 199.257 303.774 198.604C303.158 197.932 302.318 197.596 301.254 197.596C300.172 197.596 299.313 197.932 298.678 198.604C298.062 199.257 297.754 200.2 297.754 201.432V210H293.834V189.28H297.754V196.42C298.258 195.748 298.93 195.225 299.77 194.852C300.61 194.46 301.544 194.264 302.57 194.264ZM322.938 193.62V198.52H329.518V201.628H322.938V206.808H330.358V210H319.018V190.428H330.358V193.62H322.938ZM332.912 202.188C332.912 200.62 333.22 199.229 333.836 198.016C334.471 196.803 335.33 195.869 336.412 195.216C337.495 194.563 338.699 194.236 340.024 194.236C341.032 194.236 341.994 194.46 342.908 194.908C343.823 195.337 344.551 195.916 345.092 196.644V189.28H349.068V210H345.092V207.704C344.607 208.469 343.926 209.085 343.048 209.552C342.171 210.019 341.154 210.252 339.996 210.252C338.69 210.252 337.495 209.916 336.412 209.244C335.33 208.572 334.471 207.629 333.836 206.416C333.22 205.184 332.912 203.775 332.912 202.188ZM345.12 202.244C345.12 201.292 344.934 200.48 344.56 199.808C344.187 199.117 343.683 198.595 343.048 198.24C342.414 197.867 341.732 197.68 341.004 197.68C340.276 197.68 339.604 197.857 338.988 198.212C338.372 198.567 337.868 199.089 337.476 199.78C337.103 200.452 336.916 201.255 336.916 202.188C336.916 203.121 337.103 203.943 337.476 204.652C337.868 205.343 338.372 205.875 338.988 206.248C339.623 206.621 340.295 206.808 341.004 206.808C341.732 206.808 342.414 206.631 343.048 206.276C343.683 205.903 344.187 205.38 344.56 204.708C344.934 204.017 345.12 203.196 345.12 202.244ZM354.885 192.64C354.194 192.64 353.616 192.425 353.149 191.996C352.701 191.548 352.477 190.997 352.477 190.344C352.477 189.691 352.701 189.149 353.149 188.72C353.616 188.272 354.194 188.048 354.885 188.048C355.576 188.048 356.145 188.272 356.593 188.72C357.06 189.149 357.293 189.691 357.293 190.344C357.293 190.997 357.06 191.548 356.593 191.996C356.145 192.425 355.576 192.64 354.885 192.64ZM356.817 194.488V210H352.897V194.488H356.817ZM365.254 197.708V205.212C365.254 205.735 365.375 206.117 365.618 206.36C365.879 206.584 366.308 206.696 366.906 206.696H368.726V210H366.262C362.958 210 361.306 208.395 361.306 205.184V197.708H359.458V194.488H361.306V190.652H365.254V194.488H368.726V197.708H365.254ZM373.533 192.64C372.843 192.64 372.264 192.425 371.797 191.996C371.349 191.548 371.125 190.997 371.125 190.344C371.125 189.691 371.349 189.149 371.797 188.72C372.264 188.272 372.843 188.048 373.533 188.048C374.224 188.048 374.793 188.272 375.241 188.72C375.708 189.149 375.941 189.691 375.941 190.344C375.941 190.997 375.708 191.548 375.241 191.996C374.793 192.425 374.224 192.64 373.533 192.64ZM375.465 194.488V210H371.545V194.488H375.465ZM386.226 210.252C384.733 210.252 383.389 209.925 382.194 209.272C381 208.6 380.057 207.657 379.366 206.444C378.694 205.231 378.358 203.831 378.358 202.244C378.358 200.657 378.704 199.257 379.394 198.044C380.104 196.831 381.065 195.897 382.278 195.244C383.492 194.572 384.845 194.236 386.338 194.236C387.832 194.236 389.185 194.572 390.398 195.244C391.612 195.897 392.564 196.831 393.254 198.044C393.964 199.257 394.318 200.657 394.318 202.244C394.318 203.831 393.954 205.231 393.226 206.444C392.517 207.657 391.546 208.6 390.314 209.272C389.101 209.925 387.738 210.252 386.226 210.252ZM386.226 206.836C386.936 206.836 387.598 206.668 388.214 206.332C388.849 205.977 389.353 205.455 389.726 204.764C390.1 204.073 390.286 203.233 390.286 202.244C390.286 200.769 389.894 199.64 389.11 198.856C388.345 198.053 387.402 197.652 386.282 197.652C385.162 197.652 384.22 198.053 383.454 198.856C382.708 199.64 382.334 200.769 382.334 202.244C382.334 203.719 382.698 204.857 383.426 205.66C384.173 206.444 385.106 206.836 386.226 206.836ZM405.79 194.264C407.638 194.264 409.131 194.852 410.27 196.028C411.408 197.185 411.978 198.809 411.978 200.9V210H408.058V201.432C408.058 200.2 407.75 199.257 407.134 198.604C406.518 197.932 405.678 197.596 404.614 197.596C403.531 197.596 402.672 197.932 402.038 198.604C401.422 199.257 401.114 200.2 401.114 201.432V210H397.194V194.488H401.114V196.42C401.636 195.748 402.299 195.225 403.102 194.852C403.923 194.46 404.819 194.264 405.79 194.264Z"></path>
<defs>
<linearGradient gradientUnits="userSpaceOnUse" y2="228" x2="120" y1="132" x1="120" id="paint0_linear_318_2">
<stop stop-color="#1493DF"></stop>
<stop stop-color="#0179D5" offset="1"></stop>
</linearGradient>
<linearGradient gradientUnits="userSpaceOnUse" y2="228" x2="120" y1="132" x1="120" id="paint1_linear_318_2">
<stop stop-color="#1493DF"></stop>
<stop stop-color="#0179D5" offset="1"></stop>
</linearGradient>
<linearGradient gradientUnits="userSpaceOnUse" y2="228" x2="120" y1="132" x1="120" id="paint2_linear_318_2">
<stop stop-color="#1493DF"></stop>
<stop stop-color="#0179D5" offset="1"></stop>
</linearGradient>
<linearGradient gradientUnits="userSpaceOnUse" y2="228" x2="120" y1="132" x1="120" id="paint3_linear_318_2">
<stop stop-color="#1493DF"></stop>
<stop stop-color="#0179D5" offset="1"></stop>
</linearGradient>
</defs>
</svg>
