<svg xmlns="http://www.w3.org/2000/svg" fill="none" viewBox="0 0 480 360" height="360" width="480">
<path fill-opacity="0.05" fill="black" d="M100 75C100 72.2386 102.239 70 105 70H145C147.761 70 150 72.2386 150 75V115C150 117.761 147.761 120 145 120H105C102.239 120 100 117.761 100 115V75Z"></path>
<path stroke-width="2" stroke-opacity="0.2" stroke="black" d="M145 69H105C101.686 69 99 71.6863 99 75V115C99 118.314 101.686 121 105 121H145C148.314 121 151 118.314 151 115V75C151 71.6863 148.314 69 145 69Z"></path>
<path stroke="black" d="M125 102.5C121.103 102.5 117.9 99.528 117.535 95.727C122.507 97.2366 127.237 92.5073 125.727 87.5348C129.528 87.9004 132.5 91.1031 132.5 95C132.5 99.1421 129.142 102.5 125 102.5Z"></path>
<path fill="black" d="M97.7658 136.355C98.5798 136.355 99.2912 136.513 99.8998 136.828C100.516 137.136 100.989 137.583 101.319 138.17C101.656 138.749 101.825 139.428 101.825 140.205C101.825 140.982 101.656 141.657 101.319 142.229C100.989 142.801 100.516 143.241 99.8998 143.549C99.2912 143.85 98.5798 144 97.7658 144H95.2688V136.355H97.7658ZM97.7658 142.977C98.6605 142.977 99.3462 142.735 99.8228 142.251C100.3 141.767 100.538 141.085 100.538 140.205C100.538 139.318 100.3 138.625 99.8228 138.126C99.3462 137.627 98.6605 137.378 97.7658 137.378H96.5228V142.977H97.7658ZM102.65 140.942C102.65 140.333 102.774 139.794 103.024 139.325C103.28 138.856 103.625 138.493 104.058 138.236C104.498 137.972 104.982 137.84 105.51 137.84C105.986 137.84 106.401 137.935 106.753 138.126C107.112 138.309 107.398 138.54 107.611 138.819V137.939H108.876V144H107.611V143.098C107.398 143.384 107.108 143.622 106.742 143.813C106.375 144.004 105.957 144.099 105.488 144.099C104.967 144.099 104.49 143.967 104.058 143.703C103.625 143.432 103.28 143.058 103.024 142.581C102.774 142.097 102.65 141.551 102.65 140.942ZM107.611 140.964C107.611 140.546 107.523 140.183 107.347 139.875C107.178 139.567 106.954 139.332 106.676 139.171C106.397 139.01 106.096 138.929 105.774 138.929C105.451 138.929 105.15 139.01 104.872 139.171C104.593 139.325 104.366 139.556 104.19 139.864C104.021 140.165 103.937 140.524 103.937 140.942C103.937 141.36 104.021 141.727 104.19 142.042C104.366 142.357 104.593 142.599 104.872 142.768C105.158 142.929 105.458 143.01 105.774 143.01C106.096 143.01 106.397 142.929 106.676 142.768C106.954 142.607 107.178 142.372 107.347 142.064C107.523 141.749 107.611 141.382 107.611 140.964ZM111.777 138.819C111.96 138.511 112.202 138.273 112.503 138.104C112.811 137.928 113.174 137.84 113.592 137.84V139.138H113.273C112.781 139.138 112.407 139.263 112.151 139.512C111.901 139.761 111.777 140.194 111.777 140.81V144H110.523V137.939H111.777V138.819ZM117.142 140.975L119.936 144H118.242L115.998 141.393V144H114.744V135.86H115.998V140.59L118.198 137.939H119.936L117.142 140.975ZM131.03 137.84C131.506 137.84 131.932 137.939 132.306 138.137C132.687 138.335 132.984 138.628 133.197 139.017C133.417 139.406 133.527 139.875 133.527 140.425V144H132.284V140.612C132.284 140.069 132.148 139.655 131.877 139.369C131.605 139.076 131.235 138.929 130.766 138.929C130.296 138.929 129.922 139.076 129.644 139.369C129.372 139.655 129.237 140.069 129.237 140.612V144H127.994V140.612C127.994 140.069 127.858 139.655 127.587 139.369C127.315 139.076 126.945 138.929 126.476 138.929C126.006 138.929 125.632 139.076 125.354 139.369C125.082 139.655 124.947 140.069 124.947 140.612V144H123.693V137.939H124.947V138.632C125.152 138.383 125.412 138.188 125.728 138.049C126.043 137.91 126.38 137.84 126.74 137.84C127.224 137.84 127.656 137.943 128.038 138.148C128.419 138.353 128.712 138.65 128.918 139.039C129.101 138.672 129.387 138.383 129.776 138.17C130.164 137.95 130.582 137.84 131.03 137.84ZM137.751 144.099C137.179 144.099 136.662 143.971 136.2 143.714C135.738 143.45 135.375 143.083 135.111 142.614C134.847 142.137 134.715 141.587 134.715 140.964C134.715 140.348 134.851 139.802 135.122 139.325C135.394 138.848 135.764 138.482 136.233 138.225C136.703 137.968 137.227 137.84 137.806 137.84C138.386 137.84 138.91 137.968 139.379 138.225C139.849 138.482 140.219 138.848 140.49 139.325C140.762 139.802 140.897 140.348 140.897 140.964C140.897 141.58 140.758 142.126 140.479 142.603C140.201 143.08 139.819 143.45 139.335 143.714C138.859 143.971 138.331 144.099 137.751 144.099ZM137.751 143.01C138.074 143.01 138.375 142.933 138.653 142.779C138.939 142.625 139.17 142.394 139.346 142.086C139.522 141.778 139.61 141.404 139.61 140.964C139.61 140.524 139.526 140.154 139.357 139.853C139.189 139.545 138.965 139.314 138.686 139.16C138.408 139.006 138.107 138.929 137.784 138.929C137.462 138.929 137.161 139.006 136.882 139.16C136.611 139.314 136.395 139.545 136.233 139.853C136.072 140.154 135.991 140.524 135.991 140.964C135.991 141.617 136.156 142.123 136.486 142.482C136.824 142.834 137.245 143.01 137.751 143.01ZM141.719 140.942C141.719 140.333 141.844 139.794 142.093 139.325C142.35 138.856 142.694 138.493 143.127 138.236C143.567 137.972 144.055 137.84 144.59 137.84C144.986 137.84 145.375 137.928 145.756 138.104C146.145 138.273 146.453 138.5 146.68 138.786V135.86H147.945V144H146.68V143.087C146.475 143.38 146.189 143.622 145.822 143.813C145.463 144.004 145.048 144.099 144.579 144.099C144.051 144.099 143.567 143.967 143.127 143.703C142.694 143.432 142.35 143.058 142.093 142.581C141.844 142.097 141.719 141.551 141.719 140.942ZM146.68 140.964C146.68 140.546 146.592 140.183 146.416 139.875C146.247 139.567 146.024 139.332 145.745 139.171C145.466 139.01 145.166 138.929 144.843 138.929C144.52 138.929 144.22 139.01 143.941 139.171C143.662 139.325 143.435 139.556 143.259 139.864C143.09 140.165 143.006 140.524 143.006 140.942C143.006 141.36 143.09 141.727 143.259 142.042C143.435 142.357 143.662 142.599 143.941 142.768C144.227 142.929 144.528 143.01 144.843 143.01C145.166 143.01 145.466 142.929 145.745 142.768C146.024 142.607 146.247 142.372 146.416 142.064C146.592 141.749 146.68 141.382 146.68 140.964ZM155.147 140.821C155.147 141.048 155.132 141.254 155.103 141.437H150.472C150.509 141.921 150.688 142.31 151.011 142.603C151.334 142.896 151.73 143.043 152.199 143.043C152.874 143.043 153.35 142.761 153.629 142.196H154.982C154.799 142.753 154.465 143.212 153.981 143.571C153.504 143.923 152.91 144.099 152.199 144.099C151.62 144.099 151.099 143.971 150.637 143.714C150.182 143.45 149.823 143.083 149.559 142.614C149.302 142.137 149.174 141.587 149.174 140.964C149.174 140.341 149.299 139.794 149.548 139.325C149.805 138.848 150.16 138.482 150.615 138.225C151.077 137.968 151.605 137.84 152.199 137.84C152.771 137.84 153.281 137.965 153.728 138.214C154.175 138.463 154.524 138.815 154.773 139.27C155.022 139.717 155.147 140.234 155.147 140.821ZM153.838 140.425C153.831 139.963 153.666 139.593 153.343 139.314C153.02 139.035 152.621 138.896 152.144 138.896C151.711 138.896 151.341 139.035 151.033 139.314C150.725 139.585 150.542 139.956 150.483 140.425H153.838Z"></path>
</svg>
