<svg xmlns="http://www.w3.org/2000/svg" fill="none" viewBox="0 0 240 90" height="90" width="240">
<path fill-opacity="0.9" fill="#1A1A1A" d="M45 30C45 24.4772 49.4772 20 55 20H185C190.523 20 195 24.4772 195 30V60C195 65.5229 190.523 70 185 70H55C49.4772 70 45 65.5229 45 60V30Z"></path>
<path stroke-width="2" stroke-opacity="0.2" stroke="white" d="M55 19C48.9249 19 44 23.9249 44 30V60C44 66.0751 48.9249 71 55 71H185C191.075 71 196 66.0751 196 60V30C196 23.9249 191.075 19 185 19H55Z"></path>
<path fill="white" d="M100.928 47.296H97.436L96.836 49H95.408L98.396 40.648H99.98L102.968 49H101.528L100.928 47.296ZM100.544 46.18L99.188 42.304L97.82 46.18H100.544ZM105.635 43.36C105.867 43.056 106.183 42.8 106.583 42.592C106.983 42.384 107.435 42.28 107.939 42.28C108.515 42.28 109.039 42.424 109.511 42.712C109.991 42.992 110.367 43.388 110.639 43.9C110.911 44.412 111.047 45 111.047 45.664C111.047 46.328 110.911 46.924 110.639 47.452C110.367 47.972 109.991 48.38 109.511 48.676C109.039 48.964 108.515 49.108 107.939 49.108C107.435 49.108 106.987 49.008 106.595 48.808C106.203 48.6 105.883 48.344 105.635 48.04V52.144H104.267V42.388H105.635V43.36ZM109.655 45.664C109.655 45.208 109.559 44.816 109.367 44.488C109.183 44.152 108.935 43.9 108.623 43.732C108.319 43.556 107.991 43.468 107.639 43.468C107.295 43.468 106.967 43.556 106.655 43.732C106.351 43.908 106.103 44.164 105.911 44.5C105.727 44.836 105.635 45.232 105.635 45.688C105.635 46.144 105.727 46.544 105.911 46.888C106.103 47.224 106.351 47.48 106.655 47.656C106.967 47.832 107.295 47.92 107.639 47.92C107.991 47.92 108.319 47.832 108.623 47.656C108.935 47.472 109.183 47.208 109.367 46.864C109.559 46.52 109.655 46.12 109.655 45.664ZM113.768 43.36C114 43.056 114.316 42.8 114.716 42.592C115.116 42.384 115.568 42.28 116.072 42.28C116.648 42.28 117.172 42.424 117.644 42.712C118.124 42.992 118.5 43.388 118.772 43.9C119.044 44.412 119.18 45 119.18 45.664C119.18 46.328 119.044 46.924 118.772 47.452C118.5 47.972 118.124 48.38 117.644 48.676C117.172 48.964 116.648 49.108 116.072 49.108C115.568 49.108 115.12 49.008 114.728 48.808C114.336 48.6 114.016 48.344 113.768 48.04V52.144H112.4V42.388H113.768V43.36ZM117.788 45.664C117.788 45.208 117.692 44.816 117.5 44.488C117.316 44.152 117.068 43.9 116.756 43.732C116.452 43.556 116.124 43.468 115.772 43.468C115.428 43.468 115.1 43.556 114.788 43.732C114.484 43.908 114.236 44.164 114.044 44.5C113.86 44.836 113.768 45.232 113.768 45.688C113.768 46.144 113.86 46.544 114.044 46.888C114.236 47.224 114.484 47.48 114.788 47.656C115.1 47.832 115.428 47.92 115.772 47.92C116.124 47.92 116.452 47.832 116.756 47.656C117.068 47.472 117.316 47.208 117.5 46.864C117.692 46.52 117.788 46.12 117.788 45.664ZM132.434 40.66V49H131.066V43.288L128.522 49H127.574L125.018 43.288V49H123.65V40.66H125.126L128.054 47.2L130.97 40.66H132.434ZM133.776 45.664C133.776 45 133.912 44.412 134.184 43.9C134.464 43.388 134.84 42.992 135.312 42.712C135.792 42.424 136.32 42.28 136.896 42.28C137.416 42.28 137.868 42.384 138.252 42.592C138.644 42.792 138.956 43.044 139.188 43.348V42.388H140.568V49H139.188V48.016C138.956 48.328 138.64 48.588 138.24 48.796C137.84 49.004 137.384 49.108 136.872 49.108C136.304 49.108 135.784 48.964 135.312 48.676C134.84 48.38 134.464 47.972 134.184 47.452C133.912 46.924 133.776 46.328 133.776 45.664ZM139.188 45.688C139.188 45.232 139.092 44.836 138.9 44.5C138.716 44.164 138.472 43.908 138.168 43.732C137.864 43.556 137.536 43.468 137.184 43.468C136.832 43.468 136.504 43.556 136.2 43.732C135.896 43.9 135.648 44.152 135.456 44.488C135.272 44.816 135.18 45.208 135.18 45.664C135.18 46.12 135.272 46.52 135.456 46.864C135.648 47.208 135.896 47.472 136.2 47.656C136.512 47.832 136.84 47.92 137.184 47.92C137.536 47.92 137.864 47.832 138.168 47.656C138.472 47.48 138.716 47.224 138.9 46.888C139.092 46.544 139.188 46.144 139.188 45.688ZM145.701 42.28C146.221 42.28 146.685 42.388 147.093 42.604C147.509 42.82 147.833 43.14 148.065 43.564C148.297 43.988 148.413 44.5 148.413 45.1V49H147.057V45.304C147.057 44.712 146.909 44.26 146.613 43.948C146.317 43.628 145.913 43.468 145.401 43.468C144.889 43.468 144.481 43.628 144.177 43.948C143.881 44.26 143.733 44.712 143.733 45.304V49H142.365V42.388H143.733V43.144C143.957 42.872 144.241 42.66 144.585 42.508C144.937 42.356 145.309 42.28 145.701 42.28ZM149.702 45.664C149.702 45 149.838 44.412 150.11 43.9C150.39 43.388 150.766 42.992 151.238 42.712C151.718 42.424 152.246 42.28 152.822 42.28C153.342 42.28 153.794 42.384 154.178 42.592C154.57 42.792 154.882 43.044 155.114 43.348V42.388H156.494V49H155.114V48.016C154.882 48.328 154.566 48.588 154.166 48.796C153.766 49.004 153.31 49.108 152.798 49.108C152.23 49.108 151.71 48.964 151.238 48.676C150.766 48.38 150.39 47.972 150.11 47.452C149.838 46.924 149.702 46.328 149.702 45.664ZM155.114 45.688C155.114 45.232 155.018 44.836 154.826 44.5C154.642 44.164 154.398 43.908 154.094 43.732C153.79 43.556 153.462 43.468 153.11 43.468C152.758 43.468 152.43 43.556 152.126 43.732C151.822 43.9 151.574 44.152 151.382 44.488C151.198 44.816 151.106 45.208 151.106 45.664C151.106 46.12 151.198 46.52 151.382 46.864C151.574 47.208 151.822 47.472 152.126 47.656C152.438 47.832 152.766 47.92 153.11 47.92C153.462 47.92 153.79 47.832 154.094 47.656C154.398 47.48 154.642 47.224 154.826 46.888C155.018 46.544 155.114 46.144 155.114 45.688ZM160.955 42.28C161.467 42.28 161.919 42.384 162.311 42.592C162.711 42.792 163.023 43.044 163.247 43.348V42.388H164.627V49.108C164.627 49.716 164.499 50.256 164.243 50.728C163.987 51.208 163.615 51.584 163.127 51.856C162.647 52.128 162.071 52.264 161.399 52.264C160.503 52.264 159.759 52.052 159.167 51.628C158.575 51.212 158.239 50.644 158.159 49.924H159.515C159.619 50.268 159.839 50.544 160.175 50.752C160.519 50.968 160.927 51.076 161.399 51.076C161.951 51.076 162.395 50.908 162.731 50.572C163.075 50.236 163.247 49.748 163.247 49.108V48.004C163.015 48.316 162.699 48.58 162.299 48.796C161.907 49.004 161.459 49.108 160.955 49.108C160.379 49.108 159.851 48.964 159.371 48.676C158.899 48.38 158.523 47.972 158.243 47.452C157.971 46.924 157.835 46.328 157.835 45.664C157.835 45 157.971 44.412 158.243 43.9C158.523 43.388 158.899 42.992 159.371 42.712C159.851 42.424 160.379 42.28 160.955 42.28ZM163.247 45.688C163.247 45.232 163.151 44.836 162.959 44.5C162.775 44.164 162.531 43.908 162.227 43.732C161.923 43.556 161.595 43.468 161.243 43.468C160.891 43.468 160.563 43.556 160.259 43.732C159.955 43.9 159.707 44.152 159.515 44.488C159.331 44.816 159.239 45.208 159.239 45.664C159.239 46.12 159.331 46.52 159.515 46.864C159.707 47.208 159.955 47.472 160.259 47.656C160.571 47.832 160.899 47.92 161.243 47.92C161.595 47.92 161.923 47.832 162.227 47.656C162.531 47.48 162.775 47.224 162.959 46.888C163.151 46.544 163.247 46.144 163.247 45.688ZM172.483 45.532C172.483 45.78 172.467 46.004 172.435 46.204H167.383C167.423 46.732 167.619 47.156 167.971 47.476C168.323 47.796 168.755 47.956 169.267 47.956C170.003 47.956 170.523 47.648 170.827 47.032H172.303C172.103 47.64 171.739 48.14 171.211 48.532C170.691 48.916 170.043 49.108 169.267 49.108C168.635 49.108 168.067 48.968 167.563 48.688C167.067 48.4 166.675 48 166.387 47.488C166.107 46.968 165.967 46.368 165.967 45.688C165.967 45.008 166.103 44.412 166.375 43.9C166.655 43.38 167.043 42.98 167.539 42.7C168.043 42.42 168.619 42.28 169.267 42.28C169.891 42.28 170.447 42.416 170.935 42.688C171.423 42.96 171.803 43.344 172.075 43.84C172.347 44.328 172.483 44.892 172.483 45.532ZM171.055 45.1C171.047 44.596 170.867 44.192 170.515 43.888C170.163 43.584 169.727 43.432 169.207 43.432C168.735 43.432 168.331 43.584 167.995 43.888C167.659 44.184 167.459 44.588 167.395 45.1H171.055ZM175.198 43.348C175.398 43.012 175.662 42.752 175.99 42.568C176.326 42.376 176.722 42.28 177.178 42.28V43.696H176.83C176.294 43.696 175.886 43.832 175.606 44.104C175.334 44.376 175.198 44.848 175.198 45.52V49H173.83V42.388H175.198V43.348Z"></path>
<path stroke-width="0.2" stroke="url(#paint1_linear_1045_30)" fill="url(#paint0_linear_1045_30)" d="M67.9231 37.0386L65.8462 37.7309L70 45.0001L74.1539 37.7309L72.077 37.0386C71.4361 39.0681 68.564 39.0681 67.9231 37.0386Z"></path>
<path stroke-width="0.2" stroke="url(#paint3_linear_1045_30)" fill="url(#paint2_linear_1045_30)" d="M72.0769 52.9614L74.1538 52.2691L70 44.9999L65.8461 52.2691L67.923 52.9614C68.5639 50.9319 71.436 50.9319 72.0769 52.9614Z"></path>
<path stroke-width="0.2" stroke="url(#paint5_linear_1045_30)" fill="url(#paint4_linear_1045_30)" d="M75.8563 39.2205L74.2183 37.768L69.9999 45L78.3722 44.9627L77.9333 42.8179C75.8552 43.2776 74.4192 40.7904 75.8563 39.2205Z"></path>
<path stroke-width="0.2" stroke="url(#paint7_linear_1045_30)" fill="url(#paint6_linear_1045_30)" d="M64.1437 50.7795L65.7817 52.232L70.0001 45L61.6278 45.0373L62.0667 47.1821C64.1448 46.7224 65.5808 49.2096 64.1437 50.7795Z"></path>
<path stroke-width="0.2" stroke="url(#paint9_linear_1045_30)" fill="url(#paint8_linear_1045_30)" d="M62.0663 42.818L61.6274 44.9629L69.9996 45.0001L65.7812 37.7682L64.1432 39.2207C65.5804 40.7905 64.1444 43.2778 62.0663 42.818Z"></path>
<path stroke-width="0.2" stroke="url(#paint11_linear_1045_30)" fill="url(#paint10_linear_1045_30)" d="M77.9332 47.182L78.3721 45.0371L69.9999 44.9999L74.2183 52.2318L75.8563 50.7793C74.4191 49.2095 75.8551 46.7222 77.9332 47.182Z"></path>
<rect stroke-width="1.38462" stroke="url(#paint13_linear_1045_30)" fill="url(#paint12_linear_1045_30)" rx="3.46154" height="6.92308" width="6.92308" y="41.5385" x="66.5385"></rect>
<defs>
<linearGradient gradientUnits="userSpaceOnUse" y2="53.3078" x2="78.3077" y1="36.6924" x1="61.6923" id="paint0_linear_1045_30">
<stop stop-color="#8A9199"></stop>
<stop stop-color="#66737D" offset="1"></stop>
</linearGradient>
<linearGradient gradientUnits="userSpaceOnUse" y2="53.3078" x2="78.3077" y1="36.6924" x1="61.6923" id="paint1_linear_1045_30">
<stop stop-color="#8A9199"></stop>
<stop stop-color="#66737D" offset="1"></stop>
</linearGradient>
<linearGradient gradientUnits="userSpaceOnUse" y2="53.3076" x2="78.3077" y1="36.6922" x1="61.6923" id="paint2_linear_1045_30">
<stop stop-color="#8A9199"></stop>
<stop stop-color="#66737D" offset="1"></stop>
</linearGradient>
<linearGradient gradientUnits="userSpaceOnUse" y2="53.3076" x2="78.3077" y1="36.6922" x1="61.6923" id="paint3_linear_1045_30">
<stop stop-color="#8A9199"></stop>
<stop stop-color="#66737D" offset="1"></stop>
</linearGradient>
<linearGradient gradientUnits="userSpaceOnUse" y2="53.3077" x2="78.3076" y1="36.6923" x1="61.6922" id="paint4_linear_1045_30">
<stop stop-color="#8A9199"></stop>
<stop stop-color="#66737D" offset="1"></stop>
</linearGradient>
<linearGradient gradientUnits="userSpaceOnUse" y2="53.3077" x2="78.3076" y1="36.6923" x1="61.6922" id="paint5_linear_1045_30">
<stop stop-color="#8A9199"></stop>
<stop stop-color="#66737D" offset="1"></stop>
</linearGradient>
<linearGradient gradientUnits="userSpaceOnUse" y2="53.3077" x2="78.3078" y1="36.6923" x1="61.6924" id="paint6_linear_1045_30">
<stop stop-color="#8A9199"></stop>
<stop stop-color="#66737D" offset="1"></stop>
</linearGradient>
<linearGradient gradientUnits="userSpaceOnUse" y2="53.3077" x2="78.3078" y1="36.6923" x1="61.6924" id="paint7_linear_1045_30">
<stop stop-color="#8A9199"></stop>
<stop stop-color="#66737D" offset="1"></stop>
</linearGradient>
<linearGradient gradientUnits="userSpaceOnUse" y2="53.3078" x2="78.3073" y1="36.6924" x1="61.692" id="paint8_linear_1045_30">
<stop stop-color="#8A9199"></stop>
<stop stop-color="#66737D" offset="1"></stop>
</linearGradient>
<linearGradient gradientUnits="userSpaceOnUse" y2="53.3078" x2="78.3073" y1="36.6924" x1="61.692" id="paint9_linear_1045_30">
<stop stop-color="#8A9199"></stop>
<stop stop-color="#66737D" offset="1"></stop>
</linearGradient>
<linearGradient gradientUnits="userSpaceOnUse" y2="53.3076" x2="78.3076" y1="36.6922" x1="61.6922" id="paint10_linear_1045_30">
<stop stop-color="#8A9199"></stop>
<stop stop-color="#66737D" offset="1"></stop>
</linearGradient>
<linearGradient gradientUnits="userSpaceOnUse" y2="53.3076" x2="78.3076" y1="36.6922" x1="61.6922" id="paint11_linear_1045_30">
<stop stop-color="#8A9199"></stop>
<stop stop-color="#66737D" offset="1"></stop>
</linearGradient>
<linearGradient gradientUnits="userSpaceOnUse" y2="47.077" x2="72.077" y1="42.9231" x1="67.9231" id="paint12_linear_1045_30">
<stop stop-color="#0669BC"></stop>
<stop stop-color="#0F4F93" offset="1"></stop>
</linearGradient>
<linearGradient gradientUnits="userSpaceOnUse" y2="48.1154" x2="72.7693" y1="42.2308" x1="66.8847" id="paint13_linear_1045_30">
<stop stop-color="#BEC4C9"></stop>
<stop stop-color="#F7F7F8" offset="1"></stop>
</linearGradient>
</defs>
</svg>
