<svg xmlns="http://www.w3.org/2000/svg" fill="none" viewBox="0 0 480 360" height="360" width="480">
<rect fill-opacity="0.05" fill="black" rx="5" height="50" width="50" y="70" x="30"></rect>
<rect stroke-width="2" stroke-opacity="0.2" stroke="black" rx="6" height="52" width="52" y="69" x="29"></rect>
<path fill="black" d="M35.4926 136.355V144H34.2386V136.355H35.4926ZM40.197 137.84C40.6736 137.84 41.099 137.939 41.473 138.137C41.8543 138.335 42.1513 138.628 42.364 139.017C42.5766 139.406 42.683 139.875 42.683 140.425V144H41.44V140.612C41.44 140.069 41.3043 139.655 41.033 139.369C40.7616 139.076 40.3913 138.929 39.922 138.929C39.4526 138.929 39.0786 139.076 38.8 139.369C38.5286 139.655 38.393 140.069 38.393 140.612V144H37.139V137.939H38.393V138.632C38.5983 138.383 38.8586 138.188 39.174 138.049C39.4966 137.91 39.8376 137.84 40.197 137.84ZM45.7455 138.962V142.317C45.7455 142.544 45.7969 142.709 45.8995 142.812C46.0095 142.907 46.1929 142.955 46.4495 142.955H47.2195V144H46.2295C45.6649 144 45.2322 143.868 44.9315 143.604C44.6309 143.34 44.4805 142.911 44.4805 142.317V138.962H43.7655V137.939H44.4805V136.432H45.7455V137.939H47.2195V138.962H45.7455ZM53.9303 140.821C53.9303 141.048 53.9156 141.254 53.8863 141.437H49.2553C49.292 141.921 49.4716 142.31 49.7943 142.603C50.117 142.896 50.513 143.043 50.9823 143.043C51.657 143.043 52.1336 142.761 52.4123 142.196H53.7653C53.582 142.753 53.2483 143.212 52.7643 143.571C52.2876 143.923 51.6936 144.099 50.9823 144.099C50.403 144.099 49.8823 143.971 49.4203 143.714C48.9656 143.45 48.6063 143.083 48.3423 142.614C48.0856 142.137 47.9573 141.587 47.9573 140.964C47.9573 140.341 48.082 139.794 48.3313 139.325C48.588 138.848 48.9436 138.482 49.3983 138.225C49.8603 137.968 50.3883 137.84 50.9823 137.84C51.5543 137.84 52.064 137.965 52.5113 138.214C52.9586 138.463 53.307 138.815 53.5563 139.27C53.8056 139.717 53.9303 140.234 53.9303 140.821ZM52.6213 140.425C52.614 139.963 52.449 139.593 52.1263 139.314C51.8036 139.035 51.404 138.896 50.9273 138.896C50.4946 138.896 50.1243 139.035 49.8163 139.314C49.5083 139.585 49.325 139.956 49.2663 140.425H52.6213ZM56.4184 138.819C56.6017 138.511 56.8437 138.273 57.1444 138.104C57.4524 137.928 57.8154 137.84 58.2334 137.84V139.138H57.9144C57.423 139.138 57.049 139.263 56.7924 139.512C56.543 139.761 56.4184 140.194 56.4184 140.81V144H55.1644V137.939H56.4184V138.819ZM62.444 137.84C62.9207 137.84 63.346 137.939 63.72 138.137C64.1014 138.335 64.3984 138.628 64.611 139.017C64.8237 139.406 64.93 139.875 64.93 140.425V144H63.687V140.612C63.687 140.069 63.5514 139.655 63.28 139.369C63.0087 139.076 62.6384 138.929 62.169 138.929C61.6997 138.929 61.3257 139.076 61.047 139.369C60.7757 139.655 60.64 140.069 60.64 140.612V144H59.386V137.939H60.64V138.632C60.8454 138.383 61.1057 138.188 61.421 138.049C61.7437 137.91 62.0847 137.84 62.444 137.84ZM72.0846 140.821C72.0846 141.048 72.0699 141.254 72.0406 141.437H67.4096C67.4463 141.921 67.6259 142.31 67.9486 142.603C68.2713 142.896 68.6673 143.043 69.1366 143.043C69.8113 143.043 70.2879 142.761 70.5666 142.196H71.9196C71.7363 142.753 71.4026 143.212 70.9186 143.571C70.4419 143.923 69.8479 144.099 69.1366 144.099C68.5573 144.099 68.0366 143.971 67.5746 143.714C67.1199 143.45 66.7606 143.083 66.4966 142.614C66.2399 142.137 66.1116 141.587 66.1116 140.964C66.1116 140.341 66.2363 139.794 66.4856 139.325C66.7423 138.848 67.0979 138.482 67.5526 138.225C68.0146 137.968 68.5426 137.84 69.1366 137.84C69.7086 137.84 70.2183 137.965 70.6656 138.214C71.1129 138.463 71.4613 138.815 71.7106 139.27C71.9599 139.717 72.0846 140.234 72.0846 140.821ZM70.7756 140.425C70.7683 139.963 70.6033 139.593 70.2806 139.314C69.9579 139.035 69.5583 138.896 69.0816 138.896C68.6489 138.896 68.2786 139.035 67.9706 139.314C67.6626 139.585 67.4793 139.956 67.4206 140.425H70.7756ZM74.7817 138.962V142.317C74.7817 142.544 74.833 142.709 74.9357 142.812C75.0457 142.907 75.229 142.955 75.4857 142.955H76.2557V144H75.2657C74.701 144 74.2683 143.868 73.9677 143.604C73.667 143.34 73.5167 142.911 73.5167 142.317V138.962H72.8017V137.939H73.5167V136.432H74.7817V137.939H76.2557V138.962H74.7817Z"></path>
<path fill="black" d="M62.49 95C62.7717 95 63.0017 94.7714 62.9838 94.4903C62.8942 93.0873 62.4361 91.7294 61.6518 90.5554C60.7727 89.2398 59.5233 88.2145 58.0615 87.609C56.5997 87.0035 54.9911 86.845 53.4393 87.1537C51.8874 87.4624 50.462 88.2243 49.3431 89.3431C48.2243 90.462 47.4624 91.8874 47.1537 93.4393C46.845 94.9911 47.0035 96.5997 47.609 98.0615C48.2145 99.5233 49.2398 100.773 50.5554 101.652C51.7294 102.436 53.0873 102.894 54.4903 102.984C54.7714 103.002 55 102.772 55 102.49V102.49C55 102.208 54.7714 101.982 54.4904 101.961C53.2894 101.873 52.1283 101.476 51.1221 100.804C49.9743 100.037 49.0796 98.9466 48.5513 97.6711C48.023 96.3957 47.8848 94.9923 48.1541 93.6383C48.4234 92.2843 49.0882 91.0406 50.0644 90.0644C51.0406 89.0882 52.2843 88.4234 53.6383 88.1541C54.9923 87.8848 56.3957 88.023 57.6711 88.5513C58.9466 89.0796 60.0367 89.9743 60.8037 91.1221C61.4759 92.1283 61.8735 93.2894 61.9614 94.4904C61.9819 94.7714 62.2083 95 62.49 95V95Z"></path>
<circle stroke="black" r="4" cy="98.5" cx="58.5"></circle>
<rect fill="black" transform="rotate(-45 55.6714 100.621)" height="1" width="7" y="100.621" x="55.6714"></rect>
<path fill="black" d="M51 91.2823C51 89.3533 52.3129 87.6718 54.1843 87.2039V87.2039C54.7199 87.07 55.2801 87.07 55.8157 87.2039V87.2039C57.6871 87.6718 59 89.3533 59 91.2823V93H58V90.9561C58 89.7879 57.2525 88.7508 56.1443 88.3814V88.3814C55.4015 88.1338 54.5985 88.1338 53.8557 88.3814V88.3814C52.7475 88.7508 52 89.7879 52 90.9561V98.8377C52 100.129 52.8263 101.275 54.0513 101.684L54.6584 101.886C54.8624 101.954 55 102.145 55 102.36V102.36C55 102.685 54.6945 102.924 54.3792 102.845L54.0119 102.753C52.2418 102.31 51 100.72 51 98.8954V91.2823Z"></path>
<rect fill="black" height="1" width="14" y="92" x="48"></rect>
<rect fill="black" rx="0.5" height="1" width="5" y="97" x="48"></rect>
</svg>
