<svg xmlns="http://www.w3.org/2000/svg" fill="none" viewBox="0 0 480 360" height="360" width="480">
<rect fill="#262626" height="96" width="480"></rect>
<rect fill-opacity="0.05" fill="white" rx="5" height="30" width="380" y="10" x="50"></rect>
<path stroke-linejoin="round" stroke-linecap="round" stroke="white" d="M20 25L25 20M20 25L30 25M20 25L25 30"></path>
<path stroke-linejoin="round" stroke-linecap="round" stroke="white" d="M459.347 26.1647C459.077 27.1703 458.467 28.0514 457.621 28.6578C456.775 29.2642 455.745 29.5585 454.706 29.4904C453.667 29.4223 452.684 28.9961 451.924 28.2844C451.164 27.5727 450.674 26.6196 450.538 25.5874C450.403 24.5552 450.629 23.5078 451.179 22.6237C451.728 21.7396 452.568 21.0735 453.554 20.7388C454.539 20.4042 455.611 20.4217 456.585 20.7884C457.559 21.1551 458.377 21.8484 458.897 22.75"></path>
<path stroke-linejoin="round" stroke-linecap="round" stroke="white" d="M456.5 23.5H459.5V20.5"></path>
<path stroke-linejoin="round" stroke-linecap="round" stroke-opacity="0.5" stroke="#808080" d="M169.5 54.5V81.5"></path>
<path stroke-linejoin="round" stroke-linecap="round" stroke-opacity="0.5" stroke="#808080" d="M0.5 95.5H479.5"></path>
<path stroke-linejoin="round" stroke-linecap="round" stroke-opacity="0.5" stroke="#808080" d="M140.5 106.5V349.5"></path>
<rect fill="url(#paint0_linear_642_184)" rx="2" height="12" width="16" y="114" x="20"></rect>
<rect stroke-opacity="0.25" stroke="black" rx="1.5" height="11" width="15" y="114.5" x="20.5"></rect>
<path fill="#A0A9B2" d="M25 128.5C25 128.224 25.2239 128 25.5 128H27V126H29V128H30.5C30.7761 128 31 128.224 31 128.5V128.5C31 128.776 30.7761 129 30.5 129H25.5C25.2239 129 25 128.776 25 128.5V128.5Z"></path>
<path fill="white" d="M51.764 117.355V118.378H49.729V125H48.475V118.378H46.429V117.355H51.764ZM56.169 118.84C56.631 118.84 57.0417 118.939 57.401 119.137C57.7677 119.335 58.0537 119.628 58.259 120.017C58.4717 120.406 58.578 120.875 58.578 121.425V125H57.335V121.612C57.335 121.069 57.1993 120.655 56.928 120.369C56.6567 120.076 56.2863 119.929 55.817 119.929C55.3477 119.929 54.9737 120.076 54.695 120.369C54.4237 120.655 54.288 121.069 54.288 121.612V125H53.034V116.86H54.288V119.643C54.5007 119.386 54.7683 119.188 55.091 119.049C55.421 118.91 55.7803 118.84 56.169 118.84ZM60.8155 118.136C60.5882 118.136 60.3975 118.059 60.2435 117.905C60.0895 117.751 60.0125 117.56 60.0125 117.333C60.0125 117.106 60.0895 116.915 60.2435 116.761C60.3975 116.607 60.5882 116.53 60.8155 116.53C61.0355 116.53 61.2225 116.607 61.3765 116.761C61.5305 116.915 61.6075 117.106 61.6075 117.333C61.6075 117.56 61.5305 117.751 61.3765 117.905C61.2225 118.059 61.0355 118.136 60.8155 118.136ZM61.4315 118.939V125H60.1775V118.939H61.4315ZM65.2779 125.099C64.8013 125.099 64.3723 125.015 63.9909 124.846C63.6169 124.67 63.3199 124.435 63.0999 124.142C62.8799 123.841 62.7626 123.508 62.7479 123.141H64.0459C64.0679 123.398 64.1889 123.614 64.4089 123.79C64.6363 123.959 64.9186 124.043 65.2559 124.043C65.6079 124.043 65.8793 123.977 66.0699 123.845C66.2679 123.706 66.3669 123.53 66.3669 123.317C66.3669 123.09 66.2569 122.921 66.0369 122.811C65.8243 122.701 65.4833 122.58 65.0139 122.448C64.5593 122.323 64.1889 122.202 63.9029 122.085C63.6169 121.968 63.3676 121.788 63.1549 121.546C62.9496 121.304 62.8469 120.985 62.8469 120.589C62.8469 120.266 62.9423 119.973 63.1329 119.709C63.3236 119.438 63.5949 119.225 63.9469 119.071C64.3063 118.917 64.7169 118.84 65.1789 118.84C65.8683 118.84 66.4219 119.016 66.8399 119.368C67.2653 119.713 67.4926 120.186 67.5219 120.787H66.2679C66.2459 120.516 66.1359 120.299 65.9379 120.138C65.7399 119.977 65.4723 119.896 65.1349 119.896C64.8049 119.896 64.5519 119.958 64.3759 120.083C64.1999 120.208 64.1119 120.373 64.1119 120.578C64.1119 120.739 64.1706 120.875 64.2879 120.985C64.4053 121.095 64.5483 121.183 64.7169 121.249C64.8856 121.308 65.1349 121.385 65.4649 121.48C65.9049 121.597 66.2643 121.718 66.5429 121.843C66.8289 121.96 67.0746 122.136 67.2799 122.371C67.4853 122.606 67.5916 122.917 67.5989 123.306C67.5989 123.651 67.5036 123.959 67.3129 124.23C67.1223 124.501 66.8509 124.714 66.4989 124.868C66.1543 125.022 65.7473 125.099 65.2779 125.099ZM77.1573 119.632C77.1573 120.021 77.0657 120.387 76.8823 120.732C76.699 121.077 76.4057 121.359 76.0023 121.579C75.599 121.792 75.082 121.898 74.4513 121.898H73.0653V125H71.8113V117.355H74.4513C75.038 117.355 75.533 117.458 75.9363 117.663C76.347 117.861 76.6513 118.132 76.8493 118.477C77.0547 118.822 77.1573 119.207 77.1573 119.632ZM74.4513 120.875C74.928 120.875 75.2837 120.769 75.5183 120.556C75.753 120.336 75.8703 120.028 75.8703 119.632C75.8703 118.796 75.3973 118.378 74.4513 118.378H73.0653V120.875H74.4513ZM77.9353 121.161C77.9353 120.413 78.1077 119.742 78.4523 119.148C78.8043 118.554 79.2773 118.092 79.8713 117.762C80.4727 117.425 81.129 117.256 81.8403 117.256C82.6543 117.256 83.3767 117.458 84.0073 117.861C84.6453 118.257 85.1073 118.822 85.3933 119.555H83.8863C83.6883 119.152 83.4133 118.851 83.0613 118.653C82.7093 118.455 82.3023 118.356 81.8403 118.356C81.3343 118.356 80.8833 118.47 80.4873 118.697C80.0913 118.924 79.7797 119.251 79.5523 119.676C79.3323 120.101 79.2223 120.596 79.2223 121.161C79.2223 121.726 79.3323 122.221 79.5523 122.646C79.7797 123.071 80.0913 123.401 80.4873 123.636C80.8833 123.863 81.3343 123.977 81.8403 123.977C82.3023 123.977 82.7093 123.878 83.0613 123.68C83.4133 123.482 83.6883 123.181 83.8863 122.778H85.3933C85.1073 123.511 84.6453 124.076 84.0073 124.472C83.3767 124.868 82.6543 125.066 81.8403 125.066C81.1217 125.066 80.4653 124.901 79.8713 124.571C79.2773 124.234 78.8043 123.768 78.4523 123.174C78.1077 122.58 77.9353 121.909 77.9353 121.161Z"></path>
<mask fill="white" id="path-13-inside-1_642_184">
<path d="M32 145C32 143.895 32.8954 143 34 143H42C43.1046 143 44 143.895 44 145V157C44 158.105 43.1046 159 42 159H34C32.8954 159 32 158.105 32 157V145Z"></path>
</mask>
<path fill="url(#paint1_linear_642_184)" d="M32 145C32 143.895 32.8954 143 34 143H42C43.1046 143 44 143.895 44 145V157C44 158.105 43.1046 159 42 159H34C32.8954 159 32 158.105 32 157V145Z"></path>
<path mask="url(#path-13-inside-1_642_184)" fill-opacity="0.25" fill="white" d="M32 145C32 143.343 33.3431 142 35 142H41C42.6569 142 44 143.343 44 145C44 144.448 43.1046 144 42 144H34C32.8954 144 32 144.448 32 145ZM44 159H32H44ZM32 159V143V159ZM44 143V159V143Z"></path>
<rect fill="#D9D9D9" rx="0.5" height="1" width="4" y="147" x="34"></rect>
<rect fill="#D9D9D9" rx="0.5" height="1" width="4" y="149" x="34"></rect>
<rect fill="#D9D9D9" rx="0.5" height="1" width="8" y="151" x="34"></rect>
<rect fill="#D9D9D9" rx="0.5" height="3" width="3" y="147" x="39"></rect>
<rect fill="#D9D9D9" rx="0.5" height="1" width="8" y="153" x="34"></rect>
<path fill="white" d="M59.322 147.355C60.136 147.355 60.8473 147.513 61.456 147.828C62.072 148.136 62.545 148.583 62.875 149.17C63.2123 149.749 63.381 150.428 63.381 151.205C63.381 151.982 63.2123 152.657 62.875 153.229C62.545 153.801 62.072 154.241 61.456 154.549C60.8473 154.85 60.136 155 59.322 155H56.825V147.355H59.322ZM59.322 153.977C60.2167 153.977 60.9023 153.735 61.379 153.251C61.8557 152.767 62.094 152.085 62.094 151.205C62.094 150.318 61.8557 149.625 61.379 149.126C60.9023 148.627 60.2167 148.378 59.322 148.378H58.079V153.977H59.322ZM67.2528 155.099C66.6808 155.099 66.1638 154.971 65.7018 154.714C65.2398 154.45 64.8768 154.083 64.6128 153.614C64.3488 153.137 64.2168 152.587 64.2168 151.964C64.2168 151.348 64.3525 150.802 64.6238 150.325C64.8952 149.848 65.2655 149.482 65.7348 149.225C66.2042 148.968 66.7285 148.84 67.3078 148.84C67.8872 148.84 68.4115 148.968 68.8808 149.225C69.3502 149.482 69.7205 149.848 69.9918 150.325C70.2632 150.802 70.3988 151.348 70.3988 151.964C70.3988 152.58 70.2595 153.126 69.9808 153.603C69.7022 154.08 69.3208 154.45 68.8368 154.714C68.3602 154.971 67.8322 155.099 67.2528 155.099ZM67.2528 154.01C67.5755 154.01 67.8762 153.933 68.1548 153.779C68.4408 153.625 68.6718 153.394 68.8478 153.086C69.0238 152.778 69.1118 152.404 69.1118 151.964C69.1118 151.524 69.0275 151.154 68.8588 150.853C68.6902 150.545 68.4665 150.314 68.1878 150.16C67.9092 150.006 67.6085 149.929 67.2858 149.929C66.9632 149.929 66.6625 150.006 66.3838 150.16C66.1125 150.314 65.8962 150.545 65.7348 150.853C65.5735 151.154 65.4928 151.524 65.4928 151.964C65.4928 152.617 65.6578 153.123 65.9878 153.482C66.3252 153.834 66.7468 154.01 67.2528 154.01ZM71.2205 151.964C71.2205 151.341 71.3451 150.794 71.5945 150.325C71.8511 149.848 72.2031 149.482 72.6505 149.225C73.0978 148.968 73.6111 148.84 74.1905 148.84C74.9238 148.84 75.5288 149.016 76.0055 149.368C76.4895 149.713 76.8158 150.208 76.9845 150.853H75.6315C75.5215 150.552 75.3455 150.318 75.1035 150.149C74.8615 149.98 74.5571 149.896 74.1905 149.896C73.6771 149.896 73.2665 150.079 72.9585 150.446C72.6578 150.805 72.5075 151.311 72.5075 151.964C72.5075 152.617 72.6578 153.126 72.9585 153.493C73.2665 153.86 73.6771 154.043 74.1905 154.043C74.9165 154.043 75.3968 153.724 75.6315 153.086H76.9845C76.8085 153.702 76.4785 154.193 75.9945 154.56C75.5105 154.919 74.9091 155.099 74.1905 155.099C73.6111 155.099 73.0978 154.971 72.6505 154.714C72.2031 154.45 71.8511 154.083 71.5945 153.614C71.3451 153.137 71.2205 152.587 71.2205 151.964ZM83.7232 148.939V155H82.4692V154.285C82.2712 154.534 82.0108 154.732 81.6882 154.879C81.3728 155.018 81.0355 155.088 80.6762 155.088C80.1995 155.088 79.7705 154.989 79.3892 154.791C79.0152 154.593 78.7182 154.3 78.4982 153.911C78.2855 153.522 78.1792 153.053 78.1792 152.503V148.939H79.4222V152.316C79.4222 152.859 79.5578 153.277 79.8292 153.57C80.1005 153.856 80.4708 153.999 80.9402 153.999C81.4095 153.999 81.7798 153.856 82.0512 153.57C82.3298 153.277 82.4692 152.859 82.4692 152.316V148.939H83.7232ZM92.7147 148.84C93.1914 148.84 93.6167 148.939 93.9907 149.137C94.3721 149.335 94.6691 149.628 94.8817 150.017C95.1017 150.406 95.2117 150.875 95.2117 151.425V155H93.9687V151.612C93.9687 151.069 93.8331 150.655 93.5617 150.369C93.2904 150.076 92.9201 149.929 92.4507 149.929C91.9814 149.929 91.6074 150.076 91.3287 150.369C91.0574 150.655 90.9217 151.069 90.9217 151.612V155H89.6787V151.612C89.6787 151.069 89.5431 150.655 89.2717 150.369C89.0004 150.076 88.6301 149.929 88.1607 149.929C87.6914 149.929 87.3174 150.076 87.0387 150.369C86.7674 150.655 86.6317 151.069 86.6317 151.612V155H85.3777V148.939H86.6317V149.632C86.8371 149.383 87.0974 149.188 87.4127 149.049C87.7281 148.91 88.0654 148.84 88.4247 148.84C88.9087 148.84 89.3414 148.943 89.7227 149.148C90.1041 149.353 90.3974 149.65 90.6027 150.039C90.7861 149.672 91.0721 149.383 91.4607 149.17C91.8494 148.95 92.2674 148.84 92.7147 148.84ZM102.362 151.821C102.362 152.048 102.348 152.254 102.318 152.437H97.6874C97.7241 152.921 97.9038 153.31 98.2264 153.603C98.5491 153.896 98.9451 154.043 99.4144 154.043C100.089 154.043 100.566 153.761 100.844 153.196H102.197C102.014 153.753 101.68 154.212 101.196 154.571C100.72 154.923 100.126 155.099 99.4144 155.099C98.8351 155.099 98.3144 154.971 97.8524 154.714C97.3978 154.45 97.0384 154.083 96.7744 153.614C96.5178 153.137 96.3894 152.587 96.3894 151.964C96.3894 151.341 96.5141 150.794 96.7634 150.325C97.0201 149.848 97.3758 149.482 97.8304 149.225C98.2924 148.968 98.8204 148.84 99.4144 148.84C99.9864 148.84 100.496 148.965 100.943 149.214C101.391 149.463 101.739 149.815 101.988 150.27C102.238 150.717 102.362 151.234 102.362 151.821ZM101.053 151.425C101.046 150.963 100.881 150.593 100.558 150.314C100.236 150.035 99.8361 149.896 99.3594 149.896C98.9268 149.896 98.5564 150.035 98.2484 150.314C97.9404 150.585 97.7571 150.956 97.6984 151.425H101.053ZM106.654 148.84C107.131 148.84 107.556 148.939 107.93 149.137C108.312 149.335 108.609 149.628 108.821 150.017C109.034 150.406 109.14 150.875 109.14 151.425V155H107.897V151.612C107.897 151.069 107.762 150.655 107.49 150.369C107.219 150.076 106.849 149.929 106.379 149.929C105.91 149.929 105.536 150.076 105.257 150.369C104.986 150.655 104.85 151.069 104.85 151.612V155H103.596V148.939H104.85V149.632C105.056 149.383 105.316 149.188 105.631 149.049C105.954 148.91 106.295 148.84 106.654 148.84ZM112.203 149.962V153.317C112.203 153.544 112.254 153.709 112.357 153.812C112.467 153.907 112.65 153.955 112.907 153.955H113.677V155H112.687C112.122 155 111.69 154.868 111.389 154.604C111.088 154.34 110.938 153.911 110.938 153.317V149.962H110.223V148.939H110.938V147.432H112.203V148.939H113.677V149.962H112.203ZM117.033 155.099C116.556 155.099 116.127 155.015 115.746 154.846C115.372 154.67 115.075 154.435 114.855 154.142C114.635 153.841 114.517 153.508 114.503 153.141H115.801C115.823 153.398 115.944 153.614 116.164 153.79C116.391 153.959 116.673 154.043 117.011 154.043C117.363 154.043 117.634 153.977 117.825 153.845C118.023 153.706 118.122 153.53 118.122 153.317C118.122 153.09 118.012 152.921 117.792 152.811C117.579 152.701 117.238 152.58 116.769 152.448C116.314 152.323 115.944 152.202 115.658 152.085C115.372 151.968 115.122 151.788 114.91 151.546C114.704 151.304 114.602 150.985 114.602 150.589C114.602 150.266 114.697 149.973 114.888 149.709C115.078 149.438 115.35 149.225 115.702 149.071C116.061 148.917 116.472 148.84 116.934 148.84C117.623 148.84 118.177 149.016 118.595 149.368C119.02 149.713 119.247 150.186 119.277 150.787H118.023C118.001 150.516 117.891 150.299 117.693 150.138C117.495 149.977 117.227 149.896 116.89 149.896C116.56 149.896 116.307 149.958 116.131 150.083C115.955 150.208 115.867 150.373 115.867 150.578C115.867 150.739 115.925 150.875 116.043 150.985C116.16 151.095 116.303 151.183 116.472 151.249C116.64 151.308 116.89 151.385 117.22 151.48C117.66 151.597 118.019 151.718 118.298 151.843C118.584 151.96 118.829 152.136 119.035 152.371C119.24 152.606 119.346 152.917 119.354 153.306C119.354 153.651 119.258 153.959 119.068 154.23C118.877 154.501 118.606 154.714 118.254 154.868C117.909 155.022 117.502 155.099 117.033 155.099Z"></path>
<mask fill="white" id="path-21-inside-2_642_184">
<path d="M31 176C31 174.895 31.8954 174 33 174H43C44.1046 174 45 174.895 45 176V186C45 187.105 44.1046 188 43 188H33C31.8954 188 31 187.105 31 186V176Z"></path>
</mask>
<path fill="url(#paint2_linear_642_184)" d="M31 176C31 174.895 31.8954 174 33 174H43C44.1046 174 45 174.895 45 176V186C45 187.105 44.1046 188 43 188H33C31.8954 188 31 187.105 31 186V176Z"></path>
<path mask="url(#path-21-inside-2_642_184)" fill-opacity="0.25" fill="white" d="M31 176C31 174.343 32.3431 173 34 173H42C43.6569 173 45 174.343 45 176C45 175.448 44.1046 175 43 175H33C31.8954 175 31 175.448 31 176ZM45 188H31H45ZM31 188V174V188ZM45 174V188V174Z"></path>
<path fill="white" d="M37.2929 181.707C37.6834 181.317 38.3166 181.317 38.7071 181.707L43.1464 186.146C43.4614 186.461 43.2383 187 42.7929 187H33.2071C32.7617 187 32.5386 186.461 32.8536 186.146L37.2929 181.707Z"></path>
<rect fill="white" rx="1.5" height="3" width="3" y="176" x="40"></rect>
<path fill="white" d="M60.171 179.632C60.171 180.021 60.0793 180.387 59.896 180.732C59.7127 181.077 59.4193 181.359 59.016 181.579C58.6127 181.792 58.0957 181.898 57.465 181.898H56.079V185H54.825V177.355H57.465C58.0517 177.355 58.5467 177.458 58.95 177.663C59.3607 177.861 59.665 178.132 59.863 178.477C60.0683 178.822 60.171 179.207 60.171 179.632ZM57.465 180.875C57.9417 180.875 58.2973 180.769 58.532 180.556C58.7667 180.336 58.884 180.028 58.884 179.632C58.884 178.796 58.411 178.378 57.465 178.378H56.079V180.875H57.465ZM62.005 178.136C61.7777 178.136 61.587 178.059 61.433 177.905C61.279 177.751 61.202 177.56 61.202 177.333C61.202 177.106 61.279 176.915 61.433 176.761C61.587 176.607 61.7777 176.53 62.005 176.53C62.225 176.53 62.412 176.607 62.566 176.761C62.72 176.915 62.797 177.106 62.797 177.333C62.797 177.56 62.72 177.751 62.566 177.905C62.412 178.059 62.225 178.136 62.005 178.136ZM62.621 178.939V185H61.367V178.939H62.621ZM63.8494 181.964C63.8494 181.341 63.974 180.794 64.2234 180.325C64.48 179.848 64.832 179.482 65.2794 179.225C65.7267 178.968 66.24 178.84 66.8194 178.84C67.5527 178.84 68.1577 179.016 68.6344 179.368C69.1184 179.713 69.4447 180.208 69.6134 180.853H68.2604C68.1504 180.552 67.9744 180.318 67.7324 180.149C67.4904 179.98 67.186 179.896 66.8194 179.896C66.306 179.896 65.8954 180.079 65.5874 180.446C65.2867 180.805 65.1364 181.311 65.1364 181.964C65.1364 182.617 65.2867 183.126 65.5874 183.493C65.8954 183.86 66.306 184.043 66.8194 184.043C67.5454 184.043 68.0257 183.724 68.2604 183.086H69.6134C69.4374 183.702 69.1074 184.193 68.6234 184.56C68.1394 184.919 67.538 185.099 66.8194 185.099C66.24 185.099 65.7267 184.971 65.2794 184.714C64.832 184.45 64.48 184.083 64.2234 183.614C63.974 183.137 63.8494 182.587 63.8494 181.964ZM72.3261 179.962V183.317C72.3261 183.544 72.3774 183.709 72.4801 183.812C72.5901 183.907 72.7734 183.955 73.0301 183.955H73.8001V185H72.8101C72.2454 185 71.8128 184.868 71.5121 184.604C71.2114 184.34 71.0611 183.911 71.0611 183.317V179.962H70.3461V178.939H71.0611V177.432H72.3261V178.939H73.8001V179.962H72.3261ZM80.4449 178.939V185H79.1909V184.285C78.9929 184.534 78.7325 184.732 78.4099 184.879C78.0945 185.018 77.7572 185.088 77.3979 185.088C76.9212 185.088 76.4922 184.989 76.1109 184.791C75.7369 184.593 75.4399 184.3 75.2199 183.911C75.0072 183.522 74.9009 183.053 74.9009 182.503V178.939H76.1439V182.316C76.1439 182.859 76.2795 183.277 76.5509 183.57C76.8222 183.856 77.1925 183.999 77.6619 183.999C78.1312 183.999 78.5015 183.856 78.7729 183.57C79.0515 183.277 79.1909 182.859 79.1909 182.316V178.939H80.4449ZM83.3534 179.819C83.5367 179.511 83.7787 179.273 84.0794 179.104C84.3874 178.928 84.7504 178.84 85.1684 178.84V180.138H84.8494C84.3581 180.138 83.9841 180.263 83.7274 180.512C83.4781 180.761 83.3534 181.194 83.3534 181.81V185H82.0994V178.939H83.3534V179.819ZM91.8761 181.821C91.8761 182.048 91.8614 182.254 91.8321 182.437H87.2011C87.2378 182.921 87.4174 183.31 87.7401 183.603C88.0628 183.896 88.4588 184.043 88.9281 184.043C89.6028 184.043 90.0794 183.761 90.3581 183.196H91.7111C91.5278 183.753 91.1941 184.212 90.7101 184.571C90.2334 184.923 89.6394 185.099 88.9281 185.099C88.3488 185.099 87.8281 184.971 87.3661 184.714C86.9114 184.45 86.5521 184.083 86.2881 183.614C86.0314 183.137 85.9031 182.587 85.9031 181.964C85.9031 181.341 86.0278 180.794 86.2771 180.325C86.5338 179.848 86.8894 179.482 87.3441 179.225C87.8061 178.968 88.3341 178.84 88.9281 178.84C89.5001 178.84 90.0098 178.965 90.4571 179.214C90.9044 179.463 91.2528 179.815 91.5021 180.27C91.7514 180.717 91.8761 181.234 91.8761 181.821ZM90.5671 181.425C90.5598 180.963 90.3948 180.593 90.0721 180.314C89.7494 180.035 89.3498 179.896 88.8731 179.896C88.4404 179.896 88.0701 180.035 87.7621 180.314C87.4541 180.585 87.2708 180.956 87.2121 181.425H90.5671ZM95.3102 185.099C94.8335 185.099 94.4045 185.015 94.0232 184.846C93.6492 184.67 93.3522 184.435 93.1322 184.142C92.9122 183.841 92.7948 183.508 92.7802 183.141H94.0782C94.1002 183.398 94.2212 183.614 94.4412 183.79C94.6685 183.959 94.9508 184.043 95.2882 184.043C95.6402 184.043 95.9115 183.977 96.1022 183.845C96.3002 183.706 96.3992 183.53 96.3992 183.317C96.3992 183.09 96.2892 182.921 96.0692 182.811C95.8565 182.701 95.5155 182.58 95.0462 182.448C94.5915 182.323 94.2212 182.202 93.9352 182.085C93.6492 181.968 93.3998 181.788 93.1872 181.546C92.9818 181.304 92.8792 180.985 92.8792 180.589C92.8792 180.266 92.9745 179.973 93.1652 179.709C93.3558 179.438 93.6272 179.225 93.9792 179.071C94.3385 178.917 94.7492 178.84 95.2112 178.84C95.9005 178.84 96.4542 179.016 96.8722 179.368C97.2975 179.713 97.5248 180.186 97.5542 180.787H96.3002C96.2782 180.516 96.1682 180.299 95.9702 180.138C95.7722 179.977 95.5045 179.896 95.1672 179.896C94.8372 179.896 94.5842 179.958 94.4082 180.083C94.2322 180.208 94.1442 180.373 94.1442 180.578C94.1442 180.739 94.2028 180.875 94.3202 180.985C94.4375 181.095 94.5805 181.183 94.7492 181.249C94.9178 181.308 95.1672 181.385 95.4972 181.48C95.9372 181.597 96.2965 181.718 96.5752 181.843C96.8612 181.96 97.1068 182.136 97.3122 182.371C97.5175 182.606 97.6238 182.917 97.6312 183.306C97.6312 183.651 97.5358 183.959 97.3452 184.23C97.1545 184.501 96.8832 184.714 96.5312 184.868C96.1865 185.022 95.7795 185.099 95.3102 185.099Z"></path>
<mask fill="white" id="path-26-inside-3_642_184">
<path d="M30 211C30 206.582 33.5817 203 38 203V203C42.4183 203 46 206.582 46 211V211C46 215.418 42.4183 219 38 219V219C33.5817 219 30 215.418 30 211V211Z"></path>
</mask>
<path fill="url(#paint3_linear_642_184)" d="M30 211C30 206.582 33.5817 203 38 203V203C42.4183 203 46 206.582 46 211V211C46 215.418 42.4183 219 38 219V219C33.5817 219 30 215.418 30 211V211Z"></path>
<path mask="url(#path-26-inside-3_642_184)" fill-opacity="0.25" fill="white" d="M30 210C30 205.582 33.5817 202 38 202C42.4183 202 46 205.582 46 210V211C46 207.134 42.4183 204 38 204C33.5817 204 30 207.134 30 211V210ZM46 219H30H46ZM30 219V203V219ZM46 203V219V203Z"></path>
<path fill="white" d="M35 214C35 212.895 35.8954 212 37 212V212C38.1046 212 39 212.895 39 214V214C39 215.105 38.1046 216 37 216V216C35.8954 216 35 215.105 35 214V214Z"></path>
<path fill="white" d="M38 206.894C38 206.4 38.4004 206 38.8944 206V206C38.9639 206 39.0323 206.016 39.0944 206.047L40.7236 206.862C40.893 206.946 41 207.12 41 207.309V208.191C41 208.563 40.6088 208.804 40.2764 208.638L39.7236 208.362C39.3912 208.196 39 208.437 39 208.809V214H38V206.894Z"></path>
<path fill="white" d="M62.877 207.355V215H61.623V209.764L59.291 215H58.422L56.079 209.764V215H54.825V207.355H56.178L58.862 213.35L61.535 207.355H62.877ZM70.0142 208.939V215H68.7602V214.285C68.5622 214.534 68.3019 214.732 67.9792 214.879C67.6639 215.018 67.3265 215.088 66.9672 215.088C66.4905 215.088 66.0615 214.989 65.6802 214.791C65.3062 214.593 65.0092 214.3 64.7892 213.911C64.5765 213.522 64.4702 213.053 64.4702 212.503V208.939H65.7132V212.316C65.7132 212.859 65.8489 213.277 66.1202 213.57C66.3915 213.856 66.7619 213.999 67.2312 213.999C67.7005 213.999 68.0709 213.856 68.3422 213.57C68.6209 213.277 68.7602 212.859 68.7602 212.316V208.939H70.0142ZM73.8688 215.099C73.3921 215.099 72.9631 215.015 72.5818 214.846C72.2078 214.67 71.9108 214.435 71.6908 214.142C71.4708 213.841 71.3534 213.508 71.3388 213.141H72.6368C72.6588 213.398 72.7798 213.614 72.9998 213.79C73.2271 213.959 73.5094 214.043 73.8468 214.043C74.1988 214.043 74.4701 213.977 74.6608 213.845C74.8588 213.706 74.9578 213.53 74.9578 213.317C74.9578 213.09 74.8478 212.921 74.6278 212.811C74.4151 212.701 74.0741 212.58 73.6048 212.448C73.1501 212.323 72.7798 212.202 72.4938 212.085C72.2078 211.968 71.9584 211.788 71.7458 211.546C71.5404 211.304 71.4378 210.985 71.4378 210.589C71.4378 210.266 71.5331 209.973 71.7238 209.709C71.9144 209.438 72.1858 209.225 72.5378 209.071C72.8971 208.917 73.3078 208.84 73.7698 208.84C74.4591 208.84 75.0128 209.016 75.4308 209.368C75.8561 209.713 76.0834 210.186 76.1128 210.787H74.8588C74.8368 210.516 74.7268 210.299 74.5288 210.138C74.3308 209.977 74.0631 209.896 73.7258 209.896C73.3958 209.896 73.1428 209.958 72.9668 210.083C72.7908 210.208 72.7028 210.373 72.7028 210.578C72.7028 210.739 72.7614 210.875 72.8788 210.985C72.9961 211.095 73.1391 211.183 73.3078 211.249C73.4764 211.308 73.7258 211.385 74.0558 211.48C74.4958 211.597 74.8551 211.718 75.1338 211.843C75.4198 211.96 75.6654 212.136 75.8708 212.371C76.0761 212.606 76.1824 212.917 76.1898 213.306C76.1898 213.651 76.0944 213.959 75.9038 214.23C75.7131 214.501 75.4418 214.714 75.0898 214.868C74.7451 215.022 74.3381 215.099 73.8688 215.099ZM78.1827 208.136C77.9554 208.136 77.7647 208.059 77.6107 207.905C77.4567 207.751 77.3797 207.56 77.3797 207.333C77.3797 207.106 77.4567 206.915 77.6107 206.761C77.7647 206.607 77.9554 206.53 78.1827 206.53C78.4027 206.53 78.5897 206.607 78.7437 206.761C78.8977 206.915 78.9747 207.106 78.9747 207.333C78.9747 207.56 78.8977 207.751 78.7437 207.905C78.5897 208.059 78.4027 208.136 78.1827 208.136ZM78.7987 208.939V215H77.5447V208.939H78.7987ZM80.0271 211.964C80.0271 211.341 80.1518 210.794 80.4011 210.325C80.6578 209.848 81.0098 209.482 81.4571 209.225C81.9045 208.968 82.4178 208.84 82.9971 208.84C83.7305 208.84 84.3355 209.016 84.8121 209.368C85.2961 209.713 85.6225 210.208 85.7911 210.853H84.4381C84.3281 210.552 84.1521 210.318 83.9101 210.149C83.6681 209.98 83.3638 209.896 82.9971 209.896C82.4838 209.896 82.0731 210.079 81.7651 210.446C81.4645 210.805 81.3141 211.311 81.3141 211.964C81.3141 212.617 81.4645 213.126 81.7651 213.493C82.0731 213.86 82.4838 214.043 82.9971 214.043C83.7231 214.043 84.2035 213.724 84.4381 213.086H85.7911C85.6151 213.702 85.2851 214.193 84.8011 214.56C84.3171 214.919 83.7158 215.099 82.9971 215.099C82.4178 215.099 81.9045 214.971 81.4571 214.714C81.0098 214.45 80.6578 214.083 80.4011 213.614C80.1518 213.137 80.0271 212.587 80.0271 211.964Z"></path>
<rect fill="url(#paint4_linear_642_184)" rx="1" height="12" width="2" y="233" x="37"></rect>
<rect fill="url(#paint5_linear_642_184)" transform="rotate(-90 32 249)" rx="1" height="12" width="2" y="249" x="32"></rect>
<path fill="url(#paint6_linear_642_184)" d="M33.7569 241.207C33.3664 240.817 33.3664 240.183 33.7569 239.793V239.793C34.1474 239.402 34.7806 239.402 35.1711 239.793L37.9996 242.621L40.828 239.793C41.2185 239.402 41.8517 239.402 42.2422 239.793V239.793C42.6327 240.183 42.6327 240.817 42.2422 241.207L38.7067 244.743C38.3161 245.133 37.683 245.133 37.2924 244.743L33.7569 241.207Z"></path>
<path fill="white" d="M57.322 237.355C58.136 237.355 58.8473 237.513 59.456 237.828C60.072 238.136 60.545 238.583 60.875 239.17C61.2123 239.749 61.381 240.428 61.381 241.205C61.381 241.982 61.2123 242.657 60.875 243.229C60.545 243.801 60.072 244.241 59.456 244.549C58.8473 244.85 58.136 245 57.322 245H54.825V237.355H57.322ZM57.322 243.977C58.2167 243.977 58.9023 243.735 59.379 243.251C59.8557 242.767 60.094 242.085 60.094 241.205C60.094 240.318 59.8557 239.625 59.379 239.126C58.9023 238.627 58.2167 238.378 57.322 238.378H56.079V243.977H57.322ZM65.2528 245.099C64.6808 245.099 64.1638 244.971 63.7018 244.714C63.2398 244.45 62.8768 244.083 62.6128 243.614C62.3488 243.137 62.2168 242.587 62.2168 241.964C62.2168 241.348 62.3525 240.802 62.6238 240.325C62.8952 239.848 63.2655 239.482 63.7348 239.225C64.2042 238.968 64.7285 238.84 65.3078 238.84C65.8872 238.84 66.4115 238.968 66.8808 239.225C67.3502 239.482 67.7205 239.848 67.9918 240.325C68.2632 240.802 68.3988 241.348 68.3988 241.964C68.3988 242.58 68.2595 243.126 67.9808 243.603C67.7022 244.08 67.3208 244.45 66.8368 244.714C66.3602 244.971 65.8322 245.099 65.2528 245.099ZM65.2528 244.01C65.5755 244.01 65.8762 243.933 66.1548 243.779C66.4408 243.625 66.6718 243.394 66.8478 243.086C67.0238 242.778 67.1118 242.404 67.1118 241.964C67.1118 241.524 67.0275 241.154 66.8588 240.853C66.6902 240.545 66.4665 240.314 66.1878 240.16C65.9092 240.006 65.6085 239.929 65.2858 239.929C64.9632 239.929 64.6625 240.006 64.3838 240.16C64.1125 240.314 63.8962 240.545 63.7348 240.853C63.5735 241.154 63.4928 241.524 63.4928 241.964C63.4928 242.617 63.6578 243.123 63.9878 243.482C64.3252 243.834 64.7468 244.01 65.2528 244.01ZM77.7785 238.939L75.8975 245H74.5775L73.3565 240.523L72.1355 245H70.8155L68.9235 238.939H70.1995L71.4645 243.812L72.7515 238.939H74.0605L75.2925 243.79L76.5465 238.939H77.7785ZM81.7736 238.84C82.2503 238.84 82.6756 238.939 83.0496 239.137C83.431 239.335 83.728 239.628 83.9406 240.017C84.1533 240.406 84.2596 240.875 84.2596 241.425V245H83.0166V241.612C83.0166 241.069 82.881 240.655 82.6096 240.369C82.3383 240.076 81.968 239.929 81.4986 239.929C81.0293 239.929 80.6553 240.076 80.3766 240.369C80.1053 240.655 79.9696 241.069 79.9696 241.612V245H78.7156V238.939H79.9696V239.632C80.175 239.383 80.4353 239.188 80.7506 239.049C81.0733 238.91 81.4143 238.84 81.7736 238.84ZM87.1132 236.86V245H85.8592V236.86H87.1132ZM91.3886 245.099C90.8166 245.099 90.2996 244.971 89.8376 244.714C89.3756 244.45 89.0126 244.083 88.7486 243.614C88.4846 243.137 88.3526 242.587 88.3526 241.964C88.3526 241.348 88.4882 240.802 88.7596 240.325C89.0309 239.848 89.4012 239.482 89.8706 239.225C90.3399 238.968 90.8642 238.84 91.4436 238.84C92.0229 238.84 92.5472 238.968 93.0166 239.225C93.4859 239.482 93.8562 239.848 94.1276 240.325C94.3989 240.802 94.5346 241.348 94.5346 241.964C94.5346 242.58 94.3952 243.126 94.1166 243.603C93.8379 244.08 93.4566 244.45 92.9726 244.714C92.4959 244.971 91.9679 245.099 91.3886 245.099ZM91.3886 244.01C91.7112 244.01 92.0119 243.933 92.2906 243.779C92.5766 243.625 92.8076 243.394 92.9836 243.086C93.1596 242.778 93.2476 242.404 93.2476 241.964C93.2476 241.524 93.1632 241.154 92.9946 240.853C92.8259 240.545 92.6022 240.314 92.3236 240.16C92.0449 240.006 91.7442 239.929 91.4216 239.929C91.0989 239.929 90.7982 240.006 90.5196 240.16C90.2482 240.314 90.0319 240.545 89.8706 240.853C89.7092 241.154 89.6286 241.524 89.6286 241.964C89.6286 242.617 89.7936 243.123 90.1236 243.482C90.4609 243.834 90.8826 244.01 91.3886 244.01ZM95.3562 241.942C95.3562 241.333 95.4809 240.794 95.7302 240.325C95.9869 239.856 96.3316 239.493 96.7642 239.236C97.2042 238.972 97.6882 238.84 98.2162 238.84C98.6929 238.84 99.1072 238.935 99.4592 239.126C99.8186 239.309 100.105 239.54 100.317 239.819V238.939H101.582V245H100.317V244.098C100.105 244.384 99.8149 244.622 99.4482 244.813C99.0816 245.004 98.6636 245.099 98.1942 245.099C97.6736 245.099 97.1969 244.967 96.7642 244.703C96.3316 244.432 95.9869 244.058 95.7302 243.581C95.4809 243.097 95.3562 242.551 95.3562 241.942ZM100.317 241.964C100.317 241.546 100.229 241.183 100.053 240.875C99.8846 240.567 99.6609 240.332 99.3822 240.171C99.1036 240.01 98.8029 239.929 98.4802 239.929C98.1576 239.929 97.8569 240.01 97.5782 240.171C97.2996 240.325 97.0722 240.556 96.8962 240.864C96.7276 241.165 96.6432 241.524 96.6432 241.942C96.6432 242.36 96.7276 242.727 96.8962 243.042C97.0722 243.357 97.2996 243.599 97.5782 243.768C97.8642 243.929 98.1649 244.01 98.4802 244.01C98.8029 244.01 99.1036 243.929 99.3822 243.768C99.6609 243.607 99.8846 243.372 100.053 243.064C100.229 242.749 100.317 242.382 100.317 241.964ZM102.811 241.942C102.811 241.333 102.936 240.794 103.185 240.325C103.442 239.856 103.787 239.493 104.219 239.236C104.659 238.972 105.147 238.84 105.682 238.84C106.078 238.84 106.467 238.928 106.848 239.104C107.237 239.273 107.545 239.5 107.772 239.786V236.86H109.037V245H107.772V244.087C107.567 244.38 107.281 244.622 106.914 244.813C106.555 245.004 106.141 245.099 105.671 245.099C105.143 245.099 104.659 244.967 104.219 244.703C103.787 244.432 103.442 244.058 103.185 243.581C102.936 243.097 102.811 242.551 102.811 241.942ZM107.772 241.964C107.772 241.546 107.684 241.183 107.508 240.875C107.34 240.567 107.116 240.332 106.837 240.171C106.559 240.01 106.258 239.929 105.935 239.929C105.613 239.929 105.312 240.01 105.033 240.171C104.755 240.325 104.527 240.556 104.351 240.864C104.183 241.165 104.098 241.524 104.098 241.942C104.098 242.36 104.183 242.727 104.351 243.042C104.527 243.357 104.755 243.599 105.033 243.768C105.319 243.929 105.62 244.01 105.935 244.01C106.258 244.01 106.559 243.929 106.837 243.768C107.116 243.607 107.34 243.372 107.508 243.064C107.684 242.749 107.772 242.382 107.772 241.964ZM112.884 245.099C112.408 245.099 111.979 245.015 111.597 244.846C111.223 244.67 110.926 244.435 110.706 244.142C110.486 243.841 110.369 243.508 110.354 243.141H111.652C111.674 243.398 111.795 243.614 112.015 243.79C112.243 243.959 112.525 244.043 112.862 244.043C113.214 244.043 113.486 243.977 113.676 243.845C113.874 243.706 113.973 243.53 113.973 243.317C113.973 243.09 113.863 242.921 113.643 242.811C113.431 242.701 113.09 242.58 112.62 242.448C112.166 242.323 111.795 242.202 111.509 242.085C111.223 241.968 110.974 241.788 110.761 241.546C110.556 241.304 110.453 240.985 110.453 240.589C110.453 240.266 110.549 239.973 110.739 239.709C110.93 239.438 111.201 239.225 111.553 239.071C111.913 238.917 112.323 238.84 112.785 238.84C113.475 238.84 114.028 239.016 114.446 239.368C114.872 239.713 115.099 240.186 115.128 240.787H113.874C113.852 240.516 113.742 240.299 113.544 240.138C113.346 239.977 113.079 239.896 112.741 239.896C112.411 239.896 112.158 239.958 111.982 240.083C111.806 240.208 111.718 240.373 111.718 240.578C111.718 240.739 111.777 240.875 111.894 240.985C112.012 241.095 112.155 241.183 112.323 241.249C112.492 241.308 112.741 241.385 113.071 241.48C113.511 241.597 113.871 241.718 114.149 241.843C114.435 241.96 114.681 242.136 114.886 242.371C115.092 242.606 115.198 242.917 115.205 243.306C115.205 243.651 115.11 243.959 114.919 244.23C114.729 244.501 114.457 244.714 114.105 244.868C113.761 245.022 113.354 245.099 112.884 245.099Z"></path>
<path fill="white" d="M61.414 267.355L58.543 275H57.091L54.209 267.355H55.551L57.817 273.713L60.094 267.355H61.414ZM63.1007 268.136C62.8734 268.136 62.6827 268.059 62.5287 267.905C62.3747 267.751 62.2977 267.56 62.2977 267.333C62.2977 267.106 62.3747 266.915 62.5287 266.761C62.6827 266.607 62.8734 266.53 63.1007 266.53C63.3207 266.53 63.5077 266.607 63.6617 266.761C63.8157 266.915 63.8927 267.106 63.8927 267.333C63.8927 267.56 63.8157 267.751 63.6617 267.905C63.5077 268.059 63.3207 268.136 63.1007 268.136ZM63.7167 268.939V275H62.4627V268.939H63.7167ZM64.9451 271.942C64.9451 271.333 65.0698 270.794 65.3191 270.325C65.5758 269.856 65.9204 269.493 66.3531 269.236C66.7931 268.972 67.2808 268.84 67.8161 268.84C68.2121 268.84 68.6008 268.928 68.9821 269.104C69.3708 269.273 69.6788 269.5 69.9061 269.786V266.86H71.1711V275H69.9061V274.087C69.7008 274.38 69.4148 274.622 69.0481 274.813C68.6888 275.004 68.2744 275.099 67.8051 275.099C67.2771 275.099 66.7931 274.967 66.3531 274.703C65.9204 274.432 65.5758 274.058 65.3191 273.581C65.0698 273.097 64.9451 272.551 64.9451 271.942ZM69.9061 271.964C69.9061 271.546 69.8181 271.183 69.6421 270.875C69.4734 270.567 69.2498 270.332 68.9711 270.171C68.6924 270.01 68.3918 269.929 68.0691 269.929C67.7464 269.929 67.4458 270.01 67.1671 270.171C66.8884 270.325 66.6611 270.556 66.4851 270.864C66.3164 271.165 66.2321 271.524 66.2321 271.942C66.2321 272.36 66.3164 272.727 66.4851 273.042C66.6611 273.357 66.8884 273.599 67.1671 273.768C67.4531 273.929 67.7538 274.01 68.0691 274.01C68.3918 274.01 68.6924 273.929 68.9711 273.768C69.2498 273.607 69.4734 273.372 69.6421 273.064C69.8181 272.749 69.9061 272.382 69.9061 271.964ZM78.3732 271.821C78.3732 272.048 78.3585 272.254 78.3292 272.437H73.6982C73.7348 272.921 73.9145 273.31 74.2372 273.603C74.5598 273.896 74.9558 274.043 75.4252 274.043C76.0998 274.043 76.5765 273.761 76.8552 273.196H78.2082C78.0248 273.753 77.6912 274.212 77.2072 274.571C76.7305 274.923 76.1365 275.099 75.4252 275.099C74.8458 275.099 74.3252 274.971 73.8632 274.714C73.4085 274.45 73.0492 274.083 72.7852 273.614C72.5285 273.137 72.4002 272.587 72.4002 271.964C72.4002 271.341 72.5248 270.794 72.7742 270.325C73.0308 269.848 73.3865 269.482 73.8412 269.225C74.3032 268.968 74.8312 268.84 75.4252 268.84C75.9972 268.84 76.5068 268.965 76.9542 269.214C77.4015 269.463 77.7498 269.815 77.9992 270.27C78.2485 270.717 78.3732 271.234 78.3732 271.821ZM77.0642 271.425C77.0568 270.963 76.8918 270.593 76.5692 270.314C76.2465 270.035 75.8468 269.896 75.3702 269.896C74.9375 269.896 74.5672 270.035 74.2592 270.314C73.9512 270.585 73.7678 270.956 73.7092 271.425H77.0642ZM82.2362 275.099C81.6642 275.099 81.1472 274.971 80.6852 274.714C80.2232 274.45 79.8602 274.083 79.5962 273.614C79.3322 273.137 79.2002 272.587 79.2002 271.964C79.2002 271.348 79.3359 270.802 79.6072 270.325C79.8786 269.848 80.2489 269.482 80.7182 269.225C81.1876 268.968 81.7119 268.84 82.2912 268.84C82.8706 268.84 83.3949 268.968 83.8642 269.225C84.3336 269.482 84.7039 269.848 84.9752 270.325C85.2466 270.802 85.3822 271.348 85.3822 271.964C85.3822 272.58 85.2429 273.126 84.9642 273.603C84.6856 274.08 84.3042 274.45 83.8202 274.714C83.3436 274.971 82.8156 275.099 82.2362 275.099ZM82.2362 274.01C82.5589 274.01 82.8596 273.933 83.1382 273.779C83.4242 273.625 83.6552 273.394 83.8312 273.086C84.0072 272.778 84.0952 272.404 84.0952 271.964C84.0952 271.524 84.0109 271.154 83.8422 270.853C83.6736 270.545 83.4499 270.314 83.1712 270.16C82.8926 270.006 82.5919 269.929 82.2692 269.929C81.9466 269.929 81.6459 270.006 81.3672 270.16C81.0959 270.314 80.8796 270.545 80.7182 270.853C80.5569 271.154 80.4762 271.524 80.4762 271.964C80.4762 272.617 80.6412 273.123 80.9712 273.482C81.3086 273.834 81.7302 274.01 82.2362 274.01ZM88.8219 275.099C88.3452 275.099 87.9162 275.015 87.5349 274.846C87.1609 274.67 86.8639 274.435 86.6439 274.142C86.4239 273.841 86.3065 273.508 86.2919 273.141H87.5899C87.6119 273.398 87.7329 273.614 87.9529 273.79C88.1802 273.959 88.4625 274.043 88.7999 274.043C89.1519 274.043 89.4232 273.977 89.6139 273.845C89.8119 273.706 89.9109 273.53 89.9109 273.317C89.9109 273.09 89.8009 272.921 89.5809 272.811C89.3682 272.701 89.0272 272.58 88.5579 272.448C88.1032 272.323 87.7329 272.202 87.4469 272.085C87.1609 271.968 86.9115 271.788 86.6989 271.546C86.4935 271.304 86.3909 270.985 86.3909 270.589C86.3909 270.266 86.4862 269.973 86.6769 269.709C86.8675 269.438 87.1389 269.225 87.4909 269.071C87.8502 268.917 88.2609 268.84 88.7229 268.84C89.4122 268.84 89.9659 269.016 90.3839 269.368C90.8092 269.713 91.0365 270.186 91.0659 270.787H89.8119C89.7899 270.516 89.6799 270.299 89.4819 270.138C89.2839 269.977 89.0162 269.896 88.6789 269.896C88.3489 269.896 88.0959 269.958 87.9199 270.083C87.7439 270.208 87.6559 270.373 87.6559 270.578C87.6559 270.739 87.7145 270.875 87.8319 270.985C87.9492 271.095 88.0922 271.183 88.2609 271.249C88.4295 271.308 88.6789 271.385 89.0089 271.48C89.4489 271.597 89.8082 271.718 90.0869 271.843C90.3729 271.96 90.6185 272.136 90.8239 272.371C91.0292 272.606 91.1355 272.917 91.1429 273.306C91.1429 273.651 91.0475 273.959 90.8569 274.23C90.6662 274.501 90.3949 274.714 90.0429 274.868C89.6982 275.022 89.2912 275.099 88.8219 275.099Z"></path>
<mask fill="white" id="path-36-inside-4_642_184">
<path d="M31 265C31 263.895 31.8954 263 33 263H43C44.1046 263 45 263.895 45 265V277C45 278.105 44.1046 279 43 279H33C31.8954 279 31 278.105 31 277V265Z"></path>
</mask>
<path fill="url(#paint7_linear_642_184)" d="M31 265C31 263.895 31.8954 263 33 263H43C44.1046 263 45 263.895 45 265V277C45 278.105 44.1046 279 43 279H33C31.8954 279 31 278.105 31 277V265Z"></path>
<path mask="url(#path-36-inside-4_642_184)" fill-opacity="0.25" fill="white" d="M31 265C31 263.343 32.3431 262 34 262H42C43.6569 262 45 263.343 45 265C45 264.448 44.1046 264 43 264H33C31.8954 264 31 264.448 31 265ZM45 279H31H45ZM31 279V263V279ZM45 263V279V263Z"></path>
<path fill-opacity="0.5" fill="black" d="M32 267C32 266.448 32.4477 266 33 266V266C33.5523 266 34 266.448 34 267V267C34 267.552 33.5523 268 33 268V268C32.4477 268 32 267.552 32 267V267Z"></path>
<path fill-opacity="0.5" fill="black" d="M32 271C32 270.448 32.4477 270 33 270V270C33.5523 270 34 270.448 34 271V271C34 271.552 33.5523 272 33 272V272C32.4477 272 32 271.552 32 271V271Z"></path>
<path fill-opacity="0.5" fill="black" d="M32 275C32 274.448 32.4477 274 33 274V274C33.5523 274 34 274.448 34 275V275C34 275.552 33.5523 276 33 276V276C32.4477 276 32 275.552 32 275V275Z"></path>
<path fill-opacity="0.5" fill="black" d="M42 275C42 274.448 42.4477 274 43 274V274C43.5523 274 44 274.448 44 275V275C44 275.552 43.5523 276 43 276V276C42.4477 276 42 275.552 42 275V275Z"></path>
<path fill-opacity="0.5" fill="black" d="M42 271C42 270.448 42.4477 270 43 270V270C43.5523 270 44 270.448 44 271V271C44 271.552 43.5523 272 43 272V272C42.4477 272 42 271.552 42 271V271Z"></path>
<path fill-opacity="0.5" fill="black" d="M42 267C42 266.448 42.4477 266 43 266V266C43.5523 266 44 266.448 44 267V267C44 267.552 43.5523 268 43 268V268C42.4477 268 42 267.552 42 267V267Z"></path>
<path fill-opacity="0.5" fill="black" d="M36 274.445V268.411C36 268.016 36.4356 267.777 36.7684 267.989L40.9168 270.629C41.2042 270.812 41.2286 271.222 40.965 271.438L36.8166 274.832C36.4902 275.099 36 274.867 36 274.445Z"></path>
<path fill="white" d="M36 273.589V268.411C36 268.016 36.4356 267.777 36.7684 267.989L40.8371 270.578C41.1459 270.775 41.1459 271.225 40.8371 271.422L36.7684 274.011C36.4356 274.223 36 273.984 36 273.589Z"></path>
<path fill="white" d="M56.079 303.988H58.664V305H54.825V297.355H56.079V303.988ZM62.3417 305.099C61.7697 305.099 61.2527 304.971 60.7907 304.714C60.3287 304.45 59.9657 304.083 59.7017 303.614C59.4377 303.137 59.3057 302.587 59.3057 301.964C59.3057 301.348 59.4414 300.802 59.7127 300.325C59.984 299.848 60.3544 299.482 60.8237 299.225C61.293 298.968 61.8174 298.84 62.3967 298.84C62.976 298.84 63.5004 298.968 63.9697 299.225C64.439 299.482 64.8094 299.848 65.0807 300.325C65.352 300.802 65.4877 301.348 65.4877 301.964C65.4877 302.58 65.3484 303.126 65.0697 303.603C64.791 304.08 64.4097 304.45 63.9257 304.714C63.449 304.971 62.921 305.099 62.3417 305.099ZM62.3417 304.01C62.6644 304.01 62.965 303.933 63.2437 303.779C63.5297 303.625 63.7607 303.394 63.9367 303.086C64.1127 302.778 64.2007 302.404 64.2007 301.964C64.2007 301.524 64.1164 301.154 63.9477 300.853C63.779 300.545 63.5554 300.314 63.2767 300.16C62.998 300.006 62.6974 299.929 62.3747 299.929C62.052 299.929 61.7514 300.006 61.4727 300.16C61.2014 300.314 60.985 300.545 60.8237 300.853C60.6624 301.154 60.5817 301.524 60.5817 301.964C60.5817 302.617 60.7467 303.123 61.0767 303.482C61.414 303.834 61.8357 304.01 62.3417 304.01ZM66.3093 301.964C66.3093 301.341 66.434 300.794 66.6833 300.325C66.94 299.848 67.292 299.482 67.7393 299.225C68.1867 298.968 68.7 298.84 69.2793 298.84C70.0127 298.84 70.6177 299.016 71.0943 299.368C71.5783 299.713 71.9047 300.208 72.0733 300.853H70.7203C70.6103 300.552 70.4343 300.318 70.1923 300.149C69.9503 299.98 69.646 299.896 69.2793 299.896C68.766 299.896 68.3553 300.079 68.0473 300.446C67.7467 300.805 67.5963 301.311 67.5963 301.964C67.5963 302.617 67.7467 303.126 68.0473 303.493C68.3553 303.86 68.766 304.043 69.2793 304.043C70.0053 304.043 70.4857 303.724 70.7203 303.086H72.0733C71.8973 303.702 71.5673 304.193 71.0833 304.56C70.5993 304.919 69.998 305.099 69.2793 305.099C68.7 305.099 68.1867 304.971 67.7393 304.714C67.292 304.45 66.94 304.083 66.6833 303.614C66.434 303.137 66.3093 302.587 66.3093 301.964ZM72.905 301.942C72.905 301.333 73.0297 300.794 73.279 300.325C73.5357 299.856 73.8804 299.493 74.313 299.236C74.753 298.972 75.237 298.84 75.765 298.84C76.2417 298.84 76.656 298.935 77.008 299.126C77.3674 299.309 77.6534 299.54 77.866 299.819V298.939H79.131V305H77.866V304.098C77.6534 304.384 77.3637 304.622 76.997 304.813C76.6304 305.004 76.2124 305.099 75.743 305.099C75.2224 305.099 74.7457 304.967 74.313 304.703C73.8804 304.432 73.5357 304.058 73.279 303.581C73.0297 303.097 72.905 302.551 72.905 301.942ZM77.866 301.964C77.866 301.546 77.778 301.183 77.602 300.875C77.4334 300.567 77.2097 300.332 76.931 300.171C76.6524 300.01 76.3517 299.929 76.029 299.929C75.7064 299.929 75.4057 300.01 75.127 300.171C74.8484 300.325 74.621 300.556 74.445 300.864C74.2764 301.165 74.192 301.524 74.192 301.942C74.192 302.36 74.2764 302.727 74.445 303.042C74.621 303.357 74.8484 303.599 75.127 303.768C75.413 303.929 75.7137 304.01 76.029 304.01C76.3517 304.01 76.6524 303.929 76.931 303.768C77.2097 303.607 77.4334 303.372 77.602 303.064C77.778 302.749 77.866 302.382 77.866 301.964ZM82.0321 296.86V305H80.7781V296.86H82.0321ZM86.1179 301.942C86.1179 301.333 86.2426 300.794 86.4919 300.325C86.7486 299.856 87.0933 299.493 87.5259 299.236C87.9659 298.972 88.4536 298.84 88.9889 298.84C89.3849 298.84 89.7736 298.928 90.1549 299.104C90.5436 299.273 90.8516 299.5 91.0789 299.786V296.86H92.3439V305H91.0789V304.087C90.8736 304.38 90.5876 304.622 90.2209 304.813C89.8616 305.004 89.4473 305.099 88.9779 305.099C88.4499 305.099 87.9659 304.967 87.5259 304.703C87.0933 304.432 86.7486 304.058 86.4919 303.581C86.2426 303.097 86.1179 302.551 86.1179 301.942ZM91.0789 301.964C91.0789 301.546 90.9909 301.183 90.8149 300.875C90.6463 300.567 90.4226 300.332 90.1439 300.171C89.8653 300.01 89.5646 299.929 89.2419 299.929C88.9193 299.929 88.6186 300.01 88.3399 300.171C88.0613 300.325 87.8339 300.556 87.6579 300.864C87.4893 301.165 87.4049 301.524 87.4049 301.942C87.4049 302.36 87.4893 302.727 87.6579 303.042C87.8339 303.357 88.0613 303.599 88.3399 303.768C88.6259 303.929 88.9266 304.01 89.2419 304.01C89.5646 304.01 89.8653 303.929 90.1439 303.768C90.4226 303.607 90.6463 303.372 90.8149 303.064C90.9909 302.749 91.0789 302.382 91.0789 301.964ZM94.629 298.136C94.4017 298.136 94.211 298.059 94.057 297.905C93.903 297.751 93.826 297.56 93.826 297.333C93.826 297.106 93.903 296.915 94.057 296.761C94.211 296.607 94.4017 296.53 94.629 296.53C94.849 296.53 95.036 296.607 95.19 296.761C95.344 296.915 95.421 297.106 95.421 297.333C95.421 297.56 95.344 297.751 95.19 297.905C95.036 298.059 94.849 298.136 94.629 298.136ZM95.245 298.939V305H93.991V298.939H95.245ZM99.0914 305.099C98.6147 305.099 98.1857 305.015 97.8044 304.846C97.4304 304.67 97.1334 304.435 96.9134 304.142C96.6934 303.841 96.5761 303.508 96.5614 303.141H97.8594C97.8814 303.398 98.0024 303.614 98.2224 303.79C98.4497 303.959 98.7321 304.043 99.0694 304.043C99.4214 304.043 99.6927 303.977 99.8834 303.845C100.081 303.706 100.18 303.53 100.18 303.317C100.18 303.09 100.07 302.921 99.8504 302.811C99.6377 302.701 99.2967 302.58 98.8274 302.448C98.3727 302.323 98.0024 302.202 97.7164 302.085C97.4304 301.968 97.1811 301.788 96.9684 301.546C96.7631 301.304 96.6604 300.985 96.6604 300.589C96.6604 300.266 96.7557 299.973 96.9464 299.709C97.1371 299.438 97.4084 299.225 97.7604 299.071C98.1197 298.917 98.5304 298.84 98.9924 298.84C99.6817 298.84 100.235 299.016 100.653 299.368C101.079 299.713 101.306 300.186 101.335 300.787H100.081C100.059 300.516 99.9494 300.299 99.7514 300.138C99.5534 299.977 99.2857 299.896 98.9484 299.896C98.6184 299.896 98.3654 299.958 98.1894 300.083C98.0134 300.208 97.9254 300.373 97.9254 300.578C97.9254 300.739 97.9841 300.875 98.1014 300.985C98.2187 301.095 98.3617 301.183 98.5304 301.249C98.6991 301.308 98.9484 301.385 99.2784 301.48C99.7184 301.597 100.078 301.718 100.356 301.843C100.642 301.96 100.888 302.136 101.093 302.371C101.299 302.606 101.405 302.917 101.412 303.306C101.412 303.651 101.317 303.959 101.126 304.23C100.936 304.501 100.664 304.714 100.312 304.868C99.9677 305.022 99.5607 305.099 99.0914 305.099ZM105.165 301.975L107.959 305H106.265L104.021 302.393V305H102.767V296.86H104.021V301.59L106.221 298.939H107.959L105.165 301.975Z"></path>
<path fill="url(#paint8_linear_642_184)" d="M31 303.414C31 303.149 31.1054 302.895 31.2929 302.707L33.7071 300.293C33.8946 300.105 34.149 300 34.4142 300H41.5858C41.851 300 42.1054 300.105 42.2929 300.293L44.7071 302.707C44.8946 302.895 45 303.149 45 303.414V305C45 306.105 44.1046 307 43 307H33C31.8954 307 31 306.105 31 305V303.414Z"></path>
<rect fill="url(#paint9_linear_642_184)" rx="1" height="3" width="12" y="303" x="32"></rect>
<path fill="#45F645" d="M32.75 304.5C32.75 304.086 33.0858 303.75 33.5 303.75V303.75C33.9142 303.75 34.25 304.086 34.25 304.5V304.5C34.25 304.914 33.9142 305.25 33.5 305.25V305.25C33.0858 305.25 32.75 304.914 32.75 304.5V304.5Z"></path>
<path fill="url(#paint10_linear_642_184)" d="M30 296C30 295.448 30.4477 295 31 295H33V298H30V296Z"></path>
<path fill="url(#paint11_linear_642_184)" d="M30 299H33V302H31C30.4477 302 30 301.552 30 301V299Z"></path>
<path fill="url(#paint12_linear_642_184)" d="M34 299H37V301C37 301.552 36.5523 302 36 302H34V299Z"></path>
<path fill="url(#paint13_linear_642_184)" d="M34 295H36C36.5523 295 37 295.448 37 296V298H34V295Z"></path>
<defs>
<linearGradient gradientUnits="userSpaceOnUse" y2="126" x2="36" y1="114" x1="20" id="paint0_linear_642_184">
<stop stop-color="#3AD9E3"></stop>
<stop stop-color="#0C76C1" offset="1"></stop>
</linearGradient>
<linearGradient gradientUnits="userSpaceOnUse" y2="159" x2="44" y1="143" x1="32" id="paint1_linear_642_184">
<stop stop-color="#B3C4D5"></stop>
<stop stop-color="#6D8AA8" offset="1"></stop>
</linearGradient>
<linearGradient gradientUnits="userSpaceOnUse" y2="188" x2="45" y1="174" x1="31" id="paint2_linear_642_184">
<stop stop-color="#1B9DE2"></stop>
<stop stop-color="#0669BC" offset="1"></stop>
</linearGradient>
<linearGradient gradientUnits="userSpaceOnUse" y2="216.5" x2="43.5" y1="205.5" x1="32.5" id="paint3_linear_642_184">
<stop stop-color="#ED875D"></stop>
<stop stop-color="#B16C9C" offset="1"></stop>
</linearGradient>
<linearGradient gradientUnits="userSpaceOnUse" y2="245" x2="38" y1="233" x1="38" id="paint4_linear_642_184">
<stop stop-color="#39CF8E"></stop>
<stop stop-color="#0AA2A1" offset="1"></stop>
</linearGradient>
<linearGradient gradientUnits="userSpaceOnUse" y2="261" x2="33" y1="249" x1="33" id="paint5_linear_642_184">
<stop stop-color="#39CF8E"></stop>
<stop stop-color="#0AA2A1" offset="1"></stop>
</linearGradient>
<linearGradient gradientUnits="userSpaceOnUse" y2="242.975" x2="40.4744" y1="238.025" x1="35.5247" id="paint6_linear_642_184">
<stop stop-color="#39CF8E"></stop>
<stop stop-color="#0AA2A1" offset="1"></stop>
</linearGradient>
<linearGradient gradientUnits="userSpaceOnUse" y2="279" x2="38" y1="263" x1="38" id="paint7_linear_642_184">
<stop stop-color="#B275F5"></stop>
<stop stop-color="#8E4BEB" offset="1"></stop>
</linearGradient>
<linearGradient gradientUnits="userSpaceOnUse" y2="299" x2="31" y1="307" x1="45" id="paint8_linear_642_184">
<stop stop-color="#A9A9A9"></stop>
<stop stop-color="#737374" offset="1"></stop>
</linearGradient>
<linearGradient gradientUnits="userSpaceOnUse" y2="306" x2="38" y1="303" x1="38" id="paint9_linear_642_184">
<stop stop-color="#333333"></stop>
<stop stop-color="#5A5A5A" offset="1"></stop>
</linearGradient>
<linearGradient gradientUnits="userSpaceOnUse" y2="302" x2="37" y1="295" x1="30" id="paint10_linear_642_184">
<stop stop-color="#26ACE9"></stop>
<stop stop-color="#037CD6" offset="1"></stop>
</linearGradient>
<linearGradient gradientUnits="userSpaceOnUse" y2="302" x2="37" y1="295" x1="30" id="paint11_linear_642_184">
<stop stop-color="#26ACE9"></stop>
<stop stop-color="#037CD6" offset="1"></stop>
</linearGradient>
<linearGradient gradientUnits="userSpaceOnUse" y2="302" x2="37" y1="295" x1="30" id="paint12_linear_642_184">
<stop stop-color="#26ACE9"></stop>
<stop stop-color="#037CD6" offset="1"></stop>
</linearGradient>
<linearGradient gradientUnits="userSpaceOnUse" y2="302" x2="37" y1="295" x1="30" id="paint13_linear_642_184">
<stop stop-color="#26ACE9"></stop>
<stop stop-color="#037CD6" offset="1"></stop>
</linearGradient>
</defs>
</svg>
