<svg version="1.1" xmlns="http://www.w3.org/2000/svg" xmlns:xlink="http://www.w3.org/1999/xlink" width="40" height="20" viewBox="0,0,40,20"><g transform="translate(-220,-167)"><g data-paper-data="{&quot;isPaintingLayer&quot;:true}" fill-rule="nonzero" stroke="none" stroke-width="1" stroke-linecap="butt" stroke-linejoin="miter" stroke-miterlimit="10" stroke-dasharray="" stroke-dashoffset="0" style="mix-blend-mode: normal"><path d="M220,187v-20h40v20z" fill="none"></path><path d="M243.624,171.66c0.888,0 1.664,0.172 2.328,0.516c0.672,0.336 1.188,0.824 1.548,1.464c0.368,0.632 0.552,1.372 0.552,2.22c0,0.848 -0.184,1.584 -0.552,2.208c-0.36,0.624 -0.876,1.104 -1.548,1.44c-0.664,0.328 -1.44,0.492 -2.328,0.492h-2.724v-8.34zM243.624,178.884c0.976,0 1.724,-0.264 2.244,-0.792c0.52,-0.528 0.78,-1.272 0.78,-2.232c0,-0.968 -0.26,-1.724 -0.78,-2.268c-0.52,-0.544 -1.268,-0.816 -2.244,-0.816h-1.356v6.108z" fill="#ff0000"></path></g></g></svg>