<svg xmlns="http://www.w3.org/2000/svg" fill="none" viewBox="0 0 120 40" height="40" width="120">
<path fill-opacity="0.9" fill="#1A1A1A" d="M5 10C5 7.23858 7.23858 5 10 5H30C32.7614 5 35 7.23858 35 10V30C35 32.7614 32.7614 35 30 35H10C7.23858 35 5 32.7614 5 30V10Z"></path>
<path stroke-width="2" stroke-opacity="0.2" stroke="white" d="M10 4C6.68629 4 4 6.68629 4 10V30C4 33.3137 6.68629 36 10 36H30C33.3137 36 36 33.3137 36 30V10C36 6.68629 33.3137 4 30 4H10Z"></path>
<path stroke-linejoin="round" stroke-linecap="round" stroke="#4DC2FF" d="M26.5 20.5L19.5 20.5M26.5 20.5L24.5 18.5M26.5 20.5L24.5 22.5M12.5 20.5L14.5 22.5M12.5 20.5L14.5 18.5M12.5 20.5L19.5 20.5M19.5 20.5L19.5 13.5M19.5 20.5L19.5 27.5M19.5 13.5L17.5 15.5M19.5 13.5L21.5 15.5M19.5 27.5L21.5 25.5M19.5 27.5L17.5 25.5"></path>
<path fill-opacity="0.9" fill="#1A1A1A" d="M45 10C45 7.23858 47.2386 5 50 5H70C72.7614 5 75 7.23858 75 10V30C75 32.7614 72.7614 35 70 35H50C47.2386 35 45 32.7614 45 30V10Z"></path>
<path stroke-width="2" stroke-opacity="0.2" stroke="white" d="M50 4C46.6863 4 44 6.68629 44 10V30C44 33.3137 46.6863 36 50 36H70C73.3137 36 76 33.3137 76 30V10C76 6.68629 73.3137 4 70 4H50Z"></path>
<path stroke-linejoin="round" stroke-linecap="round" stroke="#4DC2FF" d="M55.4999 25.5004L65.4999 15.5002M55.4999 25.5004L58.4999 25.5006M55.4999 25.5004L55.4999 22.5006M65.4999 15.5002L62.4999 15.5002M65.4999 15.5002L65.4999 18.4999"></path>
</svg>
