<svg xmlns="http://www.w3.org/2000/svg" fill="none" viewBox="0 0 480 360" height="360" width="480">
<path fill="black" d="M98.877 21.355V29H97.623V23.764L95.291 29H94.422L92.079 23.764V29H90.825V21.355H92.178L94.862 27.35L97.535 21.355H98.877ZM101.163 22.136C100.936 22.136 100.745 22.059 100.591 21.905C100.437 21.751 100.36 21.5603 100.36 21.333C100.36 21.1057 100.437 20.915 100.591 20.761C100.745 20.607 100.936 20.53 101.163 20.53C101.383 20.53 101.57 20.607 101.724 20.761C101.878 20.915 101.955 21.1057 101.955 21.333C101.955 21.5603 101.878 21.751 101.724 21.905C101.57 22.059 101.383 22.136 101.163 22.136ZM101.779 22.939V29H100.525V22.939H101.779ZM103.008 25.964C103.008 25.3407 103.132 24.7943 103.382 24.325C103.638 23.8483 103.99 23.4817 104.438 23.225C104.885 22.9683 105.398 22.84 105.978 22.84C106.711 22.84 107.316 23.016 107.793 23.368C108.277 23.7127 108.603 24.2077 108.772 24.853H107.419C107.309 24.5523 107.133 24.3177 106.891 24.149C106.649 23.9803 106.344 23.896 105.978 23.896C105.464 23.896 105.054 24.0793 104.746 24.446C104.445 24.8053 104.295 25.3113 104.295 25.964C104.295 26.6167 104.445 27.1263 104.746 27.493C105.054 27.8597 105.464 28.043 105.978 28.043C106.704 28.043 107.184 27.724 107.419 27.086H108.772C108.596 27.702 108.266 28.1933 107.782 28.56C107.298 28.9193 106.696 29.099 105.978 29.099C105.398 29.099 104.885 28.9707 104.438 28.714C103.99 28.45 103.638 28.0833 103.382 27.614C103.132 27.1373 103.008 26.5873 103.008 25.964ZM111.275 23.819C111.459 23.511 111.701 23.2727 112.001 23.104C112.309 22.928 112.672 22.84 113.09 22.84V24.138H112.771C112.28 24.138 111.906 24.2627 111.649 24.512C111.4 24.7613 111.275 25.194 111.275 25.81V29H110.021V22.939H111.275V23.819ZM116.872 29.099C116.3 29.099 115.783 28.9707 115.321 28.714C114.859 28.45 114.496 28.0833 114.232 27.614C113.968 27.1373 113.836 26.5873 113.836 25.964C113.836 25.348 113.972 24.8017 114.243 24.325C114.514 23.8483 114.885 23.4817 115.354 23.225C115.823 22.9683 116.348 22.84 116.927 22.84C117.506 22.84 118.031 22.9683 118.5 23.225C118.969 23.4817 119.34 23.8483 119.611 24.325C119.882 24.8017 120.018 25.348 120.018 25.964C120.018 26.58 119.879 27.1263 119.6 27.603C119.321 28.0797 118.94 28.45 118.456 28.714C117.979 28.9707 117.451 29.099 116.872 29.099ZM116.872 28.01C117.195 28.01 117.495 27.933 117.774 27.779C118.06 27.625 118.291 27.394 118.467 27.086C118.643 26.778 118.731 26.404 118.731 25.964C118.731 25.524 118.647 25.1537 118.478 24.853C118.309 24.545 118.086 24.314 117.807 24.16C117.528 24.006 117.228 23.929 116.905 23.929C116.582 23.929 116.282 24.006 116.003 24.16C115.732 24.314 115.515 24.545 115.354 24.853C115.193 25.1537 115.112 25.524 115.112 25.964C115.112 26.6167 115.277 27.1227 115.607 27.482C115.944 27.834 116.366 28.01 116.872 28.01ZM123.458 29.099C122.981 29.099 122.552 29.0147 122.171 28.846C121.797 28.67 121.5 28.4353 121.28 28.142C121.06 27.8413 120.942 27.5077 120.928 27.141H122.226C122.248 27.3977 122.369 27.614 122.589 27.79C122.816 27.9587 123.098 28.043 123.436 28.043C123.788 28.043 124.059 27.977 124.25 27.845C124.448 27.7057 124.547 27.5297 124.547 27.317C124.547 27.0897 124.437 26.921 124.217 26.811C124.004 26.701 123.663 26.58 123.194 26.448C122.739 26.3233 122.369 26.2023 122.083 26.085C121.797 25.9677 121.547 25.788 121.335 25.546C121.129 25.304 121.027 24.985 121.027 24.589C121.027 24.2663 121.122 23.973 121.313 23.709C121.503 23.4377 121.775 23.225 122.127 23.071C122.486 22.917 122.897 22.84 123.359 22.84C124.048 22.84 124.602 23.016 125.02 23.368C125.445 23.7127 125.672 24.1857 125.702 24.787H124.448C124.426 24.5157 124.316 24.2993 124.118 24.138C123.92 23.9767 123.652 23.896 123.315 23.896C122.985 23.896 122.732 23.9583 122.556 24.083C122.38 24.2077 122.292 24.3727 122.292 24.578C122.292 24.7393 122.35 24.875 122.468 24.985C122.585 25.095 122.728 25.183 122.897 25.249C123.065 25.3077 123.315 25.3847 123.645 25.48C124.085 25.5973 124.444 25.7183 124.723 25.843C125.009 25.9603 125.254 26.1363 125.46 26.371C125.665 26.6057 125.771 26.9173 125.779 27.306C125.779 27.6507 125.683 27.9587 125.493 28.23C125.302 28.5013 125.031 28.714 124.679 28.868C124.334 29.022 123.927 29.099 123.458 29.099ZM129.763 29.099C129.191 29.099 128.674 28.9707 128.212 28.714C127.75 28.45 127.387 28.0833 127.123 27.614C126.859 27.1373 126.727 26.5873 126.727 25.964C126.727 25.348 126.862 24.8017 127.134 24.325C127.405 23.8483 127.775 23.4817 128.245 23.225C128.714 22.9683 129.238 22.84 129.818 22.84C130.397 22.84 130.921 22.9683 131.391 23.225C131.86 23.4817 132.23 23.8483 132.502 24.325C132.773 24.8017 132.909 25.348 132.909 25.964C132.909 26.58 132.769 27.1263 132.491 27.603C132.212 28.0797 131.831 28.45 131.347 28.714C130.87 28.9707 130.342 29.099 129.763 29.099ZM129.763 28.01C130.085 28.01 130.386 27.933 130.665 27.779C130.951 27.625 131.182 27.394 131.358 27.086C131.534 26.778 131.622 26.404 131.622 25.964C131.622 25.524 131.537 25.1537 131.369 24.853C131.2 24.545 130.976 24.314 130.698 24.16C130.419 24.006 130.118 23.929 129.796 23.929C129.473 23.929 129.172 24.006 128.894 24.16C128.622 24.314 128.406 24.545 128.245 24.853C128.083 25.1537 128.003 25.524 128.003 25.964C128.003 26.6167 128.168 27.1227 128.498 27.482C128.835 27.834 129.257 28.01 129.763 28.01ZM136.689 23.962H135.567V29H134.302V23.962H133.587V22.939H134.302V22.51C134.302 21.8133 134.486 21.3073 134.852 20.992C135.226 20.6693 135.809 20.508 136.601 20.508V21.553C136.22 21.553 135.952 21.6263 135.798 21.773C135.644 21.9123 135.567 22.158 135.567 22.51V22.939H136.689V23.962ZM139.264 23.962V27.317C139.264 27.5443 139.315 27.7093 139.418 27.812C139.528 27.9073 139.711 27.955 139.968 27.955H140.738V29H139.748C139.183 29 138.75 28.868 138.45 28.604C138.149 28.34 137.999 27.911 137.999 27.317V23.962H137.284V22.939H137.999V21.432H139.264V22.939H140.738V23.962H139.264ZM147.27 29.077C146.756 29.077 146.294 28.989 145.884 28.813C145.473 28.6297 145.15 28.373 144.916 28.043C144.681 27.713 144.564 27.328 144.564 26.888H145.906C145.935 27.218 146.063 27.4893 146.291 27.702C146.525 27.9147 146.852 28.021 147.27 28.021C147.702 28.021 148.04 27.9183 148.282 27.713C148.524 27.5003 148.645 27.229 148.645 26.899C148.645 26.6423 148.568 26.4333 148.414 26.272C148.267 26.1107 148.08 25.986 147.853 25.898C147.633 25.81 147.325 25.7147 146.929 25.612C146.43 25.48 146.023 25.348 145.708 25.216C145.4 25.0767 145.136 24.864 144.916 24.578C144.696 24.292 144.586 23.9107 144.586 23.434C144.586 22.994 144.696 22.609 144.916 22.279C145.136 21.949 145.444 21.696 145.84 21.52C146.236 21.344 146.694 21.256 147.215 21.256C147.955 21.256 148.56 21.443 149.03 21.817C149.506 22.1837 149.77 22.6897 149.822 23.335H148.436C148.414 23.0563 148.282 22.818 148.04 22.62C147.798 22.422 147.479 22.323 147.083 22.323C146.723 22.323 146.43 22.4147 146.203 22.598C145.975 22.7813 145.862 23.0453 145.862 23.39C145.862 23.6247 145.931 23.819 146.071 23.973C146.217 24.1197 146.401 24.237 146.621 24.325C146.841 24.413 147.141 24.5083 147.523 24.611C148.029 24.7503 148.439 24.8897 148.755 25.029C149.077 25.1683 149.349 25.3847 149.569 25.678C149.796 25.964 149.91 26.349 149.91 26.833C149.91 27.2217 149.803 27.5883 149.591 27.933C149.385 28.2777 149.081 28.5563 148.678 28.769C148.282 28.9743 147.812 29.077 147.27 29.077ZM152.852 23.962V27.317C152.852 27.5443 152.904 27.7093 153.006 27.812C153.116 27.9073 153.3 27.955 153.556 27.955H154.326V29H153.336C152.772 29 152.339 28.868 152.038 28.604C151.738 28.34 151.587 27.911 151.587 27.317V23.962H150.872V22.939H151.587V21.432H152.852V22.939H154.326V23.962H152.852ZM158.111 29.099C157.539 29.099 157.022 28.9707 156.56 28.714C156.098 28.45 155.735 28.0833 155.471 27.614C155.207 27.1373 155.075 26.5873 155.075 25.964C155.075 25.348 155.211 24.8017 155.482 24.325C155.754 23.8483 156.124 23.4817 156.593 23.225C157.063 22.9683 157.587 22.84 158.166 22.84C158.746 22.84 159.27 22.9683 159.739 23.225C160.209 23.4817 160.579 23.8483 160.85 24.325C161.122 24.8017 161.257 25.348 161.257 25.964C161.257 26.58 161.118 27.1263 160.839 27.603C160.561 28.0797 160.179 28.45 159.695 28.714C159.219 28.9707 158.691 29.099 158.111 29.099ZM158.111 28.01C158.434 28.01 158.735 27.933 159.013 27.779C159.299 27.625 159.53 27.394 159.706 27.086C159.882 26.778 159.97 26.404 159.97 25.964C159.97 25.524 159.886 25.1537 159.717 24.853C159.549 24.545 159.325 24.314 159.046 24.16C158.768 24.006 158.467 23.929 158.144 23.929C157.822 23.929 157.521 24.006 157.242 24.16C156.971 24.314 156.755 24.545 156.593 24.853C156.432 25.1537 156.351 25.524 156.351 25.964C156.351 26.6167 156.516 27.1227 156.846 27.482C157.184 27.834 157.605 28.01 158.111 28.01ZM163.751 23.819C163.934 23.511 164.176 23.2727 164.477 23.104C164.785 22.928 165.148 22.84 165.566 22.84V24.138H165.247C164.756 24.138 164.382 24.2627 164.125 24.512C163.876 24.7613 163.751 25.194 163.751 25.81V29H162.497V22.939H163.751V23.819ZM172.274 25.821C172.274 26.0483 172.259 26.2537 172.23 26.437H167.599C167.635 26.921 167.815 27.3097 168.138 27.603C168.46 27.8963 168.856 28.043 169.326 28.043C170 28.043 170.477 27.7607 170.756 27.196H172.109C171.925 27.7533 171.592 28.2117 171.108 28.571C170.631 28.923 170.037 29.099 169.326 29.099C168.746 29.099 168.226 28.9707 167.764 28.714C167.309 28.45 166.95 28.0833 166.686 27.614C166.429 27.1373 166.301 26.5873 166.301 25.964C166.301 25.3407 166.425 24.7943 166.675 24.325C166.931 23.8483 167.287 23.4817 167.742 23.225C168.204 22.9683 168.732 22.84 169.326 22.84C169.898 22.84 170.407 22.9647 170.855 23.214C171.302 23.4633 171.65 23.8153 171.9 24.27C172.149 24.7173 172.274 25.2343 172.274 25.821ZM170.965 25.425C170.957 24.963 170.792 24.5927 170.47 24.314C170.147 24.0353 169.747 23.896 169.271 23.896C168.838 23.896 168.468 24.0353 168.16 24.314C167.852 24.5853 167.668 24.9557 167.61 25.425H170.965Z"></path>
<path fill="url(#paint0_linear_927_2)" d="M57 20.7872C57 20.2322 57.45 19.7822 58.005 19.7822H71.995C72.55 19.7822 73 20.2322 73 20.7872V30.3196C73 31.7997 71.8001 32.9996 70.32 32.9996H59.68C58.1999 32.9996 57 31.7997 57 30.3196V20.7872Z"></path>
<path fill="#F25022" d="M61.8701 23.2607H64.6527V26.0434H61.8701V23.2607Z"></path>
<path fill="#7FBA00" d="M65.3484 23.2607H68.131V26.0434H65.3484V23.2607Z"></path>
<path fill="#FFB900" d="M65.3484 26.739H68.131V29.5216H65.3484V26.739Z"></path>
<path fill="#00A4EF" d="M61.8701 26.739H64.6527V29.5216H61.8701V26.739Z"></path>
<path fill="url(#paint1_linear_927_2)" d="M60.4775 18.3913C60.4775 17.6229 61.1004 17 61.8688 17V17V20.4783C61.8688 20.8625 61.5574 21.1739 61.1732 21.1739V21.1739C60.789 21.1739 60.4775 20.8625 60.4775 20.4783V18.3913Z"></path>
<path fill="url(#paint2_linear_927_2)" d="M68.1297 17V17C68.8981 17 69.521 17.6229 69.521 18.3913V20.4783C69.521 20.8625 69.2096 21.1739 68.8254 21.1739V21.1739C68.4412 21.1739 68.1297 20.8625 68.1297 20.4783V17Z"></path>
<path fill="url(#paint3_linear_927_2)" d="M61.8688 17H68.1297V18.3913H61.8688V17Z"></path>
<path fill-opacity="0.2" fill="black" d="M61.8688 17H68.1297V18.3913H61.8688V17Z"></path>
<rect fill-opacity="0.05" fill="black" rx="5" height="30" width="30" y="10" x="10"></rect>
<path stroke-linejoin="round" stroke-linecap="round" stroke="black" d="M20 25L25 20M20 25L30 25M20 25L25 30"></path>
<defs>
<linearGradient gradientUnits="userSpaceOnUse" y2="32.304" x2="72.3043" y1="19.7822" x1="57" id="paint0_linear_927_2">
<stop stop-color="#0767B8"></stop>
<stop stop-color="#243A5F" offset="1"></stop>
</linearGradient>
<linearGradient gradientUnits="userSpaceOnUse" y2="17" x2="61.8688" y1="21.1739" x1="61.8688" id="paint1_linear_927_2">
<stop stop-color="#0094D4"></stop>
<stop stop-color="#30DAFF" offset="1"></stop>
</linearGradient>
<linearGradient gradientUnits="userSpaceOnUse" y2="17" x2="61.8688" y1="21.1739" x1="61.8688" id="paint2_linear_927_2">
<stop stop-color="#0094D4"></stop>
<stop stop-color="#30DAFF" offset="1"></stop>
</linearGradient>
<linearGradient gradientUnits="userSpaceOnUse" y2="17" x2="61.8688" y1="21.1739" x1="61.8688" id="paint3_linear_927_2">
<stop stop-color="#0094D4"></stop>
<stop stop-color="#30DAFF" offset="1"></stop>
</linearGradient>
</defs>
</svg>
