<svg xmlns="http://www.w3.org/2000/svg" fill="none" viewBox="0 0 122 142" height="142" width="122">
<path fill-opacity="0.9" fill="#333333" d="M1 11C1 5.47716 5.47715 1 11 1H111C116.523 1 121 5.47715 121 11V131C121 136.523 116.523 141 111 141H11C5.47715 141 1 136.523 1 131V11Z"></path>
<path stroke-opacity="0.2" stroke="black" d="M111 0.5H11C5.20101 0.5 0.5 5.20101 0.5 11V131C0.5 136.799 5.20101 141.5 11 141.5H111C116.799 141.5 121.5 136.799 121.5 131V11C121.5 5.20101 116.799 0.5 111 0.5Z"></path>
<path fill="#5E9BA9" d="M1 11C1 5.47715 5.47715 1 11 1H111C116.523 1 121 5.47715 121 11V81H1V11Z"></path>
<path fill-opacity="0.5" fill="black" d="M1 11C1 5.47715 5.47715 1 11 1H111C116.523 1 121 5.47715 121 11V81H1V11Z"></path>
<rect fill="url(#paint0_linear_936_417)" rx="3.2" height="12.8" width="28.8" y="47.4004" x="46.5996"></rect>
<rect fill="url(#paint1_linear_936_417)" rx="3.2" height="12.8" width="28.8" y="44.2002" x="46.5996"></rect>
<rect fill="url(#paint2_linear_936_417)" rx="3.2" height="30.4" width="28.8" y="23.4004" x="46.5996"></rect>
<rect fill="#057093" rx="1.6" height="4.8" width="3.2" y="21.8003" x="49.7998"></rect>
<rect fill="#057093" rx="1.6" height="4.8" width="3.2" y="21.8003" x="56.1992"></rect>
<rect fill="#057093" rx="1.6" height="4.8" width="3.2" y="21.8003" x="62.5996"></rect>
<rect fill="#057093" rx="1.6" height="4.8" width="3.2" y="21.8003" x="69"></rect>
<rect fill="#057093" rx="1.6" height="3.2" width="19.2" y="31.4004" x="51.3994"></rect>
<rect fill="#057093" rx="1.6" height="3.2" width="19.2" y="37.8003" x="51.3994"></rect>
<rect fill="#057093" rx="1.6" height="3.2" width="19.2" y="44.2002" x="51.3994"></rect>
<path fill="white" d="M18.106 100H16.852L13.079 94.291V100H11.825V92.344H13.079L16.852 98.042V92.344H18.106V100ZM22.3817 100.099C21.8097 100.099 21.2927 99.9707 20.8307 99.714C20.3687 99.45 20.0057 99.0833 19.7417 98.614C19.4777 98.1373 19.3457 97.5873 19.3457 96.964C19.3457 96.348 19.4814 95.8017 19.7527 95.325C20.0241 94.8483 20.3944 94.4817 20.8637 94.225C21.3331 93.9683 21.8574 93.84 22.4367 93.84C23.0161 93.84 23.5404 93.9683 24.0097 94.225C24.4791 94.4817 24.8494 94.8483 25.1207 95.325C25.3921 95.8017 25.5277 96.348 25.5277 96.964C25.5277 97.58 25.3884 98.1263 25.1097 98.603C24.8311 99.0797 24.4497 99.45 23.9657 99.714C23.4891 99.9707 22.9611 100.099 22.3817 100.099ZM22.3817 99.01C22.7044 99.01 23.0051 98.933 23.2837 98.779C23.5697 98.625 23.8007 98.394 23.9767 98.086C24.1527 97.778 24.2407 97.404 24.2407 96.964C24.2407 96.524 24.1564 96.1537 23.9877 95.853C23.8191 95.545 23.5954 95.314 23.3167 95.16C23.0381 95.006 22.7374 94.929 22.4147 94.929C22.0921 94.929 21.7914 95.006 21.5127 95.16C21.2414 95.314 21.0251 95.545 20.8637 95.853C20.7024 96.1537 20.6217 96.524 20.6217 96.964C20.6217 97.6167 20.7867 98.1227 21.1167 98.482C21.4541 98.834 21.8757 99.01 22.3817 99.01ZM28.2304 94.962V98.317C28.2304 98.5443 28.2817 98.7093 28.3844 98.812C28.4944 98.9073 28.6777 98.955 28.9344 98.955H29.7044V100H28.7144C28.1497 100 27.717 99.868 27.4164 99.604C27.1157 99.34 26.9654 98.911 26.9654 98.317V94.962H26.2504V93.939H26.9654V92.432H28.2304V93.939H29.7044V94.962H28.2304ZM36.4152 96.821C36.4152 97.0483 36.4005 97.2537 36.3712 97.437H31.7402C31.7768 97.921 31.9565 98.3097 32.2792 98.603C32.6018 98.8963 32.9978 99.043 33.4672 99.043C34.1418 99.043 34.6185 98.7607 34.8972 98.196H36.2502C36.0668 98.7533 35.7332 99.2117 35.2492 99.571C34.7725 99.923 34.1785 100.099 33.4672 100.099C32.8878 100.099 32.3672 99.9707 31.9052 99.714C31.4505 99.45 31.0912 99.0833 30.8272 98.614C30.5705 98.1373 30.4422 97.5873 30.4422 96.964C30.4422 96.3407 30.5668 95.7943 30.8162 95.325C31.0728 94.8483 31.4285 94.4817 31.8832 94.225C32.3452 93.9683 32.8732 93.84 33.4672 93.84C34.0392 93.84 34.5488 93.9647 34.9962 94.214C35.4435 94.4633 35.7918 94.8153 36.0412 95.27C36.2905 95.7173 36.4152 96.2343 36.4152 96.821ZM35.1062 96.425C35.0988 95.963 34.9338 95.5927 34.6112 95.314C34.2885 95.0353 33.8888 94.896 33.4122 94.896C32.9795 94.896 32.6092 95.0353 32.3012 95.314C31.9932 95.5853 31.8098 95.9557 31.7512 96.425H35.1062ZM38.9032 94.83C39.1159 94.5513 39.4056 94.3167 39.7722 94.126C40.1389 93.9353 40.5532 93.84 41.0152 93.84C41.5432 93.84 42.0236 93.972 42.4562 94.236C42.8962 94.4927 43.2409 94.8557 43.4902 95.325C43.7396 95.7943 43.8642 96.3333 43.8642 96.942C43.8642 97.5507 43.7396 98.097 43.4902 98.581C43.2409 99.0577 42.8962 99.4317 42.4562 99.703C42.0236 99.967 41.5432 100.099 41.0152 100.099C40.5532 100.099 40.1426 100.007 39.7832 99.824C39.4239 99.6333 39.1306 99.3987 38.9032 99.12V102.882H37.6492V93.939H38.9032V94.83ZM42.5882 96.942C42.5882 96.524 42.5002 96.1647 42.3242 95.864C42.1556 95.556 41.9282 95.325 41.6422 95.171C41.3636 95.0097 41.0629 94.929 40.7402 94.929C40.4249 94.929 40.1242 95.0097 39.8382 95.171C39.5596 95.3323 39.3322 95.567 39.1562 95.875C38.9876 96.183 38.9032 96.546 38.9032 96.964C38.9032 97.382 38.9876 97.7487 39.1562 98.064C39.3322 98.372 39.5596 98.6067 39.8382 98.768C40.1242 98.9293 40.4249 99.01 40.7402 99.01C41.0629 99.01 41.3636 98.9293 41.6422 98.768C41.9282 98.5993 42.1556 98.3573 42.3242 98.042C42.5002 97.7267 42.5882 97.36 42.5882 96.942ZM44.6863 96.942C44.6863 96.3333 44.811 95.7943 45.0603 95.325C45.317 94.8557 45.6616 94.4927 46.0943 94.236C46.5343 93.972 47.0183 93.84 47.5463 93.84C48.023 93.84 48.4373 93.9353 48.7893 94.126C49.1486 94.3093 49.4346 94.5403 49.6473 94.819V93.939H50.9123V100H49.6473V99.098C49.4346 99.384 49.145 99.6223 48.7783 99.813C48.4116 100.004 47.9936 100.099 47.5243 100.099C47.0036 100.099 46.527 99.967 46.0943 99.703C45.6616 99.4317 45.317 99.0577 45.0603 98.581C44.811 98.097 44.6863 97.5507 44.6863 96.942ZM49.6473 96.964C49.6473 96.546 49.5593 96.183 49.3833 95.875C49.2146 95.567 48.991 95.3323 48.7123 95.171C48.4336 95.0097 48.133 94.929 47.8103 94.929C47.4876 94.929 47.187 95.0097 46.9083 95.171C46.6296 95.325 46.4023 95.556 46.2263 95.864C46.0576 96.1647 45.9733 96.524 45.9733 96.942C45.9733 97.36 46.0576 97.7267 46.2263 98.042C46.4023 98.3573 46.6296 98.5993 46.9083 98.768C47.1943 98.9293 47.495 99.01 47.8103 99.01C48.133 99.01 48.4336 98.9293 48.7123 98.768C48.991 98.6067 49.2146 98.372 49.3833 98.064C49.5593 97.7487 49.6473 97.382 49.6473 96.964ZM52.1414 96.942C52.1414 96.3333 52.266 95.7943 52.5154 95.325C52.772 94.8557 53.1167 94.4927 53.5494 94.236C53.9894 93.972 54.477 93.84 55.0124 93.84C55.4084 93.84 55.797 93.928 56.1784 94.104C56.567 94.2727 56.875 94.5 57.1024 94.786V91.86H58.3674V100H57.1024V99.087C56.897 99.3803 56.611 99.6223 56.2444 99.813C55.885 100.004 55.4707 100.099 55.0014 100.099C54.4734 100.099 53.9894 99.967 53.5494 99.703C53.1167 99.4317 52.772 99.0577 52.5154 98.581C52.266 98.097 52.1414 97.5507 52.1414 96.942ZM57.1024 96.964C57.1024 96.546 57.0144 96.183 56.8384 95.875C56.6697 95.567 56.446 95.3323 56.1674 95.171C55.8887 95.0097 55.588 94.929 55.2654 94.929C54.9427 94.929 54.642 95.0097 54.3634 95.171C54.0847 95.325 53.8574 95.556 53.6814 95.864C53.5127 96.1647 53.4284 96.524 53.4284 96.942C53.4284 97.36 53.5127 97.7267 53.6814 98.042C53.8574 98.3573 54.0847 98.5993 54.3634 98.768C54.6494 98.9293 54.95 99.01 55.2654 99.01C55.588 99.01 55.8887 98.9293 56.1674 98.768C56.446 98.6067 56.6697 98.372 56.8384 98.064C57.0144 97.7487 57.1024 97.382 57.1024 96.964Z"></path>
<path fill-opacity="0.05" fill="white" d="M61 116C61 113.239 63.2386 111 66 111H106C108.761 111 111 113.239 111 116V126C111 128.761 108.761 131 106 131H66C63.2386 131 61 128.761 61 126V116Z"></path>
<path fill="white" d="M81.2087 122.722H78.5897L78.1397 124H77.0687L79.3097 117.736H80.4977L82.7387 124H81.6587L81.2087 122.722ZM80.9207 121.885L79.9037 118.978L78.8777 121.885H80.9207ZM84.7391 119.77C84.9131 119.542 85.1501 119.35 85.4501 119.194C85.7501 119.038 86.0891 118.96 86.4671 118.96C86.8991 118.96 87.2921 119.068 87.6461 119.284C88.0061 119.494 88.2881 119.791 88.4921 120.175C88.6961 120.559 88.7981 121 88.7981 121.498C88.7981 121.996 88.6961 122.443 88.4921 122.839C88.2881 123.229 88.0061 123.535 87.6461 123.757C87.2921 123.973 86.8991 124.081 86.4671 124.081C86.0891 124.081 85.7531 124.006 85.4591 123.856C85.1651 123.7 84.9251 123.508 84.7391 123.28V126.358H83.7131V119.041H84.7391V119.77ZM87.7541 121.498C87.7541 121.156 87.6821 120.862 87.5381 120.616C87.4001 120.364 87.2141 120.175 86.9801 120.049C86.7521 119.917 86.5061 119.851 86.2421 119.851C85.9841 119.851 85.7381 119.917 85.5041 120.049C85.2761 120.181 85.0901 120.373 84.9461 120.625C84.8081 120.877 84.7391 121.174 84.7391 121.516C84.7391 121.858 84.8081 122.158 84.9461 122.416C85.0901 122.668 85.2761 122.86 85.5041 122.992C85.7381 123.124 85.9841 123.19 86.2421 123.19C86.5061 123.19 86.7521 123.124 86.9801 122.992C87.2141 122.854 87.4001 122.656 87.5381 122.398C87.6821 122.14 87.7541 121.84 87.7541 121.498ZM90.8387 119.77C91.0127 119.542 91.2497 119.35 91.5497 119.194C91.8497 119.038 92.1887 118.96 92.5667 118.96C92.9987 118.96 93.3917 119.068 93.7457 119.284C94.1057 119.494 94.3877 119.791 94.5917 120.175C94.7957 120.559 94.8977 121 94.8977 121.498C94.8977 121.996 94.7957 122.443 94.5917 122.839C94.3877 123.229 94.1057 123.535 93.7457 123.757C93.3917 123.973 92.9987 124.081 92.5667 124.081C92.1887 124.081 91.8527 124.006 91.5587 123.856C91.2647 123.7 91.0247 123.508 90.8387 123.28V126.358H89.8127V119.041H90.8387V119.77ZM93.8537 121.498C93.8537 121.156 93.7817 120.862 93.6377 120.616C93.4997 120.364 93.3137 120.175 93.0797 120.049C92.8517 119.917 92.6057 119.851 92.3417 119.851C92.0837 119.851 91.8377 119.917 91.6037 120.049C91.3757 120.181 91.1897 120.373 91.0457 120.625C90.9077 120.877 90.8387 121.174 90.8387 121.516C90.8387 121.858 90.9077 122.158 91.0457 122.416C91.1897 122.668 91.3757 122.86 91.6037 122.992C91.8377 123.124 92.0837 123.19 92.3417 123.19C92.6057 123.19 92.8517 123.124 93.0797 122.992C93.3137 122.854 93.4997 122.656 93.6377 122.398C93.7817 122.14 93.8537 121.84 93.8537 121.498Z"></path>
<defs>
<linearGradient gradientUnits="userSpaceOnUse" y2="60.2004" x2="60.9996" y1="57.0004" x1="60.9996" id="paint0_linear_936_417">
<stop stop-color="#7D3E08"></stop>
<stop stop-color="#AA540C" offset="1"></stop>
</linearGradient>
<linearGradient gradientUnits="userSpaceOnUse" y2="57.0002" x2="60.9996" y1="53.8002" x1="60.9996" id="paint1_linear_936_417">
<stop stop-color="#D3D3D3"></stop>
<stop stop-color="#E4E4E4" offset="1"></stop>
</linearGradient>
<linearGradient gradientUnits="userSpaceOnUse" y2="53.8004" x2="60.9996" y1="23.4004" x1="60.9996" id="paint2_linear_936_417">
<stop stop-color="#7DD8F3"></stop>
<stop stop-color="#57BDDC" offset="1"></stop>
</linearGradient>
</defs>
</svg>
