<svg xmlns="http://www.w3.org/2000/svg" fill="none" viewBox="0 0 480 360" height="360" width="480">
<path fill="white" d="M245.016 50.336H250.536V53H241.656V36.248H245.016V50.336ZM265.032 46.064C265.032 46.544 265 46.976 264.936 47.36H255.216C255.296 48.32 255.632 49.072 256.224 49.616C256.816 50.16 257.544 50.432 258.408 50.432C259.656 50.432 260.544 49.896 261.072 48.824H264.696C264.312 50.104 263.576 51.16 262.488 51.992C261.4 52.808 260.064 53.216 258.48 53.216C257.2 53.216 256.048 52.936 255.024 52.376C254.016 51.8 253.224 50.992 252.648 49.952C252.088 48.912 251.808 47.712 251.808 46.352C251.808 44.976 252.088 43.768 252.648 42.728C253.208 41.688 253.992 40.888 255 40.328C256.008 39.768 257.168 39.488 258.48 39.488C259.744 39.488 260.872 39.76 261.864 40.304C262.872 40.848 263.648 41.624 264.192 42.632C264.752 43.624 265.032 44.768 265.032 46.064ZM261.552 45.104C261.536 44.24 261.224 43.552 260.616 43.04C260.008 42.512 259.264 42.248 258.384 42.248C257.552 42.248 256.848 42.504 256.272 43.016C255.712 43.512 255.368 44.208 255.24 45.104H261.552ZM266.62 46.304C266.62 44.96 266.884 43.768 267.412 42.728C267.956 41.688 268.684 40.888 269.596 40.328C270.524 39.768 271.556 39.488 272.692 39.488C273.684 39.488 274.548 39.688 275.284 40.088C276.036 40.488 276.636 40.992 277.084 41.6V39.704H280.468V53H277.084V51.056C276.652 51.68 276.052 52.2 275.284 52.616C274.532 53.016 273.66 53.216 272.668 53.216C271.548 53.216 270.524 52.928 269.596 52.352C268.684 51.776 267.956 50.968 267.412 49.928C266.884 48.872 266.62 47.664 266.62 46.304ZM277.084 46.352C277.084 45.536 276.924 44.84 276.604 44.264C276.284 43.672 275.852 43.224 275.308 42.92C274.764 42.6 274.18 42.44 273.556 42.44C272.932 42.44 272.356 42.592 271.828 42.896C271.3 43.2 270.868 43.648 270.532 44.24C270.212 44.816 270.052 45.504 270.052 46.304C270.052 47.104 270.212 47.808 270.532 48.416C270.868 49.008 271.3 49.464 271.828 49.784C272.372 50.104 272.948 50.264 273.556 50.264C274.18 50.264 274.764 50.112 275.308 49.808C275.852 49.488 276.284 49.04 276.604 48.464C276.924 47.872 277.084 47.168 277.084 46.352ZM287.11 41.768C287.542 41.064 288.102 40.512 288.79 40.112C289.494 39.712 290.294 39.512 291.19 39.512V43.04H290.302C289.246 43.04 288.446 43.288 287.902 43.784C287.374 44.28 287.11 45.144 287.11 46.376V53H283.75V39.704H287.11V41.768ZM300.821 39.512C302.405 39.512 303.685 40.016 304.661 41.024C305.637 42.016 306.125 43.408 306.125 45.2V53H302.765V45.656C302.765 44.6 302.501 43.792 301.973 43.232C301.445 42.656 300.725 42.368 299.813 42.368C298.885 42.368 298.149 42.656 297.605 43.232C297.077 43.792 296.813 44.6 296.813 45.656V53H293.453V39.704H296.813V41.36C297.261 40.784 297.829 40.336 298.517 40.016C299.221 39.68 299.989 39.512 300.821 39.512ZM320.247 39.488C321.239 39.488 322.111 39.688 322.863 40.088C323.615 40.472 324.207 40.976 324.639 41.6V39.704H328.023V53.096C328.023 54.328 327.775 55.424 327.279 56.384C326.783 57.36 326.039 58.128 325.047 58.688C324.055 59.264 322.855 59.552 321.447 59.552C319.559 59.552 318.007 59.112 316.791 58.232C315.591 57.352 314.911 56.152 314.751 54.632H318.087C318.263 55.24 318.639 55.72 319.215 56.072C319.807 56.44 320.519 56.624 321.351 56.624C322.327 56.624 323.119 56.328 323.727 55.736C324.335 55.16 324.639 54.28 324.639 53.096V51.032C324.207 51.656 323.607 52.176 322.839 52.592C322.087 53.008 321.223 53.216 320.247 53.216C319.127 53.216 318.103 52.928 317.175 52.352C316.247 51.776 315.511 50.968 314.967 49.928C314.439 48.872 314.175 47.664 314.175 46.304C314.175 44.96 314.439 43.768 314.967 42.728C315.511 41.688 316.239 40.888 317.151 40.328C318.079 39.768 319.111 39.488 320.247 39.488ZM324.639 46.352C324.639 45.536 324.479 44.84 324.159 44.264C323.839 43.672 323.407 43.224 322.863 42.92C322.319 42.6 321.735 42.44 321.111 42.44C320.487 42.44 319.911 42.592 319.383 42.896C318.855 43.2 318.423 43.648 318.087 44.24C317.767 44.816 317.607 45.504 317.607 46.304C317.607 47.104 317.767 47.808 318.087 48.416C318.423 49.008 318.855 49.464 319.383 49.784C319.927 50.104 320.503 50.264 321.111 50.264C321.735 50.264 322.319 50.112 322.863 49.808C323.407 49.488 323.839 49.04 324.159 48.464C324.479 47.872 324.639 47.168 324.639 46.352ZM343.664 46.064C343.664 46.544 343.632 46.976 343.568 47.36H333.848C333.928 48.32 334.264 49.072 334.856 49.616C335.448 50.16 336.176 50.432 337.04 50.432C338.288 50.432 339.176 49.896 339.704 48.824H343.328C342.944 50.104 342.208 51.16 341.12 51.992C340.032 52.808 338.696 53.216 337.112 53.216C335.832 53.216 334.68 52.936 333.656 52.376C332.648 51.8 331.856 50.992 331.28 49.952C330.72 48.912 330.44 47.712 330.44 46.352C330.44 44.976 330.72 43.768 331.28 42.728C331.84 41.688 332.624 40.888 333.632 40.328C334.64 39.768 335.8 39.488 337.112 39.488C338.376 39.488 339.504 39.76 340.496 40.304C341.504 40.848 342.28 41.624 342.824 42.632C343.384 43.624 343.664 44.768 343.664 46.064ZM340.184 45.104C340.168 44.24 339.856 43.552 339.248 43.04C338.64 42.512 337.896 42.248 337.016 42.248C336.184 42.248 335.48 42.504 334.904 43.016C334.344 43.512 334 44.208 333.872 45.104H340.184ZM351.205 53.216C350.117 53.216 349.141 53.024 348.277 52.64C347.413 52.24 346.725 51.704 346.213 51.032C345.717 50.36 345.445 49.616 345.397 48.8H348.781C348.845 49.312 349.093 49.736 349.525 50.072C349.973 50.408 350.525 50.576 351.181 50.576C351.821 50.576 352.317 50.448 352.669 50.192C353.037 49.936 353.221 49.608 353.221 49.208C353.221 48.776 352.997 48.456 352.549 48.248C352.117 48.024 351.421 47.784 350.461 47.528C349.469 47.288 348.653 47.04 348.013 46.784C347.389 46.528 346.845 46.136 346.381 45.608C345.933 45.08 345.709 44.368 345.709 43.472C345.709 42.736 345.917 42.064 346.333 41.456C346.765 40.848 347.373 40.368 348.157 40.016C348.957 39.664 349.893 39.488 350.965 39.488C352.549 39.488 353.813 39.888 354.757 40.688C355.701 41.472 356.221 42.536 356.317 43.88H353.101C353.053 43.352 352.829 42.936 352.429 42.632C352.045 42.312 351.525 42.152 350.869 42.152C350.261 42.152 349.789 42.264 349.453 42.488C349.133 42.712 348.973 43.024 348.973 43.424C348.973 43.872 349.197 44.216 349.645 44.456C350.093 44.68 350.789 44.912 351.733 45.152C352.693 45.392 353.485 45.64 354.109 45.896C354.733 46.152 355.269 46.552 355.717 47.096C356.181 47.624 356.421 48.328 356.437 49.208C356.437 49.976 356.221 50.664 355.789 51.272C355.373 51.88 354.765 52.36 353.965 52.712C353.181 53.048 352.261 53.216 351.205 53.216ZM363.107 42.464V48.896C363.107 49.344 363.211 49.672 363.419 49.88C363.643 50.072 364.011 50.168 364.523 50.168H366.083V53H363.971C361.139 53 359.723 51.624 359.723 48.872V42.464H358.139V39.704H359.723V36.416H363.107V39.704H366.083V42.464H363.107ZM381.052 39.704V53H377.668V51.32C377.236 51.896 376.668 52.352 375.964 52.688C375.276 53.008 374.524 53.168 373.708 53.168C372.668 53.168 371.748 52.952 370.948 52.52C370.148 52.072 369.516 51.424 369.052 50.576C368.604 49.712 368.38 48.688 368.38 47.504V39.704H371.74V47.024C371.74 48.08 372.004 48.896 372.532 49.472C373.06 50.032 373.78 50.312 374.692 50.312C375.62 50.312 376.348 50.032 376.876 49.472C377.404 48.896 377.668 48.08 377.668 47.024V39.704H381.052ZM387.727 41.768C388.159 41.064 388.719 40.512 389.407 40.112C390.111 39.712 390.911 39.512 391.807 39.512V43.04H390.919C389.863 43.04 389.063 43.288 388.519 43.784C387.991 44.28 387.727 45.144 387.727 46.376V53H384.367V39.704H387.727V41.768ZM406.43 46.064C406.43 46.544 406.398 46.976 406.334 47.36H396.614C396.694 48.32 397.03 49.072 397.622 49.616C398.214 50.16 398.942 50.432 399.806 50.432C401.054 50.432 401.942 49.896 402.47 48.824H406.094C405.71 50.104 404.974 51.16 403.886 51.992C402.798 52.808 401.462 53.216 399.878 53.216C398.598 53.216 397.446 52.936 396.422 52.376C395.414 51.8 394.622 50.992 394.046 49.952C393.486 48.912 393.206 47.712 393.206 46.352C393.206 44.976 393.486 43.768 394.046 42.728C394.606 41.688 395.39 40.888 396.398 40.328C397.406 39.768 398.566 39.488 399.878 39.488C401.142 39.488 402.27 39.76 403.262 40.304C404.27 40.848 405.046 41.624 405.59 42.632C406.15 43.624 406.43 44.768 406.43 46.064ZM402.95 45.104C402.934 44.24 402.622 43.552 402.014 43.04C401.406 42.512 400.662 42.248 399.782 42.248C398.95 42.248 398.246 42.504 397.67 43.016C397.11 43.512 396.766 44.208 396.638 45.104H402.95ZM413.971 53.216C412.883 53.216 411.907 53.024 411.043 52.64C410.179 52.24 409.491 51.704 408.979 51.032C408.483 50.36 408.211 49.616 408.163 48.8H411.547C411.611 49.312 411.859 49.736 412.291 50.072C412.739 50.408 413.291 50.576 413.947 50.576C414.587 50.576 415.083 50.448 415.435 50.192C415.803 49.936 415.987 49.608 415.987 49.208C415.987 48.776 415.763 48.456 415.315 48.248C414.883 48.024 414.187 47.784 413.227 47.528C412.235 47.288 411.419 47.04 410.779 46.784C410.155 46.528 409.611 46.136 409.147 45.608C408.699 45.08 408.475 44.368 408.475 43.472C408.475 42.736 408.683 42.064 409.099 41.456C409.531 40.848 410.139 40.368 410.923 40.016C411.723 39.664 412.659 39.488 413.731 39.488C415.315 39.488 416.579 39.888 417.523 40.688C418.467 41.472 418.987 42.536 419.083 43.88H415.867C415.819 43.352 415.595 42.936 415.195 42.632C414.811 42.312 414.291 42.152 413.635 42.152C413.027 42.152 412.555 42.264 412.219 42.488C411.899 42.712 411.739 43.024 411.739 43.424C411.739 43.872 411.963 44.216 412.411 44.456C412.859 44.68 413.555 44.912 414.499 45.152C415.459 45.392 416.251 45.64 416.875 45.896C417.499 46.152 418.035 46.552 418.483 47.096C418.947 47.624 419.187 48.328 419.203 49.208C419.203 49.976 418.987 50.664 418.555 51.272C418.139 51.88 417.531 52.36 416.731 52.712C415.947 53.048 415.027 53.216 413.971 53.216Z"></path>
<path fill="white" d="M240.407 85.161C240.407 84.413 240.579 83.742 240.924 83.148C241.276 82.554 241.749 82.092 242.343 81.762C242.944 81.4247 243.601 81.256 244.312 81.256C245.126 81.256 245.848 81.4577 246.479 81.861C247.117 82.257 247.579 82.8217 247.865 83.555H246.358C246.16 83.1517 245.885 82.851 245.533 82.653C245.181 82.455 244.774 82.356 244.312 82.356C243.806 82.356 243.355 82.4697 242.959 82.697C242.563 82.9243 242.251 83.2507 242.024 83.676C241.804 84.1013 241.694 84.5963 241.694 85.161C241.694 85.7257 241.804 86.2207 242.024 86.646C242.251 87.0713 242.563 87.4013 242.959 87.636C243.355 87.8633 243.806 87.977 244.312 87.977C244.774 87.977 245.181 87.878 245.533 87.68C245.885 87.482 246.16 87.1813 246.358 86.778H247.865C247.579 87.5113 247.117 88.076 246.479 88.472C245.848 88.868 245.126 89.066 244.312 89.066C243.593 89.066 242.937 88.901 242.343 88.571C241.749 88.2337 241.276 87.768 240.924 87.174C240.579 86.58 240.407 85.909 240.407 85.161ZM250.587 80.86V89H249.333V80.86H250.587ZM252.871 82.136C252.644 82.136 252.453 82.059 252.299 81.905C252.145 81.751 252.068 81.5603 252.068 81.333C252.068 81.1057 252.145 80.915 252.299 80.761C252.453 80.607 252.644 80.53 252.871 80.53C253.091 80.53 253.278 80.607 253.432 80.761C253.586 80.915 253.663 81.1057 253.663 81.333C253.663 81.5603 253.586 81.751 253.432 81.905C253.278 82.059 253.091 82.136 252.871 82.136ZM253.487 82.939V89H252.233V82.939H253.487ZM254.716 85.964C254.716 85.3407 254.84 84.7943 255.09 84.325C255.346 83.8483 255.698 83.4817 256.146 83.225C256.593 82.9683 257.106 82.84 257.686 82.84C258.419 82.84 259.024 83.016 259.501 83.368C259.985 83.7127 260.311 84.2077 260.48 84.853H259.127C259.017 84.5523 258.841 84.3177 258.599 84.149C258.357 83.9803 258.052 83.896 257.686 83.896C257.172 83.896 256.762 84.0793 256.454 84.446C256.153 84.8053 256.003 85.3113 256.003 85.964C256.003 86.6167 256.153 87.1263 256.454 87.493C256.762 87.8597 257.172 88.043 257.686 88.043C258.412 88.043 258.892 87.724 259.127 87.086H260.48C260.304 87.702 259.974 88.1933 259.49 88.56C259.006 88.9193 258.404 89.099 257.686 89.099C257.106 89.099 256.593 88.9707 256.146 88.714C255.698 88.45 255.346 88.0833 255.09 87.614C254.84 87.1373 254.716 86.5873 254.716 85.964ZM264.127 85.975L266.921 89H265.227L262.983 86.393V89H261.729V80.86H262.983V85.59L265.183 82.939H266.921L264.127 85.975ZM273.307 89.099C272.735 89.099 272.218 88.9707 271.756 88.714C271.294 88.45 270.931 88.0833 270.667 87.614C270.403 87.1373 270.271 86.5873 270.271 85.964C270.271 85.348 270.406 84.8017 270.678 84.325C270.949 83.8483 271.319 83.4817 271.789 83.225C272.258 82.9683 272.782 82.84 273.362 82.84C273.941 82.84 274.465 82.9683 274.935 83.225C275.404 83.4817 275.774 83.8483 276.046 84.325C276.317 84.8017 276.453 85.348 276.453 85.964C276.453 86.58 276.313 87.1263 276.035 87.603C275.756 88.0797 275.375 88.45 274.891 88.714C274.414 88.9707 273.886 89.099 273.307 89.099ZM273.307 88.01C273.629 88.01 273.93 87.933 274.209 87.779C274.495 87.625 274.726 87.394 274.902 87.086C275.078 86.778 275.166 86.404 275.166 85.964C275.166 85.524 275.081 85.1537 274.913 84.853C274.744 84.545 274.52 84.314 274.242 84.16C273.963 84.006 273.662 83.929 273.34 83.929C273.017 83.929 272.716 84.006 272.438 84.16C272.166 84.314 271.95 84.545 271.789 84.853C271.627 85.1537 271.547 85.524 271.547 85.964C271.547 86.6167 271.712 87.1227 272.042 87.482C272.379 87.834 272.801 88.01 273.307 88.01ZM280.75 82.84C281.227 82.84 281.652 82.939 282.026 83.137C282.408 83.335 282.705 83.6283 282.917 84.017C283.13 84.4057 283.236 84.875 283.236 85.425V89H281.993V85.612C281.993 85.0693 281.858 84.655 281.586 84.369C281.315 84.0757 280.945 83.929 280.475 83.929C280.006 83.929 279.632 84.0757 279.353 84.369C279.082 84.655 278.946 85.0693 278.946 85.612V89H277.692V82.939H278.946V83.632C279.152 83.3827 279.412 83.1883 279.727 83.049C280.05 82.9097 280.391 82.84 280.75 82.84ZM289.156 83.962V87.317C289.156 87.5443 289.207 87.7093 289.31 87.812C289.42 87.9073 289.603 87.955 289.86 87.955H290.63V89H289.64C289.075 89 288.643 88.868 288.342 88.604C288.041 88.34 287.891 87.911 287.891 87.317V83.962H287.176V82.939H287.891V81.432H289.156V82.939H290.63V83.962H289.156ZM294.921 82.84C295.383 82.84 295.794 82.939 296.153 83.137C296.52 83.335 296.806 83.6283 297.011 84.017C297.224 84.4057 297.33 84.875 297.33 85.425V89H296.087V85.612C296.087 85.0693 295.951 84.655 295.68 84.369C295.409 84.0757 295.038 83.929 294.569 83.929C294.1 83.929 293.726 84.0757 293.447 84.369C293.176 84.655 293.04 85.0693 293.04 85.612V89H291.786V80.86H293.04V83.643C293.253 83.3863 293.52 83.1883 293.843 83.049C294.173 82.9097 294.532 82.84 294.921 82.84ZM304.484 85.821C304.484 86.0483 304.47 86.2537 304.44 86.437H299.809C299.846 86.921 300.026 87.3097 300.348 87.603C300.671 87.8963 301.067 88.043 301.536 88.043C302.211 88.043 302.688 87.7607 302.966 87.196H304.319C304.136 87.7533 303.802 88.2117 303.318 88.571C302.842 88.923 302.248 89.099 301.536 89.099C300.957 89.099 300.436 88.9707 299.974 88.714C299.52 88.45 299.16 88.0833 298.896 87.614C298.64 87.1373 298.511 86.5873 298.511 85.964C298.511 85.3407 298.636 84.7943 298.885 84.325C299.142 83.8483 299.498 83.4817 299.952 83.225C300.414 82.9683 300.942 82.84 301.536 82.84C302.108 82.84 302.618 82.9647 303.065 83.214C303.513 83.4633 303.861 83.8153 304.11 84.27C304.36 84.7173 304.484 85.2343 304.484 85.821ZM303.175 85.425C303.168 84.963 303.003 84.5927 302.68 84.314C302.358 84.0353 301.958 83.896 301.481 83.896C301.049 83.896 300.678 84.0353 300.37 84.314C300.062 84.5853 299.879 84.9557 299.82 85.425H303.175ZM310.039 83.962V87.317C310.039 87.5443 310.09 87.7093 310.193 87.812C310.303 87.9073 310.486 87.955 310.743 87.955H311.513V89H310.523C309.958 89 309.526 88.868 309.225 88.604C308.924 88.34 308.774 87.911 308.774 87.317V83.962H308.059V82.939H308.774V81.432H310.039V82.939H311.513V83.962H310.039ZM315.298 89.099C314.726 89.099 314.209 88.9707 313.747 88.714C313.285 88.45 312.922 88.0833 312.658 87.614C312.394 87.1373 312.262 86.5873 312.262 85.964C312.262 85.348 312.397 84.8017 312.669 84.325C312.94 83.8483 313.31 83.4817 313.78 83.225C314.249 82.9683 314.773 82.84 315.353 82.84C315.932 82.84 316.456 82.9683 316.926 83.225C317.395 83.4817 317.765 83.8483 318.037 84.325C318.308 84.8017 318.444 85.348 318.444 85.964C318.444 86.58 318.304 87.1263 318.026 87.603C317.747 88.0797 317.366 88.45 316.882 88.714C316.405 88.9707 315.877 89.099 315.298 89.099ZM315.298 88.01C315.62 88.01 315.921 87.933 316.2 87.779C316.486 87.625 316.717 87.394 316.893 87.086C317.069 86.778 317.157 86.404 317.157 85.964C317.157 85.524 317.072 85.1537 316.904 84.853C316.735 84.545 316.511 84.314 316.233 84.16C315.954 84.006 315.653 83.929 315.331 83.929C315.008 83.929 314.707 84.006 314.429 84.16C314.157 84.314 313.941 84.545 313.78 84.853C313.618 85.1537 313.538 85.524 313.538 85.964C313.538 86.6167 313.703 87.1227 314.033 87.482C314.37 87.834 314.792 88.01 315.298 88.01ZM320.937 83.83C321.15 83.5513 321.44 83.3167 321.806 83.126C322.173 82.9353 322.587 82.84 323.049 82.84C323.577 82.84 324.058 82.972 324.49 83.236C324.93 83.4927 325.275 83.8557 325.524 84.325C325.774 84.7943 325.898 85.3333 325.898 85.942C325.898 86.5507 325.774 87.097 325.524 87.581C325.275 88.0577 324.93 88.4317 324.49 88.703C324.058 88.967 323.577 89.099 323.049 89.099C322.587 89.099 322.177 89.0073 321.817 88.824C321.458 88.6333 321.165 88.3987 320.937 88.12V91.882H319.683V82.939H320.937V83.83ZM324.622 85.942C324.622 85.524 324.534 85.1647 324.358 84.864C324.19 84.556 323.962 84.325 323.676 84.171C323.398 84.0097 323.097 83.929 322.774 83.929C322.459 83.929 322.158 84.0097 321.872 84.171C321.594 84.3323 321.366 84.567 321.19 84.875C321.022 85.183 320.937 85.546 320.937 85.964C320.937 86.382 321.022 86.7487 321.19 87.064C321.366 87.372 321.594 87.6067 321.872 87.768C322.158 87.9293 322.459 88.01 322.774 88.01C323.097 88.01 323.398 87.9293 323.676 87.768C323.962 87.5993 324.19 87.3573 324.358 87.042C324.534 86.7267 324.622 86.36 324.622 85.942ZM331.25 83.819C331.433 83.511 331.675 83.2727 331.976 83.104C332.284 82.928 332.647 82.84 333.065 82.84V84.138H332.746C332.255 84.138 331.881 84.2627 331.624 84.512C331.375 84.7613 331.25 85.194 331.25 85.81V89H329.996V82.939H331.25V83.819ZM334.856 82.136C334.628 82.136 334.438 82.059 334.284 81.905C334.13 81.751 334.053 81.5603 334.053 81.333C334.053 81.1057 334.13 80.915 334.284 80.761C334.438 80.607 334.628 80.53 334.856 80.53C335.076 80.53 335.263 80.607 335.417 80.761C335.571 80.915 335.648 81.1057 335.648 81.333C335.648 81.5603 335.571 81.751 335.417 81.905C335.263 82.059 335.076 82.136 334.856 82.136ZM335.472 82.939V89H334.218V82.939H335.472ZM339.56 82.84C340.029 82.84 340.444 82.9353 340.803 83.126C341.17 83.3093 341.456 83.5403 341.661 83.819V82.939H342.926V89.099C342.926 89.6563 342.809 90.1513 342.574 90.584C342.339 91.024 341.998 91.3687 341.551 91.618C341.111 91.8673 340.583 91.992 339.967 91.992C339.146 91.992 338.464 91.7977 337.921 91.409C337.378 91.0277 337.07 90.507 336.997 89.847H338.24C338.335 90.1623 338.537 90.4153 338.845 90.606C339.16 90.804 339.534 90.903 339.967 90.903C340.473 90.903 340.88 90.749 341.188 90.441C341.503 90.133 341.661 89.6857 341.661 89.099V88.087C341.448 88.373 341.159 88.615 340.792 88.813C340.433 89.0037 340.022 89.099 339.56 89.099C339.032 89.099 338.548 88.967 338.108 88.703C337.675 88.4317 337.331 88.0577 337.074 87.581C336.825 87.097 336.7 86.5507 336.7 85.942C336.7 85.3333 336.825 84.7943 337.074 84.325C337.331 83.8557 337.675 83.4927 338.108 83.236C338.548 82.972 339.032 82.84 339.56 82.84ZM341.661 85.964C341.661 85.546 341.573 85.183 341.397 84.875C341.228 84.567 341.005 84.3323 340.726 84.171C340.447 84.0097 340.147 83.929 339.824 83.929C339.501 83.929 339.201 84.0097 338.922 84.171C338.643 84.325 338.416 84.556 338.24 84.864C338.071 85.1647 337.987 85.524 337.987 85.942C337.987 86.36 338.071 86.7267 338.24 87.042C338.416 87.3573 338.643 87.5993 338.922 87.768C339.208 87.9293 339.509 88.01 339.824 88.01C340.147 88.01 340.447 87.9293 340.726 87.768C341.005 87.6067 341.228 87.372 341.397 87.064C341.573 86.7487 341.661 86.382 341.661 85.964ZM347.708 82.84C348.17 82.84 348.581 82.939 348.94 83.137C349.307 83.335 349.593 83.6283 349.798 84.017C350.011 84.4057 350.117 84.875 350.117 85.425V89H348.874V85.612C348.874 85.0693 348.738 84.655 348.467 84.369C348.196 84.0757 347.825 83.929 347.356 83.929C346.887 83.929 346.513 84.0757 346.234 84.369C345.963 84.655 345.827 85.0693 345.827 85.612V89H344.573V80.86H345.827V83.643C346.04 83.3863 346.307 83.1883 346.63 83.049C346.96 82.9097 347.319 82.84 347.708 82.84ZM353.18 83.962V87.317C353.18 87.5443 353.231 87.7093 353.334 87.812C353.444 87.9073 353.627 87.955 353.884 87.955H354.654V89H353.664C353.099 89 352.666 88.868 352.366 88.604C352.065 88.34 351.915 87.911 351.915 87.317V83.962H351.2V82.939H351.915V81.432H353.18V82.939H354.654V83.962H353.18ZM360.13 83.962V87.317C360.13 87.5443 360.181 87.7093 360.284 87.812C360.394 87.9073 360.577 87.955 360.834 87.955H361.604V89H360.614C360.049 89 359.616 88.868 359.316 88.604C359.015 88.34 358.865 87.911 358.865 87.317V83.962H358.15V82.939H358.865V81.432H360.13V82.939H361.604V83.962H360.13ZM365.389 89.099C364.817 89.099 364.3 88.9707 363.838 88.714C363.376 88.45 363.013 88.0833 362.749 87.614C362.485 87.1373 362.353 86.5873 362.353 85.964C362.353 85.348 362.488 84.8017 362.76 84.325C363.031 83.8483 363.401 83.4817 363.871 83.225C364.34 82.9683 364.864 82.84 365.444 82.84C366.023 82.84 366.547 82.9683 367.017 83.225C367.486 83.4817 367.856 83.8483 368.128 84.325C368.399 84.8017 368.535 85.348 368.535 85.964C368.535 86.58 368.395 87.1263 368.117 87.603C367.838 88.0797 367.457 88.45 366.973 88.714C366.496 88.9707 365.968 89.099 365.389 89.099ZM365.389 88.01C365.711 88.01 366.012 87.933 366.291 87.779C366.577 87.625 366.808 87.394 366.984 87.086C367.16 86.778 367.248 86.404 367.248 85.964C367.248 85.524 367.163 85.1537 366.995 84.853C366.826 84.545 366.602 84.314 366.324 84.16C366.045 84.006 365.744 83.929 365.422 83.929C365.099 83.929 364.798 84.006 364.52 84.16C364.248 84.314 364.032 84.545 363.871 84.853C363.709 85.1537 363.629 85.524 363.629 85.964C363.629 86.6167 363.794 87.1227 364.124 87.482C364.461 87.834 364.883 88.01 365.389 88.01ZM375.261 89.099C374.689 89.099 374.172 88.9707 373.71 88.714C373.248 88.45 372.885 88.0833 372.621 87.614C372.357 87.1373 372.225 86.5873 372.225 85.964C372.225 85.348 372.36 84.8017 372.632 84.325C372.903 83.8483 373.273 83.4817 373.743 83.225C374.212 82.9683 374.736 82.84 375.316 82.84C375.895 82.84 376.419 82.9683 376.889 83.225C377.358 83.4817 377.728 83.8483 378 84.325C378.271 84.8017 378.407 85.348 378.407 85.964C378.407 86.58 378.267 87.1263 377.989 87.603C377.71 88.0797 377.329 88.45 376.845 88.714C376.368 88.9707 375.84 89.099 375.261 89.099ZM375.261 88.01C375.583 88.01 375.884 87.933 376.163 87.779C376.449 87.625 376.68 87.394 376.856 87.086C377.032 86.778 377.12 86.404 377.12 85.964C377.12 85.524 377.035 85.1537 376.867 84.853C376.698 84.545 376.474 84.314 376.196 84.16C375.917 84.006 375.616 83.929 375.294 83.929C374.971 83.929 374.67 84.006 374.392 84.16C374.12 84.314 373.904 84.545 373.743 84.853C373.581 85.1537 373.501 85.524 373.501 85.964C373.501 86.6167 373.666 87.1227 373.996 87.482C374.333 87.834 374.755 88.01 375.261 88.01ZM380.9 83.83C381.113 83.5513 381.403 83.3167 381.769 83.126C382.136 82.9353 382.55 82.84 383.012 82.84C383.54 82.84 384.021 82.972 384.453 83.236C384.893 83.4927 385.238 83.8557 385.487 84.325C385.737 84.7943 385.861 85.3333 385.861 85.942C385.861 86.5507 385.737 87.097 385.487 87.581C385.238 88.0577 384.893 88.4317 384.453 88.703C384.021 88.967 383.54 89.099 383.012 89.099C382.55 89.099 382.14 89.0073 381.78 88.824C381.421 88.6333 381.128 88.3987 380.9 88.12V91.882H379.646V82.939H380.9V83.83ZM384.585 85.942C384.585 85.524 384.497 85.1647 384.321 84.864C384.153 84.556 383.925 84.325 383.639 84.171C383.361 84.0097 383.06 83.929 382.737 83.929C382.422 83.929 382.121 84.0097 381.835 84.171C381.557 84.3323 381.329 84.567 381.153 84.875C380.985 85.183 380.9 85.546 380.9 85.964C380.9 86.382 380.985 86.7487 381.153 87.064C381.329 87.372 381.557 87.6067 381.835 87.768C382.121 87.9293 382.422 88.01 382.737 88.01C383.06 88.01 383.361 87.9293 383.639 87.768C383.925 87.5993 384.153 87.3573 384.321 87.042C384.497 86.7267 384.585 86.36 384.585 85.942ZM392.656 85.821C392.656 86.0483 392.642 86.2537 392.612 86.437H387.981C388.018 86.921 388.198 87.3097 388.52 87.603C388.843 87.8963 389.239 88.043 389.708 88.043C390.383 88.043 390.86 87.7607 391.138 87.196H392.491C392.308 87.7533 391.974 88.2117 391.49 88.571C391.014 88.923 390.42 89.099 389.708 89.099C389.129 89.099 388.608 88.9707 388.146 88.714C387.692 88.45 387.332 88.0833 387.068 87.614C386.812 87.1373 386.683 86.5873 386.683 85.964C386.683 85.3407 386.808 84.7943 387.057 84.325C387.314 83.8483 387.67 83.4817 388.124 83.225C388.586 82.9683 389.114 82.84 389.708 82.84C390.28 82.84 390.79 82.9647 391.237 83.214C391.685 83.4633 392.033 83.8153 392.282 84.27C392.532 84.7173 392.656 85.2343 392.656 85.821ZM391.347 85.425C391.34 84.963 391.175 84.5927 390.852 84.314C390.53 84.0353 390.13 83.896 389.653 83.896C389.221 83.896 388.85 84.0353 388.542 84.314C388.234 84.5853 388.051 84.9557 387.992 85.425H391.347ZM396.948 82.84C397.425 82.84 397.85 82.939 398.224 83.137C398.606 83.335 398.903 83.6283 399.115 84.017C399.328 84.4057 399.434 84.875 399.434 85.425V89H398.191V85.612C398.191 85.0693 398.056 84.655 397.784 84.369C397.513 84.0757 397.143 83.929 396.673 83.929C396.204 83.929 395.83 84.0757 395.551 84.369C395.28 84.655 395.144 85.0693 395.144 85.612V89H393.89V82.939H395.144V83.632C395.35 83.3827 395.61 83.1883 395.925 83.049C396.248 82.9097 396.589 82.84 396.948 82.84ZM405.354 83.962V87.317C405.354 87.5443 405.406 87.7093 405.508 87.812C405.618 87.9073 405.802 87.955 406.058 87.955H406.828V89H405.838C405.274 89 404.841 88.868 404.54 88.604C404.24 88.34 404.089 87.911 404.089 87.317V83.962H403.374V82.939H404.089V81.432H405.354V82.939H406.828V83.962H405.354ZM411.119 82.84C411.581 82.84 411.992 82.939 412.351 83.137C412.718 83.335 413.004 83.6283 413.209 84.017C413.422 84.4057 413.528 84.875 413.528 85.425V89H412.285V85.612C412.285 85.0693 412.15 84.655 411.878 84.369C411.607 84.0757 411.237 83.929 410.767 83.929C410.298 83.929 409.924 84.0757 409.645 84.369C409.374 84.655 409.238 85.0693 409.238 85.612V89H407.984V80.86H409.238V83.643C409.451 83.3863 409.719 83.1883 410.041 83.049C410.371 82.9097 410.731 82.84 411.119 82.84ZM420.683 85.821C420.683 86.0483 420.668 86.2537 420.639 86.437H416.008C416.044 86.921 416.224 87.3097 416.547 87.603C416.869 87.8963 417.265 88.043 417.735 88.043C418.409 88.043 418.886 87.7607 419.165 87.196H420.518C420.334 87.7533 420.001 88.2117 419.517 88.571C419.04 88.923 418.446 89.099 417.735 89.099C417.155 89.099 416.635 88.9707 416.173 88.714C415.718 88.45 415.359 88.0833 415.095 87.614C414.838 87.1373 414.71 86.5873 414.71 85.964C414.71 85.3407 414.834 84.7943 415.084 84.325C415.34 83.8483 415.696 83.4817 416.151 83.225C416.613 82.9683 417.141 82.84 417.735 82.84C418.307 82.84 418.816 82.9647 419.264 83.214C419.711 83.4633 420.059 83.8153 420.309 84.27C420.558 84.7173 420.683 85.2343 420.683 85.821ZM419.374 85.425C419.366 84.963 419.201 84.5927 418.879 84.314C418.556 84.0353 418.156 83.896 417.68 83.896C417.247 83.896 416.877 84.0353 416.569 84.314C416.261 84.5853 416.077 84.9557 416.019 85.425H419.374ZM430.692 90.386L429.35 88.934C429.02 89.0293 428.657 89.077 428.261 89.077C427.55 89.077 426.894 88.912 426.292 88.582C425.698 88.2447 425.225 87.779 424.873 87.185C424.529 86.5837 424.356 85.909 424.356 85.161C424.356 84.413 424.529 83.742 424.873 83.148C425.225 82.554 425.698 82.092 426.292 81.762C426.894 81.4247 427.55 81.256 428.261 81.256C428.98 81.256 429.636 81.4247 430.23 81.762C430.832 82.092 431.305 82.554 431.649 83.148C431.994 83.742 432.166 84.413 432.166 85.161C432.166 85.865 432.012 86.503 431.704 87.075C431.404 87.6397 430.986 88.0943 430.45 88.439L432.287 90.386H430.692ZM425.643 85.161C425.643 85.7257 425.753 86.2243 425.973 86.657C426.201 87.0823 426.512 87.4123 426.908 87.647C427.304 87.8743 427.755 87.988 428.261 87.988C428.767 87.988 429.218 87.8743 429.614 87.647C430.01 87.4123 430.318 87.0823 430.538 86.657C430.766 86.2243 430.879 85.7257 430.879 85.161C430.879 84.5963 430.766 84.1013 430.538 83.676C430.318 83.2507 430.01 82.9243 429.614 82.697C429.218 82.4697 428.767 82.356 428.261 82.356C427.755 82.356 427.304 82.4697 426.908 82.697C426.512 82.9243 426.201 83.2507 425.973 83.676C425.753 84.1013 425.643 84.5963 425.643 85.161ZM438.921 82.939V89H437.667V88.285C437.469 88.5343 437.209 88.7323 436.886 88.879C436.571 89.0183 436.234 89.088 435.874 89.088C435.398 89.088 434.969 88.989 434.587 88.791C434.213 88.593 433.916 88.2997 433.696 87.911C433.484 87.5223 433.377 87.053 433.377 86.503V82.939H434.62V86.316C434.62 86.8587 434.756 87.2767 435.027 87.57C435.299 87.856 435.669 87.999 436.138 87.999C436.608 87.999 436.978 87.856 437.249 87.57C437.528 87.2767 437.667 86.8587 437.667 86.316V82.939H438.921ZM441.214 82.136C440.987 82.136 440.796 82.059 440.642 81.905C440.488 81.751 440.411 81.5603 440.411 81.333C440.411 81.1057 440.488 80.915 440.642 80.761C440.796 80.607 440.987 80.53 441.214 80.53C441.434 80.53 441.621 80.607 441.775 80.761C441.929 80.915 442.006 81.1057 442.006 81.333C442.006 81.5603 441.929 81.751 441.775 81.905C441.621 82.059 441.434 82.136 441.214 82.136ZM441.83 82.939V89H440.576V82.939H441.83ZM443.058 85.964C443.058 85.3407 443.183 84.7943 443.432 84.325C443.689 83.8483 444.041 83.4817 444.488 83.225C444.936 82.9683 445.449 82.84 446.028 82.84C446.762 82.84 447.367 83.016 447.843 83.368C448.327 83.7127 448.654 84.2077 448.822 84.853H447.469C447.359 84.5523 447.183 84.3177 446.941 84.149C446.699 83.9803 446.395 83.896 446.028 83.896C445.515 83.896 445.104 84.0793 444.796 84.446C444.496 84.8053 444.345 85.3113 444.345 85.964C444.345 86.6167 444.496 87.1263 444.796 87.493C445.104 87.8597 445.515 88.043 446.028 88.043C446.754 88.043 447.235 87.724 447.469 87.086H448.822C448.646 87.702 448.316 88.1933 447.832 88.56C447.348 88.9193 446.747 89.099 446.028 89.099C445.449 89.099 444.936 88.9707 444.488 88.714C444.041 88.45 443.689 88.0833 443.432 87.614C443.183 87.1373 443.058 86.5873 443.058 85.964ZM452.47 85.975L455.264 89H453.57L451.326 86.393V89H450.072V80.86H451.326V85.59L453.526 82.939H455.264L452.47 85.975ZM243.344 108.077C242.831 108.077 242.369 107.989 241.958 107.813C241.547 107.63 241.225 107.373 240.99 107.043C240.755 106.713 240.638 106.328 240.638 105.888H241.98C242.009 106.218 242.138 106.489 242.365 106.702C242.6 106.915 242.926 107.021 243.344 107.021C243.777 107.021 244.114 106.918 244.356 106.713C244.598 106.5 244.719 106.229 244.719 105.899C244.719 105.642 244.642 105.433 244.488 105.272C244.341 105.111 244.154 104.986 243.927 104.898C243.707 104.81 243.399 104.715 243.003 104.612C242.504 104.48 242.097 104.348 241.782 104.216C241.474 104.077 241.21 103.864 240.99 103.578C240.77 103.292 240.66 102.911 240.66 102.434C240.66 101.994 240.77 101.609 240.99 101.279C241.21 100.949 241.518 100.696 241.914 100.52C242.31 100.344 242.768 100.256 243.289 100.256C244.03 100.256 244.635 100.443 245.104 100.817C245.581 101.184 245.845 101.69 245.896 102.335H244.51C244.488 102.056 244.356 101.818 244.114 101.62C243.872 101.422 243.553 101.323 243.157 101.323C242.798 101.323 242.504 101.415 242.277 101.598C242.05 101.781 241.936 102.045 241.936 102.39C241.936 102.625 242.006 102.819 242.145 102.973C242.292 103.12 242.475 103.237 242.695 103.325C242.915 103.413 243.216 103.508 243.597 103.611C244.103 103.75 244.514 103.89 244.829 104.029C245.152 104.168 245.423 104.385 245.643 104.678C245.87 104.964 245.984 105.349 245.984 105.833C245.984 106.222 245.878 106.588 245.665 106.933C245.46 107.278 245.155 107.556 244.752 107.769C244.356 107.974 243.887 108.077 243.344 108.077ZM253.019 104.821C253.019 105.048 253.004 105.254 252.975 105.437H248.344C248.38 105.921 248.56 106.31 248.883 106.603C249.205 106.896 249.601 107.043 250.071 107.043C250.745 107.043 251.222 106.761 251.501 106.196H252.854C252.67 106.753 252.337 107.212 251.853 107.571C251.376 107.923 250.782 108.099 250.071 108.099C249.491 108.099 248.971 107.971 248.509 107.714C248.054 107.45 247.695 107.083 247.431 106.614C247.174 106.137 247.046 105.587 247.046 104.964C247.046 104.341 247.17 103.794 247.42 103.325C247.676 102.848 248.032 102.482 248.487 102.225C248.949 101.968 249.477 101.84 250.071 101.84C250.643 101.84 251.152 101.965 251.6 102.214C252.047 102.463 252.395 102.815 252.645 103.27C252.894 103.717 253.019 104.234 253.019 104.821ZM251.71 104.425C251.702 103.963 251.537 103.593 251.215 103.314C250.892 103.035 250.492 102.896 250.016 102.896C249.583 102.896 249.213 103.035 248.905 103.314C248.597 103.585 248.413 103.956 248.355 104.425H251.71ZM255.716 102.962V106.317C255.716 106.544 255.767 106.709 255.87 106.812C255.98 106.907 256.163 106.955 256.42 106.955H257.19V108H256.2C255.635 108 255.202 107.868 254.902 107.604C254.601 107.34 254.451 106.911 254.451 106.317V102.962H253.736V101.939H254.451V100.432H255.716V101.939H257.19V102.962H255.716ZM259.809 102.962V106.317C259.809 106.544 259.86 106.709 259.963 106.812C260.073 106.907 260.256 106.955 260.513 106.955H261.283V108H260.293C259.728 108 259.295 107.868 258.995 107.604C258.694 107.34 258.544 106.911 258.544 106.317V102.962H257.829V101.939H258.544V100.432H259.809V101.939H261.283V102.962H259.809ZM263.076 101.136C262.849 101.136 262.658 101.059 262.504 100.905C262.35 100.751 262.273 100.56 262.273 100.333C262.273 100.106 262.35 99.915 262.504 99.761C262.658 99.607 262.849 99.53 263.076 99.53C263.296 99.53 263.483 99.607 263.637 99.761C263.791 99.915 263.868 100.106 263.868 100.333C263.868 100.56 263.791 100.751 263.637 100.905C263.483 101.059 263.296 101.136 263.076 101.136ZM263.692 101.939V108H262.438V101.939H263.692ZM268.397 101.84C268.873 101.84 269.299 101.939 269.673 102.137C270.054 102.335 270.351 102.628 270.564 103.017C270.776 103.406 270.883 103.875 270.883 104.425V108H269.64V104.612C269.64 104.069 269.504 103.655 269.233 103.369C268.961 103.076 268.591 102.929 268.122 102.929C267.652 102.929 267.278 103.076 267 103.369C266.728 103.655 266.593 104.069 266.593 104.612V108H265.339V101.939H266.593V102.632C266.798 102.383 267.058 102.188 267.374 102.049C267.696 101.91 268.037 101.84 268.397 101.84ZM274.924 101.84C275.394 101.84 275.808 101.935 276.167 102.126C276.534 102.309 276.82 102.54 277.025 102.819V101.939H278.29V108.099C278.29 108.656 278.173 109.151 277.938 109.584C277.704 110.024 277.363 110.369 276.915 110.618C276.475 110.867 275.947 110.992 275.331 110.992C274.51 110.992 273.828 110.798 273.285 110.409C272.743 110.028 272.435 109.507 272.361 108.847H273.604C273.7 109.162 273.901 109.415 274.209 109.606C274.525 109.804 274.899 109.903 275.331 109.903C275.837 109.903 276.244 109.749 276.552 109.441C276.868 109.133 277.025 108.686 277.025 108.099V107.087C276.813 107.373 276.523 107.615 276.156 107.813C275.797 108.004 275.386 108.099 274.924 108.099C274.396 108.099 273.912 107.967 273.472 107.703C273.04 107.432 272.695 107.058 272.438 106.581C272.189 106.097 272.064 105.551 272.064 104.942C272.064 104.333 272.189 103.794 272.438 103.325C272.695 102.856 273.04 102.493 273.472 102.236C273.912 101.972 274.396 101.84 274.924 101.84ZM277.025 104.964C277.025 104.546 276.937 104.183 276.761 103.875C276.593 103.567 276.369 103.332 276.09 103.171C275.812 103.01 275.511 102.929 275.188 102.929C274.866 102.929 274.565 103.01 274.286 103.171C274.008 103.325 273.78 103.556 273.604 103.864C273.436 104.165 273.351 104.524 273.351 104.942C273.351 105.36 273.436 105.727 273.604 106.042C273.78 106.357 274.008 106.599 274.286 106.768C274.572 106.929 274.873 107.01 275.188 107.01C275.511 107.01 275.812 106.929 276.09 106.768C276.369 106.607 276.593 106.372 276.761 106.064C276.937 105.749 277.025 105.382 277.025 104.964ZM282.137 108.099C281.661 108.099 281.232 108.015 280.85 107.846C280.476 107.67 280.179 107.435 279.959 107.142C279.739 106.841 279.622 106.508 279.607 106.141H280.905C280.927 106.398 281.048 106.614 281.268 106.79C281.496 106.959 281.778 107.043 282.115 107.043C282.467 107.043 282.739 106.977 282.929 106.845C283.127 106.706 283.226 106.53 283.226 106.317C283.226 106.09 283.116 105.921 282.896 105.811C282.684 105.701 282.343 105.58 281.873 105.448C281.419 105.323 281.048 105.202 280.762 105.085C280.476 104.968 280.227 104.788 280.014 104.546C279.809 104.304 279.706 103.985 279.706 103.589C279.706 103.266 279.802 102.973 279.992 102.709C280.183 102.438 280.454 102.225 280.806 102.071C281.166 101.917 281.576 101.84 282.038 101.84C282.728 101.84 283.281 102.016 283.699 102.368C284.125 102.713 284.352 103.186 284.381 103.787H283.127C283.105 103.516 282.995 103.299 282.797 103.138C282.599 102.977 282.332 102.896 281.994 102.896C281.664 102.896 281.411 102.958 281.235 103.083C281.059 103.208 280.971 103.373 280.971 103.578C280.971 103.739 281.03 103.875 281.147 103.985C281.265 104.095 281.408 104.183 281.576 104.249C281.745 104.308 281.994 104.385 282.324 104.48C282.764 104.597 283.124 104.718 283.402 104.843C283.688 104.96 283.934 105.136 284.139 105.371C284.345 105.606 284.451 105.917 284.458 106.306C284.458 106.651 284.363 106.959 284.172 107.23C283.982 107.501 283.71 107.714 283.358 107.868C283.014 108.022 282.607 108.099 282.137 108.099ZM288.253 104.942C288.253 104.333 288.377 103.794 288.627 103.325C288.883 102.856 289.228 102.493 289.661 102.236C290.101 101.972 290.585 101.84 291.113 101.84C291.589 101.84 292.004 101.935 292.356 102.126C292.715 102.309 293.001 102.54 293.214 102.819V101.939H294.479V108H293.214V107.098C293.001 107.384 292.711 107.622 292.345 107.813C291.978 108.004 291.56 108.099 291.091 108.099C290.57 108.099 290.093 107.967 289.661 107.703C289.228 107.432 288.883 107.058 288.627 106.581C288.377 106.097 288.253 105.551 288.253 104.942ZM293.214 104.964C293.214 104.546 293.126 104.183 292.95 103.875C292.781 103.567 292.557 103.332 292.279 103.171C292 103.01 291.699 102.929 291.377 102.929C291.054 102.929 290.753 103.01 290.475 103.171C290.196 103.325 289.969 103.556 289.793 103.864C289.624 104.165 289.54 104.524 289.54 104.942C289.54 105.36 289.624 105.727 289.793 106.042C289.969 106.357 290.196 106.599 290.475 106.768C290.761 106.929 291.061 107.01 291.377 107.01C291.699 107.01 292 106.929 292.279 106.768C292.557 106.607 292.781 106.372 292.95 106.064C293.126 105.749 293.214 105.382 293.214 104.964ZM299.184 101.84C299.66 101.84 300.086 101.939 300.46 102.137C300.841 102.335 301.138 102.628 301.351 103.017C301.563 103.406 301.67 103.875 301.67 104.425V108H300.427V104.612C300.427 104.069 300.291 103.655 300.02 103.369C299.748 103.076 299.378 102.929 298.909 102.929C298.439 102.929 298.065 103.076 297.787 103.369C297.515 103.655 297.38 104.069 297.38 104.612V108H296.126V101.939H297.38V102.632C297.585 102.383 297.845 102.188 298.161 102.049C298.483 101.91 298.824 101.84 299.184 101.84ZM302.851 104.942C302.851 104.333 302.976 103.794 303.225 103.325C303.482 102.856 303.827 102.493 304.259 102.236C304.699 101.972 305.187 101.84 305.722 101.84C306.118 101.84 306.507 101.928 306.888 102.104C307.277 102.273 307.585 102.5 307.812 102.786V99.86H309.077V108H307.812V107.087C307.607 107.38 307.321 107.622 306.954 107.813C306.595 108.004 306.181 108.099 305.711 108.099C305.183 108.099 304.699 107.967 304.259 107.703C303.827 107.432 303.482 107.058 303.225 106.581C302.976 106.097 302.851 105.551 302.851 104.942ZM307.812 104.964C307.812 104.546 307.724 104.183 307.548 103.875C307.38 103.567 307.156 103.332 306.877 103.171C306.599 103.01 306.298 102.929 305.975 102.929C305.653 102.929 305.352 103.01 305.073 103.171C304.795 103.325 304.567 103.556 304.391 103.864C304.223 104.165 304.138 104.524 304.138 104.942C304.138 105.36 304.223 105.727 304.391 106.042C304.567 106.357 304.795 106.599 305.073 106.768C305.359 106.929 305.66 107.01 305.975 107.01C306.298 107.01 306.599 106.929 306.877 106.768C307.156 106.607 307.38 106.372 307.548 106.064C307.724 105.749 307.812 105.382 307.812 104.964ZM315.045 102.962V106.317C315.045 106.544 315.096 106.709 315.199 106.812C315.309 106.907 315.492 106.955 315.749 106.955H316.519V108H315.529C314.964 108 314.532 107.868 314.231 107.604C313.93 107.34 313.78 106.911 313.78 106.317V102.962H313.065V101.939H313.78V100.432H315.045V101.939H316.519V102.962H315.045ZM320.81 101.84C321.272 101.84 321.682 101.939 322.042 102.137C322.408 102.335 322.694 102.628 322.9 103.017C323.112 103.406 323.219 103.875 323.219 104.425V108H321.976V104.612C321.976 104.069 321.84 103.655 321.569 103.369C321.297 103.076 320.927 102.929 320.458 102.929C319.988 102.929 319.614 103.076 319.336 103.369C319.064 103.655 318.929 104.069 318.929 104.612V108H317.675V99.86H318.929V102.643C319.141 102.386 319.409 102.188 319.732 102.049C320.062 101.91 320.421 101.84 320.81 101.84ZM330.373 104.821C330.373 105.048 330.358 105.254 330.329 105.437H325.698C325.735 105.921 325.914 106.31 326.237 106.603C326.56 106.896 326.956 107.043 327.425 107.043C328.1 107.043 328.576 106.761 328.855 106.196H330.208C330.025 106.753 329.691 107.212 329.207 107.571C328.73 107.923 328.136 108.099 327.425 108.099C326.846 108.099 326.325 107.971 325.863 107.714C325.408 107.45 325.049 107.083 324.785 106.614C324.528 106.137 324.4 105.587 324.4 104.964C324.4 104.341 324.525 103.794 324.774 103.325C325.031 102.848 325.386 102.482 325.841 102.225C326.303 101.968 326.831 101.84 327.425 101.84C327.997 101.84 328.507 101.965 328.954 102.214C329.401 102.463 329.75 102.815 329.999 103.27C330.248 103.717 330.373 104.234 330.373 104.821ZM329.064 104.425C329.057 103.963 328.892 103.593 328.569 103.314C328.246 103.035 327.847 102.896 327.37 102.896C326.937 102.896 326.567 103.035 326.259 103.314C325.951 103.585 325.768 103.956 325.709 104.425H329.064ZM340.746 108H339.492L335.719 102.291V108H334.465V100.344H335.719L339.492 106.042V100.344H340.746V108ZM345.021 108.099C344.449 108.099 343.932 107.971 343.47 107.714C343.008 107.45 342.645 107.083 342.381 106.614C342.117 106.137 341.985 105.587 341.985 104.964C341.985 104.348 342.121 103.802 342.392 103.325C342.664 102.848 343.034 102.482 343.503 102.225C343.973 101.968 344.497 101.84 345.076 101.84C345.656 101.84 346.18 101.968 346.649 102.225C347.119 102.482 347.489 102.848 347.76 103.325C348.032 103.802 348.167 104.348 348.167 104.964C348.167 105.58 348.028 106.126 347.749 106.603C347.471 107.08 347.089 107.45 346.605 107.714C346.129 107.971 345.601 108.099 345.021 108.099ZM345.021 107.01C345.344 107.01 345.645 106.933 345.923 106.779C346.209 106.625 346.44 106.394 346.616 106.086C346.792 105.778 346.88 105.404 346.88 104.964C346.88 104.524 346.796 104.154 346.627 103.853C346.459 103.545 346.235 103.314 345.956 103.16C345.678 103.006 345.377 102.929 345.054 102.929C344.732 102.929 344.431 103.006 344.152 103.16C343.881 103.314 343.665 103.545 343.503 103.853C343.342 104.154 343.261 104.524 343.261 104.964C343.261 105.617 343.426 106.123 343.756 106.482C344.094 106.834 344.515 107.01 345.021 107.01ZM350.87 102.962V106.317C350.87 106.544 350.921 106.709 351.024 106.812C351.134 106.907 351.317 106.955 351.574 106.955H352.344V108H351.354C350.789 108 350.357 107.868 350.056 107.604C349.755 107.34 349.605 106.911 349.605 106.317V102.962H348.89V101.939H349.605V100.432H350.87V101.939H352.344V102.962H350.87ZM354.138 101.136C353.91 101.136 353.72 101.059 353.566 100.905C353.412 100.751 353.335 100.56 353.335 100.333C353.335 100.106 353.412 99.915 353.566 99.761C353.72 99.607 353.91 99.53 354.138 99.53C354.358 99.53 354.545 99.607 354.699 99.761C354.853 99.915 354.93 100.106 354.93 100.333C354.93 100.56 354.853 100.751 354.699 100.905C354.545 101.059 354.358 101.136 354.138 101.136ZM354.754 101.939V108H353.5V101.939H354.754ZM358.941 102.962H357.819V108H356.554V102.962H355.839V101.939H356.554V101.51C356.554 100.813 356.738 100.307 357.104 99.992C357.478 99.6693 358.061 99.508 358.853 99.508V100.553C358.472 100.553 358.204 100.626 358.05 100.773C357.896 100.912 357.819 101.158 357.819 101.51V101.939H358.941V102.962ZM360.691 101.136C360.463 101.136 360.273 101.059 360.119 100.905C359.965 100.751 359.888 100.56 359.888 100.333C359.888 100.106 359.965 99.915 360.119 99.761C360.273 99.607 360.463 99.53 360.691 99.53C360.911 99.53 361.098 99.607 361.252 99.761C361.406 99.915 361.483 100.106 361.483 100.333C361.483 100.56 361.406 100.751 361.252 100.905C361.098 101.059 360.911 101.136 360.691 101.136ZM361.307 101.939V108H360.053V101.939H361.307ZM362.535 104.964C362.535 104.341 362.66 103.794 362.909 103.325C363.166 102.848 363.518 102.482 363.965 102.225C364.412 101.968 364.926 101.84 365.505 101.84C366.238 101.84 366.843 102.016 367.32 102.368C367.804 102.713 368.13 103.208 368.299 103.853H366.946C366.836 103.552 366.66 103.318 366.418 103.149C366.176 102.98 365.872 102.896 365.505 102.896C364.992 102.896 364.581 103.079 364.273 103.446C363.972 103.805 363.822 104.311 363.822 104.964C363.822 105.617 363.972 106.126 364.273 106.493C364.581 106.86 364.992 107.043 365.505 107.043C366.231 107.043 366.711 106.724 366.946 106.086H368.299C368.123 106.702 367.793 107.193 367.309 107.56C366.825 107.919 366.224 108.099 365.505 108.099C364.926 108.099 364.412 107.971 363.965 107.714C363.518 107.45 363.166 107.083 362.909 106.614C362.66 106.137 362.535 105.587 362.535 104.964ZM369.131 104.942C369.131 104.333 369.255 103.794 369.505 103.325C369.761 102.856 370.106 102.493 370.539 102.236C370.979 101.972 371.463 101.84 371.991 101.84C372.467 101.84 372.882 101.935 373.234 102.126C373.593 102.309 373.879 102.54 374.092 102.819V101.939H375.357V108H374.092V107.098C373.879 107.384 373.589 107.622 373.223 107.813C372.856 108.004 372.438 108.099 371.969 108.099C371.448 108.099 370.971 107.967 370.539 107.703C370.106 107.432 369.761 107.058 369.505 106.581C369.255 106.097 369.131 105.551 369.131 104.942ZM374.092 104.964C374.092 104.546 374.004 104.183 373.828 103.875C373.659 103.567 373.435 103.332 373.157 103.171C372.878 103.01 372.577 102.929 372.255 102.929C371.932 102.929 371.631 103.01 371.353 103.171C371.074 103.325 370.847 103.556 370.671 103.864C370.502 104.165 370.418 104.524 370.418 104.942C370.418 105.36 370.502 105.727 370.671 106.042C370.847 106.357 371.074 106.599 371.353 106.768C371.639 106.929 371.939 107.01 372.255 107.01C372.577 107.01 372.878 106.929 373.157 106.768C373.435 106.607 373.659 106.372 373.828 106.064C374.004 105.749 374.092 105.382 374.092 104.964ZM378.467 102.962V106.317C378.467 106.544 378.518 106.709 378.621 106.812C378.731 106.907 378.914 106.955 379.171 106.955H379.941V108H378.951C378.386 108 377.953 107.868 377.653 107.604C377.352 107.34 377.202 106.911 377.202 106.317V102.962H376.487V101.939H377.202V100.432H378.467V101.939H379.941V102.962H378.467ZM381.734 101.136C381.507 101.136 381.316 101.059 381.162 100.905C381.008 100.751 380.931 100.56 380.931 100.333C380.931 100.106 381.008 99.915 381.162 99.761C381.316 99.607 381.507 99.53 381.734 99.53C381.954 99.53 382.141 99.607 382.295 99.761C382.449 99.915 382.526 100.106 382.526 100.333C382.526 100.56 382.449 100.751 382.295 100.905C382.141 101.059 381.954 101.136 381.734 101.136ZM382.35 101.939V108H381.096V101.939H382.35ZM386.626 108.099C386.054 108.099 385.537 107.971 385.075 107.714C384.613 107.45 384.25 107.083 383.986 106.614C383.722 106.137 383.59 105.587 383.59 104.964C383.59 104.348 383.726 103.802 383.997 103.325C384.268 102.848 384.639 102.482 385.108 102.225C385.577 101.968 386.102 101.84 386.681 101.84C387.26 101.84 387.785 101.968 388.254 102.225C388.723 102.482 389.094 102.848 389.365 103.325C389.636 103.802 389.772 104.348 389.772 104.964C389.772 105.58 389.633 106.126 389.354 106.603C389.075 107.08 388.694 107.45 388.21 107.714C387.733 107.971 387.205 108.099 386.626 108.099ZM386.626 107.01C386.949 107.01 387.249 106.933 387.528 106.779C387.814 106.625 388.045 106.394 388.221 106.086C388.397 105.778 388.485 105.404 388.485 104.964C388.485 104.524 388.401 104.154 388.232 103.853C388.063 103.545 387.84 103.314 387.561 103.16C387.282 103.006 386.982 102.929 386.659 102.929C386.336 102.929 386.036 103.006 385.757 103.16C385.486 103.314 385.269 103.545 385.108 103.853C384.947 104.154 384.866 104.524 384.866 104.964C384.866 105.617 385.031 106.123 385.361 106.482C385.698 106.834 386.12 107.01 386.626 107.01ZM394.07 101.84C394.546 101.84 394.972 101.939 395.346 102.137C395.727 102.335 396.024 102.628 396.237 103.017C396.449 103.406 396.556 103.875 396.556 104.425V108H395.313V104.612C395.313 104.069 395.177 103.655 394.906 103.369C394.634 103.076 394.264 102.929 393.795 102.929C393.325 102.929 392.951 103.076 392.673 103.369C392.401 103.655 392.266 104.069 392.266 104.612V108H391.012V101.939H392.266V102.632C392.471 102.383 392.731 102.188 393.047 102.049C393.369 101.91 393.71 101.84 394.07 101.84ZM406.359 102.632C406.359 103.021 406.267 103.387 406.084 103.732C405.9 104.077 405.607 104.359 405.204 104.579C404.8 104.792 404.283 104.898 403.653 104.898H402.267V108H401.013V100.355H403.653C404.239 100.355 404.734 100.458 405.138 100.663C405.548 100.861 405.853 101.132 406.051 101.477C406.256 101.822 406.359 102.207 406.359 102.632ZM403.653 103.875C404.129 103.875 404.485 103.769 404.72 103.556C404.954 103.336 405.072 103.028 405.072 102.632C405.072 101.796 404.599 101.378 403.653 101.378H402.267V103.875H403.653ZM407.136 104.942C407.136 104.333 407.261 103.794 407.51 103.325C407.767 102.856 408.112 102.493 408.544 102.236C408.984 101.972 409.468 101.84 409.996 101.84C410.473 101.84 410.887 101.935 411.239 102.126C411.599 102.309 411.885 102.54 412.097 102.819V101.939H413.362V108H412.097V107.098C411.885 107.384 411.595 107.622 411.228 107.813C410.862 108.004 410.444 108.099 409.974 108.099C409.454 108.099 408.977 107.967 408.544 107.703C408.112 107.432 407.767 107.058 407.51 106.581C407.261 106.097 407.136 105.551 407.136 104.942ZM412.097 104.964C412.097 104.546 412.009 104.183 411.833 103.875C411.665 103.567 411.441 103.332 411.162 103.171C410.884 103.01 410.583 102.929 410.26 102.929C409.938 102.929 409.637 103.01 409.358 103.171C409.08 103.325 408.852 103.556 408.676 103.864C408.508 104.165 408.423 104.524 408.423 104.942C408.423 105.36 408.508 105.727 408.676 106.042C408.852 106.357 409.08 106.599 409.358 106.768C409.644 106.929 409.945 107.01 410.26 107.01C410.583 107.01 410.884 106.929 411.162 106.768C411.441 106.607 411.665 106.372 411.833 106.064C412.009 105.749 412.097 105.382 412.097 104.964ZM418.068 101.84C418.544 101.84 418.97 101.939 419.344 102.137C419.725 102.335 420.022 102.628 420.235 103.017C420.447 103.406 420.554 103.875 420.554 104.425V108H419.311V104.612C419.311 104.069 419.175 103.655 418.904 103.369C418.632 103.076 418.262 102.929 417.793 102.929C417.323 102.929 416.949 103.076 416.671 103.369C416.399 103.655 416.264 104.069 416.264 104.612V108H415.01V101.939H416.264V102.632C416.469 102.383 416.729 102.188 417.045 102.049C417.367 101.91 417.708 101.84 418.068 101.84ZM427.708 104.821C427.708 105.048 427.693 105.254 427.664 105.437H423.033C423.07 105.921 423.249 106.31 423.572 106.603C423.895 106.896 424.291 107.043 424.76 107.043C425.435 107.043 425.911 106.761 426.19 106.196H427.543C427.36 106.753 427.026 107.212 426.542 107.571C426.065 107.923 425.471 108.099 424.76 108.099C424.181 108.099 423.66 107.971 423.198 107.714C422.743 107.45 422.384 107.083 422.12 106.614C421.863 106.137 421.735 105.587 421.735 104.964C421.735 104.341 421.86 103.794 422.109 103.325C422.366 102.848 422.721 102.482 423.176 102.225C423.638 101.968 424.166 101.84 424.76 101.84C425.332 101.84 425.842 101.965 426.289 102.214C426.736 102.463 427.085 102.815 427.334 103.27C427.583 103.717 427.708 104.234 427.708 104.821ZM426.399 104.425C426.392 103.963 426.227 103.593 425.904 103.314C425.581 103.035 425.182 102.896 424.705 102.896C424.272 102.896 423.902 103.035 423.594 103.314C423.286 103.585 423.103 103.956 423.044 104.425H426.399ZM430.196 99.86V108H428.942V99.86H430.196ZM432.349 108.077C432.121 108.077 431.931 108 431.777 107.846C431.623 107.692 431.546 107.501 431.546 107.274C431.546 107.047 431.623 106.856 431.777 106.702C431.931 106.548 432.121 106.471 432.349 106.471C432.569 106.471 432.756 106.548 432.91 106.702C433.064 106.856 433.141 107.047 433.141 107.274C433.141 107.501 433.064 107.692 432.91 107.846C432.756 108 432.569 108.077 432.349 108.077Z"></path>
<rect fill="black" rx="10" height="120" width="160" y="100" x="40"></rect>
<rect fill="#191919" rx="5" height="20" width="150" y="195" x="45"></rect>
<path fill="url(#paint0_linear_509_208)" d="M105 201C105 200.448 105.448 200 106 200H109.783V204.783H105V201Z"></path>
<path fill="url(#paint1_linear_509_208)" d="M105 205.217H109.783V210H106C105.448 210 105 209.552 105 209V205.217Z"></path>
<path fill="url(#paint2_linear_509_208)" d="M110.217 205.217H115V209C115 209.552 114.552 210 114 210H110.217V205.217Z"></path>
<path fill="url(#paint3_linear_509_208)" d="M110.217 200H114C114.552 200 115 200.448 115 201V204.783H110.217V200Z"></path>
<path fill="url(#paint4_linear_509_208)" d="M125 203.227C125 202.675 125.448 202.227 126 202.227H134C134.552 202.227 135 202.675 135 203.227V209C135 209.552 134.552 210 134 210H126C125.448 210 125 209.552 125 209V203.227Z"></path>
<path fill="url(#paint5_linear_509_208)" d="M125 202C125 201.448 125.448 201 126 201H128.637C128.968 201 129.278 201.164 129.464 201.438L130 202.227L129.464 203.016C129.278 203.29 128.968 203.455 128.637 203.455H125V202Z"></path>
<path fill="url(#paint6_linear_509_208)" d="M126.667 208.545C126.667 207.993 127.114 207.545 127.667 207.545H132.333C132.885 207.545 133.333 207.993 133.333 208.545V210H126.667V208.545Z"></path>
<rect fill="#0C6BB5" rx="0.409091" height="0.818182" width="3.33333" y="208.364" x="128.333"></rect>
<path fill="#191919" d="M165 110C165 107.239 167.239 105 170 105H190C192.761 105 195 107.239 195 110V120C195 122.761 192.761 125 190 125H170C167.239 125 165 122.761 165 120V110Z"></path>
<path fill="#4CC2FF" d="M175 115C175 112.239 177.239 110 180 110C182.761 110 185 112.239 185 115C185 117.761 182.761 120 180 120C177.239 120 175 117.761 175 115Z"></path>
<path fill="black" d="M179.108 113.203V112.488H180.538V117.5H179.747V113.203H179.108Z"></path>
<path stroke="white" fill="#1F1F1F" d="M173.061 118.768L181.232 126.939C182.177 127.884 181.508 129.5 180.172 129.5H179.314C177.059 129.5 174.897 130.396 173.303 131.99L173.061 132.232C172.116 133.177 170.5 132.508 170.5 131.172V119.828C170.5 118.492 172.116 117.823 173.061 118.768Z"></path>
<rect fill="white" rx="3" height="6" width="6" y="252" x="103"></rect>
<rect fill="#7E7E7E" rx="2" height="4" width="4" y="253" x="118"></rect>
<rect fill="#7E7E7E" rx="2" height="4" width="4" y="253" x="132"></rect>
<path fill="white" d="M88.5 255.866C87.8333 255.481 87.8333 254.519 88.5 254.134L93 251.536C93.6667 251.151 94.5 251.632 94.5 252.402L94.5 257.598C94.5 258.368 93.6667 258.849 93 258.464L88.5 255.866Z"></path>
<path fill="white" d="M151.5 254.134C152.167 254.519 152.167 255.481 151.5 255.866L147 258.464C146.333 258.849 145.5 258.368 145.5 257.598L145.5 252.402C145.5 251.632 146.333 251.151 147 251.536L151.5 254.134Z"></path>
<defs>
<linearGradient gradientUnits="userSpaceOnUse" y2="200.435" x2="106.739" y1="209.565" x1="113.261" id="paint0_linear_509_208">
<stop stop-color="#027AD4"></stop>
<stop stop-color="#49CDFC" offset="1"></stop>
</linearGradient>
<linearGradient gradientUnits="userSpaceOnUse" y2="200.435" x2="106.739" y1="209.565" x1="113.261" id="paint1_linear_509_208">
<stop stop-color="#027AD4"></stop>
<stop stop-color="#49CDFC" offset="1"></stop>
</linearGradient>
<linearGradient gradientUnits="userSpaceOnUse" y2="200.435" x2="106.739" y1="209.565" x1="113.261" id="paint2_linear_509_208">
<stop stop-color="#027AD4"></stop>
<stop stop-color="#49CDFC" offset="1"></stop>
</linearGradient>
<linearGradient gradientUnits="userSpaceOnUse" y2="200.435" x2="106.739" y1="209.565" x1="113.261" id="paint3_linear_509_208">
<stop stop-color="#027AD4"></stop>
<stop stop-color="#49CDFC" offset="1"></stop>
</linearGradient>
<linearGradient gradientUnits="userSpaceOnUse" y2="202.227" x2="131.667" y1="210" x1="131.667" id="paint4_linear_509_208">
<stop stop-color="#F7B70A"></stop>
<stop stop-color="#FFD04B" offset="1"></stop>
</linearGradient>
<linearGradient gradientUnits="userSpaceOnUse" y2="203.455" x2="127.5" y1="201" x1="127.5" id="paint5_linear_509_208">
<stop stop-color="#E09F00"></stop>
<stop stop-color="#BA8400" offset="1"></stop>
</linearGradient>
<linearGradient gradientUnits="userSpaceOnUse" y2="209.08" x2="126.667" y1="209.08" x1="133.333" id="paint6_linear_509_208">
<stop stop-color="#046CBD"></stop>
<stop stop-color="#108AD7" offset="1"></stop>
</linearGradient>
</defs>
</svg>
