<svg version="1.1" xmlns="http://www.w3.org/2000/svg" xmlns:xlink="http://www.w3.org/1999/xlink" width="40" height="20" viewBox="0,0,40,20"><g transform="translate(-220,-167)"><g data-paper-data="{&quot;isPaintingLayer&quot;:true}" fill-rule="nonzero" stroke="none" stroke-width="1" stroke-linecap="butt" stroke-linejoin="miter" stroke-miterlimit="10" stroke-dasharray="" stroke-dashoffset="0" style="mix-blend-mode: normal"><path d="M220,187v-20h40v20z" fill="none"></path><path d="M245.232,180l-1.92,-3.336h-1.044v3.336h-1.368v-8.34h2.88c0.64,0 1.18,0.112 1.62,0.336c0.448,0.224 0.78,0.524 0.996,0.9c0.224,0.376 0.336,0.796 0.336,1.26c0,0.544 -0.16,1.04 -0.48,1.488c-0.312,0.44 -0.796,0.74 -1.452,0.9l2.064,3.456zM242.268,175.572h1.512c0.512,0 0.896,-0.128 1.152,-0.384c0.264,-0.256 0.396,-0.6 0.396,-1.032c0,-0.432 -0.128,-0.768 -0.384,-1.008c-0.256,-0.248 -0.644,-0.372 -1.164,-0.372h-1.512z" fill="#ff0000"></path></g></g></svg>