<svg xmlns="http://www.w3.org/2000/svg" fill="none" viewBox="0 0 44 24" height="24" width="44">
<path fill-opacity="0.5" fill="#FF0000" d="M2 12C2 6.47715 6.47715 2 12 2H32C37.5228 2 42 6.47715 42 12V12C42 17.5228 37.5228 22 32 22H12C6.47715 22 2 17.5228 2 12V12Z"></path>
<path stroke-width="2" stroke-opacity="0.2" stroke="#FF0000" d="M32 1H12C5.92487 1 1 5.92487 1 12C1 18.0751 5.92487 23 12 23H32C38.0751 23 43 18.0751 43 12C43 5.92487 38.0751 1 32 1Z"></path>
<path fill="white" d="M15.3098 14.176V13.144L19.3418 7.36H20.9978V12.988H22.1138V14.176H20.9978V16H19.6538V14.176H15.3098ZM19.7138 8.752L16.8818 12.988H19.7138V8.752ZM28.7913 8.308L25.4553 16H24.0753L27.4473 8.452H23.0073V7.288H28.7913V8.308Z"></path>
</svg>
