<svg version="1.1" xmlns="http://www.w3.org/2000/svg" xmlns:xlink="http://www.w3.org/1999/xlink" width="40" height="20" viewBox="0,0,40,20"><g transform="translate(-220,-167)"><g data-paper-data="{&quot;isPaintingLayer&quot;:true}" fill-rule="nonzero" stroke="none" stroke-width="1" stroke-linecap="butt" stroke-linejoin="miter" stroke-miterlimit="10" stroke-dasharray="" stroke-dashoffset="0" style="mix-blend-mode: normal"><path d="M220,187v-20h40v20z" fill="none"></path><path d="M247.056,172.248c0.912,0 1.7,0.168 2.364,0.504c0.664,0.336 1.168,0.808 1.512,1.416c0.352,0.6 0.528,1.3 0.528,2.1c0,0.64 -0.112,1.252 -0.336,1.836c-0.216,0.584 -0.532,1.06 -0.948,1.428c-0.408,0.368 -0.892,0.552 -1.452,0.552c-0.408,0 -0.728,-0.088 -0.96,-0.264c-0.232,-0.184 -0.376,-0.44 -0.432,-0.768c-0.248,0.32 -0.56,0.572 -0.936,0.756c-0.376,0.184 -0.768,0.276 -1.176,0.276c-0.616,0 -1.1,-0.184 -1.452,-0.552c-0.344,-0.376 -0.516,-0.884 -0.516,-1.524c0,-0.608 0.124,-1.176 0.372,-1.704c0.256,-0.528 0.612,-0.948 1.068,-1.26c0.456,-0.32 0.968,-0.48 1.536,-0.48c0.696,0 1.184,0.236 1.464,0.708l0.108,-0.6h1.188l-0.6,3.432c-0.024,0.168 -0.036,0.316 -0.036,0.444c0,0.208 0.04,0.364 0.12,0.468c0.088,0.104 0.24,0.156 0.456,0.156c0.304,0 0.564,-0.148 0.78,-0.444c0.216,-0.304 0.376,-0.676 0.48,-1.116c0.112,-0.44 0.168,-0.868 0.168,-1.284c0,-1.016 -0.296,-1.792 -0.888,-2.328c-0.592,-0.536 -1.452,-0.804 -2.58,-0.804c-0.944,0 -1.792,0.224 -2.544,0.672c-0.744,0.448 -1.328,1.064 -1.752,1.848c-0.424,0.784 -0.636,1.656 -0.636,2.616c0,1.024 0.304,1.804 0.912,2.34c0.608,0.536 1.476,0.804 2.604,0.804c0.76,0 1.424,-0.14 1.992,-0.42l0.18,0.912c-0.728,0.312 -1.544,0.468 -2.448,0.468c-0.872,0 -1.636,-0.164 -2.292,-0.492c-0.656,-0.328 -1.164,-0.796 -1.524,-1.404c-0.36,-0.6 -0.54,-1.3 -0.54,-2.1c0,-1.144 0.264,-2.188 0.792,-3.132c0.536,-0.944 1.276,-1.688 2.22,-2.232c0.944,-0.552 2.012,-0.828 3.204,-0.828zM245.64,179.028c0.336,0 0.64,-0.096 0.912,-0.288c0.28,-0.2 0.5,-0.46 0.66,-0.78c0.16,-0.328 0.24,-0.676 0.24,-1.044c0,-0.384 -0.108,-0.696 -0.324,-0.936c-0.208,-0.248 -0.504,-0.372 -0.888,-0.372c-0.344,0 -0.648,0.108 -0.912,0.324c-0.256,0.208 -0.456,0.48 -0.6,0.816c-0.136,0.336 -0.204,0.688 -0.204,1.056c0,0.376 0.092,0.676 0.276,0.9c0.184,0.216 0.464,0.324 0.84,0.324z" fill="#ff0000"></path></g></g></svg>