<svg xmlns="http://www.w3.org/2000/svg" fill="none" viewBox="0 0 480 360" height="360" width="480">
<path fill="white" d="M203.056 51.248V53.96H198.592V68H195.232V53.96H190.768V51.248H203.056ZM208.868 56.768C209.3 56.064 209.86 55.512 210.548 55.112C211.252 54.712 212.052 54.512 212.948 54.512V58.04H212.06C211.004 58.04 210.204 58.288 209.66 58.784C209.132 59.28 208.868 60.144 208.868 61.376V68H205.508V54.704H208.868V56.768ZM221.115 68.216C219.835 68.216 218.683 67.936 217.659 67.376C216.635 66.8 215.827 65.992 215.235 64.952C214.659 63.912 214.371 62.712 214.371 61.352C214.371 59.992 214.667 58.792 215.259 57.752C215.867 56.712 216.691 55.912 217.731 55.352C218.771 54.776 219.931 54.488 221.211 54.488C222.491 54.488 223.651 54.776 224.691 55.352C225.731 55.912 226.547 56.712 227.139 57.752C227.747 58.792 228.051 59.992 228.051 61.352C228.051 62.712 227.739 63.912 227.115 64.952C226.507 65.992 225.675 66.8 224.619 67.376C223.579 67.936 222.411 68.216 221.115 68.216ZM221.115 65.288C221.723 65.288 222.291 65.144 222.819 64.856C223.363 64.552 223.795 64.104 224.115 63.512C224.435 62.92 224.595 62.2 224.595 61.352C224.595 60.088 224.259 59.12 223.587 58.448C222.931 57.76 222.123 57.416 221.163 57.416C220.203 57.416 219.395 57.76 218.739 58.448C218.099 59.12 217.779 60.088 217.779 61.352C217.779 62.616 218.091 63.592 218.715 64.28C219.355 64.952 220.155 65.288 221.115 65.288ZM243.067 54.704V68H239.683V66.32C239.251 66.896 238.683 67.352 237.979 67.688C237.291 68.008 236.539 68.168 235.723 68.168C234.683 68.168 233.763 67.952 232.963 67.52C232.163 67.072 231.531 66.424 231.067 65.576C230.619 64.712 230.395 63.688 230.395 62.504V54.704H233.755V62.024C233.755 63.08 234.019 63.896 234.547 64.472C235.075 65.032 235.795 65.312 236.707 65.312C237.635 65.312 238.363 65.032 238.891 64.472C239.419 63.896 239.683 63.08 239.683 62.024V54.704H243.067ZM249.743 56.648C250.175 56.008 250.767 55.488 251.519 55.088C252.287 54.688 253.159 54.488 254.135 54.488C255.271 54.488 256.295 54.768 257.207 55.328C258.135 55.888 258.863 56.688 259.391 57.728C259.935 58.752 260.207 59.944 260.207 61.304C260.207 62.664 259.935 63.872 259.391 64.928C258.863 65.968 258.135 66.776 257.207 67.352C256.295 67.928 255.271 68.216 254.135 68.216C253.143 68.216 252.271 68.024 251.519 67.64C250.783 67.24 250.191 66.728 249.743 66.104V68H246.383V50.24H249.743V56.648ZM256.775 61.304C256.775 60.504 256.607 59.816 256.271 59.24C255.951 58.648 255.519 58.2 254.975 57.896C254.447 57.592 253.871 57.44 253.247 57.44C252.639 57.44 252.063 57.6 251.519 57.92C250.991 58.224 250.559 58.672 250.223 59.264C249.903 59.856 249.743 60.552 249.743 61.352C249.743 62.152 249.903 62.848 250.223 63.44C250.559 64.032 250.991 64.488 251.519 64.808C252.063 65.112 252.639 65.264 253.247 65.264C253.871 65.264 254.447 65.104 254.975 64.784C255.519 64.464 255.951 64.008 256.271 63.416C256.607 62.824 256.775 62.12 256.775 61.304ZM266.008 50.24V68H262.648V50.24H266.008ZM281.688 61.064C281.688 61.544 281.656 61.976 281.592 62.36H271.872C271.952 63.32 272.288 64.072 272.88 64.616C273.472 65.16 274.2 65.432 275.064 65.432C276.312 65.432 277.2 64.896 277.728 63.824H281.352C280.968 65.104 280.232 66.16 279.144 66.992C278.056 67.808 276.72 68.216 275.136 68.216C273.856 68.216 272.704 67.936 271.68 67.376C270.672 66.8 269.88 65.992 269.304 64.952C268.744 63.912 268.464 62.712 268.464 61.352C268.464 59.976 268.744 58.768 269.304 57.728C269.864 56.688 270.648 55.888 271.656 55.328C272.664 54.768 273.824 54.488 275.136 54.488C276.4 54.488 277.528 54.76 278.52 55.304C279.528 55.848 280.304 56.624 280.848 57.632C281.408 58.624 281.688 59.768 281.688 61.064ZM278.208 60.104C278.192 59.24 277.88 58.552 277.272 58.04C276.664 57.512 275.92 57.248 275.04 57.248C274.208 57.248 273.504 57.504 272.928 58.016C272.368 58.512 272.024 59.208 271.896 60.104H278.208ZM289.228 68.216C288.14 68.216 287.164 68.024 286.3 67.64C285.436 67.24 284.748 66.704 284.236 66.032C283.74 65.36 283.468 64.616 283.42 63.8H286.804C286.868 64.312 287.116 64.736 287.548 65.072C287.996 65.408 288.548 65.576 289.204 65.576C289.844 65.576 290.34 65.448 290.692 65.192C291.06 64.936 291.244 64.608 291.244 64.208C291.244 63.776 291.02 63.456 290.572 63.248C290.14 63.024 289.444 62.784 288.484 62.528C287.492 62.288 286.676 62.04 286.036 61.784C285.412 61.528 284.868 61.136 284.404 60.608C283.956 60.08 283.732 59.368 283.732 58.472C283.732 57.736 283.94 57.064 284.356 56.456C284.788 55.848 285.396 55.368 286.18 55.016C286.98 54.664 287.916 54.488 288.988 54.488C290.572 54.488 291.836 54.888 292.78 55.688C293.724 56.472 294.244 57.536 294.34 58.88H291.124C291.076 58.352 290.852 57.936 290.452 57.632C290.068 57.312 289.548 57.152 288.892 57.152C288.284 57.152 287.812 57.264 287.476 57.488C287.156 57.712 286.996 58.024 286.996 58.424C286.996 58.872 287.22 59.216 287.668 59.456C288.116 59.68 288.812 59.912 289.756 60.152C290.716 60.392 291.508 60.64 292.132 60.896C292.756 61.152 293.292 61.552 293.74 62.096C294.204 62.624 294.444 63.328 294.46 64.208C294.46 64.976 294.244 65.664 293.812 66.272C293.396 66.88 292.788 67.36 291.988 67.712C291.204 68.048 290.284 68.216 289.228 68.216ZM304.707 54.512C305.715 54.512 306.611 54.736 307.395 55.184C308.179 55.616 308.787 56.264 309.219 57.128C309.667 57.976 309.891 59 309.891 60.2V68H306.531V60.656C306.531 59.6 306.267 58.792 305.739 58.232C305.211 57.656 304.491 57.368 303.579 57.368C302.651 57.368 301.915 57.656 301.371 58.232C300.843 58.792 300.579 59.6 300.579 60.656V68H297.219V50.24H300.579V56.36C301.011 55.784 301.587 55.336 302.307 55.016C303.027 54.68 303.827 54.512 304.707 54.512ZM318.99 68.216C317.71 68.216 316.558 67.936 315.534 67.376C314.51 66.8 313.702 65.992 313.11 64.952C312.534 63.912 312.246 62.712 312.246 61.352C312.246 59.992 312.542 58.792 313.134 57.752C313.742 56.712 314.566 55.912 315.606 55.352C316.646 54.776 317.806 54.488 319.086 54.488C320.366 54.488 321.526 54.776 322.566 55.352C323.606 55.912 324.422 56.712 325.014 57.752C325.622 58.792 325.926 59.992 325.926 61.352C325.926 62.712 325.614 63.912 324.99 64.952C324.382 65.992 323.55 66.8 322.494 67.376C321.454 67.936 320.286 68.216 318.99 68.216ZM318.99 65.288C319.598 65.288 320.166 65.144 320.694 64.856C321.238 64.552 321.67 64.104 321.99 63.512C322.31 62.92 322.47 62.2 322.47 61.352C322.47 60.088 322.134 59.12 321.462 58.448C320.806 57.76 319.998 57.416 319.038 57.416C318.078 57.416 317.27 57.76 316.614 58.448C315.974 59.12 315.654 60.088 315.654 61.352C315.654 62.616 315.966 63.592 316.59 64.28C317.23 64.952 318.03 65.288 318.99 65.288ZM334.294 68.216C333.014 68.216 331.862 67.936 330.838 67.376C329.814 66.8 329.006 65.992 328.414 64.952C327.838 63.912 327.55 62.712 327.55 61.352C327.55 59.992 327.846 58.792 328.438 57.752C329.046 56.712 329.87 55.912 330.91 55.352C331.95 54.776 333.11 54.488 334.39 54.488C335.67 54.488 336.83 54.776 337.87 55.352C338.91 55.912 339.726 56.712 340.318 57.752C340.926 58.792 341.23 59.992 341.23 61.352C341.23 62.712 340.918 63.912 340.294 64.952C339.686 65.992 338.854 66.8 337.798 67.376C336.758 67.936 335.59 68.216 334.294 68.216ZM334.294 65.288C334.902 65.288 335.47 65.144 335.998 64.856C336.542 64.552 336.974 64.104 337.294 63.512C337.614 62.92 337.774 62.2 337.774 61.352C337.774 60.088 337.438 59.12 336.766 58.448C336.11 57.76 335.302 57.416 334.342 57.416C333.382 57.416 332.574 57.76 331.918 58.448C331.278 59.12 330.958 60.088 330.958 61.352C330.958 62.616 331.27 63.592 331.894 64.28C332.534 64.952 333.334 65.288 334.294 65.288ZM347.607 57.464V63.896C347.607 64.344 347.711 64.672 347.919 64.88C348.143 65.072 348.511 65.168 349.023 65.168H350.583V68H348.471C345.639 68 344.223 66.624 344.223 63.872V57.464H342.639V54.704H344.223V51.416H347.607V54.704H350.583V57.464H347.607Z"></path>
</svg>
