<svg xmlns="http://www.w3.org/2000/svg" fill="none" viewBox="0 0 164 64" height="64" width="164">
<rect fill="#1A1A1A" rx="5" height="60" width="160" y="2" x="2"></rect>
<rect stroke-width="2" stroke-opacity="0.2" stroke="white" rx="6" height="62" width="162" y="1" x="1"></rect>
<path fill="white" d="M67.764 20.355V21.378H65.729V28H64.475V21.378H62.429V20.355H67.764ZM70.288 22.819C70.4713 22.511 70.7133 22.2727 71.014 22.104C71.322 21.928 71.685 21.84 72.103 21.84V23.138H71.784C71.2927 23.138 70.9187 23.2627 70.662 23.512C70.4127 23.7613 70.288 24.194 70.288 24.81V28H69.034V21.939H70.288V22.819ZM75.8847 28.099C75.3127 28.099 74.7957 27.9707 74.3337 27.714C73.8717 27.45 73.5087 27.0833 73.2447 26.614C72.9807 26.1373 72.8487 25.5873 72.8487 24.964C72.8487 24.348 72.9843 23.8017 73.2557 23.325C73.527 22.8483 73.8973 22.4817 74.3667 22.225C74.836 21.9683 75.3603 21.84 75.9397 21.84C76.519 21.84 77.0433 21.9683 77.5127 22.225C77.982 22.4817 78.3523 22.8483 78.6237 23.325C78.895 23.8017 79.0307 24.348 79.0307 24.964C79.0307 25.58 78.8913 26.1263 78.6127 26.603C78.334 27.0797 77.9527 27.45 77.4687 27.714C76.992 27.9707 76.464 28.099 75.8847 28.099ZM75.8847 27.01C76.2073 27.01 76.508 26.933 76.7867 26.779C77.0727 26.625 77.3037 26.394 77.4797 26.086C77.6557 25.778 77.7437 25.404 77.7437 24.964C77.7437 24.524 77.6593 24.1537 77.4907 23.853C77.322 23.545 77.0983 23.314 76.8197 23.16C76.541 23.006 76.2403 22.929 75.9177 22.929C75.595 22.929 75.2943 23.006 75.0157 23.16C74.7443 23.314 74.528 23.545 74.3667 23.853C74.2053 24.1537 74.1247 24.524 74.1247 24.964C74.1247 25.6167 74.2897 26.1227 74.6197 26.482C74.957 26.834 75.3787 27.01 75.8847 27.01ZM85.7593 21.939V28H84.5053V27.285C84.3073 27.5343 84.047 27.7323 83.7243 27.879C83.409 28.0183 83.0716 28.088 82.7123 28.088C82.2356 28.088 81.8066 27.989 81.4253 27.791C81.0513 27.593 80.7543 27.2997 80.5343 26.911C80.3216 26.5223 80.2153 26.053 80.2153 25.503V21.939H81.4583V25.316C81.4583 25.8587 81.594 26.2767 81.8653 26.57C82.1366 26.856 82.507 26.999 82.9763 26.999C83.4456 26.999 83.816 26.856 84.0873 26.57C84.366 26.2767 84.5053 25.8587 84.5053 25.316V21.939H85.7593ZM88.6679 22.841C88.8805 22.5477 89.1702 22.3093 89.5369 22.126C89.9109 21.9353 90.3252 21.84 90.7799 21.84C91.3152 21.84 91.7992 21.9683 92.2319 22.225C92.6645 22.4817 93.0055 22.8483 93.2549 23.325C93.5042 23.7943 93.6289 24.3333 93.6289 24.942C93.6289 25.5507 93.5042 26.097 93.2549 26.581C93.0055 27.0577 92.6609 27.4317 92.2209 27.703C91.7882 27.967 91.3079 28.099 90.7799 28.099C90.3105 28.099 89.8925 28.0073 89.5259 27.824C89.1665 27.6407 88.8805 27.406 88.6679 27.12V28H87.4139V19.86H88.6679V22.841ZM92.3529 24.942C92.3529 24.524 92.2649 24.1647 92.0889 23.864C91.9202 23.556 91.6929 23.325 91.4069 23.171C91.1282 23.0097 90.8275 22.929 90.5049 22.929C90.1895 22.929 89.8889 23.0097 89.6029 23.171C89.3242 23.3323 89.0969 23.567 88.9209 23.875C88.7522 24.183 88.6679 24.546 88.6679 24.964C88.6679 25.382 88.7522 25.7487 88.9209 26.064C89.0969 26.372 89.3242 26.6067 89.6029 26.768C89.8889 26.9293 90.1895 27.01 90.5049 27.01C90.8275 27.01 91.1282 26.9293 91.4069 26.768C91.6929 26.5993 91.9202 26.3573 92.0889 26.042C92.2649 25.7267 92.3529 25.36 92.3529 24.942ZM96.1229 19.86V28H94.8689V19.86H96.1229ZM103.324 24.821C103.324 25.0483 103.31 25.2537 103.28 25.437H98.6493C98.686 25.921 98.8657 26.3097 99.1883 26.603C99.511 26.8963 99.907 27.043 100.376 27.043C101.051 27.043 101.528 26.7607 101.806 26.196H103.159C102.976 26.7533 102.642 27.2117 102.158 27.571C101.682 27.923 101.088 28.099 100.376 28.099C99.797 28.099 99.2763 27.9707 98.8143 27.714C98.3597 27.45 98.0003 27.0833 97.7363 26.614C97.4797 26.1373 97.3513 25.5873 97.3513 24.964C97.3513 24.3407 97.476 23.7943 97.7253 23.325C97.982 22.8483 98.3377 22.4817 98.7923 22.225C99.2543 21.9683 99.7823 21.84 100.376 21.84C100.948 21.84 101.458 21.9647 101.905 22.214C102.353 22.4633 102.701 22.8153 102.95 23.27C103.2 23.7173 103.324 24.2343 103.324 24.821ZM102.015 24.425C102.008 23.963 101.843 23.5927 101.52 23.314C101.198 23.0353 100.798 22.896 100.321 22.896C99.8887 22.896 99.5183 23.0353 99.2103 23.314C98.9023 23.5853 98.719 23.9557 98.6603 24.425H102.015ZM106.758 28.099C106.282 28.099 105.853 28.0147 105.471 27.846C105.097 27.67 104.8 27.4353 104.58 27.142C104.36 26.8413 104.243 26.5077 104.228 26.141H105.526C105.548 26.3977 105.669 26.614 105.889 26.79C106.117 26.9587 106.399 27.043 106.736 27.043C107.088 27.043 107.36 26.977 107.55 26.845C107.748 26.7057 107.847 26.5297 107.847 26.317C107.847 26.0897 107.737 25.921 107.517 25.811C107.305 25.701 106.964 25.58 106.494 25.448C106.04 25.3233 105.669 25.2023 105.383 25.085C105.097 24.9677 104.848 24.788 104.635 24.546C104.43 24.304 104.327 23.985 104.327 23.589C104.327 23.2663 104.423 22.973 104.613 22.709C104.804 22.4377 105.075 22.225 105.427 22.071C105.787 21.917 106.197 21.84 106.659 21.84C107.349 21.84 107.902 22.016 108.32 22.368C108.746 22.7127 108.973 23.1857 109.002 23.787H107.748C107.726 23.5157 107.616 23.2993 107.418 23.138C107.22 22.9767 106.953 22.896 106.615 22.896C106.285 22.896 106.032 22.9583 105.856 23.083C105.68 23.2077 105.592 23.3727 105.592 23.578C105.592 23.7393 105.651 23.875 105.768 23.985C105.886 24.095 106.029 24.183 106.197 24.249C106.366 24.3077 106.615 24.3847 106.945 24.48C107.385 24.5973 107.745 24.7183 108.023 24.843C108.309 24.9603 108.555 25.1363 108.76 25.371C108.966 25.6057 109.072 25.9173 109.079 26.306C109.079 26.6507 108.984 26.9587 108.793 27.23C108.603 27.5013 108.331 27.714 107.979 27.868C107.635 28.022 107.228 28.099 106.758 28.099ZM113.569 21.84C114.031 21.84 114.442 21.939 114.801 22.137C115.168 22.335 115.454 22.6283 115.659 23.017C115.872 23.4057 115.978 23.875 115.978 24.425V28H114.735V24.612C114.735 24.0693 114.6 23.655 114.328 23.369C114.057 23.0757 113.687 22.929 113.217 22.929C112.748 22.929 112.374 23.0757 112.095 23.369C111.824 23.655 111.688 24.0693 111.688 24.612V28H110.434V19.86H111.688V22.643C111.901 22.3863 112.169 22.1883 112.491 22.049C112.821 21.9097 113.181 21.84 113.569 21.84ZM120.207 28.099C119.635 28.099 119.118 27.9707 118.656 27.714C118.194 27.45 117.831 27.0833 117.567 26.614C117.303 26.1373 117.171 25.5873 117.171 24.964C117.171 24.348 117.307 23.8017 117.578 23.325C117.849 22.8483 118.22 22.4817 118.689 22.225C119.158 21.9683 119.683 21.84 120.262 21.84C120.841 21.84 121.366 21.9683 121.835 22.225C122.304 22.4817 122.675 22.8483 122.946 23.325C123.217 23.8017 123.353 24.348 123.353 24.964C123.353 25.58 123.214 26.1263 122.935 26.603C122.656 27.0797 122.275 27.45 121.791 27.714C121.314 27.9707 120.786 28.099 120.207 28.099ZM120.207 27.01C120.53 27.01 120.83 26.933 121.109 26.779C121.395 26.625 121.626 26.394 121.802 26.086C121.978 25.778 122.066 25.404 122.066 24.964C122.066 24.524 121.982 24.1537 121.813 23.853C121.644 23.545 121.421 23.314 121.142 23.16C120.863 23.006 120.563 22.929 120.24 22.929C119.917 22.929 119.617 23.006 119.338 23.16C119.067 23.314 118.85 23.545 118.689 23.853C118.528 24.1537 118.447 24.524 118.447 24.964C118.447 25.6167 118.612 26.1227 118.942 26.482C119.279 26.834 119.701 27.01 120.207 27.01ZM127.222 28.099C126.65 28.099 126.133 27.9707 125.671 27.714C125.209 27.45 124.846 27.0833 124.582 26.614C124.318 26.1373 124.186 25.5873 124.186 24.964C124.186 24.348 124.321 23.8017 124.593 23.325C124.864 22.8483 125.234 22.4817 125.704 22.225C126.173 21.9683 126.697 21.84 127.277 21.84C127.856 21.84 128.38 21.9683 128.85 22.225C129.319 22.4817 129.689 22.8483 129.961 23.325C130.232 23.8017 130.368 24.348 130.368 24.964C130.368 25.58 130.228 26.1263 129.95 26.603C129.671 27.0797 129.29 27.45 128.806 27.714C128.329 27.9707 127.801 28.099 127.222 28.099ZM127.222 27.01C127.544 27.01 127.845 26.933 128.124 26.779C128.41 26.625 128.641 26.394 128.817 26.086C128.993 25.778 129.081 25.404 129.081 24.964C129.081 24.524 128.996 24.1537 128.828 23.853C128.659 23.545 128.435 23.314 128.157 23.16C127.878 23.006 127.577 22.929 127.255 22.929C126.932 22.929 126.631 23.006 126.353 23.16C126.081 23.314 125.865 23.545 125.704 23.853C125.542 24.1537 125.462 24.524 125.462 24.964C125.462 25.6167 125.627 26.1227 125.957 26.482C126.294 26.834 126.716 27.01 127.222 27.01ZM133.07 22.962V26.317C133.07 26.5443 133.122 26.7093 133.224 26.812C133.334 26.9073 133.518 26.955 133.774 26.955H134.544V28H133.554C132.99 28 132.557 27.868 132.256 27.604C131.956 27.34 131.805 26.911 131.805 26.317V22.962H131.09V21.939H131.805V20.432H133.07V21.939H134.544V22.962H133.07ZM62.407 40.942C62.407 40.3333 62.5317 39.7943 62.781 39.325C63.0377 38.8557 63.3823 38.4927 63.815 38.236C64.255 37.972 64.7427 37.84 65.278 37.84C65.674 37.84 66.0627 37.928 66.444 38.104C66.8327 38.2727 67.1407 38.5 67.368 38.786V35.86H68.633V44H67.368V43.087C67.1627 43.3803 66.8767 43.6223 66.51 43.813C66.1507 44.0037 65.7363 44.099 65.267 44.099C64.739 44.099 64.255 43.967 63.815 43.703C63.3823 43.4317 63.0377 43.0577 62.781 42.581C62.5317 42.097 62.407 41.5507 62.407 40.942ZM67.368 40.964C67.368 40.546 67.28 40.183 67.104 39.875C66.9353 39.567 66.7117 39.3323 66.433 39.171C66.1543 39.0097 65.8537 38.929 65.531 38.929C65.2083 38.929 64.9077 39.0097 64.629 39.171C64.3503 39.325 64.123 39.556 63.947 39.864C63.7783 40.1647 63.694 40.524 63.694 40.942C63.694 41.36 63.7783 41.7267 63.947 42.042C64.123 42.3573 64.3503 42.5993 64.629 42.768C64.915 42.9293 65.2157 43.01 65.531 43.01C65.8537 43.01 66.1543 42.9293 66.433 42.768C66.7117 42.6067 66.9353 42.372 67.104 42.064C67.28 41.7487 67.368 41.382 67.368 40.964ZM70.9181 37.136C70.6907 37.136 70.5001 37.059 70.3461 36.905C70.1921 36.751 70.1151 36.5603 70.1151 36.333C70.1151 36.1057 70.1921 35.915 70.3461 35.761C70.5001 35.607 70.6907 35.53 70.9181 35.53C71.1381 35.53 71.3251 35.607 71.4791 35.761C71.6331 35.915 71.7101 36.1057 71.7101 36.333C71.7101 36.5603 71.6331 36.751 71.4791 36.905C71.3251 37.059 71.1381 37.136 70.9181 37.136ZM71.5341 37.939V44H70.2801V37.939H71.5341ZM75.3805 44.099C74.9038 44.099 74.4748 44.0147 74.0935 43.846C73.7195 43.67 73.4225 43.4353 73.2025 43.142C72.9825 42.8413 72.8651 42.5077 72.8505 42.141H74.1485C74.1705 42.3977 74.2915 42.614 74.5115 42.79C74.7388 42.9587 75.0211 43.043 75.3585 43.043C75.7105 43.043 75.9818 42.977 76.1725 42.845C76.3705 42.7057 76.4695 42.5297 76.4695 42.317C76.4695 42.0897 76.3595 41.921 76.1395 41.811C75.9268 41.701 75.5858 41.58 75.1165 41.448C74.6618 41.3233 74.2915 41.2023 74.0055 41.085C73.7195 40.9677 73.4701 40.788 73.2575 40.546C73.0521 40.304 72.9495 39.985 72.9495 39.589C72.9495 39.2663 73.0448 38.973 73.2355 38.709C73.4261 38.4377 73.6975 38.225 74.0495 38.071C74.4088 37.917 74.8195 37.84 75.2815 37.84C75.9708 37.84 76.5245 38.016 76.9425 38.368C77.3678 38.7127 77.5951 39.1857 77.6245 39.787H76.3705C76.3485 39.5157 76.2385 39.2993 76.0405 39.138C75.8425 38.9767 75.5748 38.896 75.2375 38.896C74.9075 38.896 74.6545 38.9583 74.4785 39.083C74.3025 39.2077 74.2145 39.3727 74.2145 39.578C74.2145 39.7393 74.2731 39.875 74.3905 39.985C74.5078 40.095 74.6508 40.183 74.8195 40.249C74.9881 40.3077 75.2375 40.3847 75.5675 40.48C76.0075 40.5973 76.3668 40.7183 76.6455 40.843C76.9315 40.9603 77.1771 41.1363 77.3825 41.371C77.5878 41.6057 77.6941 41.9173 77.7015 42.306C77.7015 42.6507 77.6061 42.9587 77.4155 43.23C77.2248 43.5013 76.9535 43.714 76.6015 43.868C76.2568 44.022 75.8498 44.099 75.3805 44.099ZM81.4544 40.975L84.2484 44H82.5544L80.3104 41.393V44H79.0564V35.86H80.3104V40.59L82.5104 37.939H84.2484L81.4544 40.975Z"></path>
<path stroke-width="0.842105" stroke="white" d="M28.6316 33H25.6842C24.754 33 24 33.754 24 34.6842V37.2105C24 38.1407 24.754 38.8947 25.6842 38.8947H38.3158C39.246 38.8947 40 38.1407 40 37.2105V34.6842C40 33.754 39.246 33 38.3158 33H34.5263"></path>
<path fill="white" d="M35.7891 35.9474C35.7891 35.2497 36.3546 34.6842 37.0522 34.6842C37.7498 34.6842 38.3154 35.2497 38.3154 35.9474C38.3154 36.645 37.7498 37.2105 37.0522 37.2105C36.3546 37.2105 35.7891 36.645 35.7891 35.9474Z"></path>
<path stroke-linejoin="round" stroke-linecap="round" stroke-width="0.842105" stroke="white" d="M27.7891 30.4737C27.7891 31.2232 28.0113 31.9558 28.4277 32.579C28.8441 33.2022 29.4359 33.6879 30.1284 33.9747C30.8208 34.2615 31.5827 34.3366 32.3178 34.1903C33.0529 34.0441 33.7281 33.6832 34.2581 33.1532C34.7881 32.6233 35.149 31.9481 35.2952 31.213C35.4414 30.4779 35.3664 29.716 35.0796 29.0235C34.7927 28.3311 34.307 27.7392 33.6839 27.3229C33.0607 26.9065 32.328 26.6842 31.5785 26.6842H27.7891M27.7891 26.6842L29.4733 25M27.7891 26.6842L29.4733 28.3684"></path>
</svg>
