<svg xmlns="http://www.w3.org/2000/svg" fill="none" viewBox="0 0 480 360" height="360" width="480">
<path fill="#0076B3" d="M340 179C340 176.239 342.239 174 345 174H421C423.761 174 426 176.239 426 179V201C426 203.761 423.761 206 421 206H345C342.239 206 340 203.761 340 201V179Z"></path>
<path fill="white" d="M372.305 194.077C371.594 194.077 370.937 193.912 370.336 193.582C369.742 193.245 369.269 192.779 368.917 192.185C368.572 191.584 368.4 190.909 368.4 190.161C368.4 189.413 368.572 188.742 368.917 188.148C369.269 187.554 369.742 187.092 370.336 186.762C370.937 186.425 371.594 186.256 372.305 186.256C373.024 186.256 373.68 186.425 374.274 186.762C374.875 187.092 375.348 187.554 375.693 188.148C376.038 188.742 376.21 189.413 376.21 190.161C376.21 190.909 376.038 191.584 375.693 192.185C375.348 192.779 374.875 193.245 374.274 193.582C373.68 193.912 373.024 194.077 372.305 194.077ZM372.305 192.988C372.811 192.988 373.262 192.874 373.658 192.647C374.054 192.412 374.362 192.082 374.582 191.657C374.809 191.224 374.923 190.726 374.923 190.161C374.923 189.596 374.809 189.101 374.582 188.676C374.362 188.251 374.054 187.924 373.658 187.697C373.262 187.47 372.811 187.356 372.305 187.356C371.799 187.356 371.348 187.47 370.952 187.697C370.556 187.924 370.244 188.251 370.017 188.676C369.797 189.101 369.687 189.596 369.687 190.161C369.687 190.726 369.797 191.224 370.017 191.657C370.244 192.082 370.556 192.412 370.952 192.647C371.348 192.874 371.799 192.988 372.305 192.988ZM378.698 188.83C378.911 188.551 379.2 188.317 379.567 188.126C379.934 187.935 380.348 187.84 380.81 187.84C381.338 187.84 381.818 187.972 382.251 188.236C382.691 188.493 383.036 188.856 383.285 189.325C383.534 189.794 383.659 190.333 383.659 190.942C383.659 191.551 383.534 192.097 383.285 192.581C383.036 193.058 382.691 193.432 382.251 193.703C381.818 193.967 381.338 194.099 380.81 194.099C380.348 194.099 379.937 194.007 379.578 193.824C379.219 193.633 378.925 193.399 378.698 193.12V196.882H377.444V187.939H378.698V188.83ZM382.383 190.942C382.383 190.524 382.295 190.165 382.119 189.864C381.95 189.556 381.723 189.325 381.437 189.171C381.158 189.01 380.858 188.929 380.535 188.929C380.22 188.929 379.919 189.01 379.633 189.171C379.354 189.332 379.127 189.567 378.951 189.875C378.782 190.183 378.698 190.546 378.698 190.964C378.698 191.382 378.782 191.749 378.951 192.064C379.127 192.372 379.354 192.607 379.633 192.768C379.919 192.929 380.22 193.01 380.535 193.01C380.858 193.01 381.158 192.929 381.437 192.768C381.723 192.599 381.95 192.357 382.119 192.042C382.295 191.727 382.383 191.36 382.383 190.942ZM390.454 190.821C390.454 191.048 390.44 191.254 390.41 191.437H385.779C385.816 191.921 385.996 192.31 386.318 192.603C386.641 192.896 387.037 193.043 387.506 193.043C388.181 193.043 388.658 192.761 388.936 192.196H390.289C390.106 192.753 389.772 193.212 389.288 193.571C388.812 193.923 388.218 194.099 387.506 194.099C386.927 194.099 386.406 193.971 385.944 193.714C385.49 193.45 385.13 193.083 384.866 192.614C384.61 192.137 384.481 191.587 384.481 190.964C384.481 190.341 384.606 189.794 384.855 189.325C385.112 188.848 385.468 188.482 385.922 188.225C386.384 187.968 386.912 187.84 387.506 187.84C388.078 187.84 388.588 187.965 389.035 188.214C389.483 188.463 389.831 188.815 390.08 189.27C390.33 189.717 390.454 190.234 390.454 190.821ZM389.145 190.425C389.138 189.963 388.973 189.593 388.65 189.314C388.328 189.035 387.928 188.896 387.451 188.896C387.019 188.896 386.648 189.035 386.34 189.314C386.032 189.585 385.849 189.956 385.79 190.425H389.145ZM394.746 187.84C395.223 187.84 395.648 187.939 396.022 188.137C396.404 188.335 396.701 188.628 396.913 189.017C397.126 189.406 397.232 189.875 397.232 190.425V194H395.989V190.612C395.989 190.069 395.854 189.655 395.582 189.369C395.311 189.076 394.941 188.929 394.471 188.929C394.002 188.929 393.628 189.076 393.349 189.369C393.078 189.655 392.942 190.069 392.942 190.612V194H391.688V187.939H392.942V188.632C393.148 188.383 393.408 188.188 393.723 188.049C394.046 187.91 394.387 187.84 394.746 187.84Z"></path>
<path fill-opacity="0.05" fill="black" d="M428 179C428 176.239 430.239 174 433 174H455C457.761 174 460 176.239 460 179V201C460 203.761 457.761 206 455 206H433C430.239 206 428 203.761 428 201V179Z"></path>
<path stroke-linejoin="round" stroke-linecap="round" stroke="#333333" d="M437.5 184.5H438.5M450.5 184.5H449.5M449.5 184.5L448.642 195.653C448.562 196.695 447.693 197.5 446.648 197.5H441.352C440.307 197.5 439.438 196.695 439.358 195.653L438.5 184.5M449.5 184.5H438.5M445.5 184V184C445.5 183.172 444.828 182.5 444 182.5V182.5C443.172 182.5 442.5 183.172 442.5 184V184M445.5 193.5V188.5M442.5 193.5V188.5"></path>
</svg>
