<svg xmlns="http://www.w3.org/2000/svg" fill="none" viewBox="0 0 44 24" height="24" width="44">
<path fill-opacity="0.5" fill="#FF0000" d="M2 12C2 6.47715 6.47715 2 12 2H32C37.5228 2 42 6.47715 42 12V12C42 17.5228 37.5228 22 32 22H12C6.47715 22 2 17.5228 2 12V12Z"></path>
<path stroke-width="2" stroke-opacity="0.2" stroke="#FF0000" d="M32 1H12C5.92487 1 1 5.92487 1 12C1 18.0751 5.92487 23 12 23H32C38.0751 23 43 18.0751 43 12C43 5.92487 38.0751 1 32 1Z"></path>
<path fill="white" d="M17.9155 14.14C18.6835 13.476 19.2875 12.932 19.7275 12.508C20.1755 12.076 20.5475 11.628 20.8435 11.164C21.1395 10.7 21.2875 10.236 21.2875 9.772C21.2875 9.292 21.1715 8.916 20.9395 8.644C20.7155 8.372 20.3595 8.236 19.8715 8.236C19.3995 8.236 19.0315 8.388 18.7675 8.692C18.5115 8.988 18.3755 9.388 18.3595 9.892H17.0395C17.0635 8.98 17.3355 8.284 17.8555 7.804C18.3835 7.316 19.0515 7.072 19.8595 7.072C20.7315 7.072 21.4115 7.312 21.8995 7.792C22.3955 8.272 22.6435 8.912 22.6435 9.712C22.6435 10.288 22.4955 10.844 22.1995 11.38C21.9115 11.908 21.5635 12.384 21.1555 12.808C20.7555 13.224 20.2435 13.708 19.6195 14.26L19.0795 14.74H22.8835V15.88H17.0515V14.884L17.9155 14.14ZM23.9052 8.5V7.252H26.4012V16H25.0212V8.5H23.9052Z"></path>
</svg>
