<svg xmlns="http://www.w3.org/2000/svg" fill="none" viewBox="0 0 480 90" height="90" width="480">
<path fill-opacity="0.9" fill="#1A1A1A" d="M10 30C10 24.4772 14.4772 20 20 20H460C465.523 20 470 24.4772 470 30V60C470 65.5228 465.523 70 460 70H20C14.4772 70 10 65.5228 10 60V30Z"></path>
<path stroke-width="2" stroke-opacity="0.2" stroke="white" d="M20 19C13.9249 19 9 23.9249 9 30V60C9 66.0751 13.9249 71 20 71H460C466.075 71 471 66.0751 471 60V30C471 23.9249 466.075 19 460 19H20Z"></path>
<path fill="white" d="M36.171 43.632C36.171 44.0207 36.0793 44.3873 35.896 44.732C35.7127 45.0767 35.4193 45.359 35.016 45.579C34.6127 45.7917 34.0957 45.898 33.465 45.898H32.079V49H30.825V41.355H33.465C34.0517 41.355 34.5467 41.4577 34.95 41.663C35.3607 41.861 35.665 42.1323 35.863 42.477C36.0683 42.8217 36.171 43.2067 36.171 43.632ZM33.465 44.875C33.9417 44.875 34.2973 44.7687 34.532 44.556C34.7667 44.336 34.884 44.028 34.884 43.632C34.884 42.796 34.411 42.378 33.465 42.378H32.079V44.875H33.465ZM38.621 43.819C38.8043 43.511 39.0463 43.2727 39.347 43.104C39.655 42.928 40.018 42.84 40.436 42.84V44.138H40.117C39.6257 44.138 39.2517 44.2627 38.995 44.512C38.7457 44.7613 38.621 45.194 38.621 45.81V49H37.367V42.939H38.621V43.819ZM47.1437 45.821C47.1437 46.0483 47.129 46.2537 47.0997 46.437H42.4687C42.5053 46.921 42.685 47.3097 43.0077 47.603C43.3303 47.8963 43.7263 48.043 44.1957 48.043C44.8703 48.043 45.347 47.7607 45.6257 47.196H46.9787C46.7953 47.7533 46.4617 48.2117 45.9777 48.571C45.501 48.923 44.907 49.099 44.1957 49.099C43.6163 49.099 43.0957 48.9707 42.6337 48.714C42.179 48.45 41.8197 48.0833 41.5557 47.614C41.299 47.1373 41.1707 46.5873 41.1707 45.964C41.1707 45.3407 41.2953 44.7943 41.5447 44.325C41.8013 43.8483 42.157 43.4817 42.6117 43.225C43.0737 42.9683 43.6017 42.84 44.1957 42.84C44.7677 42.84 45.2773 42.9647 45.7247 43.214C46.172 43.4633 46.5203 43.8153 46.7697 44.27C47.019 44.7173 47.1437 45.2343 47.1437 45.821ZM45.8347 45.425C45.8273 44.963 45.6623 44.5927 45.3397 44.314C45.017 44.0353 44.6173 43.896 44.1407 43.896C43.708 43.896 43.3377 44.0353 43.0297 44.314C42.7217 44.5853 42.5383 44.9557 42.4797 45.425H45.8347ZM49.6317 43.83C49.8444 43.5513 50.1341 43.3167 50.5007 43.126C50.8674 42.9353 51.2817 42.84 51.7437 42.84C52.2717 42.84 52.7521 42.972 53.1847 43.236C53.6247 43.4927 53.9694 43.8557 54.2187 44.325C54.4681 44.7943 54.5927 45.3333 54.5927 45.942C54.5927 46.5507 54.4681 47.097 54.2187 47.581C53.9694 48.0577 53.6247 48.4317 53.1847 48.703C52.7521 48.967 52.2717 49.099 51.7437 49.099C51.2817 49.099 50.8711 49.0073 50.5117 48.824C50.1524 48.6333 49.8591 48.3987 49.6317 48.12V51.882H48.3777V42.939H49.6317V43.83ZM53.3167 45.942C53.3167 45.524 53.2287 45.1647 53.0527 44.864C52.8841 44.556 52.6567 44.325 52.3707 44.171C52.0921 44.0097 51.7914 43.929 51.4687 43.929C51.1534 43.929 50.8527 44.0097 50.5667 44.171C50.2881 44.3323 50.0607 44.567 49.8847 44.875C49.7161 45.183 49.6317 45.546 49.6317 45.964C49.6317 46.382 49.7161 46.7487 49.8847 47.064C50.0607 47.372 50.2881 47.6067 50.5667 47.768C50.8527 47.9293 51.1534 48.01 51.4687 48.01C51.7914 48.01 52.0921 47.9293 52.3707 47.768C52.6567 47.5993 52.8841 47.3573 53.0527 47.042C53.2287 46.7267 53.3167 46.36 53.3167 45.942ZM55.4148 45.942C55.4148 45.3333 55.5395 44.7943 55.7888 44.325C56.0455 43.8557 56.3901 43.4927 56.8228 43.236C57.2628 42.972 57.7468 42.84 58.2748 42.84C58.7515 42.84 59.1658 42.9353 59.5178 43.126C59.8771 43.3093 60.1631 43.5403 60.3758 43.819V42.939H61.6408V49H60.3758V48.098C60.1631 48.384 59.8735 48.6223 59.5068 48.813C59.1401 49.0037 58.7221 49.099 58.2528 49.099C57.7321 49.099 57.2555 48.967 56.8228 48.703C56.3901 48.4317 56.0455 48.0577 55.7888 47.581C55.5395 47.097 55.4148 46.5507 55.4148 45.942ZM60.3758 45.964C60.3758 45.546 60.2878 45.183 60.1118 44.875C59.9431 44.567 59.7195 44.3323 59.4408 44.171C59.1621 44.0097 58.8615 43.929 58.5388 43.929C58.2161 43.929 57.9155 44.0097 57.6368 44.171C57.3581 44.325 57.1308 44.556 56.9548 44.864C56.7861 45.1647 56.7018 45.524 56.7018 45.942C56.7018 46.36 56.7861 46.7267 56.9548 47.042C57.1308 47.3573 57.3581 47.5993 57.6368 47.768C57.9228 47.9293 58.2235 48.01 58.5388 48.01C58.8615 48.01 59.1621 47.9293 59.4408 47.768C59.7195 47.6067 59.9431 47.372 60.1118 47.064C60.2878 46.7487 60.3758 46.382 60.3758 45.964ZM64.5419 43.819C64.7252 43.511 64.9672 43.2727 65.2679 43.104C65.5759 42.928 65.9389 42.84 66.3569 42.84V44.138H66.0379C65.5466 44.138 65.1726 44.2627 64.9159 44.512C64.6666 44.7613 64.5419 45.194 64.5419 45.81V49H63.2879V42.939H64.5419V43.819ZM68.1476 42.136C67.9202 42.136 67.7296 42.059 67.5756 41.905C67.4216 41.751 67.3446 41.5603 67.3446 41.333C67.3446 41.1057 67.4216 40.915 67.5756 40.761C67.7296 40.607 67.9202 40.53 68.1476 40.53C68.3676 40.53 68.5546 40.607 68.7086 40.761C68.8626 40.915 68.9396 41.1057 68.9396 41.333C68.9396 41.5603 68.8626 41.751 68.7086 41.905C68.5546 42.059 68.3676 42.136 68.1476 42.136ZM68.7636 42.939V49H67.5096V42.939H68.7636ZM73.468 42.84C73.9446 42.84 74.37 42.939 74.744 43.137C75.1253 43.335 75.4223 43.6283 75.635 44.017C75.8476 44.4057 75.954 44.875 75.954 45.425V49H74.711V45.612C74.711 45.0693 74.5753 44.655 74.304 44.369C74.0326 44.0757 73.6623 43.929 73.193 43.929C72.7236 43.929 72.3496 44.0757 72.071 44.369C71.7996 44.655 71.664 45.0693 71.664 45.612V49H70.41V42.939H71.664V43.632C71.8693 43.3827 72.1296 43.1883 72.445 43.049C72.7676 42.9097 73.1086 42.84 73.468 42.84ZM79.9955 42.84C80.4648 42.84 80.8792 42.9353 81.2385 43.126C81.6052 43.3093 81.8912 43.5403 82.0965 43.819V42.939H83.3615V49.099C83.3615 49.6563 83.2442 50.1513 83.0095 50.584C82.7748 51.024 82.4338 51.3687 81.9865 51.618C81.5465 51.8673 81.0185 51.992 80.4025 51.992C79.5812 51.992 78.8992 51.7977 78.3565 51.409C77.8138 51.0277 77.5058 50.507 77.4325 49.847H78.6755C78.7708 50.1623 78.9725 50.4153 79.2805 50.606C79.5958 50.804 79.9698 50.903 80.4025 50.903C80.9085 50.903 81.3155 50.749 81.6235 50.441C81.9388 50.133 82.0965 49.6857 82.0965 49.099V48.087C81.8838 48.373 81.5942 48.615 81.2275 48.813C80.8682 49.0037 80.4575 49.099 79.9955 49.099C79.4675 49.099 78.9835 48.967 78.5435 48.703C78.1108 48.4317 77.7662 48.0577 77.5095 47.581C77.2602 47.097 77.1355 46.5507 77.1355 45.942C77.1355 45.3333 77.2602 44.7943 77.5095 44.325C77.7662 43.8557 78.1108 43.4927 78.5435 43.236C78.9835 42.972 79.4675 42.84 79.9955 42.84ZM82.0965 45.964C82.0965 45.546 82.0085 45.183 81.8325 44.875C81.6638 44.567 81.4402 44.3323 81.1615 44.171C80.8828 44.0097 80.5822 43.929 80.2595 43.929C79.9368 43.929 79.6362 44.0097 79.3575 44.171C79.0788 44.325 78.8515 44.556 78.6755 44.864C78.5068 45.1647 78.4225 45.524 78.4225 45.942C78.4225 46.36 78.5068 46.7267 78.6755 47.042C78.8515 47.3573 79.0788 47.5993 79.3575 47.768C79.6435 47.9293 79.9442 48.01 80.2595 48.01C80.5822 48.01 80.8828 47.9293 81.1615 47.768C81.4402 47.6067 81.6638 47.372 81.8325 47.064C82.0085 46.7487 82.0965 46.382 82.0965 45.964ZM89.12 47.988H91.705V49H87.866V41.355H89.12V47.988ZM95.3827 49.099C94.8107 49.099 94.2937 48.9707 93.8317 48.714C93.3697 48.45 93.0067 48.0833 92.7427 47.614C92.4787 47.1373 92.3467 46.5873 92.3467 45.964C92.3467 45.348 92.4824 44.8017 92.7537 44.325C93.025 43.8483 93.3954 43.4817 93.8647 43.225C94.334 42.9683 94.8584 42.84 95.4377 42.84C96.017 42.84 96.5414 42.9683 97.0107 43.225C97.48 43.4817 97.8504 43.8483 98.1217 44.325C98.393 44.8017 98.5287 45.348 98.5287 45.964C98.5287 46.58 98.3894 47.1263 98.1107 47.603C97.832 48.0797 97.4507 48.45 96.9667 48.714C96.49 48.9707 95.962 49.099 95.3827 49.099ZM95.3827 48.01C95.7054 48.01 96.006 47.933 96.2847 47.779C96.5707 47.625 96.8017 47.394 96.9777 47.086C97.1537 46.778 97.2417 46.404 97.2417 45.964C97.2417 45.524 97.1574 45.1537 96.9887 44.853C96.82 44.545 96.5964 44.314 96.3177 44.16C96.039 44.006 95.7384 43.929 95.4157 43.929C95.093 43.929 94.7924 44.006 94.5137 44.16C94.2424 44.314 94.026 44.545 93.8647 44.853C93.7034 45.1537 93.6227 45.524 93.6227 45.964C93.6227 46.6167 93.7877 47.1227 94.1177 47.482C94.455 47.834 94.8767 48.01 95.3827 48.01ZM99.3504 45.964C99.3504 45.3407 99.475 44.7943 99.7244 44.325C99.981 43.8483 100.333 43.4817 100.78 43.225C101.228 42.9683 101.741 42.84 102.32 42.84C103.054 42.84 103.659 43.016 104.135 43.368C104.619 43.7127 104.946 44.2077 105.114 44.853H103.761C103.651 44.5523 103.475 44.3177 103.233 44.149C102.991 43.9803 102.687 43.896 102.32 43.896C101.807 43.896 101.396 44.0793 101.088 44.446C100.788 44.8053 100.637 45.3113 100.637 45.964C100.637 46.6167 100.788 47.1263 101.088 47.493C101.396 47.8597 101.807 48.043 102.32 48.043C103.046 48.043 103.527 47.724 103.761 47.086H105.114C104.938 47.702 104.608 48.1933 104.124 48.56C103.64 48.9193 103.039 49.099 102.32 49.099C101.741 49.099 101.228 48.9707 100.78 48.714C100.333 48.45 99.981 48.0833 99.7244 47.614C99.475 47.1373 99.3504 46.5873 99.3504 45.964ZM105.946 45.942C105.946 45.3333 106.071 44.7943 106.32 44.325C106.577 43.8557 106.921 43.4927 107.354 43.236C107.794 42.972 108.278 42.84 108.806 42.84C109.283 42.84 109.697 42.9353 110.049 43.126C110.408 43.3093 110.694 43.5403 110.907 43.819V42.939H112.172V49H110.907V48.098C110.694 48.384 110.405 48.6223 110.038 48.813C109.671 49.0037 109.253 49.099 108.784 49.099C108.263 49.099 107.787 48.967 107.354 48.703C106.921 48.4317 106.577 48.0577 106.32 47.581C106.071 47.097 105.946 46.5507 105.946 45.942ZM110.907 45.964C110.907 45.546 110.819 45.183 110.643 44.875C110.474 44.567 110.251 44.3323 109.972 44.171C109.693 44.0097 109.393 43.929 109.07 43.929C108.747 43.929 108.447 44.0097 108.168 44.171C107.889 44.325 107.662 44.556 107.486 44.864C107.317 45.1647 107.233 45.524 107.233 45.942C107.233 46.36 107.317 46.7267 107.486 47.042C107.662 47.3573 107.889 47.5993 108.168 47.768C108.454 47.9293 108.755 48.01 109.07 48.01C109.393 48.01 109.693 47.9293 109.972 47.768C110.251 47.6067 110.474 47.372 110.643 47.064C110.819 46.7487 110.907 46.382 110.907 45.964ZM115.073 40.86V49H113.819V40.86H115.073ZM119.159 45.942C119.159 45.3333 119.284 44.7943 119.533 44.325C119.79 43.8557 120.134 43.4927 120.567 43.236C121.007 42.972 121.495 42.84 122.03 42.84C122.426 42.84 122.815 42.928 123.196 43.104C123.585 43.2727 123.893 43.5 124.12 43.786V40.86H125.385V49H124.12V48.087C123.915 48.3803 123.629 48.6223 123.262 48.813C122.903 49.0037 122.488 49.099 122.019 49.099C121.491 49.099 121.007 48.967 120.567 48.703C120.134 48.4317 119.79 48.0577 119.533 47.581C119.284 47.097 119.159 46.5507 119.159 45.942ZM124.12 45.964C124.12 45.546 124.032 45.183 123.856 44.875C123.687 44.567 123.464 44.3323 123.185 44.171C122.906 44.0097 122.606 43.929 122.283 43.929C121.96 43.929 121.66 44.0097 121.381 44.171C121.102 44.325 120.875 44.556 120.699 44.864C120.53 45.1647 120.446 45.524 120.446 45.942C120.446 46.36 120.53 46.7267 120.699 47.042C120.875 47.3573 121.102 47.5993 121.381 47.768C121.667 47.9293 121.968 48.01 122.283 48.01C122.606 48.01 122.906 47.9293 123.185 47.768C123.464 47.6067 123.687 47.372 123.856 47.064C124.032 46.7487 124.12 46.382 124.12 45.964ZM127.67 42.136C127.443 42.136 127.252 42.059 127.098 41.905C126.944 41.751 126.867 41.5603 126.867 41.333C126.867 41.1057 126.944 40.915 127.098 40.761C127.252 40.607 127.443 40.53 127.67 40.53C127.89 40.53 128.077 40.607 128.231 40.761C128.385 40.915 128.462 41.1057 128.462 41.333C128.462 41.5603 128.385 41.751 128.231 41.905C128.077 42.059 127.89 42.136 127.67 42.136ZM128.286 42.939V49H127.032V42.939H128.286ZM132.132 49.099C131.656 49.099 131.227 49.0147 130.845 48.846C130.471 48.67 130.174 48.4353 129.954 48.142C129.734 47.8413 129.617 47.5077 129.602 47.141H130.9C130.922 47.3977 131.043 47.614 131.263 47.79C131.491 47.9587 131.773 48.043 132.11 48.043C132.462 48.043 132.734 47.977 132.924 47.845C133.122 47.7057 133.221 47.5297 133.221 47.317C133.221 47.0897 133.111 46.921 132.891 46.811C132.679 46.701 132.338 46.58 131.868 46.448C131.414 46.3233 131.043 46.2023 130.757 46.085C130.471 45.9677 130.222 45.788 130.009 45.546C129.804 45.304 129.701 44.985 129.701 44.589C129.701 44.2663 129.797 43.973 129.987 43.709C130.178 43.4377 130.449 43.225 130.801 43.071C131.161 42.917 131.571 42.84 132.033 42.84C132.723 42.84 133.276 43.016 133.694 43.368C134.12 43.7127 134.347 44.1857 134.376 44.787H133.122C133.1 44.5157 132.99 44.2993 132.792 44.138C132.594 43.9767 132.327 43.896 131.989 43.896C131.659 43.896 131.406 43.9583 131.23 44.083C131.054 44.2077 130.966 44.3727 130.966 44.578C130.966 44.7393 131.025 44.875 131.142 44.985C131.26 45.095 131.403 45.183 131.571 45.249C131.74 45.3077 131.989 45.3847 132.319 45.48C132.759 45.5973 133.119 45.7183 133.397 45.843C133.683 45.9603 133.929 46.1363 134.134 46.371C134.34 46.6057 134.446 46.9173 134.453 47.306C134.453 47.6507 134.358 47.9587 134.167 48.23C133.977 48.5013 133.705 48.714 133.353 48.868C133.009 49.022 132.602 49.099 132.132 49.099ZM138.206 45.975L141 49H139.306L137.062 46.393V49H135.808V40.86H137.062V45.59L139.262 42.939H141L138.206 45.975ZM150.312 45.821C150.312 46.0483 150.297 46.2537 150.268 46.437H145.637C145.673 46.921 145.853 47.3097 146.176 47.603C146.498 47.8963 146.894 48.043 147.364 48.043C148.038 48.043 148.515 47.7607 148.794 47.196H150.147C149.963 47.7533 149.63 48.2117 149.146 48.571C148.669 48.923 148.075 49.099 147.364 49.099C146.784 49.099 146.264 48.9707 145.802 48.714C145.347 48.45 144.988 48.0833 144.724 47.614C144.467 47.1373 144.339 46.5873 144.339 45.964C144.339 45.3407 144.463 44.7943 144.713 44.325C144.969 43.8483 145.325 43.4817 145.78 43.225C146.242 42.9683 146.77 42.84 147.364 42.84C147.936 42.84 148.445 42.9647 148.893 43.214C149.34 43.4633 149.688 43.8153 149.938 44.27C150.187 44.7173 150.312 45.2343 150.312 45.821ZM149.003 45.425C148.995 44.963 148.83 44.5927 148.508 44.314C148.185 44.0353 147.785 43.896 147.309 43.896C146.876 43.896 146.506 44.0353 146.198 44.314C145.89 44.5853 145.706 44.9557 145.648 45.425H149.003ZM154.142 45.931L156.1 49H154.681L153.372 46.943L152.14 49H150.831L152.789 46.019L150.831 42.939H152.25L153.559 44.996L154.791 42.939H156.1L154.142 45.931ZM158.289 43.83C158.502 43.5513 158.791 43.3167 159.158 43.126C159.525 42.9353 159.939 42.84 160.401 42.84C160.929 42.84 161.409 42.972 161.842 43.236C162.282 43.4927 162.627 43.8557 162.876 44.325C163.125 44.7943 163.25 45.3333 163.25 45.942C163.25 46.5507 163.125 47.097 162.876 47.581C162.627 48.0577 162.282 48.4317 161.842 48.703C161.409 48.967 160.929 49.099 160.401 49.099C159.939 49.099 159.528 49.0073 159.169 48.824C158.81 48.6333 158.516 48.3987 158.289 48.12V51.882H157.035V42.939H158.289V43.83ZM161.974 45.942C161.974 45.524 161.886 45.1647 161.71 44.864C161.541 44.556 161.314 44.325 161.028 44.171C160.749 44.0097 160.449 43.929 160.126 43.929C159.811 43.929 159.51 44.0097 159.224 44.171C158.945 44.3323 158.718 44.567 158.542 44.875C158.373 45.183 158.289 45.546 158.289 45.964C158.289 46.382 158.373 46.7487 158.542 47.064C158.718 47.372 158.945 47.6067 159.224 47.768C159.51 47.9293 159.811 48.01 160.126 48.01C160.449 48.01 160.749 47.9293 161.028 47.768C161.314 47.5993 161.541 47.3573 161.71 47.042C161.886 46.7267 161.974 46.36 161.974 45.942ZM167.119 49.099C166.547 49.099 166.03 48.9707 165.568 48.714C165.106 48.45 164.743 48.0833 164.479 47.614C164.215 47.1373 164.083 46.5873 164.083 45.964C164.083 45.348 164.219 44.8017 164.49 44.325C164.761 43.8483 165.132 43.4817 165.601 43.225C166.07 42.9683 166.595 42.84 167.174 42.84C167.753 42.84 168.278 42.9683 168.747 43.225C169.216 43.4817 169.587 43.8483 169.858 44.325C170.129 44.8017 170.265 45.348 170.265 45.964C170.265 46.58 170.126 47.1263 169.847 47.603C169.568 48.0797 169.187 48.45 168.703 48.714C168.226 48.9707 167.698 49.099 167.119 49.099ZM167.119 48.01C167.442 48.01 167.742 47.933 168.021 47.779C168.307 47.625 168.538 47.394 168.714 47.086C168.89 46.778 168.978 46.404 168.978 45.964C168.978 45.524 168.894 45.1537 168.725 44.853C168.556 44.545 168.333 44.314 168.054 44.16C167.775 44.006 167.475 43.929 167.152 43.929C166.829 43.929 166.529 44.006 166.25 44.16C165.979 44.314 165.762 44.545 165.601 44.853C165.44 45.1537 165.359 45.524 165.359 45.964C165.359 46.6167 165.524 47.1227 165.854 47.482C166.191 47.834 166.613 48.01 167.119 48.01ZM172.759 43.819C172.942 43.511 173.184 43.2727 173.485 43.104C173.793 42.928 174.156 42.84 174.574 42.84V44.138H174.255C173.763 44.138 173.389 44.2627 173.133 44.512C172.883 44.7613 172.759 45.194 172.759 45.81V49H171.505V42.939H172.759V43.819ZM177.189 43.962V47.317C177.189 47.5443 177.241 47.7093 177.343 47.812C177.453 47.9073 177.637 47.955 177.893 47.955H178.663V49H177.673C177.109 49 176.676 48.868 176.375 48.604C176.075 48.34 175.924 47.911 175.924 47.317V43.962H175.209V42.939H175.924V41.432H177.189V42.939H178.663V43.962H177.189Z"></path>
<mask fill="white" id="path-4-inside-1_746_13">
<path d="M400 35C400 32.2386 402.239 30 405 30H455C457.761 30 460 32.2386 460 35V55C460 57.7614 457.761 60 455 60H405C402.239 60 400 57.7614 400 55V35Z"></path>
</mask>
<path fill-opacity="0.05" fill="white" d="M400 35C400 32.2386 402.239 30 405 30H455C457.761 30 460 32.2386 460 35V55C460 57.7614 457.761 60 455 60H405C402.239 60 400 57.7614 400 55V35Z"></path>
<path mask="url(#path-4-inside-1_746_13)" fill-opacity="0.05" fill="white" d="M400 35C400 31.6863 402.686 29 406 29H454C457.314 29 460 31.6863 460 35C460 32.7909 457.761 31 455 31H405C402.239 31 400 32.7909 400 35ZM460 60H400H460ZM400 60V30V60ZM460 30V60V30Z"></path>
<path fill="white" d="M410.711 45.161C410.711 44.413 410.884 43.742 411.228 43.148C411.58 42.554 412.053 42.092 412.647 41.762C413.249 41.4247 413.905 41.256 414.616 41.256C415.43 41.256 416.153 41.4577 416.783 41.861C417.421 42.257 417.883 42.8217 418.169 43.555H416.662C416.464 43.1517 416.189 42.851 415.837 42.653C415.485 42.455 415.078 42.356 414.616 42.356C414.11 42.356 413.659 42.4697 413.263 42.697C412.867 42.9243 412.556 43.2507 412.328 43.676C412.108 44.1013 411.998 44.5963 411.998 45.161C411.998 45.7257 412.108 46.2207 412.328 46.646C412.556 47.0713 412.867 47.4013 413.263 47.636C413.659 47.8633 414.11 47.977 414.616 47.977C415.078 47.977 415.485 47.878 415.837 47.68C416.189 47.482 416.464 47.1813 416.662 46.778H418.169C417.883 47.5113 417.421 48.076 416.783 48.472C416.153 48.868 415.43 49.066 414.616 49.066C413.898 49.066 413.241 48.901 412.647 48.571C412.053 48.2337 411.58 47.768 411.228 47.174C410.884 46.58 410.711 45.909 410.711 45.161ZM419.219 45.942C419.219 45.3333 419.344 44.7943 419.593 44.325C419.85 43.8557 420.194 43.4927 420.627 43.236C421.067 42.972 421.551 42.84 422.079 42.84C422.556 42.84 422.97 42.9353 423.322 43.126C423.681 43.3093 423.967 43.5403 424.18 43.819V42.939H425.445V49H424.18V48.098C423.967 48.384 423.678 48.6223 423.311 48.813C422.944 49.0037 422.526 49.099 422.057 49.099C421.536 49.099 421.06 48.967 420.627 48.703C420.194 48.4317 419.85 48.0577 419.593 47.581C419.344 47.097 419.219 46.5507 419.219 45.942ZM424.18 45.964C424.18 45.546 424.092 45.183 423.916 44.875C423.747 44.567 423.524 44.3323 423.245 44.171C422.966 44.0097 422.666 43.929 422.343 43.929C422.02 43.929 421.72 44.0097 421.441 44.171C421.162 44.325 420.935 44.556 420.759 44.864C420.59 45.1647 420.506 45.524 420.506 45.942C420.506 46.36 420.59 46.7267 420.759 47.042C420.935 47.3573 421.162 47.5993 421.441 47.768C421.727 47.9293 422.028 48.01 422.343 48.01C422.666 48.01 422.966 47.9293 423.245 47.768C423.524 47.6067 423.747 47.372 423.916 47.064C424.092 46.7487 424.18 46.382 424.18 45.964ZM430.15 42.84C430.627 42.84 431.052 42.939 431.426 43.137C431.807 43.335 432.104 43.6283 432.317 44.017C432.53 44.4057 432.636 44.875 432.636 45.425V49H431.393V45.612C431.393 45.0693 431.257 44.655 430.986 44.369C430.715 44.0757 430.344 43.929 429.875 43.929C429.406 43.929 429.032 44.0757 428.753 44.369C428.482 44.655 428.346 45.0693 428.346 45.612V49H427.092V42.939H428.346V43.632C428.551 43.3827 428.812 43.1883 429.127 43.049C429.45 42.9097 429.791 42.84 430.15 42.84ZM433.818 45.964C433.818 45.3407 433.942 44.7943 434.192 44.325C434.448 43.8483 434.8 43.4817 435.248 43.225C435.695 42.9683 436.208 42.84 436.788 42.84C437.521 42.84 438.126 43.016 438.603 43.368C439.087 43.7127 439.413 44.2077 439.582 44.853H438.229C438.119 44.5523 437.943 44.3177 437.701 44.149C437.459 43.9803 437.154 43.896 436.788 43.896C436.274 43.896 435.864 44.0793 435.556 44.446C435.255 44.8053 435.105 45.3113 435.105 45.964C435.105 46.6167 435.255 47.1263 435.556 47.493C435.864 47.8597 436.274 48.043 436.788 48.043C437.514 48.043 437.994 47.724 438.229 47.086H439.582C439.406 47.702 439.076 48.1933 438.592 48.56C438.108 48.9193 437.506 49.099 436.788 49.099C436.208 49.099 435.695 48.9707 435.248 48.714C434.8 48.45 434.448 48.0833 434.192 47.614C433.942 47.1373 433.818 46.5873 433.818 45.964ZM446.386 45.821C446.386 46.0483 446.372 46.2537 446.342 46.437H441.711C441.748 46.921 441.928 47.3097 442.25 47.603C442.573 47.8963 442.969 48.043 443.438 48.043C444.113 48.043 444.59 47.7607 444.868 47.196H446.221C446.038 47.7533 445.704 48.2117 445.22 48.571C444.744 48.923 444.15 49.099 443.438 49.099C442.859 49.099 442.338 48.9707 441.876 48.714C441.422 48.45 441.062 48.0833 440.798 47.614C440.542 47.1373 440.413 46.5873 440.413 45.964C440.413 45.3407 440.538 44.7943 440.787 44.325C441.044 43.8483 441.4 43.4817 441.854 43.225C442.316 42.9683 442.844 42.84 443.438 42.84C444.01 42.84 444.52 42.9647 444.967 43.214C445.415 43.4633 445.763 43.8153 446.012 44.27C446.262 44.7173 446.386 45.2343 446.386 45.821ZM445.077 45.425C445.07 44.963 444.905 44.5927 444.582 44.314C444.26 44.0353 443.86 43.896 443.383 43.896C442.951 43.896 442.58 44.0353 442.272 44.314C441.964 44.5853 441.781 44.9557 441.722 45.425H445.077ZM448.874 40.86V49H447.62V40.86H448.874Z"></path>
</svg>
