<svg xmlns="http://www.w3.org/2000/svg" fill="none" viewBox="0 0 44 24" height="24" width="44">
<path fill-opacity="0.5" fill="#FF0000" d="M2 12C2 6.47715 6.47715 2 12 2H32C37.5228 2 42 6.47715 42 12V12C42 17.5228 37.5228 22 32 22H12C6.47715 22 2 17.5228 2 12V12Z"></path>
<path stroke-width="2" stroke-opacity="0.2" stroke="#FF0000" d="M32 1H12C5.92487 1 1 5.92487 1 12C1 18.0751 5.92487 23 12 23H32C38.0751 23 43 18.0751 43 12C43 5.92487 38.0751 1 32 1Z"></path>
<path fill="white" d="M16.5502 14.14C17.3182 13.476 17.9222 12.932 18.3622 12.508C18.8102 12.076 19.1822 11.628 19.4782 11.164C19.7742 10.7 19.9222 10.236 19.9222 9.772C19.9222 9.292 19.8062 8.916 19.5742 8.644C19.3502 8.372 18.9942 8.236 18.5062 8.236C18.0342 8.236 17.6662 8.388 17.4022 8.692C17.1462 8.988 17.0102 9.388 16.9942 9.892H15.6742C15.6982 8.98 15.9702 8.284 16.4902 7.804C17.0182 7.316 17.6862 7.072 18.4942 7.072C19.3662 7.072 20.0462 7.312 20.5342 7.792C21.0302 8.272 21.2782 8.912 21.2782 9.712C21.2782 10.288 21.1302 10.844 20.8342 11.38C20.5462 11.908 20.1982 12.384 19.7902 12.808C19.3902 13.224 18.8782 13.708 18.2542 14.26L17.7142 14.74H21.5182V15.88H15.6862V14.884L16.5502 14.14ZM23.476 14.14C24.244 13.476 24.848 12.932 25.288 12.508C25.736 12.076 26.108 11.628 26.404 11.164C26.7 10.7 26.848 10.236 26.848 9.772C26.848 9.292 26.732 8.916 26.5 8.644C26.276 8.372 25.92 8.236 25.432 8.236C24.96 8.236 24.592 8.388 24.328 8.692C24.072 8.988 23.936 9.388 23.92 9.892H22.6C22.624 8.98 22.896 8.284 23.416 7.804C23.944 7.316 24.612 7.072 25.42 7.072C26.292 7.072 26.972 7.312 27.46 7.792C27.956 8.272 28.204 8.912 28.204 9.712C28.204 10.288 28.056 10.844 27.76 11.38C27.472 11.908 27.124 12.384 26.716 12.808C26.316 13.224 25.804 13.708 25.18 14.26L24.64 14.74H28.444V15.88H22.612V14.884L23.476 14.14Z"></path>
</svg>
