<svg version="1.1" xmlns="http://www.w3.org/2000/svg" xmlns:xlink="http://www.w3.org/1999/xlink" width="40" height="20" viewBox="0,0,40,20"><g transform="translate(-220,-167)"><g data-paper-data="{&quot;isPaintingLayer&quot;:true}" fill-rule="nonzero" stroke="none" stroke-width="1" stroke-linecap="butt" stroke-linejoin="miter" stroke-miterlimit="10" stroke-dasharray="" stroke-dashoffset="0" style="mix-blend-mode: normal"><path d="M220,187v-20h40v20z" fill="none"></path><path d="M245.364,175.716c0.448,0.08 0.828,0.316 1.14,0.708c0.312,0.392 0.468,0.836 0.468,1.332c0,0.424 -0.112,0.808 -0.336,1.152c-0.216,0.336 -0.532,0.604 -0.948,0.804c-0.416,0.192 -0.9,0.288 -1.452,0.288h-3.336v-8.34h3.18c0.568,0 1.056,0.096 1.464,0.288c0.408,0.192 0.716,0.452 0.924,0.78c0.208,0.32 0.312,0.68 0.312,1.08c0,0.48 -0.128,0.88 -0.384,1.2c-0.256,0.32 -0.6,0.556 -1.032,0.708zM242.268,175.164h1.692c0.448,0 0.796,-0.1 1.044,-0.3c0.256,-0.208 0.384,-0.504 0.384,-0.888c0,-0.376 -0.128,-0.668 -0.384,-0.876c-0.248,-0.216 -0.596,-0.324 -1.044,-0.324h-1.692zM244.116,178.884c0.464,0 0.828,-0.112 1.092,-0.336c0.264,-0.224 0.396,-0.536 0.396,-0.936c0,-0.408 -0.14,-0.732 -0.42,-0.972c-0.28,-0.24 -0.652,-0.36 -1.116,-0.36h-1.8v2.604z" fill="#ff0000"></path></g></g></svg>