<svg xmlns="http://www.w3.org/2000/svg" fill="none" viewBox="0 0 720 540" height="540" width="720">
<rect fill="#FF0040" height="360" width="480" y="90" x="120"></rect>
<path fill="url(#paint0_linear_503_2)" d="M0 0H720V540H0L267.5 293V293C280.479 293 291 282.479 291 269.5V264.5H299V287C299 290.314 301.686 293 305 293V293C308.314 293 311 290.314 311 287V264.5L319 269.5V269.5C319 282.479 329.521 293 342.5 293V293C355.479 293 366 282.479 366 269.5V269.5H374V287C374 290.314 376.686 293 380 293V293C383.314 293 386 290.314 386 287V259.5C386 253.149 391.149 248 397.5 248V248C403.851 248 409 253.149 409 259.5V260V266.5L408.767 266.373C405.311 264.488 401.437 263.5 397.5 263.5V263.5V263.5C394.186 263.5 391.5 266.186 391.5 269.5V269.5C391.5 272.814 394.186 275.5 397.5 275.5V275.5V275.5C403.851 275.5 409 280.649 409 287V287V287C409 290.314 411.686 293 415 293V293C418.314 293 421 290.314 421 287V264.5L429 269.5V269.5C429 282.479 439.521 293 452.5 293V293C465.479 293 476 282.479 476 269.5V252C476 248.686 473.314 246 470 246V246C466.686 246 464 248.686 464 252V269.5C464 275.851 458.851 281 452.5 281V281C446.149 281 441 275.851 441 269.5V252C441 248.686 438.314 246 435 246V246C431.686 246 429 248.686 429 252V269.5L421 264.5V259.5C421 246.521 410.479 236 397.5 236V236C384.521 236 374 246.521 374 259.5V269.5H366V269.5C366 256.521 355.479 246 342.5 246V246V258V258C348.851 258 354 263.149 354 269.5V269.5C354 275.851 348.851 281 342.5 281V281C336.149 281 331 275.851 331 269.5V269.5C331 263.149 336.149 258 342.5 258V258V246V246C329.521 246 319 256.521 319 269.5V269.5L311 264.5V242C311 238.686 308.314 236 305 236V236C301.686 236 299 238.686 299 242V264.5H291V242C291 238.686 288.314 236 285 236V236C281.686 236 279 238.686 279 242V269.5C279 275.851 273.851 281 267.5 281V281C261.149 281 256 275.741 256 269.389V269.389C256 266.168 253.388 263.5 250.167 263.5H249.71C246.556 263.5 244 266.113 244 269.266V269.266C244 282.245 254.521 293 267.5 293V293L0 540V0Z"></path>
<defs>
<linearGradient gradientUnits="userSpaceOnUse" y2="450" x2="600" y1="90" x1="120" id="paint0_linear_503_2">
<stop stop-color="#330000"></stop>
<stop stop-color="#33001A" offset="1"></stop>
</linearGradient>
</defs>
</svg>
