<svg xmlns="http://www.w3.org/2000/svg" fill="none" viewBox="0 0 480 360" height="360" width="480">
<path fill="white" d="M204.976 51.248L199.312 62.168V68H195.952V62.168L190.264 51.248H194.056L197.656 58.904L201.232 51.248H204.976ZM212.818 68.216C211.538 68.216 210.386 67.936 209.362 67.376C208.338 66.8 207.53 65.992 206.938 64.952C206.362 63.912 206.074 62.712 206.074 61.352C206.074 59.992 206.37 58.792 206.962 57.752C207.57 56.712 208.394 55.912 209.434 55.352C210.474 54.776 211.634 54.488 212.914 54.488C214.194 54.488 215.354 54.776 216.394 55.352C217.434 55.912 218.25 56.712 218.842 57.752C219.45 58.792 219.754 59.992 219.754 61.352C219.754 62.712 219.442 63.912 218.818 64.952C218.21 65.992 217.378 66.8 216.322 67.376C215.282 67.936 214.114 68.216 212.818 68.216ZM212.818 65.288C213.426 65.288 213.994 65.144 214.522 64.856C215.066 64.552 215.498 64.104 215.818 63.512C216.138 62.92 216.298 62.2 216.298 61.352C216.298 60.088 215.962 59.12 215.29 58.448C214.634 57.76 213.826 57.416 212.866 57.416C211.906 57.416 211.098 57.76 210.442 58.448C209.802 59.12 209.482 60.088 209.482 61.352C209.482 62.616 209.794 63.592 210.418 64.28C211.058 64.952 211.858 65.288 212.818 65.288ZM234.771 54.704V68H231.387V66.32C230.955 66.896 230.387 67.352 229.683 67.688C228.995 68.008 228.243 68.168 227.427 68.168C226.387 68.168 225.467 67.952 224.667 67.52C223.867 67.072 223.235 66.424 222.771 65.576C222.323 64.712 222.099 63.688 222.099 62.504V54.704H225.459V62.024C225.459 63.08 225.723 63.896 226.251 64.472C226.779 65.032 227.499 65.312 228.411 65.312C229.339 65.312 230.067 65.032 230.595 64.472C231.123 63.896 231.387 63.08 231.387 62.024V54.704H234.771ZM241.446 56.768C241.878 56.064 242.438 55.512 243.126 55.112C243.83 54.712 244.63 54.512 245.526 54.512V58.04H244.638C243.582 58.04 242.782 58.288 242.238 58.784C241.71 59.28 241.446 60.144 241.446 61.376V68H238.086V54.704H241.446V56.768ZM255.212 53.12C254.62 53.12 254.124 52.936 253.724 52.568C253.34 52.184 253.148 51.712 253.148 51.152C253.148 50.592 253.34 50.128 253.724 49.76C254.124 49.376 254.62 49.184 255.212 49.184C255.804 49.184 256.292 49.376 256.676 49.76C257.076 50.128 257.276 50.592 257.276 51.152C257.276 51.712 257.076 52.184 256.676 52.568C256.292 52.936 255.804 53.12 255.212 53.12ZM256.868 54.704V68H253.508V54.704H256.868ZM267.555 54.512C269.139 54.512 270.419 55.016 271.395 56.024C272.371 57.016 272.859 58.408 272.859 60.2V68H269.499V60.656C269.499 59.6 269.235 58.792 268.707 58.232C268.179 57.656 267.459 57.368 266.547 57.368C265.619 57.368 264.883 57.656 264.339 58.232C263.811 58.792 263.547 59.6 263.547 60.656V68H260.187V54.704H263.547V56.36C263.995 55.784 264.563 55.336 265.251 55.016C265.955 54.68 266.723 54.512 267.555 54.512ZM282.15 57.464H279.822V68H276.414V57.464H274.902V54.704H276.414V54.032C276.414 52.4 276.878 51.2 277.806 50.432C278.734 49.664 280.134 49.304 282.006 49.352V52.184C281.19 52.168 280.622 52.304 280.302 52.592C279.982 52.88 279.822 53.4 279.822 54.152V54.704H282.15V57.464ZM290.232 68.216C288.952 68.216 287.8 67.936 286.776 67.376C285.752 66.8 284.944 65.992 284.352 64.952C283.776 63.912 283.488 62.712 283.488 61.352C283.488 59.992 283.784 58.792 284.376 57.752C284.984 56.712 285.808 55.912 286.848 55.352C287.888 54.776 289.048 54.488 290.328 54.488C291.608 54.488 292.768 54.776 293.808 55.352C294.848 55.912 295.664 56.712 296.256 57.752C296.864 58.792 297.168 59.992 297.168 61.352C297.168 62.712 296.856 63.912 296.232 64.952C295.624 65.992 294.792 66.8 293.736 67.376C292.696 67.936 291.528 68.216 290.232 68.216ZM290.232 65.288C290.84 65.288 291.408 65.144 291.936 64.856C292.48 64.552 292.912 64.104 293.232 63.512C293.552 62.92 293.712 62.2 293.712 61.352C293.712 60.088 293.376 59.12 292.704 58.448C292.048 57.76 291.24 57.416 290.28 57.416C289.32 57.416 288.512 57.76 287.856 58.448C287.216 59.12 286.896 60.088 286.896 61.352C286.896 62.616 287.208 63.592 287.832 64.28C288.472 64.952 289.272 65.288 290.232 65.288ZM302.993 56.768C303.425 56.064 303.985 55.512 304.673 55.112C305.377 54.712 306.177 54.512 307.073 54.512V58.04H306.185C305.129 58.04 304.329 58.288 303.785 58.784C303.257 59.28 302.993 60.144 302.993 61.376V68H299.633V54.704H302.993V56.768ZM325.848 54.512C327.48 54.512 328.792 55.016 329.784 56.024C330.792 57.016 331.296 58.408 331.296 60.2V68H327.936V60.656C327.936 59.616 327.672 58.824 327.144 58.28C326.616 57.72 325.896 57.44 324.984 57.44C324.072 57.44 323.344 57.72 322.8 58.28C322.272 58.824 322.008 59.616 322.008 60.656V68H318.648V60.656C318.648 59.616 318.384 58.824 317.856 58.28C317.328 57.72 316.608 57.44 315.696 57.44C314.768 57.44 314.032 57.72 313.488 58.28C312.96 58.824 312.696 59.616 312.696 60.656V68H309.336V54.704H312.696V56.312C313.128 55.752 313.68 55.312 314.352 54.992C315.04 54.672 315.792 54.512 316.608 54.512C317.648 54.512 318.576 54.736 319.392 55.184C320.208 55.616 320.84 56.24 321.288 57.056C321.72 56.288 322.344 55.672 323.16 55.208C323.992 54.744 324.888 54.512 325.848 54.512ZM333.62 61.304C333.62 59.96 333.884 58.768 334.412 57.728C334.956 56.688 335.684 55.888 336.596 55.328C337.524 54.768 338.556 54.488 339.692 54.488C340.684 54.488 341.548 54.688 342.284 55.088C343.036 55.488 343.636 55.992 344.084 56.6V54.704H347.468V68H344.084V66.056C343.652 66.68 343.052 67.2 342.284 67.616C341.532 68.016 340.66 68.216 339.668 68.216C338.548 68.216 337.524 67.928 336.596 67.352C335.684 66.776 334.956 65.968 334.412 64.928C333.884 63.872 333.62 62.664 333.62 61.304ZM344.084 61.352C344.084 60.536 343.924 59.84 343.604 59.264C343.284 58.672 342.852 58.224 342.308 57.92C341.764 57.6 341.18 57.44 340.556 57.44C339.932 57.44 339.356 57.592 338.828 57.896C338.3 58.2 337.868 58.648 337.532 59.24C337.212 59.816 337.052 60.504 337.052 61.304C337.052 62.104 337.212 62.808 337.532 63.416C337.868 64.008 338.3 64.464 338.828 64.784C339.372 65.104 339.948 65.264 340.556 65.264C341.18 65.264 341.764 65.112 342.308 64.808C342.852 64.488 343.284 64.04 343.604 63.464C343.924 62.872 344.084 62.168 344.084 61.352ZM354.662 57.464V63.896C354.662 64.344 354.766 64.672 354.974 64.88C355.198 65.072 355.566 65.168 356.078 65.168H357.638V68H355.526C352.694 68 351.278 66.624 351.278 63.872V57.464H349.694V54.704H351.278V51.416H354.662V54.704H357.638V57.464H354.662ZM361.758 53.12C361.166 53.12 360.67 52.936 360.27 52.568C359.886 52.184 359.694 51.712 359.694 51.152C359.694 50.592 359.886 50.128 360.27 49.76C360.67 49.376 361.166 49.184 361.758 49.184C362.35 49.184 362.838 49.376 363.222 49.76C363.622 50.128 363.822 50.592 363.822 51.152C363.822 51.712 363.622 52.184 363.222 52.568C362.838 52.936 362.35 53.12 361.758 53.12ZM363.414 54.704V68H360.054V54.704H363.414ZM372.638 68.216C371.358 68.216 370.206 67.936 369.182 67.376C368.158 66.8 367.35 65.992 366.758 64.952C366.182 63.912 365.894 62.712 365.894 61.352C365.894 59.992 366.19 58.792 366.782 57.752C367.39 56.712 368.214 55.912 369.254 55.352C370.294 54.776 371.454 54.488 372.734 54.488C374.014 54.488 375.174 54.776 376.214 55.352C377.254 55.912 378.07 56.712 378.662 57.752C379.27 58.792 379.574 59.992 379.574 61.352C379.574 62.712 379.262 63.912 378.638 64.952C378.03 65.992 377.198 66.8 376.142 67.376C375.102 67.936 373.934 68.216 372.638 68.216ZM372.638 65.288C373.246 65.288 373.814 65.144 374.342 64.856C374.886 64.552 375.318 64.104 375.638 63.512C375.958 62.92 376.118 62.2 376.118 61.352C376.118 60.088 375.782 59.12 375.11 58.448C374.454 57.76 373.646 57.416 372.686 57.416C371.726 57.416 370.918 57.76 370.262 58.448C369.622 59.12 369.302 60.088 369.302 61.352C369.302 62.616 369.614 63.592 370.238 64.28C370.878 64.952 371.678 65.288 372.638 65.288ZM389.407 54.512C390.991 54.512 392.271 55.016 393.247 56.024C394.223 57.016 394.711 58.408 394.711 60.2V68H391.351V60.656C391.351 59.6 391.087 58.792 390.559 58.232C390.031 57.656 389.311 57.368 388.399 57.368C387.471 57.368 386.735 57.656 386.191 58.232C385.663 58.792 385.399 59.6 385.399 60.656V68H382.039V54.704H385.399V56.36C385.847 55.784 386.415 55.336 387.103 55.016C387.807 54.68 388.575 54.512 389.407 54.512Z"></path>
<path fill-opacity="0.05" fill="white" d="M190 171C190 168.239 192.239 166 195 166H465C467.761 166 470 168.239 470 171V232H190V171Z"></path>
<path fill-opacity="0.05" fill="white" d="M190 233H470V309C470 311.761 467.761 314 465 314H195C192.239 314 190 311.761 190 309V233Z"></path>
<path fill="white" d="M250.407 199.161C250.407 198.413 250.579 197.742 250.924 197.148C251.276 196.554 251.749 196.092 252.343 195.762C252.944 195.425 253.601 195.256 254.312 195.256C255.126 195.256 255.848 195.458 256.479 195.861C257.117 196.257 257.579 196.822 257.865 197.555H256.358C256.16 197.152 255.885 196.851 255.533 196.653C255.181 196.455 254.774 196.356 254.312 196.356C253.806 196.356 253.355 196.47 252.959 196.697C252.563 196.924 252.251 197.251 252.024 197.676C251.804 198.101 251.694 198.596 251.694 199.161C251.694 199.726 251.804 200.221 252.024 200.646C252.251 201.071 252.563 201.401 252.959 201.636C253.355 201.863 253.806 201.977 254.312 201.977C254.774 201.977 255.181 201.878 255.533 201.68C255.885 201.482 256.16 201.181 256.358 200.778H257.865C257.579 201.511 257.117 202.076 256.479 202.472C255.848 202.868 255.126 203.066 254.312 203.066C253.593 203.066 252.937 202.901 252.343 202.571C251.749 202.234 251.276 201.768 250.924 201.174C250.579 200.58 250.407 199.909 250.407 199.161ZM264.822 196.939V203H263.568V202.285C263.37 202.534 263.109 202.732 262.787 202.879C262.471 203.018 262.134 203.088 261.775 203.088C261.298 203.088 260.869 202.989 260.488 202.791C260.114 202.593 259.817 202.3 259.597 201.911C259.384 201.522 259.278 201.053 259.278 200.503V196.939H260.521V200.316C260.521 200.859 260.656 201.277 260.928 201.57C261.199 201.856 261.569 201.999 262.039 201.999C262.508 201.999 262.878 201.856 263.15 201.57C263.428 201.277 263.568 200.859 263.568 200.316V196.939H264.822ZM268.676 203.099C268.2 203.099 267.771 203.015 267.389 202.846C267.015 202.67 266.718 202.435 266.498 202.142C266.278 201.841 266.161 201.508 266.146 201.141H267.444C267.466 201.398 267.587 201.614 267.807 201.79C268.035 201.959 268.317 202.043 268.654 202.043C269.006 202.043 269.278 201.977 269.468 201.845C269.666 201.706 269.765 201.53 269.765 201.317C269.765 201.09 269.655 200.921 269.435 200.811C269.223 200.701 268.882 200.58 268.412 200.448C267.958 200.323 267.587 200.202 267.301 200.085C267.015 199.968 266.766 199.788 266.553 199.546C266.348 199.304 266.245 198.985 266.245 198.589C266.245 198.266 266.341 197.973 266.531 197.709C266.722 197.438 266.993 197.225 267.345 197.071C267.705 196.917 268.115 196.84 268.577 196.84C269.267 196.84 269.82 197.016 270.238 197.368C270.664 197.713 270.891 198.186 270.92 198.787H269.666C269.644 198.516 269.534 198.299 269.336 198.138C269.138 197.977 268.871 197.896 268.533 197.896C268.203 197.896 267.95 197.958 267.774 198.083C267.598 198.208 267.51 198.373 267.51 198.578C267.51 198.739 267.569 198.875 267.686 198.985C267.804 199.095 267.947 199.183 268.115 199.249C268.284 199.308 268.533 199.385 268.863 199.48C269.303 199.597 269.663 199.718 269.941 199.843C270.227 199.96 270.473 200.136 270.678 200.371C270.884 200.606 270.99 200.917 270.997 201.306C270.997 201.651 270.902 201.959 270.711 202.23C270.521 202.501 270.249 202.714 269.897 202.868C269.553 203.022 269.146 203.099 268.676 203.099ZM273.815 197.962V201.317C273.815 201.544 273.867 201.709 273.969 201.812C274.079 201.907 274.263 201.955 274.519 201.955H275.289V203H274.299C273.735 203 273.302 202.868 273.001 202.604C272.701 202.34 272.55 201.911 272.55 201.317V197.962H271.835V196.939H272.55V195.432H273.815V196.939H275.289V197.962H273.815ZM279.074 203.099C278.502 203.099 277.985 202.971 277.523 202.714C277.061 202.45 276.698 202.083 276.434 201.614C276.17 201.137 276.038 200.587 276.038 199.964C276.038 199.348 276.174 198.802 276.445 198.325C276.716 197.848 277.087 197.482 277.556 197.225C278.025 196.968 278.55 196.84 279.129 196.84C279.708 196.84 280.233 196.968 280.702 197.225C281.171 197.482 281.542 197.848 281.813 198.325C282.084 198.802 282.22 199.348 282.22 199.964C282.22 200.58 282.081 201.126 281.802 201.603C281.523 202.08 281.142 202.45 280.658 202.714C280.181 202.971 279.653 203.099 279.074 203.099ZM279.074 202.01C279.397 202.01 279.697 201.933 279.976 201.779C280.262 201.625 280.493 201.394 280.669 201.086C280.845 200.778 280.933 200.404 280.933 199.964C280.933 199.524 280.849 199.154 280.68 198.853C280.511 198.545 280.288 198.314 280.009 198.16C279.73 198.006 279.43 197.929 279.107 197.929C278.784 197.929 278.484 198.006 278.205 198.16C277.934 198.314 277.717 198.545 277.556 198.853C277.395 199.154 277.314 199.524 277.314 199.964C277.314 200.617 277.479 201.123 277.809 201.482C278.146 201.834 278.568 202.01 279.074 202.01ZM290.797 196.84C291.273 196.84 291.699 196.939 292.073 197.137C292.454 197.335 292.751 197.628 292.964 198.017C293.184 198.406 293.294 198.875 293.294 199.425V203H292.051V199.612C292.051 199.069 291.915 198.655 291.644 198.369C291.372 198.076 291.002 197.929 290.533 197.929C290.063 197.929 289.689 198.076 289.411 198.369C289.139 198.655 289.004 199.069 289.004 199.612V203H287.761V199.612C287.761 199.069 287.625 198.655 287.354 198.369C287.082 198.076 286.712 197.929 286.243 197.929C285.773 197.929 285.399 198.076 285.121 198.369C284.849 198.655 284.714 199.069 284.714 199.612V203H283.46V196.939H284.714V197.632C284.919 197.383 285.179 197.188 285.495 197.049C285.81 196.91 286.147 196.84 286.507 196.84C286.991 196.84 287.423 196.943 287.805 197.148C288.186 197.353 288.479 197.65 288.685 198.039C288.868 197.672 289.154 197.383 289.543 197.17C289.931 196.95 290.349 196.84 290.797 196.84ZM295.527 196.136C295.3 196.136 295.109 196.059 294.955 195.905C294.801 195.751 294.724 195.56 294.724 195.333C294.724 195.106 294.801 194.915 294.955 194.761C295.109 194.607 295.3 194.53 295.527 194.53C295.747 194.53 295.934 194.607 296.088 194.761C296.242 194.915 296.319 195.106 296.319 195.333C296.319 195.56 296.242 195.751 296.088 195.905C295.934 196.059 295.747 196.136 295.527 196.136ZM296.143 196.939V203H294.889V196.939H296.143ZM298.901 201.977H301.651V203H297.449V201.977L300.21 197.962H297.449V196.939H301.651V197.962L298.901 201.977ZM308.523 199.821C308.523 200.048 308.508 200.254 308.479 200.437H303.848C303.884 200.921 304.064 201.31 304.387 201.603C304.709 201.896 305.105 202.043 305.575 202.043C306.249 202.043 306.726 201.761 307.005 201.196H308.358C308.174 201.753 307.841 202.212 307.357 202.571C306.88 202.923 306.286 203.099 305.575 203.099C304.995 203.099 304.475 202.971 304.013 202.714C303.558 202.45 303.199 202.083 302.935 201.614C302.678 201.137 302.55 200.587 302.55 199.964C302.55 199.341 302.674 198.794 302.924 198.325C303.18 197.848 303.536 197.482 303.991 197.225C304.453 196.968 304.981 196.84 305.575 196.84C306.147 196.84 306.656 196.965 307.104 197.214C307.551 197.463 307.899 197.815 308.149 198.27C308.398 198.717 308.523 199.234 308.523 199.821ZM307.214 199.425C307.206 198.963 307.041 198.593 306.719 198.314C306.396 198.035 305.996 197.896 305.52 197.896C305.087 197.896 304.717 198.035 304.409 198.314C304.101 198.585 303.917 198.956 303.859 199.425H307.214ZM318.07 196.939L314.352 205.849H313.054L314.286 202.901L311.899 196.939H313.296L315.001 201.559L316.772 196.939H318.07ZM321.645 203.099C321.073 203.099 320.556 202.971 320.094 202.714C319.632 202.45 319.269 202.083 319.005 201.614C318.741 201.137 318.609 200.587 318.609 199.964C318.609 199.348 318.745 198.802 319.016 198.325C319.288 197.848 319.658 197.482 320.127 197.225C320.597 196.968 321.121 196.84 321.7 196.84C322.28 196.84 322.804 196.968 323.273 197.225C323.743 197.482 324.113 197.848 324.384 198.325C324.656 198.802 324.791 199.348 324.791 199.964C324.791 200.58 324.652 201.126 324.373 201.603C324.095 202.08 323.713 202.45 323.229 202.714C322.753 202.971 322.225 203.099 321.645 203.099ZM321.645 202.01C321.968 202.01 322.269 201.933 322.547 201.779C322.833 201.625 323.064 201.394 323.24 201.086C323.416 200.778 323.504 200.404 323.504 199.964C323.504 199.524 323.42 199.154 323.251 198.853C323.083 198.545 322.859 198.314 322.58 198.16C322.302 198.006 322.001 197.929 321.678 197.929C321.356 197.929 321.055 198.006 320.776 198.16C320.505 198.314 320.289 198.545 320.127 198.853C319.966 199.154 319.885 199.524 319.885 199.964C319.885 200.617 320.05 201.123 320.38 201.482C320.718 201.834 321.139 202.01 321.645 202.01ZM331.52 196.939V203H330.266V202.285C330.068 202.534 329.808 202.732 329.485 202.879C329.17 203.018 328.832 203.088 328.473 203.088C327.996 203.088 327.567 202.989 327.186 202.791C326.812 202.593 326.515 202.3 326.295 201.911C326.082 201.522 325.976 201.053 325.976 200.503V196.939H327.219V200.316C327.219 200.859 327.355 201.277 327.626 201.57C327.897 201.856 328.268 201.999 328.737 201.999C329.206 201.999 329.577 201.856 329.848 201.57C330.127 201.277 330.266 200.859 330.266 200.316V196.939H331.52ZM334.429 197.819C334.612 197.511 334.854 197.273 335.155 197.104C335.463 196.928 335.826 196.84 336.244 196.84V198.138H335.925C335.433 198.138 335.059 198.263 334.803 198.512C334.553 198.761 334.429 199.194 334.429 199.81V203H333.175V196.939H334.429V197.819ZM341.508 197.83C341.72 197.551 342.01 197.317 342.377 197.126C342.743 196.935 343.158 196.84 343.62 196.84C344.148 196.84 344.628 196.972 345.061 197.236C345.501 197.493 345.845 197.856 346.095 198.325C346.344 198.794 346.469 199.333 346.469 199.942C346.469 200.551 346.344 201.097 346.095 201.581C345.845 202.058 345.501 202.432 345.061 202.703C344.628 202.967 344.148 203.099 343.62 203.099C343.158 203.099 342.747 203.007 342.388 202.824C342.028 202.633 341.735 202.399 341.508 202.12V205.882H340.254V196.939H341.508V197.83ZM345.193 199.942C345.193 199.524 345.105 199.165 344.929 198.864C344.76 198.556 344.533 198.325 344.247 198.171C343.968 198.01 343.667 197.929 343.345 197.929C343.029 197.929 342.729 198.01 342.443 198.171C342.164 198.332 341.937 198.567 341.761 198.875C341.592 199.183 341.508 199.546 341.508 199.964C341.508 200.382 341.592 200.749 341.761 201.064C341.937 201.372 342.164 201.607 342.443 201.768C342.729 201.929 343.029 202.01 343.345 202.01C343.667 202.01 343.968 201.929 344.247 201.768C344.533 201.599 344.76 201.357 344.929 201.042C345.105 200.727 345.193 200.36 345.193 199.942ZM348.963 197.819C349.146 197.511 349.388 197.273 349.689 197.104C349.997 196.928 350.36 196.84 350.778 196.84V198.138H350.459C349.967 198.138 349.593 198.263 349.337 198.512C349.087 198.761 348.963 199.194 348.963 199.81V203H347.709V196.939H348.963V197.819ZM354.559 203.099C353.987 203.099 353.47 202.971 353.008 202.714C352.546 202.45 352.183 202.083 351.919 201.614C351.655 201.137 351.523 200.587 351.523 199.964C351.523 199.348 351.659 198.802 351.93 198.325C352.202 197.848 352.572 197.482 353.041 197.225C353.511 196.968 354.035 196.84 354.614 196.84C355.194 196.84 355.718 196.968 356.187 197.225C356.657 197.482 357.027 197.848 357.298 198.325C357.57 198.802 357.705 199.348 357.705 199.964C357.705 200.58 357.566 201.126 357.287 201.603C357.009 202.08 356.627 202.45 356.143 202.714C355.667 202.971 355.139 203.099 354.559 203.099ZM354.559 202.01C354.882 202.01 355.183 201.933 355.461 201.779C355.747 201.625 355.978 201.394 356.154 201.086C356.33 200.778 356.418 200.404 356.418 199.964C356.418 199.524 356.334 199.154 356.165 198.853C355.997 198.545 355.773 198.314 355.494 198.16C355.216 198.006 354.915 197.929 354.592 197.929C354.27 197.929 353.969 198.006 353.69 198.16C353.419 198.314 353.203 198.545 353.041 198.853C352.88 199.154 352.799 199.524 352.799 199.964C352.799 200.617 352.964 201.123 353.294 201.482C353.632 201.834 354.053 202.01 354.559 202.01ZM361.486 197.962H360.364V203H359.099V197.962H358.384V196.939H359.099V196.51C359.099 195.813 359.282 195.307 359.649 194.992C360.023 194.669 360.606 194.508 361.398 194.508V195.553C361.017 195.553 360.749 195.626 360.595 195.773C360.441 195.912 360.364 196.158 360.364 196.51V196.939H361.486V197.962ZM363.235 196.136C363.008 196.136 362.817 196.059 362.663 195.905C362.509 195.751 362.432 195.56 362.432 195.333C362.432 195.106 362.509 194.915 362.663 194.761C362.817 194.607 363.008 194.53 363.235 194.53C363.455 194.53 363.642 194.607 363.796 194.761C363.95 194.915 364.027 195.106 364.027 195.333C364.027 195.56 363.95 195.751 363.796 195.905C363.642 196.059 363.455 196.136 363.235 196.136ZM363.851 196.939V203H362.597V196.939H363.851ZM366.752 194.86V203H365.498V194.86H366.752ZM373.953 199.821C373.953 200.048 373.939 200.254 373.909 200.437H369.278C369.315 200.921 369.495 201.31 369.817 201.603C370.14 201.896 370.536 202.043 371.005 202.043C371.68 202.043 372.157 201.761 372.435 201.196H373.788C373.605 201.753 373.271 202.212 372.787 202.571C372.311 202.923 371.717 203.099 371.005 203.099C370.426 203.099 369.905 202.971 369.443 202.714C368.989 202.45 368.629 202.083 368.365 201.614C368.109 201.137 367.98 200.587 367.98 199.964C367.98 199.341 368.105 198.794 368.354 198.325C368.611 197.848 368.967 197.482 369.421 197.225C369.883 196.968 370.411 196.84 371.005 196.84C371.577 196.84 372.087 196.965 372.534 197.214C372.982 197.463 373.33 197.815 373.579 198.27C373.829 198.717 373.953 199.234 373.953 199.821ZM372.644 199.425C372.637 198.963 372.472 198.593 372.149 198.314C371.827 198.035 371.427 197.896 370.95 197.896C370.518 197.896 370.147 198.035 369.839 198.314C369.531 198.585 369.348 198.956 369.289 199.425H372.644ZM379.299 197.83C379.511 197.551 379.801 197.317 380.168 197.126C380.534 196.935 380.949 196.84 381.411 196.84C381.939 196.84 382.419 196.972 382.852 197.236C383.292 197.493 383.636 197.856 383.886 198.325C384.135 198.794 384.26 199.333 384.26 199.942C384.26 200.551 384.135 201.097 383.886 201.581C383.636 202.058 383.292 202.432 382.852 202.703C382.419 202.967 381.939 203.099 381.411 203.099C380.949 203.099 380.538 203.007 380.179 202.824C379.819 202.633 379.526 202.399 379.299 202.12V205.882H378.045V196.939H379.299V197.83ZM382.984 199.942C382.984 199.524 382.896 199.165 382.72 198.864C382.551 198.556 382.324 198.325 382.038 198.171C381.759 198.01 381.458 197.929 381.136 197.929C380.82 197.929 380.52 198.01 380.234 198.171C379.955 198.332 379.728 198.567 379.552 198.875C379.383 199.183 379.299 199.546 379.299 199.964C379.299 200.382 379.383 200.749 379.552 201.064C379.728 201.372 379.955 201.607 380.234 201.768C380.52 201.929 380.82 202.01 381.136 202.01C381.458 202.01 381.759 201.929 382.038 201.768C382.324 201.599 382.551 201.357 382.72 201.042C382.896 200.727 382.984 200.36 382.984 199.942ZM386.138 196.136C385.91 196.136 385.72 196.059 385.566 195.905C385.412 195.751 385.335 195.56 385.335 195.333C385.335 195.106 385.412 194.915 385.566 194.761C385.72 194.607 385.91 194.53 386.138 194.53C386.358 194.53 386.545 194.607 386.699 194.761C386.853 194.915 386.93 195.106 386.93 195.333C386.93 195.56 386.853 195.751 386.699 195.905C386.545 196.059 386.358 196.136 386.138 196.136ZM386.754 196.939V203H385.5V196.939H386.754ZM387.982 199.964C387.982 199.341 388.107 198.794 388.356 198.325C388.613 197.848 388.965 197.482 389.412 197.225C389.86 196.968 390.373 196.84 390.952 196.84C391.686 196.84 392.291 197.016 392.767 197.368C393.251 197.713 393.578 198.208 393.746 198.853H392.393C392.283 198.552 392.107 198.318 391.865 198.149C391.623 197.98 391.319 197.896 390.952 197.896C390.439 197.896 390.028 198.079 389.72 198.446C389.42 198.805 389.269 199.311 389.269 199.964C389.269 200.617 389.42 201.126 389.72 201.493C390.028 201.86 390.439 202.043 390.952 202.043C391.678 202.043 392.159 201.724 392.393 201.086H393.746C393.57 201.702 393.24 202.193 392.756 202.56C392.272 202.919 391.671 203.099 390.952 203.099C390.373 203.099 389.86 202.971 389.412 202.714C388.965 202.45 388.613 202.083 388.356 201.614C388.107 201.137 387.982 200.587 387.982 199.964ZM396.459 197.962V201.317C396.459 201.544 396.51 201.709 396.613 201.812C396.723 201.907 396.906 201.955 397.163 201.955H397.933V203H396.943C396.378 203 395.946 202.868 395.645 202.604C395.344 202.34 395.194 201.911 395.194 201.317V197.962H394.479V196.939H395.194V195.432H396.459V196.939H397.933V197.962H396.459ZM404.578 196.939V203H403.324V202.285C403.126 202.534 402.865 202.732 402.543 202.879C402.227 203.018 401.89 203.088 401.531 203.088C401.054 203.088 400.625 202.989 400.244 202.791C399.87 202.593 399.573 202.3 399.353 201.911C399.14 201.522 399.034 201.053 399.034 200.503V196.939H400.277V200.316C400.277 200.859 400.412 201.277 400.684 201.57C400.955 201.856 401.325 201.999 401.795 201.999C402.264 201.999 402.634 201.856 402.906 201.57C403.184 201.277 403.324 200.859 403.324 200.316V196.939H404.578ZM407.486 197.819C407.67 197.511 407.912 197.273 408.212 197.104C408.52 196.928 408.883 196.84 409.301 196.84V198.138H408.982C408.491 198.138 408.117 198.263 407.86 198.512C407.611 198.761 407.486 199.194 407.486 199.81V203H406.232V196.939H407.486V197.819ZM416.009 199.821C416.009 200.048 415.994 200.254 415.965 200.437H411.334C411.371 200.921 411.55 201.31 411.873 201.603C412.196 201.896 412.592 202.043 413.061 202.043C413.736 202.043 414.212 201.761 414.491 201.196H415.844C415.661 201.753 415.327 202.212 414.843 202.571C414.366 202.923 413.772 203.099 413.061 203.099C412.482 203.099 411.961 202.971 411.499 202.714C411.044 202.45 410.685 202.083 410.421 201.614C410.164 201.137 410.036 200.587 410.036 199.964C410.036 199.341 410.161 198.794 410.41 198.325C410.667 197.848 411.022 197.482 411.477 197.225C411.939 196.968 412.467 196.84 413.061 196.84C413.633 196.84 414.143 196.965 414.59 197.214C415.037 197.463 415.386 197.815 415.635 198.27C415.884 198.717 416.009 199.234 416.009 199.821ZM414.7 199.425C414.693 198.963 414.528 198.593 414.205 198.314C413.882 198.035 413.483 197.896 413.006 197.896C412.573 197.896 412.203 198.035 411.895 198.314C411.587 198.585 411.404 198.956 411.345 199.425H414.7Z"></path>
<path stroke-width="1.5" stroke="white" d="M212.75 195C212.75 193.757 213.757 192.75 215 192.75C216.243 192.75 217.25 193.757 217.25 195C217.25 196.243 216.243 197.25 215 197.25C213.757 197.25 212.75 196.243 212.75 195ZM210.75 200.75C210.75 200.198 211.198 199.75 211.75 199.75H218.25C218.802 199.75 219.25 200.198 219.25 200.75V201C219.25 203.347 217.347 205.25 215 205.25C212.653 205.25 210.75 203.347 210.75 201V200.75Z"></path>
<path stroke-linecap="round" stroke-width="1.5" stroke="white" d="M222 193.5H229"></path>
<path stroke-linecap="round" stroke-width="1.5" stroke="white" d="M222 198.5H229"></path>
<path stroke-linecap="round" stroke-width="1.5" stroke="white" d="M222 203.5H229"></path>
<g clip-path="url(#clip0_502_2)">
<path fill="url(#paint0_linear_502_2)" d="M392 273C392 256.431 378.569 243 362 243C345.431 243 332 256.431 332 273C332 289.569 345.431 303 362 303C378.569 303 392 289.569 392 273Z"></path>
<path stroke-linecap="round" stroke-width="6" stroke="url(#paint1_linear_502_2)" d="M370.5 261.5V275.25C370.5 280.082 366.583 284 361.75 284C356.918 284 353 280.082 353 275.25"></path>
<path stroke-linecap="round" stroke-width="6" stroke="url(#paint2_linear_502_2)" d="M370.5 275.25C370.5 280.083 366.582 284 361.75 284C356.918 284 353 280.083 353 275.25"></path>
</g>
<g clip-path="url(#clip1_502_2)">
<path fill="black" d="M328 273C328 256.431 314.569 243 298 243C281.431 243 268 256.431 268 273C268 289.569 281.431 303 298 303C314.569 303 328 289.569 328 273Z"></path>
<path fill="url(#paint3_linear_502_2)" d="M286 264.6C286 262.612 287.612 261 289.6 261H297.4V272.4H286V264.6Z"></path>
<path fill="url(#paint4_linear_502_2)" d="M286 273.6H297.4V285H289.6C287.612 285 286 283.388 286 281.4V273.6Z"></path>
<path fill="url(#paint5_linear_502_2)" d="M298.6 273.6H310V281.4C310 283.388 308.388 285 306.4 285H298.6V273.6Z"></path>
<path fill="url(#paint6_linear_502_2)" d="M298.6 261H306.4C308.388 261 310 262.612 310 264.6V272.4H298.6V261Z"></path>
</g>
<g clip-path="url(#clip2_502_2)">
<path fill-opacity="0.1" fill="white" d="M264 273C264 256.431 250.569 243 234 243C217.431 243 204 256.431 204 273C204 289.569 217.431 303 234 303C250.569 303 264 289.569 264 273Z"></path>
<path fill="white" d="M226.5 265.5C226.5 261.358 229.858 258 234 258C238.142 258 241.5 261.358 241.5 265.5C241.5 269.642 238.142 273 234 273C229.858 273 226.5 269.642 226.5 265.5Z"></path>
<path fill="white" d="M222 279C222 277.343 223.343 276 225 276H243C244.657 276 246 277.343 246 279C246 283.971 241.971 288 237 288H231C226.029 288 222 283.971 222 279Z"></path>
</g>
<g clip-path="url(#clip3_502_2)">
<path fill="#F8AA36" d="M456 273C456 256.431 442.569 243 426 243C409.431 243 396 256.431 396 273C396 289.569 409.431 303 426 303C442.569 303 456 289.569 456 273Z"></path>
<path stroke-width="3.6" stroke="white" fill="#F8AA36" d="M426.004 257.886C425.89 257.967 425.784 258.049 425.687 258.13C425.184 258.048 424.522 257.975 423.83 258.002C421.078 258.109 418.818 259.239 417.301 261.318C415.836 263.327 415.2 266.033 415.2 269.1C415.2 270.225 415.348 271.145 415.516 271.829C414.984 272.415 414.3 273.429 414.3 274.8C414.3 276.075 414.23 277.111 414.155 278.217L414.154 278.236C414.079 279.349 414 280.527 414 282C414 283.655 414.456 285.422 415.542 286.818C416.671 288.27 418.396 289.2 420.6 289.2C422.139 289.2 423.457 288.554 424.299 288.022C424.646 287.803 424.941 287.585 425.172 287.4H426C432.194 287.4 437.4 282.883 437.4 277.2C437.4 275.034 436.765 273.374 436.105 272.243C435.954 271.985 435.803 271.755 435.658 271.553C435.8 271.12 435.9 270.6 435.9 270C435.9 268.93 435.963 268.105 436.034 267.171C436.038 267.127 436.041 267.081 436.045 267.036C436.121 266.038 436.2 264.935 436.2 263.4C436.2 260.157 433.74 256.8 429.6 256.8C427.996 256.8 426.81 257.31 426.004 257.886Z"></path>
<path fill="white" d="M424.766 271.761C423.397 271.584 422.615 270.699 423.006 268.22V267.866C423.397 265.741 423.593 265.21 424.766 265.21C425.157 265.21 425.548 265.387 425.939 265.741C426.33 266.095 427.112 266.626 427.503 267.689C427.894 268.397 427.894 268.928 428.09 269.459V270.167C428.09 270.522 428.481 270.876 429.067 271.053C429.654 271.23 430.24 270.699 430.436 270.167C430.436 270.167 430.827 263.44 430.827 263.262C430.827 262.731 430.24 262.2 429.654 262.2C429.067 262.2 428.481 262.731 428.481 263.262V265.21C427.503 264.325 426.33 263.44 424.961 263.44C421.246 262.908 420.855 265.918 420.66 267.689V268.043C420.269 271.407 421.442 273.531 424.375 274.062C427.503 274.594 429.654 275.125 429.654 276.895C429.654 277.603 429.263 278.312 428.481 278.843C427.699 279.551 426.525 279.728 425.352 279.551C424.961 279.551 424.766 279.374 424.375 279.374C423.984 279.197 422.811 278.666 422.42 277.958C422.224 277.249 422.029 276.364 422.029 275.833V275.479C422.029 274.948 421.442 274.417 420.855 274.417C420.269 274.417 419.682 274.948 419.682 275.479C419.682 275.479 419.682 277.603 419.487 278.843C419.291 280.967 419.487 282.561 419.487 282.738C419.487 283.269 420.073 283.8 420.66 283.8C421.246 283.8 421.833 283.269 421.833 282.738V280.79C422.615 281.322 423.788 281.853 425.157 282.03C426.916 282.384 428.676 281.853 430.045 280.79C431.218 279.905 432 278.489 432 277.249C432 272.823 427.112 272.115 424.766 271.761Z"></path>
</g>
<path fill-opacity="0.05" fill="white" d="M190 95C190 92.2386 192.239 90 195 90H465C467.761 90 470 92.2386 470 95V151C470 153.761 467.761 156 465 156H195C192.239 156 190 153.761 190 151V95Z"></path>
<path fill="white" d="M212.068 119.355V124.228C212.068 124.807 212.218 125.244 212.519 125.537C212.827 125.83 213.252 125.977 213.795 125.977C214.345 125.977 214.77 125.83 215.071 125.537C215.379 125.244 215.533 124.807 215.533 124.228V119.355H216.787V124.206C216.787 124.829 216.651 125.357 216.38 125.79C216.109 126.223 215.746 126.545 215.291 126.758C214.836 126.971 214.334 127.077 213.784 127.077C213.234 127.077 212.732 126.971 212.277 126.758C211.83 126.545 211.474 126.223 211.21 125.79C210.946 125.357 210.814 124.829 210.814 124.206V119.355H212.068ZM220.62 127.099C220.143 127.099 219.714 127.015 219.333 126.846C218.959 126.67 218.662 126.435 218.442 126.142C218.222 125.841 218.104 125.508 218.09 125.141H219.388C219.41 125.398 219.531 125.614 219.751 125.79C219.978 125.959 220.26 126.043 220.598 126.043C220.95 126.043 221.221 125.977 221.412 125.845C221.61 125.706 221.709 125.53 221.709 125.317C221.709 125.09 221.599 124.921 221.379 124.811C221.166 124.701 220.825 124.58 220.356 124.448C219.901 124.323 219.531 124.202 219.245 124.085C218.959 123.968 218.709 123.788 218.497 123.546C218.291 123.304 218.189 122.985 218.189 122.589C218.189 122.266 218.284 121.973 218.475 121.709C218.665 121.438 218.937 121.225 219.289 121.071C219.648 120.917 220.059 120.84 220.521 120.84C221.21 120.84 221.764 121.016 222.182 121.368C222.607 121.713 222.834 122.186 222.864 122.787H221.61C221.588 122.516 221.478 122.299 221.28 122.138C221.082 121.977 220.814 121.896 220.477 121.896C220.147 121.896 219.894 121.958 219.718 122.083C219.542 122.208 219.454 122.373 219.454 122.578C219.454 122.739 219.512 122.875 219.63 122.985C219.747 123.095 219.89 123.183 220.059 123.249C220.227 123.308 220.477 123.385 220.807 123.48C221.247 123.597 221.606 123.718 221.885 123.843C222.171 123.96 222.416 124.136 222.622 124.371C222.827 124.606 222.933 124.917 222.941 125.306C222.941 125.651 222.845 125.959 222.655 126.23C222.464 126.501 222.193 126.714 221.841 126.868C221.496 127.022 221.089 127.099 220.62 127.099ZM229.851 123.821C229.851 124.048 229.836 124.254 229.807 124.437H225.176C225.212 124.921 225.392 125.31 225.715 125.603C226.037 125.896 226.433 126.043 226.903 126.043C227.577 126.043 228.054 125.761 228.333 125.196H229.686C229.502 125.753 229.169 126.212 228.685 126.571C228.208 126.923 227.614 127.099 226.903 127.099C226.323 127.099 225.803 126.971 225.341 126.714C224.886 126.45 224.527 126.083 224.263 125.614C224.006 125.137 223.878 124.587 223.878 123.964C223.878 123.341 224.002 122.794 224.252 122.325C224.508 121.848 224.864 121.482 225.319 121.225C225.781 120.968 226.309 120.84 226.903 120.84C227.475 120.84 227.984 120.965 228.432 121.214C228.879 121.463 229.227 121.815 229.477 122.27C229.726 122.717 229.851 123.234 229.851 123.821ZM228.542 123.425C228.534 122.963 228.369 122.593 228.047 122.314C227.724 122.035 227.324 121.896 226.848 121.896C226.415 121.896 226.045 122.035 225.737 122.314C225.429 122.585 225.245 122.956 225.187 123.425H228.542ZM232.339 121.819C232.522 121.511 232.764 121.273 233.065 121.104C233.373 120.928 233.736 120.84 234.154 120.84V122.138H233.835C233.343 122.138 232.969 122.263 232.713 122.512C232.463 122.761 232.339 123.194 232.339 123.81V127H231.085V120.939H232.339V121.819ZM238.364 120.84C238.841 120.84 239.266 120.939 239.64 121.137C240.022 121.335 240.319 121.628 240.531 122.017C240.744 122.406 240.85 122.875 240.85 123.425V127H239.607V123.612C239.607 123.069 239.472 122.655 239.2 122.369C238.929 122.076 238.559 121.929 238.089 121.929C237.62 121.929 237.246 122.076 236.967 122.369C236.696 122.655 236.56 123.069 236.56 123.612V127H235.306V120.939H236.56V121.632C236.766 121.383 237.026 121.188 237.341 121.049C237.664 120.91 238.005 120.84 238.364 120.84ZM242.032 123.942C242.032 123.333 242.157 122.794 242.406 122.325C242.663 121.856 243.007 121.493 243.44 121.236C243.88 120.972 244.364 120.84 244.892 120.84C245.369 120.84 245.783 120.935 246.135 121.126C246.494 121.309 246.78 121.54 246.993 121.819V120.939H248.258V127H246.993V126.098C246.78 126.384 246.491 126.622 246.124 126.813C245.757 127.004 245.339 127.099 244.87 127.099C244.349 127.099 243.873 126.967 243.44 126.703C243.007 126.432 242.663 126.058 242.406 125.581C242.157 125.097 242.032 124.551 242.032 123.942ZM246.993 123.964C246.993 123.546 246.905 123.183 246.729 122.875C246.56 122.567 246.337 122.332 246.058 122.171C245.779 122.01 245.479 121.929 245.156 121.929C244.833 121.929 244.533 122.01 244.254 122.171C243.975 122.325 243.748 122.556 243.572 122.864C243.403 123.165 243.319 123.524 243.319 123.942C243.319 124.36 243.403 124.727 243.572 125.042C243.748 125.357 243.975 125.599 244.254 125.768C244.54 125.929 244.841 126.01 245.156 126.01C245.479 126.01 245.779 125.929 246.058 125.768C246.337 125.607 246.56 125.372 246.729 125.064C246.905 124.749 246.993 124.382 246.993 123.964ZM257.242 120.84C257.719 120.84 258.144 120.939 258.518 121.137C258.899 121.335 259.196 121.628 259.409 122.017C259.629 122.406 259.739 122.875 259.739 123.425V127H258.496V123.612C258.496 123.069 258.36 122.655 258.089 122.369C257.818 122.076 257.447 121.929 256.978 121.929C256.509 121.929 256.135 122.076 255.856 122.369C255.585 122.655 255.449 123.069 255.449 123.612V127H254.206V123.612C254.206 123.069 254.07 122.655 253.799 122.369C253.528 122.076 253.157 121.929 252.688 121.929C252.219 121.929 251.845 122.076 251.566 122.369C251.295 122.655 251.159 123.069 251.159 123.612V127H249.905V120.939H251.159V121.632C251.364 121.383 251.625 121.188 251.94 121.049C252.255 120.91 252.593 120.84 252.952 120.84C253.436 120.84 253.869 120.943 254.25 121.148C254.631 121.353 254.925 121.65 255.13 122.039C255.313 121.672 255.599 121.383 255.988 121.17C256.377 120.95 256.795 120.84 257.242 120.84ZM266.89 123.821C266.89 124.048 266.875 124.254 266.846 124.437H262.215C262.251 124.921 262.431 125.31 262.754 125.603C263.076 125.896 263.472 126.043 263.942 126.043C264.616 126.043 265.093 125.761 265.372 125.196H266.725C266.541 125.753 266.208 126.212 265.724 126.571C265.247 126.923 264.653 127.099 263.942 127.099C263.362 127.099 262.842 126.971 262.38 126.714C261.925 126.45 261.566 126.083 261.302 125.614C261.045 125.137 260.917 124.587 260.917 123.964C260.917 123.341 261.041 122.794 261.291 122.325C261.547 121.848 261.903 121.482 262.358 121.225C262.82 120.968 263.348 120.84 263.942 120.84C264.514 120.84 265.023 120.965 265.471 121.214C265.918 121.463 266.266 121.815 266.516 122.27C266.765 122.717 266.89 123.234 266.89 123.821ZM265.581 123.425C265.573 122.963 265.408 122.593 265.086 122.314C264.763 122.035 264.363 121.896 263.887 121.896C263.454 121.896 263.084 122.035 262.776 122.314C262.468 122.585 262.284 122.956 262.226 123.425H265.581Z"></path>
<mask fill="white" id="path-24-inside-1_502_2">
<path d="M290 113C290 110.239 292.239 108 295 108H455C457.761 108 460 110.239 460 113V133C460 135.761 457.761 138 455 138H295C292.239 138 290 135.761 290 133V113Z"></path>
</mask>
<path fill-opacity="0.05" fill="white" d="M290 113C290 110.239 292.239 108 295 108H455C457.761 108 460 110.239 460 113V133C460 135.761 457.761 138 455 138H295C292.239 138 290 135.761 290 133V113Z"></path>
<path mask="url(#path-24-inside-1_502_2)" fill-opacity="0.5" fill="white" d="M290 108H460H290ZM460 133C460 136.314 457.314 139 454 139H296C292.686 139 290 136.314 290 133C290 135.209 292.239 137 295 137H455C457.761 137 460 135.209 460 133ZM290 138V108V138ZM460 108V138V108Z"></path>
<defs>
<linearGradient gradientUnits="userSpaceOnUse" y2="283.059" x2="403.216" y1="243" x1="332" id="paint0_linear_502_2">
<stop stop-color="#330000"></stop>
<stop stop-color="#33001A" offset="1"></stop>
</linearGradient>
<linearGradient gradientUnits="userSpaceOnUse" y2="284.246" x2="370.501" y1="261.746" x1="353" id="paint1_linear_502_2">
<stop stop-color="#800000"></stop>
<stop stop-color="#800040" offset="1"></stop>
</linearGradient>
<linearGradient gradientUnits="userSpaceOnUse" y2="284.246" x2="370.5" y1="261.746" x1="353" id="paint2_linear_502_2">
<stop stop-color="#FF0000"></stop>
<stop stop-color="#FF0080" offset="1"></stop>
</linearGradient>
<linearGradient gradientUnits="userSpaceOnUse" y2="289.8" x2="298" y1="256.2" x1="298" id="paint3_linear_502_2">
<stop stop-color="#1493DF"></stop>
<stop stop-color="#0179D5" offset="1"></stop>
</linearGradient>
<linearGradient gradientUnits="userSpaceOnUse" y2="289.8" x2="298" y1="256.2" x1="298" id="paint4_linear_502_2">
<stop stop-color="#1493DF"></stop>
<stop stop-color="#0179D5" offset="1"></stop>
</linearGradient>
<linearGradient gradientUnits="userSpaceOnUse" y2="289.8" x2="298" y1="256.2" x1="298" id="paint5_linear_502_2">
<stop stop-color="#1493DF"></stop>
<stop stop-color="#0179D5" offset="1"></stop>
</linearGradient>
<linearGradient gradientUnits="userSpaceOnUse" y2="289.8" x2="298" y1="256.2" x1="298" id="paint6_linear_502_2">
<stop stop-color="#1493DF"></stop>
<stop stop-color="#0179D5" offset="1"></stop>
</linearGradient>
<clipPath id="clip0_502_2">
<rect transform="translate(332 243)" fill="white" height="60" width="60"></rect>
</clipPath>
<clipPath id="clip1_502_2">
<rect transform="translate(268 243)" fill="white" height="60" width="60"></rect>
</clipPath>
<clipPath id="clip2_502_2">
<rect transform="translate(204 243)" fill="white" height="60" width="60"></rect>
</clipPath>
<clipPath id="clip3_502_2">
<rect transform="translate(396 243)" fill="white" height="60" width="60"></rect>
</clipPath>
</defs>
</svg>
