<svg xmlns="http://www.w3.org/2000/svg" fill="none" viewBox="0 0 480 360" height="360" width="480">
<rect fill-opacity="0.05" fill="black" rx="5" height="36" width="36" y="50" x="313"></rect>
<path fill="#333333" d="M323 65C323 63.3431 324.343 62 326 62H331.5C331.776 62 332 62.2239 332 62.5V62.5C332 62.7761 331.776 63 331.5 63H326C324.895 63 324 63.8954 324 65V71C324 72.1046 324.895 73 326 73H331.5C331.776 73 332 73.2239 332 73.5V73.5C332 73.7761 331.776 74 331.5 74H326C324.343 74 323 72.6569 323 71V65Z"></path>
<path fill="#333333" d="M339 65C339 63.3431 337.657 62 336 62H335.5C335.224 62 335 62.2239 335 62.5V62.5C335 62.7761 335.224 63 335.5 63H336C337.105 63 338 63.8954 338 65V71C338 72.1046 337.105 73 336 73H335.5C335.224 73 335 73.2239 335 73.5V73.5C335 73.7761 335.224 74 335.5 74H336C337.657 74 339 72.6569 339 71V65Z"></path>
<path fill="#0076B3" d="M331 60.5C331 60.2239 331.224 60 331.5 60H335.5C335.776 60 336 60.2239 336 60.5V60.5C336 60.7761 335.776 61 335.5 61H334V75H335.5C335.776 75 336 75.2239 336 75.5V75.5C336 75.7761 335.776 76 335.5 76H331.5C331.224 76 331 75.7761 331 75.5V75.5C331 75.2239 331.224 75 331.5 75H333V61H331.5C331.224 61 331 60.7761 331 60.5V60.5Z"></path>
<path stroke-linecap="round" stroke-width="1.5" stroke="#0076B3" d="M326 68H331"></path>
</svg>
