<svg xmlns="http://www.w3.org/2000/svg" fill="none" viewBox="0 0 114 37" height="37" width="114">
<rect fill-opacity="0.05" fill="white" rx="5" height="37" width="114"></rect>
<path fill="white" d="M53.1531 18.161C53.1531 17.413 53.3254 16.742 53.6701 16.148C54.0221 15.554 54.4951 15.092 55.0891 14.762C55.6904 14.4247 56.3468 14.256 57.0581 14.256C57.8721 14.256 58.5944 14.4577 59.2251 14.861C59.8631 15.257 60.3251 15.8217 60.6111 16.555H59.1041C58.9061 16.1517 58.6311 15.851 58.2791 15.653C57.9271 15.455 57.5201 15.356 57.0581 15.356C56.5521 15.356 56.1011 15.4697 55.7051 15.697C55.3091 15.9243 54.9974 16.2507 54.7701 16.676C54.5501 17.1013 54.4401 17.5963 54.4401 18.161C54.4401 18.7257 54.5501 19.2207 54.7701 19.646C54.9974 20.0713 55.3091 20.4013 55.7051 20.636C56.1011 20.8633 56.5521 20.977 57.0581 20.977C57.5201 20.977 57.9271 20.878 58.2791 20.68C58.6311 20.482 58.9061 20.1813 59.1041 19.778H60.6111C60.3251 20.5113 59.8631 21.076 59.2251 21.472C58.5944 21.868 57.8721 22.066 57.0581 22.066C56.3394 22.066 55.6831 21.901 55.0891 21.571C54.4951 21.2337 54.0221 20.768 53.6701 20.174C53.3254 19.58 53.1531 18.909 53.1531 18.161Z"></path>
</svg>
