<svg xmlns="http://www.w3.org/2000/svg" fill="none" viewBox="0 0 480 360" height="360" width="480">
<rect fill-opacity="0.05" fill="#D9D9D9" rx="5" height="36" width="80" y="50" x="56"></rect>
<path fill="black" d="M95.312 72.077C94.6007 72.077 93.9443 71.912 93.343 71.582C92.749 71.2447 92.276 70.779 91.924 70.185C91.5793 69.5837 91.407 68.909 91.407 68.161C91.407 67.413 91.5793 66.742 91.924 66.148C92.276 65.554 92.749 65.092 93.343 64.762C93.9443 64.4247 94.6007 64.256 95.312 64.256C96.0307 64.256 96.687 64.4247 97.281 64.762C97.8823 65.092 98.3553 65.554 98.7 66.148C99.0447 66.742 99.217 67.413 99.217 68.161C99.217 68.909 99.0447 69.5837 98.7 70.185C98.3553 70.779 97.8823 71.2447 97.281 71.582C96.687 71.912 96.0307 72.077 95.312 72.077ZM95.312 70.988C95.818 70.988 96.269 70.8743 96.665 70.647C97.061 70.4123 97.369 70.0823 97.589 69.657C97.8163 69.2243 97.93 68.7257 97.93 68.161C97.93 67.5963 97.8163 67.1013 97.589 66.676C97.369 66.2507 97.061 65.9243 96.665 65.697C96.269 65.4697 95.818 65.356 95.312 65.356C94.806 65.356 94.355 65.4697 93.959 65.697C93.563 65.9243 93.2513 66.2507 93.024 66.676C92.804 67.1013 92.694 67.5963 92.694 68.161C92.694 68.7257 92.804 69.2243 93.024 69.657C93.2513 70.0823 93.563 70.4123 93.959 70.647C94.355 70.8743 94.806 70.988 95.312 70.988ZM101.705 66.83C101.918 66.5513 102.207 66.3167 102.574 66.126C102.941 65.9353 103.355 65.84 103.817 65.84C104.345 65.84 104.825 65.972 105.258 66.236C105.698 66.4927 106.043 66.8557 106.292 67.325C106.541 67.7943 106.666 68.3333 106.666 68.942C106.666 69.5507 106.541 70.097 106.292 70.581C106.043 71.0577 105.698 71.4317 105.258 71.703C104.825 71.967 104.345 72.099 103.817 72.099C103.355 72.099 102.944 72.0073 102.585 71.824C102.226 71.6333 101.932 71.3987 101.705 71.12V74.882H100.451V65.939H101.705V66.83ZM105.39 68.942C105.39 68.524 105.302 68.1647 105.126 67.864C104.957 67.556 104.73 67.325 104.444 67.171C104.165 67.0097 103.865 66.929 103.542 66.929C103.227 66.929 102.926 67.0097 102.64 67.171C102.361 67.3323 102.134 67.567 101.958 67.875C101.789 68.183 101.705 68.546 101.705 68.964C101.705 69.382 101.789 69.7487 101.958 70.064C102.134 70.372 102.361 70.6067 102.64 70.768C102.926 70.9293 103.227 71.01 103.542 71.01C103.865 71.01 104.165 70.9293 104.444 70.768C104.73 70.5993 104.957 70.3573 105.126 70.042C105.302 69.7267 105.39 69.36 105.39 68.942ZM113.461 68.821C113.461 69.0483 113.446 69.2537 113.417 69.437H108.786C108.823 69.921 109.002 70.3097 109.325 70.603C109.648 70.8963 110.044 71.043 110.513 71.043C111.188 71.043 111.664 70.7607 111.943 70.196H113.296C113.113 70.7533 112.779 71.2117 112.295 71.571C111.818 71.923 111.224 72.099 110.513 72.099C109.934 72.099 109.413 71.9707 108.951 71.714C108.496 71.45 108.137 71.0833 107.873 70.614C107.616 70.1373 107.488 69.5873 107.488 68.964C107.488 68.3407 107.613 67.7943 107.862 67.325C108.119 66.8483 108.474 66.4817 108.929 66.225C109.391 65.9683 109.919 65.84 110.513 65.84C111.085 65.84 111.595 65.9647 112.042 66.214C112.489 66.4633 112.838 66.8153 113.087 67.27C113.336 67.7173 113.461 68.2343 113.461 68.821ZM112.152 68.425C112.145 67.963 111.98 67.5927 111.657 67.314C111.334 67.0353 110.935 66.896 110.458 66.896C110.025 66.896 109.655 67.0353 109.347 67.314C109.039 67.5853 108.856 67.9557 108.797 68.425H112.152ZM117.753 65.84C118.23 65.84 118.655 65.939 119.029 66.137C119.41 66.335 119.707 66.6283 119.92 67.017C120.133 67.4057 120.239 67.875 120.239 68.425V72H118.996V68.612C118.996 68.0693 118.86 67.655 118.589 67.369C118.318 67.0757 117.947 66.929 117.478 66.929C117.009 66.929 116.635 67.0757 116.356 67.369C116.085 67.655 115.949 68.0693 115.949 68.612V72H114.695V65.939H115.949V66.632C116.154 66.3827 116.415 66.1883 116.73 66.049C117.053 65.9097 117.394 65.84 117.753 65.84Z"></path>
<path stroke-linejoin="round" stroke-linecap="round" stroke="#333333" d="M73.5 62.5V62.5C73.5 61.3954 72.6046 60.5 71.5 60.5H68.5C67.3954 60.5 66.5 61.3954 66.5 62.5V63.5M73.5 62.5H79.5C80.6046 62.5 81.5 63.3954 81.5 64.5V66M73.5 62.5V62.5C73.5 63.0523 73.0523 63.5 72.5 63.5H66.5M66.5 63.5V71.5C66.5 72.6046 67.3954 73.5 68.5 73.5H79.5C80.6046 73.5 81.5 72.6046 81.5 71.5V71"></path>
<path stroke-linecap="round" stroke="#0076B3" d="M74.5 68.5H81.5M81.5 68.5L78.5 65.5M81.5 68.5L78.5 71.5"></path>
</svg>
