<svg xmlns="http://www.w3.org/2000/svg" fill="none" viewBox="0 0 480 360" height="360" width="480">
<rect fill-opacity="0.05" fill="white" rx="5" height="36" width="64" y="50" x="10"></rect>
<rect stroke="#CCCCCC" rx="7" height="14" width="14" y="60.5" x="20.5"></rect>
<path stroke-linecap="round" stroke="#4CC2FF" d="M24.5 67.5H27.5M30.5 67.5H27.5M27.5 67.5V70.5V64.5V67.5Z"></path>
<path fill="white" d="M50.324 64.355V65.378H47.079V67.633H49.609V68.656H47.079V72H45.825V64.355H50.324ZM52.1241 65.136C51.8968 65.136 51.7061 65.059 51.5521 64.905C51.3981 64.751 51.3211 64.5603 51.3211 64.333C51.3211 64.1057 51.3981 63.915 51.5521 63.761C51.7061 63.607 51.8968 63.53 52.1241 63.53C52.3441 63.53 52.5311 63.607 52.6851 63.761C52.8391 63.915 52.9161 64.1057 52.9161 64.333C52.9161 64.5603 52.8391 64.751 52.6851 64.905C52.5311 65.059 52.3441 65.136 52.1241 65.136ZM52.7401 65.939V72H51.4861V65.939H52.7401ZM55.6405 63.86V72H54.3865V63.86H55.6405ZM62.8419 68.821C62.8419 69.0483 62.8272 69.2537 62.7979 69.437H58.1669C58.2036 69.921 58.3832 70.3097 58.7059 70.603C59.0286 70.8963 59.4246 71.043 59.8939 71.043C60.5686 71.043 61.0452 70.7607 61.3239 70.196H62.6769C62.4936 70.7533 62.1599 71.2117 61.6759 71.571C61.1992 71.923 60.6052 72.099 59.8939 72.099C59.3146 72.099 58.7939 71.9707 58.3319 71.714C57.8772 71.45 57.5179 71.0833 57.2539 70.614C56.9972 70.1373 56.8689 69.5873 56.8689 68.964C56.8689 68.3407 56.9936 67.7943 57.2429 67.325C57.4996 66.8483 57.8552 66.4817 58.3099 66.225C58.7719 65.9683 59.2999 65.84 59.8939 65.84C60.4659 65.84 60.9756 65.9647 61.4229 66.214C61.8702 66.4633 62.2186 66.8153 62.4679 67.27C62.7172 67.7173 62.8419 68.2343 62.8419 68.821ZM61.5329 68.425C61.5256 67.963 61.3606 67.5927 61.0379 67.314C60.7152 67.0353 60.3156 66.896 59.8389 66.896C59.4062 66.896 59.0359 67.0353 58.7279 67.314C58.4199 67.5853 58.2366 67.9557 58.1779 68.425H61.5329Z"></path>
</svg>
