<svg xmlns="http://www.w3.org/2000/svg" fill="none" viewBox="0 0 480 90" height="90" width="480">
<path fill-opacity="0.9" fill="#E6E6E6" d="M10 30C10 24.4772 14.4772 20 20 20H460C465.523 20 470 24.4772 470 30V60C470 65.5228 465.523 70 460 70H20C14.4772 70 10 65.5228 10 60V30Z"></path>
<path stroke-width="2" stroke-opacity="0.2" stroke="black" d="M20 19C13.9249 19 9 23.9249 9 30V60C9 66.0751 13.9249 71 20 71H460C466.075 71 471 66.0751 471 60V30C471 23.9249 466.075 19 460 19H20Z"></path>
<path fill="black" d="M32.079 42.367V44.611H34.719V45.634H32.079V47.977H35.049V49H30.825V41.344H35.049V42.367H32.079ZM39.6516 42.84C40.1282 42.84 40.5536 42.939 40.9276 43.137C41.3089 43.335 41.6059 43.6283 41.8186 44.017C42.0312 44.4057 42.1376 44.875 42.1376 45.425V49H40.8946V45.612C40.8946 45.0693 40.7589 44.655 40.4876 44.369C40.2162 44.0757 39.8459 43.929 39.3766 43.929C38.9072 43.929 38.5332 44.0757 38.2546 44.369C37.9832 44.655 37.8476 45.0693 37.8476 45.612V49H36.5936V42.939H37.8476V43.632C38.0529 43.3827 38.3132 43.1883 38.6286 43.049C38.9512 42.9097 39.2922 42.84 39.6516 42.84ZM45.2001 43.962V47.317C45.2001 47.5443 45.2514 47.7093 45.3541 47.812C45.4641 47.9073 45.6474 47.955 45.9041 47.955H46.6741V49H45.6841C45.1194 49 44.6868 48.868 44.3861 48.604C44.0854 48.34 43.9351 47.911 43.9351 47.317V43.962H43.2201V42.939H43.9351V41.432H45.2001V42.939H46.6741V43.962H45.2001ZM53.3849 45.821C53.3849 46.0483 53.3702 46.2537 53.3409 46.437H48.7099C48.7465 46.921 48.9262 47.3097 49.2489 47.603C49.5715 47.8963 49.9675 48.043 50.4369 48.043C51.1115 48.043 51.5882 47.7607 51.8669 47.196H53.2199C53.0365 47.7533 52.7029 48.2117 52.2189 48.571C51.7422 48.923 51.1482 49.099 50.4369 49.099C49.8575 49.099 49.3369 48.9707 48.8749 48.714C48.4202 48.45 48.0609 48.0833 47.7969 47.614C47.5402 47.1373 47.4119 46.5873 47.4119 45.964C47.4119 45.3407 47.5365 44.7943 47.7859 44.325C48.0425 43.8483 48.3982 43.4817 48.8529 43.225C49.3149 42.9683 49.8429 42.84 50.4369 42.84C51.0089 42.84 51.5185 42.9647 51.9659 43.214C52.4132 43.4633 52.7615 43.8153 53.0109 44.27C53.2602 44.7173 53.3849 45.2343 53.3849 45.821ZM52.0759 45.425C52.0685 44.963 51.9035 44.5927 51.5809 44.314C51.2582 44.0353 50.8585 43.896 50.3819 43.896C49.9492 43.896 49.5789 44.0353 49.2709 44.314C48.9629 44.5853 48.7795 44.9557 48.7209 45.425H52.0759ZM55.8729 43.819C56.0563 43.511 56.2983 43.2727 56.5989 43.104C56.9069 42.928 57.2699 42.84 57.6879 42.84V44.138H57.3689C56.8776 44.138 56.5036 44.2627 56.2469 44.512C55.9976 44.7613 55.8729 45.194 55.8729 45.81V49H54.6189V42.939H55.8729V43.819ZM63.161 43.962V47.317C63.161 47.5443 63.2124 47.7093 63.315 47.812C63.425 47.9073 63.6084 47.955 63.865 47.955H64.635V49H63.645C63.0804 49 62.6477 48.868 62.347 48.604C62.0464 48.34 61.896 47.911 61.896 47.317V43.962H61.181V42.939H61.896V41.432H63.161V42.939H64.635V43.962H63.161ZM68.9258 42.84C69.3878 42.84 69.7985 42.939 70.1578 43.137C70.5245 43.335 70.8105 43.6283 71.0158 44.017C71.2285 44.4057 71.3348 44.875 71.3348 45.425V49H70.0918V45.612C70.0918 45.0693 69.9562 44.655 69.6848 44.369C69.4135 44.0757 69.0432 43.929 68.5738 43.929C68.1045 43.929 67.7305 44.0757 67.4518 44.369C67.1805 44.655 67.0448 45.0693 67.0448 45.612V49H65.7908V40.86H67.0448V43.643C67.2575 43.3863 67.5252 43.1883 67.8478 43.049C68.1778 42.9097 68.5372 42.84 68.9258 42.84ZM78.4894 45.821C78.4894 46.0483 78.4747 46.2537 78.4454 46.437H73.8144C73.851 46.921 74.0307 47.3097 74.3534 47.603C74.676 47.8963 75.072 48.043 75.5414 48.043C76.216 48.043 76.6927 47.7607 76.9714 47.196H78.3244C78.141 47.7533 77.8074 48.2117 77.3234 48.571C76.8467 48.923 76.2527 49.099 75.5414 49.099C74.962 49.099 74.4414 48.9707 73.9794 48.714C73.5247 48.45 73.1654 48.0833 72.9014 47.614C72.6447 47.1373 72.5164 46.5873 72.5164 45.964C72.5164 45.3407 72.641 44.7943 72.8904 44.325C73.147 43.8483 73.5027 43.4817 73.9574 43.225C74.4194 42.9683 74.9474 42.84 75.5414 42.84C76.1134 42.84 76.623 42.9647 77.0704 43.214C77.5177 43.4633 77.866 43.8153 78.1154 44.27C78.3647 44.7173 78.4894 45.2343 78.4894 45.821ZM77.1804 45.425C77.173 44.963 77.008 44.5927 76.6854 44.314C76.3627 44.0353 75.963 43.896 75.4864 43.896C75.0537 43.896 74.6834 44.0353 74.3754 44.314C74.0674 44.5853 73.884 44.9557 73.8254 45.425H77.1804ZM85.6389 42.84C86.1155 42.84 86.5409 42.939 86.9149 43.137C87.2962 43.335 87.5932 43.6283 87.8059 44.017C88.0185 44.4057 88.1249 44.875 88.1249 45.425V49H86.8819V45.612C86.8819 45.0693 86.7462 44.655 86.4749 44.369C86.2035 44.0757 85.8332 43.929 85.3639 43.929C84.8945 43.929 84.5205 44.0757 84.2419 44.369C83.9705 44.655 83.8349 45.0693 83.8349 45.612V49H82.5809V42.939H83.8349V43.632C84.0402 43.3827 84.3005 43.1883 84.6159 43.049C84.9385 42.9097 85.2795 42.84 85.6389 42.84ZM95.2794 45.821C95.2794 46.0483 95.2647 46.2537 95.2354 46.437H90.6044C90.6411 46.921 90.8207 47.3097 91.1434 47.603C91.4661 47.8963 91.8621 48.043 92.3314 48.043C93.0061 48.043 93.4827 47.7607 93.7614 47.196H95.1144C94.9311 47.7533 94.5974 48.2117 94.1134 48.571C93.6367 48.923 93.0427 49.099 92.3314 49.099C91.7521 49.099 91.2314 48.9707 90.7694 48.714C90.3147 48.45 89.9554 48.0833 89.6914 47.614C89.4347 47.1373 89.3064 46.5873 89.3064 45.964C89.3064 45.3407 89.4311 44.7943 89.6804 44.325C89.9371 43.8483 90.2927 43.4817 90.7474 43.225C91.2094 42.9683 91.7374 42.84 92.3314 42.84C92.9034 42.84 93.4131 42.9647 93.8604 43.214C94.3077 43.4633 94.6561 43.8153 94.9054 44.27C95.1547 44.7173 95.2794 45.2343 95.2794 45.821ZM93.9704 45.425C93.9631 44.963 93.7981 44.5927 93.4754 44.314C93.1527 44.0353 92.7531 43.896 92.2764 43.896C91.8437 43.896 91.4734 44.0353 91.1654 44.314C90.8574 44.5853 90.6741 44.9557 90.6154 45.425H93.9704ZM104.653 42.939L102.772 49H101.452L100.231 44.523L99.0105 49H97.6905L95.7985 42.939H97.0745L98.3395 47.812L99.6265 42.939H100.935L102.167 47.79L103.421 42.939H104.653ZM111.506 42.84C111.983 42.84 112.408 42.939 112.782 43.137C113.163 43.335 113.46 43.6283 113.673 44.017C113.886 44.4057 113.992 44.875 113.992 45.425V49H112.749V45.612C112.749 45.0693 112.613 44.655 112.342 44.369C112.071 44.0757 111.7 43.929 111.231 43.929C110.762 43.929 110.388 44.0757 110.109 44.369C109.838 44.655 109.702 45.0693 109.702 45.612V49H108.448V42.939H109.702V43.632C109.907 43.3827 110.168 43.1883 110.483 43.049C110.806 42.9097 111.147 42.84 111.506 42.84ZM115.174 45.942C115.174 45.3333 115.298 44.7943 115.548 44.325C115.804 43.8557 116.149 43.4927 116.582 43.236C117.022 42.972 117.506 42.84 118.034 42.84C118.51 42.84 118.925 42.9353 119.277 43.126C119.636 43.3093 119.922 43.5403 120.135 43.819V42.939H121.4V49H120.135V48.098C119.922 48.384 119.632 48.6223 119.266 48.813C118.899 49.0037 118.481 49.099 118.012 49.099C117.491 49.099 117.014 48.967 116.582 48.703C116.149 48.4317 115.804 48.0577 115.548 47.581C115.298 47.097 115.174 46.5507 115.174 45.942ZM120.135 45.964C120.135 45.546 120.047 45.183 119.871 44.875C119.702 44.567 119.478 44.3323 119.2 44.171C118.921 44.0097 118.62 43.929 118.298 43.929C117.975 43.929 117.674 44.0097 117.396 44.171C117.117 44.325 116.89 44.556 116.714 44.864C116.545 45.1647 116.461 45.524 116.461 45.942C116.461 46.36 116.545 46.7267 116.714 47.042C116.89 47.3573 117.117 47.5993 117.396 47.768C117.682 47.9293 117.982 48.01 118.298 48.01C118.62 48.01 118.921 47.9293 119.2 47.768C119.478 47.6067 119.702 47.372 119.871 47.064C120.047 46.7487 120.135 46.382 120.135 45.964ZM130.384 42.84C130.86 42.84 131.286 42.939 131.66 43.137C132.041 43.335 132.338 43.6283 132.551 44.017C132.771 44.4057 132.881 44.875 132.881 45.425V49H131.638V45.612C131.638 45.0693 131.502 44.655 131.231 44.369C130.959 44.0757 130.589 43.929 130.12 43.929C129.65 43.929 129.276 44.0757 128.998 44.369C128.726 44.655 128.591 45.0693 128.591 45.612V49H127.348V45.612C127.348 45.0693 127.212 44.655 126.941 44.369C126.669 44.0757 126.299 43.929 125.83 43.929C125.36 43.929 124.986 44.0757 124.708 44.369C124.436 44.655 124.301 45.0693 124.301 45.612V49H123.047V42.939H124.301V43.632C124.506 43.3827 124.766 43.1883 125.082 43.049C125.397 42.9097 125.734 42.84 126.094 42.84C126.578 42.84 127.01 42.9427 127.392 43.148C127.773 43.3533 128.066 43.6503 128.272 44.039C128.455 43.6723 128.741 43.3827 129.13 43.17C129.518 42.95 129.936 42.84 130.384 42.84ZM140.031 45.821C140.031 46.0483 140.017 46.2537 139.987 46.437H135.356C135.393 46.921 135.573 47.3097 135.895 47.603C136.218 47.8963 136.614 48.043 137.083 48.043C137.758 48.043 138.235 47.7607 138.513 47.196H139.866C139.683 47.7533 139.349 48.2117 138.865 48.571C138.389 48.923 137.795 49.099 137.083 49.099C136.504 49.099 135.983 48.9707 135.521 48.714C135.067 48.45 134.707 48.0833 134.443 47.614C134.187 47.1373 134.058 46.5873 134.058 45.964C134.058 45.3407 134.183 44.7943 134.432 44.325C134.689 43.8483 135.045 43.4817 135.499 43.225C135.961 42.9683 136.489 42.84 137.083 42.84C137.655 42.84 138.165 42.9647 138.612 43.214C139.06 43.4633 139.408 43.8153 139.657 44.27C139.907 44.7173 140.031 45.2343 140.031 45.821ZM138.722 45.425C138.715 44.963 138.55 44.5927 138.227 44.314C137.905 44.0353 137.505 43.896 137.028 43.896C136.596 43.896 136.225 44.0353 135.917 44.314C135.609 44.5853 135.426 44.9557 135.367 45.425H138.722Z"></path>
<mask fill="white" id="path-4-inside-1_641_40">
<path d="M150 35C150 32.2386 152.239 30 155 30H315C317.761 30 320 32.2386 320 35V55C320 57.7614 317.761 60 315 60H155C152.239 60 150 57.7614 150 55V35Z"></path>
</mask>
<path fill-opacity="0.05" fill="black" d="M150 35C150 32.2386 152.239 30 155 30H315C317.761 30 320 32.2386 320 35V55C320 57.7614 317.761 60 315 60H155C152.239 60 150 57.7614 150 55V35Z"></path>
<path mask="url(#path-4-inside-1_641_40)" fill-opacity="0.5" fill="black" d="M150 30H320H150ZM320 55C320 58.3137 317.314 61 314 61H156C152.686 61 150 58.3137 150 55C150 57.2091 152.239 59 155 59H315C317.761 59 320 57.2091 320 55ZM150 60V30V60ZM320 30V60V30Z"></path>
<g opacity="0.5">
<mask fill="white" id="path-6-inside-2_641_40">
<path d="M400 35C400 32.2386 402.239 30 405 30H455C457.761 30 460 32.2386 460 35V55C460 57.7614 457.761 60 455 60H405C402.239 60 400 57.7614 400 55V35Z"></path>
</mask>
<path fill-opacity="0.05" fill="black" d="M400 35C400 32.2386 402.239 30 405 30H455C457.761 30 460 32.2386 460 35V55C460 57.7614 457.761 60 455 60H405C402.239 60 400 57.7614 400 55V35Z"></path>
<path mask="url(#path-6-inside-2_641_40)" fill-opacity="0.05" fill="black" d="M400 35C400 31.6863 402.686 29 406 29H454C457.314 29 460 31.6863 460 35C460 32.7909 457.761 31 455 31H405C402.239 31 400 32.7909 400 35ZM460 60H400H460ZM400 60V30V60ZM460 30V60V30Z"></path>
<path fill="black" d="M418.949 41.355C419.763 41.355 420.474 41.5127 421.083 41.828C421.699 42.136 422.172 42.5833 422.502 43.17C422.839 43.7493 423.008 44.4277 423.008 45.205C423.008 45.9823 422.839 46.657 422.502 47.229C422.172 47.801 421.699 48.241 421.083 48.549C420.474 48.8497 419.763 49 418.949 49H416.452V41.355H418.949ZM418.949 47.977C419.844 47.977 420.529 47.735 421.006 47.251C421.483 46.767 421.721 46.085 421.721 45.205C421.721 44.3177 421.483 43.6247 421.006 43.126C420.529 42.6273 419.844 42.378 418.949 42.378H417.706V47.977H418.949ZM426.88 49.099C426.308 49.099 425.791 48.9707 425.329 48.714C424.867 48.45 424.504 48.0833 424.24 47.614C423.976 47.1373 423.844 46.5873 423.844 45.964C423.844 45.348 423.979 44.8017 424.251 44.325C424.522 43.8483 424.892 43.4817 425.362 43.225C425.831 42.9683 426.355 42.84 426.935 42.84C427.514 42.84 428.038 42.9683 428.508 43.225C428.977 43.4817 429.347 43.8483 429.619 44.325C429.89 44.8017 430.026 45.348 430.026 45.964C430.026 46.58 429.886 47.1263 429.608 47.603C429.329 48.0797 428.948 48.45 428.464 48.714C427.987 48.9707 427.459 49.099 426.88 49.099ZM426.88 48.01C427.202 48.01 427.503 47.933 427.782 47.779C428.068 47.625 428.299 47.394 428.475 47.086C428.651 46.778 428.739 46.404 428.739 45.964C428.739 45.524 428.654 45.1537 428.486 44.853C428.317 44.545 428.093 44.314 427.815 44.16C427.536 44.006 427.235 43.929 426.913 43.929C426.59 43.929 426.289 44.006 426.011 44.16C425.739 44.314 425.523 44.545 425.362 44.853C425.2 45.1537 425.12 45.524 425.12 45.964C425.12 46.6167 425.285 47.1227 425.615 47.482C425.952 47.834 426.374 48.01 426.88 48.01ZM434.323 42.84C434.8 42.84 435.225 42.939 435.599 43.137C435.981 43.335 436.278 43.6283 436.49 44.017C436.703 44.4057 436.809 44.875 436.809 45.425V49H435.566V45.612C435.566 45.0693 435.431 44.655 435.159 44.369C434.888 44.0757 434.518 43.929 434.048 43.929C433.579 43.929 433.205 44.0757 432.926 44.369C432.655 44.655 432.519 45.0693 432.519 45.612V49H431.265V42.939H432.519V43.632C432.725 43.3827 432.985 43.1883 433.3 43.049C433.623 42.9097 433.964 42.84 434.323 42.84ZM443.964 45.821C443.964 46.0483 443.949 46.2537 443.92 46.437H439.289C439.326 46.921 439.505 47.3097 439.828 47.603C440.151 47.8963 440.547 48.043 441.016 48.043C441.691 48.043 442.167 47.7607 442.446 47.196H443.799C443.616 47.7533 443.282 48.2117 442.798 48.571C442.321 48.923 441.727 49.099 441.016 49.099C440.437 49.099 439.916 48.9707 439.454 48.714C438.999 48.45 438.64 48.0833 438.376 47.614C438.119 47.1373 437.991 46.5873 437.991 45.964C437.991 45.3407 438.116 44.7943 438.365 44.325C438.622 43.8483 438.977 43.4817 439.432 43.225C439.894 42.9683 440.422 42.84 441.016 42.84C441.588 42.84 442.098 42.9647 442.545 43.214C442.992 43.4633 443.341 43.8153 443.59 44.27C443.839 44.7173 443.964 45.2343 443.964 45.821ZM442.655 45.425C442.648 44.963 442.483 44.5927 442.16 44.314C441.837 44.0353 441.438 43.896 440.961 43.896C440.528 43.896 440.158 44.0353 439.85 44.314C439.542 44.5853 439.359 44.9557 439.3 45.425H442.655Z"></path>
</g>
<mask fill="white" id="path-9-inside-3_641_40">
<path d="M330 35C330 32.2386 332.239 30 335 30H385C387.761 30 390 32.2386 390 35V55C390 57.7614 387.761 60 385 60H335C332.239 60 330 57.7614 330 55V35Z"></path>
</mask>
<path fill-opacity="0.05" fill="black" d="M330 35C330 32.2386 332.239 30 335 30H385C387.761 30 390 32.2386 390 35V55C390 57.7614 387.761 60 385 60H335C332.239 60 330 57.7614 330 55V35Z"></path>
<path mask="url(#path-9-inside-3_641_40)" fill-opacity="0.05" fill="black" d="M330 35C330 31.6863 332.686 29 336 29H384C387.314 29 390 31.6863 390 35C390 32.7909 387.761 31 385 31H335C332.239 31 330 32.7909 330 35ZM390 60H330H390ZM330 60V30V60ZM390 30V60V30Z"></path>
<path fill="black" d="M340.711 45.161C340.711 44.413 340.884 43.742 341.228 43.148C341.58 42.554 342.053 42.092 342.647 41.762C343.249 41.4247 343.905 41.256 344.616 41.256C345.43 41.256 346.153 41.4577 346.783 41.861C347.421 42.257 347.883 42.8217 348.169 43.555H346.662C346.464 43.1517 346.189 42.851 345.837 42.653C345.485 42.455 345.078 42.356 344.616 42.356C344.11 42.356 343.659 42.4697 343.263 42.697C342.867 42.9243 342.556 43.2507 342.328 43.676C342.108 44.1013 341.998 44.5963 341.998 45.161C341.998 45.7257 342.108 46.2207 342.328 46.646C342.556 47.0713 342.867 47.4013 343.263 47.636C343.659 47.8633 344.11 47.977 344.616 47.977C345.078 47.977 345.485 47.878 345.837 47.68C346.189 47.482 346.464 47.1813 346.662 46.778H348.169C347.883 47.5113 347.421 48.076 346.783 48.472C346.153 48.868 345.43 49.066 344.616 49.066C343.898 49.066 343.241 48.901 342.647 48.571C342.053 48.2337 341.58 47.768 341.228 47.174C340.884 46.58 340.711 45.909 340.711 45.161ZM349.219 45.942C349.219 45.3333 349.344 44.7943 349.593 44.325C349.85 43.8557 350.194 43.4927 350.627 43.236C351.067 42.972 351.551 42.84 352.079 42.84C352.556 42.84 352.97 42.9353 353.322 43.126C353.681 43.3093 353.967 43.5403 354.18 43.819V42.939H355.445V49H354.18V48.098C353.967 48.384 353.678 48.6223 353.311 48.813C352.944 49.0037 352.526 49.099 352.057 49.099C351.536 49.099 351.06 48.967 350.627 48.703C350.194 48.4317 349.85 48.0577 349.593 47.581C349.344 47.097 349.219 46.5507 349.219 45.942ZM354.18 45.964C354.18 45.546 354.092 45.183 353.916 44.875C353.747 44.567 353.524 44.3323 353.245 44.171C352.966 44.0097 352.666 43.929 352.343 43.929C352.02 43.929 351.72 44.0097 351.441 44.171C351.162 44.325 350.935 44.556 350.759 44.864C350.59 45.1647 350.506 45.524 350.506 45.942C350.506 46.36 350.59 46.7267 350.759 47.042C350.935 47.3573 351.162 47.5993 351.441 47.768C351.727 47.9293 352.028 48.01 352.343 48.01C352.666 48.01 352.966 47.9293 353.245 47.768C353.524 47.6067 353.747 47.372 353.916 47.064C354.092 46.7487 354.18 46.382 354.18 45.964ZM360.15 42.84C360.627 42.84 361.052 42.939 361.426 43.137C361.807 43.335 362.104 43.6283 362.317 44.017C362.53 44.4057 362.636 44.875 362.636 45.425V49H361.393V45.612C361.393 45.0693 361.257 44.655 360.986 44.369C360.715 44.0757 360.344 43.929 359.875 43.929C359.406 43.929 359.032 44.0757 358.753 44.369C358.482 44.655 358.346 45.0693 358.346 45.612V49H357.092V42.939H358.346V43.632C358.551 43.3827 358.812 43.1883 359.127 43.049C359.45 42.9097 359.791 42.84 360.15 42.84ZM363.818 45.964C363.818 45.3407 363.942 44.7943 364.192 44.325C364.448 43.8483 364.8 43.4817 365.248 43.225C365.695 42.9683 366.208 42.84 366.788 42.84C367.521 42.84 368.126 43.016 368.603 43.368C369.087 43.7127 369.413 44.2077 369.582 44.853H368.229C368.119 44.5523 367.943 44.3177 367.701 44.149C367.459 43.9803 367.154 43.896 366.788 43.896C366.274 43.896 365.864 44.0793 365.556 44.446C365.255 44.8053 365.105 45.3113 365.105 45.964C365.105 46.6167 365.255 47.1263 365.556 47.493C365.864 47.8597 366.274 48.043 366.788 48.043C367.514 48.043 367.994 47.724 368.229 47.086H369.582C369.406 47.702 369.076 48.1933 368.592 48.56C368.108 48.9193 367.506 49.099 366.788 49.099C366.208 49.099 365.695 48.9707 365.248 48.714C364.8 48.45 364.448 48.0833 364.192 47.614C363.942 47.1373 363.818 46.5873 363.818 45.964ZM376.386 45.821C376.386 46.0483 376.372 46.2537 376.342 46.437H371.711C371.748 46.921 371.928 47.3097 372.25 47.603C372.573 47.8963 372.969 48.043 373.438 48.043C374.113 48.043 374.59 47.7607 374.868 47.196H376.221C376.038 47.7533 375.704 48.2117 375.22 48.571C374.744 48.923 374.15 49.099 373.438 49.099C372.859 49.099 372.338 48.9707 371.876 48.714C371.422 48.45 371.062 48.0833 370.798 47.614C370.542 47.1373 370.413 46.5873 370.413 45.964C370.413 45.3407 370.538 44.7943 370.787 44.325C371.044 43.8483 371.4 43.4817 371.854 43.225C372.316 42.9683 372.844 42.84 373.438 42.84C374.01 42.84 374.52 42.9647 374.967 43.214C375.415 43.4633 375.763 43.8153 376.012 44.27C376.262 44.7173 376.386 45.2343 376.386 45.821ZM375.077 45.425C375.07 44.963 374.905 44.5927 374.582 44.314C374.26 44.0353 373.86 43.896 373.383 43.896C372.951 43.896 372.58 44.0353 372.272 44.314C371.964 44.5853 371.781 44.9557 371.722 45.425H375.077ZM378.874 40.86V49H377.62V40.86H378.874Z"></path>
</svg>
