<svg xmlns="http://www.w3.org/2000/svg" fill="none" viewBox="0 0 100 80" height="80" width="100">
<path fill="white" d="M23.1431 56.355V64H21.8891V58.764L19.5571 64H18.6881L16.3451 58.764V64H15.0911V56.355H16.4441L19.1281 62.35L21.8011 56.355H23.1431ZM30.3463 60.821C30.3463 61.0483 30.3316 61.2537 30.3023 61.437H25.6713C25.708 61.921 25.8876 62.3097 26.2103 62.603C26.533 62.8963 26.929 63.043 27.3983 63.043C28.073 63.043 28.5496 62.7607 28.8283 62.196H30.1813C29.998 62.7533 29.6643 63.2117 29.1803 63.571C28.7036 63.923 28.1096 64.099 27.3983 64.099C26.819 64.099 26.2983 63.9707 25.8363 63.714C25.3816 63.45 25.0223 63.0833 24.7583 62.614C24.5016 62.1373 24.3733 61.5873 24.3733 60.964C24.3733 60.3407 24.498 59.7943 24.7473 59.325C25.004 58.8483 25.3596 58.4817 25.8143 58.225C26.2763 57.9683 26.8043 57.84 27.3983 57.84C27.9703 57.84 28.48 57.9647 28.9273 58.214C29.3746 58.4633 29.723 58.8153 29.9723 59.27C30.2216 59.7173 30.3463 60.2343 30.3463 60.821ZM29.0373 60.425C29.03 59.963 28.865 59.5927 28.5423 59.314C28.2196 59.0353 27.82 58.896 27.3433 58.896C26.9106 58.896 26.5403 59.0353 26.2323 59.314C25.9243 59.5853 25.741 59.9557 25.6823 60.425H29.0373ZM31.1624 60.942C31.1624 60.3333 31.287 59.7943 31.5364 59.325C31.793 58.8557 32.1377 58.4927 32.5704 58.236C33.0104 57.972 33.498 57.84 34.0334 57.84C34.4294 57.84 34.818 57.928 35.1994 58.104C35.588 58.2727 35.896 58.5 36.1234 58.786V55.86H37.3884V64H36.1234V63.087C35.918 63.3803 35.632 63.6223 35.2654 63.813C34.906 64.0037 34.4917 64.099 34.0224 64.099C33.4944 64.099 33.0104 63.967 32.5704 63.703C32.1377 63.4317 31.793 63.0577 31.5364 62.581C31.287 62.097 31.1624 61.5507 31.1624 60.942ZM36.1234 60.964C36.1234 60.546 36.0354 60.183 35.8594 59.875C35.6907 59.567 35.467 59.3323 35.1884 59.171C34.9097 59.0097 34.609 58.929 34.2864 58.929C33.9637 58.929 33.663 59.0097 33.3844 59.171C33.1057 59.325 32.8784 59.556 32.7024 59.864C32.5337 60.1647 32.4494 60.524 32.4494 60.942C32.4494 61.36 32.5337 61.7267 32.7024 62.042C32.8784 62.3573 33.1057 62.5993 33.3844 62.768C33.6704 62.9293 33.971 63.01 34.2864 63.01C34.609 63.01 34.9097 62.9293 35.1884 62.768C35.467 62.6067 35.6907 62.372 35.8594 62.064C36.0354 61.7487 36.1234 61.382 36.1234 60.964ZM39.6734 57.136C39.4461 57.136 39.2554 57.059 39.1014 56.905C38.9474 56.751 38.8704 56.5603 38.8704 56.333C38.8704 56.1057 38.9474 55.915 39.1014 55.761C39.2554 55.607 39.4461 55.53 39.6734 55.53C39.8934 55.53 40.0804 55.607 40.2344 55.761C40.3884 55.915 40.4654 56.1057 40.4654 56.333C40.4654 56.5603 40.3884 56.751 40.2344 56.905C40.0804 57.059 39.8934 57.136 39.6734 57.136ZM40.2894 57.939V64H39.0354V57.939H40.2894ZM41.5178 60.942C41.5178 60.3333 41.6425 59.7943 41.8918 59.325C42.1485 58.8557 42.4932 58.4927 42.9258 58.236C43.3658 57.972 43.8498 57.84 44.3778 57.84C44.8545 57.84 45.2688 57.9353 45.6208 58.126C45.9802 58.3093 46.2662 58.5403 46.4788 58.819V57.939H47.7438V64H46.4788V63.098C46.2662 63.384 45.9765 63.6223 45.6098 63.813C45.2432 64.0037 44.8252 64.099 44.3558 64.099C43.8352 64.099 43.3585 63.967 42.9258 63.703C42.4932 63.4317 42.1485 63.0577 41.8918 62.581C41.6425 62.097 41.5178 61.5507 41.5178 60.942ZM46.4788 60.964C46.4788 60.546 46.3908 60.183 46.2148 59.875C46.0462 59.567 45.8225 59.3323 45.5438 59.171C45.2652 59.0097 44.9645 58.929 44.6418 58.929C44.3192 58.929 44.0185 59.0097 43.7398 59.171C43.4612 59.325 43.2338 59.556 43.0578 59.864C42.8892 60.1647 42.8048 60.524 42.8048 60.942C42.8048 61.36 42.8892 61.7267 43.0578 62.042C43.2338 62.3573 43.4612 62.5993 43.7398 62.768C44.0258 62.9293 44.3265 63.01 44.6418 63.01C44.9645 63.01 45.2652 62.9293 45.5438 62.768C45.8225 62.6067 46.0462 62.372 46.2148 62.064C46.3908 61.7487 46.4788 61.382 46.4788 60.964ZM57.5943 58.632C57.5943 59.0207 57.5027 59.3873 57.3193 59.732C57.136 60.0767 56.8427 60.359 56.4393 60.579C56.036 60.7917 55.519 60.898 54.8883 60.898H53.5023V64H52.2483V56.355H54.8883C55.475 56.355 55.97 56.4577 56.3733 56.663C56.784 56.861 57.0883 57.1323 57.2863 57.477C57.4917 57.8217 57.5943 58.2067 57.5943 58.632ZM54.8883 59.875C55.365 59.875 55.7207 59.7687 55.9553 59.556C56.19 59.336 56.3073 59.028 56.3073 58.632C56.3073 57.796 55.8343 57.378 54.8883 57.378H53.5023V59.875H54.8883ZM60.0443 55.86V64H58.7903V55.86H60.0443ZM61.2727 60.942C61.2727 60.3333 61.3974 59.7943 61.6467 59.325C61.9034 58.8557 62.2481 58.4927 62.6807 58.236C63.1207 57.972 63.6047 57.84 64.1327 57.84C64.6094 57.84 65.0237 57.9353 65.3757 58.126C65.7351 58.3093 66.0211 58.5403 66.2337 58.819V57.939H67.4987V64H66.2337V63.098C66.0211 63.384 65.7314 63.6223 65.3647 63.813C64.9981 64.0037 64.5801 64.099 64.1107 64.099C63.5901 64.099 63.1134 63.967 62.6807 63.703C62.2481 63.4317 61.9034 63.0577 61.6467 62.581C61.3974 62.097 61.2727 61.5507 61.2727 60.942ZM66.2337 60.964C66.2337 60.546 66.1457 60.183 65.9697 59.875C65.8011 59.567 65.5774 59.3323 65.2987 59.171C65.0201 59.0097 64.7194 58.929 64.3967 58.929C64.0741 58.929 63.7734 59.0097 63.4947 59.171C63.2161 59.325 62.9887 59.556 62.8127 59.864C62.6441 60.1647 62.5597 60.524 62.5597 60.942C62.5597 61.36 62.6441 61.7267 62.8127 62.042C62.9887 62.3573 63.2161 62.5993 63.4947 62.768C63.7807 62.9293 64.0814 63.01 64.3967 63.01C64.7194 63.01 65.0201 62.9293 65.2987 62.768C65.5774 62.6067 65.8011 62.372 65.9697 62.064C66.1457 61.7487 66.2337 61.382 66.2337 60.964ZM74.6018 57.939L70.8838 66.849H69.5858L70.8178 63.901L68.4308 57.939H69.8278L71.5328 62.559L73.3038 57.939H74.6018ZM81.1031 60.821C81.1031 61.0483 81.0885 61.2537 81.0591 61.437H76.4281C76.4648 61.921 76.6445 62.3097 76.9671 62.603C77.2898 62.8963 77.6858 63.043 78.1551 63.043C78.8298 63.043 79.3065 62.7607 79.5851 62.196H80.9381C80.7548 62.7533 80.4211 63.2117 79.9371 63.571C79.4605 63.923 78.8665 64.099 78.1551 64.099C77.5758 64.099 77.0551 63.9707 76.5931 63.714C76.1385 63.45 75.7791 63.0833 75.5151 62.614C75.2585 62.1373 75.1301 61.5873 75.1301 60.964C75.1301 60.3407 75.2548 59.7943 75.5041 59.325C75.7608 58.8483 76.1165 58.4817 76.5711 58.225C77.0331 57.9683 77.5611 57.84 78.1551 57.84C78.7271 57.84 79.2368 57.9647 79.6841 58.214C80.1315 58.4633 80.4798 58.8153 80.7291 59.27C80.9785 59.7173 81.1031 60.2343 81.1031 60.821ZM79.7941 60.425C79.7868 59.963 79.6218 59.5927 79.2991 59.314C78.9765 59.0353 78.5768 58.896 78.1001 58.896C77.6675 58.896 77.2971 59.0353 76.9891 59.314C76.6811 59.5853 76.4978 59.9557 76.4391 60.425H79.7941ZM83.5912 58.819C83.7745 58.511 84.0165 58.2727 84.3172 58.104C84.6252 57.928 84.9882 57.84 85.4062 57.84V59.138H85.0872C84.5959 59.138 84.2219 59.2627 83.9652 59.512C83.7159 59.7613 83.5912 60.194 83.5912 60.81V64H82.3372V57.939H83.5912V58.819Z"></path>
<rect fill="url(#paint0_linear_807_201)" rx="2" height="16" width="16" y="18" x="38"></rect>
<path fill="white" d="M43.8787 25.1213C45.0503 23.9497 46.9497 23.9497 48.1213 25.1213L52.4142 29.4142C52.7893 29.7893 53 30.298 53 30.8284V31C53 32.1046 52.1046 33 51 33H41C39.8954 33 39 32.1046 39 31V30.8284C39 30.298 39.2107 29.7893 39.5858 29.4142L43.8787 25.1213Z"></path>
<path stroke-opacity="0.1" stroke="black" d="M41 33.5H51C52.3807 33.5 53.5 32.3807 53.5 31V30.8284C53.5 30.1654 53.2366 29.5295 52.7678 29.0607L48.4749 24.7678C47.108 23.4009 44.892 23.4009 43.5251 24.7678L39.2322 29.0607C38.7634 29.5295 38.5 30.1654 38.5 30.8284V31C38.5 32.3807 39.6193 33.5 41 33.5Z"></path>
<path fill="url(#paint1_linear_807_201)" d="M41 34L48.2929 26.7071C48.6834 26.3166 49.3166 26.3166 49.7071 26.7071L53.4142 30.4142C53.7893 30.7893 54 31.298 54 31.8284V32C54 33.1046 53.1046 34 52 34H41Z"></path>
<path fill="url(#paint2_linear_807_201)" d="M38 31.8284C38 31.298 38.2107 30.7893 38.5858 30.4142L43.8787 25.1213C45.0503 23.9497 46.9497 23.9497 48.1213 25.1213L51 28V28C49.8954 26.8954 48.1046 26.8954 47 28L41.5858 33.4142C41.2107 33.7893 40.702 34 40.1716 34H40C38.8954 34 38 33.1046 38 32V31.8284Z"></path>
<rect fill="white" rx="1.5" height="3" width="3" y="20" x="48"></rect>
<rect stroke-opacity="0.1" stroke="black" rx="2" height="4" width="4" y="19.5" x="47.5"></rect>
<rect stroke-width="1.5" stroke="url(#paint4_linear_807_201)" fill="url(#paint3_linear_807_201)" rx="7.25" height="14.5" width="14.5" y="26.75" x="46.75"></rect>
<path fill="white" d="M52 37.0181V30.9819C52 30.5732 52.4636 30.3372 52.7941 30.5775L56.944 33.5956C57.2185 33.7953 57.2185 34.2047 56.944 34.4044L52.7941 37.4225C52.4636 37.6628 52 37.4268 52 37.0181Z"></path>
<path stroke-linejoin="round" stroke-opacity="0.2" stroke="black" d="M51.5 30.9819V37.0181C51.5 37.8354 52.4272 38.3076 53.0882 37.8269L57.2381 34.8087C57.7872 34.4094 57.7872 33.5906 57.2381 33.1913L53.0882 30.1731C52.4272 29.6924 51.5 30.1646 51.5 30.9819Z"></path>
<defs>
<linearGradient gradientUnits="userSpaceOnUse" y2="30" x2="54" y1="19" x1="39" id="paint0_linear_807_201">
<stop stop-color="#188EDB"></stop>
<stop stop-color="#7D5AB6" offset="1"></stop>
</linearGradient>
<linearGradient gradientUnits="userSpaceOnUse" y2="34" x2="52" y1="29" x1="47" id="paint1_linear_807_201">
<stop stop-color="#037AD2"></stop>
<stop stop-color="#2C9EE2" offset="1"></stop>
</linearGradient>
<linearGradient gradientUnits="userSpaceOnUse" y2="30" x2="45" y1="26" x1="41" id="paint2_linear_807_201">
<stop stop-color="#4DDDFB"></stop>
<stop stop-color="#2AB2EB" offset="1"></stop>
</linearGradient>
<linearGradient gradientUnits="userSpaceOnUse" y2="39" x2="59" y1="29" x1="49" id="paint3_linear_807_201">
<stop stop-color="#4C4C4C"></stop>
<stop stop-color="#242424" offset="1"></stop>
</linearGradient>
<linearGradient gradientUnits="userSpaceOnUse" y2="39.5" x2="59.5" y1="28.5" x1="48.5" id="paint4_linear_807_201">
<stop stop-color="#FC914C"></stop>
<stop stop-color="#8D63BE" offset="1"></stop>
</linearGradient>
</defs>
</svg>
