<svg xmlns="http://www.w3.org/2000/svg" fill="none" viewBox="0 0 480 90" height="90" width="480">
<path fill-opacity="0.9" fill="#1A1A1A" d="M10 30C10 24.4772 14.4772 20 20 20H460C465.523 20 470 24.4772 470 30V60C470 65.5228 465.523 70 460 70H20C14.4772 70 10 65.5228 10 60V30Z"></path>
<path stroke-width="2" stroke-opacity="0.2" stroke="white" d="M20 19C13.9249 19 9 23.9249 9 30V60C9 66.0751 13.9249 71 20 71H460C466.075 71 471 66.0751 471 60V30C471 23.9249 466.075 19 460 19H20Z"></path>
<path fill="white" d="M32.079 41.355V49H30.825V41.355H32.079ZM41.0624 42.84C41.5391 42.84 41.9644 42.939 42.3384 43.137C42.7197 43.335 43.0167 43.6283 43.2294 44.017C43.4494 44.4057 43.5594 44.875 43.5594 45.425V49H42.3164V45.612C42.3164 45.0693 42.1807 44.655 41.9094 44.369C41.6381 44.0757 41.2677 43.929 40.7984 43.929C40.3291 43.929 39.9551 44.0757 39.6764 44.369C39.4051 44.655 39.2694 45.0693 39.2694 45.612V49H38.0264V45.612C38.0264 45.0693 37.8907 44.655 37.6194 44.369C37.3481 44.0757 36.9777 43.929 36.5084 43.929C36.0391 43.929 35.6651 44.0757 35.3864 44.369C35.1151 44.655 34.9794 45.0693 34.9794 45.612V49H33.7254V42.939H34.9794V43.632C35.1847 43.3827 35.4451 43.1883 35.7604 43.049C36.0757 42.9097 36.4131 42.84 36.7724 42.84C37.2564 42.84 37.6891 42.9427 38.0704 43.148C38.4517 43.3533 38.7451 43.6503 38.9504 44.039C39.1337 43.6723 39.4197 43.3827 39.8084 43.17C40.1971 42.95 40.6151 42.84 41.0624 42.84ZM46.4091 43.83C46.6217 43.5513 46.9114 43.3167 47.2781 43.126C47.6447 42.9353 48.0591 42.84 48.5211 42.84C49.0491 42.84 49.5294 42.972 49.9621 43.236C50.4021 43.4927 50.7467 43.8557 50.9961 44.325C51.2454 44.7943 51.3701 45.3333 51.3701 45.942C51.3701 46.5507 51.2454 47.097 50.9961 47.581C50.7467 48.0577 50.4021 48.4317 49.9621 48.703C49.5294 48.967 49.0491 49.099 48.5211 49.099C48.0591 49.099 47.6484 49.0073 47.2891 48.824C46.9297 48.6333 46.6364 48.3987 46.4091 48.12V51.882H45.1551V42.939H46.4091V43.83ZM50.0941 45.942C50.0941 45.524 50.0061 45.1647 49.8301 44.864C49.6614 44.556 49.4341 44.325 49.1481 44.171C48.8694 44.0097 48.5687 43.929 48.2461 43.929C47.9307 43.929 47.6301 44.0097 47.3441 44.171C47.0654 44.3323 46.8381 44.567 46.6621 44.875C46.4934 45.183 46.4091 45.546 46.4091 45.964C46.4091 46.382 46.4934 46.7487 46.6621 47.064C46.8381 47.372 47.0654 47.6067 47.3441 47.768C47.6301 47.9293 47.9307 48.01 48.2461 48.01C48.5687 48.01 48.8694 47.9293 49.1481 47.768C49.4341 47.5993 49.6614 47.3573 49.8301 47.042C50.0061 46.7267 50.0941 46.36 50.0941 45.942ZM55.2392 49.099C54.6672 49.099 54.1502 48.9707 53.6882 48.714C53.2262 48.45 52.8632 48.0833 52.5992 47.614C52.3352 47.1373 52.2032 46.5873 52.2032 45.964C52.2032 45.348 52.3388 44.8017 52.6102 44.325C52.8815 43.8483 53.2518 43.4817 53.7212 43.225C54.1905 42.9683 54.7148 42.84 55.2942 42.84C55.8735 42.84 56.3978 42.9683 56.8672 43.225C57.3365 43.4817 57.7068 43.8483 57.9782 44.325C58.2495 44.8017 58.3852 45.348 58.3852 45.964C58.3852 46.58 58.2458 47.1263 57.9672 47.603C57.6885 48.0797 57.3072 48.45 56.8232 48.714C56.3465 48.9707 55.8185 49.099 55.2392 49.099ZM55.2392 48.01C55.5618 48.01 55.8625 47.933 56.1412 47.779C56.4272 47.625 56.6582 47.394 56.8342 47.086C57.0102 46.778 57.0982 46.404 57.0982 45.964C57.0982 45.524 57.0138 45.1537 56.8452 44.853C56.6765 44.545 56.4528 44.314 56.1742 44.16C55.8955 44.006 55.5948 43.929 55.2722 43.929C54.9495 43.929 54.6488 44.006 54.3702 44.16C54.0988 44.314 53.8825 44.545 53.7212 44.853C53.5598 45.1537 53.4792 45.524 53.4792 45.964C53.4792 46.6167 53.6442 47.1227 53.9742 47.482C54.3115 47.834 54.7332 48.01 55.2392 48.01ZM60.8788 43.819C61.0621 43.511 61.3041 43.2727 61.6048 43.104C61.9128 42.928 62.2758 42.84 62.6938 42.84V44.138H62.3748C61.8835 44.138 61.5095 44.2627 61.2528 44.512C61.0035 44.7613 60.8788 45.194 60.8788 45.81V49H59.6248V42.939H60.8788V43.819ZM65.3095 43.962V47.317C65.3095 47.5443 65.3608 47.7093 65.4635 47.812C65.5735 47.9073 65.7568 47.955 66.0135 47.955H66.7835V49H65.7935C65.2288 49 64.7962 48.868 64.4955 48.604C64.1948 48.34 64.0445 47.911 64.0445 47.317V43.962H63.3295V42.939H64.0445V41.432H65.3095V42.939H66.7835V43.962H65.3095ZM68.5773 42.136C68.3499 42.136 68.1593 42.059 68.0053 41.905C67.8513 41.751 67.7743 41.5603 67.7743 41.333C67.7743 41.1057 67.8513 40.915 68.0053 40.761C68.1593 40.607 68.3499 40.53 68.5773 40.53C68.7973 40.53 68.9843 40.607 69.1383 40.761C69.2923 40.915 69.3693 41.1057 69.3693 41.333C69.3693 41.5603 69.2923 41.751 69.1383 41.905C68.9843 42.059 68.7973 42.136 68.5773 42.136ZM69.1933 42.939V49H67.9393V42.939H69.1933ZM73.8976 42.84C74.3743 42.84 74.7996 42.939 75.1736 43.137C75.555 43.335 75.852 43.6283 76.0646 44.017C76.2773 44.4057 76.3836 44.875 76.3836 45.425V49H75.1406V45.612C75.1406 45.0693 75.005 44.655 74.7336 44.369C74.4623 44.0757 74.092 43.929 73.6226 43.929C73.1533 43.929 72.7793 44.0757 72.5006 44.369C72.2293 44.655 72.0936 45.0693 72.0936 45.612V49H70.8396V42.939H72.0936V43.632C72.299 43.3827 72.5593 43.1883 72.8746 43.049C73.1973 42.9097 73.5383 42.84 73.8976 42.84ZM80.4252 42.84C80.8945 42.84 81.3089 42.9353 81.6682 43.126C82.0349 43.3093 82.3209 43.5403 82.5262 43.819V42.939H83.7912V49.099C83.7912 49.6563 83.6739 50.1513 83.4392 50.584C83.2045 51.024 82.8635 51.3687 82.4162 51.618C81.9762 51.8673 81.4482 51.992 80.8322 51.992C80.0109 51.992 79.3289 51.7977 78.7862 51.409C78.2435 51.0277 77.9355 50.507 77.8622 49.847H79.1052C79.2005 50.1623 79.4022 50.4153 79.7102 50.606C80.0255 50.804 80.3995 50.903 80.8322 50.903C81.3382 50.903 81.7452 50.749 82.0532 50.441C82.3685 50.133 82.5262 49.6857 82.5262 49.099V48.087C82.3135 48.373 82.0239 48.615 81.6572 48.813C81.2979 49.0037 80.8872 49.099 80.4252 49.099C79.8972 49.099 79.4132 48.967 78.9732 48.703C78.5405 48.4317 78.1959 48.0577 77.9392 47.581C77.6899 47.097 77.5652 46.5507 77.5652 45.942C77.5652 45.3333 77.6899 44.7943 77.9392 44.325C78.1959 43.8557 78.5405 43.4927 78.9732 43.236C79.4132 42.972 79.8972 42.84 80.4252 42.84ZM82.5262 45.964C82.5262 45.546 82.4382 45.183 82.2622 44.875C82.0935 44.567 81.8699 44.3323 81.5912 44.171C81.3125 44.0097 81.0119 43.929 80.6892 43.929C80.3665 43.929 80.0659 44.0097 79.7872 44.171C79.5085 44.325 79.2812 44.556 79.1052 44.864C78.9365 45.1647 78.8522 45.524 78.8522 45.942C78.8522 46.36 78.9365 46.7267 79.1052 47.042C79.2812 47.3573 79.5085 47.5993 79.7872 47.768C80.0732 47.9293 80.3739 48.01 80.6892 48.01C81.0119 48.01 81.3125 47.9293 81.5912 47.768C81.8699 47.6067 82.0935 47.372 82.2622 47.064C82.4382 46.7487 82.5262 46.382 82.5262 45.964ZM98.2507 41.355L95.9847 49H94.5657L92.9597 43.214L91.2547 49L89.8467 49.011L87.6797 41.355H89.0107L90.5947 47.581L92.3107 41.355H93.7187L95.3137 47.548L96.9087 41.355H98.2507ZM99.923 42.136C99.6956 42.136 99.505 42.059 99.351 41.905C99.197 41.751 99.12 41.5603 99.12 41.333C99.12 41.1057 99.197 40.915 99.351 40.761C99.505 40.607 99.6956 40.53 99.923 40.53C100.143 40.53 100.33 40.607 100.484 40.761C100.638 40.915 100.715 41.1057 100.715 41.333C100.715 41.5603 100.638 41.751 100.484 41.905C100.33 42.059 100.143 42.136 99.923 42.136ZM100.539 42.939V49H99.285V42.939H100.539ZM105.243 42.84C105.72 42.84 106.145 42.939 106.519 43.137C106.901 43.335 107.198 43.6283 107.41 44.017C107.623 44.4057 107.729 44.875 107.729 45.425V49H106.486V45.612C106.486 45.0693 106.351 44.655 106.079 44.369C105.808 44.0757 105.438 43.929 104.968 43.929C104.499 43.929 104.125 44.0757 103.846 44.369C103.575 44.655 103.439 45.0693 103.439 45.612V49H102.185V42.939H103.439V43.632C103.645 43.3827 103.905 43.1883 104.22 43.049C104.543 42.9097 104.884 42.84 105.243 42.84ZM108.911 45.942C108.911 45.3333 109.036 44.7943 109.285 44.325C109.542 43.8557 109.886 43.4927 110.319 43.236C110.759 42.972 111.247 42.84 111.782 42.84C112.178 42.84 112.567 42.928 112.948 43.104C113.337 43.2727 113.645 43.5 113.872 43.786V40.86H115.137V49H113.872V48.087C113.667 48.3803 113.381 48.6223 113.014 48.813C112.655 49.0037 112.24 49.099 111.771 49.099C111.243 49.099 110.759 48.967 110.319 48.703C109.886 48.4317 109.542 48.0577 109.285 47.581C109.036 47.097 108.911 46.5507 108.911 45.942ZM113.872 45.964C113.872 45.546 113.784 45.183 113.608 44.875C113.439 44.567 113.216 44.3323 112.937 44.171C112.658 44.0097 112.358 43.929 112.035 43.929C111.712 43.929 111.412 44.0097 111.133 44.171C110.854 44.325 110.627 44.556 110.451 44.864C110.282 45.1647 110.198 45.524 110.198 45.942C110.198 46.36 110.282 46.7267 110.451 47.042C110.627 47.3573 110.854 47.5993 111.133 47.768C111.419 47.9293 111.72 48.01 112.035 48.01C112.358 48.01 112.658 47.9293 112.937 47.768C113.216 47.6067 113.439 47.372 113.608 47.064C113.784 46.7487 113.872 46.382 113.872 45.964ZM119.413 49.099C118.841 49.099 118.324 48.9707 117.862 48.714C117.4 48.45 117.037 48.0833 116.773 47.614C116.509 47.1373 116.377 46.5873 116.377 45.964C116.377 45.348 116.513 44.8017 116.784 44.325C117.055 43.8483 117.426 43.4817 117.895 43.225C118.364 42.9683 118.889 42.84 119.468 42.84C120.047 42.84 120.572 42.9683 121.041 43.225C121.51 43.4817 121.881 43.8483 122.152 44.325C122.423 44.8017 122.559 45.348 122.559 45.964C122.559 46.58 122.42 47.1263 122.141 47.603C121.862 48.0797 121.481 48.45 120.997 48.714C120.52 48.9707 119.992 49.099 119.413 49.099ZM119.413 48.01C119.736 48.01 120.036 47.933 120.315 47.779C120.601 47.625 120.832 47.394 121.008 47.086C121.184 46.778 121.272 46.404 121.272 45.964C121.272 45.524 121.188 45.1537 121.019 44.853C120.85 44.545 120.627 44.314 120.348 44.16C120.069 44.006 119.769 43.929 119.446 43.929C119.123 43.929 118.823 44.006 118.544 44.16C118.273 44.314 118.056 44.545 117.895 44.853C117.734 45.1537 117.653 45.524 117.653 45.964C117.653 46.6167 117.818 47.1227 118.148 47.482C118.485 47.834 118.907 48.01 119.413 48.01ZM131.939 42.939L130.058 49H128.738L127.517 44.523L126.296 49H124.976L123.084 42.939H124.36L125.625 47.812L126.912 42.939H128.221L129.453 47.79L130.707 42.939H131.939ZM135.076 49.099C134.599 49.099 134.17 49.0147 133.789 48.846C133.415 48.67 133.118 48.4353 132.898 48.142C132.678 47.8413 132.56 47.5077 132.546 47.141H133.844C133.866 47.3977 133.987 47.614 134.207 47.79C134.434 47.9587 134.716 48.043 135.054 48.043C135.406 48.043 135.677 47.977 135.868 47.845C136.066 47.7057 136.165 47.5297 136.165 47.317C136.165 47.0897 136.055 46.921 135.835 46.811C135.622 46.701 135.281 46.58 134.812 46.448C134.357 46.3233 133.987 46.2023 133.701 46.085C133.415 45.9677 133.165 45.788 132.953 45.546C132.747 45.304 132.645 44.985 132.645 44.589C132.645 44.2663 132.74 43.973 132.931 43.709C133.121 43.4377 133.393 43.225 133.745 43.071C134.104 42.917 134.515 42.84 134.977 42.84C135.666 42.84 136.22 43.016 136.638 43.368C137.063 43.7127 137.29 44.1857 137.32 44.787H136.066C136.044 44.5157 135.934 44.2993 135.736 44.138C135.538 43.9767 135.27 43.896 134.933 43.896C134.603 43.896 134.35 43.9583 134.174 44.083C133.998 44.2077 133.91 44.3727 133.91 44.578C133.91 44.7393 133.968 44.875 134.086 44.985C134.203 45.095 134.346 45.183 134.515 45.249C134.683 45.3077 134.933 45.3847 135.263 45.48C135.703 45.5973 136.062 45.7183 136.341 45.843C136.627 45.9603 136.872 46.1363 137.078 46.371C137.283 46.6057 137.389 46.9173 137.397 47.306C137.397 47.6507 137.301 47.9587 137.111 48.23C136.92 48.5013 136.649 48.714 136.297 48.868C135.952 49.022 135.545 49.099 135.076 49.099ZM141.279 42.125V40.981H143.567V49H142.302V42.125H141.279ZM145.125 42.125V40.981H147.413V49H146.148V42.125H145.125ZM154.677 49.077C154.164 49.077 153.702 48.989 153.291 48.813C152.88 48.6297 152.558 48.373 152.323 48.043C152.088 47.713 151.971 47.328 151.971 46.888H153.313C153.342 47.218 153.471 47.4893 153.698 47.702C153.933 47.9147 154.259 48.021 154.677 48.021C155.11 48.021 155.447 47.9183 155.689 47.713C155.931 47.5003 156.052 47.229 156.052 46.899C156.052 46.6423 155.975 46.4333 155.821 46.272C155.674 46.1107 155.487 45.986 155.26 45.898C155.04 45.81 154.732 45.7147 154.336 45.612C153.837 45.48 153.43 45.348 153.115 45.216C152.807 45.0767 152.543 44.864 152.323 44.578C152.103 44.292 151.993 43.9107 151.993 43.434C151.993 42.994 152.103 42.609 152.323 42.279C152.543 41.949 152.851 41.696 153.247 41.52C153.643 41.344 154.101 41.256 154.622 41.256C155.363 41.256 155.968 41.443 156.437 41.817C156.914 42.1837 157.178 42.6897 157.229 43.335H155.843C155.821 43.0563 155.689 42.818 155.447 42.62C155.205 42.422 154.886 42.323 154.49 42.323C154.131 42.323 153.837 42.4147 153.61 42.598C153.383 42.7813 153.269 43.0453 153.269 43.39C153.269 43.6247 153.339 43.819 153.478 43.973C153.625 44.1197 153.808 44.237 154.028 44.325C154.248 44.413 154.549 44.5083 154.93 44.611C155.436 44.7503 155.847 44.8897 156.162 45.029C156.485 45.1683 156.756 45.3847 156.976 45.678C157.203 45.964 157.317 46.349 157.317 46.833C157.317 47.2217 157.211 47.5883 156.998 47.933C156.793 48.2777 156.488 48.5563 156.085 48.769C155.689 48.9743 155.22 49.077 154.677 49.077ZM160.051 42.367V44.611H162.691V45.634H160.051V47.977H163.021V49H158.797V41.344H163.021V42.367H160.051ZM169.92 41.355C170.734 41.355 171.445 41.5127 172.054 41.828C172.67 42.136 173.143 42.5833 173.473 43.17C173.81 43.7493 173.979 44.4277 173.979 45.205C173.979 45.9823 173.81 46.657 173.473 47.229C173.143 47.801 172.67 48.241 172.054 48.549C171.445 48.8497 170.734 49 169.92 49H167.423V41.355H169.92ZM169.92 47.977C170.814 47.977 171.5 47.735 171.977 47.251C172.453 46.767 172.692 46.085 172.692 45.205C172.692 44.3177 172.453 43.6247 171.977 43.126C171.5 42.6273 170.814 42.378 169.92 42.378H168.677V47.977H169.92ZM175.859 42.136C175.632 42.136 175.441 42.059 175.287 41.905C175.133 41.751 175.056 41.5603 175.056 41.333C175.056 41.1057 175.133 40.915 175.287 40.761C175.441 40.607 175.632 40.53 175.859 40.53C176.079 40.53 176.266 40.607 176.42 40.761C176.574 40.915 176.651 41.1057 176.651 41.333C176.651 41.5603 176.574 41.751 176.42 41.905C176.266 42.059 176.079 42.136 175.859 42.136ZM176.475 42.939V49H175.221V42.939H176.475ZM180.322 49.099C179.845 49.099 179.416 49.0147 179.035 48.846C178.661 48.67 178.364 48.4353 178.144 48.142C177.924 47.8413 177.807 47.5077 177.792 47.141H179.09C179.112 47.3977 179.233 47.614 179.453 47.79C179.68 47.9587 179.963 48.043 180.3 48.043C180.652 48.043 180.923 47.977 181.114 47.845C181.312 47.7057 181.411 47.5297 181.411 47.317C181.411 47.0897 181.301 46.921 181.081 46.811C180.868 46.701 180.527 46.58 180.058 46.448C179.603 46.3233 179.233 46.2023 178.947 46.085C178.661 45.9677 178.412 45.788 178.199 45.546C177.994 45.304 177.891 44.985 177.891 44.589C177.891 44.2663 177.986 43.973 178.177 43.709C178.368 43.4377 178.639 43.225 178.991 43.071C179.35 42.917 179.761 42.84 180.223 42.84C180.912 42.84 181.466 43.016 181.884 43.368C182.309 43.7127 182.537 44.1857 182.566 44.787H181.312C181.29 44.5157 181.18 44.2993 180.982 44.138C180.784 43.9767 180.516 43.896 180.179 43.896C179.849 43.896 179.596 43.9583 179.42 44.083C179.244 44.2077 179.156 44.3727 179.156 44.578C179.156 44.7393 179.215 44.875 179.332 44.985C179.449 45.095 179.592 45.183 179.761 45.249C179.93 45.3077 180.179 45.3847 180.509 45.48C180.949 45.5973 181.308 45.7183 181.587 45.843C181.873 45.9603 182.119 46.1363 182.324 46.371C182.529 46.6057 182.636 46.9173 182.643 47.306C182.643 47.6507 182.548 47.9587 182.357 48.23C182.166 48.5013 181.895 48.714 181.543 48.868C181.198 49.022 180.791 49.099 180.322 49.099ZM186.396 45.975L189.19 49H187.496L185.252 46.393V49H183.998V40.86H185.252V45.59L187.452 42.939H189.19L186.396 45.975ZM197.038 45.073C197.449 45.1463 197.797 45.3627 198.083 45.722C198.369 46.0813 198.512 46.4883 198.512 46.943C198.512 47.3317 198.409 47.6837 198.204 47.999C198.006 48.307 197.716 48.5527 197.335 48.736C196.954 48.912 196.51 49 196.004 49H192.946V41.355H195.861C196.382 41.355 196.829 41.443 197.203 41.619C197.577 41.795 197.859 42.0333 198.05 42.334C198.241 42.6273 198.336 42.9573 198.336 43.324C198.336 43.764 198.219 44.1307 197.984 44.424C197.749 44.7173 197.434 44.9337 197.038 45.073ZM194.2 44.567H195.751C196.162 44.567 196.481 44.4753 196.708 44.292C196.943 44.1013 197.06 43.83 197.06 43.478C197.06 43.1333 196.943 42.8657 196.708 42.675C196.481 42.477 196.162 42.378 195.751 42.378H194.2V44.567ZM195.894 47.977C196.319 47.977 196.653 47.8743 196.895 47.669C197.137 47.4637 197.258 47.1777 197.258 46.811C197.258 46.437 197.13 46.14 196.873 45.92C196.616 45.7 196.275 45.59 195.85 45.59H194.2V47.977H195.894ZM199.457 45.942C199.457 45.3333 199.581 44.7943 199.831 44.325C200.087 43.8557 200.432 43.4927 200.865 43.236C201.305 42.972 201.789 42.84 202.317 42.84C202.793 42.84 203.208 42.9353 203.56 43.126C203.919 43.3093 204.205 43.5403 204.418 43.819V42.939H205.683V49H204.418V48.098C204.205 48.384 203.915 48.6223 203.549 48.813C203.182 49.0037 202.764 49.099 202.295 49.099C201.774 49.099 201.297 48.967 200.865 48.703C200.432 48.4317 200.087 48.0577 199.831 47.581C199.581 47.097 199.457 46.5507 199.457 45.942ZM204.418 45.964C204.418 45.546 204.33 45.183 204.154 44.875C203.985 44.567 203.761 44.3323 203.483 44.171C203.204 44.0097 202.903 43.929 202.581 43.929C202.258 43.929 201.957 44.0097 201.679 44.171C201.4 44.325 201.173 44.556 200.997 44.864C200.828 45.1647 200.744 45.524 200.744 45.942C200.744 46.36 200.828 46.7267 200.997 47.042C201.173 47.3573 201.4 47.5993 201.679 47.768C201.965 47.9293 202.265 48.01 202.581 48.01C202.903 48.01 203.204 47.9293 203.483 47.768C203.761 47.6067 203.985 47.372 204.154 47.064C204.33 46.7487 204.418 46.382 204.418 45.964ZM206.912 45.964C206.912 45.3407 207.037 44.7943 207.286 44.325C207.543 43.8483 207.895 43.4817 208.342 43.225C208.789 42.9683 209.303 42.84 209.882 42.84C210.615 42.84 211.22 43.016 211.697 43.368C212.181 43.7127 212.507 44.2077 212.676 44.853H211.323C211.213 44.5523 211.037 44.3177 210.795 44.149C210.553 43.9803 210.249 43.896 209.882 43.896C209.369 43.896 208.958 44.0793 208.65 44.446C208.349 44.8053 208.199 45.3113 208.199 45.964C208.199 46.6167 208.349 47.1263 208.65 47.493C208.958 47.8597 209.369 48.043 209.882 48.043C210.608 48.043 211.088 47.724 211.323 47.086H212.676C212.5 47.702 212.17 48.1933 211.686 48.56C211.202 48.9193 210.601 49.099 209.882 49.099C209.303 49.099 208.789 48.9707 208.342 48.714C207.895 48.45 207.543 48.0833 207.286 47.614C207.037 47.1373 206.912 46.5873 206.912 45.964ZM216.324 45.975L219.118 49H217.424L215.18 46.393V49H213.926V40.86H215.18V45.59L217.38 42.939H219.118L216.324 45.975ZM225.505 42.939V49H224.251V48.285C224.053 48.5343 223.793 48.7323 223.47 48.879C223.155 49.0183 222.818 49.088 222.458 49.088C221.982 49.088 221.553 48.989 221.171 48.791C220.797 48.593 220.5 48.2997 220.28 47.911C220.068 47.5223 219.961 47.053 219.961 46.503V42.939H221.204V46.316C221.204 46.8587 221.34 47.2767 221.611 47.57C221.883 47.856 222.253 47.999 222.722 47.999C223.192 47.999 223.562 47.856 223.833 47.57C224.112 47.2767 224.251 46.8587 224.251 46.316V42.939H225.505ZM228.414 43.83C228.627 43.5513 228.916 43.3167 229.283 43.126C229.65 42.9353 230.064 42.84 230.526 42.84C231.054 42.84 231.534 42.972 231.967 43.236C232.407 43.4927 232.752 43.8557 233.001 44.325C233.25 44.7943 233.375 45.3333 233.375 45.942C233.375 46.5507 233.25 47.097 233.001 47.581C232.752 48.0577 232.407 48.4317 231.967 48.703C231.534 48.967 231.054 49.099 230.526 49.099C230.064 49.099 229.653 49.0073 229.294 48.824C228.935 48.6333 228.641 48.3987 228.414 48.12V51.882H227.16V42.939H228.414V43.83ZM232.099 45.942C232.099 45.524 232.011 45.1647 231.835 44.864C231.666 44.556 231.439 44.325 231.153 44.171C230.874 44.0097 230.574 43.929 230.251 43.929C229.936 43.929 229.635 44.0097 229.349 44.171C229.07 44.3323 228.843 44.567 228.667 44.875C228.498 45.183 228.414 45.546 228.414 45.964C228.414 46.382 228.498 46.7487 228.667 47.064C228.843 47.372 229.07 47.6067 229.349 47.768C229.635 47.9293 229.936 48.01 230.251 48.01C230.574 48.01 230.874 47.9293 231.153 47.768C231.439 47.5993 231.666 47.3573 231.835 47.042C232.011 46.7267 232.099 46.36 232.099 45.942Z"></path>
<g opacity="0.5">
<mask fill="white" id="path-4-inside-1_747_157">
<path d="M400 35C400 32.2386 402.239 30 405 30H455C457.761 30 460 32.2386 460 35V55C460 57.7614 457.761 60 455 60H405C402.239 60 400 57.7614 400 55V35Z"></path>
</mask>
<path fill-opacity="0.05" fill="white" d="M400 35C400 32.2386 402.239 30 405 30H455C457.761 30 460 32.2386 460 35V55C460 57.7614 457.761 60 455 60H405C402.239 60 400 57.7614 400 55V35Z"></path>
<path mask="url(#path-4-inside-1_747_157)" fill-opacity="0.05" fill="white" d="M400 35C400 31.6863 402.686 29 406 29H454C457.314 29 460 31.6863 460 35C460 32.7909 457.761 31 455 31H405C402.239 31 400 32.7909 400 35ZM460 60H400H460ZM400 60V30V60ZM460 30V60V30Z"></path>
<path fill="white" d="M415.057 49L413.297 45.942H412.34V49H411.086V41.355H413.726C414.313 41.355 414.808 41.4577 415.211 41.663C415.622 41.8683 415.926 42.1433 416.124 42.488C416.33 42.8327 416.432 43.2177 416.432 43.643C416.432 44.1417 416.286 44.5963 415.992 45.007C415.706 45.4103 415.263 45.6853 414.661 45.832L416.553 49H415.057ZM412.34 44.941H413.726C414.196 44.941 414.548 44.8237 414.782 44.589C415.024 44.3543 415.145 44.039 415.145 43.643C415.145 43.247 415.028 42.939 414.793 42.719C414.559 42.4917 414.203 42.378 413.726 42.378H412.34V44.941ZM423.591 45.821C423.591 46.0483 423.577 46.2537 423.547 46.437H418.916C418.953 46.921 419.133 47.3097 419.455 47.603C419.778 47.8963 420.174 48.043 420.643 48.043C421.318 48.043 421.795 47.7607 422.073 47.196H423.426C423.243 47.7533 422.909 48.2117 422.425 48.571C421.949 48.923 421.355 49.099 420.643 49.099C420.064 49.099 419.543 48.9707 419.081 48.714C418.627 48.45 418.267 48.0833 418.003 47.614C417.747 47.1373 417.618 46.5873 417.618 45.964C417.618 45.3407 417.743 44.7943 417.992 44.325C418.249 43.8483 418.605 43.4817 419.059 43.225C419.521 42.9683 420.049 42.84 420.643 42.84C421.215 42.84 421.725 42.9647 422.172 43.214C422.62 43.4633 422.968 43.8153 423.217 44.27C423.467 44.7173 423.591 45.2343 423.591 45.821ZM422.282 45.425C422.275 44.963 422.11 44.5927 421.787 44.314C421.465 44.0353 421.065 43.896 420.588 43.896C420.156 43.896 419.785 44.0353 419.477 44.314C419.169 44.5853 418.986 44.9557 418.927 45.425H422.282ZM427.025 49.099C426.549 49.099 426.12 49.0147 425.738 48.846C425.364 48.67 425.067 48.4353 424.847 48.142C424.627 47.8413 424.51 47.5077 424.495 47.141H425.793C425.815 47.3977 425.936 47.614 426.156 47.79C426.384 47.9587 426.666 48.043 427.003 48.043C427.355 48.043 427.627 47.977 427.817 47.845C428.015 47.7057 428.114 47.5297 428.114 47.317C428.114 47.0897 428.004 46.921 427.784 46.811C427.572 46.701 427.231 46.58 426.761 46.448C426.307 46.3233 425.936 46.2023 425.65 46.085C425.364 45.9677 425.115 45.788 424.902 45.546C424.697 45.304 424.594 44.985 424.594 44.589C424.594 44.2663 424.69 43.973 424.88 43.709C425.071 43.4377 425.342 43.225 425.694 43.071C426.054 42.917 426.464 42.84 426.926 42.84C427.616 42.84 428.169 43.016 428.587 43.368C429.013 43.7127 429.24 44.1857 429.269 44.787H428.015C427.993 44.5157 427.883 44.2993 427.685 44.138C427.487 43.9767 427.22 43.896 426.882 43.896C426.552 43.896 426.299 43.9583 426.123 44.083C425.947 44.2077 425.859 44.3727 425.859 44.578C425.859 44.7393 425.918 44.875 426.035 44.985C426.153 45.095 426.296 45.183 426.464 45.249C426.633 45.3077 426.882 45.3847 427.212 45.48C427.652 45.5973 428.012 45.7183 428.29 45.843C428.576 45.9603 428.822 46.1363 429.027 46.371C429.233 46.6057 429.339 46.9173 429.346 47.306C429.346 47.6507 429.251 47.9587 429.06 48.23C428.87 48.5013 428.598 48.714 428.246 48.868C427.902 49.022 427.495 49.099 427.025 49.099ZM432.164 43.962V47.317C432.164 47.5443 432.216 47.7093 432.318 47.812C432.428 47.9073 432.612 47.955 432.868 47.955H433.638V49H432.648C432.084 49 431.651 48.868 431.35 48.604C431.05 48.34 430.899 47.911 430.899 47.317V43.962H430.184V42.939H430.899V41.432H432.164V42.939H433.638V43.962H432.164ZM434.376 45.942C434.376 45.3333 434.501 44.7943 434.75 44.325C435.007 43.8557 435.352 43.4927 435.784 43.236C436.224 42.972 436.708 42.84 437.236 42.84C437.713 42.84 438.127 42.9353 438.479 43.126C438.839 43.3093 439.125 43.5403 439.337 43.819V42.939H440.602V49H439.337V48.098C439.125 48.384 438.835 48.6223 438.468 48.813C438.102 49.0037 437.684 49.099 437.214 49.099C436.694 49.099 436.217 48.967 435.784 48.703C435.352 48.4317 435.007 48.0577 434.75 47.581C434.501 47.097 434.376 46.5507 434.376 45.942ZM439.337 45.964C439.337 45.546 439.249 45.183 439.073 44.875C438.905 44.567 438.681 44.3323 438.402 44.171C438.124 44.0097 437.823 43.929 437.5 43.929C437.178 43.929 436.877 44.0097 436.598 44.171C436.32 44.325 436.092 44.556 435.916 44.864C435.748 45.1647 435.663 45.524 435.663 45.942C435.663 46.36 435.748 46.7267 435.916 47.042C436.092 47.3573 436.32 47.5993 436.598 47.768C436.884 47.9293 437.185 48.01 437.5 48.01C437.823 48.01 438.124 47.9293 438.402 47.768C438.681 47.6067 438.905 47.372 439.073 47.064C439.249 46.7487 439.337 46.382 439.337 45.964ZM443.503 43.819C443.687 43.511 443.929 43.2727 444.229 43.104C444.537 42.928 444.9 42.84 445.318 42.84V44.138H444.999C444.508 44.138 444.134 44.2627 443.877 44.512C443.628 44.7613 443.503 45.194 443.503 45.81V49H442.249V42.939H443.503V43.819ZM447.934 43.962V47.317C447.934 47.5443 447.985 47.7093 448.088 47.812C448.198 47.9073 448.381 47.955 448.638 47.955H449.408V49H448.418C447.853 49 447.421 48.868 447.12 48.604C446.819 48.34 446.669 47.911 446.669 47.317V43.962H445.954V42.939H446.669V41.432H447.934V42.939H449.408V43.962H447.934Z"></path>
</g>
</svg>
