<svg xmlns="http://www.w3.org/2000/svg" fill="none" viewBox="0 0 480 360" height="360" width="480">
<path fill="#CCCCCC" d="M317.686 185H316.09L311.288 177.734V185H309.692V175.256H311.288L316.09 182.508V175.256H317.686V185ZM323.127 185.126C322.399 185.126 321.741 184.963 321.153 184.636C320.565 184.3 320.103 183.833 319.767 183.236C319.431 182.629 319.263 181.929 319.263 181.136C319.263 180.352 319.436 179.657 319.781 179.05C320.127 178.443 320.598 177.977 321.195 177.65C321.793 177.323 322.46 177.16 323.197 177.16C323.935 177.16 324.602 177.323 325.199 177.65C325.797 177.977 326.268 178.443 326.613 179.05C326.959 179.657 327.131 180.352 327.131 181.136C327.131 181.92 326.954 182.615 326.599 183.222C326.245 183.829 325.759 184.3 325.143 184.636C324.537 184.963 323.865 185.126 323.127 185.126ZM323.127 183.74C323.538 183.74 323.921 183.642 324.275 183.446C324.639 183.25 324.933 182.956 325.157 182.564C325.381 182.172 325.493 181.696 325.493 181.136C325.493 180.576 325.386 180.105 325.171 179.722C324.957 179.33 324.672 179.036 324.317 178.84C323.963 178.644 323.58 178.546 323.169 178.546C322.759 178.546 322.376 178.644 322.021 178.84C321.676 179.036 321.401 179.33 321.195 179.722C320.99 180.105 320.887 180.576 320.887 181.136C320.887 181.967 321.097 182.611 321.517 183.068C321.947 183.516 322.483 183.74 323.127 183.74ZM336.238 177.16C336.845 177.16 337.386 177.286 337.862 177.538C338.347 177.79 338.725 178.163 338.996 178.658C339.267 179.153 339.402 179.75 339.402 180.45V185H337.82V180.688C337.82 179.997 337.647 179.47 337.302 179.106C336.957 178.733 336.485 178.546 335.888 178.546C335.291 178.546 334.815 178.733 334.46 179.106C334.115 179.47 333.942 179.997 333.942 180.688V185H332.346V177.286H333.942V178.168C334.203 177.851 334.535 177.603 334.936 177.426C335.347 177.249 335.781 177.16 336.238 177.16ZM344.784 185.126C344.056 185.126 343.398 184.963 342.81 184.636C342.222 184.3 341.76 183.833 341.424 183.236C341.088 182.629 340.92 181.929 340.92 181.136C340.92 180.352 341.092 179.657 341.438 179.05C341.783 178.443 342.254 177.977 342.852 177.65C343.449 177.323 344.116 177.16 344.854 177.16C345.591 177.16 346.258 177.323 346.856 177.65C347.453 177.977 347.924 178.443 348.27 179.05C348.615 179.657 348.788 180.352 348.788 181.136C348.788 181.92 348.61 182.615 348.256 183.222C347.901 183.829 347.416 184.3 346.8 184.636C346.193 184.963 345.521 185.126 344.784 185.126ZM344.784 183.74C345.194 183.74 345.577 183.642 345.932 183.446C346.296 183.25 346.59 182.956 346.814 182.564C347.038 182.172 347.15 181.696 347.15 181.136C347.15 180.576 347.042 180.105 346.828 179.722C346.613 179.33 346.328 179.036 345.974 178.84C345.619 178.644 345.236 178.546 344.826 178.546C344.415 178.546 344.032 178.644 343.678 178.84C343.332 179.036 343.057 179.33 342.852 179.722C342.646 180.105 342.544 180.576 342.544 181.136C342.544 181.967 342.754 182.611 343.174 183.068C343.603 183.516 344.14 183.74 344.784 183.74ZM352.227 178.588V182.858C352.227 183.147 352.293 183.357 352.423 183.488C352.563 183.609 352.797 183.67 353.123 183.67H354.103V185H352.843C352.125 185 351.574 184.832 351.191 184.496C350.809 184.16 350.617 183.614 350.617 182.858V178.588H349.707V177.286H350.617V175.368H352.227V177.286H354.103V178.588H352.227ZM356.386 176.264C356.097 176.264 355.854 176.166 355.658 175.97C355.462 175.774 355.364 175.531 355.364 175.242C355.364 174.953 355.462 174.71 355.658 174.514C355.854 174.318 356.097 174.22 356.386 174.22C356.666 174.22 356.904 174.318 357.1 174.514C357.296 174.71 357.394 174.953 357.394 175.242C357.394 175.531 357.296 175.774 357.1 175.97C356.904 176.166 356.666 176.264 356.386 176.264ZM357.17 177.286V185H355.574V177.286H357.17ZM362.5 178.588H361.072V185H359.462V178.588H358.552V177.286H359.462V176.74C359.462 175.853 359.695 175.209 360.162 174.808C360.638 174.397 361.38 174.192 362.388 174.192V175.522C361.902 175.522 361.562 175.615 361.366 175.802C361.17 175.979 361.072 176.292 361.072 176.74V177.286H362.5V178.588ZM364.726 176.264C364.437 176.264 364.194 176.166 363.998 175.97C363.802 175.774 363.704 175.531 363.704 175.242C363.704 174.953 363.802 174.71 363.998 174.514C364.194 174.318 364.437 174.22 364.726 174.22C365.006 174.22 365.244 174.318 365.44 174.514C365.636 174.71 365.734 174.953 365.734 175.242C365.734 175.531 365.636 175.774 365.44 175.97C365.244 176.166 365.006 176.264 364.726 176.264ZM365.51 177.286V185H363.914V177.286H365.51ZM367.074 181.136C367.074 180.343 367.232 179.647 367.55 179.05C367.876 178.443 368.324 177.977 368.894 177.65C369.463 177.323 370.116 177.16 370.854 177.16C371.787 177.16 372.557 177.384 373.164 177.832C373.78 178.271 374.195 178.901 374.41 179.722H372.688C372.548 179.339 372.324 179.041 372.016 178.826C371.708 178.611 371.32 178.504 370.854 178.504C370.2 178.504 369.678 178.737 369.286 179.204C368.903 179.661 368.712 180.305 368.712 181.136C368.712 181.967 368.903 182.615 369.286 183.082C369.678 183.549 370.2 183.782 370.854 183.782C371.778 183.782 372.389 183.376 372.688 182.564H374.41C374.186 183.348 373.766 183.973 373.15 184.44C372.534 184.897 371.768 185.126 370.854 185.126C370.116 185.126 369.463 184.963 368.894 184.636C368.324 184.3 367.876 183.833 367.55 183.236C367.232 182.629 367.074 181.929 367.074 181.136ZM375.468 181.108C375.468 180.333 375.627 179.647 375.944 179.05C376.271 178.453 376.71 177.991 377.26 177.664C377.82 177.328 378.436 177.16 379.108 177.16C379.715 177.16 380.242 177.281 380.69 177.524C381.148 177.757 381.512 178.051 381.782 178.406V177.286H383.392V185H381.782V183.852C381.512 184.216 381.143 184.519 380.676 184.762C380.21 185.005 379.678 185.126 379.08 185.126C378.418 185.126 377.811 184.958 377.26 184.622C376.71 184.277 376.271 183.801 375.944 183.194C375.627 182.578 375.468 181.883 375.468 181.108ZM381.782 181.136C381.782 180.604 381.67 180.142 381.446 179.75C381.232 179.358 380.947 179.059 380.592 178.854C380.238 178.649 379.855 178.546 379.444 178.546C379.034 178.546 378.651 178.649 378.296 178.854C377.942 179.05 377.652 179.344 377.428 179.736C377.214 180.119 377.106 180.576 377.106 181.108C377.106 181.64 377.214 182.107 377.428 182.508C377.652 182.909 377.942 183.217 378.296 183.432C378.66 183.637 379.043 183.74 379.444 183.74C379.855 183.74 380.238 183.637 380.592 183.432C380.947 183.227 381.232 182.928 381.446 182.536C381.67 182.135 381.782 181.668 381.782 181.136ZM387.35 178.588V182.858C387.35 183.147 387.416 183.357 387.546 183.488C387.686 183.609 387.92 183.67 388.246 183.67H389.226V185H387.966C387.248 185 386.697 184.832 386.314 184.496C385.932 184.16 385.74 183.614 385.74 182.858V178.588H384.83V177.286H385.74V175.368H387.35V177.286H389.226V178.588H387.35ZM391.509 176.264C391.22 176.264 390.977 176.166 390.781 175.97C390.585 175.774 390.487 175.531 390.487 175.242C390.487 174.953 390.585 174.71 390.781 174.514C390.977 174.318 391.22 174.22 391.509 174.22C391.789 174.22 392.027 174.318 392.223 174.514C392.419 174.71 392.517 174.953 392.517 175.242C392.517 175.531 392.419 175.774 392.223 175.97C392.027 176.166 391.789 176.264 391.509 176.264ZM392.293 177.286V185H390.697V177.286H392.293ZM397.735 185.126C397.007 185.126 396.349 184.963 395.761 184.636C395.173 184.3 394.711 183.833 394.375 183.236C394.039 182.629 393.871 181.929 393.871 181.136C393.871 180.352 394.044 179.657 394.389 179.05C394.734 178.443 395.206 177.977 395.803 177.65C396.4 177.323 397.068 177.16 397.805 177.16C398.542 177.16 399.21 177.323 399.807 177.65C400.404 177.977 400.876 178.443 401.221 179.05C401.566 179.657 401.739 180.352 401.739 181.136C401.739 181.92 401.562 182.615 401.207 183.222C400.852 183.829 400.367 184.3 399.751 184.636C399.144 184.963 398.472 185.126 397.735 185.126ZM397.735 183.74C398.146 183.74 398.528 183.642 398.883 183.446C399.247 183.25 399.541 182.956 399.765 182.564C399.989 182.172 400.101 181.696 400.101 181.136C400.101 180.576 399.994 180.105 399.779 179.722C399.564 179.33 399.28 179.036 398.925 178.84C398.57 178.644 398.188 178.546 397.777 178.546C397.366 178.546 396.984 178.644 396.629 178.84C396.284 179.036 396.008 179.33 395.803 179.722C395.598 180.105 395.495 180.576 395.495 181.136C395.495 181.967 395.705 182.611 396.125 183.068C396.554 183.516 397.091 183.74 397.735 183.74ZM407.209 177.16C407.815 177.16 408.357 177.286 408.833 177.538C409.318 177.79 409.696 178.163 409.967 178.658C410.237 179.153 410.373 179.75 410.373 180.45V185H408.791V180.688C408.791 179.997 408.618 179.47 408.273 179.106C407.927 178.733 407.456 178.546 406.859 178.546C406.261 178.546 405.785 178.733 405.431 179.106C405.085 179.47 404.913 179.997 404.913 180.688V185H403.317V177.286H404.913V178.168C405.174 177.851 405.505 177.603 405.907 177.426C406.317 177.249 406.751 177.16 407.209 177.16Z"></path>
</svg>
