<svg xmlns="http://www.w3.org/2000/svg" fill="none" viewBox="0 0 240 90" height="90" width="240">
<path fill-opacity="0.9" fill="#E6E6E6" d="M60 30C60 24.4772 64.4772 20 70 20H170C175.523 20 180 24.4772 180 30V60C180 65.5229 175.523 70 170 70H70C64.4772 70 60 65.5229 60 60V30Z"></path>
<path stroke-width="2" stroke-opacity="0.2" stroke="black" d="M70 19C63.9249 19 59 23.9249 59 30V60C59 66.0751 63.9249 71 70 71H170C176.075 71 181 66.0751 181 60V30C181 23.9249 176.075 19 170 19H70Z"></path>
<path fill="black" d="M112.268 41.764V44.212H115.148V45.328H112.268V47.884H115.508V49H110.9V40.648H115.508V41.764H112.268ZM120.025 45.652L122.161 49H120.613L119.185 46.756L117.841 49H116.413L118.549 45.748L116.413 42.388H117.961L119.389 44.632L120.733 42.388H122.161L120.025 45.652ZM124.549 43.36C124.781 43.056 125.097 42.8 125.497 42.592C125.897 42.384 126.349 42.28 126.853 42.28C127.429 42.28 127.953 42.424 128.425 42.712C128.905 42.992 129.281 43.388 129.553 43.9C129.825 44.412 129.961 45 129.961 45.664C129.961 46.328 129.825 46.924 129.553 47.452C129.281 47.972 128.905 48.38 128.425 48.676C127.953 48.964 127.429 49.108 126.853 49.108C126.349 49.108 125.901 49.008 125.509 48.808C125.117 48.6 124.797 48.344 124.549 48.04V52.144H123.181V42.388H124.549V43.36ZM128.569 45.664C128.569 45.208 128.473 44.816 128.281 44.488C128.097 44.152 127.849 43.9 127.537 43.732C127.233 43.556 126.905 43.468 126.553 43.468C126.209 43.468 125.881 43.556 125.569 43.732C125.265 43.908 125.017 44.164 124.825 44.5C124.641 44.836 124.549 45.232 124.549 45.688C124.549 46.144 124.641 46.544 124.825 46.888C125.017 47.224 125.265 47.48 125.569 47.656C125.881 47.832 126.209 47.92 126.553 47.92C126.905 47.92 127.233 47.832 127.537 47.656C127.849 47.472 128.097 47.208 128.281 46.864C128.473 46.52 128.569 46.12 128.569 45.664ZM132.682 40.12V49H131.314V40.12H132.682ZM137.346 49.108C136.722 49.108 136.158 48.968 135.654 48.688C135.15 48.4 134.754 48 134.466 47.488C134.178 46.968 134.034 46.368 134.034 45.688C134.034 45.016 134.182 44.42 134.478 43.9C134.774 43.38 135.178 42.98 135.69 42.7C136.202 42.42 136.774 42.28 137.406 42.28C138.038 42.28 138.61 42.42 139.122 42.7C139.634 42.98 140.038 43.38 140.334 43.9C140.63 44.42 140.778 45.016 140.778 45.688C140.778 46.36 140.626 46.956 140.322 47.476C140.018 47.996 139.602 48.4 139.074 48.688C138.554 48.968 137.978 49.108 137.346 49.108ZM137.346 47.92C137.698 47.92 138.026 47.836 138.33 47.668C138.642 47.5 138.894 47.248 139.086 46.912C139.278 46.576 139.374 46.168 139.374 45.688C139.374 45.208 139.282 44.804 139.098 44.476C138.914 44.14 138.67 43.888 138.366 43.72C138.062 43.552 137.734 43.468 137.382 43.468C137.03 43.468 136.702 43.552 136.398 43.72C136.102 43.888 135.866 44.14 135.69 44.476C135.514 44.804 135.426 45.208 135.426 45.688C135.426 46.4 135.606 46.952 135.966 47.344C136.334 47.728 136.794 47.92 137.346 47.92ZM143.498 43.348C143.698 43.012 143.962 42.752 144.29 42.568C144.626 42.376 145.022 42.28 145.478 42.28V43.696H145.13C144.594 43.696 144.186 43.832 143.906 44.104C143.634 44.376 143.498 44.848 143.498 45.52V49H142.13V42.388H143.498V43.348ZM152.796 45.532C152.796 45.78 152.78 46.004 152.748 46.204H147.696C147.736 46.732 147.932 47.156 148.284 47.476C148.636 47.796 149.068 47.956 149.58 47.956C150.316 47.956 150.836 47.648 151.14 47.032H152.616C152.416 47.64 152.052 48.14 151.524 48.532C151.004 48.916 150.356 49.108 149.58 49.108C148.948 49.108 148.38 48.968 147.876 48.688C147.38 48.4 146.988 48 146.7 47.488C146.42 46.968 146.28 46.368 146.28 45.688C146.28 45.008 146.416 44.412 146.688 43.9C146.968 43.38 147.356 42.98 147.852 42.7C148.356 42.42 148.932 42.28 149.58 42.28C150.204 42.28 150.76 42.416 151.248 42.688C151.736 42.96 152.116 43.344 152.388 43.84C152.66 44.328 152.796 44.892 152.796 45.532ZM151.368 45.1C151.36 44.596 151.18 44.192 150.828 43.888C150.476 43.584 150.04 43.432 149.52 43.432C149.048 43.432 148.644 43.584 148.308 43.888C147.972 44.184 147.772 44.588 147.708 45.1H151.368ZM155.51 43.348C155.71 43.012 155.974 42.752 156.302 42.568C156.638 42.376 157.034 42.28 157.49 42.28V43.696H157.142C156.606 43.696 156.198 43.832 155.918 44.104C155.646 44.376 155.51 44.848 155.51 45.52V49H154.142V42.388H155.51V43.348Z"></path>
<rect fill="url(#paint0_linear_964_126)" rx="1.2" height="11.4" width="14.4" y="40.2" x="77.7998"></rect>
<path fill="url(#paint1_linear_964_126)" d="M77.7998 39.5999C77.7998 38.9372 78.3371 38.3999 78.9998 38.3999H83.1576C83.5588 38.3999 83.9335 38.6004 84.156 38.9343L84.9998 40.1999L84.156 41.4655C83.9335 41.7994 83.5588 41.9999 83.1576 41.9999H77.7998V39.5999Z"></path>
<path fill="url(#paint2_linear_964_126)" d="M80.2002 49.8C80.2002 48.8059 81.0061 48 82.0002 48H88.0002C88.9943 48 89.8002 48.8059 89.8002 49.8V51.6H80.2002V49.8Z"></path>
<rect fill="#0C6BB5" rx="0.6" height="1.2" width="4.8" y="49.2" x="82.6001"></rect>
<defs>
<linearGradient gradientUnits="userSpaceOnUse" y2="40.2" x2="87.3998" y1="51.6" x1="87.3998" id="paint0_linear_964_126">
<stop stop-color="#F7B70A"></stop>
<stop stop-color="#FFD04B" offset="1"></stop>
</linearGradient>
<linearGradient gradientUnits="userSpaceOnUse" y2="41.9999" x2="81.3998" y1="38.3999" x1="81.3998" id="paint1_linear_964_126">
<stop stop-color="#E09F00"></stop>
<stop stop-color="#BA8400" offset="1"></stop>
</linearGradient>
<linearGradient gradientUnits="userSpaceOnUse" y2="50.25" x2="80.2002" y1="50.25" x1="89.8002" id="paint2_linear_964_126">
<stop stop-color="#046CBD"></stop>
<stop stop-color="#108AD7" offset="1"></stop>
</linearGradient>
</defs>
</svg>
