<svg xmlns="http://www.w3.org/2000/svg" fill="none" viewBox="0 0 90 90" height="90" width="90">
<path fill="black" d="M39 35C39.5523 35 40 34.5523 40 34V34C40 33.4477 40.4477 33 41 33H55C55.5523 33 56 33.4477 56 34V46C56 46.5523 55.5523 47 55 47V47C54.4477 47 54 47.4477 54 48V56C54 56.5523 53.5523 57 53 57H37C36.4477 57 36 56.5523 36 56V54C36 53.4477 35.5523 53 35 53V53C34.4477 53 34 52.5523 34 52V46C34 45.4477 34.4477 45 35 45V45C35.5523 45 36 44.5523 36 44V36C36 35.4477 36.4477 35 37 35H39Z"></path>
<path fill="#FFFF00" d="M37 37C37 36.4477 37.4477 36 38 36H40C40.5523 36 41 35.5523 41 35V35C41 34.4477 41.4477 34 42 34H54C54.5523 34 55 34.4477 55 35V45C55 45.5523 54.5523 46 54 46V46C53.4477 46 53 46.4477 53 47V47C53 47.5523 52.5523 48 52 48H44C43.4477 48 43 47.5523 43 47V47C43 46.4477 42.5523 46 42 46H41V50H52C52.5523 50 53 50.4477 53 51V55C53 55.5523 52.5523 56 52 56H50C49.4477 56 49 55.5523 49 55V53C49 52.4477 48.5523 52 48 52V52C47.4477 52 47 52.4477 47 53V55C47 55.5523 46.5523 56 46 56H42C41.4477 56 41 55.5523 41 55V50H40C39.4477 50 39 50.4477 39 51V55C39 55.5523 38.5523 56 38 56V56C37.4477 56 37 55.5523 37 55V53C37 52.4477 36.5523 52 36 52V52C35.4477 52 35 51.5523 35 51V47C35 46.4477 35.4477 46 36 46V46C36.5523 46 37 45.5523 37 45V45C37 44.4477 37.4477 44 38 44V44C38.5523 44 39 44.4477 39 45V45C39 45.5523 39.4477 46 40 46H41V43C41 42.4477 40.5523 42 40 42H38C37.4477 42 37 41.5523 37 41V41C37 40.4477 37.4477 40 38 40H40C40.5523 40 41 39.5523 41 39V39C41 38.4477 40.5523 38 40 38H38C37.4477 38 37 37.5523 37 37V37Z"></path>
<path fill="black" d="M45 45C45 44.4477 45.4477 44 46 44H50C50.5523 44 51 44.4477 51 45V45C51 45.5523 50.5523 46 50 46H46C45.4477 46 45 45.5523 45 45V45Z"></path>
<path fill="black" d="M45 39C45 38.4477 45.4477 38 46 38V38C46.5523 38 47 38.4477 47 39V41C47 41.5523 46.5523 42 46 42V42C45.4477 42 45 41.5523 45 41V39Z"></path>
<path fill="black" d="M51 39C51 38.4477 51.4477 38 52 38V38C52.5523 38 53 38.4477 53 39V41C53 41.5523 52.5523 42 52 42V42C51.4477 42 51 41.5523 51 41V39Z"></path>
</svg>
