<svg xmlns="http://www.w3.org/2000/svg" fill="none" viewBox="0 0 480 360" height="360" width="480">
<path fill="white" d="M190.84 59.6C190.84 57.952 191.208 56.48 191.944 55.184C192.696 53.872 193.712 52.856 194.992 52.136C196.288 51.4 197.736 51.032 199.336 51.032C201.208 51.032 202.848 51.512 204.256 52.472C205.664 53.432 206.648 54.76 207.208 56.456H203.344C202.96 55.656 202.416 55.056 201.712 54.656C201.024 54.256 200.224 54.056 199.312 54.056C198.336 54.056 197.464 54.288 196.696 54.752C195.944 55.2 195.352 55.84 194.92 56.672C194.504 57.504 194.296 58.48 194.296 59.6C194.296 60.704 194.504 61.68 194.92 62.528C195.352 63.36 195.944 64.008 196.696 64.472C197.464 64.92 198.336 65.144 199.312 65.144C200.224 65.144 201.024 64.944 201.712 64.544C202.416 64.128 202.96 63.52 203.344 62.72H207.208C206.648 64.432 205.664 65.768 204.256 66.728C202.864 67.672 201.224 68.144 199.336 68.144C197.736 68.144 196.288 67.784 194.992 67.064C193.712 66.328 192.696 65.312 191.944 64.016C191.208 62.72 190.84 61.248 190.84 59.6ZM222.63 54.704V68H219.246V66.32C218.814 66.896 218.246 67.352 217.542 67.688C216.854 68.008 216.102 68.168 215.286 68.168C214.246 68.168 213.326 67.952 212.526 67.52C211.726 67.072 211.094 66.424 210.63 65.576C210.182 64.712 209.958 63.688 209.958 62.504V54.704H213.318V62.024C213.318 63.08 213.582 63.896 214.11 64.472C214.638 65.032 215.358 65.312 216.27 65.312C217.198 65.312 217.926 65.032 218.454 64.472C218.982 63.896 219.246 63.08 219.246 62.024V54.704H222.63ZM231.033 68.216C229.945 68.216 228.969 68.024 228.105 67.64C227.241 67.24 226.553 66.704 226.041 66.032C225.545 65.36 225.273 64.616 225.225 63.8H228.609C228.673 64.312 228.921 64.736 229.353 65.072C229.801 65.408 230.353 65.576 231.009 65.576C231.649 65.576 232.145 65.448 232.497 65.192C232.865 64.936 233.049 64.608 233.049 64.208C233.049 63.776 232.825 63.456 232.377 63.248C231.945 63.024 231.249 62.784 230.289 62.528C229.297 62.288 228.481 62.04 227.841 61.784C227.217 61.528 226.673 61.136 226.209 60.608C225.761 60.08 225.537 59.368 225.537 58.472C225.537 57.736 225.745 57.064 226.161 56.456C226.593 55.848 227.201 55.368 227.985 55.016C228.785 54.664 229.721 54.488 230.793 54.488C232.377 54.488 233.641 54.888 234.585 55.688C235.529 56.472 236.049 57.536 236.145 58.88H232.929C232.881 58.352 232.657 57.936 232.257 57.632C231.873 57.312 231.353 57.152 230.697 57.152C230.089 57.152 229.617 57.264 229.281 57.488C228.961 57.712 228.801 58.024 228.801 58.424C228.801 58.872 229.025 59.216 229.473 59.456C229.921 59.68 230.617 59.912 231.561 60.152C232.521 60.392 233.313 60.64 233.937 60.896C234.561 61.152 235.097 61.552 235.545 62.096C236.009 62.624 236.249 63.328 236.265 64.208C236.265 64.976 236.049 65.664 235.617 66.272C235.201 66.88 234.593 67.36 233.793 67.712C233.009 68.048 232.089 68.216 231.033 68.216ZM242.935 57.464V63.896C242.935 64.344 243.039 64.672 243.247 64.88C243.471 65.072 243.839 65.168 244.351 65.168H245.911V68H243.799C240.967 68 239.551 66.624 239.551 63.872V57.464H237.967V54.704H239.551V51.416H242.935V54.704H245.911V57.464H242.935ZM254.232 68.216C252.952 68.216 251.8 67.936 250.776 67.376C249.752 66.8 248.944 65.992 248.352 64.952C247.776 63.912 247.488 62.712 247.488 61.352C247.488 59.992 247.784 58.792 248.376 57.752C248.984 56.712 249.808 55.912 250.848 55.352C251.888 54.776 253.048 54.488 254.328 54.488C255.608 54.488 256.768 54.776 257.808 55.352C258.848 55.912 259.664 56.712 260.256 57.752C260.864 58.792 261.168 59.992 261.168 61.352C261.168 62.712 260.856 63.912 260.232 64.952C259.624 65.992 258.792 66.8 257.736 67.376C256.696 67.936 255.528 68.216 254.232 68.216ZM254.232 65.288C254.84 65.288 255.408 65.144 255.936 64.856C256.48 64.552 256.912 64.104 257.232 63.512C257.552 62.92 257.712 62.2 257.712 61.352C257.712 60.088 257.376 59.12 256.704 58.448C256.048 57.76 255.24 57.416 254.28 57.416C253.32 57.416 252.512 57.76 251.856 58.448C251.216 59.12 250.896 60.088 250.896 61.352C250.896 62.616 251.208 63.592 251.832 64.28C252.472 64.952 253.272 65.288 254.232 65.288ZM280.145 54.512C281.777 54.512 283.089 55.016 284.081 56.024C285.089 57.016 285.593 58.408 285.593 60.2V68H282.233V60.656C282.233 59.616 281.969 58.824 281.441 58.28C280.913 57.72 280.193 57.44 279.281 57.44C278.369 57.44 277.641 57.72 277.097 58.28C276.569 58.824 276.305 59.616 276.305 60.656V68H272.945V60.656C272.945 59.616 272.681 58.824 272.153 58.28C271.625 57.72 270.905 57.44 269.993 57.44C269.065 57.44 268.329 57.72 267.785 58.28C267.257 58.824 266.993 59.616 266.993 60.656V68H263.633V54.704H266.993V56.312C267.425 55.752 267.977 55.312 268.649 54.992C269.337 54.672 270.089 54.512 270.905 54.512C271.945 54.512 272.873 54.736 273.689 55.184C274.505 55.616 275.137 56.24 275.585 57.056C276.017 56.288 276.641 55.672 277.457 55.208C278.289 54.744 279.185 54.512 280.145 54.512ZM290.485 53.12C289.893 53.12 289.397 52.936 288.997 52.568C288.613 52.184 288.421 51.712 288.421 51.152C288.421 50.592 288.613 50.128 288.997 49.76C289.397 49.376 289.893 49.184 290.485 49.184C291.077 49.184 291.565 49.376 291.949 49.76C292.349 50.128 292.549 50.592 292.549 51.152C292.549 51.712 292.349 52.184 291.949 52.568C291.565 52.936 291.077 53.12 290.485 53.12ZM292.141 54.704V68H288.781V54.704H292.141ZM298.533 65.24H304.461V68H294.717V65.288L300.525 57.464H294.741V54.704H304.389V57.416L298.533 65.24ZM306.198 61.304C306.198 59.96 306.462 58.768 306.99 57.728C307.534 56.688 308.262 55.888 309.174 55.328C310.102 54.768 311.134 54.488 312.27 54.488C313.262 54.488 314.126 54.688 314.862 55.088C315.614 55.488 316.214 55.992 316.662 56.6V54.704H320.046V68H316.662V66.056C316.23 66.68 315.63 67.2 314.862 67.616C314.11 68.016 313.238 68.216 312.246 68.216C311.126 68.216 310.102 67.928 309.174 67.352C308.262 66.776 307.534 65.968 306.99 64.928C306.462 63.872 306.198 62.664 306.198 61.304ZM316.662 61.352C316.662 60.536 316.502 59.84 316.182 59.264C315.862 58.672 315.43 58.224 314.886 57.92C314.342 57.6 313.758 57.44 313.134 57.44C312.51 57.44 311.934 57.592 311.406 57.896C310.878 58.2 310.446 58.648 310.11 59.24C309.79 59.816 309.63 60.504 309.63 61.304C309.63 62.104 309.79 62.808 310.11 63.416C310.446 64.008 310.878 64.464 311.406 64.784C311.95 65.104 312.526 65.264 313.134 65.264C313.758 65.264 314.342 65.112 314.886 64.808C315.43 64.488 315.862 64.04 316.182 63.464C316.502 62.872 316.662 62.168 316.662 61.352ZM327.24 57.464V63.896C327.24 64.344 327.344 64.672 327.552 64.88C327.776 65.072 328.144 65.168 328.656 65.168H330.216V68H328.104C325.272 68 323.856 66.624 323.856 63.872V57.464H322.272V54.704H323.856V51.416H327.24V54.704H330.216V57.464H327.24ZM334.337 53.12C333.745 53.12 333.249 52.936 332.849 52.568C332.465 52.184 332.273 51.712 332.273 51.152C332.273 50.592 332.465 50.128 332.849 49.76C333.249 49.376 333.745 49.184 334.337 49.184C334.929 49.184 335.417 49.376 335.801 49.76C336.201 50.128 336.401 50.592 336.401 51.152C336.401 51.712 336.201 52.184 335.801 52.568C335.417 52.936 334.929 53.12 334.337 53.12ZM335.993 54.704V68H332.633V54.704H335.993ZM345.216 68.216C343.936 68.216 342.784 67.936 341.76 67.376C340.736 66.8 339.928 65.992 339.336 64.952C338.76 63.912 338.472 62.712 338.472 61.352C338.472 59.992 338.768 58.792 339.36 57.752C339.968 56.712 340.792 55.912 341.832 55.352C342.872 54.776 344.032 54.488 345.312 54.488C346.592 54.488 347.752 54.776 348.792 55.352C349.832 55.912 350.648 56.712 351.24 57.752C351.848 58.792 352.152 59.992 352.152 61.352C352.152 62.712 351.84 63.912 351.216 64.952C350.608 65.992 349.776 66.8 348.72 67.376C347.68 67.936 346.512 68.216 345.216 68.216ZM345.216 65.288C345.824 65.288 346.392 65.144 346.92 64.856C347.464 64.552 347.896 64.104 348.216 63.512C348.536 62.92 348.696 62.2 348.696 61.352C348.696 60.088 348.36 59.12 347.688 58.448C347.032 57.76 346.224 57.416 345.264 57.416C344.304 57.416 343.496 57.76 342.84 58.448C342.2 59.12 341.88 60.088 341.88 61.352C341.88 62.616 342.192 63.592 342.816 64.28C343.456 64.952 344.256 65.288 345.216 65.288ZM361.985 54.512C363.569 54.512 364.849 55.016 365.825 56.024C366.801 57.016 367.289 58.408 367.289 60.2V68H363.929V60.656C363.929 59.6 363.665 58.792 363.137 58.232C362.609 57.656 361.889 57.368 360.977 57.368C360.049 57.368 359.313 57.656 358.769 58.232C358.241 58.792 357.977 59.6 357.977 60.656V68H354.617V54.704H357.977V56.36C358.425 55.784 358.993 55.336 359.681 55.016C360.385 54.68 361.153 54.512 361.985 54.512Z"></path>
<rect fill-opacity="0.05" fill="white" rx="5" height="66" width="280" y="192" x="190"></rect>
<path stroke-width="1.5" stroke="white" d="M214 216.75H226C227.243 216.75 228.25 217.757 228.25 219V231C228.25 232.243 227.243 233.25 226 233.25H214C212.757 233.25 211.75 232.243 211.75 231V219C211.75 217.757 212.757 216.75 214 216.75Z"></path>
<path stroke-linecap="round" stroke-width="1.5" stroke="white" d="M227 232L222.121 227.121C220.95 225.95 219.05 225.95 217.879 227.121L213 232M223 221V221C223.552 221 224 221.448 224 222V222C224 222.552 223.552 223 223 223V223C222.448 223 222 222.552 222 222V222C222 221.448 222.448 221 223 221Z"></path>
<path stroke-linejoin="round" stroke-linecap="round" stroke-width="1.5" stroke="white" d="M438 230L442.293 225.707C442.683 225.317 442.683 224.683 442.293 224.293L438 220"></path>
<path fill="white" d="M260.78 213.355L258.514 221H257.095L255.489 215.214L253.784 221L252.376 221.011L250.209 213.355H251.54L253.124 219.581L254.84 213.355H256.248L257.843 219.548L259.438 213.355H260.78ZM261.396 217.942C261.396 217.333 261.521 216.794 261.77 216.325C262.027 215.856 262.372 215.493 262.804 215.236C263.244 214.972 263.728 214.84 264.256 214.84C264.733 214.84 265.147 214.935 265.499 215.126C265.859 215.309 266.145 215.54 266.357 215.819V214.939H267.622V221H266.357V220.098C266.145 220.384 265.855 220.622 265.488 220.813C265.122 221.004 264.704 221.099 264.234 221.099C263.714 221.099 263.237 220.967 262.804 220.703C262.372 220.432 262.027 220.058 261.77 219.581C261.521 219.097 261.396 218.551 261.396 217.942ZM266.357 217.964C266.357 217.546 266.269 217.183 266.093 216.875C265.925 216.567 265.701 216.332 265.422 216.171C265.144 216.01 264.843 215.929 264.52 215.929C264.198 215.929 263.897 216.01 263.618 216.171C263.34 216.325 263.112 216.556 262.936 216.864C262.768 217.165 262.683 217.524 262.683 217.942C262.683 218.36 262.768 218.727 262.936 219.042C263.112 219.357 263.34 219.599 263.618 219.768C263.904 219.929 264.205 220.01 264.52 220.01C264.843 220.01 265.144 219.929 265.422 219.768C265.701 219.607 265.925 219.372 266.093 219.064C266.269 218.749 266.357 218.382 266.357 217.964ZM270.523 212.86V221H269.269V212.86H270.523ZM273.424 212.86V221H272.17V212.86H273.424ZM276.324 215.83C276.537 215.551 276.826 215.317 277.193 215.126C277.56 214.935 277.974 214.84 278.436 214.84C278.964 214.84 279.444 214.972 279.877 215.236C280.317 215.493 280.662 215.856 280.911 216.325C281.16 216.794 281.285 217.333 281.285 217.942C281.285 218.551 281.16 219.097 280.911 219.581C280.662 220.058 280.317 220.432 279.877 220.703C279.444 220.967 278.964 221.099 278.436 221.099C277.974 221.099 277.563 221.007 277.204 220.824C276.845 220.633 276.551 220.399 276.324 220.12V223.882H275.07V214.939H276.324V215.83ZM280.009 217.942C280.009 217.524 279.921 217.165 279.745 216.864C279.576 216.556 279.349 216.325 279.063 216.171C278.784 216.01 278.484 215.929 278.161 215.929C277.846 215.929 277.545 216.01 277.259 216.171C276.98 216.332 276.753 216.567 276.577 216.875C276.408 217.183 276.324 217.546 276.324 217.964C276.324 218.382 276.408 218.749 276.577 219.064C276.753 219.372 276.98 219.607 277.259 219.768C277.545 219.929 277.846 220.01 278.161 220.01C278.484 220.01 278.784 219.929 279.063 219.768C279.349 219.599 279.576 219.357 279.745 219.042C279.921 218.727 280.009 218.36 280.009 217.942ZM282.107 217.942C282.107 217.333 282.232 216.794 282.481 216.325C282.738 215.856 283.083 215.493 283.515 215.236C283.955 214.972 284.439 214.84 284.967 214.84C285.444 214.84 285.858 214.935 286.21 215.126C286.57 215.309 286.856 215.54 287.068 215.819V214.939H288.333V221H287.068V220.098C286.856 220.384 286.566 220.622 286.199 220.813C285.833 221.004 285.415 221.099 284.945 221.099C284.425 221.099 283.948 220.967 283.515 220.703C283.083 220.432 282.738 220.058 282.481 219.581C282.232 219.097 282.107 218.551 282.107 217.942ZM287.068 217.964C287.068 217.546 286.98 217.183 286.804 216.875C286.636 216.567 286.412 216.332 286.133 216.171C285.855 216.01 285.554 215.929 285.231 215.929C284.909 215.929 284.608 216.01 284.329 216.171C284.051 216.325 283.823 216.556 283.647 216.864C283.479 217.165 283.394 217.524 283.394 217.942C283.394 218.36 283.479 218.727 283.647 219.042C283.823 219.357 284.051 219.599 284.329 219.768C284.615 219.929 284.916 220.01 285.231 220.01C285.554 220.01 285.855 219.929 286.133 219.768C286.412 219.607 286.636 219.372 286.804 219.064C286.98 218.749 287.068 218.382 287.068 217.964ZM291.234 215.83C291.447 215.551 291.737 215.317 292.103 215.126C292.47 214.935 292.884 214.84 293.346 214.84C293.874 214.84 294.355 214.972 294.787 215.236C295.227 215.493 295.572 215.856 295.821 216.325C296.071 216.794 296.195 217.333 296.195 217.942C296.195 218.551 296.071 219.097 295.821 219.581C295.572 220.058 295.227 220.432 294.787 220.703C294.355 220.967 293.874 221.099 293.346 221.099C292.884 221.099 292.474 221.007 292.114 220.824C291.755 220.633 291.462 220.399 291.234 220.12V223.882H289.98V214.939H291.234V215.83ZM294.919 217.942C294.919 217.524 294.831 217.165 294.655 216.864C294.487 216.556 294.259 216.325 293.973 216.171C293.695 216.01 293.394 215.929 293.071 215.929C292.756 215.929 292.455 216.01 292.169 216.171C291.891 216.332 291.663 216.567 291.487 216.875C291.319 217.183 291.234 217.546 291.234 217.964C291.234 218.382 291.319 218.749 291.487 219.064C291.663 219.372 291.891 219.607 292.169 219.768C292.455 219.929 292.756 220.01 293.071 220.01C293.394 220.01 293.695 219.929 293.973 219.768C294.259 219.599 294.487 219.357 294.655 219.042C294.831 218.727 294.919 218.36 294.919 217.942ZM302.99 217.821C302.99 218.048 302.976 218.254 302.946 218.437H298.315C298.352 218.921 298.532 219.31 298.854 219.603C299.177 219.896 299.573 220.043 300.042 220.043C300.717 220.043 301.194 219.761 301.472 219.196H302.825C302.642 219.753 302.308 220.212 301.824 220.571C301.348 220.923 300.754 221.099 300.042 221.099C299.463 221.099 298.942 220.971 298.48 220.714C298.026 220.45 297.666 220.083 297.402 219.614C297.146 219.137 297.017 218.587 297.017 217.964C297.017 217.341 297.142 216.794 297.391 216.325C297.648 215.848 298.004 215.482 298.458 215.225C298.92 214.968 299.448 214.84 300.042 214.84C300.614 214.84 301.124 214.965 301.571 215.214C302.019 215.463 302.367 215.815 302.616 216.27C302.866 216.717 302.99 217.234 302.99 217.821ZM301.681 217.425C301.674 216.963 301.509 216.593 301.186 216.314C300.864 216.035 300.464 215.896 299.987 215.896C299.555 215.896 299.184 216.035 298.876 216.314C298.568 216.585 298.385 216.956 298.326 217.425H301.681ZM305.478 215.819C305.662 215.511 305.904 215.273 306.204 215.104C306.512 214.928 306.875 214.84 307.293 214.84V216.138H306.974C306.483 216.138 306.109 216.263 305.852 216.512C305.603 216.761 305.478 217.194 305.478 217.81V221H304.224V214.939H305.478V215.819Z"></path>
<path fill-opacity="0.75" fill="white" d="M254.023 233.787C254.359 233.847 254.644 234.024 254.878 234.318C255.112 234.612 255.229 234.945 255.229 235.317C255.229 235.635 255.145 235.923 254.977 236.181C254.815 236.433 254.578 236.634 254.266 236.784C253.954 236.928 253.591 237 253.177 237H250.675V230.745H253.06C253.486 230.745 253.852 230.817 254.158 230.961C254.464 231.105 254.695 231.3 254.851 231.546C255.007 231.786 255.085 232.056 255.085 232.356C255.085 232.716 254.989 233.016 254.797 233.256C254.605 233.496 254.347 233.673 254.023 233.787ZM251.701 233.373H252.97C253.306 233.373 253.567 233.298 253.753 233.148C253.945 232.992 254.041 232.77 254.041 232.482C254.041 232.2 253.945 231.981 253.753 231.825C253.567 231.663 253.306 231.582 252.97 231.582H251.701V233.373ZM253.087 236.163C253.435 236.163 253.708 236.079 253.906 235.911C254.104 235.743 254.203 235.509 254.203 235.209C254.203 234.903 254.098 234.66 253.888 234.48C253.678 234.3 253.399 234.21 253.051 234.21H251.701V236.163H253.087ZM256.002 234.498C256.002 234 256.104 233.559 256.308 233.175C256.518 232.791 256.8 232.494 257.154 232.284C257.514 232.068 257.91 231.96 258.342 231.96C258.732 231.96 259.071 232.038 259.359 232.194C259.653 232.344 259.887 232.533 260.061 232.761V232.041H261.096V237H260.061V236.262C259.887 236.496 259.65 236.691 259.35 236.847C259.05 237.003 258.708 237.081 258.324 237.081C257.898 237.081 257.508 236.973 257.154 236.757C256.8 236.535 256.518 236.229 256.308 235.839C256.104 235.443 256.002 234.996 256.002 234.498ZM260.061 234.516C260.061 234.174 259.989 233.877 259.845 233.625C259.707 233.373 259.524 233.181 259.296 233.049C259.068 232.917 258.822 232.851 258.558 232.851C258.294 232.851 258.048 232.917 257.82 233.049C257.592 233.175 257.406 233.364 257.262 233.616C257.124 233.862 257.055 234.156 257.055 234.498C257.055 234.84 257.124 235.14 257.262 235.398C257.406 235.656 257.592 235.854 257.82 235.992C258.054 236.124 258.3 236.19 258.558 236.19C258.822 236.19 259.068 236.124 259.296 235.992C259.524 235.86 259.707 235.668 259.845 235.416C259.989 235.158 260.061 234.858 260.061 234.516ZM262.102 234.516C262.102 234.006 262.204 233.559 262.408 233.175C262.618 232.785 262.906 232.485 263.272 232.275C263.638 232.065 264.058 231.96 264.532 231.96C265.132 231.96 265.627 232.104 266.017 232.392C266.413 232.674 266.68 233.079 266.818 233.607H265.711C265.621 233.361 265.477 233.169 265.279 233.031C265.081 232.893 264.832 232.824 264.532 232.824C264.112 232.824 263.776 232.974 263.524 233.274C263.278 233.568 263.155 233.982 263.155 234.516C263.155 235.05 263.278 235.467 263.524 235.767C263.776 236.067 264.112 236.217 264.532 236.217C265.126 236.217 265.519 235.956 265.711 235.434H266.818C266.674 235.938 266.404 236.34 266.008 236.64C265.612 236.934 265.12 237.081 264.532 237.081C264.058 237.081 263.638 236.976 263.272 236.766C262.906 236.55 262.618 236.25 262.408 235.866C262.204 235.476 262.102 235.026 262.102 234.516ZM269.802 234.525L272.088 237H270.702L268.866 234.867V237H267.84V230.34H268.866V234.21L270.666 232.041H272.088L269.802 234.525ZM274.821 231.96C275.205 231.96 275.544 232.038 275.838 232.194C276.138 232.344 276.372 232.533 276.54 232.761V232.041H277.575V237.081C277.575 237.537 277.479 237.942 277.287 238.296C277.095 238.656 276.816 238.938 276.45 239.142C276.09 239.346 275.658 239.448 275.154 239.448C274.482 239.448 273.924 239.289 273.48 238.971C273.036 238.659 272.784 238.233 272.724 237.693H273.741C273.819 237.951 273.984 238.158 274.236 238.314C274.494 238.476 274.8 238.557 275.154 238.557C275.568 238.557 275.901 238.431 276.153 238.179C276.411 237.927 276.54 237.561 276.54 237.081V236.253C276.366 236.487 276.129 236.685 275.829 236.847C275.535 237.003 275.199 237.081 274.821 237.081C274.389 237.081 273.993 236.973 273.633 236.757C273.279 236.535 272.997 236.229 272.787 235.839C272.583 235.443 272.481 234.996 272.481 234.498C272.481 234 272.583 233.559 272.787 233.175C272.997 232.791 273.279 232.494 273.633 232.284C273.993 232.068 274.389 231.96 274.821 231.96ZM276.54 234.516C276.54 234.174 276.468 233.877 276.324 233.625C276.186 233.373 276.003 233.181 275.775 233.049C275.547 232.917 275.301 232.851 275.037 232.851C274.773 232.851 274.527 232.917 274.299 233.049C274.071 233.175 273.885 233.364 273.741 233.616C273.603 233.862 273.534 234.156 273.534 234.498C273.534 234.84 273.603 235.14 273.741 235.398C273.885 235.656 274.071 235.854 274.299 235.992C274.533 236.124 274.779 236.19 275.037 236.19C275.301 236.19 275.547 236.124 275.775 235.992C276.003 235.86 276.186 235.668 276.324 235.416C276.468 235.158 276.54 234.858 276.54 234.516ZM279.949 232.761C280.099 232.509 280.297 232.314 280.543 232.176C280.795 232.032 281.092 231.96 281.434 231.96V233.022H281.173C280.771 233.022 280.465 233.124 280.255 233.328C280.051 233.532 279.949 233.886 279.949 234.39V237H278.923V232.041H279.949V232.761ZM284.528 237.081C284.06 237.081 283.637 236.976 283.259 236.766C282.881 236.55 282.584 236.25 282.368 235.866C282.152 235.476 282.044 235.026 282.044 234.516C282.044 234.012 282.155 233.565 282.377 233.175C282.599 232.785 282.902 232.485 283.286 232.275C283.67 232.065 284.099 231.96 284.573 231.96C285.047 231.96 285.476 232.065 285.86 232.275C286.244 232.485 286.547 232.785 286.769 233.175C286.991 233.565 287.102 234.012 287.102 234.516C287.102 235.02 286.988 235.467 286.76 235.857C286.532 236.247 286.22 236.55 285.824 236.766C285.434 236.976 285.002 237.081 284.528 237.081ZM284.528 236.19C284.792 236.19 285.038 236.127 285.266 236.001C285.5 235.875 285.689 235.686 285.833 235.434C285.977 235.182 286.049 234.876 286.049 234.516C286.049 234.156 285.98 233.853 285.842 233.607C285.704 233.355 285.521 233.166 285.293 233.04C285.065 232.914 284.819 232.851 284.555 232.851C284.291 232.851 284.045 232.914 283.817 233.04C283.595 233.166 283.418 233.355 283.286 233.607C283.154 233.853 283.088 234.156 283.088 234.516C283.088 235.05 283.223 235.464 283.493 235.758C283.769 236.046 284.114 236.19 284.528 236.19ZM292.607 232.041V237H291.581V236.415C291.419 236.619 291.206 236.781 290.942 236.901C290.684 237.015 290.408 237.072 290.114 237.072C289.724 237.072 289.373 236.991 289.061 236.829C288.755 236.667 288.512 236.427 288.332 236.109C288.158 235.791 288.071 235.407 288.071 234.957V232.041H289.088V234.804C289.088 235.248 289.199 235.59 289.421 235.83C289.643 236.064 289.946 236.181 290.33 236.181C290.714 236.181 291.017 236.064 291.239 235.83C291.467 235.59 291.581 235.248 291.581 234.804V232.041H292.607ZM296.463 231.96C296.853 231.96 297.201 232.041 297.507 232.203C297.819 232.365 298.062 232.605 298.236 232.923C298.41 233.241 298.497 233.625 298.497 234.075V237H297.48V234.228C297.48 233.784 297.369 233.445 297.147 233.211C296.925 232.971 296.622 232.851 296.238 232.851C295.854 232.851 295.548 232.971 295.32 233.211C295.098 233.445 294.987 233.784 294.987 234.228V237H293.961V232.041H294.987V232.608C295.155 232.404 295.368 232.245 295.626 232.131C295.89 232.017 296.169 231.96 296.463 231.96ZM299.464 234.498C299.464 234 299.566 233.559 299.77 233.175C299.98 232.791 300.262 232.494 300.616 232.284C300.976 232.068 301.375 231.96 301.813 231.96C302.137 231.96 302.455 232.032 302.767 232.176C303.085 232.314 303.337 232.5 303.523 232.734V230.34H304.558V237H303.523V236.253C303.355 236.493 303.121 236.691 302.821 236.847C302.527 237.003 302.188 237.081 301.804 237.081C301.372 237.081 300.976 236.973 300.616 236.757C300.262 236.535 299.98 236.229 299.77 235.839C299.566 235.443 299.464 234.996 299.464 234.498ZM303.523 234.516C303.523 234.174 303.451 233.877 303.307 233.625C303.169 233.373 302.986 233.181 302.758 233.049C302.53 232.917 302.284 232.851 302.02 232.851C301.756 232.851 301.51 232.917 301.282 233.049C301.054 233.175 300.868 233.364 300.724 233.616C300.586 233.862 300.517 234.156 300.517 234.498C300.517 234.84 300.586 235.14 300.724 235.398C300.868 235.656 301.054 235.854 301.282 235.992C301.516 236.124 301.762 236.19 302.02 236.19C302.284 236.19 302.53 236.124 302.758 235.992C302.986 235.86 303.169 235.668 303.307 235.416C303.451 235.158 303.523 234.858 303.523 234.516ZM309.269 232.77C309.443 232.542 309.68 232.35 309.98 232.194C310.28 232.038 310.619 231.96 310.997 231.96C311.429 231.96 311.822 232.068 312.176 232.284C312.536 232.494 312.818 232.791 313.022 233.175C313.226 233.559 313.328 234 313.328 234.498C313.328 234.996 313.226 235.443 313.022 235.839C312.818 236.229 312.536 236.535 312.176 236.757C311.822 236.973 311.429 237.081 310.997 237.081C310.619 237.081 310.283 237.006 309.989 236.856C309.695 236.7 309.455 236.508 309.269 236.28V239.358H308.243V232.041H309.269V232.77ZM312.284 234.498C312.284 234.156 312.212 233.862 312.068 233.616C311.93 233.364 311.744 233.175 311.51 233.049C311.282 232.917 311.036 232.851 310.772 232.851C310.514 232.851 310.268 232.917 310.034 233.049C309.806 233.181 309.62 233.373 309.476 233.625C309.338 233.877 309.269 234.174 309.269 234.516C309.269 234.858 309.338 235.158 309.476 235.416C309.62 235.668 309.806 235.86 310.034 235.992C310.268 236.124 310.514 236.19 310.772 236.19C311.036 236.19 311.282 236.124 311.51 235.992C311.744 235.854 311.93 235.656 312.068 235.398C312.212 235.14 312.284 234.84 312.284 234.498ZM314.865 231.384C314.679 231.384 314.523 231.321 314.397 231.195C314.271 231.069 314.208 230.913 314.208 230.727C314.208 230.541 314.271 230.385 314.397 230.259C314.523 230.133 314.679 230.07 314.865 230.07C315.045 230.07 315.198 230.133 315.324 230.259C315.45 230.385 315.513 230.541 315.513 230.727C315.513 230.913 315.45 231.069 315.324 231.195C315.198 231.321 315.045 231.384 314.865 231.384ZM315.369 232.041V237H314.343V232.041H315.369ZM316.374 234.516C316.374 234.006 316.476 233.559 316.68 233.175C316.89 232.785 317.178 232.485 317.544 232.275C317.91 232.065 318.33 231.96 318.804 231.96C319.404 231.96 319.899 232.104 320.289 232.392C320.685 232.674 320.952 233.079 321.09 233.607H319.983C319.893 233.361 319.749 233.169 319.551 233.031C319.353 232.893 319.104 232.824 318.804 232.824C318.384 232.824 318.048 232.974 317.796 233.274C317.55 233.568 317.427 233.982 317.427 234.516C317.427 235.05 317.55 235.467 317.796 235.767C318.048 236.067 318.384 236.217 318.804 236.217C319.398 236.217 319.791 235.956 319.983 235.434H321.09C320.946 235.938 320.676 236.34 320.28 236.64C319.884 236.934 319.392 237.081 318.804 237.081C318.33 237.081 317.91 236.976 317.544 236.766C317.178 236.55 316.89 236.25 316.68 235.866C316.476 235.476 316.374 235.026 316.374 234.516ZM323.31 232.878V235.623C323.31 235.809 323.352 235.944 323.436 236.028C323.526 236.106 323.676 236.145 323.886 236.145H324.516V237H323.706C323.244 237 322.89 236.892 322.644 236.676C322.398 236.46 322.275 236.109 322.275 235.623V232.878H321.69V232.041H322.275V230.808H323.31V232.041H324.516V232.878H323.31ZM329.952 232.041V237H328.926V236.415C328.764 236.619 328.551 236.781 328.287 236.901C328.029 237.015 327.753 237.072 327.459 237.072C327.069 237.072 326.718 236.991 326.406 236.829C326.1 236.667 325.857 236.427 325.677 236.109C325.503 235.791 325.416 235.407 325.416 234.957V232.041H326.433V234.804C326.433 235.248 326.544 235.59 326.766 235.83C326.988 236.064 327.291 236.181 327.675 236.181C328.059 236.181 328.362 236.064 328.584 235.83C328.812 235.59 328.926 235.248 328.926 234.804V232.041H329.952ZM332.332 232.761C332.482 232.509 332.68 232.314 332.926 232.176C333.178 232.032 333.475 231.96 333.817 231.96V233.022H333.556C333.154 233.022 332.848 233.124 332.638 233.328C332.434 233.532 332.332 233.886 332.332 234.39V237H331.306V232.041H332.332V232.761ZM339.305 234.399C339.305 234.585 339.293 234.753 339.269 234.903H335.48C335.51 235.299 335.657 235.617 335.921 235.857C336.185 236.097 336.509 236.217 336.893 236.217C337.445 236.217 337.835 235.986 338.063 235.524H339.17C339.02 235.98 338.747 236.355 338.351 236.649C337.961 236.937 337.475 237.081 336.893 237.081C336.419 237.081 335.993 236.976 335.615 236.766C335.243 236.55 334.949 236.25 334.733 235.866C334.523 235.476 334.418 235.026 334.418 234.516C334.418 234.006 334.52 233.559 334.724 233.175C334.934 232.785 335.225 232.485 335.597 232.275C335.975 232.065 336.407 231.96 336.893 231.96C337.361 231.96 337.778 232.062 338.144 232.266C338.51 232.47 338.795 232.758 338.999 233.13C339.203 233.496 339.305 233.919 339.305 234.399ZM338.234 234.075C338.228 233.697 338.093 233.394 337.829 233.166C337.565 232.938 337.238 232.824 336.848 232.824C336.494 232.824 336.191 232.938 335.939 233.166C335.687 233.388 335.537 233.691 335.489 234.075H338.234Z"></path>
<rect fill-opacity="0.05" fill="white" rx="5" height="66" width="280" y="262" x="190"></rect>
<path stroke-linejoin="round" stroke-linecap="round" stroke-width="1.5" stroke="white" d="M438 300L442.293 295.707C442.683 295.317 442.683 294.683 442.293 294.293L438 290"></path>
<path fill="white" d="M255.764 283.355V284.378H253.729V291H252.475V284.378H250.429V283.355H255.764ZM260.169 284.84C260.631 284.84 261.042 284.939 261.401 285.137C261.768 285.335 262.054 285.628 262.259 286.017C262.472 286.406 262.578 286.875 262.578 287.425V291H261.335V287.612C261.335 287.069 261.199 286.655 260.928 286.369C260.657 286.076 260.286 285.929 259.817 285.929C259.348 285.929 258.974 286.076 258.695 286.369C258.424 286.655 258.288 287.069 258.288 287.612V291H257.034V282.86H258.288V285.643C258.501 285.386 258.768 285.188 259.091 285.049C259.421 284.91 259.78 284.84 260.169 284.84ZM269.733 287.821C269.733 288.048 269.718 288.254 269.689 288.437H265.058C265.094 288.921 265.274 289.31 265.597 289.603C265.919 289.896 266.315 290.043 266.785 290.043C267.459 290.043 267.936 289.761 268.215 289.196H269.568C269.384 289.753 269.051 290.212 268.567 290.571C268.09 290.923 267.496 291.099 266.785 291.099C266.205 291.099 265.685 290.971 265.223 290.714C264.768 290.45 264.409 290.083 264.145 289.614C263.888 289.137 263.76 288.587 263.76 287.964C263.76 287.341 263.884 286.794 264.134 286.325C264.39 285.848 264.746 285.482 265.201 285.225C265.663 284.968 266.191 284.84 266.785 284.84C267.357 284.84 267.866 284.965 268.314 285.214C268.761 285.463 269.109 285.815 269.359 286.27C269.608 286.717 269.733 287.234 269.733 287.821ZM268.424 287.425C268.416 286.963 268.251 286.593 267.929 286.314C267.606 286.035 267.206 285.896 266.73 285.896C266.297 285.896 265.927 286.035 265.619 286.314C265.311 286.585 265.127 286.956 265.069 287.425H268.424ZM278.304 284.84C278.78 284.84 279.206 284.939 279.58 285.137C279.961 285.335 280.258 285.628 280.471 286.017C280.691 286.406 280.801 286.875 280.801 287.425V291H279.558V287.612C279.558 287.069 279.422 286.655 279.151 286.369C278.879 286.076 278.509 285.929 278.04 285.929C277.57 285.929 277.196 286.076 276.918 286.369C276.646 286.655 276.511 287.069 276.511 287.612V291H275.268V287.612C275.268 287.069 275.132 286.655 274.861 286.369C274.589 286.076 274.219 285.929 273.75 285.929C273.28 285.929 272.906 286.076 272.628 286.369C272.356 286.655 272.221 287.069 272.221 287.612V291H270.967V284.939H272.221V285.632C272.426 285.383 272.686 285.188 273.002 285.049C273.317 284.91 273.654 284.84 274.014 284.84C274.498 284.84 274.93 284.943 275.312 285.148C275.693 285.353 275.986 285.65 276.192 286.039C276.375 285.672 276.661 285.383 277.05 285.17C277.438 284.95 277.856 284.84 278.304 284.84ZM287.951 287.821C287.951 288.048 287.937 288.254 287.907 288.437H283.276C283.313 288.921 283.493 289.31 283.815 289.603C284.138 289.896 284.534 290.043 285.003 290.043C285.678 290.043 286.155 289.761 286.433 289.196H287.786C287.603 289.753 287.269 290.212 286.785 290.571C286.309 290.923 285.715 291.099 285.003 291.099C284.424 291.099 283.903 290.971 283.441 290.714C282.987 290.45 282.627 290.083 282.363 289.614C282.107 289.137 281.978 288.587 281.978 287.964C281.978 287.341 282.103 286.794 282.352 286.325C282.609 285.848 282.965 285.482 283.419 285.225C283.881 284.968 284.409 284.84 285.003 284.84C285.575 284.84 286.085 284.965 286.532 285.214C286.98 285.463 287.328 285.815 287.577 286.27C287.827 286.717 287.951 287.234 287.951 287.821ZM286.642 287.425C286.635 286.963 286.47 286.593 286.147 286.314C285.825 286.035 285.425 285.896 284.948 285.896C284.516 285.896 284.145 286.035 283.837 286.314C283.529 286.585 283.346 286.956 283.287 287.425H286.642ZM291.385 291.099C290.909 291.099 290.48 291.015 290.098 290.846C289.724 290.67 289.427 290.435 289.207 290.142C288.987 289.841 288.87 289.508 288.855 289.141H290.153C290.175 289.398 290.296 289.614 290.516 289.79C290.744 289.959 291.026 290.043 291.363 290.043C291.715 290.043 291.987 289.977 292.177 289.845C292.375 289.706 292.474 289.53 292.474 289.317C292.474 289.09 292.364 288.921 292.144 288.811C291.932 288.701 291.591 288.58 291.121 288.448C290.667 288.323 290.296 288.202 290.01 288.085C289.724 287.968 289.475 287.788 289.262 287.546C289.057 287.304 288.954 286.985 288.954 286.589C288.954 286.266 289.05 285.973 289.24 285.709C289.431 285.438 289.702 285.225 290.054 285.071C290.414 284.917 290.824 284.84 291.286 284.84C291.976 284.84 292.529 285.016 292.947 285.368C293.373 285.713 293.6 286.186 293.629 286.787H292.375C292.353 286.516 292.243 286.299 292.045 286.138C291.847 285.977 291.58 285.896 291.242 285.896C290.912 285.896 290.659 285.958 290.483 286.083C290.307 286.208 290.219 286.373 290.219 286.578C290.219 286.739 290.278 286.875 290.395 286.985C290.513 287.095 290.656 287.183 290.824 287.249C290.993 287.308 291.242 287.385 291.572 287.48C292.012 287.597 292.372 287.718 292.65 287.843C292.936 287.96 293.182 288.136 293.387 288.371C293.593 288.606 293.699 288.917 293.706 289.306C293.706 289.651 293.611 289.959 293.42 290.23C293.23 290.501 292.958 290.714 292.606 290.868C292.262 291.022 291.855 291.099 291.385 291.099Z"></path>
<path fill-opacity="0.75" fill="white" d="M251.701 306.172H253.816V307H250.675V300.745H251.701V306.172ZM255.196 301.384C255.01 301.384 254.854 301.321 254.728 301.195C254.602 301.069 254.539 300.913 254.539 300.727C254.539 300.541 254.602 300.385 254.728 300.259C254.854 300.133 255.01 300.07 255.196 300.07C255.376 300.07 255.529 300.133 255.655 300.259C255.781 300.385 255.844 300.541 255.844 300.727C255.844 300.913 255.781 301.069 255.655 301.195C255.529 301.321 255.376 301.384 255.196 301.384ZM255.7 302.041V307H254.674V302.041H255.7ZM259.045 301.96C259.429 301.96 259.768 302.038 260.062 302.194C260.362 302.344 260.596 302.533 260.764 302.761V302.041H261.799V307.081C261.799 307.537 261.703 307.942 261.511 308.296C261.319 308.656 261.04 308.938 260.674 309.142C260.314 309.346 259.882 309.448 259.378 309.448C258.706 309.448 258.148 309.289 257.704 308.971C257.26 308.659 257.008 308.233 256.948 307.693H257.965C258.043 307.951 258.208 308.158 258.46 308.314C258.718 308.476 259.024 308.557 259.378 308.557C259.792 308.557 260.125 308.431 260.377 308.179C260.635 307.927 260.764 307.561 260.764 307.081V306.253C260.59 306.487 260.353 306.685 260.053 306.847C259.759 307.003 259.423 307.081 259.045 307.081C258.613 307.081 258.217 306.973 257.857 306.757C257.503 306.535 257.221 306.229 257.011 305.839C256.807 305.443 256.705 304.996 256.705 304.498C256.705 304 256.807 303.559 257.011 303.175C257.221 302.791 257.503 302.494 257.857 302.284C258.217 302.068 258.613 301.96 259.045 301.96ZM260.764 304.516C260.764 304.174 260.692 303.877 260.548 303.625C260.41 303.373 260.227 303.181 259.999 303.049C259.771 302.917 259.525 302.851 259.261 302.851C258.997 302.851 258.751 302.917 258.523 303.049C258.295 303.175 258.109 303.364 257.965 303.616C257.827 303.862 257.758 304.156 257.758 304.498C257.758 304.84 257.827 305.14 257.965 305.398C258.109 305.656 258.295 305.854 258.523 305.992C258.757 306.124 259.003 306.19 259.261 306.19C259.525 306.19 259.771 306.124 259.999 305.992C260.227 305.86 260.41 305.668 260.548 305.416C260.692 305.158 260.764 304.858 260.764 304.516ZM265.712 301.96C266.09 301.96 266.426 302.041 266.72 302.203C267.02 302.365 267.254 302.605 267.422 302.923C267.596 303.241 267.683 303.625 267.683 304.075V307H266.666V304.228C266.666 303.784 266.555 303.445 266.333 303.211C266.111 302.971 265.808 302.851 265.424 302.851C265.04 302.851 264.734 302.971 264.506 303.211C264.284 303.445 264.173 303.784 264.173 304.228V307H263.147V300.34H264.173V302.617C264.347 302.407 264.566 302.245 264.83 302.131C265.1 302.017 265.394 301.96 265.712 301.96ZM270.188 302.878V305.623C270.188 305.809 270.23 305.944 270.314 306.028C270.404 306.106 270.554 306.145 270.764 306.145H271.394V307H270.584C270.122 307 269.768 306.892 269.522 306.676C269.276 306.46 269.153 306.109 269.153 305.623V302.878H268.568V302.041H269.153V300.808H270.188V302.041H271.394V302.878H270.188ZM276.829 307.081C276.361 307.081 275.938 306.976 275.56 306.766C275.182 306.55 274.885 306.25 274.669 305.866C274.453 305.476 274.345 305.026 274.345 304.516C274.345 304.012 274.456 303.565 274.678 303.175C274.9 302.785 275.203 302.485 275.587 302.275C275.971 302.065 276.4 301.96 276.874 301.96C277.348 301.96 277.777 302.065 278.161 302.275C278.545 302.485 278.848 302.785 279.07 303.175C279.292 303.565 279.403 304.012 279.403 304.516C279.403 305.02 279.289 305.467 279.061 305.857C278.833 306.247 278.521 306.55 278.125 306.766C277.735 306.976 277.303 307.081 276.829 307.081ZM276.829 306.19C277.093 306.19 277.339 306.127 277.567 306.001C277.801 305.875 277.99 305.686 278.134 305.434C278.278 305.182 278.35 304.876 278.35 304.516C278.35 304.156 278.281 303.853 278.143 303.607C278.005 303.355 277.822 303.166 277.594 303.04C277.366 302.914 277.12 302.851 276.856 302.851C276.592 302.851 276.346 302.914 276.118 303.04C275.896 303.166 275.719 303.355 275.587 303.607C275.455 303.853 275.389 304.156 275.389 304.516C275.389 305.05 275.524 305.464 275.794 305.758C276.07 306.046 276.415 306.19 276.829 306.19ZM281.443 302.761C281.593 302.509 281.791 302.314 282.037 302.176C282.289 302.032 282.586 301.96 282.928 301.96V303.022H282.667C282.265 303.022 281.959 303.124 281.749 303.328C281.545 303.532 281.443 303.886 281.443 304.39V307H280.417V302.041H281.443V302.761ZM288.252 300.745C288.918 300.745 289.5 300.874 289.998 301.132C290.502 301.384 290.889 301.75 291.159 302.23C291.435 302.704 291.573 303.259 291.573 303.895C291.573 304.531 291.435 305.083 291.159 305.551C290.889 306.019 290.502 306.379 289.998 306.631C289.5 306.877 288.918 307 288.252 307H286.209V300.745H288.252ZM288.252 306.163C288.984 306.163 289.545 305.965 289.935 305.569C290.325 305.173 290.52 304.615 290.52 303.895C290.52 303.169 290.325 302.602 289.935 302.194C289.545 301.786 288.984 301.582 288.252 301.582H287.235V306.163H288.252ZM292.248 304.498C292.248 304 292.35 303.559 292.554 303.175C292.764 302.791 293.046 302.494 293.4 302.284C293.76 302.068 294.156 301.96 294.588 301.96C294.978 301.96 295.317 302.038 295.605 302.194C295.899 302.344 296.133 302.533 296.307 302.761V302.041H297.342V307H296.307V306.262C296.133 306.496 295.896 306.691 295.596 306.847C295.296 307.003 294.954 307.081 294.57 307.081C294.144 307.081 293.754 306.973 293.4 306.757C293.046 306.535 292.764 306.229 292.554 305.839C292.35 305.443 292.248 304.996 292.248 304.498ZM296.307 304.516C296.307 304.174 296.235 303.877 296.091 303.625C295.953 303.373 295.77 303.181 295.542 303.049C295.314 302.917 295.068 302.851 294.804 302.851C294.54 302.851 294.294 302.917 294.066 303.049C293.838 303.175 293.652 303.364 293.508 303.616C293.37 303.862 293.301 304.156 293.301 304.498C293.301 304.84 293.37 305.14 293.508 305.398C293.652 305.656 293.838 305.854 294.066 305.992C294.3 306.124 294.546 306.19 294.804 306.19C295.068 306.19 295.314 306.124 295.542 305.992C295.77 305.86 295.953 305.668 296.091 305.416C296.235 305.158 296.307 304.858 296.307 304.516ZM299.716 302.761C299.866 302.509 300.064 302.314 300.31 302.176C300.562 302.032 300.859 301.96 301.201 301.96V303.022H300.94C300.538 303.022 300.232 303.124 300.022 303.328C299.818 303.532 299.716 303.886 299.716 304.39V307H298.69V302.041H299.716V302.761ZM304.106 304.525L306.392 307H305.006L303.17 304.867V307H302.144V300.34H303.17V304.21L304.97 302.041H306.392L304.106 304.525ZM310.662 302.878V305.623C310.662 305.809 310.704 305.944 310.788 306.028C310.878 306.106 311.028 306.145 311.238 306.145H311.868V307H311.058C310.596 307 310.242 306.892 309.996 306.676C309.75 306.46 309.627 306.109 309.627 305.623V302.878H309.042V302.041H309.627V300.808H310.662V302.041H311.868V302.878H310.662ZM315.379 301.96C315.757 301.96 316.093 302.041 316.387 302.203C316.687 302.365 316.921 302.605 317.089 302.923C317.263 303.241 317.35 303.625 317.35 304.075V307H316.333V304.228C316.333 303.784 316.222 303.445 316 303.211C315.778 302.971 315.475 302.851 315.091 302.851C314.707 302.851 314.401 302.971 314.173 303.211C313.951 303.445 313.84 303.784 313.84 304.228V307H312.814V300.34H313.84V302.617C314.014 302.407 314.233 302.245 314.497 302.131C314.767 302.017 315.061 301.96 315.379 301.96ZM323.203 304.399C323.203 304.585 323.191 304.753 323.167 304.903H319.378C319.408 305.299 319.555 305.617 319.819 305.857C320.083 306.097 320.407 306.217 320.791 306.217C321.343 306.217 321.733 305.986 321.961 305.524H323.068C322.918 305.98 322.645 306.355 322.249 306.649C321.859 306.937 321.373 307.081 320.791 307.081C320.317 307.081 319.891 306.976 319.513 306.766C319.141 306.55 318.847 306.25 318.631 305.866C318.421 305.476 318.316 305.026 318.316 304.516C318.316 304.006 318.418 303.559 318.622 303.175C318.832 302.785 319.123 302.485 319.495 302.275C319.873 302.065 320.305 301.96 320.791 301.96C321.259 301.96 321.676 302.062 322.042 302.266C322.408 302.47 322.693 302.758 322.897 303.13C323.101 303.496 323.203 303.919 323.203 304.399ZM322.132 304.075C322.126 303.697 321.991 303.394 321.727 303.166C321.463 302.938 321.136 302.824 320.746 302.824C320.392 302.824 320.089 302.938 319.837 303.166C319.585 303.388 319.435 303.691 319.387 304.075H322.132ZM330.216 301.96C330.606 301.96 330.954 302.041 331.26 302.203C331.572 302.365 331.815 302.605 331.989 302.923C332.169 303.241 332.259 303.625 332.259 304.075V307H331.242V304.228C331.242 303.784 331.131 303.445 330.909 303.211C330.687 302.971 330.384 302.851 330 302.851C329.616 302.851 329.31 302.971 329.082 303.211C328.86 303.445 328.749 303.784 328.749 304.228V307H327.732V304.228C327.732 303.784 327.621 303.445 327.399 303.211C327.177 302.971 326.874 302.851 326.49 302.851C326.106 302.851 325.8 302.971 325.572 303.211C325.35 303.445 325.239 303.784 325.239 304.228V307H324.213V302.041H325.239V302.608C325.407 302.404 325.62 302.245 325.878 302.131C326.136 302.017 326.412 301.96 326.706 301.96C327.102 301.96 327.456 302.044 327.768 302.212C328.08 302.38 328.32 302.623 328.488 302.941C328.638 302.641 328.872 302.404 329.19 302.23C329.508 302.05 329.85 301.96 330.216 301.96ZM338.11 304.399C338.11 304.585 338.098 304.753 338.074 304.903H334.285C334.315 305.299 334.462 305.617 334.726 305.857C334.99 306.097 335.314 306.217 335.698 306.217C336.25 306.217 336.64 305.986 336.868 305.524H337.975C337.825 305.98 337.552 306.355 337.156 306.649C336.766 306.937 336.28 307.081 335.698 307.081C335.224 307.081 334.798 306.976 334.42 306.766C334.048 306.55 333.754 306.25 333.538 305.866C333.328 305.476 333.223 305.026 333.223 304.516C333.223 304.006 333.325 303.559 333.529 303.175C333.739 302.785 334.03 302.485 334.402 302.275C334.78 302.065 335.212 301.96 335.698 301.96C336.166 301.96 336.583 302.062 336.949 302.266C337.315 302.47 337.6 302.758 337.804 303.13C338.008 303.496 338.11 303.919 338.11 304.399ZM337.039 304.075C337.033 303.697 336.898 303.394 336.634 303.166C336.37 302.938 336.043 302.824 335.653 302.824C335.299 302.824 334.996 302.938 334.744 303.166C334.492 303.388 334.342 303.691 334.294 304.075H337.039Z"></path>
<path stroke-width="1.5" stroke="white" d="M216.392 298C217.133 296.837 218.013 295.63 219 294.502C222.293 290.739 227 285 228.5 286.5C230 288 224.315 293.637 221 297.502C220.227 298.404 219.365 299.239 218.5 299.974"></path>
<path stroke-width="1.5" stroke="white" d="M211.878 303.263C212.015 303.126 212.16 302.977 212.305 302.817C212.637 302.452 212.986 302.019 213.256 301.56C213.519 301.113 213.75 300.569 213.75 300C213.75 299.41 213.948 298.844 214.311 298.436C214.661 298.041 215.204 297.75 216 297.75C216.498 297.75 217.207 297.947 217.779 298.4C218.325 298.833 218.75 299.498 218.75 300.5C218.75 301.427 218.226 302.226 217.322 302.823C216.412 303.424 215.187 303.763 214.009 303.75C213.395 303.743 212.618 303.529 211.946 303.288C211.923 303.28 211.9 303.271 211.878 303.263Z"></path>
</svg>
