<svg xmlns="http://www.w3.org/2000/svg" fill="none" viewBox="0 0 44 24" height="24" width="44">
<path fill-opacity="0.5" fill="#FF0000" d="M2 12C2 6.47715 6.47715 2 12 2H32C37.5228 2 42 6.47715 42 12V12C42 17.5228 37.5228 22 32 22H12C6.47715 22 2 17.5228 2 12V12Z"></path>
<path stroke-width="2" stroke-opacity="0.2" stroke="#FF0000" d="M32 1H12C5.92487 1 1 5.92487 1 12C1 18.0751 5.92487 23 12 23H32C38.0751 23 43 18.0751 43 12C43 5.92487 38.0751 1 32 1Z"></path>
<path fill="white" d="M15.3073 9.412C15.3553 8.668 15.6393 8.088 16.1593 7.672C16.6873 7.256 17.3593 7.048 18.1753 7.048C18.7353 7.048 19.2193 7.148 19.6273 7.348C20.0353 7.548 20.3433 7.82 20.5513 8.164C20.7593 8.508 20.8633 8.896 20.8633 9.328C20.8633 9.824 20.7313 10.248 20.4673 10.6C20.2033 10.952 19.8873 11.188 19.5193 11.308V11.356C19.9913 11.5 20.3593 11.764 20.6233 12.148C20.8873 12.524 21.0193 13.008 21.0193 13.6C21.0193 14.072 20.9113 14.492 20.6953 14.86C20.4793 15.228 20.1593 15.52 19.7353 15.736C19.3113 15.944 18.8033 16.048 18.2113 16.048C17.3473 16.048 16.6353 15.828 16.0753 15.388C15.5233 14.94 15.2273 14.3 15.1873 13.468H16.5073C16.5393 13.892 16.7033 14.24 16.9993 14.512C17.2953 14.776 17.6953 14.908 18.1993 14.908C18.6873 14.908 19.0633 14.776 19.3273 14.512C19.5913 14.24 19.7233 13.892 19.7233 13.468C19.7233 12.908 19.5433 12.512 19.1833 12.28C18.8313 12.04 18.2873 11.92 17.5513 11.92H17.2393V10.792H17.5633C18.2113 10.784 18.7033 10.676 19.0393 10.468C19.3833 10.26 19.5553 9.932 19.5553 9.484C19.5553 9.1 19.4313 8.796 19.1833 8.572C18.9353 8.34 18.5833 8.224 18.1273 8.224C17.6793 8.224 17.3313 8.34 17.0833 8.572C16.8353 8.796 16.6873 9.076 16.6393 9.412H15.3073ZM23.9323 11.428C23.1003 11.012 22.6843 10.356 22.6843 9.46C22.6843 9.028 22.7923 8.632 23.0083 8.272C23.2243 7.912 23.5483 7.628 23.9803 7.42C24.4123 7.204 24.9403 7.096 25.5643 7.096C26.1803 7.096 26.7043 7.204 27.1363 7.42C27.5763 7.628 27.9043 7.912 28.1203 8.272C28.3363 8.632 28.4443 9.028 28.4443 9.46C28.4443 9.908 28.3283 10.304 28.0963 10.648C27.8723 10.984 27.5723 11.244 27.1963 11.428C27.6523 11.596 28.0123 11.872 28.2763 12.256C28.5403 12.632 28.6723 13.076 28.6723 13.588C28.6723 14.108 28.5403 14.568 28.2763 14.968C28.0123 15.368 27.6443 15.676 27.1723 15.892C26.7003 16.108 26.1643 16.216 25.5643 16.216C24.9643 16.216 24.4283 16.108 23.9563 15.892C23.4923 15.676 23.1283 15.368 22.8643 14.968C22.6003 14.568 22.4683 14.108 22.4683 13.588C22.4683 13.068 22.6003 12.62 22.8643 12.244C23.1283 11.868 23.4843 11.596 23.9323 11.428ZM27.1363 9.628C27.1363 9.18 26.9963 8.836 26.7163 8.596C26.4363 8.356 26.0523 8.236 25.5643 8.236C25.0843 8.236 24.7043 8.356 24.4243 8.596C24.1443 8.836 24.0043 9.184 24.0043 9.64C24.0043 10.04 24.1483 10.368 24.4363 10.624C24.7323 10.872 25.1083 10.996 25.5643 10.996C26.0203 10.996 26.3963 10.868 26.6923 10.612C26.9883 10.356 27.1363 10.028 27.1363 9.628ZM25.5643 12.028C25.0363 12.028 24.6043 12.16 24.2683 12.424C23.9403 12.68 23.7763 13.052 23.7763 13.54C23.7763 13.996 23.9363 14.368 24.2563 14.656C24.5763 14.936 25.0123 15.076 25.5643 15.076C26.1083 15.076 26.5363 14.932 26.8483 14.644C27.1683 14.356 27.3283 13.988 27.3283 13.54C27.3283 13.06 27.1643 12.688 26.8363 12.424C26.5163 12.16 26.0923 12.028 25.5643 12.028Z"></path>
</svg>
