<svg xmlns="http://www.w3.org/2000/svg" fill="none" viewBox="0 0 114 37" height="37" width="114">
<rect fill-opacity="0.05" fill="white" rx="5" height="37" width="114"></rect>
<path fill="white" d="M54.1366 17.886C54.1366 16.6173 54.3492 15.6273 54.7746 14.916C55.2072 14.1973 55.9479 13.838 56.9966 13.838C58.0452 13.838 58.7822 14.1973 59.2076 14.916C59.6402 15.6273 59.8566 16.6173 59.8566 17.886C59.8566 19.1693 59.6402 20.174 59.2076 20.9C58.7822 21.6187 58.0452 21.978 56.9966 21.978C55.9479 21.978 55.2072 21.6187 54.7746 20.9C54.3492 20.174 54.1366 19.1693 54.1366 17.886ZM58.6246 17.886C58.6246 17.292 58.5842 16.7897 58.5036 16.379C58.4302 15.9683 58.2762 15.6347 58.0416 15.378C57.8069 15.114 57.4586 14.982 56.9966 14.982C56.5346 14.982 56.1862 15.114 55.9516 15.378C55.7169 15.6347 55.5592 15.9683 55.4786 16.379C55.4052 16.7897 55.3686 17.292 55.3686 17.886C55.3686 18.502 55.4052 19.019 55.4786 19.437C55.5519 19.855 55.7059 20.1923 55.9406 20.449C56.1826 20.7057 56.5346 20.834 56.9966 20.834C57.4586 20.834 57.8069 20.7057 58.0416 20.449C58.2836 20.1923 58.4412 19.855 58.5146 19.437C58.5879 19.019 58.6246 18.502 58.6246 17.886Z"></path>
</svg>
