<svg version="1.1" xmlns="http://www.w3.org/2000/svg" xmlns:xlink="http://www.w3.org/1999/xlink" width="40" height="20" viewBox="0,0,40,20"><g transform="translate(-220,-167)"><g data-paper-data="{&quot;isPaintingLayer&quot;:true}" fill-rule="nonzero" stroke="none" stroke-width="1" stroke-linecap="butt" stroke-linejoin="miter" stroke-miterlimit="10" stroke-dasharray="" stroke-dashoffset="0" style="mix-blend-mode: normal"><path d="M220,187v-20h40v20z" fill="none"></path><path d="M246.888,173.388v6.612h-1.368v-0.78c-0.216,0.272 -0.5,0.488 -0.852,0.648c-0.344,0.152 -0.712,0.228 -1.104,0.228c-0.52,0 -0.988,-0.108 -1.404,-0.324c-0.408,-0.216 -0.732,-0.536 -0.972,-0.96c-0.232,-0.424 -0.348,-0.936 -0.348,-1.536v-3.888h1.356v3.684c0,0.592 0.148,1.048 0.444,1.368c0.296,0.312 0.7,0.468 1.212,0.468c0.512,0 0.916,-0.156 1.212,-0.468c0.304,-0.32 0.456,-0.776 0.456,-1.368v-3.684zM245.136,171.912v1.008l-2.652,-1.308v-1.164z" fill="#ff0000"></path></g></g></svg>