<svg xmlns="http://www.w3.org/2000/svg" fill="none" viewBox="0 0 100 80" height="80" width="100">
<path stroke-linecap="round" stroke-width="8" stroke="#E6E6E6" d="M42 31L58 29"></path>
<path stroke-linecap="round" stroke-width="5" stroke="#DA002B" d="M50 30L58 29"></path>
<path fill="white" d="M17.9122 56.745V57.582H15.2572V59.427H17.3272V60.264H15.2572V63H14.2312V56.745H17.9122ZM18.521 60.498C18.521 60 18.623 59.559 18.827 59.175C19.037 58.791 19.319 58.494 19.673 58.284C20.033 58.068 20.429 57.96 20.861 57.96C21.251 57.96 21.59 58.038 21.878 58.194C22.172 58.344 22.406 58.533 22.58 58.761V58.041H23.615V63H22.58V62.262C22.406 62.496 22.169 62.691 21.869 62.847C21.569 63.003 21.227 63.081 20.843 63.081C20.417 63.081 20.027 62.973 19.673 62.757C19.319 62.535 19.037 62.229 18.827 61.839C18.623 61.443 18.521 60.996 18.521 60.498ZM22.58 60.516C22.58 60.174 22.508 59.877 22.364 59.625C22.226 59.373 22.043 59.181 21.815 59.049C21.587 58.917 21.341 58.851 21.077 58.851C20.813 58.851 20.567 58.917 20.339 59.049C20.111 59.175 19.925 59.364 19.781 59.616C19.643 59.862 19.574 60.156 19.574 60.498C19.574 60.84 19.643 61.14 19.781 61.398C19.925 61.656 20.111 61.854 20.339 61.992C20.573 62.124 20.819 62.19 21.077 62.19C21.341 62.19 21.587 62.124 21.815 61.992C22.043 61.86 22.226 61.668 22.364 61.416C22.508 61.158 22.58 60.858 22.58 60.516ZM25.9886 56.34V63H24.9626V56.34H25.9886ZM28.3616 56.34V63H27.3356V56.34H28.3616ZM30.2307 57.384C30.0447 57.384 29.8887 57.321 29.7627 57.195C29.6367 57.069 29.5737 56.913 29.5737 56.727C29.5737 56.541 29.6367 56.385 29.7627 56.259C29.8887 56.133 30.0447 56.07 30.2307 56.07C30.4107 56.07 30.5637 56.133 30.6897 56.259C30.8157 56.385 30.8787 56.541 30.8787 56.727C30.8787 56.913 30.8157 57.069 30.6897 57.195C30.5637 57.321 30.4107 57.384 30.2307 57.384ZM30.7347 58.041V63H29.7087V58.041H30.7347ZM34.5837 57.96C34.9737 57.96 35.3217 58.041 35.6277 58.203C35.9397 58.365 36.1827 58.605 36.3567 58.923C36.5307 59.241 36.6177 59.625 36.6177 60.075V63H35.6007V60.228C35.6007 59.784 35.4897 59.445 35.2677 59.211C35.0457 58.971 34.7427 58.851 34.3587 58.851C33.9747 58.851 33.6687 58.971 33.4407 59.211C33.2187 59.445 33.1077 59.784 33.1077 60.228V63H32.0817V58.041H33.1077V58.608C33.2757 58.404 33.4887 58.245 33.7467 58.131C34.0107 58.017 34.2897 57.96 34.5837 57.96ZM39.9245 57.96C40.3085 57.96 40.6475 58.038 40.9415 58.194C41.2415 58.344 41.4755 58.533 41.6435 58.761V58.041H42.6785V63.081C42.6785 63.537 42.5825 63.942 42.3905 64.296C42.1985 64.656 41.9195 64.938 41.5535 65.142C41.1935 65.346 40.7615 65.448 40.2575 65.448C39.5855 65.448 39.0275 65.289 38.5835 64.971C38.1395 64.659 37.8875 64.233 37.8275 63.693H38.8445C38.9225 63.951 39.0875 64.158 39.3395 64.314C39.5975 64.476 39.9035 64.557 40.2575 64.557C40.6715 64.557 41.0045 64.431 41.2565 64.179C41.5145 63.927 41.6435 63.561 41.6435 63.081V62.253C41.4695 62.487 41.2325 62.685 40.9325 62.847C40.6385 63.003 40.3025 63.081 39.9245 63.081C39.4925 63.081 39.0965 62.973 38.7365 62.757C38.3825 62.535 38.1005 62.229 37.8905 61.839C37.6865 61.443 37.5845 60.996 37.5845 60.498C37.5845 60 37.6865 59.559 37.8905 59.175C38.1005 58.791 38.3825 58.494 38.7365 58.284C39.0965 58.068 39.4925 57.96 39.9245 57.96ZM41.6435 60.516C41.6435 60.174 41.5715 59.877 41.4275 59.625C41.2895 59.373 41.1065 59.181 40.8785 59.049C40.6505 58.917 40.4045 58.851 40.1405 58.851C39.8765 58.851 39.6305 58.917 39.4025 59.049C39.1745 59.175 38.9885 59.364 38.8445 59.616C38.7065 59.862 38.6375 60.156 38.6375 60.498C38.6375 60.84 38.7065 61.14 38.8445 61.398C38.9885 61.656 39.1745 61.854 39.4025 61.992C39.6365 62.124 39.8825 62.19 40.1405 62.19C40.4045 62.19 40.6505 62.124 40.8785 61.992C41.1065 61.86 41.2895 61.668 41.4275 61.416C41.5715 61.158 41.6435 60.858 41.6435 60.516ZM47.39 57.573V59.409H49.55V60.246H47.39V62.163H49.82V63H46.364V56.736H49.82V57.573H47.39ZM50.7417 60.498C50.7417 60 50.8437 59.559 51.0477 59.175C51.2577 58.791 51.5397 58.494 51.8937 58.284C52.2537 58.068 52.6527 57.96 53.0907 57.96C53.4747 57.96 53.8137 58.038 54.1077 58.194C54.4077 58.35 54.6387 58.539 54.8007 58.761V58.041H55.8357V65.358H54.8007V62.28C54.6387 62.502 54.4047 62.691 54.0987 62.847C53.7927 63.003 53.4447 63.081 53.0547 63.081C52.6287 63.081 52.2387 62.973 51.8847 62.757C51.5367 62.535 51.2577 62.229 51.0477 61.839C50.8437 61.443 50.7417 60.996 50.7417 60.498ZM54.8007 60.516C54.8007 60.174 54.7287 59.877 54.5847 59.625C54.4467 59.373 54.2637 59.181 54.0357 59.049C53.8077 58.917 53.5617 58.851 53.2977 58.851C53.0337 58.851 52.7877 58.917 52.5597 59.049C52.3317 59.175 52.1457 59.364 52.0017 59.616C51.8637 59.862 51.7947 60.156 51.7947 60.498C51.7947 60.84 51.8637 61.14 52.0017 61.398C52.1457 61.656 52.3317 61.854 52.5597 61.992C52.7937 62.124 53.0397 62.19 53.2977 62.19C53.5617 62.19 53.8077 62.124 54.0357 61.992C54.2637 61.86 54.4467 61.668 54.5847 61.416C54.7287 61.158 54.8007 60.858 54.8007 60.516ZM61.6743 58.041V63H60.6483V62.415C60.4863 62.619 60.2733 62.781 60.0093 62.901C59.7513 63.015 59.4753 63.072 59.1813 63.072C58.7913 63.072 58.4403 62.991 58.1283 62.829C57.8223 62.667 57.5793 62.427 57.3993 62.109C57.2253 61.791 57.1383 61.407 57.1383 60.957V58.041H58.1553V60.804C58.1553 61.248 58.2663 61.59 58.4883 61.83C58.7103 62.064 59.0133 62.181 59.3973 62.181C59.7813 62.181 60.0843 62.064 60.3063 61.83C60.5343 61.59 60.6483 61.248 60.6483 60.804V58.041H61.6743ZM62.686 60.498C62.686 60 62.788 59.559 62.992 59.175C63.202 58.791 63.484 58.494 63.838 58.284C64.198 58.068 64.594 57.96 65.026 57.96C65.416 57.96 65.755 58.038 66.043 58.194C66.337 58.344 66.571 58.533 66.745 58.761V58.041H67.78V63H66.745V62.262C66.571 62.496 66.334 62.691 66.034 62.847C65.734 63.003 65.392 63.081 65.008 63.081C64.582 63.081 64.192 62.973 63.838 62.757C63.484 62.535 63.202 62.229 62.992 61.839C62.788 61.443 62.686 60.996 62.686 60.498ZM66.745 60.516C66.745 60.174 66.673 59.877 66.529 59.625C66.391 59.373 66.208 59.181 65.98 59.049C65.752 58.917 65.506 58.851 65.242 58.851C64.978 58.851 64.732 58.917 64.504 59.049C64.276 59.175 64.09 59.364 63.946 59.616C63.808 59.862 63.739 60.156 63.739 60.498C63.739 60.84 63.808 61.14 63.946 61.398C64.09 61.656 64.276 61.854 64.504 61.992C64.738 62.124 64.984 62.19 65.242 62.19C65.506 62.19 65.752 62.124 65.98 61.992C66.208 61.86 66.391 61.668 66.529 61.416C66.673 61.158 66.745 60.858 66.745 60.516ZM70.1536 56.34V63H69.1276V56.34H70.1536ZM72.0227 57.384C71.8367 57.384 71.6807 57.321 71.5547 57.195C71.4287 57.069 71.3657 56.913 71.3657 56.727C71.3657 56.541 71.4287 56.385 71.5547 56.259C71.6807 56.133 71.8367 56.07 72.0227 56.07C72.2027 56.07 72.3557 56.133 72.4817 56.259C72.6077 56.385 72.6707 56.541 72.6707 56.727C72.6707 56.913 72.6077 57.069 72.4817 57.195C72.3557 57.321 72.2027 57.384 72.0227 57.384ZM72.5267 58.041V63H71.5007V58.041H72.5267ZM74.7827 62.163H77.0327V63H73.5947V62.163L75.8537 58.878H73.5947V58.041H77.0327V58.878L74.7827 62.163ZM82.6551 60.399C82.6551 60.585 82.6431 60.753 82.6191 60.903H78.8301C78.8601 61.299 79.0071 61.617 79.2711 61.857C79.5351 62.097 79.8591 62.217 80.2431 62.217C80.7951 62.217 81.1851 61.986 81.4131 61.524H82.5201C82.3701 61.98 82.0971 62.355 81.7011 62.649C81.3111 62.937 80.8251 63.081 80.2431 63.081C79.7691 63.081 79.3431 62.976 78.9651 62.766C78.5931 62.55 78.2991 62.25 78.0831 61.866C77.8731 61.476 77.7681 61.026 77.7681 60.516C77.7681 60.006 77.8701 59.559 78.0741 59.175C78.2841 58.785 78.5751 58.485 78.9471 58.275C79.3251 58.065 79.7571 57.96 80.2431 57.96C80.7111 57.96 81.1281 58.062 81.4941 58.266C81.8601 58.47 82.1451 58.758 82.3491 59.13C82.5531 59.496 82.6551 59.919 82.6551 60.399ZM81.5841 60.075C81.5781 59.697 81.4431 59.394 81.1791 59.166C80.9151 58.938 80.5881 58.824 80.1981 58.824C79.8441 58.824 79.5411 58.938 79.2891 59.166C79.0371 59.388 78.8871 59.691 78.8391 60.075H81.5841ZM84.6907 58.761C84.8407 58.509 85.0387 58.314 85.2847 58.176C85.5367 58.032 85.8337 57.96 86.1757 57.96V59.022H85.9147C85.5127 59.022 85.2067 59.124 84.9967 59.328C84.7927 59.532 84.6907 59.886 84.6907 60.39V63H83.6647V58.041H84.6907V58.761Z"></path>
</svg>
