<svg xmlns="http://www.w3.org/2000/svg" fill="none" viewBox="0 0 480 360" height="360" width="480">
<path fill="white" d="M201.015 213.712H204.305V215H199.419V205.27H201.015V213.712ZM208.986 215.126C208.258 215.126 207.6 214.963 207.012 214.636C206.424 214.3 205.962 213.833 205.626 213.236C205.29 212.629 205.122 211.929 205.122 211.136C205.122 210.352 205.295 209.657 205.64 209.05C205.985 208.443 206.457 207.977 207.054 207.65C207.651 207.323 208.319 207.16 209.056 207.16C209.793 207.16 210.461 207.323 211.058 207.65C211.655 207.977 212.127 208.443 212.472 209.05C212.817 209.657 212.99 210.352 212.99 211.136C212.99 211.92 212.813 212.615 212.458 213.222C212.103 213.829 211.618 214.3 211.002 214.636C210.395 214.963 209.723 215.126 208.986 215.126ZM208.986 213.74C209.397 213.74 209.779 213.642 210.134 213.446C210.498 213.25 210.792 212.956 211.016 212.564C211.24 212.172 211.352 211.696 211.352 211.136C211.352 210.576 211.245 210.105 211.03 209.722C210.815 209.33 210.531 209.036 210.176 208.84C209.821 208.644 209.439 208.546 209.028 208.546C208.617 208.546 208.235 208.644 207.88 208.84C207.535 209.036 207.259 209.33 207.054 209.722C206.849 210.105 206.746 210.576 206.746 211.136C206.746 211.967 206.956 212.611 207.376 213.068C207.805 213.516 208.342 213.74 208.986 213.74ZM217.676 207.16C218.273 207.16 218.8 207.281 219.258 207.524C219.724 207.757 220.088 208.051 220.35 208.406V207.286H221.96V215.126C221.96 215.835 221.81 216.465 221.512 217.016C221.213 217.576 220.779 218.015 220.21 218.332C219.65 218.649 218.978 218.808 218.194 218.808C217.148 218.808 216.28 218.561 215.59 218.066C214.899 217.581 214.507 216.918 214.414 216.078H215.996C216.117 216.479 216.374 216.801 216.766 217.044C217.167 217.296 217.643 217.422 218.194 217.422C218.838 217.422 219.356 217.226 219.748 216.834C220.149 216.442 220.35 215.873 220.35 215.126V213.838C220.079 214.202 219.71 214.51 219.244 214.762C218.786 215.005 218.264 215.126 217.676 215.126C217.004 215.126 216.388 214.958 215.828 214.622C215.277 214.277 214.838 213.801 214.512 213.194C214.194 212.578 214.036 211.883 214.036 211.108C214.036 210.333 214.194 209.647 214.512 209.05C214.838 208.453 215.277 207.991 215.828 207.664C216.388 207.328 217.004 207.16 217.676 207.16ZM220.35 211.136C220.35 210.604 220.238 210.142 220.014 209.75C219.799 209.358 219.514 209.059 219.16 208.854C218.805 208.649 218.422 208.546 218.012 208.546C217.601 208.546 217.218 208.649 216.864 208.854C216.509 209.05 216.22 209.344 215.996 209.736C215.781 210.119 215.674 210.576 215.674 211.108C215.674 211.64 215.781 212.107 215.996 212.508C216.22 212.909 216.509 213.217 216.864 213.432C217.228 213.637 217.61 213.74 218.012 213.74C218.422 213.74 218.805 213.637 219.16 213.432C219.514 213.227 219.799 212.928 220.014 212.536C220.238 212.135 220.35 211.668 220.35 211.136ZM227.164 207.16C227.761 207.16 228.289 207.281 228.746 207.524C229.213 207.757 229.577 208.051 229.838 208.406V207.286H231.448V215.126C231.448 215.835 231.299 216.465 231 217.016C230.701 217.576 230.267 218.015 229.698 218.332C229.138 218.649 228.466 218.808 227.682 218.808C226.637 218.808 225.769 218.561 225.078 218.066C224.387 217.581 223.995 216.918 223.902 216.078H225.484C225.605 216.479 225.862 216.801 226.254 217.044C226.655 217.296 227.131 217.422 227.682 217.422C228.326 217.422 228.844 217.226 229.236 216.834C229.637 216.442 229.838 215.873 229.838 215.126V213.838C229.567 214.202 229.199 214.51 228.732 214.762C228.275 215.005 227.752 215.126 227.164 215.126C226.492 215.126 225.876 214.958 225.316 214.622C224.765 214.277 224.327 213.801 224 213.194C223.683 212.578 223.524 211.883 223.524 211.108C223.524 210.333 223.683 209.647 224 209.05C224.327 208.453 224.765 207.991 225.316 207.664C225.876 207.328 226.492 207.16 227.164 207.16ZM229.838 211.136C229.838 210.604 229.726 210.142 229.502 209.75C229.287 209.358 229.003 209.059 228.648 208.854C228.293 208.649 227.911 208.546 227.5 208.546C227.089 208.546 226.707 208.649 226.352 208.854C225.997 209.05 225.708 209.344 225.484 209.736C225.269 210.119 225.162 210.576 225.162 211.108C225.162 211.64 225.269 212.107 225.484 212.508C225.708 212.909 225.997 213.217 226.352 213.432C226.716 213.637 227.099 213.74 227.5 213.74C227.911 213.74 228.293 213.637 228.648 213.432C229.003 213.227 229.287 212.928 229.502 212.536C229.726 212.135 229.838 211.668 229.838 211.136ZM234.356 206.264C234.067 206.264 233.824 206.166 233.628 205.97C233.432 205.774 233.334 205.531 233.334 205.242C233.334 204.953 233.432 204.71 233.628 204.514C233.824 204.318 234.067 204.22 234.356 204.22C234.636 204.22 234.874 204.318 235.07 204.514C235.266 204.71 235.364 204.953 235.364 205.242C235.364 205.531 235.266 205.774 235.07 205.97C234.874 206.166 234.636 206.264 234.356 206.264ZM235.14 207.286V215H233.544V207.286H235.14ZM241.128 207.16C241.734 207.16 242.276 207.286 242.752 207.538C243.237 207.79 243.615 208.163 243.886 208.658C244.156 209.153 244.292 209.75 244.292 210.45V215H242.71V210.688C242.71 209.997 242.537 209.47 242.192 209.106C241.846 208.733 241.375 208.546 240.778 208.546C240.18 208.546 239.704 208.733 239.35 209.106C239.004 209.47 238.832 209.997 238.832 210.688V215H237.236V207.286H238.832V208.168C239.093 207.851 239.424 207.603 239.826 207.426C240.236 207.249 240.67 207.16 241.128 207.16ZM249.435 207.16C250.033 207.16 250.56 207.281 251.017 207.524C251.484 207.757 251.848 208.051 252.109 208.406V207.286H253.719V215.126C253.719 215.835 253.57 216.465 253.271 217.016C252.973 217.576 252.539 218.015 251.969 218.332C251.409 218.649 250.737 218.808 249.953 218.808C248.908 218.808 248.04 218.561 247.349 218.066C246.659 217.581 246.267 216.918 246.173 216.078H247.755C247.877 216.479 248.133 216.801 248.525 217.044C248.927 217.296 249.403 217.422 249.953 217.422C250.597 217.422 251.115 217.226 251.507 216.834C251.909 216.442 252.109 215.873 252.109 215.126V213.838C251.839 214.202 251.47 214.51 251.003 214.762C250.546 215.005 250.023 215.126 249.435 215.126C248.763 215.126 248.147 214.958 247.587 214.622C247.037 214.277 246.598 213.801 246.271 213.194C245.954 212.578 245.795 211.883 245.795 211.108C245.795 210.333 245.954 209.647 246.271 209.05C246.598 208.453 247.037 207.991 247.587 207.664C248.147 207.328 248.763 207.16 249.435 207.16ZM252.109 211.136C252.109 210.604 251.997 210.142 251.773 209.75C251.559 209.358 251.274 209.059 250.919 208.854C250.565 208.649 250.182 208.546 249.771 208.546C249.361 208.546 248.978 208.649 248.623 208.854C248.269 209.05 247.979 209.344 247.755 209.736C247.541 210.119 247.433 210.576 247.433 211.108C247.433 211.64 247.541 212.107 247.755 212.508C247.979 212.909 248.269 213.217 248.623 213.432C248.987 213.637 249.37 213.74 249.771 213.74C250.182 213.74 250.565 213.637 250.919 213.432C251.274 213.227 251.559 212.928 251.773 212.536C251.997 212.135 252.109 211.668 252.109 211.136ZM262.798 215.126C262.07 215.126 261.412 214.963 260.824 214.636C260.236 214.3 259.774 213.833 259.438 213.236C259.102 212.629 258.934 211.929 258.934 211.136C258.934 210.352 259.107 209.657 259.452 209.05C259.798 208.443 260.269 207.977 260.866 207.65C261.464 207.323 262.131 207.16 262.868 207.16C263.606 207.16 264.273 207.323 264.87 207.65C265.468 207.977 265.939 208.443 266.284 209.05C266.63 209.657 266.802 210.352 266.802 211.136C266.802 211.92 266.625 212.615 266.27 213.222C265.916 213.829 265.43 214.3 264.814 214.636C264.208 214.963 263.536 215.126 262.798 215.126ZM262.798 213.74C263.209 213.74 263.592 213.642 263.946 213.446C264.31 213.25 264.604 212.956 264.828 212.564C265.052 212.172 265.164 211.696 265.164 211.136C265.164 210.576 265.057 210.105 264.842 209.722C264.628 209.33 264.343 209.036 263.988 208.84C263.634 208.644 263.251 208.546 262.84 208.546C262.43 208.546 262.047 208.644 261.692 208.84C261.347 209.036 261.072 209.33 260.866 209.722C260.661 210.105 260.558 210.576 260.558 211.136C260.558 211.967 260.768 212.611 261.188 213.068C261.618 213.516 262.154 213.74 262.798 213.74ZM275.366 207.286V215H273.77V214.09C273.518 214.407 273.187 214.659 272.776 214.846C272.375 215.023 271.945 215.112 271.488 215.112C270.881 215.112 270.335 214.986 269.85 214.734C269.374 214.482 268.996 214.109 268.716 213.614C268.445 213.119 268.31 212.522 268.31 211.822V207.286H269.892V211.584C269.892 212.275 270.065 212.807 270.41 213.18C270.755 213.544 271.227 213.726 271.824 213.726C272.421 213.726 272.893 213.544 273.238 213.18C273.593 212.807 273.77 212.275 273.77 211.584V207.286H275.366ZM279.334 208.588V212.858C279.334 213.147 279.399 213.357 279.53 213.488C279.67 213.609 279.903 213.67 280.23 213.67H281.21V215H279.95C279.231 215 278.681 214.832 278.298 214.496C277.915 214.16 277.724 213.614 277.724 212.858V208.588H276.814V207.286H277.724V205.368H279.334V207.286H281.21V208.588H279.334Z"></path>
</svg>
