<svg version="1.1" xmlns="http://www.w3.org/2000/svg" xmlns:xlink="http://www.w3.org/1999/xlink" width="40" height="20" viewBox="0,0,40,20"><g transform="translate(-220,-167)"><g data-paper-data="{&quot;isPaintingLayer&quot;:true}" fill-rule="nonzero" stroke="none" stroke-width="1" stroke-linecap="butt" stroke-linejoin="miter" stroke-miterlimit="10" stroke-dasharray="" stroke-dashoffset="0" style="mix-blend-mode: normal"><path d="M220,187v-20h40v20z" fill="none"></path><path d="M245.436,178.836c0.504,0 0.944,-0.104 1.32,-0.312c0.384,-0.216 0.684,-0.532 0.9,-0.948h1.644c-0.312,0.8 -0.812,1.416 -1.5,1.848c-0.688,0.432 -1.476,0.648 -2.364,0.648c-0.936,0 -1.768,-0.252 -2.496,-0.756c-0.728,-0.512 -1.236,-1.192 -1.524,-2.04h-1.104v-0.936h0.888c-0.016,-0.224 -0.024,-0.4 -0.024,-0.528c0,-0.128 0.008,-0.304 0.024,-0.528h-0.888v-0.936h1.104c0.288,-0.848 0.796,-1.524 1.524,-2.028c0.728,-0.512 1.56,-0.768 2.496,-0.768c0.88,0 1.664,0.22 2.352,0.66c0.696,0.432 1.2,1.048 1.512,1.848h-1.644c-0.216,-0.416 -0.516,-0.728 -0.9,-0.936c-0.376,-0.216 -0.816,-0.324 -1.32,-0.324c-0.584,0 -1.1,0.136 -1.548,0.408c-0.44,0.272 -0.776,0.652 -1.008,1.14h2.556v0.936h-2.82c-0.024,0.168 -0.036,0.344 -0.036,0.528c0,0.184 0.012,0.36 0.036,0.528h2.82v0.936h-2.556c0.232,0.496 0.568,0.88 1.008,1.152c0.448,0.272 0.964,0.408 1.548,0.408z" fill="#ff0000"></path></g></g></svg>