<svg xmlns="http://www.w3.org/2000/svg" fill="none" viewBox="0 0 480 360" height="360" width="480">
<path fill="black" d="M190.336 185H188.512L183.024 176.696V185H181.2V173.864H183.024L188.512 182.152V173.864H190.336V185ZM196.555 185.144C195.723 185.144 194.971 184.957 194.299 184.584C193.627 184.2 193.099 183.667 192.715 182.984C192.331 182.291 192.139 181.491 192.139 180.584C192.139 179.688 192.337 178.893 192.731 178.2C193.126 177.507 193.665 176.973 194.347 176.6C195.03 176.227 195.793 176.04 196.635 176.04C197.478 176.04 198.241 176.227 198.923 176.6C199.606 176.973 200.145 177.507 200.539 178.2C200.934 178.893 201.131 179.688 201.131 180.584C201.131 181.48 200.929 182.275 200.523 182.968C200.118 183.661 199.563 184.2 198.859 184.584C198.166 184.957 197.398 185.144 196.555 185.144ZM196.555 183.56C197.025 183.56 197.462 183.448 197.867 183.224C198.283 183 198.619 182.664 198.875 182.216C199.131 181.768 199.259 181.224 199.259 180.584C199.259 179.944 199.137 179.405 198.891 178.968C198.646 178.52 198.321 178.184 197.915 177.96C197.51 177.736 197.073 177.624 196.603 177.624C196.134 177.624 195.697 177.736 195.291 177.96C194.897 178.184 194.582 178.52 194.347 178.968C194.113 179.405 193.995 179.944 193.995 180.584C193.995 181.533 194.235 182.269 194.715 182.792C195.206 183.304 195.819 183.56 196.555 183.56ZM205.062 177.672V182.552C205.062 182.883 205.137 183.123 205.286 183.272C205.446 183.411 205.713 183.48 206.086 183.48H207.206V185H205.766C204.945 185 204.316 184.808 203.878 184.424C203.441 184.04 203.222 183.416 203.222 182.552V177.672H202.182V176.184H203.222V173.992H205.062V176.184H207.206V177.672H205.062ZM216.968 180.376C216.968 180.707 216.946 181.005 216.904 181.272H210.168C210.221 181.976 210.482 182.541 210.952 182.968C211.421 183.395 211.997 183.608 212.68 183.608C213.661 183.608 214.354 183.197 214.76 182.376H216.727C216.461 183.187 215.976 183.853 215.272 184.376C214.578 184.888 213.714 185.144 212.68 185.144C211.837 185.144 211.08 184.957 210.408 184.584C209.746 184.2 209.224 183.667 208.84 182.984C208.466 182.291 208.28 181.491 208.28 180.584C208.28 179.677 208.461 178.883 208.824 178.2C209.197 177.507 209.714 176.973 210.376 176.6C211.048 176.227 211.816 176.04 212.68 176.04C213.512 176.04 214.253 176.221 214.904 176.584C215.554 176.947 216.061 177.459 216.424 178.12C216.786 178.771 216.968 179.523 216.968 180.376ZM215.064 179.8C215.053 179.128 214.813 178.589 214.344 178.184C213.874 177.779 213.293 177.576 212.6 177.576C211.97 177.576 211.432 177.779 210.984 178.184C210.536 178.579 210.269 179.117 210.184 179.8H215.064ZM220.587 177.48C220.896 177.075 221.317 176.733 221.851 176.456C222.384 176.179 222.987 176.04 223.659 176.04C224.427 176.04 225.125 176.232 225.755 176.616C226.395 176.989 226.896 177.517 227.259 178.2C227.621 178.883 227.803 179.667 227.803 180.552C227.803 181.437 227.621 182.232 227.259 182.936C226.896 183.629 226.395 184.173 225.755 184.568C225.125 184.952 224.427 185.144 223.659 185.144C222.987 185.144 222.389 185.011 221.867 184.744C221.344 184.467 220.917 184.125 220.587 183.72V189.192H218.763V176.184H220.587V177.48ZM225.947 180.552C225.947 179.944 225.819 179.421 225.562 178.984C225.317 178.536 224.987 178.2 224.571 177.976C224.165 177.741 223.728 177.624 223.259 177.624C222.8 177.624 222.363 177.741 221.947 177.976C221.541 178.211 221.211 178.552 220.955 179C220.709 179.448 220.587 179.976 220.587 180.584C220.587 181.192 220.709 181.725 220.955 182.184C221.211 182.632 221.541 182.973 221.947 183.208C222.363 183.443 222.8 183.56 223.259 183.56C223.728 183.56 224.165 183.443 224.571 183.208C224.987 182.963 225.317 182.611 225.562 182.152C225.819 181.693 225.947 181.16 225.947 180.552ZM228.998 180.552C228.998 179.667 229.18 178.883 229.542 178.2C229.916 177.517 230.417 176.989 231.046 176.616C231.686 176.232 232.39 176.04 233.158 176.04C233.852 176.04 234.454 176.179 234.966 176.456C235.489 176.723 235.905 177.059 236.214 177.464V176.184H238.054V185H236.214V183.688C235.905 184.104 235.484 184.451 234.95 184.728C234.417 185.005 233.809 185.144 233.126 185.144C232.369 185.144 231.676 184.952 231.046 184.568C230.417 184.173 229.916 183.629 229.542 182.936C229.18 182.232 228.998 181.437 228.998 180.552ZM236.214 180.584C236.214 179.976 236.086 179.448 235.83 179C235.585 178.552 235.26 178.211 234.854 177.976C234.449 177.741 234.012 177.624 233.542 177.624C233.073 177.624 232.636 177.741 232.23 177.976C231.825 178.2 231.494 178.536 231.238 178.984C230.993 179.421 230.87 179.944 230.87 180.552C230.87 181.16 230.993 181.693 231.238 182.152C231.494 182.611 231.825 182.963 232.23 183.208C232.646 183.443 233.084 183.56 233.542 183.56C234.012 183.56 234.449 183.443 234.854 183.208C235.26 182.973 235.585 182.632 235.83 182.184C236.086 181.725 236.214 181.192 236.214 180.584ZM239.842 180.552C239.842 179.667 240.023 178.883 240.386 178.2C240.759 177.517 241.261 176.989 241.89 176.616C242.53 176.232 243.239 176.04 244.018 176.04C244.594 176.04 245.159 176.168 245.714 176.424C246.279 176.669 246.727 177 247.058 177.416V173.16H248.898V185H247.058V183.672C246.759 184.099 246.343 184.451 245.81 184.728C245.287 185.005 244.685 185.144 244.002 185.144C243.234 185.144 242.53 184.952 241.89 184.568C241.261 184.173 240.759 183.629 240.386 182.936C240.023 182.232 239.842 181.437 239.842 180.552ZM247.058 180.584C247.058 179.976 246.93 179.448 246.674 179C246.429 178.552 246.103 178.211 245.698 177.976C245.293 177.741 244.855 177.624 244.386 177.624C243.917 177.624 243.479 177.741 243.074 177.976C242.669 178.2 242.338 178.536 242.082 178.984C241.837 179.421 241.714 179.944 241.714 180.552C241.714 181.16 241.837 181.693 242.082 182.152C242.338 182.611 242.669 182.963 243.074 183.208C243.49 183.443 243.927 183.56 244.386 183.56C244.855 183.56 245.293 183.443 245.698 183.208C246.103 182.973 246.429 182.632 246.674 182.184C246.93 181.725 247.058 181.192 247.058 180.584Z"></path>
<path fill="#0076B3" d="M184.994 198.355V203.866C184.994 204.548 184.785 205.087 184.367 205.483C183.956 205.879 183.414 206.077 182.739 206.077C182.064 206.077 181.518 205.879 181.1 205.483C180.689 205.087 180.484 204.548 180.484 203.866H181.749C181.756 204.203 181.841 204.471 182.002 204.669C182.171 204.867 182.416 204.966 182.739 204.966C183.062 204.966 183.307 204.867 183.476 204.669C183.645 204.464 183.729 204.196 183.729 203.866V198.355H184.994ZM188.288 197.86V206H187.034V197.86H188.288ZM192.563 206.099C191.991 206.099 191.474 205.971 191.012 205.714C190.55 205.45 190.187 205.083 189.923 204.614C189.659 204.137 189.527 203.587 189.527 202.964C189.527 202.348 189.663 201.802 189.934 201.325C190.206 200.848 190.576 200.482 191.045 200.225C191.515 199.968 192.039 199.84 192.618 199.84C193.198 199.84 193.722 199.968 194.191 200.225C194.661 200.482 195.031 200.848 195.302 201.325C195.574 201.802 195.709 202.348 195.709 202.964C195.709 203.58 195.57 204.126 195.291 204.603C195.013 205.08 194.631 205.45 194.147 205.714C193.671 205.971 193.143 206.099 192.563 206.099ZM192.563 205.01C192.886 205.01 193.187 204.933 193.465 204.779C193.751 204.625 193.982 204.394 194.158 204.086C194.334 203.778 194.422 203.404 194.422 202.964C194.422 202.524 194.338 202.154 194.169 201.853C194.001 201.545 193.777 201.314 193.498 201.16C193.22 201.006 192.919 200.929 192.596 200.929C192.274 200.929 191.973 201.006 191.694 201.16C191.423 201.314 191.207 201.545 191.045 201.853C190.884 202.154 190.803 202.524 190.803 202.964C190.803 203.617 190.968 204.123 191.298 204.482C191.636 204.834 192.057 205.01 192.563 205.01ZM201.558 204.438H198.357L197.807 206H196.498L199.237 198.344H200.689L203.428 206H202.108L201.558 204.438ZM201.206 203.415L199.963 199.862L198.709 203.415H201.206ZM210.108 199.939V206H208.854V205.285C208.656 205.534 208.396 205.732 208.073 205.879C207.758 206.018 207.42 206.088 207.061 206.088C206.584 206.088 206.155 205.989 205.774 205.791C205.4 205.593 205.103 205.3 204.883 204.911C204.67 204.522 204.564 204.053 204.564 203.503V199.939H205.807V203.316C205.807 203.859 205.943 204.277 206.214 204.57C206.485 204.856 206.856 204.999 207.325 204.999C207.794 204.999 208.165 204.856 208.436 204.57C208.715 204.277 208.854 203.859 208.854 203.316V199.939H210.108Z"></path>
<rect fill="url(#paint0_linear_930_2)" rx="3.2" height="12.8" width="28.8" y="196.4" x="105.601"></rect>
<rect fill="url(#paint1_linear_930_2)" rx="3.2" height="12.8" width="28.8" y="193.2" x="105.601"></rect>
<rect fill="url(#paint2_linear_930_2)" rx="3.2" height="30.4" width="28.8" y="172.4" x="105.601"></rect>
<rect fill="#057093" rx="1.6" height="4.8" width="3.2" y="170.8" x="108.801"></rect>
<rect fill="#057093" rx="1.6" height="4.8" width="3.2" y="170.8" x="115.2"></rect>
<rect fill="#057093" rx="1.6" height="4.8" width="3.2" y="170.8" x="121.601"></rect>
<rect fill="#057093" rx="1.6" height="4.8" width="3.2" y="170.8" x="128.001"></rect>
<rect fill="#057093" rx="1.6" height="3.2" width="19.2" y="180.4" x="110.4"></rect>
<rect fill="#057093" rx="1.6" height="3.2" width="19.2" y="186.8" x="110.4"></rect>
<rect fill="#057093" rx="1.6" height="3.2" width="19.2" y="193.2" x="110.4"></rect>
<path fill-opacity="0.9" fill="#D9D9D9" d="M60 310C60 304.477 64.4772 300 70 300H460C465.523 300 470 304.477 470 310V340C470 345.523 465.523 350 460 350H70C64.4771 350 60 345.523 60 340V310Z"></path>
<path stroke-opacity="0.2" stroke="white" d="M460 299.5H70C64.201 299.5 59.5 304.201 59.5 310V340C59.5 345.799 64.201 350.5 70 350.5H460C465.799 350.5 470.5 345.799 470.5 340V310C470.5 304.201 465.799 299.5 460 299.5Z"></path>
<path fill="black" d="M82.7375 316.367V318.611H85.3775V319.634H82.7375V321.977H85.7075V323H81.4835V315.344H85.7075V316.367H82.7375ZM86.8341 319.942C86.8341 319.333 86.9587 318.794 87.2081 318.325C87.4647 317.856 87.8094 317.493 88.2421 317.236C88.6821 316.972 89.1697 316.84 89.7051 316.84C90.1011 316.84 90.4897 316.928 90.8711 317.104C91.2597 317.273 91.5677 317.5 91.7951 317.786V314.86H93.0601V323H91.7951V322.087C91.5897 322.38 91.3037 322.622 90.9371 322.813C90.5777 323.004 90.1634 323.099 89.6941 323.099C89.1661 323.099 88.6821 322.967 88.2421 322.703C87.8094 322.432 87.4647 322.058 87.2081 321.581C86.9587 321.097 86.8341 320.551 86.8341 319.942ZM91.7951 319.964C91.7951 319.546 91.7071 319.183 91.5311 318.875C91.3624 318.567 91.1387 318.332 90.8601 318.171C90.5814 318.01 90.2807 317.929 89.9581 317.929C89.6354 317.929 89.3347 318.01 89.0561 318.171C88.7774 318.325 88.5501 318.556 88.3741 318.864C88.2054 319.165 88.1211 319.524 88.1211 319.942C88.1211 320.36 88.2054 320.727 88.3741 321.042C88.5501 321.357 88.7774 321.599 89.0561 321.768C89.3421 321.929 89.6427 322.01 89.9581 322.01C90.2807 322.01 90.5814 321.929 90.8601 321.768C91.1387 321.607 91.3624 321.372 91.5311 321.064C91.7071 320.749 91.7951 320.382 91.7951 319.964ZM95.3451 316.136C95.1178 316.136 94.9271 316.059 94.7731 315.905C94.6191 315.751 94.5421 315.56 94.5421 315.333C94.5421 315.106 94.6191 314.915 94.7731 314.761C94.9271 314.607 95.1178 314.53 95.3451 314.53C95.5651 314.53 95.7521 314.607 95.9061 314.761C96.0601 314.915 96.1371 315.106 96.1371 315.333C96.1371 315.56 96.0601 315.751 95.9061 315.905C95.7521 316.059 95.5651 316.136 95.3451 316.136ZM95.9611 316.939V323H94.7071V316.939H95.9611ZM99.0705 317.962V321.317C99.0705 321.544 99.1219 321.709 99.2245 321.812C99.3345 321.907 99.5179 321.955 99.7745 321.955H100.545V323H99.5545C98.9899 323 98.5572 322.868 98.2565 322.604C97.9559 322.34 97.8055 321.911 97.8055 321.317V317.962H97.0905V316.939H97.8055V315.432H99.0705V316.939H100.545V317.962H99.0705ZM106.021 317.962V321.317C106.021 321.544 106.072 321.709 106.175 321.812C106.285 321.907 106.468 321.955 106.725 321.955H107.495V323H106.505C105.94 323 105.507 322.868 105.207 322.604C104.906 322.34 104.756 321.911 104.756 321.317V317.962H104.041V316.939H104.756V315.432H106.021V316.939H107.495V317.962H106.021ZM114.206 319.821C114.206 320.048 114.191 320.254 114.162 320.437H109.531C109.567 320.921 109.747 321.31 110.07 321.603C110.392 321.896 110.788 322.043 111.258 322.043C111.932 322.043 112.409 321.761 112.688 321.196H114.041C113.857 321.753 113.524 322.212 113.04 322.571C112.563 322.923 111.969 323.099 111.258 323.099C110.678 323.099 110.158 322.971 109.696 322.714C109.241 322.45 108.882 322.083 108.618 321.614C108.361 321.137 108.233 320.587 108.233 319.964C108.233 319.341 108.357 318.794 108.607 318.325C108.863 317.848 109.219 317.482 109.674 317.225C110.136 316.968 110.664 316.84 111.258 316.84C111.83 316.84 112.339 316.965 112.787 317.214C113.234 317.463 113.582 317.815 113.832 318.27C114.081 318.717 114.206 319.234 114.206 319.821ZM112.897 319.425C112.889 318.963 112.724 318.593 112.402 318.314C112.079 318.035 111.679 317.896 111.203 317.896C110.77 317.896 110.4 318.035 110.092 318.314C109.784 318.585 109.6 318.956 109.542 319.425H112.897ZM118.036 319.931L119.994 323H118.575L117.266 320.943L116.034 323H114.725L116.683 320.019L114.725 316.939H116.144L117.453 318.996L118.685 316.939H119.994L118.036 319.931ZM122.392 317.962V321.317C122.392 321.544 122.443 321.709 122.546 321.812C122.656 321.907 122.839 321.955 123.096 321.955H123.866V323H122.876C122.311 323 121.878 322.868 121.578 322.604C121.277 322.34 121.127 321.911 121.127 321.317V317.962H120.412V316.939H121.127V315.432H122.392V316.939H123.866V317.962H122.392ZM130.42 317.962H129.298V323H128.033V317.962H127.318V316.939H128.033V316.51C128.033 315.813 128.216 315.307 128.583 314.992C128.957 314.669 129.54 314.508 130.332 314.508V315.553C129.951 315.553 129.683 315.626 129.529 315.773C129.375 315.912 129.298 316.158 129.298 316.51V316.939H130.42V317.962ZM132.169 316.136C131.942 316.136 131.751 316.059 131.597 315.905C131.443 315.751 131.366 315.56 131.366 315.333C131.366 315.106 131.443 314.915 131.597 314.761C131.751 314.607 131.942 314.53 132.169 314.53C132.389 314.53 132.576 314.607 132.73 314.761C132.884 314.915 132.961 315.106 132.961 315.333C132.961 315.56 132.884 315.751 132.73 315.905C132.576 316.059 132.389 316.136 132.169 316.136ZM132.785 316.939V323H131.531V316.939H132.785ZM135.686 314.86V323H134.432V314.86H135.686ZM142.887 319.821C142.887 320.048 142.872 320.254 142.843 320.437H138.212C138.249 320.921 138.428 321.31 138.751 321.603C139.074 321.896 139.47 322.043 139.939 322.043C140.614 322.043 141.09 321.761 141.369 321.196H142.722C142.539 321.753 142.205 322.212 141.721 322.571C141.244 322.923 140.65 323.099 139.939 323.099C139.36 323.099 138.839 322.971 138.377 322.714C137.922 322.45 137.563 322.083 137.299 321.614C137.042 321.137 136.914 320.587 136.914 319.964C136.914 319.341 137.039 318.794 137.288 318.325C137.545 317.848 137.9 317.482 138.355 317.225C138.817 316.968 139.345 316.84 139.939 316.84C140.511 316.84 141.021 316.965 141.468 317.214C141.915 317.463 142.264 317.815 142.513 318.27C142.762 318.717 142.887 319.234 142.887 319.821ZM141.578 319.425C141.571 318.963 141.406 318.593 141.083 318.314C140.76 318.035 140.361 317.896 139.884 317.896C139.451 317.896 139.081 318.035 138.773 318.314C138.465 318.585 138.282 318.956 138.223 319.425H141.578ZM146.321 323.099C145.845 323.099 145.416 323.015 145.034 322.846C144.66 322.67 144.363 322.435 144.143 322.142C143.923 321.841 143.806 321.508 143.791 321.141H145.089C145.111 321.398 145.232 321.614 145.452 321.79C145.68 321.959 145.962 322.043 146.299 322.043C146.651 322.043 146.923 321.977 147.113 321.845C147.311 321.706 147.41 321.53 147.41 321.317C147.41 321.09 147.3 320.921 147.08 320.811C146.868 320.701 146.527 320.58 146.057 320.448C145.603 320.323 145.232 320.202 144.946 320.085C144.66 319.968 144.411 319.788 144.198 319.546C143.993 319.304 143.89 318.985 143.89 318.589C143.89 318.266 143.986 317.973 144.176 317.709C144.367 317.438 144.638 317.225 144.99 317.071C145.35 316.917 145.76 316.84 146.222 316.84C146.912 316.84 147.465 317.016 147.883 317.368C148.309 317.713 148.536 318.186 148.565 318.787H147.311C147.289 318.516 147.179 318.299 146.981 318.138C146.783 317.977 146.516 317.896 146.178 317.896C145.848 317.896 145.595 317.958 145.419 318.083C145.243 318.208 145.155 318.373 145.155 318.578C145.155 318.739 145.214 318.875 145.331 318.985C145.449 319.095 145.592 319.183 145.76 319.249C145.929 319.308 146.178 319.385 146.508 319.48C146.948 319.597 147.308 319.718 147.586 319.843C147.872 319.96 148.118 320.136 148.323 320.371C148.529 320.606 148.635 320.917 148.642 321.306C148.642 321.651 148.547 321.959 148.356 322.23C148.166 322.501 147.894 322.714 147.542 322.868C147.198 323.022 146.791 323.099 146.321 323.099ZM160.995 316.939L159.114 323H157.794L156.573 318.523L155.352 323H154.032L152.14 316.939H153.416L154.681 321.812L155.968 316.939H157.277L158.509 321.79L159.763 316.939H160.995ZM162.57 316.136C162.342 316.136 162.152 316.059 161.998 315.905C161.844 315.751 161.767 315.56 161.767 315.333C161.767 315.106 161.844 314.915 161.998 314.761C162.152 314.607 162.342 314.53 162.57 314.53C162.79 314.53 162.977 314.607 163.131 314.761C163.285 314.915 163.362 315.106 163.362 315.333C163.362 315.56 163.285 315.751 163.131 315.905C162.977 316.059 162.79 316.136 162.57 316.136ZM163.186 316.939V323H161.932V316.939H163.186ZM166.295 317.962V321.317C166.295 321.544 166.346 321.709 166.449 321.812C166.559 321.907 166.742 321.955 166.999 321.955H167.769V323H166.779C166.214 323 165.782 322.868 165.481 322.604C165.18 322.34 165.03 321.911 165.03 321.317V317.962H164.315V316.939H165.03V315.432H166.295V316.939H167.769V317.962H166.295ZM172.06 316.84C172.522 316.84 172.933 316.939 173.292 317.137C173.659 317.335 173.945 317.628 174.15 318.017C174.363 318.406 174.469 318.875 174.469 319.425V323H173.226V319.612C173.226 319.069 173.09 318.655 172.819 318.369C172.548 318.076 172.177 317.929 171.708 317.929C171.239 317.929 170.865 318.076 170.586 318.369C170.315 318.655 170.179 319.069 170.179 319.612V323H168.925V314.86H170.179V317.643C170.392 317.386 170.659 317.188 170.982 317.049C171.312 316.91 171.671 316.84 172.06 316.84ZM185.207 323H183.953L180.18 317.291V323H178.926V315.344H180.18L183.953 321.042V315.344H185.207V323ZM189.483 323.099C188.911 323.099 188.394 322.971 187.932 322.714C187.47 322.45 187.107 322.083 186.843 321.614C186.579 321.137 186.447 320.587 186.447 319.964C186.447 319.348 186.582 318.802 186.854 318.325C187.125 317.848 187.495 317.482 187.965 317.225C188.434 316.968 188.958 316.84 189.538 316.84C190.117 316.84 190.641 316.968 191.111 317.225C191.58 317.482 191.95 317.848 192.222 318.325C192.493 318.802 192.629 319.348 192.629 319.964C192.629 320.58 192.489 321.126 192.211 321.603C191.932 322.08 191.551 322.45 191.067 322.714C190.59 322.971 190.062 323.099 189.483 323.099ZM189.483 322.01C189.805 322.01 190.106 321.933 190.385 321.779C190.671 321.625 190.902 321.394 191.078 321.086C191.254 320.778 191.342 320.404 191.342 319.964C191.342 319.524 191.257 319.154 191.089 318.853C190.92 318.545 190.696 318.314 190.418 318.16C190.139 318.006 189.838 317.929 189.516 317.929C189.193 317.929 188.892 318.006 188.614 318.16C188.342 318.314 188.126 318.545 187.965 318.853C187.803 319.154 187.723 319.524 187.723 319.964C187.723 320.617 187.888 321.123 188.218 321.482C188.555 321.834 188.977 322.01 189.483 322.01ZM195.331 317.962V321.317C195.331 321.544 195.383 321.709 195.485 321.812C195.595 321.907 195.779 321.955 196.035 321.955H196.805V323H195.815C195.251 323 194.818 322.868 194.517 322.604C194.217 322.34 194.066 321.911 194.066 321.317V317.962H193.351V316.939H194.066V315.432H195.331V316.939H196.805V317.962H195.331ZM203.516 319.821C203.516 320.048 203.501 320.254 203.472 320.437H198.841C198.878 320.921 199.057 321.31 199.38 321.603C199.703 321.896 200.099 322.043 200.568 322.043C201.243 322.043 201.719 321.761 201.998 321.196H203.351C203.168 321.753 202.834 322.212 202.35 322.571C201.873 322.923 201.279 323.099 200.568 323.099C199.989 323.099 199.468 322.971 199.006 322.714C198.551 322.45 198.192 322.083 197.928 321.614C197.671 321.137 197.543 320.587 197.543 319.964C197.543 319.341 197.668 318.794 197.917 318.325C198.174 317.848 198.529 317.482 198.984 317.225C199.446 316.968 199.974 316.84 200.568 316.84C201.14 316.84 201.65 316.965 202.097 317.214C202.544 317.463 202.893 317.815 203.142 318.27C203.391 318.717 203.516 319.234 203.516 319.821ZM202.207 319.425C202.2 318.963 202.035 318.593 201.712 318.314C201.389 318.035 200.99 317.896 200.513 317.896C200.08 317.896 199.71 318.035 199.402 318.314C199.094 318.585 198.911 318.956 198.852 319.425H202.207ZM206.004 317.83C206.217 317.551 206.506 317.317 206.873 317.126C207.24 316.935 207.654 316.84 208.116 316.84C208.644 316.84 209.124 316.972 209.557 317.236C209.997 317.493 210.342 317.856 210.591 318.325C210.84 318.794 210.965 319.333 210.965 319.942C210.965 320.551 210.84 321.097 210.591 321.581C210.342 322.058 209.997 322.432 209.557 322.703C209.124 322.967 208.644 323.099 208.116 323.099C207.654 323.099 207.243 323.007 206.884 322.824C206.525 322.633 206.231 322.399 206.004 322.12V325.882H204.75V316.939H206.004V317.83ZM209.689 319.942C209.689 319.524 209.601 319.165 209.425 318.864C209.256 318.556 209.029 318.325 208.743 318.171C208.464 318.01 208.164 317.929 207.841 317.929C207.526 317.929 207.225 318.01 206.939 318.171C206.66 318.332 206.433 318.567 206.257 318.875C206.088 319.183 206.004 319.546 206.004 319.964C206.004 320.382 206.088 320.749 206.257 321.064C206.433 321.372 206.66 321.607 206.939 321.768C207.225 321.929 207.526 322.01 207.841 322.01C208.164 322.01 208.464 321.929 208.743 321.768C209.029 321.599 209.256 321.357 209.425 321.042C209.601 320.727 209.689 320.36 209.689 319.942ZM211.787 319.942C211.787 319.333 211.912 318.794 212.161 318.325C212.418 317.856 212.763 317.493 213.195 317.236C213.635 316.972 214.119 316.84 214.647 316.84C215.124 316.84 215.538 316.935 215.89 317.126C216.25 317.309 216.536 317.54 216.748 317.819V316.939H218.013V323H216.748V322.098C216.536 322.384 216.246 322.622 215.879 322.813C215.513 323.004 215.095 323.099 214.625 323.099C214.105 323.099 213.628 322.967 213.195 322.703C212.763 322.432 212.418 322.058 212.161 321.581C211.912 321.097 211.787 320.551 211.787 319.942ZM216.748 319.964C216.748 319.546 216.66 319.183 216.484 318.875C216.316 318.567 216.092 318.332 215.813 318.171C215.535 318.01 215.234 317.929 214.911 317.929C214.589 317.929 214.288 318.01 214.009 318.171C213.731 318.325 213.503 318.556 213.327 318.864C213.159 319.165 213.074 319.524 213.074 319.942C213.074 320.36 213.159 320.727 213.327 321.042C213.503 321.357 213.731 321.599 214.009 321.768C214.295 321.929 214.596 322.01 214.911 322.01C215.234 322.01 215.535 321.929 215.813 321.768C216.092 321.607 216.316 321.372 216.484 321.064C216.66 320.749 216.748 320.382 216.748 319.964ZM219.242 319.942C219.242 319.333 219.367 318.794 219.616 318.325C219.873 317.856 220.218 317.493 220.65 317.236C221.09 316.972 221.578 316.84 222.113 316.84C222.509 316.84 222.898 316.928 223.279 317.104C223.668 317.273 223.976 317.5 224.203 317.786V314.86H225.468V323H224.203V322.087C223.998 322.38 223.712 322.622 223.345 322.813C222.986 323.004 222.572 323.099 222.102 323.099C221.574 323.099 221.09 322.967 220.65 322.703C220.218 322.432 219.873 322.058 219.616 321.581C219.367 321.097 219.242 320.551 219.242 319.942ZM224.203 319.964C224.203 319.546 224.115 319.183 223.939 318.875C223.771 318.567 223.547 318.332 223.268 318.171C222.99 318.01 222.689 317.929 222.366 317.929C222.044 317.929 221.743 318.01 221.464 318.171C221.186 318.325 220.958 318.556 220.782 318.864C220.614 319.165 220.529 319.524 220.529 319.942C220.529 320.36 220.614 320.727 220.782 321.042C220.958 321.357 221.186 321.599 221.464 321.768C221.75 321.929 222.051 322.01 222.366 322.01C222.689 322.01 222.99 321.929 223.268 321.768C223.547 321.607 223.771 321.372 223.939 321.064C224.115 320.749 224.203 320.382 224.203 319.964ZM227.621 323.077C227.394 323.077 227.203 323 227.049 322.846C226.895 322.692 226.818 322.501 226.818 322.274C226.818 322.047 226.895 321.856 227.049 321.702C227.203 321.548 227.394 321.471 227.621 321.471C227.841 321.471 228.028 321.548 228.182 321.702C228.336 321.856 228.413 322.047 228.413 322.274C228.413 322.501 228.336 322.692 228.182 322.846C228.028 323 227.841 323.077 227.621 323.077ZM238.291 315.355L235.761 320.228V323H234.507V320.228L231.966 315.355H233.363L235.134 319.106L236.905 315.355H238.291ZM241.915 323.099C241.343 323.099 240.826 322.971 240.364 322.714C239.902 322.45 239.539 322.083 239.275 321.614C239.011 321.137 238.879 320.587 238.879 319.964C238.879 319.348 239.015 318.802 239.286 318.325C239.558 317.848 239.928 317.482 240.397 317.225C240.867 316.968 241.391 316.84 241.97 316.84C242.55 316.84 243.074 316.968 243.543 317.225C244.013 317.482 244.383 317.848 244.654 318.325C244.926 318.802 245.061 319.348 245.061 319.964C245.061 320.58 244.922 321.126 244.643 321.603C244.365 322.08 243.983 322.45 243.499 322.714C243.023 322.971 242.495 323.099 241.915 323.099ZM241.915 322.01C242.238 322.01 242.539 321.933 242.817 321.779C243.103 321.625 243.334 321.394 243.51 321.086C243.686 320.778 243.774 320.404 243.774 319.964C243.774 319.524 243.69 319.154 243.521 318.853C243.353 318.545 243.129 318.314 242.85 318.16C242.572 318.006 242.271 317.929 241.948 317.929C241.626 317.929 241.325 318.006 241.046 318.16C240.775 318.314 240.559 318.545 240.397 318.853C240.236 319.154 240.155 319.524 240.155 319.964C240.155 320.617 240.32 321.123 240.65 321.482C240.988 321.834 241.409 322.01 241.915 322.01ZM251.79 316.939V323H250.536V322.285C250.338 322.534 250.078 322.732 249.755 322.879C249.44 323.018 249.102 323.088 248.743 323.088C248.266 323.088 247.837 322.989 247.456 322.791C247.082 322.593 246.785 322.3 246.565 321.911C246.352 321.522 246.246 321.053 246.246 320.503V316.939H247.489V320.316C247.489 320.859 247.625 321.277 247.896 321.57C248.167 321.856 248.538 321.999 249.007 321.999C249.476 321.999 249.847 321.856 250.118 321.57C250.397 321.277 250.536 320.859 250.536 320.316V316.939H251.79ZM255.884 319.964C255.884 319.341 256.009 318.794 256.258 318.325C256.515 317.848 256.867 317.482 257.314 317.225C257.761 316.968 258.275 316.84 258.854 316.84C259.587 316.84 260.192 317.016 260.669 317.368C261.153 317.713 261.479 318.208 261.648 318.853H260.295C260.185 318.552 260.009 318.318 259.767 318.149C259.525 317.98 259.221 317.896 258.854 317.896C258.341 317.896 257.93 318.079 257.622 318.446C257.321 318.805 257.171 319.311 257.171 319.964C257.171 320.617 257.321 321.126 257.622 321.493C257.93 321.86 258.341 322.043 258.854 322.043C259.58 322.043 260.06 321.724 260.295 321.086H261.648C261.472 321.702 261.142 322.193 260.658 322.56C260.174 322.919 259.573 323.099 258.854 323.099C258.275 323.099 257.761 322.971 257.314 322.714C256.867 322.45 256.515 322.083 256.258 321.614C256.009 321.137 255.884 320.587 255.884 319.964ZM262.48 319.942C262.48 319.333 262.604 318.794 262.854 318.325C263.11 317.856 263.455 317.493 263.888 317.236C264.328 316.972 264.812 316.84 265.34 316.84C265.816 316.84 266.231 316.935 266.583 317.126C266.942 317.309 267.228 317.54 267.441 317.819V316.939H268.706V323H267.441V322.098C267.228 322.384 266.938 322.622 266.572 322.813C266.205 323.004 265.787 323.099 265.318 323.099C264.797 323.099 264.32 322.967 263.888 322.703C263.455 322.432 263.11 322.058 262.854 321.581C262.604 321.097 262.48 320.551 262.48 319.942ZM267.441 319.964C267.441 319.546 267.353 319.183 267.177 318.875C267.008 318.567 266.784 318.332 266.506 318.171C266.227 318.01 265.926 317.929 265.604 317.929C265.281 317.929 264.98 318.01 264.702 318.171C264.423 318.325 264.196 318.556 264.02 318.864C263.851 319.165 263.767 319.524 263.767 319.942C263.767 320.36 263.851 320.727 264.02 321.042C264.196 321.357 264.423 321.599 264.702 321.768C264.988 321.929 265.288 322.01 265.604 322.01C265.926 322.01 266.227 321.929 266.506 321.768C266.784 321.607 267.008 321.372 267.177 321.064C267.353 320.749 267.441 320.382 267.441 319.964ZM273.411 316.84C273.887 316.84 274.313 316.939 274.687 317.137C275.068 317.335 275.365 317.628 275.578 318.017C275.79 318.406 275.897 318.875 275.897 319.425V323H274.654V319.612C274.654 319.069 274.518 318.655 274.247 318.369C273.975 318.076 273.605 317.929 273.136 317.929C272.666 317.929 272.292 318.076 272.014 318.369C271.742 318.655 271.607 319.069 271.607 319.612V323H270.353V316.939H271.607V317.632C271.812 317.383 272.072 317.188 272.388 317.049C272.71 316.91 273.051 316.84 273.411 316.84ZM279.936 319.964C279.936 319.341 280.06 318.794 280.31 318.325C280.566 317.848 280.918 317.482 281.366 317.225C281.813 316.968 282.326 316.84 282.906 316.84C283.639 316.84 284.244 317.016 284.721 317.368C285.205 317.713 285.531 318.208 285.7 318.853H284.347C284.237 318.552 284.061 318.318 283.819 318.149C283.577 317.98 283.272 317.896 282.906 317.896C282.392 317.896 281.982 318.079 281.674 318.446C281.373 318.805 281.223 319.311 281.223 319.964C281.223 320.617 281.373 321.126 281.674 321.493C281.982 321.86 282.392 322.043 282.906 322.043C283.632 322.043 284.112 321.724 284.347 321.086H285.7C285.524 321.702 285.194 322.193 284.71 322.56C284.226 322.919 283.624 323.099 282.906 323.099C282.326 323.099 281.813 322.971 281.366 322.714C280.918 322.45 280.566 322.083 280.31 321.614C280.06 321.137 279.936 320.587 279.936 319.964ZM290.084 316.84C290.546 316.84 290.957 316.939 291.316 317.137C291.683 317.335 291.969 317.628 292.174 318.017C292.387 318.406 292.493 318.875 292.493 319.425V323H291.25V319.612C291.25 319.069 291.115 318.655 290.843 318.369C290.572 318.076 290.202 317.929 289.732 317.929C289.263 317.929 288.889 318.076 288.61 318.369C288.339 318.655 288.203 319.069 288.203 319.612V323H286.949V314.86H288.203V317.643C288.416 317.386 288.684 317.188 289.006 317.049C289.336 316.91 289.696 316.84 290.084 316.84ZM293.675 319.942C293.675 319.333 293.8 318.794 294.049 318.325C294.306 317.856 294.65 317.493 295.083 317.236C295.523 316.972 296.007 316.84 296.535 316.84C297.012 316.84 297.426 316.935 297.778 317.126C298.137 317.309 298.423 317.54 298.636 317.819V316.939H299.901V323H298.636V322.098C298.423 322.384 298.134 322.622 297.767 322.813C297.4 323.004 296.982 323.099 296.513 323.099C295.992 323.099 295.516 322.967 295.083 322.703C294.65 322.432 294.306 322.058 294.049 321.581C293.8 321.097 293.675 320.551 293.675 319.942ZM298.636 319.964C298.636 319.546 298.548 319.183 298.372 318.875C298.203 318.567 297.98 318.332 297.701 318.171C297.422 318.01 297.122 317.929 296.799 317.929C296.476 317.929 296.176 318.01 295.897 318.171C295.618 318.325 295.391 318.556 295.215 318.864C295.046 319.165 294.962 319.524 294.962 319.942C294.962 320.36 295.046 320.727 295.215 321.042C295.391 321.357 295.618 321.599 295.897 321.768C296.183 321.929 296.484 322.01 296.799 322.01C297.122 322.01 297.422 321.929 297.701 321.768C297.98 321.607 298.203 321.372 298.372 321.064C298.548 320.749 298.636 320.382 298.636 319.964ZM304.606 316.84C305.083 316.84 305.508 316.939 305.882 317.137C306.263 317.335 306.56 317.628 306.773 318.017C306.986 318.406 307.092 318.875 307.092 319.425V323H305.849V319.612C305.849 319.069 305.713 318.655 305.442 318.369C305.171 318.076 304.8 317.929 304.331 317.929C303.862 317.929 303.488 318.076 303.209 318.369C302.938 318.655 302.802 319.069 302.802 319.612V323H301.548V316.939H302.802V317.632C303.007 317.383 303.268 317.188 303.583 317.049C303.906 316.91 304.247 316.84 304.606 316.84ZM311.134 316.84C311.603 316.84 312.017 316.935 312.377 317.126C312.743 317.309 313.029 317.54 313.235 317.819V316.939H314.5V323.099C314.5 323.656 314.382 324.151 314.148 324.584C313.913 325.024 313.572 325.369 313.125 325.618C312.685 325.867 312.157 325.992 311.541 325.992C310.719 325.992 310.037 325.798 309.495 325.409C308.952 325.028 308.644 324.507 308.571 323.847H309.814C309.909 324.162 310.111 324.415 310.419 324.606C310.734 324.804 311.108 324.903 311.541 324.903C312.047 324.903 312.454 324.749 312.762 324.441C313.077 324.133 313.235 323.686 313.235 323.099V322.087C313.022 322.373 312.732 322.615 312.366 322.813C312.006 323.004 311.596 323.099 311.134 323.099C310.606 323.099 310.122 322.967 309.682 322.703C309.249 322.432 308.904 322.058 308.648 321.581C308.398 321.097 308.274 320.551 308.274 319.942C308.274 319.333 308.398 318.794 308.648 318.325C308.904 317.856 309.249 317.493 309.682 317.236C310.122 316.972 310.606 316.84 311.134 316.84ZM313.235 319.964C313.235 319.546 313.147 319.183 312.971 318.875C312.802 318.567 312.578 318.332 312.3 318.171C312.021 318.01 311.72 317.929 311.398 317.929C311.075 317.929 310.774 318.01 310.496 318.171C310.217 318.325 309.99 318.556 309.814 318.864C309.645 319.165 309.561 319.524 309.561 319.942C309.561 320.36 309.645 320.727 309.814 321.042C309.99 321.357 310.217 321.599 310.496 321.768C310.782 321.929 311.082 322.01 311.398 322.01C311.72 322.01 312.021 321.929 312.3 321.768C312.578 321.607 312.802 321.372 312.971 321.064C313.147 320.749 313.235 320.382 313.235 319.964ZM321.702 319.821C321.702 320.048 321.687 320.254 321.658 320.437H317.027C317.063 320.921 317.243 321.31 317.566 321.603C317.888 321.896 318.284 322.043 318.754 322.043C319.428 322.043 319.905 321.761 320.184 321.196H321.537C321.353 321.753 321.02 322.212 320.536 322.571C320.059 322.923 319.465 323.099 318.754 323.099C318.174 323.099 317.654 322.971 317.192 322.714C316.737 322.45 316.378 322.083 316.114 321.614C315.857 321.137 315.729 320.587 315.729 319.964C315.729 319.341 315.853 318.794 316.103 318.325C316.359 317.848 316.715 317.482 317.17 317.225C317.632 316.968 318.16 316.84 318.754 316.84C319.326 316.84 319.835 316.965 320.283 317.214C320.73 317.463 321.078 317.815 321.328 318.27C321.577 318.717 321.702 319.234 321.702 319.821ZM320.393 319.425C320.385 318.963 320.22 318.593 319.898 318.314C319.575 318.035 319.175 317.896 318.699 317.896C318.266 317.896 317.896 318.035 317.588 318.314C317.28 318.585 317.096 318.956 317.038 319.425H320.393ZM327.256 317.962V321.317C327.256 321.544 327.307 321.709 327.41 321.812C327.52 321.907 327.703 321.955 327.96 321.955H328.73V323H327.74C327.175 323 326.743 322.868 326.442 322.604C326.141 322.34 325.991 321.911 325.991 321.317V317.962H325.276V316.939H325.991V315.432H327.256V316.939H328.73V317.962H327.256ZM333.021 316.84C333.483 316.84 333.894 316.939 334.253 317.137C334.62 317.335 334.906 317.628 335.111 318.017C335.324 318.406 335.43 318.875 335.43 319.425V323H334.187V319.612C334.187 319.069 334.051 318.655 333.78 318.369C333.509 318.076 333.138 317.929 332.669 317.929C332.2 317.929 331.826 318.076 331.547 318.369C331.276 318.655 331.14 319.069 331.14 319.612V323H329.886V314.86H331.14V317.643C331.353 317.386 331.62 317.188 331.943 317.049C332.273 316.91 332.632 316.84 333.021 316.84ZM342.584 319.821C342.584 320.048 342.57 320.254 342.54 320.437H337.909C337.946 320.921 338.126 321.31 338.448 321.603C338.771 321.896 339.167 322.043 339.636 322.043C340.311 322.043 340.788 321.761 341.066 321.196H342.419C342.236 321.753 341.902 322.212 341.418 322.571C340.942 322.923 340.348 323.099 339.636 323.099C339.057 323.099 338.536 322.971 338.074 322.714C337.62 322.45 337.26 322.083 336.996 321.614C336.74 321.137 336.611 320.587 336.611 319.964C336.611 319.341 336.736 318.794 336.985 318.325C337.242 317.848 337.598 317.482 338.052 317.225C338.514 316.968 339.042 316.84 339.636 316.84C340.208 316.84 340.718 316.965 341.165 317.214C341.613 317.463 341.961 317.815 342.21 318.27C342.46 318.717 342.584 319.234 342.584 319.821ZM341.275 319.425C341.268 318.963 341.103 318.593 340.78 318.314C340.458 318.035 340.058 317.896 339.581 317.896C339.149 317.896 338.778 318.035 338.47 318.314C338.162 318.585 337.979 318.956 337.92 319.425H341.275ZM349.217 317.962H348.095V323H346.83V317.962H346.115V316.939H346.83V316.51C346.83 315.813 347.013 315.307 347.38 314.992C347.754 314.669 348.337 314.508 349.129 314.508V315.553C348.748 315.553 348.48 315.626 348.326 315.773C348.172 315.912 348.095 316.158 348.095 316.51V316.939H349.217V317.962ZM352.957 323.099C352.385 323.099 351.868 322.971 351.406 322.714C350.944 322.45 350.581 322.083 350.317 321.614C350.053 321.137 349.921 320.587 349.921 319.964C349.921 319.348 350.057 318.802 350.328 318.325C350.6 317.848 350.97 317.482 351.439 317.225C351.909 316.968 352.433 316.84 353.012 316.84C353.592 316.84 354.116 316.968 354.585 317.225C355.055 317.482 355.425 317.848 355.696 318.325C355.968 318.802 356.103 319.348 356.103 319.964C356.103 320.58 355.964 321.126 355.685 321.603C355.407 322.08 355.025 322.45 354.541 322.714C354.065 322.971 353.537 323.099 352.957 323.099ZM352.957 322.01C353.28 322.01 353.581 321.933 353.859 321.779C354.145 321.625 354.376 321.394 354.552 321.086C354.728 320.778 354.816 320.404 354.816 319.964C354.816 319.524 354.732 319.154 354.563 318.853C354.395 318.545 354.171 318.314 353.892 318.16C353.614 318.006 353.313 317.929 352.99 317.929C352.668 317.929 352.367 318.006 352.088 318.16C351.817 318.314 351.601 318.545 351.439 318.853C351.278 319.154 351.197 319.524 351.197 319.964C351.197 320.617 351.362 321.123 351.692 321.482C352.03 321.834 352.451 322.01 352.957 322.01ZM360.401 316.84C360.878 316.84 361.303 316.939 361.677 317.137C362.058 317.335 362.355 317.628 362.568 318.017C362.781 318.406 362.887 318.875 362.887 319.425V323H361.644V319.612C361.644 319.069 361.508 318.655 361.237 318.369C360.966 318.076 360.595 317.929 360.126 317.929C359.657 317.929 359.283 318.076 359.004 318.369C358.733 318.655 358.597 319.069 358.597 319.612V323H357.343V316.939H358.597V317.632C358.802 317.383 359.063 317.188 359.378 317.049C359.701 316.91 360.042 316.84 360.401 316.84ZM365.949 317.962V321.317C365.949 321.544 366.001 321.709 366.103 321.812C366.213 321.907 366.397 321.955 366.653 321.955H367.423V323H366.433C365.869 323 365.436 322.868 365.135 322.604C364.835 322.34 364.684 321.911 364.684 321.317V317.962H363.969V316.939H364.684V315.432H365.949V316.939H367.423V317.962H365.949ZM371.019 319.964C371.019 319.341 371.143 318.794 371.393 318.325C371.649 317.848 372.001 317.482 372.449 317.225C372.896 316.968 373.409 316.84 373.989 316.84C374.722 316.84 375.327 317.016 375.804 317.368C376.288 317.713 376.614 318.208 376.783 318.853H375.43C375.32 318.552 375.144 318.318 374.902 318.149C374.66 317.98 374.355 317.896 373.989 317.896C373.475 317.896 373.065 318.079 372.757 318.446C372.456 318.805 372.306 319.311 372.306 319.964C372.306 320.617 372.456 321.126 372.757 321.493C373.065 321.86 373.475 322.043 373.989 322.043C374.715 322.043 375.195 321.724 375.43 321.086H376.783C376.607 321.702 376.277 322.193 375.793 322.56C375.309 322.919 374.707 323.099 373.989 323.099C373.409 323.099 372.896 322.971 372.449 322.714C372.001 322.45 371.649 322.083 371.393 321.614C371.143 321.137 371.019 320.587 371.019 319.964ZM380.661 323.099C380.089 323.099 379.572 322.971 379.11 322.714C378.648 322.45 378.285 322.083 378.021 321.614C377.757 321.137 377.625 320.587 377.625 319.964C377.625 319.348 377.761 318.802 378.032 318.325C378.304 317.848 378.674 317.482 379.143 317.225C379.613 316.968 380.137 316.84 380.716 316.84C381.296 316.84 381.82 316.968 382.289 317.225C382.759 317.482 383.129 317.848 383.4 318.325C383.672 318.802 383.807 319.348 383.807 319.964C383.807 320.58 383.668 321.126 383.389 321.603C383.111 322.08 382.729 322.45 382.245 322.714C381.769 322.971 381.241 323.099 380.661 323.099ZM380.661 322.01C380.984 322.01 381.285 321.933 381.563 321.779C381.849 321.625 382.08 321.394 382.256 321.086C382.432 320.778 382.52 320.404 382.52 319.964C382.52 319.524 382.436 319.154 382.267 318.853C382.099 318.545 381.875 318.314 381.596 318.16C381.318 318.006 381.017 317.929 380.694 317.929C380.372 317.929 380.071 318.006 379.792 318.16C379.521 318.314 379.305 318.545 379.143 318.853C378.982 319.154 378.901 319.524 378.901 319.964C378.901 320.617 379.066 321.123 379.396 321.482C379.734 321.834 380.155 322.01 380.661 322.01ZM386.301 314.86V323H385.047V314.86H386.301ZM390.576 323.099C390.004 323.099 389.487 322.971 389.025 322.714C388.563 322.45 388.2 322.083 387.936 321.614C387.672 321.137 387.54 320.587 387.54 319.964C387.54 319.348 387.676 318.802 387.947 318.325C388.219 317.848 388.589 317.482 389.058 317.225C389.528 316.968 390.052 316.84 390.631 316.84C391.211 316.84 391.735 316.968 392.204 317.225C392.674 317.482 393.044 317.848 393.315 318.325C393.587 318.802 393.722 319.348 393.722 319.964C393.722 320.58 393.583 321.126 393.304 321.603C393.026 322.08 392.644 322.45 392.16 322.714C391.684 322.971 391.156 323.099 390.576 323.099ZM390.576 322.01C390.899 322.01 391.2 321.933 391.478 321.779C391.764 321.625 391.995 321.394 392.171 321.086C392.347 320.778 392.435 320.404 392.435 319.964C392.435 319.524 392.351 319.154 392.182 318.853C392.014 318.545 391.79 318.314 391.511 318.16C391.233 318.006 390.932 317.929 390.609 317.929C390.287 317.929 389.986 318.006 389.707 318.16C389.436 318.314 389.22 318.545 389.058 318.853C388.897 319.154 388.816 319.524 388.816 319.964C388.816 320.617 388.981 321.123 389.311 321.482C389.649 321.834 390.07 322.01 390.576 322.01ZM396.216 317.819C396.399 317.511 396.641 317.273 396.942 317.104C397.25 316.928 397.613 316.84 398.031 316.84V318.138H397.712C397.221 318.138 396.847 318.263 396.59 318.512C396.341 318.761 396.216 319.194 396.216 319.81V323H394.962V316.939H396.216V317.819ZM400.559 321.493L399.228 324.529H398.414L399.195 321.493H400.559ZM406.712 323.099C406.235 323.099 405.806 323.015 405.425 322.846C405.051 322.67 404.754 322.435 404.534 322.142C404.314 321.841 404.196 321.508 404.182 321.141H405.48C405.502 321.398 405.623 321.614 405.843 321.79C406.07 321.959 406.352 322.043 406.69 322.043C407.042 322.043 407.313 321.977 407.504 321.845C407.702 321.706 407.801 321.53 407.801 321.317C407.801 321.09 407.691 320.921 407.471 320.811C407.258 320.701 406.917 320.58 406.448 320.448C405.993 320.323 405.623 320.202 405.337 320.085C405.051 319.968 404.801 319.788 404.589 319.546C404.383 319.304 404.281 318.985 404.281 318.589C404.281 318.266 404.376 317.973 404.567 317.709C404.757 317.438 405.029 317.225 405.381 317.071C405.74 316.917 406.151 316.84 406.613 316.84C407.302 316.84 407.856 317.016 408.274 317.368C408.699 317.713 408.926 318.186 408.956 318.787H407.702C407.68 318.516 407.57 318.299 407.372 318.138C407.174 317.977 406.906 317.896 406.569 317.896C406.239 317.896 405.986 317.958 405.81 318.083C405.634 318.208 405.546 318.373 405.546 318.578C405.546 318.739 405.604 318.875 405.722 318.985C405.839 319.095 405.982 319.183 406.151 319.249C406.319 319.308 406.569 319.385 406.899 319.48C407.339 319.597 407.698 319.718 407.977 319.843C408.263 319.96 408.508 320.136 408.714 320.371C408.919 320.606 409.025 320.917 409.033 321.306C409.033 321.651 408.937 321.959 408.747 322.23C408.556 322.501 408.285 322.714 407.933 322.868C407.588 323.022 407.181 323.099 406.712 323.099ZM411.026 316.136C410.798 316.136 410.608 316.059 410.454 315.905C410.3 315.751 410.223 315.56 410.223 315.333C410.223 315.106 410.3 314.915 410.454 314.761C410.608 314.607 410.798 314.53 411.026 314.53C411.246 314.53 411.433 314.607 411.587 314.761C411.741 314.915 411.818 315.106 411.818 315.333C411.818 315.56 411.741 315.751 411.587 315.905C411.433 316.059 411.246 316.136 411.026 316.136ZM411.642 316.939V323H410.388V316.939H411.642ZM414.399 321.977H417.149V323H412.947V321.977L415.708 317.962H412.947V316.939H417.149V317.962L414.399 321.977ZM424.021 319.821C424.021 320.048 424.006 320.254 423.977 320.437H419.346C419.383 320.921 419.562 321.31 419.885 321.603C420.208 321.896 420.604 322.043 421.073 322.043C421.748 322.043 422.224 321.761 422.503 321.196H423.856C423.673 321.753 423.339 322.212 422.855 322.571C422.378 322.923 421.784 323.099 421.073 323.099C420.494 323.099 419.973 322.971 419.511 322.714C419.056 322.45 418.697 322.083 418.433 321.614C418.176 321.137 418.048 320.587 418.048 319.964C418.048 319.341 418.173 318.794 418.422 318.325C418.679 317.848 419.034 317.482 419.489 317.225C419.951 316.968 420.479 316.84 421.073 316.84C421.645 316.84 422.155 316.965 422.602 317.214C423.049 317.463 423.398 317.815 423.647 318.27C423.896 318.717 424.021 319.234 424.021 319.821ZM422.712 319.425C422.705 318.963 422.54 318.593 422.217 318.314C421.894 318.035 421.495 317.896 421.018 317.896C420.585 317.896 420.215 318.035 419.907 318.314C419.599 318.585 419.416 318.956 419.357 319.425H422.712ZM427.694 319.942C427.694 319.333 427.819 318.794 428.068 318.325C428.325 317.856 428.67 317.493 429.102 317.236C429.542 316.972 430.026 316.84 430.554 316.84C431.031 316.84 431.445 316.935 431.797 317.126C432.157 317.309 432.443 317.54 432.655 317.819V316.939H433.92V323H432.655V322.098C432.443 322.384 432.153 322.622 431.786 322.813C431.42 323.004 431.002 323.099 430.532 323.099C430.012 323.099 429.535 322.967 429.102 322.703C428.67 322.432 428.325 322.058 428.068 321.581C427.819 321.097 427.694 320.551 427.694 319.942ZM432.655 319.964C432.655 319.546 432.567 319.183 432.391 318.875C432.223 318.567 431.999 318.332 431.72 318.171C431.442 318.01 431.141 317.929 430.818 317.929C430.496 317.929 430.195 318.01 429.916 318.171C429.638 318.325 429.41 318.556 429.234 318.864C429.066 319.165 428.981 319.524 428.981 319.942C428.981 320.36 429.066 320.727 429.234 321.042C429.41 321.357 429.638 321.599 429.916 321.768C430.202 321.929 430.503 322.01 430.818 322.01C431.141 322.01 431.442 321.929 431.72 321.768C431.999 321.607 432.223 321.372 432.391 321.064C432.567 320.749 432.655 320.382 432.655 319.964ZM438.625 316.84C439.102 316.84 439.527 316.939 439.901 317.137C440.283 317.335 440.58 317.628 440.792 318.017C441.005 318.406 441.111 318.875 441.111 319.425V323H439.868V319.612C439.868 319.069 439.733 318.655 439.461 318.369C439.19 318.076 438.82 317.929 438.35 317.929C437.881 317.929 437.507 318.076 437.228 318.369C436.957 318.655 436.821 319.069 436.821 319.612V323H435.567V316.939H436.821V317.632C437.027 317.383 437.287 317.188 437.602 317.049C437.925 316.91 438.266 316.84 438.625 316.84ZM442.293 319.942C442.293 319.333 442.418 318.794 442.667 318.325C442.924 317.856 443.268 317.493 443.701 317.236C444.141 316.972 444.629 316.84 445.164 316.84C445.56 316.84 445.949 316.928 446.33 317.104C446.719 317.273 447.027 317.5 447.254 317.786V314.86H448.519V323H447.254V322.087C447.049 322.38 446.763 322.622 446.396 322.813C446.037 323.004 445.622 323.099 445.153 323.099C444.625 323.099 444.141 322.967 443.701 322.703C443.268 322.432 442.924 322.058 442.667 321.581C442.418 321.097 442.293 320.551 442.293 319.942ZM447.254 319.964C447.254 319.546 447.166 319.183 446.99 318.875C446.821 318.567 446.598 318.332 446.319 318.171C446.04 318.01 445.74 317.929 445.417 317.929C445.094 317.929 444.794 318.01 444.515 318.171C444.236 318.325 444.009 318.556 443.833 318.864C443.664 319.165 443.58 319.524 443.58 319.942C443.58 320.36 443.664 320.727 443.833 321.042C444.009 321.357 444.236 321.599 444.515 321.768C444.801 321.929 445.102 322.01 445.417 322.01C445.74 322.01 446.04 321.929 446.319 321.768C446.598 321.607 446.821 321.372 446.99 321.064C447.166 320.749 447.254 320.382 447.254 319.964ZM235.425 330.942C235.425 330.333 235.55 329.794 235.799 329.325C236.056 328.856 236.401 328.493 236.833 328.236C237.273 327.972 237.757 327.84 238.285 327.84C238.762 327.84 239.176 327.935 239.528 328.126C239.888 328.309 240.174 328.54 240.386 328.819V327.939H241.651V334H240.386V333.098C240.174 333.384 239.884 333.622 239.517 333.813C239.151 334.004 238.733 334.099 238.263 334.099C237.743 334.099 237.266 333.967 236.833 333.703C236.401 333.432 236.056 333.058 235.799 332.581C235.55 332.097 235.425 331.551 235.425 330.942ZM240.386 330.964C240.386 330.546 240.298 330.183 240.122 329.875C239.954 329.567 239.73 329.332 239.451 329.171C239.173 329.01 238.872 328.929 238.549 328.929C238.227 328.929 237.926 329.01 237.647 329.171C237.369 329.325 237.141 329.556 236.965 329.864C236.797 330.165 236.712 330.524 236.712 330.942C236.712 331.36 236.797 331.727 236.965 332.042C237.141 332.357 237.369 332.599 237.647 332.768C237.933 332.929 238.234 333.01 238.549 333.01C238.872 333.01 239.173 332.929 239.451 332.768C239.73 332.607 239.954 332.372 240.122 332.064C240.298 331.749 240.386 331.382 240.386 330.964ZM244.552 325.86V334H243.298V325.86H244.552ZM246.837 327.136C246.61 327.136 246.419 327.059 246.265 326.905C246.111 326.751 246.034 326.56 246.034 326.333C246.034 326.106 246.111 325.915 246.265 325.761C246.419 325.607 246.61 325.53 246.837 325.53C247.057 325.53 247.244 325.607 247.398 325.761C247.552 325.915 247.629 326.106 247.629 326.333C247.629 326.56 247.552 326.751 247.398 326.905C247.244 327.059 247.057 327.136 246.837 327.136ZM247.453 327.939V334H246.199V327.939H247.453ZM251.541 327.84C252.011 327.84 252.425 327.935 252.784 328.126C253.151 328.309 253.437 328.54 253.642 328.819V327.939H254.907V334.099C254.907 334.656 254.79 335.151 254.555 335.584C254.321 336.024 253.98 336.369 253.532 336.618C253.092 336.867 252.564 336.992 251.948 336.992C251.127 336.992 250.445 336.798 249.902 336.409C249.36 336.028 249.052 335.507 248.978 334.847H250.221C250.317 335.162 250.518 335.415 250.826 335.606C251.142 335.804 251.516 335.903 251.948 335.903C252.454 335.903 252.861 335.749 253.169 335.441C253.485 335.133 253.642 334.686 253.642 334.099V333.087C253.43 333.373 253.14 333.615 252.773 333.813C252.414 334.004 252.003 334.099 251.541 334.099C251.013 334.099 250.529 333.967 250.089 333.703C249.657 333.432 249.312 333.058 249.055 332.581C248.806 332.097 248.681 331.551 248.681 330.942C248.681 330.333 248.806 329.794 249.055 329.325C249.312 328.856 249.657 328.493 250.089 328.236C250.529 327.972 251.013 327.84 251.541 327.84ZM253.642 330.964C253.642 330.546 253.554 330.183 253.378 329.875C253.21 329.567 252.986 329.332 252.707 329.171C252.429 329.01 252.128 328.929 251.805 328.929C251.483 328.929 251.182 329.01 250.903 329.171C250.625 329.325 250.397 329.556 250.221 329.864C250.053 330.165 249.968 330.524 249.968 330.942C249.968 331.36 250.053 331.727 250.221 332.042C250.397 332.357 250.625 332.599 250.903 332.768C251.189 332.929 251.49 333.01 251.805 333.01C252.128 333.01 252.429 332.929 252.707 332.768C252.986 332.607 253.21 332.372 253.378 332.064C253.554 331.749 253.642 331.382 253.642 330.964ZM259.612 327.84C260.089 327.84 260.514 327.939 260.888 328.137C261.27 328.335 261.567 328.628 261.779 329.017C261.992 329.406 262.098 329.875 262.098 330.425V334H260.855V330.612C260.855 330.069 260.72 329.655 260.448 329.369C260.177 329.076 259.807 328.929 259.337 328.929C258.868 328.929 258.494 329.076 258.215 329.369C257.944 329.655 257.808 330.069 257.808 330.612V334H256.554V327.939H257.808V328.632C258.014 328.383 258.274 328.188 258.589 328.049C258.912 327.91 259.253 327.84 259.612 327.84ZM271.035 327.84C271.512 327.84 271.937 327.939 272.311 328.137C272.692 328.335 272.989 328.628 273.202 329.017C273.422 329.406 273.532 329.875 273.532 330.425V334H272.289V330.612C272.289 330.069 272.153 329.655 271.882 329.369C271.611 329.076 271.24 328.929 270.771 328.929C270.302 328.929 269.928 329.076 269.649 329.369C269.378 329.655 269.242 330.069 269.242 330.612V334H267.999V330.612C267.999 330.069 267.863 329.655 267.592 329.369C267.321 329.076 266.95 328.929 266.481 328.929C266.012 328.929 265.638 329.076 265.359 329.369C265.088 329.655 264.952 330.069 264.952 330.612V334H263.698V327.939H264.952V328.632C265.157 328.383 265.418 328.188 265.733 328.049C266.048 327.91 266.386 327.84 266.745 327.84C267.229 327.84 267.662 327.943 268.043 328.148C268.424 328.353 268.718 328.65 268.923 329.039C269.106 328.672 269.392 328.383 269.781 328.17C270.17 327.95 270.588 327.84 271.035 327.84ZM280.683 330.821C280.683 331.048 280.668 331.254 280.639 331.437H276.008C276.044 331.921 276.224 332.31 276.547 332.603C276.869 332.896 277.265 333.043 277.735 333.043C278.409 333.043 278.886 332.761 279.165 332.196H280.518C280.334 332.753 280.001 333.212 279.517 333.571C279.04 333.923 278.446 334.099 277.735 334.099C277.155 334.099 276.635 333.971 276.173 333.714C275.718 333.45 275.359 333.083 275.095 332.614C274.838 332.137 274.71 331.587 274.71 330.964C274.71 330.341 274.834 329.794 275.084 329.325C275.34 328.848 275.696 328.482 276.151 328.225C276.613 327.968 277.141 327.84 277.735 327.84C278.307 327.84 278.816 327.965 279.264 328.214C279.711 328.463 280.059 328.815 280.309 329.27C280.558 329.717 280.683 330.234 280.683 330.821ZM279.374 330.425C279.366 329.963 279.201 329.593 278.879 329.314C278.556 329.035 278.156 328.896 277.68 328.896C277.247 328.896 276.877 329.035 276.569 329.314C276.261 329.585 276.077 329.956 276.019 330.425H279.374ZM284.975 327.84C285.451 327.84 285.877 327.939 286.251 328.137C286.632 328.335 286.929 328.628 287.142 329.017C287.354 329.406 287.461 329.875 287.461 330.425V334H286.218V330.612C286.218 330.069 286.082 329.655 285.811 329.369C285.539 329.076 285.169 328.929 284.7 328.929C284.23 328.929 283.856 329.076 283.578 329.369C283.306 329.655 283.171 330.069 283.171 330.612V334H281.917V327.939H283.171V328.632C283.376 328.383 283.636 328.188 283.952 328.049C284.274 327.91 284.615 327.84 284.975 327.84ZM290.523 328.962V332.317C290.523 332.544 290.575 332.709 290.677 332.812C290.787 332.907 290.971 332.955 291.227 332.955H291.997V334H291.007C290.443 334 290.01 333.868 289.709 333.604C289.409 333.34 289.258 332.911 289.258 332.317V328.962H288.543V327.939H289.258V326.432H290.523V327.939H291.997V328.962H290.523ZM293.659 334.077C293.432 334.077 293.241 334 293.087 333.846C292.933 333.692 292.856 333.501 292.856 333.274C292.856 333.047 292.933 332.856 293.087 332.702C293.241 332.548 293.432 332.471 293.659 332.471C293.879 332.471 294.066 332.548 294.22 332.702C294.374 332.856 294.451 333.047 294.451 333.274C294.451 333.501 294.374 333.692 294.22 333.846C294.066 334 293.879 334.077 293.659 334.077Z"></path>
<defs>
<linearGradient gradientUnits="userSpaceOnUse" y2="209.2" x2="120.001" y1="206" x1="120.001" id="paint0_linear_930_2">
<stop stop-color="#7D3E08"></stop>
<stop stop-color="#AA540C" offset="1"></stop>
</linearGradient>
<linearGradient gradientUnits="userSpaceOnUse" y2="206" x2="120.001" y1="202.8" x1="120.001" id="paint1_linear_930_2">
<stop stop-color="#D3D3D3"></stop>
<stop stop-color="#E4E4E4" offset="1"></stop>
</linearGradient>
<linearGradient gradientUnits="userSpaceOnUse" y2="202.8" x2="120.001" y1="172.4" x1="120.001" id="paint2_linear_930_2">
<stop stop-color="#7DD8F3"></stop>
<stop stop-color="#57BDDC" offset="1"></stop>
</linearGradient>
</defs>
</svg>
