<svg xmlns="http://www.w3.org/2000/svg" fill="none" viewBox="0 0 504 384" height="384" width="504">
<path fill="#1A1A1A" d="M2 12C2 6.47716 6.47715 2 12 2L492 2C497.523 2 502 6.47715 502 12L502 372C502 377.523 497.523 382 492 382L12 382C6.47713 382 1.99999 377.523 1.99999 372L2 12Z"></path>
<path stroke-width="2" stroke-opacity="0.2" stroke="black" d="M12 1C5.92487 1 1 5.92488 1 12L0.999985 372C0.999985 378.075 5.92484 383 12 383L492 383C498.075 383 503 378.075 503 372L503 12C503 5.92487 498.075 1 492 1L12 1Z"></path>
<path fill="url(#paint0_linear_432_2)" d="M204 188C204 183.582 207.582 180 212 180H300V228C300 232.418 296.418 236 292 236H212C207.582 236 204 232.418 204 228V188Z"></path>
<path fill="url(#paint1_linear_432_2)" d="M204 156C204 151.582 207.582 148 212 148H239.719C242.393 148 244.891 149.337 246.375 151.562L252 160H292C296.418 160 300 163.582 300 168V188V188C300 183.582 296.418 180 292 180V180H252L246.375 188.438C244.891 190.663 242.393 192 239.719 192H204V156Z"></path>
<path fill="url(#paint2_linear_432_2)" d="M220 224C220 217.373 225.373 212 232 212H272C278.627 212 284 217.373 284 224V236H220V224Z"></path>
<rect fill="#0C6BB5" rx="4" height="8" width="32" y="220" x="236"></rect>
<defs>
<linearGradient gradientUnits="userSpaceOnUse" y2="160" x2="268" y1="236" x1="268" id="paint0_linear_432_2">
<stop stop-color="#F7B70A"></stop>
<stop stop-color="#FFD04B" offset="1"></stop>
</linearGradient>
<linearGradient gradientUnits="userSpaceOnUse" y2="202" x2="227" y1="148" x1="228" id="paint1_linear_432_2">
<stop stop-color="#E09F00"></stop>
<stop stop-color="#BA8400" offset="1"></stop>
</linearGradient>
<linearGradient gradientUnits="userSpaceOnUse" y2="227" x2="220" y1="227" x1="284" id="paint2_linear_432_2">
<stop stop-color="#046CBD"></stop>
<stop stop-color="#108AD7" offset="1"></stop>
</linearGradient>
</defs>
</svg>
