<svg xmlns="http://www.w3.org/2000/svg" fill="none" viewBox="0 0 480 360" height="360" width="480">
<path fill="white" d="M193.246 215.098C192.593 215.098 192.005 214.986 191.482 214.762C190.96 214.529 190.549 214.202 190.25 213.782C189.952 213.362 189.802 212.872 189.802 212.312H191.51C191.548 212.732 191.711 213.077 192 213.348C192.299 213.619 192.714 213.754 193.246 213.754C193.797 213.754 194.226 213.623 194.534 213.362C194.842 213.091 194.996 212.746 194.996 212.326C194.996 211.999 194.898 211.733 194.702 211.528C194.516 211.323 194.278 211.164 193.988 211.052C193.708 210.94 193.316 210.819 192.812 210.688C192.178 210.52 191.66 210.352 191.258 210.184C190.866 210.007 190.53 209.736 190.25 209.372C189.97 209.008 189.83 208.523 189.83 207.916C189.83 207.356 189.97 206.866 190.25 206.446C190.53 206.026 190.922 205.704 191.426 205.48C191.93 205.256 192.514 205.144 193.176 205.144C194.119 205.144 194.889 205.382 195.486 205.858C196.093 206.325 196.429 206.969 196.494 207.79H194.73C194.702 207.435 194.534 207.132 194.226 206.88C193.918 206.628 193.512 206.502 193.008 206.502C192.551 206.502 192.178 206.619 191.888 206.852C191.599 207.085 191.454 207.421 191.454 207.86C191.454 208.159 191.543 208.406 191.72 208.602C191.907 208.789 192.14 208.938 192.42 209.05C192.7 209.162 193.083 209.283 193.568 209.414C194.212 209.591 194.735 209.769 195.136 209.946C195.547 210.123 195.892 210.399 196.172 210.772C196.462 211.136 196.606 211.626 196.606 212.242C196.606 212.737 196.471 213.203 196.2 213.642C195.939 214.081 195.552 214.435 195.038 214.706C194.534 214.967 193.937 215.098 193.246 215.098ZM202.479 207.16C203.067 207.16 203.59 207.286 204.047 207.538C204.514 207.79 204.878 208.163 205.139 208.658C205.41 209.153 205.545 209.75 205.545 210.45V215H203.963V210.688C203.963 209.997 203.791 209.47 203.445 209.106C203.1 208.733 202.629 208.546 202.031 208.546C201.434 208.546 200.958 208.733 200.603 209.106C200.258 209.47 200.085 209.997 200.085 210.688V215H198.489V204.64H200.085V208.182C200.356 207.855 200.697 207.603 201.107 207.426C201.527 207.249 201.985 207.16 202.479 207.16ZM214.567 207.286V215H212.971V214.09C212.719 214.407 212.388 214.659 211.977 214.846C211.576 215.023 211.147 215.112 210.689 215.112C210.083 215.112 209.537 214.986 209.051 214.734C208.575 214.482 208.197 214.109 207.917 213.614C207.647 213.119 207.511 212.522 207.511 211.822V207.286H209.093V211.584C209.093 212.275 209.266 212.807 209.611 213.18C209.957 213.544 210.428 213.726 211.025 213.726C211.623 213.726 212.094 213.544 212.439 213.18C212.794 212.807 212.971 212.275 212.971 211.584V207.286H214.567ZM218.535 208.588V212.858C218.535 213.147 218.6 213.357 218.731 213.488C218.871 213.609 219.104 213.67 219.431 213.67H220.411V215H219.151C218.432 215 217.882 214.832 217.499 214.496C217.116 214.16 216.925 213.614 216.925 212.858V208.588H216.015V207.286H216.925V205.368H218.535V207.286H220.411V208.588H218.535ZM223.744 208.588V212.858C223.744 213.147 223.809 213.357 223.94 213.488C224.08 213.609 224.313 213.67 224.64 213.67H225.62V215H224.36C223.641 215 223.091 214.832 222.708 214.496C222.325 214.16 222.134 213.614 222.134 212.858V208.588H221.224V207.286H222.134V205.368H223.744V207.286H225.62V208.588H223.744ZM227.903 206.264C227.614 206.264 227.371 206.166 227.175 205.97C226.979 205.774 226.881 205.531 226.881 205.242C226.881 204.953 226.979 204.71 227.175 204.514C227.371 204.318 227.614 204.22 227.903 204.22C228.183 204.22 228.421 204.318 228.617 204.514C228.813 204.71 228.911 204.953 228.911 205.242C228.911 205.531 228.813 205.774 228.617 205.97C228.421 206.166 228.183 206.264 227.903 206.264ZM228.687 207.286V215H227.091V207.286H228.687ZM234.674 207.16C235.281 207.16 235.822 207.286 236.298 207.538C236.784 207.79 237.162 208.163 237.432 208.658C237.703 209.153 237.838 209.75 237.838 210.45V215H236.256V210.688C236.256 209.997 236.084 209.47 235.738 209.106C235.393 208.733 234.922 208.546 234.324 208.546C233.727 208.546 233.251 208.733 232.896 209.106C232.551 209.47 232.378 209.997 232.378 210.688V215H230.782V207.286H232.378V208.168C232.64 207.851 232.971 207.603 233.372 207.426C233.783 207.249 234.217 207.16 234.674 207.16ZM242.982 207.16C243.58 207.16 244.107 207.281 244.564 207.524C245.031 207.757 245.395 208.051 245.656 208.406V207.286H247.266V215.126C247.266 215.835 247.117 216.465 246.818 217.016C246.52 217.576 246.086 218.015 245.516 218.332C244.956 218.649 244.284 218.808 243.5 218.808C242.455 218.808 241.587 218.561 240.896 218.066C240.206 217.581 239.814 216.918 239.72 216.078H241.302C241.424 216.479 241.68 216.801 242.072 217.044C242.474 217.296 242.95 217.422 243.5 217.422C244.144 217.422 244.662 217.226 245.054 216.834C245.456 216.442 245.656 215.873 245.656 215.126V213.838C245.386 214.202 245.017 214.51 244.55 214.762C244.093 215.005 243.57 215.126 242.982 215.126C242.31 215.126 241.694 214.958 241.134 214.622C240.584 214.277 240.145 213.801 239.818 213.194C239.501 212.578 239.342 211.883 239.342 211.108C239.342 210.333 239.501 209.647 239.818 209.05C240.145 208.453 240.584 207.991 241.134 207.664C241.694 207.328 242.31 207.16 242.982 207.16ZM245.656 211.136C245.656 210.604 245.544 210.142 245.32 209.75C245.106 209.358 244.821 209.059 244.466 208.854C244.112 208.649 243.729 208.546 243.318 208.546C242.908 208.546 242.525 208.649 242.17 208.854C241.816 209.05 241.526 209.344 241.302 209.736C241.088 210.119 240.98 210.576 240.98 211.108C240.98 211.64 241.088 212.107 241.302 212.508C241.526 212.909 241.816 213.217 242.17 213.432C242.534 213.637 242.917 213.74 243.318 213.74C243.729 213.74 244.112 213.637 244.466 213.432C244.821 213.227 245.106 212.928 245.32 212.536C245.544 212.135 245.656 211.668 245.656 211.136ZM252.467 211.108C252.467 210.333 252.626 209.647 252.943 209.05C253.27 208.453 253.709 207.991 254.259 207.664C254.819 207.328 255.44 207.16 256.121 207.16C256.625 207.16 257.12 207.272 257.605 207.496C258.1 207.711 258.492 208 258.781 208.364V204.64H260.391V215H258.781V213.838C258.52 214.211 258.156 214.519 257.689 214.762C257.232 215.005 256.705 215.126 256.107 215.126C255.435 215.126 254.819 214.958 254.259 214.622C253.709 214.277 253.27 213.801 252.943 213.194C252.626 212.578 252.467 211.883 252.467 211.108ZM258.781 211.136C258.781 210.604 258.669 210.142 258.445 209.75C258.231 209.358 257.946 209.059 257.591 208.854C257.237 208.649 256.854 208.546 256.443 208.546C256.033 208.546 255.65 208.649 255.295 208.854C254.941 209.05 254.651 209.344 254.427 209.736C254.213 210.119 254.105 210.576 254.105 211.108C254.105 211.64 254.213 212.107 254.427 212.508C254.651 212.909 254.941 213.217 255.295 213.432C255.659 213.637 256.042 213.74 256.443 213.74C256.854 213.74 257.237 213.637 257.591 213.432C257.946 213.227 258.231 212.928 258.445 212.536C258.669 212.135 258.781 211.668 258.781 211.136ZM265.834 215.126C265.106 215.126 264.448 214.963 263.86 214.636C263.272 214.3 262.81 213.833 262.474 213.236C262.138 212.629 261.97 211.929 261.97 211.136C261.97 210.352 262.142 209.657 262.488 209.05C262.833 208.443 263.304 207.977 263.902 207.65C264.499 207.323 265.166 207.16 265.904 207.16C266.641 207.16 267.308 207.323 267.906 207.65C268.503 207.977 268.974 208.443 269.32 209.05C269.665 209.657 269.838 210.352 269.838 211.136C269.838 211.92 269.66 212.615 269.306 213.222C268.951 213.829 268.466 214.3 267.85 214.636C267.243 214.963 266.571 215.126 265.834 215.126ZM265.834 213.74C266.244 213.74 266.627 213.642 266.982 213.446C267.346 213.25 267.64 212.956 267.864 212.564C268.088 212.172 268.2 211.696 268.2 211.136C268.2 210.576 268.092 210.105 267.878 209.722C267.663 209.33 267.378 209.036 267.024 208.84C266.669 208.644 266.286 208.546 265.876 208.546C265.465 208.546 265.082 208.644 264.728 208.84C264.382 209.036 264.107 209.33 263.902 209.722C263.696 210.105 263.594 210.576 263.594 211.136C263.594 211.967 263.804 212.611 264.224 213.068C264.653 213.516 265.19 213.74 265.834 213.74ZM281.775 207.286L279.381 215H277.701L276.147 209.302L274.593 215H272.913L270.505 207.286H272.129L273.739 213.488L275.377 207.286H277.043L278.611 213.46L280.207 207.286H281.775ZM286.86 207.16C287.467 207.16 288.008 207.286 288.484 207.538C288.969 207.79 289.347 208.163 289.618 208.658C289.889 209.153 290.024 209.75 290.024 210.45V215H288.442V210.688C288.442 209.997 288.269 209.47 287.924 209.106C287.579 208.733 287.107 208.546 286.51 208.546C285.913 208.546 285.437 208.733 285.082 209.106C284.737 209.47 284.564 209.997 284.564 210.688V215H282.968V207.286H284.564V208.168C284.825 207.851 285.157 207.603 285.558 207.426C285.969 207.249 286.403 207.16 286.86 207.16Z"></path>
</svg>
