<svg xmlns="http://www.w3.org/2000/svg" fill="none" viewBox="0 0 480 90" height="90" width="480">
<path fill-opacity="0.9" fill="#1A1A1A" d="M88 30C88 24.4772 92.4772 20 98 20H382C387.523 20 392 24.4772 392 30V60C392 65.5228 387.523 70 382 70H98C92.4772 70 88 65.5228 88 60V30Z"></path>
<path stroke-width="2" stroke-opacity="0.2" stroke="white" d="M382 19H98C91.9249 19 87 23.9249 87 30V60C87 66.0751 91.9249 71 98 71H382C388.075 71 393 66.0751 393 60V30C393 23.9249 388.075 19 382 19Z"></path>
<path fill="#808080" d="M284.33 43.364C284.33 43.6997 284.251 44.0163 284.093 44.314C283.935 44.6117 283.681 44.8555 283.333 45.0455C282.985 45.2292 282.538 45.321 281.993 45.321H280.796V48H279.713V41.3975H281.993C282.5 41.3975 282.928 41.4862 283.276 41.6635C283.631 41.8345 283.893 42.0688 284.064 42.3665C284.242 42.6642 284.33 42.9967 284.33 43.364ZM281.993 44.4375C282.405 44.4375 282.712 44.3457 282.915 44.162C283.118 43.972 283.219 43.706 283.219 43.364C283.219 42.642 282.81 42.281 281.993 42.281H280.796V44.4375H281.993ZM285.002 45.359C285.002 44.8333 285.11 44.3678 285.325 43.9625C285.547 43.5572 285.845 43.2437 286.218 43.022C286.598 42.794 287.016 42.68 287.472 42.68C287.884 42.68 288.242 42.7623 288.546 42.927C288.856 43.0853 289.103 43.2848 289.287 43.5255V42.7655H290.379V48H289.287V47.221C289.103 47.468 288.853 47.6738 288.536 47.8385C288.22 48.0032 287.859 48.0855 287.453 48.0855C287.004 48.0855 286.592 47.9715 286.218 47.7435C285.845 47.5092 285.547 47.1862 285.325 46.7745C285.11 46.3565 285.002 45.8847 285.002 45.359ZM289.287 45.378C289.287 45.017 289.211 44.7035 289.059 44.4375C288.913 44.1715 288.72 43.9688 288.479 43.8295C288.239 43.6902 287.979 43.6205 287.7 43.6205C287.422 43.6205 287.162 43.6902 286.921 43.8295C286.681 43.9625 286.484 44.162 286.332 44.428C286.187 44.6877 286.114 44.998 286.114 45.359C286.114 45.72 286.187 46.0367 286.332 46.309C286.484 46.5813 286.681 46.7903 286.921 46.936C287.168 47.0753 287.428 47.145 287.7 47.145C287.979 47.145 288.239 47.0753 288.479 46.936C288.72 46.7967 288.913 46.594 289.059 46.328C289.211 46.0557 289.287 45.739 289.287 45.378ZM292.353 42.072C292.157 42.072 291.992 42.0055 291.859 41.8725C291.726 41.7395 291.659 41.5748 291.659 41.3785C291.659 41.1822 291.726 41.0175 291.859 40.8845C291.992 40.7515 292.157 40.685 292.353 40.685C292.543 40.685 292.704 40.7515 292.837 40.8845C292.97 41.0175 293.037 41.1822 293.037 41.3785C293.037 41.5748 292.97 41.7395 292.837 41.8725C292.704 42.0055 292.543 42.072 292.353 42.072ZM292.885 42.7655V48H291.802V42.7655H292.885ZM296.948 42.68C297.359 42.68 297.727 42.7655 298.05 42.9365C298.379 43.1075 298.636 43.3608 298.819 43.6965C299.003 44.0322 299.095 44.4375 299.095 44.9125V48H298.021V45.074C298.021 44.6053 297.904 44.2475 297.67 44.0005C297.435 43.7472 297.116 43.6205 296.71 43.6205C296.305 43.6205 295.982 43.7472 295.741 44.0005C295.507 44.2475 295.39 44.6053 295.39 45.074V48H294.307V42.7655H295.39V43.364C295.567 43.1487 295.792 42.9808 296.064 42.8605C296.343 42.7402 296.637 42.68 296.948 42.68ZM301.74 43.649V46.5465C301.74 46.7428 301.784 46.8853 301.873 46.974C301.968 47.0563 302.126 47.0975 302.348 47.0975H303.013V48H302.158C301.67 48 301.296 47.886 301.037 47.658C300.777 47.43 300.647 47.0595 300.647 46.5465V43.649H300.03V42.7655H300.647V41.464H301.74V42.7655H303.013V43.649H301.74ZM307.03 42.072C306.833 42.072 306.669 42.0055 306.536 41.8725C306.403 41.7395 306.336 41.5748 306.336 41.3785C306.336 41.1822 306.403 41.0175 306.536 40.8845C306.669 40.7515 306.833 40.685 307.03 40.685C307.22 40.685 307.381 40.7515 307.514 40.8845C307.647 41.0175 307.714 41.1822 307.714 41.3785C307.714 41.5748 307.647 41.7395 307.514 41.8725C307.381 42.0055 307.22 42.072 307.03 42.072ZM307.562 42.7655V48H306.479V42.7655H307.562ZM310.883 48.0855C310.472 48.0855 310.101 48.0127 309.772 47.867C309.449 47.715 309.192 47.5123 309.002 47.259C308.812 46.9993 308.711 46.7112 308.698 46.3945H309.819C309.838 46.6162 309.943 46.803 310.133 46.955C310.329 47.1007 310.573 47.1735 310.864 47.1735C311.168 47.1735 311.403 47.1165 311.567 47.0025C311.738 46.8822 311.824 46.7302 311.824 46.5465C311.824 46.3502 311.729 46.2045 311.539 46.1095C311.355 46.0145 311.061 45.91 310.655 45.796C310.263 45.6883 309.943 45.5838 309.696 45.4825C309.449 45.3812 309.234 45.226 309.05 45.017C308.873 44.808 308.784 44.5325 308.784 44.1905C308.784 43.9118 308.866 43.6585 309.031 43.4305C309.196 43.1962 309.43 43.0125 309.734 42.8795C310.044 42.7465 310.399 42.68 310.798 42.68C311.393 42.68 311.871 42.832 312.232 43.136C312.6 43.4337 312.796 43.8422 312.821 44.3615H311.738C311.719 44.1272 311.624 43.9403 311.453 43.801C311.282 43.6617 311.051 43.592 310.76 43.592C310.475 43.592 310.256 43.6458 310.104 43.7535C309.952 43.8612 309.876 44.0037 309.876 44.181C309.876 44.3203 309.927 44.4375 310.028 44.5325C310.13 44.6275 310.253 44.7035 310.399 44.7605C310.545 44.8112 310.76 44.8777 311.045 44.96C311.425 45.0613 311.735 45.1658 311.976 45.2735C312.223 45.3748 312.435 45.5268 312.612 45.7295C312.79 45.9322 312.882 46.2013 312.888 46.537C312.888 46.8347 312.806 47.1007 312.641 47.335C312.476 47.5693 312.242 47.753 311.938 47.886C311.64 48.019 311.289 48.0855 310.883 48.0855ZM319.167 42.68C319.579 42.68 319.946 42.7655 320.269 42.9365C320.598 43.1075 320.855 43.3608 321.038 43.6965C321.222 44.0322 321.314 44.4375 321.314 44.9125V48H320.24V45.074C320.24 44.6053 320.123 44.2475 319.889 44.0005C319.655 43.7472 319.335 43.6205 318.929 43.6205C318.524 43.6205 318.201 43.7472 317.96 44.0005C317.726 44.2475 317.609 44.6053 317.609 45.074V48H316.526V42.7655H317.609V43.364C317.786 43.1487 318.011 42.9808 318.283 42.8605C318.562 42.7402 318.857 42.68 319.167 42.68ZM324.966 48.0855C324.472 48.0855 324.025 47.9747 323.626 47.753C323.227 47.525 322.914 47.2083 322.686 46.803C322.458 46.3913 322.344 45.9163 322.344 45.378C322.344 44.846 322.461 44.3742 322.695 43.9625C322.93 43.5508 323.25 43.2342 323.655 43.0125C324.06 42.7908 324.513 42.68 325.013 42.68C325.514 42.68 325.967 42.7908 326.372 43.0125C326.777 43.2342 327.097 43.5508 327.331 43.9625C327.566 44.3742 327.683 44.846 327.683 45.378C327.683 45.91 327.563 46.3818 327.322 46.7935C327.081 47.2052 326.752 47.525 326.334 47.753C325.922 47.9747 325.466 48.0855 324.966 48.0855ZM324.966 47.145C325.245 47.145 325.504 47.0785 325.745 46.9455C325.992 46.8125 326.191 46.613 326.343 46.347C326.495 46.081 326.571 45.758 326.571 45.378C326.571 44.998 326.499 44.6782 326.353 44.4185C326.207 44.1525 326.014 43.953 325.773 43.82C325.533 43.687 325.273 43.6205 324.994 43.6205C324.716 43.6205 324.456 43.687 324.215 43.82C323.981 43.953 323.794 44.1525 323.655 44.4185C323.516 44.6782 323.446 44.998 323.446 45.378C323.446 45.9417 323.588 46.3787 323.873 46.689C324.165 46.993 324.529 47.145 324.966 47.145ZM330.017 43.649V46.5465C330.017 46.7428 330.061 46.8853 330.15 46.974C330.245 47.0563 330.403 47.0975 330.625 47.0975H331.29V48H330.435C329.947 48 329.574 47.886 329.314 47.658C329.054 47.43 328.925 47.0595 328.925 46.5465V43.649H328.307V42.7655H328.925V41.464H330.017V42.7655H331.29V43.649H330.017ZM335.307 42.072C335.111 42.072 334.946 42.0055 334.813 41.8725C334.68 41.7395 334.613 41.5748 334.613 41.3785C334.613 41.1822 334.68 41.0175 334.813 40.8845C334.946 40.7515 335.111 40.685 335.307 40.685C335.497 40.685 335.658 40.7515 335.791 40.8845C335.924 41.0175 335.991 41.1822 335.991 41.3785C335.991 41.5748 335.924 41.7395 335.791 41.8725C335.658 42.0055 335.497 42.072 335.307 42.072ZM335.839 42.7655V48H334.756V42.7655H335.839ZM339.902 42.68C340.314 42.68 340.681 42.7655 341.004 42.9365C341.333 43.1075 341.59 43.3608 341.773 43.6965C341.957 44.0322 342.049 44.4375 342.049 44.9125V48H340.975V45.074C340.975 44.6053 340.858 44.2475 340.624 44.0005C340.39 43.7472 340.07 43.6205 339.664 43.6205C339.259 43.6205 338.936 43.7472 338.695 44.0005C338.461 44.2475 338.344 44.6053 338.344 45.074V48H337.261V42.7655H338.344V43.364C338.521 43.1487 338.746 42.9808 339.018 42.8605C339.297 42.7402 339.592 42.68 339.902 42.68ZM345.33 48.0855C344.919 48.0855 344.548 48.0127 344.219 47.867C343.896 47.715 343.639 47.5123 343.449 47.259C343.259 46.9993 343.158 46.7112 343.145 46.3945H344.266C344.285 46.6162 344.39 46.803 344.58 46.955C344.776 47.1007 345.02 47.1735 345.311 47.1735C345.615 47.1735 345.85 47.1165 346.014 47.0025C346.185 46.8822 346.271 46.7302 346.271 46.5465C346.271 46.3502 346.176 46.2045 345.986 46.1095C345.802 46.0145 345.508 45.91 345.102 45.796C344.71 45.6883 344.39 45.5838 344.143 45.4825C343.896 45.3812 343.68 45.226 343.497 45.017C343.319 44.808 343.231 44.5325 343.231 44.1905C343.231 43.9118 343.313 43.6585 343.478 43.4305C343.642 43.1962 343.877 43.0125 344.181 42.8795C344.491 42.7465 344.846 42.68 345.245 42.68C345.84 42.68 346.318 42.832 346.679 43.136C347.047 43.4337 347.243 43.8422 347.268 44.3615H346.185C346.166 44.1272 346.071 43.9403 345.9 43.801C345.729 43.6617 345.498 43.592 345.207 43.592C344.922 43.592 344.703 43.6458 344.551 43.7535C344.399 43.8612 344.323 44.0037 344.323 44.181C344.323 44.3203 344.374 44.4375 344.475 44.5325C344.577 44.6275 344.7 44.7035 344.846 44.7605C344.991 44.8112 345.207 44.8777 345.492 44.96C345.872 45.0613 346.182 45.1658 346.423 45.2735C346.67 45.3748 346.882 45.5268 347.059 45.7295C347.237 45.9322 347.328 46.2013 347.335 46.537C347.335 46.8347 347.252 47.1007 347.088 47.335C346.923 47.5693 346.689 47.753 346.385 47.886C346.087 48.019 345.736 48.0855 345.33 48.0855ZM349.768 43.649V46.5465C349.768 46.7428 349.813 46.8853 349.901 46.974C349.996 47.0563 350.155 47.0975 350.376 47.0975H351.041V48H350.186C349.699 48 349.325 47.886 349.065 47.658C348.806 47.43 348.676 47.0595 348.676 46.5465V43.649H348.058V42.7655H348.676V41.464H349.768V42.7655H351.041V43.649H349.768ZM351.679 45.359C351.679 44.8333 351.786 44.3678 352.002 43.9625C352.223 43.5572 352.521 43.2437 352.895 43.022C353.275 42.794 353.693 42.68 354.149 42.68C354.56 42.68 354.918 42.7623 355.222 42.927C355.532 43.0853 355.779 43.2848 355.963 43.5255V42.7655H357.056V48H355.963V47.221C355.779 47.468 355.529 47.6738 355.213 47.8385C354.896 48.0032 354.535 48.0855 354.13 48.0855C353.68 48.0855 353.268 47.9715 352.895 47.7435C352.521 47.5092 352.223 47.1862 352.002 46.7745C351.786 46.3565 351.679 45.8847 351.679 45.359ZM355.963 45.378C355.963 45.017 355.887 44.7035 355.735 44.4375C355.589 44.1715 355.396 43.9688 355.156 43.8295C354.915 43.6902 354.655 43.6205 354.377 43.6205C354.098 43.6205 353.838 43.6902 353.598 43.8295C353.357 43.9625 353.161 44.162 353.009 44.428C352.863 44.6877 352.79 44.998 352.79 45.359C352.79 45.72 352.863 46.0367 353.009 46.309C353.161 46.5813 353.357 46.7903 353.598 46.936C353.845 47.0753 354.104 47.145 354.377 47.145C354.655 47.145 354.915 47.0753 355.156 46.936C355.396 46.7967 355.589 46.594 355.735 46.328C355.887 46.0557 355.963 45.739 355.963 45.378ZM359.561 40.97V48H358.478V40.97H359.561ZM362.066 40.97V48H360.983V40.97H362.066ZM368.285 45.2545C368.285 45.4508 368.273 45.6282 368.247 45.7865H364.248C364.28 46.2045 364.435 46.5402 364.713 46.7935C364.992 47.0468 365.334 47.1735 365.739 47.1735C366.322 47.1735 366.734 46.9297 366.974 46.442H368.143C367.985 46.9233 367.696 47.3192 367.278 47.6295C366.867 47.9335 366.354 48.0855 365.739 48.0855C365.239 48.0855 364.789 47.9747 364.39 47.753C363.998 47.525 363.687 47.2083 363.459 46.803C363.238 46.3913 363.127 45.9163 363.127 45.378C363.127 44.8397 363.235 44.3678 363.45 43.9625C363.672 43.5508 363.979 43.2342 364.371 43.0125C364.77 42.7908 365.226 42.68 365.739 42.68C366.233 42.68 366.674 42.7877 367.06 43.003C367.446 43.2183 367.747 43.5223 367.962 43.915C368.178 44.3013 368.285 44.7478 368.285 45.2545ZM367.155 44.9125C367.149 44.5135 367.006 44.1937 366.727 43.953C366.449 43.7123 366.104 43.592 365.692 43.592C365.318 43.592 364.998 43.7123 364.732 43.953C364.466 44.1873 364.308 44.5072 364.257 44.9125H367.155ZM368.99 45.359C368.99 44.8333 369.098 44.3678 369.313 43.9625C369.535 43.5572 369.833 43.2437 370.206 43.022C370.586 42.794 371.007 42.68 371.47 42.68C371.812 42.68 372.147 42.756 372.477 42.908C372.812 43.0537 373.078 43.25 373.275 43.497V40.97H374.367V48H373.275V47.2115C373.097 47.4648 372.85 47.6738 372.534 47.8385C372.223 48.0032 371.866 48.0855 371.46 48.0855C371.004 48.0855 370.586 47.9715 370.206 47.7435C369.833 47.5092 369.535 47.1862 369.313 46.7745C369.098 46.3565 368.99 45.8847 368.99 45.359ZM373.275 45.378C373.275 45.017 373.199 44.7035 373.047 44.4375C372.901 44.1715 372.708 43.9688 372.467 43.8295C372.227 43.6902 371.967 43.6205 371.688 43.6205C371.41 43.6205 371.15 43.6902 370.909 43.8295C370.669 43.9625 370.472 44.162 370.32 44.428C370.175 44.6877 370.102 44.998 370.102 45.359C370.102 45.72 370.175 46.0367 370.32 46.309C370.472 46.5813 370.669 46.7903 370.909 46.936C371.156 47.0753 371.416 47.145 371.688 47.145C371.967 47.145 372.227 47.0753 372.467 46.936C372.708 46.7967 372.901 46.594 373.047 46.328C373.199 46.0557 373.275 45.739 373.275 45.378Z"></path>
<path fill="url(#paint0_linear_1013_305)" d="M264 37C259.999 36.9995 255 40.6662 255 46.3333C255 47.9644 255.369 50 257 50C258.666 50 259.333 47.3333 260.667 47.3333C261.219 47.3333 261.667 47.6662 261.667 48.3333C261.667 49.3328 260.667 49.3328 260.667 50.6667C260.667 51.6662 261.333 52.3333 262.333 52.3333C266 52.3333 270.333 48.0359 270.333 43.3333C270.333 40.3328 267.884 37.0005 264 37Z"></path>
<rect fill="url(#paint1_linear_1013_305)" rx="1.33333" height="2.66667" width="2.66667" y="43.6663" x="256.333"></rect>
<rect fill-opacity="0.5" fill="black" rx="1" height="2" width="2" y="44.3328" x="262.333"></rect>
<rect fill="url(#paint2_linear_1013_305)" rx="1.33333" height="2.66667" width="2.66667" y="40.3328" x="258.333"></rect>
<rect fill="url(#paint3_linear_1013_305)" rx="1.33333" height="2.66667" width="2.66667" y="38.9995" x="261.666"></rect>
<path fill="url(#paint4_linear_1013_305)" d="M265.666 44.9988L267.666 44.9997L267.361 52.3327C267.345 52.705 267.039 52.9988 266.666 52.9988V52.9988C266.294 52.9988 265.987 52.705 265.972 52.3327L265.666 44.9988Z"></path>
<path fill="url(#paint5_linear_1013_305)" d="M265.666 44.9988V44.3331H267.666V44.9997L265.666 44.9988Z"></path>
<path fill="url(#paint6_linear_1013_305)" d="M265.666 44.332L265.057 43.1136C264.724 42.4487 265.208 41.6663 265.951 41.6663H267.382C268.125 41.6663 268.609 42.4486 268.276 43.1135L267.666 44.3331L265.666 44.332Z"></path>
<rect fill-opacity="0.05" fill="white" rx="5" height="36" width="140" y="27" x="95"></rect>
<rect fill="url(#paint7_linear_1013_305)" rx="2" height="16" width="16" y="37" x="105"></rect>
<path fill="white" d="M110.879 44.1213C112.05 42.9497 113.95 42.9497 115.121 44.1213L119.414 48.4142C119.789 48.7893 120 49.298 120 49.8284V50C120 51.1046 119.105 52 118 52H108C106.895 52 106 51.1046 106 50V49.8284C106 49.298 106.211 48.7893 106.586 48.4142L110.879 44.1213Z"></path>
<path stroke-opacity="0.1" stroke="black" d="M108 52.5H118C119.381 52.5 120.5 51.3807 120.5 50V49.8284C120.5 49.1654 120.237 48.5295 119.768 48.0607L115.475 43.7678C114.108 42.4009 111.892 42.4009 110.525 43.7678L106.232 48.0607C105.763 48.5295 105.5 49.1654 105.5 49.8284V50C105.5 51.3807 106.619 52.5 108 52.5Z"></path>
<path fill="url(#paint8_linear_1013_305)" d="M108 53L115.293 45.7071C115.683 45.3166 116.317 45.3166 116.707 45.7071L120.414 49.4142C120.789 49.7893 121 50.298 121 50.8284V51C121 52.1046 120.105 53 119 53H108Z"></path>
<path fill="url(#paint9_linear_1013_305)" d="M105 50.8284C105 50.298 105.211 49.7893 105.586 49.4142L110.879 44.1213C112.05 42.9497 113.95 42.9497 115.121 44.1213L118 47V47C116.895 45.8954 115.105 45.8954 114 47L108.586 52.4142C108.211 52.7893 107.702 53 107.172 53H107C105.895 53 105 52.1046 105 51V50.8284Z"></path>
<rect fill="white" rx="1.5" height="3" width="3" y="39" x="115"></rect>
<rect stroke-opacity="0.1" stroke="black" rx="2" height="4" width="4" y="38.5" x="114.5"></rect>
<path fill="white" d="M132.344 49.077C131.831 49.077 131.369 48.989 130.958 48.813C130.547 48.6297 130.225 48.373 129.99 48.043C129.755 47.713 129.638 47.328 129.638 46.888H130.98C131.009 47.218 131.138 47.4893 131.365 47.702C131.6 47.9147 131.926 48.021 132.344 48.021C132.777 48.021 133.114 47.9183 133.356 47.713C133.598 47.5003 133.719 47.229 133.719 46.899C133.719 46.6423 133.642 46.4333 133.488 46.272C133.341 46.1107 133.154 45.986 132.927 45.898C132.707 45.81 132.399 45.7147 132.003 45.612C131.504 45.48 131.097 45.348 130.782 45.216C130.474 45.0767 130.21 44.864 129.99 44.578C129.77 44.292 129.66 43.9107 129.66 43.434C129.66 42.994 129.77 42.609 129.99 42.279C130.21 41.949 130.518 41.696 130.914 41.52C131.31 41.344 131.768 41.256 132.289 41.256C133.03 41.256 133.635 41.443 134.104 41.817C134.581 42.1837 134.845 42.6897 134.896 43.335H133.51C133.488 43.0563 133.356 42.818 133.114 42.62C132.872 42.422 132.553 42.323 132.157 42.323C131.798 42.323 131.504 42.4147 131.277 42.598C131.05 42.7813 130.936 43.0453 130.936 43.39C130.936 43.6247 131.006 43.819 131.145 43.973C131.292 44.1197 131.475 44.237 131.695 44.325C131.915 44.413 132.216 44.5083 132.597 44.611C133.103 44.7503 133.514 44.8897 133.829 45.029C134.152 45.1683 134.423 45.3847 134.643 45.678C134.87 45.964 134.984 46.349 134.984 46.833C134.984 47.2217 134.878 47.5883 134.665 47.933C134.46 48.2777 134.155 48.5563 133.752 48.769C133.356 48.9743 132.887 49.077 132.344 49.077ZM142.019 45.821C142.019 46.0483 142.004 46.2537 141.975 46.437H137.344C137.38 46.921 137.56 47.3097 137.883 47.603C138.205 47.8963 138.601 48.043 139.071 48.043C139.745 48.043 140.222 47.7607 140.501 47.196H141.854C141.67 47.7533 141.337 48.2117 140.853 48.571C140.376 48.923 139.782 49.099 139.071 49.099C138.491 49.099 137.971 48.9707 137.509 48.714C137.054 48.45 136.695 48.0833 136.431 47.614C136.174 47.1373 136.046 46.5873 136.046 45.964C136.046 45.3407 136.17 44.7943 136.42 44.325C136.676 43.8483 137.032 43.4817 137.487 43.225C137.949 42.9683 138.477 42.84 139.071 42.84C139.643 42.84 140.152 42.9647 140.6 43.214C141.047 43.4633 141.395 43.8153 141.645 44.27C141.894 44.7173 142.019 45.2343 142.019 45.821ZM140.71 45.425C140.702 44.963 140.537 44.5927 140.215 44.314C139.892 44.0353 139.492 43.896 139.016 43.896C138.583 43.896 138.213 44.0353 137.905 44.314C137.597 44.5853 137.413 44.9557 137.355 45.425H140.71ZM144.716 43.962V47.317C144.716 47.5443 144.767 47.7093 144.87 47.812C144.98 47.9073 145.163 47.955 145.42 47.955H146.19V49H145.2C144.635 49 144.202 48.868 143.902 48.604C143.601 48.34 143.451 47.911 143.451 47.317V43.962H142.736V42.939H143.451V41.432H144.716V42.939H146.19V43.962H144.716ZM149.785 45.942C149.785 45.3333 149.91 44.7943 150.159 44.325C150.416 43.8557 150.76 43.4927 151.193 43.236C151.633 42.972 152.117 42.84 152.645 42.84C153.122 42.84 153.536 42.9353 153.888 43.126C154.247 43.3093 154.533 43.5403 154.746 43.819V42.939H156.011V49H154.746V48.098C154.533 48.384 154.244 48.6223 153.877 48.813C153.51 49.0037 153.092 49.099 152.623 49.099C152.102 49.099 151.626 48.967 151.193 48.703C150.76 48.4317 150.416 48.0577 150.159 47.581C149.91 47.097 149.785 46.5507 149.785 45.942ZM154.746 45.964C154.746 45.546 154.658 45.183 154.482 44.875C154.313 44.567 154.09 44.3323 153.811 44.171C153.532 44.0097 153.232 43.929 152.909 43.929C152.586 43.929 152.286 44.0097 152.007 44.171C151.728 44.325 151.501 44.556 151.325 44.864C151.156 45.1647 151.072 45.524 151.072 45.942C151.072 46.36 151.156 46.7267 151.325 47.042C151.501 47.3573 151.728 47.5993 152.007 47.768C152.293 47.9293 152.594 48.01 152.909 48.01C153.232 48.01 153.532 47.9293 153.811 47.768C154.09 47.6067 154.313 47.372 154.482 47.064C154.658 46.7487 154.746 46.382 154.746 45.964ZM159.858 49.099C159.381 49.099 158.952 49.0147 158.571 48.846C158.197 48.67 157.9 48.4353 157.68 48.142C157.46 47.8413 157.343 47.5077 157.328 47.141H158.626C158.648 47.3977 158.769 47.614 158.989 47.79C159.216 47.9587 159.499 48.043 159.836 48.043C160.188 48.043 160.459 47.977 160.65 47.845C160.848 47.7057 160.947 47.5297 160.947 47.317C160.947 47.0897 160.837 46.921 160.617 46.811C160.404 46.701 160.063 46.58 159.594 46.448C159.139 46.3233 158.769 46.2023 158.483 46.085C158.197 45.9677 157.948 45.788 157.735 45.546C157.53 45.304 157.427 44.985 157.427 44.589C157.427 44.2663 157.522 43.973 157.713 43.709C157.904 43.4377 158.175 43.225 158.527 43.071C158.886 42.917 159.297 42.84 159.759 42.84C160.448 42.84 161.002 43.016 161.42 43.368C161.845 43.7127 162.073 44.1857 162.102 44.787H160.848C160.826 44.5157 160.716 44.2993 160.518 44.138C160.32 43.9767 160.052 43.896 159.715 43.896C159.385 43.896 159.132 43.9583 158.956 44.083C158.78 44.2077 158.692 44.3727 158.692 44.578C158.692 44.7393 158.751 44.875 158.868 44.985C158.985 45.095 159.128 45.183 159.297 45.249C159.466 45.3077 159.715 45.3847 160.045 45.48C160.485 45.5973 160.844 45.7183 161.123 45.843C161.409 45.9603 161.655 46.1363 161.86 46.371C162.065 46.6057 162.172 46.9173 162.179 47.306C162.179 47.6507 162.084 47.9587 161.893 48.23C161.702 48.5013 161.431 48.714 161.079 48.868C160.734 49.022 160.327 49.099 159.858 49.099ZM174.531 42.939L172.65 49H171.33L170.109 44.523L168.888 49H167.568L165.676 42.939H166.952L168.217 47.812L169.504 42.939H170.813L172.045 47.79L173.299 42.939H174.531ZM175.051 45.942C175.051 45.3333 175.175 44.7943 175.425 44.325C175.681 43.8557 176.026 43.4927 176.459 43.236C176.899 42.972 177.383 42.84 177.911 42.84C178.387 42.84 178.802 42.9353 179.154 43.126C179.513 43.3093 179.799 43.5403 180.012 43.819V42.939H181.277V49H180.012V48.098C179.799 48.384 179.509 48.6223 179.143 48.813C178.776 49.0037 178.358 49.099 177.889 49.099C177.368 49.099 176.891 48.967 176.459 48.703C176.026 48.4317 175.681 48.0577 175.425 47.581C175.175 47.097 175.051 46.5507 175.051 45.942ZM180.012 45.964C180.012 45.546 179.924 45.183 179.748 44.875C179.579 44.567 179.355 44.3323 179.077 44.171C178.798 44.0097 178.497 43.929 178.175 43.929C177.852 43.929 177.551 44.0097 177.273 44.171C176.994 44.325 176.767 44.556 176.591 44.864C176.422 45.1647 176.338 45.524 176.338 45.942C176.338 46.36 176.422 46.7267 176.591 47.042C176.767 47.3573 176.994 47.5993 177.273 47.768C177.559 47.9293 177.859 48.01 178.175 48.01C178.497 48.01 178.798 47.9293 179.077 47.768C179.355 47.6067 179.579 47.372 179.748 47.064C179.924 46.7487 180.012 46.382 180.012 45.964ZM184.178 40.86V49H182.924V40.86H184.178ZM187.078 40.86V49H185.824V40.86H187.078ZM189.978 43.83C190.191 43.5513 190.481 43.3167 190.847 43.126C191.214 42.9353 191.628 42.84 192.09 42.84C192.618 42.84 193.099 42.972 193.531 43.236C193.971 43.4927 194.316 43.8557 194.565 44.325C194.815 44.7943 194.939 45.3333 194.939 45.942C194.939 46.5507 194.815 47.097 194.565 47.581C194.316 48.0577 193.971 48.4317 193.531 48.703C193.099 48.967 192.618 49.099 192.09 49.099C191.628 49.099 191.218 49.0073 190.858 48.824C190.499 48.6333 190.206 48.3987 189.978 48.12V51.882H188.724V42.939H189.978V43.83ZM193.663 45.942C193.663 45.524 193.575 45.1647 193.399 44.864C193.231 44.556 193.003 44.325 192.717 44.171C192.439 44.0097 192.138 43.929 191.815 43.929C191.5 43.929 191.199 44.0097 190.913 44.171C190.635 44.3323 190.407 44.567 190.231 44.875C190.063 45.183 189.978 45.546 189.978 45.964C189.978 46.382 190.063 46.7487 190.231 47.064C190.407 47.372 190.635 47.6067 190.913 47.768C191.199 47.9293 191.5 48.01 191.815 48.01C192.138 48.01 192.439 47.9293 192.717 47.768C193.003 47.5993 193.231 47.3573 193.399 47.042C193.575 46.7267 193.663 46.36 193.663 45.942ZM195.761 45.942C195.761 45.3333 195.886 44.7943 196.135 44.325C196.392 43.8557 196.737 43.4927 197.169 43.236C197.609 42.972 198.093 42.84 198.621 42.84C199.098 42.84 199.512 42.9353 199.864 43.126C200.224 43.3093 200.51 43.5403 200.722 43.819V42.939H201.987V49H200.722V48.098C200.51 48.384 200.22 48.6223 199.853 48.813C199.487 49.0037 199.069 49.099 198.599 49.099C198.079 49.099 197.602 48.967 197.169 48.703C196.737 48.4317 196.392 48.0577 196.135 47.581C195.886 47.097 195.761 46.5507 195.761 45.942ZM200.722 45.964C200.722 45.546 200.634 45.183 200.458 44.875C200.29 44.567 200.066 44.3323 199.787 44.171C199.509 44.0097 199.208 43.929 198.885 43.929C198.563 43.929 198.262 44.0097 197.983 44.171C197.705 44.325 197.477 44.556 197.301 44.864C197.133 45.1647 197.048 45.524 197.048 45.942C197.048 46.36 197.133 46.7267 197.301 47.042C197.477 47.3573 197.705 47.5993 197.983 47.768C198.269 47.9293 198.57 48.01 198.885 48.01C199.208 48.01 199.509 47.9293 199.787 47.768C200.066 47.6067 200.29 47.372 200.458 47.064C200.634 46.7487 200.722 46.382 200.722 45.964ZM204.889 43.83C205.101 43.5513 205.391 43.3167 205.758 43.126C206.124 42.9353 206.539 42.84 207.001 42.84C207.529 42.84 208.009 42.972 208.442 43.236C208.882 43.4927 209.226 43.8557 209.476 44.325C209.725 44.7943 209.85 45.3333 209.85 45.942C209.85 46.5507 209.725 47.097 209.476 47.581C209.226 48.0577 208.882 48.4317 208.442 48.703C208.009 48.967 207.529 49.099 207.001 49.099C206.539 49.099 206.128 49.0073 205.769 48.824C205.409 48.6333 205.116 48.3987 204.889 48.12V51.882H203.635V42.939H204.889V43.83ZM208.574 45.942C208.574 45.524 208.486 45.1647 208.31 44.864C208.141 44.556 207.914 44.325 207.628 44.171C207.349 44.0097 207.048 43.929 206.726 43.929C206.41 43.929 206.11 44.0097 205.824 44.171C205.545 44.3323 205.318 44.567 205.142 44.875C204.973 45.183 204.889 45.546 204.889 45.964C204.889 46.382 204.973 46.7487 205.142 47.064C205.318 47.372 205.545 47.6067 205.824 47.768C206.11 47.9293 206.41 48.01 206.726 48.01C207.048 48.01 207.349 47.9293 207.628 47.768C207.914 47.5993 208.141 47.3573 208.31 47.042C208.486 46.7267 208.574 46.36 208.574 45.942ZM216.645 45.821C216.645 46.0483 216.63 46.2537 216.601 46.437H211.97C212.006 46.921 212.186 47.3097 212.509 47.603C212.831 47.8963 213.227 48.043 213.697 48.043C214.371 48.043 214.848 47.7607 215.127 47.196H216.48C216.296 47.7533 215.963 48.2117 215.479 48.571C215.002 48.923 214.408 49.099 213.697 49.099C213.117 49.099 212.597 48.9707 212.135 48.714C211.68 48.45 211.321 48.0833 211.057 47.614C210.8 47.1373 210.672 46.5873 210.672 45.964C210.672 45.3407 210.796 44.7943 211.046 44.325C211.302 43.8483 211.658 43.4817 212.113 43.225C212.575 42.9683 213.103 42.84 213.697 42.84C214.269 42.84 214.778 42.9647 215.226 43.214C215.673 43.4633 216.021 43.8153 216.271 44.27C216.52 44.7173 216.645 45.2343 216.645 45.821ZM215.336 45.425C215.328 44.963 215.163 44.5927 214.841 44.314C214.518 44.0353 214.118 43.896 213.642 43.896C213.209 43.896 212.839 44.0353 212.531 44.314C212.223 44.5853 212.039 44.9557 211.981 45.425H215.336ZM219.133 43.819C219.316 43.511 219.558 43.2727 219.859 43.104C220.167 42.928 220.53 42.84 220.948 42.84V44.138H220.629C220.137 44.138 219.763 44.2627 219.507 44.512C219.257 44.7613 219.133 45.194 219.133 45.81V49H217.879V42.939H219.133V43.819Z"></path>
<defs>
<linearGradient gradientUnits="userSpaceOnUse" y2="50.3328" x2="266.999" y1="38.9995" x1="258.333" id="paint0_linear_1013_305">
<stop stop-color="#50E6FF"></stop>
<stop stop-color="#0270C2" offset="1"></stop>
</linearGradient>
<linearGradient gradientUnits="userSpaceOnUse" y2="45.6663" x2="258.333" y1="44.3329" x1="257" id="paint1_linear_1013_305">
<stop stop-color="#E25113"></stop>
<stop stop-color="#C7390A" offset="1"></stop>
</linearGradient>
<linearGradient gradientUnits="userSpaceOnUse" y2="42.3328" x2="260.333" y1="40.9994" x1="259" id="paint2_linear_1013_305">
<stop stop-color="#55B50E"></stop>
<stop stop-color="#1C8610" offset="1"></stop>
</linearGradient>
<linearGradient gradientUnits="userSpaceOnUse" y2="40.9995" x2="263.666" y1="39.6662" x1="262.333" id="paint3_linear_1013_305">
<stop stop-color="#FFD300"></stop>
<stop stop-color="#F39808" offset="1"></stop>
</linearGradient>
<linearGradient gradientUnits="userSpaceOnUse" y2="44.9996" x2="267.666" y1="44.9996" x1="265.666" id="paint4_linear_1013_305">
<stop stop-color="#AA6701"></stop>
<stop stop-color="#814406" offset="1"></stop>
</linearGradient>
<linearGradient gradientUnits="userSpaceOnUse" y2="44.9996" x2="267.666" y1="44.9996" x1="265.666" id="paint5_linear_1013_305">
<stop stop-color="#CAD2D9"></stop>
<stop stop-color="#939BA2" offset="1"></stop>
</linearGradient>
<linearGradient gradientUnits="userSpaceOnUse" y2="44.3329" x2="267.666" y1="41.6663" x1="265" id="paint6_linear_1013_305">
<stop stop-color="#F7DEAA"></stop>
<stop stop-color="#C3935E" offset="1"></stop>
</linearGradient>
<linearGradient gradientUnits="userSpaceOnUse" y2="49" x2="121" y1="38" x1="106" id="paint7_linear_1013_305">
<stop stop-color="#188EDB"></stop>
<stop stop-color="#7D5AB6" offset="1"></stop>
</linearGradient>
<linearGradient gradientUnits="userSpaceOnUse" y2="53" x2="119" y1="48" x1="114" id="paint8_linear_1013_305">
<stop stop-color="#037AD2"></stop>
<stop stop-color="#2C9EE2" offset="1"></stop>
</linearGradient>
<linearGradient gradientUnits="userSpaceOnUse" y2="49" x2="112" y1="45" x1="108" id="paint9_linear_1013_305">
<stop stop-color="#4DDDFB"></stop>
<stop stop-color="#2AB2EB" offset="1"></stop>
</linearGradient>
</defs>
</svg>
