<svg xmlns="http://www.w3.org/2000/svg" fill="none" viewBox="0 0 480 360" height="360" width="480">
<path fill="white" d="M152.765 43L149.069 36.472H147.485V43H144.125V26.248H150.413C151.709 26.248 152.813 26.48 153.725 26.944C154.637 27.392 155.317 28.008 155.765 28.792C156.229 29.56 156.461 30.424 156.461 31.384C156.461 32.488 156.141 33.488 155.501 34.384C154.861 35.264 153.909 35.872 152.645 36.208L156.653 43H152.765ZM147.485 33.952H150.293C151.205 33.952 151.885 33.736 152.333 33.304C152.781 32.856 153.005 32.24 153.005 31.456C153.005 30.688 152.781 30.096 152.333 29.68C151.885 29.248 151.205 29.032 150.293 29.032H147.485V33.952ZM171.86 36.064C171.86 36.544 171.828 36.976 171.764 37.36H162.044C162.124 38.32 162.46 39.072 163.052 39.616C163.644 40.16 164.372 40.432 165.236 40.432C166.484 40.432 167.372 39.896 167.9 38.824H171.524C171.14 40.104 170.404 41.16 169.316 41.992C168.228 42.808 166.892 43.216 165.308 43.216C164.028 43.216 162.876 42.936 161.852 42.376C160.844 41.8 160.052 40.992 159.476 39.952C158.916 38.912 158.636 37.712 158.636 36.352C158.636 34.976 158.916 33.768 159.476 32.728C160.036 31.688 160.82 30.888 161.828 30.328C162.836 29.768 163.996 29.488 165.308 29.488C166.572 29.488 167.7 29.76 168.692 30.304C169.7 30.848 170.476 31.624 171.02 32.632C171.58 33.624 171.86 34.768 171.86 36.064ZM168.38 35.104C168.364 34.24 168.052 33.552 167.444 33.04C166.836 32.512 166.092 32.248 165.212 32.248C164.38 32.248 163.676 32.504 163.1 33.016C162.54 33.512 162.196 34.208 162.068 35.104H168.38ZM176.016 28.12C175.424 28.12 174.928 27.936 174.528 27.568C174.144 27.184 173.952 26.712 173.952 26.152C173.952 25.592 174.144 25.128 174.528 24.76C174.928 24.376 175.424 24.184 176.016 24.184C176.608 24.184 177.096 24.376 177.48 24.76C177.88 25.128 178.08 25.592 178.08 26.152C178.08 26.712 177.88 27.184 177.48 27.568C177.096 27.936 176.608 28.12 176.016 28.12ZM177.672 29.704V43H174.312V29.704H177.672ZM188.36 29.512C189.944 29.512 191.224 30.016 192.2 31.024C193.176 32.016 193.664 33.408 193.664 35.2V43H190.304V35.656C190.304 34.6 190.04 33.792 189.512 33.232C188.984 32.656 188.264 32.368 187.352 32.368C186.424 32.368 185.688 32.656 185.144 33.232C184.616 33.792 184.352 34.6 184.352 35.656V43H180.992V29.704H184.352V31.36C184.8 30.784 185.368 30.336 186.056 30.016C186.76 29.68 187.528 29.512 188.36 29.512ZM201.947 43.216C200.859 43.216 199.883 43.024 199.019 42.64C198.155 42.24 197.467 41.704 196.955 41.032C196.459 40.36 196.187 39.616 196.139 38.8H199.523C199.587 39.312 199.835 39.736 200.267 40.072C200.715 40.408 201.267 40.576 201.923 40.576C202.563 40.576 203.059 40.448 203.411 40.192C203.779 39.936 203.963 39.608 203.963 39.208C203.963 38.776 203.739 38.456 203.291 38.248C202.859 38.024 202.163 37.784 201.203 37.528C200.211 37.288 199.395 37.04 198.755 36.784C198.131 36.528 197.587 36.136 197.123 35.608C196.675 35.08 196.451 34.368 196.451 33.472C196.451 32.736 196.659 32.064 197.075 31.456C197.507 30.848 198.115 30.368 198.899 30.016C199.699 29.664 200.635 29.488 201.707 29.488C203.291 29.488 204.555 29.888 205.499 30.688C206.443 31.472 206.963 32.536 207.059 33.88H203.843C203.795 33.352 203.571 32.936 203.171 32.632C202.787 32.312 202.267 32.152 201.611 32.152C201.003 32.152 200.531 32.264 200.195 32.488C199.875 32.712 199.715 33.024 199.715 33.424C199.715 33.872 199.939 34.216 200.387 34.456C200.835 34.68 201.531 34.912 202.475 35.152C203.435 35.392 204.227 35.64 204.851 35.896C205.475 36.152 206.011 36.552 206.459 37.096C206.923 37.624 207.163 38.328 207.179 39.208C207.179 39.976 206.963 40.664 206.531 41.272C206.115 41.88 205.507 42.36 204.707 42.712C203.923 43.048 203.003 43.216 201.947 43.216ZM213.849 32.464V38.896C213.849 39.344 213.953 39.672 214.161 39.88C214.385 40.072 214.753 40.168 215.265 40.168H216.825V43H214.713C211.881 43 210.465 41.624 210.465 38.872V32.464H208.881V29.704H210.465V26.416H213.849V29.704H216.825V32.464H213.849ZM218.378 36.304C218.378 34.96 218.642 33.768 219.17 32.728C219.714 31.688 220.442 30.888 221.354 30.328C222.282 29.768 223.314 29.488 224.45 29.488C225.442 29.488 226.306 29.688 227.042 30.088C227.794 30.488 228.394 30.992 228.842 31.6V29.704H232.226V43H228.842V41.056C228.41 41.68 227.81 42.2 227.042 42.616C226.29 43.016 225.418 43.216 224.426 43.216C223.306 43.216 222.282 42.928 221.354 42.352C220.442 41.776 219.714 40.968 219.17 39.928C218.642 38.872 218.378 37.664 218.378 36.304ZM228.842 36.352C228.842 35.536 228.682 34.84 228.362 34.264C228.042 33.672 227.61 33.224 227.066 32.92C226.522 32.6 225.938 32.44 225.314 32.44C224.69 32.44 224.114 32.592 223.586 32.896C223.058 33.2 222.626 33.648 222.29 34.24C221.97 34.816 221.81 35.504 221.81 36.304C221.81 37.104 221.97 37.808 222.29 38.416C222.626 39.008 223.058 39.464 223.586 39.784C224.13 40.104 224.706 40.264 225.314 40.264C225.938 40.264 226.522 40.112 227.066 39.808C227.61 39.488 228.042 39.04 228.362 38.464C228.682 37.872 228.842 37.168 228.842 36.352ZM238.868 25.24V43H235.508V25.24H238.868ZM245.547 25.24V43H242.187V25.24H245.547ZM250.571 28.12C249.979 28.12 249.483 27.936 249.083 27.568C248.699 27.184 248.507 26.712 248.507 26.152C248.507 25.592 248.699 25.128 249.083 24.76C249.483 24.376 249.979 24.184 250.571 24.184C251.163 24.184 251.651 24.376 252.035 24.76C252.435 25.128 252.635 25.592 252.635 26.152C252.635 26.712 252.435 27.184 252.035 27.568C251.651 27.936 251.163 28.12 250.571 28.12ZM252.227 29.704V43H248.867V29.704H252.227ZM262.915 29.512C264.499 29.512 265.779 30.016 266.755 31.024C267.731 32.016 268.219 33.408 268.219 35.2V43H264.859V35.656C264.859 34.6 264.595 33.792 264.067 33.232C263.539 32.656 262.819 32.368 261.907 32.368C260.979 32.368 260.243 32.656 259.699 33.232C259.171 33.792 258.907 34.6 258.907 35.656V43H255.547V29.704H258.907V31.36C259.355 30.784 259.923 30.336 260.611 30.016C261.315 29.68 262.083 29.512 262.915 29.512ZM276.622 29.488C277.614 29.488 278.486 29.688 279.238 30.088C279.99 30.472 280.582 30.976 281.014 31.6V29.704H284.398V43.096C284.398 44.328 284.15 45.424 283.654 46.384C283.158 47.36 282.414 48.128 281.422 48.688C280.43 49.264 279.23 49.552 277.822 49.552C275.934 49.552 274.382 49.112 273.166 48.232C271.966 47.352 271.286 46.152 271.126 44.632H274.462C274.638 45.24 275.014 45.72 275.59 46.072C276.182 46.44 276.894 46.624 277.726 46.624C278.702 46.624 279.494 46.328 280.102 45.736C280.71 45.16 281.014 44.28 281.014 43.096V41.032C280.582 41.656 279.982 42.176 279.214 42.592C278.462 43.008 277.598 43.216 276.622 43.216C275.502 43.216 274.478 42.928 273.55 42.352C272.622 41.776 271.886 40.968 271.342 39.928C270.814 38.872 270.55 37.664 270.55 36.304C270.55 34.96 270.814 33.768 271.342 32.728C271.886 31.688 272.614 30.888 273.526 30.328C274.454 29.768 275.486 29.488 276.622 29.488ZM281.014 36.352C281.014 35.536 280.854 34.84 280.534 34.264C280.214 33.672 279.782 33.224 279.238 32.92C278.694 32.6 278.11 32.44 277.486 32.44C276.862 32.44 276.286 32.592 275.758 32.896C275.23 33.2 274.798 33.648 274.462 34.24C274.142 34.816 273.982 35.504 273.982 36.304C273.982 37.104 274.142 37.808 274.462 38.416C274.798 39.008 275.23 39.464 275.758 39.784C276.302 40.104 276.878 40.264 277.486 40.264C278.11 40.264 278.694 40.112 279.238 39.808C279.782 39.488 280.214 39.04 280.534 38.464C280.854 37.872 281.014 37.168 281.014 36.352ZM315.79 26.248L311.11 43H307.15L304.006 31.072L300.718 43L296.782 43.024L292.27 26.248H295.87L298.822 39.256L302.23 26.248H305.974L309.19 39.184L312.166 26.248H315.79ZM319.688 28.12C319.096 28.12 318.6 27.936 318.2 27.568C317.816 27.184 317.624 26.712 317.624 26.152C317.624 25.592 317.816 25.128 318.2 24.76C318.6 24.376 319.096 24.184 319.688 24.184C320.28 24.184 320.768 24.376 321.152 24.76C321.552 25.128 321.752 25.592 321.752 26.152C321.752 26.712 321.552 27.184 321.152 27.568C320.768 27.936 320.28 28.12 319.688 28.12ZM321.344 29.704V43H317.984V29.704H321.344ZM332.032 29.512C333.616 29.512 334.896 30.016 335.872 31.024C336.848 32.016 337.336 33.408 337.336 35.2V43H333.976V35.656C333.976 34.6 333.712 33.792 333.184 33.232C332.656 32.656 331.936 32.368 331.024 32.368C330.096 32.368 329.36 32.656 328.816 33.232C328.288 33.792 328.024 34.6 328.024 35.656V43H324.664V29.704H328.024V31.36C328.472 30.784 329.04 30.336 329.728 30.016C330.432 29.68 331.2 29.512 332.032 29.512ZM339.667 36.304C339.667 34.96 339.931 33.768 340.459 32.728C341.003 31.688 341.739 30.888 342.667 30.328C343.595 29.768 344.627 29.488 345.763 29.488C346.627 29.488 347.451 29.68 348.235 30.064C349.019 30.432 349.643 30.928 350.107 31.552V25.24H353.515V43H350.107V41.032C349.691 41.688 349.107 42.216 348.355 42.616C347.603 43.016 346.731 43.216 345.739 43.216C344.619 43.216 343.595 42.928 342.667 42.352C341.739 41.776 341.003 40.968 340.459 39.928C339.931 38.872 339.667 37.664 339.667 36.304ZM350.131 36.352C350.131 35.536 349.971 34.84 349.651 34.264C349.331 33.672 348.899 33.224 348.355 32.92C347.811 32.6 347.227 32.44 346.603 32.44C345.979 32.44 345.403 32.592 344.875 32.896C344.347 33.2 343.915 33.648 343.579 34.24C343.259 34.816 343.099 35.504 343.099 36.304C343.099 37.104 343.259 37.808 343.579 38.416C343.915 39.008 344.347 39.464 344.875 39.784C345.419 40.104 345.995 40.264 346.603 40.264C347.227 40.264 347.811 40.112 348.355 39.808C348.899 39.488 349.331 39.04 349.651 38.464C349.971 37.872 350.131 37.168 350.131 36.352ZM362.701 43.216C361.421 43.216 360.269 42.936 359.245 42.376C358.221 41.8 357.413 40.992 356.821 39.952C356.245 38.912 355.957 37.712 355.957 36.352C355.957 34.992 356.253 33.792 356.845 32.752C357.453 31.712 358.277 30.912 359.317 30.352C360.357 29.776 361.517 29.488 362.797 29.488C364.077 29.488 365.237 29.776 366.277 30.352C367.317 30.912 368.133 31.712 368.725 32.752C369.333 33.792 369.637 34.992 369.637 36.352C369.637 37.712 369.325 38.912 368.701 39.952C368.093 40.992 367.261 41.8 366.205 42.376C365.165 42.936 363.997 43.216 362.701 43.216ZM362.701 40.288C363.309 40.288 363.877 40.144 364.405 39.856C364.949 39.552 365.381 39.104 365.701 38.512C366.021 37.92 366.181 37.2 366.181 36.352C366.181 35.088 365.845 34.12 365.173 33.448C364.517 32.76 363.709 32.416 362.749 32.416C361.789 32.416 360.981 32.76 360.325 33.448C359.685 34.12 359.365 35.088 359.365 36.352C359.365 37.616 359.677 38.592 360.301 39.28C360.941 39.952 361.741 40.288 362.701 40.288ZM390.533 29.704L386.645 43H383.021L380.597 33.712L378.173 43H374.525L370.613 29.704H374.021L376.373 39.832L378.917 29.704H382.469L384.965 39.808L387.317 29.704H390.533ZM397.439 43.216C396.351 43.216 395.375 43.024 394.511 42.64C393.647 42.24 392.959 41.704 392.447 41.032C391.951 40.36 391.679 39.616 391.631 38.8H395.015C395.079 39.312 395.327 39.736 395.759 40.072C396.207 40.408 396.759 40.576 397.415 40.576C398.055 40.576 398.551 40.448 398.903 40.192C399.271 39.936 399.455 39.608 399.455 39.208C399.455 38.776 399.231 38.456 398.783 38.248C398.351 38.024 397.655 37.784 396.695 37.528C395.703 37.288 394.887 37.04 394.247 36.784C393.623 36.528 393.079 36.136 392.615 35.608C392.167 35.08 391.943 34.368 391.943 33.472C391.943 32.736 392.151 32.064 392.567 31.456C392.999 30.848 393.607 30.368 394.391 30.016C395.191 29.664 396.127 29.488 397.199 29.488C398.783 29.488 400.047 29.888 400.991 30.688C401.935 31.472 402.455 32.536 402.551 33.88H399.335C399.287 33.352 399.063 32.936 398.663 32.632C398.279 32.312 397.759 32.152 397.103 32.152C396.495 32.152 396.023 32.264 395.687 32.488C395.367 32.712 395.207 33.024 395.207 33.424C395.207 33.872 395.431 34.216 395.879 34.456C396.327 34.68 397.023 34.912 397.967 35.152C398.927 35.392 399.719 35.64 400.343 35.896C400.967 36.152 401.503 36.552 401.951 37.096C402.415 37.624 402.655 38.328 402.671 39.208C402.671 39.976 402.455 40.664 402.023 41.272C401.607 41.88 400.999 42.36 400.199 42.712C399.415 43.048 398.495 43.216 397.439 43.216ZM410.356 28.6V25.504H416.14V43H412.684V28.6H410.356ZM419.052 28.6V25.504H424.836V43H421.38V28.6H419.052ZM440.042 43.168C438.874 43.168 437.818 42.968 436.874 42.568C435.946 42.168 435.21 41.592 434.666 40.84C434.122 40.088 433.842 39.2 433.826 38.176H437.426C437.474 38.864 437.714 39.408 438.146 39.808C438.594 40.208 439.202 40.408 439.97 40.408C440.754 40.408 441.37 40.224 441.818 39.856C442.266 39.472 442.49 38.976 442.49 38.368C442.49 37.872 442.338 37.464 442.034 37.144C441.73 36.824 441.346 36.576 440.882 36.4C440.434 36.208 439.81 36 439.01 35.776C437.922 35.456 437.034 35.144 436.346 34.84C435.674 34.52 435.09 34.048 434.594 33.424C434.114 32.784 433.874 31.936 433.874 30.88C433.874 29.888 434.122 29.024 434.618 28.288C435.114 27.552 435.81 26.992 436.706 26.608C437.602 26.208 438.626 26.008 439.778 26.008C441.506 26.008 442.906 26.432 443.978 27.28C445.066 28.112 445.666 29.28 445.778 30.784H442.082C442.05 30.208 441.802 29.736 441.338 29.368C440.89 28.984 440.29 28.792 439.538 28.792C438.882 28.792 438.354 28.96 437.954 29.296C437.57 29.632 437.378 30.12 437.378 30.76C437.378 31.208 437.522 31.584 437.81 31.888C438.114 32.176 438.482 32.416 438.914 32.608C439.362 32.784 439.986 32.992 440.786 33.232C441.874 33.552 442.762 33.872 443.45 34.192C444.138 34.512 444.73 34.992 445.226 35.632C445.722 36.272 445.97 37.112 445.97 38.152C445.97 39.048 445.738 39.88 445.274 40.648C444.81 41.416 444.13 42.032 443.234 42.496C442.338 42.944 441.274 43.168 440.042 43.168ZM452.243 28.96V33.16H457.883V35.824H452.243V40.264H458.603V43H448.883V26.224H458.603V28.96H452.243Z"></path>
<rect fill-opacity="0.1" fill="white" rx="5" height="10" width="360" y="110" x="60"></rect>
</svg>
