<svg xmlns="http://www.w3.org/2000/svg" fill="none" viewBox="0 0 100 80" height="80" width="100">
<path fill="white" d="M16.41 56.355V57.378H14.375V64H13.121V57.378H11.075V56.355H16.41ZM17.262 60.942C17.262 60.3333 17.3866 59.7943 17.636 59.325C17.8926 58.8557 18.2373 58.4927 18.67 58.236C19.11 57.972 19.594 57.84 20.122 57.84C20.5986 57.84 21.013 57.9353 21.365 58.126C21.7243 58.3093 22.0103 58.5403 22.223 58.819V57.939H23.488V64H22.223V63.098C22.0103 63.384 21.7206 63.6223 21.354 63.813C20.9873 64.0037 20.5693 64.099 20.1 64.099C19.5793 64.099 19.1026 63.967 18.67 63.703C18.2373 63.4317 17.8926 63.0577 17.636 62.581C17.3866 62.097 17.262 61.5507 17.262 60.942ZM22.223 60.964C22.223 60.546 22.135 60.183 21.959 59.875C21.7903 59.567 21.5666 59.3323 21.288 59.171C21.0093 59.0097 20.7086 58.929 20.386 58.929C20.0633 58.929 19.7626 59.0097 19.484 59.171C19.2053 59.325 18.978 59.556 18.802 59.864C18.6333 60.1647 18.549 60.524 18.549 60.942C18.549 61.36 18.6333 61.7267 18.802 62.042C18.978 62.3573 19.2053 62.5993 19.484 62.768C19.77 62.9293 20.0706 63.01 20.386 63.01C20.7086 63.01 21.0093 62.9293 21.288 62.768C21.5666 62.6067 21.7903 62.372 21.959 62.064C22.135 61.7487 22.223 61.382 22.223 60.964ZM27.3351 64.099C26.8584 64.099 26.4294 64.0147 26.0481 63.846C25.6741 63.67 25.3771 63.4353 25.1571 63.142C24.9371 62.8413 24.8197 62.5077 24.8051 62.141H26.1031C26.1251 62.3977 26.2461 62.614 26.4661 62.79C26.6934 62.9587 26.9757 63.043 27.3131 63.043C27.6651 63.043 27.9364 62.977 28.1271 62.845C28.3251 62.7057 28.4241 62.5297 28.4241 62.317C28.4241 62.0897 28.3141 61.921 28.0941 61.811C27.8814 61.701 27.5404 61.58 27.0711 61.448C26.6164 61.3233 26.2461 61.2023 25.9601 61.085C25.6741 60.9677 25.4247 60.788 25.2121 60.546C25.0067 60.304 24.9041 59.985 24.9041 59.589C24.9041 59.2663 24.9994 58.973 25.1901 58.709C25.3807 58.4377 25.6521 58.225 26.0041 58.071C26.3634 57.917 26.7741 57.84 27.2361 57.84C27.9254 57.84 28.4791 58.016 28.8971 58.368C29.3224 58.7127 29.5497 59.1857 29.5791 59.787H28.3251C28.3031 59.5157 28.1931 59.2993 27.9951 59.138C27.7971 58.9767 27.5294 58.896 27.1921 58.896C26.8621 58.896 26.6091 58.9583 26.4331 59.083C26.2571 59.2077 26.1691 59.3727 26.1691 59.578C26.1691 59.7393 26.2277 59.875 26.3451 59.985C26.4624 60.095 26.6054 60.183 26.7741 60.249C26.9427 60.3077 27.1921 60.3847 27.5221 60.48C27.9621 60.5973 28.3214 60.7183 28.6001 60.843C28.8861 60.9603 29.1317 61.1363 29.3371 61.371C29.5424 61.6057 29.6487 61.9173 29.6561 62.306C29.6561 62.6507 29.5607 62.9587 29.3701 63.23C29.1794 63.5013 28.9081 63.714 28.5561 63.868C28.2114 64.022 27.8044 64.099 27.3351 64.099ZM33.409 60.975L36.203 64H34.509L32.265 61.393V64H31.011V55.86H32.265V60.59L34.465 57.939H36.203L33.409 60.975ZM48.0113 56.355V64H46.7573V58.764L44.4253 64H43.5563L41.2133 58.764V64H39.9593V56.355H41.3123L43.9963 62.35L46.6693 56.355H48.0113ZM49.2415 60.942C49.2415 60.3333 49.3661 59.7943 49.6155 59.325C49.8721 58.8557 50.2168 58.4927 50.6495 58.236C51.0895 57.972 51.5735 57.84 52.1015 57.84C52.5781 57.84 52.9925 57.9353 53.3445 58.126C53.7038 58.3093 53.9898 58.5403 54.2025 58.819V57.939H55.4675V64H54.2025V63.098C53.9898 63.384 53.7001 63.6223 53.3335 63.813C52.9668 64.0037 52.5488 64.099 52.0795 64.099C51.5588 64.099 51.0821 63.967 50.6495 63.703C50.2168 63.4317 49.8721 63.0577 49.6155 62.581C49.3661 62.097 49.2415 61.5507 49.2415 60.942ZM54.2025 60.964C54.2025 60.546 54.1145 60.183 53.9385 59.875C53.7698 59.567 53.5461 59.3323 53.2675 59.171C52.9888 59.0097 52.6881 58.929 52.3655 58.929C52.0428 58.929 51.7421 59.0097 51.4635 59.171C51.1848 59.325 50.9575 59.556 50.7815 59.864C50.6128 60.1647 50.5285 60.524 50.5285 60.942C50.5285 61.36 50.6128 61.7267 50.7815 62.042C50.9575 62.3573 51.1848 62.5993 51.4635 62.768C51.7495 62.9293 52.0501 63.01 52.3655 63.01C52.6881 63.01 52.9888 62.9293 53.2675 62.768C53.5461 62.6067 53.7698 62.372 53.9385 62.064C54.1145 61.7487 54.2025 61.382 54.2025 60.964ZM60.1726 57.84C60.6492 57.84 61.0746 57.939 61.4486 58.137C61.8299 58.335 62.1269 58.6283 62.3396 59.017C62.5522 59.4057 62.6586 59.875 62.6586 60.425V64H61.4156V60.612C61.4156 60.0693 61.2799 59.655 61.0086 59.369C60.7372 59.0757 60.3669 58.929 59.8976 58.929C59.4282 58.929 59.0542 59.0757 58.7756 59.369C58.5042 59.655 58.3686 60.0693 58.3686 60.612V64H57.1146V57.939H58.3686V58.632C58.5739 58.3827 58.8342 58.1883 59.1496 58.049C59.4722 57.9097 59.8132 57.84 60.1726 57.84ZM63.8401 60.942C63.8401 60.3333 63.9648 59.7943 64.2141 59.325C64.4708 58.8557 64.8154 58.4927 65.2481 58.236C65.6881 57.972 66.1721 57.84 66.7001 57.84C67.1768 57.84 67.5911 57.9353 67.9431 58.126C68.3024 58.3093 68.5884 58.5403 68.8011 58.819V57.939H70.0661V64H68.8011V63.098C68.5884 63.384 68.2988 63.6223 67.9321 63.813C67.5654 64.0037 67.1474 64.099 66.6781 64.099C66.1574 64.099 65.6808 63.967 65.2481 63.703C64.8154 63.4317 64.4708 63.0577 64.2141 62.581C63.9648 62.097 63.8401 61.5507 63.8401 60.942ZM68.8011 60.964C68.8011 60.546 68.7131 60.183 68.5371 59.875C68.3684 59.567 68.1448 59.3323 67.8661 59.171C67.5874 59.0097 67.2868 58.929 66.9641 58.929C66.6414 58.929 66.3408 59.0097 66.0621 59.171C65.7834 59.325 65.5561 59.556 65.3801 59.864C65.2114 60.1647 65.1271 60.524 65.1271 60.942C65.1271 61.36 65.2114 61.7267 65.3801 62.042C65.5561 62.3573 65.7834 62.5993 66.0621 62.768C66.3481 62.9293 66.6488 63.01 66.9641 63.01C67.2868 63.01 67.5874 62.9293 67.8661 62.768C68.1448 62.6067 68.3684 62.372 68.5371 62.064C68.7131 61.7487 68.8011 61.382 68.8011 60.964ZM74.1552 57.84C74.6245 57.84 75.0389 57.9353 75.3982 58.126C75.7649 58.3093 76.0509 58.5403 76.2562 58.819V57.939H77.5212V64.099C77.5212 64.6563 77.4039 65.1513 77.1692 65.584C76.9345 66.024 76.5935 66.3687 76.1462 66.618C75.7062 66.8673 75.1782 66.992 74.5622 66.992C73.7409 66.992 73.0589 66.7977 72.5162 66.409C71.9735 66.0277 71.6655 65.507 71.5922 64.847H72.8352C72.9305 65.1623 73.1322 65.4153 73.4402 65.606C73.7555 65.804 74.1295 65.903 74.5622 65.903C75.0682 65.903 75.4752 65.749 75.7832 65.441C76.0985 65.133 76.2562 64.6857 76.2562 64.099V63.087C76.0435 63.373 75.7539 63.615 75.3872 63.813C75.0279 64.0037 74.6172 64.099 74.1552 64.099C73.6272 64.099 73.1432 63.967 72.7032 63.703C72.2705 63.4317 71.9259 63.0577 71.6692 62.581C71.4199 62.097 71.2952 61.5507 71.2952 60.942C71.2952 60.3333 71.4199 59.7943 71.6692 59.325C71.9259 58.8557 72.2705 58.4927 72.7032 58.236C73.1432 57.972 73.6272 57.84 74.1552 57.84ZM76.2562 60.964C76.2562 60.546 76.1682 60.183 75.9922 59.875C75.8235 59.567 75.5999 59.3323 75.3212 59.171C75.0425 59.0097 74.7419 58.929 74.4192 58.929C74.0965 58.929 73.7959 59.0097 73.5172 59.171C73.2385 59.325 73.0112 59.556 72.8352 59.864C72.6665 60.1647 72.5822 60.524 72.5822 60.942C72.5822 61.36 72.6665 61.7267 72.8352 62.042C73.0112 62.3573 73.2385 62.5993 73.5172 62.768C73.8032 62.9293 74.1039 63.01 74.4192 63.01C74.7419 63.01 75.0425 62.9293 75.3212 62.768C75.5999 62.6067 75.8235 62.372 75.9922 62.064C76.1682 61.7487 76.2562 61.382 76.2562 60.964ZM84.7233 60.821C84.7233 61.0483 84.7086 61.2537 84.6793 61.437H80.0483C80.0849 61.921 80.2646 62.3097 80.5873 62.603C80.9099 62.8963 81.3059 63.043 81.7753 63.043C82.4499 63.043 82.9266 62.7607 83.2053 62.196H84.5583C84.3749 62.7533 84.0413 63.2117 83.5573 63.571C83.0806 63.923 82.4866 64.099 81.7753 64.099C81.1959 64.099 80.6753 63.9707 80.2133 63.714C79.7586 63.45 79.3993 63.0833 79.1353 62.614C78.8786 62.1373 78.7503 61.5873 78.7503 60.964C78.7503 60.3407 78.8749 59.7943 79.1243 59.325C79.3809 58.8483 79.7366 58.4817 80.1913 58.225C80.6533 57.9683 81.1813 57.84 81.7753 57.84C82.3473 57.84 82.8569 57.9647 83.3043 58.214C83.7516 58.4633 84.0999 58.8153 84.3493 59.27C84.5986 59.7173 84.7233 60.2343 84.7233 60.821ZM83.4143 60.425C83.4069 59.963 83.2419 59.5927 82.9193 59.314C82.5966 59.0353 82.1969 58.896 81.7203 58.896C81.2876 58.896 80.9173 59.0353 80.6093 59.314C80.3013 59.5853 80.1179 59.9557 80.0593 60.425H83.4143ZM87.2113 58.819C87.3947 58.511 87.6367 58.2727 87.9373 58.104C88.2453 57.928 88.6083 57.84 89.0263 57.84V59.138H88.7073C88.216 59.138 87.842 59.2627 87.5853 59.512C87.336 59.7613 87.2113 60.194 87.2113 60.81V64H85.9573V57.939H87.2113V58.819Z"></path>
<rect fill="white" rx="1" height="14" width="20" y="23" x="40"></rect>
<path stroke-linejoin="round" stroke-linecap="round" stroke="#25A3E7" d="M40 31H42L44 28L47 33L51 24L54.5 35L57 31H60"></path>
<path fill="url(#paint0_linear_311_215)" d="M42 31H40V37H60V31H57L54.5 35L51 24L47 33L44 28L42 31Z"></path>
<rect stroke-width="2" stroke="url(#paint1_linear_311_215)" rx="2" height="16" width="22" y="22" x="39"></rect>
<defs>
<linearGradient gradientUnits="userSpaceOnUse" y2="37" x2="50" y1="24" x1="50" id="paint0_linear_311_215">
<stop stop-opacity="0.75" stop-color="#25A3E7"></stop>
<stop stop-opacity="0" stop-color="#25A3E7" offset="1"></stop>
</linearGradient>
<linearGradient gradientUnits="userSpaceOnUse" y2="39" x2="50" y1="21" x1="50" id="paint1_linear_311_215">
<stop stop-color="#B9C3CA"></stop>
<stop stop-color="#8B9397" offset="1"></stop>
</linearGradient>
</defs>
</svg>
