<svg version="1.1" xmlns="http://www.w3.org/2000/svg" xmlns:xlink="http://www.w3.org/1999/xlink" width="40" height="20" viewBox="0,0,40,20"><g transform="translate(-220,-167)"><g data-paper-data="{&quot;isPaintingLayer&quot;:true}" fill-rule="nonzero" stroke="none" stroke-width="1" stroke-linecap="butt" stroke-linejoin="miter" stroke-miterlimit="10" stroke-dasharray="" stroke-dashoffset="0" style="mix-blend-mode: normal"><path d="M220,187v-20h40v20z" fill="none"></path><path d="M243.684,178.956c0.792,0 1.316,-0.348 1.572,-1.044h1.476c-0.176,0.608 -0.492,1.108 -0.948,1.5c-0.448,0.384 -1.012,0.608 -1.692,0.672v0.492c0.464,0 0.84,0.108 1.128,0.324c0.288,0.224 0.432,0.536 0.432,0.936c0,0.4 -0.144,0.716 -0.432,0.948c-0.288,0.24 -0.652,0.36 -1.092,0.36h-1.584v-0.864h1.308c0.224,0 0.392,-0.032 0.504,-0.096c0.112,-0.064 0.168,-0.18 0.168,-0.348c0,-0.168 -0.056,-0.284 -0.168,-0.348c-0.112,-0.064 -0.28,-0.096 -0.504,-0.096h-0.66v-1.32c-0.544,-0.064 -1.024,-0.244 -1.44,-0.54c-0.416,-0.304 -0.74,-0.696 -0.972,-1.176c-0.224,-0.488 -0.336,-1.044 -0.336,-1.668c0,-0.68 0.136,-1.276 0.408,-1.788c0.28,-0.52 0.664,-0.92 1.152,-1.2c0.488,-0.28 1.048,-0.42 1.68,-0.42c0.8,0 1.46,0.192 1.98,0.576c0.528,0.376 0.884,0.916 1.068,1.62h-1.476c-0.12,-0.328 -0.312,-0.584 -0.576,-0.768c-0.264,-0.184 -0.596,-0.276 -0.996,-0.276c-0.56,0 -1.008,0.2 -1.344,0.6c-0.328,0.392 -0.492,0.944 -0.492,1.656c0,0.712 0.164,1.268 0.492,1.668c0.336,0.4 0.784,0.6 1.344,0.6z" fill="#ff0000"></path></g></g></svg>