<svg version="1.1" xmlns="http://www.w3.org/2000/svg" xmlns:xlink="http://www.w3.org/1999/xlink" width="40" height="20" viewBox="0,0,40,20"><g transform="translate(-220,-167)"><g data-paper-data="{&quot;isPaintingLayer&quot;:true}" fill-rule="nonzero" stroke="none" stroke-width="1" stroke-linecap="butt" stroke-linejoin="miter" stroke-miterlimit="10" stroke-dasharray="" stroke-dashoffset="0" style="mix-blend-mode: normal"><path d="M220,187v-20h40v20z" fill="none"></path><path d="M242.268,174.372c0.232,-0.32 0.548,-0.58 0.948,-0.78c0.408,-0.208 0.86,-0.312 1.356,-0.312c0.584,0 1.112,0.14 1.584,0.42c0.472,0.28 0.844,0.68 1.116,1.2c0.272,0.512 0.408,1.1 0.408,1.764c0,0.664 -0.136,1.26 -0.408,1.788c-0.272,0.52 -0.648,0.928 -1.128,1.224c-0.472,0.288 -0.996,0.432 -1.572,0.432c-0.512,0 -0.968,-0.1 -1.368,-0.3c-0.392,-0.2 -0.704,-0.456 -0.936,-0.768v0.96h-1.368v-8.88h1.368zM246.288,176.664c0,-0.456 -0.096,-0.848 -0.288,-1.176c-0.184,-0.336 -0.432,-0.588 -0.744,-0.756c-0.304,-0.176 -0.632,-0.264 -0.984,-0.264c-0.344,0 -0.672,0.088 -0.984,0.264c-0.304,0.176 -0.552,0.432 -0.744,0.768c-0.184,0.336 -0.276,0.732 -0.276,1.188c0,0.456 0.092,0.856 0.276,1.2c0.192,0.336 0.44,0.592 0.744,0.768c0.312,0.176 0.64,0.264 0.984,0.264c0.352,0 0.68,-0.088 0.984,-0.264c0.312,-0.184 0.56,-0.448 0.744,-0.792c0.192,-0.344 0.288,-0.744 0.288,-1.2z" fill="#ff0000"></path></g></g></svg>