<svg xmlns="http://www.w3.org/2000/svg" fill="none" viewBox="0 0 480 90" height="90" width="480">
<path fill-opacity="0.9" fill="#E6E6E6" d="M88 30C88 24.4772 92.4772 20 98 20H382C387.523 20 392 24.4772 392 30V60C392 65.5228 387.523 70 382 70H98C92.4772 70 88 65.5228 88 60V30Z"></path>
<path stroke-width="2" stroke-opacity="0.2" stroke="black" d="M382 19H98C91.9249 19 87 23.9249 87 30V60C87 66.0751 91.9249 71 98 71H382C388.075 71 393 66.0751 393 60V30C393 23.9249 388.075 19 382 19Z"></path>
<path fill="#808080" d="M284.33 43.364C284.33 43.6997 284.251 44.0163 284.093 44.314C283.935 44.6117 283.681 44.8555 283.333 45.0455C282.985 45.2292 282.538 45.321 281.993 45.321H280.796V48H279.713V41.3975H281.993C282.5 41.3975 282.928 41.4862 283.276 41.6635C283.631 41.8345 283.893 42.0688 284.064 42.3665C284.242 42.6642 284.33 42.9967 284.33 43.364ZM281.993 44.4375C282.405 44.4375 282.712 44.3457 282.915 44.162C283.118 43.972 283.219 43.706 283.219 43.364C283.219 42.642 282.81 42.281 281.993 42.281H280.796V44.4375H281.993ZM285.002 45.359C285.002 44.8333 285.11 44.3678 285.325 43.9625C285.547 43.5572 285.845 43.2437 286.218 43.022C286.598 42.794 287.016 42.68 287.472 42.68C287.884 42.68 288.242 42.7623 288.546 42.927C288.856 43.0853 289.103 43.2848 289.287 43.5255V42.7655H290.379V48H289.287V47.221C289.103 47.468 288.853 47.6738 288.536 47.8385C288.22 48.0032 287.859 48.0855 287.453 48.0855C287.004 48.0855 286.592 47.9715 286.218 47.7435C285.845 47.5092 285.547 47.1862 285.325 46.7745C285.11 46.3565 285.002 45.8847 285.002 45.359ZM289.287 45.378C289.287 45.017 289.211 44.7035 289.059 44.4375C288.913 44.1715 288.72 43.9688 288.479 43.8295C288.239 43.6902 287.979 43.6205 287.7 43.6205C287.422 43.6205 287.162 43.6902 286.921 43.8295C286.681 43.9625 286.484 44.162 286.332 44.428C286.187 44.6877 286.114 44.998 286.114 45.359C286.114 45.72 286.187 46.0367 286.332 46.309C286.484 46.5813 286.681 46.7903 286.921 46.936C287.168 47.0753 287.428 47.145 287.7 47.145C287.979 47.145 288.239 47.0753 288.479 46.936C288.72 46.7967 288.913 46.594 289.059 46.328C289.211 46.0557 289.287 45.739 289.287 45.378ZM292.353 42.072C292.157 42.072 291.992 42.0055 291.859 41.8725C291.726 41.7395 291.659 41.5748 291.659 41.3785C291.659 41.1822 291.726 41.0175 291.859 40.8845C291.992 40.7515 292.157 40.685 292.353 40.685C292.543 40.685 292.704 40.7515 292.837 40.8845C292.97 41.0175 293.037 41.1822 293.037 41.3785C293.037 41.5748 292.97 41.7395 292.837 41.8725C292.704 42.0055 292.543 42.072 292.353 42.072ZM292.885 42.7655V48H291.802V42.7655H292.885ZM296.948 42.68C297.359 42.68 297.727 42.7655 298.05 42.9365C298.379 43.1075 298.636 43.3608 298.819 43.6965C299.003 44.0322 299.095 44.4375 299.095 44.9125V48H298.021V45.074C298.021 44.6053 297.904 44.2475 297.67 44.0005C297.435 43.7472 297.116 43.6205 296.71 43.6205C296.305 43.6205 295.982 43.7472 295.741 44.0005C295.507 44.2475 295.39 44.6053 295.39 45.074V48H294.307V42.7655H295.39V43.364C295.567 43.1487 295.792 42.9808 296.064 42.8605C296.343 42.7402 296.637 42.68 296.948 42.68ZM301.74 43.649V46.5465C301.74 46.7428 301.784 46.8853 301.873 46.974C301.968 47.0563 302.126 47.0975 302.348 47.0975H303.013V48H302.158C301.67 48 301.296 47.886 301.037 47.658C300.777 47.43 300.647 47.0595 300.647 46.5465V43.649H300.03V42.7655H300.647V41.464H301.74V42.7655H303.013V43.649H301.74ZM307.03 42.072C306.833 42.072 306.669 42.0055 306.536 41.8725C306.403 41.7395 306.336 41.5748 306.336 41.3785C306.336 41.1822 306.403 41.0175 306.536 40.8845C306.669 40.7515 306.833 40.685 307.03 40.685C307.22 40.685 307.381 40.7515 307.514 40.8845C307.647 41.0175 307.714 41.1822 307.714 41.3785C307.714 41.5748 307.647 41.7395 307.514 41.8725C307.381 42.0055 307.22 42.072 307.03 42.072ZM307.562 42.7655V48H306.479V42.7655H307.562ZM310.883 48.0855C310.472 48.0855 310.101 48.0127 309.772 47.867C309.449 47.715 309.192 47.5123 309.002 47.259C308.812 46.9993 308.711 46.7112 308.698 46.3945H309.819C309.838 46.6162 309.943 46.803 310.133 46.955C310.329 47.1007 310.573 47.1735 310.864 47.1735C311.168 47.1735 311.403 47.1165 311.567 47.0025C311.738 46.8822 311.824 46.7302 311.824 46.5465C311.824 46.3502 311.729 46.2045 311.539 46.1095C311.355 46.0145 311.061 45.91 310.655 45.796C310.263 45.6883 309.943 45.5838 309.696 45.4825C309.449 45.3812 309.234 45.226 309.05 45.017C308.873 44.808 308.784 44.5325 308.784 44.1905C308.784 43.9118 308.866 43.6585 309.031 43.4305C309.196 43.1962 309.43 43.0125 309.734 42.8795C310.044 42.7465 310.399 42.68 310.798 42.68C311.393 42.68 311.871 42.832 312.232 43.136C312.6 43.4337 312.796 43.8422 312.821 44.3615H311.738C311.719 44.1272 311.624 43.9403 311.453 43.801C311.282 43.6617 311.051 43.592 310.76 43.592C310.475 43.592 310.256 43.6458 310.104 43.7535C309.952 43.8612 309.876 44.0037 309.876 44.181C309.876 44.3203 309.927 44.4375 310.028 44.5325C310.13 44.6275 310.253 44.7035 310.399 44.7605C310.545 44.8112 310.76 44.8777 311.045 44.96C311.425 45.0613 311.735 45.1658 311.976 45.2735C312.223 45.3748 312.435 45.5268 312.612 45.7295C312.79 45.9322 312.882 46.2013 312.888 46.537C312.888 46.8347 312.806 47.1007 312.641 47.335C312.476 47.5693 312.242 47.753 311.938 47.886C311.64 48.019 311.289 48.0855 310.883 48.0855ZM319.167 42.68C319.579 42.68 319.946 42.7655 320.269 42.9365C320.598 43.1075 320.855 43.3608 321.038 43.6965C321.222 44.0322 321.314 44.4375 321.314 44.9125V48H320.24V45.074C320.24 44.6053 320.123 44.2475 319.889 44.0005C319.655 43.7472 319.335 43.6205 318.929 43.6205C318.524 43.6205 318.201 43.7472 317.96 44.0005C317.726 44.2475 317.609 44.6053 317.609 45.074V48H316.526V42.7655H317.609V43.364C317.786 43.1487 318.011 42.9808 318.283 42.8605C318.562 42.7402 318.857 42.68 319.167 42.68ZM324.966 48.0855C324.472 48.0855 324.025 47.9747 323.626 47.753C323.227 47.525 322.914 47.2083 322.686 46.803C322.458 46.3913 322.344 45.9163 322.344 45.378C322.344 44.846 322.461 44.3742 322.695 43.9625C322.93 43.5508 323.25 43.2342 323.655 43.0125C324.06 42.7908 324.513 42.68 325.013 42.68C325.514 42.68 325.967 42.7908 326.372 43.0125C326.777 43.2342 327.097 43.5508 327.331 43.9625C327.566 44.3742 327.683 44.846 327.683 45.378C327.683 45.91 327.563 46.3818 327.322 46.7935C327.081 47.2052 326.752 47.525 326.334 47.753C325.922 47.9747 325.466 48.0855 324.966 48.0855ZM324.966 47.145C325.245 47.145 325.504 47.0785 325.745 46.9455C325.992 46.8125 326.191 46.613 326.343 46.347C326.495 46.081 326.571 45.758 326.571 45.378C326.571 44.998 326.499 44.6782 326.353 44.4185C326.207 44.1525 326.014 43.953 325.773 43.82C325.533 43.687 325.273 43.6205 324.994 43.6205C324.716 43.6205 324.456 43.687 324.215 43.82C323.981 43.953 323.794 44.1525 323.655 44.4185C323.516 44.6782 323.446 44.998 323.446 45.378C323.446 45.9417 323.588 46.3787 323.873 46.689C324.165 46.993 324.529 47.145 324.966 47.145ZM330.017 43.649V46.5465C330.017 46.7428 330.061 46.8853 330.15 46.974C330.245 47.0563 330.403 47.0975 330.625 47.0975H331.29V48H330.435C329.947 48 329.574 47.886 329.314 47.658C329.054 47.43 328.925 47.0595 328.925 46.5465V43.649H328.307V42.7655H328.925V41.464H330.017V42.7655H331.29V43.649H330.017ZM335.307 42.072C335.111 42.072 334.946 42.0055 334.813 41.8725C334.68 41.7395 334.613 41.5748 334.613 41.3785C334.613 41.1822 334.68 41.0175 334.813 40.8845C334.946 40.7515 335.111 40.685 335.307 40.685C335.497 40.685 335.658 40.7515 335.791 40.8845C335.924 41.0175 335.991 41.1822 335.991 41.3785C335.991 41.5748 335.924 41.7395 335.791 41.8725C335.658 42.0055 335.497 42.072 335.307 42.072ZM335.839 42.7655V48H334.756V42.7655H335.839ZM339.902 42.68C340.314 42.68 340.681 42.7655 341.004 42.9365C341.333 43.1075 341.59 43.3608 341.773 43.6965C341.957 44.0322 342.049 44.4375 342.049 44.9125V48H340.975V45.074C340.975 44.6053 340.858 44.2475 340.624 44.0005C340.39 43.7472 340.07 43.6205 339.664 43.6205C339.259 43.6205 338.936 43.7472 338.695 44.0005C338.461 44.2475 338.344 44.6053 338.344 45.074V48H337.261V42.7655H338.344V43.364C338.521 43.1487 338.746 42.9808 339.018 42.8605C339.297 42.7402 339.592 42.68 339.902 42.68ZM345.33 48.0855C344.919 48.0855 344.548 48.0127 344.219 47.867C343.896 47.715 343.639 47.5123 343.449 47.259C343.259 46.9993 343.158 46.7112 343.145 46.3945H344.266C344.285 46.6162 344.39 46.803 344.58 46.955C344.776 47.1007 345.02 47.1735 345.311 47.1735C345.615 47.1735 345.85 47.1165 346.014 47.0025C346.185 46.8822 346.271 46.7302 346.271 46.5465C346.271 46.3502 346.176 46.2045 345.986 46.1095C345.802 46.0145 345.508 45.91 345.102 45.796C344.71 45.6883 344.39 45.5838 344.143 45.4825C343.896 45.3812 343.68 45.226 343.497 45.017C343.319 44.808 343.231 44.5325 343.231 44.1905C343.231 43.9118 343.313 43.6585 343.478 43.4305C343.642 43.1962 343.877 43.0125 344.181 42.8795C344.491 42.7465 344.846 42.68 345.245 42.68C345.84 42.68 346.318 42.832 346.679 43.136C347.047 43.4337 347.243 43.8422 347.268 44.3615H346.185C346.166 44.1272 346.071 43.9403 345.9 43.801C345.729 43.6617 345.498 43.592 345.207 43.592C344.922 43.592 344.703 43.6458 344.551 43.7535C344.399 43.8612 344.323 44.0037 344.323 44.181C344.323 44.3203 344.374 44.4375 344.475 44.5325C344.577 44.6275 344.7 44.7035 344.846 44.7605C344.991 44.8112 345.207 44.8777 345.492 44.96C345.872 45.0613 346.182 45.1658 346.423 45.2735C346.67 45.3748 346.882 45.5268 347.059 45.7295C347.237 45.9322 347.328 46.2013 347.335 46.537C347.335 46.8347 347.252 47.1007 347.088 47.335C346.923 47.5693 346.689 47.753 346.385 47.886C346.087 48.019 345.736 48.0855 345.33 48.0855ZM349.768 43.649V46.5465C349.768 46.7428 349.813 46.8853 349.901 46.974C349.996 47.0563 350.155 47.0975 350.376 47.0975H351.041V48H350.186C349.699 48 349.325 47.886 349.065 47.658C348.806 47.43 348.676 47.0595 348.676 46.5465V43.649H348.058V42.7655H348.676V41.464H349.768V42.7655H351.041V43.649H349.768ZM351.679 45.359C351.679 44.8333 351.786 44.3678 352.002 43.9625C352.223 43.5572 352.521 43.2437 352.895 43.022C353.275 42.794 353.693 42.68 354.149 42.68C354.56 42.68 354.918 42.7623 355.222 42.927C355.532 43.0853 355.779 43.2848 355.963 43.5255V42.7655H357.056V48H355.963V47.221C355.779 47.468 355.529 47.6738 355.213 47.8385C354.896 48.0032 354.535 48.0855 354.13 48.0855C353.68 48.0855 353.268 47.9715 352.895 47.7435C352.521 47.5092 352.223 47.1862 352.002 46.7745C351.786 46.3565 351.679 45.8847 351.679 45.359ZM355.963 45.378C355.963 45.017 355.887 44.7035 355.735 44.4375C355.589 44.1715 355.396 43.9688 355.156 43.8295C354.915 43.6902 354.655 43.6205 354.377 43.6205C354.098 43.6205 353.838 43.6902 353.598 43.8295C353.357 43.9625 353.161 44.162 353.009 44.428C352.863 44.6877 352.79 44.998 352.79 45.359C352.79 45.72 352.863 46.0367 353.009 46.309C353.161 46.5813 353.357 46.7903 353.598 46.936C353.845 47.0753 354.104 47.145 354.377 47.145C354.655 47.145 354.915 47.0753 355.156 46.936C355.396 46.7967 355.589 46.594 355.735 46.328C355.887 46.0557 355.963 45.739 355.963 45.378ZM359.561 40.97V48H358.478V40.97H359.561ZM362.066 40.97V48H360.983V40.97H362.066ZM368.285 45.2545C368.285 45.4508 368.273 45.6282 368.247 45.7865H364.248C364.28 46.2045 364.435 46.5402 364.713 46.7935C364.992 47.0468 365.334 47.1735 365.739 47.1735C366.322 47.1735 366.734 46.9297 366.974 46.442H368.143C367.985 46.9233 367.696 47.3192 367.278 47.6295C366.867 47.9335 366.354 48.0855 365.739 48.0855C365.239 48.0855 364.789 47.9747 364.39 47.753C363.998 47.525 363.687 47.2083 363.459 46.803C363.238 46.3913 363.127 45.9163 363.127 45.378C363.127 44.8397 363.235 44.3678 363.45 43.9625C363.672 43.5508 363.979 43.2342 364.371 43.0125C364.77 42.7908 365.226 42.68 365.739 42.68C366.233 42.68 366.674 42.7877 367.06 43.003C367.446 43.2183 367.747 43.5223 367.962 43.915C368.178 44.3013 368.285 44.7478 368.285 45.2545ZM367.155 44.9125C367.149 44.5135 367.006 44.1937 366.727 43.953C366.449 43.7123 366.104 43.592 365.692 43.592C365.318 43.592 364.998 43.7123 364.732 43.953C364.466 44.1873 364.308 44.5072 364.257 44.9125H367.155ZM368.99 45.359C368.99 44.8333 369.098 44.3678 369.313 43.9625C369.535 43.5572 369.833 43.2437 370.206 43.022C370.586 42.794 371.007 42.68 371.47 42.68C371.812 42.68 372.147 42.756 372.477 42.908C372.812 43.0537 373.078 43.25 373.275 43.497V40.97H374.367V48H373.275V47.2115C373.097 47.4648 372.85 47.6738 372.534 47.8385C372.223 48.0032 371.866 48.0855 371.46 48.0855C371.004 48.0855 370.586 47.9715 370.206 47.7435C369.833 47.5092 369.535 47.1862 369.313 46.7745C369.098 46.3565 368.99 45.8847 368.99 45.359ZM373.275 45.378C373.275 45.017 373.199 44.7035 373.047 44.4375C372.901 44.1715 372.708 43.9688 372.467 43.8295C372.227 43.6902 371.967 43.6205 371.688 43.6205C371.41 43.6205 371.15 43.6902 370.909 43.8295C370.669 43.9625 370.472 44.162 370.32 44.428C370.175 44.6877 370.102 44.998 370.102 45.359C370.102 45.72 370.175 46.0367 370.32 46.309C370.472 46.5813 370.669 46.7903 370.909 46.936C371.156 47.0753 371.416 47.145 371.688 47.145C371.967 47.145 372.227 47.0753 372.467 46.936C372.708 46.7967 372.901 46.594 373.047 46.328C373.199 46.0557 373.275 45.739 373.275 45.378Z"></path>
<path fill="url(#paint0_linear_1013_329)" d="M264 37C259.999 36.9995 255 40.6662 255 46.3333C255 47.9644 255.369 50 257 50C258.666 50 259.333 47.3333 260.667 47.3333C261.219 47.3333 261.667 47.6662 261.667 48.3333C261.667 49.3328 260.667 49.3328 260.667 50.6667C260.667 51.6662 261.333 52.3333 262.333 52.3333C266 52.3333 270.333 48.0359 270.333 43.3333C270.333 40.3328 267.884 37.0005 264 37Z"></path>
<rect fill="url(#paint1_linear_1013_329)" rx="1.33333" height="2.66667" width="2.66667" y="43.6663" x="256.333"></rect>
<rect fill-opacity="0.5" fill="black" rx="1" height="2" width="2" y="44.3328" x="262.333"></rect>
<rect fill="url(#paint2_linear_1013_329)" rx="1.33333" height="2.66667" width="2.66667" y="40.3328" x="258.333"></rect>
<rect fill="url(#paint3_linear_1013_329)" rx="1.33333" height="2.66667" width="2.66667" y="38.9995" x="261.666"></rect>
<path fill="url(#paint4_linear_1013_329)" d="M265.666 44.9988L267.666 44.9997L267.361 52.3327C267.345 52.705 267.039 52.9988 266.666 52.9988V52.9988C266.294 52.9988 265.987 52.705 265.972 52.3327L265.666 44.9988Z"></path>
<path fill="url(#paint5_linear_1013_329)" d="M265.666 44.9988V44.3331H267.666V44.9997L265.666 44.9988Z"></path>
<path fill="url(#paint6_linear_1013_329)" d="M265.666 44.332L265.057 43.1136C264.724 42.4487 265.208 41.6663 265.951 41.6663H267.382C268.125 41.6663 268.609 42.4486 268.276 43.1135L267.666 44.3331L265.666 44.332Z"></path>
<rect fill="url(#paint7_linear_1013_329)" rx="2" height="16" width="16" y="37" x="105"></rect>
<path fill="white" d="M110.879 44.1213C112.05 42.9497 113.95 42.9497 115.121 44.1213L119.414 48.4142C119.789 48.7893 120 49.298 120 49.8284V50C120 51.1046 119.105 52 118 52H108C106.895 52 106 51.1046 106 50V49.8284C106 49.298 106.211 48.7893 106.586 48.4142L110.879 44.1213Z"></path>
<path stroke-opacity="0.1" stroke="black" d="M108 52.5H118C119.381 52.5 120.5 51.3807 120.5 50V49.8284C120.5 49.1654 120.237 48.5295 119.768 48.0607L115.475 43.7678C114.108 42.4009 111.892 42.4009 110.525 43.7678L106.232 48.0607C105.763 48.5295 105.5 49.1654 105.5 49.8284V50C105.5 51.3807 106.619 52.5 108 52.5Z"></path>
<path fill="url(#paint8_linear_1013_329)" d="M108 53L115.293 45.7071C115.683 45.3166 116.317 45.3166 116.707 45.7071L120.414 49.4142C120.789 49.7893 121 50.298 121 50.8284V51C121 52.1046 120.105 53 119 53H108Z"></path>
<path fill="url(#paint9_linear_1013_329)" d="M105 50.8284C105 50.298 105.211 49.7893 105.586 49.4142L110.879 44.1213C112.05 42.9497 113.95 42.9497 115.121 44.1213L118 47V47C116.895 45.8954 115.105 45.8954 114 47L108.586 52.4142C108.211 52.7893 107.702 53 107.172 53H107C105.895 53 105 52.1046 105 51V50.8284Z"></path>
<rect fill="white" rx="1.5" height="3" width="3" y="39" x="115"></rect>
<rect stroke-opacity="0.1" stroke="black" rx="2" height="4" width="4" y="38.5" x="114.5"></rect>
<path fill="#808080" d="M139.78 41.355L137.514 49H136.095L134.489 43.214L132.784 49L131.376 49.011L129.209 41.355H130.54L132.124 47.581L133.84 41.355H135.248L136.843 47.548L138.438 41.355H139.78ZM140.396 45.942C140.396 45.3333 140.521 44.7943 140.77 44.325C141.027 43.8557 141.372 43.4927 141.804 43.236C142.244 42.972 142.728 42.84 143.256 42.84C143.733 42.84 144.147 42.9353 144.499 43.126C144.859 43.3093 145.145 43.5403 145.357 43.819V42.939H146.622V49H145.357V48.098C145.145 48.384 144.855 48.6223 144.488 48.813C144.122 49.0037 143.704 49.099 143.234 49.099C142.714 49.099 142.237 48.967 141.804 48.703C141.372 48.4317 141.027 48.0577 140.77 47.581C140.521 47.097 140.396 46.5507 140.396 45.942ZM145.357 45.964C145.357 45.546 145.269 45.183 145.093 44.875C144.925 44.567 144.701 44.3323 144.422 44.171C144.144 44.0097 143.843 43.929 143.52 43.929C143.198 43.929 142.897 44.0097 142.618 44.171C142.34 44.325 142.112 44.556 141.936 44.864C141.768 45.1647 141.683 45.524 141.683 45.942C141.683 46.36 141.768 46.7267 141.936 47.042C142.112 47.3573 142.34 47.5993 142.618 47.768C142.904 47.9293 143.205 48.01 143.52 48.01C143.843 48.01 144.144 47.9293 144.422 47.768C144.701 47.6067 144.925 47.372 145.093 47.064C145.269 46.7487 145.357 46.382 145.357 45.964ZM149.523 40.86V49H148.269V40.86H149.523ZM152.424 40.86V49H151.17V40.86H152.424ZM155.324 43.83C155.537 43.5513 155.826 43.3167 156.193 43.126C156.56 42.9353 156.974 42.84 157.436 42.84C157.964 42.84 158.444 42.972 158.877 43.236C159.317 43.4927 159.662 43.8557 159.911 44.325C160.16 44.7943 160.285 45.3333 160.285 45.942C160.285 46.5507 160.16 47.097 159.911 47.581C159.662 48.0577 159.317 48.4317 158.877 48.703C158.444 48.967 157.964 49.099 157.436 49.099C156.974 49.099 156.563 49.0073 156.204 48.824C155.845 48.6333 155.551 48.3987 155.324 48.12V51.882H154.07V42.939H155.324V43.83ZM159.009 45.942C159.009 45.524 158.921 45.1647 158.745 44.864C158.576 44.556 158.349 44.325 158.063 44.171C157.784 44.0097 157.484 43.929 157.161 43.929C156.846 43.929 156.545 44.0097 156.259 44.171C155.98 44.3323 155.753 44.567 155.577 44.875C155.408 45.183 155.324 45.546 155.324 45.964C155.324 46.382 155.408 46.7487 155.577 47.064C155.753 47.372 155.98 47.6067 156.259 47.768C156.545 47.9293 156.846 48.01 157.161 48.01C157.484 48.01 157.784 47.9293 158.063 47.768C158.349 47.5993 158.576 47.3573 158.745 47.042C158.921 46.7267 159.009 46.36 159.009 45.942ZM161.107 45.942C161.107 45.3333 161.232 44.7943 161.481 44.325C161.738 43.8557 162.083 43.4927 162.515 43.236C162.955 42.972 163.439 42.84 163.967 42.84C164.444 42.84 164.858 42.9353 165.21 43.126C165.57 43.3093 165.856 43.5403 166.068 43.819V42.939H167.333V49H166.068V48.098C165.856 48.384 165.566 48.6223 165.199 48.813C164.833 49.0037 164.415 49.099 163.945 49.099C163.425 49.099 162.948 48.967 162.515 48.703C162.083 48.4317 161.738 48.0577 161.481 47.581C161.232 47.097 161.107 46.5507 161.107 45.942ZM166.068 45.964C166.068 45.546 165.98 45.183 165.804 44.875C165.636 44.567 165.412 44.3323 165.133 44.171C164.855 44.0097 164.554 43.929 164.231 43.929C163.909 43.929 163.608 44.0097 163.329 44.171C163.051 44.325 162.823 44.556 162.647 44.864C162.479 45.1647 162.394 45.524 162.394 45.942C162.394 46.36 162.479 46.7267 162.647 47.042C162.823 47.3573 163.051 47.5993 163.329 47.768C163.615 47.9293 163.916 48.01 164.231 48.01C164.554 48.01 164.855 47.9293 165.133 47.768C165.412 47.6067 165.636 47.372 165.804 47.064C165.98 46.7487 166.068 46.382 166.068 45.964ZM170.234 43.83C170.447 43.5513 170.737 43.3167 171.103 43.126C171.47 42.9353 171.884 42.84 172.346 42.84C172.874 42.84 173.355 42.972 173.787 43.236C174.227 43.4927 174.572 43.8557 174.821 44.325C175.071 44.7943 175.195 45.3333 175.195 45.942C175.195 46.5507 175.071 47.097 174.821 47.581C174.572 48.0577 174.227 48.4317 173.787 48.703C173.355 48.967 172.874 49.099 172.346 49.099C171.884 49.099 171.474 49.0073 171.114 48.824C170.755 48.6333 170.462 48.3987 170.234 48.12V51.882H168.98V42.939H170.234V43.83ZM173.919 45.942C173.919 45.524 173.831 45.1647 173.655 44.864C173.487 44.556 173.259 44.325 172.973 44.171C172.695 44.0097 172.394 43.929 172.071 43.929C171.756 43.929 171.455 44.0097 171.169 44.171C170.891 44.3323 170.663 44.567 170.487 44.875C170.319 45.183 170.234 45.546 170.234 45.964C170.234 46.382 170.319 46.7487 170.487 47.064C170.663 47.372 170.891 47.6067 171.169 47.768C171.455 47.9293 171.756 48.01 172.071 48.01C172.394 48.01 172.695 47.9293 172.973 47.768C173.259 47.5993 173.487 47.3573 173.655 47.042C173.831 46.7267 173.919 46.36 173.919 45.942ZM181.99 45.821C181.99 46.0483 181.976 46.2537 181.946 46.437H177.315C177.352 46.921 177.532 47.3097 177.854 47.603C178.177 47.8963 178.573 48.043 179.042 48.043C179.717 48.043 180.194 47.7607 180.472 47.196H181.825C181.642 47.7533 181.308 48.2117 180.824 48.571C180.348 48.923 179.754 49.099 179.042 49.099C178.463 49.099 177.942 48.9707 177.48 48.714C177.026 48.45 176.666 48.0833 176.402 47.614C176.146 47.1373 176.017 46.5873 176.017 45.964C176.017 45.3407 176.142 44.7943 176.391 44.325C176.648 43.8483 177.004 43.4817 177.458 43.225C177.92 42.9683 178.448 42.84 179.042 42.84C179.614 42.84 180.124 42.9647 180.571 43.214C181.019 43.4633 181.367 43.8153 181.616 44.27C181.866 44.7173 181.99 45.2343 181.99 45.821ZM180.681 45.425C180.674 44.963 180.509 44.5927 180.186 44.314C179.864 44.0353 179.464 43.896 178.987 43.896C178.555 43.896 178.184 44.0353 177.876 44.314C177.568 44.5853 177.385 44.9557 177.326 45.425H180.681ZM184.478 43.819C184.662 43.511 184.904 43.2727 185.204 43.104C185.512 42.928 185.875 42.84 186.293 42.84V44.138H185.974C185.483 44.138 185.109 44.2627 184.852 44.512C184.603 44.7613 184.478 45.194 184.478 45.81V49H183.224V42.939H184.478V43.819ZM190.942 42.136C190.714 42.136 190.524 42.059 190.37 41.905C190.216 41.751 190.139 41.5603 190.139 41.333C190.139 41.1057 190.216 40.915 190.37 40.761C190.524 40.607 190.714 40.53 190.942 40.53C191.162 40.53 191.349 40.607 191.503 40.761C191.657 40.915 191.734 41.1057 191.734 41.333C191.734 41.5603 191.657 41.751 191.503 41.905C191.349 42.059 191.162 42.136 190.942 42.136ZM191.558 42.939V49H190.304V42.939H191.558ZM195.404 49.099C194.927 49.099 194.498 49.0147 194.117 48.846C193.743 48.67 193.446 48.4353 193.226 48.142C193.006 47.8413 192.889 47.5077 192.874 47.141H194.172C194.194 47.3977 194.315 47.614 194.535 47.79C194.762 47.9587 195.045 48.043 195.382 48.043C195.734 48.043 196.005 47.977 196.196 47.845C196.394 47.7057 196.493 47.5297 196.493 47.317C196.493 47.0897 196.383 46.921 196.163 46.811C195.95 46.701 195.609 46.58 195.14 46.448C194.685 46.3233 194.315 46.2023 194.029 46.085C193.743 45.9677 193.494 45.788 193.281 45.546C193.076 45.304 192.973 44.985 192.973 44.589C192.973 44.2663 193.068 43.973 193.259 43.709C193.45 43.4377 193.721 43.225 194.073 43.071C194.432 42.917 194.843 42.84 195.305 42.84C195.994 42.84 196.548 43.016 196.966 43.368C197.391 43.7127 197.619 44.1857 197.648 44.787H196.394C196.372 44.5157 196.262 44.2993 196.064 44.138C195.866 43.9767 195.598 43.896 195.261 43.896C194.931 43.896 194.678 43.9583 194.502 44.083C194.326 44.2077 194.238 44.3727 194.238 44.578C194.238 44.7393 194.297 44.875 194.414 44.985C194.531 45.095 194.674 45.183 194.843 45.249C195.012 45.3077 195.261 45.3847 195.591 45.48C196.031 45.5973 196.39 45.7183 196.669 45.843C196.955 45.9603 197.201 46.1363 197.406 46.371C197.611 46.6057 197.718 46.9173 197.725 47.306C197.725 47.6507 197.63 47.9587 197.439 48.23C197.248 48.5013 196.977 48.714 196.625 48.868C196.28 49.022 195.873 49.099 195.404 49.099ZM204.137 49.099C203.661 49.099 203.232 49.0147 202.85 48.846C202.476 48.67 202.179 48.4353 201.959 48.142C201.739 47.8413 201.622 47.5077 201.607 47.141H202.905C202.927 47.3977 203.048 47.614 203.268 47.79C203.496 47.9587 203.778 48.043 204.115 48.043C204.467 48.043 204.739 47.977 204.929 47.845C205.127 47.7057 205.226 47.5297 205.226 47.317C205.226 47.0897 205.116 46.921 204.896 46.811C204.684 46.701 204.343 46.58 203.873 46.448C203.419 46.3233 203.048 46.2023 202.762 46.085C202.476 45.9677 202.227 45.788 202.014 45.546C201.809 45.304 201.706 44.985 201.706 44.589C201.706 44.2663 201.802 43.973 201.992 43.709C202.183 43.4377 202.454 43.225 202.806 43.071C203.166 42.917 203.576 42.84 204.038 42.84C204.728 42.84 205.281 43.016 205.699 43.368C206.125 43.7127 206.352 44.1857 206.381 44.787H205.127C205.105 44.5157 204.995 44.2993 204.797 44.138C204.599 43.9767 204.332 43.896 203.994 43.896C203.664 43.896 203.411 43.9583 203.235 44.083C203.059 44.2077 202.971 44.3727 202.971 44.578C202.971 44.7393 203.03 44.875 203.147 44.985C203.265 45.095 203.408 45.183 203.576 45.249C203.745 45.3077 203.994 45.3847 204.324 45.48C204.764 45.5973 205.124 45.7183 205.402 45.843C205.688 45.9603 205.934 46.1363 206.139 46.371C206.345 46.6057 206.451 46.9173 206.458 47.306C206.458 47.6507 206.363 47.9587 206.172 48.23C205.982 48.5013 205.71 48.714 205.358 48.868C205.014 49.022 204.607 49.099 204.137 49.099ZM213.368 45.821C213.368 46.0483 213.354 46.2537 213.324 46.437H208.693C208.73 46.921 208.91 47.3097 209.232 47.603C209.555 47.8963 209.951 48.043 210.42 48.043C211.095 48.043 211.572 47.7607 211.85 47.196H213.203C213.02 47.7533 212.686 48.2117 212.202 48.571C211.726 48.923 211.132 49.099 210.42 49.099C209.841 49.099 209.32 48.9707 208.858 48.714C208.404 48.45 208.044 48.0833 207.78 47.614C207.524 47.1373 207.395 46.5873 207.395 45.964C207.395 45.3407 207.52 44.7943 207.769 44.325C208.026 43.8483 208.382 43.4817 208.836 43.225C209.298 42.9683 209.826 42.84 210.42 42.84C210.992 42.84 211.502 42.9647 211.949 43.214C212.397 43.4633 212.745 43.8153 212.994 44.27C213.244 44.7173 213.368 45.2343 213.368 45.821ZM212.059 45.425C212.052 44.963 211.887 44.5927 211.564 44.314C211.242 44.0353 210.842 43.896 210.365 43.896C209.933 43.896 209.562 44.0353 209.254 44.314C208.946 44.5853 208.763 44.9557 208.704 45.425H212.059ZM216.065 43.962V47.317C216.065 47.5443 216.117 47.7093 216.219 47.812C216.329 47.9073 216.513 47.955 216.769 47.955H217.539V49H216.549C215.985 49 215.552 48.868 215.251 48.604C214.951 48.34 214.8 47.911 214.8 47.317V43.962H214.085V42.939H214.8V41.432H216.065V42.939H217.539V43.962H216.065Z"></path>
<defs>
<linearGradient gradientUnits="userSpaceOnUse" y2="50.3328" x2="266.999" y1="38.9995" x1="258.333" id="paint0_linear_1013_329">
<stop stop-color="#50E6FF"></stop>
<stop stop-color="#0270C2" offset="1"></stop>
</linearGradient>
<linearGradient gradientUnits="userSpaceOnUse" y2="45.6663" x2="258.333" y1="44.3329" x1="257" id="paint1_linear_1013_329">
<stop stop-color="#E25113"></stop>
<stop stop-color="#C7390A" offset="1"></stop>
</linearGradient>
<linearGradient gradientUnits="userSpaceOnUse" y2="42.3328" x2="260.333" y1="40.9994" x1="259" id="paint2_linear_1013_329">
<stop stop-color="#55B50E"></stop>
<stop stop-color="#1C8610" offset="1"></stop>
</linearGradient>
<linearGradient gradientUnits="userSpaceOnUse" y2="40.9995" x2="263.666" y1="39.6662" x1="262.333" id="paint3_linear_1013_329">
<stop stop-color="#FFD300"></stop>
<stop stop-color="#F39808" offset="1"></stop>
</linearGradient>
<linearGradient gradientUnits="userSpaceOnUse" y2="44.9996" x2="267.666" y1="44.9996" x1="265.666" id="paint4_linear_1013_329">
<stop stop-color="#AA6701"></stop>
<stop stop-color="#814406" offset="1"></stop>
</linearGradient>
<linearGradient gradientUnits="userSpaceOnUse" y2="44.9996" x2="267.666" y1="44.9996" x1="265.666" id="paint5_linear_1013_329">
<stop stop-color="#CAD2D9"></stop>
<stop stop-color="#939BA2" offset="1"></stop>
</linearGradient>
<linearGradient gradientUnits="userSpaceOnUse" y2="44.3329" x2="267.666" y1="41.6663" x1="265" id="paint6_linear_1013_329">
<stop stop-color="#F7DEAA"></stop>
<stop stop-color="#C3935E" offset="1"></stop>
</linearGradient>
<linearGradient gradientUnits="userSpaceOnUse" y2="49" x2="121" y1="38" x1="106" id="paint7_linear_1013_329">
<stop stop-color="#188EDB"></stop>
<stop stop-color="#7D5AB6" offset="1"></stop>
</linearGradient>
<linearGradient gradientUnits="userSpaceOnUse" y2="53" x2="119" y1="48" x1="114" id="paint8_linear_1013_329">
<stop stop-color="#037AD2"></stop>
<stop stop-color="#2C9EE2" offset="1"></stop>
</linearGradient>
<linearGradient gradientUnits="userSpaceOnUse" y2="49" x2="112" y1="45" x1="108" id="paint9_linear_1013_329">
<stop stop-color="#4DDDFB"></stop>
<stop stop-color="#2AB2EB" offset="1"></stop>
</linearGradient>
</defs>
</svg>
