<svg version="1.1" xmlns="http://www.w3.org/2000/svg" xmlns:xlink="http://www.w3.org/1999/xlink" width="40" height="20" viewBox="0,0,40,20"><g transform="translate(-220,-167)"><g data-paper-data="{&quot;isPaintingLayer&quot;:true}" fill-rule="nonzero" stroke="none" stroke-width="1" stroke-linecap="butt" stroke-linejoin="miter" stroke-miterlimit="10" stroke-dasharray="" stroke-dashoffset="0" style="mix-blend-mode: normal"><path d="M220,187v-20h40v20z" fill="none"></path><path d="M240.564,182.232v-0.132c0.824,-0.848 1.452,-1.836 1.884,-2.964c0.432,-1.128 0.648,-2.296 0.648,-3.504c0,-1.256 -0.232,-2.476 -0.696,-3.66c-0.464,-1.184 -1.156,-2.2 -2.076,-3.048v-0.132h1.416c0.88,0.784 1.544,1.78 1.992,2.988c0.456,1.208 0.684,2.492 0.684,3.852c0,1.328 -0.212,2.572 -0.636,3.732c-0.416,1.16 -1.016,2.116 -1.8,2.868z" fill="#ff0000"></path></g></g></svg>