<svg xmlns="http://www.w3.org/2000/svg" fill="none" viewBox="0 0 480 360" height="360" width="480">
<path fill="white" d="M200.296 68L196.6 61.472H195.016V68H191.656V51.248H197.944C199.24 51.248 200.344 51.48 201.256 51.944C202.168 52.392 202.848 53.008 203.296 53.792C203.76 54.56 203.992 55.424 203.992 56.384C203.992 57.488 203.672 58.488 203.032 59.384C202.392 60.264 201.44 60.872 200.176 61.208L204.184 68H200.296ZM195.016 58.952H197.824C198.736 58.952 199.416 58.736 199.864 58.304C200.312 57.856 200.536 57.24 200.536 56.456C200.536 55.688 200.312 55.096 199.864 54.68C199.416 54.248 198.736 54.032 197.824 54.032H195.016V58.952ZM219.391 61.064C219.391 61.544 219.359 61.976 219.295 62.36H209.575C209.655 63.32 209.991 64.072 210.583 64.616C211.175 65.16 211.903 65.432 212.767 65.432C214.015 65.432 214.903 64.896 215.431 63.824H219.055C218.671 65.104 217.935 66.16 216.847 66.992C215.759 67.808 214.423 68.216 212.839 68.216C211.559 68.216 210.407 67.936 209.383 67.376C208.375 66.8 207.583 65.992 207.007 64.952C206.447 63.912 206.167 62.712 206.167 61.352C206.167 59.976 206.447 58.768 207.007 57.728C207.567 56.688 208.351 55.888 209.359 55.328C210.367 54.768 211.527 54.488 212.839 54.488C214.103 54.488 215.231 54.76 216.223 55.304C217.231 55.848 218.007 56.624 218.551 57.632C219.111 58.624 219.391 59.768 219.391 61.064ZM215.911 60.104C215.895 59.24 215.583 58.552 214.975 58.04C214.367 57.512 213.623 57.248 212.743 57.248C211.911 57.248 211.207 57.504 210.631 58.016C210.071 58.512 209.727 59.208 209.599 60.104H215.911ZM220.979 61.352C220.979 59.976 221.26 58.776 221.82 57.752C222.38 56.712 223.156 55.912 224.148 55.352C225.14 54.776 226.276 54.488 227.556 54.488C229.204 54.488 230.564 54.904 231.636 55.736C232.724 56.552 233.452 57.704 233.82 59.192H230.196C230.004 58.616 229.676 58.168 229.212 57.848C228.764 57.512 228.204 57.344 227.532 57.344C226.572 57.344 225.812 57.696 225.252 58.4C224.692 59.088 224.412 60.072 224.412 61.352C224.412 62.616 224.692 63.6 225.252 64.304C225.812 64.992 226.572 65.336 227.532 65.336C228.892 65.336 229.78 64.728 230.196 63.512H233.82C233.452 64.952 232.724 66.096 231.636 66.944C230.548 67.792 229.188 68.216 227.556 68.216C226.276 68.216 225.14 67.936 224.148 67.376C223.156 66.8 222.38 66 221.82 64.976C221.26 63.936 220.979 62.728 220.979 61.352ZM242.185 68.216C240.905 68.216 239.753 67.936 238.729 67.376C237.705 66.8 236.897 65.992 236.305 64.952C235.729 63.912 235.441 62.712 235.441 61.352C235.441 59.992 235.737 58.792 236.329 57.752C236.937 56.712 237.761 55.912 238.801 55.352C239.841 54.776 241.001 54.488 242.281 54.488C243.561 54.488 244.721 54.776 245.761 55.352C246.801 55.912 247.617 56.712 248.209 57.752C248.817 58.792 249.121 59.992 249.121 61.352C249.121 62.712 248.809 63.912 248.185 64.952C247.577 65.992 246.745 66.8 245.689 67.376C244.649 67.936 243.481 68.216 242.185 68.216ZM242.185 65.288C242.793 65.288 243.361 65.144 243.889 64.856C244.433 64.552 244.865 64.104 245.185 63.512C245.505 62.92 245.665 62.2 245.665 61.352C245.665 60.088 245.329 59.12 244.657 58.448C244.001 57.76 243.193 57.416 242.233 57.416C241.273 57.416 240.465 57.76 239.809 58.448C239.169 59.12 238.849 60.088 238.849 61.352C238.849 62.616 239.161 63.592 239.785 64.28C240.425 64.952 241.225 65.288 242.185 65.288ZM257.13 64.904L260.49 54.704H264.066L259.146 68H255.066L250.17 54.704H253.77L257.13 64.904ZM278.313 61.064C278.313 61.544 278.281 61.976 278.217 62.36H268.497C268.577 63.32 268.913 64.072 269.505 64.616C270.097 65.16 270.825 65.432 271.689 65.432C272.937 65.432 273.825 64.896 274.353 63.824H277.977C277.593 65.104 276.857 66.16 275.769 66.992C274.681 67.808 273.345 68.216 271.761 68.216C270.481 68.216 269.329 67.936 268.305 67.376C267.297 66.8 266.505 65.992 265.929 64.952C265.369 63.912 265.089 62.712 265.089 61.352C265.089 59.976 265.369 58.768 265.929 57.728C266.489 56.688 267.273 55.888 268.281 55.328C269.289 54.768 270.449 54.488 271.761 54.488C273.025 54.488 274.153 54.76 275.145 55.304C276.153 55.848 276.929 56.624 277.473 57.632C278.033 58.624 278.313 59.768 278.313 61.064ZM274.833 60.104C274.817 59.24 274.505 58.552 273.897 58.04C273.289 57.512 272.545 57.248 271.665 57.248C270.833 57.248 270.129 57.504 269.553 58.016C268.993 58.512 268.649 59.208 268.521 60.104H274.833ZM284.125 56.768C284.557 56.064 285.117 55.512 285.805 55.112C286.509 54.712 287.309 54.512 288.205 54.512V58.04H287.317C286.261 58.04 285.461 58.288 284.917 58.784C284.389 59.28 284.125 60.144 284.125 61.376V68H280.765V54.704H284.125V56.768ZM303.189 54.704L294.957 74.288H291.381L294.261 67.664L288.933 54.704H292.701L296.133 63.992L299.613 54.704H303.189Z"></path>
<path fill-opacity="0.1" fill="#FF0000" d="M190 99C190 96.2386 192.239 94 195 94H465C467.761 94 470 96.2386 470 99V155C470 157.761 467.761 160 465 160H195C192.239 160 190 157.761 190 155V99Z"></path>
<path fill="white" d="M214.796 123L213.036 119.942H212.079V123H210.825V115.355H213.465C214.052 115.355 214.547 115.458 214.95 115.663C215.361 115.868 215.665 116.143 215.863 116.488C216.068 116.833 216.171 117.218 216.171 117.643C216.171 118.142 216.024 118.596 215.731 119.007C215.445 119.41 215.001 119.685 214.4 119.832L216.292 123H214.796ZM212.079 118.941H213.465C213.934 118.941 214.286 118.824 214.521 118.589C214.763 118.354 214.884 118.039 214.884 117.643C214.884 117.247 214.767 116.939 214.532 116.719C214.297 116.492 213.942 116.378 213.465 116.378H212.079V118.941ZM223.33 119.821C223.33 120.048 223.316 120.254 223.286 120.437H218.655C218.692 120.921 218.872 121.31 219.194 121.603C219.517 121.896 219.913 122.043 220.382 122.043C221.057 122.043 221.534 121.761 221.812 121.196H223.165C222.982 121.753 222.648 122.212 222.164 122.571C221.688 122.923 221.094 123.099 220.382 123.099C219.803 123.099 219.282 122.971 218.82 122.714C218.366 122.45 218.006 122.083 217.742 121.614C217.486 121.137 217.357 120.587 217.357 119.964C217.357 119.341 217.482 118.794 217.731 118.325C217.988 117.848 218.344 117.482 218.798 117.225C219.26 116.968 219.788 116.84 220.382 116.84C220.954 116.84 221.464 116.965 221.911 117.214C222.359 117.463 222.707 117.815 222.956 118.27C223.206 118.717 223.33 119.234 223.33 119.821ZM222.021 119.425C222.014 118.963 221.849 118.593 221.526 118.314C221.204 118.035 220.804 117.896 220.327 117.896C219.895 117.896 219.524 118.035 219.216 118.314C218.908 118.585 218.725 118.956 218.666 119.425H222.021ZM226.764 123.099C226.288 123.099 225.859 123.015 225.477 122.846C225.103 122.67 224.806 122.435 224.586 122.142C224.366 121.841 224.249 121.508 224.234 121.141H225.532C225.554 121.398 225.675 121.614 225.895 121.79C226.123 121.959 226.405 122.043 226.742 122.043C227.094 122.043 227.366 121.977 227.556 121.845C227.754 121.706 227.853 121.53 227.853 121.317C227.853 121.09 227.743 120.921 227.523 120.811C227.311 120.701 226.97 120.58 226.5 120.448C226.046 120.323 225.675 120.202 225.389 120.085C225.103 119.968 224.854 119.788 224.641 119.546C224.436 119.304 224.333 118.985 224.333 118.589C224.333 118.266 224.429 117.973 224.619 117.709C224.81 117.438 225.081 117.225 225.433 117.071C225.793 116.917 226.203 116.84 226.665 116.84C227.355 116.84 227.908 117.016 228.326 117.368C228.752 117.713 228.979 118.186 229.008 118.787H227.754C227.732 118.516 227.622 118.299 227.424 118.138C227.226 117.977 226.959 117.896 226.621 117.896C226.291 117.896 226.038 117.958 225.862 118.083C225.686 118.208 225.598 118.373 225.598 118.578C225.598 118.739 225.657 118.875 225.774 118.985C225.892 119.095 226.035 119.183 226.203 119.249C226.372 119.308 226.621 119.385 226.951 119.48C227.391 119.597 227.751 119.718 228.029 119.843C228.315 119.96 228.561 120.136 228.766 120.371C228.972 120.606 229.078 120.917 229.085 121.306C229.085 121.651 228.99 121.959 228.799 122.23C228.609 122.501 228.337 122.714 227.985 122.868C227.641 123.022 227.234 123.099 226.764 123.099ZM235.995 119.821C235.995 120.048 235.981 120.254 235.951 120.437H231.32C231.357 120.921 231.537 121.31 231.859 121.603C232.182 121.896 232.578 122.043 233.047 122.043C233.722 122.043 234.199 121.761 234.477 121.196H235.83C235.647 121.753 235.313 122.212 234.829 122.571C234.353 122.923 233.759 123.099 233.047 123.099C232.468 123.099 231.947 122.971 231.485 122.714C231.031 122.45 230.671 122.083 230.407 121.614C230.151 121.137 230.022 120.587 230.022 119.964C230.022 119.341 230.147 118.794 230.396 118.325C230.653 117.848 231.009 117.482 231.463 117.225C231.925 116.968 232.453 116.84 233.047 116.84C233.619 116.84 234.129 116.965 234.576 117.214C235.024 117.463 235.372 117.815 235.621 118.27C235.871 118.717 235.995 119.234 235.995 119.821ZM234.686 119.425C234.679 118.963 234.514 118.593 234.191 118.314C233.869 118.035 233.469 117.896 232.992 117.896C232.56 117.896 232.189 118.035 231.881 118.314C231.573 118.585 231.39 118.956 231.331 119.425H234.686ZM238.692 117.962V121.317C238.692 121.544 238.744 121.709 238.846 121.812C238.956 121.907 239.14 121.955 239.396 121.955H240.166V123H239.176C238.612 123 238.179 122.868 237.878 122.604C237.578 122.34 237.427 121.911 237.427 121.317V117.962H236.712V116.939H237.427V115.432H238.692V116.939H240.166V117.962H238.692ZM245.642 117.962V121.317C245.642 121.544 245.694 121.709 245.796 121.812C245.906 121.907 246.09 121.955 246.346 121.955H247.116V123H246.126C245.562 123 245.129 122.868 244.828 122.604C244.528 122.34 244.377 121.911 244.377 121.317V117.962H243.662V116.939H244.377V115.432H245.642V116.939H247.116V117.962H245.642ZM251.407 116.84C251.869 116.84 252.28 116.939 252.639 117.137C253.006 117.335 253.292 117.628 253.497 118.017C253.71 118.406 253.816 118.875 253.816 119.425V123H252.573V119.612C252.573 119.069 252.438 118.655 252.166 118.369C251.895 118.076 251.525 117.929 251.055 117.929C250.586 117.929 250.212 118.076 249.933 118.369C249.662 118.655 249.526 119.069 249.526 119.612V123H248.272V114.86H249.526V117.643C249.739 117.386 250.007 117.188 250.329 117.049C250.659 116.91 251.019 116.84 251.407 116.84ZM256.054 116.136C255.826 116.136 255.636 116.059 255.482 115.905C255.328 115.751 255.251 115.56 255.251 115.333C255.251 115.106 255.328 114.915 255.482 114.761C255.636 114.607 255.826 114.53 256.054 114.53C256.274 114.53 256.461 114.607 256.615 114.761C256.769 114.915 256.846 115.106 256.846 115.333C256.846 115.56 256.769 115.751 256.615 115.905C256.461 116.059 256.274 116.136 256.054 116.136ZM256.67 116.939V123H255.416V116.939H256.67ZM260.516 123.099C260.04 123.099 259.611 123.015 259.229 122.846C258.855 122.67 258.558 122.435 258.338 122.142C258.118 121.841 258.001 121.508 257.986 121.141H259.284C259.306 121.398 259.427 121.614 259.647 121.79C259.875 121.959 260.157 122.043 260.494 122.043C260.846 122.043 261.118 121.977 261.308 121.845C261.506 121.706 261.605 121.53 261.605 121.317C261.605 121.09 261.495 120.921 261.275 120.811C261.063 120.701 260.722 120.58 260.252 120.448C259.798 120.323 259.427 120.202 259.141 120.085C258.855 119.968 258.606 119.788 258.393 119.546C258.188 119.304 258.085 118.985 258.085 118.589C258.085 118.266 258.181 117.973 258.371 117.709C258.562 117.438 258.833 117.225 259.185 117.071C259.545 116.917 259.955 116.84 260.417 116.84C261.107 116.84 261.66 117.016 262.078 117.368C262.504 117.713 262.731 118.186 262.76 118.787H261.506C261.484 118.516 261.374 118.299 261.176 118.138C260.978 117.977 260.711 117.896 260.373 117.896C260.043 117.896 259.79 117.958 259.614 118.083C259.438 118.208 259.35 118.373 259.35 118.578C259.35 118.739 259.409 118.875 259.526 118.985C259.644 119.095 259.787 119.183 259.955 119.249C260.124 119.308 260.373 119.385 260.703 119.48C261.143 119.597 261.503 119.718 261.781 119.843C262.067 119.96 262.313 120.136 262.518 120.371C262.724 120.606 262.83 120.917 262.837 121.306C262.837 121.651 262.742 121.959 262.551 122.23C262.361 122.501 262.089 122.714 261.737 122.868C261.393 123.022 260.986 123.099 260.516 123.099ZM272.396 117.632C272.396 118.021 272.304 118.387 272.121 118.732C271.937 119.077 271.644 119.359 271.241 119.579C270.837 119.792 270.32 119.898 269.69 119.898H268.304V123H267.05V115.355H269.69C270.276 115.355 270.771 115.458 271.175 115.663C271.585 115.861 271.89 116.132 272.088 116.477C272.293 116.822 272.396 117.207 272.396 117.632ZM269.69 118.875C270.166 118.875 270.522 118.769 270.757 118.556C270.991 118.336 271.109 118.028 271.109 117.632C271.109 116.796 270.636 116.378 269.69 116.378H268.304V118.875H269.69ZM273.174 119.161C273.174 118.413 273.346 117.742 273.691 117.148C274.043 116.554 274.516 116.092 275.11 115.762C275.711 115.425 276.367 115.256 277.079 115.256C277.893 115.256 278.615 115.458 279.246 115.861C279.884 116.257 280.346 116.822 280.632 117.555H279.125C278.927 117.152 278.652 116.851 278.3 116.653C277.948 116.455 277.541 116.356 277.079 116.356C276.573 116.356 276.122 116.47 275.726 116.697C275.33 116.924 275.018 117.251 274.791 117.676C274.571 118.101 274.461 118.596 274.461 119.161C274.461 119.726 274.571 120.221 274.791 120.646C275.018 121.071 275.33 121.401 275.726 121.636C276.122 121.863 276.573 121.977 277.079 121.977C277.541 121.977 277.948 121.878 278.3 121.68C278.652 121.482 278.927 121.181 279.125 120.778H280.632C280.346 121.511 279.884 122.076 279.246 122.472C278.615 122.868 277.893 123.066 277.079 123.066C276.36 123.066 275.704 122.901 275.11 122.571C274.516 122.234 274.043 121.768 273.691 121.174C273.346 120.58 273.174 119.909 273.174 119.161Z"></path>
<path fill-opacity="0.75" fill="white" d="M215.31 132.745L213.24 136.732V139H212.214V136.732L210.135 132.745H211.278L212.727 135.814L214.176 132.745H215.31ZM218.275 139.081C217.807 139.081 217.384 138.976 217.006 138.766C216.628 138.55 216.331 138.25 216.115 137.866C215.899 137.476 215.791 137.026 215.791 136.516C215.791 136.012 215.902 135.565 216.124 135.175C216.346 134.785 216.649 134.485 217.033 134.275C217.417 134.065 217.846 133.96 218.32 133.96C218.794 133.96 219.223 134.065 219.607 134.275C219.991 134.485 220.294 134.785 220.516 135.175C220.738 135.565 220.849 136.012 220.849 136.516C220.849 137.02 220.735 137.467 220.507 137.857C220.279 138.247 219.967 138.55 219.571 138.766C219.181 138.976 218.749 139.081 218.275 139.081ZM218.275 138.19C218.539 138.19 218.785 138.127 219.013 138.001C219.247 137.875 219.436 137.686 219.58 137.434C219.724 137.182 219.796 136.876 219.796 136.516C219.796 136.156 219.727 135.853 219.589 135.607C219.451 135.355 219.268 135.166 219.04 135.04C218.812 134.914 218.566 134.851 218.302 134.851C218.038 134.851 217.792 134.914 217.564 135.04C217.342 135.166 217.165 135.355 217.033 135.607C216.901 135.853 216.835 136.156 216.835 136.516C216.835 137.05 216.97 137.464 217.24 137.758C217.516 138.046 217.861 138.19 218.275 138.19ZM226.354 134.041V139H225.328V138.415C225.166 138.619 224.953 138.781 224.689 138.901C224.431 139.015 224.155 139.072 223.861 139.072C223.471 139.072 223.12 138.991 222.808 138.829C222.502 138.667 222.259 138.427 222.079 138.109C221.905 137.791 221.818 137.407 221.818 136.957V134.041H222.835V136.804C222.835 137.248 222.946 137.59 223.168 137.83C223.39 138.064 223.693 138.181 224.077 138.181C224.461 138.181 224.764 138.064 224.986 137.83C225.214 137.59 225.328 137.248 225.328 136.804V134.041H226.354ZM236.706 134.041L235.167 139H234.087L233.088 135.337L232.089 139H231.009L229.461 134.041H230.505L231.54 138.028L232.593 134.041H233.664L234.672 138.01L235.698 134.041H236.706ZM237.995 133.384C237.809 133.384 237.653 133.321 237.527 133.195C237.401 133.069 237.338 132.913 237.338 132.727C237.338 132.541 237.401 132.385 237.527 132.259C237.653 132.133 237.809 132.07 237.995 132.07C238.175 132.07 238.328 132.133 238.454 132.259C238.58 132.385 238.643 132.541 238.643 132.727C238.643 132.913 238.58 133.069 238.454 133.195C238.328 133.321 238.175 133.384 237.995 133.384ZM238.499 134.041V139H237.473V134.041H238.499ZM240.872 132.34V139H239.846V132.34H240.872ZM243.245 132.34V139H242.219V132.34H243.245ZM247.956 132.34V139H246.93V132.34H247.956ZM251.454 139.081C250.986 139.081 250.563 138.976 250.185 138.766C249.807 138.55 249.51 138.25 249.294 137.866C249.078 137.476 248.97 137.026 248.97 136.516C248.97 136.012 249.081 135.565 249.303 135.175C249.525 134.785 249.828 134.485 250.212 134.275C250.596 134.065 251.025 133.96 251.499 133.96C251.973 133.96 252.402 134.065 252.786 134.275C253.17 134.485 253.473 134.785 253.695 135.175C253.917 135.565 254.028 136.012 254.028 136.516C254.028 137.02 253.914 137.467 253.686 137.857C253.458 138.247 253.146 138.55 252.75 138.766C252.36 138.976 251.928 139.081 251.454 139.081ZM251.454 138.19C251.718 138.19 251.964 138.127 252.192 138.001C252.426 137.875 252.615 137.686 252.759 137.434C252.903 137.182 252.975 136.876 252.975 136.516C252.975 136.156 252.906 135.853 252.768 135.607C252.63 135.355 252.447 135.166 252.219 135.04C251.991 134.914 251.745 134.851 251.481 134.851C251.217 134.851 250.971 134.914 250.743 135.04C250.521 135.166 250.344 135.355 250.212 135.607C250.08 135.853 250.014 136.156 250.014 136.516C250.014 137.05 250.149 137.464 250.419 137.758C250.695 138.046 251.04 138.19 251.454 138.19ZM256.842 139.081C256.452 139.081 256.101 139.012 255.789 138.874C255.483 138.73 255.24 138.538 255.06 138.298C254.88 138.052 254.784 137.779 254.772 137.479H255.834C255.852 137.689 255.951 137.866 256.131 138.01C256.317 138.148 256.548 138.217 256.824 138.217C257.112 138.217 257.334 138.163 257.49 138.055C257.652 137.941 257.733 137.797 257.733 137.623C257.733 137.437 257.643 137.299 257.463 137.209C257.289 137.119 257.01 137.02 256.626 136.912C256.254 136.81 255.951 136.711 255.717 136.615C255.483 136.519 255.279 136.372 255.105 136.174C254.937 135.976 254.853 135.715 254.853 135.391C254.853 135.127 254.931 134.887 255.087 134.671C255.243 134.449 255.465 134.275 255.753 134.149C256.047 134.023 256.383 133.96 256.761 133.96C257.325 133.96 257.778 134.104 258.12 134.392C258.468 134.674 258.654 135.061 258.678 135.553H257.652C257.634 135.331 257.544 135.154 257.382 135.022C257.22 134.89 257.001 134.824 256.725 134.824C256.455 134.824 256.248 134.875 256.104 134.977C255.96 135.079 255.888 135.214 255.888 135.382C255.888 135.514 255.936 135.625 256.032 135.715C256.128 135.805 256.245 135.877 256.383 135.931C256.521 135.979 256.725 136.042 256.995 136.12C257.355 136.216 257.649 136.315 257.877 136.417C258.111 136.513 258.312 136.657 258.48 136.849C258.648 137.041 258.735 137.296 258.741 137.614C258.741 137.896 258.663 138.148 258.507 138.37C258.351 138.592 258.129 138.766 257.841 138.892C257.559 139.018 257.226 139.081 256.842 139.081ZM264.395 136.399C264.395 136.585 264.383 136.753 264.359 136.903H260.57C260.6 137.299 260.747 137.617 261.011 137.857C261.275 138.097 261.599 138.217 261.983 138.217C262.535 138.217 262.925 137.986 263.153 137.524H264.26C264.11 137.98 263.837 138.355 263.441 138.649C263.051 138.937 262.565 139.081 261.983 139.081C261.509 139.081 261.083 138.976 260.705 138.766C260.333 138.55 260.039 138.25 259.823 137.866C259.613 137.476 259.508 137.026 259.508 136.516C259.508 136.006 259.61 135.559 259.814 135.175C260.024 134.785 260.315 134.485 260.687 134.275C261.065 134.065 261.497 133.96 261.983 133.96C262.451 133.96 262.868 134.062 263.234 134.266C263.6 134.47 263.885 134.758 264.089 135.13C264.293 135.496 264.395 135.919 264.395 136.399ZM263.324 136.075C263.318 135.697 263.183 135.394 262.919 135.166C262.655 134.938 262.328 134.824 261.938 134.824C261.584 134.824 261.281 134.938 261.029 135.166C260.777 135.388 260.627 135.691 260.579 136.075H263.324ZM267.4 136.498C267.4 136 267.502 135.559 267.706 135.175C267.916 134.791 268.198 134.494 268.552 134.284C268.912 134.068 269.308 133.96 269.74 133.96C270.13 133.96 270.469 134.038 270.757 134.194C271.051 134.344 271.285 134.533 271.459 134.761V134.041H272.494V139H271.459V138.262C271.285 138.496 271.048 138.691 270.748 138.847C270.448 139.003 270.106 139.081 269.722 139.081C269.296 139.081 268.906 138.973 268.552 138.757C268.198 138.535 267.916 138.229 267.706 137.839C267.502 137.443 267.4 136.996 267.4 136.498ZM271.459 136.516C271.459 136.174 271.387 135.877 271.243 135.625C271.105 135.373 270.922 135.181 270.694 135.049C270.466 134.917 270.22 134.851 269.956 134.851C269.692 134.851 269.446 134.917 269.218 135.049C268.99 135.175 268.804 135.364 268.66 135.616C268.522 135.862 268.453 136.156 268.453 136.498C268.453 136.84 268.522 137.14 268.66 137.398C268.804 137.656 268.99 137.854 269.218 137.992C269.452 138.124 269.698 138.19 269.956 138.19C270.22 138.19 270.466 138.124 270.694 137.992C270.922 137.86 271.105 137.668 271.243 137.416C271.387 137.158 271.459 136.858 271.459 136.516ZM274.868 132.34V139H273.842V132.34H274.868ZM277.241 132.34V139H276.215V132.34H277.241ZM285.39 134.041L282.348 141.331H281.286L282.294 138.919L280.341 134.041H281.484L282.879 137.821L284.328 134.041H285.39ZM288.315 139.081C287.847 139.081 287.424 138.976 287.046 138.766C286.668 138.55 286.371 138.25 286.155 137.866C285.939 137.476 285.831 137.026 285.831 136.516C285.831 136.012 285.942 135.565 286.164 135.175C286.386 134.785 286.689 134.485 287.073 134.275C287.457 134.065 287.886 133.96 288.36 133.96C288.834 133.96 289.263 134.065 289.647 134.275C290.031 134.485 290.334 134.785 290.556 135.175C290.778 135.565 290.889 136.012 290.889 136.516C290.889 137.02 290.775 137.467 290.547 137.857C290.319 138.247 290.007 138.55 289.611 138.766C289.221 138.976 288.789 139.081 288.315 139.081ZM288.315 138.19C288.579 138.19 288.825 138.127 289.053 138.001C289.287 137.875 289.476 137.686 289.62 137.434C289.764 137.182 289.836 136.876 289.836 136.516C289.836 136.156 289.767 135.853 289.629 135.607C289.491 135.355 289.308 135.166 289.08 135.04C288.852 134.914 288.606 134.851 288.342 134.851C288.078 134.851 287.832 134.914 287.604 135.04C287.382 135.166 287.205 135.355 287.073 135.607C286.941 135.853 286.875 136.156 286.875 136.516C286.875 137.05 287.01 137.464 287.28 137.758C287.556 138.046 287.901 138.19 288.315 138.19ZM296.395 134.041V139H295.369V138.415C295.207 138.619 294.994 138.781 294.73 138.901C294.472 139.015 294.196 139.072 293.902 139.072C293.512 139.072 293.161 138.991 292.849 138.829C292.543 138.667 292.3 138.427 292.12 138.109C291.946 137.791 291.859 137.407 291.859 136.957V134.041H292.876V136.804C292.876 137.248 292.987 137.59 293.209 137.83C293.431 138.064 293.734 138.181 294.118 138.181C294.502 138.181 294.805 138.064 295.027 137.83C295.255 137.59 295.369 137.248 295.369 136.804V134.041H296.395ZM298.774 134.761C298.924 134.509 299.122 134.314 299.368 134.176C299.62 134.032 299.917 133.96 300.259 133.96V135.022H299.998C299.596 135.022 299.29 135.124 299.08 135.328C298.876 135.532 298.774 135.886 298.774 136.39V139H297.748V134.041H298.774V134.761ZM304.566 134.77C304.74 134.542 304.977 134.35 305.277 134.194C305.577 134.038 305.916 133.96 306.294 133.96C306.726 133.96 307.119 134.068 307.473 134.284C307.833 134.494 308.115 134.791 308.319 135.175C308.523 135.559 308.625 136 308.625 136.498C308.625 136.996 308.523 137.443 308.319 137.839C308.115 138.229 307.833 138.535 307.473 138.757C307.119 138.973 306.726 139.081 306.294 139.081C305.916 139.081 305.58 139.006 305.286 138.856C304.992 138.7 304.752 138.508 304.566 138.28V141.358H303.54V134.041H304.566V134.77ZM307.581 136.498C307.581 136.156 307.509 135.862 307.365 135.616C307.227 135.364 307.041 135.175 306.807 135.049C306.579 134.917 306.333 134.851 306.069 134.851C305.811 134.851 305.565 134.917 305.331 135.049C305.103 135.181 304.917 135.373 304.773 135.625C304.635 135.877 304.566 136.174 304.566 136.516C304.566 136.858 304.635 137.158 304.773 137.416C304.917 137.668 305.103 137.86 305.331 137.992C305.565 138.124 305.811 138.19 306.069 138.19C306.333 138.19 306.579 138.124 306.807 137.992C307.041 137.854 307.227 137.656 307.365 137.398C307.509 137.14 307.581 136.84 307.581 136.498ZM314.185 136.399C314.185 136.585 314.173 136.753 314.149 136.903H310.36C310.39 137.299 310.537 137.617 310.801 137.857C311.065 138.097 311.389 138.217 311.773 138.217C312.325 138.217 312.715 137.986 312.943 137.524H314.05C313.9 137.98 313.627 138.355 313.231 138.649C312.841 138.937 312.355 139.081 311.773 139.081C311.299 139.081 310.873 138.976 310.495 138.766C310.123 138.55 309.829 138.25 309.613 137.866C309.403 137.476 309.298 137.026 309.298 136.516C309.298 136.006 309.4 135.559 309.604 135.175C309.814 134.785 310.105 134.485 310.477 134.275C310.855 134.065 311.287 133.96 311.773 133.96C312.241 133.96 312.658 134.062 313.024 134.266C313.39 134.47 313.675 134.758 313.879 135.13C314.083 135.496 314.185 135.919 314.185 136.399ZM313.114 136.075C313.108 135.697 312.973 135.394 312.709 135.166C312.445 134.938 312.118 134.824 311.728 134.824C311.374 134.824 311.071 134.938 310.819 135.166C310.567 135.388 310.417 135.691 310.369 136.075H313.114ZM316.221 134.761C316.371 134.509 316.569 134.314 316.815 134.176C317.067 134.032 317.364 133.96 317.706 133.96V135.022H317.445C317.043 135.022 316.737 135.124 316.527 135.328C316.323 135.532 316.221 135.886 316.221 136.39V139H315.195V134.041H316.221V134.761ZM320.449 139.081C320.059 139.081 319.708 139.012 319.396 138.874C319.09 138.73 318.847 138.538 318.667 138.298C318.487 138.052 318.391 137.779 318.379 137.479H319.441C319.459 137.689 319.558 137.866 319.738 138.01C319.924 138.148 320.155 138.217 320.431 138.217C320.719 138.217 320.941 138.163 321.097 138.055C321.259 137.941 321.34 137.797 321.34 137.623C321.34 137.437 321.25 137.299 321.07 137.209C320.896 137.119 320.617 137.02 320.233 136.912C319.861 136.81 319.558 136.711 319.324 136.615C319.09 136.519 318.886 136.372 318.712 136.174C318.544 135.976 318.46 135.715 318.46 135.391C318.46 135.127 318.538 134.887 318.694 134.671C318.85 134.449 319.072 134.275 319.36 134.149C319.654 134.023 319.99 133.96 320.368 133.96C320.932 133.96 321.385 134.104 321.727 134.392C322.075 134.674 322.261 135.061 322.285 135.553H321.259C321.241 135.331 321.151 135.154 320.989 135.022C320.827 134.89 320.608 134.824 320.332 134.824C320.062 134.824 319.855 134.875 319.711 134.977C319.567 135.079 319.495 135.214 319.495 135.382C319.495 135.514 319.543 135.625 319.639 135.715C319.735 135.805 319.852 135.877 319.99 135.931C320.128 135.979 320.332 136.042 320.602 136.12C320.962 136.216 321.256 136.315 321.484 136.417C321.718 136.513 321.919 136.657 322.087 136.849C322.255 137.041 322.342 137.296 322.348 137.614C322.348 137.896 322.27 138.148 322.114 138.37C321.958 138.592 321.736 138.766 321.448 138.892C321.166 139.018 320.833 139.081 320.449 139.081ZM325.607 139.081C325.139 139.081 324.716 138.976 324.338 138.766C323.96 138.55 323.663 138.25 323.447 137.866C323.231 137.476 323.123 137.026 323.123 136.516C323.123 136.012 323.234 135.565 323.456 135.175C323.678 134.785 323.981 134.485 324.365 134.275C324.749 134.065 325.178 133.96 325.652 133.96C326.126 133.96 326.555 134.065 326.939 134.275C327.323 134.485 327.626 134.785 327.848 135.175C328.07 135.565 328.181 136.012 328.181 136.516C328.181 137.02 328.067 137.467 327.839 137.857C327.611 138.247 327.299 138.55 326.903 138.766C326.513 138.976 326.081 139.081 325.607 139.081ZM325.607 138.19C325.871 138.19 326.117 138.127 326.345 138.001C326.579 137.875 326.768 137.686 326.912 137.434C327.056 137.182 327.128 136.876 327.128 136.516C327.128 136.156 327.059 135.853 326.921 135.607C326.783 135.355 326.6 135.166 326.372 135.04C326.144 134.914 325.898 134.851 325.634 134.851C325.37 134.851 325.124 134.914 324.896 135.04C324.674 135.166 324.497 135.355 324.365 135.607C324.233 135.853 324.167 136.156 324.167 136.516C324.167 137.05 324.302 137.464 324.572 137.758C324.848 138.046 325.193 138.19 325.607 138.19ZM331.698 133.96C332.088 133.96 332.436 134.041 332.742 134.203C333.054 134.365 333.297 134.605 333.471 134.923C333.645 135.241 333.732 135.625 333.732 136.075V139H332.715V136.228C332.715 135.784 332.604 135.445 332.382 135.211C332.16 134.971 331.857 134.851 331.473 134.851C331.089 134.851 330.783 134.971 330.555 135.211C330.333 135.445 330.222 135.784 330.222 136.228V139H329.196V134.041H330.222V134.608C330.39 134.404 330.603 134.245 330.861 134.131C331.125 134.017 331.404 133.96 331.698 133.96ZM334.698 136.498C334.698 136 334.8 135.559 335.004 135.175C335.214 134.791 335.496 134.494 335.85 134.284C336.21 134.068 336.606 133.96 337.038 133.96C337.428 133.96 337.767 134.038 338.055 134.194C338.349 134.344 338.583 134.533 338.757 134.761V134.041H339.792V139H338.757V138.262C338.583 138.496 338.346 138.691 338.046 138.847C337.746 139.003 337.404 139.081 337.02 139.081C336.594 139.081 336.204 138.973 335.85 138.757C335.496 138.535 335.214 138.229 335.004 137.839C334.8 137.443 334.698 136.996 334.698 136.498ZM338.757 136.516C338.757 136.174 338.685 135.877 338.541 135.625C338.403 135.373 338.22 135.181 337.992 135.049C337.764 134.917 337.518 134.851 337.254 134.851C336.99 134.851 336.744 134.917 336.516 135.049C336.288 135.175 336.102 135.364 335.958 135.616C335.82 135.862 335.751 136.156 335.751 136.498C335.751 136.84 335.82 137.14 335.958 137.398C336.102 137.656 336.288 137.854 336.516 137.992C336.75 138.124 336.996 138.19 337.254 138.19C337.518 138.19 337.764 138.124 337.992 137.992C338.22 137.86 338.403 137.668 338.541 137.416C338.685 137.158 338.757 136.858 338.757 136.516ZM342.166 132.34V139H341.14V132.34H342.166ZM347.93 134.878H347.012V139H345.977V134.878H345.392V134.041H345.977V133.69C345.977 133.12 346.127 132.706 346.427 132.448C346.733 132.184 347.21 132.052 347.858 132.052V132.907C347.546 132.907 347.327 132.967 347.201 133.087C347.075 133.201 347.012 133.402 347.012 133.69V134.041H347.93V134.878ZM349.361 133.384C349.175 133.384 349.019 133.321 348.893 133.195C348.767 133.069 348.704 132.913 348.704 132.727C348.704 132.541 348.767 132.385 348.893 132.259C349.019 132.133 349.175 132.07 349.361 132.07C349.541 132.07 349.694 132.133 349.82 132.259C349.946 132.385 350.009 132.541 350.009 132.727C350.009 132.913 349.946 133.069 349.82 133.195C349.694 133.321 349.541 133.384 349.361 133.384ZM349.865 134.041V139H348.839V134.041H349.865ZM352.238 132.34V139H351.212V132.34H352.238ZM358.13 136.399C358.13 136.585 358.118 136.753 358.094 136.903H354.305C354.335 137.299 354.482 137.617 354.746 137.857C355.01 138.097 355.334 138.217 355.718 138.217C356.27 138.217 356.66 137.986 356.888 137.524H357.995C357.845 137.98 357.572 138.355 357.176 138.649C356.786 138.937 356.3 139.081 355.718 139.081C355.244 139.081 354.818 138.976 354.44 138.766C354.068 138.55 353.774 138.25 353.558 137.866C353.348 137.476 353.243 137.026 353.243 136.516C353.243 136.006 353.345 135.559 353.549 135.175C353.759 134.785 354.05 134.485 354.422 134.275C354.8 134.065 355.232 133.96 355.718 133.96C356.186 133.96 356.603 134.062 356.969 134.266C357.335 134.47 357.62 134.758 357.824 135.13C358.028 135.496 358.13 135.919 358.13 136.399ZM357.059 136.075C357.053 135.697 356.918 135.394 356.654 135.166C356.39 134.938 356.063 134.824 355.673 134.824C355.319 134.824 355.016 134.938 354.764 135.166C354.512 135.388 354.362 135.691 354.314 136.075H357.059ZM360.94 139.081C360.55 139.081 360.199 139.012 359.887 138.874C359.581 138.73 359.338 138.538 359.158 138.298C358.978 138.052 358.882 137.779 358.87 137.479H359.932C359.95 137.689 360.049 137.866 360.229 138.01C360.415 138.148 360.646 138.217 360.922 138.217C361.21 138.217 361.432 138.163 361.588 138.055C361.75 137.941 361.831 137.797 361.831 137.623C361.831 137.437 361.741 137.299 361.561 137.209C361.387 137.119 361.108 137.02 360.724 136.912C360.352 136.81 360.049 136.711 359.815 136.615C359.581 136.519 359.377 136.372 359.203 136.174C359.035 135.976 358.951 135.715 358.951 135.391C358.951 135.127 359.029 134.887 359.185 134.671C359.341 134.449 359.563 134.275 359.851 134.149C360.145 134.023 360.481 133.96 360.859 133.96C361.423 133.96 361.876 134.104 362.218 134.392C362.566 134.674 362.752 135.061 362.776 135.553H361.75C361.732 135.331 361.642 135.154 361.48 135.022C361.318 134.89 361.099 134.824 360.823 134.824C360.553 134.824 360.346 134.875 360.202 134.977C360.058 135.079 359.986 135.214 359.986 135.382C359.986 135.514 360.034 135.625 360.13 135.715C360.226 135.805 360.343 135.877 360.481 135.931C360.619 135.979 360.823 136.042 361.093 136.12C361.453 136.216 361.747 136.315 361.975 136.417C362.209 136.513 362.41 136.657 362.578 136.849C362.746 137.041 362.833 137.296 362.839 137.614C362.839 137.896 362.761 138.148 362.605 138.37C362.449 138.592 362.227 138.766 361.939 138.892C361.657 139.018 361.324 139.081 360.94 139.081Z"></path>
<mask fill="white" id="path-4-inside-1_502_303">
<path d="M370 117C370 114.239 372.239 112 375 112H455C457.761 112 460 114.239 460 117V137C460 139.761 457.761 142 455 142H375C372.239 142 370 139.761 370 137V117Z"></path>
</mask>
<path fill-opacity="0.05" fill="white" d="M370 117C370 114.239 372.239 112 375 112H455C457.761 112 460 114.239 460 117V137C460 139.761 457.761 142 455 142H375C372.239 142 370 139.761 370 137V117Z"></path>
<path mask="url(#path-4-inside-1_502_303)" fill-opacity="0.05" fill="white" d="M370 117C370 113.686 372.686 111 376 111H454C457.314 111 460 113.686 460 117C460 114.791 457.761 113 455 113H375C372.239 113 370 114.791 370 117ZM460 142H370H460ZM370 142V112V142ZM460 112V142V112Z"></path>
<path fill="white" d="M384.159 131L382.399 127.942H381.442V131H380.188V123.355H382.828C383.414 123.355 383.909 123.458 384.313 123.663C384.723 123.868 385.028 124.143 385.226 124.488C385.431 124.833 385.534 125.218 385.534 125.643C385.534 126.142 385.387 126.596 385.094 127.007C384.808 127.41 384.364 127.685 383.763 127.832L385.655 131H384.159ZM381.442 126.941H382.828C383.297 126.941 383.649 126.824 383.884 126.589C384.126 126.354 384.247 126.039 384.247 125.643C384.247 125.247 384.129 124.939 383.895 124.719C383.66 124.492 383.304 124.378 382.828 124.378H381.442V126.941ZM392.693 127.821C392.693 128.048 392.678 128.254 392.649 128.437H388.018C388.055 128.921 388.234 129.31 388.557 129.603C388.88 129.896 389.276 130.043 389.745 130.043C390.42 130.043 390.896 129.761 391.175 129.196H392.528C392.345 129.753 392.011 130.212 391.527 130.571C391.05 130.923 390.456 131.099 389.745 131.099C389.166 131.099 388.645 130.971 388.183 130.714C387.728 130.45 387.369 130.083 387.105 129.614C386.848 129.137 386.72 128.587 386.72 127.964C386.72 127.341 386.845 126.794 387.094 126.325C387.351 125.848 387.706 125.482 388.161 125.225C388.623 124.968 389.151 124.84 389.745 124.84C390.317 124.84 390.827 124.965 391.274 125.214C391.721 125.463 392.07 125.815 392.319 126.27C392.568 126.717 392.693 127.234 392.693 127.821ZM391.384 127.425C391.377 126.963 391.212 126.593 390.889 126.314C390.566 126.035 390.167 125.896 389.69 125.896C389.257 125.896 388.887 126.035 388.579 126.314C388.271 126.585 388.088 126.956 388.029 127.425H391.384ZM396.127 131.099C395.65 131.099 395.221 131.015 394.84 130.846C394.466 130.67 394.169 130.435 393.949 130.142C393.729 129.841 393.612 129.508 393.597 129.141H394.895C394.917 129.398 395.038 129.614 395.258 129.79C395.485 129.959 395.768 130.043 396.105 130.043C396.457 130.043 396.728 129.977 396.919 129.845C397.117 129.706 397.216 129.53 397.216 129.317C397.216 129.09 397.106 128.921 396.886 128.811C396.673 128.701 396.332 128.58 395.863 128.448C395.408 128.323 395.038 128.202 394.752 128.085C394.466 127.968 394.217 127.788 394.004 127.546C393.799 127.304 393.696 126.985 393.696 126.589C393.696 126.266 393.791 125.973 393.982 125.709C394.173 125.438 394.444 125.225 394.796 125.071C395.155 124.917 395.566 124.84 396.028 124.84C396.717 124.84 397.271 125.016 397.689 125.368C398.114 125.713 398.342 126.186 398.371 126.787H397.117C397.095 126.516 396.985 126.299 396.787 126.138C396.589 125.977 396.321 125.896 395.984 125.896C395.654 125.896 395.401 125.958 395.225 126.083C395.049 126.208 394.961 126.373 394.961 126.578C394.961 126.739 395.02 126.875 395.137 126.985C395.254 127.095 395.397 127.183 395.566 127.249C395.735 127.308 395.984 127.385 396.314 127.48C396.754 127.597 397.113 127.718 397.392 127.843C397.678 127.96 397.924 128.136 398.129 128.371C398.334 128.606 398.441 128.917 398.448 129.306C398.448 129.651 398.353 129.959 398.162 130.23C397.971 130.501 397.7 130.714 397.348 130.868C397.003 131.022 396.596 131.099 396.127 131.099ZM405.358 127.821C405.358 128.048 405.343 128.254 405.314 128.437H400.683C400.72 128.921 400.899 129.31 401.222 129.603C401.545 129.896 401.941 130.043 402.41 130.043C403.085 130.043 403.561 129.761 403.84 129.196H405.193C405.01 129.753 404.676 130.212 404.192 130.571C403.715 130.923 403.121 131.099 402.41 131.099C401.831 131.099 401.31 130.971 400.848 130.714C400.393 130.45 400.034 130.083 399.77 129.614C399.513 129.137 399.385 128.587 399.385 127.964C399.385 127.341 399.51 126.794 399.759 126.325C400.016 125.848 400.371 125.482 400.826 125.225C401.288 124.968 401.816 124.84 402.41 124.84C402.982 124.84 403.492 124.965 403.939 125.214C404.386 125.463 404.735 125.815 404.984 126.27C405.233 126.717 405.358 127.234 405.358 127.821ZM404.049 127.425C404.042 126.963 403.877 126.593 403.554 126.314C403.231 126.035 402.832 125.896 402.355 125.896C401.922 125.896 401.552 126.035 401.244 126.314C400.936 126.585 400.753 126.956 400.694 127.425H404.049ZM408.055 125.962V129.317C408.055 129.544 408.106 129.709 408.209 129.812C408.319 129.907 408.502 129.955 408.759 129.955H409.529V131H408.539C407.974 131 407.542 130.868 407.241 130.604C406.94 130.34 406.79 129.911 406.79 129.317V125.962H406.075V124.939H406.79V123.432H408.055V124.939H409.529V125.962H408.055ZM415.005 125.962V129.317C415.005 129.544 415.057 129.709 415.159 129.812C415.269 129.907 415.453 129.955 415.709 129.955H416.479V131H415.489C414.925 131 414.492 130.868 414.191 130.604C413.891 130.34 413.74 129.911 413.74 129.317V125.962H413.025V124.939H413.74V123.432H415.005V124.939H416.479V125.962H415.005ZM420.77 124.84C421.232 124.84 421.643 124.939 422.002 125.137C422.369 125.335 422.655 125.628 422.86 126.017C423.073 126.406 423.179 126.875 423.179 127.425V131H421.936V127.612C421.936 127.069 421.8 126.655 421.529 126.369C421.258 126.076 420.887 125.929 420.418 125.929C419.949 125.929 419.575 126.076 419.296 126.369C419.025 126.655 418.889 127.069 418.889 127.612V131H417.635V122.86H418.889V125.643C419.102 125.386 419.369 125.188 419.692 125.049C420.022 124.91 420.381 124.84 420.77 124.84ZM425.417 124.136C425.189 124.136 424.999 124.059 424.845 123.905C424.691 123.751 424.614 123.56 424.614 123.333C424.614 123.106 424.691 122.915 424.845 122.761C424.999 122.607 425.189 122.53 425.417 122.53C425.637 122.53 425.824 122.607 425.978 122.761C426.132 122.915 426.209 123.106 426.209 123.333C426.209 123.56 426.132 123.751 425.978 123.905C425.824 124.059 425.637 124.136 425.417 124.136ZM426.033 124.939V131H424.779V124.939H426.033ZM429.879 131.099C429.402 131.099 428.973 131.015 428.592 130.846C428.218 130.67 427.921 130.435 427.701 130.142C427.481 129.841 427.364 129.508 427.349 129.141H428.647C428.669 129.398 428.79 129.614 429.01 129.79C429.237 129.959 429.52 130.043 429.857 130.043C430.209 130.043 430.48 129.977 430.671 129.845C430.869 129.706 430.968 129.53 430.968 129.317C430.968 129.09 430.858 128.921 430.638 128.811C430.425 128.701 430.084 128.58 429.615 128.448C429.16 128.323 428.79 128.202 428.504 128.085C428.218 127.968 427.969 127.788 427.756 127.546C427.551 127.304 427.448 126.985 427.448 126.589C427.448 126.266 427.543 125.973 427.734 125.709C427.925 125.438 428.196 125.225 428.548 125.071C428.907 124.917 429.318 124.84 429.78 124.84C430.469 124.84 431.023 125.016 431.441 125.368C431.866 125.713 432.094 126.186 432.123 126.787H430.869C430.847 126.516 430.737 126.299 430.539 126.138C430.341 125.977 430.073 125.896 429.736 125.896C429.406 125.896 429.153 125.958 428.977 126.083C428.801 126.208 428.713 126.373 428.713 126.578C428.713 126.739 428.772 126.875 428.889 126.985C429.006 127.095 429.149 127.183 429.318 127.249C429.487 127.308 429.736 127.385 430.066 127.48C430.506 127.597 430.865 127.718 431.144 127.843C431.43 127.96 431.676 128.136 431.881 128.371C432.086 128.606 432.193 128.917 432.2 129.306C432.2 129.651 432.105 129.959 431.914 130.23C431.723 130.501 431.452 130.714 431.1 130.868C430.755 131.022 430.348 131.099 429.879 131.099ZM441.758 125.632C441.758 126.021 441.667 126.387 441.483 126.732C441.3 127.077 441.007 127.359 440.603 127.579C440.2 127.792 439.683 127.898 439.052 127.898H437.666V131H436.412V123.355H439.052C439.639 123.355 440.134 123.458 440.537 123.663C440.948 123.861 441.252 124.132 441.45 124.477C441.656 124.822 441.758 125.207 441.758 125.632ZM439.052 126.875C439.529 126.875 439.885 126.769 440.119 126.556C440.354 126.336 440.471 126.028 440.471 125.632C440.471 124.796 439.998 124.378 439.052 124.378H437.666V126.875H439.052ZM442.536 127.161C442.536 126.413 442.709 125.742 443.053 125.148C443.405 124.554 443.878 124.092 444.472 123.762C445.074 123.425 445.73 123.256 446.441 123.256C447.255 123.256 447.978 123.458 448.608 123.861C449.246 124.257 449.708 124.822 449.994 125.555H448.487C448.289 125.152 448.014 124.851 447.662 124.653C447.31 124.455 446.903 124.356 446.441 124.356C445.935 124.356 445.484 124.47 445.088 124.697C444.692 124.924 444.381 125.251 444.153 125.676C443.933 126.101 443.823 126.596 443.823 127.161C443.823 127.726 443.933 128.221 444.153 128.646C444.381 129.071 444.692 129.401 445.088 129.636C445.484 129.863 445.935 129.977 446.441 129.977C446.903 129.977 447.31 129.878 447.662 129.68C448.014 129.482 448.289 129.181 448.487 128.778H449.994C449.708 129.511 449.246 130.076 448.608 130.472C447.978 130.868 447.255 131.066 446.441 131.066C445.723 131.066 445.066 130.901 444.472 130.571C443.878 130.234 443.405 129.768 443.053 129.174C442.709 128.58 442.536 127.909 442.536 127.161Z"></path>
<path fill-opacity="0.05" fill="white" d="M190 169C190 166.239 192.239 164 195 164H465C467.761 164 470 166.239 470 169V245C470 247.761 467.761 250 465 250H195C192.239 250 190 247.761 190 245V169Z"></path>
<path fill="white" d="M214.796 195L213.036 191.942H212.079V195H210.825V187.355H213.465C214.052 187.355 214.547 187.458 214.95 187.663C215.361 187.868 215.665 188.143 215.863 188.488C216.068 188.833 216.171 189.218 216.171 189.643C216.171 190.142 216.024 190.596 215.731 191.007C215.445 191.41 215.001 191.685 214.4 191.832L216.292 195H214.796ZM212.079 190.941H213.465C213.934 190.941 214.286 190.824 214.521 190.589C214.763 190.354 214.884 190.039 214.884 189.643C214.884 189.247 214.767 188.939 214.532 188.719C214.297 188.492 213.942 188.378 213.465 188.378H212.079V190.941ZM223.33 191.821C223.33 192.048 223.316 192.254 223.286 192.437H218.655C218.692 192.921 218.872 193.31 219.194 193.603C219.517 193.896 219.913 194.043 220.382 194.043C221.057 194.043 221.534 193.761 221.812 193.196H223.165C222.982 193.753 222.648 194.212 222.164 194.571C221.688 194.923 221.094 195.099 220.382 195.099C219.803 195.099 219.282 194.971 218.82 194.714C218.366 194.45 218.006 194.083 217.742 193.614C217.486 193.137 217.357 192.587 217.357 191.964C217.357 191.341 217.482 190.794 217.731 190.325C217.988 189.848 218.344 189.482 218.798 189.225C219.26 188.968 219.788 188.84 220.382 188.84C220.954 188.84 221.464 188.965 221.911 189.214C222.359 189.463 222.707 189.815 222.956 190.27C223.206 190.717 223.33 191.234 223.33 191.821ZM222.021 191.425C222.014 190.963 221.849 190.593 221.526 190.314C221.204 190.035 220.804 189.896 220.327 189.896C219.895 189.896 219.524 190.035 219.216 190.314C218.908 190.585 218.725 190.956 218.666 191.425H222.021ZM226.764 195.099C226.288 195.099 225.859 195.015 225.477 194.846C225.103 194.67 224.806 194.435 224.586 194.142C224.366 193.841 224.249 193.508 224.234 193.141H225.532C225.554 193.398 225.675 193.614 225.895 193.79C226.123 193.959 226.405 194.043 226.742 194.043C227.094 194.043 227.366 193.977 227.556 193.845C227.754 193.706 227.853 193.53 227.853 193.317C227.853 193.09 227.743 192.921 227.523 192.811C227.311 192.701 226.97 192.58 226.5 192.448C226.046 192.323 225.675 192.202 225.389 192.085C225.103 191.968 224.854 191.788 224.641 191.546C224.436 191.304 224.333 190.985 224.333 190.589C224.333 190.266 224.429 189.973 224.619 189.709C224.81 189.438 225.081 189.225 225.433 189.071C225.793 188.917 226.203 188.84 226.665 188.84C227.355 188.84 227.908 189.016 228.326 189.368C228.752 189.713 228.979 190.186 229.008 190.787H227.754C227.732 190.516 227.622 190.299 227.424 190.138C227.226 189.977 226.959 189.896 226.621 189.896C226.291 189.896 226.038 189.958 225.862 190.083C225.686 190.208 225.598 190.373 225.598 190.578C225.598 190.739 225.657 190.875 225.774 190.985C225.892 191.095 226.035 191.183 226.203 191.249C226.372 191.308 226.621 191.385 226.951 191.48C227.391 191.597 227.751 191.718 228.029 191.843C228.315 191.96 228.561 192.136 228.766 192.371C228.972 192.606 229.078 192.917 229.085 193.306C229.085 193.651 228.99 193.959 228.799 194.23C228.609 194.501 228.337 194.714 227.985 194.868C227.641 195.022 227.234 195.099 226.764 195.099ZM235.995 191.821C235.995 192.048 235.981 192.254 235.951 192.437H231.32C231.357 192.921 231.537 193.31 231.859 193.603C232.182 193.896 232.578 194.043 233.047 194.043C233.722 194.043 234.199 193.761 234.477 193.196H235.83C235.647 193.753 235.313 194.212 234.829 194.571C234.353 194.923 233.759 195.099 233.047 195.099C232.468 195.099 231.947 194.971 231.485 194.714C231.031 194.45 230.671 194.083 230.407 193.614C230.151 193.137 230.022 192.587 230.022 191.964C230.022 191.341 230.147 190.794 230.396 190.325C230.653 189.848 231.009 189.482 231.463 189.225C231.925 188.968 232.453 188.84 233.047 188.84C233.619 188.84 234.129 188.965 234.576 189.214C235.024 189.463 235.372 189.815 235.621 190.27C235.871 190.717 235.995 191.234 235.995 191.821ZM234.686 191.425C234.679 190.963 234.514 190.593 234.191 190.314C233.869 190.035 233.469 189.896 232.992 189.896C232.56 189.896 232.189 190.035 231.881 190.314C231.573 190.585 231.39 190.956 231.331 191.425H234.686ZM238.692 189.962V193.317C238.692 193.544 238.744 193.709 238.846 193.812C238.956 193.907 239.14 193.955 239.396 193.955H240.166V195H239.176C238.612 195 238.179 194.868 237.878 194.604C237.578 194.34 237.427 193.911 237.427 193.317V189.962H236.712V188.939H237.427V187.432H238.692V188.939H240.166V189.962H238.692ZM246.379 195.099C245.903 195.099 245.474 195.015 245.092 194.846C244.718 194.67 244.421 194.435 244.201 194.142C243.981 193.841 243.864 193.508 243.849 193.141H245.147C245.169 193.398 245.29 193.614 245.51 193.79C245.738 193.959 246.02 194.043 246.357 194.043C246.709 194.043 246.981 193.977 247.171 193.845C247.369 193.706 247.468 193.53 247.468 193.317C247.468 193.09 247.358 192.921 247.138 192.811C246.926 192.701 246.585 192.58 246.115 192.448C245.661 192.323 245.29 192.202 245.004 192.085C244.718 191.968 244.469 191.788 244.256 191.546C244.051 191.304 243.948 190.985 243.948 190.589C243.948 190.266 244.044 189.973 244.234 189.709C244.425 189.438 244.696 189.225 245.048 189.071C245.408 188.917 245.818 188.84 246.28 188.84C246.97 188.84 247.523 189.016 247.941 189.368C248.367 189.713 248.594 190.186 248.623 190.787H247.369C247.347 190.516 247.237 190.299 247.039 190.138C246.841 189.977 246.574 189.896 246.236 189.896C245.906 189.896 245.653 189.958 245.477 190.083C245.301 190.208 245.213 190.373 245.213 190.578C245.213 190.739 245.272 190.875 245.389 190.985C245.507 191.095 245.65 191.183 245.818 191.249C245.987 191.308 246.236 191.385 246.566 191.48C247.006 191.597 247.366 191.718 247.644 191.843C247.93 191.96 248.176 192.136 248.381 192.371C248.587 192.606 248.693 192.917 248.7 193.306C248.7 193.651 248.605 193.959 248.414 194.23C248.224 194.501 247.952 194.714 247.6 194.868C247.256 195.022 246.849 195.099 246.379 195.099ZM255.61 191.821C255.61 192.048 255.596 192.254 255.566 192.437H250.935C250.972 192.921 251.152 193.31 251.474 193.603C251.797 193.896 252.193 194.043 252.662 194.043C253.337 194.043 253.814 193.761 254.092 193.196H255.445C255.262 193.753 254.928 194.212 254.444 194.571C253.968 194.923 253.374 195.099 252.662 195.099C252.083 195.099 251.562 194.971 251.1 194.714C250.646 194.45 250.286 194.083 250.022 193.614C249.766 193.137 249.637 192.587 249.637 191.964C249.637 191.341 249.762 190.794 250.011 190.325C250.268 189.848 250.624 189.482 251.078 189.225C251.54 188.968 252.068 188.84 252.662 188.84C253.234 188.84 253.744 188.965 254.191 189.214C254.639 189.463 254.987 189.815 255.236 190.27C255.486 190.717 255.61 191.234 255.61 191.821ZM254.301 191.425C254.294 190.963 254.129 190.593 253.806 190.314C253.484 190.035 253.084 189.896 252.607 189.896C252.175 189.896 251.804 190.035 251.496 190.314C251.188 190.585 251.005 190.956 250.946 191.425H254.301ZM258.308 189.962V193.317C258.308 193.544 258.359 193.709 258.462 193.812C258.572 193.907 258.755 193.955 259.012 193.955H259.782V195H258.792C258.227 195 257.794 194.868 257.494 194.604C257.193 194.34 257.043 193.911 257.043 193.317V189.962H256.328V188.939H257.043V187.432H258.308V188.939H259.782V189.962H258.308ZM262.4 189.962V193.317C262.4 193.544 262.452 193.709 262.554 193.812C262.664 193.907 262.848 193.955 263.104 193.955H263.874V195H262.884C262.32 195 261.887 194.868 261.586 194.604C261.286 194.34 261.135 193.911 261.135 193.317V189.962H260.42V188.939H261.135V187.432H262.4V188.939H263.874V189.962H262.4ZM265.668 188.136C265.441 188.136 265.25 188.059 265.096 187.905C264.942 187.751 264.865 187.56 264.865 187.333C264.865 187.106 264.942 186.915 265.096 186.761C265.25 186.607 265.441 186.53 265.668 186.53C265.888 186.53 266.075 186.607 266.229 186.761C266.383 186.915 266.46 187.106 266.46 187.333C266.46 187.56 266.383 187.751 266.229 187.905C266.075 188.059 265.888 188.136 265.668 188.136ZM266.284 188.939V195H265.03V188.939H266.284ZM270.988 188.84C271.465 188.84 271.89 188.939 272.264 189.137C272.646 189.335 272.943 189.628 273.155 190.017C273.368 190.406 273.474 190.875 273.474 191.425V195H272.231V191.612C272.231 191.069 272.096 190.655 271.824 190.369C271.553 190.076 271.183 189.929 270.713 189.929C270.244 189.929 269.87 190.076 269.591 190.369C269.32 190.655 269.184 191.069 269.184 191.612V195H267.93V188.939H269.184V189.632C269.39 189.383 269.65 189.188 269.965 189.049C270.288 188.91 270.629 188.84 270.988 188.84ZM277.516 188.84C277.985 188.84 278.4 188.935 278.759 189.126C279.126 189.309 279.412 189.54 279.617 189.819V188.939H280.882V195.099C280.882 195.656 280.765 196.151 280.53 196.584C280.295 197.024 279.954 197.369 279.507 197.618C279.067 197.867 278.539 197.992 277.923 197.992C277.102 197.992 276.42 197.798 275.877 197.409C275.334 197.028 275.026 196.507 274.953 195.847H276.196C276.291 196.162 276.493 196.415 276.801 196.606C277.116 196.804 277.49 196.903 277.923 196.903C278.429 196.903 278.836 196.749 279.144 196.441C279.459 196.133 279.617 195.686 279.617 195.099V194.087C279.404 194.373 279.115 194.615 278.748 194.813C278.389 195.004 277.978 195.099 277.516 195.099C276.988 195.099 276.504 194.967 276.064 194.703C275.631 194.432 275.287 194.058 275.03 193.581C274.781 193.097 274.656 192.551 274.656 191.942C274.656 191.333 274.781 190.794 275.03 190.325C275.287 189.856 275.631 189.493 276.064 189.236C276.504 188.972 276.988 188.84 277.516 188.84ZM279.617 191.964C279.617 191.546 279.529 191.183 279.353 190.875C279.184 190.567 278.961 190.332 278.682 190.171C278.403 190.01 278.103 189.929 277.78 189.929C277.457 189.929 277.157 190.01 276.878 190.171C276.599 190.325 276.372 190.556 276.196 190.864C276.027 191.165 275.943 191.524 275.943 191.942C275.943 192.36 276.027 192.727 276.196 193.042C276.372 193.357 276.599 193.599 276.878 193.768C277.164 193.929 277.465 194.01 277.78 194.01C278.103 194.01 278.403 193.929 278.682 193.768C278.961 193.607 279.184 193.372 279.353 193.064C279.529 192.749 279.617 192.382 279.617 191.964ZM284.729 195.099C284.252 195.099 283.823 195.015 283.442 194.846C283.068 194.67 282.771 194.435 282.551 194.142C282.331 193.841 282.214 193.508 282.199 193.141H283.497C283.519 193.398 283.64 193.614 283.86 193.79C284.087 193.959 284.37 194.043 284.707 194.043C285.059 194.043 285.33 193.977 285.521 193.845C285.719 193.706 285.818 193.53 285.818 193.317C285.818 193.09 285.708 192.921 285.488 192.811C285.275 192.701 284.934 192.58 284.465 192.448C284.01 192.323 283.64 192.202 283.354 192.085C283.068 191.968 282.819 191.788 282.606 191.546C282.401 191.304 282.298 190.985 282.298 190.589C282.298 190.266 282.393 189.973 282.584 189.709C282.775 189.438 283.046 189.225 283.398 189.071C283.757 188.917 284.168 188.84 284.63 188.84C285.319 188.84 285.873 189.016 286.291 189.368C286.716 189.713 286.944 190.186 286.973 190.787H285.719C285.697 190.516 285.587 190.299 285.389 190.138C285.191 189.977 284.923 189.896 284.586 189.896C284.256 189.896 284.003 189.958 283.827 190.083C283.651 190.208 283.563 190.373 283.563 190.578C283.563 190.739 283.622 190.875 283.739 190.985C283.856 191.095 283.999 191.183 284.168 191.249C284.337 191.308 284.586 191.385 284.916 191.48C285.356 191.597 285.715 191.718 285.994 191.843C286.28 191.96 286.526 192.136 286.731 192.371C286.936 192.606 287.043 192.917 287.05 193.306C287.05 193.651 286.955 193.959 286.764 194.23C286.573 194.501 286.302 194.714 285.95 194.868C285.605 195.022 285.198 195.099 284.729 195.099Z"></path>
<path fill-opacity="0.75" fill="white" d="M215.31 204.745L213.24 208.732V211H212.214V208.732L210.135 204.745H211.278L212.727 207.814L214.176 204.745H215.31ZM218.275 211.081C217.807 211.081 217.384 210.976 217.006 210.766C216.628 210.55 216.331 210.25 216.115 209.866C215.899 209.476 215.791 209.026 215.791 208.516C215.791 208.012 215.902 207.565 216.124 207.175C216.346 206.785 216.649 206.485 217.033 206.275C217.417 206.065 217.846 205.96 218.32 205.96C218.794 205.96 219.223 206.065 219.607 206.275C219.991 206.485 220.294 206.785 220.516 207.175C220.738 207.565 220.849 208.012 220.849 208.516C220.849 209.02 220.735 209.467 220.507 209.857C220.279 210.247 219.967 210.55 219.571 210.766C219.181 210.976 218.749 211.081 218.275 211.081ZM218.275 210.19C218.539 210.19 218.785 210.127 219.013 210.001C219.247 209.875 219.436 209.686 219.58 209.434C219.724 209.182 219.796 208.876 219.796 208.516C219.796 208.156 219.727 207.853 219.589 207.607C219.451 207.355 219.268 207.166 219.04 207.04C218.812 206.914 218.566 206.851 218.302 206.851C218.038 206.851 217.792 206.914 217.564 207.04C217.342 207.166 217.165 207.355 217.033 207.607C216.901 207.853 216.835 208.156 216.835 208.516C216.835 209.05 216.97 209.464 217.24 209.758C217.516 210.046 217.861 210.19 218.275 210.19ZM226.354 206.041V211H225.328V210.415C225.166 210.619 224.953 210.781 224.689 210.901C224.431 211.015 224.155 211.072 223.861 211.072C223.471 211.072 223.12 210.991 222.808 210.829C222.502 210.667 222.259 210.427 222.079 210.109C221.905 209.791 221.818 209.407 221.818 208.957V206.041H222.835V208.804C222.835 209.248 222.946 209.59 223.168 209.83C223.39 210.064 223.693 210.181 224.077 210.181C224.461 210.181 224.764 210.064 224.986 209.83C225.214 209.59 225.328 209.248 225.328 208.804V206.041H226.354ZM228.734 206.761C228.884 206.509 229.082 206.314 229.328 206.176C229.58 206.032 229.877 205.96 230.219 205.96V207.022H229.958C229.556 207.022 229.25 207.124 229.04 207.328C228.836 207.532 228.734 207.886 228.734 208.39V211H227.708V206.041H228.734V206.761ZM234.526 206.77C234.7 206.542 234.937 206.35 235.237 206.194C235.537 206.038 235.876 205.96 236.254 205.96C236.686 205.96 237.079 206.068 237.433 206.284C237.793 206.494 238.075 206.791 238.279 207.175C238.483 207.559 238.585 208 238.585 208.498C238.585 208.996 238.483 209.443 238.279 209.839C238.075 210.229 237.793 210.535 237.433 210.757C237.079 210.973 236.686 211.081 236.254 211.081C235.876 211.081 235.54 211.006 235.246 210.856C234.952 210.7 234.712 210.508 234.526 210.28V213.358H233.5V206.041H234.526V206.77ZM237.541 208.498C237.541 208.156 237.469 207.862 237.325 207.616C237.187 207.364 237.001 207.175 236.767 207.049C236.539 206.917 236.293 206.851 236.029 206.851C235.771 206.851 235.525 206.917 235.291 207.049C235.063 207.181 234.877 207.373 234.733 207.625C234.595 207.877 234.526 208.174 234.526 208.516C234.526 208.858 234.595 209.158 234.733 209.416C234.877 209.668 235.063 209.86 235.291 209.992C235.525 210.124 235.771 210.19 236.029 210.19C236.293 210.19 236.539 210.124 236.767 209.992C237.001 209.854 237.187 209.656 237.325 209.398C237.469 209.14 237.541 208.84 237.541 208.498ZM244.145 208.399C244.145 208.585 244.133 208.753 244.109 208.903H240.32C240.35 209.299 240.497 209.617 240.761 209.857C241.025 210.097 241.349 210.217 241.733 210.217C242.285 210.217 242.675 209.986 242.903 209.524H244.01C243.86 209.98 243.587 210.355 243.191 210.649C242.801 210.937 242.315 211.081 241.733 211.081C241.259 211.081 240.833 210.976 240.455 210.766C240.083 210.55 239.789 210.25 239.573 209.866C239.363 209.476 239.258 209.026 239.258 208.516C239.258 208.006 239.36 207.559 239.564 207.175C239.774 206.785 240.065 206.485 240.437 206.275C240.815 206.065 241.247 205.96 241.733 205.96C242.201 205.96 242.618 206.062 242.984 206.266C243.35 206.47 243.635 206.758 243.839 207.13C244.043 207.496 244.145 207.919 244.145 208.399ZM243.074 208.075C243.068 207.697 242.933 207.394 242.669 207.166C242.405 206.938 242.078 206.824 241.688 206.824C241.334 206.824 241.031 206.938 240.779 207.166C240.527 207.388 240.377 207.691 240.329 208.075H243.074ZM246.18 206.761C246.33 206.509 246.528 206.314 246.774 206.176C247.026 206.032 247.323 205.96 247.665 205.96V207.022H247.404C247.002 207.022 246.696 207.124 246.486 207.328C246.282 207.532 246.18 207.886 246.18 208.39V211H245.154V206.041H246.18V206.761ZM250.409 211.081C250.019 211.081 249.668 211.012 249.356 210.874C249.05 210.73 248.807 210.538 248.627 210.298C248.447 210.052 248.351 209.779 248.339 209.479H249.401C249.419 209.689 249.518 209.866 249.698 210.01C249.884 210.148 250.115 210.217 250.391 210.217C250.679 210.217 250.901 210.163 251.057 210.055C251.219 209.941 251.3 209.797 251.3 209.623C251.3 209.437 251.21 209.299 251.03 209.209C250.856 209.119 250.577 209.02 250.193 208.912C249.821 208.81 249.518 208.711 249.284 208.615C249.05 208.519 248.846 208.372 248.672 208.174C248.504 207.976 248.42 207.715 248.42 207.391C248.42 207.127 248.498 206.887 248.654 206.671C248.81 206.449 249.032 206.275 249.32 206.149C249.614 206.023 249.95 205.96 250.328 205.96C250.892 205.96 251.345 206.104 251.687 206.392C252.035 206.674 252.221 207.061 252.245 207.553H251.219C251.201 207.331 251.111 207.154 250.949 207.022C250.787 206.89 250.568 206.824 250.292 206.824C250.022 206.824 249.815 206.875 249.671 206.977C249.527 207.079 249.455 207.214 249.455 207.382C249.455 207.514 249.503 207.625 249.599 207.715C249.695 207.805 249.812 207.877 249.95 207.931C250.088 207.979 250.292 208.042 250.562 208.12C250.922 208.216 251.216 208.315 251.444 208.417C251.678 208.513 251.879 208.657 252.047 208.849C252.215 209.041 252.302 209.296 252.308 209.614C252.308 209.896 252.23 210.148 252.074 210.37C251.918 210.592 251.696 210.766 251.408 210.892C251.126 211.018 250.793 211.081 250.409 211.081ZM255.567 211.081C255.099 211.081 254.676 210.976 254.298 210.766C253.92 210.55 253.623 210.25 253.407 209.866C253.191 209.476 253.083 209.026 253.083 208.516C253.083 208.012 253.194 207.565 253.416 207.175C253.638 206.785 253.941 206.485 254.325 206.275C254.709 206.065 255.138 205.96 255.612 205.96C256.086 205.96 256.515 206.065 256.899 206.275C257.283 206.485 257.586 206.785 257.808 207.175C258.03 207.565 258.141 208.012 258.141 208.516C258.141 209.02 258.027 209.467 257.799 209.857C257.571 210.247 257.259 210.55 256.863 210.766C256.473 210.976 256.041 211.081 255.567 211.081ZM255.567 210.19C255.831 210.19 256.077 210.127 256.305 210.001C256.539 209.875 256.728 209.686 256.872 209.434C257.016 209.182 257.088 208.876 257.088 208.516C257.088 208.156 257.019 207.853 256.881 207.607C256.743 207.355 256.56 207.166 256.332 207.04C256.104 206.914 255.858 206.851 255.594 206.851C255.33 206.851 255.084 206.914 254.856 207.04C254.634 207.166 254.457 207.355 254.325 207.607C254.193 207.853 254.127 208.156 254.127 208.516C254.127 209.05 254.262 209.464 254.532 209.758C254.808 210.046 255.153 210.19 255.567 210.19ZM261.657 205.96C262.047 205.96 262.395 206.041 262.701 206.203C263.013 206.365 263.256 206.605 263.43 206.923C263.604 207.241 263.691 207.625 263.691 208.075V211H262.674V208.228C262.674 207.784 262.563 207.445 262.341 207.211C262.119 206.971 261.816 206.851 261.432 206.851C261.048 206.851 260.742 206.971 260.514 207.211C260.292 207.445 260.181 207.784 260.181 208.228V211H259.155V206.041H260.181V206.608C260.349 206.404 260.562 206.245 260.82 206.131C261.084 206.017 261.363 205.96 261.657 205.96ZM264.658 208.498C264.658 208 264.76 207.559 264.964 207.175C265.174 206.791 265.456 206.494 265.81 206.284C266.17 206.068 266.566 205.96 266.998 205.96C267.388 205.96 267.727 206.038 268.015 206.194C268.309 206.344 268.543 206.533 268.717 206.761V206.041H269.752V211H268.717V210.262C268.543 210.496 268.306 210.691 268.006 210.847C267.706 211.003 267.364 211.081 266.98 211.081C266.554 211.081 266.164 210.973 265.81 210.757C265.456 210.535 265.174 210.229 264.964 209.839C264.76 209.443 264.658 208.996 264.658 208.498ZM268.717 208.516C268.717 208.174 268.645 207.877 268.501 207.625C268.363 207.373 268.18 207.181 267.952 207.049C267.724 206.917 267.478 206.851 267.214 206.851C266.95 206.851 266.704 206.917 266.476 207.049C266.248 207.175 266.062 207.364 265.918 207.616C265.78 207.862 265.711 208.156 265.711 208.498C265.711 208.84 265.78 209.14 265.918 209.398C266.062 209.656 266.248 209.854 266.476 209.992C266.71 210.124 266.956 210.19 267.214 210.19C267.478 210.19 267.724 210.124 267.952 209.992C268.18 209.86 268.363 209.668 268.501 209.416C268.645 209.158 268.717 208.858 268.717 208.516ZM272.126 204.34V211H271.1V204.34H272.126ZM277.89 206.878H276.972V211H275.937V206.878H275.352V206.041H275.937V205.69C275.937 205.12 276.087 204.706 276.387 204.448C276.693 204.184 277.17 204.052 277.818 204.052V204.907C277.506 204.907 277.287 204.967 277.161 205.087C277.035 205.201 276.972 205.402 276.972 205.69V206.041H277.89V206.878ZM279.321 205.384C279.135 205.384 278.979 205.321 278.853 205.195C278.727 205.069 278.664 204.913 278.664 204.727C278.664 204.541 278.727 204.385 278.853 204.259C278.979 204.133 279.135 204.07 279.321 204.07C279.501 204.07 279.654 204.133 279.78 204.259C279.906 204.385 279.969 204.541 279.969 204.727C279.969 204.913 279.906 205.069 279.78 205.195C279.654 205.321 279.501 205.384 279.321 205.384ZM279.825 206.041V211H278.799V206.041H279.825ZM282.198 204.34V211H281.172V204.34H282.198ZM288.09 208.399C288.09 208.585 288.078 208.753 288.054 208.903H284.265C284.295 209.299 284.442 209.617 284.706 209.857C284.97 210.097 285.294 210.217 285.678 210.217C286.23 210.217 286.62 209.986 286.848 209.524H287.955C287.805 209.98 287.532 210.355 287.136 210.649C286.746 210.937 286.26 211.081 285.678 211.081C285.204 211.081 284.778 210.976 284.4 210.766C284.028 210.55 283.734 210.25 283.518 209.866C283.308 209.476 283.203 209.026 283.203 208.516C283.203 208.006 283.305 207.559 283.509 207.175C283.719 206.785 284.01 206.485 284.382 206.275C284.76 206.065 285.192 205.96 285.678 205.96C286.146 205.96 286.563 206.062 286.929 206.266C287.295 206.47 287.58 206.758 287.784 207.13C287.988 207.496 288.09 207.919 288.09 208.399ZM287.019 208.075C287.013 207.697 286.878 207.394 286.614 207.166C286.35 206.938 286.023 206.824 285.633 206.824C285.279 206.824 284.976 206.938 284.724 207.166C284.472 207.388 284.322 207.691 284.274 208.075H287.019ZM290.9 211.081C290.51 211.081 290.159 211.012 289.847 210.874C289.541 210.73 289.298 210.538 289.118 210.298C288.938 210.052 288.842 209.779 288.83 209.479H289.892C289.91 209.689 290.009 209.866 290.189 210.01C290.375 210.148 290.606 210.217 290.882 210.217C291.17 210.217 291.392 210.163 291.548 210.055C291.71 209.941 291.791 209.797 291.791 209.623C291.791 209.437 291.701 209.299 291.521 209.209C291.347 209.119 291.068 209.02 290.684 208.912C290.312 208.81 290.009 208.711 289.775 208.615C289.541 208.519 289.337 208.372 289.163 208.174C288.995 207.976 288.911 207.715 288.911 207.391C288.911 207.127 288.989 206.887 289.145 206.671C289.301 206.449 289.523 206.275 289.811 206.149C290.105 206.023 290.441 205.96 290.819 205.96C291.383 205.96 291.836 206.104 292.178 206.392C292.526 206.674 292.712 207.061 292.736 207.553H291.71C291.692 207.331 291.602 207.154 291.44 207.022C291.278 206.89 291.059 206.824 290.783 206.824C290.513 206.824 290.306 206.875 290.162 206.977C290.018 207.079 289.946 207.214 289.946 207.382C289.946 207.514 289.994 207.625 290.09 207.715C290.186 207.805 290.303 207.877 290.441 207.931C290.579 207.979 290.783 208.042 291.053 208.12C291.413 208.216 291.707 208.315 291.935 208.417C292.169 208.513 292.37 208.657 292.538 208.849C292.706 209.041 292.793 209.296 292.799 209.614C292.799 209.896 292.721 210.148 292.565 210.37C292.409 210.592 292.187 210.766 291.899 210.892C291.617 211.018 291.284 211.081 290.9 211.081ZM302.905 206.041L301.366 211H300.286L299.287 207.337L298.288 211H297.208L295.66 206.041H296.704L297.739 210.028L298.792 206.041H299.863L300.871 210.01L301.897 206.041H302.905ZM304.194 205.384C304.008 205.384 303.852 205.321 303.726 205.195C303.6 205.069 303.537 204.913 303.537 204.727C303.537 204.541 303.6 204.385 303.726 204.259C303.852 204.133 304.008 204.07 304.194 204.07C304.374 204.07 304.527 204.133 304.653 204.259C304.779 204.385 304.842 204.541 304.842 204.727C304.842 204.913 304.779 205.069 304.653 205.195C304.527 205.321 304.374 205.384 304.194 205.384ZM304.698 206.041V211H303.672V206.041H304.698ZM307.071 204.34V211H306.045V204.34H307.071ZM309.444 204.34V211H308.418V204.34H309.444ZM314.155 206.779C314.329 206.539 314.566 206.344 314.866 206.194C315.172 206.038 315.511 205.96 315.883 205.96C316.321 205.96 316.717 206.065 317.071 206.275C317.425 206.485 317.704 206.785 317.908 207.175C318.112 207.559 318.214 208 318.214 208.498C318.214 208.996 318.112 209.443 317.908 209.839C317.704 210.229 317.422 210.535 317.062 210.757C316.708 210.973 316.315 211.081 315.883 211.081C315.499 211.081 315.157 211.006 314.857 210.856C314.563 210.706 314.329 210.514 314.155 210.28V211H313.129V204.34H314.155V206.779ZM317.17 208.498C317.17 208.156 317.098 207.862 316.954 207.616C316.816 207.364 316.63 207.175 316.396 207.049C316.168 206.917 315.922 206.851 315.658 206.851C315.4 206.851 315.154 206.917 314.92 207.049C314.692 207.181 314.506 207.373 314.362 207.625C314.224 207.877 314.155 208.174 314.155 208.516C314.155 208.858 314.224 209.158 314.362 209.416C314.506 209.668 314.692 209.86 314.92 209.992C315.154 210.124 315.4 210.19 315.658 210.19C315.922 210.19 316.168 210.124 316.396 209.992C316.63 209.854 316.816 209.656 316.954 209.398C317.098 209.14 317.17 208.84 317.17 208.498ZM323.774 208.399C323.774 208.585 323.762 208.753 323.738 208.903H319.949C319.979 209.299 320.126 209.617 320.39 209.857C320.654 210.097 320.978 210.217 321.362 210.217C321.914 210.217 322.304 209.986 322.532 209.524H323.639C323.489 209.98 323.216 210.355 322.82 210.649C322.43 210.937 321.944 211.081 321.362 211.081C320.888 211.081 320.462 210.976 320.084 210.766C319.712 210.55 319.418 210.25 319.202 209.866C318.992 209.476 318.887 209.026 318.887 208.516C318.887 208.006 318.989 207.559 319.193 207.175C319.403 206.785 319.694 206.485 320.066 206.275C320.444 206.065 320.876 205.96 321.362 205.96C321.83 205.96 322.247 206.062 322.613 206.266C322.979 206.47 323.264 206.758 323.468 207.13C323.672 207.496 323.774 207.919 323.774 208.399ZM322.703 208.075C322.697 207.697 322.562 207.394 322.298 207.166C322.034 206.938 321.707 206.824 321.317 206.824C320.963 206.824 320.66 206.938 320.408 207.166C320.156 207.388 320.006 207.691 319.958 208.075H322.703ZM210.333 224.516C210.333 224.006 210.435 223.559 210.639 223.175C210.849 222.785 211.137 222.485 211.503 222.275C211.869 222.065 212.289 221.96 212.763 221.96C213.363 221.96 213.858 222.104 214.248 222.392C214.644 222.674 214.911 223.079 215.049 223.607H213.942C213.852 223.361 213.708 223.169 213.51 223.031C213.312 222.893 213.063 222.824 212.763 222.824C212.343 222.824 212.007 222.974 211.755 223.274C211.509 223.568 211.386 223.982 211.386 224.516C211.386 225.05 211.509 225.467 211.755 225.767C212.007 226.067 212.343 226.217 212.763 226.217C213.357 226.217 213.75 225.956 213.942 225.434H215.049C214.905 225.938 214.635 226.34 214.239 226.64C213.843 226.934 213.351 227.081 212.763 227.081C212.289 227.081 211.869 226.976 211.503 226.766C211.137 226.55 210.849 226.25 210.639 225.866C210.435 225.476 210.333 225.026 210.333 224.516ZM218.222 227.081C217.754 227.081 217.331 226.976 216.953 226.766C216.575 226.55 216.278 226.25 216.062 225.866C215.846 225.476 215.738 225.026 215.738 224.516C215.738 224.012 215.849 223.565 216.071 223.175C216.293 222.785 216.596 222.485 216.98 222.275C217.364 222.065 217.793 221.96 218.267 221.96C218.741 221.96 219.17 222.065 219.554 222.275C219.938 222.485 220.241 222.785 220.463 223.175C220.685 223.565 220.796 224.012 220.796 224.516C220.796 225.02 220.682 225.467 220.454 225.857C220.226 226.247 219.914 226.55 219.518 226.766C219.128 226.976 218.696 227.081 218.222 227.081ZM218.222 226.19C218.486 226.19 218.732 226.127 218.96 226.001C219.194 225.875 219.383 225.686 219.527 225.434C219.671 225.182 219.743 224.876 219.743 224.516C219.743 224.156 219.674 223.853 219.536 223.607C219.398 223.355 219.215 223.166 218.987 223.04C218.759 222.914 218.513 222.851 218.249 222.851C217.985 222.851 217.739 222.914 217.511 223.04C217.289 223.166 217.112 223.355 216.98 223.607C216.848 223.853 216.782 224.156 216.782 224.516C216.782 225.05 216.917 225.464 217.187 225.758C217.463 226.046 217.808 226.19 218.222 226.19ZM224.313 221.96C224.703 221.96 225.051 222.041 225.357 222.203C225.669 222.365 225.912 222.605 226.086 222.923C226.26 223.241 226.347 223.625 226.347 224.075V227H225.33V224.228C225.33 223.784 225.219 223.445 224.997 223.211C224.775 222.971 224.472 222.851 224.088 222.851C223.704 222.851 223.398 222.971 223.17 223.211C222.948 223.445 222.837 223.784 222.837 224.228V227H221.811V222.041H222.837V222.608C223.005 222.404 223.218 222.245 223.476 222.131C223.74 222.017 224.019 221.96 224.313 221.96ZM229.455 227.081C229.065 227.081 228.714 227.012 228.402 226.874C228.096 226.73 227.853 226.538 227.673 226.298C227.493 226.052 227.397 225.779 227.385 225.479H228.447C228.465 225.689 228.564 225.866 228.744 226.01C228.93 226.148 229.161 226.217 229.437 226.217C229.725 226.217 229.947 226.163 230.103 226.055C230.265 225.941 230.346 225.797 230.346 225.623C230.346 225.437 230.256 225.299 230.076 225.209C229.902 225.119 229.623 225.02 229.239 224.912C228.867 224.81 228.564 224.711 228.33 224.615C228.096 224.519 227.892 224.372 227.718 224.174C227.55 223.976 227.466 223.715 227.466 223.391C227.466 223.127 227.544 222.887 227.7 222.671C227.856 222.449 228.078 222.275 228.366 222.149C228.66 222.023 228.996 221.96 229.374 221.96C229.938 221.96 230.391 222.104 230.733 222.392C231.081 222.674 231.267 223.061 231.291 223.553H230.265C230.247 223.331 230.157 223.154 229.995 223.022C229.833 222.89 229.614 222.824 229.338 222.824C229.068 222.824 228.861 222.875 228.717 222.977C228.573 223.079 228.501 223.214 228.501 223.382C228.501 223.514 228.549 223.625 228.645 223.715C228.741 223.805 228.858 223.877 228.996 223.931C229.134 223.979 229.338 224.042 229.608 224.12C229.968 224.216 230.262 224.315 230.49 224.417C230.724 224.513 230.925 224.657 231.093 224.849C231.261 225.041 231.348 225.296 231.354 225.614C231.354 225.896 231.276 226.148 231.12 226.37C230.964 226.592 230.742 226.766 230.454 226.892C230.172 227.018 229.839 227.081 229.455 227.081ZM237.008 224.399C237.008 224.585 236.996 224.753 236.972 224.903H233.183C233.213 225.299 233.36 225.617 233.624 225.857C233.888 226.097 234.212 226.217 234.596 226.217C235.148 226.217 235.538 225.986 235.766 225.524H236.873C236.723 225.98 236.45 226.355 236.054 226.649C235.664 226.937 235.178 227.081 234.596 227.081C234.122 227.081 233.696 226.976 233.318 226.766C232.946 226.55 232.652 226.25 232.436 225.866C232.226 225.476 232.121 225.026 232.121 224.516C232.121 224.006 232.223 223.559 232.427 223.175C232.637 222.785 232.928 222.485 233.3 222.275C233.678 222.065 234.11 221.96 234.596 221.96C235.064 221.96 235.481 222.062 235.847 222.266C236.213 222.47 236.498 222.758 236.702 223.13C236.906 223.496 237.008 223.919 237.008 224.399ZM235.937 224.075C235.931 223.697 235.796 223.394 235.532 223.166C235.268 222.938 234.941 222.824 234.551 222.824C234.197 222.824 233.894 222.938 233.642 223.166C233.39 223.388 233.24 223.691 233.192 224.075H235.937ZM239.044 222.761C239.194 222.509 239.392 222.314 239.638 222.176C239.89 222.032 240.187 221.96 240.529 221.96V223.022H240.268C239.866 223.022 239.56 223.124 239.35 223.328C239.146 223.532 239.044 223.886 239.044 224.39V227H238.018V222.041H239.044V222.761ZM243.389 226.082L244.793 222.041H245.882L243.992 227H242.768L240.887 222.041H241.985L243.389 226.082ZM251.202 224.399C251.202 224.585 251.19 224.753 251.166 224.903H247.377C247.407 225.299 247.554 225.617 247.818 225.857C248.082 226.097 248.406 226.217 248.79 226.217C249.342 226.217 249.732 225.986 249.96 225.524H251.067C250.917 225.98 250.644 226.355 250.248 226.649C249.858 226.937 249.372 227.081 248.79 227.081C248.316 227.081 247.89 226.976 247.512 226.766C247.14 226.55 246.846 226.25 246.63 225.866C246.42 225.476 246.315 225.026 246.315 224.516C246.315 224.006 246.417 223.559 246.621 223.175C246.831 222.785 247.122 222.485 247.494 222.275C247.872 222.065 248.304 221.96 248.79 221.96C249.258 221.96 249.675 222.062 250.041 222.266C250.407 222.47 250.692 222.758 250.896 223.13C251.1 223.496 251.202 223.919 251.202 224.399ZM250.131 224.075C250.125 223.697 249.99 223.394 249.726 223.166C249.462 222.938 249.135 222.824 248.745 222.824C248.391 222.824 248.088 222.938 247.836 223.166C247.584 223.388 247.434 223.691 247.386 224.075H250.131ZM251.87 224.498C251.87 224 251.972 223.559 252.176 223.175C252.386 222.791 252.668 222.494 253.022 222.284C253.382 222.068 253.781 221.96 254.219 221.96C254.543 221.96 254.861 222.032 255.173 222.176C255.491 222.314 255.743 222.5 255.929 222.734V220.34H256.964V227H255.929V226.253C255.761 226.493 255.527 226.691 255.227 226.847C254.933 227.003 254.594 227.081 254.21 227.081C253.778 227.081 253.382 226.973 253.022 226.757C252.668 226.535 252.386 226.229 252.176 225.839C251.972 225.443 251.87 224.996 251.87 224.498ZM255.929 224.516C255.929 224.174 255.857 223.877 255.713 223.625C255.575 223.373 255.392 223.181 255.164 223.049C254.936 222.917 254.69 222.851 254.426 222.851C254.162 222.851 253.916 222.917 253.688 223.049C253.46 223.175 253.274 223.364 253.13 223.616C252.992 223.862 252.923 224.156 252.923 224.498C252.923 224.84 252.992 225.14 253.13 225.398C253.274 225.656 253.46 225.854 253.688 225.992C253.922 226.124 254.168 226.19 254.426 226.19C254.69 226.19 254.936 226.124 255.164 225.992C255.392 225.86 255.575 225.668 255.713 225.416C255.857 225.158 255.929 224.858 255.929 224.516Z"></path>
<mask fill="white" id="path-9-inside-2_502_303">
<path d="M360 197C360 194.239 362.239 192 365 192H455C457.761 192 460 194.239 460 197V217C460 219.761 457.761 222 455 222H365C362.239 222 360 219.761 360 217V197Z"></path>
</mask>
<path fill-opacity="0.05" fill="white" d="M360 197C360 194.239 362.239 192 365 192H455C457.761 192 460 194.239 460 197V217C460 219.761 457.761 222 455 222H365C362.239 222 360 219.761 360 217V197Z"></path>
<path mask="url(#path-9-inside-2_502_303)" fill-opacity="0.05" fill="white" d="M360 197C360 193.686 362.686 191 366 191H454C457.314 191 460 193.686 460 197C460 194.791 457.761 193 455 193H365C362.239 193 360 194.791 360 197ZM460 222H360H460ZM360 222V192V222ZM460 192V222V192Z"></path>
<path fill="white" d="M375.625 211L373.865 207.942H372.908V211H371.654V203.355H374.294C374.88 203.355 375.375 203.458 375.779 203.663C376.189 203.868 376.494 204.143 376.692 204.488C376.897 204.833 377 205.218 377 205.643C377 206.142 376.853 206.596 376.56 207.007C376.274 207.41 375.83 207.685 375.229 207.832L377.121 211H375.625ZM372.908 206.941H374.294C374.763 206.941 375.115 206.824 375.35 206.589C375.592 206.354 375.713 206.039 375.713 205.643C375.713 205.247 375.595 204.939 375.361 204.719C375.126 204.492 374.77 204.378 374.294 204.378H372.908V206.941ZM384.159 207.821C384.159 208.048 384.144 208.254 384.115 208.437H379.484C379.52 208.921 379.7 209.31 380.023 209.603C380.345 209.896 380.741 210.043 381.211 210.043C381.885 210.043 382.362 209.761 382.641 209.196H383.994C383.81 209.753 383.477 210.212 382.993 210.571C382.516 210.923 381.922 211.099 381.211 211.099C380.631 211.099 380.111 210.971 379.649 210.714C379.194 210.45 378.835 210.083 378.571 209.614C378.314 209.137 378.186 208.587 378.186 207.964C378.186 207.341 378.31 206.794 378.56 206.325C378.816 205.848 379.172 205.482 379.627 205.225C380.089 204.968 380.617 204.84 381.211 204.84C381.783 204.84 382.292 204.965 382.74 205.214C383.187 205.463 383.535 205.815 383.785 206.27C384.034 206.717 384.159 207.234 384.159 207.821ZM382.85 207.425C382.842 206.963 382.677 206.593 382.355 206.314C382.032 206.035 381.632 205.896 381.156 205.896C380.723 205.896 380.353 206.035 380.045 206.314C379.737 206.585 379.553 206.956 379.495 207.425H382.85ZM387.593 211.099C387.116 211.099 386.687 211.015 386.306 210.846C385.932 210.67 385.635 210.435 385.415 210.142C385.195 209.841 385.078 209.508 385.063 209.141H386.361C386.383 209.398 386.504 209.614 386.724 209.79C386.951 209.959 387.234 210.043 387.571 210.043C387.923 210.043 388.194 209.977 388.385 209.845C388.583 209.706 388.682 209.53 388.682 209.317C388.682 209.09 388.572 208.921 388.352 208.811C388.139 208.701 387.798 208.58 387.329 208.448C386.874 208.323 386.504 208.202 386.218 208.085C385.932 207.968 385.683 207.788 385.47 207.546C385.265 207.304 385.162 206.985 385.162 206.589C385.162 206.266 385.257 205.973 385.448 205.709C385.639 205.438 385.91 205.225 386.262 205.071C386.621 204.917 387.032 204.84 387.494 204.84C388.183 204.84 388.737 205.016 389.155 205.368C389.58 205.713 389.808 206.186 389.837 206.787H388.583C388.561 206.516 388.451 206.299 388.253 206.138C388.055 205.977 387.787 205.896 387.45 205.896C387.12 205.896 386.867 205.958 386.691 206.083C386.515 206.208 386.427 206.373 386.427 206.578C386.427 206.739 386.486 206.875 386.603 206.985C386.72 207.095 386.863 207.183 387.032 207.249C387.201 207.308 387.45 207.385 387.78 207.48C388.22 207.597 388.579 207.718 388.858 207.843C389.144 207.96 389.39 208.136 389.595 208.371C389.8 208.606 389.907 208.917 389.914 209.306C389.914 209.651 389.819 209.959 389.628 210.23C389.437 210.501 389.166 210.714 388.814 210.868C388.469 211.022 388.062 211.099 387.593 211.099ZM396.824 207.821C396.824 208.048 396.809 208.254 396.78 208.437H392.149C392.186 208.921 392.365 209.31 392.688 209.603C393.011 209.896 393.407 210.043 393.876 210.043C394.551 210.043 395.027 209.761 395.306 209.196H396.659C396.476 209.753 396.142 210.212 395.658 210.571C395.181 210.923 394.587 211.099 393.876 211.099C393.297 211.099 392.776 210.971 392.314 210.714C391.859 210.45 391.5 210.083 391.236 209.614C390.979 209.137 390.851 208.587 390.851 207.964C390.851 207.341 390.976 206.794 391.225 206.325C391.482 205.848 391.837 205.482 392.292 205.225C392.754 204.968 393.282 204.84 393.876 204.84C394.448 204.84 394.958 204.965 395.405 205.214C395.852 205.463 396.201 205.815 396.45 206.27C396.699 206.717 396.824 207.234 396.824 207.821ZM395.515 207.425C395.508 206.963 395.343 206.593 395.02 206.314C394.697 206.035 394.298 205.896 393.821 205.896C393.388 205.896 393.018 206.035 392.71 206.314C392.402 206.585 392.219 206.956 392.16 207.425H395.515ZM399.521 205.962V209.317C399.521 209.544 399.572 209.709 399.675 209.812C399.785 209.907 399.968 209.955 400.225 209.955H400.995V211H400.005C399.44 211 399.008 210.868 398.707 210.604C398.406 210.34 398.256 209.911 398.256 209.317V205.962H397.541V204.939H398.256V203.432H399.521V204.939H400.995V205.962H399.521ZM407.527 211.077C407.014 211.077 406.552 210.989 406.141 210.813C405.73 210.63 405.408 210.373 405.173 210.043C404.938 209.713 404.821 209.328 404.821 208.888H406.163C406.192 209.218 406.321 209.489 406.548 209.702C406.783 209.915 407.109 210.021 407.527 210.021C407.96 210.021 408.297 209.918 408.539 209.713C408.781 209.5 408.902 209.229 408.902 208.899C408.902 208.642 408.825 208.433 408.671 208.272C408.524 208.111 408.337 207.986 408.11 207.898C407.89 207.81 407.582 207.715 407.186 207.612C406.687 207.48 406.28 207.348 405.965 207.216C405.657 207.077 405.393 206.864 405.173 206.578C404.953 206.292 404.843 205.911 404.843 205.434C404.843 204.994 404.953 204.609 405.173 204.279C405.393 203.949 405.701 203.696 406.097 203.52C406.493 203.344 406.951 203.256 407.472 203.256C408.213 203.256 408.818 203.443 409.287 203.817C409.764 204.184 410.028 204.69 410.079 205.335H408.693C408.671 205.056 408.539 204.818 408.297 204.62C408.055 204.422 407.736 204.323 407.34 204.323C406.981 204.323 406.687 204.415 406.46 204.598C406.233 204.781 406.119 205.045 406.119 205.39C406.119 205.625 406.189 205.819 406.328 205.973C406.475 206.12 406.658 206.237 406.878 206.325C407.098 206.413 407.399 206.508 407.78 206.611C408.286 206.75 408.697 206.89 409.012 207.029C409.335 207.168 409.606 207.385 409.826 207.678C410.053 207.964 410.167 208.349 410.167 208.833C410.167 209.222 410.061 209.588 409.848 209.933C409.643 210.278 409.338 210.556 408.935 210.769C408.539 210.974 408.07 211.077 407.527 211.077ZM417.202 207.821C417.202 208.048 417.187 208.254 417.158 208.437H412.527C412.563 208.921 412.743 209.31 413.066 209.603C413.388 209.896 413.784 210.043 414.254 210.043C414.928 210.043 415.405 209.761 415.684 209.196H417.037C416.853 209.753 416.52 210.212 416.036 210.571C415.559 210.923 414.965 211.099 414.254 211.099C413.674 211.099 413.154 210.971 412.692 210.714C412.237 210.45 411.878 210.083 411.614 209.614C411.357 209.137 411.229 208.587 411.229 207.964C411.229 207.341 411.353 206.794 411.603 206.325C411.859 205.848 412.215 205.482 412.67 205.225C413.132 204.968 413.66 204.84 414.254 204.84C414.826 204.84 415.335 204.965 415.783 205.214C416.23 205.463 416.578 205.815 416.828 206.27C417.077 206.717 417.202 207.234 417.202 207.821ZM415.893 207.425C415.885 206.963 415.72 206.593 415.398 206.314C415.075 206.035 414.675 205.896 414.199 205.896C413.766 205.896 413.396 206.035 413.088 206.314C412.78 206.585 412.596 206.956 412.538 207.425H415.893ZM419.899 205.962V209.317C419.899 209.544 419.95 209.709 420.053 209.812C420.163 209.907 420.346 209.955 420.603 209.955H421.373V211H420.383C419.818 211 419.386 210.868 419.085 210.604C418.784 210.34 418.634 209.911 418.634 209.317V205.962H417.919V204.939H418.634V203.432H419.899V204.939H421.373V205.962H419.899ZM423.992 205.962V209.317C423.992 209.544 424.043 209.709 424.146 209.812C424.256 209.907 424.439 209.955 424.696 209.955H425.466V211H424.476C423.911 211 423.478 210.868 423.178 210.604C422.877 210.34 422.727 209.911 422.727 209.317V205.962H422.012V204.939H422.727V203.432H423.992V204.939H425.466V205.962H423.992ZM427.259 204.136C427.032 204.136 426.841 204.059 426.687 203.905C426.533 203.751 426.456 203.56 426.456 203.333C426.456 203.106 426.533 202.915 426.687 202.761C426.841 202.607 427.032 202.53 427.259 202.53C427.479 202.53 427.666 202.607 427.82 202.761C427.974 202.915 428.051 203.106 428.051 203.333C428.051 203.56 427.974 203.751 427.82 203.905C427.666 204.059 427.479 204.136 427.259 204.136ZM427.875 204.939V211H426.621V204.939H427.875ZM432.58 204.84C433.056 204.84 433.482 204.939 433.856 205.137C434.237 205.335 434.534 205.628 434.747 206.017C434.959 206.406 435.066 206.875 435.066 207.425V211H433.823V207.612C433.823 207.069 433.687 206.655 433.416 206.369C433.144 206.076 432.774 205.929 432.305 205.929C431.835 205.929 431.461 206.076 431.183 206.369C430.911 206.655 430.776 207.069 430.776 207.612V211H429.522V204.939H430.776V205.632C430.981 205.383 431.241 205.188 431.557 205.049C431.879 204.91 432.22 204.84 432.58 204.84ZM439.107 204.84C439.577 204.84 439.991 204.935 440.35 205.126C440.717 205.309 441.003 205.54 441.208 205.819V204.939H442.473V211.099C442.473 211.656 442.356 212.151 442.121 212.584C441.887 213.024 441.546 213.369 441.098 213.618C440.658 213.867 440.13 213.992 439.514 213.992C438.693 213.992 438.011 213.798 437.468 213.409C436.926 213.028 436.618 212.507 436.544 211.847H437.787C437.883 212.162 438.084 212.415 438.392 212.606C438.708 212.804 439.082 212.903 439.514 212.903C440.02 212.903 440.427 212.749 440.735 212.441C441.051 212.133 441.208 211.686 441.208 211.099V210.087C440.996 210.373 440.706 210.615 440.339 210.813C439.98 211.004 439.569 211.099 439.107 211.099C438.579 211.099 438.095 210.967 437.655 210.703C437.223 210.432 436.878 210.058 436.621 209.581C436.372 209.097 436.247 208.551 436.247 207.942C436.247 207.333 436.372 206.794 436.621 206.325C436.878 205.856 437.223 205.493 437.655 205.236C438.095 204.972 438.579 204.84 439.107 204.84ZM441.208 207.964C441.208 207.546 441.12 207.183 440.944 206.875C440.776 206.567 440.552 206.332 440.273 206.171C439.995 206.01 439.694 205.929 439.371 205.929C439.049 205.929 438.748 206.01 438.469 206.171C438.191 206.325 437.963 206.556 437.787 206.864C437.619 207.165 437.534 207.524 437.534 207.942C437.534 208.36 437.619 208.727 437.787 209.042C437.963 209.357 438.191 209.599 438.469 209.768C438.755 209.929 439.056 210.01 439.371 210.01C439.694 210.01 439.995 209.929 440.273 209.768C440.552 209.607 440.776 209.372 440.944 209.064C441.12 208.749 441.208 208.382 441.208 207.964ZM446.32 211.099C445.844 211.099 445.415 211.015 445.033 210.846C444.659 210.67 444.362 210.435 444.142 210.142C443.922 209.841 443.805 209.508 443.79 209.141H445.088C445.11 209.398 445.231 209.614 445.451 209.79C445.679 209.959 445.961 210.043 446.298 210.043C446.65 210.043 446.922 209.977 447.112 209.845C447.31 209.706 447.409 209.53 447.409 209.317C447.409 209.09 447.299 208.921 447.079 208.811C446.867 208.701 446.526 208.58 446.056 208.448C445.602 208.323 445.231 208.202 444.945 208.085C444.659 207.968 444.41 207.788 444.197 207.546C443.992 207.304 443.889 206.985 443.889 206.589C443.889 206.266 443.985 205.973 444.175 205.709C444.366 205.438 444.637 205.225 444.989 205.071C445.349 204.917 445.759 204.84 446.221 204.84C446.911 204.84 447.464 205.016 447.882 205.368C448.308 205.713 448.535 206.186 448.564 206.787H447.31C447.288 206.516 447.178 206.299 446.98 206.138C446.782 205.977 446.515 205.896 446.177 205.896C445.847 205.896 445.594 205.958 445.418 206.083C445.242 206.208 445.154 206.373 445.154 206.578C445.154 206.739 445.213 206.875 445.33 206.985C445.448 207.095 445.591 207.183 445.759 207.249C445.928 207.308 446.177 207.385 446.507 207.48C446.947 207.597 447.307 207.718 447.585 207.843C447.871 207.96 448.117 208.136 448.322 208.371C448.528 208.606 448.634 208.917 448.641 209.306C448.641 209.651 448.546 209.959 448.355 210.23C448.165 210.501 447.893 210.714 447.541 210.868C447.197 211.022 446.79 211.099 446.32 211.099Z"></path>
</svg>
