<svg xmlns="http://www.w3.org/2000/svg" fill="none" viewBox="0 0 44 24" height="24" width="44">
<path fill-opacity="0.5" fill="#FF0000" d="M2 12C2 6.47715 6.47715 2 12 2H32C37.5228 2 42 6.47715 42 12V12C42 17.5228 37.5228 22 32 22H12C6.47715 22 2 17.5228 2 12V12Z"></path>
<path stroke-width="2" stroke-opacity="0.2" stroke="#FF0000" d="M32 1H12C5.92487 1 1 5.92487 1 12C1 18.0751 5.92487 23 12 23H32C38.0751 23 43 18.0751 43 12C43 5.92487 38.0751 1 32 1Z"></path>
<path fill="white" d="M14.8352 14.176V13.144L18.8672 7.36H20.5232V12.988H21.6392V14.176H20.5232V16H19.1792V14.176H14.8352ZM19.2392 8.752L16.4072 12.988H19.2392V8.752ZM28.4127 8.428H24.3927V10.816C24.5607 10.592 24.8087 10.404 25.1367 10.252C25.4727 10.1 25.8287 10.024 26.2047 10.024C26.8767 10.024 27.4207 10.168 27.8367 10.456C28.2607 10.744 28.5607 11.108 28.7367 11.548C28.9207 11.988 29.0127 12.452 29.0127 12.94C29.0127 13.532 28.8967 14.06 28.6647 14.524C28.4407 14.98 28.1007 15.34 27.6447 15.604C27.1967 15.868 26.6447 16 25.9887 16C25.1167 16 24.4167 15.784 23.8887 15.352C23.3607 14.92 23.0447 14.348 22.9407 13.636H24.2727C24.3607 14.012 24.5567 14.312 24.8607 14.536C25.1647 14.752 25.5447 14.86 26.0007 14.86C26.5687 14.86 26.9927 14.688 27.2727 14.344C27.5607 14 27.7047 13.544 27.7047 12.976C27.7047 12.4 27.5607 11.96 27.2727 11.656C26.9847 11.344 26.5607 11.188 26.0007 11.188C25.6087 11.188 25.2767 11.288 25.0047 11.488C24.7407 11.68 24.5487 11.944 24.4287 12.28H23.1327V7.228H28.4127V8.428Z"></path>
</svg>
