<svg xmlns="http://www.w3.org/2000/svg" fill="none" viewBox="0 0 100 80" height="80" width="100">
<rect fill-opacity="0.05" fill="black" rx="5" height="80" width="100"></rect>
<path fill="black" d="M14.4225 56.745V57.582H12.7575V63H11.7315V57.582H10.0575V56.745H14.4225ZM17.6126 63.081C17.1446 63.081 16.7216 62.976 16.3436 62.766C15.9656 62.55 15.6686 62.25 15.4526 61.866C15.2366 61.476 15.1286 61.026 15.1286 60.516C15.1286 60.012 15.2396 59.565 15.4616 59.175C15.6836 58.785 15.9866 58.485 16.3706 58.275C16.7546 58.065 17.1836 57.96 17.6576 57.96C18.1316 57.96 18.5606 58.065 18.9446 58.275C19.3286 58.485 19.6316 58.785 19.8536 59.175C20.0756 59.565 20.1866 60.012 20.1866 60.516C20.1866 61.02 20.0726 61.467 19.8446 61.857C19.6166 62.247 19.3046 62.55 18.9086 62.766C18.5186 62.976 18.0866 63.081 17.6126 63.081ZM17.6126 62.19C17.8766 62.19 18.1226 62.127 18.3506 62.001C18.5846 61.875 18.7736 61.686 18.9176 61.434C19.0616 61.182 19.1336 60.876 19.1336 60.516C19.1336 60.156 19.0646 59.853 18.9266 59.607C18.7886 59.355 18.6056 59.166 18.3776 59.04C18.1496 58.914 17.9036 58.851 17.6396 58.851C17.3756 58.851 17.1296 58.914 16.9016 59.04C16.6796 59.166 16.5026 59.355 16.3706 59.607C16.2386 59.853 16.1726 60.156 16.1726 60.516C16.1726 61.05 16.3076 61.464 16.5776 61.758C16.8536 62.046 17.1986 62.19 17.6126 62.19ZM27.2039 57.96C27.5939 57.96 27.9419 58.041 28.2479 58.203C28.5599 58.365 28.8029 58.605 28.9769 58.923C29.1569 59.241 29.2469 59.625 29.2469 60.075V63H28.2299V60.228C28.2299 59.784 28.1189 59.445 27.8969 59.211C27.6749 58.971 27.3719 58.851 26.9879 58.851C26.6039 58.851 26.2979 58.971 26.0699 59.211C25.8479 59.445 25.7369 59.784 25.7369 60.228V63H24.7199V60.228C24.7199 59.784 24.6089 59.445 24.3869 59.211C24.1649 58.971 23.8619 58.851 23.4779 58.851C23.0939 58.851 22.7879 58.971 22.5599 59.211C22.3379 59.445 22.2269 59.784 22.2269 60.228V63H21.2009V58.041H22.2269V58.608C22.3949 58.404 22.6079 58.245 22.8659 58.131C23.1239 58.017 23.3999 57.96 23.6939 57.96C24.0899 57.96 24.4439 58.044 24.7559 58.212C25.0679 58.38 25.3079 58.623 25.4759 58.941C25.6259 58.641 25.8599 58.404 26.1779 58.23C26.4959 58.05 26.8379 57.96 27.2039 57.96ZM31.5784 58.779C31.7524 58.539 31.9894 58.344 32.2894 58.194C32.5954 58.038 32.9344 57.96 33.3064 57.96C33.7444 57.96 34.1404 58.065 34.4944 58.275C34.8484 58.485 35.1274 58.785 35.3314 59.175C35.5354 59.559 35.6374 60 35.6374 60.498C35.6374 60.996 35.5354 61.443 35.3314 61.839C35.1274 62.229 34.8454 62.535 34.4854 62.757C34.1314 62.973 33.7384 63.081 33.3064 63.081C32.9224 63.081 32.5804 63.006 32.2804 62.856C31.9864 62.706 31.7524 62.514 31.5784 62.28V63H30.5524V56.34H31.5784V58.779ZM34.5934 60.498C34.5934 60.156 34.5214 59.862 34.3774 59.616C34.2394 59.364 34.0534 59.175 33.8194 59.049C33.5914 58.917 33.3454 58.851 33.0814 58.851C32.8234 58.851 32.5774 58.917 32.3434 59.049C32.1154 59.181 31.9294 59.373 31.7854 59.625C31.6474 59.877 31.5784 60.174 31.5784 60.516C31.5784 60.858 31.6474 61.158 31.7854 61.416C31.9294 61.668 32.1154 61.86 32.3434 61.992C32.5774 62.124 32.8234 62.19 33.0814 62.19C33.3454 62.19 33.5914 62.124 33.8194 61.992C34.0534 61.854 34.2394 61.656 34.3774 61.398C34.5214 61.14 34.5934 60.84 34.5934 60.498ZM41.1409 63.081C40.6729 63.081 40.2499 62.976 39.8719 62.766C39.4939 62.55 39.1969 62.25 38.9809 61.866C38.7649 61.476 38.6569 61.026 38.6569 60.516C38.6569 60.012 38.7679 59.565 38.9899 59.175C39.2119 58.785 39.5149 58.485 39.8989 58.275C40.2829 58.065 40.7119 57.96 41.1859 57.96C41.6599 57.96 42.0889 58.065 42.4729 58.275C42.8569 58.485 43.1599 58.785 43.3819 59.175C43.6039 59.565 43.7149 60.012 43.7149 60.516C43.7149 61.02 43.6009 61.467 43.3729 61.857C43.1449 62.247 42.8329 62.55 42.4369 62.766C42.0469 62.976 41.6149 63.081 41.1409 63.081ZM41.1409 62.19C41.4049 62.19 41.6509 62.127 41.8789 62.001C42.1129 61.875 42.3019 61.686 42.4459 61.434C42.5899 61.182 42.6619 60.876 42.6619 60.516C42.6619 60.156 42.5929 59.853 42.4549 59.607C42.3169 59.355 42.1339 59.166 41.9059 59.04C41.6779 58.914 41.4319 58.851 41.1679 58.851C40.9039 58.851 40.6579 58.914 40.4299 59.04C40.2079 59.166 40.0309 59.355 39.8989 59.607C39.7669 59.853 39.7009 60.156 39.7009 60.516C39.7009 61.05 39.8359 61.464 40.1059 61.758C40.3819 62.046 40.7269 62.19 41.1409 62.19ZM46.8082 58.878H45.8902V63H44.8552V58.878H44.2702V58.041H44.8552V57.69C44.8552 57.12 45.0052 56.706 45.3052 56.448C45.6112 56.184 46.0882 56.052 46.7362 56.052V56.907C46.4242 56.907 46.2052 56.967 46.0792 57.087C45.9532 57.201 45.8902 57.402 45.8902 57.69V58.041H46.8082V58.878ZM51.2524 58.878V61.623C51.2524 61.809 51.2944 61.944 51.3784 62.028C51.4684 62.106 51.6184 62.145 51.8284 62.145H52.4584V63H51.6484C51.1864 63 50.8324 62.892 50.5864 62.676C50.3404 62.46 50.2174 62.109 50.2174 61.623V58.878H49.6324V58.041H50.2174V56.808H51.2524V58.041H52.4584V58.878H51.2524ZM55.969 57.96C56.347 57.96 56.683 58.041 56.977 58.203C57.277 58.365 57.511 58.605 57.679 58.923C57.853 59.241 57.94 59.625 57.94 60.075V63H56.923V60.228C56.923 59.784 56.812 59.445 56.59 59.211C56.368 58.971 56.065 58.851 55.681 58.851C55.297 58.851 54.991 58.971 54.763 59.211C54.541 59.445 54.43 59.784 54.43 60.228V63H53.404V56.34H54.43V58.617C54.604 58.407 54.823 58.245 55.087 58.131C55.357 58.017 55.651 57.96 55.969 57.96ZM63.7937 60.399C63.7937 60.585 63.7817 60.753 63.7577 60.903H59.9687C59.9987 61.299 60.1457 61.617 60.4097 61.857C60.6737 62.097 60.9977 62.217 61.3817 62.217C61.9337 62.217 62.3237 61.986 62.5517 61.524H63.6587C63.5087 61.98 63.2357 62.355 62.8397 62.649C62.4497 62.937 61.9637 63.081 61.3817 63.081C60.9077 63.081 60.4817 62.976 60.1037 62.766C59.7317 62.55 59.4377 62.25 59.2217 61.866C59.0117 61.476 58.9067 61.026 58.9067 60.516C58.9067 60.006 59.0087 59.559 59.2127 59.175C59.4227 58.785 59.7137 58.485 60.0857 58.275C60.4637 58.065 60.8957 57.96 61.3817 57.96C61.8497 57.96 62.2667 58.062 62.6327 58.266C62.9987 58.47 63.2837 58.758 63.4877 59.13C63.6917 59.496 63.7937 59.919 63.7937 60.399ZM62.7227 60.075C62.7167 59.697 62.5817 59.394 62.3177 59.166C62.0537 58.938 61.7267 58.824 61.3367 58.824C60.9827 58.824 60.6797 58.938 60.4277 59.166C60.1757 59.388 60.0257 59.691 59.9777 60.075H62.7227ZM73.7293 56.745V63H72.7033V58.716L70.7953 63H70.0843L68.1673 58.716V63H67.1413V56.745H68.2483L70.4443 61.65L72.6313 56.745H73.7293ZM74.7358 60.498C74.7358 60 74.8378 59.559 75.0418 59.175C75.2518 58.791 75.5338 58.494 75.8878 58.284C76.2478 58.068 76.6438 57.96 77.0758 57.96C77.4658 57.96 77.8048 58.038 78.0928 58.194C78.3868 58.344 78.6208 58.533 78.7948 58.761V58.041H79.8298V63H78.7948V62.262C78.6208 62.496 78.3838 62.691 78.0838 62.847C77.7838 63.003 77.4418 63.081 77.0578 63.081C76.6318 63.081 76.2418 62.973 75.8878 62.757C75.5338 62.535 75.2518 62.229 75.0418 61.839C74.8378 61.443 74.7358 60.996 74.7358 60.498ZM78.7948 60.516C78.7948 60.174 78.7228 59.877 78.5788 59.625C78.4408 59.373 78.2578 59.181 78.0298 59.049C77.8018 58.917 77.5558 58.851 77.2918 58.851C77.0278 58.851 76.7818 58.917 76.5538 59.049C76.3258 59.175 76.1398 59.364 75.9958 59.616C75.8578 59.862 75.7888 60.156 75.7888 60.498C75.7888 60.84 75.8578 61.14 75.9958 61.398C76.1398 61.656 76.3258 61.854 76.5538 61.992C76.7878 62.124 77.0338 62.19 77.2918 62.19C77.5558 62.19 77.8018 62.124 78.0298 61.992C78.2578 61.86 78.4408 61.668 78.5788 61.416C78.7228 61.158 78.7948 60.858 78.7948 60.516ZM82.9774 63.081C82.5874 63.081 82.2364 63.012 81.9244 62.874C81.6184 62.73 81.3754 62.538 81.1954 62.298C81.0154 62.052 80.9194 61.779 80.9074 61.479H81.9694C81.9874 61.689 82.0864 61.866 82.2664 62.01C82.4524 62.148 82.6834 62.217 82.9594 62.217C83.2474 62.217 83.4694 62.163 83.6254 62.055C83.7874 61.941 83.8684 61.797 83.8684 61.623C83.8684 61.437 83.7784 61.299 83.5984 61.209C83.4244 61.119 83.1454 61.02 82.7614 60.912C82.3894 60.81 82.0864 60.711 81.8524 60.615C81.6184 60.519 81.4144 60.372 81.2404 60.174C81.0724 59.976 80.9884 59.715 80.9884 59.391C80.9884 59.127 81.0664 58.887 81.2224 58.671C81.3784 58.449 81.6004 58.275 81.8884 58.149C82.1824 58.023 82.5184 57.96 82.8964 57.96C83.4604 57.96 83.9134 58.104 84.2554 58.392C84.6034 58.674 84.7894 59.061 84.8134 59.553H83.7874C83.7694 59.331 83.6794 59.154 83.5174 59.022C83.3554 58.89 83.1364 58.824 82.8604 58.824C82.5904 58.824 82.3834 58.875 82.2394 58.977C82.0954 59.079 82.0234 59.214 82.0234 59.382C82.0234 59.514 82.0714 59.625 82.1674 59.715C82.2634 59.805 82.3804 59.877 82.5184 59.931C82.6564 59.979 82.8604 60.042 83.1304 60.12C83.4904 60.216 83.7844 60.315 84.0124 60.417C84.2464 60.513 84.4474 60.657 84.6154 60.849C84.7834 61.041 84.8704 61.296 84.8764 61.614C84.8764 61.896 84.7984 62.148 84.6424 62.37C84.4864 62.592 84.2644 62.766 83.9764 62.892C83.6944 63.018 83.3614 63.081 82.9774 63.081ZM87.9471 60.525L90.2331 63H88.8471L87.0111 60.867V63H85.9851V56.34H87.0111V60.21L88.8111 58.041H90.2331L87.9471 60.525Z"></path>
<path fill="black" d="M44 20C44.5523 20 45 19.5523 45 19V19C45 18.4477 45.4477 18 46 18H60C60.5523 18 61 18.4477 61 19V31C61 31.5523 60.5523 32 60 32V32C59.4477 32 59 32.4477 59 33V41C59 41.5523 58.5523 42 58 42H42C41.4477 42 41 41.5523 41 41V39C41 38.4477 40.5523 38 40 38V38C39.4477 38 39 37.5523 39 37V31C39 30.4477 39.4477 30 40 30V30C40.5523 30 41 29.5523 41 29V21C41 20.4477 41.4477 20 42 20H44Z"></path>
<path fill="#FFFF00" d="M42 22C42 21.4477 42.4477 21 43 21H45C45.5523 21 46 20.5523 46 20V20C46 19.4477 46.4477 19 47 19H59C59.5523 19 60 19.4477 60 20V30C60 30.5523 59.5523 31 59 31V31C58.4477 31 58 31.4477 58 32V32C58 32.5523 57.5523 33 57 33H49C48.4477 33 48 32.5523 48 32V32C48 31.4477 47.5523 31 47 31H46V35H57C57.5523 35 58 35.4477 58 36V40C58 40.5523 57.5523 41 57 41H55C54.4477 41 54 40.5523 54 40V38C54 37.4477 53.5523 37 53 37V37C52.4477 37 52 37.4477 52 38V40C52 40.5523 51.5523 41 51 41H47C46.4477 41 46 40.5523 46 40V35H45C44.4477 35 44 35.4477 44 36V40C44 40.5523 43.5523 41 43 41V41C42.4477 41 42 40.5523 42 40V38C42 37.4477 41.5523 37 41 37V37C40.4477 37 40 36.5523 40 36V32C40 31.4477 40.4477 31 41 31V31C41.5523 31 42 30.5523 42 30V30C42 29.4477 42.4477 29 43 29V29C43.5523 29 44 29.4477 44 30V30C44 30.5523 44.4477 31 45 31H46V28C46 27.4477 45.5523 27 45 27H43C42.4477 27 42 26.5523 42 26V26C42 25.4477 42.4477 25 43 25H45C45.5523 25 46 24.5523 46 24V24C46 23.4477 45.5523 23 45 23H43C42.4477 23 42 22.5523 42 22V22Z"></path>
<path fill="black" d="M50 30C50 29.4477 50.4477 29 51 29H55C55.5523 29 56 29.4477 56 30V30C56 30.5523 55.5523 31 55 31H51C50.4477 31 50 30.5523 50 30V30Z"></path>
<path fill="black" d="M50 24C50 23.4477 50.4477 23 51 23V23C51.5523 23 52 23.4477 52 24V26C52 26.5523 51.5523 27 51 27V27C50.4477 27 50 26.5523 50 26V24Z"></path>
<path fill="black" d="M56 24C56 23.4477 56.4477 23 57 23V23C57.5523 23 58 23.4477 58 24V26C58 26.5523 57.5523 27 57 27V27C56.4477 27 56 26.5523 56 26V24Z"></path>
</svg>
