<svg xmlns="http://www.w3.org/2000/svg" fill="none" viewBox="0 0 480 360" height="360" width="480">
<path fill="#0076B3" d="M340 179C340 176.239 342.239 174 345 174H421C423.761 174 426 176.239 426 179V201C426 203.761 423.761 206 421 206H345C342.239 206 340 203.761 340 201V179Z"></path>
<path fill="white" d="M377.521 188.632C377.521 189.021 377.429 189.387 377.246 189.732C377.063 190.077 376.769 190.359 376.366 190.579C375.963 190.792 375.446 190.898 374.815 190.898H373.429V194H372.175V186.355H374.815C375.402 186.355 375.897 186.458 376.3 186.663C376.711 186.861 377.015 187.132 377.213 187.477C377.418 187.822 377.521 188.207 377.521 188.632ZM374.815 189.875C375.292 189.875 375.647 189.769 375.882 189.556C376.117 189.336 376.234 189.028 376.234 188.632C376.234 187.796 375.761 187.378 374.815 187.378H373.429V189.875H374.815ZM379.971 185.86V194H378.717V185.86H379.971ZM381.199 190.942C381.199 190.333 381.324 189.794 381.573 189.325C381.83 188.856 382.175 188.493 382.607 188.236C383.047 187.972 383.531 187.84 384.059 187.84C384.536 187.84 384.95 187.935 385.302 188.126C385.662 188.309 385.948 188.54 386.16 188.819V187.939H387.425V194H386.16V193.098C385.948 193.384 385.658 193.622 385.291 193.813C384.925 194.004 384.507 194.099 384.037 194.099C383.517 194.099 383.04 193.967 382.607 193.703C382.175 193.432 381.83 193.058 381.573 192.581C381.324 192.097 381.199 191.551 381.199 190.942ZM386.16 190.964C386.16 190.546 386.072 190.183 385.896 189.875C385.728 189.567 385.504 189.332 385.225 189.171C384.947 189.01 384.646 188.929 384.323 188.929C384.001 188.929 383.7 189.01 383.421 189.171C383.143 189.325 382.915 189.556 382.739 189.864C382.571 190.165 382.486 190.524 382.486 190.942C382.486 191.36 382.571 191.727 382.739 192.042C382.915 192.357 383.143 192.599 383.421 192.768C383.707 192.929 384.008 193.01 384.323 193.01C384.646 193.01 384.947 192.929 385.225 192.768C385.504 192.607 385.728 192.372 385.896 192.064C386.072 191.749 386.16 191.382 386.16 190.964ZM394.529 187.939L390.811 196.849H389.513L390.745 193.901L388.358 187.939H389.755L391.46 192.559L393.231 187.939H394.529Z"></path>
<path fill-opacity="0.05" fill="black" d="M428 179C428 176.239 430.239 174 433 174H455C457.761 174 460 176.239 460 179V201C460 203.761 457.761 206 455 206H433C430.239 206 428 203.761 428 201V179Z"></path>
<path stroke-linejoin="round" stroke-linecap="round" stroke="#333333" d="M437.5 184.5H438.5M450.5 184.5H449.5M449.5 184.5L448.642 195.653C448.562 196.695 447.693 197.5 446.648 197.5H441.352C440.307 197.5 439.438 196.695 439.358 195.653L438.5 184.5M449.5 184.5H438.5M445.5 184V184C445.5 183.172 444.828 182.5 444 182.5V182.5C443.172 182.5 442.5 183.172 442.5 184V184M445.5 193.5V188.5M442.5 193.5V188.5"></path>
</svg>
