<svg xmlns="http://www.w3.org/2000/svg" fill="none" viewBox="0 0 90 90" height="90" width="90">
<rect fill="url(#paint0_linear_310_181)" rx="2" height="24" width="18" y="33" x="36"></rect>
<rect fill="#CAD2D9" rx="0.5" height="4" width="4" y="41" x="38"></rect>
<rect fill="#CAD2D9" rx="0.5" height="4" width="4" y="46" x="38"></rect>
<rect fill="#CAD2D9" rx="0.5" height="4" width="4" y="51" x="38"></rect>
<rect fill="#CAD2D9" rx="0.5" height="4" width="4" y="51" x="43"></rect>
<rect fill="#CAD2D9" rx="0.5" height="4" width="4" y="46" x="43"></rect>
<rect fill="#CAD2D9" rx="0.5" height="4" width="4" y="41" x="43"></rect>
<rect fill="#CAD2D9" rx="0.5" height="4" width="4" y="41" x="48"></rect>
<rect fill="url(#paint1_linear_310_181)" rx="0.5" height="9" width="4" y="46" x="48"></rect>
<rect fill="#6A6A6A" rx="0.5" height="4" width="14" y="36" x="38"></rect>
<rect fill="url(#paint2_linear_310_181)" rx="0.5" height="4" width="14" y="35" x="38"></rect>
<defs>
<linearGradient gradientUnits="userSpaceOnUse" y2="57" x2="51" y1="33" x1="39" id="paint0_linear_310_181">
<stop stop-color="#8A9198"></stop>
<stop stop-color="#65717C" offset="1"></stop>
</linearGradient>
<linearGradient gradientUnits="userSpaceOnUse" y2="55" x2="52" y1="46" x1="48" id="paint1_linear_310_181">
<stop stop-color="#174D8B"></stop>
<stop stop-color="#1B4077" offset="1"></stop>
</linearGradient>
<linearGradient gradientUnits="userSpaceOnUse" y2="39.7749" x2="38.2695" y1="35" x1="38" id="paint2_linear_310_181">
<stop stop-color="#50E6FF"></stop>
<stop stop-color="#31BCEF" offset="1"></stop>
</linearGradient>
</defs>
</svg>
