<svg xmlns="http://www.w3.org/2000/svg" fill="none" viewBox="0 0 480 360" height="360" width="480">
<rect fill-opacity="0.05" fill="white" rx="5" height="30" width="30" y="215" x="170"></rect>
<path stroke-linejoin="round" stroke-linecap="round" stroke-width="0.875" stroke="white" d="M188.938 225.188H182.812C180.396 225.188 178.438 227.146 178.438 229.562V230.425C178.438 231.289 178.693 232.134 179.172 232.852L179.312 233.062M188.938 225.188L187.188 223.438M188.938 225.188L187.188 226.938M190.688 226.938L190.828 227.148C191.307 227.866 191.562 228.711 191.562 229.575V230.438C191.562 232.854 189.604 234.812 187.188 234.812H181.062M181.062 234.812L182.812 236.562M181.062 234.812L182.812 233.062"></path>
<path stroke-linecap="round" stroke-width="0.875" stroke="white" d="M178.438 223.438L191.562 236.562"></path>
</svg>
