<svg xmlns="http://www.w3.org/2000/svg" fill="none" viewBox="0 0 480 90" height="90" width="480">
<path fill-opacity="0.9" fill="#E6E6E6" d="M10 30C10 24.4772 14.4772 20 20 20H460C465.523 20 470 24.4772 470 30V60C470 65.5228 465.523 70 460 70H20C14.4772 70 10 65.5228 10 60V30Z"></path>
<path stroke-width="2" stroke-opacity="0.2" stroke="black" d="M460 19H20C13.9249 19 9 23.9249 9 30V60C9 66.0751 13.9249 71 20 71H460C466.075 71 471 66.0751 471 60V30C471 23.9249 466.075 19 460 19Z"></path>
<path fill="black" d="M30.407 45.161C30.407 44.413 30.5793 43.742 30.924 43.148C31.276 42.554 31.749 42.092 32.343 41.762C32.9443 41.4247 33.6007 41.256 34.312 41.256C35.126 41.256 35.8483 41.4577 36.479 41.861C37.117 42.257 37.579 42.8217 37.865 43.555H36.358C36.16 43.1517 35.885 42.851 35.533 42.653C35.181 42.455 34.774 42.356 34.312 42.356C33.806 42.356 33.355 42.4697 32.959 42.697C32.563 42.9243 32.2513 43.2507 32.024 43.676C31.804 44.1013 31.694 44.5963 31.694 45.161C31.694 45.7257 31.804 46.2207 32.024 46.646C32.2513 47.0713 32.563 47.4013 32.959 47.636C33.355 47.8633 33.806 47.977 34.312 47.977C34.774 47.977 35.181 47.878 35.533 47.68C35.885 47.482 36.16 47.1813 36.358 46.778H37.865C37.579 47.5113 37.117 48.076 36.479 48.472C35.8483 48.868 35.126 49.066 34.312 49.066C33.5933 49.066 32.937 48.901 32.343 48.571C31.749 48.2337 31.276 47.768 30.924 47.174C30.5793 46.58 30.407 45.909 30.407 45.161ZM40.5868 43.819C40.7701 43.511 41.0121 43.2727 41.3128 43.104C41.6208 42.928 41.9838 42.84 42.4018 42.84V44.138H42.0828C41.5915 44.138 41.2175 44.2627 40.9608 44.512C40.7115 44.7613 40.5868 45.194 40.5868 45.81V49H39.3328V42.939H40.5868V43.819ZM49.1095 45.821C49.1095 46.0483 49.0948 46.2537 49.0655 46.437H44.4345C44.4712 46.921 44.6508 47.3097 44.9735 47.603C45.2962 47.8963 45.6922 48.043 46.1615 48.043C46.8362 48.043 47.3128 47.7607 47.5915 47.196H48.9445C48.7612 47.7533 48.4275 48.2117 47.9435 48.571C47.4668 48.923 46.8728 49.099 46.1615 49.099C45.5822 49.099 45.0615 48.9707 44.5995 48.714C44.1448 48.45 43.7855 48.0833 43.5215 47.614C43.2648 47.1373 43.1365 46.5873 43.1365 45.964C43.1365 45.3407 43.2612 44.7943 43.5105 44.325C43.7672 43.8483 44.1228 43.4817 44.5775 43.225C45.0395 42.9683 45.5675 42.84 46.1615 42.84C46.7335 42.84 47.2432 42.9647 47.6905 43.214C48.1378 43.4633 48.4862 43.8153 48.7355 44.27C48.9848 44.7173 49.1095 45.2343 49.1095 45.821ZM47.8005 45.425C47.7932 44.963 47.6282 44.5927 47.3055 44.314C46.9828 44.0353 46.5832 43.896 46.1065 43.896C45.6738 43.896 45.3035 44.0353 44.9955 44.314C44.6875 44.5853 44.5042 44.9557 44.4455 45.425H47.8005ZM49.9256 45.942C49.9256 45.3333 50.0502 44.7943 50.2996 44.325C50.5562 43.8557 50.9009 43.4927 51.3336 43.236C51.7736 42.972 52.2576 42.84 52.7856 42.84C53.2622 42.84 53.6766 42.9353 54.0286 43.126C54.3879 43.3093 54.6739 43.5403 54.8866 43.819V42.939H56.1516V49H54.8866V48.098C54.6739 48.384 54.3842 48.6223 54.0176 48.813C53.6509 49.0037 53.2329 49.099 52.7636 49.099C52.2429 49.099 51.7662 48.967 51.3336 48.703C50.9009 48.4317 50.5562 48.0577 50.2996 47.581C50.0502 47.097 49.9256 46.5507 49.9256 45.942ZM54.8866 45.964C54.8866 45.546 54.7986 45.183 54.6226 44.875C54.4539 44.567 54.2302 44.3323 53.9516 44.171C53.6729 44.0097 53.3722 43.929 53.0496 43.929C52.7269 43.929 52.4262 44.0097 52.1476 44.171C51.8689 44.325 51.6416 44.556 51.4656 44.864C51.2969 45.1647 51.2126 45.524 51.2126 45.942C51.2126 46.36 51.2969 46.7267 51.4656 47.042C51.6416 47.3573 51.8689 47.5993 52.1476 47.768C52.4336 47.9293 52.7342 48.01 53.0496 48.01C53.3722 48.01 53.6729 47.9293 53.9516 47.768C54.2302 47.6067 54.4539 47.372 54.6226 47.064C54.7986 46.7487 54.8866 46.382 54.8866 45.964ZM59.2616 43.962V47.317C59.2616 47.5443 59.313 47.7093 59.4156 47.812C59.5256 47.9073 59.709 47.955 59.9656 47.955H60.7356V49H59.7456C59.181 49 58.7483 48.868 58.4476 48.604C58.147 48.34 57.9966 47.911 57.9966 47.317V43.962H57.2816V42.939H57.9966V41.432H59.2616V42.939H60.7356V43.962H59.2616ZM67.4464 45.821C67.4464 46.0483 67.4317 46.2537 67.4024 46.437H62.7714C62.8081 46.921 62.9877 47.3097 63.3104 47.603C63.6331 47.8963 64.0291 48.043 64.4984 48.043C65.1731 48.043 65.6497 47.7607 65.9284 47.196H67.2814C67.0981 47.7533 66.7644 48.2117 66.2804 48.571C65.8037 48.923 65.2097 49.099 64.4984 49.099C63.9191 49.099 63.3984 48.9707 62.9364 48.714C62.4817 48.45 62.1224 48.0833 61.8584 47.614C61.6017 47.1373 61.4734 46.5873 61.4734 45.964C61.4734 45.3407 61.5981 44.7943 61.8474 44.325C62.1041 43.8483 62.4597 43.4817 62.9144 43.225C63.3764 42.9683 63.9044 42.84 64.4984 42.84C65.0704 42.84 65.5801 42.9647 66.0274 43.214C66.4747 43.4633 66.8231 43.8153 67.0724 44.27C67.3217 44.7173 67.4464 45.2343 67.4464 45.821ZM66.1374 45.425C66.1301 44.963 65.9651 44.5927 65.6424 44.314C65.3197 44.0353 64.9201 43.896 64.4434 43.896C64.0107 43.896 63.6404 44.0353 63.3324 44.314C63.0244 44.5853 62.8411 44.9557 62.7824 45.425H66.1374ZM71.1199 45.942C71.1199 45.3333 71.2446 44.7943 71.4939 44.325C71.7506 43.8557 72.0952 43.4927 72.5279 43.236C72.9679 42.972 73.4519 42.84 73.9799 42.84C74.4566 42.84 74.8709 42.9353 75.2229 43.126C75.5822 43.3093 75.8682 43.5403 76.0809 43.819V42.939H77.3459V49H76.0809V48.098C75.8682 48.384 75.5786 48.6223 75.2119 48.813C74.8452 49.0037 74.4272 49.099 73.9579 49.099C73.4372 49.099 72.9606 48.967 72.5279 48.703C72.0952 48.4317 71.7506 48.0577 71.4939 47.581C71.2446 47.097 71.1199 46.5507 71.1199 45.942ZM76.0809 45.964C76.0809 45.546 75.9929 45.183 75.8169 44.875C75.6482 44.567 75.4246 44.3323 75.1459 44.171C74.8672 44.0097 74.5666 43.929 74.2439 43.929C73.9212 43.929 73.6206 44.0097 73.3419 44.171C73.0632 44.325 72.8359 44.556 72.6599 44.864C72.4912 45.1647 72.4069 45.524 72.4069 45.942C72.4069 46.36 72.4912 46.7267 72.6599 47.042C72.8359 47.3573 73.0632 47.5993 73.3419 47.768C73.6279 47.9293 73.9286 48.01 74.2439 48.01C74.5666 48.01 74.8672 47.9293 75.1459 47.768C75.4246 47.6067 75.6482 47.372 75.8169 47.064C75.9929 46.7487 76.0809 46.382 76.0809 45.964ZM84.9084 42.84C85.3851 42.84 85.8104 42.939 86.1844 43.137C86.5657 43.335 86.8627 43.6283 87.0754 44.017C87.2881 44.4057 87.3944 44.875 87.3944 45.425V49H86.1514V45.612C86.1514 45.0693 86.0157 44.655 85.7444 44.369C85.4731 44.0757 85.1027 43.929 84.6334 43.929C84.1641 43.929 83.7901 44.0757 83.5114 44.369C83.2401 44.655 83.1044 45.0693 83.1044 45.612V49H81.8504V42.939H83.1044V43.632C83.3097 43.3827 83.5701 43.1883 83.8854 43.049C84.2081 42.9097 84.5491 42.84 84.9084 42.84ZM94.5489 45.821C94.5489 46.0483 94.5343 46.2537 94.5049 46.437H89.8739C89.9106 46.921 90.0903 47.3097 90.4129 47.603C90.7356 47.8963 91.1316 48.043 91.6009 48.043C92.2756 48.043 92.7523 47.7607 93.0309 47.196H94.3839C94.2006 47.7533 93.8669 48.2117 93.3829 48.571C92.9063 48.923 92.3123 49.099 91.6009 49.099C91.0216 49.099 90.5009 48.9707 90.0389 48.714C89.5843 48.45 89.2249 48.0833 88.9609 47.614C88.7043 47.1373 88.5759 46.5873 88.5759 45.964C88.5759 45.3407 88.7006 44.7943 88.9499 44.325C89.2066 43.8483 89.5623 43.4817 90.0169 43.225C90.4789 42.9683 91.0069 42.84 91.6009 42.84C92.1729 42.84 92.6826 42.9647 93.1299 43.214C93.5773 43.4633 93.9256 43.8153 94.1749 44.27C94.4243 44.7173 94.5489 45.2343 94.5489 45.821ZM93.2399 45.425C93.2326 44.963 93.0676 44.5927 92.7449 44.314C92.4223 44.0353 92.0226 43.896 91.5459 43.896C91.1133 43.896 90.7429 44.0353 90.4349 44.314C90.1269 44.5853 89.9436 44.9557 89.8849 45.425H93.2399ZM103.923 42.939L102.042 49H100.722L99.501 44.523L98.28 49H96.96L95.068 42.939H96.344L97.609 47.812L98.896 42.939H100.205L101.437 47.79L102.691 42.939H103.923ZM108.356 42.136C108.128 42.136 107.938 42.059 107.784 41.905C107.63 41.751 107.553 41.5603 107.553 41.333C107.553 41.1057 107.63 40.915 107.784 40.761C107.938 40.607 108.128 40.53 108.356 40.53C108.576 40.53 108.763 40.607 108.917 40.761C109.071 40.915 109.148 41.1057 109.148 41.333C109.148 41.5603 109.071 41.751 108.917 41.905C108.763 42.059 108.576 42.136 108.356 42.136ZM108.972 42.939V49H107.718V42.939H108.972ZM112.081 43.962V47.317C112.081 47.5443 112.132 47.7093 112.235 47.812C112.345 47.9073 112.528 47.955 112.785 47.955H113.555V49H112.565C112 49 111.568 48.868 111.267 48.604C110.966 48.34 110.816 47.911 110.816 47.317V43.962H110.101V42.939H110.816V41.432H112.081V42.939H113.555V43.962H112.081ZM120.266 45.821C120.266 46.0483 120.251 46.2537 120.222 46.437H115.591C115.627 46.921 115.807 47.3097 116.13 47.603C116.452 47.8963 116.848 48.043 117.318 48.043C117.992 48.043 118.469 47.7607 118.748 47.196H120.101C119.917 47.7533 119.584 48.2117 119.1 48.571C118.623 48.923 118.029 49.099 117.318 49.099C116.738 49.099 116.218 48.9707 115.756 48.714C115.301 48.45 114.942 48.0833 114.678 47.614C114.421 47.1373 114.293 46.5873 114.293 45.964C114.293 45.3407 114.417 44.7943 114.667 44.325C114.923 43.8483 115.279 43.4817 115.734 43.225C116.196 42.9683 116.724 42.84 117.318 42.84C117.89 42.84 118.399 42.9647 118.847 43.214C119.294 43.4633 119.642 43.8153 119.892 44.27C120.141 44.7173 120.266 45.2343 120.266 45.821ZM118.957 45.425C118.949 44.963 118.784 44.5927 118.462 44.314C118.139 44.0353 117.739 43.896 117.263 43.896C116.83 43.896 116.46 44.0353 116.152 44.314C115.844 44.5853 115.66 44.9557 115.602 45.425H118.957ZM128.837 42.84C129.313 42.84 129.739 42.939 130.113 43.137C130.494 43.335 130.791 43.6283 131.004 44.017C131.224 44.4057 131.334 44.875 131.334 45.425V49H130.091V45.612C130.091 45.0693 129.955 44.655 129.684 44.369C129.412 44.0757 129.042 43.929 128.573 43.929C128.103 43.929 127.729 44.0757 127.451 44.369C127.179 44.655 127.044 45.0693 127.044 45.612V49H125.801V45.612C125.801 45.0693 125.665 44.655 125.394 44.369C125.122 44.0757 124.752 43.929 124.283 43.929C123.813 43.929 123.439 44.0757 123.161 44.369C122.889 44.655 122.754 45.0693 122.754 45.612V49H121.5V42.939H122.754V43.632C122.959 43.3827 123.219 43.1883 123.535 43.049C123.85 42.9097 124.187 42.84 124.547 42.84C125.031 42.84 125.463 42.9427 125.845 43.148C126.226 43.3533 126.519 43.6503 126.725 44.039C126.908 43.6723 127.194 43.3827 127.583 43.17C127.971 42.95 128.389 42.84 128.837 42.84Z"></path>
<mask fill="white" id="path-4-inside-1_641_69">
<path d="M150 35C150 32.2386 152.239 30 155 30H315C317.761 30 320 32.2386 320 35V55C320 57.7614 317.761 60 315 60H155C152.239 60 150 57.7614 150 55V35Z"></path>
</mask>
<path fill-opacity="0.05" fill="black" d="M150 35C150 32.2386 152.239 30 155 30H315C317.761 30 320 32.2386 320 35V55C320 57.7614 317.761 60 315 60H155C152.239 60 150 57.7614 150 55V35Z"></path>
<path mask="url(#path-4-inside-1_641_69)" fill-opacity="0.5" fill="black" d="M150 30H320H150ZM320 55C320 58.3137 317.314 61 314 61H156C152.686 61 150 58.3137 150 55C150 57.2091 152.239 59 155 59H315C317.761 59 320 57.2091 320 55ZM150 60V30V60ZM320 30V60V30Z"></path>
<mask fill="white" id="path-6-inside-2_641_69">
<path d="M400 35C400 32.2386 402.239 30 405 30H455C457.761 30 460 32.2386 460 35V55C460 57.7614 457.761 60 455 60H405C402.239 60 400 57.7614 400 55V35Z"></path>
</mask>
<path fill-opacity="0.05" fill="black" d="M400 35C400 32.2386 402.239 30 405 30H455C457.761 30 460 32.2386 460 35V55C460 57.7614 457.761 60 455 60H405C402.239 60 400 57.7614 400 55V35Z"></path>
<path mask="url(#path-6-inside-2_641_69)" fill-opacity="0.05" fill="black" d="M400 35C400 31.6863 402.686 29 406 29H454C457.314 29 460 31.6863 460 35C460 32.7909 457.761 31 455 31H405C402.239 31 400 32.7909 400 35ZM460 60H400H460ZM400 60V30V60ZM460 30V60V30Z"></path>
<path fill="black" d="M418.949 41.355C419.763 41.355 420.474 41.5127 421.083 41.828C421.699 42.136 422.172 42.5833 422.502 43.17C422.839 43.7493 423.008 44.4277 423.008 45.205C423.008 45.9823 422.839 46.657 422.502 47.229C422.172 47.801 421.699 48.241 421.083 48.549C420.474 48.8497 419.763 49 418.949 49H416.452V41.355H418.949ZM418.949 47.977C419.844 47.977 420.529 47.735 421.006 47.251C421.483 46.767 421.721 46.085 421.721 45.205C421.721 44.3177 421.483 43.6247 421.006 43.126C420.529 42.6273 419.844 42.378 418.949 42.378H417.706V47.977H418.949ZM426.88 49.099C426.308 49.099 425.791 48.9707 425.329 48.714C424.867 48.45 424.504 48.0833 424.24 47.614C423.976 47.1373 423.844 46.5873 423.844 45.964C423.844 45.348 423.979 44.8017 424.251 44.325C424.522 43.8483 424.892 43.4817 425.362 43.225C425.831 42.9683 426.355 42.84 426.935 42.84C427.514 42.84 428.038 42.9683 428.508 43.225C428.977 43.4817 429.347 43.8483 429.619 44.325C429.89 44.8017 430.026 45.348 430.026 45.964C430.026 46.58 429.886 47.1263 429.608 47.603C429.329 48.0797 428.948 48.45 428.464 48.714C427.987 48.9707 427.459 49.099 426.88 49.099ZM426.88 48.01C427.202 48.01 427.503 47.933 427.782 47.779C428.068 47.625 428.299 47.394 428.475 47.086C428.651 46.778 428.739 46.404 428.739 45.964C428.739 45.524 428.654 45.1537 428.486 44.853C428.317 44.545 428.093 44.314 427.815 44.16C427.536 44.006 427.235 43.929 426.913 43.929C426.59 43.929 426.289 44.006 426.011 44.16C425.739 44.314 425.523 44.545 425.362 44.853C425.2 45.1537 425.12 45.524 425.12 45.964C425.12 46.6167 425.285 47.1227 425.615 47.482C425.952 47.834 426.374 48.01 426.88 48.01ZM434.323 42.84C434.8 42.84 435.225 42.939 435.599 43.137C435.981 43.335 436.278 43.6283 436.49 44.017C436.703 44.4057 436.809 44.875 436.809 45.425V49H435.566V45.612C435.566 45.0693 435.431 44.655 435.159 44.369C434.888 44.0757 434.518 43.929 434.048 43.929C433.579 43.929 433.205 44.0757 432.926 44.369C432.655 44.655 432.519 45.0693 432.519 45.612V49H431.265V42.939H432.519V43.632C432.725 43.3827 432.985 43.1883 433.3 43.049C433.623 42.9097 433.964 42.84 434.323 42.84ZM443.964 45.821C443.964 46.0483 443.949 46.2537 443.92 46.437H439.289C439.326 46.921 439.505 47.3097 439.828 47.603C440.151 47.8963 440.547 48.043 441.016 48.043C441.691 48.043 442.167 47.7607 442.446 47.196H443.799C443.616 47.7533 443.282 48.2117 442.798 48.571C442.321 48.923 441.727 49.099 441.016 49.099C440.437 49.099 439.916 48.9707 439.454 48.714C438.999 48.45 438.64 48.0833 438.376 47.614C438.119 47.1373 437.991 46.5873 437.991 45.964C437.991 45.3407 438.116 44.7943 438.365 44.325C438.622 43.8483 438.977 43.4817 439.432 43.225C439.894 42.9683 440.422 42.84 441.016 42.84C441.588 42.84 442.098 42.9647 442.545 43.214C442.992 43.4633 443.341 43.8153 443.59 44.27C443.839 44.7173 443.964 45.2343 443.964 45.821ZM442.655 45.425C442.648 44.963 442.483 44.5927 442.16 44.314C441.837 44.0353 441.438 43.896 440.961 43.896C440.528 43.896 440.158 44.0353 439.85 44.314C439.542 44.5853 439.359 44.9557 439.3 45.425H442.655Z"></path>
<mask fill="white" id="path-9-inside-3_641_69">
<path d="M330 35C330 32.2386 332.239 30 335 30H385C387.761 30 390 32.2386 390 35V55C390 57.7614 387.761 60 385 60H335C332.239 60 330 57.7614 330 55V35Z"></path>
</mask>
<path fill-opacity="0.05" fill="black" d="M330 35C330 32.2386 332.239 30 335 30H385C387.761 30 390 32.2386 390 35V55C390 57.7614 387.761 60 385 60H335C332.239 60 330 57.7614 330 55V35Z"></path>
<path mask="url(#path-9-inside-3_641_69)" fill-opacity="0.05" fill="black" d="M330 35C330 31.6863 332.686 29 336 29H384C387.314 29 390 31.6863 390 35C390 32.7909 387.761 31 385 31H335C332.239 31 330 32.7909 330 35ZM390 60H330H390ZM330 60V30V60ZM390 30V60V30Z"></path>
<path fill="black" d="M340.711 45.161C340.711 44.413 340.884 43.742 341.228 43.148C341.58 42.554 342.053 42.092 342.647 41.762C343.249 41.4247 343.905 41.256 344.616 41.256C345.43 41.256 346.153 41.4577 346.783 41.861C347.421 42.257 347.883 42.8217 348.169 43.555H346.662C346.464 43.1517 346.189 42.851 345.837 42.653C345.485 42.455 345.078 42.356 344.616 42.356C344.11 42.356 343.659 42.4697 343.263 42.697C342.867 42.9243 342.556 43.2507 342.328 43.676C342.108 44.1013 341.998 44.5963 341.998 45.161C341.998 45.7257 342.108 46.2207 342.328 46.646C342.556 47.0713 342.867 47.4013 343.263 47.636C343.659 47.8633 344.11 47.977 344.616 47.977C345.078 47.977 345.485 47.878 345.837 47.68C346.189 47.482 346.464 47.1813 346.662 46.778H348.169C347.883 47.5113 347.421 48.076 346.783 48.472C346.153 48.868 345.43 49.066 344.616 49.066C343.898 49.066 343.241 48.901 342.647 48.571C342.053 48.2337 341.58 47.768 341.228 47.174C340.884 46.58 340.711 45.909 340.711 45.161ZM349.219 45.942C349.219 45.3333 349.344 44.7943 349.593 44.325C349.85 43.8557 350.194 43.4927 350.627 43.236C351.067 42.972 351.551 42.84 352.079 42.84C352.556 42.84 352.97 42.9353 353.322 43.126C353.681 43.3093 353.967 43.5403 354.18 43.819V42.939H355.445V49H354.18V48.098C353.967 48.384 353.678 48.6223 353.311 48.813C352.944 49.0037 352.526 49.099 352.057 49.099C351.536 49.099 351.06 48.967 350.627 48.703C350.194 48.4317 349.85 48.0577 349.593 47.581C349.344 47.097 349.219 46.5507 349.219 45.942ZM354.18 45.964C354.18 45.546 354.092 45.183 353.916 44.875C353.747 44.567 353.524 44.3323 353.245 44.171C352.966 44.0097 352.666 43.929 352.343 43.929C352.02 43.929 351.72 44.0097 351.441 44.171C351.162 44.325 350.935 44.556 350.759 44.864C350.59 45.1647 350.506 45.524 350.506 45.942C350.506 46.36 350.59 46.7267 350.759 47.042C350.935 47.3573 351.162 47.5993 351.441 47.768C351.727 47.9293 352.028 48.01 352.343 48.01C352.666 48.01 352.966 47.9293 353.245 47.768C353.524 47.6067 353.747 47.372 353.916 47.064C354.092 46.7487 354.18 46.382 354.18 45.964ZM360.15 42.84C360.627 42.84 361.052 42.939 361.426 43.137C361.807 43.335 362.104 43.6283 362.317 44.017C362.53 44.4057 362.636 44.875 362.636 45.425V49H361.393V45.612C361.393 45.0693 361.257 44.655 360.986 44.369C360.715 44.0757 360.344 43.929 359.875 43.929C359.406 43.929 359.032 44.0757 358.753 44.369C358.482 44.655 358.346 45.0693 358.346 45.612V49H357.092V42.939H358.346V43.632C358.551 43.3827 358.812 43.1883 359.127 43.049C359.45 42.9097 359.791 42.84 360.15 42.84ZM363.818 45.964C363.818 45.3407 363.942 44.7943 364.192 44.325C364.448 43.8483 364.8 43.4817 365.248 43.225C365.695 42.9683 366.208 42.84 366.788 42.84C367.521 42.84 368.126 43.016 368.603 43.368C369.087 43.7127 369.413 44.2077 369.582 44.853H368.229C368.119 44.5523 367.943 44.3177 367.701 44.149C367.459 43.9803 367.154 43.896 366.788 43.896C366.274 43.896 365.864 44.0793 365.556 44.446C365.255 44.8053 365.105 45.3113 365.105 45.964C365.105 46.6167 365.255 47.1263 365.556 47.493C365.864 47.8597 366.274 48.043 366.788 48.043C367.514 48.043 367.994 47.724 368.229 47.086H369.582C369.406 47.702 369.076 48.1933 368.592 48.56C368.108 48.9193 367.506 49.099 366.788 49.099C366.208 49.099 365.695 48.9707 365.248 48.714C364.8 48.45 364.448 48.0833 364.192 47.614C363.942 47.1373 363.818 46.5873 363.818 45.964ZM376.386 45.821C376.386 46.0483 376.372 46.2537 376.342 46.437H371.711C371.748 46.921 371.928 47.3097 372.25 47.603C372.573 47.8963 372.969 48.043 373.438 48.043C374.113 48.043 374.59 47.7607 374.868 47.196H376.221C376.038 47.7533 375.704 48.2117 375.22 48.571C374.744 48.923 374.15 49.099 373.438 49.099C372.859 49.099 372.338 48.9707 371.876 48.714C371.422 48.45 371.062 48.0833 370.798 47.614C370.542 47.1373 370.413 46.5873 370.413 45.964C370.413 45.3407 370.538 44.7943 370.787 44.325C371.044 43.8483 371.4 43.4817 371.854 43.225C372.316 42.9683 372.844 42.84 373.438 42.84C374.01 42.84 374.52 42.9647 374.967 43.214C375.415 43.4633 375.763 43.8153 376.012 44.27C376.262 44.7173 376.386 45.2343 376.386 45.821ZM375.077 45.425C375.07 44.963 374.905 44.5927 374.582 44.314C374.26 44.0353 373.86 43.896 373.383 43.896C372.951 43.896 372.58 44.0353 372.272 44.314C371.964 44.5853 371.781 44.9557 371.722 45.425H375.077ZM378.874 40.86V49H377.62V40.86H378.874Z"></path>
</svg>
