<svg xmlns="http://www.w3.org/2000/svg" fill="none" viewBox="0 0 122 142" height="142" width="122">
<path fill-opacity="0.9" fill="#CCCCCC" d="M1 11C1 5.47716 5.47715 1 11 1H111C116.523 1 121 5.47715 121 11V131C121 136.523 116.523 141 111 141H11C5.47715 141 1 136.523 1 131V11Z"></path>
<path stroke-opacity="0.2" stroke="white" d="M111 0.5H11C5.20101 0.5 0.5 5.20101 0.5 11V131C0.5 136.799 5.20101 141.5 11 141.5H111C116.799 141.5 121.5 136.799 121.5 131V11C121.5 5.20101 116.799 0.5 111 0.5Z"></path>
<path fill="black" d="M15.917 96.073C16.3277 96.1463 16.676 96.3627 16.962 96.722C17.248 97.0813 17.391 97.4883 17.391 97.943C17.391 98.3317 17.2883 98.6837 17.083 98.999C16.885 99.307 16.5953 99.5527 16.214 99.736C15.8327 99.912 15.389 100 14.883 100H11.825V92.355H14.74C15.2607 92.355 15.708 92.443 16.082 92.619C16.456 92.795 16.7383 93.0333 16.929 93.334C17.1197 93.6273 17.215 93.9573 17.215 94.324C17.215 94.764 17.0977 95.1307 16.863 95.424C16.6283 95.7173 16.313 95.9337 15.917 96.073ZM13.079 95.567H14.63C15.0407 95.567 15.3597 95.4753 15.587 95.292C15.8217 95.1013 15.939 94.83 15.939 94.478C15.939 94.1333 15.8217 93.8657 15.587 93.675C15.3597 93.477 15.0407 93.378 14.63 93.378H13.079V95.567ZM14.773 98.977C15.1983 98.977 15.532 98.8743 15.774 98.669C16.016 98.4637 16.137 98.1777 16.137 97.811C16.137 97.437 16.0087 97.14 15.752 96.92C15.4953 96.7 15.1543 96.59 14.729 96.59H13.079V98.977H14.773ZM20.0077 91.86V100H18.7537V91.86H20.0077ZM27.1431 93.939V100H25.8891V99.285C25.6911 99.5343 25.4308 99.7323 25.1081 99.879C24.7928 100.018 24.4554 100.088 24.0961 100.088C23.6194 100.088 23.1904 99.989 22.8091 99.791C22.4351 99.593 22.1381 99.2997 21.9181 98.911C21.7054 98.5223 21.5991 98.053 21.5991 97.503V93.939H22.8421V97.316C22.8421 97.8587 22.9778 98.2767 23.2491 98.57C23.5204 98.856 23.8908 98.999 24.3601 98.999C24.8294 98.999 25.1998 98.856 25.4711 98.57C25.7498 98.2767 25.8891 97.8587 25.8891 97.316V93.939H27.1431ZM34.3527 96.821C34.3527 97.0483 34.338 97.2537 34.3087 97.437H29.6777C29.7143 97.921 29.894 98.3097 30.2167 98.603C30.5393 98.8963 30.9353 99.043 31.4047 99.043C32.0793 99.043 32.556 98.7607 32.8347 98.196H34.1877C34.0043 98.7533 33.6707 99.2117 33.1867 99.571C32.71 99.923 32.116 100.099 31.4047 100.099C30.8253 100.099 30.3047 99.9707 29.8427 99.714C29.388 99.45 29.0287 99.0833 28.7647 98.614C28.508 98.1373 28.3797 97.5873 28.3797 96.964C28.3797 96.3407 28.5043 95.7943 28.7537 95.325C29.0103 94.8483 29.366 94.4817 29.8207 94.225C30.2827 93.9683 30.8107 93.84 31.4047 93.84C31.9767 93.84 32.4863 93.9647 32.9337 94.214C33.381 94.4633 33.7293 94.8153 33.9787 95.27C34.228 95.7173 34.3527 96.2343 34.3527 96.821ZM33.0437 96.425C33.0363 95.963 32.8713 95.5927 32.5487 95.314C32.226 95.0353 31.8263 94.896 31.3497 94.896C30.917 94.896 30.5467 95.0353 30.2387 95.314C29.9307 95.5853 29.7473 95.9557 29.6887 96.425H33.0437ZM40.9631 100.077C40.4498 100.077 39.9878 99.989 39.5771 99.813C39.1665 99.6297 38.8438 99.373 38.6091 99.043C38.3745 98.713 38.2571 98.328 38.2571 97.888H39.5991C39.6285 98.218 39.7568 98.4893 39.9841 98.702C40.2188 98.9147 40.5451 99.021 40.9631 99.021C41.3958 99.021 41.7331 98.9183 41.9751 98.713C42.2171 98.5003 42.3381 98.229 42.3381 97.899C42.3381 97.6423 42.2611 97.4333 42.1071 97.272C41.9605 97.1107 41.7735 96.986 41.5461 96.898C41.3261 96.81 41.0181 96.7147 40.6221 96.612C40.1235 96.48 39.7165 96.348 39.4011 96.216C39.0931 96.0767 38.8291 95.864 38.6091 95.578C38.3891 95.292 38.2791 94.9107 38.2791 94.434C38.2791 93.994 38.3891 93.609 38.6091 93.279C38.8291 92.949 39.1371 92.696 39.5331 92.52C39.9291 92.344 40.3875 92.256 40.9081 92.256C41.6488 92.256 42.2538 92.443 42.7231 92.817C43.1998 93.1837 43.4638 93.6897 43.5151 94.335H42.1291C42.1071 94.0563 41.9751 93.818 41.7331 93.62C41.4911 93.422 41.1721 93.323 40.7761 93.323C40.4168 93.323 40.1235 93.4147 39.8961 93.598C39.6688 93.7813 39.5551 94.0453 39.5551 94.39C39.5551 94.6247 39.6248 94.819 39.7641 94.973C39.9108 95.1197 40.0941 95.237 40.3141 95.325C40.5341 95.413 40.8348 95.5083 41.2161 95.611C41.7221 95.7503 42.1328 95.8897 42.4481 96.029C42.7708 96.1683 43.0421 96.3847 43.2621 96.678C43.4895 96.964 43.6031 97.349 43.6031 97.833C43.6031 98.2217 43.4968 98.5883 43.2841 98.933C43.0788 99.2777 42.7745 99.5563 42.3711 99.769C41.9751 99.9743 41.5058 100.077 40.9631 100.077ZM47.4808 96.975L50.2748 100H48.5808L46.3368 97.393V100H45.0828V91.86H46.3368V96.59L48.5368 93.939H50.2748L47.4808 96.975ZM56.6296 93.939L52.9116 102.849H51.6136L52.8456 99.901L50.4586 93.939H51.8556L53.5606 98.559L55.3316 93.939H56.6296Z"></path>
<path fill="#695657" d="M1 11C1 5.47715 5.47715 1 11 1H111C116.523 1 121 5.47715 121 11V81H1V11Z"></path>
<path fill-opacity="0.5" fill="white" d="M1 11C1 5.47715 5.47715 1 11 1H111C116.523 1 121 5.47715 121 11V81H1V11Z"></path>
<path fill-opacity="0.05" fill="black" d="M61 116C61 113.239 63.2386 111 66 111H106C108.761 111 111 113.239 111 116V126C111 128.761 108.761 131 106 131H66C63.2386 131 61 128.761 61 126V116Z"></path>
<path fill="black" d="M80.0838 117.745V124H79.0578V119.716L77.1498 124H76.4388L74.5218 119.716V124H73.4958V117.745H74.6028L76.7988 122.65L78.9858 117.745H80.0838ZM85.9233 119.041V124H84.8973V123.415C84.7353 123.619 84.5223 123.781 84.2583 123.901C84.0003 124.015 83.7243 124.072 83.4303 124.072C83.0403 124.072 82.6893 123.991 82.3773 123.829C82.0713 123.667 81.8283 123.427 81.6483 123.109C81.4743 122.791 81.3873 122.407 81.3873 121.957V119.041H82.4043V121.804C82.4043 122.248 82.5153 122.59 82.7373 122.83C82.9593 123.064 83.2623 123.181 83.6463 123.181C84.0303 123.181 84.3333 123.064 84.5553 122.83C84.7833 122.59 84.8973 122.248 84.8973 121.804V119.041H85.9233ZM89.0771 124.081C88.6871 124.081 88.3361 124.012 88.0241 123.874C87.7181 123.73 87.4751 123.538 87.2951 123.298C87.1151 123.052 87.0191 122.779 87.0071 122.479H88.0691C88.0871 122.689 88.1861 122.866 88.3661 123.01C88.5521 123.148 88.7831 123.217 89.0591 123.217C89.3471 123.217 89.5691 123.163 89.7251 123.055C89.8871 122.941 89.9681 122.797 89.9681 122.623C89.9681 122.437 89.8781 122.299 89.6981 122.209C89.5241 122.119 89.2451 122.02 88.8611 121.912C88.4891 121.81 88.1861 121.711 87.9521 121.615C87.7181 121.519 87.5141 121.372 87.3401 121.174C87.1721 120.976 87.0881 120.715 87.0881 120.391C87.0881 120.127 87.1661 119.887 87.3221 119.671C87.4781 119.449 87.7001 119.275 87.9881 119.149C88.2821 119.023 88.6181 118.96 88.9961 118.96C89.5601 118.96 90.0131 119.104 90.3551 119.392C90.7031 119.674 90.8891 120.061 90.9131 120.553H89.8871C89.8691 120.331 89.7791 120.154 89.6171 120.022C89.4551 119.89 89.2361 119.824 88.9601 119.824C88.6901 119.824 88.4831 119.875 88.3391 119.977C88.1951 120.079 88.1231 120.214 88.1231 120.382C88.1231 120.514 88.1711 120.625 88.2671 120.715C88.3631 120.805 88.4801 120.877 88.6181 120.931C88.7561 120.979 88.9601 121.042 89.2301 121.12C89.5901 121.216 89.8841 121.315 90.1121 121.417C90.3461 121.513 90.5471 121.657 90.7151 121.849C90.8831 122.041 90.9701 122.296 90.9761 122.614C90.9761 122.896 90.8981 123.148 90.7421 123.37C90.5861 123.592 90.3641 123.766 90.0761 123.892C89.7941 124.018 89.4611 124.081 89.0771 124.081ZM92.6067 118.384C92.4207 118.384 92.2647 118.321 92.1387 118.195C92.0127 118.069 91.9497 117.913 91.9497 117.727C91.9497 117.541 92.0127 117.385 92.1387 117.259C92.2647 117.133 92.4207 117.07 92.6067 117.07C92.7867 117.07 92.9397 117.133 93.0657 117.259C93.1917 117.385 93.2547 117.541 93.2547 117.727C93.2547 117.913 93.1917 118.069 93.0657 118.195C92.9397 118.321 92.7867 118.384 92.6067 118.384ZM93.1107 119.041V124H92.0847V119.041H93.1107ZM94.1157 121.516C94.1157 121.006 94.2177 120.559 94.4217 120.175C94.6317 119.785 94.9197 119.485 95.2857 119.275C95.6517 119.065 96.0717 118.96 96.5457 118.96C97.1457 118.96 97.6407 119.104 98.0307 119.392C98.4267 119.674 98.6937 120.079 98.8317 120.607H97.7247C97.6347 120.361 97.4907 120.169 97.2927 120.031C97.0947 119.893 96.8457 119.824 96.5457 119.824C96.1257 119.824 95.7897 119.974 95.5377 120.274C95.2917 120.568 95.1687 120.982 95.1687 121.516C95.1687 122.05 95.2917 122.467 95.5377 122.767C95.7897 123.067 96.1257 123.217 96.5457 123.217C97.1397 123.217 97.5327 122.956 97.7247 122.434H98.8317C98.6877 122.938 98.4177 123.34 98.0217 123.64C97.6257 123.934 97.1337 124.081 96.5457 124.081C96.0717 124.081 95.6517 123.976 95.2857 123.766C94.9197 123.55 94.6317 123.25 94.4217 122.866C94.2177 122.476 94.1157 122.026 94.1157 121.516Z"></path>
<circle stroke-width="3.2" stroke="url(#paint1_linear_1051_40)" fill="url(#paint0_linear_1051_40)" r="17.6" cy="40.9998" cx="60.9998"></circle>
<path fill="url(#paint2_linear_1051_40)" d="M56.2002 48.2709V33.7293C56.2002 32.4241 57.6789 31.668 58.737 32.4322L68.8042 39.703C69.6885 40.3417 69.6885 41.6585 68.8042 42.2972L58.737 49.568C57.6789 50.3322 56.2002 49.5761 56.2002 48.2709Z"></path>
<path stroke-width="1.6" stroke-opacity="0.2" stroke="black" d="M55.4002 33.7293V48.2709C55.4002 50.2287 57.6182 51.3628 59.2054 50.2165L69.2726 42.9457C70.5991 41.9877 70.599 40.0124 69.2726 39.0545L59.2054 31.7837C57.6182 30.6374 55.4002 31.7715 55.4002 33.7293Z"></path>
<defs>
<linearGradient gradientUnits="userSpaceOnUse" y2="60.1998" x2="72.1998" y1="21.7998" x1="49.7998" id="paint0_linear_1051_40">
<stop stop-color="#4D4D4D" offset="0.139158"></stop>
<stop stop-color="#242424" offset="0.856518"></stop>
</linearGradient>
<linearGradient gradientUnits="userSpaceOnUse" y2="60.1998" x2="72.1998" y1="21.7998" x1="49.7998" id="paint1_linear_1051_40">
<stop stop-color="#FE924A" offset="0.140625"></stop>
<stop stop-color="#9264BA" offset="0.864583"></stop>
</linearGradient>
<linearGradient gradientUnits="userSpaceOnUse" y2="50.6001" x2="56.2002" y1="31.4001" x1="56.2002" id="paint2_linear_1051_40">
<stop stop-color="white"></stop>
<stop stop-color="#E3E3E3" offset="1"></stop>
</linearGradient>
</defs>
</svg>
