<svg xmlns="http://www.w3.org/2000/svg" fill="none" viewBox="0 0 44 24" height="24" width="44">
<path fill-opacity="0.5" fill="#FF0000" d="M2 12C2 6.47715 6.47715 2 12 2H32C37.5228 2 42 6.47715 42 12V12C42 17.5228 37.5228 22 32 22H12C6.47715 22 2 17.5228 2 12V12Z"></path>
<path stroke-width="2" stroke-opacity="0.2" stroke="#FF0000" d="M32 1H12C5.92487 1 1 5.92487 1 12C1 18.0751 5.92487 23 12 23H32C38.0751 23 43 18.0751 43 12C43 5.92487 38.0751 1 32 1Z"></path>
<path fill="white" d="M16.2045 14.14C16.9725 13.476 17.5765 12.932 18.0165 12.508C18.4645 12.076 18.8365 11.628 19.1325 11.164C19.4285 10.7 19.5765 10.236 19.5765 9.772C19.5765 9.292 19.4605 8.916 19.2285 8.644C19.0045 8.372 18.6485 8.236 18.1605 8.236C17.6885 8.236 17.3205 8.388 17.0565 8.692C16.8005 8.988 16.6645 9.388 16.6485 9.892H15.3285C15.3525 8.98 15.6245 8.284 16.1445 7.804C16.6725 7.316 17.3405 7.072 18.1485 7.072C19.0205 7.072 19.7005 7.312 20.1885 7.792C20.6845 8.272 20.9325 8.912 20.9325 9.712C20.9325 10.288 20.7845 10.844 20.4885 11.38C20.2005 11.908 19.8525 12.384 19.4445 12.808C19.0445 13.224 18.5325 13.708 17.9085 14.26L17.3685 14.74H21.1725V15.88H15.3405V14.884L16.2045 14.14ZM24.0783 13.624C24.1583 14.024 24.3303 14.328 24.5943 14.536C24.8583 14.744 25.2143 14.848 25.6623 14.848C26.2303 14.848 26.6463 14.624 26.9103 14.176C27.1743 13.728 27.3063 12.964 27.3063 11.884C27.1143 12.156 26.8423 12.368 26.4903 12.52C26.1463 12.664 25.7703 12.736 25.3623 12.736C24.8423 12.736 24.3703 12.632 23.9463 12.424C23.5223 12.208 23.1863 11.892 22.9383 11.476C22.6983 11.052 22.5783 10.54 22.5783 9.94C22.5783 9.06 22.8343 8.36 23.3463 7.84C23.8663 7.312 24.5783 7.048 25.4823 7.048C26.5703 7.048 27.3423 7.412 27.7983 8.14C28.2623 8.86 28.4943 9.968 28.4943 11.464C28.4943 12.496 28.4063 13.34 28.2303 13.996C28.0623 14.652 27.7663 15.148 27.3423 15.484C26.9183 15.82 26.3303 15.988 25.5783 15.988C24.7223 15.988 24.0623 15.764 23.5983 15.316C23.1343 14.868 22.8743 14.304 22.8183 13.624H24.0783ZM25.6023 11.584C26.0823 11.584 26.4583 11.436 26.7303 11.14C27.0103 10.836 27.1503 10.436 27.1503 9.94C27.1503 9.388 27.0023 8.96 26.7063 8.656C26.4183 8.344 26.0223 8.188 25.5183 8.188C25.0143 8.188 24.6143 8.348 24.3183 8.668C24.0303 8.98 23.8863 9.392 23.8863 9.904C23.8863 10.392 24.0263 10.796 24.3063 11.116C24.5943 11.428 25.0263 11.584 25.6023 11.584Z"></path>
</svg>
