<svg xmlns="http://www.w3.org/2000/svg" fill="none" viewBox="0 0 480 360" height="360" width="480">
<rect fill="#1A1A1A" rx="5" height="40" width="150" y="310" x="165"></rect>
<rect stroke-width="2" stroke-opacity="0.2" stroke="white" rx="6" height="42" width="152" y="309" x="164"></rect>
<path fill="white" d="M217.326 334.077C216.615 334.077 215.958 333.912 215.357 333.582C214.763 333.245 214.29 332.779 213.938 332.185C213.593 331.584 213.421 330.909 213.421 330.161C213.421 329.413 213.593 328.742 213.938 328.148C214.29 327.554 214.763 327.092 215.357 326.762C215.958 326.425 216.615 326.256 217.326 326.256C218.045 326.256 218.701 326.425 219.295 326.762C219.896 327.092 220.369 327.554 220.714 328.148C221.059 328.742 221.231 329.413 221.231 330.161C221.231 330.909 221.059 331.584 220.714 332.185C220.369 332.779 219.896 333.245 219.295 333.582C218.701 333.912 218.045 334.077 217.326 334.077ZM217.326 332.988C217.832 332.988 218.283 332.874 218.679 332.647C219.075 332.412 219.383 332.082 219.603 331.657C219.83 331.224 219.944 330.726 219.944 330.161C219.944 329.596 219.83 329.101 219.603 328.676C219.383 328.251 219.075 327.924 218.679 327.697C218.283 327.47 217.832 327.356 217.326 327.356C216.82 327.356 216.369 327.47 215.973 327.697C215.577 327.924 215.265 328.251 215.038 328.676C214.818 329.101 214.708 329.596 214.708 330.161C214.708 330.726 214.818 331.224 215.038 331.657C215.265 332.082 215.577 332.412 215.973 332.647C216.369 332.874 216.82 332.988 217.326 332.988ZM223.719 328.83C223.932 328.551 224.221 328.317 224.588 328.126C224.955 327.935 225.369 327.84 225.831 327.84C226.359 327.84 226.839 327.972 227.272 328.236C227.712 328.493 228.057 328.856 228.306 329.325C228.555 329.794 228.68 330.333 228.68 330.942C228.68 331.551 228.555 332.097 228.306 332.581C228.057 333.058 227.712 333.432 227.272 333.703C226.839 333.967 226.359 334.099 225.831 334.099C225.369 334.099 224.958 334.007 224.599 333.824C224.24 333.633 223.946 333.399 223.719 333.12V336.882H222.465V327.939H223.719V328.83ZM227.404 330.942C227.404 330.524 227.316 330.165 227.14 329.864C226.971 329.556 226.744 329.325 226.458 329.171C226.179 329.01 225.879 328.929 225.556 328.929C225.241 328.929 224.94 329.01 224.654 329.171C224.375 329.332 224.148 329.567 223.972 329.875C223.803 330.183 223.719 330.546 223.719 330.964C223.719 331.382 223.803 331.749 223.972 332.064C224.148 332.372 224.375 332.607 224.654 332.768C224.94 332.929 225.241 333.01 225.556 333.01C225.879 333.01 226.179 332.929 226.458 332.768C226.744 332.599 226.971 332.357 227.14 332.042C227.316 331.727 227.404 331.36 227.404 330.942ZM235.475 330.821C235.475 331.048 235.461 331.254 235.431 331.437H230.8C230.837 331.921 231.017 332.31 231.339 332.603C231.662 332.896 232.058 333.043 232.527 333.043C233.202 333.043 233.679 332.761 233.957 332.196H235.31C235.127 332.753 234.793 333.212 234.309 333.571C233.833 333.923 233.239 334.099 232.527 334.099C231.948 334.099 231.427 333.971 230.965 333.714C230.511 333.45 230.151 333.083 229.887 332.614C229.631 332.137 229.502 331.587 229.502 330.964C229.502 330.341 229.627 329.794 229.876 329.325C230.133 328.848 230.489 328.482 230.943 328.225C231.405 327.968 231.933 327.84 232.527 327.84C233.099 327.84 233.609 327.965 234.056 328.214C234.504 328.463 234.852 328.815 235.101 329.27C235.351 329.717 235.475 330.234 235.475 330.821ZM234.166 330.425C234.159 329.963 233.994 329.593 233.671 329.314C233.349 329.035 232.949 328.896 232.472 328.896C232.04 328.896 231.669 329.035 231.361 329.314C231.053 329.585 230.87 329.956 230.811 330.425H234.166ZM239.767 327.84C240.244 327.84 240.669 327.939 241.043 328.137C241.425 328.335 241.722 328.628 241.934 329.017C242.147 329.406 242.253 329.875 242.253 330.425V334H241.01V330.612C241.01 330.069 240.875 329.655 240.603 329.369C240.332 329.076 239.962 328.929 239.492 328.929C239.023 328.929 238.649 329.076 238.37 329.369C238.099 329.655 237.963 330.069 237.963 330.612V334H236.709V327.939H237.963V328.632C238.169 328.383 238.429 328.188 238.744 328.049C239.067 327.91 239.408 327.84 239.767 327.84ZM250.681 334L248.921 330.942H247.964V334H246.71V326.355H249.35C249.937 326.355 250.432 326.458 250.835 326.663C251.246 326.868 251.55 327.143 251.748 327.488C251.954 327.833 252.056 328.218 252.056 328.643C252.056 329.142 251.91 329.596 251.616 330.007C251.33 330.41 250.887 330.685 250.285 330.832L252.177 334H250.681ZM247.964 329.941H249.35C249.82 329.941 250.172 329.824 250.406 329.589C250.648 329.354 250.769 329.039 250.769 328.643C250.769 328.247 250.652 327.939 250.417 327.719C250.183 327.492 249.827 327.378 249.35 327.378H247.964V329.941ZM259.215 330.821C259.215 331.048 259.201 331.254 259.171 331.437H254.54C254.577 331.921 254.757 332.31 255.079 332.603C255.402 332.896 255.798 333.043 256.267 333.043C256.942 333.043 257.419 332.761 257.697 332.196H259.05C258.867 332.753 258.533 333.212 258.049 333.571C257.573 333.923 256.979 334.099 256.267 334.099C255.688 334.099 255.167 333.971 254.705 333.714C254.251 333.45 253.891 333.083 253.627 332.614C253.371 332.137 253.242 331.587 253.242 330.964C253.242 330.341 253.367 329.794 253.616 329.325C253.873 328.848 254.229 328.482 254.683 328.225C255.145 327.968 255.673 327.84 256.267 327.84C256.839 327.84 257.349 327.965 257.796 328.214C258.244 328.463 258.592 328.815 258.841 329.27C259.091 329.717 259.215 330.234 259.215 330.821ZM257.906 330.425C257.899 329.963 257.734 329.593 257.411 329.314C257.089 329.035 256.689 328.896 256.212 328.896C255.78 328.896 255.409 329.035 255.101 329.314C254.793 329.585 254.61 329.956 254.551 330.425H257.906ZM260.032 330.964C260.032 330.341 260.156 329.794 260.406 329.325C260.662 328.848 261.014 328.482 261.462 328.225C261.909 327.968 262.422 327.84 263.002 327.84C263.735 327.84 264.34 328.016 264.817 328.368C265.301 328.713 265.627 329.208 265.796 329.853H264.443C264.333 329.552 264.157 329.318 263.915 329.149C263.673 328.98 263.368 328.896 263.002 328.896C262.488 328.896 262.078 329.079 261.77 329.446C261.469 329.805 261.319 330.311 261.319 330.964C261.319 331.617 261.469 332.126 261.77 332.493C262.078 332.86 262.488 333.043 263.002 333.043C263.728 333.043 264.208 332.724 264.443 332.086H265.796C265.62 332.702 265.29 333.193 264.806 333.56C264.322 333.919 263.72 334.099 263.002 334.099C262.422 334.099 261.909 333.971 261.462 333.714C261.014 333.45 260.662 333.083 260.406 332.614C260.156 332.137 260.032 331.587 260.032 330.964ZM269.674 334.099C269.102 334.099 268.585 333.971 268.123 333.714C267.661 333.45 267.298 333.083 267.034 332.614C266.77 332.137 266.638 331.587 266.638 330.964C266.638 330.348 266.774 329.802 267.045 329.325C267.317 328.848 267.687 328.482 268.156 328.225C268.626 327.968 269.15 327.84 269.729 327.84C270.309 327.84 270.833 327.968 271.302 328.225C271.772 328.482 272.142 328.848 272.413 329.325C272.685 329.802 272.82 330.348 272.82 330.964C272.82 331.58 272.681 332.126 272.402 332.603C272.124 333.08 271.742 333.45 271.258 333.714C270.782 333.971 270.254 334.099 269.674 334.099ZM269.674 333.01C269.997 333.01 270.298 332.933 270.576 332.779C270.862 332.625 271.093 332.394 271.269 332.086C271.445 331.778 271.533 331.404 271.533 330.964C271.533 330.524 271.449 330.154 271.28 329.853C271.112 329.545 270.888 329.314 270.609 329.16C270.331 329.006 270.03 328.929 269.707 328.929C269.385 328.929 269.084 329.006 268.805 329.16C268.534 329.314 268.318 329.545 268.156 329.853C267.995 330.154 267.914 330.524 267.914 330.964C267.914 331.617 268.079 332.123 268.409 332.482C268.747 332.834 269.168 333.01 269.674 333.01ZM276.403 332.878L278.119 327.939H279.45L277.14 334H275.644L273.345 327.939H274.687L276.403 332.878ZM285.953 330.821C285.953 331.048 285.938 331.254 285.909 331.437H281.278C281.314 331.921 281.494 332.31 281.817 332.603C282.139 332.896 282.535 333.043 283.005 333.043C283.679 333.043 284.156 332.761 284.435 332.196H285.788C285.604 332.753 285.271 333.212 284.787 333.571C284.31 333.923 283.716 334.099 283.005 334.099C282.425 334.099 281.905 333.971 281.443 333.714C280.988 333.45 280.629 333.083 280.365 332.614C280.108 332.137 279.98 331.587 279.98 330.964C279.98 330.341 280.104 329.794 280.354 329.325C280.61 328.848 280.966 328.482 281.421 328.225C281.883 327.968 282.411 327.84 283.005 327.84C283.577 327.84 284.086 327.965 284.534 328.214C284.981 328.463 285.329 328.815 285.579 329.27C285.828 329.717 285.953 330.234 285.953 330.821ZM284.644 330.425C284.636 329.963 284.471 329.593 284.149 329.314C283.826 329.035 283.426 328.896 282.95 328.896C282.517 328.896 282.147 329.035 281.839 329.314C281.531 329.585 281.347 329.956 281.289 330.425H284.644ZM288.441 328.819C288.624 328.511 288.866 328.273 289.167 328.104C289.475 327.928 289.838 327.84 290.256 327.84V329.138H289.937C289.445 329.138 289.071 329.263 288.815 329.512C288.565 329.761 288.441 330.194 288.441 330.81V334H287.187V327.939H288.441V328.819ZM296.864 327.939L293.146 336.849H291.848L293.08 333.901L290.693 327.939H292.09L293.795 332.559L295.566 327.939H296.864Z"></path>
<path stroke-width="0.842105" stroke="white" d="M181.632 331H178.684C177.754 331 177 331.754 177 332.684V335.211C177 336.141 177.754 336.895 178.684 336.895H191.316C192.246 336.895 193 336.141 193 335.211V332.684C193 331.754 192.246 331 191.316 331H187.526"></path>
<path fill="white" d="M188.789 333.947C188.789 333.25 189.355 332.684 190.052 332.684V332.684C190.75 332.684 191.315 333.25 191.315 333.947V333.947C191.315 334.645 190.75 335.21 190.052 335.21V335.21C189.355 335.21 188.789 334.645 188.789 333.947V333.947Z"></path>
<path stroke-linejoin="round" stroke-linecap="round" stroke-width="0.842105" stroke="white" d="M180.789 328.474C180.789 329.223 181.011 329.956 181.428 330.579C181.844 331.202 182.436 331.688 183.128 331.975C183.821 332.262 184.583 332.337 185.318 332.19C186.053 332.044 186.728 331.683 187.258 331.153C187.788 330.623 188.149 329.948 188.295 329.213C188.441 328.478 188.366 327.716 188.08 327.024C187.793 326.331 187.307 325.739 186.684 325.323C186.061 324.906 185.328 324.684 184.579 324.684H180.789M180.789 324.684L182.473 323M180.789 324.684L182.473 326.368"></path>
</svg>
