<svg xmlns="http://www.w3.org/2000/svg" fill="none" viewBox="0 0 44 24" height="24" width="44">
<path fill-opacity="0.5" fill="#FF0000" d="M2 12C2 6.47715 6.47715 2 12 2H32C37.5228 2 42 6.47715 42 12V12C42 17.5228 37.5228 22 32 22H12C6.47715 22 2 17.5228 2 12V12Z"></path>
<path stroke-width="2" stroke-opacity="0.2" stroke="#FF0000" d="M32 1H12C5.92487 1 1 5.92487 1 12C1 18.0751 5.92487 23 12 23H32C38.0751 23 43 18.0751 43 12C43 5.92487 38.0751 1 32 1Z"></path>
<path fill="white" d="M16.1694 14.14C16.9374 13.476 17.5414 12.932 17.9814 12.508C18.4294 12.076 18.8014 11.628 19.0974 11.164C19.3934 10.7 19.5414 10.236 19.5414 9.772C19.5414 9.292 19.4254 8.916 19.1934 8.644C18.9694 8.372 18.6134 8.236 18.1254 8.236C17.6534 8.236 17.2854 8.388 17.0214 8.692C16.7654 8.988 16.6294 9.388 16.6134 9.892H15.2934C15.3174 8.98 15.5894 8.284 16.1094 7.804C16.6374 7.316 17.3054 7.072 18.1134 7.072C18.9854 7.072 19.6654 7.312 20.1534 7.792C20.6494 8.272 20.8974 8.912 20.8974 9.712C20.8974 10.288 20.7494 10.844 20.4534 11.38C20.1654 11.908 19.8174 12.384 19.4094 12.808C19.0094 13.224 18.4974 13.708 17.8734 14.26L17.3334 14.74H21.1374V15.88H15.3054V14.884L16.1694 14.14ZM22.3391 11.512C22.3391 10.128 22.5711 9.048 23.0351 8.272C23.5071 7.488 24.3151 7.096 25.4591 7.096C26.6031 7.096 27.4071 7.488 27.8711 8.272C28.3431 9.048 28.5791 10.128 28.5791 11.512C28.5791 12.912 28.3431 14.008 27.8711 14.8C27.4071 15.584 26.6031 15.976 25.4591 15.976C24.3151 15.976 23.5071 15.584 23.0351 14.8C22.5711 14.008 22.3391 12.912 22.3391 11.512ZM27.2351 11.512C27.2351 10.864 27.1911 10.316 27.1031 9.868C27.0231 9.42 26.8551 9.056 26.5991 8.776C26.3431 8.488 25.9631 8.344 25.4591 8.344C24.9551 8.344 24.5751 8.488 24.3191 8.776C24.0631 9.056 23.8911 9.42 23.8031 9.868C23.7231 10.316 23.6831 10.864 23.6831 11.512C23.6831 12.184 23.7231 12.748 23.8031 13.204C23.8831 13.66 24.0511 14.028 24.3071 14.308C24.5711 14.588 24.9551 14.728 25.4591 14.728C25.9631 14.728 26.3431 14.588 26.5991 14.308C26.8631 14.028 27.0351 13.66 27.1151 13.204C27.1951 12.748 27.2351 12.184 27.2351 11.512Z"></path>
</svg>
