<svg xmlns="http://www.w3.org/2000/svg" fill="none" viewBox="0 0 114 37" height="37" width="114">
<rect fill-opacity="0.05" fill="white" rx="5" height="37" width="114"></rect>
<path fill="white" d="M53.0953 15.917C53.0953 15.3817 53.2493 14.9637 53.5573 14.663C53.8726 14.355 54.276 14.201 54.7673 14.201C55.2586 14.201 55.6583 14.355 55.9663 14.663C56.2816 14.9637 56.4393 15.3817 56.4393 15.917C56.4393 16.4523 56.2816 16.874 55.9663 17.182C55.6583 17.49 55.2586 17.644 54.7673 17.644C54.276 17.644 53.8726 17.49 53.5573 17.182C53.2493 16.874 53.0953 16.4523 53.0953 15.917ZM59.8053 14.344L55.4163 22H54.1843L58.5733 14.344H59.8053ZM54.7673 14.96C54.3053 14.96 54.0743 15.279 54.0743 15.917C54.0743 16.5623 54.3053 16.885 54.7673 16.885C54.9873 16.885 55.156 16.808 55.2733 16.654C55.398 16.4927 55.4603 16.247 55.4603 15.917C55.4603 15.279 55.2293 14.96 54.7673 14.96ZM57.5723 20.416C57.5723 19.8807 57.7263 19.4627 58.0343 19.162C58.3496 18.854 58.753 18.7 59.2443 18.7C59.7283 18.7 60.1243 18.854 60.4323 19.162C60.7476 19.4627 60.9053 19.8807 60.9053 20.416C60.9053 20.9513 60.7476 21.373 60.4323 21.681C60.1243 21.989 59.7283 22.143 59.2443 22.143C58.753 22.143 58.3496 21.989 58.0343 21.681C57.7263 21.373 57.5723 20.9513 57.5723 20.416ZM59.2333 19.459C58.7713 19.459 58.5403 19.778 58.5403 20.416C58.5403 21.054 58.7713 21.373 59.2333 21.373C59.6953 21.373 59.9263 21.054 59.9263 20.416C59.9263 19.778 59.6953 19.459 59.2333 19.459Z"></path>
</svg>
