<svg xmlns="http://www.w3.org/2000/svg" fill="none" viewBox="0 0 122 142" height="142" width="122">
<path fill-opacity="0.9" fill="#CCCCCC" d="M1 11C1 5.47716 5.47715 1 11 1H111C116.523 1 121 5.47715 121 11V131C121 136.523 116.523 141 111 141H11C5.47715 141 1 136.523 1 131V11Z"></path>
<path stroke-opacity="0.2" stroke="white" d="M111 0.5H11C5.20101 0.5 0.5 5.20101 0.5 11V131C0.5 136.799 5.20101 141.5 11 141.5H111C116.799 141.5 121.5 136.799 121.5 131V11C121.5 5.20101 116.799 0.5 111 0.5Z"></path>
<path fill="#A07C7C" d="M1 11C1 5.47715 5.47715 1 11 1H111C116.523 1 121 5.47715 121 11V81H1V11Z"></path>
<path fill-opacity="0.5" fill="white" d="M1 11C1 5.47715 5.47715 1 11 1H111C116.523 1 121 5.47715 121 11V81H1V11Z"></path>
<path fill="#FF8067" d="M60.3417 57.9427V56.6285L59.024 57.2856L57.7064 56.6285V55.3142L62.977 52.6856V48.7427L64.2946 49.3999L65.6123 48.7427V52.6856L68.2476 53.9999V55.3142L61.6593 58.5999L60.3417 57.9427Z"></path>
<path fill="#FF8067" d="M53.7535 54.657V53.3427L52.4358 53.9999L51.1182 53.3427V52.0285L56.3888 49.3999V45.457L57.7064 46.1142L59.024 45.457V49.3999L61.6593 50.7142V52.0285L55.0711 55.3142L53.7535 54.657Z"></path>
<path fill="#FF956F" d="M51.1182 52.0285L52.4358 52.6856V53.9999L51.1182 53.3428V52.0285Z"></path>
<path fill="#FF956F" d="M53.7535 53.3428L55.0711 53.9999V55.3142L53.7535 54.657V53.3428Z"></path>
<path fill="#FF956F" d="M57.7064 55.3142L59.024 55.9713V57.2856L57.7064 56.6285V55.3142Z"></path>
<path fill="#FF956F" d="M60.3417 56.6285L61.6593 57.2856V58.5999L60.3417 57.9428V56.6285Z"></path>
<path fill="#FF956F" d="M55.0711 51.3713L56.3888 52.0285L55.0711 52.6856V51.3713Z"></path>
<path fill="#FF956F" d="M61.6593 54.657L62.977 55.3142L61.6593 55.9713V54.657Z"></path>
<path fill="#FF956F" d="M62.977 48.7427L64.2946 49.3999V54.657L62.977 53.9999V48.7427Z"></path>
<path fill="#FF956F" d="M56.3888 45.457L57.7064 46.1142V51.3713L56.3888 50.7142V45.457Z"></path>
<path fill="#EC5957" d="M55.0699 51.3712L52.4346 52.6855V53.9998L55.0699 52.6855V51.3712Z"></path>
<path fill="#EC5957" d="M61.6581 50.7141L55.0699 53.9998V55.3141L61.6581 52.0283V50.7141Z"></path>
<path fill="#EC5957" d="M61.6581 54.6569L59.0228 55.9712V57.2855L61.6581 55.9712V54.6569Z"></path>
<path fill="#EC5957" d="M68.2463 53.9998L61.6581 57.2855V58.5998L68.2463 55.314V53.9998Z"></path>
<path fill="#EC5957" d="M65.611 48.7426L64.2934 49.3998V54.6569L65.611 53.9998V48.7426Z"></path>
<path fill="#EC5957" d="M59.0228 45.457L57.7052 46.1142V51.3713L59.0228 50.7142V45.457Z"></path>
<path fill="white" d="M51.1182 48.0856V27.057L60.3417 22.457L68.2476 26.3999V34.2856L72.2005 36.257V46.7713L64.2946 50.7142L62.977 50.057L59.024 52.0284L51.1182 48.0856Z"></path>
<path fill="#F5E4EE" d="M59.0234 30.9999L68.247 26.3999V39.5428L72.1999 37.5713L70.8823 36.9142L72.1999 36.257V46.7713L64.294 50.7142V45.457L72.1999 41.5142L69.5646 40.1999L61.6587 44.1428V49.3999L62.9764 50.057L59.0234 52.0285V30.9999Z"></path>
<path fill="#FF5D94" d="M55.0692 27.7141V24.4284L60.3397 21.7998L62.975 23.1141V26.3998L57.7044 29.0284L55.0692 27.7141Z"></path>
<path fill="#FF5D94" d="M51.1162 39.5427V36.2569L53.7515 34.9427L56.3868 36.2569V39.5427L53.7515 40.8569L51.1162 39.5427Z"></path>
<path fill="#FF6EA5" d="M57.7064 25.7425L55.0711 24.4282V27.7139L57.7064 29.0282V25.7425Z"></path>
<path fill="#FF6EA5" d="M53.7535 37.5711L51.1182 36.2568V39.5425L53.7535 40.8568V37.5711Z"></path>
<path fill="#FF8067" d="M49.7988 36.9144V33.6287L53.7518 31.6572L56.3871 32.9715V36.2572L52.4341 38.2287L49.7988 36.9144Z"></path>
<path fill="#EC5957" d="M56.3876 32.9712L52.4346 34.9426L52.4346 38.2283L56.3876 36.2569L56.3876 32.9712Z"></path>
<path fill="#FF956F" d="M49.7988 33.6289L52.4342 34.9432L52.4343 38.229L49.7989 36.9146L49.7988 33.6289Z"></path>
<path fill="#E53C75" d="M57.7049 25.7428L62.9755 23.1143V26.4L57.7049 29.0285V25.7428Z"></path>
<path fill="#E53C75" d="M53.752 37.5714L56.3872 36.2571V39.5428L53.752 40.8571V37.5714Z"></path>
<path fill="#2F0020" d="M61.6582 32.9711L62.9759 32.314V33.6283L61.6582 34.2854V32.9711Z"></path>
<path fill="black" d="M11.407 96.161C11.407 95.413 11.5793 94.742 11.924 94.148C12.276 93.554 12.749 93.092 13.343 92.762C13.9443 92.4247 14.6007 92.256 15.312 92.256C16.126 92.256 16.8483 92.4577 17.479 92.861C18.117 93.257 18.579 93.8217 18.865 94.555H17.358C17.16 94.1517 16.885 93.851 16.533 93.653C16.181 93.455 15.774 93.356 15.312 93.356C14.806 93.356 14.355 93.4697 13.959 93.697C13.563 93.9243 13.2513 94.2507 13.024 94.676C12.804 95.1013 12.694 95.5963 12.694 96.161C12.694 96.7257 12.804 97.2207 13.024 97.646C13.2513 98.0713 13.563 98.4013 13.959 98.636C14.355 98.8633 14.806 98.977 15.312 98.977C15.774 98.977 16.181 98.878 16.533 98.68C16.885 98.482 17.16 98.1813 17.358 97.778H18.865C18.579 98.5113 18.117 99.076 17.479 99.472C16.8483 99.868 16.126 100.066 15.312 100.066C14.5933 100.066 13.937 99.901 13.343 99.571C12.749 99.2337 12.276 98.768 11.924 98.174C11.5793 97.58 11.407 96.909 11.407 96.161ZM21.5868 94.819C21.7701 94.511 22.0121 94.2727 22.3128 94.104C22.6208 93.928 22.9838 93.84 23.4018 93.84V95.138H23.0828C22.5915 95.138 22.2175 95.2627 21.9608 95.512C21.7115 95.7613 21.5868 96.194 21.5868 96.81V100H20.3328V93.939H21.5868V94.819ZM27.1835 100.099C26.6115 100.099 26.0945 99.9707 25.6325 99.714C25.1705 99.45 24.8075 99.0833 24.5435 98.614C24.2795 98.1373 24.1475 97.5873 24.1475 96.964C24.1475 96.348 24.2832 95.8017 24.5545 95.325C24.8258 94.8483 25.1962 94.4817 25.6655 94.225C26.1348 93.9683 26.6592 93.84 27.2385 93.84C27.8178 93.84 28.3422 93.9683 28.8115 94.225C29.2808 94.4817 29.6512 94.8483 29.9225 95.325C30.1938 95.8017 30.3295 96.348 30.3295 96.964C30.3295 97.58 30.1902 98.1263 29.9115 98.603C29.6328 99.0797 29.2515 99.45 28.7675 99.714C28.2908 99.9707 27.7628 100.099 27.1835 100.099ZM27.1835 99.01C27.5062 99.01 27.8068 98.933 28.0855 98.779C28.3715 98.625 28.6025 98.394 28.7785 98.086C28.9545 97.778 29.0425 97.404 29.0425 96.964C29.0425 96.524 28.9582 96.1537 28.7895 95.853C28.6208 95.545 28.3972 95.314 28.1185 95.16C27.8398 95.006 27.5392 94.929 27.2165 94.929C26.8938 94.929 26.5932 95.006 26.3145 95.16C26.0432 95.314 25.8268 95.545 25.6655 95.853C25.5042 96.1537 25.4235 96.524 25.4235 96.964C25.4235 97.6167 25.5885 98.1227 25.9185 98.482C26.2558 98.834 26.6775 99.01 27.1835 99.01ZM33.7691 100.099C33.2925 100.099 32.8635 100.015 32.4821 99.846C32.1081 99.67 31.8111 99.4353 31.5911 99.142C31.3711 98.8413 31.2538 98.5077 31.2391 98.141H32.5371C32.5591 98.3977 32.6801 98.614 32.9001 98.79C33.1275 98.9587 33.4098 99.043 33.7471 99.043C34.0991 99.043 34.3705 98.977 34.5611 98.845C34.7591 98.7057 34.8581 98.5297 34.8581 98.317C34.8581 98.0897 34.7481 97.921 34.5281 97.811C34.3155 97.701 33.9745 97.58 33.5051 97.448C33.0505 97.3233 32.6801 97.2023 32.3941 97.085C32.1081 96.9677 31.8588 96.788 31.6461 96.546C31.4408 96.304 31.3381 95.985 31.3381 95.589C31.3381 95.2663 31.4335 94.973 31.6241 94.709C31.8148 94.4377 32.0861 94.225 32.4381 94.071C32.7975 93.917 33.2081 93.84 33.6701 93.84C34.3595 93.84 34.9131 94.016 35.3311 94.368C35.7565 94.7127 35.9838 95.1857 36.0131 95.787H34.7591C34.7371 95.5157 34.6271 95.2993 34.4291 95.138C34.2311 94.9767 33.9635 94.896 33.6261 94.896C33.2961 94.896 33.0431 94.9583 32.8671 95.083C32.6911 95.2077 32.6031 95.3727 32.6031 95.578C32.6031 95.7393 32.6618 95.875 32.7791 95.985C32.8965 96.095 33.0395 96.183 33.2081 96.249C33.3768 96.3077 33.6261 96.3847 33.9561 96.48C34.3961 96.5973 34.7555 96.7183 35.0341 96.843C35.3201 96.9603 35.5658 97.1363 35.7711 97.371C35.9765 97.6057 36.0828 97.9173 36.0901 98.306C36.0901 98.6507 35.9948 98.9587 35.8041 99.23C35.6135 99.5013 35.3421 99.714 34.9901 99.868C34.6455 100.022 34.2385 100.099 33.7691 100.099ZM39.6451 100.099C39.1685 100.099 38.7395 100.015 38.3581 99.846C37.9841 99.67 37.6871 99.4353 37.4671 99.142C37.2471 98.8413 37.1298 98.5077 37.1151 98.141H38.4131C38.4351 98.3977 38.5561 98.614 38.7761 98.79C39.0035 98.9587 39.2858 99.043 39.6231 99.043C39.9751 99.043 40.2465 98.977 40.4371 98.845C40.6351 98.7057 40.7341 98.5297 40.7341 98.317C40.7341 98.0897 40.6241 97.921 40.4041 97.811C40.1915 97.701 39.8505 97.58 39.3811 97.448C38.9265 97.3233 38.5561 97.2023 38.2701 97.085C37.9841 96.9677 37.7348 96.788 37.5221 96.546C37.3168 96.304 37.2141 95.985 37.2141 95.589C37.2141 95.2663 37.3095 94.973 37.5001 94.709C37.6908 94.4377 37.9621 94.225 38.3141 94.071C38.6735 93.917 39.0841 93.84 39.5461 93.84C40.2355 93.84 40.7891 94.016 41.2071 94.368C41.6325 94.7127 41.8598 95.1857 41.8891 95.787H40.6351C40.6131 95.5157 40.5031 95.2993 40.3051 95.138C40.1071 94.9767 39.8395 94.896 39.5021 94.896C39.1721 94.896 38.9191 94.9583 38.7431 95.083C38.5671 95.2077 38.4791 95.3727 38.4791 95.578C38.4791 95.7393 38.5378 95.875 38.6551 95.985C38.7725 96.095 38.9155 96.183 39.0841 96.249C39.2528 96.3077 39.5021 96.3847 39.8321 96.48C40.2721 96.5973 40.6315 96.7183 40.9101 96.843C41.1961 96.9603 41.4418 97.1363 41.6471 97.371C41.8525 97.6057 41.9588 97.9173 41.9661 98.306C41.9661 98.6507 41.8708 98.9587 41.6801 99.23C41.4895 99.5013 41.2181 99.714 40.8661 99.868C40.5215 100.022 40.1145 100.099 39.6451 100.099ZM48.7771 93.939L45.0591 102.849H43.7611L44.9931 99.901L42.6061 93.939H44.0031L45.7081 98.559L47.4791 93.939H48.7771ZM56.5519 100L54.7919 96.942H53.8349V100H52.5809V92.355H55.2209C55.8075 92.355 56.3025 92.4577 56.7059 92.663C57.1165 92.8683 57.4209 93.1433 57.6189 93.488C57.8242 93.8327 57.9269 94.2177 57.9269 94.643C57.9269 95.1417 57.7802 95.5963 57.4869 96.007C57.2009 96.4103 56.7572 96.6853 56.1559 96.832L58.0479 100H56.5519ZM53.8349 95.941H55.2209C55.6902 95.941 56.0422 95.8237 56.2769 95.589C56.5189 95.3543 56.6399 95.039 56.6399 94.643C56.6399 94.247 56.5225 93.939 56.2879 93.719C56.0532 93.4917 55.6975 93.378 55.2209 93.378H53.8349V95.941ZM62.1601 100.099C61.5881 100.099 61.0711 99.9707 60.6091 99.714C60.1471 99.45 59.7841 99.0833 59.5201 98.614C59.2561 98.1373 59.1241 97.5873 59.1241 96.964C59.1241 96.348 59.2597 95.8017 59.5311 95.325C59.8024 94.8483 60.1727 94.4817 60.6421 94.225C61.1114 93.9683 61.6357 93.84 62.2151 93.84C62.7944 93.84 63.3187 93.9683 63.7881 94.225C64.2574 94.4817 64.6277 94.8483 64.8991 95.325C65.1704 95.8017 65.3061 96.348 65.3061 96.964C65.3061 97.58 65.1667 98.1263 64.8881 98.603C64.6094 99.0797 64.2281 99.45 63.7441 99.714C63.2674 99.9707 62.7394 100.099 62.1601 100.099ZM62.1601 99.01C62.4827 99.01 62.7834 98.933 63.0621 98.779C63.3481 98.625 63.5791 98.394 63.7551 98.086C63.9311 97.778 64.0191 97.404 64.0191 96.964C64.0191 96.524 63.9347 96.1537 63.7661 95.853C63.5974 95.545 63.3737 95.314 63.0951 95.16C62.8164 95.006 62.5157 94.929 62.1931 94.929C61.8704 94.929 61.5697 95.006 61.2911 95.16C61.0197 95.314 60.8034 95.545 60.6421 95.853C60.4807 96.1537 60.4001 96.524 60.4001 96.964C60.4001 97.6167 60.5651 98.1227 60.8951 98.482C61.2324 98.834 61.6541 99.01 62.1601 99.01ZM66.1277 96.942C66.1277 96.3333 66.2524 95.7943 66.5017 95.325C66.7584 94.8557 67.103 94.4927 67.5357 94.236C67.9757 93.972 68.4597 93.84 68.9877 93.84C69.4644 93.84 69.8787 93.9353 70.2307 94.126C70.59 94.3093 70.876 94.5403 71.0887 94.819V93.939H72.3537V100H71.0887V99.098C70.876 99.384 70.5864 99.6223 70.2197 99.813C69.853 100.004 69.435 100.099 68.9657 100.099C68.445 100.099 67.9684 99.967 67.5357 99.703C67.103 99.4317 66.7584 99.0577 66.5017 98.581C66.2524 98.097 66.1277 97.5507 66.1277 96.942ZM71.0887 96.964C71.0887 96.546 71.0007 96.183 70.8247 95.875C70.656 95.567 70.4324 95.3323 70.1537 95.171C69.875 95.0097 69.5744 94.929 69.2517 94.929C68.929 94.929 68.6284 95.0097 68.3497 95.171C68.071 95.325 67.8437 95.556 67.6677 95.864C67.499 96.1647 67.4147 96.524 67.4147 96.942C67.4147 97.36 67.499 97.7267 67.6677 98.042C67.8437 98.3573 68.071 98.5993 68.3497 98.768C68.6357 98.9293 68.9364 99.01 69.2517 99.01C69.5744 99.01 69.875 98.9293 70.1537 98.768C70.4324 98.6067 70.656 98.372 70.8247 98.064C71.0007 97.7487 71.0887 97.382 71.0887 96.964ZM73.5828 96.942C73.5828 96.3333 73.7074 95.7943 73.9568 95.325C74.2134 94.8557 74.5581 94.4927 74.9908 94.236C75.4308 93.972 75.9184 93.84 76.4538 93.84C76.8498 93.84 77.2384 93.928 77.6198 94.104C78.0084 94.2727 78.3164 94.5 78.5438 94.786V91.86H79.8088V100H78.5438V99.087C78.3384 99.3803 78.0524 99.6223 77.6858 99.813C77.3264 100.004 76.9121 100.099 76.4428 100.099C75.9148 100.099 75.4308 99.967 74.9908 99.703C74.5581 99.4317 74.2134 99.0577 73.9568 98.581C73.7074 98.097 73.5828 97.5507 73.5828 96.942ZM78.5438 96.964C78.5438 96.546 78.4558 96.183 78.2798 95.875C78.1111 95.567 77.8874 95.3323 77.6088 95.171C77.3301 95.0097 77.0294 94.929 76.7068 94.929C76.3841 94.929 76.0834 95.0097 75.8048 95.171C75.5261 95.325 75.2988 95.556 75.1228 95.864C74.9541 96.1647 74.8698 96.524 74.8698 96.942C74.8698 97.36 74.9541 97.7267 75.1228 98.042C75.2988 98.3573 75.5261 98.5993 75.8048 98.768C76.0908 98.9293 76.3914 99.01 76.7068 99.01C77.0294 99.01 77.3301 98.9293 77.6088 98.768C77.8874 98.6067 78.1111 98.372 78.2798 98.064C78.4558 97.7487 78.5438 97.382 78.5438 96.964Z"></path>
<path fill-opacity="0.05" fill="black" d="M61 116C61 113.239 63.2386 111 66 111H106C108.761 111 111 113.239 111 116V126C111 128.761 108.761 131 106 131H66C63.2386 131 61 128.761 61 126V116Z"></path>
<path fill="black" d="M77.2186 119.545C77.0566 119.233 76.8316 118.999 76.5436 118.843C76.2556 118.681 75.9226 118.6 75.5446 118.6C75.1306 118.6 74.7616 118.693 74.4376 118.879C74.1136 119.065 73.8586 119.329 73.6726 119.671C73.4926 120.013 73.4026 120.409 73.4026 120.859C73.4026 121.309 73.4926 121.708 73.6726 122.056C73.8586 122.398 74.1136 122.662 74.4376 122.848C74.7616 123.034 75.1306 123.127 75.5446 123.127C76.1026 123.127 76.5556 122.971 76.9036 122.659C77.2516 122.347 77.4646 121.924 77.5426 121.39H75.1936V120.571H78.6406V121.372C78.5746 121.858 78.4006 122.305 78.1186 122.713C77.8426 123.121 77.4796 123.448 77.0296 123.694C76.5856 123.934 76.0906 124.054 75.5446 124.054C74.9566 124.054 74.4196 123.919 73.9336 123.649C73.4476 123.373 73.0606 122.992 72.7726 122.506C72.4906 122.02 72.3496 121.471 72.3496 120.859C72.3496 120.247 72.4906 119.698 72.7726 119.212C73.0606 118.726 73.4476 118.348 73.9336 118.078C74.4256 117.802 74.9626 117.664 75.5446 117.664C76.2106 117.664 76.8016 117.829 77.3176 118.159C77.8396 118.483 78.2176 118.945 78.4516 119.545H77.2186ZM79.3105 121.498C79.3105 121 79.4125 120.559 79.6165 120.175C79.8265 119.791 80.1085 119.494 80.4625 119.284C80.8225 119.068 81.2185 118.96 81.6505 118.96C82.0405 118.96 82.3795 119.038 82.6675 119.194C82.9615 119.344 83.1955 119.533 83.3695 119.761V119.041H84.4045V124H83.3695V123.262C83.1955 123.496 82.9585 123.691 82.6585 123.847C82.3585 124.003 82.0165 124.081 81.6325 124.081C81.2065 124.081 80.8165 123.973 80.4625 123.757C80.1085 123.535 79.8265 123.229 79.6165 122.839C79.4125 122.443 79.3105 121.996 79.3105 121.498ZM83.3695 121.516C83.3695 121.174 83.2975 120.877 83.1535 120.625C83.0155 120.373 82.8325 120.181 82.6045 120.049C82.3765 119.917 82.1305 119.851 81.8665 119.851C81.6025 119.851 81.3565 119.917 81.1285 120.049C80.9005 120.175 80.7145 120.364 80.5705 120.616C80.4325 120.862 80.3635 121.156 80.3635 121.498C80.3635 121.84 80.4325 122.14 80.5705 122.398C80.7145 122.656 80.9005 122.854 81.1285 122.992C81.3625 123.124 81.6085 123.19 81.8665 123.19C82.1305 123.19 82.3765 123.124 82.6045 122.992C82.8325 122.86 83.0155 122.668 83.1535 122.416C83.2975 122.158 83.3695 121.858 83.3695 121.516ZM91.7551 118.96C92.1451 118.96 92.4931 119.041 92.7991 119.203C93.1111 119.365 93.3541 119.605 93.5281 119.923C93.7081 120.241 93.7981 120.625 93.7981 121.075V124H92.7811V121.228C92.7811 120.784 92.6701 120.445 92.4481 120.211C92.2261 119.971 91.9231 119.851 91.5391 119.851C91.1551 119.851 90.8491 119.971 90.6211 120.211C90.3991 120.445 90.2881 120.784 90.2881 121.228V124H89.2711V121.228C89.2711 120.784 89.1601 120.445 88.9381 120.211C88.7161 119.971 88.4131 119.851 88.0291 119.851C87.6451 119.851 87.3391 119.971 87.1111 120.211C86.8891 120.445 86.7781 120.784 86.7781 121.228V124H85.7521V119.041H86.7781V119.608C86.9461 119.404 87.1591 119.245 87.4171 119.131C87.6751 119.017 87.9511 118.96 88.2451 118.96C88.6411 118.96 88.9951 119.044 89.3071 119.212C89.6191 119.38 89.8591 119.623 90.0271 119.941C90.1771 119.641 90.4111 119.404 90.7291 119.23C91.0471 119.05 91.3891 118.96 91.7551 118.96ZM99.6487 121.399C99.6487 121.585 99.6367 121.753 99.6127 121.903H95.8237C95.8537 122.299 96.0007 122.617 96.2647 122.857C96.5287 123.097 96.8527 123.217 97.2367 123.217C97.7887 123.217 98.1787 122.986 98.4067 122.524H99.5137C99.3637 122.98 99.0907 123.355 98.6947 123.649C98.3047 123.937 97.8187 124.081 97.2367 124.081C96.7627 124.081 96.3367 123.976 95.9587 123.766C95.5867 123.55 95.2927 123.25 95.0767 122.866C94.8667 122.476 94.7617 122.026 94.7617 121.516C94.7617 121.006 94.8637 120.559 95.0677 120.175C95.2777 119.785 95.5687 119.485 95.9407 119.275C96.3187 119.065 96.7507 118.96 97.2367 118.96C97.7047 118.96 98.1217 119.062 98.4877 119.266C98.8537 119.47 99.1387 119.758 99.3427 120.13C99.5467 120.496 99.6487 120.919 99.6487 121.399ZM98.5777 121.075C98.5717 120.697 98.4367 120.394 98.1727 120.166C97.9087 119.938 97.5817 119.824 97.1917 119.824C96.8377 119.824 96.5347 119.938 96.2827 120.166C96.0307 120.388 95.8807 120.691 95.8327 121.075H98.5777Z"></path>
</svg>
