<svg xmlns="http://www.w3.org/2000/svg" fill="none" viewBox="0 0 164 64" height="64" width="164">
<rect fill="#1A1A1A" rx="5" height="60" width="160" y="2" x="2"></rect>
<rect stroke-width="2" stroke-opacity="0.2" stroke="white" rx="6" height="62" width="162" y="1" x="1"></rect>
<path fill="white" d="M67.764 28.355V29.378H65.729V36H64.475V29.378H62.429V28.355H67.764ZM74.523 29.939V36H73.269V35.285C73.071 35.5343 72.8107 35.7323 72.488 35.879C72.1727 36.0183 71.8353 36.088 71.476 36.088C70.9993 36.088 70.5703 35.989 70.189 35.791C69.815 35.593 69.518 35.2997 69.298 34.911C69.0853 34.5223 68.979 34.053 68.979 33.503V29.939H70.222V33.316C70.222 33.8587 70.3577 34.2767 70.629 34.57C70.9003 34.856 71.2707 34.999 71.74 34.999C72.2093 34.999 72.5797 34.856 72.851 34.57C73.1297 34.2767 73.269 33.8587 73.269 33.316V29.939H74.523ZM77.4315 30.819C77.6149 30.511 77.8569 30.2727 78.1575 30.104C78.4655 29.928 78.8285 29.84 79.2465 29.84V31.138H78.9275C78.4362 31.138 78.0622 31.2627 77.8055 31.512C77.5562 31.7613 77.4315 32.194 77.4315 32.81V36H76.1775V29.939H77.4315V30.819ZM83.4572 29.84C83.9339 29.84 84.3592 29.939 84.7332 30.137C85.1146 30.335 85.4116 30.6283 85.6242 31.017C85.8369 31.4057 85.9432 31.875 85.9432 32.425V36H84.7002V32.612C84.7002 32.0693 84.5646 31.655 84.2932 31.369C84.0219 31.0757 83.6516 30.929 83.1822 30.929C82.7129 30.929 82.3389 31.0757 82.0602 31.369C81.7889 31.655 81.6532 32.0693 81.6532 32.612V36H80.3992V29.939H81.6532V30.632C81.8586 30.3827 82.1189 30.1883 82.4342 30.049C82.7569 29.9097 83.0979 29.84 83.4572 29.84ZM93.0292 36.099C92.4572 36.099 91.9402 35.9707 91.4782 35.714C91.0162 35.45 90.6532 35.0833 90.3892 34.614C90.1252 34.1373 89.9932 33.5873 89.9932 32.964C89.9932 32.348 90.1289 31.8017 90.4002 31.325C90.6715 30.8483 91.0419 30.4817 91.5112 30.225C91.9805 29.9683 92.5049 29.84 93.0842 29.84C93.6635 29.84 94.1879 29.9683 94.6572 30.225C95.1265 30.4817 95.4969 30.8483 95.7682 31.325C96.0395 31.8017 96.1752 32.348 96.1752 32.964C96.1752 33.58 96.0359 34.1263 95.7572 34.603C95.4785 35.0797 95.0972 35.45 94.6132 35.714C94.1365 35.9707 93.6085 36.099 93.0292 36.099ZM93.0292 35.01C93.3519 35.01 93.6525 34.933 93.9312 34.779C94.2172 34.625 94.4482 34.394 94.6242 34.086C94.8002 33.778 94.8882 33.404 94.8882 32.964C94.8882 32.524 94.8039 32.1537 94.6352 31.853C94.4665 31.545 94.2429 31.314 93.9642 31.16C93.6855 31.006 93.3849 30.929 93.0622 30.929C92.7395 30.929 92.4389 31.006 92.1602 31.16C91.8889 31.314 91.6725 31.545 91.5112 31.853C91.3499 32.1537 91.2692 32.524 91.2692 32.964C91.2692 33.6167 91.4342 34.1227 91.7642 34.482C92.1015 34.834 92.5232 35.01 93.0292 35.01ZM99.9558 30.962H98.8338V36H97.5688V30.962H96.8538V29.939H97.5688V29.51C97.5688 28.8133 97.7522 28.3073 98.1188 27.992C98.4928 27.6693 99.0758 27.508 99.8678 27.508V28.553C99.4865 28.553 99.2188 28.6263 99.0648 28.773C98.9108 28.9123 98.8338 29.158 98.8338 29.51V29.939H99.9558V30.962ZM103.608 30.962H102.486V36H101.221V30.962H100.506V29.939H101.221V29.51C101.221 28.8133 101.405 28.3073 101.771 27.992C102.145 27.6693 102.728 27.508 103.52 27.508V28.553C103.139 28.553 102.871 28.6263 102.717 28.773C102.563 28.9123 102.486 29.158 102.486 29.51V29.939H103.608V30.962ZM113.033 29.939L109.315 38.849H108.017L109.249 35.901L106.862 29.939H108.259L109.964 34.559L111.735 29.939H113.033ZM116.608 36.099C116.036 36.099 115.519 35.9707 115.057 35.714C114.595 35.45 114.232 35.0833 113.968 34.614C113.704 34.1373 113.572 33.5873 113.572 32.964C113.572 32.348 113.708 31.8017 113.979 31.325C114.251 30.8483 114.621 30.4817 115.09 30.225C115.56 29.9683 116.084 29.84 116.663 29.84C117.243 29.84 117.767 29.9683 118.236 30.225C118.706 30.4817 119.076 30.8483 119.347 31.325C119.619 31.8017 119.754 32.348 119.754 32.964C119.754 33.58 119.615 34.1263 119.336 34.603C119.058 35.0797 118.676 35.45 118.192 35.714C117.716 35.9707 117.188 36.099 116.608 36.099ZM116.608 35.01C116.931 35.01 117.232 34.933 117.51 34.779C117.796 34.625 118.027 34.394 118.203 34.086C118.379 33.778 118.467 33.404 118.467 32.964C118.467 32.524 118.383 32.1537 118.214 31.853C118.046 31.545 117.822 31.314 117.543 31.16C117.265 31.006 116.964 30.929 116.641 30.929C116.319 30.929 116.018 31.006 115.739 31.16C115.468 31.314 115.252 31.545 115.09 31.853C114.929 32.1537 114.848 32.524 114.848 32.964C114.848 33.6167 115.013 34.1227 115.343 34.482C115.681 34.834 116.102 35.01 116.608 35.01ZM126.483 29.939V36H125.229V35.285C125.031 35.5343 124.771 35.7323 124.448 35.879C124.133 36.0183 123.795 36.088 123.436 36.088C122.959 36.088 122.53 35.989 122.149 35.791C121.775 35.593 121.478 35.2997 121.258 34.911C121.045 34.5223 120.939 34.053 120.939 33.503V29.939H122.182V33.316C122.182 33.8587 122.318 34.2767 122.589 34.57C122.86 34.856 123.231 34.999 123.7 34.999C124.169 34.999 124.54 34.856 124.811 34.57C125.09 34.2767 125.229 33.8587 125.229 33.316V29.939H126.483ZM129.392 30.819C129.575 30.511 129.817 30.2727 130.118 30.104C130.426 29.928 130.789 29.84 131.207 29.84V31.138H130.888C130.396 31.138 130.022 31.2627 129.766 31.512C129.516 31.7613 129.392 32.194 129.392 32.81V36H128.138V29.939H129.392V30.819ZM140.563 30.632C140.563 31.0207 140.471 31.3873 140.288 31.732C140.104 32.0767 139.811 32.359 139.408 32.579C139.004 32.7917 138.487 32.898 137.857 32.898H136.471V36H135.217V28.355H137.857C138.443 28.355 138.938 28.4577 139.342 28.663C139.752 28.861 140.057 29.1323 140.255 29.477C140.46 29.8217 140.563 30.2067 140.563 30.632ZM137.857 31.875C138.333 31.875 138.689 31.7687 138.924 31.556C139.158 31.336 139.276 31.028 139.276 30.632C139.276 29.796 138.803 29.378 137.857 29.378H136.471V31.875H137.857ZM141.341 32.161C141.341 31.413 141.513 30.742 141.858 30.148C142.21 29.554 142.683 29.092 143.277 28.762C143.878 28.4247 144.534 28.256 145.246 28.256C146.06 28.256 146.782 28.4577 147.413 28.861C148.051 29.257 148.513 29.8217 148.799 30.555H147.292C147.094 30.1517 146.819 29.851 146.467 29.653C146.115 29.455 145.708 29.356 145.246 29.356C144.74 29.356 144.289 29.4697 143.893 29.697C143.497 29.9243 143.185 30.2507 142.958 30.676C142.738 31.1013 142.628 31.5963 142.628 32.161C142.628 32.7257 142.738 33.2207 142.958 33.646C143.185 34.0713 143.497 34.4013 143.893 34.636C144.289 34.8633 144.74 34.977 145.246 34.977C145.708 34.977 146.115 34.878 146.467 34.68C146.819 34.482 147.094 34.1813 147.292 33.778H148.799C148.513 34.5113 148.051 35.076 147.413 35.472C146.782 35.868 146.06 36.066 145.246 36.066C144.527 36.066 143.871 35.901 143.277 35.571C142.683 35.2337 142.21 34.768 141.858 34.174C141.513 33.58 141.341 32.909 141.341 32.161Z"></path>
<path stroke-linejoin="round" stroke-linecap="round" stroke="white" d="M36 25.0718C37.5251 25.9523 38.7171 27.3115 39.391 28.9385C40.065 30.5656 40.1832 32.3695 39.7274 34.0706C39.2716 35.7716 38.2672 37.2748 36.8701 38.3468C35.4729 39.4189 33.7611 40 32 40C30.2389 40 28.5271 39.4189 27.1299 38.3468C25.7328 37.2748 24.7284 35.7716 24.2726 34.0706C23.8168 32.3695 23.935 30.5656 24.609 28.9385C25.2829 27.3115 26.4749 25.9523 28 25.0718"></path>
<path fill="white" d="M31.5 23.5C31.5 23.2239 31.7239 23 32 23C32.2761 23 32.5 23.2239 32.5 23.5V29.5C32.5 29.7761 32.2761 30 32 30C31.7239 30 31.5 29.7761 31.5 29.5V23.5Z"></path>
</svg>
