<svg version="1.1" xmlns="http://www.w3.org/2000/svg" xmlns:xlink="http://www.w3.org/1999/xlink" width="40" height="20" viewBox="0,0,40,20"><g transform="translate(-220,-167)"><g data-paper-data="{&quot;isPaintingLayer&quot;:true}" fill-rule="nonzero" stroke="none" stroke-width="1" stroke-linecap="butt" stroke-linejoin="miter" stroke-miterlimit="10" stroke-dasharray="" stroke-dashoffset="0" style="mix-blend-mode: normal"><path d="M220,187v-20h40v20z" fill="none"></path><path d="M241.476,178.14c0.768,-0.664 1.372,-1.208 1.812,-1.632c0.448,-0.432 0.82,-0.88 1.116,-1.344c0.296,-0.464 0.444,-0.928 0.444,-1.392c0,-0.48 -0.116,-0.856 -0.348,-1.128c-0.224,-0.272 -0.58,-0.408 -1.068,-0.408c-0.472,0 -0.84,0.152 -1.104,0.456c-0.256,0.296 -0.392,0.696 -0.408,1.2h-1.32c0.024,-0.912 0.296,-1.608 0.816,-2.088c0.528,-0.488 1.196,-0.732 2.004,-0.732c0.872,0 1.552,0.24 2.04,0.72c0.496,0.48 0.744,1.12 0.744,1.92c0,0.576 -0.148,1.132 -0.444,1.668c-0.288,0.528 -0.636,1.004 -1.044,1.428c-0.4,0.416 -0.912,0.9 -1.536,1.452l-0.54,0.48h3.804v1.14h-5.832v-0.996z" fill="#ff0000"></path></g></g></svg>