<svg xmlns="http://www.w3.org/2000/svg" fill="none" viewBox="0 0 480 360" height="360" width="480">
<path fill="white" d="M240.84 52.6C240.84 50.952 241.208 49.48 241.944 48.184C242.696 46.872 243.712 45.856 244.992 45.136C246.288 44.4 247.736 44.032 249.336 44.032C251.208 44.032 252.848 44.512 254.256 45.472C255.664 46.432 256.648 47.76 257.208 49.456H253.344C252.96 48.656 252.416 48.056 251.712 47.656C251.024 47.256 250.224 47.056 249.312 47.056C248.336 47.056 247.464 47.288 246.696 47.752C245.944 48.2 245.352 48.84 244.92 49.672C244.504 50.504 244.296 51.48 244.296 52.6C244.296 53.704 244.504 54.68 244.92 55.528C245.352 56.36 245.944 57.008 246.696 57.472C247.464 57.92 248.336 58.144 249.312 58.144C250.224 58.144 251.024 57.944 251.712 57.544C252.416 57.128 252.96 56.52 253.344 55.72H257.208C256.648 57.432 255.664 58.768 254.256 59.728C252.864 60.672 251.224 61.144 249.336 61.144C247.736 61.144 246.288 60.784 244.992 60.064C243.712 59.328 242.696 58.312 241.944 57.016C241.208 55.72 240.84 54.248 240.84 52.6ZM263.438 49.768C263.87 49.064 264.43 48.512 265.118 48.112C265.822 47.712 266.622 47.512 267.518 47.512V51.04H266.63C265.574 51.04 264.774 51.288 264.23 51.784C263.702 52.28 263.438 53.144 263.438 54.376V61H260.078V47.704H263.438V49.768ZM282.141 54.064C282.141 54.544 282.109 54.976 282.045 55.36H272.325C272.405 56.32 272.741 57.072 273.333 57.616C273.925 58.16 274.653 58.432 275.517 58.432C276.765 58.432 277.653 57.896 278.181 56.824H281.805C281.421 58.104 280.685 59.16 279.597 59.992C278.509 60.808 277.173 61.216 275.589 61.216C274.309 61.216 273.157 60.936 272.133 60.376C271.125 59.8 270.333 58.992 269.757 57.952C269.197 56.912 268.917 55.712 268.917 54.352C268.917 52.976 269.197 51.768 269.757 50.728C270.317 49.688 271.101 48.888 272.109 48.328C273.117 47.768 274.277 47.488 275.589 47.488C276.853 47.488 277.981 47.76 278.973 48.304C279.981 48.848 280.757 49.624 281.301 50.632C281.861 51.624 282.141 52.768 282.141 54.064ZM278.661 53.104C278.645 52.24 278.333 51.552 277.725 51.04C277.117 50.512 276.373 50.248 275.493 50.248C274.661 50.248 273.957 50.504 273.381 51.016C272.821 51.512 272.477 52.208 272.349 53.104H278.661ZM283.729 54.304C283.729 52.96 283.993 51.768 284.521 50.728C285.066 49.688 285.794 48.888 286.706 48.328C287.634 47.768 288.666 47.488 289.802 47.488C290.794 47.488 291.658 47.688 292.394 48.088C293.146 48.488 293.746 48.992 294.194 49.6V47.704H297.578V61H294.194V59.056C293.762 59.68 293.162 60.2 292.394 60.616C291.642 61.016 290.77 61.216 289.778 61.216C288.658 61.216 287.634 60.928 286.706 60.352C285.794 59.776 285.066 58.968 284.521 57.928C283.993 56.872 283.729 55.664 283.729 54.304ZM294.194 54.352C294.194 53.536 294.034 52.84 293.714 52.264C293.394 51.672 292.962 51.224 292.418 50.92C291.874 50.6 291.29 50.44 290.666 50.44C290.042 50.44 289.466 50.592 288.938 50.896C288.41 51.2 287.978 51.648 287.642 52.24C287.322 52.816 287.162 53.504 287.162 54.304C287.162 55.104 287.322 55.808 287.642 56.416C287.978 57.008 288.41 57.464 288.938 57.784C289.482 58.104 290.058 58.264 290.666 58.264C291.29 58.264 291.874 58.112 292.418 57.808C292.962 57.488 293.394 57.04 293.714 56.464C294.034 55.872 294.194 55.168 294.194 54.352ZM304.771 50.464V56.896C304.771 57.344 304.875 57.672 305.083 57.88C305.307 58.072 305.675 58.168 306.187 58.168H307.747V61H305.635C302.803 61 301.387 59.624 301.387 56.872V50.464H299.803V47.704H301.387V44.416H304.771V47.704H307.747V50.464H304.771ZM322.524 54.064C322.524 54.544 322.492 54.976 322.428 55.36H312.708C312.788 56.32 313.124 57.072 313.716 57.616C314.308 58.16 315.036 58.432 315.9 58.432C317.148 58.432 318.036 57.896 318.564 56.824H322.188C321.804 58.104 321.068 59.16 319.98 59.992C318.892 60.808 317.556 61.216 315.972 61.216C314.692 61.216 313.54 60.936 312.516 60.376C311.508 59.8 310.716 58.992 310.14 57.952C309.58 56.912 309.3 55.712 309.3 54.352C309.3 52.976 309.58 51.768 310.14 50.728C310.7 49.688 311.484 48.888 312.492 48.328C313.5 47.768 314.66 47.488 315.972 47.488C317.236 47.488 318.364 47.76 319.356 48.304C320.364 48.848 321.14 49.624 321.684 50.632C322.244 51.624 322.524 52.768 322.524 54.064ZM319.044 53.104C319.028 52.24 318.716 51.552 318.108 51.04C317.5 50.512 316.756 50.248 315.876 50.248C315.044 50.248 314.34 50.504 313.764 51.016C313.204 51.512 312.86 52.208 312.732 53.104H319.044ZM343.415 47.704L335.183 67.288H331.607L334.487 60.664L329.159 47.704H332.927L336.359 56.992L339.839 47.704H343.415ZM351.13 61.216C349.85 61.216 348.698 60.936 347.674 60.376C346.65 59.8 345.842 58.992 345.25 57.952C344.674 56.912 344.386 55.712 344.386 54.352C344.386 52.992 344.682 51.792 345.274 50.752C345.882 49.712 346.706 48.912 347.746 48.352C348.786 47.776 349.946 47.488 351.226 47.488C352.506 47.488 353.666 47.776 354.706 48.352C355.746 48.912 356.562 49.712 357.154 50.752C357.762 51.792 358.066 52.992 358.066 54.352C358.066 55.712 357.754 56.912 357.13 57.952C356.522 58.992 355.69 59.8 354.634 60.376C353.594 60.936 352.426 61.216 351.13 61.216ZM351.13 58.288C351.738 58.288 352.306 58.144 352.834 57.856C353.378 57.552 353.81 57.104 354.13 56.512C354.45 55.92 354.61 55.2 354.61 54.352C354.61 53.088 354.274 52.12 353.602 51.448C352.946 50.76 352.138 50.416 351.178 50.416C350.218 50.416 349.41 50.76 348.754 51.448C348.114 52.12 347.794 53.088 347.794 54.352C347.794 55.616 348.106 56.592 348.73 57.28C349.37 57.952 350.17 58.288 351.13 58.288ZM373.083 47.704V61H369.699V59.32C369.267 59.896 368.699 60.352 367.995 60.688C367.307 61.008 366.555 61.168 365.739 61.168C364.699 61.168 363.779 60.952 362.979 60.52C362.179 60.072 361.547 59.424 361.083 58.576C360.635 57.712 360.411 56.688 360.411 55.504V47.704H363.771V55.024C363.771 56.08 364.035 56.896 364.563 57.472C365.091 58.032 365.811 58.312 366.723 58.312C367.651 58.312 368.379 58.032 368.907 57.472C369.435 56.896 369.699 56.08 369.699 55.024V47.704H373.083ZM379.758 49.768C380.19 49.064 380.75 48.512 381.438 48.112C382.142 47.712 382.942 47.512 383.838 47.512V51.04H382.95C381.894 51.04 381.094 51.288 380.55 51.784C380.022 52.28 379.758 53.144 379.758 54.376V61H376.398V47.704H379.758V49.768ZM240.792 89.304C240.792 87.96 241.056 86.768 241.584 85.728C242.128 84.688 242.856 83.888 243.768 83.328C244.696 82.768 245.728 82.488 246.864 82.488C247.856 82.488 248.72 82.688 249.456 83.088C250.208 83.488 250.808 83.992 251.256 84.6V82.704H254.64V96H251.256V94.056C250.824 94.68 250.224 95.2 249.456 95.616C248.704 96.016 247.832 96.216 246.84 96.216C245.72 96.216 244.696 95.928 243.768 95.352C242.856 94.776 242.128 93.968 241.584 92.928C241.056 91.872 240.792 90.664 240.792 89.304ZM251.256 89.352C251.256 88.536 251.096 87.84 250.776 87.264C250.456 86.672 250.024 86.224 249.48 85.92C248.936 85.6 248.352 85.44 247.728 85.44C247.104 85.44 246.528 85.592 246 85.896C245.472 86.2 245.04 86.648 244.704 87.24C244.384 87.816 244.224 88.504 244.224 89.304C244.224 90.104 244.384 90.808 244.704 91.416C245.04 92.008 245.472 92.464 246 92.784C246.544 93.104 247.12 93.264 247.728 93.264C248.352 93.264 248.936 93.112 249.48 92.808C250.024 92.488 250.456 92.04 250.776 91.464C251.096 90.872 251.256 90.168 251.256 89.352ZM257.058 89.352C257.058 87.976 257.338 86.776 257.898 85.752C258.458 84.712 259.234 83.912 260.226 83.352C261.218 82.776 262.354 82.488 263.634 82.488C265.282 82.488 266.642 82.904 267.714 83.736C268.802 84.552 269.53 85.704 269.898 87.192H266.274C266.082 86.616 265.754 86.168 265.29 85.848C264.842 85.512 264.282 85.344 263.61 85.344C262.65 85.344 261.89 85.696 261.33 86.4C260.77 87.088 260.49 88.072 260.49 89.352C260.49 90.616 260.77 91.6 261.33 92.304C261.89 92.992 262.65 93.336 263.61 93.336C264.97 93.336 265.858 92.728 266.274 91.512H269.898C269.53 92.952 268.802 94.096 267.714 94.944C266.626 95.792 265.266 96.216 263.634 96.216C262.354 96.216 261.218 95.936 260.226 95.376C259.234 94.8 258.458 94 257.898 92.976C257.338 91.936 257.058 90.728 257.058 89.352ZM271.495 89.352C271.495 87.976 271.775 86.776 272.335 85.752C272.895 84.712 273.671 83.912 274.663 83.352C275.655 82.776 276.791 82.488 278.071 82.488C279.719 82.488 281.079 82.904 282.151 83.736C283.239 84.552 283.967 85.704 284.335 87.192H280.711C280.519 86.616 280.191 86.168 279.727 85.848C279.279 85.512 278.719 85.344 278.047 85.344C277.087 85.344 276.327 85.696 275.767 86.4C275.207 87.088 274.927 88.072 274.927 89.352C274.927 90.616 275.207 91.6 275.767 92.304C276.327 92.992 277.087 93.336 278.047 93.336C279.407 93.336 280.295 92.728 280.711 91.512H284.335C283.967 92.952 283.239 94.096 282.151 94.944C281.063 95.792 279.703 96.216 278.071 96.216C276.791 96.216 275.655 95.936 274.663 95.376C273.671 94.8 272.895 94 272.335 92.976C271.775 91.936 271.495 90.728 271.495 89.352ZM292.701 96.216C291.421 96.216 290.269 95.936 289.245 95.376C288.221 94.8 287.413 93.992 286.821 92.952C286.245 91.912 285.957 90.712 285.957 89.352C285.957 87.992 286.253 86.792 286.845 85.752C287.453 84.712 288.277 83.912 289.317 83.352C290.357 82.776 291.517 82.488 292.797 82.488C294.077 82.488 295.237 82.776 296.277 83.352C297.317 83.912 298.133 84.712 298.725 85.752C299.333 86.792 299.637 87.992 299.637 89.352C299.637 90.712 299.325 91.912 298.701 92.952C298.093 93.992 297.261 94.8 296.205 95.376C295.165 95.936 293.997 96.216 292.701 96.216ZM292.701 93.288C293.309 93.288 293.877 93.144 294.405 92.856C294.949 92.552 295.381 92.104 295.701 91.512C296.021 90.92 296.181 90.2 296.181 89.352C296.181 88.088 295.845 87.12 295.173 86.448C294.517 85.76 293.709 85.416 292.749 85.416C291.789 85.416 290.981 85.76 290.325 86.448C289.685 87.12 289.365 88.088 289.365 89.352C289.365 90.616 289.677 91.592 290.301 92.28C290.941 92.952 291.741 93.288 292.701 93.288ZM314.653 82.704V96H311.269V94.32C310.837 94.896 310.269 95.352 309.565 95.688C308.877 96.008 308.125 96.168 307.309 96.168C306.269 96.168 305.349 95.952 304.549 95.52C303.749 95.072 303.117 94.424 302.653 93.576C302.205 92.712 301.981 91.688 301.981 90.504V82.704H305.341V90.024C305.341 91.08 305.605 91.896 306.133 92.472C306.661 93.032 307.381 93.312 308.293 93.312C309.221 93.312 309.949 93.032 310.477 92.472C311.005 91.896 311.269 91.08 311.269 90.024V82.704H314.653ZM325.337 82.512C326.921 82.512 328.201 83.016 329.177 84.024C330.153 85.016 330.641 86.408 330.641 88.2V96H327.281V88.656C327.281 87.6 327.017 86.792 326.489 86.232C325.961 85.656 325.241 85.368 324.329 85.368C323.401 85.368 322.665 85.656 322.121 86.232C321.593 86.792 321.329 87.6 321.329 88.656V96H317.969V82.704H321.329V84.36C321.777 83.784 322.345 83.336 323.033 83.016C323.737 82.68 324.505 82.512 325.337 82.512ZM337.748 85.464V91.896C337.748 92.344 337.852 92.672 338.06 92.88C338.284 93.072 338.652 93.168 339.164 93.168H340.724V96H338.612C335.78 96 334.364 94.624 334.364 91.872V85.464H332.78V82.704H334.364V79.416H337.748V82.704H340.724V85.464H337.748Z"></path>
<path fill="white" d="M242.068 131.355V136.228C242.068 136.807 242.218 137.244 242.519 137.537C242.827 137.83 243.252 137.977 243.795 137.977C244.345 137.977 244.77 137.83 245.071 137.537C245.379 137.244 245.533 136.807 245.533 136.228V131.355H246.787V136.206C246.787 136.829 246.651 137.357 246.38 137.79C246.109 138.223 245.746 138.545 245.291 138.758C244.836 138.971 244.334 139.077 243.784 139.077C243.234 139.077 242.732 138.971 242.277 138.758C241.83 138.545 241.474 138.223 241.21 137.79C240.946 137.357 240.814 136.829 240.814 136.206V131.355H242.068ZM250.62 139.099C250.143 139.099 249.714 139.015 249.333 138.846C248.959 138.67 248.662 138.435 248.442 138.142C248.222 137.841 248.104 137.508 248.09 137.141H249.388C249.41 137.398 249.531 137.614 249.751 137.79C249.978 137.959 250.26 138.043 250.598 138.043C250.95 138.043 251.221 137.977 251.412 137.845C251.61 137.706 251.709 137.53 251.709 137.317C251.709 137.09 251.599 136.921 251.379 136.811C251.166 136.701 250.825 136.58 250.356 136.448C249.901 136.323 249.531 136.202 249.245 136.085C248.959 135.968 248.709 135.788 248.497 135.546C248.291 135.304 248.189 134.985 248.189 134.589C248.189 134.266 248.284 133.973 248.475 133.709C248.665 133.438 248.937 133.225 249.289 133.071C249.648 132.917 250.059 132.84 250.521 132.84C251.21 132.84 251.764 133.016 252.182 133.368C252.607 133.713 252.834 134.186 252.864 134.787H251.61C251.588 134.516 251.478 134.299 251.28 134.138C251.082 133.977 250.814 133.896 250.477 133.896C250.147 133.896 249.894 133.958 249.718 134.083C249.542 134.208 249.454 134.373 249.454 134.578C249.454 134.739 249.512 134.875 249.63 134.985C249.747 135.095 249.89 135.183 250.059 135.249C250.227 135.308 250.477 135.385 250.807 135.48C251.247 135.597 251.606 135.718 251.885 135.843C252.171 135.96 252.416 136.136 252.622 136.371C252.827 136.606 252.933 136.917 252.941 137.306C252.941 137.651 252.845 137.959 252.655 138.23C252.464 138.501 252.193 138.714 251.841 138.868C251.496 139.022 251.089 139.099 250.62 139.099ZM259.851 135.821C259.851 136.048 259.836 136.254 259.807 136.437H255.176C255.212 136.921 255.392 137.31 255.715 137.603C256.037 137.896 256.433 138.043 256.903 138.043C257.577 138.043 258.054 137.761 258.333 137.196H259.686C259.502 137.753 259.169 138.212 258.685 138.571C258.208 138.923 257.614 139.099 256.903 139.099C256.323 139.099 255.803 138.971 255.341 138.714C254.886 138.45 254.527 138.083 254.263 137.614C254.006 137.137 253.878 136.587 253.878 135.964C253.878 135.341 254.002 134.794 254.252 134.325C254.508 133.848 254.864 133.482 255.319 133.225C255.781 132.968 256.309 132.84 256.903 132.84C257.475 132.84 257.984 132.965 258.432 133.214C258.879 133.463 259.227 133.815 259.477 134.27C259.726 134.717 259.851 135.234 259.851 135.821ZM258.542 135.425C258.534 134.963 258.369 134.593 258.047 134.314C257.724 134.035 257.324 133.896 256.848 133.896C256.415 133.896 256.045 134.035 255.737 134.314C255.429 134.585 255.245 134.956 255.187 135.425H258.542ZM262.339 133.819C262.522 133.511 262.764 133.273 263.065 133.104C263.373 132.928 263.736 132.84 264.154 132.84V134.138H263.835C263.343 134.138 262.969 134.263 262.713 134.512C262.463 134.761 262.339 135.194 262.339 135.81V139H261.085V132.939H262.339V133.819ZM268.364 132.84C268.841 132.84 269.266 132.939 269.64 133.137C270.022 133.335 270.319 133.628 270.531 134.017C270.744 134.406 270.85 134.875 270.85 135.425V139H269.607V135.612C269.607 135.069 269.472 134.655 269.2 134.369C268.929 134.076 268.559 133.929 268.089 133.929C267.62 133.929 267.246 134.076 266.967 134.369C266.696 134.655 266.56 135.069 266.56 135.612V139H265.306V132.939H266.56V133.632C266.766 133.383 267.026 133.188 267.341 133.049C267.664 132.91 268.005 132.84 268.364 132.84ZM272.032 135.942C272.032 135.333 272.157 134.794 272.406 134.325C272.663 133.856 273.007 133.493 273.44 133.236C273.88 132.972 274.364 132.84 274.892 132.84C275.369 132.84 275.783 132.935 276.135 133.126C276.494 133.309 276.78 133.54 276.993 133.819V132.939H278.258V139H276.993V138.098C276.78 138.384 276.491 138.622 276.124 138.813C275.757 139.004 275.339 139.099 274.87 139.099C274.349 139.099 273.873 138.967 273.44 138.703C273.007 138.432 272.663 138.058 272.406 137.581C272.157 137.097 272.032 136.551 272.032 135.942ZM276.993 135.964C276.993 135.546 276.905 135.183 276.729 134.875C276.56 134.567 276.337 134.332 276.058 134.171C275.779 134.01 275.479 133.929 275.156 133.929C274.833 133.929 274.533 134.01 274.254 134.171C273.975 134.325 273.748 134.556 273.572 134.864C273.403 135.165 273.319 135.524 273.319 135.942C273.319 136.36 273.403 136.727 273.572 137.042C273.748 137.357 273.975 137.599 274.254 137.768C274.54 137.929 274.841 138.01 275.156 138.01C275.479 138.01 275.779 137.929 276.058 137.768C276.337 137.607 276.56 137.372 276.729 137.064C276.905 136.749 276.993 136.382 276.993 135.964ZM287.242 132.84C287.719 132.84 288.144 132.939 288.518 133.137C288.899 133.335 289.196 133.628 289.409 134.017C289.629 134.406 289.739 134.875 289.739 135.425V139H288.496V135.612C288.496 135.069 288.36 134.655 288.089 134.369C287.818 134.076 287.447 133.929 286.978 133.929C286.509 133.929 286.135 134.076 285.856 134.369C285.585 134.655 285.449 135.069 285.449 135.612V139H284.206V135.612C284.206 135.069 284.07 134.655 283.799 134.369C283.528 134.076 283.157 133.929 282.688 133.929C282.219 133.929 281.845 134.076 281.566 134.369C281.295 134.655 281.159 135.069 281.159 135.612V139H279.905V132.939H281.159V133.632C281.364 133.383 281.625 133.188 281.94 133.049C282.255 132.91 282.593 132.84 282.952 132.84C283.436 132.84 283.869 132.943 284.25 133.148C284.631 133.353 284.925 133.65 285.13 134.039C285.313 133.672 285.599 133.383 285.988 133.17C286.377 132.95 286.795 132.84 287.242 132.84ZM296.89 135.821C296.89 136.048 296.875 136.254 296.846 136.437H292.215C292.251 136.921 292.431 137.31 292.754 137.603C293.076 137.896 293.472 138.043 293.942 138.043C294.616 138.043 295.093 137.761 295.372 137.196H296.725C296.541 137.753 296.208 138.212 295.724 138.571C295.247 138.923 294.653 139.099 293.942 139.099C293.362 139.099 292.842 138.971 292.38 138.714C291.925 138.45 291.566 138.083 291.302 137.614C291.045 137.137 290.917 136.587 290.917 135.964C290.917 135.341 291.041 134.794 291.291 134.325C291.547 133.848 291.903 133.482 292.358 133.225C292.82 132.968 293.348 132.84 293.942 132.84C294.514 132.84 295.023 132.965 295.471 133.214C295.918 133.463 296.266 133.815 296.516 134.27C296.765 134.717 296.89 135.234 296.89 135.821ZM295.581 135.425C295.573 134.963 295.408 134.593 295.086 134.314C294.763 134.035 294.363 133.896 293.887 133.896C293.454 133.896 293.084 134.035 292.776 134.314C292.468 134.585 292.284 134.956 292.226 135.425H295.581Z"></path>
<mask fill="white" id="path-3-inside-1_508_143">
<path d="M240 155C240 152.239 242.239 150 245 150H405C407.761 150 410 152.239 410 155V175C410 177.761 407.761 180 405 180H245C242.239 180 240 177.761 240 175V155Z"></path>
</mask>
<path fill-opacity="0.05" fill="white" d="M240 155C240 152.239 242.239 150 245 150H405C407.761 150 410 152.239 410 155V175C410 177.761 407.761 180 405 180H245C242.239 180 240 177.761 240 175V155Z"></path>
<path mask="url(#path-3-inside-1_508_143)" fill-opacity="0.5" fill="white" d="M240 150H410H240ZM410 175C410 178.314 407.314 181 404 181H246C242.686 181 240 178.314 240 175C240 177.209 242.239 179 245 179H405C407.761 179 410 177.209 410 175ZM240 180V150V180ZM410 150V180V150Z"></path>
<path fill="white" d="M246.171 203.632C246.171 204.021 246.079 204.387 245.896 204.732C245.713 205.077 245.419 205.359 245.016 205.579C244.613 205.792 244.096 205.898 243.465 205.898H242.079V209H240.825V201.355H243.465C244.052 201.355 244.547 201.458 244.95 201.663C245.361 201.861 245.665 202.132 245.863 202.477C246.068 202.822 246.171 203.207 246.171 203.632ZM243.465 204.875C243.942 204.875 244.297 204.769 244.532 204.556C244.767 204.336 244.884 204.028 244.884 203.632C244.884 202.796 244.411 202.378 243.465 202.378H242.079V204.875H243.465ZM246.949 205.942C246.949 205.333 247.074 204.794 247.323 204.325C247.58 203.856 247.924 203.493 248.357 203.236C248.797 202.972 249.281 202.84 249.809 202.84C250.286 202.84 250.7 202.935 251.052 203.126C251.411 203.309 251.697 203.54 251.91 203.819V202.939H253.175V209H251.91V208.098C251.697 208.384 251.408 208.622 251.041 208.813C250.674 209.004 250.256 209.099 249.787 209.099C249.266 209.099 248.79 208.967 248.357 208.703C247.924 208.432 247.58 208.058 247.323 207.581C247.074 207.097 246.949 206.551 246.949 205.942ZM251.91 205.964C251.91 205.546 251.822 205.183 251.646 204.875C251.477 204.567 251.254 204.332 250.975 204.171C250.696 204.01 250.396 203.929 250.073 203.929C249.75 203.929 249.45 204.01 249.171 204.171C248.892 204.325 248.665 204.556 248.489 204.864C248.32 205.165 248.236 205.524 248.236 205.942C248.236 206.36 248.32 206.727 248.489 207.042C248.665 207.357 248.892 207.599 249.171 207.768C249.457 207.929 249.758 208.01 250.073 208.01C250.396 208.01 250.696 207.929 250.975 207.768C251.254 207.607 251.477 207.372 251.646 207.064C251.822 206.749 251.91 206.382 251.91 205.964ZM257.022 209.099C256.545 209.099 256.116 209.015 255.735 208.846C255.361 208.67 255.064 208.435 254.844 208.142C254.624 207.841 254.507 207.508 254.492 207.141H255.79C255.812 207.398 255.933 207.614 256.153 207.79C256.38 207.959 256.663 208.043 257 208.043C257.352 208.043 257.623 207.977 257.814 207.845C258.012 207.706 258.111 207.53 258.111 207.317C258.111 207.09 258.001 206.921 257.781 206.811C257.568 206.701 257.227 206.58 256.758 206.448C256.303 206.323 255.933 206.202 255.647 206.085C255.361 205.968 255.112 205.788 254.899 205.546C254.694 205.304 254.591 204.985 254.591 204.589C254.591 204.266 254.686 203.973 254.877 203.709C255.068 203.438 255.339 203.225 255.691 203.071C256.05 202.917 256.461 202.84 256.923 202.84C257.612 202.84 258.166 203.016 258.584 203.368C259.009 203.713 259.237 204.186 259.266 204.787H258.012C257.99 204.516 257.88 204.299 257.682 204.138C257.484 203.977 257.216 203.896 256.879 203.896C256.549 203.896 256.296 203.958 256.12 204.083C255.944 204.208 255.856 204.373 255.856 204.578C255.856 204.739 255.915 204.875 256.032 204.985C256.149 205.095 256.292 205.183 256.461 205.249C256.63 205.308 256.879 205.385 257.209 205.48C257.649 205.597 258.008 205.718 258.287 205.843C258.573 205.96 258.819 206.136 259.024 206.371C259.229 206.606 259.336 206.917 259.343 207.306C259.343 207.651 259.248 207.959 259.057 208.23C258.866 208.501 258.595 208.714 258.243 208.868C257.898 209.022 257.491 209.099 257.022 209.099ZM262.898 209.099C262.421 209.099 261.992 209.015 261.611 208.846C261.237 208.67 260.94 208.435 260.72 208.142C260.5 207.841 260.383 207.508 260.368 207.141H261.666C261.688 207.398 261.809 207.614 262.029 207.79C262.256 207.959 262.539 208.043 262.876 208.043C263.228 208.043 263.499 207.977 263.69 207.845C263.888 207.706 263.987 207.53 263.987 207.317C263.987 207.09 263.877 206.921 263.657 206.811C263.444 206.701 263.103 206.58 262.634 206.448C262.179 206.323 261.809 206.202 261.523 206.085C261.237 205.968 260.988 205.788 260.775 205.546C260.57 205.304 260.467 204.985 260.467 204.589C260.467 204.266 260.562 203.973 260.753 203.709C260.944 203.438 261.215 203.225 261.567 203.071C261.926 202.917 262.337 202.84 262.799 202.84C263.488 202.84 264.042 203.016 264.46 203.368C264.885 203.713 265.113 204.186 265.142 204.787H263.888C263.866 204.516 263.756 204.299 263.558 204.138C263.36 203.977 263.092 203.896 262.755 203.896C262.425 203.896 262.172 203.958 261.996 204.083C261.82 204.208 261.732 204.373 261.732 204.578C261.732 204.739 261.791 204.875 261.908 204.985C262.025 205.095 262.168 205.183 262.337 205.249C262.506 205.308 262.755 205.385 263.085 205.48C263.525 205.597 263.884 205.718 264.163 205.843C264.449 205.96 264.695 206.136 264.9 206.371C265.105 206.606 265.212 206.917 265.219 207.306C265.219 207.651 265.124 207.959 264.933 208.23C264.742 208.501 264.471 208.714 264.119 208.868C263.774 209.022 263.367 209.099 262.898 209.099ZM274.714 202.939L272.833 209H271.513L270.292 204.523L269.071 209H267.751L265.859 202.939H267.135L268.4 207.812L269.687 202.939H270.996L272.228 207.79L273.482 202.939H274.714ZM278.28 209.099C277.708 209.099 277.191 208.971 276.729 208.714C276.267 208.45 275.904 208.083 275.64 207.614C275.376 207.137 275.244 206.587 275.244 205.964C275.244 205.348 275.38 204.802 275.651 204.325C275.923 203.848 276.293 203.482 276.762 203.225C277.232 202.968 277.756 202.84 278.335 202.84C278.915 202.84 279.439 202.968 279.908 203.225C280.378 203.482 280.748 203.848 281.019 204.325C281.291 204.802 281.426 205.348 281.426 205.964C281.426 206.58 281.287 207.126 281.008 207.603C280.73 208.08 280.348 208.45 279.864 208.714C279.388 208.971 278.86 209.099 278.28 209.099ZM278.28 208.01C278.603 208.01 278.904 207.933 279.182 207.779C279.468 207.625 279.699 207.394 279.875 207.086C280.051 206.778 280.139 206.404 280.139 205.964C280.139 205.524 280.055 205.154 279.886 204.853C279.718 204.545 279.494 204.314 279.215 204.16C278.937 204.006 278.636 203.929 278.313 203.929C277.991 203.929 277.69 204.006 277.411 204.16C277.14 204.314 276.924 204.545 276.762 204.853C276.601 205.154 276.52 205.524 276.52 205.964C276.52 206.617 276.685 207.123 277.015 207.482C277.353 207.834 277.774 208.01 278.28 208.01ZM283.92 203.819C284.103 203.511 284.345 203.273 284.646 203.104C284.954 202.928 285.317 202.84 285.735 202.84V204.138H285.416C284.924 204.138 284.55 204.263 284.294 204.512C284.044 204.761 283.92 205.194 283.92 205.81V209H282.666V202.939H283.92V203.819ZM286.47 205.942C286.47 205.333 286.594 204.794 286.844 204.325C287.1 203.856 287.445 203.493 287.878 203.236C288.318 202.972 288.805 202.84 289.341 202.84C289.737 202.84 290.125 202.928 290.507 203.104C290.895 203.273 291.203 203.5 291.431 203.786V200.86H292.696V209H291.431V208.087C291.225 208.38 290.939 208.622 290.573 208.813C290.213 209.004 289.799 209.099 289.33 209.099C288.802 209.099 288.318 208.967 287.878 208.703C287.445 208.432 287.1 208.058 286.844 207.581C286.594 207.097 286.47 206.551 286.47 205.942ZM291.431 205.964C291.431 205.546 291.343 205.183 291.167 204.875C290.998 204.567 290.774 204.332 290.496 204.171C290.217 204.01 289.916 203.929 289.594 203.929C289.271 203.929 288.97 204.01 288.692 204.171C288.413 204.325 288.186 204.556 288.01 204.864C287.841 205.165 287.757 205.524 287.757 205.942C287.757 206.36 287.841 206.727 288.01 207.042C288.186 207.357 288.413 207.599 288.692 207.768C288.978 207.929 289.278 208.01 289.594 208.01C289.916 208.01 290.217 207.929 290.496 207.768C290.774 207.607 290.998 207.372 291.167 207.064C291.343 206.749 291.431 206.382 291.431 205.964Z"></path>
<rect fill="#4CC2FF" rx="10" height="20" width="40" y="195" x="370"></rect>
<rect fill="black" rx="6" height="12" width="12" y="199" x="394"></rect>
<mask fill="white" id="path-8-inside-2_508_143">
<path d="M240 225C240 222.239 242.239 220 245 220H405C407.761 220 410 222.239 410 225V245C410 247.761 407.761 250 405 250H245C242.239 250 240 247.761 240 245V225Z"></path>
</mask>
<path fill-opacity="0.05" fill="white" d="M240 225C240 222.239 242.239 220 245 220H405C407.761 220 410 222.239 410 225V245C410 247.761 407.761 250 405 250H245C242.239 250 240 247.761 240 245V225Z"></path>
<path mask="url(#path-8-inside-2_508_143)" fill-opacity="0.5" fill="white" d="M240 220H410H240ZM410 245C410 248.314 407.314 251 404 251H246C242.686 251 240 248.314 240 245C240 247.209 242.239 249 245 249H405C407.761 249 410 247.209 410 245ZM240 250V220V250ZM410 220V250V220Z"></path>
<path fill="url(#paint0_linear_508_143)" d="M95 155C95 141.193 106.193 130 120 130V130C133.807 130 145 141.193 145 155V155C145 168.807 133.807 180 120 180V180C106.193 180 95 168.807 95 155V155Z"></path>
<path fill="url(#paint1_linear_508_143)" d="M80 200C80 194.477 84.4772 190 90 190H150C155.523 190 160 194.477 160 200V200C160 216.569 146.569 230 130 230H110C93.4315 230 80 216.569 80 200V200Z"></path>
<defs>
<linearGradient gradientUnits="userSpaceOnUse" y2="230" x2="120" y1="130" x1="120" id="paint0_linear_508_143">
<stop stop-color="#22CAB6"></stop>
<stop stop-color="#0EA291" offset="1"></stop>
</linearGradient>
<linearGradient gradientUnits="userSpaceOnUse" y2="230" x2="120" y1="130" x1="120" id="paint1_linear_508_143">
<stop stop-color="#22CAB6"></stop>
<stop stop-color="#0EA291" offset="1"></stop>
</linearGradient>
</defs>
</svg>
