<svg xmlns="http://www.w3.org/2000/svg" fill="none" viewBox="0 0 44 24" height="24" width="44">
<path fill-opacity="0.5" fill="#FF0000" d="M2 12C2 6.47715 6.47715 2 12 2H32C37.5228 2 42 6.47715 42 12V12C42 17.5228 37.5228 22 32 22H12C6.47715 22 2 17.5228 2 12V12Z"></path>
<path stroke-width="2" stroke-opacity="0.2" stroke="#FF0000" d="M32 1H12C5.92487 1 1 5.92487 1 12C1 18.0751 5.92487 23 12 23H32C38.0751 23 43 18.0751 43 12C43 5.92487 38.0751 1 32 1Z"></path>
<path fill="white" d="M20.6959 8.428H16.6759V10.816C16.8439 10.592 17.0919 10.404 17.4199 10.252C17.7559 10.1 18.1119 10.024 18.4879 10.024C19.1599 10.024 19.7039 10.168 20.1199 10.456C20.5439 10.744 20.8439 11.108 21.0199 11.548C21.2039 11.988 21.2959 12.452 21.2959 12.94C21.2959 13.532 21.1799 14.06 20.9479 14.524C20.7239 14.98 20.3839 15.34 19.9279 15.604C19.4799 15.868 18.9279 16 18.2719 16C17.3999 16 16.6999 15.784 16.1719 15.352C15.6439 14.92 15.3279 14.348 15.2239 13.636H16.5559C16.6439 14.012 16.8399 14.312 17.1439 14.536C17.4479 14.752 17.8279 14.86 18.2839 14.86C18.8519 14.86 19.2759 14.688 19.5559 14.344C19.8439 14 19.9879 13.544 19.9879 12.976C19.9879 12.4 19.8439 11.96 19.5559 11.656C19.2679 11.344 18.8439 11.188 18.2839 11.188C17.8919 11.188 17.5599 11.288 17.2879 11.488C17.0239 11.68 16.8319 11.944 16.7119 12.28H15.4159V7.228H20.6959V8.428ZM28.36 8.428H24.34V10.816C24.508 10.592 24.756 10.404 25.084 10.252C25.42 10.1 25.776 10.024 26.152 10.024C26.824 10.024 27.368 10.168 27.784 10.456C28.208 10.744 28.508 11.108 28.684 11.548C28.868 11.988 28.96 12.452 28.96 12.94C28.96 13.532 28.844 14.06 28.612 14.524C28.388 14.98 28.048 15.34 27.592 15.604C27.144 15.868 26.592 16 25.936 16C25.064 16 24.364 15.784 23.836 15.352C23.308 14.92 22.992 14.348 22.888 13.636H24.22C24.308 14.012 24.504 14.312 24.808 14.536C25.112 14.752 25.492 14.86 25.948 14.86C26.516 14.86 26.94 14.688 27.22 14.344C27.508 14 27.652 13.544 27.652 12.976C27.652 12.4 27.508 11.96 27.22 11.656C26.932 11.344 26.508 11.188 25.948 11.188C25.556 11.188 25.224 11.288 24.952 11.488C24.688 11.68 24.496 11.944 24.376 12.28H23.08V7.228H28.36V8.428Z"></path>
</svg>
