<svg version="1.1" xmlns="http://www.w3.org/2000/svg" xmlns:xlink="http://www.w3.org/1999/xlink" width="40" height="20" viewBox="0,0,40,20"><g transform="translate(-220,-167)"><g data-paper-data="{&quot;isPaintingLayer&quot;:true}" fill-rule="nonzero" stroke="none" stroke-width="1" stroke-linecap="butt" stroke-linejoin="miter" stroke-miterlimit="10" stroke-dasharray="" stroke-dashoffset="0" style="mix-blend-mode: normal"><path d="M220,187v-20h40v20z" fill="none"></path><path d="M245.448,171.66v6.012c0,0.744 -0.228,1.332 -0.684,1.764c-0.448,0.432 -1.04,0.648 -1.776,0.648c-0.736,0 -1.332,-0.216 -1.788,-0.648c-0.448,-0.432 -0.672,-1.02 -0.672,-1.764h1.38c0.008,0.368 0.1,0.66 0.276,0.876c0.184,0.216 0.452,0.324 0.804,0.324c0.352,0 0.62,-0.108 0.804,-0.324c0.184,-0.224 0.276,-0.516 0.276,-0.876v-6.012z" fill="#ff0000"></path></g></g></svg>