<svg xmlns="http://www.w3.org/2000/svg" fill="none" viewBox="0 0 44 24" height="24" width="44">
<path fill-opacity="0.5" fill="#FF0000" d="M2 12C2 6.47715 6.47715 2 12 2H32C37.5228 2 42 6.47715 42 12V12C42 17.5228 37.5228 22 32 22H12C6.47715 22 2 17.5228 2 12V12Z"></path>
<path stroke-width="2" stroke-opacity="0.2" stroke="#FF0000" d="M32 1H12C5.92487 1 1 5.92487 1 12C1 18.0751 5.92487 23 12 23H32C38.0751 23 43 18.0751 43 12C43 5.92487 38.0751 1 32 1Z"></path>
<path fill="white" d="M15.571 9.412C15.619 8.668 15.903 8.088 16.423 7.672C16.951 7.256 17.623 7.048 18.439 7.048C18.999 7.048 19.483 7.148 19.891 7.348C20.299 7.548 20.607 7.82 20.815 8.164C21.023 8.508 21.127 8.896 21.127 9.328C21.127 9.824 20.995 10.248 20.731 10.6C20.467 10.952 20.151 11.188 19.783 11.308V11.356C20.255 11.5 20.623 11.764 20.887 12.148C21.151 12.524 21.283 13.008 21.283 13.6C21.283 14.072 21.175 14.492 20.959 14.86C20.743 15.228 20.423 15.52 19.999 15.736C19.575 15.944 19.067 16.048 18.475 16.048C17.611 16.048 16.899 15.828 16.339 15.388C15.787 14.94 15.491 14.3 15.451 13.468H16.771C16.803 13.892 16.967 14.24 17.263 14.512C17.559 14.776 17.959 14.908 18.463 14.908C18.951 14.908 19.327 14.776 19.591 14.512C19.855 14.24 19.987 13.892 19.987 13.468C19.987 12.908 19.807 12.512 19.447 12.28C19.095 12.04 18.551 11.92 17.815 11.92H17.503V10.792H17.827C18.475 10.784 18.967 10.676 19.303 10.468C19.647 10.26 19.819 9.932 19.819 9.484C19.819 9.1 19.695 8.796 19.447 8.572C19.199 8.34 18.847 8.224 18.391 8.224C17.943 8.224 17.595 8.34 17.347 8.572C17.099 8.796 16.951 9.076 16.903 9.412H15.571ZM22.696 9.412C22.744 8.668 23.028 8.088 23.548 7.672C24.076 7.256 24.748 7.048 25.564 7.048C26.124 7.048 26.608 7.148 27.016 7.348C27.424 7.548 27.732 7.82 27.94 8.164C28.148 8.508 28.252 8.896 28.252 9.328C28.252 9.824 28.12 10.248 27.856 10.6C27.592 10.952 27.276 11.188 26.908 11.308V11.356C27.38 11.5 27.748 11.764 28.012 12.148C28.276 12.524 28.408 13.008 28.408 13.6C28.408 14.072 28.3 14.492 28.084 14.86C27.868 15.228 27.548 15.52 27.124 15.736C26.7 15.944 26.192 16.048 25.6 16.048C24.736 16.048 24.024 15.828 23.464 15.388C22.912 14.94 22.616 14.3 22.576 13.468H23.896C23.928 13.892 24.092 14.24 24.388 14.512C24.684 14.776 25.084 14.908 25.588 14.908C26.076 14.908 26.452 14.776 26.716 14.512C26.98 14.24 27.112 13.892 27.112 13.468C27.112 12.908 26.932 12.512 26.572 12.28C26.22 12.04 25.676 11.92 24.94 11.92H24.628V10.792H24.952C25.6 10.784 26.092 10.676 26.428 10.468C26.772 10.26 26.944 9.932 26.944 9.484C26.944 9.1 26.82 8.796 26.572 8.572C26.324 8.34 25.972 8.224 25.516 8.224C25.068 8.224 24.72 8.34 24.472 8.572C24.224 8.796 24.076 9.076 24.028 9.412H22.696Z"></path>
</svg>
