<svg version="1.1" xmlns="http://www.w3.org/2000/svg" xmlns:xlink="http://www.w3.org/1999/xlink" width="40" height="20" viewBox="0,0,40,20"><g transform="translate(-220,-167)"><g data-paper-data="{&quot;isPaintingLayer&quot;:true}" fill-rule="nonzero" stroke="none" stroke-width="1" stroke-linecap="butt" stroke-linejoin="miter" stroke-miterlimit="10" stroke-dasharray="" stroke-dashoffset="0" style="mix-blend-mode: normal"><path d="M220,187v-20h40v20z" fill="none"></path><path d="M240.696,173.412c0.048,-0.744 0.332,-1.324 0.852,-1.74c0.528,-0.416 1.2,-0.624 2.016,-0.624c0.56,0 1.044,0.1 1.452,0.3c0.408,0.2 0.716,0.472 0.924,0.816c0.208,0.344 0.312,0.732 0.312,1.164c0,0.496 -0.132,0.92 -0.396,1.272c-0.264,0.352 -0.58,0.588 -0.948,0.708v0.048c0.472,0.144 0.84,0.408 1.104,0.792c0.264,0.376 0.396,0.86 0.396,1.452c0,0.472 -0.108,0.892 -0.324,1.26c-0.216,0.368 -0.536,0.66 -0.96,0.876c-0.424,0.208 -0.932,0.312 -1.524,0.312c-0.864,0 -1.576,-0.22 -2.136,-0.66c-0.552,-0.448 -0.848,-1.088 -0.888,-1.92h1.32c0.032,0.424 0.196,0.772 0.492,1.044c0.296,0.264 0.696,0.396 1.2,0.396c0.488,0 0.864,-0.132 1.128,-0.396c0.264,-0.272 0.396,-0.62 0.396,-1.044c0,-0.56 -0.18,-0.956 -0.54,-1.188c-0.352,-0.24 -0.896,-0.36 -1.632,-0.36h-0.312v-1.128h0.324c0.648,-0.008 1.14,-0.116 1.476,-0.324c0.344,-0.208 0.516,-0.536 0.516,-0.984c0,-0.384 -0.124,-0.688 -0.372,-0.912c-0.248,-0.232 -0.6,-0.348 -1.056,-0.348c-0.448,0 -0.796,0.116 -1.044,0.348c-0.248,0.224 -0.396,0.504 -0.444,0.84z" fill="#ff0000"></path></g></g></svg>