<svg xmlns="http://www.w3.org/2000/svg" fill="none" viewBox="0 0 480 360" height="360" width="480">
<rect fill-opacity="0.05" fill="white" rx="5" height="50" width="50" y="70" x="170"></rect>
<rect stroke-width="2" stroke-opacity="0.2" stroke="white" rx="6" height="52" width="52" y="69" x="169"></rect>
<path fill="white" d="M175.85 144.077C175.337 144.077 174.875 143.989 174.464 143.813C174.053 143.63 173.731 143.373 173.496 143.043C173.261 142.713 173.144 142.328 173.144 141.888H174.486C174.515 142.218 174.644 142.489 174.871 142.702C175.106 142.915 175.432 143.021 175.85 143.021C176.283 143.021 176.62 142.918 176.862 142.713C177.104 142.5 177.225 142.229 177.225 141.899C177.225 141.642 177.148 141.433 176.994 141.272C176.847 141.111 176.66 140.986 176.433 140.898C176.213 140.81 175.905 140.715 175.509 140.612C175.01 140.48 174.603 140.348 174.288 140.216C173.98 140.077 173.716 139.864 173.496 139.578C173.276 139.292 173.166 138.911 173.166 138.434C173.166 137.994 173.276 137.609 173.496 137.279C173.716 136.949 174.024 136.696 174.42 136.52C174.816 136.344 175.274 136.256 175.795 136.256C176.536 136.256 177.141 136.443 177.61 136.817C178.087 137.184 178.351 137.69 178.402 138.335H177.016C176.994 138.056 176.862 137.818 176.62 137.62C176.378 137.422 176.059 137.323 175.663 137.323C175.304 137.323 175.01 137.415 174.783 137.598C174.556 137.781 174.442 138.045 174.442 138.39C174.442 138.625 174.512 138.819 174.651 138.973C174.798 139.12 174.981 139.237 175.201 139.325C175.421 139.413 175.722 139.508 176.103 139.611C176.609 139.75 177.02 139.89 177.335 140.029C177.658 140.168 177.929 140.385 178.149 140.678C178.376 140.964 178.49 141.349 178.49 141.833C178.49 142.222 178.384 142.588 178.171 142.933C177.966 143.278 177.661 143.556 177.258 143.769C176.862 143.974 176.393 144.077 175.85 144.077ZM185.525 140.821C185.525 141.048 185.51 141.254 185.481 141.437H180.85C180.886 141.921 181.066 142.31 181.389 142.603C181.711 142.896 182.107 143.043 182.577 143.043C183.251 143.043 183.728 142.761 184.007 142.196H185.36C185.176 142.753 184.843 143.212 184.359 143.571C183.882 143.923 183.288 144.099 182.577 144.099C181.997 144.099 181.477 143.971 181.015 143.714C180.56 143.45 180.201 143.083 179.937 142.614C179.68 142.137 179.552 141.587 179.552 140.964C179.552 140.341 179.676 139.794 179.926 139.325C180.182 138.848 180.538 138.482 180.993 138.225C181.455 137.968 181.983 137.84 182.577 137.84C183.149 137.84 183.658 137.965 184.106 138.214C184.553 138.463 184.901 138.815 185.151 139.27C185.4 139.717 185.525 140.234 185.525 140.821ZM184.216 140.425C184.208 139.963 184.043 139.593 183.721 139.314C183.398 139.035 182.998 138.896 182.522 138.896C182.089 138.896 181.719 139.035 181.411 139.314C181.103 139.585 180.919 139.956 180.861 140.425H184.216ZM188.222 138.962V142.317C188.222 142.544 188.273 142.709 188.376 142.812C188.486 142.907 188.669 142.955 188.926 142.955H189.696V144H188.706C188.141 144 187.708 143.868 187.408 143.604C187.107 143.34 186.957 142.911 186.957 142.317V138.962H186.242V137.939H186.957V136.432H188.222V137.939H189.696V138.962H188.222ZM192.314 138.962V142.317C192.314 142.544 192.366 142.709 192.468 142.812C192.578 142.907 192.762 142.955 193.018 142.955H193.788V144H192.798C192.234 144 191.801 143.868 191.5 143.604C191.2 143.34 191.049 142.911 191.049 142.317V138.962H190.334V137.939H191.049V136.432H192.314V137.939H193.788V138.962H192.314ZM195.582 137.136C195.355 137.136 195.164 137.059 195.01 136.905C194.856 136.751 194.779 136.56 194.779 136.333C194.779 136.106 194.856 135.915 195.01 135.761C195.164 135.607 195.355 135.53 195.582 135.53C195.802 135.53 195.989 135.607 196.143 135.761C196.297 135.915 196.374 136.106 196.374 136.333C196.374 136.56 196.297 136.751 196.143 136.905C195.989 137.059 195.802 137.136 195.582 137.136ZM196.198 137.939V144H194.944V137.939H196.198ZM200.903 137.84C201.379 137.84 201.805 137.939 202.179 138.137C202.56 138.335 202.857 138.628 203.07 139.017C203.282 139.406 203.389 139.875 203.389 140.425V144H202.146V140.612C202.146 140.069 202.01 139.655 201.739 139.369C201.467 139.076 201.097 138.929 200.628 138.929C200.158 138.929 199.784 139.076 199.506 139.369C199.234 139.655 199.099 140.069 199.099 140.612V144H197.845V137.939H199.099V138.632C199.304 138.383 199.564 138.188 199.88 138.049C200.202 137.91 200.543 137.84 200.903 137.84ZM207.43 137.84C207.899 137.84 208.314 137.935 208.673 138.126C209.04 138.309 209.326 138.54 209.531 138.819V137.939H210.796V144.099C210.796 144.656 210.679 145.151 210.444 145.584C210.209 146.024 209.868 146.369 209.421 146.618C208.981 146.867 208.453 146.992 207.837 146.992C207.016 146.992 206.334 146.798 205.791 146.409C205.248 146.028 204.94 145.507 204.867 144.847H206.11C206.205 145.162 206.407 145.415 206.715 145.606C207.03 145.804 207.404 145.903 207.837 145.903C208.343 145.903 208.75 145.749 209.058 145.441C209.373 145.133 209.531 144.686 209.531 144.099V143.087C209.318 143.373 209.029 143.615 208.662 143.813C208.303 144.004 207.892 144.099 207.43 144.099C206.902 144.099 206.418 143.967 205.978 143.703C205.545 143.432 205.201 143.058 204.944 142.581C204.695 142.097 204.57 141.551 204.57 140.942C204.57 140.333 204.695 139.794 204.944 139.325C205.201 138.856 205.545 138.493 205.978 138.236C206.418 137.972 206.902 137.84 207.43 137.84ZM209.531 140.964C209.531 140.546 209.443 140.183 209.267 139.875C209.098 139.567 208.875 139.332 208.596 139.171C208.317 139.01 208.017 138.929 207.694 138.929C207.371 138.929 207.071 139.01 206.792 139.171C206.513 139.325 206.286 139.556 206.11 139.864C205.941 140.165 205.857 140.524 205.857 140.942C205.857 141.36 205.941 141.727 206.11 142.042C206.286 142.357 206.513 142.599 206.792 142.768C207.078 142.929 207.379 143.01 207.694 143.01C208.017 143.01 208.317 142.929 208.596 142.768C208.875 142.607 209.098 142.372 209.267 142.064C209.443 141.749 209.531 141.382 209.531 140.964ZM214.643 144.099C214.166 144.099 213.737 144.015 213.356 143.846C212.982 143.67 212.685 143.435 212.465 143.142C212.245 142.841 212.128 142.508 212.113 142.141H213.411C213.433 142.398 213.554 142.614 213.774 142.79C214.001 142.959 214.284 143.043 214.621 143.043C214.973 143.043 215.244 142.977 215.435 142.845C215.633 142.706 215.732 142.53 215.732 142.317C215.732 142.09 215.622 141.921 215.402 141.811C215.189 141.701 214.848 141.58 214.379 141.448C213.924 141.323 213.554 141.202 213.268 141.085C212.982 140.968 212.733 140.788 212.52 140.546C212.315 140.304 212.212 139.985 212.212 139.589C212.212 139.266 212.307 138.973 212.498 138.709C212.689 138.438 212.96 138.225 213.312 138.071C213.671 137.917 214.082 137.84 214.544 137.84C215.233 137.84 215.787 138.016 216.205 138.368C216.63 138.713 216.858 139.186 216.887 139.787H215.633C215.611 139.516 215.501 139.299 215.303 139.138C215.105 138.977 214.837 138.896 214.5 138.896C214.17 138.896 213.917 138.958 213.741 139.083C213.565 139.208 213.477 139.373 213.477 139.578C213.477 139.739 213.536 139.875 213.653 139.985C213.77 140.095 213.913 140.183 214.082 140.249C214.251 140.308 214.5 140.385 214.83 140.48C215.27 140.597 215.629 140.718 215.908 140.843C216.194 140.96 216.44 141.136 216.645 141.371C216.85 141.606 216.957 141.917 216.964 142.306C216.964 142.651 216.869 142.959 216.678 143.23C216.487 143.501 216.216 143.714 215.864 143.868C215.519 144.022 215.112 144.099 214.643 144.099Z"></path>
<circle stroke="white" r="1.5" cy="95" cx="195"></circle>
<path fill="white" d="M192.91 88.4005C192.961 87.8893 193.391 87.5 193.905 87.5H195H196.095C196.609 87.5 197.039 87.8893 197.09 88.4005L197.222 89.7226C197.24 89.9041 197.308 90.0771 197.417 90.2231L198 91L197.591 91.2726C197.393 91.4048 197.129 91.3787 196.96 91.2102L196.735 90.9852C196.421 90.6707 196.22 90.2604 196.165 89.8191L196.055 88.938C196.023 88.6878 195.811 88.5 195.559 88.5H194.441C194.189 88.5 193.977 88.6878 193.945 88.938L193.835 89.8191C193.78 90.2604 193.579 90.6707 193.265 90.9852L193.04 91.2102C192.871 91.3787 192.607 91.4048 192.409 91.2726L192 91L192.583 90.2231C192.692 90.0771 192.76 89.9041 192.778 89.7226L192.91 88.4005Z"></path>
<path fill="white" d="M197.09 101.6C197.039 102.111 196.609 102.5 196.095 102.5L195 102.5L193.905 102.5C193.391 102.5 192.961 102.111 192.91 101.6L192.778 100.277C192.76 100.096 192.692 99.9229 192.583 99.7769L192 99L192.409 98.7274C192.607 98.5952 192.871 98.6213 193.04 98.7898L193.265 99.0148C193.579 99.3293 193.78 99.7396 193.835 100.181L193.945 101.062C193.977 101.312 194.189 101.5 194.441 101.5L195.559 101.5C195.811 101.5 196.023 101.312 196.055 101.062L196.165 100.181C196.22 99.7396 196.421 99.3293 196.735 99.0148L196.96 98.7898C197.129 98.6213 197.393 98.5952 197.591 98.7274L198 99L197.417 99.7769C197.308 99.9229 197.24 100.096 197.222 100.277L197.09 101.6Z"></path>
<path fill="white" d="M199.67 89.8901C200.139 89.6788 200.691 89.8567 200.948 90.3016L201.495 91.2499L202.043 92.1982C202.299 92.6432 202.177 93.2103 201.76 93.5102L200.681 94.2857C200.533 94.3922 200.417 94.5372 200.346 94.7049L199.964 95.598L199.523 95.3802C199.31 95.2745 199.2 95.0328 199.262 94.8026L199.344 94.4953C199.46 94.0657 199.715 93.6867 200.069 93.4183L200.777 92.8824C200.978 92.7302 201.034 92.4521 200.908 92.2337L200.35 91.2662C200.224 91.0478 199.955 90.9575 199.722 91.0555L198.904 91.4007C198.495 91.5735 198.039 91.6049 197.609 91.4898L197.302 91.4075C197.072 91.3458 196.917 91.1302 196.932 90.8923L196.964 90.4019L197.928 90.518C198.109 90.5398 198.293 90.5117 198.459 90.4367L199.67 89.8901Z"></path>
<path fill="white" d="M190.33 100.11C189.861 100.321 189.309 100.143 189.052 99.6981L188.505 98.7498L187.957 97.8015C187.701 97.3566 187.823 96.7894 188.24 96.4895L189.319 95.714C189.467 95.6075 189.583 95.4626 189.654 95.2949L190.036 94.4017L190.477 94.6196C190.69 94.7252 190.8 94.967 190.738 95.1972L190.656 95.5045C190.54 95.9341 190.285 96.313 189.931 96.5815L189.223 97.1174C189.022 97.2696 188.966 97.5477 189.092 97.7661L189.65 98.7336C189.776 98.952 190.045 99.0423 190.278 98.9443L191.096 98.5991C191.505 98.4262 191.961 98.3949 192.391 98.51L192.698 98.5923C192.928 98.654 193.083 98.8696 193.068 99.1074L193.036 99.5979L192.072 99.4817C191.891 99.4599 191.707 99.488 191.541 99.5631L190.33 100.11Z"></path>
<path fill="white" d="M188.24 93.5104C187.823 93.2105 187.701 92.6433 187.957 92.1984L188.505 91.2501L189.052 90.3018C189.309 89.8568 189.861 89.679 190.33 89.8903L191.541 90.4368C191.707 90.5118 191.891 90.54 192.072 90.5182L193.036 90.402L193.068 90.8925C193.083 91.1303 192.928 91.3459 192.698 91.4076L192.391 91.4899C191.961 91.605 191.505 91.5737 191.096 91.4008L190.278 91.0556C190.045 90.9576 189.776 91.0479 189.65 91.2663L189.092 92.2338C188.966 92.4522 189.022 92.7303 189.223 92.8825L189.931 93.4184C190.285 93.6869 190.54 94.0658 190.656 94.4954L190.738 94.8027C190.8 95.0329 190.69 95.2747 190.477 95.3803L190.036 95.5981L189.654 94.705C189.583 94.5373 189.467 94.3923 189.319 94.2859L188.24 93.5104Z"></path>
<path fill="white" d="M201.76 96.4899C202.177 96.7898 202.299 97.3569 202.043 97.8019L201.495 98.7502L200.948 99.6985C200.691 100.143 200.139 100.321 199.67 100.11L198.459 99.5634C198.293 99.4884 198.109 99.4603 197.928 99.4821L196.964 99.5983L196.932 99.1078C196.917 98.8699 197.072 98.6543 197.302 98.5926L197.609 98.5103C198.039 98.3952 198.495 98.4266 198.904 98.5995L199.722 98.9446C199.955 99.0426 200.224 98.9523 200.35 98.7339L200.908 97.7664C201.034 97.548 200.978 97.2699 200.777 97.1177L200.069 96.5818C199.715 96.3134 199.46 95.9344 199.344 95.5048L199.262 95.1976C199.2 94.9673 199.31 94.7256 199.523 94.6199L199.964 94.4021L200.346 95.2952C200.417 95.4629 200.533 95.6079 200.681 95.7144L201.76 96.4899Z"></path>
</svg>
