<svg xmlns="http://www.w3.org/2000/svg" fill="none" viewBox="0 0 44 24" height="24" width="44">
<path fill-opacity="0.5" fill="#FF0000" d="M2 12C2 6.47715 6.47715 2 12 2H32C37.5228 2 42 6.47715 42 12V12C42 17.5228 37.5228 22 32 22H12C6.47715 22 2 17.5228 2 12V12Z"></path>
<path stroke-width="2" stroke-opacity="0.2" stroke="#FF0000" d="M32 1H12C5.92487 1 1 5.92487 1 12C1 18.0751 5.92487 23 12 23H32C38.0751 23 43 18.0751 43 12C43 5.92487 38.0751 1 32 1Z"></path>
<path fill="white" d="M19.1335 9.412C19.1815 8.668 19.4655 8.088 19.9855 7.672C20.5135 7.256 21.1855 7.048 22.0015 7.048C22.5615 7.048 23.0455 7.148 23.4535 7.348C23.8615 7.548 24.1695 7.82 24.3775 8.164C24.5855 8.508 24.6895 8.896 24.6895 9.328C24.6895 9.824 24.5575 10.248 24.2935 10.6C24.0295 10.952 23.7135 11.188 23.3455 11.308V11.356C23.8175 11.5 24.1855 11.764 24.4495 12.148C24.7135 12.524 24.8455 13.008 24.8455 13.6C24.8455 14.072 24.7375 14.492 24.5215 14.86C24.3055 15.228 23.9855 15.52 23.5615 15.736C23.1375 15.944 22.6295 16.048 22.0375 16.048C21.1735 16.048 20.4615 15.828 19.9015 15.388C19.3495 14.94 19.0535 14.3 19.0135 13.468H20.3335C20.3655 13.892 20.5295 14.24 20.8255 14.512C21.1215 14.776 21.5215 14.908 22.0255 14.908C22.5135 14.908 22.8895 14.776 23.1535 14.512C23.4175 14.24 23.5495 13.892 23.5495 13.468C23.5495 12.908 23.3695 12.512 23.0095 12.28C22.6575 12.04 22.1135 11.92 21.3775 11.92H21.0655V10.792H21.3895C22.0375 10.784 22.5295 10.676 22.8655 10.468C23.2095 10.26 23.3815 9.932 23.3815 9.484C23.3815 9.1 23.2575 8.796 23.0095 8.572C22.7615 8.34 22.4095 8.224 21.9535 8.224C21.5055 8.224 21.1575 8.34 20.9095 8.572C20.6615 8.796 20.5135 9.076 20.4655 9.412H19.1335Z"></path>
</svg>
