<svg xmlns="http://www.w3.org/2000/svg" fill="none" viewBox="0 0 100 80" height="80" width="100">
<rect fill-opacity="0.05" fill="white" rx="5" height="80" width="100"></rect>
<rect fill="url(#paint0_linear_311_218)" rx="2" height="19" width="24" y="22" x="38"></rect>
<path fill="url(#paint1_linear_311_218)" d="M38 21C38 19.8954 38.8954 19 40 19H46.9296C47.5983 19 48.2228 19.3342 48.5937 19.8906L50 22L48.5937 24.1094C48.2228 24.6658 47.5983 25 46.9296 25H38V21Z"></path>
<path fill="url(#paint2_linear_311_218)" d="M42 38C42 36.3431 43.3431 35 45 35H55C56.6569 35 58 36.3431 58 38V41H42V38Z"></path>
<rect fill="#0C6BB5" rx="1" height="2" width="8" y="37" x="46"></rect>
<path fill="white" d="M30.1488 57.367V59.611H32.7888V60.634H30.1488V62.977H33.1188V64H28.8948V56.344H33.1188V57.367H30.1488ZM37.2594 60.931L39.2174 64H37.7984L36.4894 61.943L35.2574 64H33.9484L35.9064 61.019L33.9484 57.939H35.3674L36.6764 59.996L37.9084 57.939H39.2174L37.2594 60.931ZM41.4066 58.83C41.6193 58.5513 41.909 58.3167 42.2756 58.126C42.6423 57.9353 43.0566 57.84 43.5186 57.84C44.0466 57.84 44.527 57.972 44.9596 58.236C45.3996 58.4927 45.7443 58.8557 45.9936 59.325C46.243 59.7943 46.3676 60.3333 46.3676 60.942C46.3676 61.5507 46.243 62.097 45.9936 62.581C45.7443 63.0577 45.3996 63.4317 44.9596 63.703C44.527 63.967 44.0466 64.099 43.5186 64.099C43.0566 64.099 42.646 64.0073 42.2866 63.824C41.9273 63.6333 41.634 63.3987 41.4066 63.12V66.882H40.1526V57.939H41.4066V58.83ZM45.0916 60.942C45.0916 60.524 45.0036 60.1647 44.8276 59.864C44.659 59.556 44.4316 59.325 44.1456 59.171C43.867 59.0097 43.5663 58.929 43.2436 58.929C42.9283 58.929 42.6276 59.0097 42.3416 59.171C42.063 59.3323 41.8356 59.567 41.6596 59.875C41.491 60.183 41.4066 60.546 41.4066 60.964C41.4066 61.382 41.491 61.7487 41.6596 62.064C41.8356 62.372 42.063 62.6067 42.3416 62.768C42.6276 62.9293 42.9283 63.01 43.2436 63.01C43.5663 63.01 43.867 62.9293 44.1456 62.768C44.4316 62.5993 44.659 62.3573 44.8276 62.042C45.0036 61.7267 45.0916 61.36 45.0916 60.942ZM48.8617 55.86V64H47.6077V55.86H48.8617ZM53.1371 64.099C52.5651 64.099 52.0481 63.9707 51.5861 63.714C51.1241 63.45 50.7611 63.0833 50.4971 62.614C50.2331 62.1373 50.1011 61.5873 50.1011 60.964C50.1011 60.348 50.2368 59.8017 50.5081 59.325C50.7794 58.8483 51.1498 58.4817 51.6191 58.225C52.0884 57.9683 52.6128 57.84 53.1921 57.84C53.7714 57.84 54.2958 57.9683 54.7651 58.225C55.2344 58.4817 55.6048 58.8483 55.8761 59.325C56.1474 59.8017 56.2831 60.348 56.2831 60.964C56.2831 61.58 56.1438 62.1263 55.8651 62.603C55.5864 63.0797 55.2051 63.45 54.7211 63.714C54.2444 63.9707 53.7164 64.099 53.1371 64.099ZM53.1371 63.01C53.4598 63.01 53.7604 62.933 54.0391 62.779C54.3251 62.625 54.5561 62.394 54.7321 62.086C54.9081 61.778 54.9961 61.404 54.9961 60.964C54.9961 60.524 54.9118 60.1537 54.7431 59.853C54.5744 59.545 54.3508 59.314 54.0721 59.16C53.7934 59.006 53.4928 58.929 53.1701 58.929C52.8474 58.929 52.5468 59.006 52.2681 59.16C51.9968 59.314 51.7804 59.545 51.6191 59.853C51.4578 60.1537 51.3771 60.524 51.3771 60.964C51.3771 61.6167 51.5421 62.1227 51.8721 62.482C52.2094 62.834 52.6311 63.01 53.1371 63.01ZM58.7768 58.819C58.9601 58.511 59.2021 58.2727 59.5028 58.104C59.8108 57.928 60.1738 57.84 60.5918 57.84V59.138H60.2728C59.7814 59.138 59.4074 59.2627 59.1508 59.512C58.9014 59.7613 58.7768 60.194 58.7768 60.81V64H57.5228V57.939H58.7768V58.819ZM67.2994 60.821C67.2994 61.0483 67.2848 61.2537 67.2554 61.437H62.6244C62.6611 61.921 62.8408 62.3097 63.1634 62.603C63.4861 62.8963 63.8821 63.043 64.3514 63.043C65.0261 63.043 65.5028 62.7607 65.7814 62.196H67.1344C66.9511 62.7533 66.6174 63.2117 66.1334 63.571C65.6568 63.923 65.0628 64.099 64.3514 64.099C63.7721 64.099 63.2514 63.9707 62.7894 63.714C62.3348 63.45 61.9754 63.0833 61.7114 62.614C61.4548 62.1373 61.3264 61.5873 61.3264 60.964C61.3264 60.3407 61.4511 59.7943 61.7004 59.325C61.9571 58.8483 62.3128 58.4817 62.7674 58.225C63.2294 57.9683 63.7574 57.84 64.3514 57.84C64.9234 57.84 65.4331 57.9647 65.8804 58.214C66.3278 58.4633 66.6761 58.8153 66.9254 59.27C67.1748 59.7173 67.2994 60.2343 67.2994 60.821ZM65.9904 60.425C65.9831 59.963 65.8181 59.5927 65.4954 59.314C65.1728 59.0353 64.7731 58.896 64.2964 58.896C63.8638 58.896 63.4934 59.0353 63.1854 59.314C62.8774 59.5853 62.6941 59.9557 62.6354 60.425H65.9904ZM69.7875 58.819C69.9708 58.511 70.2128 58.2727 70.5135 58.104C70.8215 57.928 71.1845 57.84 71.6025 57.84V59.138H71.2835C70.7922 59.138 70.4182 59.2627 70.1615 59.512C69.9122 59.7613 69.7875 60.194 69.7875 60.81V64H68.5335V57.939H69.7875V58.819Z"></path>
<defs>
<linearGradient gradientUnits="userSpaceOnUse" y2="22" x2="54" y1="41" x1="54" id="paint0_linear_311_218">
<stop stop-color="#F7B70A"></stop>
<stop stop-color="#FFD04B" offset="1"></stop>
</linearGradient>
<linearGradient gradientUnits="userSpaceOnUse" y2="25" x2="44" y1="19" x1="44" id="paint1_linear_311_218">
<stop stop-color="#E09F00"></stop>
<stop stop-color="#BA8400" offset="1"></stop>
</linearGradient>
<linearGradient gradientUnits="userSpaceOnUse" y2="38.75" x2="42" y1="38.75" x1="58" id="paint2_linear_311_218">
<stop stop-color="#046CBD"></stop>
<stop stop-color="#108AD7" offset="1"></stop>
</linearGradient>
</defs>
</svg>
