<svg xmlns="http://www.w3.org/2000/svg" fill="none" viewBox="0 0 480 210" height="210" width="480">
<path fill-opacity="0.9" fill="#1A1A1A" d="M75 30C75 24.4772 79.4772 20 85 20H395C400.523 20 405 24.4772 405 30V180C405 185.523 400.523 190 395 190H85C79.4771 190 75 185.523 75 180V30Z"></path>
<path stroke-width="2" stroke-opacity="0.2" stroke="white" d="M85 19C78.9249 19 74 23.9249 74 30V180C74 186.075 78.9249 191 85 191H395C401.075 191 406 186.075 406 180V30C406 23.9249 401.075 19 395 19H85Z"></path>
<path fill="white" d="M131.171 73.632C131.171 74.0207 131.079 74.3873 130.896 74.732C130.713 75.0767 130.419 75.359 130.016 75.579C129.613 75.7917 129.096 75.898 128.465 75.898H127.079V79H125.825V71.355H128.465C129.052 71.355 129.547 71.4577 129.95 71.663C130.361 71.861 130.665 72.1323 130.863 72.477C131.068 72.8217 131.171 73.2067 131.171 73.632ZM128.465 74.875C128.942 74.875 129.297 74.7687 129.532 74.556C129.767 74.336 129.884 74.028 129.884 73.632C129.884 72.796 129.411 72.378 128.465 72.378H127.079V74.875H128.465ZM137.922 75.821C137.922 76.0483 137.907 76.2537 137.878 76.437H133.247C133.284 76.921 133.463 77.3097 133.786 77.603C134.109 77.8963 134.505 78.043 134.974 78.043C135.649 78.043 136.125 77.7607 136.404 77.196H137.757C137.574 77.7533 137.24 78.2117 136.756 78.571C136.279 78.923 135.685 79.099 134.974 79.099C134.395 79.099 133.874 78.9707 133.412 78.714C132.957 78.45 132.598 78.0833 132.334 77.614C132.077 77.1373 131.949 76.5873 131.949 75.964C131.949 75.3407 132.074 74.7943 132.323 74.325C132.58 73.8483 132.935 73.4817 133.39 73.225C133.852 72.9683 134.38 72.84 134.974 72.84C135.546 72.84 136.056 72.9647 136.503 73.214C136.95 73.4633 137.299 73.8153 137.548 74.27C137.797 74.7173 137.922 75.2343 137.922 75.821ZM136.613 75.425C136.606 74.963 136.441 74.5927 136.118 74.314C135.795 74.0353 135.396 73.896 134.919 73.896C134.486 73.896 134.116 74.0353 133.808 74.314C133.5 74.5853 133.317 74.9557 133.258 75.425H136.613ZM142.214 72.84C142.691 72.84 143.116 72.939 143.49 73.137C143.871 73.335 144.168 73.6283 144.381 74.017C144.594 74.4057 144.7 74.875 144.7 75.425V79H143.457V75.612C143.457 75.0693 143.321 74.655 143.05 74.369C142.779 74.0757 142.408 73.929 141.939 73.929C141.47 73.929 141.096 74.0757 140.817 74.369C140.546 74.655 140.41 75.0693 140.41 75.612V79H139.156V72.939H140.41V73.632C140.615 73.3827 140.876 73.1883 141.191 73.049C141.514 72.9097 141.855 72.84 142.214 72.84Z"></path>
<path stroke-linejoin="round" stroke-linecap="round" stroke="#CCCCCC" d="M93 78.5L102.586 68.9142C103.367 68.1332 104.633 68.1332 105.414 68.9142L106.086 69.5858C106.867 70.3668 106.867 71.6332 106.086 72.4142L96.5 82"></path>
<path stroke-linejoin="round" stroke-linecap="round" stroke="#4CC2FF" d="M93 78.5L92.75 80.5M92.5 82.5L92.75 80.5M92.5 82.5L94.5 82.25M92.5 82.5L93.625 81.375M96.5 82L94.5 82.25M92.75 80.5L93.625 81.375M94.5 82.25L93.625 81.375"></path>
<path stroke-linejoin="round" stroke-linecap="round" stroke="#4CC2FF" d="M106.5 77.5L105.602 77.2755C104.088 76.8971 103.009 78.718 104.067 79.8643V79.8643C104.996 80.8703 104.282 82.5 102.913 82.5H98.5"></path>
<path fill="white" d="M127.079 107.988H129.664V109H125.825V101.355H127.079V107.988ZM131.351 102.136C131.123 102.136 130.933 102.059 130.779 101.905C130.625 101.751 130.548 101.56 130.548 101.333C130.548 101.106 130.625 100.915 130.779 100.761C130.933 100.607 131.123 100.53 131.351 100.53C131.571 100.53 131.758 100.607 131.912 100.761C132.066 100.915 132.143 101.106 132.143 101.333C132.143 101.56 132.066 101.751 131.912 101.905C131.758 102.059 131.571 102.136 131.351 102.136ZM131.967 102.939V109H130.713V102.939H131.967ZM136.671 102.84C137.148 102.84 137.573 102.939 137.947 103.137C138.328 103.335 138.625 103.628 138.838 104.017C139.051 104.406 139.157 104.875 139.157 105.425V109H137.914V105.612C137.914 105.069 137.778 104.655 137.507 104.369C137.236 104.076 136.865 103.929 136.396 103.929C135.927 103.929 135.553 104.076 135.274 104.369C135.003 104.655 134.867 105.069 134.867 105.612V109H133.613V102.939H134.867V103.632C135.072 103.383 135.333 103.188 135.648 103.049C135.971 102.91 136.312 102.84 136.671 102.84ZM146.312 105.821C146.312 106.048 146.297 106.254 146.268 106.437H141.637C141.673 106.921 141.853 107.31 142.176 107.603C142.498 107.896 142.894 108.043 143.364 108.043C144.038 108.043 144.515 107.761 144.794 107.196H146.147C145.963 107.753 145.63 108.212 145.146 108.571C144.669 108.923 144.075 109.099 143.364 109.099C142.784 109.099 142.264 108.971 141.802 108.714C141.347 108.45 140.988 108.083 140.724 107.614C140.467 107.137 140.339 106.587 140.339 105.964C140.339 105.341 140.463 104.794 140.713 104.325C140.969 103.848 141.325 103.482 141.78 103.225C142.242 102.968 142.77 102.84 143.364 102.84C143.936 102.84 144.445 102.965 144.893 103.214C145.34 103.463 145.688 103.815 145.938 104.27C146.187 104.717 146.312 105.234 146.312 105.821ZM145.003 105.425C144.995 104.963 144.83 104.593 144.508 104.314C144.185 104.035 143.785 103.896 143.309 103.896C142.876 103.896 142.506 104.035 142.198 104.314C141.89 104.585 141.706 104.956 141.648 105.425H145.003Z"></path>
<path stroke-linejoin="round" stroke-linecap="round" stroke="#4CC2FF" d="M107.5 101.5L92.5 108.5"></path>
<path stroke-linejoin="round" stroke-linecap="round" stroke="#4CC2FF" d="M102.5 135.5H95.9341C94.9336 135.5 94.5531 136.807 95.3972 137.344L101.963 141.522C102.629 141.946 103.5 141.467 103.5 140.678V136.5C103.5 135.948 103.052 135.5 102.5 135.5Z"></path>
<path stroke-linejoin="round" stroke-linecap="round" stroke="#CCCCCC" d="M101.5 133.5L105.793 129.207C106.423 128.577 107.5 129.023 107.5 129.914L107.5 137.5C107.5 138.052 107.052 138.5 106.5 138.5L105.5 138.5"></path>
<path fill="white" d="M129.796 139L128.036 135.942H127.079V139H125.825V131.355H128.465C129.052 131.355 129.547 131.458 129.95 131.663C130.361 131.868 130.665 132.143 130.863 132.488C131.068 132.833 131.171 133.218 131.171 133.643C131.171 134.142 131.024 134.596 130.731 135.007C130.445 135.41 130.001 135.685 129.4 135.832L131.292 139H129.796ZM127.079 134.941H128.465C128.934 134.941 129.286 134.824 129.521 134.589C129.763 134.354 129.884 134.039 129.884 133.643C129.884 133.247 129.767 132.939 129.532 132.719C129.297 132.492 128.942 132.378 128.465 132.378H127.079V134.941ZM138.33 135.821C138.33 136.048 138.316 136.254 138.286 136.437H133.655C133.692 136.921 133.872 137.31 134.194 137.603C134.517 137.896 134.913 138.043 135.382 138.043C136.057 138.043 136.534 137.761 136.812 137.196H138.165C137.982 137.753 137.648 138.212 137.164 138.571C136.688 138.923 136.094 139.099 135.382 139.099C134.803 139.099 134.282 138.971 133.82 138.714C133.366 138.45 133.006 138.083 132.742 137.614C132.486 137.137 132.357 136.587 132.357 135.964C132.357 135.341 132.482 134.794 132.731 134.325C132.988 133.848 133.344 133.482 133.798 133.225C134.26 132.968 134.788 132.84 135.382 132.84C135.954 132.84 136.464 132.965 136.911 133.214C137.359 133.463 137.707 133.815 137.956 134.27C138.206 134.717 138.33 135.234 138.33 135.821ZM137.021 135.425C137.014 134.963 136.849 134.593 136.526 134.314C136.204 134.035 135.804 133.896 135.327 133.896C134.895 133.896 134.524 134.035 134.216 134.314C133.908 134.585 133.725 134.956 133.666 135.425H137.021ZM139.146 135.964C139.146 135.341 139.271 134.794 139.52 134.325C139.777 133.848 140.129 133.482 140.576 133.225C141.024 132.968 141.537 132.84 142.116 132.84C142.85 132.84 143.455 133.016 143.931 133.368C144.415 133.713 144.742 134.208 144.91 134.853H143.557C143.447 134.552 143.271 134.318 143.029 134.149C142.787 133.98 142.483 133.896 142.116 133.896C141.603 133.896 141.192 134.079 140.884 134.446C140.584 134.805 140.433 135.311 140.433 135.964C140.433 136.617 140.584 137.126 140.884 137.493C141.192 137.86 141.603 138.043 142.116 138.043C142.842 138.043 143.323 137.724 143.557 137.086H144.91C144.734 137.702 144.404 138.193 143.92 138.56C143.436 138.919 142.835 139.099 142.116 139.099C141.537 139.099 141.024 138.971 140.576 138.714C140.129 138.45 139.777 138.083 139.52 137.614C139.271 137.137 139.146 136.587 139.146 135.964ZM147.623 133.962V137.317C147.623 137.544 147.674 137.709 147.777 137.812C147.887 137.907 148.07 137.955 148.327 137.955H149.097V139H148.107C147.542 139 147.11 138.868 146.809 138.604C146.508 138.34 146.358 137.911 146.358 137.317V133.962H145.643V132.939H146.358V131.432H147.623V132.939H149.097V133.962H147.623ZM149.835 135.942C149.835 135.333 149.959 134.794 150.209 134.325C150.465 133.856 150.81 133.493 151.243 133.236C151.683 132.972 152.167 132.84 152.695 132.84C153.171 132.84 153.586 132.935 153.938 133.126C154.297 133.309 154.583 133.54 154.796 133.819V132.939H156.061V139H154.796V138.098C154.583 138.384 154.293 138.622 153.927 138.813C153.56 139.004 153.142 139.099 152.673 139.099C152.152 139.099 151.675 138.967 151.243 138.703C150.81 138.432 150.465 138.058 150.209 137.581C149.959 137.097 149.835 136.551 149.835 135.942ZM154.796 135.964C154.796 135.546 154.708 135.183 154.532 134.875C154.363 134.567 154.139 134.332 153.861 134.171C153.582 134.01 153.281 133.929 152.959 133.929C152.636 133.929 152.335 134.01 152.057 134.171C151.778 134.325 151.551 134.556 151.375 134.864C151.206 135.165 151.122 135.524 151.122 135.942C151.122 136.36 151.206 136.727 151.375 137.042C151.551 137.357 151.778 137.599 152.057 137.768C152.343 137.929 152.643 138.01 152.959 138.01C153.281 138.01 153.582 137.929 153.861 137.768C154.139 137.607 154.363 137.372 154.532 137.064C154.708 136.749 154.796 136.382 154.796 135.964ZM160.766 132.84C161.242 132.84 161.668 132.939 162.042 133.137C162.423 133.335 162.72 133.628 162.933 134.017C163.145 134.406 163.252 134.875 163.252 135.425V139H162.009V135.612C162.009 135.069 161.873 134.655 161.602 134.369C161.33 134.076 160.96 133.929 160.491 133.929C160.021 133.929 159.647 134.076 159.369 134.369C159.097 134.655 158.962 135.069 158.962 135.612V139H157.708V132.939H158.962V133.632C159.167 133.383 159.427 133.188 159.743 133.049C160.065 132.91 160.406 132.84 160.766 132.84ZM167.293 132.84C167.763 132.84 168.177 132.935 168.536 133.126C168.903 133.309 169.189 133.54 169.394 133.819V132.939H170.659V139.099C170.659 139.656 170.542 140.151 170.307 140.584C170.073 141.024 169.732 141.369 169.284 141.618C168.844 141.867 168.316 141.992 167.7 141.992C166.879 141.992 166.197 141.798 165.654 141.409C165.112 141.028 164.804 140.507 164.73 139.847H165.973C166.069 140.162 166.27 140.415 166.578 140.606C166.894 140.804 167.268 140.903 167.7 140.903C168.206 140.903 168.613 140.749 168.921 140.441C169.237 140.133 169.394 139.686 169.394 139.099V138.087C169.182 138.373 168.892 138.615 168.525 138.813C168.166 139.004 167.755 139.099 167.293 139.099C166.765 139.099 166.281 138.967 165.841 138.703C165.409 138.432 165.064 138.058 164.807 137.581C164.558 137.097 164.433 136.551 164.433 135.942C164.433 135.333 164.558 134.794 164.807 134.325C165.064 133.856 165.409 133.493 165.841 133.236C166.281 132.972 166.765 132.84 167.293 132.84ZM169.394 135.964C169.394 135.546 169.306 135.183 169.13 134.875C168.962 134.567 168.738 134.332 168.459 134.171C168.181 134.01 167.88 133.929 167.557 133.929C167.235 133.929 166.934 134.01 166.655 134.171C166.377 134.325 166.149 134.556 165.973 134.864C165.805 135.165 165.72 135.524 165.72 135.942C165.72 136.36 165.805 136.727 165.973 137.042C166.149 137.357 166.377 137.599 166.655 137.768C166.941 137.929 167.242 138.01 167.557 138.01C167.88 138.01 168.181 137.929 168.459 137.768C168.738 137.607 168.962 137.372 169.13 137.064C169.306 136.749 169.394 136.382 169.394 135.964ZM173.56 130.86V139H172.306V130.86H173.56ZM180.762 135.821C180.762 136.048 180.747 136.254 180.718 136.437H176.087C176.124 136.921 176.303 137.31 176.626 137.603C176.949 137.896 177.345 138.043 177.814 138.043C178.489 138.043 178.965 137.761 179.244 137.196H180.597C180.414 137.753 180.08 138.212 179.596 138.571C179.119 138.923 178.525 139.099 177.814 139.099C177.235 139.099 176.714 138.971 176.252 138.714C175.797 138.45 175.438 138.083 175.174 137.614C174.917 137.137 174.789 136.587 174.789 135.964C174.789 135.341 174.914 134.794 175.163 134.325C175.42 133.848 175.775 133.482 176.23 133.225C176.692 132.968 177.22 132.84 177.814 132.84C178.386 132.84 178.896 132.965 179.343 133.214C179.79 133.463 180.139 133.815 180.388 134.27C180.637 134.717 180.762 135.234 180.762 135.821ZM179.453 135.425C179.446 134.963 179.281 134.593 178.958 134.314C178.635 134.035 178.236 133.896 177.759 133.896C177.326 133.896 176.956 134.035 176.648 134.314C176.34 134.585 176.157 134.956 176.098 135.425H179.453ZM186.316 133.962V137.317C186.316 137.544 186.368 137.709 186.47 137.812C186.58 137.907 186.764 137.955 187.02 137.955H187.79V139H186.8C186.236 139 185.803 138.868 185.502 138.604C185.202 138.34 185.051 137.911 185.051 137.317V133.962H184.336V132.939H185.051V131.432H186.316V132.939H187.79V133.962H186.316ZM190.2 133.819C190.383 133.511 190.625 133.273 190.926 133.104C191.234 132.928 191.597 132.84 192.015 132.84V134.138H191.696C191.205 134.138 190.831 134.263 190.574 134.512C190.325 134.761 190.2 135.194 190.2 135.81V139H188.946V132.939H190.2V133.819ZM193.806 132.136C193.578 132.136 193.388 132.059 193.234 131.905C193.08 131.751 193.003 131.56 193.003 131.333C193.003 131.106 193.08 130.915 193.234 130.761C193.388 130.607 193.578 130.53 193.806 130.53C194.026 130.53 194.213 130.607 194.367 130.761C194.521 130.915 194.598 131.106 194.598 131.333C194.598 131.56 194.521 131.751 194.367 131.905C194.213 132.059 194.026 132.136 193.806 132.136ZM194.422 132.939V139H193.168V132.939H194.422ZM195.65 135.942C195.65 135.333 195.775 134.794 196.024 134.325C196.281 133.856 196.625 133.493 197.058 133.236C197.498 132.972 197.982 132.84 198.51 132.84C198.987 132.84 199.401 132.935 199.753 133.126C200.112 133.309 200.398 133.54 200.611 133.819V132.939H201.876V139H200.611V138.098C200.398 138.384 200.109 138.622 199.742 138.813C199.375 139.004 198.957 139.099 198.488 139.099C197.967 139.099 197.491 138.967 197.058 138.703C196.625 138.432 196.281 138.058 196.024 137.581C195.775 137.097 195.65 136.551 195.65 135.942ZM200.611 135.964C200.611 135.546 200.523 135.183 200.347 134.875C200.178 134.567 199.955 134.332 199.676 134.171C199.397 134.01 199.097 133.929 198.774 133.929C198.451 133.929 198.151 134.01 197.872 134.171C197.593 134.325 197.366 134.556 197.19 134.864C197.021 135.165 196.937 135.524 196.937 135.942C196.937 136.36 197.021 136.727 197.19 137.042C197.366 137.357 197.593 137.599 197.872 137.768C198.158 137.929 198.459 138.01 198.774 138.01C199.097 138.01 199.397 137.929 199.676 137.768C199.955 137.607 200.178 137.372 200.347 137.064C200.523 136.749 200.611 136.382 200.611 135.964ZM206.581 132.84C207.058 132.84 207.483 132.939 207.857 133.137C208.239 133.335 208.536 133.628 208.748 134.017C208.961 134.406 209.067 134.875 209.067 135.425V139H207.824V135.612C207.824 135.069 207.689 134.655 207.417 134.369C207.146 134.076 206.776 133.929 206.306 133.929C205.837 133.929 205.463 134.076 205.184 134.369C204.913 134.655 204.777 135.069 204.777 135.612V139H203.523V132.939H204.777V133.632C204.983 133.383 205.243 133.188 205.558 133.049C205.881 132.91 206.222 132.84 206.581 132.84ZM213.109 132.84C213.578 132.84 213.992 132.935 214.352 133.126C214.718 133.309 215.004 133.54 215.21 133.819V132.939H216.475V139.099C216.475 139.656 216.357 140.151 216.123 140.584C215.888 141.024 215.547 141.369 215.1 141.618C214.66 141.867 214.132 141.992 213.516 141.992C212.694 141.992 212.012 141.798 211.47 141.409C210.927 141.028 210.619 140.507 210.546 139.847H211.789C211.884 140.162 212.086 140.415 212.394 140.606C212.709 140.804 213.083 140.903 213.516 140.903C214.022 140.903 214.429 140.749 214.737 140.441C215.052 140.133 215.21 139.686 215.21 139.099V138.087C214.997 138.373 214.707 138.615 214.341 138.813C213.981 139.004 213.571 139.099 213.109 139.099C212.581 139.099 212.097 138.967 211.657 138.703C211.224 138.432 210.879 138.058 210.623 137.581C210.373 137.097 210.249 136.551 210.249 135.942C210.249 135.333 210.373 134.794 210.623 134.325C210.879 133.856 211.224 133.493 211.657 133.236C212.097 132.972 212.581 132.84 213.109 132.84ZM215.21 135.964C215.21 135.546 215.122 135.183 214.946 134.875C214.777 134.567 214.553 134.332 214.275 134.171C213.996 134.01 213.695 133.929 213.373 133.929C213.05 133.929 212.749 134.01 212.471 134.171C212.192 134.325 211.965 134.556 211.789 134.864C211.62 135.165 211.536 135.524 211.536 135.942C211.536 136.36 211.62 136.727 211.789 137.042C211.965 137.357 212.192 137.599 212.471 137.768C212.757 137.929 213.057 138.01 213.373 138.01C213.695 138.01 213.996 137.929 214.275 137.768C214.553 137.607 214.777 137.372 214.946 137.064C215.122 136.749 215.21 136.382 215.21 135.964ZM219.376 130.86V139H218.122V130.86H219.376ZM226.577 135.821C226.577 136.048 226.563 136.254 226.533 136.437H221.902C221.939 136.921 222.119 137.31 222.441 137.603C222.764 137.896 223.16 138.043 223.629 138.043C224.304 138.043 224.781 137.761 225.059 137.196H226.412C226.229 137.753 225.895 138.212 225.411 138.571C224.935 138.923 224.341 139.099 223.629 139.099C223.05 139.099 222.529 138.971 222.067 138.714C221.613 138.45 221.253 138.083 220.989 137.614C220.733 137.137 220.604 136.587 220.604 135.964C220.604 135.341 220.729 134.794 220.978 134.325C221.235 133.848 221.591 133.482 222.045 133.225C222.507 132.968 223.035 132.84 223.629 132.84C224.201 132.84 224.711 132.965 225.158 133.214C225.606 133.463 225.954 133.815 226.203 134.27C226.453 134.717 226.577 135.234 226.577 135.821ZM225.268 135.425C225.261 134.963 225.096 134.593 224.773 134.314C224.451 134.035 224.051 133.896 223.574 133.896C223.142 133.896 222.771 134.035 222.463 134.314C222.155 134.585 221.972 134.956 221.913 135.425H225.268Z"></path>
<path stroke-linejoin="round" stroke-linecap="round" stroke="#4CC2FF" d="M97.7 158.567L93.7 163.9C93.2056 164.559 93.676 165.5 94.5 165.5H102.5C103.324 165.5 103.794 164.559 103.3 163.9L99.3 158.567C98.9 158.033 98.1 158.033 97.7 158.567Z"></path>
<path stroke-linejoin="round" stroke-linecap="round" stroke="#CCCCCC" d="M105.5 164.5V164.5C106.324 164.5 106.794 165.441 106.3 166.1L102.3 171.433C101.9 171.967 101.1 171.967 100.7 171.433L97.75 167.5"></path>
<path fill="white" d="M127.079 161.355V169H125.825V161.355H127.079ZM130.925 169.099C130.449 169.099 130.02 169.015 129.638 168.846C129.264 168.67 128.967 168.435 128.747 168.142C128.527 167.841 128.41 167.508 128.395 167.141H129.693C129.715 167.398 129.836 167.614 130.056 167.79C130.284 167.959 130.566 168.043 130.903 168.043C131.255 168.043 131.527 167.977 131.717 167.845C131.915 167.706 132.014 167.53 132.014 167.317C132.014 167.09 131.904 166.921 131.684 166.811C131.472 166.701 131.131 166.58 130.661 166.448C130.207 166.323 129.836 166.202 129.55 166.085C129.264 165.968 129.015 165.788 128.802 165.546C128.597 165.304 128.494 164.985 128.494 164.589C128.494 164.266 128.59 163.973 128.78 163.709C128.971 163.438 129.242 163.225 129.594 163.071C129.954 162.917 130.364 162.84 130.826 162.84C131.516 162.84 132.069 163.016 132.487 163.368C132.913 163.713 133.14 164.186 133.169 164.787H131.915C131.893 164.516 131.783 164.299 131.585 164.138C131.387 163.977 131.12 163.896 130.782 163.896C130.452 163.896 130.199 163.958 130.023 164.083C129.847 164.208 129.759 164.373 129.759 164.578C129.759 164.739 129.818 164.875 129.935 164.985C130.053 165.095 130.196 165.183 130.364 165.249C130.533 165.308 130.782 165.385 131.112 165.48C131.552 165.597 131.912 165.718 132.19 165.843C132.476 165.96 132.722 166.136 132.927 166.371C133.133 166.606 133.239 166.917 133.246 167.306C133.246 167.651 133.151 167.959 132.96 168.23C132.77 168.501 132.498 168.714 132.146 168.868C131.802 169.022 131.395 169.099 130.925 169.099ZM137.23 169.099C136.658 169.099 136.141 168.971 135.679 168.714C135.217 168.45 134.854 168.083 134.59 167.614C134.326 167.137 134.194 166.587 134.194 165.964C134.194 165.348 134.33 164.802 134.601 164.325C134.873 163.848 135.243 163.482 135.712 163.225C136.182 162.968 136.706 162.84 137.285 162.84C137.865 162.84 138.389 162.968 138.858 163.225C139.328 163.482 139.698 163.848 139.969 164.325C140.241 164.802 140.376 165.348 140.376 165.964C140.376 166.58 140.237 167.126 139.958 167.603C139.68 168.08 139.298 168.45 138.814 168.714C138.338 168.971 137.81 169.099 137.23 169.099ZM137.23 168.01C137.553 168.01 137.854 167.933 138.132 167.779C138.418 167.625 138.649 167.394 138.825 167.086C139.001 166.778 139.089 166.404 139.089 165.964C139.089 165.524 139.005 165.154 138.836 164.853C138.668 164.545 138.444 164.314 138.165 164.16C137.887 164.006 137.586 163.929 137.263 163.929C136.941 163.929 136.64 164.006 136.361 164.16C136.09 164.314 135.874 164.545 135.712 164.853C135.551 165.154 135.47 165.524 135.47 165.964C135.47 166.617 135.635 167.123 135.965 167.482C136.303 167.834 136.724 168.01 137.23 168.01ZM143.816 169.099C143.339 169.099 142.91 169.015 142.529 168.846C142.155 168.67 141.858 168.435 141.638 168.142C141.418 167.841 141.301 167.508 141.286 167.141H142.584C142.606 167.398 142.727 167.614 142.947 167.79C143.174 167.959 143.457 168.043 143.794 168.043C144.146 168.043 144.417 167.977 144.608 167.845C144.806 167.706 144.905 167.53 144.905 167.317C144.905 167.09 144.795 166.921 144.575 166.811C144.362 166.701 144.021 166.58 143.552 166.448C143.097 166.323 142.727 166.202 142.441 166.085C142.155 165.968 141.906 165.788 141.693 165.546C141.488 165.304 141.385 164.985 141.385 164.589C141.385 164.266 141.48 163.973 141.671 163.709C141.862 163.438 142.133 163.225 142.485 163.071C142.844 162.917 143.255 162.84 143.717 162.84C144.406 162.84 144.96 163.016 145.378 163.368C145.803 163.713 146.031 164.186 146.06 164.787H144.806C144.784 164.516 144.674 164.299 144.476 164.138C144.278 163.977 144.01 163.896 143.673 163.896C143.343 163.896 143.09 163.958 142.914 164.083C142.738 164.208 142.65 164.373 142.65 164.578C142.65 164.739 142.709 164.875 142.826 164.985C142.943 165.095 143.086 165.183 143.255 165.249C143.424 165.308 143.673 165.385 144.003 165.48C144.443 165.597 144.802 165.718 145.081 165.843C145.367 165.96 145.613 166.136 145.818 166.371C146.023 166.606 146.13 166.917 146.137 167.306C146.137 167.651 146.042 167.959 145.851 168.23C145.66 168.501 145.389 168.714 145.037 168.868C144.692 169.022 144.285 169.099 143.816 169.099ZM147.074 165.964C147.074 165.341 147.199 164.794 147.448 164.325C147.705 163.848 148.057 163.482 148.504 163.225C148.951 162.968 149.465 162.84 150.044 162.84C150.777 162.84 151.382 163.016 151.859 163.368C152.343 163.713 152.669 164.208 152.838 164.853H151.485C151.375 164.552 151.199 164.318 150.957 164.149C150.715 163.98 150.411 163.896 150.044 163.896C149.531 163.896 149.12 164.079 148.812 164.446C148.511 164.805 148.361 165.311 148.361 165.964C148.361 166.617 148.511 167.126 148.812 167.493C149.12 167.86 149.531 168.043 150.044 168.043C150.77 168.043 151.25 167.724 151.485 167.086H152.838C152.662 167.702 152.332 168.193 151.848 168.56C151.364 168.919 150.763 169.099 150.044 169.099C149.465 169.099 148.951 168.971 148.504 168.714C148.057 168.45 147.705 168.083 147.448 167.614C147.199 167.137 147.074 166.587 147.074 165.964ZM159.643 165.821C159.643 166.048 159.628 166.254 159.599 166.437H154.968C155.004 166.921 155.184 167.31 155.507 167.603C155.829 167.896 156.225 168.043 156.695 168.043C157.369 168.043 157.846 167.761 158.125 167.196H159.478C159.294 167.753 158.961 168.212 158.477 168.571C158 168.923 157.406 169.099 156.695 169.099C156.115 169.099 155.595 168.971 155.133 168.714C154.678 168.45 154.319 168.083 154.055 167.614C153.798 167.137 153.67 166.587 153.67 165.964C153.67 165.341 153.794 164.794 154.044 164.325C154.3 163.848 154.656 163.482 155.111 163.225C155.573 162.968 156.101 162.84 156.695 162.84C157.267 162.84 157.776 162.965 158.224 163.214C158.671 163.463 159.019 163.815 159.269 164.27C159.518 164.717 159.643 165.234 159.643 165.821ZM158.334 165.425C158.326 164.963 158.161 164.593 157.839 164.314C157.516 164.035 157.116 163.896 156.64 163.896C156.207 163.896 155.837 164.035 155.529 164.314C155.221 164.585 155.037 164.956 154.979 165.425H158.334ZM162.131 160.86V169H160.877V160.86H162.131ZM169.332 165.821C169.332 166.048 169.317 166.254 169.288 166.437H164.657C164.694 166.921 164.873 167.31 165.196 167.603C165.519 167.896 165.915 168.043 166.384 168.043C167.059 168.043 167.535 167.761 167.814 167.196H169.167C168.984 167.753 168.65 168.212 168.166 168.571C167.689 168.923 167.095 169.099 166.384 169.099C165.805 169.099 165.284 168.971 164.822 168.714C164.367 168.45 164.008 168.083 163.744 167.614C163.487 167.137 163.359 166.587 163.359 165.964C163.359 165.341 163.484 164.794 163.733 164.325C163.99 163.848 164.345 163.482 164.8 163.225C165.262 162.968 165.79 162.84 166.384 162.84C166.956 162.84 167.466 162.965 167.913 163.214C168.36 163.463 168.709 163.815 168.958 164.27C169.207 164.717 169.332 165.234 169.332 165.821ZM168.023 165.425C168.016 164.963 167.851 164.593 167.528 164.314C167.205 164.035 166.806 163.896 166.329 163.896C165.896 163.896 165.526 164.035 165.218 164.314C164.91 164.585 164.727 164.956 164.668 165.425H168.023ZM172.766 169.099C172.29 169.099 171.861 169.015 171.479 168.846C171.105 168.67 170.808 168.435 170.588 168.142C170.368 167.841 170.251 167.508 170.236 167.141H171.534C171.556 167.398 171.677 167.614 171.897 167.79C172.125 167.959 172.407 168.043 172.744 168.043C173.096 168.043 173.368 167.977 173.558 167.845C173.756 167.706 173.855 167.53 173.855 167.317C173.855 167.09 173.745 166.921 173.525 166.811C173.313 166.701 172.972 166.58 172.502 166.448C172.048 166.323 171.677 166.202 171.391 166.085C171.105 165.968 170.856 165.788 170.643 165.546C170.438 165.304 170.335 164.985 170.335 164.589C170.335 164.266 170.431 163.973 170.621 163.709C170.812 163.438 171.083 163.225 171.435 163.071C171.795 162.917 172.205 162.84 172.667 162.84C173.357 162.84 173.91 163.016 174.328 163.368C174.754 163.713 174.981 164.186 175.01 164.787H173.756C173.734 164.516 173.624 164.299 173.426 164.138C173.228 163.977 172.961 163.896 172.623 163.896C172.293 163.896 172.04 163.958 171.864 164.083C171.688 164.208 171.6 164.373 171.6 164.578C171.6 164.739 171.659 164.875 171.776 164.985C171.894 165.095 172.037 165.183 172.205 165.249C172.374 165.308 172.623 165.385 172.953 165.48C173.393 165.597 173.753 165.718 174.031 165.843C174.317 165.96 174.563 166.136 174.768 166.371C174.974 166.606 175.08 166.917 175.087 167.306C175.087 167.651 174.992 167.959 174.801 168.23C174.611 168.501 174.339 168.714 173.987 168.868C173.643 169.022 173.236 169.099 172.766 169.099ZM180.763 163.962V167.317C180.763 167.544 180.814 167.709 180.917 167.812C181.027 167.907 181.21 167.955 181.467 167.955H182.237V169H181.247C180.682 169 180.249 168.868 179.949 168.604C179.648 168.34 179.498 167.911 179.498 167.317V163.962H178.783V162.939H179.498V161.432H180.763V162.939H182.237V163.962H180.763ZM184.646 163.819C184.83 163.511 185.072 163.273 185.372 163.104C185.68 162.928 186.043 162.84 186.461 162.84V164.138H186.142C185.651 164.138 185.277 164.263 185.02 164.512C184.771 164.761 184.646 165.194 184.646 165.81V169H183.392V162.939H184.646V163.819ZM188.252 162.136C188.025 162.136 187.834 162.059 187.68 161.905C187.526 161.751 187.449 161.56 187.449 161.333C187.449 161.106 187.526 160.915 187.68 160.761C187.834 160.607 188.025 160.53 188.252 160.53C188.472 160.53 188.659 160.607 188.813 160.761C188.967 160.915 189.044 161.106 189.044 161.333C189.044 161.56 188.967 161.751 188.813 161.905C188.659 162.059 188.472 162.136 188.252 162.136ZM188.868 162.939V169H187.614V162.939H188.868ZM190.096 165.942C190.096 165.333 190.221 164.794 190.47 164.325C190.727 163.856 191.072 163.493 191.504 163.236C191.944 162.972 192.428 162.84 192.956 162.84C193.433 162.84 193.847 162.935 194.199 163.126C194.559 163.309 194.845 163.54 195.057 163.819V162.939H196.322V169H195.057V168.098C194.845 168.384 194.555 168.622 194.188 168.813C193.822 169.004 193.404 169.099 192.934 169.099C192.414 169.099 191.937 168.967 191.504 168.703C191.072 168.432 190.727 168.058 190.47 167.581C190.221 167.097 190.096 166.551 190.096 165.942ZM195.057 165.964C195.057 165.546 194.969 165.183 194.793 164.875C194.625 164.567 194.401 164.332 194.122 164.171C193.844 164.01 193.543 163.929 193.22 163.929C192.898 163.929 192.597 164.01 192.318 164.171C192.04 164.325 191.812 164.556 191.636 164.864C191.468 165.165 191.383 165.524 191.383 165.942C191.383 166.36 191.468 166.727 191.636 167.042C191.812 167.357 192.04 167.599 192.318 167.768C192.604 167.929 192.905 168.01 193.22 168.01C193.543 168.01 193.844 167.929 194.122 167.768C194.401 167.607 194.625 167.372 194.793 167.064C194.969 166.749 195.057 166.382 195.057 165.964ZM201.028 162.84C201.504 162.84 201.93 162.939 202.304 163.137C202.685 163.335 202.982 163.628 203.195 164.017C203.407 164.406 203.514 164.875 203.514 165.425V169H202.271V165.612C202.271 165.069 202.135 164.655 201.864 164.369C201.592 164.076 201.222 163.929 200.753 163.929C200.283 163.929 199.909 164.076 199.631 164.369C199.359 164.655 199.224 165.069 199.224 165.612V169H197.97V162.939H199.224V163.632C199.429 163.383 199.689 163.188 200.005 163.049C200.327 162.91 200.668 162.84 201.028 162.84ZM207.555 162.84C208.024 162.84 208.439 162.935 208.798 163.126C209.165 163.309 209.451 163.54 209.656 163.819V162.939H210.921V169.099C210.921 169.656 210.804 170.151 210.569 170.584C210.334 171.024 209.993 171.369 209.546 171.618C209.106 171.867 208.578 171.992 207.962 171.992C207.141 171.992 206.459 171.798 205.916 171.409C205.373 171.028 205.065 170.507 204.992 169.847H206.235C206.33 170.162 206.532 170.415 206.84 170.606C207.155 170.804 207.529 170.903 207.962 170.903C208.468 170.903 208.875 170.749 209.183 170.441C209.498 170.133 209.656 169.686 209.656 169.099V168.087C209.443 168.373 209.154 168.615 208.787 168.813C208.428 169.004 208.017 169.099 207.555 169.099C207.027 169.099 206.543 168.967 206.103 168.703C205.67 168.432 205.326 168.058 205.069 167.581C204.82 167.097 204.695 166.551 204.695 165.942C204.695 165.333 204.82 164.794 205.069 164.325C205.326 163.856 205.67 163.493 206.103 163.236C206.543 162.972 207.027 162.84 207.555 162.84ZM209.656 165.964C209.656 165.546 209.568 165.183 209.392 164.875C209.223 164.567 209 164.332 208.721 164.171C208.442 164.01 208.142 163.929 207.819 163.929C207.496 163.929 207.196 164.01 206.917 164.171C206.638 164.325 206.411 164.556 206.235 164.864C206.066 165.165 205.982 165.524 205.982 165.942C205.982 166.36 206.066 166.727 206.235 167.042C206.411 167.357 206.638 167.599 206.917 167.768C207.203 167.929 207.504 168.01 207.819 168.01C208.142 168.01 208.442 167.929 208.721 167.768C209 167.607 209.223 167.372 209.392 167.064C209.568 166.749 209.656 166.382 209.656 165.964ZM213.822 160.86V169H212.568V160.86H213.822ZM221.024 165.821C221.024 166.048 221.009 166.254 220.98 166.437H216.349C216.385 166.921 216.565 167.31 216.888 167.603C217.21 167.896 217.606 168.043 218.076 168.043C218.75 168.043 219.227 167.761 219.506 167.196H220.859C220.675 167.753 220.342 168.212 219.858 168.571C219.381 168.923 218.787 169.099 218.076 169.099C217.496 169.099 216.976 168.971 216.514 168.714C216.059 168.45 215.7 168.083 215.436 167.614C215.179 167.137 215.051 166.587 215.051 165.964C215.051 165.341 215.175 164.794 215.425 164.325C215.681 163.848 216.037 163.482 216.492 163.225C216.954 162.968 217.482 162.84 218.076 162.84C218.648 162.84 219.157 162.965 219.605 163.214C220.052 163.463 220.4 163.815 220.65 164.27C220.899 164.717 221.024 165.234 221.024 165.821ZM219.715 165.425C219.707 164.963 219.542 164.593 219.22 164.314C218.897 164.035 218.497 163.896 218.021 163.896C217.588 163.896 217.218 164.035 216.91 164.314C216.602 164.585 216.418 164.956 216.36 165.425H219.715Z"></path>
<path stroke-linejoin="round" stroke-linecap="round" stroke="#4CC2FF" d="M262.5 75.5H253.5C252.948 75.5 252.5 75.9477 252.5 76.5V81.5C252.5 82.0523 252.948 82.5 253.5 82.5H262.5C263.052 82.5 263.5 82.0523 263.5 81.5V76.5C263.5 75.9477 263.052 75.5 262.5 75.5Z"></path>
<path stroke-linejoin="round" stroke-linecap="round" stroke="#CCCCCC" d="M259.5 73.5L259.5 68.5C259.5 67.9477 259.948 67.5 260.5 67.5L266.5 67.5C267.052 67.5 267.5 67.9477 267.5 68.5L267.5 77.5C267.5 78.0523 267.052 78.5 266.5 78.5L265.5 78.5"></path>
<path fill="white" d="M289.796 79L288.036 75.942H287.079V79H285.825V71.355H288.465C289.052 71.355 289.547 71.4577 289.95 71.663C290.361 71.8683 290.665 72.1433 290.863 72.488C291.068 72.8327 291.171 73.2177 291.171 73.643C291.171 74.1417 291.024 74.5963 290.731 75.007C290.445 75.4103 290.001 75.6853 289.4 75.832L291.292 79H289.796ZM287.079 74.941H288.465C288.934 74.941 289.286 74.8237 289.521 74.589C289.763 74.3543 289.884 74.039 289.884 73.643C289.884 73.247 289.767 72.939 289.532 72.719C289.297 72.4917 288.942 72.378 288.465 72.378H287.079V74.941ZM298.33 75.821C298.33 76.0483 298.316 76.2537 298.286 76.437H293.655C293.692 76.921 293.872 77.3097 294.194 77.603C294.517 77.8963 294.913 78.043 295.382 78.043C296.057 78.043 296.534 77.7607 296.812 77.196H298.165C297.982 77.7533 297.648 78.2117 297.164 78.571C296.688 78.923 296.094 79.099 295.382 79.099C294.803 79.099 294.282 78.9707 293.82 78.714C293.366 78.45 293.006 78.0833 292.742 77.614C292.486 77.1373 292.357 76.5873 292.357 75.964C292.357 75.3407 292.482 74.7943 292.731 74.325C292.988 73.8483 293.344 73.4817 293.798 73.225C294.26 72.9683 294.788 72.84 295.382 72.84C295.954 72.84 296.464 72.9647 296.911 73.214C297.359 73.4633 297.707 73.8153 297.956 74.27C298.206 74.7173 298.33 75.2343 298.33 75.821ZM297.021 75.425C297.014 74.963 296.849 74.5927 296.526 74.314C296.204 74.0353 295.804 73.896 295.327 73.896C294.895 73.896 294.524 74.0353 294.216 74.314C293.908 74.5853 293.725 74.9557 293.666 75.425H297.021ZM299.146 75.964C299.146 75.3407 299.271 74.7943 299.52 74.325C299.777 73.8483 300.129 73.4817 300.576 73.225C301.024 72.9683 301.537 72.84 302.116 72.84C302.85 72.84 303.455 73.016 303.931 73.368C304.415 73.7127 304.742 74.2077 304.91 74.853H303.557C303.447 74.5523 303.271 74.3177 303.029 74.149C302.787 73.9803 302.483 73.896 302.116 73.896C301.603 73.896 301.192 74.0793 300.884 74.446C300.584 74.8053 300.433 75.3113 300.433 75.964C300.433 76.6167 300.584 77.1263 300.884 77.493C301.192 77.8597 301.603 78.043 302.116 78.043C302.842 78.043 303.323 77.724 303.557 77.086H304.91C304.734 77.702 304.404 78.1933 303.92 78.56C303.436 78.9193 302.835 79.099 302.116 79.099C301.537 79.099 301.024 78.9707 300.576 78.714C300.129 78.45 299.777 78.0833 299.52 77.614C299.271 77.1373 299.146 76.5873 299.146 75.964ZM307.623 73.962V77.317C307.623 77.5443 307.674 77.7093 307.777 77.812C307.887 77.9073 308.07 77.955 308.327 77.955H309.097V79H308.107C307.542 79 307.11 78.868 306.809 78.604C306.508 78.34 306.358 77.911 306.358 77.317V73.962H305.643V72.939H306.358V71.432H307.623V72.939H309.097V73.962H307.623ZM309.835 75.942C309.835 75.3333 309.959 74.7943 310.209 74.325C310.465 73.8557 310.81 73.4927 311.243 73.236C311.683 72.972 312.167 72.84 312.695 72.84C313.171 72.84 313.586 72.9353 313.938 73.126C314.297 73.3093 314.583 73.5403 314.796 73.819V72.939H316.061V79H314.796V78.098C314.583 78.384 314.293 78.6223 313.927 78.813C313.56 79.0037 313.142 79.099 312.673 79.099C312.152 79.099 311.675 78.967 311.243 78.703C310.81 78.4317 310.465 78.0577 310.209 77.581C309.959 77.097 309.835 76.5507 309.835 75.942ZM314.796 75.964C314.796 75.546 314.708 75.183 314.532 74.875C314.363 74.567 314.139 74.3323 313.861 74.171C313.582 74.0097 313.281 73.929 312.959 73.929C312.636 73.929 312.335 74.0097 312.057 74.171C311.778 74.325 311.551 74.556 311.375 74.864C311.206 75.1647 311.122 75.524 311.122 75.942C311.122 76.36 311.206 76.7267 311.375 77.042C311.551 77.3573 311.778 77.5993 312.057 77.768C312.343 77.9293 312.643 78.01 312.959 78.01C313.281 78.01 313.582 77.9293 313.861 77.768C314.139 77.6067 314.363 77.372 314.532 77.064C314.708 76.7487 314.796 76.382 314.796 75.964ZM320.766 72.84C321.242 72.84 321.668 72.939 322.042 73.137C322.423 73.335 322.72 73.6283 322.933 74.017C323.145 74.4057 323.252 74.875 323.252 75.425V79H322.009V75.612C322.009 75.0693 321.873 74.655 321.602 74.369C321.33 74.0757 320.96 73.929 320.491 73.929C320.021 73.929 319.647 74.0757 319.369 74.369C319.097 74.655 318.962 75.0693 318.962 75.612V79H317.708V72.939H318.962V73.632C319.167 73.3827 319.427 73.1883 319.743 73.049C320.065 72.9097 320.406 72.84 320.766 72.84ZM327.293 72.84C327.763 72.84 328.177 72.9353 328.536 73.126C328.903 73.3093 329.189 73.5403 329.394 73.819V72.939H330.659V79.099C330.659 79.6563 330.542 80.1513 330.307 80.584C330.073 81.024 329.732 81.3687 329.284 81.618C328.844 81.8673 328.316 81.992 327.7 81.992C326.879 81.992 326.197 81.7977 325.654 81.409C325.112 81.0277 324.804 80.507 324.73 79.847H325.973C326.069 80.1623 326.27 80.4153 326.578 80.606C326.894 80.804 327.268 80.903 327.7 80.903C328.206 80.903 328.613 80.749 328.921 80.441C329.237 80.133 329.394 79.6857 329.394 79.099V78.087C329.182 78.373 328.892 78.615 328.525 78.813C328.166 79.0037 327.755 79.099 327.293 79.099C326.765 79.099 326.281 78.967 325.841 78.703C325.409 78.4317 325.064 78.0577 324.807 77.581C324.558 77.097 324.433 76.5507 324.433 75.942C324.433 75.3333 324.558 74.7943 324.807 74.325C325.064 73.8557 325.409 73.4927 325.841 73.236C326.281 72.972 326.765 72.84 327.293 72.84ZM329.394 75.964C329.394 75.546 329.306 75.183 329.13 74.875C328.962 74.567 328.738 74.3323 328.459 74.171C328.181 74.0097 327.88 73.929 327.557 73.929C327.235 73.929 326.934 74.0097 326.655 74.171C326.377 74.325 326.149 74.556 325.973 74.864C325.805 75.1647 325.72 75.524 325.72 75.942C325.72 76.36 325.805 76.7267 325.973 77.042C326.149 77.3573 326.377 77.5993 326.655 77.768C326.941 77.9293 327.242 78.01 327.557 78.01C327.88 78.01 328.181 77.9293 328.459 77.768C328.738 77.6067 328.962 77.372 329.13 77.064C329.306 76.7487 329.394 76.382 329.394 75.964ZM333.56 70.86V79H332.306V70.86H333.56ZM340.762 75.821C340.762 76.0483 340.747 76.2537 340.718 76.437H336.087C336.124 76.921 336.303 77.3097 336.626 77.603C336.949 77.8963 337.345 78.043 337.814 78.043C338.489 78.043 338.965 77.7607 339.244 77.196H340.597C340.414 77.7533 340.08 78.2117 339.596 78.571C339.119 78.923 338.525 79.099 337.814 79.099C337.235 79.099 336.714 78.9707 336.252 78.714C335.797 78.45 335.438 78.0833 335.174 77.614C334.917 77.1373 334.789 76.5873 334.789 75.964C334.789 75.3407 334.914 74.7943 335.163 74.325C335.42 73.8483 335.775 73.4817 336.23 73.225C336.692 72.9683 337.22 72.84 337.814 72.84C338.386 72.84 338.896 72.9647 339.343 73.214C339.79 73.4633 340.139 73.8153 340.388 74.27C340.637 74.7173 340.762 75.2343 340.762 75.821ZM339.453 75.425C339.446 74.963 339.281 74.5927 338.958 74.314C338.635 74.0353 338.236 73.896 337.759 73.896C337.326 73.896 336.956 74.0353 336.648 74.314C336.34 74.5853 336.157 74.9557 336.098 75.425H339.453Z"></path>
<path stroke-linejoin="round" stroke-linecap="round" stroke="#4CC2FF" d="M257.5 169.5H258.5M258.5 157.5V169.5M258.5 157.5H253.5C252.948 157.5 252.5 157.948 252.5 158.5V158.5M258.5 157.5H263.5C264.052 157.5 264.5 157.948 264.5 158.5V158.5M259.5 169.5H258.5"></path>
<path stroke-linejoin="round" stroke-linecap="round" stroke="#CCCCCC" d="M262.5 172.5H263.5M260.5 164.5H263.5M263.5 164.5V172.5M263.5 164.5H266.5C267.052 164.5 267.5 164.948 267.5 165.5V165.5M264.5 172.5H263.5"></path>
<path fill="white" d="M290.764 161.355V162.378H288.729V169H287.475V162.378H285.429V161.355H290.764ZM297.589 165.821C297.589 166.048 297.574 166.254 297.545 166.437H292.914C292.951 166.921 293.13 167.31 293.453 167.603C293.776 167.896 294.172 168.043 294.641 168.043C295.316 168.043 295.792 167.761 296.071 167.196H297.424C297.241 167.753 296.907 168.212 296.423 168.571C295.946 168.923 295.352 169.099 294.641 169.099C294.062 169.099 293.541 168.971 293.079 168.714C292.624 168.45 292.265 168.083 292.001 167.614C291.744 167.137 291.616 166.587 291.616 165.964C291.616 165.341 291.741 164.794 291.99 164.325C292.247 163.848 292.602 163.482 293.057 163.225C293.519 162.968 294.047 162.84 294.641 162.84C295.213 162.84 295.723 162.965 296.17 163.214C296.617 163.463 296.966 163.815 297.215 164.27C297.464 164.717 297.589 165.234 297.589 165.821ZM296.28 165.425C296.273 164.963 296.108 164.593 295.785 164.314C295.462 164.035 295.063 163.896 294.586 163.896C294.153 163.896 293.783 164.035 293.475 164.314C293.167 164.585 292.984 164.956 292.925 165.425H296.28ZM301.419 165.931L303.377 169H301.958L300.649 166.943L299.417 169H298.108L300.066 166.019L298.108 162.939H299.527L300.836 164.996L302.068 162.939H303.377L301.419 165.931ZM305.775 163.962V167.317C305.775 167.544 305.827 167.709 305.929 167.812C306.039 167.907 306.223 167.955 306.479 167.955H307.249V169H306.259C305.695 169 305.262 168.868 304.961 168.604C304.661 168.34 304.51 167.911 304.51 167.317V163.962H303.795V162.939H304.51V161.432H305.775V162.939H307.249V163.962H305.775Z"></path>
<path fill="white" d="M289.312 109.077C288.601 109.077 287.944 108.912 287.343 108.582C286.749 108.245 286.276 107.779 285.924 107.185C285.579 106.584 285.407 105.909 285.407 105.161C285.407 104.413 285.579 103.742 285.924 103.148C286.276 102.554 286.749 102.092 287.343 101.762C287.944 101.425 288.601 101.256 289.312 101.256C290.031 101.256 290.687 101.425 291.281 101.762C291.882 102.092 292.355 102.554 292.7 103.148C293.045 103.742 293.217 104.413 293.217 105.161C293.217 105.909 293.045 106.584 292.7 107.185C292.355 107.779 291.882 108.245 291.281 108.582C290.687 108.912 290.031 109.077 289.312 109.077ZM289.312 107.988C289.818 107.988 290.269 107.874 290.665 107.647C291.061 107.412 291.369 107.082 291.589 106.657C291.816 106.224 291.93 105.726 291.93 105.161C291.93 104.596 291.816 104.101 291.589 103.676C291.369 103.251 291.061 102.924 290.665 102.697C290.269 102.47 289.818 102.356 289.312 102.356C288.806 102.356 288.355 102.47 287.959 102.697C287.563 102.924 287.251 103.251 287.024 103.676C286.804 104.101 286.694 104.596 286.694 105.161C286.694 105.726 286.804 106.224 287.024 106.657C287.251 107.082 287.563 107.412 287.959 107.647C288.355 107.874 288.806 107.988 289.312 107.988ZM295.914 103.962V107.317C295.914 107.544 295.965 107.709 296.068 107.812C296.178 107.907 296.361 107.955 296.618 107.955H297.388V109H296.398C295.833 109 295.401 108.868 295.1 108.604C294.799 108.34 294.649 107.911 294.649 107.317V103.962H293.934V102.939H294.649V101.432H295.914V102.939H297.388V103.962H295.914ZM301.679 102.84C302.141 102.84 302.551 102.939 302.911 103.137C303.277 103.335 303.563 103.628 303.769 104.017C303.981 104.406 304.088 104.875 304.088 105.425V109H302.845V105.612C302.845 105.069 302.709 104.655 302.438 104.369C302.166 104.076 301.796 103.929 301.327 103.929C300.857 103.929 300.483 104.076 300.205 104.369C299.933 104.655 299.798 105.069 299.798 105.612V109H298.544V100.86H299.798V103.643C300.01 103.386 300.278 103.188 300.601 103.049C300.931 102.91 301.29 102.84 301.679 102.84ZM311.242 105.821C311.242 106.048 311.228 106.254 311.198 106.437H306.567C306.604 106.921 306.784 107.31 307.106 107.603C307.429 107.896 307.825 108.043 308.294 108.043C308.969 108.043 309.446 107.761 309.724 107.196H311.077C310.894 107.753 310.56 108.212 310.076 108.571C309.6 108.923 309.006 109.099 308.294 109.099C307.715 109.099 307.194 108.971 306.732 108.714C306.278 108.45 305.918 108.083 305.654 107.614C305.398 107.137 305.269 106.587 305.269 105.964C305.269 105.341 305.394 104.794 305.643 104.325C305.9 103.848 306.256 103.482 306.71 103.225C307.172 102.968 307.7 102.84 308.294 102.84C308.866 102.84 309.376 102.965 309.823 103.214C310.271 103.463 310.619 103.815 310.868 104.27C311.118 104.717 311.242 105.234 311.242 105.821ZM309.933 105.425C309.926 104.963 309.761 104.593 309.438 104.314C309.116 104.035 308.716 103.896 308.239 103.896C307.807 103.896 307.436 104.035 307.128 104.314C306.82 104.585 306.637 104.956 306.578 105.425H309.933ZM313.73 103.819C313.914 103.511 314.156 103.273 314.456 103.104C314.764 102.928 315.127 102.84 315.545 102.84V104.138H315.226C314.735 104.138 314.361 104.263 314.104 104.512C313.855 104.761 313.73 105.194 313.73 105.81V109H312.476V102.939H313.73V103.819ZM320.809 103.83C321.022 103.551 321.312 103.317 321.678 103.126C322.045 102.935 322.459 102.84 322.921 102.84C323.449 102.84 323.93 102.972 324.362 103.236C324.802 103.493 325.147 103.856 325.396 104.325C325.646 104.794 325.77 105.333 325.77 105.942C325.77 106.551 325.646 107.097 325.396 107.581C325.147 108.058 324.802 108.432 324.362 108.703C323.93 108.967 323.449 109.099 322.921 109.099C322.459 109.099 322.049 109.007 321.689 108.824C321.33 108.633 321.037 108.399 320.809 108.12V111.882H319.555V102.939H320.809V103.83ZM324.494 105.942C324.494 105.524 324.406 105.165 324.23 104.864C324.062 104.556 323.834 104.325 323.548 104.171C323.27 104.01 322.969 103.929 322.646 103.929C322.331 103.929 322.03 104.01 321.744 104.171C321.466 104.332 321.238 104.567 321.062 104.875C320.894 105.183 320.809 105.546 320.809 105.964C320.809 106.382 320.894 106.749 321.062 107.064C321.238 107.372 321.466 107.607 321.744 107.768C322.03 107.929 322.331 108.01 322.646 108.01C322.969 108.01 323.27 107.929 323.548 107.768C323.834 107.599 324.062 107.357 324.23 107.042C324.406 106.727 324.494 106.36 324.494 105.942ZM329.64 109.099C329.068 109.099 328.551 108.971 328.089 108.714C327.627 108.45 327.264 108.083 327 107.614C326.736 107.137 326.604 106.587 326.604 105.964C326.604 105.348 326.739 104.802 327.011 104.325C327.282 103.848 327.652 103.482 328.122 103.225C328.591 102.968 329.115 102.84 329.695 102.84C330.274 102.84 330.798 102.968 331.268 103.225C331.737 103.482 332.107 103.848 332.379 104.325C332.65 104.802 332.786 105.348 332.786 105.964C332.786 106.58 332.646 107.126 332.368 107.603C332.089 108.08 331.708 108.45 331.224 108.714C330.747 108.971 330.219 109.099 329.64 109.099ZM329.64 108.01C329.962 108.01 330.263 107.933 330.542 107.779C330.828 107.625 331.059 107.394 331.235 107.086C331.411 106.778 331.499 106.404 331.499 105.964C331.499 105.524 331.414 105.154 331.246 104.853C331.077 104.545 330.853 104.314 330.575 104.16C330.296 104.006 329.995 103.929 329.673 103.929C329.35 103.929 329.049 104.006 328.771 104.16C328.499 104.314 328.283 104.545 328.122 104.853C327.96 105.154 327.88 105.524 327.88 105.964C327.88 106.617 328.045 107.123 328.375 107.482C328.712 107.834 329.134 108.01 329.64 108.01ZM335.279 100.86V109H334.025V100.86H335.279ZM342.382 102.939L338.664 111.849H337.366L338.598 108.901L336.211 102.939H337.608L339.313 107.559L341.084 102.939H342.382ZM345.77 102.84C346.239 102.84 346.654 102.935 347.013 103.126C347.38 103.309 347.666 103.54 347.871 103.819V102.939H349.136V109.099C349.136 109.656 349.019 110.151 348.784 110.584C348.549 111.024 348.208 111.369 347.761 111.618C347.321 111.867 346.793 111.992 346.177 111.992C345.356 111.992 344.674 111.798 344.131 111.409C343.588 111.028 343.28 110.507 343.207 109.847H344.45C344.545 110.162 344.747 110.415 345.055 110.606C345.37 110.804 345.744 110.903 346.177 110.903C346.683 110.903 347.09 110.749 347.398 110.441C347.713 110.133 347.871 109.686 347.871 109.099V108.087C347.658 108.373 347.369 108.615 347.002 108.813C346.643 109.004 346.232 109.099 345.77 109.099C345.242 109.099 344.758 108.967 344.318 108.703C343.885 108.432 343.541 108.058 343.284 107.581C343.035 107.097 342.91 106.551 342.91 105.942C342.91 105.333 343.035 104.794 343.284 104.325C343.541 103.856 343.885 103.493 344.318 103.236C344.758 102.972 345.242 102.84 345.77 102.84ZM347.871 105.964C347.871 105.546 347.783 105.183 347.607 104.875C347.438 104.567 347.215 104.332 346.936 104.171C346.657 104.01 346.357 103.929 346.034 103.929C345.711 103.929 345.411 104.01 345.132 104.171C344.853 104.325 344.626 104.556 344.45 104.864C344.281 105.165 344.197 105.524 344.197 105.942C344.197 106.36 344.281 106.727 344.45 107.042C344.626 107.357 344.853 107.599 345.132 107.768C345.418 107.929 345.719 108.01 346.034 108.01C346.357 108.01 346.657 107.929 346.936 107.768C347.215 107.607 347.438 107.372 347.607 107.064C347.783 106.749 347.871 106.382 347.871 105.964ZM353.412 109.099C352.84 109.099 352.323 108.971 351.861 108.714C351.399 108.45 351.036 108.083 350.772 107.614C350.508 107.137 350.376 106.587 350.376 105.964C350.376 105.348 350.512 104.802 350.783 104.325C351.054 103.848 351.425 103.482 351.894 103.225C352.363 102.968 352.888 102.84 353.467 102.84C354.046 102.84 354.571 102.968 355.04 103.225C355.509 103.482 355.88 103.848 356.151 104.325C356.422 104.802 356.558 105.348 356.558 105.964C356.558 106.58 356.419 107.126 356.14 107.603C355.861 108.08 355.48 108.45 354.996 108.714C354.519 108.971 353.991 109.099 353.412 109.099ZM353.412 108.01C353.735 108.01 354.035 107.933 354.314 107.779C354.6 107.625 354.831 107.394 355.007 107.086C355.183 106.778 355.271 106.404 355.271 105.964C355.271 105.524 355.187 105.154 355.018 104.853C354.849 104.545 354.626 104.314 354.347 104.16C354.068 104.006 353.768 103.929 353.445 103.929C353.122 103.929 352.822 104.006 352.543 104.16C352.272 104.314 352.055 104.545 351.894 104.853C351.733 105.154 351.652 105.524 351.652 105.964C351.652 106.617 351.817 107.123 352.147 107.482C352.484 107.834 352.906 108.01 353.412 108.01ZM360.856 102.84C361.332 102.84 361.758 102.939 362.132 103.137C362.513 103.335 362.81 103.628 363.023 104.017C363.235 104.406 363.342 104.875 363.342 105.425V109H362.099V105.612C362.099 105.069 361.963 104.655 361.692 104.369C361.42 104.076 361.05 103.929 360.581 103.929C360.111 103.929 359.737 104.076 359.459 104.369C359.187 104.655 359.052 105.069 359.052 105.612V109H357.798V102.939H359.052V103.632C359.257 103.383 359.517 103.188 359.833 103.049C360.155 102.91 360.496 102.84 360.856 102.84ZM367.141 109.099C366.665 109.099 366.236 109.015 365.854 108.846C365.48 108.67 365.183 108.435 364.963 108.142C364.743 107.841 364.626 107.508 364.611 107.141H365.909C365.931 107.398 366.052 107.614 366.272 107.79C366.5 107.959 366.782 108.043 367.119 108.043C367.471 108.043 367.743 107.977 367.933 107.845C368.131 107.706 368.23 107.53 368.23 107.317C368.23 107.09 368.12 106.921 367.9 106.811C367.688 106.701 367.347 106.58 366.877 106.448C366.423 106.323 366.052 106.202 365.766 106.085C365.48 105.968 365.231 105.788 365.018 105.546C364.813 105.304 364.71 104.985 364.71 104.589C364.71 104.266 364.806 103.973 364.996 103.709C365.187 103.438 365.458 103.225 365.81 103.071C366.17 102.917 366.58 102.84 367.042 102.84C367.732 102.84 368.285 103.016 368.703 103.368C369.129 103.713 369.356 104.186 369.385 104.787H368.131C368.109 104.516 367.999 104.299 367.801 104.138C367.603 103.977 367.336 103.896 366.998 103.896C366.668 103.896 366.415 103.958 366.239 104.083C366.063 104.208 365.975 104.373 365.975 104.578C365.975 104.739 366.034 104.875 366.151 104.985C366.269 105.095 366.412 105.183 366.58 105.249C366.749 105.308 366.998 105.385 367.328 105.48C367.768 105.597 368.128 105.718 368.406 105.843C368.692 105.96 368.938 106.136 369.143 106.371C369.349 106.606 369.455 106.917 369.462 107.306C369.462 107.651 369.367 107.959 369.176 108.23C368.986 108.501 368.714 108.714 368.362 108.868C368.018 109.022 367.611 109.099 367.141 109.099Z"></path>
<path stroke="#4CC2FF" d="M256.913 101.927C257.263 101.672 257.738 101.672 258.088 101.927L262.143 104.873C262.494 105.128 262.641 105.579 262.507 105.991L260.958 110.759C260.824 111.171 260.44 111.45 260.007 111.45H254.994C254.561 111.45 254.177 111.171 254.043 110.759L252.494 105.991C252.36 105.579 252.507 105.128 252.857 104.873L256.913 101.927Z"></path>
<path stroke-linecap="round" stroke="#CCCCCC" d="M264.138 107.555L266.764 106.039C267.073 105.86 267.264 105.53 267.264 105.173V100.827C267.264 100.47 267.073 100.14 266.764 99.9613L263.001 97.7887C262.691 97.61 262.31 97.61 262.001 97.7887L258.333 99.9062"></path>
<path fill="white" d="M287.079 132.367V134.611H289.719V135.634H287.079V137.977H290.049V139H285.825V131.344H290.049V132.367H287.079ZM292.848 130.86V139H291.594V130.86H292.848ZM295.748 130.86V139H294.494V130.86H295.748ZM298.032 132.136C297.805 132.136 297.614 132.059 297.46 131.905C297.306 131.751 297.229 131.56 297.229 131.333C297.229 131.106 297.306 130.915 297.46 130.761C297.614 130.607 297.805 130.53 298.032 130.53C298.252 130.53 298.439 130.607 298.593 130.761C298.747 130.915 298.824 131.106 298.824 131.333C298.824 131.56 298.747 131.751 298.593 131.905C298.439 132.059 298.252 132.136 298.032 132.136ZM298.648 132.939V139H297.394V132.939H298.648ZM301.549 133.83C301.761 133.551 302.051 133.317 302.418 133.126C302.784 132.935 303.199 132.84 303.661 132.84C304.189 132.84 304.669 132.972 305.102 133.236C305.542 133.493 305.886 133.856 306.136 134.325C306.385 134.794 306.51 135.333 306.51 135.942C306.51 136.551 306.385 137.097 306.136 137.581C305.886 138.058 305.542 138.432 305.102 138.703C304.669 138.967 304.189 139.099 303.661 139.099C303.199 139.099 302.788 139.007 302.429 138.824C302.069 138.633 301.776 138.399 301.549 138.12V141.882H300.295V132.939H301.549V133.83ZM305.234 135.942C305.234 135.524 305.146 135.165 304.97 134.864C304.801 134.556 304.574 134.325 304.288 134.171C304.009 134.01 303.708 133.929 303.386 133.929C303.07 133.929 302.77 134.01 302.484 134.171C302.205 134.332 301.978 134.567 301.802 134.875C301.633 135.183 301.549 135.546 301.549 135.964C301.549 136.382 301.633 136.749 301.802 137.064C301.978 137.372 302.205 137.607 302.484 137.768C302.77 137.929 303.07 138.01 303.386 138.01C303.708 138.01 304.009 137.929 304.288 137.768C304.574 137.599 304.801 137.357 304.97 137.042C305.146 136.727 305.234 136.36 305.234 135.942ZM309.95 139.099C309.473 139.099 309.044 139.015 308.663 138.846C308.289 138.67 307.992 138.435 307.772 138.142C307.552 137.841 307.434 137.508 307.42 137.141H308.718C308.74 137.398 308.861 137.614 309.081 137.79C309.308 137.959 309.59 138.043 309.928 138.043C310.28 138.043 310.551 137.977 310.742 137.845C310.94 137.706 311.039 137.53 311.039 137.317C311.039 137.09 310.929 136.921 310.709 136.811C310.496 136.701 310.155 136.58 309.686 136.448C309.231 136.323 308.861 136.202 308.575 136.085C308.289 135.968 308.039 135.788 307.827 135.546C307.621 135.304 307.519 134.985 307.519 134.589C307.519 134.266 307.614 133.973 307.805 133.709C307.995 133.438 308.267 133.225 308.619 133.071C308.978 132.917 309.389 132.84 309.851 132.84C310.54 132.84 311.094 133.016 311.512 133.368C311.937 133.713 312.164 134.186 312.194 134.787H310.94C310.918 134.516 310.808 134.299 310.61 134.138C310.412 133.977 310.144 133.896 309.807 133.896C309.477 133.896 309.224 133.958 309.048 134.083C308.872 134.208 308.784 134.373 308.784 134.578C308.784 134.739 308.842 134.875 308.96 134.985C309.077 135.095 309.22 135.183 309.389 135.249C309.557 135.308 309.807 135.385 310.137 135.48C310.577 135.597 310.936 135.718 311.215 135.843C311.501 135.96 311.746 136.136 311.952 136.371C312.157 136.606 312.263 136.917 312.271 137.306C312.271 137.651 312.175 137.959 311.985 138.23C311.794 138.501 311.523 138.714 311.171 138.868C310.826 139.022 310.419 139.099 309.95 139.099ZM319.181 135.821C319.181 136.048 319.166 136.254 319.137 136.437H314.506C314.542 136.921 314.722 137.31 315.045 137.603C315.367 137.896 315.763 138.043 316.233 138.043C316.907 138.043 317.384 137.761 317.663 137.196H319.016C318.832 137.753 318.499 138.212 318.015 138.571C317.538 138.923 316.944 139.099 316.233 139.099C315.653 139.099 315.133 138.971 314.671 138.714C314.216 138.45 313.857 138.083 313.593 137.614C313.336 137.137 313.208 136.587 313.208 135.964C313.208 135.341 313.332 134.794 313.582 134.325C313.838 133.848 314.194 133.482 314.649 133.225C315.111 132.968 315.639 132.84 316.233 132.84C316.805 132.84 317.314 132.965 317.762 133.214C318.209 133.463 318.557 133.815 318.807 134.27C319.056 134.717 319.181 135.234 319.181 135.821ZM317.872 135.425C317.864 134.963 317.699 134.593 317.377 134.314C317.054 134.035 316.654 133.896 316.178 133.896C315.745 133.896 315.375 134.035 315.067 134.314C314.759 134.585 314.575 134.956 314.517 135.425H317.872Z"></path>
<circle stroke="#4CC2FF" r="5.5" cy="137" cx="258"></circle>
<path stroke-linejoin="round" stroke-linecap="round" stroke="#CCCCCC" d="M256.418 129.845C256.874 129.24 257.483 128.719 258.208 128.322C258.933 127.924 259.755 127.662 260.618 127.554C261.48 127.447 262.36 127.499 263.196 127.704C264.032 127.91 264.801 128.265 265.451 128.74C266.102 129.215 266.617 129.797 266.968 130.445C267.319 131.092 267.499 131.79 267.5 132.494C267.501 133.197 267.324 133.896 266.975 134.543C266.626 135.191 266.112 135.775 265.463 136.252"></path>
<path fill="white" d="M128.344 49.077C127.831 49.077 127.369 48.989 126.958 48.813C126.547 48.6297 126.225 48.373 125.99 48.043C125.755 47.713 125.638 47.328 125.638 46.888H126.98C127.009 47.218 127.138 47.4893 127.365 47.702C127.6 47.9147 127.926 48.021 128.344 48.021C128.777 48.021 129.114 47.9183 129.356 47.713C129.598 47.5003 129.719 47.229 129.719 46.899C129.719 46.6423 129.642 46.4333 129.488 46.272C129.341 46.1107 129.154 45.986 128.927 45.898C128.707 45.81 128.399 45.7147 128.003 45.612C127.504 45.48 127.097 45.348 126.782 45.216C126.474 45.0767 126.21 44.864 125.99 44.578C125.77 44.292 125.66 43.9107 125.66 43.434C125.66 42.994 125.77 42.609 125.99 42.279C126.21 41.949 126.518 41.696 126.914 41.52C127.31 41.344 127.768 41.256 128.289 41.256C129.03 41.256 129.635 41.443 130.104 41.817C130.581 42.1837 130.845 42.6897 130.896 43.335H129.51C129.488 43.0563 129.356 42.818 129.114 42.62C128.872 42.422 128.553 42.323 128.157 42.323C127.798 42.323 127.504 42.4147 127.277 42.598C127.05 42.7813 126.936 43.0453 126.936 43.39C126.936 43.6247 127.006 43.819 127.145 43.973C127.292 44.1197 127.475 44.237 127.695 44.325C127.915 44.413 128.216 44.5083 128.597 44.611C129.103 44.7503 129.514 44.8897 129.829 45.029C130.152 45.1683 130.423 45.3847 130.643 45.678C130.87 45.964 130.984 46.349 130.984 46.833C130.984 47.2217 130.878 47.5883 130.665 47.933C130.46 48.2777 130.155 48.5563 129.752 48.769C129.356 48.9743 128.887 49.077 128.344 49.077ZM138.019 45.821C138.019 46.0483 138.004 46.2537 137.975 46.437H133.344C133.38 46.921 133.56 47.3097 133.883 47.603C134.205 47.8963 134.601 48.043 135.071 48.043C135.745 48.043 136.222 47.7607 136.501 47.196H137.854C137.67 47.7533 137.337 48.2117 136.853 48.571C136.376 48.923 135.782 49.099 135.071 49.099C134.491 49.099 133.971 48.9707 133.509 48.714C133.054 48.45 132.695 48.0833 132.431 47.614C132.174 47.1373 132.046 46.5873 132.046 45.964C132.046 45.3407 132.17 44.7943 132.42 44.325C132.676 43.8483 133.032 43.4817 133.487 43.225C133.949 42.9683 134.477 42.84 135.071 42.84C135.643 42.84 136.152 42.9647 136.6 43.214C137.047 43.4633 137.395 43.8153 137.645 44.27C137.894 44.7173 138.019 45.2343 138.019 45.821ZM136.71 45.425C136.702 44.963 136.537 44.5927 136.215 44.314C135.892 44.0353 135.492 43.896 135.016 43.896C134.583 43.896 134.213 44.0353 133.905 44.314C133.597 44.5853 133.413 44.9557 133.355 45.425H136.71ZM140.507 40.86V49H139.253V40.86H140.507ZM147.708 45.821C147.708 46.0483 147.693 46.2537 147.664 46.437H143.033C143.07 46.921 143.249 47.3097 143.572 47.603C143.895 47.8963 144.291 48.043 144.76 48.043C145.435 48.043 145.911 47.7607 146.19 47.196H147.543C147.36 47.7533 147.026 48.2117 146.542 48.571C146.065 48.923 145.471 49.099 144.76 49.099C144.181 49.099 143.66 48.9707 143.198 48.714C142.743 48.45 142.384 48.0833 142.12 47.614C141.863 47.1373 141.735 46.5873 141.735 45.964C141.735 45.3407 141.86 44.7943 142.109 44.325C142.366 43.8483 142.721 43.4817 143.176 43.225C143.638 42.9683 144.166 42.84 144.76 42.84C145.332 42.84 145.842 42.9647 146.289 43.214C146.736 43.4633 147.085 43.8153 147.334 44.27C147.583 44.7173 147.708 45.2343 147.708 45.821ZM146.399 45.425C146.392 44.963 146.227 44.5927 145.904 44.314C145.581 44.0353 145.182 43.896 144.705 43.896C144.272 43.896 143.902 44.0353 143.594 44.314C143.286 44.5853 143.103 44.9557 143.044 45.425H146.399ZM148.524 45.964C148.524 45.3407 148.649 44.7943 148.898 44.325C149.155 43.8483 149.507 43.4817 149.954 43.225C150.402 42.9683 150.915 42.84 151.494 42.84C152.228 42.84 152.833 43.016 153.309 43.368C153.793 43.7127 154.12 44.2077 154.288 44.853H152.935C152.825 44.5523 152.649 44.3177 152.407 44.149C152.165 43.9803 151.861 43.896 151.494 43.896C150.981 43.896 150.57 44.0793 150.262 44.446C149.962 44.8053 149.811 45.3113 149.811 45.964C149.811 46.6167 149.962 47.1263 150.262 47.493C150.57 47.8597 150.981 48.043 151.494 48.043C152.22 48.043 152.701 47.724 152.935 47.086H154.288C154.112 47.702 153.782 48.1933 153.298 48.56C152.814 48.9193 152.213 49.099 151.494 49.099C150.915 49.099 150.402 48.9707 149.954 48.714C149.507 48.45 149.155 48.0833 148.898 47.614C148.649 47.1373 148.524 46.5873 148.524 45.964ZM157.001 43.962V47.317C157.001 47.5443 157.052 47.7093 157.155 47.812C157.265 47.9073 157.448 47.955 157.705 47.955H158.475V49H157.485C156.92 49 156.488 48.868 156.187 48.604C155.886 48.34 155.736 47.911 155.736 47.317V43.962H155.021V42.939H155.736V41.432H157.001V42.939H158.475V43.962H157.001ZM160.269 42.136C160.041 42.136 159.851 42.059 159.697 41.905C159.543 41.751 159.466 41.5603 159.466 41.333C159.466 41.1057 159.543 40.915 159.697 40.761C159.851 40.607 160.041 40.53 160.269 40.53C160.489 40.53 160.676 40.607 160.83 40.761C160.984 40.915 161.061 41.1057 161.061 41.333C161.061 41.5603 160.984 41.751 160.83 41.905C160.676 42.059 160.489 42.136 160.269 42.136ZM160.885 42.939V49H159.631V42.939H160.885ZM165.16 49.099C164.588 49.099 164.071 48.9707 163.609 48.714C163.147 48.45 162.784 48.0833 162.52 47.614C162.256 47.1373 162.124 46.5873 162.124 45.964C162.124 45.348 162.26 44.8017 162.531 44.325C162.802 43.8483 163.173 43.4817 163.642 43.225C164.111 42.9683 164.636 42.84 165.215 42.84C165.794 42.84 166.319 42.9683 166.788 43.225C167.257 43.4817 167.628 43.8483 167.899 44.325C168.17 44.8017 168.306 45.348 168.306 45.964C168.306 46.58 168.167 47.1263 167.888 47.603C167.609 48.0797 167.228 48.45 166.744 48.714C166.267 48.9707 165.739 49.099 165.16 49.099ZM165.16 48.01C165.483 48.01 165.783 47.933 166.062 47.779C166.348 47.625 166.579 47.394 166.755 47.086C166.931 46.778 167.019 46.404 167.019 45.964C167.019 45.524 166.935 45.1537 166.766 44.853C166.597 44.545 166.374 44.314 166.095 44.16C165.816 44.006 165.516 43.929 165.193 43.929C164.87 43.929 164.57 44.006 164.291 44.16C164.02 44.314 163.803 44.545 163.642 44.853C163.481 45.1537 163.4 45.524 163.4 45.964C163.4 46.6167 163.565 47.1227 163.895 47.482C164.232 47.834 164.654 48.01 165.16 48.01ZM172.604 42.84C173.08 42.84 173.506 42.939 173.88 43.137C174.261 43.335 174.558 43.6283 174.771 44.017C174.983 44.4057 175.09 44.875 175.09 45.425V49H173.847V45.612C173.847 45.0693 173.711 44.655 173.44 44.369C173.168 44.0757 172.798 43.929 172.329 43.929C171.859 43.929 171.485 44.0757 171.207 44.369C170.935 44.655 170.8 45.0693 170.8 45.612V49H169.546V42.939H170.8V43.632C171.005 43.3827 171.265 43.1883 171.581 43.049C171.903 42.9097 172.244 42.84 172.604 42.84Z"></path>
<path stroke-linejoin="round" stroke-linecap="round" stroke="#CCCCCC" d="M100.5 40.5L100.5 38.5C100.5 37.9477 100.052 37.5 99.5 37.5L93.5 37.5C92.9477 37.5 92.5 37.9477 92.5 38.5L92.5 44.5C92.5 45.0523 92.9477 45.5 93.5 45.5L97.5 45.5"></path>
<path stroke-linejoin="round" stroke-linecap="round" stroke="#4CC2FF" d="M99.5 51.4129V42.7071C99.5 42.2617 100.039 42.0386 100.354 42.3536L106.646 48.6464C106.961 48.9614 106.738 49.5 106.293 49.5H104.48C103.525 49.5 102.602 49.8416 101.877 50.463L100.325 51.7925C100.001 52.0705 99.5 51.8401 99.5 51.4129Z"></path>
<path fill="white" d="M291.93 41.355V49H290.676V45.656H287.079V49H285.825V41.355H287.079V44.633H290.676V41.355H291.93ZM293.163 45.942C293.163 45.3333 293.288 44.7943 293.537 44.325C293.794 43.8557 294.138 43.4927 294.571 43.236C295.011 42.972 295.495 42.84 296.023 42.84C296.5 42.84 296.914 42.9353 297.266 43.126C297.625 43.3093 297.911 43.5403 298.124 43.819V42.939H299.389V49H298.124V48.098C297.911 48.384 297.622 48.6223 297.255 48.813C296.888 49.0037 296.47 49.099 296.001 49.099C295.48 49.099 295.004 48.967 294.571 48.703C294.138 48.4317 293.794 48.0577 293.537 47.581C293.288 47.097 293.163 46.5507 293.163 45.942ZM298.124 45.964C298.124 45.546 298.036 45.183 297.86 44.875C297.691 44.567 297.468 44.3323 297.189 44.171C296.91 44.0097 296.61 43.929 296.287 43.929C295.964 43.929 295.664 44.0097 295.385 44.171C295.106 44.325 294.879 44.556 294.703 44.864C294.534 45.1647 294.45 45.524 294.45 45.942C294.45 46.36 294.534 46.7267 294.703 47.042C294.879 47.3573 295.106 47.5993 295.385 47.768C295.671 47.9293 295.972 48.01 296.287 48.01C296.61 48.01 296.91 47.9293 297.189 47.768C297.468 47.6067 297.691 47.372 297.86 47.064C298.036 46.7487 298.124 46.382 298.124 45.964ZM304.094 42.84C304.571 42.84 304.996 42.939 305.37 43.137C305.751 43.335 306.048 43.6283 306.261 44.017C306.474 44.4057 306.58 44.875 306.58 45.425V49H305.337V45.612C305.337 45.0693 305.201 44.655 304.93 44.369C304.659 44.0757 304.288 43.929 303.819 43.929C303.35 43.929 302.976 44.0757 302.697 44.369C302.426 44.655 302.29 45.0693 302.29 45.612V49H301.036V42.939H302.29V43.632C302.495 43.3827 302.756 43.1883 303.071 43.049C303.394 42.9097 303.735 42.84 304.094 42.84ZM307.761 45.942C307.761 45.3333 307.886 44.7943 308.135 44.325C308.392 43.8557 308.737 43.4927 309.169 43.236C309.609 42.972 310.097 42.84 310.632 42.84C311.028 42.84 311.417 42.928 311.798 43.104C312.187 43.2727 312.495 43.5 312.722 43.786V40.86H313.987V49H312.722V48.087C312.517 48.3803 312.231 48.6223 311.864 48.813C311.505 49.0037 311.091 49.099 310.621 49.099C310.093 49.099 309.609 48.967 309.169 48.703C308.737 48.4317 308.392 48.0577 308.135 47.581C307.886 47.097 307.761 46.5507 307.761 45.942ZM312.722 45.964C312.722 45.546 312.634 45.183 312.458 44.875C312.29 44.567 312.066 44.3323 311.787 44.171C311.509 44.0097 311.208 43.929 310.885 43.929C310.563 43.929 310.262 44.0097 309.983 44.171C309.705 44.325 309.477 44.556 309.301 44.864C309.133 45.1647 309.048 45.524 309.048 45.942C309.048 46.36 309.133 46.7267 309.301 47.042C309.477 47.3573 309.705 47.5993 309.983 47.768C310.269 47.9293 310.57 48.01 310.885 48.01C311.208 48.01 311.509 47.9293 311.787 47.768C312.066 47.6067 312.29 47.372 312.458 47.064C312.634 46.7487 312.722 46.382 312.722 45.964Z"></path>
<path stroke-linejoin="round" stroke-linecap="round" stroke="#4CC2FF" d="M259.188 37.0789H257.75C257.198 37.0789 256.75 37.5267 256.75 38.0789V43.3947L256.599 43.248C256.175 42.8358 255.607 42.6053 255.015 42.6053H254.949C254.149 42.6053 253.5 43.2542 253.5 44.0547V44.0547C253.5 44.6422 253.738 45.2047 254.159 45.6141L257.502 48.8626C258.583 49.9126 260.03 50.5 261.537 50.5V50.5C264.278 50.5 266.5 48.2781 266.5 45.5372V39.6579C266.5 39.1056 266.052 38.6579 265.5 38.6579H264.062M259.188 37.0789V36.5C259.188 35.9477 259.635 35.5 260.188 35.5H260.836C261.272 35.5 261.625 35.8535 261.625 36.2895V36.2895M259.188 37.0789V41.8158M261.625 36.2895H263.063C263.615 36.2895 264.062 36.7372 264.062 37.2895V38.6579M261.625 36.2895V41.8158M264.062 38.6579V41.8158"></path>
</svg>
