<svg xmlns="http://www.w3.org/2000/svg" fill="none" viewBox="0 0 480 360" height="360" width="480">
<path fill-opacity="0.05" fill="white" d="M190 95C190 92.2386 192.239 90 195 90H465C467.761 90 470 92.2386 470 95V140H190V95Z"></path>
<path fill-opacity="0.05" fill="white" d="M190 141H470V195C470 197.761 467.761 200 465 200H195C192.239 200 190 197.761 190 195V141Z"></path>
<path fill="white" d="M250.407 115.161C250.407 114.413 250.579 113.742 250.924 113.148C251.276 112.554 251.749 112.092 252.343 111.762C252.944 111.425 253.601 111.256 254.312 111.256C255.126 111.256 255.848 111.458 256.479 111.861C257.117 112.257 257.579 112.822 257.865 113.555H256.358C256.16 113.152 255.885 112.851 255.533 112.653C255.181 112.455 254.774 112.356 254.312 112.356C253.806 112.356 253.355 112.47 252.959 112.697C252.563 112.924 252.251 113.251 252.024 113.676C251.804 114.101 251.694 114.596 251.694 115.161C251.694 115.726 251.804 116.221 252.024 116.646C252.251 117.071 252.563 117.401 252.959 117.636C253.355 117.863 253.806 117.977 254.312 117.977C254.774 117.977 255.181 117.878 255.533 117.68C255.885 117.482 256.16 117.181 256.358 116.778H257.865C257.579 117.511 257.117 118.076 256.479 118.472C255.848 118.868 255.126 119.066 254.312 119.066C253.593 119.066 252.937 118.901 252.343 118.571C251.749 118.234 251.276 117.768 250.924 117.174C250.579 116.58 250.407 115.909 250.407 115.161ZM261.962 119.099C261.39 119.099 260.873 118.971 260.411 118.714C259.949 118.45 259.586 118.083 259.322 117.614C259.058 117.137 258.926 116.587 258.926 115.964C258.926 115.348 259.061 114.802 259.333 114.325C259.604 113.848 259.974 113.482 260.444 113.225C260.913 112.968 261.437 112.84 262.017 112.84C262.596 112.84 263.12 112.968 263.59 113.225C264.059 113.482 264.429 113.848 264.701 114.325C264.972 114.802 265.108 115.348 265.108 115.964C265.108 116.58 264.968 117.126 264.69 117.603C264.411 118.08 264.03 118.45 263.546 118.714C263.069 118.971 262.541 119.099 261.962 119.099ZM261.962 118.01C262.284 118.01 262.585 117.933 262.864 117.779C263.15 117.625 263.381 117.394 263.557 117.086C263.733 116.778 263.821 116.404 263.821 115.964C263.821 115.524 263.736 115.154 263.568 114.853C263.399 114.545 263.175 114.314 262.897 114.16C262.618 114.006 262.317 113.929 261.995 113.929C261.672 113.929 261.371 114.006 261.093 114.16C260.821 114.314 260.605 114.545 260.444 114.853C260.282 115.154 260.202 115.524 260.202 115.964C260.202 116.617 260.367 117.123 260.697 117.482C261.034 117.834 261.456 118.01 261.962 118.01ZM267.601 113.819C267.785 113.511 268.027 113.273 268.327 113.104C268.635 112.928 268.998 112.84 269.416 112.84V114.138H269.097C268.606 114.138 268.232 114.263 267.975 114.512C267.726 114.761 267.601 115.194 267.601 115.81V119H266.347V112.939H267.601V113.819ZM271.823 113.819C272.006 113.511 272.248 113.273 272.549 113.104C272.857 112.928 273.22 112.84 273.638 112.84V114.138H273.319C272.828 114.138 272.454 114.263 272.197 114.512C271.948 114.761 271.823 115.194 271.823 115.81V119H270.569V112.939H271.823V113.819ZM280.28 112.939V119H279.026V118.285C278.828 118.534 278.567 118.732 278.245 118.879C277.929 119.018 277.592 119.088 277.233 119.088C276.756 119.088 276.327 118.989 275.946 118.791C275.572 118.593 275.275 118.3 275.055 117.911C274.842 117.522 274.736 117.053 274.736 116.503V112.939H275.979V116.316C275.979 116.859 276.114 117.277 276.386 117.57C276.657 117.856 277.027 117.999 277.497 117.999C277.966 117.999 278.336 117.856 278.608 117.57C278.886 117.277 279.026 116.859 279.026 116.316V112.939H280.28ZM283.188 113.83C283.401 113.551 283.691 113.317 284.057 113.126C284.424 112.935 284.838 112.84 285.3 112.84C285.828 112.84 286.309 112.972 286.741 113.236C287.181 113.493 287.526 113.856 287.775 114.325C288.025 114.794 288.149 115.333 288.149 115.942C288.149 116.551 288.025 117.097 287.775 117.581C287.526 118.058 287.181 118.432 286.741 118.703C286.309 118.967 285.828 119.099 285.3 119.099C284.838 119.099 284.428 119.007 284.068 118.824C283.709 118.633 283.416 118.399 283.188 118.12V121.882H281.934V112.939H283.188V113.83ZM286.873 115.942C286.873 115.524 286.785 115.165 286.609 114.864C286.441 114.556 286.213 114.325 285.927 114.171C285.649 114.01 285.348 113.929 285.025 113.929C284.71 113.929 284.409 114.01 284.123 114.171C283.845 114.332 283.617 114.567 283.441 114.875C283.273 115.183 283.188 115.546 283.188 115.964C283.188 116.382 283.273 116.749 283.441 117.064C283.617 117.372 283.845 117.607 284.123 117.768C284.409 117.929 284.71 118.01 285.025 118.01C285.348 118.01 285.649 117.929 285.927 117.768C286.213 117.599 286.441 117.357 286.609 117.042C286.785 116.727 286.873 116.36 286.873 115.942ZM290.852 113.962V117.317C290.852 117.544 290.904 117.709 291.006 117.812C291.116 117.907 291.3 117.955 291.556 117.955H292.326V119H291.336C290.772 119 290.339 118.868 290.038 118.604C289.738 118.34 289.587 117.911 289.587 117.317V113.962H288.872V112.939H289.587V111.432H290.852V112.939H292.326V113.962H290.852ZM299.037 115.821C299.037 116.048 299.023 116.254 298.993 116.437H294.362C294.399 116.921 294.579 117.31 294.901 117.603C295.224 117.896 295.62 118.043 296.089 118.043C296.764 118.043 297.241 117.761 297.519 117.196H298.872C298.689 117.753 298.355 118.212 297.871 118.571C297.395 118.923 296.801 119.099 296.089 119.099C295.51 119.099 294.989 118.971 294.527 118.714C294.073 118.45 293.713 118.083 293.449 117.614C293.193 117.137 293.064 116.587 293.064 115.964C293.064 115.341 293.189 114.794 293.438 114.325C293.695 113.848 294.051 113.482 294.505 113.225C294.967 112.968 295.495 112.84 296.089 112.84C296.661 112.84 297.171 112.965 297.618 113.214C298.066 113.463 298.414 113.815 298.663 114.27C298.913 114.717 299.037 115.234 299.037 115.821ZM297.728 115.425C297.721 114.963 297.556 114.593 297.233 114.314C296.911 114.035 296.511 113.896 296.034 113.896C295.602 113.896 295.231 114.035 294.923 114.314C294.615 114.585 294.432 114.956 294.373 115.425H297.728ZM299.853 115.942C299.853 115.333 299.978 114.794 300.227 114.325C300.484 113.856 300.829 113.493 301.261 113.236C301.701 112.972 302.189 112.84 302.724 112.84C303.12 112.84 303.509 112.928 303.89 113.104C304.279 113.273 304.587 113.5 304.814 113.786V110.86H306.079V119H304.814V118.087C304.609 118.38 304.323 118.622 303.956 118.813C303.597 119.004 303.183 119.099 302.713 119.099C302.185 119.099 301.701 118.967 301.261 118.703C300.829 118.432 300.484 118.058 300.227 117.581C299.978 117.097 299.853 116.551 299.853 115.942ZM304.814 115.964C304.814 115.546 304.726 115.183 304.55 114.875C304.382 114.567 304.158 114.332 303.879 114.171C303.601 114.01 303.3 113.929 302.977 113.929C302.655 113.929 302.354 114.01 302.075 114.171C301.797 114.325 301.569 114.556 301.393 114.864C301.225 115.165 301.14 115.524 301.14 115.942C301.14 116.36 301.225 116.727 301.393 117.042C301.569 117.357 301.797 117.599 302.075 117.768C302.361 117.929 302.662 118.01 302.977 118.01C303.3 118.01 303.601 117.929 303.879 117.768C304.158 117.607 304.382 117.372 304.55 117.064C304.726 116.749 304.814 116.382 304.814 115.964ZM311.222 112.136C310.994 112.136 310.804 112.059 310.65 111.905C310.496 111.751 310.419 111.56 310.419 111.333C310.419 111.106 310.496 110.915 310.65 110.761C310.804 110.607 310.994 110.53 311.222 110.53C311.442 110.53 311.629 110.607 311.783 110.761C311.937 110.915 312.014 111.106 312.014 111.333C312.014 111.56 311.937 111.751 311.783 111.905C311.629 112.059 311.442 112.136 311.222 112.136ZM311.838 112.939V119H310.584V112.939H311.838ZM314.947 113.962V117.317C314.947 117.544 314.999 117.709 315.101 117.812C315.211 117.907 315.395 117.955 315.651 117.955H316.421V119H315.431C314.867 119 314.434 118.868 314.133 118.604C313.833 118.34 313.682 117.911 313.682 117.317V113.962H312.967V112.939H313.682V111.432H314.947V112.939H316.421V113.962H314.947ZM323.132 115.821C323.132 116.048 323.117 116.254 323.088 116.437H318.457C318.494 116.921 318.673 117.31 318.996 117.603C319.319 117.896 319.715 118.043 320.184 118.043C320.859 118.043 321.335 117.761 321.614 117.196H322.967C322.784 117.753 322.45 118.212 321.966 118.571C321.489 118.923 320.895 119.099 320.184 119.099C319.605 119.099 319.084 118.971 318.622 118.714C318.167 118.45 317.808 118.083 317.544 117.614C317.287 117.137 317.159 116.587 317.159 115.964C317.159 115.341 317.284 114.794 317.533 114.325C317.79 113.848 318.145 113.482 318.6 113.225C319.062 112.968 319.59 112.84 320.184 112.84C320.756 112.84 321.266 112.965 321.713 113.214C322.16 113.463 322.509 113.815 322.758 114.27C323.007 114.717 323.132 115.234 323.132 115.821ZM321.823 115.425C321.816 114.963 321.651 114.593 321.328 114.314C321.005 114.035 320.606 113.896 320.129 113.896C319.696 113.896 319.326 114.035 319.018 114.314C318.71 114.585 318.527 114.956 318.468 115.425H321.823ZM331.703 112.84C332.18 112.84 332.605 112.939 332.979 113.137C333.36 113.335 333.657 113.628 333.87 114.017C334.09 114.406 334.2 114.875 334.2 115.425V119H332.957V115.612C332.957 115.069 332.821 114.655 332.55 114.369C332.279 114.076 331.908 113.929 331.439 113.929C330.97 113.929 330.596 114.076 330.317 114.369C330.046 114.655 329.91 115.069 329.91 115.612V119H328.667V115.612C328.667 115.069 328.531 114.655 328.26 114.369C327.989 114.076 327.618 113.929 327.149 113.929C326.68 113.929 326.306 114.076 326.027 114.369C325.756 114.655 325.62 115.069 325.62 115.612V119H324.366V112.939H325.62V113.632C325.825 113.383 326.086 113.188 326.401 113.049C326.716 112.91 327.054 112.84 327.413 112.84C327.897 112.84 328.33 112.943 328.711 113.148C329.092 113.353 329.386 113.65 329.591 114.039C329.774 113.672 330.06 113.383 330.449 113.17C330.838 112.95 331.256 112.84 331.703 112.84ZM337.996 119.099C337.519 119.099 337.09 119.015 336.709 118.846C336.335 118.67 336.038 118.435 335.818 118.142C335.598 117.841 335.48 117.508 335.466 117.141H336.764C336.786 117.398 336.907 117.614 337.127 117.79C337.354 117.959 337.636 118.043 337.974 118.043C338.326 118.043 338.597 117.977 338.788 117.845C338.986 117.706 339.085 117.53 339.085 117.317C339.085 117.09 338.975 116.921 338.755 116.811C338.542 116.701 338.201 116.58 337.732 116.448C337.277 116.323 336.907 116.202 336.621 116.085C336.335 115.968 336.085 115.788 335.873 115.546C335.667 115.304 335.565 114.985 335.565 114.589C335.565 114.266 335.66 113.973 335.851 113.709C336.041 113.438 336.313 113.225 336.665 113.071C337.024 112.917 337.435 112.84 337.897 112.84C338.586 112.84 339.14 113.016 339.558 113.368C339.983 113.713 340.21 114.186 340.24 114.787H338.986C338.964 114.516 338.854 114.299 338.656 114.138C338.458 113.977 338.19 113.896 337.853 113.896C337.523 113.896 337.27 113.958 337.094 114.083C336.918 114.208 336.83 114.373 336.83 114.578C336.83 114.739 336.888 114.875 337.006 114.985C337.123 115.095 337.266 115.183 337.435 115.249C337.603 115.308 337.853 115.385 338.183 115.48C338.623 115.597 338.982 115.718 339.261 115.843C339.547 115.96 339.792 116.136 339.998 116.371C340.203 116.606 340.309 116.917 340.317 117.306C340.317 117.651 340.221 117.959 340.031 118.23C339.84 118.501 339.569 118.714 339.217 118.868C338.872 119.022 338.465 119.099 337.996 119.099ZM352.669 112.939L350.788 119H349.468L348.247 114.523L347.026 119H345.706L343.814 112.939H345.09L346.355 117.812L347.642 112.939H348.951L350.183 117.79L351.437 112.939H352.669ZM354.244 112.136C354.017 112.136 353.826 112.059 353.672 111.905C353.518 111.751 353.441 111.56 353.441 111.333C353.441 111.106 353.518 110.915 353.672 110.761C353.826 110.607 354.017 110.53 354.244 110.53C354.464 110.53 354.651 110.607 354.805 110.761C354.959 110.915 355.036 111.106 355.036 111.333C355.036 111.56 354.959 111.751 354.805 111.905C354.651 112.059 354.464 112.136 354.244 112.136ZM354.86 112.939V119H353.606V112.939H354.86ZM357.761 110.86V119H356.507V110.86H357.761ZM360.661 110.86V119H359.407V110.86H360.661ZM366.419 113.841C366.632 113.548 366.921 113.309 367.288 113.126C367.662 112.935 368.076 112.84 368.531 112.84C369.066 112.84 369.55 112.968 369.983 113.225C370.416 113.482 370.757 113.848 371.006 114.325C371.255 114.794 371.38 115.333 371.38 115.942C371.38 116.551 371.255 117.097 371.006 117.581C370.757 118.058 370.412 118.432 369.972 118.703C369.539 118.967 369.059 119.099 368.531 119.099C368.062 119.099 367.644 119.007 367.277 118.824C366.918 118.641 366.632 118.406 366.419 118.12V119H365.165V110.86H366.419V113.841ZM370.104 115.942C370.104 115.524 370.016 115.165 369.84 114.864C369.671 114.556 369.444 114.325 369.158 114.171C368.879 114.01 368.579 113.929 368.256 113.929C367.941 113.929 367.64 114.01 367.354 114.171C367.075 114.332 366.848 114.567 366.672 114.875C366.503 115.183 366.419 115.546 366.419 115.964C366.419 116.382 366.503 116.749 366.672 117.064C366.848 117.372 367.075 117.607 367.354 117.768C367.64 117.929 367.941 118.01 368.256 118.01C368.579 118.01 368.879 117.929 369.158 117.768C369.444 117.599 369.671 117.357 369.84 117.042C370.016 116.727 370.104 116.36 370.104 115.942ZM378.175 115.821C378.175 116.048 378.16 116.254 378.131 116.437H373.5C373.537 116.921 373.716 117.31 374.039 117.603C374.362 117.896 374.758 118.043 375.227 118.043C375.902 118.043 376.378 117.761 376.657 117.196H378.01C377.827 117.753 377.493 118.212 377.009 118.571C376.532 118.923 375.938 119.099 375.227 119.099C374.648 119.099 374.127 118.971 373.665 118.714C373.21 118.45 372.851 118.083 372.587 117.614C372.33 117.137 372.202 116.587 372.202 115.964C372.202 115.341 372.327 114.794 372.576 114.325C372.833 113.848 373.188 113.482 373.643 113.225C374.105 112.968 374.633 112.84 375.227 112.84C375.799 112.84 376.309 112.965 376.756 113.214C377.203 113.463 377.552 113.815 377.801 114.27C378.05 114.717 378.175 115.234 378.175 115.821ZM376.866 115.425C376.859 114.963 376.694 114.593 376.371 114.314C376.048 114.035 375.649 113.896 375.172 113.896C374.739 113.896 374.369 114.035 374.061 114.314C373.753 114.585 373.57 114.956 373.511 115.425H376.866ZM381.848 115.942C381.848 115.333 381.973 114.794 382.222 114.325C382.479 113.856 382.824 113.493 383.256 113.236C383.696 112.972 384.184 112.84 384.719 112.84C385.115 112.84 385.504 112.928 385.885 113.104C386.274 113.273 386.582 113.5 386.809 113.786V110.86H388.074V119H386.809V118.087C386.604 118.38 386.318 118.622 385.951 118.813C385.592 119.004 385.178 119.099 384.708 119.099C384.18 119.099 383.696 118.967 383.256 118.703C382.824 118.432 382.479 118.058 382.222 117.581C381.973 117.097 381.848 116.551 381.848 115.942ZM386.809 115.964C386.809 115.546 386.721 115.183 386.545 114.875C386.377 114.567 386.153 114.332 385.874 114.171C385.596 114.01 385.295 113.929 384.972 113.929C384.65 113.929 384.349 114.01 384.07 114.171C383.792 114.325 383.564 114.556 383.388 114.864C383.22 115.165 383.135 115.524 383.135 115.942C383.135 116.36 383.22 116.727 383.388 117.042C383.564 117.357 383.792 117.599 384.07 117.768C384.356 117.929 384.657 118.01 384.972 118.01C385.295 118.01 385.596 117.929 385.874 117.768C386.153 117.607 386.377 117.372 386.545 117.064C386.721 116.749 386.809 116.382 386.809 115.964ZM395.276 115.821C395.276 116.048 395.262 116.254 395.232 116.437H390.601C390.638 116.921 390.818 117.31 391.14 117.603C391.463 117.896 391.859 118.043 392.328 118.043C393.003 118.043 393.48 117.761 393.758 117.196H395.111C394.928 117.753 394.594 118.212 394.11 118.571C393.634 118.923 393.04 119.099 392.328 119.099C391.749 119.099 391.228 118.971 390.766 118.714C390.312 118.45 389.952 118.083 389.688 117.614C389.432 117.137 389.303 116.587 389.303 115.964C389.303 115.341 389.428 114.794 389.677 114.325C389.934 113.848 390.29 113.482 390.744 113.225C391.206 112.968 391.734 112.84 392.328 112.84C392.9 112.84 393.41 112.965 393.857 113.214C394.305 113.463 394.653 113.815 394.902 114.27C395.152 114.717 395.276 115.234 395.276 115.821ZM393.967 115.425C393.96 114.963 393.795 114.593 393.472 114.314C393.15 114.035 392.75 113.896 392.273 113.896C391.841 113.896 391.47 114.035 391.162 114.314C390.854 114.585 390.671 114.956 390.612 115.425H393.967ZM397.765 110.86V119H396.511V110.86H397.765ZM404.966 115.821C404.966 116.048 404.951 116.254 404.922 116.437H400.291C400.328 116.921 400.507 117.31 400.83 117.603C401.153 117.896 401.549 118.043 402.018 118.043C402.693 118.043 403.169 117.761 403.448 117.196H404.801C404.618 117.753 404.284 118.212 403.8 118.571C403.323 118.923 402.729 119.099 402.018 119.099C401.439 119.099 400.918 118.971 400.456 118.714C400.001 118.45 399.642 118.083 399.378 117.614C399.121 117.137 398.993 116.587 398.993 115.964C398.993 115.341 399.118 114.794 399.367 114.325C399.624 113.848 399.979 113.482 400.434 113.225C400.896 112.968 401.424 112.84 402.018 112.84C402.59 112.84 403.1 112.965 403.547 113.214C403.994 113.463 404.343 113.815 404.592 114.27C404.841 114.717 404.966 115.234 404.966 115.821ZM403.657 115.425C403.65 114.963 403.485 114.593 403.162 114.314C402.839 114.035 402.44 113.896 401.963 113.896C401.53 113.896 401.16 114.035 400.852 114.314C400.544 114.585 400.361 114.956 400.302 115.425H403.657ZM407.663 113.962V117.317C407.663 117.544 407.714 117.709 407.817 117.812C407.927 117.907 408.11 117.955 408.367 117.955H409.137V119H408.147C407.582 119 407.15 118.868 406.849 118.604C406.548 118.34 406.398 117.911 406.398 117.317V113.962H405.683V112.939H406.398V111.432H407.663V112.939H409.137V113.962H407.663ZM415.848 115.821C415.848 116.048 415.833 116.254 415.804 116.437H411.173C411.209 116.921 411.389 117.31 411.712 117.603C412.034 117.896 412.43 118.043 412.9 118.043C413.574 118.043 414.051 117.761 414.33 117.196H415.683C415.499 117.753 415.166 118.212 414.682 118.571C414.205 118.923 413.611 119.099 412.9 119.099C412.32 119.099 411.8 118.971 411.338 118.714C410.883 118.45 410.524 118.083 410.26 117.614C410.003 117.137 409.875 116.587 409.875 115.964C409.875 115.341 409.999 114.794 410.249 114.325C410.505 113.848 410.861 113.482 411.316 113.225C411.778 112.968 412.306 112.84 412.9 112.84C413.472 112.84 413.981 112.965 414.429 113.214C414.876 113.463 415.224 113.815 415.474 114.27C415.723 114.717 415.848 115.234 415.848 115.821ZM414.539 115.425C414.531 114.963 414.366 114.593 414.044 114.314C413.721 114.035 413.321 113.896 412.845 113.896C412.412 113.896 412.042 114.035 411.734 114.314C411.426 114.585 411.242 114.956 411.184 115.425H414.539ZM416.664 115.942C416.664 115.333 416.789 114.794 417.038 114.325C417.295 113.856 417.639 113.493 418.072 113.236C418.512 112.972 419 112.84 419.535 112.84C419.931 112.84 420.32 112.928 420.701 113.104C421.09 113.273 421.398 113.5 421.625 113.786V110.86H422.89V119H421.625V118.087C421.42 118.38 421.134 118.622 420.767 118.813C420.408 119.004 419.993 119.099 419.524 119.099C418.996 119.099 418.512 118.967 418.072 118.703C417.639 118.432 417.295 118.058 417.038 117.581C416.789 117.097 416.664 116.551 416.664 115.942ZM421.625 115.964C421.625 115.546 421.537 115.183 421.361 114.875C421.192 114.567 420.969 114.332 420.69 114.171C420.411 114.01 420.111 113.929 419.788 113.929C419.465 113.929 419.165 114.01 418.886 114.171C418.607 114.325 418.38 114.556 418.204 114.864C418.035 115.165 417.951 115.524 417.951 115.942C417.951 116.36 418.035 116.727 418.204 117.042C418.38 117.357 418.607 117.599 418.886 117.768C419.172 117.929 419.473 118.01 419.788 118.01C420.111 118.01 420.411 117.929 420.69 117.768C420.969 117.607 421.192 117.372 421.361 117.064C421.537 116.749 421.625 116.382 421.625 115.964Z"></path>
<path stroke-width="1.5" stroke="white" d="M226.25 110.828V116C226.25 116.69 225.69 117.25 225 117.25H215C214.31 117.25 213.75 116.69 213.75 116V108C213.75 107.31 214.31 106.75 215 106.75H222.172C222.503 106.75 222.821 106.882 223.055 107.116L225.884 109.945C226.118 110.179 226.25 110.497 226.25 110.828Z"></path>
<path fill="white" d="M213 120C213 119.448 213.448 119 214 119V119C214.552 119 215 119.448 215 120V120C215 120.552 214.552 121 214 121V121C213.448 121 213 120.552 213 120V120Z"></path>
<path fill="white" d="M215 123C215 122.448 215.448 122 216 122V122C216.552 122 217 122.448 217 123V123C217 123.552 216.552 124 216 124V124C215.448 124 215 123.552 215 123V123Z"></path>
<path fill="white" d="M217 120C217 119.448 217.448 119 218 119V119C218.552 119 219 119.448 219 120V120C219 120.552 218.552 121 218 121V121C217.448 121 217 120.552 217 120V120Z"></path>
<path fill="white" d="M219 123C219 122.448 219.448 122 220 122V122C220.552 122 221 122.448 221 123V123C221 123.552 220.552 124 220 124V124C219.448 124 219 123.552 219 123V123Z"></path>
<path fill="white" d="M221 120C221 119.448 221.448 119 222 119V119C222.552 119 223 119.448 223 120V120C223 120.552 222.552 121 222 121V121C221.448 121 221 120.552 221 120V120Z"></path>
<path fill="white" d="M223 123C223 122.448 223.448 122 224 122V122C224.552 122 225 122.448 225 123V123C225 123.552 224.552 124 224 124V124C223.448 124 223 123.552 223 123V123Z"></path>
<path fill="white" d="M225 120C225 119.448 225.448 119 226 119V119C226.552 119 227 119.448 227 120V120C227 120.552 226.552 121 226 121V121C225.448 121 225 120.552 225 120V120Z"></path>
<path fill-opacity="0.05" fill="white" d="M190 209C190 206.239 192.239 204 195 204H465C467.761 204 470 206.239 470 209V254H190V209Z"></path>
<path fill-opacity="0.05" fill="white" d="M190 255H470V309C470 311.761 467.761 314 465 314H195C192.239 314 190 311.761 190 309V255Z"></path>
<path fill="white" d="M252.079 225.355V233H250.825V225.355H252.079ZM256.783 226.84C257.26 226.84 257.685 226.939 258.059 227.137C258.441 227.335 258.738 227.628 258.95 228.017C259.163 228.406 259.269 228.875 259.269 229.425V233H258.026V229.612C258.026 229.069 257.891 228.655 257.619 228.369C257.348 228.076 256.978 227.929 256.508 227.929C256.039 227.929 255.665 228.076 255.386 228.369C255.115 228.655 254.979 229.069 254.979 229.612V233H253.725V226.939H254.979V227.632C255.185 227.383 255.445 227.188 255.76 227.049C256.083 226.91 256.424 226.84 256.783 226.84ZM260.451 229.942C260.451 229.333 260.576 228.794 260.825 228.325C261.082 227.856 261.426 227.493 261.859 227.236C262.299 226.972 262.783 226.84 263.311 226.84C263.788 226.84 264.202 226.935 264.554 227.126C264.913 227.309 265.199 227.54 265.412 227.819V226.939H266.677V233H265.412V232.098C265.199 232.384 264.91 232.622 264.543 232.813C264.176 233.004 263.758 233.099 263.289 233.099C262.768 233.099 262.292 232.967 261.859 232.703C261.426 232.432 261.082 232.058 260.825 231.581C260.576 231.097 260.451 230.551 260.451 229.942ZM265.412 229.964C265.412 229.546 265.324 229.183 265.148 228.875C264.979 228.567 264.756 228.332 264.477 228.171C264.198 228.01 263.898 227.929 263.575 227.929C263.252 227.929 262.952 228.01 262.673 228.171C262.394 228.325 262.167 228.556 261.991 228.864C261.822 229.165 261.738 229.524 261.738 229.942C261.738 230.36 261.822 230.727 261.991 231.042C262.167 231.357 262.394 231.599 262.673 231.768C262.959 231.929 263.26 232.01 263.575 232.01C263.898 232.01 264.198 231.929 264.477 231.768C264.756 231.607 264.979 231.372 265.148 231.064C265.324 230.749 265.412 230.382 265.412 229.964ZM267.906 229.964C267.906 229.341 268.031 228.794 268.28 228.325C268.537 227.848 268.889 227.482 269.336 227.225C269.783 226.968 270.297 226.84 270.876 226.84C271.609 226.84 272.214 227.016 272.691 227.368C273.175 227.713 273.501 228.208 273.67 228.853H272.317C272.207 228.552 272.031 228.318 271.789 228.149C271.547 227.98 271.243 227.896 270.876 227.896C270.363 227.896 269.952 228.079 269.644 228.446C269.343 228.805 269.193 229.311 269.193 229.964C269.193 230.617 269.343 231.126 269.644 231.493C269.952 231.86 270.363 232.043 270.876 232.043C271.602 232.043 272.082 231.724 272.317 231.086H273.67C273.494 231.702 273.164 232.193 272.68 232.56C272.196 232.919 271.595 233.099 270.876 233.099C270.297 233.099 269.783 232.971 269.336 232.714C268.889 232.45 268.537 232.083 268.28 231.614C268.031 231.137 267.906 230.587 267.906 229.964ZM274.502 229.964C274.502 229.341 274.626 228.794 274.876 228.325C275.132 227.848 275.484 227.482 275.932 227.225C276.379 226.968 276.892 226.84 277.472 226.84C278.205 226.84 278.81 227.016 279.287 227.368C279.771 227.713 280.097 228.208 280.266 228.853H278.913C278.803 228.552 278.627 228.318 278.385 228.149C278.143 227.98 277.838 227.896 277.472 227.896C276.958 227.896 276.548 228.079 276.24 228.446C275.939 228.805 275.789 229.311 275.789 229.964C275.789 230.617 275.939 231.126 276.24 231.493C276.548 231.86 276.958 232.043 277.472 232.043C278.198 232.043 278.678 231.724 278.913 231.086H280.266C280.09 231.702 279.76 232.193 279.276 232.56C278.792 232.919 278.19 233.099 277.472 233.099C276.892 233.099 276.379 232.971 275.932 232.714C275.484 232.45 275.132 232.083 274.876 231.614C274.626 231.137 274.502 230.587 274.502 229.964ZM287.07 229.821C287.07 230.048 287.056 230.254 287.026 230.437H282.395C282.432 230.921 282.612 231.31 282.934 231.603C283.257 231.896 283.653 232.043 284.122 232.043C284.797 232.043 285.274 231.761 285.552 231.196H286.905C286.722 231.753 286.388 232.212 285.904 232.571C285.428 232.923 284.834 233.099 284.122 233.099C283.543 233.099 283.022 232.971 282.56 232.714C282.106 232.45 281.746 232.083 281.482 231.614C281.226 231.137 281.097 230.587 281.097 229.964C281.097 229.341 281.222 228.794 281.471 228.325C281.728 227.848 282.084 227.482 282.538 227.225C283 226.968 283.528 226.84 284.122 226.84C284.694 226.84 285.204 226.965 285.651 227.214C286.099 227.463 286.447 227.815 286.696 228.27C286.946 228.717 287.07 229.234 287.07 229.821ZM285.761 229.425C285.754 228.963 285.589 228.593 285.266 228.314C284.944 228.035 284.544 227.896 284.067 227.896C283.635 227.896 283.264 228.035 282.956 228.314C282.648 228.585 282.465 228.956 282.406 229.425H285.761ZM290.504 233.099C290.028 233.099 289.599 233.015 289.217 232.846C288.843 232.67 288.546 232.435 288.326 232.142C288.106 231.841 287.989 231.508 287.974 231.141H289.272C289.294 231.398 289.415 231.614 289.635 231.79C289.863 231.959 290.145 232.043 290.482 232.043C290.834 232.043 291.106 231.977 291.296 231.845C291.494 231.706 291.593 231.53 291.593 231.317C291.593 231.09 291.483 230.921 291.263 230.811C291.051 230.701 290.71 230.58 290.24 230.448C289.786 230.323 289.415 230.202 289.129 230.085C288.843 229.968 288.594 229.788 288.381 229.546C288.176 229.304 288.073 228.985 288.073 228.589C288.073 228.266 288.169 227.973 288.359 227.709C288.55 227.438 288.821 227.225 289.173 227.071C289.533 226.917 289.943 226.84 290.405 226.84C291.095 226.84 291.648 227.016 292.066 227.368C292.492 227.713 292.719 228.186 292.748 228.787H291.494C291.472 228.516 291.362 228.299 291.164 228.138C290.966 227.977 290.699 227.896 290.361 227.896C290.031 227.896 289.778 227.958 289.602 228.083C289.426 228.208 289.338 228.373 289.338 228.578C289.338 228.739 289.397 228.875 289.514 228.985C289.632 229.095 289.775 229.183 289.943 229.249C290.112 229.308 290.361 229.385 290.691 229.48C291.131 229.597 291.491 229.718 291.769 229.843C292.055 229.96 292.301 230.136 292.506 230.371C292.712 230.606 292.818 230.917 292.825 231.306C292.825 231.651 292.73 231.959 292.539 232.23C292.349 232.501 292.077 232.714 291.725 232.868C291.381 233.022 290.974 233.099 290.504 233.099ZM296.38 233.099C295.904 233.099 295.475 233.015 295.093 232.846C294.719 232.67 294.422 232.435 294.202 232.142C293.982 231.841 293.865 231.508 293.85 231.141H295.148C295.17 231.398 295.291 231.614 295.511 231.79C295.739 231.959 296.021 232.043 296.358 232.043C296.71 232.043 296.982 231.977 297.172 231.845C297.37 231.706 297.469 231.53 297.469 231.317C297.469 231.09 297.359 230.921 297.139 230.811C296.927 230.701 296.586 230.58 296.116 230.448C295.662 230.323 295.291 230.202 295.005 230.085C294.719 229.968 294.47 229.788 294.257 229.546C294.052 229.304 293.949 228.985 293.949 228.589C293.949 228.266 294.045 227.973 294.235 227.709C294.426 227.438 294.697 227.225 295.049 227.071C295.409 226.917 295.819 226.84 296.281 226.84C296.971 226.84 297.524 227.016 297.942 227.368C298.368 227.713 298.595 228.186 298.624 228.787H297.37C297.348 228.516 297.238 228.299 297.04 228.138C296.842 227.977 296.575 227.896 296.237 227.896C295.907 227.896 295.654 227.958 295.478 228.083C295.302 228.208 295.214 228.373 295.214 228.578C295.214 228.739 295.273 228.875 295.39 228.985C295.508 229.095 295.651 229.183 295.819 229.249C295.988 229.308 296.237 229.385 296.567 229.48C297.007 229.597 297.367 229.718 297.645 229.843C297.931 229.96 298.177 230.136 298.382 230.371C298.588 230.606 298.694 230.917 298.701 231.306C298.701 231.651 298.606 231.959 298.415 232.23C298.225 232.501 297.953 232.714 297.601 232.868C297.257 233.022 296.85 233.099 296.38 233.099ZM300.694 226.136C300.467 226.136 300.276 226.059 300.122 225.905C299.968 225.751 299.891 225.56 299.891 225.333C299.891 225.106 299.968 224.915 300.122 224.761C300.276 224.607 300.467 224.53 300.694 224.53C300.914 224.53 301.101 224.607 301.255 224.761C301.409 224.915 301.486 225.106 301.486 225.333C301.486 225.56 301.409 225.751 301.255 225.905C301.101 226.059 300.914 226.136 300.694 226.136ZM301.31 226.939V233H300.056V226.939H301.31ZM304.211 227.841C304.424 227.548 304.713 227.309 305.08 227.126C305.454 226.935 305.868 226.84 306.323 226.84C306.858 226.84 307.342 226.968 307.775 227.225C308.208 227.482 308.549 227.848 308.798 228.325C309.047 228.794 309.172 229.333 309.172 229.942C309.172 230.551 309.047 231.097 308.798 231.581C308.549 232.058 308.204 232.432 307.764 232.703C307.331 232.967 306.851 233.099 306.323 233.099C305.854 233.099 305.436 233.007 305.069 232.824C304.71 232.641 304.424 232.406 304.211 232.12V233H302.957V224.86H304.211V227.841ZM307.896 229.942C307.896 229.524 307.808 229.165 307.632 228.864C307.463 228.556 307.236 228.325 306.95 228.171C306.671 228.01 306.371 227.929 306.048 227.929C305.733 227.929 305.432 228.01 305.146 228.171C304.867 228.332 304.64 228.567 304.464 228.875C304.295 229.183 304.211 229.546 304.211 229.964C304.211 230.382 304.295 230.749 304.464 231.064C304.64 231.372 304.867 231.607 305.146 231.768C305.432 231.929 305.733 232.01 306.048 232.01C306.371 232.01 306.671 231.929 306.95 231.768C307.236 231.599 307.463 231.357 307.632 231.042C307.808 230.727 307.896 230.36 307.896 229.942ZM311.666 224.86V233H310.412V224.86H311.666ZM318.867 229.821C318.867 230.048 318.853 230.254 318.823 230.437H314.192C314.229 230.921 314.409 231.31 314.731 231.603C315.054 231.896 315.45 232.043 315.919 232.043C316.594 232.043 317.071 231.761 317.349 231.196H318.702C318.519 231.753 318.185 232.212 317.701 232.571C317.225 232.923 316.631 233.099 315.919 233.099C315.34 233.099 314.819 232.971 314.357 232.714C313.903 232.45 313.543 232.083 313.279 231.614C313.023 231.137 312.894 230.587 312.894 229.964C312.894 229.341 313.019 228.794 313.268 228.325C313.525 227.848 313.881 227.482 314.335 227.225C314.797 226.968 315.325 226.84 315.919 226.84C316.491 226.84 317.001 226.965 317.448 227.214C317.896 227.463 318.244 227.815 318.493 228.27C318.743 228.717 318.867 229.234 318.867 229.821ZM317.558 229.425C317.551 228.963 317.386 228.593 317.063 228.314C316.741 228.035 316.341 227.896 315.864 227.896C315.432 227.896 315.061 228.035 314.753 228.314C314.445 228.585 314.262 228.956 314.203 229.425H317.558ZM323.597 226.136C323.369 226.136 323.179 226.059 323.025 225.905C322.871 225.751 322.794 225.56 322.794 225.333C322.794 225.106 322.871 224.915 323.025 224.761C323.179 224.607 323.369 224.53 323.597 224.53C323.817 224.53 324.004 224.607 324.158 224.761C324.312 224.915 324.389 225.106 324.389 225.333C324.389 225.56 324.312 225.751 324.158 225.905C324.004 226.059 323.817 226.136 323.597 226.136ZM324.213 226.939V233H322.959V226.939H324.213ZM327.322 227.962V231.317C327.322 231.544 327.374 231.709 327.476 231.812C327.586 231.907 327.77 231.955 328.026 231.955H328.796V233H327.806C327.242 233 326.809 232.868 326.508 232.604C326.208 232.34 326.057 231.911 326.057 231.317V227.962H325.342V226.939H326.057V225.432H327.322V226.939H328.796V227.962H327.322ZM335.507 229.821C335.507 230.048 335.492 230.254 335.463 230.437H330.832C330.869 230.921 331.048 231.31 331.371 231.603C331.694 231.896 332.09 232.043 332.559 232.043C333.234 232.043 333.71 231.761 333.989 231.196H335.342C335.159 231.753 334.825 232.212 334.341 232.571C333.864 232.923 333.27 233.099 332.559 233.099C331.98 233.099 331.459 232.971 330.997 232.714C330.542 232.45 330.183 232.083 329.919 231.614C329.662 231.137 329.534 230.587 329.534 229.964C329.534 229.341 329.659 228.794 329.908 228.325C330.165 227.848 330.52 227.482 330.975 227.225C331.437 226.968 331.965 226.84 332.559 226.84C333.131 226.84 333.641 226.965 334.088 227.214C334.535 227.463 334.884 227.815 335.133 228.27C335.382 228.717 335.507 229.234 335.507 229.821ZM334.198 229.425C334.191 228.963 334.026 228.593 333.703 228.314C333.38 228.035 332.981 227.896 332.504 227.896C332.071 227.896 331.701 228.035 331.393 228.314C331.085 228.585 330.902 228.956 330.843 229.425H334.198ZM344.078 226.84C344.555 226.84 344.98 226.939 345.354 227.137C345.735 227.335 346.032 227.628 346.245 228.017C346.465 228.406 346.575 228.875 346.575 229.425V233H345.332V229.612C345.332 229.069 345.196 228.655 344.925 228.369C344.654 228.076 344.283 227.929 343.814 227.929C343.345 227.929 342.971 228.076 342.692 228.369C342.421 228.655 342.285 229.069 342.285 229.612V233H341.042V229.612C341.042 229.069 340.906 228.655 340.635 228.369C340.364 228.076 339.993 227.929 339.524 227.929C339.055 227.929 338.681 228.076 338.402 228.369C338.131 228.655 337.995 229.069 337.995 229.612V233H336.741V226.939H337.995V227.632C338.2 227.383 338.461 227.188 338.776 227.049C339.091 226.91 339.429 226.84 339.788 226.84C340.272 226.84 340.705 226.943 341.086 227.148C341.467 227.353 341.761 227.65 341.966 228.039C342.149 227.672 342.435 227.383 342.824 227.17C343.213 226.95 343.631 226.84 344.078 226.84ZM350.371 233.099C349.894 233.099 349.465 233.015 349.084 232.846C348.71 232.67 348.413 232.435 348.193 232.142C347.973 231.841 347.855 231.508 347.841 231.141H349.139C349.161 231.398 349.282 231.614 349.502 231.79C349.729 231.959 350.011 232.043 350.349 232.043C350.701 232.043 350.972 231.977 351.163 231.845C351.361 231.706 351.46 231.53 351.46 231.317C351.46 231.09 351.35 230.921 351.13 230.811C350.917 230.701 350.576 230.58 350.107 230.448C349.652 230.323 349.282 230.202 348.996 230.085C348.71 229.968 348.46 229.788 348.248 229.546C348.042 229.304 347.94 228.985 347.94 228.589C347.94 228.266 348.035 227.973 348.226 227.709C348.416 227.438 348.688 227.225 349.04 227.071C349.399 226.917 349.81 226.84 350.272 226.84C350.961 226.84 351.515 227.016 351.933 227.368C352.358 227.713 352.585 228.186 352.615 228.787H351.361C351.339 228.516 351.229 228.299 351.031 228.138C350.833 227.977 350.565 227.896 350.228 227.896C349.898 227.896 349.645 227.958 349.469 228.083C349.293 228.208 349.205 228.373 349.205 228.578C349.205 228.739 349.263 228.875 349.381 228.985C349.498 229.095 349.641 229.183 349.81 229.249C349.978 229.308 350.228 229.385 350.558 229.48C350.998 229.597 351.357 229.718 351.636 229.843C351.922 229.96 352.167 230.136 352.373 230.371C352.578 230.606 352.684 230.917 352.692 231.306C352.692 231.651 352.596 231.959 352.406 232.23C352.215 232.501 351.944 232.714 351.592 232.868C351.247 233.022 350.84 233.099 350.371 233.099ZM365.044 226.939L363.163 233H361.843L360.622 228.523L359.401 233H358.081L356.189 226.939H357.465L358.73 231.812L360.017 226.939H361.326L362.558 231.79L363.812 226.939H365.044ZM366.619 226.136C366.392 226.136 366.201 226.059 366.047 225.905C365.893 225.751 365.816 225.56 365.816 225.333C365.816 225.106 365.893 224.915 366.047 224.761C366.201 224.607 366.392 224.53 366.619 224.53C366.839 224.53 367.026 224.607 367.18 224.761C367.334 224.915 367.411 225.106 367.411 225.333C367.411 225.56 367.334 225.751 367.18 225.905C367.026 226.059 366.839 226.136 366.619 226.136ZM367.235 226.939V233H365.981V226.939H367.235ZM370.136 224.86V233H368.882V224.86H370.136ZM373.036 224.86V233H371.782V224.86H373.036ZM378.794 227.841C379.007 227.548 379.296 227.309 379.663 227.126C380.037 226.935 380.451 226.84 380.906 226.84C381.441 226.84 381.925 226.968 382.358 227.225C382.791 227.482 383.132 227.848 383.381 228.325C383.63 228.794 383.755 229.333 383.755 229.942C383.755 230.551 383.63 231.097 383.381 231.581C383.132 232.058 382.787 232.432 382.347 232.703C381.914 232.967 381.434 233.099 380.906 233.099C380.437 233.099 380.019 233.007 379.652 232.824C379.293 232.641 379.007 232.406 378.794 232.12V233H377.54V224.86H378.794V227.841ZM382.479 229.942C382.479 229.524 382.391 229.165 382.215 228.864C382.046 228.556 381.819 228.325 381.533 228.171C381.254 228.01 380.954 227.929 380.631 227.929C380.316 227.929 380.015 228.01 379.729 228.171C379.45 228.332 379.223 228.567 379.047 228.875C378.878 229.183 378.794 229.546 378.794 229.964C378.794 230.382 378.878 230.749 379.047 231.064C379.223 231.372 379.45 231.607 379.729 231.768C380.015 231.929 380.316 232.01 380.631 232.01C380.954 232.01 381.254 231.929 381.533 231.768C381.819 231.599 382.046 231.357 382.215 231.042C382.391 230.727 382.479 230.36 382.479 229.942ZM390.55 229.821C390.55 230.048 390.535 230.254 390.506 230.437H385.875C385.912 230.921 386.091 231.31 386.414 231.603C386.737 231.896 387.133 232.043 387.602 232.043C388.277 232.043 388.753 231.761 389.032 231.196H390.385C390.202 231.753 389.868 232.212 389.384 232.571C388.907 232.923 388.313 233.099 387.602 233.099C387.023 233.099 386.502 232.971 386.04 232.714C385.585 232.45 385.226 232.083 384.962 231.614C384.705 231.137 384.577 230.587 384.577 229.964C384.577 229.341 384.702 228.794 384.951 228.325C385.208 227.848 385.563 227.482 386.018 227.225C386.48 226.968 387.008 226.84 387.602 226.84C388.174 226.84 388.684 226.965 389.131 227.214C389.578 227.463 389.927 227.815 390.176 228.27C390.425 228.717 390.55 229.234 390.55 229.821ZM389.241 229.425C389.234 228.963 389.069 228.593 388.746 228.314C388.423 228.035 388.024 227.896 387.547 227.896C387.114 227.896 386.744 228.035 386.436 228.314C386.128 228.585 385.945 228.956 385.886 229.425H389.241ZM395.895 227.819C396.079 227.511 396.321 227.273 396.621 227.104C396.929 226.928 397.292 226.84 397.71 226.84V228.138H397.391C396.9 228.138 396.526 228.263 396.269 228.512C396.02 228.761 395.895 229.194 395.895 229.81V233H394.641V226.939H395.895V227.819ZM404.418 229.821C404.418 230.048 404.403 230.254 404.374 230.437H399.743C399.78 230.921 399.959 231.31 400.282 231.603C400.605 231.896 401.001 232.043 401.47 232.043C402.145 232.043 402.621 231.761 402.9 231.196H404.253C404.07 231.753 403.736 232.212 403.252 232.571C402.775 232.923 402.181 233.099 401.47 233.099C400.891 233.099 400.37 232.971 399.908 232.714C399.453 232.45 399.094 232.083 398.83 231.614C398.573 231.137 398.445 230.587 398.445 229.964C398.445 229.341 398.57 228.794 398.819 228.325C399.076 227.848 399.431 227.482 399.886 227.225C400.348 226.968 400.876 226.84 401.47 226.84C402.042 226.84 402.552 226.965 402.999 227.214C403.446 227.463 403.795 227.815 404.044 228.27C404.293 228.717 404.418 229.234 404.418 229.821ZM403.109 229.425C403.102 228.963 402.937 228.593 402.614 228.314C402.291 228.035 401.892 227.896 401.415 227.896C400.982 227.896 400.612 228.035 400.304 228.314C399.996 228.585 399.813 228.956 399.754 229.425H403.109ZM405.234 229.964C405.234 229.341 405.359 228.794 405.608 228.325C405.865 227.848 406.217 227.482 406.664 227.225C407.111 226.968 407.625 226.84 408.204 226.84C408.937 226.84 409.542 227.016 410.019 227.368C410.503 227.713 410.829 228.208 410.998 228.853H409.645C409.535 228.552 409.359 228.318 409.117 228.149C408.875 227.98 408.571 227.896 408.204 227.896C407.691 227.896 407.28 228.079 406.972 228.446C406.671 228.805 406.521 229.311 406.521 229.964C406.521 230.617 406.671 231.126 406.972 231.493C407.28 231.86 407.691 232.043 408.204 232.043C408.93 232.043 409.41 231.724 409.645 231.086H410.998C410.822 231.702 410.492 232.193 410.008 232.56C409.524 232.919 408.923 233.099 408.204 233.099C407.625 233.099 407.111 232.971 406.664 232.714C406.217 232.45 405.865 232.083 405.608 231.614C405.359 231.137 405.234 230.587 405.234 229.964ZM414.877 233.099C414.305 233.099 413.788 232.971 413.326 232.714C412.864 232.45 412.501 232.083 412.237 231.614C411.973 231.137 411.841 230.587 411.841 229.964C411.841 229.348 411.977 228.802 412.248 228.325C412.519 227.848 412.89 227.482 413.359 227.225C413.828 226.968 414.353 226.84 414.932 226.84C415.511 226.84 416.036 226.968 416.505 227.225C416.974 227.482 417.345 227.848 417.616 228.325C417.887 228.802 418.023 229.348 418.023 229.964C418.023 230.58 417.884 231.126 417.605 231.603C417.326 232.08 416.945 232.45 416.461 232.714C415.984 232.971 415.456 233.099 414.877 233.099ZM414.877 232.01C415.2 232.01 415.5 231.933 415.779 231.779C416.065 231.625 416.296 231.394 416.472 231.086C416.648 230.778 416.736 230.404 416.736 229.964C416.736 229.524 416.652 229.154 416.483 228.853C416.314 228.545 416.091 228.314 415.812 228.16C415.533 228.006 415.233 227.929 414.91 227.929C414.587 227.929 414.287 228.006 414.008 228.16C413.737 228.314 413.52 228.545 413.359 228.853C413.198 229.154 413.117 229.524 413.117 229.964C413.117 230.617 413.282 231.123 413.612 231.482C413.949 231.834 414.371 232.01 414.877 232.01ZM421.606 231.878L423.322 226.939H424.652L422.343 233H420.847L418.548 226.939H419.889L421.606 231.878ZM431.155 229.821C431.155 230.048 431.141 230.254 431.111 230.437H426.48C426.517 230.921 426.697 231.31 427.019 231.603C427.342 231.896 427.738 232.043 428.207 232.043C428.882 232.043 429.359 231.761 429.637 231.196H430.99C430.807 231.753 430.473 232.212 429.989 232.571C429.513 232.923 428.919 233.099 428.207 233.099C427.628 233.099 427.107 232.971 426.645 232.714C426.191 232.45 425.831 232.083 425.567 231.614C425.311 231.137 425.182 230.587 425.182 229.964C425.182 229.341 425.307 228.794 425.556 228.325C425.813 227.848 426.169 227.482 426.623 227.225C427.085 226.968 427.613 226.84 428.207 226.84C428.779 226.84 429.289 226.965 429.736 227.214C430.184 227.463 430.532 227.815 430.781 228.27C431.031 228.717 431.155 229.234 431.155 229.821ZM429.846 229.425C429.839 228.963 429.674 228.593 429.351 228.314C429.029 228.035 428.629 227.896 428.152 227.896C427.72 227.896 427.349 228.035 427.041 228.314C426.733 228.585 426.55 228.956 426.491 229.425H429.846ZM433.643 227.819C433.827 227.511 434.069 227.273 434.369 227.104C434.677 226.928 435.04 226.84 435.458 226.84V228.138H435.139C434.648 228.138 434.274 228.263 434.017 228.512C433.768 228.761 433.643 229.194 433.643 229.81V233H432.389V226.939H433.643V227.819ZM442.166 229.821C442.166 230.048 442.151 230.254 442.122 230.437H437.491C437.528 230.921 437.707 231.31 438.03 231.603C438.353 231.896 438.749 232.043 439.218 232.043C439.893 232.043 440.369 231.761 440.648 231.196H442.001C441.818 231.753 441.484 232.212 441 232.571C440.523 232.923 439.929 233.099 439.218 233.099C438.639 233.099 438.118 232.971 437.656 232.714C437.201 232.45 436.842 232.083 436.578 231.614C436.321 231.137 436.193 230.587 436.193 229.964C436.193 229.341 436.318 228.794 436.567 228.325C436.824 227.848 437.179 227.482 437.634 227.225C438.096 226.968 438.624 226.84 439.218 226.84C439.79 226.84 440.3 226.965 440.747 227.214C441.194 227.463 441.543 227.815 441.792 228.27C442.041 228.717 442.166 229.234 442.166 229.821ZM440.857 229.425C440.85 228.963 440.685 228.593 440.362 228.314C440.039 228.035 439.64 227.896 439.163 227.896C438.73 227.896 438.36 228.035 438.052 228.314C437.744 228.585 437.561 228.956 437.502 229.425H440.857ZM442.982 229.942C442.982 229.333 443.107 228.794 443.356 228.325C443.613 227.856 443.958 227.493 444.39 227.236C444.83 226.972 445.318 226.84 445.853 226.84C446.249 226.84 446.638 226.928 447.019 227.104C447.408 227.273 447.716 227.5 447.943 227.786V224.86H449.208V233H447.943V232.087C447.738 232.38 447.452 232.622 447.085 232.813C446.726 233.004 446.312 233.099 445.842 233.099C445.314 233.099 444.83 232.967 444.39 232.703C443.958 232.432 443.613 232.058 443.356 231.581C443.107 231.097 442.982 230.551 442.982 229.942ZM447.943 229.964C447.943 229.546 447.855 229.183 447.679 228.875C447.511 228.567 447.287 228.332 447.008 228.171C446.73 228.01 446.429 227.929 446.106 227.929C445.784 227.929 445.483 228.01 445.204 228.171C444.926 228.325 444.698 228.556 444.522 228.864C444.354 229.165 444.269 229.524 444.269 229.942C444.269 230.36 444.354 230.727 444.522 231.042C444.698 231.357 444.926 231.599 445.204 231.768C445.49 231.929 445.791 232.01 446.106 232.01C446.429 232.01 446.73 231.929 447.008 231.768C447.287 231.607 447.511 231.372 447.679 231.064C447.855 230.749 447.943 230.382 447.943 229.964Z"></path>
<path stroke-width="1.5" stroke="white" d="M226.25 225.828V237C226.25 237.69 225.69 238.25 225 238.25H215C214.31 238.25 213.75 237.69 213.75 237V223C213.75 222.31 214.31 221.75 215 221.75H222.172C222.503 221.75 222.821 221.882 223.055 222.116L225.884 224.945C226.118 225.179 226.25 225.497 226.25 225.828Z"></path>
<rect stroke-width="1.5" stroke="white" rx="2.75" height="5.5" width="5.5" y="226.75" x="216.75"></rect>
<path stroke-linecap="round" stroke-width="1.5" stroke="white" d="M222 232L223 233"></path>
<g opacity="0.5">
<mask fill="white" id="path-10-inside-1_627_80">
<path d="M190 326C190 323.239 192.239 321 195 321H465C467.761 321 470 323.239 470 326V346C470 348.761 467.761 351 465 351H195C192.239 351 190 348.761 190 346V326Z"></path>
</mask>
<path fill-opacity="0.05" fill="white" d="M190 326C190 323.239 192.239 321 195 321H465C467.761 321 470 323.239 470 326V346C470 348.761 467.761 351 465 351H195C192.239 351 190 348.761 190 346V326Z"></path>
<path mask="url(#path-10-inside-1_627_80)" fill-opacity="0.05" fill="white" d="M190 326C190 322.686 192.686 320 196 320H464C467.314 320 470 322.686 470 326C470 323.791 467.761 322 465 322H195C192.239 322 190 323.791 190 326ZM470 351H190H470ZM190 351V321V351ZM470 321V351V321Z"></path>
<path fill="white" d="M304.181 340L302.421 336.942H301.464V340H300.21V332.355H302.85C303.436 332.355 303.931 332.458 304.335 332.663C304.745 332.868 305.05 333.143 305.248 333.488C305.453 333.833 305.556 334.218 305.556 334.643C305.556 335.142 305.409 335.596 305.116 336.007C304.83 336.41 304.386 336.685 303.785 336.832L305.677 340H304.181ZM301.464 335.941H302.85C303.319 335.941 303.671 335.824 303.906 335.589C304.148 335.354 304.269 335.039 304.269 334.643C304.269 334.247 304.151 333.939 303.917 333.719C303.682 333.492 303.326 333.378 302.85 333.378H301.464V335.941ZM312.715 336.821C312.715 337.048 312.7 337.254 312.671 337.437H308.04C308.077 337.921 308.256 338.31 308.579 338.603C308.902 338.896 309.298 339.043 309.767 339.043C310.442 339.043 310.918 338.761 311.197 338.196H312.55C312.367 338.753 312.033 339.212 311.549 339.571C311.072 339.923 310.478 340.099 309.767 340.099C309.188 340.099 308.667 339.971 308.205 339.714C307.75 339.45 307.391 339.083 307.127 338.614C306.87 338.137 306.742 337.587 306.742 336.964C306.742 336.341 306.867 335.794 307.116 335.325C307.373 334.848 307.728 334.482 308.183 334.225C308.645 333.968 309.173 333.84 309.767 333.84C310.339 333.84 310.849 333.965 311.296 334.214C311.743 334.463 312.092 334.815 312.341 335.27C312.59 335.717 312.715 336.234 312.715 336.821ZM311.406 336.425C311.399 335.963 311.234 335.593 310.911 335.314C310.588 335.035 310.189 334.896 309.712 334.896C309.279 334.896 308.909 335.035 308.601 335.314C308.293 335.585 308.11 335.956 308.051 336.425H311.406ZM315.203 334.83C315.416 334.551 315.705 334.317 316.072 334.126C316.439 333.935 316.853 333.84 317.315 333.84C317.843 333.84 318.323 333.972 318.756 334.236C319.196 334.493 319.541 334.856 319.79 335.325C320.039 335.794 320.164 336.333 320.164 336.942C320.164 337.551 320.039 338.097 319.79 338.581C319.541 339.058 319.196 339.432 318.756 339.703C318.323 339.967 317.843 340.099 317.315 340.099C316.853 340.099 316.442 340.007 316.083 339.824C315.724 339.633 315.43 339.399 315.203 339.12V342.882H313.949V333.939H315.203V334.83ZM318.888 336.942C318.888 336.524 318.8 336.165 318.624 335.864C318.455 335.556 318.228 335.325 317.942 335.171C317.663 335.01 317.363 334.929 317.04 334.929C316.725 334.929 316.424 335.01 316.138 335.171C315.859 335.332 315.632 335.567 315.456 335.875C315.287 336.183 315.203 336.546 315.203 336.964C315.203 337.382 315.287 337.749 315.456 338.064C315.632 338.372 315.859 338.607 316.138 338.768C316.424 338.929 316.725 339.01 317.04 339.01C317.363 339.01 317.663 338.929 317.942 338.768C318.228 338.599 318.455 338.357 318.624 338.042C318.8 337.727 318.888 337.36 318.888 336.942ZM320.986 336.942C320.986 336.333 321.111 335.794 321.36 335.325C321.617 334.856 321.961 334.493 322.394 334.236C322.834 333.972 323.318 333.84 323.846 333.84C324.323 333.84 324.737 333.935 325.089 334.126C325.448 334.309 325.734 334.54 325.947 334.819V333.939H327.212V340H325.947V339.098C325.734 339.384 325.445 339.622 325.078 339.813C324.711 340.004 324.293 340.099 323.824 340.099C323.303 340.099 322.827 339.967 322.394 339.703C321.961 339.432 321.617 339.058 321.36 338.581C321.111 338.097 320.986 337.551 320.986 336.942ZM325.947 336.964C325.947 336.546 325.859 336.183 325.683 335.875C325.514 335.567 325.291 335.332 325.012 335.171C324.733 335.01 324.433 334.929 324.11 334.929C323.787 334.929 323.487 335.01 323.208 335.171C322.929 335.325 322.702 335.556 322.526 335.864C322.357 336.165 322.273 336.524 322.273 336.942C322.273 337.36 322.357 337.727 322.526 338.042C322.702 338.357 322.929 338.599 323.208 338.768C323.494 338.929 323.795 339.01 324.11 339.01C324.433 339.01 324.733 338.929 325.012 338.768C325.291 338.607 325.514 338.372 325.683 338.064C325.859 337.749 325.947 337.382 325.947 336.964ZM329.497 333.136C329.27 333.136 329.079 333.059 328.925 332.905C328.771 332.751 328.694 332.56 328.694 332.333C328.694 332.106 328.771 331.915 328.925 331.761C329.079 331.607 329.27 331.53 329.497 331.53C329.717 331.53 329.904 331.607 330.058 331.761C330.212 331.915 330.289 332.106 330.289 332.333C330.289 332.56 330.212 332.751 330.058 332.905C329.904 333.059 329.717 333.136 329.497 333.136ZM330.113 333.939V340H328.859V333.939H330.113ZM333.014 334.819C333.197 334.511 333.439 334.273 333.74 334.104C334.048 333.928 334.411 333.84 334.829 333.84V335.138H334.51C334.018 335.138 333.644 335.263 333.388 335.512C333.138 335.761 333.014 336.194 333.014 336.81V340H331.76V333.939H333.014V334.819ZM336.619 333.136C336.392 333.136 336.201 333.059 336.047 332.905C335.893 332.751 335.816 332.56 335.816 332.333C335.816 332.106 335.893 331.915 336.047 331.761C336.201 331.607 336.392 331.53 336.619 331.53C336.839 331.53 337.026 331.607 337.18 331.761C337.334 331.915 337.411 332.106 337.411 332.333C337.411 332.56 337.334 332.751 337.18 332.905C337.026 333.059 336.839 333.136 336.619 333.136ZM337.235 333.939V340H335.981V333.939H337.235ZM341.94 333.84C342.416 333.84 342.842 333.939 343.216 334.137C343.597 334.335 343.894 334.628 344.107 335.017C344.319 335.406 344.426 335.875 344.426 336.425V340H343.183V336.612C343.183 336.069 343.047 335.655 342.776 335.369C342.504 335.076 342.134 334.929 341.665 334.929C341.195 334.929 340.821 335.076 340.543 335.369C340.271 335.655 340.136 336.069 340.136 336.612V340H338.882V333.939H340.136V334.632C340.341 334.383 340.601 334.188 340.917 334.049C341.239 333.91 341.58 333.84 341.94 333.84ZM348.467 333.84C348.937 333.84 349.351 333.935 349.71 334.126C350.077 334.309 350.363 334.54 350.568 334.819V333.939H351.833V340.099C351.833 340.656 351.716 341.151 351.481 341.584C351.247 342.024 350.906 342.369 350.458 342.618C350.018 342.867 349.49 342.992 348.874 342.992C348.053 342.992 347.371 342.798 346.828 342.409C346.286 342.028 345.978 341.507 345.904 340.847H347.147C347.243 341.162 347.444 341.415 347.752 341.606C348.068 341.804 348.442 341.903 348.874 341.903C349.38 341.903 349.787 341.749 350.095 341.441C350.411 341.133 350.568 340.686 350.568 340.099V339.087C350.356 339.373 350.066 339.615 349.699 339.813C349.34 340.004 348.929 340.099 348.467 340.099C347.939 340.099 347.455 339.967 347.015 339.703C346.583 339.432 346.238 339.058 345.981 338.581C345.732 338.097 345.607 337.551 345.607 336.942C345.607 336.333 345.732 335.794 345.981 335.325C346.238 334.856 346.583 334.493 347.015 334.236C347.455 333.972 347.939 333.84 348.467 333.84ZM350.568 336.964C350.568 336.546 350.48 336.183 350.304 335.875C350.136 335.567 349.912 335.332 349.633 335.171C349.355 335.01 349.054 334.929 348.731 334.929C348.409 334.929 348.108 335.01 347.829 335.171C347.551 335.325 347.323 335.556 347.147 335.864C346.979 336.165 346.894 336.524 346.894 336.942C346.894 337.36 346.979 337.727 347.147 338.042C347.323 338.357 347.551 338.599 347.829 338.768C348.115 338.929 348.416 339.01 348.731 339.01C349.054 339.01 349.355 338.929 349.633 338.768C349.912 338.607 350.136 338.372 350.304 338.064C350.48 337.749 350.568 337.382 350.568 336.964ZM353.986 340.077C353.759 340.077 353.568 340 353.414 339.846C353.26 339.692 353.183 339.501 353.183 339.274C353.183 339.047 353.26 338.856 353.414 338.702C353.568 338.548 353.759 338.471 353.986 338.471C354.206 338.471 354.393 338.548 354.547 338.702C354.701 338.856 354.778 339.047 354.778 339.274C354.778 339.501 354.701 339.692 354.547 339.846C354.393 340 354.206 340.077 353.986 340.077ZM356.64 340.077C356.412 340.077 356.222 340 356.068 339.846C355.914 339.692 355.837 339.501 355.837 339.274C355.837 339.047 355.914 338.856 356.068 338.702C356.222 338.548 356.412 338.471 356.64 338.471C356.86 338.471 357.047 338.548 357.201 338.702C357.355 338.856 357.432 339.047 357.432 339.274C357.432 339.501 357.355 339.692 357.201 339.846C357.047 340 356.86 340.077 356.64 340.077ZM359.293 340.077C359.066 340.077 358.875 340 358.721 339.846C358.567 339.692 358.49 339.501 358.49 339.274C358.49 339.047 358.567 338.856 358.721 338.702C358.875 338.548 359.066 338.471 359.293 338.471C359.513 338.471 359.7 338.548 359.854 338.702C360.008 338.856 360.085 339.047 360.085 339.274C360.085 339.501 360.008 339.692 359.854 339.846C359.7 340 359.513 340.077 359.293 340.077Z"></path>
</g>
</svg>
