<svg version="1.1" xmlns="http://www.w3.org/2000/svg" xmlns:xlink="http://www.w3.org/1999/xlink" width="40" height="20" viewBox="0,0,40,20"><g transform="translate(-221,-167)"><g data-paper-data="{&quot;isPaintingLayer&quot;:true}" fill-rule="nonzero" stroke="none" stroke-width="1" stroke-linecap="butt" stroke-linejoin="miter" stroke-miterlimit="10" stroke-dasharray="" stroke-dashoffset="0" style="mix-blend-mode: normal"><path d="M221,187v-20h40v20z" fill="none"></path><path d="M243.268,173.388v6.612h-1.368v-6.612zM241.552,172.56c-0.2,0 -0.372,-0.068 -0.516,-0.204c-0.136,-0.144 -0.204,-0.316 -0.204,-0.516c0,-0.2 0.068,-0.368 0.204,-0.504c0.144,-0.144 0.316,-0.216 0.516,-0.216c0.2,0 0.368,0.072 0.504,0.216c0.144,0.136 0.216,0.304 0.216,0.504c0,0.2 -0.072,0.372 -0.216,0.516c-0.136,0.136 -0.304,0.204 -0.504,0.204zM243.616,172.56c-0.2,0 -0.372,-0.068 -0.516,-0.204c-0.136,-0.144 -0.204,-0.316 -0.204,-0.516c0,-0.2 0.068,-0.368 0.204,-0.504c0.144,-0.144 0.316,-0.216 0.516,-0.216c0.2,0 0.368,0.072 0.504,0.216c0.144,0.136 0.216,0.304 0.216,0.504c0,0.2 -0.072,0.372 -0.216,0.516c-0.136,0.136 -0.304,0.204 -0.504,0.204z" fill="#ff0000"></path></g></g></svg>