<svg xmlns="http://www.w3.org/2000/svg" fill="none" viewBox="0 0 480 360" height="360" width="480">
<path fill="white" d="M407 34C407 32.8954 407.895 32 409 32H410L412.793 29.2071C412.926 29.0745 413.105 29 413.293 29V29C413.683 29 414 29.3166 414 29.7071V40.2929C414 40.6834 413.683 41 413.293 41V41C413.105 41 412.926 40.9255 412.793 40.7929L410 38L411 37L413 39V31L411 33H409C408.448 33 408 33.4477 408 34V36C408 36.5523 408.448 37 409 37H411L410 38H409C407.895 38 407 37.1046 407 36V34Z"></path>
<rect fill="white" transform="rotate(45 416.525 31.8181)" rx="0.5" height="1" width="8" y="31.8181" x="416.525"></rect>
<rect fill="white" transform="rotate(135 422.182 32.5251)" rx="0.5" height="1" width="8" y="32.5251" x="422.182"></rect>
<path fill="white" d="M377 30C377 28.8954 377.895 28 379 28H387V29H379C378.448 29 378 29.4477 378 30V38C378 38.5523 378.448 39 379 39H389V40H383V42H382V40H379C377.895 40 377 39.1046 377 38V30Z"></path>
<path fill="white" d="M380 42H387V40H388V42H389V43H380V42Z"></path>
<path fill="white" d="M390 34V34C388.895 34 388 33.1046 388 32V30H389V32C389 32.5523 389.448 33 390 33H391C391.552 33 392 32.5523 392 32V29C392 28.4477 391.552 28 391 28V28V27V27C392.105 27 393 27.8954 393 29V32C393 33.1046 392.105 34 391 34V34V43H390V34Z"></path>
<path fill="white" d="M392 30H388V29C388 27.8954 388.895 27 390 27H391V28H390C389.448 28 389 28.4477 389 29V29H392V30Z"></path>
</svg>
