<svg xmlns="http://www.w3.org/2000/svg" fill="none" viewBox="0 0 480 360" height="360" width="480">
<path fill="black" d="M197.44 68.168C196.272 68.168 195.216 67.968 194.272 67.568C193.344 67.168 192.608 66.592 192.064 65.84C191.52 65.088 191.24 64.2 191.224 63.176H194.824C194.872 63.864 195.112 64.408 195.544 64.808C195.992 65.208 196.6 65.408 197.368 65.408C198.152 65.408 198.768 65.224 199.216 64.856C199.664 64.472 199.888 63.976 199.888 63.368C199.888 62.872 199.736 62.464 199.432 62.144C199.128 61.824 198.744 61.576 198.28 61.4C197.832 61.208 197.208 61 196.408 60.776C195.32 60.456 194.432 60.144 193.744 59.84C193.072 59.52 192.488 59.048 191.992 58.424C191.512 57.784 191.272 56.936 191.272 55.88C191.272 54.888 191.52 54.024 192.016 53.288C192.512 52.552 193.208 51.992 194.104 51.608C195 51.208 196.024 51.008 197.176 51.008C198.904 51.008 200.304 51.432 201.376 52.28C202.464 53.112 203.064 54.28 203.176 55.784H199.48C199.448 55.208 199.2 54.736 198.736 54.368C198.288 53.984 197.688 53.792 196.936 53.792C196.28 53.792 195.752 53.96 195.352 54.296C194.968 54.632 194.776 55.12 194.776 55.76C194.776 56.208 194.92 56.584 195.208 56.888C195.512 57.176 195.88 57.416 196.312 57.608C196.76 57.784 197.384 57.992 198.184 58.232C199.272 58.552 200.16 58.872 200.848 59.192C201.536 59.512 202.128 59.992 202.624 60.632C203.12 61.272 203.368 62.112 203.368 63.152C203.368 64.048 203.136 64.88 202.672 65.648C202.208 66.416 201.528 67.032 200.632 67.496C199.736 67.944 198.672 68.168 197.44 68.168ZM207.985 53.12C207.393 53.12 206.897 52.936 206.497 52.568C206.113 52.184 205.921 51.712 205.921 51.152C205.921 50.592 206.113 50.128 206.497 49.76C206.897 49.376 207.393 49.184 207.985 49.184C208.577 49.184 209.065 49.376 209.449 49.76C209.849 50.128 210.049 50.592 210.049 51.152C210.049 51.712 209.849 52.184 209.449 52.568C209.065 52.936 208.577 53.12 207.985 53.12ZM209.641 54.704V68H206.281V54.704H209.641ZM218.169 54.488C219.161 54.488 220.033 54.688 220.785 55.088C221.537 55.472 222.129 55.976 222.561 56.6V54.704H225.945V68.096C225.945 69.328 225.697 70.424 225.201 71.384C224.705 72.36 223.961 73.128 222.969 73.688C221.977 74.264 220.777 74.552 219.369 74.552C217.481 74.552 215.929 74.112 214.713 73.232C213.513 72.352 212.833 71.152 212.673 69.632H216.009C216.185 70.24 216.561 70.72 217.137 71.072C217.729 71.44 218.441 71.624 219.273 71.624C220.249 71.624 221.041 71.328 221.649 70.736C222.257 70.16 222.561 69.28 222.561 68.096V66.032C222.129 66.656 221.529 67.176 220.761 67.592C220.009 68.008 219.145 68.216 218.169 68.216C217.049 68.216 216.025 67.928 215.097 67.352C214.169 66.776 213.433 65.968 212.889 64.928C212.361 63.872 212.097 62.664 212.097 61.304C212.097 59.96 212.361 58.768 212.889 57.728C213.433 56.688 214.161 55.888 215.073 55.328C216.001 54.768 217.033 54.488 218.169 54.488ZM222.561 61.352C222.561 60.536 222.401 59.84 222.081 59.264C221.761 58.672 221.329 58.224 220.785 57.92C220.241 57.6 219.657 57.44 219.033 57.44C218.409 57.44 217.833 57.592 217.305 57.896C216.777 58.2 216.345 58.648 216.009 59.24C215.689 59.816 215.529 60.504 215.529 61.304C215.529 62.104 215.689 62.808 216.009 63.416C216.345 64.008 216.777 64.464 217.305 64.784C217.849 65.104 218.425 65.264 219.033 65.264C219.657 65.264 220.241 65.112 220.785 64.808C221.329 64.488 221.761 64.04 222.081 63.464C222.401 62.872 222.561 62.168 222.561 61.352ZM236.594 54.512C238.178 54.512 239.458 55.016 240.434 56.024C241.41 57.016 241.898 58.408 241.898 60.2V68H238.538V60.656C238.538 59.6 238.274 58.792 237.746 58.232C237.218 57.656 236.498 57.368 235.586 57.368C234.658 57.368 233.922 57.656 233.378 58.232C232.85 58.792 232.586 59.6 232.586 60.656V68H229.226V54.704H232.586V56.36C233.034 55.784 233.602 55.336 234.29 55.016C234.994 54.68 235.762 54.512 236.594 54.512ZM255.318 58.016V60.848H245.142V58.016H255.318ZM260.79 53.12C260.198 53.12 259.702 52.936 259.302 52.568C258.918 52.184 258.726 51.712 258.726 51.152C258.726 50.592 258.918 50.128 259.302 49.76C259.702 49.376 260.198 49.184 260.79 49.184C261.382 49.184 261.87 49.376 262.254 49.76C262.654 50.128 262.854 50.592 262.854 51.152C262.854 51.712 262.654 52.184 262.254 52.568C261.87 52.936 261.382 53.12 260.79 53.12ZM262.446 54.704V68H259.086V54.704H262.446ZM273.133 54.512C274.717 54.512 275.997 55.016 276.973 56.024C277.949 57.016 278.437 58.408 278.437 60.2V68H275.077V60.656C275.077 59.6 274.813 58.792 274.285 58.232C273.757 57.656 273.037 57.368 272.125 57.368C271.197 57.368 270.461 57.656 269.917 58.232C269.389 58.792 269.125 59.6 269.125 60.656V68H265.765V54.704H269.125V56.36C269.573 55.784 270.141 55.336 270.829 55.016C271.533 54.68 272.301 54.512 273.133 54.512ZM293.255 68.216C291.975 68.216 290.823 67.936 289.799 67.376C288.775 66.8 287.967 65.992 287.375 64.952C286.799 63.912 286.511 62.712 286.511 61.352C286.511 59.992 286.807 58.792 287.399 57.752C288.007 56.712 288.831 55.912 289.871 55.352C290.911 54.776 292.071 54.488 293.351 54.488C294.631 54.488 295.791 54.776 296.831 55.352C297.871 55.912 298.687 56.712 299.279 57.752C299.887 58.792 300.191 59.992 300.191 61.352C300.191 62.712 299.879 63.912 299.255 64.952C298.647 65.992 297.815 66.8 296.759 67.376C295.719 67.936 294.551 68.216 293.255 68.216ZM293.255 65.288C293.863 65.288 294.431 65.144 294.959 64.856C295.503 64.552 295.935 64.104 296.255 63.512C296.575 62.92 296.735 62.2 296.735 61.352C296.735 60.088 296.399 59.12 295.727 58.448C295.071 57.76 294.263 57.416 293.303 57.416C292.343 57.416 291.535 57.76 290.879 58.448C290.239 59.12 289.919 60.088 289.919 61.352C289.919 62.616 290.231 63.592 290.855 64.28C291.495 64.952 292.295 65.288 293.255 65.288ZM306.016 56.624C306.448 56.016 307.04 55.512 307.792 55.112C308.56 54.696 309.432 54.488 310.408 54.488C311.544 54.488 312.568 54.768 313.48 55.328C314.408 55.888 315.136 56.688 315.664 57.728C316.208 58.752 316.48 59.944 316.48 61.304C316.48 62.664 316.208 63.872 315.664 64.928C315.136 65.968 314.408 66.776 313.48 67.352C312.568 67.928 311.544 68.216 310.408 68.216C309.432 68.216 308.568 68.016 307.816 67.616C307.08 67.216 306.48 66.712 306.016 66.104V74.336H302.656V54.704H306.016V56.624ZM313.048 61.304C313.048 60.504 312.88 59.816 312.544 59.24C312.224 58.648 311.792 58.2 311.248 57.896C310.72 57.592 310.144 57.44 309.52 57.44C308.912 57.44 308.336 57.6 307.792 57.92C307.264 58.224 306.832 58.672 306.496 59.264C306.176 59.856 306.016 60.552 306.016 61.352C306.016 62.152 306.176 62.848 306.496 63.44C306.832 64.032 307.264 64.488 307.792 64.808C308.336 65.112 308.912 65.264 309.52 65.264C310.144 65.264 310.72 65.104 311.248 64.784C311.792 64.464 312.224 64.008 312.544 63.416C312.88 62.824 313.048 62.12 313.048 61.304ZM322.834 57.464V63.896C322.834 64.344 322.938 64.672 323.146 64.88C323.37 65.072 323.738 65.168 324.25 65.168H325.81V68H323.698C320.866 68 319.45 66.624 319.45 63.872V57.464H317.866V54.704H319.45V51.416H322.834V54.704H325.81V57.464H322.834ZM329.93 53.12C329.338 53.12 328.842 52.936 328.442 52.568C328.058 52.184 327.866 51.712 327.866 51.152C327.866 50.592 328.058 50.128 328.442 49.76C328.842 49.376 329.338 49.184 329.93 49.184C330.522 49.184 331.01 49.376 331.394 49.76C331.794 50.128 331.994 50.592 331.994 51.152C331.994 51.712 331.794 52.184 331.394 52.568C331.01 52.936 330.522 53.12 329.93 53.12ZM331.586 54.704V68H328.226V54.704H331.586ZM340.81 68.216C339.53 68.216 338.378 67.936 337.354 67.376C336.33 66.8 335.522 65.992 334.93 64.952C334.354 63.912 334.066 62.712 334.066 61.352C334.066 59.992 334.362 58.792 334.954 57.752C335.562 56.712 336.386 55.912 337.426 55.352C338.466 54.776 339.626 54.488 340.906 54.488C342.186 54.488 343.346 54.776 344.386 55.352C345.426 55.912 346.242 56.712 346.834 57.752C347.442 58.792 347.746 59.992 347.746 61.352C347.746 62.712 347.434 63.912 346.81 64.952C346.202 65.992 345.37 66.8 344.314 67.376C343.274 67.936 342.106 68.216 340.81 68.216ZM340.81 65.288C341.418 65.288 341.986 65.144 342.514 64.856C343.058 64.552 343.49 64.104 343.81 63.512C344.13 62.92 344.29 62.2 344.29 61.352C344.29 60.088 343.954 59.12 343.282 58.448C342.626 57.76 341.818 57.416 340.858 57.416C339.898 57.416 339.09 57.76 338.434 58.448C337.794 59.12 337.474 60.088 337.474 61.352C337.474 62.616 337.786 63.592 338.41 64.28C339.05 64.952 339.85 65.288 340.81 65.288ZM357.579 54.512C359.163 54.512 360.443 55.016 361.419 56.024C362.395 57.016 362.883 58.408 362.883 60.2V68H359.523V60.656C359.523 59.6 359.259 58.792 358.731 58.232C358.203 57.656 357.483 57.368 356.571 57.368C355.643 57.368 354.907 57.656 354.363 58.232C353.835 58.792 353.571 59.6 353.571 60.656V68H350.211V54.704H353.571V56.36C354.019 55.784 354.587 55.336 355.275 55.016C355.979 54.68 356.747 54.512 357.579 54.512ZM371.166 68.216C370.078 68.216 369.102 68.024 368.238 67.64C367.374 67.24 366.686 66.704 366.174 66.032C365.678 65.36 365.406 64.616 365.358 63.8H368.742C368.806 64.312 369.054 64.736 369.486 65.072C369.934 65.408 370.486 65.576 371.142 65.576C371.782 65.576 372.278 65.448 372.63 65.192C372.998 64.936 373.182 64.608 373.182 64.208C373.182 63.776 372.958 63.456 372.51 63.248C372.078 63.024 371.382 62.784 370.422 62.528C369.43 62.288 368.614 62.04 367.974 61.784C367.35 61.528 366.806 61.136 366.342 60.608C365.894 60.08 365.67 59.368 365.67 58.472C365.67 57.736 365.878 57.064 366.294 56.456C366.726 55.848 367.334 55.368 368.118 55.016C368.918 54.664 369.854 54.488 370.926 54.488C372.51 54.488 373.774 54.888 374.718 55.688C375.662 56.472 376.182 57.536 376.278 58.88H373.062C373.014 58.352 372.79 57.936 372.39 57.632C372.006 57.312 371.486 57.152 370.83 57.152C370.222 57.152 369.75 57.264 369.414 57.488C369.094 57.712 368.934 58.024 368.934 58.424C368.934 58.872 369.158 59.216 369.606 59.456C370.054 59.68 370.75 59.912 371.694 60.152C372.654 60.392 373.446 60.64 374.07 60.896C374.694 61.152 375.23 61.552 375.678 62.096C376.142 62.624 376.382 63.328 376.398 64.208C376.398 64.976 376.182 65.664 375.75 66.272C375.334 66.88 374.726 67.36 373.926 67.712C373.142 68.048 372.222 68.216 371.166 68.216Z"></path>
<path fill-opacity="0.05" fill="black" d="M190 97C190 94.2386 192.239 92 195 92H465C467.761 92 470 94.2386 470 97V158H190V97Z"></path>
<path fill-opacity="0.05" fill="black" d="M190 159H470V199C470 201.761 467.761 204 465 204H195C192.239 204 190 201.761 190 199V159Z"></path>
<path fill="black" d="M210.407 181.161C210.407 180.413 210.579 179.742 210.924 179.148C211.276 178.554 211.749 178.092 212.343 177.762C212.944 177.425 213.601 177.256 214.312 177.256C215.126 177.256 215.848 177.458 216.479 177.861C217.117 178.257 217.579 178.822 217.865 179.555H216.358C216.16 179.152 215.885 178.851 215.533 178.653C215.181 178.455 214.774 178.356 214.312 178.356C213.806 178.356 213.355 178.47 212.959 178.697C212.563 178.924 212.251 179.251 212.024 179.676C211.804 180.101 211.694 180.596 211.694 181.161C211.694 181.726 211.804 182.221 212.024 182.646C212.251 183.071 212.563 183.401 212.959 183.636C213.355 183.863 213.806 183.977 214.312 183.977C214.774 183.977 215.181 183.878 215.533 183.68C215.885 183.482 216.16 183.181 216.358 182.778H217.865C217.579 183.511 217.117 184.076 216.479 184.472C215.848 184.868 215.126 185.066 214.312 185.066C213.593 185.066 212.937 184.901 212.343 184.571C211.749 184.234 211.276 183.768 210.924 183.174C210.579 182.58 210.407 181.909 210.407 181.161ZM224.822 178.939V185H223.568V184.285C223.37 184.534 223.109 184.732 222.787 184.879C222.471 185.018 222.134 185.088 221.775 185.088C221.298 185.088 220.869 184.989 220.488 184.791C220.114 184.593 219.817 184.3 219.597 183.911C219.384 183.522 219.278 183.053 219.278 182.503V178.939H220.521V182.316C220.521 182.859 220.656 183.277 220.928 183.57C221.199 183.856 221.569 183.999 222.039 183.999C222.508 183.999 222.878 183.856 223.15 183.57C223.428 183.277 223.568 182.859 223.568 182.316V178.939H224.822ZM227.73 179.819C227.914 179.511 228.156 179.273 228.456 179.104C228.764 178.928 229.127 178.84 229.545 178.84V180.138H229.226C228.735 180.138 228.361 180.263 228.104 180.512C227.855 180.761 227.73 181.194 227.73 181.81V185H226.476V178.939H227.73V179.819ZM231.952 179.819C232.135 179.511 232.377 179.273 232.678 179.104C232.986 178.928 233.349 178.84 233.767 178.84V180.138H233.448C232.957 180.138 232.583 180.263 232.326 180.512C232.077 180.761 231.952 181.194 231.952 181.81V185H230.698V178.939H231.952V179.819ZM240.475 181.821C240.475 182.048 240.46 182.254 240.431 182.437H235.8C235.836 182.921 236.016 183.31 236.339 183.603C236.661 183.896 237.057 184.043 237.527 184.043C238.201 184.043 238.678 183.761 238.957 183.196H240.31C240.126 183.753 239.793 184.212 239.309 184.571C238.832 184.923 238.238 185.099 237.527 185.099C236.947 185.099 236.427 184.971 235.965 184.714C235.51 184.45 235.151 184.083 234.887 183.614C234.63 183.137 234.502 182.587 234.502 181.964C234.502 181.341 234.626 180.794 234.876 180.325C235.132 179.848 235.488 179.482 235.943 179.225C236.405 178.968 236.933 178.84 237.527 178.84C238.099 178.84 238.608 178.965 239.056 179.214C239.503 179.463 239.851 179.815 240.101 180.27C240.35 180.717 240.475 181.234 240.475 181.821ZM239.166 181.425C239.158 180.963 238.993 180.593 238.671 180.314C238.348 180.035 237.948 179.896 237.472 179.896C237.039 179.896 236.669 180.035 236.361 180.314C236.053 180.585 235.869 180.956 235.811 181.425H239.166ZM244.767 178.84C245.243 178.84 245.669 178.939 246.043 179.137C246.424 179.335 246.721 179.628 246.934 180.017C247.146 180.406 247.253 180.875 247.253 181.425V185H246.01V181.612C246.01 181.069 245.874 180.655 245.603 180.369C245.331 180.076 244.961 179.929 244.492 179.929C244.022 179.929 243.648 180.076 243.37 180.369C243.098 180.655 242.963 181.069 242.963 181.612V185H241.709V178.939H242.963V179.632C243.168 179.383 243.428 179.188 243.744 179.049C244.066 178.91 244.407 178.84 244.767 178.84ZM250.315 179.962V183.317C250.315 183.544 250.367 183.709 250.469 183.812C250.579 183.907 250.763 183.955 251.019 183.955H251.789V185H250.799C250.235 185 249.802 184.868 249.501 184.604C249.201 184.34 249.05 183.911 249.05 183.317V179.962H248.335V178.939H249.05V177.432H250.315V178.939H251.789V179.962H250.315ZM257.057 179.83C257.269 179.551 257.559 179.317 257.926 179.126C258.292 178.935 258.707 178.84 259.169 178.84C259.697 178.84 260.177 178.972 260.61 179.236C261.05 179.493 261.394 179.856 261.644 180.325C261.893 180.794 262.018 181.333 262.018 181.942C262.018 182.551 261.893 183.097 261.644 183.581C261.394 184.058 261.05 184.432 260.61 184.703C260.177 184.967 259.697 185.099 259.169 185.099C258.707 185.099 258.296 185.007 257.937 184.824C257.577 184.633 257.284 184.399 257.057 184.12V187.882H255.803V178.939H257.057V179.83ZM260.742 181.942C260.742 181.524 260.654 181.165 260.478 180.864C260.309 180.556 260.082 180.325 259.796 180.171C259.517 180.01 259.216 179.929 258.894 179.929C258.578 179.929 258.278 180.01 257.992 180.171C257.713 180.332 257.486 180.567 257.31 180.875C257.141 181.183 257.057 181.546 257.057 181.964C257.057 182.382 257.141 182.749 257.31 183.064C257.486 183.372 257.713 183.607 257.992 183.768C258.278 183.929 258.578 184.01 258.894 184.01C259.216 184.01 259.517 183.929 259.796 183.768C260.082 183.599 260.309 183.357 260.478 183.042C260.654 182.727 260.742 182.36 260.742 181.942ZM262.84 181.942C262.84 181.333 262.964 180.794 263.214 180.325C263.47 179.856 263.815 179.493 264.248 179.236C264.688 178.972 265.172 178.84 265.7 178.84C266.176 178.84 266.591 178.935 266.943 179.126C267.302 179.309 267.588 179.54 267.801 179.819V178.939H269.066V185H267.801V184.098C267.588 184.384 267.298 184.622 266.932 184.813C266.565 185.004 266.147 185.099 265.678 185.099C265.157 185.099 264.68 184.967 264.248 184.703C263.815 184.432 263.47 184.058 263.214 183.581C262.964 183.097 262.84 182.551 262.84 181.942ZM267.801 181.964C267.801 181.546 267.713 181.183 267.537 180.875C267.368 180.567 267.144 180.332 266.866 180.171C266.587 180.01 266.286 179.929 265.964 179.929C265.641 179.929 265.34 180.01 265.062 180.171C264.783 180.325 264.556 180.556 264.38 180.864C264.211 181.165 264.127 181.524 264.127 181.942C264.127 182.36 264.211 182.727 264.38 183.042C264.556 183.357 264.783 183.599 265.062 183.768C265.348 183.929 265.648 184.01 265.964 184.01C266.286 184.01 266.587 183.929 266.866 183.768C267.144 183.607 267.368 183.372 267.537 183.064C267.713 182.749 267.801 182.382 267.801 181.964ZM272.913 185.099C272.436 185.099 272.007 185.015 271.626 184.846C271.252 184.67 270.955 184.435 270.735 184.142C270.515 183.841 270.397 183.508 270.383 183.141H271.681C271.703 183.398 271.824 183.614 272.044 183.79C272.271 183.959 272.553 184.043 272.891 184.043C273.243 184.043 273.514 183.977 273.705 183.845C273.903 183.706 274.002 183.53 274.002 183.317C274.002 183.09 273.892 182.921 273.672 182.811C273.459 182.701 273.118 182.58 272.649 182.448C272.194 182.323 271.824 182.202 271.538 182.085C271.252 181.968 271.002 181.788 270.79 181.546C270.584 181.304 270.482 180.985 270.482 180.589C270.482 180.266 270.577 179.973 270.768 179.709C270.958 179.438 271.23 179.225 271.582 179.071C271.941 178.917 272.352 178.84 272.814 178.84C273.503 178.84 274.057 179.016 274.475 179.368C274.9 179.713 275.127 180.186 275.157 180.787H273.903C273.881 180.516 273.771 180.299 273.573 180.138C273.375 179.977 273.107 179.896 272.77 179.896C272.44 179.896 272.187 179.958 272.011 180.083C271.835 180.208 271.747 180.373 271.747 180.578C271.747 180.739 271.805 180.875 271.923 180.985C272.04 181.095 272.183 181.183 272.352 181.249C272.52 181.308 272.77 181.385 273.1 181.48C273.54 181.597 273.899 181.718 274.178 181.843C274.464 181.96 274.709 182.136 274.915 182.371C275.12 182.606 275.226 182.917 275.234 183.306C275.234 183.651 275.138 183.959 274.948 184.23C274.757 184.501 274.486 184.714 274.134 184.868C273.789 185.022 273.382 185.099 272.913 185.099ZM278.789 185.099C278.312 185.099 277.883 185.015 277.502 184.846C277.128 184.67 276.831 184.435 276.611 184.142C276.391 183.841 276.273 183.508 276.259 183.141H277.557C277.579 183.398 277.7 183.614 277.92 183.79C278.147 183.959 278.429 184.043 278.767 184.043C279.119 184.043 279.39 183.977 279.581 183.845C279.779 183.706 279.878 183.53 279.878 183.317C279.878 183.09 279.768 182.921 279.548 182.811C279.335 182.701 278.994 182.58 278.525 182.448C278.07 182.323 277.7 182.202 277.414 182.085C277.128 181.968 276.878 181.788 276.666 181.546C276.46 181.304 276.358 180.985 276.358 180.589C276.358 180.266 276.453 179.973 276.644 179.709C276.834 179.438 277.106 179.225 277.458 179.071C277.817 178.917 278.228 178.84 278.69 178.84C279.379 178.84 279.933 179.016 280.351 179.368C280.776 179.713 281.003 180.186 281.033 180.787H279.779C279.757 180.516 279.647 180.299 279.449 180.138C279.251 179.977 278.983 179.896 278.646 179.896C278.316 179.896 278.063 179.958 277.887 180.083C277.711 180.208 277.623 180.373 277.623 180.578C277.623 180.739 277.681 180.875 277.799 180.985C277.916 181.095 278.059 181.183 278.228 181.249C278.396 181.308 278.646 181.385 278.976 181.48C279.416 181.597 279.775 181.718 280.054 181.843C280.34 181.96 280.585 182.136 280.791 182.371C280.996 182.606 281.102 182.917 281.11 183.306C281.11 183.651 281.014 183.959 280.824 184.23C280.633 184.501 280.362 184.714 280.01 184.868C279.665 185.022 279.258 185.099 278.789 185.099ZM290.605 178.939L288.724 185H287.404L286.183 180.523L284.962 185H283.642L281.75 178.939H283.026L284.291 183.812L285.578 178.939H286.887L288.119 183.79L289.373 178.939H290.605ZM294.171 185.099C293.599 185.099 293.082 184.971 292.62 184.714C292.158 184.45 291.795 184.083 291.531 183.614C291.267 183.137 291.135 182.587 291.135 181.964C291.135 181.348 291.27 180.802 291.542 180.325C291.813 179.848 292.183 179.482 292.653 179.225C293.122 178.968 293.646 178.84 294.226 178.84C294.805 178.84 295.329 178.968 295.799 179.225C296.268 179.482 296.638 179.848 296.91 180.325C297.181 180.802 297.317 181.348 297.317 181.964C297.317 182.58 297.177 183.126 296.899 183.603C296.62 184.08 296.239 184.45 295.755 184.714C295.278 184.971 294.75 185.099 294.171 185.099ZM294.171 184.01C294.493 184.01 294.794 183.933 295.073 183.779C295.359 183.625 295.59 183.394 295.766 183.086C295.942 182.778 296.03 182.404 296.03 181.964C296.03 181.524 295.945 181.154 295.777 180.853C295.608 180.545 295.384 180.314 295.106 180.16C294.827 180.006 294.526 179.929 294.204 179.929C293.881 179.929 293.58 180.006 293.302 180.16C293.03 180.314 292.814 180.545 292.653 180.853C292.491 181.154 292.411 181.524 292.411 181.964C292.411 182.617 292.576 183.123 292.906 183.482C293.243 183.834 293.665 184.01 294.171 184.01ZM299.81 179.819C299.994 179.511 300.236 179.273 300.536 179.104C300.844 178.928 301.207 178.84 301.625 178.84V180.138H301.306C300.815 180.138 300.441 180.263 300.184 180.512C299.935 180.761 299.81 181.194 299.81 181.81V185H298.556V178.939H299.81V179.819ZM302.36 181.942C302.36 181.333 302.485 180.794 302.734 180.325C302.991 179.856 303.335 179.493 303.768 179.236C304.208 178.972 304.696 178.84 305.231 178.84C305.627 178.84 306.016 178.928 306.397 179.104C306.786 179.273 307.094 179.5 307.321 179.786V176.86H308.586V185H307.321V184.087C307.116 184.38 306.83 184.622 306.463 184.813C306.104 185.004 305.689 185.099 305.22 185.099C304.692 185.099 304.208 184.967 303.768 184.703C303.335 184.432 302.991 184.058 302.734 183.581C302.485 183.097 302.36 182.551 302.36 181.942ZM307.321 181.964C307.321 181.546 307.233 181.183 307.057 180.875C306.888 180.567 306.665 180.332 306.386 180.171C306.107 180.01 305.807 179.929 305.484 179.929C305.161 179.929 304.861 180.01 304.582 180.171C304.303 180.325 304.076 180.556 303.9 180.864C303.731 181.165 303.647 181.524 303.647 181.942C303.647 182.36 303.731 182.727 303.9 183.042C304.076 183.357 304.303 183.599 304.582 183.768C304.868 183.929 305.169 184.01 305.484 184.01C305.807 184.01 306.107 183.929 306.386 183.768C306.665 183.607 306.888 183.372 307.057 183.064C307.233 182.749 307.321 182.382 307.321 181.964Z"></path>
<mask fill="white" id="path-4-inside-1_502_195">
<path d="M330 171C330 168.239 332.239 166 335 166H455C457.761 166 460 168.239 460 171V191C460 193.761 457.761 196 455 196H335C332.239 196 330 193.761 330 191V171Z"></path>
</mask>
<path fill-opacity="0.05" fill="black" d="M330 171C330 168.239 332.239 166 335 166H455C457.761 166 460 168.239 460 171V191C460 193.761 457.761 196 455 196H335C332.239 196 330 193.761 330 191V171Z"></path>
<path mask="url(#path-4-inside-1_502_195)" fill-opacity="0.5" fill="black" d="M330 166H460H330ZM460 191C460 194.314 457.314 197 454 197H336C332.686 197 330 194.314 330 191C330 193.209 332.239 195 335 195H455C457.761 195 460 193.209 460 191ZM330 196V166V196ZM460 166V196V166Z"></path>
<path fill="black" d="M256.171 123.632C256.171 124.021 256.079 124.387 255.896 124.732C255.713 125.077 255.419 125.359 255.016 125.579C254.613 125.792 254.096 125.898 253.465 125.898H252.079V129H250.825V121.355H253.465C254.052 121.355 254.547 121.458 254.95 121.663C255.361 121.861 255.665 122.132 255.863 122.477C256.068 122.822 256.171 123.207 256.171 123.632ZM253.465 124.875C253.942 124.875 254.297 124.769 254.532 124.556C254.767 124.336 254.884 124.028 254.884 123.632C254.884 122.796 254.411 122.378 253.465 122.378H252.079V124.875H253.465ZM256.949 125.942C256.949 125.333 257.074 124.794 257.323 124.325C257.58 123.856 257.924 123.493 258.357 123.236C258.797 122.972 259.281 122.84 259.809 122.84C260.286 122.84 260.7 122.935 261.052 123.126C261.411 123.309 261.697 123.54 261.91 123.819V122.939H263.175V129H261.91V128.098C261.697 128.384 261.408 128.622 261.041 128.813C260.674 129.004 260.256 129.099 259.787 129.099C259.266 129.099 258.79 128.967 258.357 128.703C257.924 128.432 257.58 128.058 257.323 127.581C257.074 127.097 256.949 126.551 256.949 125.942ZM261.91 125.964C261.91 125.546 261.822 125.183 261.646 124.875C261.477 124.567 261.254 124.332 260.975 124.171C260.696 124.01 260.396 123.929 260.073 123.929C259.75 123.929 259.45 124.01 259.171 124.171C258.892 124.325 258.665 124.556 258.489 124.864C258.32 125.165 258.236 125.524 258.236 125.942C258.236 126.36 258.32 126.727 258.489 127.042C258.665 127.357 258.892 127.599 259.171 127.768C259.457 127.929 259.758 128.01 260.073 128.01C260.396 128.01 260.696 127.929 260.975 127.768C261.254 127.607 261.477 127.372 261.646 127.064C261.822 126.749 261.91 126.382 261.91 125.964ZM267.022 129.099C266.545 129.099 266.116 129.015 265.735 128.846C265.361 128.67 265.064 128.435 264.844 128.142C264.624 127.841 264.507 127.508 264.492 127.141H265.79C265.812 127.398 265.933 127.614 266.153 127.79C266.38 127.959 266.663 128.043 267 128.043C267.352 128.043 267.623 127.977 267.814 127.845C268.012 127.706 268.111 127.53 268.111 127.317C268.111 127.09 268.001 126.921 267.781 126.811C267.568 126.701 267.227 126.58 266.758 126.448C266.303 126.323 265.933 126.202 265.647 126.085C265.361 125.968 265.112 125.788 264.899 125.546C264.694 125.304 264.591 124.985 264.591 124.589C264.591 124.266 264.686 123.973 264.877 123.709C265.068 123.438 265.339 123.225 265.691 123.071C266.05 122.917 266.461 122.84 266.923 122.84C267.612 122.84 268.166 123.016 268.584 123.368C269.009 123.713 269.237 124.186 269.266 124.787H268.012C267.99 124.516 267.88 124.299 267.682 124.138C267.484 123.977 267.216 123.896 266.879 123.896C266.549 123.896 266.296 123.958 266.12 124.083C265.944 124.208 265.856 124.373 265.856 124.578C265.856 124.739 265.915 124.875 266.032 124.985C266.149 125.095 266.292 125.183 266.461 125.249C266.63 125.308 266.879 125.385 267.209 125.48C267.649 125.597 268.008 125.718 268.287 125.843C268.573 125.96 268.819 126.136 269.024 126.371C269.229 126.606 269.336 126.917 269.343 127.306C269.343 127.651 269.248 127.959 269.057 128.23C268.866 128.501 268.595 128.714 268.243 128.868C267.898 129.022 267.491 129.099 267.022 129.099ZM272.898 129.099C272.421 129.099 271.992 129.015 271.611 128.846C271.237 128.67 270.94 128.435 270.72 128.142C270.5 127.841 270.383 127.508 270.368 127.141H271.666C271.688 127.398 271.809 127.614 272.029 127.79C272.256 127.959 272.539 128.043 272.876 128.043C273.228 128.043 273.499 127.977 273.69 127.845C273.888 127.706 273.987 127.53 273.987 127.317C273.987 127.09 273.877 126.921 273.657 126.811C273.444 126.701 273.103 126.58 272.634 126.448C272.179 126.323 271.809 126.202 271.523 126.085C271.237 125.968 270.988 125.788 270.775 125.546C270.57 125.304 270.467 124.985 270.467 124.589C270.467 124.266 270.562 123.973 270.753 123.709C270.944 123.438 271.215 123.225 271.567 123.071C271.926 122.917 272.337 122.84 272.799 122.84C273.488 122.84 274.042 123.016 274.46 123.368C274.885 123.713 275.113 124.186 275.142 124.787H273.888C273.866 124.516 273.756 124.299 273.558 124.138C273.36 123.977 273.092 123.896 272.755 123.896C272.425 123.896 272.172 123.958 271.996 124.083C271.82 124.208 271.732 124.373 271.732 124.578C271.732 124.739 271.791 124.875 271.908 124.985C272.025 125.095 272.168 125.183 272.337 125.249C272.506 125.308 272.755 125.385 273.085 125.48C273.525 125.597 273.884 125.718 274.163 125.843C274.449 125.96 274.695 126.136 274.9 126.371C275.105 126.606 275.212 126.917 275.219 127.306C275.219 127.651 275.124 127.959 274.933 128.23C274.742 128.501 274.471 128.714 274.119 128.868C273.774 129.022 273.367 129.099 272.898 129.099ZM284.714 122.939L282.833 129H281.513L280.292 124.523L279.071 129H277.751L275.859 122.939H277.135L278.4 127.812L279.687 122.939H280.996L282.228 127.79L283.482 122.939H284.714ZM288.28 129.099C287.708 129.099 287.191 128.971 286.729 128.714C286.267 128.45 285.904 128.083 285.64 127.614C285.376 127.137 285.244 126.587 285.244 125.964C285.244 125.348 285.38 124.802 285.651 124.325C285.923 123.848 286.293 123.482 286.762 123.225C287.232 122.968 287.756 122.84 288.335 122.84C288.915 122.84 289.439 122.968 289.908 123.225C290.378 123.482 290.748 123.848 291.019 124.325C291.291 124.802 291.426 125.348 291.426 125.964C291.426 126.58 291.287 127.126 291.008 127.603C290.73 128.08 290.348 128.45 289.864 128.714C289.388 128.971 288.86 129.099 288.28 129.099ZM288.28 128.01C288.603 128.01 288.904 127.933 289.182 127.779C289.468 127.625 289.699 127.394 289.875 127.086C290.051 126.778 290.139 126.404 290.139 125.964C290.139 125.524 290.055 125.154 289.886 124.853C289.718 124.545 289.494 124.314 289.215 124.16C288.937 124.006 288.636 123.929 288.313 123.929C287.991 123.929 287.69 124.006 287.411 124.16C287.14 124.314 286.924 124.545 286.762 124.853C286.601 125.154 286.52 125.524 286.52 125.964C286.52 126.617 286.685 127.123 287.015 127.482C287.353 127.834 287.774 128.01 288.28 128.01ZM293.92 123.819C294.103 123.511 294.345 123.273 294.646 123.104C294.954 122.928 295.317 122.84 295.735 122.84V124.138H295.416C294.924 124.138 294.55 124.263 294.294 124.512C294.044 124.761 293.92 125.194 293.92 125.81V129H292.666V122.939H293.92V123.819ZM296.47 125.942C296.47 125.333 296.594 124.794 296.844 124.325C297.1 123.856 297.445 123.493 297.878 123.236C298.318 122.972 298.805 122.84 299.341 122.84C299.737 122.84 300.125 122.928 300.507 123.104C300.895 123.273 301.203 123.5 301.431 123.786V120.86H302.696V129H301.431V128.087C301.225 128.38 300.939 128.622 300.573 128.813C300.213 129.004 299.799 129.099 299.33 129.099C298.802 129.099 298.318 128.967 297.878 128.703C297.445 128.432 297.1 128.058 296.844 127.581C296.594 127.097 296.47 126.551 296.47 125.942ZM301.431 125.964C301.431 125.546 301.343 125.183 301.167 124.875C300.998 124.567 300.774 124.332 300.496 124.171C300.217 124.01 299.916 123.929 299.594 123.929C299.271 123.929 298.97 124.01 298.692 124.171C298.413 124.325 298.186 124.556 298.01 124.864C297.841 125.165 297.757 125.524 297.757 125.942C297.757 126.36 297.841 126.727 298.01 127.042C298.186 127.357 298.413 127.599 298.692 127.768C298.978 127.929 299.278 128.01 299.594 128.01C299.916 128.01 300.217 127.929 300.496 127.768C300.774 127.607 300.998 127.372 301.167 127.064C301.343 126.749 301.431 126.382 301.431 125.964Z"></path>
<path stroke-linejoin="round" stroke-width="1.5" stroke="black" d="M223.25 120C223.25 120.966 224.034 121.75 225 121.75C225.966 121.75 226.75 120.966 226.75 120C226.75 119.034 225.966 118.25 225 118.25C224.034 118.25 223.25 119.034 223.25 120ZM225 120.25C224.862 120.25 224.75 120.138 224.75 120C224.75 119.862 224.862 119.75 225 119.75C225.138 119.75 225.25 119.862 225.25 120C225.25 120.138 225.138 120.25 225 120.25ZM216.53 124.53C216.671 124.39 216.75 124.199 216.75 124V122C216.75 118.548 219.548 115.75 223 115.75C226.452 115.75 229.25 118.548 229.25 122C229.25 125.452 226.452 128.25 223 128.25H221C220.586 128.25 220.25 128.586 220.25 129C220.25 129.138 220.138 129.25 220 129.25H219C218.586 129.25 218.25 129.586 218.25 130V131C218.25 131.69 217.69 132.25 217 132.25H216C215.586 132.25 215.25 132.586 215.25 133C215.25 133.69 214.69 134.25 214 134.25H212C211.31 134.25 210.75 133.69 210.75 133V130.828C210.75 130.497 210.882 130.179 211.116 129.945L216.53 124.53Z"></path>
</svg>
