<svg xmlns="http://www.w3.org/2000/svg" fill="none" viewBox="0 0 480 360" height="360" width="480">
<mask fill="white" id="path-1-inside-1_768_2">
<path d="M300 58C300 55.2386 302.239 53 305 53H325C327.761 53 330 55.2386 330 58V78C330 80.7614 327.761 83 325 83H305C302.239 83 300 80.7614 300 78V58Z"></path>
</mask>
<path fill-opacity="0.05" fill="white" d="M300 58C300 55.2386 302.239 53 305 53H325C327.761 53 330 55.2386 330 58V78C330 80.7614 327.761 83 325 83H305C302.239 83 300 80.7614 300 78V58Z"></path>
<path mask="url(#path-1-inside-1_768_2)" fill-opacity="0.05" fill="white" d="M300 58C300 54.6863 302.686 52 306 52H324C327.314 52 330 54.6863 330 58C330 55.7909 327.761 54 325 54H305C302.239 54 300 55.7909 300 58ZM330 83H300H330ZM300 83V53V83ZM330 53V83V53Z"></path>
<rect fill="#4CC2FF" rx="1.5" height="3" width="16" y="79" x="307"></rect>
<path fill="white" d="M278.167 72.077C277.94 72.077 277.749 72 277.595 71.846C277.441 71.692 277.364 71.5013 277.364 71.274C277.364 71.0467 277.441 70.856 277.595 70.702C277.749 70.548 277.94 70.471 278.167 70.471C278.387 70.471 278.574 70.548 278.728 70.702C278.882 70.856 278.959 71.0467 278.959 71.274C278.959 71.5013 278.882 71.692 278.728 71.846C278.574 72 278.387 72.077 278.167 72.077ZM281.777 66.962V70.317C281.777 70.5443 281.829 70.7093 281.931 70.812C282.041 70.9073 282.225 70.955 282.481 70.955H283.251V72H282.261C281.697 72 281.264 71.868 280.963 71.604C280.663 71.34 280.512 70.911 280.512 70.317V66.962H279.797V65.939H280.512V64.432H281.777V65.939H283.251V66.962H281.777ZM287.003 68.931L288.961 72H287.542L286.233 69.943L285.001 72H283.692L285.65 69.019L283.692 65.939H285.111L286.42 67.996L287.652 65.939H288.961L287.003 68.931ZM291.359 66.962V70.317C291.359 70.5443 291.411 70.7093 291.513 70.812C291.623 70.9073 291.807 70.955 292.063 70.955H292.833V72H291.843C291.279 72 290.846 71.868 290.545 71.604C290.245 71.34 290.094 70.911 290.094 70.317V66.962H289.379V65.939H290.094V64.432H291.359V65.939H292.833V66.962H291.359Z"></path>
<path fill="white" d="M305.503 72.077C305.276 72.077 305.085 72 304.931 71.846C304.777 71.692 304.7 71.5013 304.7 71.274C304.7 71.0467 304.777 70.856 304.931 70.702C305.085 70.548 305.276 70.471 305.503 70.471C305.723 70.471 305.91 70.548 306.064 70.702C306.218 70.856 306.295 71.0467 306.295 71.274C306.295 71.5013 306.218 71.692 306.064 71.846C305.91 72 305.723 72.077 305.503 72.077ZM307.232 68.942C307.232 68.3333 307.357 67.7943 307.606 67.325C307.863 66.8557 308.208 66.4927 308.64 66.236C309.08 65.972 309.568 65.84 310.103 65.84C310.499 65.84 310.888 65.928 311.269 66.104C311.658 66.2727 311.966 66.5 312.193 66.786V63.86H313.458V72H312.193V71.087C311.988 71.3803 311.702 71.6223 311.335 71.813C310.976 72.0037 310.562 72.099 310.092 72.099C309.564 72.099 309.08 71.967 308.64 71.703C308.208 71.4317 307.863 71.0577 307.606 70.581C307.357 70.097 307.232 69.5507 307.232 68.942ZM312.193 68.964C312.193 68.546 312.105 68.183 311.929 67.875C311.761 67.567 311.537 67.3323 311.258 67.171C310.98 67.0097 310.679 66.929 310.356 66.929C310.034 66.929 309.733 67.0097 309.454 67.171C309.176 67.325 308.948 67.556 308.772 67.864C308.604 68.1647 308.519 68.524 308.519 68.942C308.519 69.36 308.604 69.7267 308.772 70.042C308.948 70.3573 309.176 70.5993 309.454 70.768C309.74 70.9293 310.041 71.01 310.356 71.01C310.679 71.01 310.98 70.9293 311.258 70.768C311.537 70.6067 311.761 70.372 311.929 70.064C312.105 69.7487 312.193 69.382 312.193 68.964ZM314.687 68.942C314.687 68.3333 314.812 67.7943 315.061 67.325C315.318 66.8557 315.663 66.4927 316.095 66.236C316.535 65.972 317.019 65.84 317.547 65.84C318.024 65.84 318.438 65.9353 318.79 66.126C319.15 66.3093 319.436 66.5403 319.648 66.819V65.939H320.913V72H319.648V71.098C319.436 71.384 319.146 71.6223 318.779 71.813C318.413 72.0037 317.995 72.099 317.525 72.099C317.005 72.099 316.528 71.967 316.095 71.703C315.663 71.4317 315.318 71.0577 315.061 70.581C314.812 70.097 314.687 69.5507 314.687 68.942ZM319.648 68.964C319.648 68.546 319.56 68.183 319.384 67.875C319.216 67.567 318.992 67.3323 318.713 67.171C318.435 67.0097 318.134 66.929 317.811 66.929C317.489 66.929 317.188 67.0097 316.909 67.171C316.631 67.325 316.403 67.556 316.227 67.864C316.059 68.1647 315.974 68.524 315.974 68.942C315.974 69.36 316.059 69.7267 316.227 70.042C316.403 70.3573 316.631 70.5993 316.909 70.768C317.195 70.9293 317.496 71.01 317.811 71.01C318.134 71.01 318.435 70.9293 318.713 70.768C318.992 70.6067 319.216 70.372 319.384 70.064C319.56 69.7487 319.648 69.382 319.648 68.964ZM324.023 66.962V70.317C324.023 70.5443 324.075 70.7093 324.177 70.812C324.287 70.9073 324.471 70.955 324.727 70.955H325.497V72H324.507C323.943 72 323.51 71.868 323.209 71.604C322.909 71.34 322.758 70.911 322.758 70.317V66.962H322.043V65.939H322.758V64.432H324.023V65.939H325.497V66.962H324.023Z"></path>
</svg>
