<svg xmlns="http://www.w3.org/2000/svg" fill="none" viewBox="0 0 480 360" height="360" width="480">
<rect fill-opacity="0.05" fill="#D9D9D9" rx="5" height="36" width="80" y="50" x="84"></rect>
<path fill="black" d="M124.324 64.355V65.378H121.079V67.633H123.609V68.656H121.079V72H119.825V64.355H124.324ZM128.115 72.099C127.543 72.099 127.026 71.9707 126.564 71.714C126.102 71.45 125.739 71.0833 125.475 70.614C125.211 70.1373 125.079 69.5873 125.079 68.964C125.079 68.348 125.215 67.8017 125.486 67.325C125.757 66.8483 126.128 66.4817 126.597 66.225C127.066 65.9683 127.591 65.84 128.17 65.84C128.749 65.84 129.274 65.9683 129.743 66.225C130.212 66.4817 130.583 66.8483 130.854 67.325C131.125 67.8017 131.261 68.348 131.261 68.964C131.261 69.58 131.122 70.1263 130.843 70.603C130.564 71.0797 130.183 71.45 129.699 71.714C129.222 71.9707 128.694 72.099 128.115 72.099ZM128.115 71.01C128.438 71.01 128.738 70.933 129.017 70.779C129.303 70.625 129.534 70.394 129.71 70.086C129.886 69.778 129.974 69.404 129.974 68.964C129.974 68.524 129.89 68.1537 129.721 67.853C129.552 67.545 129.329 67.314 129.05 67.16C128.771 67.006 128.471 66.929 128.148 66.929C127.825 66.929 127.525 67.006 127.246 67.16C126.975 67.314 126.758 67.545 126.597 67.853C126.436 68.1537 126.355 68.524 126.355 68.964C126.355 69.6167 126.52 70.1227 126.85 70.482C127.187 70.834 127.609 71.01 128.115 71.01ZM133.755 63.86V72H132.501V63.86H133.755ZM134.983 68.942C134.983 68.3333 135.108 67.7943 135.357 67.325C135.614 66.8557 135.959 66.4927 136.391 66.236C136.831 65.972 137.319 65.84 137.854 65.84C138.25 65.84 138.639 65.928 139.02 66.104C139.409 66.2727 139.717 66.5 139.944 66.786V63.86H141.209V72H139.944V71.087C139.739 71.3803 139.453 71.6223 139.086 71.813C138.727 72.0037 138.313 72.099 137.843 72.099C137.315 72.099 136.831 71.967 136.391 71.703C135.959 71.4317 135.614 71.0577 135.357 70.581C135.108 70.097 134.983 69.5507 134.983 68.942ZM139.944 68.964C139.944 68.546 139.856 68.183 139.68 67.875C139.512 67.567 139.288 67.3323 139.009 67.171C138.731 67.0097 138.43 66.929 138.107 66.929C137.785 66.929 137.484 67.0097 137.205 67.171C136.927 67.325 136.699 67.556 136.523 67.864C136.355 68.1647 136.27 68.524 136.27 68.942C136.27 69.36 136.355 69.7267 136.523 70.042C136.699 70.3573 136.927 70.5993 137.205 70.768C137.491 70.9293 137.792 71.01 138.107 71.01C138.43 71.01 138.731 70.9293 139.009 70.768C139.288 70.6067 139.512 70.372 139.68 70.064C139.856 69.7487 139.944 69.382 139.944 68.964ZM148.411 68.821C148.411 69.0483 148.397 69.2537 148.367 69.437H143.736C143.773 69.921 143.953 70.3097 144.275 70.603C144.598 70.8963 144.994 71.043 145.463 71.043C146.138 71.043 146.615 70.7607 146.893 70.196H148.246C148.063 70.7533 147.729 71.2117 147.245 71.571C146.769 71.923 146.175 72.099 145.463 72.099C144.884 72.099 144.363 71.9707 143.901 71.714C143.447 71.45 143.087 71.0833 142.823 70.614C142.567 70.1373 142.438 69.5873 142.438 68.964C142.438 68.3407 142.563 67.7943 142.812 67.325C143.069 66.8483 143.425 66.4817 143.879 66.225C144.341 65.9683 144.869 65.84 145.463 65.84C146.035 65.84 146.545 65.9647 146.992 66.214C147.44 66.4633 147.788 66.8153 148.037 67.27C148.287 67.7173 148.411 68.2343 148.411 68.821ZM147.102 68.425C147.095 67.963 146.93 67.5927 146.607 67.314C146.285 67.0353 145.885 66.896 145.408 66.896C144.976 66.896 144.605 67.0353 144.297 67.314C143.989 67.5853 143.806 67.9557 143.747 68.425H147.102ZM150.899 66.819C151.083 66.511 151.325 66.2727 151.625 66.104C151.933 65.928 152.296 65.84 152.714 65.84V67.138H152.395C151.904 67.138 151.53 67.2627 151.273 67.512C151.024 67.7613 150.899 68.194 150.899 68.81V72H149.645V65.939H150.899V66.819Z"></path>
<path stroke-linejoin="round" stroke-linecap="round" stroke="#333333" d="M100.5 73.5H96.5C95.3954 73.5 94.5 72.6046 94.5 71.5V63.5M101.5 62.5V62.5C101.5 61.3954 100.605 60.5 99.5 60.5H96.5C95.3954 60.5 94.5 61.3954 94.5 62.5V63.5M101.5 62.5H107.5C108.605 62.5 109.5 63.3954 109.5 64.5V66.5M101.5 62.5V62.5C101.5 63.0523 101.052 63.5 100.5 63.5H94.5"></path>
<rect fill="#0076B3" rx="4.5" height="9" width="9" y="66" x="101"></rect>
<path stroke-linecap="round" stroke="white" d="M103.5 70.5H105.5M107.5 70.5H105.5M105.5 70.5V72.5V68.5V70.5Z"></path>
</svg>
