<svg xmlns="http://www.w3.org/2000/svg" fill="none" viewBox="0 0 122 142" height="142" width="122">
<path fill-opacity="0.9" fill="#333333" d="M1 11C1 5.47716 5.47715 1 11 1H111C116.523 1 121 5.47715 121 11V131C121 136.523 116.523 141 111 141H11C5.47715 141 1 136.523 1 131V11Z"></path>
<path stroke-opacity="0.2" stroke="black" d="M111 0.5H11C5.20101 0.5 0.5 5.20101 0.5 11V131C0.5 136.799 5.20101 141.5 11 141.5H111C116.799 141.5 121.5 136.799 121.5 131V11C121.5 5.20101 116.799 0.5 111 0.5Z"></path>
<path fill="white" d="M17.171 94.632C17.171 95.0207 17.0793 95.3873 16.896 95.732C16.7127 96.0767 16.4193 96.359 16.016 96.579C15.6127 96.7917 15.0957 96.898 14.465 96.898H13.079V100H11.825V92.355H14.465C15.0517 92.355 15.5467 92.4577 15.95 92.663C16.3607 92.861 16.665 93.1323 16.863 93.477C17.0683 93.8217 17.171 94.2067 17.171 94.632ZM14.465 95.875C14.9417 95.875 15.2973 95.7687 15.532 95.556C15.7667 95.336 15.884 95.028 15.884 94.632C15.884 93.796 15.411 93.378 14.465 93.378H13.079V95.875H14.465ZM19.005 93.136C18.7777 93.136 18.587 93.059 18.433 92.905C18.279 92.751 18.202 92.5603 18.202 92.333C18.202 92.1057 18.279 91.915 18.433 91.761C18.587 91.607 18.7777 91.53 19.005 91.53C19.225 91.53 19.412 91.607 19.566 91.761C19.72 91.915 19.797 92.1057 19.797 92.333C19.797 92.5603 19.72 92.751 19.566 92.905C19.412 93.059 19.225 93.136 19.005 93.136ZM19.621 93.939V100H18.367V93.939H19.621ZM22.5214 94.819C22.7047 94.511 22.9467 94.2727 23.2474 94.104C23.5554 93.928 23.9184 93.84 24.3364 93.84V95.138H24.0174C23.526 95.138 23.152 95.2627 22.8954 95.512C22.646 95.7613 22.5214 96.194 22.5214 96.81V100H21.2674V93.939H22.5214V94.819ZM25.0711 96.942C25.0711 96.3333 25.1957 95.7943 25.4451 95.325C25.7017 94.8557 26.0464 94.4927 26.4791 94.236C26.9191 93.972 27.4031 93.84 27.9311 93.84C28.4077 93.84 28.8221 93.9353 29.1741 94.126C29.5334 94.3093 29.8194 94.5403 30.0321 94.819V93.939H31.2971V100H30.0321V99.098C29.8194 99.384 29.5297 99.6223 29.1631 99.813C28.7964 100.004 28.3784 100.099 27.9091 100.099C27.3884 100.099 26.9117 99.967 26.4791 99.703C26.0464 99.4317 25.7017 99.0577 25.4451 98.581C25.1957 98.097 25.0711 97.5507 25.0711 96.942ZM30.0321 96.964C30.0321 96.546 29.9441 96.183 29.7681 95.875C29.5994 95.567 29.3757 95.3323 29.0971 95.171C28.8184 95.0097 28.5177 94.929 28.1951 94.929C27.8724 94.929 27.5717 95.0097 27.2931 95.171C27.0144 95.325 26.7871 95.556 26.6111 95.864C26.4424 96.1647 26.3581 96.524 26.3581 96.942C26.3581 97.36 26.4424 97.7267 26.6111 98.042C26.7871 98.3573 27.0144 98.5993 27.2931 98.768C27.5791 98.9293 27.8797 99.01 28.1951 99.01C28.5177 99.01 28.8184 98.9293 29.0971 98.768C29.3757 98.6067 29.5994 98.372 29.7681 98.064C29.9441 97.7487 30.0321 97.382 30.0321 96.964ZM34.4071 94.962V98.317C34.4071 98.5443 34.4585 98.7093 34.5611 98.812C34.6711 98.9073 34.8545 98.955 35.1111 98.955H35.8811V100H34.8911C34.3265 100 33.8938 99.868 33.5931 99.604C33.2925 99.34 33.1421 98.911 33.1421 98.317V94.962H32.4271V93.939H33.1421V92.432H34.4071V93.939H35.8811V94.962H34.4071ZM39.6659 100.099C39.0939 100.099 38.5769 99.9707 38.1149 99.714C37.6529 99.45 37.2899 99.0833 37.0259 98.614C36.7619 98.1373 36.6299 97.5873 36.6299 96.964C36.6299 96.348 36.7656 95.8017 37.0369 95.325C37.3082 94.8483 37.6786 94.4817 38.1479 94.225C38.6172 93.9683 39.1416 93.84 39.7209 93.84C40.3002 93.84 40.8246 93.9683 41.2939 94.225C41.7632 94.4817 42.1336 94.8483 42.4049 95.325C42.6762 95.8017 42.8119 96.348 42.8119 96.964C42.8119 97.58 42.6726 98.1263 42.3939 98.603C42.1152 99.0797 41.7339 99.45 41.2499 99.714C40.7732 99.9707 40.2452 100.099 39.6659 100.099ZM39.6659 99.01C39.9886 99.01 40.2892 98.933 40.5679 98.779C40.8539 98.625 41.0849 98.394 41.2609 98.086C41.4369 97.778 41.5249 97.404 41.5249 96.964C41.5249 96.524 41.4406 96.1537 41.2719 95.853C41.1032 95.545 40.8796 95.314 40.6009 95.16C40.3222 95.006 40.0216 94.929 39.6989 94.929C39.3762 94.929 39.0756 95.006 38.7969 95.16C38.5256 95.314 38.3092 95.545 38.1479 95.853C37.9866 96.1537 37.9059 96.524 37.9059 96.964C37.9059 97.6167 38.0709 98.1227 38.4009 98.482C38.7382 98.834 39.1599 99.01 39.6659 99.01ZM46.2516 100.099C45.7749 100.099 45.3459 100.015 44.9646 99.846C44.5906 99.67 44.2936 99.4353 44.0736 99.142C43.8536 98.8413 43.7362 98.5077 43.7216 98.141H45.0196C45.0416 98.3977 45.1626 98.614 45.3826 98.79C45.6099 98.9587 45.8922 99.043 46.2296 99.043C46.5816 99.043 46.8529 98.977 47.0436 98.845C47.2416 98.7057 47.3406 98.5297 47.3406 98.317C47.3406 98.0897 47.2306 97.921 47.0106 97.811C46.7979 97.701 46.4569 97.58 45.9876 97.448C45.5329 97.3233 45.1626 97.2023 44.8766 97.085C44.5906 96.9677 44.3412 96.788 44.1286 96.546C43.9232 96.304 43.8206 95.985 43.8206 95.589C43.8206 95.2663 43.9159 94.973 44.1066 94.709C44.2972 94.4377 44.5686 94.225 44.9206 94.071C45.2799 93.917 45.6906 93.84 46.1526 93.84C46.8419 93.84 47.3956 94.016 47.8136 94.368C48.2389 94.7127 48.4662 95.1857 48.4956 95.787H47.2416C47.2196 95.5157 47.1096 95.2993 46.9116 95.138C46.7136 94.9767 46.4459 94.896 46.1086 94.896C45.7786 94.896 45.5256 94.9583 45.3496 95.083C45.1736 95.2077 45.0856 95.3727 45.0856 95.578C45.0856 95.7393 45.1442 95.875 45.2616 95.985C45.3789 96.095 45.5219 96.183 45.6906 96.249C45.8592 96.3077 46.1086 96.3847 46.4386 96.48C46.8786 96.5973 47.2379 96.7183 47.5166 96.843C47.8026 96.9603 48.0482 97.1363 48.2536 97.371C48.4589 97.6057 48.5652 97.9173 48.5726 98.306C48.5726 98.6507 48.4772 98.9587 48.2866 99.23C48.0959 99.5013 47.8246 99.714 47.4726 99.868C47.1279 100.022 46.7209 100.099 46.2516 100.099Z"></path>
<path fill="#695657" d="M1 11C1 5.47715 5.47715 1 11 1H111C116.523 1 121 5.47715 121 11V81H1V11Z"></path>
<path fill-opacity="0.5" fill="black" d="M1 11C1 5.47715 5.47715 1 11 1H111C116.523 1 121 5.47715 121 11V81H1V11Z"></path>
<circle stroke-width="3.2" stroke="url(#paint1_linear_1051_104)" fill="url(#paint0_linear_1051_104)" r="17.6" cy="41.0008" cx="60.9998"></circle>
<path fill="url(#paint2_linear_1051_104)" d="M56.2002 48.2724V33.7308C56.2002 32.4255 57.6789 31.6695 58.737 32.4337L68.8042 39.7045C69.6885 40.3431 69.6885 41.66 68.8042 42.2986L58.737 49.5694C57.6789 50.3336 56.2002 49.5776 56.2002 48.2724Z"></path>
<path stroke-width="1.6" stroke-opacity="0.2" stroke="black" d="M55.4002 33.7308V48.2724C55.4002 50.2302 57.6182 51.3643 59.2054 50.218L69.2726 42.9472C70.5991 41.9892 70.599 40.0139 69.2726 39.0559L59.2054 31.7851C57.6182 30.6388 55.4002 31.7729 55.4002 33.7308Z"></path>
<path fill-opacity="0.05" fill="white" d="M61 116C61 113.239 63.2386 111 66 111H106C108.761 111 111 113.239 111 116V126C111 128.761 108.761 131 106 131H66C63.2386 131 61 128.761 61 126V116Z"></path>
<path fill="white" d="M80.0838 117.745V124H79.0578V119.716L77.1498 124H76.4388L74.5218 119.716V124H73.4958V117.745H74.6028L76.7988 122.65L78.9858 117.745H80.0838ZM85.9233 119.041V124H84.8973V123.415C84.7353 123.619 84.5223 123.781 84.2583 123.901C84.0003 124.015 83.7243 124.072 83.4303 124.072C83.0403 124.072 82.6893 123.991 82.3773 123.829C82.0713 123.667 81.8283 123.427 81.6483 123.109C81.4743 122.791 81.3873 122.407 81.3873 121.957V119.041H82.4043V121.804C82.4043 122.248 82.5153 122.59 82.7373 122.83C82.9593 123.064 83.2623 123.181 83.6463 123.181C84.0303 123.181 84.3333 123.064 84.5553 122.83C84.7833 122.59 84.8973 122.248 84.8973 121.804V119.041H85.9233ZM89.0771 124.081C88.6871 124.081 88.3361 124.012 88.0241 123.874C87.7181 123.73 87.4751 123.538 87.2951 123.298C87.1151 123.052 87.0191 122.779 87.0071 122.479H88.0691C88.0871 122.689 88.1861 122.866 88.3661 123.01C88.5521 123.148 88.7831 123.217 89.0591 123.217C89.3471 123.217 89.5691 123.163 89.7251 123.055C89.8871 122.941 89.9681 122.797 89.9681 122.623C89.9681 122.437 89.8781 122.299 89.6981 122.209C89.5241 122.119 89.2451 122.02 88.8611 121.912C88.4891 121.81 88.1861 121.711 87.9521 121.615C87.7181 121.519 87.5141 121.372 87.3401 121.174C87.1721 120.976 87.0881 120.715 87.0881 120.391C87.0881 120.127 87.1661 119.887 87.3221 119.671C87.4781 119.449 87.7001 119.275 87.9881 119.149C88.2821 119.023 88.6181 118.96 88.9961 118.96C89.5601 118.96 90.0131 119.104 90.3551 119.392C90.7031 119.674 90.8891 120.061 90.9131 120.553H89.8871C89.8691 120.331 89.7791 120.154 89.6171 120.022C89.4551 119.89 89.2361 119.824 88.9601 119.824C88.6901 119.824 88.4831 119.875 88.3391 119.977C88.1951 120.079 88.1231 120.214 88.1231 120.382C88.1231 120.514 88.1711 120.625 88.2671 120.715C88.3631 120.805 88.4801 120.877 88.6181 120.931C88.7561 120.979 88.9601 121.042 89.2301 121.12C89.5901 121.216 89.8841 121.315 90.1121 121.417C90.3461 121.513 90.5471 121.657 90.7151 121.849C90.8831 122.041 90.9701 122.296 90.9761 122.614C90.9761 122.896 90.8981 123.148 90.7421 123.37C90.5861 123.592 90.3641 123.766 90.0761 123.892C89.7941 124.018 89.4611 124.081 89.0771 124.081ZM92.6067 118.384C92.4207 118.384 92.2647 118.321 92.1387 118.195C92.0127 118.069 91.9497 117.913 91.9497 117.727C91.9497 117.541 92.0127 117.385 92.1387 117.259C92.2647 117.133 92.4207 117.07 92.6067 117.07C92.7867 117.07 92.9397 117.133 93.0657 117.259C93.1917 117.385 93.2547 117.541 93.2547 117.727C93.2547 117.913 93.1917 118.069 93.0657 118.195C92.9397 118.321 92.7867 118.384 92.6067 118.384ZM93.1107 119.041V124H92.0847V119.041H93.1107ZM94.1157 121.516C94.1157 121.006 94.2177 120.559 94.4217 120.175C94.6317 119.785 94.9197 119.485 95.2857 119.275C95.6517 119.065 96.0717 118.96 96.5457 118.96C97.1457 118.96 97.6407 119.104 98.0307 119.392C98.4267 119.674 98.6937 120.079 98.8317 120.607H97.7247C97.6347 120.361 97.4907 120.169 97.2927 120.031C97.0947 119.893 96.8457 119.824 96.5457 119.824C96.1257 119.824 95.7897 119.974 95.5377 120.274C95.2917 120.568 95.1687 120.982 95.1687 121.516C95.1687 122.05 95.2917 122.467 95.5377 122.767C95.7897 123.067 96.1257 123.217 96.5457 123.217C97.1397 123.217 97.5327 122.956 97.7247 122.434H98.8317C98.6877 122.938 98.4177 123.34 98.0217 123.64C97.6257 123.934 97.1337 124.081 96.5457 124.081C96.0717 124.081 95.6517 123.976 95.2857 123.766C94.9197 123.55 94.6317 123.25 94.4217 122.866C94.2177 122.476 94.1157 122.026 94.1157 121.516Z"></path>
<defs>
<linearGradient gradientUnits="userSpaceOnUse" y2="60.2008" x2="72.1998" y1="21.8008" x1="49.7998" id="paint0_linear_1051_104">
<stop stop-color="#4D4D4D" offset="0.139158"></stop>
<stop stop-color="#242424" offset="0.856518"></stop>
</linearGradient>
<linearGradient gradientUnits="userSpaceOnUse" y2="60.2008" x2="72.1998" y1="21.8008" x1="49.7998" id="paint1_linear_1051_104">
<stop stop-color="#FE924A" offset="0.140625"></stop>
<stop stop-color="#9264BA" offset="0.864583"></stop>
</linearGradient>
<linearGradient gradientUnits="userSpaceOnUse" y2="50.6016" x2="56.2002" y1="31.4016" x1="56.2002" id="paint2_linear_1051_104">
<stop stop-color="white"></stop>
<stop stop-color="#E3E3E3" offset="1"></stop>
</linearGradient>
</defs>
</svg>
