<svg xmlns="http://www.w3.org/2000/svg" fill="none" viewBox="0 0 480 90" height="90" width="480">
<path fill-opacity="0.9" fill="#1A1A1A" d="M10 30C10 24.4772 14.4772 20 20 20H460C465.523 20 470 24.4772 470 30V60C470 65.5228 465.523 70 460 70H20C14.4772 70 10 65.5228 10 60V30Z"></path>
<path stroke-width="2" stroke-opacity="0.2" stroke="white" d="M20 19C13.9249 19 9 23.9249 9 30V60C9 66.0751 13.9249 71 20 71H460C466.075 71 471 66.0751 471 60V30C471 23.9249 466.075 19 460 19H20Z"></path>
<path fill="white" d="M35.434 47.438H32.233L31.683 49H30.374L33.113 41.344H34.565L37.304 49H35.984L35.434 47.438ZM35.082 46.415L33.839 42.862L32.585 46.415H35.082ZM39.7489 43.819C39.9323 43.511 40.1743 43.2727 40.4749 43.104C40.7829 42.928 41.1459 42.84 41.5639 42.84V44.138H41.2449C40.7536 44.138 40.3796 44.2627 40.1229 44.512C39.8736 44.7613 39.7489 45.194 39.7489 45.81V49H38.4949V42.939H39.7489V43.819ZM48.2716 45.821C48.2716 46.0483 48.2569 46.2537 48.2276 46.437H43.5966C43.6333 46.921 43.8129 47.3097 44.1356 47.603C44.4583 47.8963 44.8543 48.043 45.3236 48.043C45.9983 48.043 46.4749 47.7607 46.7536 47.196H48.1066C47.9233 47.7533 47.5896 48.2117 47.1056 48.571C46.6289 48.923 46.0349 49.099 45.3236 49.099C44.7443 49.099 44.2236 48.9707 43.7616 48.714C43.3069 48.45 42.9476 48.0833 42.6836 47.614C42.4269 47.1373 42.2986 46.5873 42.2986 45.964C42.2986 45.3407 42.4233 44.7943 42.6726 44.325C42.9293 43.8483 43.2849 43.4817 43.7396 43.225C44.2016 42.9683 44.7296 42.84 45.3236 42.84C45.8956 42.84 46.4053 42.9647 46.8526 43.214C47.2999 43.4633 47.6483 43.8153 47.8976 44.27C48.1469 44.7173 48.2716 45.2343 48.2716 45.821ZM46.9626 45.425C46.9553 44.963 46.7903 44.5927 46.4676 44.314C46.1449 44.0353 45.7453 43.896 45.2686 43.896C44.8359 43.896 44.4656 44.0353 44.1576 44.314C43.8496 44.5853 43.6663 44.9557 43.6076 45.425H46.9626ZM57.8191 42.939L54.1011 51.849H52.8031L54.0351 48.901L51.6481 42.939H53.0451L54.7501 47.559L56.5211 42.939H57.8191ZM61.3944 49.099C60.8224 49.099 60.3054 48.9707 59.8434 48.714C59.3814 48.45 59.0184 48.0833 58.7544 47.614C58.4904 47.1373 58.3584 46.5873 58.3584 45.964C58.3584 45.348 58.4941 44.8017 58.7654 44.325C59.0368 43.8483 59.4071 43.4817 59.8764 43.225C60.3458 42.9683 60.8701 42.84 61.4494 42.84C62.0288 42.84 62.5531 42.9683 63.0224 43.225C63.4918 43.4817 63.8621 43.8483 64.1334 44.325C64.4048 44.8017 64.5404 45.348 64.5404 45.964C64.5404 46.58 64.4011 47.1263 64.1224 47.603C63.8438 48.0797 63.4624 48.45 62.9784 48.714C62.5018 48.9707 61.9738 49.099 61.3944 49.099ZM61.3944 48.01C61.7171 48.01 62.0178 47.933 62.2964 47.779C62.5824 47.625 62.8134 47.394 62.9894 47.086C63.1654 46.778 63.2534 46.404 63.2534 45.964C63.2534 45.524 63.1691 45.1537 63.0004 44.853C62.8318 44.545 62.6081 44.314 62.3294 44.16C62.0508 44.006 61.7501 43.929 61.4274 43.929C61.1048 43.929 60.8041 44.006 60.5254 44.16C60.2541 44.314 60.0378 44.545 59.8764 44.853C59.7151 45.1537 59.6344 45.524 59.6344 45.964C59.6344 46.6167 59.7994 47.1227 60.1294 47.482C60.4668 47.834 60.8884 48.01 61.3944 48.01ZM71.2691 42.939V49H70.0151V48.285C69.8171 48.5343 69.5567 48.7323 69.2341 48.879C68.9187 49.0183 68.5814 49.088 68.2221 49.088C67.7454 49.088 67.3164 48.989 66.9351 48.791C66.5611 48.593 66.2641 48.2997 66.0441 47.911C65.8314 47.5223 65.7251 47.053 65.7251 46.503V42.939H66.9681V46.316C66.9681 46.8587 67.1037 47.2767 67.3751 47.57C67.6464 47.856 68.0167 47.999 68.4861 47.999C68.9554 47.999 69.3257 47.856 69.5971 47.57C69.8757 47.2767 70.0151 46.8587 70.0151 46.316V42.939H71.2691ZM77.9811 49.099C77.5044 49.099 77.0754 49.0147 76.6941 48.846C76.3201 48.67 76.0231 48.4353 75.8031 48.142C75.5831 47.8413 75.4657 47.5077 75.4511 47.141H76.7491C76.7711 47.3977 76.8921 47.614 77.1121 47.79C77.3394 47.9587 77.6217 48.043 77.9591 48.043C78.3111 48.043 78.5824 47.977 78.7731 47.845C78.9711 47.7057 79.0701 47.5297 79.0701 47.317C79.0701 47.0897 78.9601 46.921 78.7401 46.811C78.5274 46.701 78.1864 46.58 77.7171 46.448C77.2624 46.3233 76.8921 46.2023 76.6061 46.085C76.3201 45.9677 76.0707 45.788 75.8581 45.546C75.6527 45.304 75.5501 44.985 75.5501 44.589C75.5501 44.2663 75.6454 43.973 75.8361 43.709C76.0267 43.4377 76.2981 43.225 76.6501 43.071C77.0094 42.917 77.4201 42.84 77.8821 42.84C78.5714 42.84 79.1251 43.016 79.5431 43.368C79.9684 43.7127 80.1957 44.1857 80.2251 44.787H78.9711C78.9491 44.5157 78.8391 44.2993 78.6411 44.138C78.4431 43.9767 78.1754 43.896 77.8381 43.896C77.5081 43.896 77.2551 43.9583 77.0791 44.083C76.9031 44.2077 76.8151 44.3727 76.8151 44.578C76.8151 44.7393 76.8737 44.875 76.9911 44.985C77.1084 45.095 77.2514 45.183 77.4201 45.249C77.5887 45.3077 77.8381 45.3847 78.1681 45.48C78.6081 45.5973 78.9674 45.7183 79.2461 45.843C79.5321 45.9603 79.7777 46.1363 79.9831 46.371C80.1884 46.6057 80.2947 46.9173 80.3021 47.306C80.3021 47.6507 80.2067 47.9587 80.0161 48.23C79.8254 48.5013 79.5541 48.714 79.2021 48.868C78.8574 49.022 78.4504 49.099 77.9811 49.099ZM87.146 42.939V49H85.892V48.285C85.694 48.5343 85.4337 48.7323 85.111 48.879C84.7957 49.0183 84.4584 49.088 84.099 49.088C83.6224 49.088 83.1934 48.989 82.812 48.791C82.438 48.593 82.141 48.2997 81.921 47.911C81.7084 47.5223 81.602 47.053 81.602 46.503V42.939H82.845V46.316C82.845 46.8587 82.9807 47.2767 83.252 47.57C83.5234 47.856 83.8937 47.999 84.363 47.999C84.8324 47.999 85.2027 47.856 85.474 47.57C85.7527 47.2767 85.892 46.8587 85.892 46.316V42.939H87.146ZM90.0546 43.819C90.2379 43.511 90.4799 43.2727 90.7806 43.104C91.0886 42.928 91.4516 42.84 91.8696 42.84V44.138H91.5506C91.0593 44.138 90.6853 44.2627 90.4286 44.512C90.1793 44.7613 90.0546 45.194 90.0546 45.81V49H88.8006V42.939H90.0546V43.819ZM98.5773 45.821C98.5773 46.0483 98.5626 46.2537 98.5333 46.437H93.9023C93.9389 46.921 94.1186 47.3097 94.4413 47.603C94.7639 47.8963 95.1599 48.043 95.6293 48.043C96.3039 48.043 96.7806 47.7607 97.0593 47.196H98.4123C98.2289 47.7533 97.8953 48.2117 97.4113 48.571C96.9346 48.923 96.3406 49.099 95.6293 49.099C95.0499 49.099 94.5293 48.9707 94.0673 48.714C93.6126 48.45 93.2533 48.0833 92.9893 47.614C92.7326 47.1373 92.6043 46.5873 92.6043 45.964C92.6043 45.3407 92.7289 44.7943 92.9783 44.325C93.2349 43.8483 93.5906 43.4817 94.0453 43.225C94.5073 42.9683 95.0353 42.84 95.6293 42.84C96.2013 42.84 96.7109 42.9647 97.1583 43.214C97.6056 43.4633 97.9539 43.8153 98.2033 44.27C98.4526 44.7173 98.5773 45.2343 98.5773 45.821ZM97.2683 45.425C97.2609 44.963 97.0959 44.5927 96.7733 44.314C96.4506 44.0353 96.0509 43.896 95.5743 43.896C95.1416 43.896 94.7713 44.0353 94.4633 44.314C94.1553 44.5853 93.9719 44.9557 93.9133 45.425H97.2683ZM104.132 43.962V47.317C104.132 47.5443 104.183 47.7093 104.286 47.812C104.396 47.9073 104.579 47.955 104.836 47.955H105.606V49H104.616C104.051 49 103.618 48.868 103.318 48.604C103.017 48.34 102.867 47.911 102.867 47.317V43.962H102.152V42.939H102.867V41.432H104.132V42.939H105.606V43.962H104.132ZM109.391 49.099C108.819 49.099 108.302 48.9707 107.84 48.714C107.378 48.45 107.015 48.0833 106.751 47.614C106.487 47.1373 106.355 46.5873 106.355 45.964C106.355 45.348 106.49 44.8017 106.762 44.325C107.033 43.8483 107.403 43.4817 107.873 43.225C108.342 42.9683 108.866 42.84 109.446 42.84C110.025 42.84 110.549 42.9683 111.019 43.225C111.488 43.4817 111.858 43.8483 112.13 44.325C112.401 44.8017 112.537 45.348 112.537 45.964C112.537 46.58 112.397 47.1263 112.119 47.603C111.84 48.0797 111.459 48.45 110.975 48.714C110.498 48.9707 109.97 49.099 109.391 49.099ZM109.391 48.01C109.713 48.01 110.014 47.933 110.293 47.779C110.579 47.625 110.81 47.394 110.986 47.086C111.162 46.778 111.25 46.404 111.25 45.964C111.25 45.524 111.165 45.1537 110.997 44.853C110.828 44.545 110.604 44.314 110.326 44.16C110.047 44.006 109.746 43.929 109.424 43.929C109.101 43.929 108.8 44.006 108.522 44.16C108.25 44.314 108.034 44.545 107.873 44.853C107.711 45.1537 107.631 45.524 107.631 45.964C107.631 46.6167 107.796 47.1227 108.126 47.482C108.463 47.834 108.885 48.01 109.391 48.01ZM116.216 45.942C116.216 45.3333 116.34 44.7943 116.59 44.325C116.846 43.8557 117.191 43.4927 117.624 43.236C118.064 42.972 118.551 42.84 119.087 42.84C119.483 42.84 119.871 42.928 120.253 43.104C120.641 43.2727 120.949 43.5 121.177 43.786V40.86H122.442V49H121.177V48.087C120.971 48.3803 120.685 48.6223 120.319 48.813C119.959 49.0037 119.545 49.099 119.076 49.099C118.548 49.099 118.064 48.967 117.624 48.703C117.191 48.4317 116.846 48.0577 116.59 47.581C116.34 47.097 116.216 46.5507 116.216 45.942ZM121.177 45.964C121.177 45.546 121.089 45.183 120.913 44.875C120.744 44.567 120.52 44.3323 120.242 44.171C119.963 44.0097 119.662 43.929 119.34 43.929C119.017 43.929 118.716 44.0097 118.438 44.171C118.159 44.325 117.932 44.556 117.756 44.864C117.587 45.1647 117.503 45.524 117.503 45.942C117.503 46.36 117.587 46.7267 117.756 47.042C117.932 47.3573 118.159 47.5993 118.438 47.768C118.724 47.9293 119.024 48.01 119.34 48.01C119.662 48.01 119.963 47.9293 120.242 47.768C120.52 47.6067 120.744 47.372 120.913 47.064C121.089 46.7487 121.177 46.382 121.177 45.964ZM129.644 45.821C129.644 46.0483 129.629 46.2537 129.6 46.437H124.969C125.005 46.921 125.185 47.3097 125.508 47.603C125.83 47.8963 126.226 48.043 126.696 48.043C127.37 48.043 127.847 47.7607 128.126 47.196H129.479C129.295 47.7533 128.962 48.2117 128.478 48.571C128.001 48.923 127.407 49.099 126.696 49.099C126.116 49.099 125.596 48.9707 125.134 48.714C124.679 48.45 124.32 48.0833 124.056 47.614C123.799 47.1373 123.671 46.5873 123.671 45.964C123.671 45.3407 123.795 44.7943 124.045 44.325C124.301 43.8483 124.657 43.4817 125.112 43.225C125.574 42.9683 126.102 42.84 126.696 42.84C127.268 42.84 127.777 42.9647 128.225 43.214C128.672 43.4633 129.02 43.8153 129.27 44.27C129.519 44.7173 129.644 45.2343 129.644 45.821ZM128.335 45.425C128.327 44.963 128.162 44.5927 127.84 44.314C127.517 44.0353 127.117 43.896 126.641 43.896C126.208 43.896 125.838 44.0353 125.53 44.314C125.222 44.5853 125.038 44.9557 124.98 45.425H128.335ZM132.132 40.86V49H130.878V40.86H132.132ZM139.333 45.821C139.333 46.0483 139.318 46.2537 139.289 46.437H134.658C134.695 46.921 134.874 47.3097 135.197 47.603C135.52 47.8963 135.916 48.043 136.385 48.043C137.06 48.043 137.536 47.7607 137.815 47.196H139.168C138.985 47.7533 138.651 48.2117 138.167 48.571C137.69 48.923 137.096 49.099 136.385 49.099C135.806 49.099 135.285 48.9707 134.823 48.714C134.368 48.45 134.009 48.0833 133.745 47.614C133.488 47.1373 133.36 46.5873 133.36 45.964C133.36 45.3407 133.485 44.7943 133.734 44.325C133.991 43.8483 134.346 43.4817 134.801 43.225C135.263 42.9683 135.791 42.84 136.385 42.84C136.957 42.84 137.467 42.9647 137.914 43.214C138.361 43.4633 138.71 43.8153 138.959 44.27C139.208 44.7173 139.333 45.2343 139.333 45.821ZM138.024 45.425C138.017 44.963 137.852 44.5927 137.529 44.314C137.206 44.0353 136.807 43.896 136.33 43.896C135.897 43.896 135.527 44.0353 135.219 44.314C134.911 44.5853 134.728 44.9557 134.669 45.425H138.024ZM142.03 43.962V47.317C142.03 47.5443 142.082 47.7093 142.184 47.812C142.294 47.9073 142.478 47.955 142.734 47.955H143.504V49H142.514C141.95 49 141.517 48.868 141.216 48.604C140.916 48.34 140.765 47.911 140.765 47.317V43.962H140.05V42.939H140.765V41.432H142.03V42.939H143.504V43.962H142.03ZM150.215 45.821C150.215 46.0483 150.2 46.2537 150.171 46.437H145.54C145.577 46.921 145.756 47.3097 146.079 47.603C146.402 47.8963 146.798 48.043 147.267 48.043C147.942 48.043 148.418 47.7607 148.697 47.196H150.05C149.867 47.7533 149.533 48.2117 149.049 48.571C148.572 48.923 147.978 49.099 147.267 49.099C146.688 49.099 146.167 48.9707 145.705 48.714C145.25 48.45 144.891 48.0833 144.627 47.614C144.37 47.1373 144.242 46.5873 144.242 45.964C144.242 45.3407 144.367 44.7943 144.616 44.325C144.873 43.8483 145.228 43.4817 145.683 43.225C146.145 42.9683 146.673 42.84 147.267 42.84C147.839 42.84 148.349 42.9647 148.796 43.214C149.243 43.4633 149.592 43.8153 149.841 44.27C150.09 44.7173 150.215 45.2343 150.215 45.821ZM148.906 45.425C148.899 44.963 148.734 44.5927 148.411 44.314C148.088 44.0353 147.689 43.896 147.212 43.896C146.779 43.896 146.409 44.0353 146.101 44.314C145.793 44.5853 145.61 44.9557 145.551 45.425H148.906ZM155.769 43.962V47.317C155.769 47.5443 155.821 47.7093 155.923 47.812C156.033 47.9073 156.217 47.955 156.473 47.955H157.243V49H156.253C155.689 49 155.256 48.868 154.955 48.604C154.655 48.34 154.504 47.911 154.504 47.317V43.962H153.789V42.939H154.504V41.432H155.769V42.939H157.243V43.962H155.769ZM161.534 42.84C161.996 42.84 162.407 42.939 162.766 43.137C163.133 43.335 163.419 43.6283 163.624 44.017C163.837 44.4057 163.943 44.875 163.943 45.425V49H162.7V45.612C162.7 45.0693 162.565 44.655 162.293 44.369C162.022 44.0757 161.652 43.929 161.182 43.929C160.713 43.929 160.339 44.0757 160.06 44.369C159.789 44.655 159.653 45.0693 159.653 45.612V49H158.399V40.86H159.653V43.643C159.866 43.3863 160.134 43.1883 160.456 43.049C160.786 42.9097 161.146 42.84 161.534 42.84ZM166.181 42.136C165.953 42.136 165.763 42.059 165.609 41.905C165.455 41.751 165.378 41.5603 165.378 41.333C165.378 41.1057 165.455 40.915 165.609 40.761C165.763 40.607 165.953 40.53 166.181 40.53C166.401 40.53 166.588 40.607 166.742 40.761C166.896 40.915 166.973 41.1057 166.973 41.333C166.973 41.5603 166.896 41.751 166.742 41.905C166.588 42.059 166.401 42.136 166.181 42.136ZM166.797 42.939V49H165.543V42.939H166.797ZM170.643 49.099C170.166 49.099 169.737 49.0147 169.356 48.846C168.982 48.67 168.685 48.4353 168.465 48.142C168.245 47.8413 168.128 47.5077 168.113 47.141H169.411C169.433 47.3977 169.554 47.614 169.774 47.79C170.001 47.9587 170.284 48.043 170.621 48.043C170.973 48.043 171.244 47.977 171.435 47.845C171.633 47.7057 171.732 47.5297 171.732 47.317C171.732 47.0897 171.622 46.921 171.402 46.811C171.189 46.701 170.848 46.58 170.379 46.448C169.924 46.3233 169.554 46.2023 169.268 46.085C168.982 45.9677 168.733 45.788 168.52 45.546C168.315 45.304 168.212 44.985 168.212 44.589C168.212 44.2663 168.307 43.973 168.498 43.709C168.689 43.4377 168.96 43.225 169.312 43.071C169.671 42.917 170.082 42.84 170.544 42.84C171.233 42.84 171.787 43.016 172.205 43.368C172.63 43.7127 172.858 44.1857 172.887 44.787H171.633C171.611 44.5157 171.501 44.2993 171.303 44.138C171.105 43.9767 170.837 43.896 170.5 43.896C170.17 43.896 169.917 43.9583 169.741 44.083C169.565 44.2077 169.477 44.3727 169.477 44.578C169.477 44.7393 169.536 44.875 169.653 44.985C169.77 45.095 169.913 45.183 170.082 45.249C170.251 45.3077 170.5 45.3847 170.83 45.48C171.27 45.5973 171.629 45.7183 171.908 45.843C172.194 45.9603 172.44 46.1363 172.645 46.371C172.85 46.6057 172.957 46.9173 172.964 47.306C172.964 47.6507 172.869 47.9587 172.678 48.23C172.487 48.5013 172.216 48.714 171.864 48.868C171.519 49.022 171.112 49.099 170.643 49.099ZM177.815 42.136C177.587 42.136 177.397 42.059 177.243 41.905C177.089 41.751 177.012 41.5603 177.012 41.333C177.012 41.1057 177.089 40.915 177.243 40.761C177.397 40.607 177.587 40.53 177.815 40.53C178.035 40.53 178.222 40.607 178.376 40.761C178.53 40.915 178.607 41.1057 178.607 41.333C178.607 41.5603 178.53 41.751 178.376 41.905C178.222 42.059 178.035 42.136 177.815 42.136ZM178.431 42.939V49H177.177V42.939H178.431ZM181.54 43.962V47.317C181.54 47.5443 181.591 47.7093 181.694 47.812C181.804 47.9073 181.987 47.955 182.244 47.955H183.014V49H182.024C181.459 49 181.027 48.868 180.726 48.604C180.425 48.34 180.275 47.911 180.275 47.317V43.962H179.56V42.939H180.275V41.432H181.54V42.939H183.014V43.962H181.54ZM189.725 45.821C189.725 46.0483 189.71 46.2537 189.681 46.437H185.05C185.086 46.921 185.266 47.3097 185.589 47.603C185.911 47.8963 186.307 48.043 186.777 48.043C187.451 48.043 187.928 47.7607 188.207 47.196H189.56C189.376 47.7533 189.043 48.2117 188.559 48.571C188.082 48.923 187.488 49.099 186.777 49.099C186.197 49.099 185.677 48.9707 185.215 48.714C184.76 48.45 184.401 48.0833 184.137 47.614C183.88 47.1373 183.752 46.5873 183.752 45.964C183.752 45.3407 183.876 44.7943 184.126 44.325C184.382 43.8483 184.738 43.4817 185.193 43.225C185.655 42.9683 186.183 42.84 186.777 42.84C187.349 42.84 187.858 42.9647 188.306 43.214C188.753 43.4633 189.101 43.8153 189.351 44.27C189.6 44.7173 189.725 45.2343 189.725 45.821ZM188.416 45.425C188.408 44.963 188.243 44.5927 187.921 44.314C187.598 44.0353 187.198 43.896 186.722 43.896C186.289 43.896 185.919 44.0353 185.611 44.314C185.303 44.5853 185.119 44.9557 185.061 45.425H188.416ZM198.296 42.84C198.772 42.84 199.198 42.939 199.572 43.137C199.953 43.335 200.25 43.6283 200.463 44.017C200.683 44.4057 200.793 44.875 200.793 45.425V49H199.55V45.612C199.55 45.0693 199.414 44.655 199.143 44.369C198.871 44.0757 198.501 43.929 198.032 43.929C197.562 43.929 197.188 44.0757 196.91 44.369C196.638 44.655 196.503 45.0693 196.503 45.612V49H195.26V45.612C195.26 45.0693 195.124 44.655 194.853 44.369C194.581 44.0757 194.211 43.929 193.742 43.929C193.272 43.929 192.898 44.0757 192.62 44.369C192.348 44.655 192.213 45.0693 192.213 45.612V49H190.959V42.939H192.213V43.632C192.418 43.3827 192.678 43.1883 192.994 43.049C193.309 42.9097 193.646 42.84 194.006 42.84C194.49 42.84 194.922 42.9427 195.304 43.148C195.685 43.3533 195.978 43.6503 196.184 44.039C196.367 43.6723 196.653 43.3827 197.042 43.17C197.43 42.95 197.848 42.84 198.296 42.84ZM204.445 41.245C205.193 41.245 205.791 41.4503 206.238 41.861C206.693 42.2717 206.92 42.8327 206.92 43.544C206.92 44.2847 206.686 44.842 206.216 45.216C205.747 45.59 205.124 45.777 204.346 45.777L204.302 46.646H203.213L203.158 44.919H203.521C204.233 44.919 204.775 44.8237 205.149 44.633C205.531 44.4423 205.721 44.0793 205.721 43.544C205.721 43.1553 205.608 42.851 205.38 42.631C205.16 42.411 204.852 42.301 204.456 42.301C204.06 42.301 203.749 42.4073 203.521 42.62C203.294 42.8327 203.18 43.1297 203.18 43.511H202.003C202.003 43.071 202.102 42.6787 202.3 42.334C202.498 41.9893 202.781 41.7217 203.147 41.531C203.521 41.3403 203.954 41.245 204.445 41.245ZM203.741 49.077C203.514 49.077 203.323 49 203.169 48.846C203.015 48.692 202.938 48.5013 202.938 48.274C202.938 48.0467 203.015 47.856 203.169 47.702C203.323 47.548 203.514 47.471 203.741 47.471C203.961 47.471 204.148 47.548 204.302 47.702C204.456 47.856 204.533 48.0467 204.533 48.274C204.533 48.5013 204.456 48.692 204.302 48.846C204.148 49 203.961 49.077 203.741 49.077Z"></path>
<mask fill="white" id="path-4-inside-1_641_79">
<path d="M350 35C350 32.2386 352.239 30 355 30H455C457.761 30 460 32.2386 460 35V55C460 57.7614 457.761 60 455 60H355C352.239 60 350 57.7614 350 55V35Z"></path>
</mask>
<path fill-opacity="0.05" fill="white" d="M350 35C350 32.2386 352.239 30 355 30H455C457.761 30 460 32.2386 460 35V55C460 57.7614 457.761 60 455 60H355C352.239 60 350 57.7614 350 55V35Z"></path>
<path mask="url(#path-4-inside-1_641_79)" fill-opacity="0.05" fill="white" d="M350 35C350 31.6863 352.686 29 356 29H454C457.314 29 460 31.6863 460 35C460 32.7909 457.761 31 455 31H355C352.239 31 350 32.7909 350 35ZM460 60H350H460ZM350 60V30V60ZM460 30V60V30Z"></path>
<path fill="white" d="M401.827 41.355L399.297 46.228V49H398.043V46.228L395.502 41.355H396.899L398.67 45.106L400.441 41.355H401.827ZM408.378 45.821C408.378 46.0483 408.363 46.2537 408.334 46.437H403.703C403.739 46.921 403.919 47.3097 404.242 47.603C404.564 47.8963 404.96 48.043 405.43 48.043C406.104 48.043 406.581 47.7607 406.86 47.196H408.213C408.029 47.7533 407.696 48.2117 407.212 48.571C406.735 48.923 406.141 49.099 405.43 49.099C404.85 49.099 404.33 48.9707 403.868 48.714C403.413 48.45 403.054 48.0833 402.79 47.614C402.533 47.1373 402.405 46.5873 402.405 45.964C402.405 45.3407 402.529 44.7943 402.779 44.325C403.035 43.8483 403.391 43.4817 403.846 43.225C404.308 42.9683 404.836 42.84 405.43 42.84C406.002 42.84 406.511 42.9647 406.959 43.214C407.406 43.4633 407.754 43.8153 408.004 44.27C408.253 44.7173 408.378 45.2343 408.378 45.821ZM407.069 45.425C407.061 44.963 406.896 44.5927 406.574 44.314C406.251 44.0353 405.851 43.896 405.375 43.896C404.942 43.896 404.572 44.0353 404.264 44.314C403.956 44.5853 403.772 44.9557 403.714 45.425H407.069ZM411.812 49.099C411.335 49.099 410.906 49.0147 410.525 48.846C410.151 48.67 409.854 48.4353 409.634 48.142C409.414 47.8413 409.296 47.5077 409.282 47.141H410.58C410.602 47.3977 410.723 47.614 410.943 47.79C411.17 47.9587 411.452 48.043 411.79 48.043C412.142 48.043 412.413 47.977 412.604 47.845C412.802 47.7057 412.901 47.5297 412.901 47.317C412.901 47.0897 412.791 46.921 412.571 46.811C412.358 46.701 412.017 46.58 411.548 46.448C411.093 46.3233 410.723 46.2023 410.437 46.085C410.151 45.9677 409.901 45.788 409.689 45.546C409.483 45.304 409.381 44.985 409.381 44.589C409.381 44.2663 409.476 43.973 409.667 43.709C409.857 43.4377 410.129 43.225 410.481 43.071C410.84 42.917 411.251 42.84 411.713 42.84C412.402 42.84 412.956 43.016 413.374 43.368C413.799 43.7127 414.026 44.1857 414.056 44.787H412.802C412.78 44.5157 412.67 44.2993 412.472 44.138C412.274 43.9767 412.006 43.896 411.669 43.896C411.339 43.896 411.086 43.9583 410.91 44.083C410.734 44.2077 410.646 44.3727 410.646 44.578C410.646 44.7393 410.704 44.875 410.822 44.985C410.939 45.095 411.082 45.183 411.251 45.249C411.419 45.3077 411.669 45.3847 411.999 45.48C412.439 45.5973 412.798 45.7183 413.077 45.843C413.363 45.9603 413.608 46.1363 413.814 46.371C414.019 46.6057 414.125 46.9173 414.133 47.306C414.133 47.6507 414.037 47.9587 413.847 48.23C413.656 48.5013 413.385 48.714 413.033 48.868C412.688 49.022 412.281 49.099 411.812 49.099Z"></path>
<mask fill="white" id="path-7-inside-2_641_79">
<path d="M230 35C230 32.2386 232.239 30 235 30H335C337.761 30 340 32.2386 340 35V55C340 57.7614 337.761 60 335 60H235C232.239 60 230 57.7614 230 55V35Z"></path>
</mask>
<path fill-opacity="0.05" fill="white" d="M230 35C230 32.2386 232.239 30 235 30H335C337.761 30 340 32.2386 340 35V55C340 57.7614 337.761 60 335 60H235C232.239 60 230 57.7614 230 55V35Z"></path>
<path mask="url(#path-7-inside-2_641_79)" fill-opacity="0.05" fill="white" d="M230 35C230 31.6863 232.686 29 236 29H334C337.314 29 340 31.6863 340 35C340 32.7909 337.761 31 335 31H235C232.239 31 230 32.7909 230 35ZM340 60H230H340ZM230 60V30V60ZM340 30V60V30Z"></path>
<path fill="white" d="M284.635 49H283.381L279.608 43.291V49H278.354V41.344H279.608L283.381 47.042V41.344H284.635V49ZM288.911 49.099C288.339 49.099 287.822 48.9707 287.36 48.714C286.898 48.45 286.535 48.0833 286.271 47.614C286.007 47.1373 285.875 46.5873 285.875 45.964C285.875 45.348 286.01 44.8017 286.282 44.325C286.553 43.8483 286.923 43.4817 287.393 43.225C287.862 42.9683 288.386 42.84 288.966 42.84C289.545 42.84 290.069 42.9683 290.539 43.225C291.008 43.4817 291.378 43.8483 291.65 44.325C291.921 44.8017 292.057 45.348 292.057 45.964C292.057 46.58 291.917 47.1263 291.639 47.603C291.36 48.0797 290.979 48.45 290.495 48.714C290.018 48.9707 289.49 49.099 288.911 49.099ZM288.911 48.01C289.233 48.01 289.534 47.933 289.813 47.779C290.099 47.625 290.33 47.394 290.506 47.086C290.682 46.778 290.77 46.404 290.77 45.964C290.77 45.524 290.685 45.1537 290.517 44.853C290.348 44.545 290.124 44.314 289.846 44.16C289.567 44.006 289.266 43.929 288.944 43.929C288.621 43.929 288.32 44.006 288.042 44.16C287.77 44.314 287.554 44.545 287.393 44.853C287.231 45.1537 287.151 45.524 287.151 45.964C287.151 46.6167 287.316 47.1227 287.646 47.482C287.983 47.834 288.405 48.01 288.911 48.01Z"></path>
</svg>
