<svg xmlns="http://www.w3.org/2000/svg" fill="none" viewBox="0 0 44 24" height="24" width="44">
<path fill-opacity="0.5" fill="#FF0000" d="M2 12C2 6.47715 6.47715 2 12 2H32C37.5228 2 42 6.47715 42 12V12C42 17.5228 37.5228 22 32 22H12C6.47715 22 2 17.5228 2 12V12Z"></path>
<path stroke-width="2" stroke-opacity="0.2" stroke="#FF0000" d="M32 1H12C5.92487 1 1 5.92487 1 12C1 18.0751 5.92487 23 12 23H32C38.0751 23 43 18.0751 43 12C43 5.92487 38.0751 1 32 1Z"></path>
<path fill="white" d="M16.6103 8.5V7.252H19.1063V16H17.7263V8.5H16.6103ZM26.6256 8.428H22.6056V10.816C22.7736 10.592 23.0216 10.404 23.3496 10.252C23.6856 10.1 24.0416 10.024 24.4176 10.024C25.0896 10.024 25.6336 10.168 26.0496 10.456C26.4736 10.744 26.7736 11.108 26.9496 11.548C27.1336 11.988 27.2256 12.452 27.2256 12.94C27.2256 13.532 27.1096 14.06 26.8776 14.524C26.6536 14.98 26.3136 15.34 25.8576 15.604C25.4096 15.868 24.8576 16 24.2016 16C23.3296 16 22.6296 15.784 22.1016 15.352C21.5736 14.92 21.2576 14.348 21.1536 13.636H22.4856C22.5736 14.012 22.7696 14.312 23.0736 14.536C23.3776 14.752 23.7576 14.86 24.2136 14.86C24.7816 14.86 25.2056 14.688 25.4856 14.344C25.7736 14 25.9176 13.544 25.9176 12.976C25.9176 12.4 25.7736 11.96 25.4856 11.656C25.1976 11.344 24.7736 11.188 24.2136 11.188C23.8216 11.188 23.4896 11.288 23.2176 11.488C22.9536 11.68 22.7616 11.944 22.6416 12.28H21.3456V7.228H26.6256V8.428Z"></path>
</svg>
