<svg xmlns="http://www.w3.org/2000/svg" fill="none" viewBox="0 0 240 90" height="90" width="240">
<path fill-opacity="0.9" fill="#1A1A1A" d="M55 30C55 24.4772 59.4772 20 65 20H175C180.523 20 185 24.4772 185 30V60C185 65.5229 180.523 70 175 70H65C59.4772 70 55 65.5229 55 60V30Z"></path>
<path stroke-width="2" stroke-opacity="0.2" stroke="white" d="M65 19C58.9249 19 54 23.9249 54 30V60C54 66.0751 58.9249 71 65 71H175C181.075 71 186 66.0751 186 60V30C186 23.9249 181.075 19 175 19H65Z"></path>
<path fill="white" d="M108.624 40.66C109.512 40.66 110.288 40.832 110.952 41.176C111.624 41.512 112.14 42 112.5 42.64C112.868 43.272 113.052 44.012 113.052 44.86C113.052 45.708 112.868 46.444 112.5 47.068C112.14 47.692 111.624 48.172 110.952 48.508C110.288 48.836 109.512 49 108.624 49H105.9V40.66H108.624ZM108.624 47.884C109.6 47.884 110.348 47.62 110.868 47.092C111.388 46.564 111.648 45.82 111.648 44.86C111.648 43.892 111.388 43.136 110.868 42.592C110.348 42.048 109.6 41.776 108.624 41.776H107.268V47.884H108.624ZM120.468 45.532C120.468 45.78 120.452 46.004 120.42 46.204H115.368C115.408 46.732 115.604 47.156 115.956 47.476C116.308 47.796 116.74 47.956 117.252 47.956C117.988 47.956 118.508 47.648 118.812 47.032H120.288C120.088 47.64 119.724 48.14 119.196 48.532C118.676 48.916 118.028 49.108 117.252 49.108C116.62 49.108 116.052 48.968 115.548 48.688C115.052 48.4 114.66 48 114.372 47.488C114.092 46.968 113.952 46.368 113.952 45.688C113.952 45.008 114.088 44.412 114.36 43.9C114.64 43.38 115.028 42.98 115.524 42.7C116.028 42.42 116.604 42.28 117.252 42.28C117.876 42.28 118.432 42.416 118.92 42.688C119.408 42.96 119.788 43.344 120.06 43.84C120.332 44.328 120.468 44.892 120.468 45.532ZM119.04 45.1C119.032 44.596 118.852 44.192 118.5 43.888C118.148 43.584 117.712 43.432 117.192 43.432C116.72 43.432 116.316 43.584 115.98 43.888C115.644 44.184 115.444 44.588 115.38 45.1H119.04ZM124.37 47.776L126.242 42.388H127.694L125.174 49H123.542L121.034 42.388H122.498L124.37 47.776ZM134.788 45.532C134.788 45.78 134.772 46.004 134.74 46.204H129.688C129.728 46.732 129.924 47.156 130.276 47.476C130.628 47.796 131.06 47.956 131.572 47.956C132.308 47.956 132.828 47.648 133.132 47.032H134.608C134.408 47.64 134.044 48.14 133.516 48.532C132.996 48.916 132.348 49.108 131.572 49.108C130.94 49.108 130.372 48.968 129.868 48.688C129.372 48.4 128.98 48 128.692 47.488C128.412 46.968 128.272 46.368 128.272 45.688C128.272 45.008 128.408 44.412 128.68 43.9C128.96 43.38 129.348 42.98 129.844 42.7C130.348 42.42 130.924 42.28 131.572 42.28C132.196 42.28 132.752 42.416 133.24 42.688C133.728 42.96 134.108 43.344 134.38 43.84C134.652 44.328 134.788 44.892 134.788 45.532ZM133.36 45.1C133.352 44.596 133.172 44.192 132.82 43.888C132.468 43.584 132.032 43.432 131.512 43.432C131.04 43.432 130.636 43.584 130.3 43.888C129.964 44.184 129.764 44.588 129.7 45.1H133.36ZM137.502 40.12V49H136.134V40.12H137.502ZM142.166 49.108C141.542 49.108 140.978 48.968 140.474 48.688C139.97 48.4 139.574 48 139.286 47.488C138.998 46.968 138.854 46.368 138.854 45.688C138.854 45.016 139.002 44.42 139.298 43.9C139.594 43.38 139.998 42.98 140.51 42.7C141.022 42.42 141.594 42.28 142.226 42.28C142.858 42.28 143.43 42.42 143.942 42.7C144.454 42.98 144.858 43.38 145.154 43.9C145.45 44.42 145.598 45.016 145.598 45.688C145.598 46.36 145.446 46.956 145.142 47.476C144.838 47.996 144.422 48.4 143.894 48.688C143.374 48.968 142.798 49.108 142.166 49.108ZM142.166 47.92C142.518 47.92 142.846 47.836 143.15 47.668C143.462 47.5 143.714 47.248 143.906 46.912C144.098 46.576 144.194 46.168 144.194 45.688C144.194 45.208 144.102 44.804 143.918 44.476C143.734 44.14 143.49 43.888 143.186 43.72C142.882 43.552 142.554 43.468 142.202 43.468C141.85 43.468 141.522 43.552 141.218 43.72C140.922 43.888 140.686 44.14 140.51 44.476C140.334 44.804 140.246 45.208 140.246 45.688C140.246 46.4 140.426 46.952 140.786 47.344C141.154 47.728 141.614 47.92 142.166 47.92ZM148.319 43.36C148.551 43.056 148.867 42.8 149.267 42.592C149.667 42.384 150.119 42.28 150.623 42.28C151.199 42.28 151.723 42.424 152.195 42.712C152.675 42.992 153.051 43.388 153.323 43.9C153.595 44.412 153.731 45 153.731 45.664C153.731 46.328 153.595 46.924 153.323 47.452C153.051 47.972 152.675 48.38 152.195 48.676C151.723 48.964 151.199 49.108 150.623 49.108C150.119 49.108 149.671 49.008 149.279 48.808C148.887 48.6 148.567 48.344 148.319 48.04V52.144H146.951V42.388H148.319V43.36ZM152.339 45.664C152.339 45.208 152.243 44.816 152.051 44.488C151.867 44.152 151.619 43.9 151.307 43.732C151.003 43.556 150.675 43.468 150.323 43.468C149.979 43.468 149.651 43.556 149.339 43.732C149.035 43.908 148.787 44.164 148.595 44.5C148.411 44.836 148.319 45.232 148.319 45.688C148.319 46.144 148.411 46.544 148.595 46.888C148.787 47.224 149.035 47.48 149.339 47.656C149.651 47.832 149.979 47.92 150.323 47.92C150.675 47.92 151.003 47.832 151.307 47.656C151.619 47.472 151.867 47.208 152.051 46.864C152.243 46.52 152.339 46.12 152.339 45.664ZM161.144 45.532C161.144 45.78 161.128 46.004 161.096 46.204H156.044C156.084 46.732 156.28 47.156 156.632 47.476C156.984 47.796 157.416 47.956 157.928 47.956C158.664 47.956 159.184 47.648 159.488 47.032H160.964C160.764 47.64 160.4 48.14 159.872 48.532C159.352 48.916 158.704 49.108 157.928 49.108C157.296 49.108 156.728 48.968 156.224 48.688C155.728 48.4 155.336 48 155.048 47.488C154.768 46.968 154.628 46.368 154.628 45.688C154.628 45.008 154.764 44.412 155.036 43.9C155.316 43.38 155.704 42.98 156.2 42.7C156.704 42.42 157.28 42.28 157.928 42.28C158.552 42.28 159.108 42.416 159.596 42.688C160.084 42.96 160.464 43.344 160.736 43.84C161.008 44.328 161.144 44.892 161.144 45.532ZM159.716 45.1C159.708 44.596 159.528 44.192 159.176 43.888C158.824 43.584 158.388 43.432 157.868 43.432C157.396 43.432 156.992 43.584 156.656 43.888C156.32 44.184 156.12 44.588 156.056 45.1H159.716ZM163.858 43.348C164.058 43.012 164.322 42.752 164.65 42.568C164.986 42.376 165.382 42.28 165.838 42.28V43.696H165.49C164.954 43.696 164.546 43.832 164.266 44.104C163.994 44.376 163.858 44.848 163.858 45.52V49H162.49V42.388H163.858V43.348Z"></path>
<path stroke-linecap="round" stroke-width="3" stroke-opacity="0.5" stroke="white" d="M84.25 39.25V46.125C84.25 48.5412 82.2913 50.5 79.875 50.5V50.5C77.4588 50.5 75.5 48.5412 75.5 46.125V46.125"></path>
<path stroke-linecap="round" stroke-width="3" stroke="white" d="M84.25 46.125V46.125C84.25 48.5412 82.2913 50.5 79.875 50.5V50.5C77.4588 50.5 75.5 48.5412 75.5 46.125V46.125"></path>
</svg>
