<svg xmlns="http://www.w3.org/2000/svg" fill="none" viewBox="0 0 260 160" height="160" width="260">
<path fill-opacity="0.9" fill="#1B1B1B" d="M20 30C20 24.4772 24.4772 20 30 20H230C235.523 20 240 24.4772 240 30V110C240 115.523 235.523 120 230 120H30C24.4772 120 20 115.523 20 110V30Z"></path>
<path stroke-width="2" stroke-opacity="0.2" stroke="white" d="M30 19C23.9249 19 19 23.9249 19 30V110C19 116.075 23.9249 121 30 121H230C236.075 121 241 116.075 241 110V30C241 23.9249 236.075 19 230 19H30Z"></path>
<path fill="white" d="M72.268 41.764V44.212H75.148V45.328H72.268V47.884H75.508V49H70.9V40.648H75.508V41.764H72.268ZM80.025 45.652L82.161 49H80.613L79.185 46.756L77.841 49H76.413L78.549 45.748L76.413 42.388H77.961L79.389 44.632L80.733 42.388H82.161L80.025 45.652ZM84.5493 43.36C84.7813 43.056 85.0973 42.8 85.4973 42.592C85.8973 42.384 86.3493 42.28 86.8533 42.28C87.4293 42.28 87.9533 42.424 88.4253 42.712C88.9053 42.992 89.2813 43.388 89.5533 43.9C89.8253 44.412 89.9613 45 89.9613 45.664C89.9613 46.328 89.8253 46.924 89.5533 47.452C89.2813 47.972 88.9053 48.38 88.4253 48.676C87.9533 48.964 87.4293 49.108 86.8533 49.108C86.3493 49.108 85.9013 49.008 85.5093 48.808C85.1173 48.6 84.7973 48.344 84.5493 48.04V52.144H83.1813V42.388H84.5493V43.36ZM88.5693 45.664C88.5693 45.208 88.4733 44.816 88.2812 44.488C88.0973 44.152 87.8493 43.9 87.5373 43.732C87.2333 43.556 86.9053 43.468 86.5533 43.468C86.2093 43.468 85.8813 43.556 85.5693 43.732C85.2653 43.908 85.0173 44.164 84.8253 44.5C84.6413 44.836 84.5493 45.232 84.5493 45.688C84.5493 46.144 84.6413 46.544 84.8253 46.888C85.0173 47.224 85.2653 47.48 85.5693 47.656C85.8813 47.832 86.2093 47.92 86.5533 47.92C86.9053 47.92 87.2333 47.832 87.5373 47.656C87.8493 47.472 88.0973 47.208 88.2812 46.864C88.4733 46.52 88.5693 46.12 88.5693 45.664ZM92.6821 40.12V49H91.3141V40.12H92.6821ZM97.3461 49.108C96.7221 49.108 96.1581 48.968 95.6541 48.688C95.1501 48.4 94.7541 48 94.4661 47.488C94.1781 46.968 94.0341 46.368 94.0341 45.688C94.0341 45.016 94.1821 44.42 94.4781 43.9C94.7741 43.38 95.1781 42.98 95.6901 42.7C96.2021 42.42 96.7741 42.28 97.4061 42.28C98.0381 42.28 98.6101 42.42 99.1221 42.7C99.6341 42.98 100.038 43.38 100.334 43.9C100.63 44.42 100.778 45.016 100.778 45.688C100.778 46.36 100.626 46.956 100.322 47.476C100.018 47.996 99.6021 48.4 99.0741 48.688C98.5541 48.968 97.9781 49.108 97.3461 49.108ZM97.3461 47.92C97.6981 47.92 98.0261 47.836 98.3301 47.668C98.6421 47.5 98.8941 47.248 99.0861 46.912C99.2781 46.576 99.3741 46.168 99.3741 45.688C99.3741 45.208 99.2821 44.804 99.0981 44.476C98.9141 44.14 98.6701 43.888 98.3661 43.72C98.0621 43.552 97.7341 43.468 97.3821 43.468C97.0301 43.468 96.7021 43.552 96.3981 43.72C96.1021 43.888 95.8661 44.14 95.6901 44.476C95.5141 44.804 95.4261 45.208 95.4261 45.688C95.4261 46.4 95.6061 46.952 95.9661 47.344C96.3341 47.728 96.7941 47.92 97.3461 47.92ZM103.498 43.348C103.698 43.012 103.962 42.752 104.29 42.568C104.626 42.376 105.022 42.28 105.478 42.28V43.696H105.13C104.594 43.696 104.186 43.832 103.906 44.104C103.634 44.376 103.498 44.848 103.498 45.52V49H102.13V42.388H103.498V43.348ZM112.796 45.532C112.796 45.78 112.78 46.004 112.748 46.204H107.696C107.736 46.732 107.932 47.156 108.284 47.476C108.636 47.796 109.068 47.956 109.58 47.956C110.316 47.956 110.836 47.648 111.14 47.032H112.616C112.416 47.64 112.052 48.14 111.524 48.532C111.004 48.916 110.356 49.108 109.58 49.108C108.948 49.108 108.38 48.968 107.876 48.688C107.38 48.4 106.988 48 106.7 47.488C106.42 46.968 106.28 46.368 106.28 45.688C106.28 45.008 106.416 44.412 106.688 43.9C106.968 43.38 107.356 42.98 107.852 42.7C108.356 42.42 108.932 42.28 109.58 42.28C110.204 42.28 110.76 42.416 111.248 42.688C111.736 42.96 112.116 43.344 112.388 43.84C112.66 44.328 112.796 44.892 112.796 45.532ZM111.368 45.1C111.36 44.596 111.18 44.192 110.828 43.888C110.476 43.584 110.04 43.432 109.52 43.432C109.048 43.432 108.644 43.584 108.308 43.888C107.972 44.184 107.772 44.588 107.708 45.1H111.368ZM115.51 43.348C115.71 43.012 115.974 42.752 116.302 42.568C116.638 42.376 117.034 42.28 117.49 42.28V43.696H117.142C116.606 43.696 116.198 43.832 115.918 44.104C115.646 44.376 115.51 44.848 115.51 45.52V49H114.142V42.388H115.51V43.348Z"></path>
<path fill="#BEBEBE" d="M42.068 74.355V79.228C42.068 79.8073 42.2183 80.2437 42.519 80.537C42.827 80.8303 43.2523 80.977 43.795 80.977C44.345 80.977 44.7703 80.8303 45.071 80.537C45.379 80.2437 45.533 79.8073 45.533 79.228V74.355H46.787V79.206C46.787 79.8293 46.6513 80.3573 46.38 80.79C46.1087 81.2227 45.7457 81.5453 45.291 81.758C44.8363 81.9707 44.334 82.077 43.784 82.077C43.234 82.077 42.7317 81.9707 42.277 81.758C41.8297 81.5453 41.474 81.2227 41.21 80.79C40.946 80.3573 40.814 79.8293 40.814 79.206V74.355H42.068ZM51.4777 75.84C51.9544 75.84 52.3797 75.939 52.7537 76.137C53.1351 76.335 53.4321 76.6283 53.6447 77.017C53.8574 77.4057 53.9637 77.875 53.9637 78.425V82H52.7207V78.612C52.7207 78.0693 52.5851 77.655 52.3137 77.369C52.0424 77.0757 51.6721 76.929 51.2027 76.929C50.7334 76.929 50.3594 77.0757 50.0807 77.369C49.8094 77.655 49.6737 78.0693 49.6737 78.612V82H48.4197V75.939H49.6737V76.632C49.8791 76.3827 50.1394 76.1883 50.4547 76.049C50.7774 75.9097 51.1184 75.84 51.4777 75.84ZM55.1453 78.942C55.1453 78.3333 55.2699 77.7943 55.5193 77.325C55.7759 76.8557 56.1206 76.4927 56.5533 76.236C56.9933 75.972 57.4773 75.84 58.0053 75.84C58.4819 75.84 58.8963 75.9353 59.2483 76.126C59.6076 76.3093 59.8936 76.5403 60.1063 76.819V75.939H61.3713V82H60.1063V81.098C59.8936 81.384 59.6039 81.6223 59.2373 81.813C58.8706 82.0037 58.4526 82.099 57.9833 82.099C57.4626 82.099 56.9859 81.967 56.5533 81.703C56.1206 81.4317 55.7759 81.0577 55.5193 80.581C55.2699 80.097 55.1453 79.5507 55.1453 78.942ZM60.1063 78.964C60.1063 78.546 60.0183 78.183 59.8423 77.875C59.6736 77.567 59.4499 77.3323 59.1713 77.171C58.8926 77.0097 58.5919 76.929 58.2693 76.929C57.9466 76.929 57.6459 77.0097 57.3673 77.171C57.0886 77.325 56.8613 77.556 56.6853 77.864C56.5166 78.1647 56.4323 78.524 56.4323 78.942C56.4323 79.36 56.5166 79.7267 56.6853 80.042C56.8613 80.3573 57.0886 80.5993 57.3673 80.768C57.6533 80.9293 57.9539 81.01 58.2693 81.01C58.5919 81.01 58.8926 80.9293 59.1713 80.768C59.4499 80.6067 59.6736 80.372 59.8423 80.064C60.0183 79.7487 60.1063 79.382 60.1063 78.964ZM64.2724 76.841C64.485 76.5477 64.7747 76.3093 65.1414 76.126C65.5154 75.9353 65.9297 75.84 66.3844 75.84C66.9197 75.84 67.4037 75.9683 67.8364 76.225C68.269 76.4817 68.61 76.8483 68.8594 77.325C69.1087 77.7943 69.2334 78.3333 69.2334 78.942C69.2334 79.5507 69.1087 80.097 68.8594 80.581C68.61 81.0577 68.2654 81.4317 67.8254 81.703C67.3927 81.967 66.9124 82.099 66.3844 82.099C65.915 82.099 65.497 82.0073 65.1304 81.824C64.771 81.6407 64.485 81.406 64.2724 81.12V82H63.0184V73.86H64.2724V76.841ZM67.9574 78.942C67.9574 78.524 67.8694 78.1647 67.6934 77.864C67.5247 77.556 67.2974 77.325 67.0114 77.171C66.7327 77.0097 66.432 76.929 66.1094 76.929C65.794 76.929 65.4934 77.0097 65.2074 77.171C64.9287 77.3323 64.7014 77.567 64.5254 77.875C64.3567 78.183 64.2724 78.546 64.2724 78.964C64.2724 79.382 64.3567 79.7487 64.5254 80.064C64.7014 80.372 64.9287 80.6067 65.2074 80.768C65.4934 80.9293 65.794 81.01 66.1094 81.01C66.432 81.01 66.7327 80.9293 67.0114 80.768C67.2974 80.5993 67.5247 80.3573 67.6934 80.042C67.8694 79.7267 67.9574 79.36 67.9574 78.942ZM71.7274 73.86V82H70.4734V73.86H71.7274ZM78.9288 78.821C78.9288 79.0483 78.9142 79.2537 78.8848 79.437H74.2538C74.2905 79.921 74.4702 80.3097 74.7928 80.603C75.1155 80.8963 75.5115 81.043 75.9808 81.043C76.6555 81.043 77.1322 80.7607 77.4108 80.196H78.7638C78.5805 80.7533 78.2468 81.2117 77.7628 81.571C77.2862 81.923 76.6922 82.099 75.9808 82.099C75.4015 82.099 74.8808 81.9707 74.4188 81.714C73.9642 81.45 73.6048 81.0833 73.3408 80.614C73.0842 80.1373 72.9558 79.5873 72.9558 78.964C72.9558 78.3407 73.0805 77.7943 73.3298 77.325C73.5865 76.8483 73.9422 76.4817 74.3968 76.225C74.8588 75.9683 75.3868 75.84 75.9808 75.84C76.5528 75.84 77.0625 75.9647 77.5098 76.214C77.9572 76.4633 78.3055 76.8153 78.5548 77.27C78.8042 77.7173 78.9288 78.2343 78.9288 78.821ZM77.6198 78.425C77.6125 77.963 77.4475 77.5927 77.1248 77.314C76.8022 77.0353 76.4025 76.896 75.9258 76.896C75.4932 76.896 75.1228 77.0353 74.8148 77.314C74.5068 77.5853 74.3235 77.9557 74.2648 78.425H77.6198ZM84.4833 76.962V80.317C84.4833 80.5443 84.5346 80.7093 84.6373 80.812C84.7473 80.9073 84.9306 80.955 85.1873 80.955H85.9573V82H84.9673C84.4026 82 83.97 81.868 83.6693 81.604C83.3686 81.34 83.2183 80.911 83.2183 80.317V76.962H82.5033V75.939H83.2183V74.432H84.4833V75.939H85.9573V76.962H84.4833ZM89.7421 82.099C89.1701 82.099 88.6531 81.9707 88.1911 81.714C87.7291 81.45 87.3661 81.0833 87.1021 80.614C86.8381 80.1373 86.7061 79.5873 86.7061 78.964C86.7061 78.348 86.8418 77.8017 87.1131 77.325C87.3844 76.8483 87.7548 76.4817 88.2241 76.225C88.6934 75.9683 89.2178 75.84 89.7971 75.84C90.3764 75.84 90.9008 75.9683 91.3701 76.225C91.8394 76.4817 92.2098 76.8483 92.4811 77.325C92.7524 77.8017 92.8881 78.348 92.8881 78.964C92.8881 79.58 92.7488 80.1263 92.4701 80.603C92.1914 81.0797 91.8101 81.45 91.3261 81.714C90.8494 81.9707 90.3214 82.099 89.7421 82.099ZM89.7421 81.01C90.0648 81.01 90.3654 80.933 90.6441 80.779C90.9301 80.625 91.1611 80.394 91.3371 80.086C91.5131 79.778 91.6011 79.404 91.6011 78.964C91.6011 78.524 91.5168 78.1537 91.3481 77.853C91.1794 77.545 90.9558 77.314 90.6771 77.16C90.3984 77.006 90.0978 76.929 89.7751 76.929C89.4524 76.929 89.1518 77.006 88.8731 77.16C88.6018 77.314 88.3854 77.545 88.2241 77.853C88.0628 78.1537 87.9821 78.524 87.9821 78.964C87.9821 79.6167 88.1471 80.1227 88.4771 80.482C88.8144 80.834 89.2361 81.01 89.7421 81.01ZM99.1852 82.099C98.7085 82.099 98.2795 82.0147 97.8982 81.846C97.5242 81.67 97.2272 81.4353 97.0072 81.142C96.7872 80.8413 96.6698 80.5077 96.6552 80.141H97.9532C97.9752 80.3977 98.0962 80.614 98.3162 80.79C98.5435 80.9587 98.8258 81.043 99.1632 81.043C99.5152 81.043 99.7865 80.977 99.9772 80.845C100.175 80.7057 100.274 80.5297 100.274 80.317C100.274 80.0897 100.164 79.921 99.9442 79.811C99.7315 79.701 99.3905 79.58 98.9212 79.448C98.4665 79.3233 98.0962 79.2023 97.8102 79.085C97.5242 78.9677 97.2748 78.788 97.0622 78.546C96.8568 78.304 96.7542 77.985 96.7542 77.589C96.7542 77.2663 96.8495 76.973 97.0402 76.709C97.2308 76.4377 97.5022 76.225 97.8542 76.071C98.2135 75.917 98.6242 75.84 99.0862 75.84C99.7755 75.84 100.329 76.016 100.747 76.368C101.172 76.7127 101.4 77.1857 101.429 77.787H100.175C100.153 77.5157 100.043 77.2993 99.8452 77.138C99.6472 76.9767 99.3795 76.896 99.0422 76.896C98.7122 76.896 98.4592 76.9583 98.2832 77.083C98.1072 77.2077 98.0192 77.3727 98.0192 77.578C98.0192 77.7393 98.0778 77.875 98.1952 77.985C98.3125 78.095 98.4555 78.183 98.6242 78.249C98.7928 78.3077 99.0422 78.3847 99.3722 78.48C99.8122 78.5973 100.171 78.7183 100.45 78.843C100.736 78.9603 100.982 79.1363 101.187 79.371C101.392 79.6057 101.499 79.9173 101.506 80.306C101.506 80.6507 101.411 80.9587 101.22 81.23C101.029 81.5013 100.758 81.714 100.406 81.868C100.061 82.022 99.6545 82.099 99.1852 82.099ZM102.443 78.942C102.443 78.3333 102.568 77.7943 102.817 77.325C103.074 76.8557 103.418 76.4927 103.851 76.236C104.291 75.972 104.775 75.84 105.303 75.84C105.78 75.84 106.194 75.9353 106.546 76.126C106.905 76.3093 107.191 76.5403 107.404 76.819V75.939H108.669V82H107.404V81.098C107.191 81.384 106.902 81.6223 106.535 81.813C106.168 82.0037 105.75 82.099 105.281 82.099C104.76 82.099 104.284 81.967 103.851 81.703C103.418 81.4317 103.074 81.0577 102.817 80.581C102.568 80.097 102.443 79.5507 102.443 78.942ZM107.404 78.964C107.404 78.546 107.316 78.183 107.14 77.875C106.971 77.567 106.748 77.3323 106.469 77.171C106.19 77.0097 105.89 76.929 105.567 76.929C105.244 76.929 104.944 77.0097 104.665 77.171C104.386 77.325 104.159 77.556 103.983 77.864C103.814 78.1647 103.73 78.524 103.73 78.942C103.73 79.36 103.814 79.7267 103.983 80.042C104.159 80.3573 104.386 80.5993 104.665 80.768C104.951 80.9293 105.252 81.01 105.567 81.01C105.89 81.01 106.19 80.9293 106.469 80.768C106.748 80.6067 106.971 80.372 107.14 80.064C107.316 79.7487 107.404 79.382 107.404 78.964ZM112.659 80.878L114.375 75.939H115.706L113.396 82H111.9L109.601 75.939H110.943L112.659 80.878ZM122.209 78.821C122.209 79.0483 122.194 79.2537 122.165 79.437H117.534C117.571 79.921 117.75 80.3097 118.073 80.603C118.396 80.8963 118.792 81.043 119.261 81.043C119.936 81.043 120.412 80.7607 120.691 80.196H122.044C121.861 80.7533 121.527 81.2117 121.043 81.571C120.566 81.923 119.972 82.099 119.261 82.099C118.682 82.099 118.161 81.9707 117.699 81.714C117.244 81.45 116.885 81.0833 116.621 80.614C116.364 80.1373 116.236 79.5873 116.236 78.964C116.236 78.3407 116.361 77.7943 116.61 77.325C116.867 76.8483 117.222 76.4817 117.677 76.225C118.139 75.9683 118.667 75.84 119.261 75.84C119.833 75.84 120.343 75.9647 120.79 76.214C121.237 76.4633 121.586 76.8153 121.835 77.27C122.084 77.7173 122.209 78.2343 122.209 78.821ZM120.9 78.425C120.893 77.963 120.728 77.5927 120.405 77.314C120.082 77.0353 119.683 76.896 119.206 76.896C118.773 76.896 118.403 77.0353 118.095 77.314C117.787 77.5853 117.604 77.9557 117.545 78.425H120.9ZM127.764 76.962V80.317C127.764 80.5443 127.815 80.7093 127.918 80.812C128.028 80.9073 128.211 80.955 128.468 80.955H129.238V82H128.248C127.683 82 127.25 81.868 126.95 81.604C126.649 81.34 126.499 80.911 126.499 80.317V76.962H125.784V75.939H126.499V74.432H127.764V75.939H129.238V76.962H127.764ZM133.528 75.84C133.99 75.84 134.401 75.939 134.76 76.137C135.127 76.335 135.413 76.6283 135.618 77.017C135.831 77.4057 135.937 77.875 135.937 78.425V82H134.694V78.612C134.694 78.0693 134.559 77.655 134.287 77.369C134.016 77.0757 133.646 76.929 133.176 76.929C132.707 76.929 132.333 77.0757 132.054 77.369C131.783 77.655 131.647 78.0693 131.647 78.612V82H130.393V73.86H131.647V76.643C131.86 76.3863 132.128 76.1883 132.45 76.049C132.78 75.9097 133.14 75.84 133.528 75.84ZM143.092 78.821C143.092 79.0483 143.077 79.2537 143.048 79.437H138.417C138.454 79.921 138.633 80.3097 138.956 80.603C139.279 80.8963 139.675 81.043 140.144 81.043C140.819 81.043 141.295 80.7607 141.574 80.196H142.927C142.744 80.7533 142.41 81.2117 141.926 81.571C141.449 81.923 140.855 82.099 140.144 82.099C139.565 82.099 139.044 81.9707 138.582 81.714C138.127 81.45 137.768 81.0833 137.504 80.614C137.247 80.1373 137.119 79.5873 137.119 78.964C137.119 78.3407 137.244 77.7943 137.493 77.325C137.75 76.8483 138.105 76.4817 138.56 76.225C139.022 75.9683 139.55 75.84 140.144 75.84C140.716 75.84 141.226 75.9647 141.673 76.214C142.12 76.4633 142.469 76.8153 142.718 77.27C142.967 77.7173 143.092 78.2343 143.092 78.821ZM141.783 78.425C141.776 77.963 141.611 77.5927 141.288 77.314C140.965 77.0353 140.566 76.896 140.089 76.896C139.656 76.896 139.286 77.0353 138.978 77.314C138.67 77.5853 138.487 77.9557 138.428 78.425H141.783ZM149.724 76.962H148.602V82H147.337V76.962H146.622V75.939H147.337V75.51C147.337 74.8133 147.521 74.3073 147.887 73.992C148.261 73.6693 148.844 73.508 149.636 73.508V74.553C149.255 74.553 148.987 74.6263 148.833 74.773C148.679 74.9123 148.602 75.158 148.602 75.51V75.939H149.724V76.962ZM151.474 75.136C151.246 75.136 151.056 75.059 150.902 74.905C150.748 74.751 150.671 74.5603 150.671 74.333C150.671 74.1057 150.748 73.915 150.902 73.761C151.056 73.607 151.246 73.53 151.474 73.53C151.694 73.53 151.881 73.607 152.035 73.761C152.189 73.915 152.266 74.1057 152.266 74.333C152.266 74.5603 152.189 74.751 152.035 74.905C151.881 75.059 151.694 75.136 151.474 75.136ZM152.09 75.939V82H150.836V75.939H152.09ZM154.99 73.86V82H153.736V73.86H154.99ZM162.192 78.821C162.192 79.0483 162.177 79.2537 162.148 79.437H157.517C157.553 79.921 157.733 80.3097 158.056 80.603C158.378 80.8963 158.774 81.043 159.244 81.043C159.918 81.043 160.395 80.7607 160.674 80.196H162.027C161.843 80.7533 161.51 81.2117 161.026 81.571C160.549 81.923 159.955 82.099 159.244 82.099C158.664 82.099 158.144 81.9707 157.682 81.714C157.227 81.45 156.868 81.0833 156.604 80.614C156.347 80.1373 156.219 79.5873 156.219 78.964C156.219 78.3407 156.343 77.7943 156.593 77.325C156.849 76.8483 157.205 76.4817 157.66 76.225C158.122 75.9683 158.65 75.84 159.244 75.84C159.816 75.84 160.325 75.9647 160.773 76.214C161.22 76.4633 161.568 76.8153 161.818 77.27C162.067 77.7173 162.192 78.2343 162.192 78.821ZM160.883 78.425C160.875 77.963 160.71 77.5927 160.388 77.314C160.065 77.0353 159.665 76.896 159.189 76.896C158.756 76.896 158.386 77.0353 158.078 77.314C157.77 77.5853 157.586 77.9557 157.528 78.425H160.883ZM163.932 82.077C163.704 82.077 163.514 82 163.36 81.846C163.206 81.692 163.129 81.5013 163.129 81.274C163.129 81.0467 163.206 80.856 163.36 80.702C163.514 80.548 163.704 80.471 163.932 80.471C164.152 80.471 164.339 80.548 164.493 80.702C164.647 80.856 164.724 81.0467 164.724 81.274C164.724 81.5013 164.647 81.692 164.493 81.846C164.339 82 164.152 82.077 163.932 82.077ZM170.19 80.988H172.775V82H168.936V74.355H170.19V80.988ZM176.453 82.099C175.881 82.099 175.364 81.9707 174.902 81.714C174.44 81.45 174.077 81.0833 173.813 80.614C173.549 80.1373 173.417 79.5873 173.417 78.964C173.417 78.348 173.553 77.8017 173.824 77.325C174.095 76.8483 174.466 76.4817 174.935 76.225C175.404 75.9683 175.929 75.84 176.508 75.84C177.087 75.84 177.612 75.9683 178.081 76.225C178.55 76.4817 178.921 76.8483 179.192 77.325C179.463 77.8017 179.599 78.348 179.599 78.964C179.599 79.58 179.46 80.1263 179.181 80.603C178.902 81.0797 178.521 81.45 178.037 81.714C177.56 81.9707 177.032 82.099 176.453 82.099ZM176.453 81.01C176.776 81.01 177.076 80.933 177.355 80.779C177.641 80.625 177.872 80.394 178.048 80.086C178.224 79.778 178.312 79.404 178.312 78.964C178.312 78.524 178.228 78.1537 178.059 77.853C177.89 77.545 177.667 77.314 177.388 77.16C177.109 77.006 176.809 76.929 176.486 76.929C176.163 76.929 175.863 77.006 175.584 77.16C175.313 77.314 175.096 77.545 174.935 77.853C174.774 78.1537 174.693 78.524 174.693 78.964C174.693 79.6167 174.858 80.1227 175.188 80.482C175.525 80.834 175.947 81.01 176.453 81.01ZM180.421 78.964C180.421 78.3407 180.545 77.7943 180.795 77.325C181.051 76.8483 181.403 76.4817 181.851 76.225C182.298 75.9683 182.811 75.84 183.391 75.84C184.124 75.84 184.729 76.016 185.206 76.368C185.69 76.7127 186.016 77.2077 186.185 77.853H184.832C184.722 77.5523 184.546 77.3177 184.304 77.149C184.062 76.9803 183.757 76.896 183.391 76.896C182.877 76.896 182.467 77.0793 182.159 77.446C181.858 77.8053 181.708 78.3113 181.708 78.964C181.708 79.6167 181.858 80.1263 182.159 80.493C182.467 80.8597 182.877 81.043 183.391 81.043C184.117 81.043 184.597 80.724 184.832 80.086H186.185C186.009 80.702 185.679 81.1933 185.195 81.56C184.711 81.9193 184.109 82.099 183.391 82.099C182.811 82.099 182.298 81.9707 181.851 81.714C181.403 81.45 181.051 81.0833 180.795 80.614C180.545 80.1373 180.421 79.5873 180.421 78.964ZM187.016 78.942C187.016 78.3333 187.141 77.7943 187.39 77.325C187.647 76.8557 187.992 76.4927 188.424 76.236C188.864 75.972 189.348 75.84 189.876 75.84C190.353 75.84 190.767 75.9353 191.119 76.126C191.479 76.3093 191.765 76.5403 191.977 76.819V75.939H193.242V82H191.977V81.098C191.765 81.384 191.475 81.6223 191.108 81.813C190.742 82.0037 190.324 82.099 189.854 82.099C189.334 82.099 188.857 81.967 188.424 81.703C187.992 81.4317 187.647 81.0577 187.39 80.581C187.141 80.097 187.016 79.5507 187.016 78.942ZM191.977 78.964C191.977 78.546 191.889 78.183 191.713 77.875C191.545 77.567 191.321 77.3323 191.042 77.171C190.764 77.0097 190.463 76.929 190.14 76.929C189.818 76.929 189.517 77.0097 189.238 77.171C188.96 77.325 188.732 77.556 188.556 77.864C188.388 78.1647 188.303 78.524 188.303 78.942C188.303 79.36 188.388 79.7267 188.556 80.042C188.732 80.3573 188.96 80.5993 189.238 80.768C189.524 80.9293 189.825 81.01 190.14 81.01C190.463 81.01 190.764 80.9293 191.042 80.768C191.321 80.6067 191.545 80.372 191.713 80.064C191.889 79.7487 191.977 79.382 191.977 78.964ZM196.143 73.86V82H194.889V73.86H196.143ZM40.407 94.942C40.407 94.3333 40.5317 93.7943 40.781 93.325C41.0377 92.8557 41.3823 92.4927 41.815 92.236C42.255 91.972 42.7427 91.84 43.278 91.84C43.674 91.84 44.0627 91.928 44.444 92.104C44.8327 92.2727 45.1407 92.5 45.368 92.786V89.86H46.633V98H45.368V97.087C45.1627 97.3803 44.8767 97.6223 44.51 97.813C44.1507 98.0037 43.7363 98.099 43.267 98.099C42.739 98.099 42.255 97.967 41.815 97.703C41.3823 97.4317 41.0377 97.0577 40.781 96.581C40.5317 96.097 40.407 95.5507 40.407 94.942ZM45.368 94.964C45.368 94.546 45.28 94.183 45.104 93.875C44.9353 93.567 44.7117 93.3323 44.433 93.171C44.1543 93.0097 43.8537 92.929 43.531 92.929C43.2083 92.929 42.9077 93.0097 42.629 93.171C42.3503 93.325 42.123 93.556 41.947 93.864C41.7783 94.1647 41.694 94.524 41.694 94.942C41.694 95.36 41.7783 95.7267 41.947 96.042C42.123 96.3573 42.3503 96.5993 42.629 96.768C42.915 96.9293 43.2157 97.01 43.531 97.01C43.8537 97.01 44.1543 96.9293 44.433 96.768C44.7117 96.6067 44.9353 96.372 45.104 96.064C45.28 95.7487 45.368 95.382 45.368 94.964ZM48.9181 91.136C48.6907 91.136 48.5001 91.059 48.3461 90.905C48.1921 90.751 48.1151 90.5603 48.1151 90.333C48.1151 90.1057 48.1921 89.915 48.3461 89.761C48.5001 89.607 48.6907 89.53 48.9181 89.53C49.1381 89.53 49.3251 89.607 49.4791 89.761C49.6331 89.915 49.7101 90.1057 49.7101 90.333C49.7101 90.5603 49.6331 90.751 49.4791 90.905C49.3251 91.059 49.1381 91.136 48.9181 91.136ZM49.5341 91.939V98H48.2801V91.939H49.5341ZM53.3805 98.099C52.9038 98.099 52.4748 98.0147 52.0935 97.846C51.7195 97.67 51.4225 97.4353 51.2025 97.142C50.9825 96.8413 50.8651 96.5077 50.8505 96.141H52.1485C52.1705 96.3977 52.2915 96.614 52.5115 96.79C52.7388 96.9587 53.0211 97.043 53.3585 97.043C53.7105 97.043 53.9818 96.977 54.1725 96.845C54.3705 96.7057 54.4695 96.5297 54.4695 96.317C54.4695 96.0897 54.3595 95.921 54.1395 95.811C53.9268 95.701 53.5858 95.58 53.1165 95.448C52.6618 95.3233 52.2915 95.2023 52.0055 95.085C51.7195 94.9677 51.4701 94.788 51.2575 94.546C51.0521 94.304 50.9495 93.985 50.9495 93.589C50.9495 93.2663 51.0448 92.973 51.2355 92.709C51.4261 92.4377 51.6975 92.225 52.0495 92.071C52.4088 91.917 52.8195 91.84 53.2815 91.84C53.9708 91.84 54.5245 92.016 54.9425 92.368C55.3678 92.7127 55.5951 93.1857 55.6245 93.787H54.3705C54.3485 93.5157 54.2385 93.2993 54.0405 93.138C53.8425 92.9767 53.5748 92.896 53.2375 92.896C52.9075 92.896 52.6545 92.9583 52.4785 93.083C52.3025 93.2077 52.2145 93.3727 52.2145 93.578C52.2145 93.7393 52.2731 93.875 52.3905 93.985C52.5078 94.095 52.6508 94.183 52.8195 94.249C52.9881 94.3077 53.2375 94.3847 53.5675 94.48C54.0075 94.5973 54.3668 94.7183 54.6455 94.843C54.9315 94.9603 55.1771 95.1363 55.3825 95.371C55.5878 95.6057 55.6941 95.9173 55.7015 96.306C55.7015 96.6507 55.6061 96.9587 55.4155 97.23C55.2248 97.5013 54.9535 97.714 54.6015 97.868C54.2568 98.022 53.8498 98.099 53.3805 98.099ZM59.4544 94.975L62.2484 98H60.5544L58.3104 95.393V98H57.0564V89.86H58.3104V94.59L60.5104 91.939H62.2484L59.4544 94.975ZM66.6427 91.136C66.4154 91.136 66.2247 91.059 66.0707 90.905C65.9167 90.751 65.8397 90.5603 65.8397 90.333C65.8397 90.1057 65.9167 89.915 66.0707 89.761C66.2247 89.607 66.4154 89.53 66.6427 89.53C66.8627 89.53 67.0497 89.607 67.2037 89.761C67.3577 89.915 67.4347 90.1057 67.4347 90.333C67.4347 90.5603 67.3577 90.751 67.2037 90.905C67.0497 91.059 66.8627 91.136 66.6427 91.136ZM67.2587 91.939V98H66.0047V91.939H67.2587ZM71.1051 98.099C70.6284 98.099 70.1994 98.0147 69.8181 97.846C69.4441 97.67 69.1471 97.4353 68.9271 97.142C68.7071 96.8413 68.5897 96.5077 68.5751 96.141H69.8731C69.8951 96.3977 70.0161 96.614 70.2361 96.79C70.4634 96.9587 70.7457 97.043 71.0831 97.043C71.4351 97.043 71.7064 96.977 71.8971 96.845C72.0951 96.7057 72.1941 96.5297 72.1941 96.317C72.1941 96.0897 72.0841 95.921 71.8641 95.811C71.6514 95.701 71.3104 95.58 70.8411 95.448C70.3864 95.3233 70.0161 95.2023 69.7301 95.085C69.4441 94.9677 69.1947 94.788 68.9821 94.546C68.7767 94.304 68.6741 93.985 68.6741 93.589C68.6741 93.2663 68.7694 92.973 68.9601 92.709C69.1507 92.4377 69.4221 92.225 69.7741 92.071C70.1334 91.917 70.5441 91.84 71.0061 91.84C71.6954 91.84 72.2491 92.016 72.6671 92.368C73.0924 92.7127 73.3197 93.1857 73.3491 93.787H72.0951C72.0731 93.5157 71.9631 93.2993 71.7651 93.138C71.5671 92.9767 71.2994 92.896 70.9621 92.896C70.6321 92.896 70.3791 92.9583 70.2031 93.083C70.0271 93.2077 69.9391 93.3727 69.9391 93.578C69.9391 93.7393 69.9977 93.875 70.1151 93.985C70.2324 94.095 70.3754 94.183 70.5441 94.249C70.7127 94.3077 70.9621 94.3847 71.2921 94.48C71.7321 94.5973 72.0914 94.7183 72.3701 94.843C72.6561 94.9603 72.9017 95.1363 73.1071 95.371C73.3124 95.6057 73.4187 95.9173 73.4261 96.306C73.4261 96.6507 73.3307 96.9587 73.1401 97.23C72.9494 97.5013 72.6781 97.714 72.3261 97.868C71.9814 98.022 71.5744 98.099 71.1051 98.099ZM80.1795 92.962H79.0575V98H77.7925V92.962H77.0775V91.939H77.7925V91.51C77.7925 90.8133 77.9758 90.3073 78.3425 89.992C78.7165 89.6693 79.2995 89.508 80.0915 89.508V90.553C79.7101 90.553 79.4425 90.6263 79.2885 90.773C79.1345 90.9123 79.0575 91.158 79.0575 91.51V91.939H80.1795V92.962ZM86.7798 91.939V98H85.5258V97.285C85.3278 97.5343 85.0675 97.7323 84.7448 97.879C84.4295 98.0183 84.0922 98.088 83.7328 98.088C83.2562 98.088 82.8272 97.989 82.4458 97.791C82.0718 97.593 81.7748 97.2997 81.5548 96.911C81.3422 96.5223 81.2358 96.053 81.2358 95.503V91.939H82.4788V95.316C82.4788 95.8587 82.6145 96.2767 82.8858 96.57C83.1572 96.856 83.5275 96.999 83.9968 96.999C84.4662 96.999 84.8365 96.856 85.1078 96.57C85.3865 96.2767 85.5258 95.8587 85.5258 95.316V91.939H86.7798ZM89.6884 89.86V98H88.4344V89.86H89.6884ZM92.5888 89.86V98H91.3348V89.86H92.5888ZM94.7412 98.077C94.5138 98.077 94.3232 98 94.1692 97.846C94.0152 97.692 93.9382 97.5013 93.9382 97.274C93.9382 97.0467 94.0152 96.856 94.1692 96.702C94.3232 96.548 94.5138 96.471 94.7412 96.471C94.9612 96.471 95.1482 96.548 95.3022 96.702C95.4562 96.856 95.5332 97.0467 95.5332 97.274C95.5332 97.5013 95.4562 97.692 95.3022 97.846C95.1482 98 94.9612 98.077 94.7412 98.077Z"></path>
<path stroke-linejoin="round" stroke-linecap="round" stroke-width="1.5" stroke="#BFBFBF" d="M211.464 41.4645L218.536 48.5356M218.536 41.4645L211.464 48.5356"></path>
<rect fill="url(#paint0_linear_964_99)" rx="1.2" height="11.4" width="14.4" y="40.2" x="37.7998"></rect>
<path fill="url(#paint1_linear_964_99)" d="M37.7998 39.5999C37.7998 38.9372 38.3371 38.3999 38.9998 38.3999H43.1576C43.5588 38.3999 43.9335 38.6004 44.156 38.9343L44.9998 40.1999L44.156 41.4655C43.9335 41.7994 43.5588 41.9999 43.1576 41.9999H37.7998V39.5999Z"></path>
<path fill="url(#paint2_linear_964_99)" d="M40.2002 49.8C40.2002 48.8059 41.0061 48 42.0002 48H48.0002C48.9943 48 49.8002 48.8059 49.8002 49.8V51.6H40.2002V49.8Z"></path>
<rect fill="#0C6BB5" rx="0.6" height="1.2" width="4.8" y="49.2" x="42.6001"></rect>
<defs>
<linearGradient gradientUnits="userSpaceOnUse" y2="40.2" x2="47.3998" y1="51.6" x1="47.3998" id="paint0_linear_964_99">
<stop stop-color="#F7B70A"></stop>
<stop stop-color="#FFD04B" offset="1"></stop>
</linearGradient>
<linearGradient gradientUnits="userSpaceOnUse" y2="41.9999" x2="41.3998" y1="38.3999" x1="41.3998" id="paint1_linear_964_99">
<stop stop-color="#E09F00"></stop>
<stop stop-color="#BA8400" offset="1"></stop>
</linearGradient>
<linearGradient gradientUnits="userSpaceOnUse" y2="50.25" x2="40.2002" y1="50.25" x1="49.8002" id="paint2_linear_964_99">
<stop stop-color="#046CBD"></stop>
<stop stop-color="#108AD7" offset="1"></stop>
</linearGradient>
</defs>
</svg>
