<svg xmlns="http://www.w3.org/2000/svg" fill="none" viewBox="0 0 125 10" height="10" width="125">
<path fill="white" d="M1.36074 1.367V3.611H4.00074V4.634H1.36074V6.977H4.33074V8H0.106738V0.344H4.33074V1.367H1.36074ZM9.84629 8L8.08629 4.942H7.12929V8H5.87529V0.354999H8.51529C9.10196 0.354999 9.59696 0.457666 10.0003 0.662999C10.411 0.868333 10.7153 1.14333 10.9133 1.488C11.1186 1.83267 11.2213 2.21767 11.2213 2.643C11.2213 3.14167 11.0746 3.59633 10.7813 4.007C10.4953 4.41033 10.0516 4.68533 9.45029 4.832L11.3423 8H9.84629ZM7.12929 3.941H8.51529C8.98463 3.941 9.33663 3.82367 9.57129 3.589C9.81329 3.35433 9.93429 3.039 9.93429 2.643C9.93429 2.247 9.81696 1.939 9.58229 1.719C9.34763 1.49167 8.99196 1.378 8.51529 1.378H7.12929V3.941ZM16.7965 8L15.0365 4.942H14.0795V8H12.8255V0.354999H15.4655C16.0522 0.354999 16.5472 0.457666 16.9505 0.662999C17.3612 0.868333 17.6655 1.14333 17.8635 1.488C18.0688 1.83267 18.1715 2.21767 18.1715 2.643C18.1715 3.14167 18.0248 3.59633 17.7315 4.007C17.4455 4.41033 17.0018 4.68533 16.4005 4.832L18.2925 8H16.7965ZM14.0795 3.941H15.4655C15.9348 3.941 16.2868 3.82367 16.5215 3.589C16.7635 3.35433 16.8845 3.039 16.8845 2.643C16.8845 2.247 16.7672 1.939 16.5325 1.719C16.2978 1.49167 15.9422 1.378 15.4655 1.378H14.0795V3.941ZM26.4747 8.44V9.606H20.3367V8.44H26.4747ZM34.8331 8H33.5791L29.8061 2.291V8H28.5521V0.344H29.8061L33.5791 6.042V0.344H34.8331V8ZM39.9668 8.077C39.2555 8.077 38.5991 7.912 37.9978 7.582C37.4038 7.24467 36.9308 6.779 36.5788 6.185C36.2341 5.58367 36.0618 4.909 36.0618 4.161C36.0618 3.413 36.2341 2.742 36.5788 2.148C36.9308 1.554 37.4038 1.092 37.9978 0.761999C38.5991 0.424666 39.2555 0.255999 39.9668 0.255999C40.6855 0.255999 41.3418 0.424666 41.9358 0.761999C42.5371 1.092 43.0101 1.554 43.3548 2.148C43.6995 2.742 43.8718 3.413 43.8718 4.161C43.8718 4.909 43.6995 5.58367 43.3548 6.185C43.0101 6.779 42.5371 7.24467 41.9358 7.582C41.3418 7.912 40.6855 8.077 39.9668 8.077ZM39.9668 6.988C40.4728 6.988 40.9238 6.87433 41.3198 6.647C41.7158 6.41233 42.0238 6.08233 42.2438 5.657C42.4711 5.22433 42.5848 4.72567 42.5848 4.161C42.5848 3.59633 42.4711 3.10133 42.2438 2.676C42.0238 2.25067 41.7158 1.92433 41.3198 1.697C40.9238 1.46967 40.4728 1.356 39.9668 1.356C39.4608 1.356 39.0098 1.46967 38.6138 1.697C38.2178 1.92433 37.9061 2.25067 37.6788 2.676C37.4588 3.10133 37.3488 3.59633 37.3488 4.161C37.3488 4.72567 37.4588 5.22433 37.6788 5.657C37.9061 6.08233 38.2178 6.41233 38.6138 6.647C39.0098 6.87433 39.4608 6.988 39.9668 6.988ZM51.8048 8.44V9.606H45.6668V8.44H51.8048ZM58.4911 6.438H55.2901L54.7401 8H53.4311L56.1701 0.344H57.6221L60.3611 8H59.0411L58.4911 6.438ZM58.1391 5.415L56.8961 1.862L55.6421 5.415H58.1391ZM66.8981 2.632C66.8981 3.02067 66.8064 3.38733 66.6231 3.732C66.4397 4.07667 66.1464 4.359 65.7431 4.579C65.3397 4.79167 64.8227 4.898 64.1921 4.898H62.8061V8H61.5521V0.354999H64.1921C64.7787 0.354999 65.2737 0.457666 65.6771 0.662999C66.0877 0.860999 66.3921 1.13233 66.5901 1.477C66.7954 1.82167 66.8981 2.20667 66.8981 2.632ZM64.1921 3.875C64.6687 3.875 65.0244 3.76867 65.2591 3.556C65.4937 3.336 65.6111 3.028 65.6111 2.632C65.6111 1.796 65.1381 1.378 64.1921 1.378H62.8061V3.875H64.1921ZM73.44 2.632C73.44 3.02067 73.3484 3.38733 73.165 3.732C72.9817 4.07667 72.6884 4.359 72.285 4.579C71.8817 4.79167 71.3647 4.898 70.734 4.898H69.348V8H68.094V0.354999H70.734C71.3207 0.354999 71.8157 0.457666 72.219 0.662999C72.6297 0.860999 72.934 1.13233 73.132 1.477C73.3374 1.82167 73.44 2.20667 73.44 2.632ZM70.734 3.875C71.2107 3.875 71.5664 3.76867 71.801 3.556C72.0357 3.336 72.153 3.028 72.153 2.632C72.153 1.796 71.68 1.378 70.734 1.378H69.348V3.875H70.734ZM81.335 8.44V9.606H75.197V8.44H81.335ZM82.9944 4.161C82.9944 3.413 83.1667 2.742 83.5114 2.148C83.8634 1.554 84.3364 1.092 84.9304 0.761999C85.5317 0.424666 86.1881 0.255999 86.8994 0.255999C87.7134 0.255999 88.4357 0.457666 89.0664 0.860999C89.7044 1.257 90.1664 1.82167 90.4524 2.555H88.9454C88.7474 2.15167 88.4724 1.851 88.1204 1.653C87.7684 1.455 87.3614 1.356 86.8994 1.356C86.3934 1.356 85.9424 1.46967 85.5464 1.697C85.1504 1.92433 84.8387 2.25067 84.6114 2.676C84.3914 3.10133 84.2814 3.59633 84.2814 4.161C84.2814 4.72567 84.3914 5.22067 84.6114 5.646C84.8387 6.07133 85.1504 6.40133 85.5464 6.636C85.9424 6.86333 86.3934 6.977 86.8994 6.977C87.3614 6.977 87.7684 6.878 88.1204 6.68C88.4724 6.482 88.7474 6.18133 88.9454 5.778H90.4524C90.1664 6.51133 89.7044 7.076 89.0664 7.472C88.4357 7.868 87.7134 8.066 86.8994 8.066C86.1807 8.066 85.5244 7.901 84.9304 7.571C84.3364 7.23367 83.8634 6.768 83.5114 6.174C83.1667 5.58 82.9944 4.909 82.9944 4.161ZM95.4072 8.077C94.6959 8.077 94.0395 7.912 93.4382 7.582C92.8442 7.24467 92.3712 6.779 92.0192 6.185C91.6745 5.58367 91.5022 4.909 91.5022 4.161C91.5022 3.413 91.6745 2.742 92.0192 2.148C92.3712 1.554 92.8442 1.092 93.4382 0.761999C94.0395 0.424666 94.6959 0.255999 95.4072 0.255999C96.1259 0.255999 96.7822 0.424666 97.3762 0.761999C97.9775 1.092 98.4505 1.554 98.7952 2.148C99.1399 2.742 99.3122 3.413 99.3122 4.161C99.3122 4.909 99.1399 5.58367 98.7952 6.185C98.4505 6.779 97.9775 7.24467 97.3762 7.582C96.7822 7.912 96.1259 8.077 95.4072 8.077ZM95.4072 6.988C95.9132 6.988 96.3642 6.87433 96.7602 6.647C97.1562 6.41233 97.4642 6.08233 97.6842 5.657C97.9115 5.22433 98.0252 4.72567 98.0252 4.161C98.0252 3.59633 97.9115 3.10133 97.6842 2.676C97.4642 2.25067 97.1562 1.92433 96.7602 1.697C96.3642 1.46967 95.9132 1.356 95.4072 1.356C94.9012 1.356 94.4502 1.46967 94.0542 1.697C93.6582 1.92433 93.3465 2.25067 93.1192 2.676C92.8992 3.10133 92.7892 3.59633 92.7892 4.161C92.7892 4.72567 92.8992 5.22433 93.1192 5.657C93.3465 6.08233 93.6582 6.41233 94.0542 6.647C94.4502 6.87433 94.9012 6.988 95.4072 6.988ZM106.827 8H105.573L101.8 2.291V8H100.546V0.344H101.8L105.573 6.042V0.344H106.827V8ZM112.973 0.354999V1.378H109.728V3.633H112.258V4.656H109.728V8H108.474V0.354999H112.973ZM115.389 0.354999V8H114.135V0.354999H115.389ZM122.568 2.555C122.37 2.17367 122.095 1.88767 121.743 1.697C121.391 1.499 120.984 1.4 120.522 1.4C120.016 1.4 119.565 1.51367 119.169 1.741C118.773 1.96833 118.462 2.291 118.234 2.709C118.014 3.127 117.904 3.611 117.904 4.161C117.904 4.711 118.014 5.19867 118.234 5.624C118.462 6.042 118.773 6.36467 119.169 6.592C119.565 6.81933 120.016 6.933 120.522 6.933C121.204 6.933 121.758 6.74233 122.183 6.361C122.609 5.97967 122.869 5.46267 122.964 4.81H120.093V3.809H124.306V4.788C124.226 5.382 124.013 5.92833 123.668 6.427C123.331 6.92567 122.887 7.32533 122.337 7.626C121.795 7.91933 121.19 8.066 120.522 8.066C119.804 8.066 119.147 7.901 118.553 7.571C117.959 7.23367 117.486 6.768 117.134 6.174C116.79 5.58 116.617 4.909 116.617 4.161C116.617 3.413 116.79 2.742 117.134 2.148C117.486 1.554 117.959 1.092 118.553 0.761999C119.155 0.424666 119.811 0.255999 120.522 0.255999C121.336 0.255999 122.059 0.457666 122.689 0.860999C123.327 1.257 123.789 1.82167 124.075 2.555H122.568Z"></path>
</svg>
