<svg xmlns="http://www.w3.org/2000/svg" fill="none" viewBox="0 0 114 37" height="37" width="114">
<rect fill-opacity="0.05" fill="white" rx="5" height="37" width="114"></rect>
<path fill="white" d="M58.4432 15.84C58.3625 15.5027 58.2159 15.2497 58.0032 15.081C57.7905 14.9123 57.4935 14.828 57.1122 14.828C56.5329 14.828 56.1002 15.0517 55.8142 15.499C55.5282 15.939 55.3779 16.6723 55.3632 17.699C55.5539 17.3763 55.8325 17.127 56.1992 16.951C56.5659 16.775 56.9619 16.687 57.3872 16.687C57.8712 16.687 58.2965 16.7933 58.6632 17.006C59.0372 17.2113 59.3269 17.512 59.5322 17.908C59.7449 18.304 59.8512 18.777 59.8512 19.327C59.8512 19.8403 59.7485 20.2987 59.5432 20.702C59.3452 21.1053 59.0482 21.4243 58.6522 21.659C58.2562 21.8863 57.7795 22 57.2222 22C56.4669 22 55.8729 21.835 55.4402 21.505C55.0149 21.1677 54.7142 20.6947 54.5382 20.086C54.3695 19.4773 54.2852 18.7183 54.2852 17.809C54.2852 15.125 55.2312 13.783 57.1232 13.783C57.8565 13.783 58.4322 13.981 58.8502 14.377C59.2755 14.773 59.5249 15.2607 59.5982 15.84H58.4432ZM57.1122 17.743C56.6649 17.743 56.2835 17.8787 55.9682 18.15C55.6602 18.414 55.5062 18.799 55.5062 19.305C55.5062 19.811 55.6492 20.2143 55.9352 20.515C56.2285 20.8083 56.6355 20.955 57.1562 20.955C57.6182 20.955 57.9812 20.812 58.2452 20.526C58.5165 20.24 58.6522 19.8587 58.6522 19.382C58.6522 18.8833 58.5202 18.4873 58.2562 18.194C57.9995 17.8933 57.6182 17.743 57.1122 17.743Z"></path>
</svg>
