<svg xmlns="http://www.w3.org/2000/svg" fill="none" viewBox="0 0 44 24" height="24" width="44">
<path fill-opacity="0.5" fill="#FF0000" d="M2 12C2 6.47715 6.47715 2 12 2H32C37.5228 2 42 6.47715 42 12V12C42 17.5228 37.5228 22 32 22H12C6.47715 22 2 17.5228 2 12V12Z"></path>
<path stroke-width="2" stroke-opacity="0.2" stroke="#FF0000" d="M32 1H12C5.92487 1 1 5.92487 1 12C1 18.0751 5.92487 23 12 23H32C38.0751 23 43 18.0751 43 12C43 5.92487 38.0751 1 32 1Z"></path>
<path fill="white" d="M15.1047 14.176V13.144L19.1367 7.36H20.7927V12.988H21.9087V14.176H20.7927V16H19.4487V14.176H15.1047ZM19.5087 8.752L16.6767 12.988H19.5087V8.752ZM23.0183 9.412C23.0663 8.668 23.3503 8.088 23.8703 7.672C24.3983 7.256 25.0703 7.048 25.8863 7.048C26.4463 7.048 26.9303 7.148 27.3383 7.348C27.7463 7.548 28.0543 7.82 28.2623 8.164C28.4703 8.508 28.5743 8.896 28.5743 9.328C28.5743 9.824 28.4423 10.248 28.1783 10.6C27.9143 10.952 27.5983 11.188 27.2303 11.308V11.356C27.7023 11.5 28.0703 11.764 28.3343 12.148C28.5983 12.524 28.7303 13.008 28.7303 13.6C28.7303 14.072 28.6223 14.492 28.4063 14.86C28.1903 15.228 27.8703 15.52 27.4463 15.736C27.0223 15.944 26.5143 16.048 25.9223 16.048C25.0583 16.048 24.3463 15.828 23.7863 15.388C23.2343 14.94 22.9383 14.3 22.8983 13.468H24.2183C24.2503 13.892 24.4143 14.24 24.7103 14.512C25.0063 14.776 25.4063 14.908 25.9103 14.908C26.3983 14.908 26.7743 14.776 27.0383 14.512C27.3023 14.24 27.4343 13.892 27.4343 13.468C27.4343 12.908 27.2543 12.512 26.8943 12.28C26.5423 12.04 25.9983 11.92 25.2623 11.92H24.9503V10.792H25.2743C25.9223 10.784 26.4143 10.676 26.7503 10.468C27.0943 10.26 27.2663 9.932 27.2663 9.484C27.2663 9.1 27.1423 8.796 26.8943 8.572C26.6463 8.34 26.2943 8.224 25.8383 8.224C25.3903 8.224 25.0423 8.34 24.7943 8.572C24.5463 8.796 24.3983 9.076 24.3503 9.412H23.0183Z"></path>
</svg>
