<svg xmlns="http://www.w3.org/2000/svg" fill="none" viewBox="0 0 480 360" height="360" width="480">
<path fill="white" d="M190.407 105.161C190.407 104.413 190.579 103.742 190.924 103.148C191.276 102.554 191.749 102.092 192.343 101.762C192.944 101.425 193.601 101.256 194.312 101.256C195.126 101.256 195.848 101.458 196.479 101.861C197.117 102.257 197.579 102.822 197.865 103.555H196.358C196.16 103.152 195.885 102.851 195.533 102.653C195.181 102.455 194.774 102.356 194.312 102.356C193.806 102.356 193.355 102.47 192.959 102.697C192.563 102.924 192.251 103.251 192.024 103.676C191.804 104.101 191.694 104.596 191.694 105.161C191.694 105.726 191.804 106.221 192.024 106.646C192.251 107.071 192.563 107.401 192.959 107.636C193.355 107.863 193.806 107.977 194.312 107.977C194.774 107.977 195.181 107.878 195.533 107.68C195.885 107.482 196.16 107.181 196.358 106.778H197.865C197.579 107.511 197.117 108.076 196.479 108.472C195.848 108.868 195.126 109.066 194.312 109.066C193.593 109.066 192.937 108.901 192.343 108.571C191.749 108.234 191.276 107.768 190.924 107.174C190.579 106.58 190.407 105.909 190.407 105.161ZM202.468 102.84C202.93 102.84 203.34 102.939 203.7 103.137C204.066 103.335 204.352 103.628 204.558 104.017C204.77 104.406 204.877 104.875 204.877 105.425V109H203.634V105.612C203.634 105.069 203.498 104.655 203.227 104.369C202.955 104.076 202.585 103.929 202.116 103.929C201.646 103.929 201.272 104.076 200.994 104.369C200.722 104.655 200.587 105.069 200.587 105.612V109H199.333V100.86H200.587V103.643C200.799 103.386 201.067 103.188 201.39 103.049C201.72 102.91 202.079 102.84 202.468 102.84ZM212.031 105.821C212.031 106.048 212.017 106.254 211.987 106.437H207.356C207.393 106.921 207.573 107.31 207.895 107.603C208.218 107.896 208.614 108.043 209.083 108.043C209.758 108.043 210.235 107.761 210.513 107.196H211.866C211.683 107.753 211.349 108.212 210.865 108.571C210.389 108.923 209.795 109.099 209.083 109.099C208.504 109.099 207.983 108.971 207.521 108.714C207.067 108.45 206.707 108.083 206.443 107.614C206.187 107.137 206.058 106.587 206.058 105.964C206.058 105.341 206.183 104.794 206.432 104.325C206.689 103.848 207.045 103.482 207.499 103.225C207.961 102.968 208.489 102.84 209.083 102.84C209.655 102.84 210.165 102.965 210.612 103.214C211.06 103.463 211.408 103.815 211.657 104.27C211.907 104.717 212.031 105.234 212.031 105.821ZM210.722 105.425C210.715 104.963 210.55 104.593 210.227 104.314C209.905 104.035 209.505 103.896 209.028 103.896C208.596 103.896 208.225 104.035 207.917 104.314C207.609 104.585 207.426 104.956 207.367 105.425H210.722ZM212.847 105.964C212.847 105.341 212.972 104.794 213.221 104.325C213.478 103.848 213.83 103.482 214.277 103.225C214.725 102.968 215.238 102.84 215.817 102.84C216.551 102.84 217.156 103.016 217.632 103.368C218.116 103.713 218.443 104.208 218.611 104.853H217.258C217.148 104.552 216.972 104.318 216.73 104.149C216.488 103.98 216.184 103.896 215.817 103.896C215.304 103.896 214.893 104.079 214.585 104.446C214.285 104.805 214.134 105.311 214.134 105.964C214.134 106.617 214.285 107.126 214.585 107.493C214.893 107.86 215.304 108.043 215.817 108.043C216.543 108.043 217.024 107.724 217.258 107.086H218.611C218.435 107.702 218.105 108.193 217.621 108.56C217.137 108.919 216.536 109.099 215.817 109.099C215.238 109.099 214.725 108.971 214.277 108.714C213.83 108.45 213.478 108.083 213.221 107.614C212.972 107.137 212.847 106.587 212.847 105.964ZM222.259 105.975L225.053 109H223.359L221.115 106.393V109H219.861V100.86H221.115V105.59L223.315 102.939H225.053L222.259 105.975ZM231.35 103.962H230.228V109H228.963V103.962H228.248V102.939H228.963V102.51C228.963 101.813 229.147 101.307 229.513 100.992C229.887 100.669 230.47 100.508 231.262 100.508V101.553C230.881 101.553 230.613 101.626 230.459 101.773C230.305 101.912 230.228 102.158 230.228 102.51V102.939H231.35V103.962ZM235.091 109.099C234.519 109.099 234.002 108.971 233.54 108.714C233.078 108.45 232.715 108.083 232.451 107.614C232.187 107.137 232.055 106.587 232.055 105.964C232.055 105.348 232.19 104.802 232.462 104.325C232.733 103.848 233.103 103.482 233.573 103.225C234.042 102.968 234.566 102.84 235.146 102.84C235.725 102.84 236.249 102.968 236.719 103.225C237.188 103.482 237.558 103.848 237.83 104.325C238.101 104.802 238.237 105.348 238.237 105.964C238.237 106.58 238.097 107.126 237.819 107.603C237.54 108.08 237.159 108.45 236.675 108.714C236.198 108.971 235.67 109.099 235.091 109.099ZM235.091 108.01C235.413 108.01 235.714 107.933 235.993 107.779C236.279 107.625 236.51 107.394 236.686 107.086C236.862 106.778 236.95 106.404 236.95 105.964C236.95 105.524 236.865 105.154 236.697 104.853C236.528 104.545 236.304 104.314 236.026 104.16C235.747 104.006 235.446 103.929 235.124 103.929C234.801 103.929 234.5 104.006 234.222 104.16C233.95 104.314 233.734 104.545 233.573 104.853C233.411 105.154 233.331 105.524 233.331 105.964C233.331 106.617 233.496 107.123 233.826 107.482C234.163 107.834 234.585 108.01 235.091 108.01ZM240.73 103.819C240.914 103.511 241.156 103.273 241.456 103.104C241.764 102.928 242.127 102.84 242.545 102.84V104.138H242.226C241.735 104.138 241.361 104.263 241.104 104.512C240.855 104.761 240.73 105.194 240.73 105.81V109H239.476V102.939H240.73V103.819ZM249.096 103.962H247.974V109H246.709V103.962H245.994V102.939H246.709V102.51C246.709 101.813 246.893 101.307 247.259 100.992C247.633 100.669 248.216 100.508 249.008 100.508V101.553C248.627 101.553 248.359 101.626 248.205 101.773C248.051 101.912 247.974 102.158 247.974 102.51V102.939H249.096V103.962ZM250.846 102.136C250.618 102.136 250.428 102.059 250.274 101.905C250.12 101.751 250.043 101.56 250.043 101.333C250.043 101.106 250.12 100.915 250.274 100.761C250.428 100.607 250.618 100.53 250.846 100.53C251.066 100.53 251.253 100.607 251.407 100.761C251.561 100.915 251.638 101.106 251.638 101.333C251.638 101.56 251.561 101.751 251.407 101.905C251.253 102.059 251.066 102.136 250.846 102.136ZM251.462 102.939V109H250.208V102.939H251.462ZM254.362 100.86V109H253.108V100.86H254.362ZM261.564 105.821C261.564 106.048 261.549 106.254 261.52 106.437H256.889C256.925 106.921 257.105 107.31 257.428 107.603C257.75 107.896 258.146 108.043 258.616 108.043C259.29 108.043 259.767 107.761 260.046 107.196H261.399C261.215 107.753 260.882 108.212 260.398 108.571C259.921 108.923 259.327 109.099 258.616 109.099C258.036 109.099 257.516 108.971 257.054 108.714C256.599 108.45 256.24 108.083 255.976 107.614C255.719 107.137 255.591 106.587 255.591 105.964C255.591 105.341 255.715 104.794 255.965 104.325C256.221 103.848 256.577 103.482 257.032 103.225C257.494 102.968 258.022 102.84 258.616 102.84C259.188 102.84 259.697 102.965 260.145 103.214C260.592 103.463 260.94 103.815 261.19 104.27C261.439 104.717 261.564 105.234 261.564 105.821ZM260.255 105.425C260.247 104.963 260.082 104.593 259.76 104.314C259.437 104.035 259.037 103.896 258.561 103.896C258.128 103.896 257.758 104.035 257.45 104.314C257.142 104.585 256.958 104.956 256.9 105.425H260.255ZM267.855 109.099C267.378 109.099 266.949 109.015 266.568 108.846C266.194 108.67 265.897 108.435 265.677 108.142C265.457 107.841 265.34 107.508 265.325 107.141H266.623C266.645 107.398 266.766 107.614 266.986 107.79C267.213 107.959 267.496 108.043 267.833 108.043C268.185 108.043 268.456 107.977 268.647 107.845C268.845 107.706 268.944 107.53 268.944 107.317C268.944 107.09 268.834 106.921 268.614 106.811C268.401 106.701 268.06 106.58 267.591 106.448C267.136 106.323 266.766 106.202 266.48 106.085C266.194 105.968 265.945 105.788 265.732 105.546C265.527 105.304 265.424 104.985 265.424 104.589C265.424 104.266 265.519 103.973 265.71 103.709C265.901 103.438 266.172 103.225 266.524 103.071C266.883 102.917 267.294 102.84 267.756 102.84C268.445 102.84 268.999 103.016 269.417 103.368C269.842 103.713 270.07 104.186 270.099 104.787H268.845C268.823 104.516 268.713 104.299 268.515 104.138C268.317 103.977 268.049 103.896 267.712 103.896C267.382 103.896 267.129 103.958 266.953 104.083C266.777 104.208 266.689 104.373 266.689 104.578C266.689 104.739 266.748 104.875 266.865 104.985C266.982 105.095 267.125 105.183 267.294 105.249C267.463 105.308 267.712 105.385 268.042 105.48C268.482 105.597 268.841 105.718 269.12 105.843C269.406 105.96 269.652 106.136 269.857 106.371C270.062 106.606 270.169 106.917 270.176 107.306C270.176 107.651 270.081 107.959 269.89 108.23C269.699 108.501 269.428 108.714 269.076 108.868C268.731 109.022 268.324 109.099 267.855 109.099ZM276.987 102.939L273.269 111.849H271.971L273.203 108.901L270.816 102.939H272.213L273.918 107.559L275.689 102.939H276.987ZM280.133 109.099C279.657 109.099 279.228 109.015 278.846 108.846C278.472 108.67 278.175 108.435 277.955 108.142C277.735 107.841 277.618 107.508 277.603 107.141H278.901C278.923 107.398 279.044 107.614 279.264 107.79C279.492 107.959 279.774 108.043 280.111 108.043C280.463 108.043 280.735 107.977 280.925 107.845C281.123 107.706 281.222 107.53 281.222 107.317C281.222 107.09 281.112 106.921 280.892 106.811C280.68 106.701 280.339 106.58 279.869 106.448C279.415 106.323 279.044 106.202 278.758 106.085C278.472 105.968 278.223 105.788 278.01 105.546C277.805 105.304 277.702 104.985 277.702 104.589C277.702 104.266 277.798 103.973 277.988 103.709C278.179 103.438 278.45 103.225 278.802 103.071C279.162 102.917 279.572 102.84 280.034 102.84C280.724 102.84 281.277 103.016 281.695 103.368C282.121 103.713 282.348 104.186 282.377 104.787H281.123C281.101 104.516 280.991 104.299 280.793 104.138C280.595 103.977 280.328 103.896 279.99 103.896C279.66 103.896 279.407 103.958 279.231 104.083C279.055 104.208 278.967 104.373 278.967 104.578C278.967 104.739 279.026 104.875 279.143 104.985C279.261 105.095 279.404 105.183 279.572 105.249C279.741 105.308 279.99 105.385 280.32 105.48C280.76 105.597 281.12 105.718 281.398 105.843C281.684 105.96 281.93 106.136 282.135 106.371C282.341 106.606 282.447 106.917 282.454 107.306C282.454 107.651 282.359 107.959 282.168 108.23C281.978 108.501 281.706 108.714 281.354 108.868C281.01 109.022 280.603 109.099 280.133 109.099ZM285.272 103.962V107.317C285.272 107.544 285.324 107.709 285.426 107.812C285.536 107.907 285.72 107.955 285.976 107.955H286.746V109H285.756C285.192 109 284.759 108.868 284.458 108.604C284.158 108.34 284.007 107.911 284.007 107.317V103.962H283.292V102.939H284.007V101.432H285.272V102.939H286.746V103.962H285.272ZM293.457 105.821C293.457 106.048 293.442 106.254 293.413 106.437H288.782C288.819 106.921 288.998 107.31 289.321 107.603C289.644 107.896 290.04 108.043 290.509 108.043C291.184 108.043 291.66 107.761 291.939 107.196H293.292C293.109 107.753 292.775 108.212 292.291 108.571C291.814 108.923 291.22 109.099 290.509 109.099C289.93 109.099 289.409 108.971 288.947 108.714C288.492 108.45 288.133 108.083 287.869 107.614C287.612 107.137 287.484 106.587 287.484 105.964C287.484 105.341 287.609 104.794 287.858 104.325C288.115 103.848 288.47 103.482 288.925 103.225C289.387 102.968 289.915 102.84 290.509 102.84C291.081 102.84 291.591 102.965 292.038 103.214C292.485 103.463 292.834 103.815 293.083 104.27C293.332 104.717 293.457 105.234 293.457 105.821ZM292.148 105.425C292.141 104.963 291.976 104.593 291.653 104.314C291.33 104.035 290.931 103.896 290.454 103.896C290.021 103.896 289.651 104.035 289.343 104.314C289.035 104.585 288.852 104.956 288.793 105.425H292.148ZM302.028 102.84C302.505 102.84 302.93 102.939 303.304 103.137C303.686 103.335 303.983 103.628 304.195 104.017C304.415 104.406 304.525 104.875 304.525 105.425V109H303.282V105.612C303.282 105.069 303.147 104.655 302.875 104.369C302.604 104.076 302.234 103.929 301.764 103.929C301.295 103.929 300.921 104.076 300.642 104.369C300.371 104.655 300.235 105.069 300.235 105.612V109H298.992V105.612C298.992 105.069 298.857 104.655 298.585 104.369C298.314 104.076 297.944 103.929 297.474 103.929C297.005 103.929 296.631 104.076 296.352 104.369C296.081 104.655 295.945 105.069 295.945 105.612V109H294.691V102.939H295.945V103.632C296.151 103.383 296.411 103.188 296.726 103.049C297.042 102.91 297.379 102.84 297.738 102.84C298.222 102.84 298.655 102.943 299.036 103.148C299.418 103.353 299.711 103.65 299.916 104.039C300.1 103.672 300.386 103.383 300.774 103.17C301.163 102.95 301.581 102.84 302.028 102.84ZM309.616 102.136C309.389 102.136 309.198 102.059 309.044 101.905C308.89 101.751 308.813 101.56 308.813 101.333C308.813 101.106 308.89 100.915 309.044 100.761C309.198 100.607 309.389 100.53 309.616 100.53C309.836 100.53 310.023 100.607 310.177 100.761C310.331 100.915 310.408 101.106 310.408 101.333C310.408 101.56 310.331 101.751 310.177 101.905C310.023 102.059 309.836 102.136 309.616 102.136ZM310.232 102.939V109H308.978V102.939H310.232ZM314.079 109.099C313.602 109.099 313.173 109.015 312.792 108.846C312.418 108.67 312.121 108.435 311.901 108.142C311.681 107.841 311.563 107.508 311.549 107.141H312.847C312.869 107.398 312.99 107.614 313.21 107.79C313.437 107.959 313.719 108.043 314.057 108.043C314.409 108.043 314.68 107.977 314.871 107.845C315.069 107.706 315.168 107.53 315.168 107.317C315.168 107.09 315.058 106.921 314.838 106.811C314.625 106.701 314.284 106.58 313.815 106.448C313.36 106.323 312.99 106.202 312.704 106.085C312.418 105.968 312.168 105.788 311.956 105.546C311.75 105.304 311.648 104.985 311.648 104.589C311.648 104.266 311.743 103.973 311.934 103.709C312.124 103.438 312.396 103.225 312.748 103.071C313.107 102.917 313.518 102.84 313.98 102.84C314.669 102.84 315.223 103.016 315.641 103.368C316.066 103.713 316.293 104.186 316.323 104.787H315.069C315.047 104.516 314.937 104.299 314.739 104.138C314.541 103.977 314.273 103.896 313.936 103.896C313.606 103.896 313.353 103.958 313.177 104.083C313.001 104.208 312.913 104.373 312.913 104.578C312.913 104.739 312.971 104.875 313.089 104.985C313.206 105.095 313.349 105.183 313.518 105.249C313.686 105.308 313.936 105.385 314.266 105.48C314.706 105.597 315.065 105.718 315.344 105.843C315.63 105.96 315.875 106.136 316.081 106.371C316.286 106.606 316.392 106.917 316.4 107.306C316.4 107.651 316.304 107.959 316.114 108.23C315.923 108.501 315.652 108.714 315.3 108.868C314.955 109.022 314.548 109.099 314.079 109.099ZM319.955 109.099C319.478 109.099 319.049 109.015 318.668 108.846C318.294 108.67 317.997 108.435 317.777 108.142C317.557 107.841 317.439 107.508 317.425 107.141H318.723C318.745 107.398 318.866 107.614 319.086 107.79C319.313 107.959 319.595 108.043 319.933 108.043C320.285 108.043 320.556 107.977 320.747 107.845C320.945 107.706 321.044 107.53 321.044 107.317C321.044 107.09 320.934 106.921 320.714 106.811C320.501 106.701 320.16 106.58 319.691 106.448C319.236 106.323 318.866 106.202 318.58 106.085C318.294 105.968 318.044 105.788 317.832 105.546C317.626 105.304 317.524 104.985 317.524 104.589C317.524 104.266 317.619 103.973 317.81 103.709C318 103.438 318.272 103.225 318.624 103.071C318.983 102.917 319.394 102.84 319.856 102.84C320.545 102.84 321.099 103.016 321.517 103.368C321.942 103.713 322.169 104.186 322.199 104.787H320.945C320.923 104.516 320.813 104.299 320.615 104.138C320.417 103.977 320.149 103.896 319.812 103.896C319.482 103.896 319.229 103.958 319.053 104.083C318.877 104.208 318.789 104.373 318.789 104.578C318.789 104.739 318.847 104.875 318.965 104.985C319.082 105.095 319.225 105.183 319.394 105.249C319.562 105.308 319.812 105.385 320.142 105.48C320.582 105.597 320.941 105.718 321.22 105.843C321.506 105.96 321.751 106.136 321.957 106.371C322.162 106.606 322.268 106.917 322.276 107.306C322.276 107.651 322.18 107.959 321.99 108.23C321.799 108.501 321.528 108.714 321.176 108.868C320.831 109.022 320.424 109.099 319.955 109.099ZM329.12 102.939V109H327.866V108.285C327.668 108.534 327.407 108.732 327.085 108.879C326.769 109.018 326.432 109.088 326.073 109.088C325.596 109.088 325.167 108.989 324.786 108.791C324.412 108.593 324.115 108.3 323.895 107.911C323.682 107.522 323.576 107.053 323.576 106.503V102.939H324.819V106.316C324.819 106.859 324.954 107.277 325.226 107.57C325.497 107.856 325.867 107.999 326.337 107.999C326.806 107.999 327.176 107.856 327.448 107.57C327.726 107.277 327.866 106.859 327.866 106.316V102.939H329.12ZM336.329 105.821C336.329 106.048 336.315 106.254 336.285 106.437H331.654C331.691 106.921 331.871 107.31 332.193 107.603C332.516 107.896 332.912 108.043 333.381 108.043C334.056 108.043 334.533 107.761 334.811 107.196H336.164C335.981 107.753 335.647 108.212 335.163 108.571C334.687 108.923 334.093 109.099 333.381 109.099C332.802 109.099 332.281 108.971 331.819 108.714C331.365 108.45 331.005 108.083 330.741 107.614C330.485 107.137 330.356 106.587 330.356 105.964C330.356 105.341 330.481 104.794 330.73 104.325C330.987 103.848 331.343 103.482 331.797 103.225C332.259 102.968 332.787 102.84 333.381 102.84C333.953 102.84 334.463 102.965 334.91 103.214C335.358 103.463 335.706 103.815 335.955 104.27C336.205 104.717 336.329 105.234 336.329 105.821ZM335.02 105.425C335.013 104.963 334.848 104.593 334.525 104.314C334.203 104.035 333.803 103.896 333.326 103.896C332.894 103.896 332.523 104.035 332.215 104.314C331.907 104.585 331.724 104.956 331.665 105.425H335.02ZM339.763 109.099C339.287 109.099 338.858 109.015 338.476 108.846C338.102 108.67 337.805 108.435 337.585 108.142C337.365 107.841 337.248 107.508 337.233 107.141H338.531C338.553 107.398 338.674 107.614 338.894 107.79C339.122 107.959 339.404 108.043 339.741 108.043C340.093 108.043 340.365 107.977 340.555 107.845C340.753 107.706 340.852 107.53 340.852 107.317C340.852 107.09 340.742 106.921 340.522 106.811C340.31 106.701 339.969 106.58 339.499 106.448C339.045 106.323 338.674 106.202 338.388 106.085C338.102 105.968 337.853 105.788 337.64 105.546C337.435 105.304 337.332 104.985 337.332 104.589C337.332 104.266 337.428 103.973 337.618 103.709C337.809 103.438 338.08 103.225 338.432 103.071C338.792 102.917 339.202 102.84 339.664 102.84C340.354 102.84 340.907 103.016 341.325 103.368C341.751 103.713 341.978 104.186 342.007 104.787H340.753C340.731 104.516 340.621 104.299 340.423 104.138C340.225 103.977 339.958 103.896 339.62 103.896C339.29 103.896 339.037 103.958 338.861 104.083C338.685 104.208 338.597 104.373 338.597 104.578C338.597 104.739 338.656 104.875 338.773 104.985C338.891 105.095 339.034 105.183 339.202 105.249C339.371 105.308 339.62 105.385 339.95 105.48C340.39 105.597 340.75 105.718 341.028 105.843C341.314 105.96 341.56 106.136 341.765 106.371C341.971 106.606 342.077 106.917 342.084 107.306C342.084 107.651 341.989 107.959 341.798 108.23C341.608 108.501 341.336 108.714 340.984 108.868C340.64 109.022 340.233 109.099 339.763 109.099Z"></path>
<mask fill="white" id="path-2-inside-1_627_2">
<path d="M370 95C370 92.2386 372.239 90 375 90H465C467.761 90 470 92.2386 470 95V115C470 117.761 467.761 120 465 120H375C372.239 120 370 117.761 370 115V95Z"></path>
</mask>
<path fill-opacity="0.05" fill="white" d="M370 95C370 92.2386 372.239 90 375 90H465C467.761 90 470 92.2386 470 95V115C470 117.761 467.761 120 465 120H375C372.239 120 370 117.761 370 115V95Z"></path>
<path mask="url(#path-2-inside-1_627_2)" fill-opacity="0.05" fill="white" d="M370 95C370 91.6863 372.686 89 376 89H464C467.314 89 470 91.6863 470 95C470 92.7909 467.761 91 465 91H375C372.239 91 370 92.7909 370 95ZM470 120H370H470ZM370 120V90V120ZM470 90V120V90Z"></path>
<path fill="white" d="M402.844 105.161C402.844 104.413 403.016 103.742 403.361 103.148C403.713 102.554 404.186 102.092 404.78 101.762C405.381 101.425 406.037 101.256 406.749 101.256C407.563 101.256 408.285 101.458 408.916 101.861C409.554 102.257 410.016 102.822 410.302 103.555H408.795C408.597 103.152 408.322 102.851 407.97 102.653C407.618 102.455 407.211 102.356 406.749 102.356C406.243 102.356 405.792 102.47 405.396 102.697C405 102.924 404.688 103.251 404.461 103.676C404.241 104.101 404.131 104.596 404.131 105.161C404.131 105.726 404.241 106.221 404.461 106.646C404.688 107.071 405 107.401 405.396 107.636C405.792 107.863 406.243 107.977 406.749 107.977C407.211 107.977 407.618 107.878 407.97 107.68C408.322 107.482 408.597 107.181 408.795 106.778H410.302C410.016 107.511 409.554 108.076 408.916 108.472C408.285 108.868 407.563 109.066 406.749 109.066C406.03 109.066 405.374 108.901 404.78 108.571C404.186 108.234 403.713 107.768 403.361 107.174C403.016 106.58 402.844 105.909 402.844 105.161ZM414.904 102.84C415.366 102.84 415.777 102.939 416.136 103.137C416.503 103.335 416.789 103.628 416.994 104.017C417.207 104.406 417.313 104.875 417.313 105.425V109H416.07V105.612C416.07 105.069 415.935 104.655 415.663 104.369C415.392 104.076 415.022 103.929 414.552 103.929C414.083 103.929 413.709 104.076 413.43 104.369C413.159 104.655 413.023 105.069 413.023 105.612V109H411.769V100.86H413.023V103.643C413.236 103.386 413.504 103.188 413.826 103.049C414.156 102.91 414.516 102.84 414.904 102.84ZM424.468 105.821C424.468 106.048 424.453 106.254 424.424 106.437H419.793C419.83 106.921 420.009 107.31 420.332 107.603C420.655 107.896 421.051 108.043 421.52 108.043C422.195 108.043 422.671 107.761 422.95 107.196H424.303C424.12 107.753 423.786 108.212 423.302 108.571C422.825 108.923 422.231 109.099 421.52 109.099C420.941 109.099 420.42 108.971 419.958 108.714C419.503 108.45 419.144 108.083 418.88 107.614C418.623 107.137 418.495 106.587 418.495 105.964C418.495 105.341 418.62 104.794 418.869 104.325C419.126 103.848 419.481 103.482 419.936 103.225C420.398 102.968 420.926 102.84 421.52 102.84C422.092 102.84 422.602 102.965 423.049 103.214C423.496 103.463 423.845 103.815 424.094 104.27C424.343 104.717 424.468 105.234 424.468 105.821ZM423.159 105.425C423.152 104.963 422.987 104.593 422.664 104.314C422.341 104.035 421.942 103.896 421.465 103.896C421.032 103.896 420.662 104.035 420.354 104.314C420.046 104.585 419.863 104.956 419.804 105.425H423.159ZM425.284 105.964C425.284 105.341 425.409 104.794 425.658 104.325C425.915 103.848 426.267 103.482 426.714 103.225C427.161 102.968 427.675 102.84 428.254 102.84C428.987 102.84 429.592 103.016 430.069 103.368C430.553 103.713 430.879 104.208 431.048 104.853H429.695C429.585 104.552 429.409 104.318 429.167 104.149C428.925 103.98 428.621 103.896 428.254 103.896C427.741 103.896 427.33 104.079 427.022 104.446C426.721 104.805 426.571 105.311 426.571 105.964C426.571 106.617 426.721 107.126 427.022 107.493C427.33 107.86 427.741 108.043 428.254 108.043C428.98 108.043 429.46 107.724 429.695 107.086H431.048C430.872 107.702 430.542 108.193 430.058 108.56C429.574 108.919 428.973 109.099 428.254 109.099C427.675 109.099 427.161 108.971 426.714 108.714C426.267 108.45 425.915 108.083 425.658 107.614C425.409 107.137 425.284 106.587 425.284 105.964ZM434.696 105.975L437.49 109H435.796L433.552 106.393V109H432.298V100.86H433.552V105.59L435.752 102.939H437.49L434.696 105.975Z"></path>
<path fill="white" d="M220.731 149H219.477L215.704 143.291V149H214.45V141.344H215.704L219.477 147.042V141.344H220.731V149ZM225.006 149.099C224.434 149.099 223.917 148.971 223.455 148.714C222.993 148.45 222.63 148.083 222.366 147.614C222.102 147.137 221.97 146.587 221.97 145.964C221.97 145.348 222.106 144.802 222.377 144.325C222.649 143.848 223.019 143.482 223.488 143.225C223.958 142.968 224.482 142.84 225.061 142.84C225.641 142.84 226.165 142.968 226.634 143.225C227.104 143.482 227.474 143.848 227.745 144.325C228.017 144.802 228.152 145.348 228.152 145.964C228.152 146.58 228.013 147.126 227.734 147.603C227.456 148.08 227.074 148.45 226.59 148.714C226.114 148.971 225.586 149.099 225.006 149.099ZM225.006 148.01C225.329 148.01 225.63 147.933 225.908 147.779C226.194 147.625 226.425 147.394 226.601 147.086C226.777 146.778 226.865 146.404 226.865 145.964C226.865 145.524 226.781 145.154 226.612 144.853C226.444 144.545 226.22 144.314 225.941 144.16C225.663 144.006 225.362 143.929 225.039 143.929C224.717 143.929 224.416 144.006 224.137 144.16C223.866 144.314 223.65 144.545 223.488 144.853C223.327 145.154 223.246 145.524 223.246 145.964C223.246 146.617 223.411 147.123 223.741 147.482C224.079 147.834 224.5 148.01 225.006 148.01ZM234.79 143.962H233.668V149H232.403V143.962H231.688V142.939H232.403V142.51C232.403 141.813 232.587 141.307 232.953 140.992C233.327 140.669 233.91 140.508 234.702 140.508V141.553C234.321 141.553 234.053 141.626 233.899 141.773C233.745 141.912 233.668 142.158 233.668 142.51V142.939H234.79V143.962ZM236.54 142.136C236.312 142.136 236.122 142.059 235.968 141.905C235.814 141.751 235.737 141.56 235.737 141.333C235.737 141.106 235.814 140.915 235.968 140.761C236.122 140.607 236.312 140.53 236.54 140.53C236.76 140.53 236.947 140.607 237.101 140.761C237.255 140.915 237.332 141.106 237.332 141.333C237.332 141.56 237.255 141.751 237.101 141.905C236.947 142.059 236.76 142.136 236.54 142.136ZM237.156 142.939V149H235.902V142.939H237.156ZM240.056 140.86V149H238.802V140.86H240.056ZM247.257 145.821C247.257 146.048 247.243 146.254 247.213 146.437H242.582C242.619 146.921 242.799 147.31 243.121 147.603C243.444 147.896 243.84 148.043 244.309 148.043C244.984 148.043 245.461 147.761 245.739 147.196H247.092C246.909 147.753 246.575 148.212 246.091 148.571C245.615 148.923 245.021 149.099 244.309 149.099C243.73 149.099 243.209 148.971 242.747 148.714C242.293 148.45 241.933 148.083 241.669 147.614C241.413 147.137 241.284 146.587 241.284 145.964C241.284 145.341 241.409 144.794 241.658 144.325C241.915 143.848 242.271 143.482 242.725 143.225C243.187 142.968 243.715 142.84 244.309 142.84C244.881 142.84 245.391 142.965 245.838 143.214C246.286 143.463 246.634 143.815 246.883 144.27C247.133 144.717 247.257 145.234 247.257 145.821ZM245.948 145.425C245.941 144.963 245.776 144.593 245.453 144.314C245.131 144.035 244.731 143.896 244.254 143.896C243.822 143.896 243.451 144.035 243.143 144.314C242.835 144.585 242.652 144.956 242.593 145.425H245.948ZM253.549 149.099C253.072 149.099 252.643 149.015 252.262 148.846C251.888 148.67 251.591 148.435 251.371 148.142C251.151 147.841 251.034 147.508 251.019 147.141H252.317C252.339 147.398 252.46 147.614 252.68 147.79C252.907 147.959 253.19 148.043 253.527 148.043C253.879 148.043 254.15 147.977 254.341 147.845C254.539 147.706 254.638 147.53 254.638 147.317C254.638 147.09 254.528 146.921 254.308 146.811C254.095 146.701 253.754 146.58 253.285 146.448C252.83 146.323 252.46 146.202 252.174 146.085C251.888 145.968 251.639 145.788 251.426 145.546C251.221 145.304 251.118 144.985 251.118 144.589C251.118 144.266 251.213 143.973 251.404 143.709C251.595 143.438 251.866 143.225 252.218 143.071C252.577 142.917 252.988 142.84 253.45 142.84C254.139 142.84 254.693 143.016 255.111 143.368C255.536 143.713 255.764 144.186 255.793 144.787H254.539C254.517 144.516 254.407 144.299 254.209 144.138C254.011 143.977 253.743 143.896 253.406 143.896C253.076 143.896 252.823 143.958 252.647 144.083C252.471 144.208 252.383 144.373 252.383 144.578C252.383 144.739 252.442 144.875 252.559 144.985C252.676 145.095 252.819 145.183 252.988 145.249C253.157 145.308 253.406 145.385 253.736 145.48C254.176 145.597 254.535 145.718 254.814 145.843C255.1 145.96 255.346 146.136 255.551 146.371C255.756 146.606 255.863 146.917 255.87 147.306C255.87 147.651 255.775 147.959 255.584 148.23C255.393 148.501 255.122 148.714 254.77 148.868C254.425 149.022 254.018 149.099 253.549 149.099ZM262.681 142.939L258.963 151.849H257.665L258.897 148.901L256.51 142.939H257.907L259.612 147.559L261.383 142.939H262.681ZM265.827 149.099C265.351 149.099 264.922 149.015 264.54 148.846C264.166 148.67 263.869 148.435 263.649 148.142C263.429 147.841 263.312 147.508 263.297 147.141H264.595C264.617 147.398 264.738 147.614 264.958 147.79C265.186 147.959 265.468 148.043 265.805 148.043C266.157 148.043 266.429 147.977 266.619 147.845C266.817 147.706 266.916 147.53 266.916 147.317C266.916 147.09 266.806 146.921 266.586 146.811C266.374 146.701 266.033 146.58 265.563 146.448C265.109 146.323 264.738 146.202 264.452 146.085C264.166 145.968 263.917 145.788 263.704 145.546C263.499 145.304 263.396 144.985 263.396 144.589C263.396 144.266 263.492 143.973 263.682 143.709C263.873 143.438 264.144 143.225 264.496 143.071C264.856 142.917 265.266 142.84 265.728 142.84C266.418 142.84 266.971 143.016 267.389 143.368C267.815 143.713 268.042 144.186 268.071 144.787H266.817C266.795 144.516 266.685 144.299 266.487 144.138C266.289 143.977 266.022 143.896 265.684 143.896C265.354 143.896 265.101 143.958 264.925 144.083C264.749 144.208 264.661 144.373 264.661 144.578C264.661 144.739 264.72 144.875 264.837 144.985C264.955 145.095 265.098 145.183 265.266 145.249C265.435 145.308 265.684 145.385 266.014 145.48C266.454 145.597 266.814 145.718 267.092 145.843C267.378 145.96 267.624 146.136 267.829 146.371C268.035 146.606 268.141 146.917 268.148 147.306C268.148 147.651 268.053 147.959 267.862 148.23C267.672 148.501 267.4 148.714 267.048 148.868C266.704 149.022 266.297 149.099 265.827 149.099ZM270.966 143.962V147.317C270.966 147.544 271.018 147.709 271.12 147.812C271.23 147.907 271.414 147.955 271.67 147.955H272.44V149H271.45C270.886 149 270.453 148.868 270.152 148.604C269.852 148.34 269.701 147.911 269.701 147.317V143.962H268.986V142.939H269.701V141.432H270.966V142.939H272.44V143.962H270.966ZM279.151 145.821C279.151 146.048 279.136 146.254 279.107 146.437H274.476C274.513 146.921 274.692 147.31 275.015 147.603C275.338 147.896 275.734 148.043 276.203 148.043C276.878 148.043 277.354 147.761 277.633 147.196H278.986C278.803 147.753 278.469 148.212 277.985 148.571C277.508 148.923 276.914 149.099 276.203 149.099C275.624 149.099 275.103 148.971 274.641 148.714C274.186 148.45 273.827 148.083 273.563 147.614C273.306 147.137 273.178 146.587 273.178 145.964C273.178 145.341 273.303 144.794 273.552 144.325C273.809 143.848 274.164 143.482 274.619 143.225C275.081 142.968 275.609 142.84 276.203 142.84C276.775 142.84 277.285 142.965 277.732 143.214C278.179 143.463 278.528 143.815 278.777 144.27C279.026 144.717 279.151 145.234 279.151 145.821ZM277.842 145.425C277.835 144.963 277.67 144.593 277.347 144.314C277.024 144.035 276.625 143.896 276.148 143.896C275.715 143.896 275.345 144.035 275.037 144.314C274.729 144.585 274.546 144.956 274.487 145.425H277.842ZM287.722 142.84C288.199 142.84 288.624 142.939 288.998 143.137C289.379 143.335 289.676 143.628 289.889 144.017C290.109 144.406 290.219 144.875 290.219 145.425V149H288.976V145.612C288.976 145.069 288.84 144.655 288.569 144.369C288.298 144.076 287.927 143.929 287.458 143.929C286.989 143.929 286.615 144.076 286.336 144.369C286.065 144.655 285.929 145.069 285.929 145.612V149H284.686V145.612C284.686 145.069 284.55 144.655 284.279 144.369C284.008 144.076 283.637 143.929 283.168 143.929C282.699 143.929 282.325 144.076 282.046 144.369C281.775 144.655 281.639 145.069 281.639 145.612V149H280.385V142.939H281.639V143.632C281.844 143.383 282.105 143.188 282.42 143.049C282.735 142.91 283.073 142.84 283.432 142.84C283.916 142.84 284.349 142.943 284.73 143.148C285.111 143.353 285.405 143.65 285.61 144.039C285.793 143.672 286.079 143.383 286.468 143.17C286.857 142.95 287.275 142.84 287.722 142.84ZM295.31 142.136C295.083 142.136 294.892 142.059 294.738 141.905C294.584 141.751 294.507 141.56 294.507 141.333C294.507 141.106 294.584 140.915 294.738 140.761C294.892 140.607 295.083 140.53 295.31 140.53C295.53 140.53 295.717 140.607 295.871 140.761C296.025 140.915 296.102 141.106 296.102 141.333C296.102 141.56 296.025 141.751 295.871 141.905C295.717 142.059 295.53 142.136 295.31 142.136ZM295.926 142.939V149H294.672V142.939H295.926ZM299.773 149.099C299.296 149.099 298.867 149.015 298.486 148.846C298.112 148.67 297.815 148.435 297.595 148.142C297.375 147.841 297.257 147.508 297.243 147.141H298.541C298.563 147.398 298.684 147.614 298.904 147.79C299.131 147.959 299.413 148.043 299.751 148.043C300.103 148.043 300.374 147.977 300.565 147.845C300.763 147.706 300.862 147.53 300.862 147.317C300.862 147.09 300.752 146.921 300.532 146.811C300.319 146.701 299.978 146.58 299.509 146.448C299.054 146.323 298.684 146.202 298.398 146.085C298.112 145.968 297.862 145.788 297.65 145.546C297.444 145.304 297.342 144.985 297.342 144.589C297.342 144.266 297.437 143.973 297.628 143.709C297.818 143.438 298.09 143.225 298.442 143.071C298.801 142.917 299.212 142.84 299.674 142.84C300.363 142.84 300.917 143.016 301.335 143.368C301.76 143.713 301.987 144.186 302.017 144.787H300.763C300.741 144.516 300.631 144.299 300.433 144.138C300.235 143.977 299.967 143.896 299.63 143.896C299.3 143.896 299.047 143.958 298.871 144.083C298.695 144.208 298.607 144.373 298.607 144.578C298.607 144.739 298.665 144.875 298.783 144.985C298.9 145.095 299.043 145.183 299.212 145.249C299.38 145.308 299.63 145.385 299.96 145.48C300.4 145.597 300.759 145.718 301.038 145.843C301.324 145.96 301.569 146.136 301.775 146.371C301.98 146.606 302.086 146.917 302.094 147.306C302.094 147.651 301.998 147.959 301.808 148.23C301.617 148.501 301.346 148.714 300.994 148.868C300.649 149.022 300.242 149.099 299.773 149.099ZM305.649 149.099C305.172 149.099 304.743 149.015 304.362 148.846C303.988 148.67 303.691 148.435 303.471 148.142C303.251 147.841 303.133 147.508 303.119 147.141H304.417C304.439 147.398 304.56 147.614 304.78 147.79C305.007 147.959 305.289 148.043 305.627 148.043C305.979 148.043 306.25 147.977 306.441 147.845C306.639 147.706 306.738 147.53 306.738 147.317C306.738 147.09 306.628 146.921 306.408 146.811C306.195 146.701 305.854 146.58 305.385 146.448C304.93 146.323 304.56 146.202 304.274 146.085C303.988 145.968 303.738 145.788 303.526 145.546C303.32 145.304 303.218 144.985 303.218 144.589C303.218 144.266 303.313 143.973 303.504 143.709C303.694 143.438 303.966 143.225 304.318 143.071C304.677 142.917 305.088 142.84 305.55 142.84C306.239 142.84 306.793 143.016 307.211 143.368C307.636 143.713 307.863 144.186 307.893 144.787H306.639C306.617 144.516 306.507 144.299 306.309 144.138C306.111 143.977 305.843 143.896 305.506 143.896C305.176 143.896 304.923 143.958 304.747 144.083C304.571 144.208 304.483 144.373 304.483 144.578C304.483 144.739 304.541 144.875 304.659 144.985C304.776 145.095 304.919 145.183 305.088 145.249C305.256 145.308 305.506 145.385 305.836 145.48C306.276 145.597 306.635 145.718 306.914 145.843C307.2 145.96 307.445 146.136 307.651 146.371C307.856 146.606 307.962 146.917 307.97 147.306C307.97 147.651 307.874 147.959 307.684 148.23C307.493 148.501 307.222 148.714 306.87 148.868C306.525 149.022 306.118 149.099 305.649 149.099ZM314.814 142.939V149H313.56V148.285C313.362 148.534 313.101 148.732 312.779 148.879C312.463 149.018 312.126 149.088 311.767 149.088C311.29 149.088 310.861 148.989 310.48 148.791C310.106 148.593 309.809 148.3 309.589 147.911C309.376 147.522 309.27 147.053 309.27 146.503V142.939H310.513V146.316C310.513 146.859 310.648 147.277 310.92 147.57C311.191 147.856 311.561 147.999 312.031 147.999C312.5 147.999 312.87 147.856 313.142 147.57C313.42 147.277 313.56 146.859 313.56 146.316V142.939H314.814ZM322.023 145.821C322.023 146.048 322.008 146.254 321.979 146.437H317.348C317.385 146.921 317.564 147.31 317.887 147.603C318.21 147.896 318.606 148.043 319.075 148.043C319.75 148.043 320.226 147.761 320.505 147.196H321.858C321.675 147.753 321.341 148.212 320.857 148.571C320.38 148.923 319.786 149.099 319.075 149.099C318.496 149.099 317.975 148.971 317.513 148.714C317.058 148.45 316.699 148.083 316.435 147.614C316.178 147.137 316.05 146.587 316.05 145.964C316.05 145.341 316.175 144.794 316.424 144.325C316.681 143.848 317.036 143.482 317.491 143.225C317.953 142.968 318.481 142.84 319.075 142.84C319.647 142.84 320.157 142.965 320.604 143.214C321.051 143.463 321.4 143.815 321.649 144.27C321.898 144.717 322.023 145.234 322.023 145.821ZM320.714 145.425C320.707 144.963 320.542 144.593 320.219 144.314C319.896 144.035 319.497 143.896 319.02 143.896C318.587 143.896 318.217 144.035 317.909 144.314C317.601 144.585 317.418 144.956 317.359 145.425H320.714ZM325.457 149.099C324.98 149.099 324.551 149.015 324.17 148.846C323.796 148.67 323.499 148.435 323.279 148.142C323.059 147.841 322.942 147.508 322.927 147.141H324.225C324.247 147.398 324.368 147.614 324.588 147.79C324.815 147.959 325.098 148.043 325.435 148.043C325.787 148.043 326.058 147.977 326.249 147.845C326.447 147.706 326.546 147.53 326.546 147.317C326.546 147.09 326.436 146.921 326.216 146.811C326.003 146.701 325.662 146.58 325.193 146.448C324.738 146.323 324.368 146.202 324.082 146.085C323.796 145.968 323.547 145.788 323.334 145.546C323.129 145.304 323.026 144.985 323.026 144.589C323.026 144.266 323.121 143.973 323.312 143.709C323.503 143.438 323.774 143.225 324.126 143.071C324.485 142.917 324.896 142.84 325.358 142.84C326.047 142.84 326.601 143.016 327.019 143.368C327.444 143.713 327.672 144.186 327.701 144.787H326.447C326.425 144.516 326.315 144.299 326.117 144.138C325.919 143.977 325.651 143.896 325.314 143.896C324.984 143.896 324.731 143.958 324.555 144.083C324.379 144.208 324.291 144.373 324.291 144.578C324.291 144.739 324.35 144.875 324.467 144.985C324.584 145.095 324.727 145.183 324.896 145.249C325.065 145.308 325.314 145.385 325.644 145.48C326.084 145.597 326.443 145.718 326.722 145.843C327.008 145.96 327.254 146.136 327.459 146.371C327.664 146.606 327.771 146.917 327.778 147.306C327.778 147.651 327.683 147.959 327.492 148.23C327.301 148.501 327.03 148.714 326.678 148.868C326.333 149.022 325.926 149.099 325.457 149.099ZM335.126 142.84C335.588 142.84 335.998 142.939 336.358 143.137C336.724 143.335 337.01 143.628 337.216 144.017C337.428 144.406 337.535 144.875 337.535 145.425V149H336.292V145.612C336.292 145.069 336.156 144.655 335.885 144.369C335.613 144.076 335.243 143.929 334.774 143.929C334.304 143.929 333.93 144.076 333.652 144.369C333.38 144.655 333.245 145.069 333.245 145.612V149H331.991V140.86H333.245V143.643C333.457 143.386 333.725 143.188 334.048 143.049C334.378 142.91 334.737 142.84 335.126 142.84ZM338.716 145.942C338.716 145.333 338.841 144.794 339.09 144.325C339.347 143.856 339.691 143.493 340.124 143.236C340.564 142.972 341.048 142.84 341.576 142.84C342.053 142.84 342.467 142.935 342.819 143.126C343.178 143.309 343.464 143.54 343.677 143.819V142.939H344.942V149H343.677V148.098C343.464 148.384 343.175 148.622 342.808 148.813C342.441 149.004 342.023 149.099 341.554 149.099C341.033 149.099 340.557 148.967 340.124 148.703C339.691 148.432 339.347 148.058 339.09 147.581C338.841 147.097 338.716 146.551 338.716 145.942ZM343.677 145.964C343.677 145.546 343.589 145.183 343.413 144.875C343.244 144.567 343.021 144.332 342.742 144.171C342.463 144.01 342.163 143.929 341.84 143.929C341.517 143.929 341.217 144.01 340.938 144.171C340.659 144.325 340.432 144.556 340.256 144.864C340.087 145.165 340.003 145.524 340.003 145.942C340.003 146.36 340.087 146.727 340.256 147.042C340.432 147.357 340.659 147.599 340.938 147.768C341.224 147.929 341.525 148.01 341.84 148.01C342.163 148.01 342.463 147.929 342.742 147.768C343.021 147.607 343.244 147.372 343.413 147.064C343.589 146.749 343.677 146.382 343.677 145.964ZM348.932 147.878L350.648 142.939H351.979L349.669 149H348.173L345.874 142.939H347.216L348.932 147.878ZM358.482 145.821C358.482 146.048 358.467 146.254 358.438 146.437H353.807C353.844 146.921 354.023 147.31 354.346 147.603C354.669 147.896 355.065 148.043 355.534 148.043C356.209 148.043 356.685 147.761 356.964 147.196H358.317C358.134 147.753 357.8 148.212 357.316 148.571C356.839 148.923 356.245 149.099 355.534 149.099C354.955 149.099 354.434 148.971 353.972 148.714C353.517 148.45 353.158 148.083 352.894 147.614C352.637 147.137 352.509 146.587 352.509 145.964C352.509 145.341 352.634 144.794 352.883 144.325C353.14 143.848 353.495 143.482 353.95 143.225C354.412 142.968 354.94 142.84 355.534 142.84C356.106 142.84 356.616 142.965 357.063 143.214C357.51 143.463 357.859 143.815 358.108 144.27C358.357 144.717 358.482 145.234 358.482 145.821ZM357.173 145.425C357.166 144.963 357.001 144.593 356.678 144.314C356.355 144.035 355.956 143.896 355.479 143.896C355.046 143.896 354.676 144.035 354.368 144.314C354.06 144.585 353.877 144.956 353.818 145.425H357.173ZM363.828 143.841C364.04 143.548 364.33 143.309 364.697 143.126C365.071 142.935 365.485 142.84 365.94 142.84C366.475 142.84 366.959 142.968 367.392 143.225C367.824 143.482 368.165 143.848 368.415 144.325C368.664 144.794 368.789 145.333 368.789 145.942C368.789 146.551 368.664 147.097 368.415 147.581C368.165 148.058 367.821 148.432 367.381 148.703C366.948 148.967 366.468 149.099 365.94 149.099C365.47 149.099 365.052 149.007 364.686 148.824C364.326 148.641 364.04 148.406 363.828 148.12V149H362.574V140.86H363.828V143.841ZM367.513 145.942C367.513 145.524 367.425 145.165 367.249 144.864C367.08 144.556 366.853 144.325 366.567 144.171C366.288 144.01 365.987 143.929 365.665 143.929C365.349 143.929 365.049 144.01 364.763 144.171C364.484 144.332 364.257 144.567 364.081 144.875C363.912 145.183 363.828 145.546 363.828 145.964C363.828 146.382 363.912 146.749 364.081 147.064C364.257 147.372 364.484 147.607 364.763 147.768C365.049 147.929 365.349 148.01 365.665 148.01C365.987 148.01 366.288 147.929 366.567 147.768C366.853 147.599 367.08 147.357 367.249 147.042C367.425 146.727 367.513 146.36 367.513 145.942ZM375.584 145.821C375.584 146.048 375.569 146.254 375.54 146.437H370.909C370.945 146.921 371.125 147.31 371.448 147.603C371.77 147.896 372.166 148.043 372.636 148.043C373.31 148.043 373.787 147.761 374.066 147.196H375.419C375.235 147.753 374.902 148.212 374.418 148.571C373.941 148.923 373.347 149.099 372.636 149.099C372.056 149.099 371.536 148.971 371.074 148.714C370.619 148.45 370.26 148.083 369.996 147.614C369.739 147.137 369.611 146.587 369.611 145.964C369.611 145.341 369.735 144.794 369.985 144.325C370.241 143.848 370.597 143.482 371.052 143.225C371.514 142.968 372.042 142.84 372.636 142.84C373.208 142.84 373.717 142.965 374.165 143.214C374.612 143.463 374.96 143.815 375.21 144.27C375.459 144.717 375.584 145.234 375.584 145.821ZM374.275 145.425C374.267 144.963 374.102 144.593 373.78 144.314C373.457 144.035 373.057 143.896 372.581 143.896C372.148 143.896 371.778 144.035 371.47 144.314C371.162 144.585 370.978 144.956 370.92 145.425H374.275ZM382.373 145.821C382.373 146.048 382.358 146.254 382.329 146.437H377.698C377.734 146.921 377.914 147.31 378.237 147.603C378.559 147.896 378.955 148.043 379.425 148.043C380.099 148.043 380.576 147.761 380.855 147.196H382.208C382.024 147.753 381.691 148.212 381.207 148.571C380.73 148.923 380.136 149.099 379.425 149.099C378.845 149.099 378.325 148.971 377.863 148.714C377.408 148.45 377.049 148.083 376.785 147.614C376.528 147.137 376.4 146.587 376.4 145.964C376.4 145.341 376.524 144.794 376.774 144.325C377.03 143.848 377.386 143.482 377.841 143.225C378.303 142.968 378.831 142.84 379.425 142.84C379.997 142.84 380.506 142.965 380.954 143.214C381.401 143.463 381.749 143.815 381.999 144.27C382.248 144.717 382.373 145.234 382.373 145.821ZM381.064 145.425C381.056 144.963 380.891 144.593 380.569 144.314C380.246 144.035 379.846 143.896 379.37 143.896C378.937 143.896 378.567 144.035 378.259 144.314C377.951 144.585 377.767 144.956 377.709 145.425H381.064ZM386.665 142.84C387.141 142.84 387.567 142.939 387.941 143.137C388.322 143.335 388.619 143.628 388.832 144.017C389.044 144.406 389.151 144.875 389.151 145.425V149H387.908V145.612C387.908 145.069 387.772 144.655 387.501 144.369C387.229 144.076 386.859 143.929 386.39 143.929C385.92 143.929 385.546 144.076 385.268 144.369C384.996 144.655 384.861 145.069 384.861 145.612V149H383.607V142.939H384.861V143.632C385.066 143.383 385.326 143.188 385.642 143.049C385.964 142.91 386.305 142.84 386.665 142.84ZM393.19 145.942C393.19 145.333 393.314 144.794 393.564 144.325C393.82 143.856 394.165 143.493 394.598 143.236C395.038 142.972 395.525 142.84 396.061 142.84C396.457 142.84 396.845 142.928 397.227 143.104C397.615 143.273 397.923 143.5 398.151 143.786V140.86H399.416V149H398.151V148.087C397.945 148.38 397.659 148.622 397.293 148.813C396.933 149.004 396.519 149.099 396.05 149.099C395.522 149.099 395.038 148.967 394.598 148.703C394.165 148.432 393.82 148.058 393.564 147.581C393.314 147.097 393.19 146.551 393.19 145.942ZM398.151 145.964C398.151 145.546 398.063 145.183 397.887 144.875C397.718 144.567 397.494 144.332 397.216 144.171C396.937 144.01 396.636 143.929 396.314 143.929C395.991 143.929 395.69 144.01 395.412 144.171C395.133 144.325 394.906 144.556 394.73 144.864C394.561 145.165 394.477 145.524 394.477 145.942C394.477 146.36 394.561 146.727 394.73 147.042C394.906 147.357 395.133 147.599 395.412 147.768C395.698 147.929 395.998 148.01 396.314 148.01C396.636 148.01 396.937 147.929 397.216 147.768C397.494 147.607 397.718 147.372 397.887 147.064C398.063 146.749 398.151 146.382 398.151 145.964ZM406.618 145.821C406.618 146.048 406.603 146.254 406.574 146.437H401.943C401.979 146.921 402.159 147.31 402.482 147.603C402.804 147.896 403.2 148.043 403.67 148.043C404.344 148.043 404.821 147.761 405.1 147.196H406.453C406.269 147.753 405.936 148.212 405.452 148.571C404.975 148.923 404.381 149.099 403.67 149.099C403.09 149.099 402.57 148.971 402.108 148.714C401.653 148.45 401.294 148.083 401.03 147.614C400.773 147.137 400.645 146.587 400.645 145.964C400.645 145.341 400.769 144.794 401.019 144.325C401.275 143.848 401.631 143.482 402.086 143.225C402.548 142.968 403.076 142.84 403.67 142.84C404.242 142.84 404.751 142.965 405.199 143.214C405.646 143.463 405.994 143.815 406.244 144.27C406.493 144.717 406.618 145.234 406.618 145.821ZM405.309 145.425C405.301 144.963 405.136 144.593 404.814 144.314C404.491 144.035 404.091 143.896 403.615 143.896C403.182 143.896 402.812 144.035 402.504 144.314C402.196 144.585 402.012 144.956 401.954 145.425H405.309ZM409.315 143.962V147.317C409.315 147.544 409.366 147.709 409.469 147.812C409.579 147.907 409.762 147.955 410.019 147.955H410.789V149H409.799C409.234 149 408.802 148.868 408.501 148.604C408.2 148.34 408.05 147.911 408.05 147.317V143.962H407.335V142.939H408.05V141.432H409.315V142.939H410.789V143.962H409.315ZM417.5 145.821C417.5 146.048 417.485 146.254 417.456 146.437H412.825C412.861 146.921 413.041 147.31 413.364 147.603C413.686 147.896 414.082 148.043 414.552 148.043C415.226 148.043 415.703 147.761 415.982 147.196H417.335C417.151 147.753 416.818 148.212 416.334 148.571C415.857 148.923 415.263 149.099 414.552 149.099C413.972 149.099 413.452 148.971 412.99 148.714C412.535 148.45 412.176 148.083 411.912 147.614C411.655 147.137 411.527 146.587 411.527 145.964C411.527 145.341 411.651 144.794 411.901 144.325C412.157 143.848 412.513 143.482 412.968 143.225C413.43 142.968 413.958 142.84 414.552 142.84C415.124 142.84 415.633 142.965 416.081 143.214C416.528 143.463 416.876 143.815 417.126 144.27C417.375 144.717 417.5 145.234 417.5 145.821ZM416.191 145.425C416.183 144.963 416.018 144.593 415.696 144.314C415.373 144.035 414.973 143.896 414.497 143.896C414.064 143.896 413.694 144.035 413.386 144.314C413.078 144.585 412.894 144.956 412.836 145.425H416.191ZM418.316 145.964C418.316 145.341 418.44 144.794 418.69 144.325C418.946 143.848 419.298 143.482 419.746 143.225C420.193 142.968 420.706 142.84 421.286 142.84C422.019 142.84 422.624 143.016 423.101 143.368C423.585 143.713 423.911 144.208 424.08 144.853H422.727C422.617 144.552 422.441 144.318 422.199 144.149C421.957 143.98 421.652 143.896 421.286 143.896C420.772 143.896 420.362 144.079 420.054 144.446C419.753 144.805 419.603 145.311 419.603 145.964C419.603 146.617 419.753 147.126 420.054 147.493C420.362 147.86 420.772 148.043 421.286 148.043C422.012 148.043 422.492 147.724 422.727 147.086H424.08C423.904 147.702 423.574 148.193 423.09 148.56C422.606 148.919 422.004 149.099 421.286 149.099C420.706 149.099 420.193 148.971 419.746 148.714C419.298 148.45 418.946 148.083 418.69 147.614C418.44 147.137 418.316 146.587 418.316 145.964ZM426.792 143.962V147.317C426.792 147.544 426.844 147.709 426.946 147.812C427.056 147.907 427.24 147.955 427.496 147.955H428.266V149H427.276C426.712 149 426.279 148.868 425.978 148.604C425.678 148.34 425.527 147.911 425.527 147.317V143.962H424.812V142.939H425.527V141.432H426.792V142.939H428.266V143.962H426.792ZM434.977 145.821C434.977 146.048 434.963 146.254 434.933 146.437H430.302C430.339 146.921 430.519 147.31 430.841 147.603C431.164 147.896 431.56 148.043 432.029 148.043C432.704 148.043 433.181 147.761 433.459 147.196H434.812C434.629 147.753 434.295 148.212 433.811 148.571C433.335 148.923 432.741 149.099 432.029 149.099C431.45 149.099 430.929 148.971 430.467 148.714C430.013 148.45 429.653 148.083 429.389 147.614C429.133 147.137 429.004 146.587 429.004 145.964C429.004 145.341 429.129 144.794 429.378 144.325C429.635 143.848 429.991 143.482 430.445 143.225C430.907 142.968 431.435 142.84 432.029 142.84C432.601 142.84 433.111 142.965 433.558 143.214C434.006 143.463 434.354 143.815 434.603 144.27C434.853 144.717 434.977 145.234 434.977 145.821ZM433.668 145.425C433.661 144.963 433.496 144.593 433.173 144.314C432.851 144.035 432.451 143.896 431.974 143.896C431.542 143.896 431.171 144.035 430.863 144.314C430.555 144.585 430.372 144.956 430.313 145.425H433.668ZM435.793 145.942C435.793 145.333 435.918 144.794 436.167 144.325C436.424 143.856 436.769 143.493 437.201 143.236C437.641 142.972 438.129 142.84 438.664 142.84C439.06 142.84 439.449 142.928 439.83 143.104C440.219 143.273 440.527 143.5 440.754 143.786V140.86H442.019V149H440.754V148.087C440.549 148.38 440.263 148.622 439.896 148.813C439.537 149.004 439.123 149.099 438.653 149.099C438.125 149.099 437.641 148.967 437.201 148.703C436.769 148.432 436.424 148.058 436.167 147.581C435.918 147.097 435.793 146.551 435.793 145.942ZM440.754 145.964C440.754 145.546 440.666 145.183 440.49 144.875C440.322 144.567 440.098 144.332 439.819 144.171C439.541 144.01 439.24 143.929 438.917 143.929C438.595 143.929 438.294 144.01 438.015 144.171C437.737 144.325 437.509 144.556 437.333 144.864C437.165 145.165 437.08 145.524 437.08 145.942C437.08 146.36 437.165 146.727 437.333 147.042C437.509 147.357 437.737 147.599 438.015 147.768C438.301 147.929 438.602 148.01 438.917 148.01C439.24 148.01 439.541 147.929 439.819 147.768C440.098 147.607 440.322 147.372 440.49 147.064C440.666 146.749 440.754 146.382 440.754 145.964ZM445.239 141.355L445.096 146.69H444.051L443.908 141.355H445.239ZM444.612 149.077C444.385 149.077 444.194 149 444.04 148.846C443.886 148.692 443.809 148.501 443.809 148.274C443.809 148.047 443.886 147.856 444.04 147.702C444.194 147.548 444.385 147.471 444.612 147.471C444.832 147.471 445.019 147.548 445.173 147.702C445.327 147.856 445.404 148.047 445.404 148.274C445.404 148.501 445.327 148.692 445.173 148.846C445.019 149 444.832 149.077 444.612 149.077Z"></path>
</svg>
