<svg xmlns="http://www.w3.org/2000/svg" fill="none" viewBox="0 0 480 360" height="360" width="480">
<rect fill-opacity="0.05" fill="#D9D9D9" rx="5" height="36" width="36" y="50" x="267"></rect>
<path stroke="#0076B3" d="M284.5 66.5C284.5 65.9477 284.948 65.5 285.5 65.5H290.5C291.052 65.5 291.5 65.9477 291.5 66.5V74.5C291.5 75.0523 291.052 75.5 290.5 75.5H285.5C284.948 75.5 284.5 75.0523 284.5 74.5V66.5Z"></path>
<path stroke-linecap="round" stroke="#333333" d="M289.5 63.5V62.5C289.5 61.9477 289.052 61.5 288.5 61.5H286.5M282.5 75.5H279.5C278.948 75.5 278.5 75.0523 278.5 74.5V62.5C278.5 61.9477 278.948 61.5 279.5 61.5H281.5M281.5 61.5V61.5C281.5 60.9477 281.948 60.5 282.5 60.5H285.5C286.052 60.5 286.5 60.9477 286.5 61.5V61.5M281.5 61.5V61.5C281.5 62.0523 281.948 62.5 282.5 62.5H285.5C286.052 62.5 286.5 62.0523 286.5 61.5V61.5"></path>
</svg>
