<svg xmlns="http://www.w3.org/2000/svg" fill="none" viewBox="0 0 130 10" height="10" width="130">
<path fill="white" d="M1.89541 1.367V3.611H4.53541V4.634H1.89541V6.977H4.86541V8H0.641406V0.344H4.86541V1.367H1.89541ZM10.381 8L8.62096 4.942H7.66396V8H6.40996V0.354999H9.04996C9.63663 0.354999 10.1316 0.457666 10.535 0.662999C10.9456 0.868333 11.25 1.14333 11.448 1.488C11.6533 1.83267 11.756 2.21767 11.756 2.643C11.756 3.14167 11.6093 3.59633 11.316 4.007C11.03 4.41033 10.5863 4.68533 9.98496 4.832L11.877 8H10.381ZM7.66396 3.941H9.04996C9.51929 3.941 9.87129 3.82367 10.106 3.589C10.348 3.35433 10.469 3.039 10.469 2.643C10.469 2.247 10.3516 1.939 10.117 1.719C9.88229 1.49167 9.52663 1.378 9.04996 1.378H7.66396V3.941ZM17.3312 8L15.5712 4.942H14.6142V8H13.3602V0.354999H16.0002C16.5868 0.354999 17.0818 0.457666 17.4852 0.662999C17.8958 0.868333 18.2002 1.14333 18.3982 1.488C18.6035 1.83267 18.7062 2.21767 18.7062 2.643C18.7062 3.14167 18.5595 3.59633 18.2662 4.007C17.9802 4.41033 17.5365 4.68533 16.9352 4.832L18.8272 8H17.3312ZM14.6142 3.941H16.0002C16.4695 3.941 16.8215 3.82367 17.0562 3.589C17.2982 3.35433 17.4192 3.039 17.4192 2.643C17.4192 2.247 17.3018 1.939 17.0672 1.719C16.8325 1.49167 16.4768 1.378 16.0002 1.378H14.6142V3.941ZM27.0094 8.44V9.606H20.8714V8.44H27.0094ZM31.6057 8.077C31.0924 8.077 30.6304 7.989 30.2197 7.813C29.8091 7.62967 29.4864 7.373 29.2517 7.043C29.0171 6.713 28.8997 6.328 28.8997 5.888H30.2417C30.2711 6.218 30.3994 6.48933 30.6267 6.702C30.8614 6.91467 31.1877 7.021 31.6057 7.021C32.0384 7.021 32.3757 6.91833 32.6177 6.713C32.8597 6.50033 32.9807 6.229 32.9807 5.899C32.9807 5.64233 32.9037 5.43333 32.7497 5.272C32.6031 5.11067 32.4161 4.986 32.1887 4.898C31.9687 4.81 31.6607 4.71467 31.2647 4.612C30.7661 4.48 30.3591 4.348 30.0437 4.216C29.7357 4.07667 29.4717 3.864 29.2517 3.578C29.0317 3.292 28.9217 2.91067 28.9217 2.434C28.9217 1.994 29.0317 1.609 29.2517 1.279C29.4717 0.949 29.7797 0.696 30.1757 0.52C30.5717 0.344 31.0301 0.255999 31.5507 0.255999C32.2914 0.255999 32.8964 0.442999 33.3657 0.816999C33.8424 1.18367 34.1064 1.68967 34.1577 2.335H32.7717C32.7497 2.05633 32.6177 1.818 32.3757 1.62C32.1337 1.422 31.8147 1.323 31.4187 1.323C31.0594 1.323 30.7661 1.41467 30.5387 1.598C30.3114 1.78133 30.1977 2.04533 30.1977 2.39C30.1977 2.62467 30.2674 2.819 30.4067 2.973C30.5534 3.11967 30.7367 3.237 30.9567 3.325C31.1767 3.413 31.4774 3.50833 31.8587 3.611C32.3647 3.75033 32.7754 3.88967 33.0907 4.029C33.4134 4.16833 33.6847 4.38467 33.9047 4.678C34.1321 4.964 34.2457 5.349 34.2457 5.833C34.2457 6.22167 34.1394 6.58833 33.9267 6.933C33.7214 7.27767 33.4171 7.55633 33.0137 7.769C32.6177 7.97433 32.1484 8.077 31.6057 8.077ZM41.3904 0.354999L38.8604 5.228V8H37.6064V5.228L35.0654 0.354999H36.4624L38.2334 4.106L40.0044 0.354999H41.3904ZM44.9045 8.077C44.3912 8.077 43.9292 7.989 43.5185 7.813C43.1079 7.62967 42.7852 7.373 42.5505 7.043C42.3159 6.713 42.1985 6.328 42.1985 5.888H43.5405C43.5699 6.218 43.6982 6.48933 43.9255 6.702C44.1602 6.91467 44.4865 7.021 44.9045 7.021C45.3372 7.021 45.6745 6.91833 45.9165 6.713C46.1585 6.50033 46.2795 6.229 46.2795 5.899C46.2795 5.64233 46.2025 5.43333 46.0485 5.272C45.9019 5.11067 45.7149 4.986 45.4875 4.898C45.2675 4.81 44.9595 4.71467 44.5635 4.612C44.0649 4.48 43.6579 4.348 43.3425 4.216C43.0345 4.07667 42.7705 3.864 42.5505 3.578C42.3305 3.292 42.2205 2.91067 42.2205 2.434C42.2205 1.994 42.3305 1.609 42.5505 1.279C42.7705 0.949 43.0785 0.696 43.4745 0.52C43.8705 0.344 44.3289 0.255999 44.8495 0.255999C45.5902 0.255999 46.1952 0.442999 46.6645 0.816999C47.1412 1.18367 47.4052 1.68967 47.4565 2.335H46.0705C46.0485 2.05633 45.9165 1.818 45.6745 1.62C45.4325 1.422 45.1135 1.323 44.7175 1.323C44.3582 1.323 44.0649 1.41467 43.8375 1.598C43.6102 1.78133 43.4965 2.04533 43.4965 2.39C43.4965 2.62467 43.5662 2.819 43.7055 2.973C43.8522 3.11967 44.0355 3.237 44.2555 3.325C44.4755 3.413 44.7762 3.50833 45.1575 3.611C45.6635 3.75033 46.0742 3.88967 46.3895 4.029C46.7122 4.16833 46.9835 4.38467 47.2035 4.678C47.4309 4.964 47.5445 5.349 47.5445 5.833C47.5445 6.22167 47.4382 6.58833 47.2255 6.933C47.0202 7.27767 46.7159 7.55633 46.3125 7.769C45.9165 7.97433 45.4472 8.077 44.9045 8.077ZM55.7232 8.44V9.606H49.5852V8.44H55.7232ZM62.2996 0.354999V1.378H59.0546V3.633H61.5846V4.656H59.0546V8H57.8006V0.354999H62.2996ZM64.7157 0.354999V8H63.4617V0.354999H64.7157ZM67.6161 6.988H70.2011V8H66.3621V0.354999H67.6161V6.988ZM72.5038 1.367V3.611H75.1438V4.634H72.5038V6.977H75.4738V8H71.2498V0.344H75.4738V1.367H72.5038ZM83.7174 8.44V9.606H77.5794V8.44H83.7174ZM93.8467 0.354999V8H92.5927V2.764L90.2607 8H89.3917L87.0487 2.764V8H85.7947V0.354999H87.1477L89.8317 6.35L92.5047 0.354999H93.8467ZM96.7489 0.354999V8H95.4949V0.354999H96.7489ZM100.914 8.077C100.401 8.077 99.939 7.989 99.5283 7.813C99.1176 7.62967 98.795 7.373 98.5603 7.043C98.3256 6.713 98.2083 6.328 98.2083 5.888H99.5503C99.5796 6.218 99.708 6.48933 99.9353 6.702C100.17 6.91467 100.496 7.021 100.914 7.021C101.347 7.021 101.684 6.91833 101.926 6.713C102.168 6.50033 102.289 6.229 102.289 5.899C102.289 5.64233 102.212 5.43333 102.058 5.272C101.912 5.11067 101.725 4.986 101.497 4.898C101.277 4.81 100.969 4.71467 100.573 4.612C100.075 4.48 99.6676 4.348 99.3523 4.216C99.0443 4.07667 98.7803 3.864 98.5603 3.578C98.3403 3.292 98.2303 2.91067 98.2303 2.434C98.2303 1.994 98.3403 1.609 98.5603 1.279C98.7803 0.949 99.0883 0.696 99.4843 0.52C99.8803 0.344 100.339 0.255999 100.859 0.255999C101.6 0.255999 102.205 0.442999 102.674 0.816999C103.151 1.18367 103.415 1.68967 103.466 2.335H102.08C102.058 2.05633 101.926 1.818 101.684 1.62C101.442 1.422 101.123 1.323 100.727 1.323C100.368 1.323 100.075 1.41467 99.8473 1.598C99.62 1.78133 99.5063 2.04533 99.5063 2.39C99.5063 2.62467 99.576 2.819 99.7153 2.973C99.862 3.11967 100.045 3.237 100.265 3.325C100.485 3.413 100.786 3.50833 101.167 3.611C101.673 3.75033 102.084 3.88967 102.399 4.029C102.722 4.16833 102.993 4.38467 103.213 4.678C103.441 4.964 103.554 5.349 103.554 5.833C103.554 6.22167 103.448 6.58833 103.235 6.933C103.03 7.27767 102.726 7.55633 102.322 7.769C101.926 7.97433 101.457 8.077 100.914 8.077ZM107.553 8.077C107.04 8.077 106.578 7.989 106.167 7.813C105.756 7.62967 105.434 7.373 105.199 7.043C104.964 6.713 104.847 6.328 104.847 5.888H106.189C106.218 6.218 106.347 6.48933 106.574 6.702C106.809 6.91467 107.135 7.021 107.553 7.021C107.986 7.021 108.323 6.91833 108.565 6.713C108.807 6.50033 108.928 6.229 108.928 5.899C108.928 5.64233 108.851 5.43333 108.697 5.272C108.55 5.11067 108.363 4.986 108.136 4.898C107.916 4.81 107.608 4.71467 107.212 4.612C106.713 4.48 106.306 4.348 105.991 4.216C105.683 4.07667 105.419 3.864 105.199 3.578C104.979 3.292 104.869 2.91067 104.869 2.434C104.869 1.994 104.979 1.609 105.199 1.279C105.419 0.949 105.727 0.696 106.123 0.52C106.519 0.344 106.977 0.255999 107.498 0.255999C108.239 0.255999 108.844 0.442999 109.313 0.816999C109.79 1.18367 110.054 1.68967 110.105 2.335H108.719C108.697 2.05633 108.565 1.818 108.323 1.62C108.081 1.422 107.762 1.323 107.366 1.323C107.007 1.323 106.713 1.41467 106.486 1.598C106.259 1.78133 106.145 2.04533 106.145 2.39C106.145 2.62467 106.215 2.819 106.354 2.973C106.501 3.11967 106.684 3.237 106.904 3.325C107.124 3.413 107.425 3.50833 107.806 3.611C108.312 3.75033 108.723 3.88967 109.038 4.029C109.361 4.16833 109.632 4.38467 109.852 4.678C110.079 4.964 110.193 5.349 110.193 5.833C110.193 6.22167 110.087 6.58833 109.874 6.933C109.669 7.27767 109.364 7.55633 108.961 7.769C108.565 7.97433 108.096 8.077 107.553 8.077ZM112.927 0.354999V8H111.673V0.354999H112.927ZM120.854 8H119.6L115.827 2.291V8H114.573V0.344H115.827L119.6 6.042V0.344H120.854V8ZM128.034 2.555C127.836 2.17367 127.561 1.88767 127.209 1.697C126.857 1.499 126.45 1.4 125.988 1.4C125.482 1.4 125.031 1.51367 124.635 1.741C124.239 1.96833 123.927 2.291 123.7 2.709C123.48 3.127 123.37 3.611 123.37 4.161C123.37 4.711 123.48 5.19867 123.7 5.624C123.927 6.042 124.239 6.36467 124.635 6.592C125.031 6.81933 125.482 6.933 125.988 6.933C126.67 6.933 127.223 6.74233 127.649 6.361C128.074 5.97967 128.334 5.46267 128.43 4.81H125.559V3.809H129.772V4.788C129.691 5.382 129.478 5.92833 129.134 6.427C128.796 6.92567 128.353 7.32533 127.803 7.626C127.26 7.91933 126.655 8.066 125.988 8.066C125.269 8.066 124.613 7.901 124.019 7.571C123.425 7.23367 122.952 6.768 122.6 6.174C122.255 5.58 122.083 4.909 122.083 4.161C122.083 3.413 122.255 2.742 122.6 2.148C122.952 1.554 123.425 1.092 124.019 0.761999C124.62 0.424666 125.276 0.255999 125.988 0.255999C126.802 0.255999 127.524 0.457666 128.155 0.860999C128.793 1.257 129.255 1.82167 129.541 2.555H128.034Z"></path>
</svg>
