<svg xmlns="http://www.w3.org/2000/svg" fill="none" viewBox="0 0 480 90" height="90" width="480">
<path fill-opacity="0.9" fill="#E6E6E6" d="M50 30C50 24.4772 54.4772 20 60 20H420C425.523 20 430 24.4772 430 30V60C430 65.5228 425.523 70 420 70H60C54.4772 70 50 65.5228 50 60V30Z"></path>
<path stroke-width="2" stroke-opacity="0.2" stroke="black" d="M420 19H60C53.9249 19 49 23.9249 49 30V60C49 66.0751 53.9249 71 60 71H420C426.075 71 431 66.0751 431 60V30C431 23.9249 426.075 19 420 19Z"></path>
<path fill="black" d="M87.8113 41.355V42.378H84.5663V44.633H87.0963V45.656H84.5663V49H83.3123V41.355H87.8113ZM91.6024 49.099C91.0304 49.099 90.5134 48.9707 90.0514 48.714C89.5894 48.45 89.2264 48.0833 88.9624 47.614C88.6984 47.1373 88.5664 46.5873 88.5664 45.964C88.5664 45.348 88.7021 44.8017 88.9734 44.325C89.2448 43.8483 89.6151 43.4817 90.0844 43.225C90.5538 42.9683 91.0781 42.84 91.6574 42.84C92.2368 42.84 92.7611 42.9683 93.2304 43.225C93.6998 43.4817 94.0701 43.8483 94.3414 44.325C94.6128 44.8017 94.7484 45.348 94.7484 45.964C94.7484 46.58 94.6091 47.1263 94.3304 47.603C94.0518 48.0797 93.6704 48.45 93.1864 48.714C92.7098 48.9707 92.1818 49.099 91.6024 49.099ZM91.6024 48.01C91.9251 48.01 92.2258 47.933 92.5044 47.779C92.7904 47.625 93.0214 47.394 93.1974 47.086C93.3734 46.778 93.4614 46.404 93.4614 45.964C93.4614 45.524 93.3771 45.1537 93.2084 44.853C93.0398 44.545 92.8161 44.314 92.5374 44.16C92.2588 44.006 91.9581 43.929 91.6354 43.929C91.3128 43.929 91.0121 44.006 90.7334 44.16C90.4621 44.314 90.2458 44.545 90.0844 44.853C89.9231 45.1537 89.8424 45.524 89.8424 45.964C89.8424 46.6167 90.0074 47.1227 90.3374 47.482C90.6748 47.834 91.0964 48.01 91.6024 48.01ZM99.0461 42.84C99.5228 42.84 99.9481 42.939 100.322 43.137C100.703 43.335 101 43.6283 101.213 44.017C101.426 44.4057 101.532 44.875 101.532 45.425V49H100.289V45.612C100.289 45.0693 100.153 44.655 99.8821 44.369C99.6108 44.0757 99.2404 43.929 98.7711 43.929C98.3018 43.929 97.9278 44.0757 97.6491 44.369C97.3778 44.655 97.2421 45.0693 97.2421 45.612V49H95.9881V42.939H97.2421V43.632C97.4474 43.3827 97.7078 43.1883 98.0231 43.049C98.3458 42.9097 98.6868 42.84 99.0461 42.84ZM104.595 43.962V47.317C104.595 47.5443 104.646 47.7093 104.749 47.812C104.859 47.9073 105.042 47.955 105.299 47.955H106.069V49H105.079C104.514 49 104.081 48.868 103.781 48.604C103.48 48.34 103.33 47.911 103.33 47.317V43.962H102.615V42.939H103.33V41.432H104.595V42.939H106.069V43.962H104.595ZM112.282 49.099C111.805 49.099 111.376 49.0147 110.995 48.846C110.621 48.67 110.324 48.4353 110.104 48.142C109.884 47.8413 109.767 47.5077 109.752 47.141H111.05C111.072 47.3977 111.193 47.614 111.413 47.79C111.64 47.9587 111.923 48.043 112.26 48.043C112.612 48.043 112.883 47.977 113.074 47.845C113.272 47.7057 113.371 47.5297 113.371 47.317C113.371 47.0897 113.261 46.921 113.041 46.811C112.828 46.701 112.487 46.58 112.018 46.448C111.563 46.3233 111.193 46.2023 110.907 46.085C110.621 45.9677 110.372 45.788 110.159 45.546C109.954 45.304 109.851 44.985 109.851 44.589C109.851 44.2663 109.946 43.973 110.137 43.709C110.328 43.4377 110.599 43.225 110.951 43.071C111.31 42.917 111.721 42.84 112.183 42.84C112.872 42.84 113.426 43.016 113.844 43.368C114.269 43.7127 114.497 44.1857 114.526 44.787H113.272C113.25 44.5157 113.14 44.2993 112.942 44.138C112.744 43.9767 112.476 43.896 112.139 43.896C111.809 43.896 111.556 43.9583 111.38 44.083C111.204 44.2077 111.116 44.3727 111.116 44.578C111.116 44.7393 111.175 44.875 111.292 44.985C111.409 45.095 111.552 45.183 111.721 45.249C111.89 45.3077 112.139 45.3847 112.469 45.48C112.909 45.5973 113.268 45.7183 113.547 45.843C113.833 45.9603 114.079 46.1363 114.284 46.371C114.489 46.6057 114.596 46.9173 114.603 47.306C114.603 47.6507 114.508 47.9587 114.317 48.23C114.126 48.5013 113.855 48.714 113.503 48.868C113.158 49.022 112.751 49.099 112.282 49.099ZM116.596 42.136C116.368 42.136 116.178 42.059 116.024 41.905C115.87 41.751 115.793 41.5603 115.793 41.333C115.793 41.1057 115.87 40.915 116.024 40.761C116.178 40.607 116.368 40.53 116.596 40.53C116.816 40.53 117.003 40.607 117.157 40.761C117.311 40.915 117.388 41.1057 117.388 41.333C117.388 41.5603 117.311 41.751 117.157 41.905C117.003 42.059 116.816 42.136 116.596 42.136ZM117.212 42.939V49H115.958V42.939H117.212ZM119.969 47.977H122.719V49H118.517V47.977L121.278 43.962H118.517V42.939H122.719V43.962L119.969 47.977ZM129.591 45.821C129.591 46.0483 129.576 46.2537 129.547 46.437H124.916C124.953 46.921 125.132 47.3097 125.455 47.603C125.778 47.8963 126.174 48.043 126.643 48.043C127.318 48.043 127.794 47.7607 128.073 47.196H129.426C129.243 47.7533 128.909 48.2117 128.425 48.571C127.948 48.923 127.354 49.099 126.643 49.099C126.064 49.099 125.543 48.9707 125.081 48.714C124.626 48.45 124.267 48.0833 124.003 47.614C123.746 47.1373 123.618 46.5873 123.618 45.964C123.618 45.3407 123.743 44.7943 123.992 44.325C124.249 43.8483 124.604 43.4817 125.059 43.225C125.521 42.9683 126.049 42.84 126.643 42.84C127.215 42.84 127.725 42.9647 128.172 43.214C128.619 43.4633 128.968 43.8153 129.217 44.27C129.466 44.7173 129.591 45.2343 129.591 45.821ZM128.282 45.425C128.275 44.963 128.11 44.5927 127.787 44.314C127.464 44.0353 127.065 43.896 126.588 43.896C126.155 43.896 125.785 44.0353 125.477 44.314C125.169 44.5853 124.986 44.9557 124.927 45.425H128.282Z"></path>
<path fill="#0076B3" d="M150 45C150 43.8954 150.895 43 152 43H366C367.105 43 368 43.8954 368 45V45C368 46.1046 367.105 47 366 47H152C150.895 47 150 46.1046 150 45V45Z"></path>
</svg>
