<svg version="1.1" xmlns="http://www.w3.org/2000/svg" xmlns:xlink="http://www.w3.org/1999/xlink" width="40" height="20" viewBox="0,0,40,20"><g transform="translate(-220,-167)"><g data-paper-data="{&quot;isPaintingLayer&quot;:true}" fill-rule="nonzero" stroke="none" stroke-width="1" stroke-linecap="butt" stroke-linejoin="miter" stroke-miterlimit="10" stroke-dasharray="" stroke-dashoffset="0" style="mix-blend-mode: normal"><path d="M220,187v-20h40v20z" fill="none"></path><path d="M244.164,173.94c-0.248,0 -0.456,-0.084 -0.624,-0.252c-0.168,-0.168 -0.252,-0.376 -0.252,-0.624c0,-0.248 0.084,-0.456 0.252,-0.624c0.168,-0.168 0.376,-0.252 0.624,-0.252c0.24,0 0.444,0.084 0.612,0.252c0.168,0.168 0.252,0.376 0.252,0.624c0,0.248 -0.084,0.456 -0.252,0.624c-0.168,0.168 -0.372,0.252 -0.612,0.252zM247.2,175.08v1.152h-6.12v-1.152zM244.164,179.1c-0.248,0 -0.456,-0.084 -0.624,-0.252c-0.168,-0.168 -0.252,-0.376 -0.252,-0.624c0,-0.248 0.084,-0.456 0.252,-0.624c0.168,-0.168 0.376,-0.252 0.624,-0.252c0.24,0 0.444,0.084 0.612,0.252c0.168,0.168 0.252,0.376 0.252,0.624c0,0.248 -0.084,0.456 -0.252,0.624c-0.168,0.168 -0.372,0.252 -0.612,0.252z" fill="#ff0000"></path></g></g></svg>