<svg xmlns="http://www.w3.org/2000/svg" fill="none" viewBox="0 0 480 360" height="360" width="480">
<path fill="black" d="M392.49 35C392.772 35 393.002 34.7714 392.984 34.4903C392.894 33.0873 392.436 31.7294 391.652 30.5554C390.773 29.2398 389.523 28.2145 388.061 27.609C386.6 27.0035 384.991 26.845 383.439 27.1537C381.887 27.4624 380.462 28.2243 379.343 29.3431C378.224 30.462 377.462 31.8874 377.154 33.4393C376.845 34.9911 377.003 36.5997 377.609 38.0615C378.214 39.5233 379.24 40.7727 380.555 41.6518C381.729 42.4361 383.087 42.8942 384.49 42.9838C384.771 43.0017 385 42.7717 385 42.49V42.49C385 42.2083 384.771 41.9819 384.49 41.9614C383.289 41.8735 382.128 41.4759 381.122 40.8037C379.974 40.0367 379.08 38.9466 378.551 37.6711C378.023 36.3957 377.885 34.9923 378.154 33.6383C378.423 32.2843 379.088 31.0406 380.064 30.0644C381.041 29.0882 382.284 28.4234 383.638 28.1541C384.992 27.8848 386.396 28.023 387.671 28.5513C388.947 29.0796 390.037 29.9743 390.804 31.1221C391.476 32.1283 391.873 33.2894 391.961 34.4904C391.982 34.7714 392.208 35 392.49 35V35Z"></path>
<circle stroke="black" r="4" cy="38.5" cx="388.5"></circle>
<rect fill="black" transform="rotate(-45 385.671 40.6213)" height="1" width="7" y="40.6213" x="385.671"></rect>
<path fill="black" d="M381 31.2823C381 29.3533 382.313 27.6718 384.184 27.2039V27.2039C384.72 27.07 385.28 27.07 385.816 27.2039V27.2039C387.687 27.6718 389 29.3533 389 31.2823V33H388V30.9561C388 29.7879 387.253 28.7508 386.144 28.3814V28.3814C385.402 28.1338 384.598 28.1338 383.856 28.3814V28.3814C382.747 28.7508 382 29.7879 382 30.9561V38.8377C382 40.129 382.826 41.2754 384.051 41.6838L384.658 41.8861C384.862 41.9541 385 42.1451 385 42.3601V42.3601C385 42.6851 384.695 42.9236 384.379 42.8448L384.012 42.753C382.242 42.3104 381 40.72 381 38.8954V31.2823Z"></path>
<rect fill="black" height="1" width="14" y="32" x="378"></rect>
<rect fill="black" rx="0.5" height="1" width="5" y="37" x="378"></rect>
<path fill="black" d="M407 34C407 32.8954 407.895 32 409 32H410L412.793 29.2071C412.926 29.0745 413.105 29 413.293 29V29C413.683 29 414 29.3166 414 29.7071V40.2929C414 40.6834 413.683 41 413.293 41V41C413.105 41 412.926 40.9255 412.793 40.7929L410 38L411 37L413 39V31L411 33H409C408.448 33 408 33.4477 408 34V36C408 36.5523 408.448 37 409 37H411L410 38H409C407.895 38 407 37.1046 407 36V34Z"></path>
<rect fill="black" transform="rotate(45 416.525 31.8181)" rx="0.5" height="1" width="8" y="31.8181" x="416.525"></rect>
<rect fill="black" transform="rotate(135 422.182 32.5251)" rx="0.5" height="1" width="8" y="32.5251" x="422.182"></rect>
</svg>
