<svg xmlns="http://www.w3.org/2000/svg" fill="none" viewBox="0 0 30 30" height="30" width="30">
<rect fill="#797774" rx="2" height="12" width="16" y="9" x="7"></rect>
<path fill="#FAFAFA" d="M8 11C8 10.4477 8.44772 10 9 10H21C21.5523 10 22 10.4477 22 11V19C22 19.5523 21.5523 20 21 20H9C8.44772 20 8 19.5523 8 19V11Z"></path>
<path fill="#797774" d="M9 11.5C9 11.2239 9.22386 11 9.5 11H10.5C10.7761 11 11 11.2239 11 11.5C11 11.7761 10.7761 12 10.5 12H9.5C9.22386 12 9 11.7761 9 11.5Z"></path>
<path fill="#797774" d="M9 13.5C9 13.2239 9.22386 13 9.5 13H10.5C10.7761 13 11 13.2239 11 13.5C11 13.7761 10.7761 14 10.5 14H9.5C9.22386 14 9 13.7761 9 13.5Z"></path>
<path fill="#797774" d="M9 15.5C9 15.2239 9.22386 15 9.5 15H10.5C10.7761 15 11 15.2239 11 15.5C11 15.7761 10.7761 16 10.5 16H9.5C9.22386 16 9 15.7761 9 15.5Z"></path>
<path fill="#797774" d="M9 17.5C9 17.2239 9.22386 17 9.5 17H10.5C10.7761 17 11 17.2239 11 17.5C11 17.7761 10.7761 18 10.5 18H9.5C9.22386 18 9 17.7761 9 17.5Z"></path>
<path fill="#797774" d="M19 11.5C19 11.2239 19.2239 11 19.5 11H20.5C20.7761 11 21 11.2239 21 11.5C21 11.7761 20.7761 12 20.5 12H19.5C19.2239 12 19 11.7761 19 11.5Z"></path>
<path fill="#797774" d="M19 13.5C19 13.2239 19.2239 13 19.5 13H20.5C20.7761 13 21 13.2239 21 13.5C21 13.7761 20.7761 14 20.5 14H19.5C19.2239 14 19 13.7761 19 13.5Z"></path>
<path fill="url(#paint0_linear_641_3)" d="M15.4142 12H14.5323C14.3429 12 14.1698 12.107 14.0851 12.2764L13.9156 12.6153C13.8717 12.7031 13.8029 12.7762 13.7178 12.8253C13.6327 12.8744 13.5351 12.8974 13.4371 12.8915L13.0588 12.8688C12.8698 12.8575 12.6906 12.9539 12.5959 13.1179L12.1549 13.8817C12.0602 14.0458 12.0663 14.2492 12.1706 14.4072L12.3791 14.7229C12.4334 14.8052 12.4623 14.9017 12.4622 15.0003C12.4621 15.0985 12.4332 15.1946 12.3791 15.2765L12.1703 15.5928C12.0659 15.7508 12.0598 15.9542 12.1545 16.1183L12.5955 16.8821C12.6902 17.0461 12.8694 17.1425 13.0585 17.1312L13.4367 17.1085C13.5348 17.1026 13.6324 17.1256 13.7175 17.1746C13.8028 17.2238 13.8717 17.297 13.9158 17.385L14.0851 17.7236C14.1698 17.893 14.3429 18 14.5323 18H15.4142C15.6036 18 15.7768 17.893 15.8614 17.7236L16.0308 17.3849C16.0748 17.2969 16.1437 17.2238 16.2288 17.1746C16.3141 17.1254 16.4119 17.1023 16.5101 17.1082L16.8881 17.1308C17.0771 17.1422 17.2563 17.0458 17.351 16.8817L17.792 16.1179C17.8867 15.9539 17.8806 15.7505 17.7763 15.5924L17.5673 15.2759C17.5133 15.1942 17.4844 15.0983 17.4843 15.0003C17.4842 14.9019 17.513 14.8056 17.5673 14.7235L17.7759 14.4076C17.8802 14.2495 17.8863 14.0461 17.7916 13.8821L17.3507 13.1183C17.256 12.9542 17.0767 12.8578 16.8877 12.8692L16.5098 12.8918C16.4115 12.8977 16.3137 12.8746 16.2285 12.8253C16.1435 12.7762 16.0749 12.7032 16.031 12.6154L15.8614 12.2764C15.7768 12.107 15.6036 12 15.4142 12Z"></path>
<path fill="#D9D9D9" d="M14 15C14 14.4477 14.4477 14 15 14C15.5523 14 16 14.4477 16 15C16 15.5523 15.5523 16 15 16C14.4477 16 14 15.5523 14 15Z"></path>
<defs>
<linearGradient gradientUnits="userSpaceOnUse" y2="17.1429" x2="16.7143" y1="13.2857" x1="13.2857" id="paint0_linear_641_3">
<stop stop-color="#68747A"></stop>
<stop stop-color="#4A4E51" offset="1"></stop>
</linearGradient>
</defs>
</svg>
