<svg xmlns="http://www.w3.org/2000/svg" fill="none" viewBox="0 0 480 360" height="360" width="480">
<path fill-opacity="0.9" fill="#E6E6E6" d="M360 20C360 14.4772 364.477 10 370 10H460C465.523 10 470 14.4772 470 20V50C470 55.5228 465.523 60 460 60H370C364.477 60 360 55.5228 360 50V20Z"></path>
<path stroke-width="2" stroke-opacity="0.2" stroke="black" d="M460 9H370C363.925 9 359 13.9249 359 20V50C359 56.0751 363.925 61 370 61H460C466.075 61 471 56.0751 471 50V20C471 13.9249 466.075 9 460 9Z"></path>
</svg>
