<svg xmlns="http://www.w3.org/2000/svg" fill="none" viewBox="0 0 480 360" height="360" width="480">
<path fill="black" d="M188.976 177.192C188.976 177.757 188.843 178.291 188.576 178.792C188.309 179.293 187.883 179.704 187.296 180.024C186.709 180.333 185.957 180.488 185.04 180.488H183.024V185H181.2V173.88H185.04C185.893 173.88 186.613 174.029 187.2 174.328C187.797 174.616 188.24 175.011 188.528 175.512C188.827 176.013 188.976 176.573 188.976 177.192ZM185.04 179C185.733 179 186.251 178.845 186.592 178.536C186.933 178.216 187.104 177.768 187.104 177.192C187.104 175.976 186.416 175.368 185.04 175.368H183.024V179H185.04ZM190.108 180.552C190.108 179.667 190.289 178.883 190.652 178.2C191.025 177.517 191.526 176.989 192.156 176.616C192.796 176.232 193.5 176.04 194.268 176.04C194.961 176.04 195.564 176.179 196.076 176.456C196.598 176.723 197.014 177.059 197.324 177.464V176.184H199.164V185H197.324V183.688C197.014 184.104 196.593 184.451 196.06 184.728C195.526 185.005 194.918 185.144 194.236 185.144C193.478 185.144 192.785 184.952 192.156 184.568C191.526 184.173 191.025 183.629 190.652 182.936C190.289 182.232 190.108 181.437 190.108 180.552ZM197.324 180.584C197.324 179.976 197.196 179.448 196.94 179C196.694 178.552 196.369 178.211 195.964 177.976C195.558 177.741 195.121 177.624 194.652 177.624C194.182 177.624 193.745 177.741 193.34 177.976C192.934 178.2 192.604 178.536 192.348 178.984C192.102 179.421 191.98 179.944 191.98 180.552C191.98 181.16 192.102 181.693 192.348 182.152C192.604 182.611 192.934 182.963 193.34 183.208C193.756 183.443 194.193 183.56 194.652 183.56C195.121 183.56 195.558 183.443 195.964 183.208C196.369 182.973 196.694 182.632 196.94 182.184C197.196 181.725 197.324 181.192 197.324 180.584ZM202.487 175.016C202.157 175.016 201.879 174.904 201.655 174.68C201.431 174.456 201.319 174.179 201.319 173.848C201.319 173.517 201.431 173.24 201.655 173.016C201.879 172.792 202.157 172.68 202.487 172.68C202.807 172.68 203.079 172.792 203.303 173.016C203.527 173.24 203.639 173.517 203.639 173.848C203.639 174.179 203.527 174.456 203.303 174.68C203.079 174.904 202.807 175.016 202.487 175.016ZM203.383 176.184V185H201.559V176.184H203.383ZM210.226 176.04C210.919 176.04 211.538 176.184 212.082 176.472C212.637 176.76 213.069 177.187 213.378 177.752C213.687 178.317 213.842 179 213.842 179.8V185H212.034V180.072C212.034 179.283 211.837 178.68 211.442 178.264C211.047 177.837 210.509 177.624 209.826 177.624C209.143 177.624 208.599 177.837 208.194 178.264C207.799 178.68 207.602 179.283 207.602 180.072V185H205.778V176.184H207.602V177.192C207.901 176.829 208.279 176.547 208.738 176.344C209.207 176.141 209.703 176.04 210.226 176.04ZM218.297 177.672V182.552C218.297 182.883 218.371 183.123 218.521 183.272C218.681 183.411 218.947 183.48 219.321 183.48H220.441V185H219.001C218.179 185 217.55 184.808 217.113 184.424C216.675 184.04 216.457 183.416 216.457 182.552V177.672H215.417V176.184H216.457V173.992H218.297V176.184H220.441V177.672H218.297Z"></path>
<path fill="#0076B3" d="M184.994 198.355V203.866C184.994 204.548 184.785 205.087 184.367 205.483C183.956 205.879 183.414 206.077 182.739 206.077C182.064 206.077 181.518 205.879 181.1 205.483C180.689 205.087 180.484 204.548 180.484 203.866H181.749C181.756 204.203 181.841 204.471 182.002 204.669C182.171 204.867 182.416 204.966 182.739 204.966C183.062 204.966 183.307 204.867 183.476 204.669C183.645 204.464 183.729 204.196 183.729 203.866V198.355H184.994ZM188.288 197.86V206H187.034V197.86H188.288ZM192.563 206.099C191.991 206.099 191.474 205.971 191.012 205.714C190.55 205.45 190.187 205.083 189.923 204.614C189.659 204.137 189.527 203.587 189.527 202.964C189.527 202.348 189.663 201.802 189.934 201.325C190.206 200.848 190.576 200.482 191.045 200.225C191.515 199.968 192.039 199.84 192.618 199.84C193.198 199.84 193.722 199.968 194.191 200.225C194.661 200.482 195.031 200.848 195.302 201.325C195.574 201.802 195.709 202.348 195.709 202.964C195.709 203.58 195.57 204.126 195.291 204.603C195.013 205.08 194.631 205.45 194.147 205.714C193.671 205.971 193.143 206.099 192.563 206.099ZM192.563 205.01C192.886 205.01 193.187 204.933 193.465 204.779C193.751 204.625 193.982 204.394 194.158 204.086C194.334 203.778 194.422 203.404 194.422 202.964C194.422 202.524 194.338 202.154 194.169 201.853C194.001 201.545 193.777 201.314 193.498 201.16C193.22 201.006 192.919 200.929 192.596 200.929C192.274 200.929 191.973 201.006 191.694 201.16C191.423 201.314 191.207 201.545 191.045 201.853C190.884 202.154 190.803 202.524 190.803 202.964C190.803 203.617 190.968 204.123 191.298 204.482C191.636 204.834 192.057 205.01 192.563 205.01ZM201.558 204.438H198.357L197.807 206H196.498L199.237 198.344H200.689L203.428 206H202.108L201.558 204.438ZM201.206 203.415L199.963 199.862L198.709 203.415H201.206ZM210.108 199.939V206H208.854V205.285C208.656 205.534 208.396 205.732 208.073 205.879C207.758 206.018 207.42 206.088 207.061 206.088C206.584 206.088 206.155 205.989 205.774 205.791C205.4 205.593 205.103 205.3 204.883 204.911C204.67 204.522 204.564 204.053 204.564 203.503V199.939H205.807V203.316C205.807 203.859 205.943 204.277 206.214 204.57C206.485 204.856 206.856 204.999 207.325 204.999C207.794 204.999 208.165 204.856 208.436 204.57C208.715 204.277 208.854 203.859 208.854 203.316V199.939H210.108Z"></path>
<path fill="url(#paint0_linear_930_2)" d="M122.4 170.8C112.798 170.799 100.799 179.599 100.8 193.2C100.8 197.114 101.685 202 105.6 202C109.599 202 111.199 195.6 114.4 195.6C115.725 195.6 116.8 196.399 116.8 198C116.8 200.399 114.4 200.399 114.4 203.6C114.4 205.999 115.999 207.6 118.4 207.6C127.199 207.6 137.6 197.286 137.6 186C137.6 178.799 131.722 170.801 122.4 170.8Z"></path>
<rect fill="url(#paint1_linear_930_2)" rx="3.2" height="6.4" width="6.4" y="186.798" x="103.998"></rect>
<rect fill-opacity="0.5" fill="black" rx="2.4" height="4.8" width="4.8" y="188.398" x="118.398"></rect>
<rect fill="url(#paint2_linear_930_2)" rx="3.2" height="6.4" width="6.4" y="178.798" x="108.799"></rect>
<rect fill="url(#paint3_linear_930_2)" rx="3.2" height="6.4" width="6.4" y="175.599" x="116.799"></rect>
<path fill="url(#paint4_linear_930_2)" d="M126.398 189.997L131.198 189.999L130.462 207.663C130.426 208.52 129.721 209.197 128.863 209.197H128.733C127.875 209.197 127.17 208.52 127.134 207.663L126.398 189.997Z"></path>
<path fill="url(#paint5_linear_930_2)" d="M126.398 189.997V188.399H131.198V189.999L126.398 189.997Z"></path>
<path fill="url(#paint6_linear_930_2)" d="M126.398 188.396L124.357 184.314C123.824 183.25 124.598 181.999 125.787 181.999H131.809C132.999 181.999 133.772 183.25 133.241 184.314L131.198 188.399L126.398 188.396Z"></path>
<path fill-opacity="0.9" fill="#D9D9D9" d="M60 320C60 314.477 64.4772 310 70 310H460C465.523 310 470 314.477 470 320V340C470 345.523 465.523 350 460 350H70C64.4771 350 60 345.523 60 340V320Z"></path>
<path stroke-opacity="0.2" stroke="white" d="M460 309.5H70C64.201 309.5 59.5 314.201 59.5 320V340C59.5 345.799 64.201 350.5 70 350.5H460C465.799 350.5 470.5 345.799 470.5 340V320C470.5 314.201 465.799 309.5 460 309.5Z"></path>
<path fill="black" d="M125.467 326.355C126.281 326.355 126.992 326.513 127.601 326.828C128.217 327.136 128.69 327.583 129.02 328.17C129.357 328.749 129.526 329.428 129.526 330.205C129.526 330.982 129.357 331.657 129.02 332.229C128.69 332.801 128.217 333.241 127.601 333.549C126.992 333.85 126.281 334 125.467 334H122.97V326.355H125.467ZM125.467 332.977C126.362 332.977 127.047 332.735 127.524 332.251C128.001 331.767 128.239 331.085 128.239 330.205C128.239 329.318 128.001 328.625 127.524 328.126C127.047 327.627 126.362 327.378 125.467 327.378H124.224V332.977H125.467ZM132.023 328.819C132.206 328.511 132.448 328.273 132.749 328.104C133.057 327.928 133.42 327.84 133.838 327.84V329.138H133.519C133.027 329.138 132.653 329.263 132.397 329.512C132.147 329.761 132.023 330.194 132.023 330.81V334H130.769V327.939H132.023V328.819ZM134.572 330.942C134.572 330.333 134.697 329.794 134.946 329.325C135.203 328.856 135.548 328.493 135.98 328.236C136.42 327.972 136.904 327.84 137.432 327.84C137.909 327.84 138.323 327.935 138.675 328.126C139.035 328.309 139.321 328.54 139.533 328.819V327.939H140.798V334H139.533V333.098C139.321 333.384 139.031 333.622 138.664 333.813C138.298 334.004 137.88 334.099 137.41 334.099C136.89 334.099 136.413 333.967 135.98 333.703C135.548 333.432 135.203 333.058 134.946 332.581C134.697 332.097 134.572 331.551 134.572 330.942ZM139.533 330.964C139.533 330.546 139.445 330.183 139.269 329.875C139.101 329.567 138.877 329.332 138.598 329.171C138.32 329.01 138.019 328.929 137.696 328.929C137.374 328.929 137.073 329.01 136.794 329.171C136.516 329.325 136.288 329.556 136.112 329.864C135.944 330.165 135.859 330.524 135.859 330.942C135.859 331.36 135.944 331.727 136.112 332.042C136.288 332.357 136.516 332.599 136.794 332.768C137.08 332.929 137.381 333.01 137.696 333.01C138.019 333.01 138.32 332.929 138.598 332.768C138.877 332.607 139.101 332.372 139.269 332.064C139.445 331.749 139.533 331.382 139.533 330.964ZM150.585 327.939L148.704 334H147.384L146.163 329.523L144.942 334H143.622L141.73 327.939H143.006L144.271 332.812L145.558 327.939H146.867L148.099 332.79L149.353 327.939H150.585ZM153.962 330.942C153.962 330.333 154.087 329.794 154.336 329.325C154.593 328.856 154.937 328.493 155.37 328.236C155.81 327.972 156.294 327.84 156.822 327.84C157.299 327.84 157.713 327.935 158.065 328.126C158.424 328.309 158.71 328.54 158.923 328.819V327.939H160.188V334H158.923V333.098C158.71 333.384 158.421 333.622 158.054 333.813C157.687 334.004 157.269 334.099 156.8 334.099C156.279 334.099 155.803 333.967 155.37 333.703C154.937 333.432 154.593 333.058 154.336 332.581C154.087 332.097 153.962 331.551 153.962 330.942ZM158.923 330.964C158.923 330.546 158.835 330.183 158.659 329.875C158.49 329.567 158.267 329.332 157.988 329.171C157.709 329.01 157.409 328.929 157.086 328.929C156.763 328.929 156.463 329.01 156.184 329.171C155.905 329.325 155.678 329.556 155.502 329.864C155.333 330.165 155.249 330.524 155.249 330.942C155.249 331.36 155.333 331.727 155.502 332.042C155.678 332.357 155.905 332.599 156.184 332.768C156.47 332.929 156.771 333.01 157.086 333.01C157.409 333.01 157.709 332.929 157.988 332.768C158.267 332.607 158.49 332.372 158.659 332.064C158.835 331.749 158.923 331.382 158.923 330.964ZM164.893 327.84C165.37 327.84 165.795 327.939 166.169 328.137C166.55 328.335 166.847 328.628 167.06 329.017C167.273 329.406 167.379 329.875 167.379 330.425V334H166.136V330.612C166.136 330.069 166 329.655 165.729 329.369C165.458 329.076 165.087 328.929 164.618 328.929C164.149 328.929 163.775 329.076 163.496 329.369C163.225 329.655 163.089 330.069 163.089 330.612V334H161.835V327.939H163.089V328.632C163.294 328.383 163.555 328.188 163.87 328.049C164.193 327.91 164.534 327.84 164.893 327.84ZM174.435 327.939L170.717 336.849H169.419L170.651 333.901L168.264 327.939H169.661L171.366 332.559L173.137 327.939H174.435ZM176.844 328.962V332.317C176.844 332.544 176.895 332.709 176.998 332.812C177.108 332.907 177.291 332.955 177.548 332.955H178.318V334H177.328C176.763 334 176.331 333.868 176.03 333.604C175.729 333.34 175.579 332.911 175.579 332.317V328.962H174.864V327.939H175.579V326.432H176.844V327.939H178.318V328.962H176.844ZM182.609 327.84C183.071 327.84 183.481 327.939 183.841 328.137C184.207 328.335 184.493 328.628 184.699 329.017C184.911 329.406 185.018 329.875 185.018 330.425V334H183.775V330.612C183.775 330.069 183.639 329.655 183.368 329.369C183.096 329.076 182.726 328.929 182.257 328.929C181.787 328.929 181.413 329.076 181.135 329.369C180.863 329.655 180.728 330.069 180.728 330.612V334H179.474V325.86H180.728V328.643C180.94 328.386 181.208 328.188 181.531 328.049C181.861 327.91 182.22 327.84 182.609 327.84ZM187.255 327.136C187.028 327.136 186.837 327.059 186.683 326.905C186.529 326.751 186.452 326.56 186.452 326.333C186.452 326.106 186.529 325.915 186.683 325.761C186.837 325.607 187.028 325.53 187.255 325.53C187.475 325.53 187.662 325.607 187.816 325.761C187.97 325.915 188.047 326.106 188.047 326.333C188.047 326.56 187.97 326.751 187.816 326.905C187.662 327.059 187.475 327.136 187.255 327.136ZM187.871 327.939V334H186.617V327.939H187.871ZM192.576 327.84C193.052 327.84 193.478 327.939 193.852 328.137C194.233 328.335 194.53 328.628 194.743 329.017C194.955 329.406 195.062 329.875 195.062 330.425V334H193.819V330.612C193.819 330.069 193.683 329.655 193.412 329.369C193.14 329.076 192.77 328.929 192.301 328.929C191.831 328.929 191.457 329.076 191.179 329.369C190.907 329.655 190.772 330.069 190.772 330.612V334H189.518V327.939H190.772V328.632C190.977 328.383 191.237 328.188 191.553 328.049C191.875 327.91 192.216 327.84 192.576 327.84ZM199.103 327.84C199.573 327.84 199.987 327.935 200.346 328.126C200.713 328.309 200.999 328.54 201.204 328.819V327.939H202.469V334.099C202.469 334.656 202.352 335.151 202.117 335.584C201.883 336.024 201.542 336.369 201.094 336.618C200.654 336.867 200.126 336.992 199.51 336.992C198.689 336.992 198.007 336.798 197.464 336.409C196.922 336.028 196.614 335.507 196.54 334.847H197.783C197.879 335.162 198.08 335.415 198.388 335.606C198.704 335.804 199.078 335.903 199.51 335.903C200.016 335.903 200.423 335.749 200.731 335.441C201.047 335.133 201.204 334.686 201.204 334.099V333.087C200.992 333.373 200.702 333.615 200.335 333.813C199.976 334.004 199.565 334.099 199.103 334.099C198.575 334.099 198.091 333.967 197.651 333.703C197.219 333.432 196.874 333.058 196.617 332.581C196.368 332.097 196.243 331.551 196.243 330.942C196.243 330.333 196.368 329.794 196.617 329.325C196.874 328.856 197.219 328.493 197.651 328.236C198.091 327.972 198.575 327.84 199.103 327.84ZM201.204 330.964C201.204 330.546 201.116 330.183 200.94 329.875C200.772 329.567 200.548 329.332 200.269 329.171C199.991 329.01 199.69 328.929 199.367 328.929C199.045 328.929 198.744 329.01 198.465 329.171C198.187 329.325 197.959 329.556 197.783 329.864C197.615 330.165 197.53 330.524 197.53 330.942C197.53 331.36 197.615 331.727 197.783 332.042C197.959 332.357 198.187 332.599 198.465 332.768C198.751 332.929 199.052 333.01 199.367 333.01C199.69 333.01 199.991 332.929 200.269 332.768C200.548 332.607 200.772 332.372 200.94 332.064C201.116 331.749 201.204 331.382 201.204 330.964ZM212.43 327.939L208.712 336.849H207.414L208.646 333.901L206.259 327.939H207.656L209.361 332.559L211.132 327.939H212.43ZM216.005 334.099C215.433 334.099 214.916 333.971 214.454 333.714C213.992 333.45 213.629 333.083 213.365 332.614C213.101 332.137 212.969 331.587 212.969 330.964C212.969 330.348 213.105 329.802 213.376 329.325C213.647 328.848 214.018 328.482 214.487 328.225C214.956 327.968 215.481 327.84 216.06 327.84C216.639 327.84 217.164 327.968 217.633 328.225C218.102 328.482 218.473 328.848 218.744 329.325C219.015 329.802 219.151 330.348 219.151 330.964C219.151 331.58 219.012 332.126 218.733 332.603C218.454 333.08 218.073 333.45 217.589 333.714C217.112 333.971 216.584 334.099 216.005 334.099ZM216.005 333.01C216.328 333.01 216.628 332.933 216.907 332.779C217.193 332.625 217.424 332.394 217.6 332.086C217.776 331.778 217.864 331.404 217.864 330.964C217.864 330.524 217.78 330.154 217.611 329.853C217.442 329.545 217.219 329.314 216.94 329.16C216.661 329.006 216.361 328.929 216.038 328.929C215.715 328.929 215.415 329.006 215.136 329.16C214.865 329.314 214.648 329.545 214.487 329.853C214.326 330.154 214.245 330.524 214.245 330.964C214.245 331.617 214.41 332.123 214.74 332.482C215.077 332.834 215.499 333.01 216.005 333.01ZM225.88 327.939V334H224.626V333.285C224.428 333.534 224.167 333.732 223.845 333.879C223.529 334.018 223.192 334.088 222.833 334.088C222.356 334.088 221.927 333.989 221.546 333.791C221.172 333.593 220.875 333.3 220.655 332.911C220.442 332.522 220.336 332.053 220.336 331.503V327.939H221.579V331.316C221.579 331.859 221.714 332.277 221.986 332.57C222.257 332.856 222.627 332.999 223.097 332.999C223.566 332.999 223.936 332.856 224.208 332.57C224.486 332.277 224.626 331.859 224.626 331.316V327.939H225.88ZM238.532 327.939L236.651 334H235.331L234.11 329.523L232.889 334H231.569L229.677 327.939H230.953L232.218 332.812L233.505 327.939H234.814L236.046 332.79L237.3 327.939H238.532ZM239.051 330.942C239.051 330.333 239.176 329.794 239.425 329.325C239.682 328.856 240.026 328.493 240.459 328.236C240.899 327.972 241.383 327.84 241.911 327.84C242.388 327.84 242.802 327.935 243.154 328.126C243.513 328.309 243.799 328.54 244.012 328.819V327.939H245.277V334H244.012V333.098C243.799 333.384 243.51 333.622 243.143 333.813C242.776 334.004 242.358 334.099 241.889 334.099C241.368 334.099 240.892 333.967 240.459 333.703C240.026 333.432 239.682 333.058 239.425 332.581C239.176 332.097 239.051 331.551 239.051 330.942ZM244.012 330.964C244.012 330.546 243.924 330.183 243.748 329.875C243.579 329.567 243.356 329.332 243.077 329.171C242.798 329.01 242.498 328.929 242.175 328.929C241.852 328.929 241.552 329.01 241.273 329.171C240.994 329.325 240.767 329.556 240.591 329.864C240.422 330.165 240.338 330.524 240.338 330.942C240.338 331.36 240.422 331.727 240.591 332.042C240.767 332.357 240.994 332.599 241.273 332.768C241.559 332.929 241.86 333.01 242.175 333.01C242.498 333.01 242.798 332.929 243.077 332.768C243.356 332.607 243.579 332.372 243.748 332.064C243.924 331.749 244.012 331.382 244.012 330.964ZM249.982 327.84C250.459 327.84 250.884 327.939 251.258 328.137C251.639 328.335 251.936 328.628 252.149 329.017C252.362 329.406 252.468 329.875 252.468 330.425V334H251.225V330.612C251.225 330.069 251.089 329.655 250.818 329.369C250.547 329.076 250.176 328.929 249.707 328.929C249.238 328.929 248.864 329.076 248.585 329.369C248.314 329.655 248.178 330.069 248.178 330.612V334H246.924V327.939H248.178V328.632C248.383 328.383 248.644 328.188 248.959 328.049C249.282 327.91 249.623 327.84 249.982 327.84ZM255.53 328.962V332.317C255.53 332.544 255.582 332.709 255.684 332.812C255.794 332.907 255.978 332.955 256.234 332.955H257.004V334H256.014C255.45 334 255.017 333.868 254.716 333.604C254.416 333.34 254.265 332.911 254.265 332.317V328.962H253.55V327.939H254.265V326.432H255.53V327.939H257.004V328.962H255.53ZM266.507 327.939V334H265.253V333.285C265.055 333.534 264.794 333.732 264.472 333.879C264.156 334.018 263.819 334.088 263.46 334.088C262.983 334.088 262.554 333.989 262.173 333.791C261.799 333.593 261.502 333.3 261.282 332.911C261.069 332.522 260.963 332.053 260.963 331.503V327.939H262.206V331.316C262.206 331.859 262.341 332.277 262.613 332.57C262.884 332.856 263.254 332.999 263.724 332.999C264.193 332.999 264.563 332.856 264.835 332.57C265.113 332.277 265.253 331.859 265.253 331.316V327.939H266.507ZM270.361 334.099C269.885 334.099 269.456 334.015 269.074 333.846C268.7 333.67 268.403 333.435 268.183 333.142C267.963 332.841 267.846 332.508 267.831 332.141H269.129C269.151 332.398 269.272 332.614 269.492 332.79C269.72 332.959 270.002 333.043 270.339 333.043C270.691 333.043 270.963 332.977 271.153 332.845C271.351 332.706 271.45 332.53 271.45 332.317C271.45 332.09 271.34 331.921 271.12 331.811C270.908 331.701 270.567 331.58 270.097 331.448C269.643 331.323 269.272 331.202 268.986 331.085C268.7 330.968 268.451 330.788 268.238 330.546C268.033 330.304 267.93 329.985 267.93 329.589C267.93 329.266 268.026 328.973 268.216 328.709C268.407 328.438 268.678 328.225 269.03 328.071C269.39 327.917 269.8 327.84 270.262 327.84C270.952 327.84 271.505 328.016 271.923 328.368C272.349 328.713 272.576 329.186 272.605 329.787H271.351C271.329 329.516 271.219 329.299 271.021 329.138C270.823 328.977 270.556 328.896 270.218 328.896C269.888 328.896 269.635 328.958 269.459 329.083C269.283 329.208 269.195 329.373 269.195 329.578C269.195 329.739 269.254 329.875 269.371 329.985C269.489 330.095 269.632 330.183 269.8 330.249C269.969 330.308 270.218 330.385 270.548 330.48C270.988 330.597 271.348 330.718 271.626 330.843C271.912 330.96 272.158 331.136 272.363 331.371C272.569 331.606 272.675 331.917 272.682 332.306C272.682 332.651 272.587 332.959 272.396 333.23C272.206 333.501 271.934 333.714 271.582 333.868C271.238 334.022 270.831 334.099 270.361 334.099ZM274.675 327.136C274.448 327.136 274.257 327.059 274.103 326.905C273.949 326.751 273.872 326.56 273.872 326.333C273.872 326.106 273.949 325.915 274.103 325.761C274.257 325.607 274.448 325.53 274.675 325.53C274.895 325.53 275.082 325.607 275.236 325.761C275.39 325.915 275.467 326.106 275.467 326.333C275.467 326.56 275.39 326.751 275.236 326.905C275.082 327.059 274.895 327.136 274.675 327.136ZM275.291 327.939V334H274.037V327.939H275.291ZM279.996 327.84C280.472 327.84 280.898 327.939 281.272 328.137C281.653 328.335 281.95 328.628 282.163 329.017C282.375 329.406 282.482 329.875 282.482 330.425V334H281.239V330.612C281.239 330.069 281.103 329.655 280.832 329.369C280.56 329.076 280.19 328.929 279.721 328.929C279.251 328.929 278.877 329.076 278.599 329.369C278.327 329.655 278.192 330.069 278.192 330.612V334H276.938V327.939H278.192V328.632C278.397 328.383 278.657 328.188 278.973 328.049C279.295 327.91 279.636 327.84 279.996 327.84ZM286.523 327.84C286.992 327.84 287.407 327.935 287.766 328.126C288.133 328.309 288.419 328.54 288.624 328.819V327.939H289.889V334.099C289.889 334.656 289.772 335.151 289.537 335.584C289.302 336.024 288.961 336.369 288.514 336.618C288.074 336.867 287.546 336.992 286.93 336.992C286.109 336.992 285.427 336.798 284.884 336.409C284.341 336.028 284.033 335.507 283.96 334.847H285.203C285.298 335.162 285.5 335.415 285.808 335.606C286.123 335.804 286.497 335.903 286.93 335.903C287.436 335.903 287.843 335.749 288.151 335.441C288.466 335.133 288.624 334.686 288.624 334.099V333.087C288.411 333.373 288.122 333.615 287.755 333.813C287.396 334.004 286.985 334.099 286.523 334.099C285.995 334.099 285.511 333.967 285.071 333.703C284.638 333.432 284.294 333.058 284.037 332.581C283.788 332.097 283.663 331.551 283.663 330.942C283.663 330.333 283.788 329.794 284.037 329.325C284.294 328.856 284.638 328.493 285.071 328.236C285.511 327.972 285.995 327.84 286.523 327.84ZM288.624 330.964C288.624 330.546 288.536 330.183 288.36 329.875C288.191 329.567 287.968 329.332 287.689 329.171C287.41 329.01 287.11 328.929 286.787 328.929C286.464 328.929 286.164 329.01 285.885 329.171C285.606 329.325 285.379 329.556 285.203 329.864C285.034 330.165 284.95 330.524 284.95 330.942C284.95 331.36 285.034 331.727 285.203 332.042C285.379 332.357 285.606 332.599 285.885 332.768C286.171 332.929 286.472 333.01 286.787 333.01C287.11 333.01 287.41 332.929 287.689 332.768C287.968 332.607 288.191 332.372 288.36 332.064C288.536 331.749 288.624 331.382 288.624 330.964ZM301.731 327.84C302.207 327.84 302.633 327.939 303.007 328.137C303.388 328.335 303.685 328.628 303.898 329.017C304.118 329.406 304.228 329.875 304.228 330.425V334H302.985V330.612C302.985 330.069 302.849 329.655 302.578 329.369C302.306 329.076 301.936 328.929 301.467 328.929C300.997 328.929 300.623 329.076 300.345 329.369C300.073 329.655 299.938 330.069 299.938 330.612V334H298.695V330.612C298.695 330.069 298.559 329.655 298.288 329.369C298.016 329.076 297.646 328.929 297.177 328.929C296.707 328.929 296.333 329.076 296.055 329.369C295.783 329.655 295.648 330.069 295.648 330.612V334H294.394V327.939H295.648V328.632C295.853 328.383 296.113 328.188 296.429 328.049C296.744 327.91 297.081 327.84 297.441 327.84C297.925 327.84 298.357 327.943 298.739 328.148C299.12 328.353 299.413 328.65 299.619 329.039C299.802 328.672 300.088 328.383 300.477 328.17C300.865 327.95 301.283 327.84 301.731 327.84ZM305.405 330.942C305.405 330.333 305.53 329.794 305.779 329.325C306.036 328.856 306.381 328.493 306.813 328.236C307.253 327.972 307.737 327.84 308.265 327.84C308.742 327.84 309.156 327.935 309.508 328.126C309.868 328.309 310.154 328.54 310.366 328.819V327.939H311.631V334H310.366V333.098C310.154 333.384 309.864 333.622 309.497 333.813C309.131 334.004 308.713 334.099 308.243 334.099C307.723 334.099 307.246 333.967 306.813 333.703C306.381 333.432 306.036 333.058 305.779 332.581C305.53 332.097 305.405 331.551 305.405 330.942ZM310.366 330.964C310.366 330.546 310.278 330.183 310.102 329.875C309.934 329.567 309.71 329.332 309.431 329.171C309.153 329.01 308.852 328.929 308.529 328.929C308.207 328.929 307.906 329.01 307.627 329.171C307.349 329.325 307.121 329.556 306.945 329.864C306.777 330.165 306.692 330.524 306.692 330.942C306.692 331.36 306.777 331.727 306.945 332.042C307.121 332.357 307.349 332.599 307.627 332.768C307.913 332.929 308.214 333.01 308.529 333.01C308.852 333.01 309.153 332.929 309.431 332.768C309.71 332.607 309.934 332.372 310.102 332.064C310.278 331.749 310.366 331.382 310.366 330.964ZM316.336 327.84C316.813 327.84 317.238 327.939 317.612 328.137C317.994 328.335 318.291 328.628 318.503 329.017C318.716 329.406 318.822 329.875 318.822 330.425V334H317.579V330.612C317.579 330.069 317.444 329.655 317.172 329.369C316.901 329.076 316.531 328.929 316.061 328.929C315.592 328.929 315.218 329.076 314.939 329.369C314.668 329.655 314.532 330.069 314.532 330.612V334H313.278V327.939H314.532V328.632C314.738 328.383 314.998 328.188 315.313 328.049C315.636 327.91 315.977 327.84 316.336 327.84ZM325.878 327.939L322.16 336.849H320.862L322.094 333.901L319.707 327.939H321.104L322.809 332.559L324.58 327.939H325.878ZM329.264 330.942C329.264 330.333 329.388 329.794 329.638 329.325C329.894 328.856 330.239 328.493 330.672 328.236C331.112 327.972 331.599 327.84 332.135 327.84C332.531 327.84 332.919 327.928 333.301 328.104C333.689 328.273 333.997 328.5 334.225 328.786V325.86H335.49V334H334.225V333.087C334.019 333.38 333.733 333.622 333.367 333.813C333.007 334.004 332.593 334.099 332.124 334.099C331.596 334.099 331.112 333.967 330.672 333.703C330.239 333.432 329.894 333.058 329.638 332.581C329.388 332.097 329.264 331.551 329.264 330.942ZM334.225 330.964C334.225 330.546 334.137 330.183 333.961 329.875C333.792 329.567 333.568 329.332 333.29 329.171C333.011 329.01 332.71 328.929 332.388 328.929C332.065 328.929 331.764 329.01 331.486 329.171C331.207 329.325 330.98 329.556 330.804 329.864C330.635 330.165 330.551 330.524 330.551 330.942C330.551 331.36 330.635 331.727 330.804 332.042C330.98 332.357 331.207 332.599 331.486 332.768C331.772 332.929 332.072 333.01 332.388 333.01C332.71 333.01 333.011 332.929 333.29 332.768C333.568 332.607 333.792 332.372 333.961 332.064C334.137 331.749 334.225 331.382 334.225 330.964ZM338.391 328.819C338.574 328.511 338.816 328.273 339.117 328.104C339.425 327.928 339.788 327.84 340.206 327.84V329.138H339.887C339.395 329.138 339.021 329.263 338.765 329.512C338.515 329.761 338.391 330.194 338.391 330.81V334H337.137V327.939H338.391V328.819ZM340.941 330.942C340.941 330.333 341.065 329.794 341.315 329.325C341.571 328.856 341.916 328.493 342.349 328.236C342.789 327.972 343.273 327.84 343.801 327.84C344.277 327.84 344.692 327.935 345.044 328.126C345.403 328.309 345.689 328.54 345.902 328.819V327.939H347.167V334H345.902V333.098C345.689 333.384 345.399 333.622 345.033 333.813C344.666 334.004 344.248 334.099 343.779 334.099C343.258 334.099 342.781 333.967 342.349 333.703C341.916 333.432 341.571 333.058 341.315 332.581C341.065 332.097 340.941 331.551 340.941 330.942ZM345.902 330.964C345.902 330.546 345.814 330.183 345.638 329.875C345.469 329.567 345.245 329.332 344.967 329.171C344.688 329.01 344.387 328.929 344.065 328.929C343.742 328.929 343.441 329.01 343.163 329.171C342.884 329.325 342.657 329.556 342.481 329.864C342.312 330.165 342.228 330.524 342.228 330.942C342.228 331.36 342.312 331.727 342.481 332.042C342.657 332.357 342.884 332.599 343.163 332.768C343.449 332.929 343.749 333.01 344.065 333.01C344.387 333.01 344.688 332.929 344.967 332.768C345.245 332.607 345.469 332.372 345.638 332.064C345.814 331.749 345.902 331.382 345.902 330.964ZM356.954 327.939L355.073 334H353.753L352.532 329.523L351.311 334H349.991L348.099 327.939H349.375L350.64 332.812L351.927 327.939H353.236L354.468 332.79L355.722 327.939H356.954ZM358.529 327.136C358.301 327.136 358.111 327.059 357.957 326.905C357.803 326.751 357.726 326.56 357.726 326.333C357.726 326.106 357.803 325.915 357.957 325.761C358.111 325.607 358.301 325.53 358.529 325.53C358.749 325.53 358.936 325.607 359.09 325.761C359.244 325.915 359.321 326.106 359.321 326.333C359.321 326.56 359.244 326.751 359.09 326.905C358.936 327.059 358.749 327.136 358.529 327.136ZM359.145 327.939V334H357.891V327.939H359.145ZM363.849 327.84C364.326 327.84 364.751 327.939 365.125 328.137C365.506 328.335 365.803 328.628 366.016 329.017C366.229 329.406 366.335 329.875 366.335 330.425V334H365.092V330.612C365.092 330.069 364.956 329.655 364.685 329.369C364.414 329.076 364.043 328.929 363.574 328.929C363.105 328.929 362.731 329.076 362.452 329.369C362.181 329.655 362.045 330.069 362.045 330.612V334H360.791V327.939H362.045V328.632C362.25 328.383 362.511 328.188 362.826 328.049C363.149 327.91 363.49 327.84 363.849 327.84ZM370.377 327.84C370.846 327.84 371.26 327.935 371.62 328.126C371.986 328.309 372.272 328.54 372.478 328.819V327.939H373.743V334.099C373.743 334.656 373.625 335.151 373.391 335.584C373.156 336.024 372.815 336.369 372.368 336.618C371.928 336.867 371.4 336.992 370.784 336.992C369.962 336.992 369.28 336.798 368.738 336.409C368.195 336.028 367.887 335.507 367.814 334.847H369.057C369.152 335.162 369.354 335.415 369.662 335.606C369.977 335.804 370.351 335.903 370.784 335.903C371.29 335.903 371.697 335.749 372.005 335.441C372.32 335.133 372.478 334.686 372.478 334.099V333.087C372.265 333.373 371.975 333.615 371.609 333.813C371.249 334.004 370.839 334.099 370.377 334.099C369.849 334.099 369.365 333.967 368.925 333.703C368.492 333.432 368.147 333.058 367.891 332.581C367.641 332.097 367.517 331.551 367.517 330.942C367.517 330.333 367.641 329.794 367.891 329.325C368.147 328.856 368.492 328.493 368.925 328.236C369.365 327.972 369.849 327.84 370.377 327.84ZM372.478 330.964C372.478 330.546 372.39 330.183 372.214 329.875C372.045 329.567 371.821 329.332 371.543 329.171C371.264 329.01 370.963 328.929 370.641 328.929C370.318 328.929 370.017 329.01 369.739 329.171C369.46 329.325 369.233 329.556 369.057 329.864C368.888 330.165 368.804 330.524 368.804 330.942C368.804 331.36 368.888 331.727 369.057 332.042C369.233 332.357 369.46 332.599 369.739 332.768C370.025 332.929 370.325 333.01 370.641 333.01C370.963 333.01 371.264 332.929 371.543 332.768C371.821 332.607 372.045 332.372 372.214 332.064C372.39 331.749 372.478 331.382 372.478 330.964ZM379.71 328.962V332.317C379.71 332.544 379.762 332.709 379.864 332.812C379.974 332.907 380.158 332.955 380.414 332.955H381.184V334H380.194C379.63 334 379.197 333.868 378.896 333.604C378.596 333.34 378.445 332.911 378.445 332.317V328.962H377.73V327.939H378.445V326.432H379.71V327.939H381.184V328.962H379.71ZM384.969 334.099C384.397 334.099 383.88 333.971 383.418 333.714C382.956 333.45 382.593 333.083 382.329 332.614C382.065 332.137 381.933 331.587 381.933 330.964C381.933 330.348 382.069 329.802 382.34 329.325C382.611 328.848 382.982 328.482 383.451 328.225C383.92 327.968 384.445 327.84 385.024 327.84C385.603 327.84 386.128 327.968 386.597 328.225C387.066 328.482 387.437 328.848 387.708 329.325C387.979 329.802 388.115 330.348 388.115 330.964C388.115 331.58 387.976 332.126 387.697 332.603C387.418 333.08 387.037 333.45 386.553 333.714C386.076 333.971 385.548 334.099 384.969 334.099ZM384.969 333.01C385.292 333.01 385.592 332.933 385.871 332.779C386.157 332.625 386.388 332.394 386.564 332.086C386.74 331.778 386.828 331.404 386.828 330.964C386.828 330.524 386.744 330.154 386.575 329.853C386.406 329.545 386.183 329.314 385.904 329.16C385.625 329.006 385.325 328.929 385.002 328.929C384.679 328.929 384.379 329.006 384.1 329.16C383.829 329.314 383.612 329.545 383.451 329.853C383.29 330.154 383.209 330.524 383.209 330.964C383.209 331.617 383.374 332.123 383.704 332.482C384.041 332.834 384.463 333.01 384.969 333.01ZM391.984 334.099C391.412 334.099 390.895 333.971 390.433 333.714C389.971 333.45 389.608 333.083 389.344 332.614C389.08 332.137 388.948 331.587 388.948 330.964C388.948 330.348 389.083 329.802 389.355 329.325C389.626 328.848 389.996 328.482 390.466 328.225C390.935 327.968 391.459 327.84 392.039 327.84C392.618 327.84 393.142 327.968 393.612 328.225C394.081 328.482 394.451 328.848 394.723 329.325C394.994 329.802 395.13 330.348 395.13 330.964C395.13 331.58 394.99 332.126 394.712 332.603C394.433 333.08 394.052 333.45 393.568 333.714C393.091 333.971 392.563 334.099 391.984 334.099ZM391.984 333.01C392.306 333.01 392.607 332.933 392.886 332.779C393.172 332.625 393.403 332.394 393.579 332.086C393.755 331.778 393.843 331.404 393.843 330.964C393.843 330.524 393.758 330.154 393.59 329.853C393.421 329.545 393.197 329.314 392.919 329.16C392.64 329.006 392.339 328.929 392.017 328.929C391.694 328.929 391.393 329.006 391.115 329.16C390.843 329.314 390.627 329.545 390.466 329.853C390.304 330.154 390.224 330.524 390.224 330.964C390.224 331.617 390.389 332.123 390.719 332.482C391.056 332.834 391.478 333.01 391.984 333.01ZM397.623 325.86V334H396.369V325.86H397.623ZM401.47 334.099C400.993 334.099 400.564 334.015 400.183 333.846C399.809 333.67 399.512 333.435 399.292 333.142C399.072 332.841 398.954 332.508 398.94 332.141H400.238C400.26 332.398 400.381 332.614 400.601 332.79C400.828 332.959 401.11 333.043 401.448 333.043C401.8 333.043 402.071 332.977 402.262 332.845C402.46 332.706 402.559 332.53 402.559 332.317C402.559 332.09 402.449 331.921 402.229 331.811C402.016 331.701 401.675 331.58 401.206 331.448C400.751 331.323 400.381 331.202 400.095 331.085C399.809 330.968 399.559 330.788 399.347 330.546C399.141 330.304 399.039 329.985 399.039 329.589C399.039 329.266 399.134 328.973 399.325 328.709C399.515 328.438 399.787 328.225 400.139 328.071C400.498 327.917 400.909 327.84 401.371 327.84C402.06 327.84 402.614 328.016 403.032 328.368C403.457 328.713 403.684 329.186 403.714 329.787H402.46C402.438 329.516 402.328 329.299 402.13 329.138C401.932 328.977 401.664 328.896 401.327 328.896C400.997 328.896 400.744 328.958 400.568 329.083C400.392 329.208 400.304 329.373 400.304 329.578C400.304 329.739 400.362 329.875 400.48 329.985C400.597 330.095 400.74 330.183 400.909 330.249C401.077 330.308 401.327 330.385 401.657 330.48C402.097 330.597 402.456 330.718 402.735 330.843C403.021 330.96 403.266 331.136 403.472 331.371C403.677 331.606 403.783 331.917 403.791 332.306C403.791 332.651 403.695 332.959 403.505 333.23C403.314 333.501 403.043 333.714 402.691 333.868C402.346 334.022 401.939 334.099 401.47 334.099ZM406.719 326.355L406.576 331.69H405.531L405.388 326.355H406.719ZM406.092 334.077C405.864 334.077 405.674 334 405.52 333.846C405.366 333.692 405.289 333.501 405.289 333.274C405.289 333.047 405.366 332.856 405.52 332.702C405.674 332.548 405.864 332.471 406.092 332.471C406.312 332.471 406.499 332.548 406.653 332.702C406.807 332.856 406.884 333.047 406.884 333.274C406.884 333.501 406.807 333.692 406.653 333.846C406.499 334 406.312 334.077 406.092 334.077Z"></path>
<defs>
<linearGradient gradientUnits="userSpaceOnUse" y2="202.799" x2="129.598" y1="175.599" x1="108.798" id="paint0_linear_930_2">
<stop stop-color="#50E6FF"></stop>
<stop stop-color="#0270C2" offset="1"></stop>
</linearGradient>
<linearGradient gradientUnits="userSpaceOnUse" y2="191.598" x2="108.798" y1="188.398" x1="105.598" id="paint1_linear_930_2">
<stop stop-color="#E25113"></stop>
<stop stop-color="#C7390A" offset="1"></stop>
</linearGradient>
<linearGradient gradientUnits="userSpaceOnUse" y2="183.598" x2="113.599" y1="180.398" x1="110.399" id="paint2_linear_930_2">
<stop stop-color="#55B50E"></stop>
<stop stop-color="#1C8610" offset="1"></stop>
</linearGradient>
<linearGradient gradientUnits="userSpaceOnUse" y2="180.399" x2="121.599" y1="177.199" x1="118.399" id="paint3_linear_930_2">
<stop stop-color="#FFD300"></stop>
<stop stop-color="#F39808" offset="1"></stop>
</linearGradient>
<linearGradient gradientUnits="userSpaceOnUse" y2="189.999" x2="131.198" y1="189.999" x1="126.398" id="paint4_linear_930_2">
<stop stop-color="#AA6701"></stop>
<stop stop-color="#814406" offset="1"></stop>
</linearGradient>
<linearGradient gradientUnits="userSpaceOnUse" y2="189.999" x2="131.198" y1="189.999" x1="126.398" id="paint5_linear_930_2">
<stop stop-color="#CAD2D9"></stop>
<stop stop-color="#939BA2" offset="1"></stop>
</linearGradient>
<linearGradient gradientUnits="userSpaceOnUse" y2="188.399" x2="131.198" y1="181.999" x1="124.798" id="paint6_linear_930_2">
<stop stop-color="#F7DEAA"></stop>
<stop stop-color="#C3935E" offset="1"></stop>
</linearGradient>
</defs>
</svg>
