<svg version="1.1" xmlns="http://www.w3.org/2000/svg" xmlns:xlink="http://www.w3.org/1999/xlink" width="40" height="20" viewBox="0,0,40,20"><g transform="translate(-220,-167)"><g data-paper-data="{&quot;isPaintingLayer&quot;:true}" fill-rule="nonzero" stroke="none" stroke-width="1" stroke-linecap="butt" stroke-linejoin="miter" stroke-miterlimit="10" stroke-dasharray="" stroke-dashoffset="0" style="mix-blend-mode: normal"><path d="M220,187v-20h40v20z" fill="none"></path><path d="M240.444,176.664c0,-0.664 0.136,-1.252 0.408,-1.764c0.28,-0.512 0.656,-0.908 1.128,-1.188c0.48,-0.288 1.008,-0.432 1.584,-0.432c0.52,0 0.972,0.104 1.356,0.312c0.392,0.2 0.704,0.452 0.936,0.756v-0.96h1.38v6.612h-1.38v-0.984c-0.232,0.312 -0.548,0.572 -0.948,0.78c-0.4,0.208 -0.856,0.312 -1.368,0.312c-0.568,0 -1.088,-0.144 -1.56,-0.432c-0.472,-0.296 -0.848,-0.704 -1.128,-1.224c-0.272,-0.528 -0.408,-1.124 -0.408,-1.788zM245.856,176.688c0,-0.456 -0.096,-0.852 -0.288,-1.188c-0.184,-0.336 -0.428,-0.592 -0.732,-0.768c-0.304,-0.176 -0.632,-0.264 -0.984,-0.264c-0.352,0 -0.68,0.088 -0.984,0.264c-0.304,0.168 -0.552,0.42 -0.744,0.756c-0.184,0.328 -0.276,0.72 -0.276,1.176c0,0.456 0.092,0.856 0.276,1.2c0.192,0.344 0.44,0.608 0.744,0.792c0.312,0.176 0.64,0.264 0.984,0.264c0.352,0 0.68,-0.088 0.984,-0.264c0.304,-0.176 0.548,-0.432 0.732,-0.768c0.192,-0.344 0.288,-0.744 0.288,-1.2zM244.068,171.888l-1.716,1.032v-1.068l1.716,-0.996l1.716,0.996v1.068z" fill="#ff0000"></path></g></g></svg>