<svg xmlns="http://www.w3.org/2000/svg" fill="none" viewBox="0 0 480 360" height="360" width="480">
<path fill="black" d="M197.44 68.168C196.272 68.168 195.216 67.968 194.272 67.568C193.344 67.168 192.608 66.592 192.064 65.84C191.52 65.088 191.24 64.2 191.224 63.176H194.824C194.872 63.864 195.112 64.408 195.544 64.808C195.992 65.208 196.6 65.408 197.368 65.408C198.152 65.408 198.768 65.224 199.216 64.856C199.664 64.472 199.888 63.976 199.888 63.368C199.888 62.872 199.736 62.464 199.432 62.144C199.128 61.824 198.744 61.576 198.28 61.4C197.832 61.208 197.208 61 196.408 60.776C195.32 60.456 194.432 60.144 193.744 59.84C193.072 59.52 192.488 59.048 191.992 58.424C191.512 57.784 191.272 56.936 191.272 55.88C191.272 54.888 191.52 54.024 192.016 53.288C192.512 52.552 193.208 51.992 194.104 51.608C195 51.208 196.024 51.008 197.176 51.008C198.904 51.008 200.304 51.432 201.376 52.28C202.464 53.112 203.064 54.28 203.176 55.784H199.48C199.448 55.208 199.2 54.736 198.736 54.368C198.288 53.984 197.688 53.792 196.936 53.792C196.28 53.792 195.752 53.96 195.352 54.296C194.968 54.632 194.776 55.12 194.776 55.76C194.776 56.208 194.92 56.584 195.208 56.888C195.512 57.176 195.88 57.416 196.312 57.608C196.76 57.784 197.384 57.992 198.184 58.232C199.272 58.552 200.16 58.872 200.848 59.192C201.536 59.512 202.128 59.992 202.624 60.632C203.12 61.272 203.368 62.112 203.368 63.152C203.368 64.048 203.136 64.88 202.672 65.648C202.208 66.416 201.528 67.032 200.632 67.496C199.736 67.944 198.672 68.168 197.44 68.168ZM219.001 54.704L210.769 74.288H207.193L210.073 67.664L204.745 54.704H208.513L211.945 63.992L215.425 54.704H219.001ZM225.9 68.216C224.812 68.216 223.836 68.024 222.972 67.64C222.108 67.24 221.42 66.704 220.908 66.032C220.412 65.36 220.14 64.616 220.092 63.8H223.476C223.54 64.312 223.788 64.736 224.22 65.072C224.668 65.408 225.22 65.576 225.876 65.576C226.516 65.576 227.012 65.448 227.364 65.192C227.732 64.936 227.916 64.608 227.916 64.208C227.916 63.776 227.692 63.456 227.244 63.248C226.812 63.024 226.116 62.784 225.156 62.528C224.164 62.288 223.348 62.04 222.708 61.784C222.084 61.528 221.54 61.136 221.076 60.608C220.628 60.08 220.404 59.368 220.404 58.472C220.404 57.736 220.612 57.064 221.028 56.456C221.46 55.848 222.068 55.368 222.852 55.016C223.652 54.664 224.588 54.488 225.66 54.488C227.244 54.488 228.508 54.888 229.452 55.688C230.396 56.472 230.916 57.536 231.012 58.88H227.796C227.748 58.352 227.524 57.936 227.124 57.632C226.74 57.312 226.22 57.152 225.564 57.152C224.956 57.152 224.484 57.264 224.148 57.488C223.828 57.712 223.668 58.024 223.668 58.424C223.668 58.872 223.892 59.216 224.34 59.456C224.788 59.68 225.484 59.912 226.428 60.152C227.388 60.392 228.18 60.64 228.804 60.896C229.428 61.152 229.964 61.552 230.412 62.096C230.876 62.624 231.116 63.328 231.132 64.208C231.132 64.976 230.916 65.664 230.484 66.272C230.068 66.88 229.46 67.36 228.66 67.712C227.876 68.048 226.956 68.216 225.9 68.216ZM237.802 57.464V63.896C237.802 64.344 237.906 64.672 238.114 64.88C238.338 65.072 238.706 65.168 239.218 65.168H240.778V68H238.666C235.834 68 234.418 66.624 234.418 63.872V57.464H232.834V54.704H234.418V51.416H237.802V54.704H240.778V57.464H237.802ZM255.555 61.064C255.555 61.544 255.523 61.976 255.459 62.36H245.739C245.819 63.32 246.155 64.072 246.747 64.616C247.339 65.16 248.067 65.432 248.931 65.432C250.179 65.432 251.067 64.896 251.595 63.824H255.219C254.835 65.104 254.099 66.16 253.011 66.992C251.923 67.808 250.587 68.216 249.003 68.216C247.723 68.216 246.571 67.936 245.547 67.376C244.539 66.8 243.747 65.992 243.171 64.952C242.611 63.912 242.331 62.712 242.331 61.352C242.331 59.976 242.611 58.768 243.171 57.728C243.731 56.688 244.515 55.888 245.523 55.328C246.531 54.768 247.691 54.488 249.003 54.488C250.267 54.488 251.395 54.76 252.387 55.304C253.395 55.848 254.171 56.624 254.715 57.632C255.275 58.624 255.555 59.768 255.555 61.064ZM252.075 60.104C252.059 59.24 251.747 58.552 251.139 58.04C250.531 57.512 249.787 57.248 248.907 57.248C248.075 57.248 247.371 57.504 246.795 58.016C246.235 58.512 245.891 59.208 245.763 60.104H252.075ZM274.52 54.512C276.152 54.512 277.464 55.016 278.456 56.024C279.464 57.016 279.968 58.408 279.968 60.2V68H276.608V60.656C276.608 59.616 276.344 58.824 275.816 58.28C275.288 57.72 274.568 57.44 273.656 57.44C272.744 57.44 272.016 57.72 271.472 58.28C270.944 58.824 270.68 59.616 270.68 60.656V68H267.32V60.656C267.32 59.616 267.056 58.824 266.528 58.28C266 57.72 265.28 57.44 264.368 57.44C263.44 57.44 262.704 57.72 262.16 58.28C261.632 58.824 261.368 59.616 261.368 60.656V68H258.008V54.704H261.368V56.312C261.8 55.752 262.352 55.312 263.024 54.992C263.712 54.672 264.464 54.512 265.28 54.512C266.32 54.512 267.248 54.736 268.064 55.184C268.88 55.616 269.512 56.24 269.96 57.056C270.392 56.288 271.016 55.672 271.832 55.208C272.664 54.744 273.56 54.512 274.52 54.512Z"></path>
<path fill-opacity="0.05" fill="black" d="M190 99C190 96.2386 192.239 94 195 94H465C467.761 94 470 96.2386 470 99V155C470 157.761 467.761 160 465 160H195C192.239 160 190 157.761 190 155V99Z"></path>
<path stroke-linejoin="round" stroke-linecap="round" stroke-width="1.5" stroke="black" d="M438 132L442.293 127.707C442.683 127.317 442.683 126.683 442.293 126.293L438 122"></path>
<path stroke-width="1.5" stroke="black" d="M216 128.5H212.5C211.395 128.5 210.5 129.395 210.5 130.5V133.5C210.5 134.605 211.395 135.5 212.5 135.5H227.5C228.605 135.5 229.5 134.605 229.5 133.5V130.5C229.5 129.395 228.605 128.5 227.5 128.5H223"></path>
<path fill="black" d="M224.5 132C224.5 131.172 225.172 130.5 226 130.5V130.5C226.828 130.5 227.5 131.172 227.5 132V132C227.5 132.828 226.828 133.5 226 133.5V133.5C225.172 133.5 224.5 132.828 224.5 132V132Z"></path>
<path stroke-linejoin="round" stroke-linecap="round" stroke-width="1.5" stroke="black" d="M215 125.5C215 126.39 215.264 127.26 215.758 128C216.253 128.74 216.956 129.317 217.778 129.657C218.6 129.998 219.505 130.087 220.378 129.914C221.251 129.74 222.053 129.311 222.682 128.682C223.311 128.053 223.74 127.251 223.914 126.378C224.087 125.505 223.998 124.6 223.657 123.778C223.317 122.956 222.74 122.253 222 121.758C221.26 121.264 220.39 121 219.5 121H215M215 121L217 119M215 121L217 123"></path>
<path fill="black" d="M254.796 123L253.036 119.942H252.079V123H250.825V115.355H253.465C254.052 115.355 254.547 115.458 254.95 115.663C255.361 115.868 255.665 116.143 255.863 116.488C256.068 116.833 256.171 117.218 256.171 117.643C256.171 118.142 256.024 118.596 255.731 119.007C255.445 119.41 255.001 119.685 254.4 119.832L256.292 123H254.796ZM252.079 118.941H253.465C253.934 118.941 254.286 118.824 254.521 118.589C254.763 118.354 254.884 118.039 254.884 117.643C254.884 117.247 254.767 116.939 254.532 116.719C254.297 116.492 253.942 116.378 253.465 116.378H252.079V118.941ZM263.33 119.821C263.33 120.048 263.316 120.254 263.286 120.437H258.655C258.692 120.921 258.872 121.31 259.194 121.603C259.517 121.896 259.913 122.043 260.382 122.043C261.057 122.043 261.534 121.761 261.812 121.196H263.165C262.982 121.753 262.648 122.212 262.164 122.571C261.688 122.923 261.094 123.099 260.382 123.099C259.803 123.099 259.282 122.971 258.82 122.714C258.366 122.45 258.006 122.083 257.742 121.614C257.486 121.137 257.357 120.587 257.357 119.964C257.357 119.341 257.482 118.794 257.731 118.325C257.988 117.848 258.344 117.482 258.798 117.225C259.26 116.968 259.788 116.84 260.382 116.84C260.954 116.84 261.464 116.965 261.911 117.214C262.359 117.463 262.707 117.815 262.956 118.27C263.206 118.717 263.33 119.234 263.33 119.821ZM262.021 119.425C262.014 118.963 261.849 118.593 261.526 118.314C261.204 118.035 260.804 117.896 260.327 117.896C259.895 117.896 259.524 118.035 259.216 118.314C258.908 118.585 258.725 118.956 258.666 119.425H262.021ZM264.146 119.964C264.146 119.341 264.271 118.794 264.52 118.325C264.777 117.848 265.129 117.482 265.576 117.225C266.024 116.968 266.537 116.84 267.116 116.84C267.85 116.84 268.455 117.016 268.931 117.368C269.415 117.713 269.742 118.208 269.91 118.853H268.557C268.447 118.552 268.271 118.318 268.029 118.149C267.787 117.98 267.483 117.896 267.116 117.896C266.603 117.896 266.192 118.079 265.884 118.446C265.584 118.805 265.433 119.311 265.433 119.964C265.433 120.617 265.584 121.126 265.884 121.493C266.192 121.86 266.603 122.043 267.116 122.043C267.842 122.043 268.323 121.724 268.557 121.086H269.91C269.734 121.702 269.404 122.193 268.92 122.56C268.436 122.919 267.835 123.099 267.116 123.099C266.537 123.099 266.024 122.971 265.576 122.714C265.129 122.45 264.777 122.083 264.52 121.614C264.271 121.137 264.146 120.587 264.146 119.964ZM273.789 123.099C273.217 123.099 272.7 122.971 272.238 122.714C271.776 122.45 271.413 122.083 271.149 121.614C270.885 121.137 270.753 120.587 270.753 119.964C270.753 119.348 270.889 118.802 271.16 118.325C271.431 117.848 271.802 117.482 272.271 117.225C272.74 116.968 273.265 116.84 273.844 116.84C274.423 116.84 274.948 116.968 275.417 117.225C275.886 117.482 276.257 117.848 276.528 118.325C276.799 118.802 276.935 119.348 276.935 119.964C276.935 120.58 276.796 121.126 276.517 121.603C276.238 122.08 275.857 122.45 275.373 122.714C274.896 122.971 274.368 123.099 273.789 123.099ZM273.789 122.01C274.112 122.01 274.412 121.933 274.691 121.779C274.977 121.625 275.208 121.394 275.384 121.086C275.56 120.778 275.648 120.404 275.648 119.964C275.648 119.524 275.564 119.154 275.395 118.853C275.226 118.545 275.003 118.314 274.724 118.16C274.445 118.006 274.145 117.929 273.822 117.929C273.499 117.929 273.199 118.006 272.92 118.16C272.649 118.314 272.432 118.545 272.271 118.853C272.11 119.154 272.029 119.524 272.029 119.964C272.029 120.617 272.194 121.123 272.524 121.482C272.861 121.834 273.283 122.01 273.789 122.01ZM280.518 121.878L282.234 116.939H283.565L281.255 123H279.759L277.46 116.939H278.802L280.518 121.878ZM290.068 119.821C290.068 120.048 290.053 120.254 290.024 120.437H285.393C285.429 120.921 285.609 121.31 285.932 121.603C286.254 121.896 286.65 122.043 287.12 122.043C287.794 122.043 288.271 121.761 288.55 121.196H289.902C289.719 121.753 289.386 122.212 288.902 122.571C288.425 122.923 287.831 123.099 287.12 123.099C286.54 123.099 286.02 122.971 285.558 122.714C285.103 122.45 284.744 122.083 284.48 121.614C284.223 121.137 284.095 120.587 284.095 119.964C284.095 119.341 284.219 118.794 284.469 118.325C284.725 117.848 285.081 117.482 285.536 117.225C285.998 116.968 286.526 116.84 287.12 116.84C287.692 116.84 288.201 116.965 288.649 117.214C289.096 117.463 289.444 117.815 289.694 118.27C289.943 118.717 290.068 119.234 290.068 119.821ZM288.759 119.425C288.751 118.963 288.586 118.593 288.264 118.314C287.941 118.035 287.541 117.896 287.065 117.896C286.632 117.896 286.262 118.035 285.954 118.314C285.646 118.585 285.462 118.956 285.404 119.425H288.759ZM292.556 117.819C292.739 117.511 292.981 117.273 293.282 117.104C293.59 116.928 293.953 116.84 294.371 116.84V118.138H294.052C293.56 118.138 293.186 118.263 292.93 118.512C292.68 118.761 292.556 119.194 292.556 119.81V123H291.302V116.939H292.556V117.819ZM300.979 116.939L297.261 125.849H295.963L297.195 122.901L294.808 116.939H296.205L297.91 121.559L299.681 116.939H300.979Z"></path>
<path fill-opacity="0.75" fill="black" d="M253.924 139L252.484 136.498H251.701V139H250.675V132.745H252.835C253.315 132.745 253.72 132.829 254.05 132.997C254.386 133.165 254.635 133.39 254.797 133.672C254.965 133.954 255.049 134.269 255.049 134.617C255.049 135.025 254.929 135.397 254.689 135.733C254.455 136.063 254.092 136.288 253.6 136.408L255.148 139H253.924ZM251.701 135.679H252.835C253.219 135.679 253.507 135.583 253.699 135.391C253.897 135.199 253.996 134.941 253.996 134.617C253.996 134.293 253.9 134.041 253.708 133.861C253.516 133.675 253.225 133.582 252.835 133.582H251.701V135.679ZM260.907 136.399C260.907 136.585 260.895 136.753 260.871 136.903H257.082C257.112 137.299 257.259 137.617 257.523 137.857C257.787 138.097 258.111 138.217 258.495 138.217C259.047 138.217 259.437 137.986 259.665 137.524H260.772C260.622 137.98 260.349 138.355 259.953 138.649C259.563 138.937 259.077 139.081 258.495 139.081C258.021 139.081 257.595 138.976 257.217 138.766C256.845 138.55 256.551 138.25 256.335 137.866C256.125 137.476 256.02 137.026 256.02 136.516C256.02 136.006 256.122 135.559 256.326 135.175C256.536 134.785 256.827 134.485 257.199 134.275C257.577 134.065 258.009 133.96 258.495 133.96C258.963 133.96 259.38 134.062 259.746 134.266C260.112 134.47 260.397 134.758 260.601 135.13C260.805 135.496 260.907 135.919 260.907 136.399ZM259.836 136.075C259.83 135.697 259.695 135.394 259.431 135.166C259.167 134.938 258.84 134.824 258.45 134.824C258.096 134.824 257.793 134.938 257.541 135.166C257.289 135.388 257.139 135.691 257.091 136.075H259.836ZM263.716 139.081C263.326 139.081 262.975 139.012 262.663 138.874C262.357 138.73 262.114 138.538 261.934 138.298C261.754 138.052 261.658 137.779 261.646 137.479H262.708C262.726 137.689 262.825 137.866 263.005 138.01C263.191 138.148 263.422 138.217 263.698 138.217C263.986 138.217 264.208 138.163 264.364 138.055C264.526 137.941 264.607 137.797 264.607 137.623C264.607 137.437 264.517 137.299 264.337 137.209C264.163 137.119 263.884 137.02 263.5 136.912C263.128 136.81 262.825 136.711 262.591 136.615C262.357 136.519 262.153 136.372 261.979 136.174C261.811 135.976 261.727 135.715 261.727 135.391C261.727 135.127 261.805 134.887 261.961 134.671C262.117 134.449 262.339 134.275 262.627 134.149C262.921 134.023 263.257 133.96 263.635 133.96C264.199 133.96 264.652 134.104 264.994 134.392C265.342 134.674 265.528 135.061 265.552 135.553H264.526C264.508 135.331 264.418 135.154 264.256 135.022C264.094 134.89 263.875 134.824 263.599 134.824C263.329 134.824 263.122 134.875 262.978 134.977C262.834 135.079 262.762 135.214 262.762 135.382C262.762 135.514 262.81 135.625 262.906 135.715C263.002 135.805 263.119 135.877 263.257 135.931C263.395 135.979 263.599 136.042 263.869 136.12C264.229 136.216 264.523 136.315 264.751 136.417C264.985 136.513 265.186 136.657 265.354 136.849C265.522 137.041 265.609 137.296 265.615 137.614C265.615 137.896 265.537 138.148 265.381 138.37C265.225 138.592 265.003 138.766 264.715 138.892C264.433 139.018 264.1 139.081 263.716 139.081ZM271.269 136.399C271.269 136.585 271.257 136.753 271.233 136.903H267.444C267.474 137.299 267.621 137.617 267.885 137.857C268.149 138.097 268.473 138.217 268.857 138.217C269.409 138.217 269.799 137.986 270.027 137.524H271.134C270.984 137.98 270.711 138.355 270.315 138.649C269.925 138.937 269.439 139.081 268.857 139.081C268.383 139.081 267.957 138.976 267.579 138.766C267.207 138.55 266.913 138.25 266.697 137.866C266.487 137.476 266.382 137.026 266.382 136.516C266.382 136.006 266.484 135.559 266.688 135.175C266.898 134.785 267.189 134.485 267.561 134.275C267.939 134.065 268.371 133.96 268.857 133.96C269.325 133.96 269.742 134.062 270.108 134.266C270.474 134.47 270.759 134.758 270.963 135.13C271.167 135.496 271.269 135.919 271.269 136.399ZM270.198 136.075C270.192 135.697 270.057 135.394 269.793 135.166C269.529 134.938 269.202 134.824 268.812 134.824C268.458 134.824 268.155 134.938 267.903 135.166C267.651 135.388 267.501 135.691 267.453 136.075H270.198ZM273.476 134.878V137.623C273.476 137.809 273.518 137.944 273.602 138.028C273.692 138.106 273.842 138.145 274.052 138.145H274.682V139H273.872C273.41 139 273.056 138.892 272.81 138.676C272.564 138.46 272.441 138.109 272.441 137.623V134.878H271.856V134.041H272.441V132.808H273.476V134.041H274.682V134.878H273.476ZM279.162 134.878V137.623C279.162 137.809 279.204 137.944 279.288 138.028C279.378 138.106 279.528 138.145 279.738 138.145H280.368V139H279.558C279.096 139 278.742 138.892 278.496 138.676C278.25 138.46 278.127 138.109 278.127 137.623V134.878H277.542V134.041H278.127V132.808H279.162V134.041H280.368V134.878H279.162ZM283.879 133.96C284.257 133.96 284.593 134.041 284.887 134.203C285.187 134.365 285.421 134.605 285.589 134.923C285.763 135.241 285.85 135.625 285.85 136.075V139H284.833V136.228C284.833 135.784 284.722 135.445 284.5 135.211C284.278 134.971 283.975 134.851 283.591 134.851C283.207 134.851 282.901 134.971 282.673 135.211C282.451 135.445 282.34 135.784 282.34 136.228V139H281.314V132.34H282.34V134.617C282.514 134.407 282.733 134.245 282.997 134.131C283.267 134.017 283.561 133.96 283.879 133.96ZM287.68 133.384C287.494 133.384 287.338 133.321 287.212 133.195C287.086 133.069 287.023 132.913 287.023 132.727C287.023 132.541 287.086 132.385 287.212 132.259C287.338 132.133 287.494 132.07 287.68 132.07C287.86 132.07 288.013 132.133 288.139 132.259C288.265 132.385 288.328 132.541 288.328 132.727C288.328 132.913 288.265 133.069 288.139 133.195C288.013 133.321 287.86 133.384 287.68 133.384ZM288.184 134.041V139H287.158V134.041H288.184ZM291.331 139.081C290.941 139.081 290.59 139.012 290.278 138.874C289.972 138.73 289.729 138.538 289.549 138.298C289.369 138.052 289.273 137.779 289.261 137.479H290.323C290.341 137.689 290.44 137.866 290.62 138.01C290.806 138.148 291.037 138.217 291.313 138.217C291.601 138.217 291.823 138.163 291.979 138.055C292.141 137.941 292.222 137.797 292.222 137.623C292.222 137.437 292.132 137.299 291.952 137.209C291.778 137.119 291.499 137.02 291.115 136.912C290.743 136.81 290.44 136.711 290.206 136.615C289.972 136.519 289.768 136.372 289.594 136.174C289.426 135.976 289.342 135.715 289.342 135.391C289.342 135.127 289.42 134.887 289.576 134.671C289.732 134.449 289.954 134.275 290.242 134.149C290.536 134.023 290.872 133.96 291.25 133.96C291.814 133.96 292.267 134.104 292.609 134.392C292.957 134.674 293.143 135.061 293.167 135.553H292.141C292.123 135.331 292.033 135.154 291.871 135.022C291.709 134.89 291.49 134.824 291.214 134.824C290.944 134.824 290.737 134.875 290.593 134.977C290.449 135.079 290.377 135.214 290.377 135.382C290.377 135.514 290.425 135.625 290.521 135.715C290.617 135.805 290.734 135.877 290.872 135.931C291.01 135.979 291.214 136.042 291.484 136.12C291.844 136.216 292.138 136.315 292.366 136.417C292.6 136.513 292.801 136.657 292.969 136.849C293.137 137.041 293.224 137.296 293.23 137.614C293.23 137.896 293.152 138.148 292.996 138.37C292.84 138.592 292.618 138.766 292.33 138.892C292.048 139.018 291.715 139.081 291.331 139.081ZM301.051 134.608C301.051 134.926 300.976 135.226 300.826 135.508C300.676 135.79 300.436 136.021 300.106 136.201C299.776 136.375 299.353 136.462 298.837 136.462H297.703V139H296.677V132.745H298.837C299.317 132.745 299.722 132.829 300.052 132.997C300.388 133.159 300.637 133.381 300.799 133.663C300.967 133.945 301.051 134.26 301.051 134.608ZM298.837 135.625C299.227 135.625 299.518 135.538 299.71 135.364C299.902 135.184 299.998 134.932 299.998 134.608C299.998 133.924 299.611 133.582 298.837 133.582H297.703V135.625H298.837ZM301.687 135.859C301.687 135.247 301.828 134.698 302.11 134.212C302.398 133.726 302.785 133.348 303.271 133.078C303.763 132.802 304.3 132.664 304.882 132.664C305.548 132.664 306.139 132.829 306.655 133.159C307.177 133.483 307.555 133.945 307.789 134.545H306.556C306.394 134.215 306.169 133.969 305.881 133.807C305.593 133.645 305.26 133.564 304.882 133.564C304.468 133.564 304.099 133.657 303.775 133.843C303.451 134.029 303.196 134.296 303.01 134.644C302.83 134.992 302.74 135.397 302.74 135.859C302.74 136.321 302.83 136.726 303.01 137.074C303.196 137.422 303.451 137.692 303.775 137.884C304.099 138.07 304.468 138.163 304.882 138.163C305.26 138.163 305.593 138.082 305.881 137.92C306.169 137.758 306.394 137.512 306.556 137.182H307.789C307.555 137.782 307.177 138.244 306.655 138.568C306.139 138.892 305.548 139.054 304.882 139.054C304.294 139.054 303.757 138.919 303.271 138.649C302.785 138.373 302.398 137.992 302.11 137.506C301.828 137.02 301.687 136.471 301.687 135.859ZM310.115 137.767L309.026 140.251H308.36L308.999 137.767H310.115ZM314.376 134.761C314.526 134.509 314.724 134.314 314.97 134.176C315.222 134.032 315.519 133.96 315.861 133.96V135.022H315.6C315.198 135.022 314.892 135.124 314.682 135.328C314.478 135.532 314.376 135.886 314.376 136.39V139H313.35V134.041H314.376V134.761ZM321.349 136.399C321.349 136.585 321.337 136.753 321.313 136.903H317.524C317.554 137.299 317.701 137.617 317.965 137.857C318.229 138.097 318.553 138.217 318.937 138.217C319.489 138.217 319.879 137.986 320.107 137.524H321.214C321.064 137.98 320.791 138.355 320.395 138.649C320.005 138.937 319.519 139.081 318.937 139.081C318.463 139.081 318.037 138.976 317.659 138.766C317.287 138.55 316.993 138.25 316.777 137.866C316.567 137.476 316.462 137.026 316.462 136.516C316.462 136.006 316.564 135.559 316.768 135.175C316.978 134.785 317.269 134.485 317.641 134.275C318.019 134.065 318.451 133.96 318.937 133.96C319.405 133.96 319.822 134.062 320.188 134.266C320.554 134.47 320.839 134.758 321.043 135.13C321.247 135.496 321.349 135.919 321.349 136.399ZM320.278 136.075C320.272 135.697 320.137 135.394 319.873 135.166C319.609 134.938 319.282 134.824 318.892 134.824C318.538 134.824 318.235 134.938 317.983 135.166C317.731 135.388 317.581 135.691 317.533 136.075H320.278ZM324.159 139.081C323.769 139.081 323.418 139.012 323.106 138.874C322.8 138.73 322.557 138.538 322.377 138.298C322.197 138.052 322.101 137.779 322.089 137.479H323.151C323.169 137.689 323.268 137.866 323.448 138.01C323.634 138.148 323.865 138.217 324.141 138.217C324.429 138.217 324.651 138.163 324.807 138.055C324.969 137.941 325.05 137.797 325.05 137.623C325.05 137.437 324.96 137.299 324.78 137.209C324.606 137.119 324.327 137.02 323.943 136.912C323.571 136.81 323.268 136.711 323.034 136.615C322.8 136.519 322.596 136.372 322.422 136.174C322.254 135.976 322.17 135.715 322.17 135.391C322.17 135.127 322.248 134.887 322.404 134.671C322.56 134.449 322.782 134.275 323.07 134.149C323.364 134.023 323.7 133.96 324.078 133.96C324.642 133.96 325.095 134.104 325.437 134.392C325.785 134.674 325.971 135.061 325.995 135.553H324.969C324.951 135.331 324.861 135.154 324.699 135.022C324.537 134.89 324.318 134.824 324.042 134.824C323.772 134.824 323.565 134.875 323.421 134.977C323.277 135.079 323.205 135.214 323.205 135.382C323.205 135.514 323.253 135.625 323.349 135.715C323.445 135.805 323.562 135.877 323.7 135.931C323.838 135.979 324.042 136.042 324.312 136.12C324.672 136.216 324.966 136.315 325.194 136.417C325.428 136.513 325.629 136.657 325.797 136.849C325.965 137.041 326.052 137.296 326.058 137.614C326.058 137.896 325.98 138.148 325.824 138.37C325.668 138.592 325.446 138.766 325.158 138.892C324.876 139.018 324.543 139.081 324.159 139.081ZM331.711 136.399C331.711 136.585 331.699 136.753 331.675 136.903H327.886C327.916 137.299 328.063 137.617 328.327 137.857C328.591 138.097 328.915 138.217 329.299 138.217C329.851 138.217 330.241 137.986 330.469 137.524H331.576C331.426 137.98 331.153 138.355 330.757 138.649C330.367 138.937 329.881 139.081 329.299 139.081C328.825 139.081 328.399 138.976 328.021 138.766C327.649 138.55 327.355 138.25 327.139 137.866C326.929 137.476 326.824 137.026 326.824 136.516C326.824 136.006 326.926 135.559 327.13 135.175C327.34 134.785 327.631 134.485 328.003 134.275C328.381 134.065 328.813 133.96 329.299 133.96C329.767 133.96 330.184 134.062 330.55 134.266C330.916 134.47 331.201 134.758 331.405 135.13C331.609 135.496 331.711 135.919 331.711 136.399ZM330.64 136.075C330.634 135.697 330.499 135.394 330.235 135.166C329.971 134.938 329.644 134.824 329.254 134.824C328.9 134.824 328.597 134.938 328.345 135.166C328.093 135.388 327.943 135.691 327.895 136.075H330.64ZM333.918 134.878V137.623C333.918 137.809 333.96 137.944 334.044 138.028C334.134 138.106 334.284 138.145 334.494 138.145H335.124V139H334.314C333.852 139 333.498 138.892 333.252 138.676C333.006 138.46 332.883 138.109 332.883 137.623V134.878H332.298V134.041H332.883V132.808H333.918V134.041H335.124V134.878H333.918ZM340.207 139.081C339.817 139.081 339.466 139.012 339.154 138.874C338.848 138.73 338.605 138.538 338.425 138.298C338.245 138.052 338.149 137.779 338.137 137.479H339.199C339.217 137.689 339.316 137.866 339.496 138.01C339.682 138.148 339.913 138.217 340.189 138.217C340.477 138.217 340.699 138.163 340.855 138.055C341.017 137.941 341.098 137.797 341.098 137.623C341.098 137.437 341.008 137.299 340.828 137.209C340.654 137.119 340.375 137.02 339.991 136.912C339.619 136.81 339.316 136.711 339.082 136.615C338.848 136.519 338.644 136.372 338.47 136.174C338.302 135.976 338.218 135.715 338.218 135.391C338.218 135.127 338.296 134.887 338.452 134.671C338.608 134.449 338.83 134.275 339.118 134.149C339.412 134.023 339.748 133.96 340.126 133.96C340.69 133.96 341.143 134.104 341.485 134.392C341.833 134.674 342.019 135.061 342.043 135.553H341.017C340.999 135.331 340.909 135.154 340.747 135.022C340.585 134.89 340.366 134.824 340.09 134.824C339.82 134.824 339.613 134.875 339.469 134.977C339.325 135.079 339.253 135.214 339.253 135.382C339.253 135.514 339.301 135.625 339.397 135.715C339.493 135.805 339.61 135.877 339.748 135.931C339.886 135.979 340.09 136.042 340.36 136.12C340.72 136.216 341.014 136.315 341.242 136.417C341.476 136.513 341.677 136.657 341.845 136.849C342.013 137.041 342.1 137.296 342.106 137.614C342.106 137.896 342.028 138.148 341.872 138.37C341.716 138.592 341.494 138.766 341.206 138.892C340.924 139.018 340.591 139.081 340.207 139.081ZM347.76 136.399C347.76 136.585 347.748 136.753 347.724 136.903H343.935C343.965 137.299 344.112 137.617 344.376 137.857C344.64 138.097 344.964 138.217 345.348 138.217C345.9 138.217 346.29 137.986 346.518 137.524H347.625C347.475 137.98 347.202 138.355 346.806 138.649C346.416 138.937 345.93 139.081 345.348 139.081C344.874 139.081 344.448 138.976 344.07 138.766C343.698 138.55 343.404 138.25 343.188 137.866C342.978 137.476 342.873 137.026 342.873 136.516C342.873 136.006 342.975 135.559 343.179 135.175C343.389 134.785 343.68 134.485 344.052 134.275C344.43 134.065 344.862 133.96 345.348 133.96C345.816 133.96 346.233 134.062 346.599 134.266C346.965 134.47 347.25 134.758 347.454 135.13C347.658 135.496 347.76 135.919 347.76 136.399ZM346.689 136.075C346.683 135.697 346.548 135.394 346.284 135.166C346.02 134.938 345.693 134.824 345.303 134.824C344.949 134.824 344.646 134.938 344.394 135.166C344.142 135.388 343.992 135.691 343.944 136.075H346.689ZM349.967 134.878V137.623C349.967 137.809 350.009 137.944 350.093 138.028C350.183 138.106 350.333 138.145 350.543 138.145H351.173V139H350.363C349.901 139 349.547 138.892 349.301 138.676C349.055 138.46 348.932 138.109 348.932 137.623V134.878H348.347V134.041H348.932V132.808H349.967V134.041H351.173V134.878H349.967ZM353.315 134.878V137.623C353.315 137.809 353.357 137.944 353.441 138.028C353.531 138.106 353.681 138.145 353.891 138.145H354.521V139H353.711C353.249 139 352.895 138.892 352.649 138.676C352.403 138.46 352.28 138.109 352.28 137.623V134.878H351.695V134.041H352.28V132.808H353.315V134.041H354.521V134.878H353.315ZM355.989 133.384C355.803 133.384 355.647 133.321 355.521 133.195C355.395 133.069 355.332 132.913 355.332 132.727C355.332 132.541 355.395 132.385 355.521 132.259C355.647 132.133 355.803 132.07 355.989 132.07C356.169 132.07 356.322 132.133 356.448 132.259C356.574 132.385 356.637 132.541 356.637 132.727C356.637 132.913 356.574 133.069 356.448 133.195C356.322 133.321 356.169 133.384 355.989 133.384ZM356.493 134.041V139H355.467V134.041H356.493ZM360.342 133.96C360.732 133.96 361.08 134.041 361.386 134.203C361.698 134.365 361.941 134.605 362.115 134.923C362.289 135.241 362.376 135.625 362.376 136.075V139H361.359V136.228C361.359 135.784 361.248 135.445 361.026 135.211C360.804 134.971 360.501 134.851 360.117 134.851C359.733 134.851 359.427 134.971 359.199 135.211C358.977 135.445 358.866 135.784 358.866 136.228V139H357.84V134.041H358.866V134.608C359.034 134.404 359.247 134.245 359.505 134.131C359.769 134.017 360.048 133.96 360.342 133.96ZM365.683 133.96C366.067 133.96 366.406 134.038 366.7 134.194C367 134.344 367.234 134.533 367.402 134.761V134.041H368.437V139.081C368.437 139.537 368.341 139.942 368.149 140.296C367.957 140.656 367.678 140.938 367.312 141.142C366.952 141.346 366.52 141.448 366.016 141.448C365.344 141.448 364.786 141.289 364.342 140.971C363.898 140.659 363.646 140.233 363.586 139.693H364.603C364.681 139.951 364.846 140.158 365.098 140.314C365.356 140.476 365.662 140.557 366.016 140.557C366.43 140.557 366.763 140.431 367.015 140.179C367.273 139.927 367.402 139.561 367.402 139.081V138.253C367.228 138.487 366.991 138.685 366.691 138.847C366.397 139.003 366.061 139.081 365.683 139.081C365.251 139.081 364.855 138.973 364.495 138.757C364.141 138.535 363.859 138.229 363.649 137.839C363.445 137.443 363.343 136.996 363.343 136.498C363.343 136 363.445 135.559 363.649 135.175C363.859 134.791 364.141 134.494 364.495 134.284C364.855 134.068 365.251 133.96 365.683 133.96ZM367.402 136.516C367.402 136.174 367.33 135.877 367.186 135.625C367.048 135.373 366.865 135.181 366.637 135.049C366.409 134.917 366.163 134.851 365.899 134.851C365.635 134.851 365.389 134.917 365.161 135.049C364.933 135.175 364.747 135.364 364.603 135.616C364.465 135.862 364.396 136.156 364.396 136.498C364.396 136.84 364.465 137.14 364.603 137.398C364.747 137.656 364.933 137.854 365.161 137.992C365.395 138.124 365.641 138.19 365.899 138.19C366.163 138.19 366.409 138.124 366.637 137.992C366.865 137.86 367.048 137.668 367.186 137.416C367.33 137.158 367.402 136.858 367.402 136.516ZM371.584 139.081C371.194 139.081 370.843 139.012 370.531 138.874C370.225 138.73 369.982 138.538 369.802 138.298C369.622 138.052 369.526 137.779 369.514 137.479H370.576C370.594 137.689 370.693 137.866 370.873 138.01C371.059 138.148 371.29 138.217 371.566 138.217C371.854 138.217 372.076 138.163 372.232 138.055C372.394 137.941 372.475 137.797 372.475 137.623C372.475 137.437 372.385 137.299 372.205 137.209C372.031 137.119 371.752 137.02 371.368 136.912C370.996 136.81 370.693 136.711 370.459 136.615C370.225 136.519 370.021 136.372 369.847 136.174C369.679 135.976 369.595 135.715 369.595 135.391C369.595 135.127 369.673 134.887 369.829 134.671C369.985 134.449 370.207 134.275 370.495 134.149C370.789 134.023 371.125 133.96 371.503 133.96C372.067 133.96 372.52 134.104 372.862 134.392C373.21 134.674 373.396 135.061 373.42 135.553H372.394C372.376 135.331 372.286 135.154 372.124 135.022C371.962 134.89 371.743 134.824 371.467 134.824C371.197 134.824 370.99 134.875 370.846 134.977C370.702 135.079 370.63 135.214 370.63 135.382C370.63 135.514 370.678 135.625 370.774 135.715C370.87 135.805 370.987 135.877 371.125 135.931C371.263 135.979 371.467 136.042 371.737 136.12C372.097 136.216 372.391 136.315 372.619 136.417C372.853 136.513 373.054 136.657 373.222 136.849C373.39 137.041 373.477 137.296 373.483 137.614C373.483 137.896 373.405 138.148 373.249 138.37C373.093 138.592 372.871 138.766 372.583 138.892C372.301 139.018 371.968 139.081 371.584 139.081Z"></path>
<path fill-opacity="0.05" fill="black" d="M190 169C190 166.239 192.239 164 195 164H465C467.761 164 470 166.239 470 169V225C470 227.761 467.761 230 465 230H195C192.239 230 190 227.761 190 225V169Z"></path>
<path stroke-linejoin="round" stroke-linecap="round" stroke-width="1.5" stroke="black" d="M438 202L442.293 197.707C442.683 197.317 442.683 196.683 442.293 196.293L438 192"></path>
<path fill="black" d="M253.344 193.077C252.831 193.077 252.369 192.989 251.958 192.813C251.547 192.63 251.225 192.373 250.99 192.043C250.755 191.713 250.638 191.328 250.638 190.888H251.98C252.009 191.218 252.138 191.489 252.365 191.702C252.6 191.915 252.926 192.021 253.344 192.021C253.777 192.021 254.114 191.918 254.356 191.713C254.598 191.5 254.719 191.229 254.719 190.899C254.719 190.642 254.642 190.433 254.488 190.272C254.341 190.111 254.154 189.986 253.927 189.898C253.707 189.81 253.399 189.715 253.003 189.612C252.504 189.48 252.097 189.348 251.782 189.216C251.474 189.077 251.21 188.864 250.99 188.578C250.77 188.292 250.66 187.911 250.66 187.434C250.66 186.994 250.77 186.609 250.99 186.279C251.21 185.949 251.518 185.696 251.914 185.52C252.31 185.344 252.768 185.256 253.289 185.256C254.03 185.256 254.635 185.443 255.104 185.817C255.581 186.184 255.845 186.69 255.896 187.335H254.51C254.488 187.056 254.356 186.818 254.114 186.62C253.872 186.422 253.553 186.323 253.157 186.323C252.798 186.323 252.504 186.415 252.277 186.598C252.05 186.781 251.936 187.045 251.936 187.39C251.936 187.625 252.006 187.819 252.145 187.973C252.292 188.12 252.475 188.237 252.695 188.325C252.915 188.413 253.216 188.508 253.597 188.611C254.103 188.75 254.514 188.89 254.829 189.029C255.152 189.168 255.423 189.385 255.643 189.678C255.87 189.964 255.984 190.349 255.984 190.833C255.984 191.222 255.878 191.588 255.665 191.933C255.46 192.278 255.155 192.556 254.752 192.769C254.356 192.974 253.887 193.077 253.344 193.077ZM258.927 187.962V191.317C258.927 191.544 258.978 191.709 259.081 191.812C259.191 191.907 259.374 191.955 259.631 191.955H260.401V193H259.411C258.846 193 258.413 192.868 258.113 192.604C257.812 192.34 257.662 191.911 257.662 191.317V187.962H256.947V186.939H257.662V185.432H258.927V186.939H260.401V187.962H258.927ZM264.185 193.099C263.613 193.099 263.096 192.971 262.634 192.714C262.172 192.45 261.809 192.083 261.545 191.614C261.281 191.137 261.149 190.587 261.149 189.964C261.149 189.348 261.285 188.802 261.556 188.325C261.828 187.848 262.198 187.482 262.667 187.225C263.137 186.968 263.661 186.84 264.24 186.84C264.82 186.84 265.344 186.968 265.813 187.225C266.283 187.482 266.653 187.848 266.924 188.325C267.196 188.802 267.331 189.348 267.331 189.964C267.331 190.58 267.192 191.126 266.913 191.603C266.635 192.08 266.253 192.45 265.769 192.714C265.293 192.971 264.765 193.099 264.185 193.099ZM264.185 192.01C264.508 192.01 264.809 191.933 265.087 191.779C265.373 191.625 265.604 191.394 265.78 191.086C265.956 190.778 266.044 190.404 266.044 189.964C266.044 189.524 265.96 189.154 265.791 188.853C265.623 188.545 265.399 188.314 265.12 188.16C264.842 188.006 264.541 187.929 264.218 187.929C263.896 187.929 263.595 188.006 263.316 188.16C263.045 188.314 262.829 188.545 262.667 188.853C262.506 189.154 262.425 189.524 262.425 189.964C262.425 190.617 262.59 191.123 262.92 191.482C263.258 191.834 263.679 192.01 264.185 192.01ZM269.825 187.819C270.008 187.511 270.25 187.273 270.551 187.104C270.859 186.928 271.222 186.84 271.64 186.84V188.138H271.321C270.83 188.138 270.456 188.263 270.199 188.512C269.95 188.761 269.825 189.194 269.825 189.81V193H268.571V186.939H269.825V187.819ZM272.375 189.942C272.375 189.333 272.499 188.794 272.749 188.325C273.005 187.856 273.35 187.493 273.783 187.236C274.223 186.972 274.707 186.84 275.235 186.84C275.711 186.84 276.126 186.935 276.478 187.126C276.837 187.309 277.123 187.54 277.336 187.819V186.939H278.601V193H277.336V192.098C277.123 192.384 276.833 192.622 276.467 192.813C276.1 193.004 275.682 193.099 275.213 193.099C274.692 193.099 274.215 192.967 273.783 192.703C273.35 192.432 273.005 192.058 272.749 191.581C272.499 191.097 272.375 190.551 272.375 189.942ZM277.336 189.964C277.336 189.546 277.248 189.183 277.072 188.875C276.903 188.567 276.679 188.332 276.401 188.171C276.122 188.01 275.821 187.929 275.499 187.929C275.176 187.929 274.875 188.01 274.597 188.171C274.318 188.325 274.091 188.556 273.915 188.864C273.746 189.165 273.662 189.524 273.662 189.942C273.662 190.36 273.746 190.727 273.915 191.042C274.091 191.357 274.318 191.599 274.597 191.768C274.883 191.929 275.183 192.01 275.499 192.01C275.821 192.01 276.122 191.929 276.401 191.768C276.679 191.607 276.903 191.372 277.072 191.064C277.248 190.749 277.336 190.382 277.336 189.964ZM282.69 186.84C283.159 186.84 283.574 186.935 283.933 187.126C284.3 187.309 284.586 187.54 284.791 187.819V186.939H286.056V193.099C286.056 193.656 285.939 194.151 285.704 194.584C285.469 195.024 285.128 195.369 284.681 195.618C284.241 195.867 283.713 195.992 283.097 195.992C282.276 195.992 281.594 195.798 281.051 195.409C280.508 195.028 280.2 194.507 280.127 193.847H281.37C281.465 194.162 281.667 194.415 281.975 194.606C282.29 194.804 282.664 194.903 283.097 194.903C283.603 194.903 284.01 194.749 284.318 194.441C284.633 194.133 284.791 193.686 284.791 193.099V192.087C284.578 192.373 284.289 192.615 283.922 192.813C283.563 193.004 283.152 193.099 282.69 193.099C282.162 193.099 281.678 192.967 281.238 192.703C280.805 192.432 280.461 192.058 280.204 191.581C279.955 191.097 279.83 190.551 279.83 189.942C279.83 189.333 279.955 188.794 280.204 188.325C280.461 187.856 280.805 187.493 281.238 187.236C281.678 186.972 282.162 186.84 282.69 186.84ZM284.791 189.964C284.791 189.546 284.703 189.183 284.527 188.875C284.358 188.567 284.135 188.332 283.856 188.171C283.577 188.01 283.277 187.929 282.954 187.929C282.631 187.929 282.331 188.01 282.052 188.171C281.773 188.325 281.546 188.556 281.37 188.864C281.201 189.165 281.117 189.524 281.117 189.942C281.117 190.36 281.201 190.727 281.37 191.042C281.546 191.357 281.773 191.599 282.052 191.768C282.338 191.929 282.639 192.01 282.954 192.01C283.277 192.01 283.577 191.929 283.856 191.768C284.135 191.607 284.358 191.372 284.527 191.064C284.703 190.749 284.791 190.382 284.791 189.964ZM293.258 189.821C293.258 190.048 293.243 190.254 293.214 190.437H288.583C288.62 190.921 288.799 191.31 289.122 191.603C289.445 191.896 289.841 192.043 290.31 192.043C290.985 192.043 291.461 191.761 291.74 191.196H293.093C292.91 191.753 292.576 192.212 292.092 192.571C291.615 192.923 291.021 193.099 290.31 193.099C289.731 193.099 289.21 192.971 288.748 192.714C288.293 192.45 287.934 192.083 287.67 191.614C287.413 191.137 287.285 190.587 287.285 189.964C287.285 189.341 287.41 188.794 287.659 188.325C287.916 187.848 288.271 187.482 288.726 187.225C289.188 186.968 289.716 186.84 290.31 186.84C290.882 186.84 291.392 186.965 291.839 187.214C292.286 187.463 292.635 187.815 292.884 188.27C293.133 188.717 293.258 189.234 293.258 189.821ZM291.949 189.425C291.942 188.963 291.777 188.593 291.454 188.314C291.131 188.035 290.732 187.896 290.255 187.896C289.822 187.896 289.452 188.035 289.144 188.314C288.836 188.585 288.653 188.956 288.594 189.425H291.949Z"></path>
<path fill-opacity="0.75" fill="black" d="M252.736 209.063C252.316 209.063 251.938 208.991 251.602 208.847C251.266 208.697 251.002 208.487 250.81 208.217C250.618 207.947 250.522 207.632 250.522 207.272H251.62C251.644 207.542 251.749 207.764 251.935 207.938C252.127 208.112 252.394 208.199 252.736 208.199C253.09 208.199 253.366 208.115 253.564 207.947C253.762 207.773 253.861 207.551 253.861 207.281C253.861 207.071 253.798 206.9 253.672 206.768C253.552 206.636 253.399 206.534 253.213 206.462C253.033 206.39 252.781 206.312 252.457 206.228C252.049 206.12 251.716 206.012 251.458 205.904C251.206 205.79 250.99 205.616 250.81 205.382C250.63 205.148 250.54 204.836 250.54 204.446C250.54 204.086 250.63 203.771 250.81 203.501C250.99 203.231 251.242 203.024 251.566 202.88C251.89 202.736 252.265 202.664 252.691 202.664C253.297 202.664 253.792 202.817 254.176 203.123C254.566 203.423 254.782 203.837 254.824 204.365H253.69C253.672 204.137 253.564 203.942 253.366 203.78C253.168 203.618 252.907 203.537 252.583 203.537C252.289 203.537 252.049 203.612 251.863 203.762C251.677 203.912 251.584 204.128 251.584 204.41C251.584 204.602 251.641 204.761 251.755 204.887C251.875 205.007 252.025 205.103 252.205 205.175C252.385 205.247 252.631 205.325 252.943 205.409C253.357 205.523 253.693 205.637 253.951 205.751C254.215 205.865 254.437 206.042 254.617 206.282C254.803 206.516 254.896 206.831 254.896 207.227C254.896 207.545 254.809 207.845 254.635 208.127C254.467 208.409 254.218 208.637 253.888 208.811C253.564 208.979 253.18 209.063 252.736 209.063ZM257.304 204.878V207.623C257.304 207.809 257.346 207.944 257.43 208.028C257.52 208.106 257.67 208.145 257.88 208.145H258.51V209H257.7C257.238 209 256.884 208.892 256.638 208.676C256.392 208.46 256.269 208.109 256.269 207.623V204.878H255.684V204.041H256.269V202.808H257.304V204.041H258.51V204.878H257.304ZM261.606 209.081C261.138 209.081 260.715 208.976 260.337 208.766C259.959 208.55 259.662 208.25 259.446 207.866C259.23 207.476 259.122 207.026 259.122 206.516C259.122 206.012 259.233 205.565 259.455 205.175C259.677 204.785 259.98 204.485 260.364 204.275C260.748 204.065 261.177 203.96 261.651 203.96C262.125 203.96 262.554 204.065 262.938 204.275C263.322 204.485 263.625 204.785 263.847 205.175C264.069 205.565 264.18 206.012 264.18 206.516C264.18 207.02 264.066 207.467 263.838 207.857C263.61 208.247 263.298 208.55 262.902 208.766C262.512 208.976 262.08 209.081 261.606 209.081ZM261.606 208.19C261.87 208.19 262.116 208.127 262.344 208.001C262.578 207.875 262.767 207.686 262.911 207.434C263.055 207.182 263.127 206.876 263.127 206.516C263.127 206.156 263.058 205.853 262.92 205.607C262.782 205.355 262.599 205.166 262.371 205.04C262.143 204.914 261.897 204.851 261.633 204.851C261.369 204.851 261.123 204.914 260.895 205.04C260.673 205.166 260.496 205.355 260.364 205.607C260.232 205.853 260.166 206.156 260.166 206.516C260.166 207.05 260.301 207.464 260.571 207.758C260.847 208.046 261.192 208.19 261.606 208.19ZM266.221 204.761C266.371 204.509 266.569 204.314 266.815 204.176C267.067 204.032 267.364 203.96 267.706 203.96V205.022H267.445C267.043 205.022 266.737 205.124 266.527 205.328C266.323 205.532 266.221 205.886 266.221 206.39V209H265.195V204.041H266.221V204.761ZM268.307 206.498C268.307 206 268.409 205.559 268.613 205.175C268.823 204.791 269.105 204.494 269.459 204.284C269.819 204.068 270.215 203.96 270.647 203.96C271.037 203.96 271.376 204.038 271.664 204.194C271.958 204.344 272.192 204.533 272.366 204.761V204.041H273.401V209H272.366V208.262C272.192 208.496 271.955 208.691 271.655 208.847C271.355 209.003 271.013 209.081 270.629 209.081C270.203 209.081 269.813 208.973 269.459 208.757C269.105 208.535 268.823 208.229 268.613 207.839C268.409 207.443 268.307 206.996 268.307 206.498ZM272.366 206.516C272.366 206.174 272.294 205.877 272.15 205.625C272.012 205.373 271.829 205.181 271.601 205.049C271.373 204.917 271.127 204.851 270.863 204.851C270.599 204.851 270.353 204.917 270.125 205.049C269.897 205.175 269.711 205.364 269.567 205.616C269.429 205.862 269.36 206.156 269.36 206.498C269.36 206.84 269.429 207.14 269.567 207.398C269.711 207.656 269.897 207.854 270.125 207.992C270.359 208.124 270.605 208.19 270.863 208.19C271.127 208.19 271.373 208.124 271.601 207.992C271.829 207.86 272.012 207.668 272.15 207.416C272.294 207.158 272.366 206.858 272.366 206.516ZM276.746 203.96C277.13 203.96 277.469 204.038 277.763 204.194C278.063 204.344 278.297 204.533 278.465 204.761V204.041H279.5V209.081C279.5 209.537 279.404 209.942 279.212 210.296C279.02 210.656 278.741 210.938 278.375 211.142C278.015 211.346 277.583 211.448 277.079 211.448C276.407 211.448 275.849 211.289 275.405 210.971C274.961 210.659 274.709 210.233 274.649 209.693H275.666C275.744 209.951 275.909 210.158 276.161 210.314C276.419 210.476 276.725 210.557 277.079 210.557C277.493 210.557 277.826 210.431 278.078 210.179C278.336 209.927 278.465 209.561 278.465 209.081V208.253C278.291 208.487 278.054 208.685 277.754 208.847C277.46 209.003 277.124 209.081 276.746 209.081C276.314 209.081 275.918 208.973 275.558 208.757C275.204 208.535 274.922 208.229 274.712 207.839C274.508 207.443 274.406 206.996 274.406 206.498C274.406 206 274.508 205.559 274.712 205.175C274.922 204.791 275.204 204.494 275.558 204.284C275.918 204.068 276.314 203.96 276.746 203.96ZM278.465 206.516C278.465 206.174 278.393 205.877 278.249 205.625C278.111 205.373 277.928 205.181 277.7 205.049C277.472 204.917 277.226 204.851 276.962 204.851C276.698 204.851 276.452 204.917 276.224 205.049C275.996 205.175 275.81 205.364 275.666 205.616C275.528 205.862 275.459 206.156 275.459 206.498C275.459 206.84 275.528 207.14 275.666 207.398C275.81 207.656 275.996 207.854 276.224 207.992C276.458 208.124 276.704 208.19 276.962 208.19C277.226 208.19 277.472 208.124 277.7 207.992C277.928 207.86 278.111 207.668 278.249 207.416C278.393 207.158 278.465 206.858 278.465 206.516ZM285.393 206.399C285.393 206.585 285.381 206.753 285.357 206.903H281.568C281.598 207.299 281.745 207.617 282.009 207.857C282.273 208.097 282.597 208.217 282.981 208.217C283.533 208.217 283.923 207.986 284.151 207.524H285.258C285.108 207.98 284.835 208.355 284.439 208.649C284.049 208.937 283.563 209.081 282.981 209.081C282.507 209.081 282.081 208.976 281.703 208.766C281.331 208.55 281.037 208.25 280.821 207.866C280.611 207.476 280.506 207.026 280.506 206.516C280.506 206.006 280.608 205.559 280.812 205.175C281.022 204.785 281.313 204.485 281.685 204.275C282.063 204.065 282.495 203.96 282.981 203.96C283.449 203.96 283.866 204.062 284.232 204.266C284.598 204.47 284.883 204.758 285.087 205.13C285.291 205.496 285.393 205.919 285.393 206.399ZM284.322 206.075C284.316 205.697 284.181 205.394 283.917 205.166C283.653 204.938 283.326 204.824 282.936 204.824C282.582 204.824 282.279 204.938 282.027 205.166C281.775 205.388 281.625 205.691 281.577 206.075H284.322ZM290.54 209.081C290.15 209.081 289.799 209.012 289.487 208.874C289.181 208.73 288.938 208.538 288.758 208.298C288.578 208.052 288.482 207.779 288.47 207.479H289.532C289.55 207.689 289.649 207.866 289.829 208.01C290.015 208.148 290.246 208.217 290.522 208.217C290.81 208.217 291.032 208.163 291.188 208.055C291.35 207.941 291.431 207.797 291.431 207.623C291.431 207.437 291.341 207.299 291.161 207.209C290.987 207.119 290.708 207.02 290.324 206.912C289.952 206.81 289.649 206.711 289.415 206.615C289.181 206.519 288.977 206.372 288.803 206.174C288.635 205.976 288.551 205.715 288.551 205.391C288.551 205.127 288.629 204.887 288.785 204.671C288.941 204.449 289.163 204.275 289.451 204.149C289.745 204.023 290.081 203.96 290.459 203.96C291.023 203.96 291.476 204.104 291.818 204.392C292.166 204.674 292.352 205.061 292.376 205.553H291.35C291.332 205.331 291.242 205.154 291.08 205.022C290.918 204.89 290.699 204.824 290.423 204.824C290.153 204.824 289.946 204.875 289.802 204.977C289.658 205.079 289.586 205.214 289.586 205.382C289.586 205.514 289.634 205.625 289.73 205.715C289.826 205.805 289.943 205.877 290.081 205.931C290.219 205.979 290.423 206.042 290.693 206.12C291.053 206.216 291.347 206.315 291.575 206.417C291.809 206.513 292.01 206.657 292.178 206.849C292.346 207.041 292.433 207.296 292.439 207.614C292.439 207.896 292.361 208.148 292.205 208.37C292.049 208.592 291.827 208.766 291.539 208.892C291.257 209.018 290.924 209.081 290.54 209.081ZM294.574 204.77C294.748 204.542 294.985 204.35 295.285 204.194C295.585 204.038 295.924 203.96 296.302 203.96C296.734 203.96 297.127 204.068 297.481 204.284C297.841 204.494 298.123 204.791 298.327 205.175C298.531 205.559 298.633 206 298.633 206.498C298.633 206.996 298.531 207.443 298.327 207.839C298.123 208.229 297.841 208.535 297.481 208.757C297.127 208.973 296.734 209.081 296.302 209.081C295.924 209.081 295.588 209.006 295.294 208.856C295 208.7 294.76 208.508 294.574 208.28V211.358H293.548V204.041H294.574V204.77ZM297.589 206.498C297.589 206.156 297.517 205.862 297.373 205.616C297.235 205.364 297.049 205.175 296.815 205.049C296.587 204.917 296.341 204.851 296.077 204.851C295.819 204.851 295.573 204.917 295.339 205.049C295.111 205.181 294.925 205.373 294.781 205.625C294.643 205.877 294.574 206.174 294.574 206.516C294.574 206.858 294.643 207.158 294.781 207.416C294.925 207.668 295.111 207.86 295.339 207.992C295.573 208.124 295.819 208.19 296.077 208.19C296.341 208.19 296.587 208.124 296.815 207.992C297.049 207.854 297.235 207.656 297.373 207.398C297.517 207.14 297.589 206.84 297.589 206.498ZM299.306 206.498C299.306 206 299.408 205.559 299.612 205.175C299.822 204.791 300.104 204.494 300.458 204.284C300.818 204.068 301.214 203.96 301.646 203.96C302.036 203.96 302.375 204.038 302.663 204.194C302.957 204.344 303.191 204.533 303.365 204.761V204.041H304.4V209H303.365V208.262C303.191 208.496 302.954 208.691 302.654 208.847C302.354 209.003 302.012 209.081 301.628 209.081C301.202 209.081 300.812 208.973 300.458 208.757C300.104 208.535 299.822 208.229 299.612 207.839C299.408 207.443 299.306 206.996 299.306 206.498ZM303.365 206.516C303.365 206.174 303.293 205.877 303.149 205.625C303.011 205.373 302.828 205.181 302.6 205.049C302.372 204.917 302.126 204.851 301.862 204.851C301.598 204.851 301.352 204.917 301.124 205.049C300.896 205.175 300.71 205.364 300.566 205.616C300.428 205.862 300.359 206.156 300.359 206.498C300.359 206.84 300.428 207.14 300.566 207.398C300.71 207.656 300.896 207.854 301.124 207.992C301.358 208.124 301.604 208.19 301.862 208.19C302.126 208.19 302.372 208.124 302.6 207.992C302.828 207.86 303.011 207.668 303.149 207.416C303.293 207.158 303.365 206.858 303.365 206.516ZM305.405 206.516C305.405 206.006 305.507 205.559 305.711 205.175C305.921 204.785 306.209 204.485 306.575 204.275C306.941 204.065 307.361 203.96 307.835 203.96C308.435 203.96 308.93 204.104 309.32 204.392C309.716 204.674 309.983 205.079 310.121 205.607H309.014C308.924 205.361 308.78 205.169 308.582 205.031C308.384 204.893 308.135 204.824 307.835 204.824C307.415 204.824 307.079 204.974 306.827 205.274C306.581 205.568 306.458 205.982 306.458 206.516C306.458 207.05 306.581 207.467 306.827 207.767C307.079 208.067 307.415 208.217 307.835 208.217C308.429 208.217 308.822 207.956 309.014 207.434H310.121C309.977 207.938 309.707 208.34 309.311 208.64C308.915 208.934 308.423 209.081 307.835 209.081C307.361 209.081 306.941 208.976 306.575 208.766C306.209 208.55 305.921 208.25 305.711 207.866C305.507 207.476 305.405 207.026 305.405 206.516ZM315.689 206.399C315.689 206.585 315.677 206.753 315.653 206.903H311.864C311.894 207.299 312.041 207.617 312.305 207.857C312.569 208.097 312.893 208.217 313.277 208.217C313.829 208.217 314.219 207.986 314.447 207.524H315.554C315.404 207.98 315.131 208.355 314.735 208.649C314.345 208.937 313.859 209.081 313.277 209.081C312.803 209.081 312.377 208.976 311.999 208.766C311.627 208.55 311.333 208.25 311.117 207.866C310.907 207.476 310.802 207.026 310.802 206.516C310.802 206.006 310.904 205.559 311.108 205.175C311.318 204.785 311.609 204.485 311.981 204.275C312.359 204.065 312.791 203.96 313.277 203.96C313.745 203.96 314.162 204.062 314.528 204.266C314.894 204.47 315.179 204.758 315.383 205.13C315.587 205.496 315.689 205.919 315.689 206.399ZM314.618 206.075C314.612 205.697 314.477 205.394 314.213 205.166C313.949 204.938 313.622 204.824 313.232 204.824C312.878 204.824 312.575 204.938 312.323 205.166C312.071 205.388 311.921 205.691 311.873 206.075H314.618ZM317.823 207.767L316.734 210.251H316.068L316.707 207.767H317.823ZM322.255 204.878V207.623C322.255 207.809 322.297 207.944 322.381 208.028C322.471 208.106 322.621 208.145 322.831 208.145H323.461V209H322.651C322.189 209 321.835 208.892 321.589 208.676C321.343 208.46 321.22 208.109 321.22 207.623V204.878H320.635V204.041H321.22V202.808H322.255V204.041H323.461V204.878H322.255ZM325.432 204.761C325.582 204.509 325.78 204.314 326.026 204.176C326.278 204.032 326.575 203.96 326.917 203.96V205.022H326.656C326.254 205.022 325.948 205.124 325.738 205.328C325.534 205.532 325.432 205.886 325.432 206.39V209H324.406V204.041H325.432V204.761ZM330.012 209.081C329.544 209.081 329.121 208.976 328.743 208.766C328.365 208.55 328.068 208.25 327.852 207.866C327.636 207.476 327.528 207.026 327.528 206.516C327.528 206.012 327.639 205.565 327.861 205.175C328.083 204.785 328.386 204.485 328.77 204.275C329.154 204.065 329.583 203.96 330.057 203.96C330.531 203.96 330.96 204.065 331.344 204.275C331.728 204.485 332.031 204.785 332.253 205.175C332.475 205.565 332.586 206.012 332.586 206.516C332.586 207.02 332.472 207.467 332.244 207.857C332.016 208.247 331.704 208.55 331.308 208.766C330.918 208.976 330.486 209.081 330.012 209.081ZM330.012 208.19C330.276 208.19 330.522 208.127 330.75 208.001C330.984 207.875 331.173 207.686 331.317 207.434C331.461 207.182 331.533 206.876 331.533 206.516C331.533 206.156 331.464 205.853 331.326 205.607C331.188 205.355 331.005 205.166 330.777 205.04C330.549 204.914 330.303 204.851 330.039 204.851C329.775 204.851 329.529 204.914 329.301 205.04C329.079 205.166 328.902 205.355 328.77 205.607C328.638 205.853 328.572 206.156 328.572 206.516C328.572 207.05 328.707 207.464 328.977 207.758C329.253 208.046 329.598 208.19 330.012 208.19ZM338.091 204.041V209H337.065V208.415C336.903 208.619 336.69 208.781 336.426 208.901C336.168 209.015 335.892 209.072 335.598 209.072C335.208 209.072 334.857 208.991 334.545 208.829C334.239 208.667 333.996 208.427 333.816 208.109C333.642 207.791 333.555 207.407 333.555 206.957V204.041H334.572V206.804C334.572 207.248 334.683 207.59 334.905 207.83C335.127 208.064 335.43 208.181 335.814 208.181C336.198 208.181 336.501 208.064 336.723 207.83C336.951 207.59 337.065 207.248 337.065 206.804V204.041H338.091ZM340.471 204.779C340.645 204.539 340.882 204.344 341.182 204.194C341.488 204.038 341.827 203.96 342.199 203.96C342.637 203.96 343.033 204.065 343.387 204.275C343.741 204.485 344.02 204.785 344.224 205.175C344.428 205.559 344.53 206 344.53 206.498C344.53 206.996 344.428 207.443 344.224 207.839C344.02 208.229 343.738 208.535 343.378 208.757C343.024 208.973 342.631 209.081 342.199 209.081C341.815 209.081 341.473 209.006 341.173 208.856C340.879 208.706 340.645 208.514 340.471 208.28V209H339.445V202.34H340.471V204.779ZM343.486 206.498C343.486 206.156 343.414 205.862 343.27 205.616C343.132 205.364 342.946 205.175 342.712 205.049C342.484 204.917 342.238 204.851 341.974 204.851C341.716 204.851 341.47 204.917 341.236 205.049C341.008 205.181 340.822 205.373 340.678 205.625C340.54 205.877 340.471 206.174 340.471 206.516C340.471 206.858 340.54 207.158 340.678 207.416C340.822 207.668 341.008 207.86 341.236 207.992C341.47 208.124 341.716 208.19 341.974 208.19C342.238 208.19 342.484 208.124 342.712 207.992C342.946 207.854 343.132 207.656 343.27 207.398C343.414 207.14 343.486 206.84 343.486 206.498ZM346.57 202.34V209H345.544V202.34H346.57ZM352.462 206.399C352.462 206.585 352.45 206.753 352.426 206.903H348.637C348.667 207.299 348.814 207.617 349.078 207.857C349.342 208.097 349.666 208.217 350.05 208.217C350.602 208.217 350.992 207.986 351.22 207.524H352.327C352.177 207.98 351.904 208.355 351.508 208.649C351.118 208.937 350.632 209.081 350.05 209.081C349.576 209.081 349.15 208.976 348.772 208.766C348.4 208.55 348.106 208.25 347.89 207.866C347.68 207.476 347.575 207.026 347.575 206.516C347.575 206.006 347.677 205.559 347.881 205.175C348.091 204.785 348.382 204.485 348.754 204.275C349.132 204.065 349.564 203.96 350.05 203.96C350.518 203.96 350.935 204.062 351.301 204.266C351.667 204.47 351.952 204.758 352.156 205.13C352.36 205.496 352.462 205.919 352.462 206.399ZM351.391 206.075C351.385 205.697 351.25 205.394 350.986 205.166C350.722 204.938 350.395 204.824 350.005 204.824C349.651 204.824 349.348 204.938 349.096 205.166C348.844 205.388 348.694 205.691 348.646 206.075H351.391ZM355.272 209.081C354.882 209.081 354.531 209.012 354.219 208.874C353.913 208.73 353.67 208.538 353.49 208.298C353.31 208.052 353.214 207.779 353.202 207.479H354.264C354.282 207.689 354.381 207.866 354.561 208.01C354.747 208.148 354.978 208.217 355.254 208.217C355.542 208.217 355.764 208.163 355.92 208.055C356.082 207.941 356.163 207.797 356.163 207.623C356.163 207.437 356.073 207.299 355.893 207.209C355.719 207.119 355.44 207.02 355.056 206.912C354.684 206.81 354.381 206.711 354.147 206.615C353.913 206.519 353.709 206.372 353.535 206.174C353.367 205.976 353.283 205.715 353.283 205.391C353.283 205.127 353.361 204.887 353.517 204.671C353.673 204.449 353.895 204.275 354.183 204.149C354.477 204.023 354.813 203.96 355.191 203.96C355.755 203.96 356.208 204.104 356.55 204.392C356.898 204.674 357.084 205.061 357.108 205.553H356.082C356.064 205.331 355.974 205.154 355.812 205.022C355.65 204.89 355.431 204.824 355.155 204.824C354.885 204.824 354.678 204.875 354.534 204.977C354.39 205.079 354.318 205.214 354.318 205.382C354.318 205.514 354.366 205.625 354.462 205.715C354.558 205.805 354.675 205.877 354.813 205.931C354.951 205.979 355.155 206.042 355.425 206.12C355.785 206.216 356.079 206.315 356.307 206.417C356.541 206.513 356.742 206.657 356.91 206.849C357.078 207.041 357.165 207.296 357.171 207.614C357.171 207.896 357.093 208.148 356.937 208.37C356.781 208.592 356.559 208.766 356.271 208.892C355.989 209.018 355.656 209.081 355.272 209.081ZM360.844 203.96C361.222 203.96 361.558 204.041 361.852 204.203C362.152 204.365 362.386 204.605 362.554 204.923C362.728 205.241 362.815 205.625 362.815 206.075V209H361.798V206.228C361.798 205.784 361.687 205.445 361.465 205.211C361.243 204.971 360.94 204.851 360.556 204.851C360.172 204.851 359.866 204.971 359.638 205.211C359.416 205.445 359.305 205.784 359.305 206.228V209H358.279V202.34H359.305V204.617C359.479 204.407 359.698 204.245 359.962 204.131C360.232 204.017 360.526 203.96 360.844 203.96ZM366.275 209.081C365.807 209.081 365.384 208.976 365.006 208.766C364.628 208.55 364.331 208.25 364.115 207.866C363.899 207.476 363.791 207.026 363.791 206.516C363.791 206.012 363.902 205.565 364.124 205.175C364.346 204.785 364.649 204.485 365.033 204.275C365.417 204.065 365.846 203.96 366.32 203.96C366.794 203.96 367.223 204.065 367.607 204.275C367.991 204.485 368.294 204.785 368.516 205.175C368.738 205.565 368.849 206.012 368.849 206.516C368.849 207.02 368.735 207.467 368.507 207.857C368.279 208.247 367.967 208.55 367.571 208.766C367.181 208.976 366.749 209.081 366.275 209.081ZM366.275 208.19C366.539 208.19 366.785 208.127 367.013 208.001C367.247 207.875 367.436 207.686 367.58 207.434C367.724 207.182 367.796 206.876 367.796 206.516C367.796 206.156 367.727 205.853 367.589 205.607C367.451 205.355 367.268 205.166 367.04 205.04C366.812 204.914 366.566 204.851 366.302 204.851C366.038 204.851 365.792 204.914 365.564 205.04C365.342 205.166 365.165 205.355 365.033 205.607C364.901 205.853 364.835 206.156 364.835 206.516C364.835 207.05 364.97 207.464 365.24 207.758C365.516 208.046 365.861 208.19 366.275 208.19ZM372.014 209.081C371.546 209.081 371.123 208.976 370.745 208.766C370.367 208.55 370.07 208.25 369.854 207.866C369.638 207.476 369.53 207.026 369.53 206.516C369.53 206.012 369.641 205.565 369.863 205.175C370.085 204.785 370.388 204.485 370.772 204.275C371.156 204.065 371.585 203.96 372.059 203.96C372.533 203.96 372.962 204.065 373.346 204.275C373.73 204.485 374.033 204.785 374.255 205.175C374.477 205.565 374.588 206.012 374.588 206.516C374.588 207.02 374.474 207.467 374.246 207.857C374.018 208.247 373.706 208.55 373.31 208.766C372.92 208.976 372.488 209.081 372.014 209.081ZM372.014 208.19C372.278 208.19 372.524 208.127 372.752 208.001C372.986 207.875 373.175 207.686 373.319 207.434C373.463 207.182 373.535 206.876 373.535 206.516C373.535 206.156 373.466 205.853 373.328 205.607C373.19 205.355 373.007 205.166 372.779 205.04C372.551 204.914 372.305 204.851 372.041 204.851C371.777 204.851 371.531 204.914 371.303 205.04C371.081 205.166 370.904 205.355 370.772 205.607C370.64 205.853 370.574 206.156 370.574 206.516C370.574 207.05 370.709 207.464 370.979 207.758C371.255 208.046 371.6 208.19 372.014 208.19ZM376.8 204.878V207.623C376.8 207.809 376.842 207.944 376.926 208.028C377.016 208.106 377.166 208.145 377.376 208.145H378.006V209H377.196C376.734 209 376.38 208.892 376.134 208.676C375.888 208.46 375.765 208.109 375.765 207.623V204.878H375.18V204.041H375.765V202.808H376.8V204.041H378.006V204.878H376.8Z"></path>
<path stroke-width="1.5" stroke="black" d="M229.25 195V199C229.25 200.243 228.243 201.25 227 201.25H213C211.757 201.25 210.75 200.243 210.75 199V195C210.75 193.757 211.757 192.75 213 192.75H227C228.243 192.75 229.25 193.757 229.25 195Z"></path>
<path fill="black" d="M223.5 197C223.5 196.172 224.172 195.5 225 195.5V195.5C225.828 195.5 226.5 196.172 226.5 197V197C226.5 197.828 225.828 198.5 225 198.5V198.5C224.172 198.5 223.5 197.828 223.5 197V197Z"></path>
<path fill-opacity="0.05" fill="black" d="M190 239C190 236.239 192.239 234 195 234H465C467.761 234 470 236.239 470 239V295C470 297.761 467.761 300 465 300H195C192.239 300 190 297.761 190 295V239Z"></path>
<path fill="black" d="M211.353 269.295C212.057 268.686 212.611 268.188 213.014 267.799C213.425 267.403 213.766 266.992 214.037 266.567C214.308 266.142 214.444 265.716 214.444 265.291C214.444 264.851 214.338 264.506 214.125 264.257C213.92 264.008 213.593 263.883 213.146 263.883C212.713 263.883 212.376 264.022 212.134 264.301C211.899 264.572 211.775 264.939 211.76 265.401H210.55C210.572 264.565 210.821 263.927 211.298 263.487C211.782 263.04 212.394 262.816 213.135 262.816C213.934 262.816 214.558 263.036 215.005 263.476C215.46 263.916 215.687 264.503 215.687 265.236C215.687 265.764 215.551 266.274 215.28 266.765C215.016 267.249 214.697 267.685 214.323 268.074C213.956 268.455 213.487 268.899 212.915 269.405L212.42 269.845H215.907V270.89H210.561V269.977L211.353 269.295ZM216.855 269.328V268.382L220.551 263.08H222.069V268.239H223.092V269.328H222.069V271H220.837V269.328H216.855ZM220.892 264.356L218.296 268.239H220.892V264.356ZM228.949 266.49V267.546H224.428V266.49H228.949ZM233.865 264.84C234.327 264.84 234.738 264.939 235.097 265.137C235.464 265.335 235.75 265.628 235.955 266.017C236.168 266.406 236.274 266.875 236.274 267.425V271H235.031V267.612C235.031 267.069 234.896 266.655 234.624 266.369C234.353 266.076 233.983 265.929 233.513 265.929C233.044 265.929 232.67 266.076 232.391 266.369C232.12 266.655 231.984 267.069 231.984 267.612V271H230.73V262.86H231.984V265.643C232.197 265.386 232.465 265.188 232.787 265.049C233.117 264.91 233.477 264.84 233.865 264.84ZM240.503 271.099C239.931 271.099 239.414 270.971 238.952 270.714C238.49 270.45 238.127 270.083 237.863 269.614C237.599 269.137 237.467 268.587 237.467 267.964C237.467 267.348 237.602 266.802 237.874 266.325C238.145 265.848 238.515 265.482 238.985 265.225C239.454 264.968 239.978 264.84 240.558 264.84C241.137 264.84 241.661 264.968 242.131 265.225C242.6 265.482 242.97 265.848 243.242 266.325C243.513 266.802 243.649 267.348 243.649 267.964C243.649 268.58 243.509 269.126 243.231 269.603C242.952 270.08 242.571 270.45 242.087 270.714C241.61 270.971 241.082 271.099 240.503 271.099ZM240.503 270.01C240.825 270.01 241.126 269.933 241.405 269.779C241.691 269.625 241.922 269.394 242.098 269.086C242.274 268.778 242.362 268.404 242.362 267.964C242.362 267.524 242.277 267.154 242.109 266.853C241.94 266.545 241.716 266.314 241.438 266.16C241.159 266.006 240.858 265.929 240.536 265.929C240.213 265.929 239.912 266.006 239.634 266.16C239.362 266.314 239.146 266.545 238.985 266.853C238.823 267.154 238.743 267.524 238.743 267.964C238.743 268.617 238.908 269.123 239.238 269.482C239.575 269.834 239.997 270.01 240.503 270.01ZM250.377 264.939V271H249.123V270.285C248.925 270.534 248.665 270.732 248.342 270.879C248.027 271.018 247.69 271.088 247.33 271.088C246.854 271.088 246.425 270.989 246.043 270.791C245.669 270.593 245.372 270.3 245.152 269.911C244.94 269.522 244.833 269.053 244.833 268.503V264.939H246.076V268.316C246.076 268.859 246.212 269.277 246.483 269.57C246.755 269.856 247.125 269.999 247.594 269.999C248.064 269.999 248.434 269.856 248.705 269.57C248.984 269.277 249.123 268.859 249.123 268.316V264.939H250.377ZM253.286 265.819C253.469 265.511 253.711 265.273 254.012 265.104C254.32 264.928 254.683 264.84 255.101 264.84V266.138H254.782C254.291 266.138 253.917 266.263 253.66 266.512C253.411 266.761 253.286 267.194 253.286 267.81V271H252.032V264.939H253.286V265.819ZM258.693 267.964C258.693 267.341 258.818 266.794 259.067 266.325C259.324 265.848 259.676 265.482 260.123 265.225C260.57 264.968 261.084 264.84 261.663 264.84C262.396 264.84 263.001 265.016 263.478 265.368C263.962 265.713 264.288 266.208 264.457 266.853H263.104C262.994 266.552 262.818 266.318 262.576 266.149C262.334 265.98 262.03 265.896 261.663 265.896C261.15 265.896 260.739 266.079 260.431 266.446C260.13 266.805 259.98 267.311 259.98 267.964C259.98 268.617 260.13 269.126 260.431 269.493C260.739 269.86 261.15 270.043 261.663 270.043C262.389 270.043 262.869 269.724 263.104 269.086H264.457C264.281 269.702 263.951 270.193 263.467 270.56C262.983 270.919 262.382 271.099 261.663 271.099C261.084 271.099 260.57 270.971 260.123 270.714C259.676 270.45 259.324 270.083 259.067 269.614C258.818 269.137 258.693 268.587 258.693 267.964ZM266.961 262.86V271H265.707V262.86H266.961ZM271.236 271.099C270.664 271.099 270.147 270.971 269.685 270.714C269.223 270.45 268.86 270.083 268.596 269.614C268.332 269.137 268.2 268.587 268.2 267.964C268.2 267.348 268.336 266.802 268.607 266.325C268.879 265.848 269.249 265.482 269.718 265.225C270.188 264.968 270.712 264.84 271.291 264.84C271.871 264.84 272.395 264.968 272.864 265.225C273.334 265.482 273.704 265.848 273.975 266.325C274.247 266.802 274.382 267.348 274.382 267.964C274.382 268.58 274.243 269.126 273.964 269.603C273.686 270.08 273.304 270.45 272.82 270.714C272.344 270.971 271.816 271.099 271.236 271.099ZM271.236 270.01C271.559 270.01 271.86 269.933 272.138 269.779C272.424 269.625 272.655 269.394 272.831 269.086C273.007 268.778 273.095 268.404 273.095 267.964C273.095 267.524 273.011 267.154 272.842 266.853C272.674 266.545 272.45 266.314 272.171 266.16C271.893 266.006 271.592 265.929 271.269 265.929C270.947 265.929 270.646 266.006 270.367 266.16C270.096 266.314 269.88 266.545 269.718 266.853C269.557 267.154 269.476 267.524 269.476 267.964C269.476 268.617 269.641 269.123 269.971 269.482C270.309 269.834 270.73 270.01 271.236 270.01ZM275.204 267.964C275.204 267.341 275.329 266.794 275.578 266.325C275.835 265.848 276.187 265.482 276.634 265.225C277.081 264.968 277.595 264.84 278.174 264.84C278.907 264.84 279.512 265.016 279.989 265.368C280.473 265.713 280.799 266.208 280.968 266.853H279.615C279.505 266.552 279.329 266.318 279.087 266.149C278.845 265.98 278.541 265.896 278.174 265.896C277.661 265.896 277.25 266.079 276.942 266.446C276.641 266.805 276.491 267.311 276.491 267.964C276.491 268.617 276.641 269.126 276.942 269.493C277.25 269.86 277.661 270.043 278.174 270.043C278.9 270.043 279.38 269.724 279.615 269.086H280.968C280.792 269.702 280.462 270.193 279.978 270.56C279.494 270.919 278.893 271.099 278.174 271.099C277.595 271.099 277.081 270.971 276.634 270.714C276.187 270.45 275.835 270.083 275.578 269.614C275.329 269.137 275.204 268.587 275.204 267.964ZM284.616 267.975L287.41 271H285.716L283.472 268.393V271H282.218V262.86H283.472V267.59L285.672 264.939H287.41L284.616 267.975ZM298.503 264.84C298.979 264.84 299.405 264.939 299.779 265.137C300.16 265.335 300.457 265.628 300.67 266.017C300.89 266.406 301 266.875 301 267.425V271H299.757V267.612C299.757 267.069 299.621 266.655 299.35 266.369C299.078 266.076 298.708 265.929 298.239 265.929C297.769 265.929 297.395 266.076 297.117 266.369C296.845 266.655 296.71 267.069 296.71 267.612V271H295.467V267.612C295.467 267.069 295.331 266.655 295.06 266.369C294.788 266.076 294.418 265.929 293.949 265.929C293.479 265.929 293.105 266.076 292.827 266.369C292.555 266.655 292.42 267.069 292.42 267.612V271H291.166V264.939H292.42V265.632C292.625 265.383 292.885 265.188 293.201 265.049C293.516 264.91 293.853 264.84 294.213 264.84C294.697 264.84 295.129 264.943 295.511 265.148C295.892 265.353 296.185 265.65 296.391 266.039C296.574 265.672 296.86 265.383 297.249 265.17C297.637 264.95 298.055 264.84 298.503 264.84ZM305.225 271.099C304.653 271.099 304.136 270.971 303.674 270.714C303.212 270.45 302.849 270.083 302.585 269.614C302.321 269.137 302.189 268.587 302.189 267.964C302.189 267.348 302.324 266.802 302.596 266.325C302.867 265.848 303.237 265.482 303.707 265.225C304.176 264.968 304.7 264.84 305.28 264.84C305.859 264.84 306.383 264.968 306.853 265.225C307.322 265.482 307.692 265.848 307.964 266.325C308.235 266.802 308.371 267.348 308.371 267.964C308.371 268.58 308.231 269.126 307.953 269.603C307.674 270.08 307.293 270.45 306.809 270.714C306.332 270.971 305.804 271.099 305.225 271.099ZM305.225 270.01C305.547 270.01 305.848 269.933 306.127 269.779C306.413 269.625 306.644 269.394 306.82 269.086C306.996 268.778 307.084 268.404 307.084 267.964C307.084 267.524 306.999 267.154 306.831 266.853C306.662 266.545 306.438 266.314 306.16 266.16C305.881 266.006 305.58 265.929 305.258 265.929C304.935 265.929 304.634 266.006 304.356 266.16C304.084 266.314 303.868 266.545 303.707 266.853C303.545 267.154 303.465 267.524 303.465 267.964C303.465 268.617 303.63 269.123 303.96 269.482C304.297 269.834 304.719 270.01 305.225 270.01ZM309.192 267.942C309.192 267.333 309.317 266.794 309.566 266.325C309.823 265.856 310.167 265.493 310.6 265.236C311.04 264.972 311.528 264.84 312.063 264.84C312.459 264.84 312.848 264.928 313.229 265.104C313.618 265.273 313.926 265.5 314.153 265.786V262.86H315.418V271H314.153V270.087C313.948 270.38 313.662 270.622 313.295 270.813C312.936 271.004 312.521 271.099 312.052 271.099C311.524 271.099 311.04 270.967 310.6 270.703C310.167 270.432 309.823 270.058 309.566 269.581C309.317 269.097 309.192 268.551 309.192 267.942ZM314.153 267.964C314.153 267.546 314.065 267.183 313.889 266.875C313.72 266.567 313.497 266.332 313.218 266.171C312.939 266.01 312.639 265.929 312.316 265.929C311.993 265.929 311.693 266.01 311.414 266.171C311.135 266.325 310.908 266.556 310.732 266.864C310.563 267.165 310.479 267.524 310.479 267.942C310.479 268.36 310.563 268.727 310.732 269.042C310.908 269.357 311.135 269.599 311.414 269.768C311.7 269.929 312.001 270.01 312.316 270.01C312.639 270.01 312.939 269.929 313.218 269.768C313.497 269.607 313.72 269.372 313.889 269.064C314.065 268.749 314.153 268.382 314.153 267.964ZM322.62 267.821C322.62 268.048 322.606 268.254 322.576 268.437H317.945C317.982 268.921 318.162 269.31 318.484 269.603C318.807 269.896 319.203 270.043 319.672 270.043C320.347 270.043 320.824 269.761 321.102 269.196H322.455C322.272 269.753 321.938 270.212 321.454 270.571C320.978 270.923 320.384 271.099 319.672 271.099C319.093 271.099 318.572 270.971 318.11 270.714C317.656 270.45 317.296 270.083 317.032 269.614C316.776 269.137 316.647 268.587 316.647 267.964C316.647 267.341 316.772 266.794 317.021 266.325C317.278 265.848 317.634 265.482 318.088 265.225C318.55 264.968 319.078 264.84 319.672 264.84C320.244 264.84 320.754 264.965 321.201 265.214C321.649 265.463 321.997 265.815 322.246 266.27C322.496 266.717 322.62 267.234 322.62 267.821ZM321.311 267.425C321.304 266.963 321.139 266.593 320.816 266.314C320.494 266.035 320.094 265.896 319.617 265.896C319.185 265.896 318.814 266.035 318.506 266.314C318.198 266.585 318.015 266.956 317.956 267.425H321.311Z"></path>
</svg>
