<svg xmlns="http://www.w3.org/2000/svg" fill="none" viewBox="0 0 44 24" height="24" width="44">
<path fill-opacity="0.5" fill="#FF0000" d="M2 12C2 6.47715 6.47715 2 12 2H32C37.5228 2 42 6.47715 42 12V12C42 17.5228 37.5228 22 32 22H12C6.47715 22 2 17.5228 2 12V12Z"></path>
<path stroke-width="2" stroke-opacity="0.2" stroke="#FF0000" d="M32 1H12C5.92487 1 1 5.92487 1 12C1 18.0751 5.92487 23 12 23H32C38.0751 23 43 18.0751 43 12C43 5.92487 38.0751 1 32 1Z"></path>
<path fill="white" d="M16.5576 8.5V7.252H19.0536V16H17.6736V8.5H16.5576ZM20.7649 14.176V13.144L24.7969 7.36H26.4529V12.988H27.5689V14.176H26.4529V16H25.1089V14.176H20.7649ZM25.1689 8.752L22.3369 12.988H25.1689V8.752Z"></path>
</svg>
