<svg xmlns="http://www.w3.org/2000/svg" fill="none" viewBox="0 0 480 360" height="360" width="480">
<rect fill="#4CC2FF" rx="5" height="36" width="100" y="304" x="360"></rect>
<path fill="black" d="M404.957 326H403.703L399.93 320.291V326H398.676V318.344H399.93L403.703 324.042V318.344H404.957V326ZM412.158 322.821C412.158 323.048 412.144 323.254 412.114 323.437H407.483C407.52 323.921 407.7 324.31 408.022 324.603C408.345 324.896 408.741 325.043 409.21 325.043C409.885 325.043 410.362 324.761 410.64 324.196H411.993C411.81 324.753 411.476 325.212 410.992 325.571C410.516 325.923 409.922 326.099 409.21 326.099C408.631 326.099 408.11 325.971 407.648 325.714C407.194 325.45 406.834 325.083 406.57 324.614C406.314 324.137 406.185 323.587 406.185 322.964C406.185 322.341 406.31 321.794 406.559 321.325C406.816 320.848 407.172 320.482 407.626 320.225C408.088 319.968 408.616 319.84 409.21 319.84C409.782 319.84 410.292 319.965 410.739 320.214C411.187 320.463 411.535 320.815 411.784 321.27C412.034 321.717 412.158 322.234 412.158 322.821ZM410.849 322.425C410.842 321.963 410.677 321.593 410.354 321.314C410.032 321.035 409.632 320.896 409.155 320.896C408.723 320.896 408.352 321.035 408.044 321.314C407.736 321.585 407.553 321.956 407.494 322.425H410.849ZM415.988 322.931L417.946 326H416.527L415.218 323.943L413.986 326H412.677L414.635 323.019L412.677 319.939H414.096L415.405 321.996L416.637 319.939H417.946L415.988 322.931ZM420.345 320.962V324.317C420.345 324.544 420.396 324.709 420.499 324.812C420.609 324.907 420.792 324.955 421.049 324.955H421.819V326H420.829C420.264 326 419.831 325.868 419.531 325.604C419.23 325.34 419.08 324.911 419.08 324.317V320.962H418.365V319.939H419.08V318.432H420.345V319.939H421.819V320.962H420.345Z"></path>
</svg>
