<svg version="1.1" xmlns="http://www.w3.org/2000/svg" xmlns:xlink="http://www.w3.org/1999/xlink" width="40" height="20" viewBox="0,0,40,20"><g transform="translate(-220,-167)"><g data-paper-data="{&quot;isPaintingLayer&quot;:true}" fill-rule="nonzero" stroke="none" stroke-width="1" stroke-linecap="butt" stroke-linejoin="miter" stroke-miterlimit="10" stroke-dasharray="" stroke-dashoffset="0" style="mix-blend-mode: normal"><path d="M220,187v-20h40v20z" fill="none"></path><path d="M240.504,173.364c0,-0.584 0.168,-1.04 0.504,-1.368c0.344,-0.336 0.784,-0.504 1.32,-0.504c0.536,0 0.972,0.168 1.308,0.504c0.344,0.328 0.516,0.784 0.516,1.368c0,0.584 -0.172,1.044 -0.516,1.38c-0.336,0.336 -0.772,0.504 -1.308,0.504c-0.536,0 -0.976,-0.168 -1.32,-0.504c-0.336,-0.336 -0.504,-0.796 -0.504,-1.38zM247.824,171.648l-4.788,8.352h-1.344l4.788,-8.352zM242.328,172.32c-0.504,0 -0.756,0.348 -0.756,1.044c0,0.704 0.252,1.056 0.756,1.056c0.24,0 0.424,-0.084 0.552,-0.252c0.136,-0.176 0.204,-0.444 0.204,-0.804c0,-0.696 -0.252,-1.044 -0.756,-1.044zM245.388,178.272c0,-0.584 0.168,-1.04 0.504,-1.368c0.344,-0.336 0.784,-0.504 1.32,-0.504c0.528,0 0.96,0.168 1.296,0.504c0.344,0.328 0.516,0.784 0.516,1.368c0,0.584 -0.172,1.044 -0.516,1.38c-0.336,0.336 -0.768,0.504 -1.296,0.504c-0.536,0 -0.976,-0.168 -1.32,-0.504c-0.336,-0.336 -0.504,-0.796 -0.504,-1.38zM247.2,177.228c-0.504,0 -0.756,0.348 -0.756,1.044c0,0.696 0.252,1.044 0.756,1.044c0.504,0 0.756,-0.348 0.756,-1.044c0,-0.696 -0.252,-1.044 -0.756,-1.044z" fill="#ff0000"></path></g></g></svg>