<svg xmlns="http://www.w3.org/2000/svg" fill="none" viewBox="0 0 90 90" height="90" width="90">
<path fill="url(#paint0_linear_310_209)" d="M33 36C33 34.8954 33.8954 34 35 34H44V45H33V36Z"></path>
<path fill="url(#paint1_linear_310_209)" d="M33 46H44V57H35C33.8954 57 33 56.1046 33 55V46Z"></path>
<path fill="url(#paint2_linear_310_209)" d="M45 46H56V55C56 56.1046 55.1046 57 54 57H45V46Z"></path>
<path fill="url(#paint3_linear_310_209)" d="M45 34H54C55.1046 34 56 34.8954 56 36V45H45V34Z"></path>
<defs>
<linearGradient gradientUnits="userSpaceOnUse" y2="35" x2="37" y1="56" x1="52" id="paint0_linear_310_209">
<stop stop-color="#027AD4"></stop>
<stop stop-color="#49CDFC" offset="1"></stop>
</linearGradient>
<linearGradient gradientUnits="userSpaceOnUse" y2="35" x2="37" y1="56" x1="52" id="paint1_linear_310_209">
<stop stop-color="#027AD4"></stop>
<stop stop-color="#49CDFC" offset="1"></stop>
</linearGradient>
<linearGradient gradientUnits="userSpaceOnUse" y2="35" x2="37" y1="56" x1="52" id="paint2_linear_310_209">
<stop stop-color="#027AD4"></stop>
<stop stop-color="#49CDFC" offset="1"></stop>
</linearGradient>
<linearGradient gradientUnits="userSpaceOnUse" y2="35" x2="37" y1="56" x1="52" id="paint3_linear_310_209">
<stop stop-color="#027AD4"></stop>
<stop stop-color="#49CDFC" offset="1"></stop>
</linearGradient>
</defs>
</svg>
