<svg xmlns="http://www.w3.org/2000/svg" fill="none" viewBox="0 0 240 90" height="90" width="240">
<path fill-opacity="0.9" fill="#1A1A1A" d="M70 30C70 24.4772 74.4772 20 80 20H160C165.523 20 170 24.4772 170 30V60C170 65.5229 165.523 70 160 70H80C74.4772 70 70 65.5229 70 60V30Z"></path>
<path stroke-width="2" stroke-opacity="0.2" stroke="white" d="M80 19C73.9249 19 69 23.9249 69 30V60C69 66.0751 73.9249 71 80 71H160C166.075 71 171 66.0751 171 60V30C171 23.9249 166.075 19 160 19H80Z"></path>
<path fill="white" d="M123.648 49.084C123.088 49.084 122.584 48.988 122.136 48.796C121.688 48.596 121.336 48.316 121.08 47.956C120.824 47.596 120.696 47.176 120.696 46.696H122.16C122.192 47.056 122.332 47.352 122.58 47.584C122.836 47.816 123.192 47.932 123.648 47.932C124.12 47.932 124.488 47.82 124.752 47.596C125.016 47.364 125.148 47.068 125.148 46.708C125.148 46.428 125.064 46.2 124.896 46.024C124.736 45.848 124.532 45.712 124.284 45.616C124.044 45.52 123.708 45.416 123.276 45.304C122.732 45.16 122.288 45.016 121.944 44.872C121.608 44.72 121.32 44.488 121.08 44.176C120.84 43.864 120.72 43.448 120.72 42.928C120.72 42.448 120.84 42.028 121.08 41.668C121.32 41.308 121.656 41.032 122.088 40.84C122.52 40.648 123.02 40.552 123.588 40.552C124.396 40.552 125.056 40.756 125.568 41.164C126.088 41.564 126.376 42.116 126.432 42.82H124.92C124.896 42.516 124.752 42.256 124.488 42.04C124.224 41.824 123.876 41.716 123.444 41.716C123.052 41.716 122.732 41.816 122.484 42.016C122.236 42.216 122.112 42.504 122.112 42.88C122.112 43.136 122.188 43.348 122.34 43.516C122.5 43.676 122.7 43.804 122.94 43.9C123.18 43.996 123.508 44.1 123.924 44.212C124.476 44.364 124.924 44.516 125.268 44.668C125.62 44.82 125.916 45.056 126.156 45.376C126.404 45.688 126.528 46.108 126.528 46.636C126.528 47.06 126.412 47.46 126.18 47.836C125.956 48.212 125.624 48.516 125.184 48.748C124.752 48.972 124.24 49.084 123.648 49.084ZM129.738 43.504V47.164C129.738 47.412 129.794 47.592 129.906 47.704C130.026 47.808 130.226 47.86 130.506 47.86H131.346V49H130.266C129.65 49 129.178 48.856 128.85 48.568C128.522 48.28 128.358 47.812 128.358 47.164V43.504H127.578V42.388H128.358V40.744H129.738V42.388H131.346V43.504H129.738ZM135.475 49.108C134.851 49.108 134.287 48.968 133.783 48.688C133.279 48.4 132.883 48 132.595 47.488C132.307 46.968 132.163 46.368 132.163 45.688C132.163 45.016 132.311 44.42 132.607 43.9C132.903 43.38 133.307 42.98 133.819 42.7C134.331 42.42 134.903 42.28 135.535 42.28C136.167 42.28 136.739 42.42 137.251 42.7C137.763 42.98 138.167 43.38 138.463 43.9C138.759 44.42 138.907 45.016 138.907 45.688C138.907 46.36 138.755 46.956 138.451 47.476C138.147 47.996 137.731 48.4 137.203 48.688C136.683 48.968 136.107 49.108 135.475 49.108ZM135.475 47.92C135.827 47.92 136.155 47.836 136.459 47.668C136.771 47.5 137.023 47.248 137.215 46.912C137.407 46.576 137.503 46.168 137.503 45.688C137.503 45.208 137.411 44.804 137.227 44.476C137.043 44.14 136.799 43.888 136.495 43.72C136.191 43.552 135.863 43.468 135.511 43.468C135.159 43.468 134.831 43.552 134.527 43.72C134.231 43.888 133.995 44.14 133.819 44.476C133.643 44.804 133.555 45.208 133.555 45.688C133.555 46.4 133.735 46.952 134.095 47.344C134.463 47.728 134.923 47.92 135.475 47.92ZM141.627 43.348C141.827 43.012 142.091 42.752 142.419 42.568C142.755 42.376 143.151 42.28 143.607 42.28V43.696H143.259C142.723 43.696 142.315 43.832 142.035 44.104C141.763 44.376 141.627 44.848 141.627 45.52V49H140.259V42.388H141.627V43.348ZM150.925 45.532C150.925 45.78 150.909 46.004 150.877 46.204H145.825C145.865 46.732 146.061 47.156 146.413 47.476C146.765 47.796 147.197 47.956 147.709 47.956C148.445 47.956 148.965 47.648 149.269 47.032H150.745C150.545 47.64 150.181 48.14 149.653 48.532C149.133 48.916 148.485 49.108 147.709 49.108C147.077 49.108 146.509 48.968 146.005 48.688C145.509 48.4 145.117 48 144.829 47.488C144.549 46.968 144.409 46.368 144.409 45.688C144.409 45.008 144.545 44.412 144.817 43.9C145.097 43.38 145.485 42.98 145.981 42.7C146.485 42.42 147.061 42.28 147.709 42.28C148.333 42.28 148.889 42.416 149.377 42.688C149.865 42.96 150.245 43.344 150.517 43.84C150.789 44.328 150.925 44.892 150.925 45.532ZM149.497 45.1C149.489 44.596 149.309 44.192 148.957 43.888C148.605 43.584 148.169 43.432 147.649 43.432C147.177 43.432 146.773 43.584 146.437 43.888C146.101 44.184 145.901 44.588 145.837 45.1H149.497Z"></path>
<path fill="url(#paint0_linear_964_187)" d="M87.7998 41.1C87.7998 40.6029 88.2027 40.2 88.6998 40.2H100.7C101.197 40.2 101.6 40.6029 101.6 41.1V49.1999C101.6 50.5254 100.525 51.6 99.1998 51.6H90.1998C88.8743 51.6 87.7998 50.5254 87.7998 49.2V41.1Z"></path>
<path fill="#F25022" d="M92 43.2H94.4V45.6H92V43.2Z"></path>
<path fill="#7FBA00" d="M95 43.2H97.4V45.6H95V43.2Z"></path>
<path fill="#FFB900" d="M95 46.2H97.4V48.6H95V46.2Z"></path>
<path fill="#00A4EF" d="M92 46.2H94.4V48.6H92V46.2Z"></path>
<path fill="url(#paint1_linear_964_187)" d="M90.7998 39C90.7998 38.3373 91.3371 37.8 91.9998 37.8V40.8C91.9998 41.1314 91.7312 41.4 91.3998 41.4C91.0684 41.4 90.7998 41.1314 90.7998 40.8V39Z"></path>
<path fill="url(#paint2_linear_964_187)" d="M97.3998 37.8C98.0625 37.8 98.5998 38.3373 98.5998 39V40.8C98.5998 41.1314 98.3312 41.4 97.9998 41.4C97.6684 41.4 97.3998 41.1314 97.3998 40.8V37.8Z"></path>
<path fill="url(#paint3_linear_964_187)" d="M91.9998 37.8H97.3998V39H91.9998V37.8Z"></path>
<path fill-opacity="0.2" fill="black" d="M91.9998 37.8H97.3998V39H91.9998V37.8Z"></path>
<defs>
<linearGradient gradientUnits="userSpaceOnUse" y2="51" x2="101" y1="40.2" x1="87.7998" id="paint0_linear_964_187">
<stop stop-color="white"></stop>
<stop stop-color="#DFDFDF" offset="1"></stop>
</linearGradient>
<linearGradient gradientUnits="userSpaceOnUse" y2="37.8" x2="91.9998" y1="41.4" x1="91.9998" id="paint1_linear_964_187">
<stop stop-color="#0094D4"></stop>
<stop stop-color="#30DAFF" offset="1"></stop>
</linearGradient>
<linearGradient gradientUnits="userSpaceOnUse" y2="37.8" x2="91.9998" y1="41.4" x1="91.9998" id="paint2_linear_964_187">
<stop stop-color="#0094D4"></stop>
<stop stop-color="#30DAFF" offset="1"></stop>
</linearGradient>
<linearGradient gradientUnits="userSpaceOnUse" y2="37.8" x2="91.9998" y1="41.4" x1="91.9998" id="paint3_linear_964_187">
<stop stop-color="#0094D4"></stop>
<stop stop-color="#30DAFF" offset="1"></stop>
</linearGradient>
</defs>
</svg>
