<svg xmlns="http://www.w3.org/2000/svg" fill="none" viewBox="0 0 44 24" height="24" width="44">
<path fill-opacity="0.5" fill="#FF0000" d="M2 12C2 6.47715 6.47715 2 12 2H32C37.5228 2 42 6.47715 42 12V12C42 17.5228 37.5228 22 32 22H12C6.47715 22 2 17.5228 2 12V12Z"></path>
<path stroke-width="2" stroke-opacity="0.2" stroke="#FF0000" d="M32 1H12C5.92487 1 1 5.92487 1 12C1 18.0751 5.92487 23 12 23H32C38.0751 23 43 18.0751 43 12C43 5.92487 38.0751 1 32 1Z"></path>
<path fill="white" d="M16.6557 14.14C17.4237 13.476 18.0277 12.932 18.4677 12.508C18.9157 12.076 19.2877 11.628 19.5837 11.164C19.8797 10.7 20.0277 10.236 20.0277 9.772C20.0277 9.292 19.9117 8.916 19.6797 8.644C19.4557 8.372 19.0997 8.236 18.6117 8.236C18.1397 8.236 17.7717 8.388 17.5077 8.692C17.2517 8.988 17.1157 9.388 17.0997 9.892H15.7797C15.8037 8.98 16.0757 8.284 16.5957 7.804C17.1237 7.316 17.7917 7.072 18.5997 7.072C19.4717 7.072 20.1517 7.312 20.6397 7.792C21.1357 8.272 21.3837 8.912 21.3837 9.712C21.3837 10.288 21.2357 10.844 20.9397 11.38C20.6517 11.908 20.3037 12.384 19.8957 12.808C19.4957 13.224 18.9837 13.708 18.3597 14.26L17.8197 14.74H21.6237V15.88H15.7917V14.884L16.6557 14.14ZM28.3695 8.308L25.0335 16H23.6535L27.0255 8.452H22.5855V7.288H28.3695V8.308Z"></path>
</svg>
