<svg xmlns="http://www.w3.org/2000/svg" fill="none" viewBox="0 0 480 360" height="360" width="480">
<path fill="black" d="M62.877 104.355V112H61.623V106.764L59.291 112H58.422L56.079 106.764V112H54.825V104.355H56.178L58.862 110.35L61.535 104.355H62.877ZM70.0142 105.939V112H68.7602V111.285C68.5622 111.534 68.3019 111.732 67.9792 111.879C67.6639 112.018 67.3265 112.088 66.9672 112.088C66.4905 112.088 66.0615 111.989 65.6802 111.791C65.3062 111.593 65.0092 111.3 64.7892 110.911C64.5765 110.522 64.4702 110.053 64.4702 109.503V105.939H65.7132V109.316C65.7132 109.859 65.8489 110.277 66.1202 110.57C66.3915 110.856 66.7619 110.999 67.2312 110.999C67.7005 110.999 68.0709 110.856 68.3422 110.57C68.6209 110.277 68.7602 109.859 68.7602 109.316V105.939H70.0142ZM73.8688 112.099C73.3921 112.099 72.9631 112.015 72.5818 111.846C72.2078 111.67 71.9108 111.435 71.6908 111.142C71.4708 110.841 71.3534 110.508 71.3388 110.141H72.6368C72.6588 110.398 72.7798 110.614 72.9998 110.79C73.2271 110.959 73.5094 111.043 73.8468 111.043C74.1988 111.043 74.4701 110.977 74.6608 110.845C74.8588 110.706 74.9578 110.53 74.9578 110.317C74.9578 110.09 74.8478 109.921 74.6278 109.811C74.4151 109.701 74.0741 109.58 73.6048 109.448C73.1501 109.323 72.7798 109.202 72.4938 109.085C72.2078 108.968 71.9584 108.788 71.7458 108.546C71.5404 108.304 71.4378 107.985 71.4378 107.589C71.4378 107.266 71.5331 106.973 71.7238 106.709C71.9144 106.438 72.1858 106.225 72.5378 106.071C72.8971 105.917 73.3078 105.84 73.7698 105.84C74.4591 105.84 75.0128 106.016 75.4308 106.368C75.8561 106.713 76.0834 107.186 76.1128 107.787H74.8588C74.8368 107.516 74.7268 107.299 74.5288 107.138C74.3308 106.977 74.0631 106.896 73.7258 106.896C73.3958 106.896 73.1428 106.958 72.9668 107.083C72.7908 107.208 72.7028 107.373 72.7028 107.578C72.7028 107.739 72.7614 107.875 72.8788 107.985C72.9961 108.095 73.1391 108.183 73.3078 108.249C73.4764 108.308 73.7258 108.385 74.0558 108.48C74.4958 108.597 74.8551 108.718 75.1338 108.843C75.4198 108.96 75.6654 109.136 75.8708 109.371C76.0761 109.606 76.1824 109.917 76.1898 110.306C76.1898 110.651 76.0944 110.959 75.9038 111.23C75.7131 111.501 75.4418 111.714 75.0898 111.868C74.7451 112.022 74.3381 112.099 73.8688 112.099ZM78.1827 105.136C77.9554 105.136 77.7647 105.059 77.6107 104.905C77.4567 104.751 77.3797 104.56 77.3797 104.333C77.3797 104.106 77.4567 103.915 77.6107 103.761C77.7647 103.607 77.9554 103.53 78.1827 103.53C78.4027 103.53 78.5897 103.607 78.7437 103.761C78.8977 103.915 78.9747 104.106 78.9747 104.333C78.9747 104.56 78.8977 104.751 78.7437 104.905C78.5897 105.059 78.4027 105.136 78.1827 105.136ZM78.7987 105.939V112H77.5447V105.939H78.7987ZM80.0271 108.964C80.0271 108.341 80.1518 107.794 80.4011 107.325C80.6578 106.848 81.0098 106.482 81.4571 106.225C81.9045 105.968 82.4178 105.84 82.9971 105.84C83.7305 105.84 84.3355 106.016 84.8121 106.368C85.2961 106.713 85.6225 107.208 85.7911 107.853H84.4381C84.3281 107.552 84.1521 107.318 83.9101 107.149C83.6681 106.98 83.3638 106.896 82.9971 106.896C82.4838 106.896 82.0731 107.079 81.7651 107.446C81.4645 107.805 81.3141 108.311 81.3141 108.964C81.3141 109.617 81.4645 110.126 81.7651 110.493C82.0731 110.86 82.4838 111.043 82.9971 111.043C83.7231 111.043 84.2035 110.724 84.4381 110.086H85.7911C85.6151 110.702 85.2851 111.193 84.8011 111.56C84.3171 111.919 83.7158 112.099 82.9971 112.099C82.4178 112.099 81.9045 111.971 81.4571 111.714C81.0098 111.45 80.6578 111.083 80.4011 110.614C80.1518 110.137 80.0271 109.587 80.0271 108.964Z"></path>
<rect stroke-width="1.6875" stroke="url(#paint1_linear_1011_2)" fill="url(#paint0_linear_1011_2)" rx="8.15625" height="16.3125" width="16.3125" y="99.8438" x="23.8438"></rect>
<path fill="white" d="M29.75 111.395V104.605C29.75 104.145 30.2716 103.879 30.6433 104.15L35.312 107.545C35.6209 107.77 35.6209 108.23 35.312 108.455L30.6433 111.85C30.2716 112.121 29.75 111.855 29.75 111.395Z"></path>
<path stroke-linejoin="round" stroke-width="1.125" stroke-opacity="0.2" stroke="black" d="M29.1875 104.605V111.395C29.1875 112.315 30.2306 112.846 30.9742 112.305L35.6428 108.91C36.2606 108.461 36.2606 107.539 35.6428 107.09L30.9742 103.695C30.2306 103.154 29.1875 103.685 29.1875 104.605Z"></path>
<path fill="black" d="M57.322 64.355C58.136 64.355 58.8473 64.5127 59.456 64.828C60.072 65.136 60.545 65.5833 60.875 66.17C61.2123 66.7493 61.381 67.4277 61.381 68.205C61.381 68.9823 61.2123 69.657 60.875 70.229C60.545 70.801 60.072 71.241 59.456 71.549C58.8473 71.8497 58.136 72 57.322 72H54.825V64.355H57.322ZM57.322 70.977C58.2167 70.977 58.9023 70.735 59.379 70.251C59.8557 69.767 60.094 69.085 60.094 68.205C60.094 67.3177 59.8557 66.6247 59.379 66.126C58.9023 65.6273 58.2167 65.378 57.322 65.378H56.079V70.977H57.322ZM68.1788 68.821C68.1788 69.0483 68.1642 69.2537 68.1348 69.437H63.5038C63.5405 69.921 63.7202 70.3097 64.0428 70.603C64.3655 70.8963 64.7615 71.043 65.2308 71.043C65.9055 71.043 66.3822 70.7607 66.6608 70.196H68.0138C67.8305 70.7533 67.4968 71.2117 67.0128 71.571C66.5362 71.923 65.9422 72.099 65.2308 72.099C64.6515 72.099 64.1308 71.9707 63.6688 71.714C63.2142 71.45 62.8548 71.0833 62.5908 70.614C62.3342 70.1373 62.2058 69.5873 62.2058 68.964C62.2058 68.3407 62.3305 67.7943 62.5798 67.325C62.8365 66.8483 63.1922 66.4817 63.6468 66.225C64.1088 65.9683 64.6368 65.84 65.2308 65.84C65.8028 65.84 66.3125 65.9647 66.7598 66.214C67.2072 66.4633 67.5555 66.8153 67.8048 67.27C68.0542 67.7173 68.1788 68.2343 68.1788 68.821ZM66.8698 68.425C66.8625 67.963 66.6975 67.5927 66.3748 67.314C66.0522 67.0353 65.6525 66.896 65.1758 66.896C64.7432 66.896 64.3728 67.0353 64.0648 67.314C63.7568 67.5853 63.5735 67.9557 63.5148 68.425H66.8698ZM71.6129 72.099C71.1362 72.099 70.7072 72.0147 70.3259 71.846C69.9519 71.67 69.6549 71.4353 69.4349 71.142C69.2149 70.8413 69.0976 70.5077 69.0829 70.141H70.3809C70.4029 70.3977 70.5239 70.614 70.7439 70.79C70.9712 70.9587 71.2536 71.043 71.5909 71.043C71.9429 71.043 72.2142 70.977 72.4049 70.845C72.6029 70.7057 72.7019 70.5297 72.7019 70.317C72.7019 70.0897 72.5919 69.921 72.3719 69.811C72.1592 69.701 71.8182 69.58 71.3489 69.448C70.8942 69.3233 70.5239 69.2023 70.2379 69.085C69.9519 68.9677 69.7026 68.788 69.4899 68.546C69.2846 68.304 69.1819 67.985 69.1819 67.589C69.1819 67.2663 69.2772 66.973 69.4679 66.709C69.6586 66.4377 69.9299 66.225 70.2819 66.071C70.6412 65.917 71.0519 65.84 71.5139 65.84C72.2032 65.84 72.7569 66.016 73.1749 66.368C73.6002 66.7127 73.8276 67.1857 73.8569 67.787H72.6029C72.5809 67.5157 72.4709 67.2993 72.2729 67.138C72.0749 66.9767 71.8072 66.896 71.4699 66.896C71.1399 66.896 70.8869 66.9583 70.7109 67.083C70.5349 67.2077 70.4469 67.3727 70.4469 67.578C70.4469 67.7393 70.5056 67.875 70.6229 67.985C70.7402 68.095 70.8832 68.183 71.0519 68.249C71.2206 68.3077 71.4699 68.3847 71.7999 68.48C72.2399 68.5973 72.5992 68.7183 72.8779 68.843C73.1639 68.9603 73.4096 69.1363 73.6149 69.371C73.8202 69.6057 73.9266 69.9173 73.9339 70.306C73.9339 70.6507 73.8386 70.9587 73.6479 71.23C73.4572 71.5013 73.1859 71.714 72.8339 71.868C72.4892 72.022 72.0822 72.099 71.6129 72.099ZM75.9269 65.136C75.6995 65.136 75.5089 65.059 75.3549 64.905C75.2009 64.751 75.1239 64.5603 75.1239 64.333C75.1239 64.1057 75.2009 63.915 75.3549 63.761C75.5089 63.607 75.6995 63.53 75.9269 63.53C76.1469 63.53 76.3339 63.607 76.4879 63.761C76.6419 63.915 76.7189 64.1057 76.7189 64.333C76.7189 64.5603 76.6419 64.751 76.4879 64.905C76.3339 65.059 76.1469 65.136 75.9269 65.136ZM76.5429 65.939V72H75.2889V65.939H76.5429ZM80.6313 65.84C81.1006 65.84 81.5149 65.9353 81.8743 66.126C82.2409 66.3093 82.5269 66.5403 82.7323 66.819V65.939H83.9973V72.099C83.9973 72.6563 83.8799 73.1513 83.6453 73.584C83.4106 74.024 83.0696 74.3687 82.6223 74.618C82.1823 74.8673 81.6543 74.992 81.0383 74.992C80.2169 74.992 79.5349 74.7977 78.9923 74.409C78.4496 74.0277 78.1416 73.507 78.0683 72.847H79.3113C79.4066 73.1623 79.6083 73.4153 79.9163 73.606C80.2316 73.804 80.6056 73.903 81.0383 73.903C81.5443 73.903 81.9513 73.749 82.2593 73.441C82.5746 73.133 82.7323 72.6857 82.7323 72.099V71.087C82.5196 71.373 82.2299 71.615 81.8633 71.813C81.5039 72.0037 81.0933 72.099 80.6313 72.099C80.1033 72.099 79.6193 71.967 79.1793 71.703C78.7466 71.4317 78.4019 71.0577 78.1453 70.581C77.8959 70.097 77.7713 69.5507 77.7713 68.942C77.7713 68.3333 77.8959 67.7943 78.1453 67.325C78.4019 66.8557 78.7466 66.4927 79.1793 66.236C79.6193 65.972 80.1033 65.84 80.6313 65.84ZM82.7323 68.964C82.7323 68.546 82.6443 68.183 82.4683 67.875C82.2996 67.567 82.0759 67.3323 81.7973 67.171C81.5186 67.0097 81.2179 66.929 80.8953 66.929C80.5726 66.929 80.2719 67.0097 79.9933 67.171C79.7146 67.325 79.4873 67.556 79.3113 67.864C79.1426 68.1647 79.0583 68.524 79.0583 68.942C79.0583 69.36 79.1426 69.7267 79.3113 70.042C79.4873 70.3573 79.7146 70.5993 79.9933 70.768C80.2793 70.9293 80.5799 71.01 80.8953 71.01C81.2179 71.01 81.5186 70.9293 81.7973 70.768C82.0759 70.6067 82.2996 70.372 82.4683 70.064C82.6443 69.7487 82.7323 69.382 82.7323 68.964ZM88.7023 65.84C89.179 65.84 89.6043 65.939 89.9783 66.137C90.3597 66.335 90.6567 66.6283 90.8693 67.017C91.082 67.4057 91.1883 67.875 91.1883 68.425V72H89.9453V68.612C89.9453 68.0693 89.8097 67.655 89.5383 67.369C89.267 67.0757 88.8967 66.929 88.4273 66.929C87.958 66.929 87.584 67.0757 87.3053 67.369C87.034 67.655 86.8983 68.0693 86.8983 68.612V72H85.6443V65.939H86.8983V66.632C87.1037 66.3827 87.364 66.1883 87.6793 66.049C88.002 65.9097 88.343 65.84 88.7023 65.84ZM94.9879 72.099C94.5112 72.099 94.0822 72.0147 93.7009 71.846C93.3269 71.67 93.0299 71.4353 92.8099 71.142C92.5899 70.8413 92.4726 70.5077 92.4579 70.141H93.7559C93.7779 70.3977 93.8989 70.614 94.1189 70.79C94.3462 70.9587 94.6286 71.043 94.9659 71.043C95.3179 71.043 95.5892 70.977 95.7799 70.845C95.9779 70.7057 96.0769 70.5297 96.0769 70.317C96.0769 70.0897 95.9669 69.921 95.7469 69.811C95.5342 69.701 95.1932 69.58 94.7239 69.448C94.2692 69.3233 93.8989 69.2023 93.6129 69.085C93.3269 68.9677 93.0776 68.788 92.8649 68.546C92.6596 68.304 92.5569 67.985 92.5569 67.589C92.5569 67.2663 92.6522 66.973 92.8429 66.709C93.0336 66.4377 93.3049 66.225 93.6569 66.071C94.0162 65.917 94.4269 65.84 94.8889 65.84C95.5782 65.84 96.1319 66.016 96.5499 66.368C96.9752 66.7127 97.2026 67.1857 97.2319 67.787H95.9779C95.9559 67.5157 95.8459 67.2993 95.6479 67.138C95.4499 66.9767 95.1822 66.896 94.8449 66.896C94.5149 66.896 94.2619 66.9583 94.0859 67.083C93.9099 67.2077 93.8219 67.3727 93.8219 67.578C93.8219 67.7393 93.8806 67.875 93.9979 67.985C94.1152 68.095 94.2582 68.183 94.4269 68.249C94.5956 68.3077 94.8449 68.3847 95.1749 68.48C95.6149 68.5973 95.9742 68.7183 96.2529 68.843C96.5389 68.9603 96.7846 69.1363 96.9899 69.371C97.1952 69.6057 97.3016 69.9173 97.3089 70.306C97.3089 70.6507 97.2136 70.9587 97.0229 71.23C96.8322 71.5013 96.5609 71.714 96.2089 71.868C95.8642 72.022 95.4572 72.099 94.9879 72.099Z"></path>
<path fill="url(#paint2_linear_1011_2)" d="M33.125 59C28.6243 58.9995 22.9997 63.1245 23 69.5C23.0001 71.335 23.415 73.625 25.25 73.625C27.1246 73.625 27.8746 70.625 29.375 70.625C29.9963 70.625 30.5 70.9995 30.5 71.75C30.5 72.8745 29.375 72.8745 29.375 74.375C29.375 75.4995 30.1246 76.25 31.25 76.25C35.3746 76.25 40.25 71.4154 40.25 66.125C40.25 62.7495 37.4947 59.0005 33.125 59Z"></path>
<rect fill="url(#paint3_linear_1011_2)" rx="1.5" height="3" width="3" y="66.4995" x="24.5"></rect>
<rect fill-opacity="0.5" fill="black" rx="1.125" height="2.25" width="2.25" y="67.2493" x="31.25"></rect>
<rect fill="url(#paint4_linear_1011_2)" rx="1.5" height="3" width="3" y="62.7493" x="26.75"></rect>
<rect fill="url(#paint5_linear_1011_2)" rx="1.5" height="3" width="3" y="61.2495" x="30.499"></rect>
<path fill="url(#paint6_linear_1011_2)" d="M35 67.9987L37.25 67.9997L36.9061 76.2493C36.8886 76.6681 36.544 76.9986 36.1249 76.9986C35.7057 76.9986 35.3611 76.668 35.3436 76.2492L35 67.9987Z"></path>
<path fill="url(#paint7_linear_1011_2)" d="M35 67.9987V67.2497H37.25V67.9997L35 67.9987Z"></path>
<path fill="url(#paint8_linear_1011_2)" d="M35 67.2485L34.3144 65.8778C33.9403 65.1297 34.4842 64.2495 35.3206 64.2495H36.9298C37.766 64.2495 38.31 65.1296 37.936 65.8776L37.25 67.2497L35 67.2485Z"></path>
<path fill="black" d="M64.779 144.355L62.513 152H61.094L59.488 146.214L57.783 152L56.375 152.011L54.208 144.355H55.539L57.123 150.581L58.839 144.355H60.247L61.842 150.548L63.437 144.355H64.779ZM65.3953 148.942C65.3953 148.333 65.5199 147.794 65.7693 147.325C66.0259 146.856 66.3706 146.493 66.8033 146.236C67.2433 145.972 67.7273 145.84 68.2553 145.84C68.7319 145.84 69.1463 145.935 69.4983 146.126C69.8576 146.309 70.1436 146.54 70.3563 146.819V145.939H71.6213V152H70.3563V151.098C70.1436 151.384 69.8539 151.622 69.4873 151.813C69.1206 152.004 68.7026 152.099 68.2333 152.099C67.7126 152.099 67.2359 151.967 66.8033 151.703C66.3706 151.432 66.0259 151.058 65.7693 150.581C65.5199 150.097 65.3953 149.551 65.3953 148.942ZM70.3563 148.964C70.3563 148.546 70.2683 148.183 70.0923 147.875C69.9236 147.567 69.6999 147.332 69.4213 147.171C69.1426 147.01 68.8419 146.929 68.5193 146.929C68.1966 146.929 67.8959 147.01 67.6173 147.171C67.3386 147.325 67.1113 147.556 66.9353 147.864C66.7666 148.165 66.6823 148.524 66.6823 148.942C66.6823 149.36 66.7666 149.727 66.9353 150.042C67.1113 150.357 67.3386 150.599 67.6173 150.768C67.9033 150.929 68.2039 151.01 68.5193 151.01C68.8419 151.01 69.1426 150.929 69.4213 150.768C69.6999 150.607 69.9236 150.372 70.0923 150.064C70.2683 149.749 70.3563 149.382 70.3563 148.964ZM74.5224 143.86V152H73.2684V143.86H74.5224ZM77.4228 143.86V152H76.1688V143.86H77.4228ZM80.3231 146.83C80.5358 146.551 80.8255 146.317 81.1921 146.126C81.5588 145.935 81.9731 145.84 82.4351 145.84C82.9631 145.84 83.4435 145.972 83.8761 146.236C84.3161 146.493 84.6608 146.856 84.9101 147.325C85.1595 147.794 85.2841 148.333 85.2841 148.942C85.2841 149.551 85.1595 150.097 84.9101 150.581C84.6608 151.058 84.3161 151.432 83.8761 151.703C83.4435 151.967 82.9631 152.099 82.4351 152.099C81.9731 152.099 81.5625 152.007 81.2031 151.824C80.8438 151.633 80.5505 151.399 80.3231 151.12V154.882H79.0691V145.939H80.3231V146.83ZM84.0081 148.942C84.0081 148.524 83.9201 148.165 83.7441 147.864C83.5755 147.556 83.3481 147.325 83.0621 147.171C82.7835 147.01 82.4828 146.929 82.1601 146.929C81.8448 146.929 81.5441 147.01 81.2581 147.171C80.9795 147.332 80.7521 147.567 80.5761 147.875C80.4075 148.183 80.3231 148.546 80.3231 148.964C80.3231 149.382 80.4075 149.749 80.5761 150.064C80.7521 150.372 80.9795 150.607 81.2581 150.768C81.5441 150.929 81.8448 151.01 82.1601 151.01C82.4828 151.01 82.7835 150.929 83.0621 150.768C83.3481 150.599 83.5755 150.357 83.7441 150.042C83.9201 149.727 84.0081 149.36 84.0081 148.942ZM86.1062 148.942C86.1062 148.333 86.2309 147.794 86.4802 147.325C86.7369 146.856 87.0816 146.493 87.5142 146.236C87.9542 145.972 88.4382 145.84 88.9662 145.84C89.4429 145.84 89.8572 145.935 90.2092 146.126C90.5686 146.309 90.8546 146.54 91.0672 146.819V145.939H92.3322V152H91.0672V151.098C90.8546 151.384 90.5649 151.622 90.1982 151.813C89.8316 152.004 89.4136 152.099 88.9442 152.099C88.4236 152.099 87.9469 151.967 87.5142 151.703C87.0816 151.432 86.7369 151.058 86.4802 150.581C86.2309 150.097 86.1062 149.551 86.1062 148.942ZM91.0672 148.964C91.0672 148.546 90.9792 148.183 90.8032 147.875C90.6346 147.567 90.4109 147.332 90.1322 147.171C89.8536 147.01 89.5529 146.929 89.2302 146.929C88.9076 146.929 88.6069 147.01 88.3282 147.171C88.0496 147.325 87.8222 147.556 87.6462 147.864C87.4776 148.165 87.3932 148.524 87.3932 148.942C87.3932 149.36 87.4776 149.727 87.6462 150.042C87.8222 150.357 88.0496 150.599 88.3282 150.768C88.6142 150.929 88.9149 151.01 89.2302 151.01C89.5529 151.01 89.8536 150.929 90.1322 150.768C90.4109 150.607 90.6346 150.372 90.8032 150.064C90.9792 149.749 91.0672 149.382 91.0672 148.964ZM95.2333 146.83C95.446 146.551 95.7356 146.317 96.1023 146.126C96.469 145.935 96.8833 145.84 97.3453 145.84C97.8733 145.84 98.3536 145.972 98.7863 146.236C99.2263 146.493 99.571 146.856 99.8203 147.325C100.07 147.794 100.194 148.333 100.194 148.942C100.194 149.551 100.07 150.097 99.8203 150.581C99.571 151.058 99.2263 151.432 98.7863 151.703C98.3536 151.967 97.8733 152.099 97.3453 152.099C96.8833 152.099 96.4726 152.007 96.1133 151.824C95.754 151.633 95.4606 151.399 95.2333 151.12V154.882H93.9793V145.939H95.2333V146.83ZM98.9183 148.942C98.9183 148.524 98.8303 148.165 98.6543 147.864C98.4856 147.556 98.2583 147.325 97.9723 147.171C97.6936 147.01 97.393 146.929 97.0703 146.929C96.755 146.929 96.4543 147.01 96.1683 147.171C95.8896 147.332 95.6623 147.567 95.4863 147.875C95.3176 148.183 95.2333 148.546 95.2333 148.964C95.2333 149.382 95.3176 149.749 95.4863 150.064C95.6623 150.372 95.8896 150.607 96.1683 150.768C96.4543 150.929 96.755 151.01 97.0703 151.01C97.393 151.01 97.6936 150.929 97.9723 150.768C98.2583 150.599 98.4856 150.357 98.6543 150.042C98.8303 149.727 98.9183 149.36 98.9183 148.942ZM106.989 148.821C106.989 149.048 106.975 149.254 106.945 149.437H102.314C102.351 149.921 102.531 150.31 102.853 150.603C103.176 150.896 103.572 151.043 104.041 151.043C104.716 151.043 105.193 150.761 105.471 150.196H106.824C106.641 150.753 106.307 151.212 105.823 151.571C105.347 151.923 104.753 152.099 104.041 152.099C103.462 152.099 102.941 151.971 102.479 151.714C102.025 151.45 101.665 151.083 101.401 150.614C101.145 150.137 101.016 149.587 101.016 148.964C101.016 148.341 101.141 147.794 101.39 147.325C101.647 146.848 102.003 146.482 102.457 146.225C102.919 145.968 103.447 145.84 104.041 145.84C104.613 145.84 105.123 145.965 105.57 146.214C106.018 146.463 106.366 146.815 106.615 147.27C106.865 147.717 106.989 148.234 106.989 148.821ZM105.68 148.425C105.673 147.963 105.508 147.593 105.185 147.314C104.863 147.035 104.463 146.896 103.986 146.896C103.554 146.896 103.183 147.035 102.875 147.314C102.567 147.585 102.384 147.956 102.325 148.425H105.68ZM109.477 146.819C109.661 146.511 109.903 146.273 110.203 146.104C110.511 145.928 110.874 145.84 111.292 145.84V147.138H110.973C110.482 147.138 110.108 147.263 109.851 147.512C109.602 147.761 109.477 148.194 109.477 148.81V152H108.223V145.939H109.477V146.819ZM114.645 152.099C114.168 152.099 113.739 152.015 113.358 151.846C112.984 151.67 112.687 151.435 112.467 151.142C112.247 150.841 112.13 150.508 112.115 150.141H113.413C113.435 150.398 113.556 150.614 113.776 150.79C114.003 150.959 114.286 151.043 114.623 151.043C114.975 151.043 115.246 150.977 115.437 150.845C115.635 150.706 115.734 150.53 115.734 150.317C115.734 150.09 115.624 149.921 115.404 149.811C115.191 149.701 114.85 149.58 114.381 149.448C113.926 149.323 113.556 149.202 113.27 149.085C112.984 148.968 112.735 148.788 112.522 148.546C112.317 148.304 112.214 147.985 112.214 147.589C112.214 147.266 112.309 146.973 112.5 146.709C112.691 146.438 112.962 146.225 113.314 146.071C113.673 145.917 114.084 145.84 114.546 145.84C115.235 145.84 115.789 146.016 116.207 146.368C116.632 146.713 116.86 147.186 116.889 147.787H115.635C115.613 147.516 115.503 147.299 115.305 147.138C115.107 146.977 114.839 146.896 114.502 146.896C114.172 146.896 113.919 146.958 113.743 147.083C113.567 147.208 113.479 147.373 113.479 147.578C113.479 147.739 113.538 147.875 113.655 147.985C113.772 148.095 113.915 148.183 114.084 148.249C114.253 148.308 114.502 148.385 114.832 148.48C115.272 148.597 115.631 148.718 115.91 148.843C116.196 148.96 116.442 149.136 116.647 149.371C116.852 149.606 116.959 149.917 116.966 150.306C116.966 150.651 116.871 150.959 116.68 151.23C116.489 151.501 116.218 151.714 115.866 151.868C115.521 152.022 115.114 152.099 114.645 152.099Z"></path>
<rect fill="url(#paint9_linear_1011_2)" rx="2.25" height="18" width="18" y="139" x="23"></rect>
<path fill="white" d="M29.6135 147.011C30.9315 145.693 33.0685 145.693 34.3865 147.011L39.216 151.841C39.6379 152.263 39.875 152.835 39.875 153.432V153.625C39.875 154.868 38.8676 155.875 37.625 155.875H26.375C25.1324 155.875 24.125 154.868 24.125 153.625V153.432C24.125 152.835 24.3621 152.263 24.784 151.841L29.6135 147.011Z"></path>
<path stroke-width="1.125" stroke-opacity="0.1" stroke="black" d="M34.7842 146.614C33.2465 145.076 30.7535 145.076 29.2158 146.614L24.3863 151.443C23.8588 151.971 23.5625 152.686 23.5625 153.432V153.625C23.5625 155.178 24.8217 156.438 26.375 156.438H37.625C39.1783 156.438 40.4375 155.178 40.4375 153.625V153.432C40.4375 152.686 40.1412 151.971 39.6137 151.443L34.7842 146.614Z"></path>
<path fill="url(#paint10_linear_1011_2)" d="M26.375 157L34.5795 148.795C35.0188 148.356 35.7312 148.356 36.1705 148.795L40.341 152.966C40.7629 153.388 41 153.96 41 154.557V154.75C41 155.993 39.9926 157 38.75 157H26.375Z"></path>
<path fill="url(#paint11_linear_1011_2)" d="M23 154.557C23 153.96 23.2371 153.388 23.659 152.966L29.6135 147.011C30.9315 145.693 33.0685 145.693 34.3865 147.011L37.625 150.25C36.3824 149.007 34.3676 149.007 33.125 150.25L27.034 156.341C26.6121 156.763 26.0398 157 25.443 157H25.25C24.0074 157 23 155.993 23 154.75V154.557Z"></path>
<rect fill="white" rx="1.6875" height="3.375" width="3.375" y="141.25" x="34.25"></rect>
<rect stroke-width="1.125" stroke-opacity="0.1" stroke="black" rx="2.25" height="4.5" width="4.5" y="140.688" x="33.6875"></rect>
<rect fill="url(#paint12_linear_1011_2)" rx="1.33333" height="10.6667" width="10.6667" y="17" x="17"></rect>
<path fill="white" d="M20.9194 21.7475C21.7005 20.9664 22.9668 20.9664 23.7479 21.7475L26.6098 24.6094C26.8598 24.8594 27.0003 25.1986 27.0003 25.5522V25.6666C27.0003 26.403 26.4034 26.9999 25.667 26.9999H19.0003C18.2639 26.9999 17.667 26.403 17.667 25.6666V25.5522C17.667 25.1986 17.8075 24.8594 18.0575 24.6094L20.9194 21.7475Z"></path>
<path stroke-width="0.666667" stroke-opacity="0.1" stroke="black" d="M23.9836 21.5118C23.0724 20.6005 21.595 20.6005 20.6837 21.5118L17.8218 24.3737C17.5093 24.6863 17.3337 25.1102 17.3337 25.5522V25.6666C17.3337 26.5871 18.0798 27.3333 19.0003 27.3333H25.667C26.5875 27.3333 27.3337 26.5871 27.3337 25.6666V25.5522C27.3337 25.1102 27.1581 24.6863 26.8455 24.3737L23.9836 21.5118Z"></path>
<path fill="url(#paint13_linear_1011_2)" d="M19 27.6666L23.8619 22.8047C24.1223 22.5443 24.5444 22.5443 24.8047 22.8047L27.2761 25.2761C27.5262 25.5261 27.6667 25.8652 27.6667 26.2189V26.3333C27.6667 27.0696 27.0697 27.6666 26.3333 27.6666H19Z"></path>
<path fill="url(#paint14_linear_1011_2)" d="M17 26.2189C17 25.8652 17.1405 25.5261 17.3905 25.2761L20.9191 21.7475C21.7002 20.9664 22.9665 20.9664 23.7475 21.7475L25.6667 23.6666C24.9303 22.9302 23.7364 22.9302 23 23.6666L19.3905 27.2761C19.1405 27.5261 18.8013 27.6666 18.4477 27.6666H18.3333C17.597 27.6666 17 27.0696 17 26.3333V26.2189Z"></path>
<rect fill="white" rx="1" height="2" width="2" y="18.3333" x="23.667"></rect>
<rect stroke-width="0.666667" stroke-opacity="0.1" stroke="black" rx="1.33333" height="2.66667" width="2.66667" y="17.9999" x="23.3337"></rect>
<rect stroke="url(#paint16_linear_1011_2)" fill="url(#paint15_linear_1011_2)" rx="4.83333" height="9.66667" width="9.66667" y="22.8335" x="22.834"></rect>
<path fill="white" d="M26.334 29.679V25.6548C26.334 25.3824 26.6431 25.225 26.8634 25.3853L29.63 27.3973C29.813 27.5304 29.813 27.8034 29.63 27.9365L26.8634 29.9486C26.6431 30.1088 26.334 29.9514 26.334 29.679Z"></path>
<path stroke-linejoin="round" stroke-width="0.666667" stroke-opacity="0.2" stroke="black" d="M26.0007 25.6548V29.679C26.0007 30.2238 26.6188 30.5386 27.0594 30.2181L29.826 28.2061C30.1921 27.9398 30.1921 27.394 29.826 27.1278L27.0594 25.1157C26.6188 24.7952 26.0007 25.11 26.0007 25.6548Z"></path>
<path fill="black" d="M177.512 29.248C179.272 29.248 180.816 29.592 182.144 30.28C183.488 30.968 184.52 31.952 185.24 33.232C185.976 34.496 186.344 35.968 186.344 37.648C186.344 39.328 185.976 40.8 185.24 42.064C184.52 43.312 183.488 44.28 182.144 44.968C180.816 45.656 179.272 46 177.512 46H171.656V29.248H177.512ZM177.392 43.144C179.152 43.144 180.512 42.664 181.472 41.704C182.432 40.744 182.912 39.392 182.912 37.648C182.912 35.904 182.432 34.544 181.472 33.568C180.512 32.576 179.152 32.08 177.392 32.08H175.016V43.144H177.392ZM201.219 39.064C201.219 39.544 201.187 39.976 201.123 40.36H191.403C191.483 41.32 191.819 42.072 192.411 42.616C193.003 43.16 193.731 43.432 194.595 43.432C195.843 43.432 196.731 42.896 197.259 41.824H200.883C200.499 43.104 199.763 44.16 198.675 44.992C197.587 45.808 196.251 46.216 194.667 46.216C193.387 46.216 192.235 45.936 191.211 45.376C190.203 44.8 189.411 43.992 188.835 42.952C188.275 41.912 187.995 40.712 187.995 39.352C187.995 37.976 188.275 36.768 188.835 35.728C189.395 34.688 190.179 33.888 191.187 33.328C192.195 32.768 193.355 32.488 194.667 32.488C195.931 32.488 197.059 32.76 198.051 33.304C199.059 33.848 199.835 34.624 200.379 35.632C200.939 36.624 201.219 37.768 201.219 39.064ZM197.739 38.104C197.723 37.24 197.411 36.552 196.803 36.04C196.195 35.512 195.451 35.248 194.571 35.248C193.739 35.248 193.035 35.504 192.459 36.016C191.899 36.512 191.555 37.208 191.427 38.104H197.739ZM208.76 46.216C207.672 46.216 206.696 46.024 205.832 45.64C204.968 45.24 204.28 44.704 203.768 44.032C203.272 43.36 203 42.616 202.952 41.8H206.336C206.4 42.312 206.648 42.736 207.08 43.072C207.528 43.408 208.08 43.576 208.736 43.576C209.376 43.576 209.872 43.448 210.224 43.192C210.592 42.936 210.776 42.608 210.776 42.208C210.776 41.776 210.552 41.456 210.104 41.248C209.672 41.024 208.976 40.784 208.016 40.528C207.024 40.288 206.208 40.04 205.568 39.784C204.944 39.528 204.4 39.136 203.936 38.608C203.488 38.08 203.264 37.368 203.264 36.472C203.264 35.736 203.472 35.064 203.888 34.456C204.32 33.848 204.928 33.368 205.712 33.016C206.512 32.664 207.448 32.488 208.52 32.488C210.104 32.488 211.368 32.888 212.312 33.688C213.256 34.472 213.776 35.536 213.872 36.88H210.656C210.608 36.352 210.384 35.936 209.984 35.632C209.6 35.312 209.08 35.152 208.424 35.152C207.816 35.152 207.344 35.264 207.008 35.488C206.688 35.712 206.528 36.024 206.528 36.424C206.528 36.872 206.752 37.216 207.2 37.456C207.648 37.68 208.344 37.912 209.288 38.152C210.248 38.392 211.04 38.64 211.664 38.896C212.288 39.152 212.824 39.552 213.272 40.096C213.736 40.624 213.976 41.328 213.992 42.208C213.992 42.976 213.776 43.664 213.344 44.272C212.928 44.88 212.32 45.36 211.52 45.712C210.736 46.048 209.816 46.216 208.76 46.216ZM218.454 31.12C217.862 31.12 217.366 30.936 216.966 30.568C216.582 30.184 216.39 29.712 216.39 29.152C216.39 28.592 216.582 28.128 216.966 27.76C217.366 27.376 217.862 27.184 218.454 27.184C219.046 27.184 219.534 27.376 219.918 27.76C220.318 28.128 220.518 28.592 220.518 29.152C220.518 29.712 220.318 30.184 219.918 30.568C219.534 30.936 219.046 31.12 218.454 31.12ZM220.11 32.704V46H216.75V32.704H220.11ZM228.637 32.488C229.629 32.488 230.501 32.688 231.253 33.088C232.005 33.472 232.597 33.976 233.029 34.6V32.704H236.413V46.096C236.413 47.328 236.165 48.424 235.669 49.384C235.173 50.36 234.429 51.128 233.437 51.688C232.445 52.264 231.245 52.552 229.837 52.552C227.949 52.552 226.397 52.112 225.181 51.232C223.981 50.352 223.301 49.152 223.141 47.632H226.477C226.653 48.24 227.029 48.72 227.605 49.072C228.197 49.44 228.909 49.624 229.741 49.624C230.717 49.624 231.509 49.328 232.117 48.736C232.725 48.16 233.029 47.28 233.029 46.096V44.032C232.597 44.656 231.997 45.176 231.229 45.592C230.477 46.008 229.613 46.216 228.637 46.216C227.517 46.216 226.493 45.928 225.565 45.352C224.637 44.776 223.901 43.968 223.357 42.928C222.829 41.872 222.565 40.664 222.565 39.304C222.565 37.96 222.829 36.768 223.357 35.728C223.901 34.688 224.629 33.888 225.541 33.328C226.469 32.768 227.501 32.488 228.637 32.488ZM233.029 39.352C233.029 38.536 232.869 37.84 232.549 37.264C232.229 36.672 231.797 36.224 231.253 35.92C230.709 35.6 230.125 35.44 229.501 35.44C228.877 35.44 228.301 35.592 227.773 35.896C227.245 36.2 226.813 36.648 226.477 37.24C226.157 37.816 225.997 38.504 225.997 39.304C225.997 40.104 226.157 40.808 226.477 41.416C226.813 42.008 227.245 42.464 227.773 42.784C228.317 43.104 228.893 43.264 229.501 43.264C230.125 43.264 230.709 43.112 231.253 42.808C231.797 42.488 232.229 42.04 232.549 41.464C232.869 40.872 233.029 40.168 233.029 39.352ZM247.063 32.512C248.647 32.512 249.927 33.016 250.903 34.024C251.879 35.016 252.367 36.408 252.367 38.2V46H249.007V38.656C249.007 37.6 248.743 36.792 248.215 36.232C247.687 35.656 246.967 35.368 246.055 35.368C245.127 35.368 244.391 35.656 243.847 36.232C243.319 36.792 243.055 37.6 243.055 38.656V46H239.695V32.704H243.055V34.36C243.503 33.784 244.071 33.336 244.759 33.016C245.463 32.68 246.231 32.512 247.063 32.512ZM260.65 46.216C259.562 46.216 258.586 46.024 257.722 45.64C256.858 45.24 256.17 44.704 255.658 44.032C255.162 43.36 254.89 42.616 254.842 41.8H258.226C258.29 42.312 258.538 42.736 258.97 43.072C259.418 43.408 259.97 43.576 260.626 43.576C261.266 43.576 261.762 43.448 262.114 43.192C262.482 42.936 262.666 42.608 262.666 42.208C262.666 41.776 262.442 41.456 261.994 41.248C261.562 41.024 260.866 40.784 259.906 40.528C258.914 40.288 258.098 40.04 257.458 39.784C256.834 39.528 256.29 39.136 255.826 38.608C255.378 38.08 255.154 37.368 255.154 36.472C255.154 35.736 255.362 35.064 255.778 34.456C256.21 33.848 256.818 33.368 257.602 33.016C258.402 32.664 259.338 32.488 260.41 32.488C261.994 32.488 263.258 32.888 264.202 33.688C265.146 34.472 265.666 35.536 265.762 36.88H262.546C262.498 36.352 262.274 35.936 261.874 35.632C261.49 35.312 260.97 35.152 260.314 35.152C259.706 35.152 259.234 35.264 258.898 35.488C258.578 35.712 258.418 36.024 258.418 36.424C258.418 36.872 258.642 37.216 259.09 37.456C259.538 37.68 260.234 37.912 261.178 38.152C262.138 38.392 262.93 38.64 263.554 38.896C264.178 39.152 264.714 39.552 265.162 40.096C265.626 40.624 265.866 41.328 265.882 42.208C265.882 42.976 265.666 43.664 265.234 44.272C264.818 44.88 264.21 45.36 263.41 45.712C262.626 46.048 261.706 46.216 260.65 46.216Z"></path>
<path fill="#808080" d="M464.134 87.5C464.519 86.8333 465.481 86.8333 465.866 87.5L468.464 92C468.849 92.6667 468.368 93.5 467.598 93.5H462.402C461.632 93.5 461.151 92.6667 461.536 92L464.134 87.5Z"></path>
<path fill="#808080" d="M465.866 348.5C465.481 349.167 464.519 349.167 464.134 348.5L461.536 344C461.151 343.333 461.632 342.5 462.402 342.5L467.598 342.5C468.368 342.5 468.849 343.333 468.464 344L465.866 348.5Z"></path>
<path fill-opacity="0.05" fill="black" d="M10 175C10 172.239 12.2386 170 15 170H145C147.761 170 150 172.239 150 175V345C150 347.761 147.761 350 145 350H132V335V335C133.105 335 134 334.105 134 333V267C134 265.895 133.105 265 132 265V265C130.895 265 130 265.895 130 267V333C130 334.105 130.895 335 132 335V335V350H28V335V335C29.1046 335 30 334.105 30 333V267C30 265.895 29.1046 265 28 265V265C26.8954 265 26 265.895 26 267V333C26 334.105 26.8954 335 28 335V335V350H15C12.2386 350 10 347.761 10 345V175Z"></path>
<path fill="#CC5500" d="M43 240C43 238.895 43.8954 238 45 238H139C140.105 238 141 238.895 141 240V240C141 241.105 140.105 242 139 242H45C43.8954 242 43 241.105 43 240V240Z"></path>
<path fill="black" d="M21 239.125C21 238.158 21.7835 237.375 22.75 237.375H23.6249L26.0685 234.931C26.1845 234.815 26.3419 234.75 26.506 234.75V234.75C26.8477 234.75 27.1247 235.027 27.1247 235.369V244.631C27.1247 244.973 26.8477 245.25 26.506 245.25V245.25C26.3419 245.25 26.1845 245.185 26.0685 245.069L23.6249 242.625L24.4998 241.75L26.2497 243.5V236.5L24.4998 238.25H22.7499C22.2667 238.25 21.875 238.642 21.875 239.125V240.875C21.875 241.358 22.2667 241.75 22.7499 241.75H24.4998L23.6249 242.625H22.75C21.7835 242.625 21 241.842 21 240.875V239.125Z"></path>
<path fill="black" d="M32.1277 245.878C32.2985 246.049 32.5764 246.049 32.7402 245.872C34.191 244.299 34.9997 242.45 34.9997 240C34.9997 237.55 34.191 235.701 32.7402 234.128C32.5764 233.951 32.2985 233.951 32.1277 234.122V234.122C31.9568 234.293 31.9579 234.569 32.119 234.749C33.4072 236.189 34.1248 238.058 34.1248 240C34.1248 241.942 33.4072 243.811 32.119 245.251C31.9579 245.431 31.9568 245.707 32.1277 245.878V245.878Z"></path>
<path fill="black" d="M30.2712 244.021C30.4426 244.192 30.7218 244.193 30.8828 244.012C31.8423 242.932 32.3754 241.664 32.3754 240C32.3754 238.336 31.8423 237.068 30.8828 235.988C30.7218 235.807 30.4426 235.808 30.2712 235.979V235.979C30.0999 236.151 30.1015 236.427 30.2579 236.613C31.0555 237.556 31.4978 238.755 31.4977 240C31.4977 241.245 31.0555 242.444 30.2579 243.387C30.1015 243.573 30.0999 243.849 30.2712 244.021V244.021Z"></path>
<path fill="black" d="M28.4148 242.166C28.5856 242.336 28.8653 242.338 29.017 242.15C29.4891 241.564 29.7492 240.879 29.7492 240C29.7492 239.121 29.4891 238.436 29.017 237.85C28.8653 237.662 28.5856 237.664 28.4148 237.835V237.835C28.244 238.005 28.2475 238.281 28.3877 238.478C28.7021 238.919 28.8743 239.451 28.8743 240C28.8743 240.549 28.7021 241.081 28.3877 241.523C28.2475 241.719 28.244 241.995 28.4148 242.166V242.166Z"></path>
<defs>
<linearGradient gradientUnits="userSpaceOnUse" y2="113.625" x2="37.625" y1="102.375" x1="26.375" id="paint0_linear_1011_2">
<stop stop-color="#4C4C4C"></stop>
<stop stop-color="#242424" offset="1"></stop>
</linearGradient>
<linearGradient gradientUnits="userSpaceOnUse" y2="114.187" x2="38.1875" y1="101.812" x1="25.8125" id="paint1_linear_1011_2">
<stop stop-color="#FC914C"></stop>
<stop stop-color="#8D63BE" offset="1"></stop>
</linearGradient>
<linearGradient gradientUnits="userSpaceOnUse" y2="73.9995" x2="36.4993" y1="61.2495" x1="26.7493" id="paint2_linear_1011_2">
<stop stop-color="#50E6FF"></stop>
<stop stop-color="#0270C2" offset="1"></stop>
</linearGradient>
<linearGradient gradientUnits="userSpaceOnUse" y2="68.7495" x2="26.75" y1="67.2495" x1="25.25" id="paint3_linear_1011_2">
<stop stop-color="#E25113"></stop>
<stop stop-color="#C7390A" offset="1"></stop>
</linearGradient>
<linearGradient gradientUnits="userSpaceOnUse" y2="64.9993" x2="29" y1="63.4993" x1="27.5" id="paint4_linear_1011_2">
<stop stop-color="#55B50E"></stop>
<stop stop-color="#1C8610" offset="1"></stop>
</linearGradient>
<linearGradient gradientUnits="userSpaceOnUse" y2="63.4995" x2="32.749" y1="61.9995" x1="31.249" id="paint5_linear_1011_2">
<stop stop-color="#FFD300"></stop>
<stop stop-color="#F39808" offset="1"></stop>
</linearGradient>
<linearGradient gradientUnits="userSpaceOnUse" y2="67.9995" x2="37.25" y1="67.9995" x1="35" id="paint6_linear_1011_2">
<stop stop-color="#AA6701"></stop>
<stop stop-color="#814406" offset="1"></stop>
</linearGradient>
<linearGradient gradientUnits="userSpaceOnUse" y2="67.9995" x2="37.25" y1="67.9995" x1="35" id="paint7_linear_1011_2">
<stop stop-color="#CAD2D9"></stop>
<stop stop-color="#939BA2" offset="1"></stop>
</linearGradient>
<linearGradient gradientUnits="userSpaceOnUse" y2="67.2495" x2="37.25" y1="64.2495" x1="34.25" id="paint8_linear_1011_2">
<stop stop-color="#F7DEAA"></stop>
<stop stop-color="#C3935E" offset="1"></stop>
</linearGradient>
<linearGradient gradientUnits="userSpaceOnUse" y2="152.5" x2="41" y1="140.125" x1="24.125" id="paint9_linear_1011_2">
<stop stop-color="#188EDB"></stop>
<stop stop-color="#7D5AB6" offset="1"></stop>
</linearGradient>
<linearGradient gradientUnits="userSpaceOnUse" y2="157" x2="38.75" y1="151.375" x1="33.125" id="paint10_linear_1011_2">
<stop stop-color="#037AD2"></stop>
<stop stop-color="#2C9EE2" offset="1"></stop>
</linearGradient>
<linearGradient gradientUnits="userSpaceOnUse" y2="152.5" x2="30.875" y1="148" x1="26.375" id="paint11_linear_1011_2">
<stop stop-color="#4DDDFB"></stop>
<stop stop-color="#2AB2EB" offset="1"></stop>
</linearGradient>
<linearGradient gradientUnits="userSpaceOnUse" y2="25" x2="27.6667" y1="17.6667" x1="17.6667" id="paint12_linear_1011_2">
<stop stop-color="#188EDB"></stop>
<stop stop-color="#7D5AB6" offset="1"></stop>
</linearGradient>
<linearGradient gradientUnits="userSpaceOnUse" y2="27.6666" x2="26.3333" y1="24.3333" x1="23" id="paint13_linear_1011_2">
<stop stop-color="#037AD2"></stop>
<stop stop-color="#2C9EE2" offset="1"></stop>
</linearGradient>
<linearGradient gradientUnits="userSpaceOnUse" y2="24.9999" x2="21.6667" y1="22.3333" x1="19" id="paint14_linear_1011_2">
<stop stop-color="#4DDDFB"></stop>
<stop stop-color="#2AB2EB" offset="1"></stop>
</linearGradient>
<linearGradient gradientUnits="userSpaceOnUse" y2="31.0002" x2="31.0007" y1="24.3335" x1="24.334" id="paint15_linear_1011_2">
<stop stop-color="#4C4C4C"></stop>
<stop stop-color="#242424" offset="1"></stop>
</linearGradient>
<linearGradient gradientUnits="userSpaceOnUse" y2="31.3335" x2="31.334" y1="24.0002" x1="24.0007" id="paint16_linear_1011_2">
<stop stop-color="#FC914C"></stop>
<stop stop-color="#8D63BE" offset="1"></stop>
</linearGradient>
</defs>
</svg>
