<svg xmlns="http://www.w3.org/2000/svg" fill="none" viewBox="0 0 480 180" height="180" width="480">
<path fill-opacity="0.9" fill="#1A1A1A" d="M50 30C50 24.4771 54.4772 20 60 20H420C425.523 20 430 24.4772 430 30V120C430 125.523 425.523 130 420 130H60C54.4772 130 50 125.523 50 120V30Z"></path>
<path stroke-width="2" stroke-opacity="0.2" stroke="white" d="M420 19H60C53.9249 19 49 23.9249 49 30V120C49 126.075 53.9249 131 60 131H420C426.075 131 431 126.075 431 120V30C431 23.9249 426.075 19 420 19Z"></path>
<path fill="white" d="M115.418 41.355V42.378H113.383V49H112.129V42.378H110.083V41.355H115.418ZM117.326 42.136C117.099 42.136 116.908 42.059 116.754 41.905C116.6 41.751 116.523 41.5603 116.523 41.333C116.523 41.1057 116.6 40.915 116.754 40.761C116.908 40.607 117.099 40.53 117.326 40.53C117.546 40.53 117.733 40.607 117.887 40.761C118.041 40.915 118.118 41.1057 118.118 41.333C118.118 41.5603 118.041 41.751 117.887 41.905C117.733 42.059 117.546 42.136 117.326 42.136ZM117.942 42.939V49H116.688V42.939H117.942ZM122.647 42.84C123.123 42.84 123.549 42.939 123.923 43.137C124.304 43.335 124.601 43.6283 124.814 44.017C125.026 44.4057 125.133 44.875 125.133 45.425V49H123.89V45.612C123.89 45.0693 123.754 44.655 123.483 44.369C123.211 44.0757 122.841 43.929 122.372 43.929C121.902 43.929 121.528 44.0757 121.25 44.369C120.978 44.655 120.843 45.0693 120.843 45.612V49H119.589V42.939H120.843V43.632C121.048 43.3827 121.308 43.1883 121.624 43.049C121.946 42.9097 122.287 42.84 122.647 42.84ZM128.195 43.962V47.317C128.195 47.5443 128.247 47.7093 128.349 47.812C128.459 47.9073 128.643 47.955 128.899 47.955H129.669V49H128.679C128.115 49 127.682 48.868 127.381 48.604C127.081 48.34 126.93 47.911 126.93 47.317V43.962H126.215V42.939H126.93V41.432H128.195V42.939H129.669V43.962H128.195Z"></path>
<path fill="white" d="M76.4902 75.073C76.9009 75.1463 77.2492 75.3627 77.5352 75.722C77.8212 76.0813 77.9642 76.4883 77.9642 76.943C77.9642 77.3317 77.8616 77.6837 77.6562 77.999C77.4582 78.307 77.1686 78.5527 76.7872 78.736C76.4059 78.912 75.9622 79 75.4562 79H72.3982V71.355H75.3132C75.8339 71.355 76.2812 71.443 76.6552 71.619C77.0292 71.795 77.3116 72.0333 77.5022 72.334C77.6929 72.6273 77.7882 72.9573 77.7882 73.324C77.7882 73.764 77.6709 74.1307 77.4362 74.424C77.2016 74.7173 76.8862 74.9337 76.4902 75.073ZM73.6522 74.567H75.2032C75.6139 74.567 75.9329 74.4753 76.1602 74.292C76.3949 74.1013 76.5122 73.83 76.5122 73.478C76.5122 73.1333 76.3949 72.8657 76.1602 72.675C75.9329 72.477 75.6139 72.378 75.2032 72.378H73.6522V74.567ZM75.3462 77.977C75.7716 77.977 76.1052 77.8743 76.3472 77.669C76.5892 77.4637 76.7102 77.1777 76.7102 76.811C76.7102 76.437 76.5819 76.14 76.3252 75.92C76.0686 75.7 75.7276 75.59 75.3022 75.59H73.6522V77.977H75.3462ZM80.581 73.819C80.7643 73.511 81.0063 73.2727 81.307 73.104C81.615 72.928 81.978 72.84 82.396 72.84V74.138H82.077C81.5856 74.138 81.2116 74.2627 80.955 74.512C80.7056 74.7613 80.581 75.194 80.581 75.81V79H79.327V72.939H80.581V73.819ZM84.1866 72.136C83.9593 72.136 83.7686 72.059 83.6146 71.905C83.4606 71.751 83.3836 71.5603 83.3836 71.333C83.3836 71.1057 83.4606 70.915 83.6146 70.761C83.7686 70.607 83.9593 70.53 84.1866 70.53C84.4066 70.53 84.5936 70.607 84.7476 70.761C84.9016 70.915 84.9786 71.1057 84.9786 71.333C84.9786 71.5603 84.9016 71.751 84.7476 71.905C84.5936 72.059 84.4066 72.136 84.1866 72.136ZM84.8026 72.939V79H83.5486V72.939H84.8026ZM88.891 72.84C89.3604 72.84 89.7747 72.9353 90.134 73.126C90.5007 73.3093 90.7867 73.5403 90.992 73.819V72.939H92.257V79.099C92.257 79.6563 92.1397 80.1513 91.905 80.584C91.6704 81.024 91.3294 81.3687 90.882 81.618C90.442 81.8673 89.914 81.992 89.298 81.992C88.4767 81.992 87.7947 81.7977 87.252 81.409C86.7094 81.0277 86.4014 80.507 86.328 79.847H87.571C87.6664 80.1623 87.868 80.4153 88.176 80.606C88.4914 80.804 88.8654 80.903 89.298 80.903C89.804 80.903 90.211 80.749 90.519 80.441C90.8344 80.133 90.992 79.6857 90.992 79.099V78.087C90.7794 78.373 90.4897 78.615 90.123 78.813C89.7637 79.0037 89.353 79.099 88.891 79.099C88.363 79.099 87.879 78.967 87.439 78.703C87.0064 78.4317 86.6617 78.0577 86.405 77.581C86.1557 77.097 86.031 76.5507 86.031 75.942C86.031 75.3333 86.1557 74.7943 86.405 74.325C86.6617 73.8557 87.0064 73.4927 87.439 73.236C87.879 72.972 88.363 72.84 88.891 72.84ZM90.992 75.964C90.992 75.546 90.904 75.183 90.728 74.875C90.5594 74.567 90.3357 74.3323 90.057 74.171C89.7784 74.0097 89.4777 73.929 89.155 73.929C88.8324 73.929 88.5317 74.0097 88.253 74.171C87.9744 74.325 87.747 74.556 87.571 74.864C87.4024 75.1647 87.318 75.524 87.318 75.942C87.318 76.36 87.4024 76.7267 87.571 77.042C87.747 77.3573 87.9744 77.5993 88.253 77.768C88.539 77.9293 88.8397 78.01 89.155 78.01C89.4777 78.01 89.7784 77.9293 90.057 77.768C90.3357 77.6067 90.5594 77.372 90.728 77.064C90.904 76.7487 90.992 76.382 90.992 75.964ZM97.0391 72.84C97.5011 72.84 97.9118 72.939 98.2711 73.137C98.6378 73.335 98.9238 73.6283 99.1291 74.017C99.3418 74.4057 99.4481 74.875 99.4481 75.425V79H98.2051V75.612C98.2051 75.0693 98.0694 74.655 97.7981 74.369C97.5268 74.0757 97.1564 73.929 96.6871 73.929C96.2178 73.929 95.8438 74.0757 95.5651 74.369C95.2938 74.655 95.1581 75.0693 95.1581 75.612V79H93.9041V70.86H95.1581V73.643C95.3708 73.3863 95.6384 73.1883 95.9611 73.049C96.2911 72.9097 96.6504 72.84 97.0391 72.84ZM102.511 73.962V77.317C102.511 77.5443 102.562 77.7093 102.665 77.812C102.775 77.9073 102.958 77.955 103.215 77.955H103.985V79H102.995C102.43 79 101.997 78.868 101.697 78.604C101.396 78.34 101.246 77.911 101.246 77.317V73.962H100.531V72.939H101.246V71.432H102.511V72.939H103.985V73.962H102.511ZM108.198 72.84C108.675 72.84 109.1 72.939 109.474 73.137C109.856 73.335 110.153 73.6283 110.365 74.017C110.578 74.4057 110.684 74.875 110.684 75.425V79H109.441V75.612C109.441 75.0693 109.306 74.655 109.034 74.369C108.763 74.0757 108.393 73.929 107.923 73.929C107.454 73.929 107.08 74.0757 106.801 74.369C106.53 74.655 106.394 75.0693 106.394 75.612V79H105.14V72.939H106.394V73.632C106.6 73.3827 106.86 73.1883 107.175 73.049C107.498 72.9097 107.839 72.84 108.198 72.84ZM117.839 75.821C117.839 76.0483 117.824 76.2537 117.795 76.437H113.164C113.201 76.921 113.38 77.3097 113.703 77.603C114.026 77.8963 114.422 78.043 114.891 78.043C115.566 78.043 116.042 77.7607 116.321 77.196H117.674C117.491 77.7533 117.157 78.2117 116.673 78.571C116.196 78.923 115.602 79.099 114.891 79.099C114.312 79.099 113.791 78.9707 113.329 78.714C112.874 78.45 112.515 78.0833 112.251 77.614C111.994 77.1373 111.866 76.5873 111.866 75.964C111.866 75.3407 111.991 74.7943 112.24 74.325C112.497 73.8483 112.852 73.4817 113.307 73.225C113.769 72.9683 114.297 72.84 114.891 72.84C115.463 72.84 115.973 72.9647 116.42 73.214C116.867 73.4633 117.216 73.8153 117.465 74.27C117.714 74.7173 117.839 75.2343 117.839 75.821ZM116.53 75.425C116.523 74.963 116.358 74.5927 116.035 74.314C115.712 74.0353 115.313 73.896 114.836 73.896C114.403 73.896 114.033 74.0353 113.725 74.314C113.417 74.5853 113.234 74.9557 113.175 75.425H116.53ZM121.273 79.099C120.796 79.099 120.367 79.0147 119.986 78.846C119.612 78.67 119.315 78.4353 119.095 78.142C118.875 77.8413 118.758 77.5077 118.743 77.141H120.041C120.063 77.3977 120.184 77.614 120.404 77.79C120.631 77.9587 120.914 78.043 121.251 78.043C121.603 78.043 121.874 77.977 122.065 77.845C122.263 77.7057 122.362 77.5297 122.362 77.317C122.362 77.0897 122.252 76.921 122.032 76.811C121.819 76.701 121.478 76.58 121.009 76.448C120.554 76.3233 120.184 76.2023 119.898 76.085C119.612 75.9677 119.363 75.788 119.15 75.546C118.945 75.304 118.842 74.985 118.842 74.589C118.842 74.2663 118.937 73.973 119.128 73.709C119.319 73.4377 119.59 73.225 119.942 73.071C120.301 72.917 120.712 72.84 121.174 72.84C121.863 72.84 122.417 73.016 122.835 73.368C123.26 73.7127 123.488 74.1857 123.517 74.787H122.263C122.241 74.5157 122.131 74.2993 121.933 74.138C121.735 73.9767 121.467 73.896 121.13 73.896C120.8 73.896 120.547 73.9583 120.371 74.083C120.195 74.2077 120.107 74.3727 120.107 74.578C120.107 74.7393 120.166 74.875 120.283 74.985C120.4 75.095 120.543 75.183 120.712 75.249C120.881 75.3077 121.13 75.3847 121.46 75.48C121.9 75.5973 122.259 75.7183 122.538 75.843C122.824 75.9603 123.07 76.1363 123.275 76.371C123.48 76.6057 123.587 76.9173 123.594 77.306C123.594 77.6507 123.499 77.9587 123.308 78.23C123.117 78.5013 122.846 78.714 122.494 78.868C122.149 79.022 121.742 79.099 121.273 79.099ZM127.149 79.099C126.672 79.099 126.243 79.0147 125.862 78.846C125.488 78.67 125.191 78.4353 124.971 78.142C124.751 77.8413 124.634 77.5077 124.619 77.141H125.917C125.939 77.3977 126.06 77.614 126.28 77.79C126.507 77.9587 126.79 78.043 127.127 78.043C127.479 78.043 127.75 77.977 127.941 77.845C128.139 77.7057 128.238 77.5297 128.238 77.317C128.238 77.0897 128.128 76.921 127.908 76.811C127.695 76.701 127.354 76.58 126.885 76.448C126.43 76.3233 126.06 76.2023 125.774 76.085C125.488 75.9677 125.239 75.788 125.026 75.546C124.821 75.304 124.718 74.985 124.718 74.589C124.718 74.2663 124.813 73.973 125.004 73.709C125.195 73.4377 125.466 73.225 125.818 73.071C126.177 72.917 126.588 72.84 127.05 72.84C127.739 72.84 128.293 73.016 128.711 73.368C129.136 73.7127 129.364 74.1857 129.393 74.787H128.139C128.117 74.5157 128.007 74.2993 127.809 74.138C127.611 73.9767 127.343 73.896 127.006 73.896C126.676 73.896 126.423 73.9583 126.247 74.083C126.071 74.2077 125.983 74.3727 125.983 74.578C125.983 74.7393 126.042 74.875 126.159 74.985C126.276 75.095 126.419 75.183 126.588 75.249C126.757 75.3077 127.006 75.3847 127.336 75.48C127.776 75.5973 128.135 75.7183 128.414 75.843C128.7 75.9603 128.946 76.1363 129.151 76.371C129.356 76.6057 129.463 76.9173 129.47 77.306C129.47 77.6507 129.375 77.9587 129.184 78.23C128.993 78.5013 128.722 78.714 128.37 78.868C128.025 79.022 127.618 79.099 127.149 79.099Z"></path>
<path fill="white" d="M90.7847 109.077C90.0733 109.077 89.417 108.912 88.8157 108.582C88.2217 108.245 87.7487 107.779 87.3967 107.185C87.052 106.584 86.8797 105.909 86.8797 105.161C86.8797 104.413 87.052 103.742 87.3967 103.148C87.7487 102.554 88.2217 102.092 88.8157 101.762C89.417 101.425 90.0733 101.256 90.7847 101.256C91.5033 101.256 92.1597 101.425 92.7537 101.762C93.355 102.092 93.828 102.554 94.1727 103.148C94.5173 103.742 94.6897 104.413 94.6897 105.161C94.6897 105.909 94.5173 106.584 94.1727 107.185C93.828 107.779 93.355 108.245 92.7537 108.582C92.1597 108.912 91.5033 109.077 90.7847 109.077ZM90.7847 107.988C91.2907 107.988 91.7417 107.874 92.1377 107.647C92.5337 107.412 92.8417 107.082 93.0617 106.657C93.289 106.224 93.4027 105.726 93.4027 105.161C93.4027 104.596 93.289 104.101 93.0617 103.676C92.8417 103.251 92.5337 102.924 92.1377 102.697C91.7417 102.47 91.2907 102.356 90.7847 102.356C90.2787 102.356 89.8277 102.47 89.4317 102.697C89.0357 102.924 88.724 103.251 88.4967 103.676C88.2767 104.101 88.1667 104.596 88.1667 105.161C88.1667 105.726 88.2767 106.224 88.4967 106.657C88.724 107.082 89.0357 107.412 89.4317 107.647C89.8277 107.874 90.2787 107.988 90.7847 107.988ZM97.1776 103.83C97.3903 103.551 97.68 103.317 98.0466 103.126C98.4133 102.935 98.8276 102.84 99.2896 102.84C99.8176 102.84 100.298 102.972 100.731 103.236C101.171 103.493 101.515 103.856 101.765 104.325C102.014 104.794 102.139 105.333 102.139 105.942C102.139 106.551 102.014 107.097 101.765 107.581C101.515 108.058 101.171 108.432 100.731 108.703C100.298 108.967 99.8176 109.099 99.2896 109.099C98.8276 109.099 98.417 109.007 98.0576 108.824C97.6983 108.633 97.405 108.399 97.1776 108.12V111.882H95.9236V102.939H97.1776V103.83ZM100.863 105.942C100.863 105.524 100.775 105.165 100.599 104.864C100.43 104.556 100.203 104.325 99.9166 104.171C99.638 104.01 99.3373 103.929 99.0146 103.929C98.6993 103.929 98.3986 104.01 98.1126 104.171C97.834 104.332 97.6066 104.567 97.4306 104.875C97.262 105.183 97.1776 105.546 97.1776 105.964C97.1776 106.382 97.262 106.749 97.4306 107.064C97.6066 107.372 97.834 107.607 98.1126 107.768C98.3986 107.929 98.6993 108.01 99.0146 108.01C99.3373 108.01 99.638 107.929 99.9166 107.768C100.203 107.599 100.43 107.357 100.599 107.042C100.775 106.727 100.863 106.36 100.863 105.942ZM102.961 105.942C102.961 105.333 103.085 104.794 103.335 104.325C103.591 103.856 103.936 103.493 104.369 103.236C104.809 102.972 105.293 102.84 105.821 102.84C106.297 102.84 106.712 102.935 107.064 103.126C107.423 103.309 107.709 103.54 107.922 103.819V102.939H109.187V109H107.922V108.098C107.709 108.384 107.419 108.622 107.053 108.813C106.686 109.004 106.268 109.099 105.799 109.099C105.278 109.099 104.801 108.967 104.369 108.703C103.936 108.432 103.591 108.058 103.335 107.581C103.085 107.097 102.961 106.551 102.961 105.942ZM107.922 105.964C107.922 105.546 107.834 105.183 107.658 104.875C107.489 104.567 107.265 104.332 106.987 104.171C106.708 104.01 106.407 103.929 106.085 103.929C105.762 103.929 105.461 104.01 105.183 104.171C104.904 104.325 104.677 104.556 104.501 104.864C104.332 105.165 104.248 105.524 104.248 105.942C104.248 106.36 104.332 106.727 104.501 107.042C104.677 107.357 104.904 107.599 105.183 107.768C105.469 107.929 105.769 108.01 106.085 108.01C106.407 108.01 106.708 107.929 106.987 107.768C107.265 107.607 107.489 107.372 107.658 107.064C107.834 106.749 107.922 106.382 107.922 105.964ZM110.416 105.964C110.416 105.341 110.54 104.794 110.79 104.325C111.046 103.848 111.398 103.482 111.846 103.225C112.293 102.968 112.806 102.84 113.386 102.84C114.119 102.84 114.724 103.016 115.201 103.368C115.685 103.713 116.011 104.208 116.18 104.853H114.827C114.717 104.552 114.541 104.318 114.299 104.149C114.057 103.98 113.752 103.896 113.386 103.896C112.872 103.896 112.462 104.079 112.154 104.446C111.853 104.805 111.703 105.311 111.703 105.964C111.703 106.617 111.853 107.126 112.154 107.493C112.462 107.86 112.872 108.043 113.386 108.043C114.112 108.043 114.592 107.724 114.827 107.086H116.18C116.004 107.702 115.674 108.193 115.19 108.56C114.706 108.919 114.104 109.099 113.386 109.099C112.806 109.099 112.293 108.971 111.846 108.714C111.398 108.45 111.046 108.083 110.79 107.614C110.54 107.137 110.416 106.587 110.416 105.964ZM118.067 102.136C117.84 102.136 117.649 102.059 117.495 101.905C117.341 101.751 117.264 101.56 117.264 101.333C117.264 101.106 117.341 100.915 117.495 100.761C117.649 100.607 117.84 100.53 118.067 100.53C118.287 100.53 118.474 100.607 118.628 100.761C118.782 100.915 118.859 101.106 118.859 101.333C118.859 101.56 118.782 101.751 118.628 101.905C118.474 102.059 118.287 102.136 118.067 102.136ZM118.683 102.939V109H117.429V102.939H118.683ZM121.793 103.962V107.317C121.793 107.544 121.844 107.709 121.947 107.812C122.057 107.907 122.24 107.955 122.497 107.955H123.267V109H122.277C121.712 109 121.28 108.868 120.979 108.604C120.678 108.34 120.528 107.911 120.528 107.317V103.962H119.813V102.939H120.528V101.432H121.793V102.939H123.267V103.962H121.793ZM129.879 102.939L126.161 111.849H124.863L126.095 108.901L123.708 102.939H125.105L126.81 107.559L128.581 102.939H129.879Z"></path>
<path fill="url(#paint0_linear_991_2)" d="M150 45C150 43.8954 150.895 43 152 43H366C367.105 43 368 43.8954 368 45V45C368 46.1046 367.105 47 366 47H152C150.895 47 150 46.1046 150 45V45Z"></path>
<defs>
<linearGradient gradientUnits="userSpaceOnUse" y2="47" x2="368" y1="47.0001" x1="150" id="paint0_linear_991_2">
<stop stop-color="#FF0000"></stop>
<stop stop-color="#FFBD00" offset="0.125"></stop>
<stop stop-color="#80FF00" offset="0.25"></stop>
<stop stop-color="#00FF40" offset="0.375"></stop>
<stop stop-color="#00FFFF" offset="0.5"></stop>
<stop stop-color="#0040FF" offset="0.625"></stop>
<stop stop-color="#8000FF" offset="0.75"></stop>
<stop stop-color="#FF00BF" offset="0.875"></stop>
<stop stop-color="#FF0000" offset="1"></stop>
</linearGradient>
</defs>
</svg>
