<svg xmlns="http://www.w3.org/2000/svg" fill="none" viewBox="0 0 480 360" height="360" width="480">
<path fill="#FF4D4D" d="M35.764 318.355V319.378H33.729V326H32.475V319.378H30.429V318.355H35.764ZM40.169 319.84C40.631 319.84 41.0417 319.939 41.401 320.137C41.7677 320.335 42.0537 320.628 42.259 321.017C42.4717 321.406 42.578 321.875 42.578 322.425V326H41.335V322.612C41.335 322.069 41.1993 321.655 40.928 321.369C40.6567 321.076 40.2863 320.929 39.817 320.929C39.3477 320.929 38.9737 321.076 38.695 321.369C38.4237 321.655 38.288 322.069 38.288 322.612V326H37.034V317.86H38.288V320.643C38.5007 320.386 38.7683 320.188 39.091 320.049C39.421 319.91 39.7803 319.84 40.169 319.84ZM44.8155 319.136C44.5882 319.136 44.3975 319.059 44.2435 318.905C44.0895 318.751 44.0125 318.56 44.0125 318.333C44.0125 318.106 44.0895 317.915 44.2435 317.761C44.3975 317.607 44.5882 317.53 44.8155 317.53C45.0355 317.53 45.2225 317.607 45.3765 317.761C45.5305 317.915 45.6075 318.106 45.6075 318.333C45.6075 318.56 45.5305 318.751 45.3765 318.905C45.2225 319.059 45.0355 319.136 44.8155 319.136ZM45.4315 319.939V326H44.1775V319.939H45.4315ZM49.2779 326.099C48.8013 326.099 48.3723 326.015 47.9909 325.846C47.6169 325.67 47.3199 325.435 47.0999 325.142C46.8799 324.841 46.7626 324.508 46.7479 324.141H48.0459C48.0679 324.398 48.1889 324.614 48.4089 324.79C48.6363 324.959 48.9186 325.043 49.2559 325.043C49.6079 325.043 49.8793 324.977 50.0699 324.845C50.2679 324.706 50.3669 324.53 50.3669 324.317C50.3669 324.09 50.2569 323.921 50.0369 323.811C49.8243 323.701 49.4833 323.58 49.0139 323.448C48.5593 323.323 48.1889 323.202 47.9029 323.085C47.6169 322.968 47.3676 322.788 47.1549 322.546C46.9496 322.304 46.8469 321.985 46.8469 321.589C46.8469 321.266 46.9423 320.973 47.1329 320.709C47.3236 320.438 47.5949 320.225 47.9469 320.071C48.3063 319.917 48.7169 319.84 49.1789 319.84C49.8683 319.84 50.4219 320.016 50.8399 320.368C51.2653 320.713 51.4926 321.186 51.5219 321.787H50.2679C50.2459 321.516 50.1359 321.299 49.9379 321.138C49.7399 320.977 49.4723 320.896 49.1349 320.896C48.8049 320.896 48.5519 320.958 48.3759 321.083C48.1999 321.208 48.1119 321.373 48.1119 321.578C48.1119 321.739 48.1706 321.875 48.2879 321.985C48.4053 322.095 48.5483 322.183 48.7169 322.249C48.8856 322.308 49.1349 322.385 49.4649 322.48C49.9049 322.597 50.2643 322.718 50.5429 322.843C50.8289 322.96 51.0746 323.136 51.2799 323.371C51.4853 323.606 51.5916 323.917 51.5989 324.306C51.5989 324.651 51.5036 324.959 51.3129 325.23C51.1223 325.501 50.8509 325.714 50.4989 325.868C50.1543 326.022 49.7473 326.099 49.2779 326.099ZM57.0653 320.83C57.278 320.551 57.5677 320.317 57.9343 320.126C58.301 319.935 58.7153 319.84 59.1773 319.84C59.7053 319.84 60.1857 319.972 60.6183 320.236C61.0583 320.493 61.403 320.856 61.6523 321.325C61.9017 321.794 62.0263 322.333 62.0263 322.942C62.0263 323.551 61.9017 324.097 61.6523 324.581C61.403 325.058 61.0583 325.432 60.6183 325.703C60.1857 325.967 59.7053 326.099 59.1773 326.099C58.7153 326.099 58.3047 326.007 57.9453 325.824C57.586 325.633 57.2927 325.399 57.0653 325.12V328.882H55.8113V319.939H57.0653V320.83ZM60.7503 322.942C60.7503 322.524 60.6623 322.165 60.4863 321.864C60.3177 321.556 60.0903 321.325 59.8043 321.171C59.5257 321.01 59.225 320.929 58.9023 320.929C58.587 320.929 58.2863 321.01 58.0003 321.171C57.7217 321.332 57.4943 321.567 57.3183 321.875C57.1497 322.183 57.0653 322.546 57.0653 322.964C57.0653 323.382 57.1497 323.749 57.3183 324.064C57.4943 324.372 57.7217 324.607 58.0003 324.768C58.2863 324.929 58.587 325.01 58.9023 325.01C59.225 325.01 59.5257 324.929 59.8043 324.768C60.0903 324.599 60.3177 324.357 60.4863 324.042C60.6623 323.727 60.7503 323.36 60.7503 322.942ZM64.5204 320.819C64.7037 320.511 64.9457 320.273 65.2464 320.104C65.5544 319.928 65.9174 319.84 66.3354 319.84V321.138H66.0164C65.5251 321.138 65.1511 321.263 64.8944 321.512C64.6451 321.761 64.5204 322.194 64.5204 322.81V326H63.2664V319.939H64.5204V320.819ZM70.1171 326.099C69.5451 326.099 69.0281 325.971 68.5661 325.714C68.1041 325.45 67.7411 325.083 67.4771 324.614C67.2131 324.137 67.0811 323.587 67.0811 322.964C67.0811 322.348 67.2168 321.802 67.4881 321.325C67.7594 320.848 68.1298 320.482 68.5991 320.225C69.0684 319.968 69.5928 319.84 70.1721 319.84C70.7514 319.84 71.2758 319.968 71.7451 320.225C72.2144 320.482 72.5848 320.848 72.8561 321.325C73.1274 321.802 73.2631 322.348 73.2631 322.964C73.2631 323.58 73.1238 324.126 72.8451 324.603C72.5664 325.08 72.1851 325.45 71.7011 325.714C71.2244 325.971 70.6964 326.099 70.1171 326.099ZM70.1171 325.01C70.4398 325.01 70.7404 324.933 71.0191 324.779C71.3051 324.625 71.5361 324.394 71.7121 324.086C71.8881 323.778 71.9761 323.404 71.9761 322.964C71.9761 322.524 71.8918 322.154 71.7231 321.853C71.5544 321.545 71.3308 321.314 71.0521 321.16C70.7734 321.006 70.4728 320.929 70.1501 320.929C69.8274 320.929 69.5268 321.006 69.2481 321.16C68.9768 321.314 68.7604 321.545 68.5991 321.853C68.4378 322.154 68.3571 322.524 68.3571 322.964C68.3571 323.617 68.5221 324.123 68.8521 324.482C69.1894 324.834 69.6111 325.01 70.1171 325.01ZM75.1407 319.136C74.9134 319.136 74.7227 319.059 74.5687 318.905C74.4147 318.751 74.3377 318.56 74.3377 318.333C74.3377 318.106 74.4147 317.915 74.5687 317.761C74.7227 317.607 74.9134 317.53 75.1407 317.53C75.3607 317.53 75.5477 317.607 75.7017 317.761C75.8557 317.915 75.9327 318.106 75.9327 318.333C75.9327 318.56 75.8557 318.751 75.7017 318.905C75.5477 319.059 75.3607 319.136 75.1407 319.136ZM75.7567 327.188C75.7567 327.782 75.6064 328.211 75.3057 328.475C75.0124 328.746 74.5834 328.882 74.0187 328.882H73.3697V327.826H73.7987C74.0554 327.826 74.2351 327.775 74.3377 327.672C74.4477 327.577 74.5027 327.415 74.5027 327.188V319.939H75.7567V327.188ZM82.9581 322.821C82.9581 323.048 82.9435 323.254 82.9141 323.437H78.2831C78.3198 323.921 78.4995 324.31 78.8221 324.603C79.1448 324.896 79.5408 325.043 80.0101 325.043C80.6848 325.043 81.1615 324.761 81.4401 324.196H82.7931C82.6098 324.753 82.2761 325.212 81.7921 325.571C81.3155 325.923 80.7215 326.099 80.0101 326.099C79.4308 326.099 78.9101 325.971 78.4481 325.714C77.9935 325.45 77.6341 325.083 77.3701 324.614C77.1135 324.137 76.9851 323.587 76.9851 322.964C76.9851 322.341 77.1098 321.794 77.3591 321.325C77.6158 320.848 77.9715 320.482 78.4261 320.225C78.8881 319.968 79.4161 319.84 80.0101 319.84C80.5821 319.84 81.0918 319.965 81.5391 320.214C81.9865 320.463 82.3348 320.815 82.5841 321.27C82.8335 321.717 82.9581 322.234 82.9581 322.821ZM81.6491 322.425C81.6418 321.963 81.4768 321.593 81.1541 321.314C80.8315 321.035 80.4318 320.896 79.9551 320.896C79.5225 320.896 79.1521 321.035 78.8441 321.314C78.5361 321.585 78.3528 321.956 78.2941 322.425H81.6491ZM83.7742 322.964C83.7742 322.341 83.8989 321.794 84.1482 321.325C84.4049 320.848 84.7569 320.482 85.2042 320.225C85.6515 319.968 86.1649 319.84 86.7442 319.84C87.4775 319.84 88.0825 320.016 88.5592 320.368C89.0432 320.713 89.3695 321.208 89.5382 321.853H88.1852C88.0752 321.552 87.8992 321.318 87.6572 321.149C87.4152 320.98 87.1109 320.896 86.7442 320.896C86.2309 320.896 85.8202 321.079 85.5122 321.446C85.2115 321.805 85.0612 322.311 85.0612 322.964C85.0612 323.617 85.2115 324.126 85.5122 324.493C85.8202 324.86 86.2309 325.043 86.7442 325.043C87.4702 325.043 87.9505 324.724 88.1852 324.086H89.5382C89.3622 324.702 89.0322 325.193 88.5482 325.56C88.0642 325.919 87.4629 326.099 86.7442 326.099C86.1649 326.099 85.6515 325.971 85.2042 325.714C84.7569 325.45 84.4049 325.083 84.1482 324.614C83.8989 324.137 83.7742 323.587 83.7742 322.964ZM92.2509 320.962V324.317C92.2509 324.544 92.3022 324.709 92.4049 324.812C92.5149 324.907 92.6982 324.955 92.9549 324.955H93.7249V326H92.7349C92.1702 326 91.7376 325.868 91.4369 325.604C91.1362 325.34 90.9859 324.911 90.9859 324.317V320.962H90.2709V319.939H90.9859V318.432H92.2509V319.939H93.7249V320.962H92.2509ZM98.3761 319.136C98.1488 319.136 97.9581 319.059 97.8041 318.905C97.6501 318.751 97.5731 318.56 97.5731 318.333C97.5731 318.106 97.6501 317.915 97.8041 317.761C97.9581 317.607 98.1488 317.53 98.3761 317.53C98.5961 317.53 98.7831 317.607 98.9371 317.761C99.0911 317.915 99.1681 318.106 99.1681 318.333C99.1681 318.56 99.0911 318.751 98.9371 318.905C98.7831 319.059 98.5961 319.136 98.3761 319.136ZM98.9921 319.939V326H97.7381V319.939H98.9921ZM102.838 326.099C102.362 326.099 101.933 326.015 101.551 325.846C101.177 325.67 100.88 325.435 100.66 325.142C100.44 324.841 100.323 324.508 100.308 324.141H101.606C101.628 324.398 101.749 324.614 101.969 324.79C102.197 324.959 102.479 325.043 102.816 325.043C103.168 325.043 103.44 324.977 103.63 324.845C103.828 324.706 103.927 324.53 103.927 324.317C103.927 324.09 103.817 323.921 103.597 323.811C103.385 323.701 103.044 323.58 102.574 323.448C102.12 323.323 101.749 323.202 101.463 323.085C101.177 322.968 100.928 322.788 100.715 322.546C100.51 322.304 100.407 321.985 100.407 321.589C100.407 321.266 100.503 320.973 100.693 320.709C100.884 320.438 101.155 320.225 101.507 320.071C101.867 319.917 102.277 319.84 102.739 319.84C103.429 319.84 103.982 320.016 104.4 320.368C104.826 320.713 105.053 321.186 105.082 321.787H103.828C103.806 321.516 103.696 321.299 103.498 321.138C103.3 320.977 103.033 320.896 102.695 320.896C102.365 320.896 102.112 320.958 101.936 321.083C101.76 321.208 101.672 321.373 101.672 321.578C101.672 321.739 101.731 321.875 101.848 321.985C101.966 322.095 102.109 322.183 102.277 322.249C102.446 322.308 102.695 322.385 103.025 322.48C103.465 322.597 103.825 322.718 104.103 322.843C104.389 322.96 104.635 323.136 104.84 323.371C105.046 323.606 105.152 323.917 105.159 324.306C105.159 324.651 105.064 324.959 104.873 325.23C104.683 325.501 104.411 325.714 104.059 325.868C103.715 326.022 103.308 326.099 102.838 326.099ZM112.001 326.099C111.429 326.099 110.912 325.971 110.45 325.714C109.988 325.45 109.625 325.083 109.361 324.614C109.097 324.137 108.965 323.587 108.965 322.964C108.965 322.348 109.101 321.802 109.372 321.325C109.643 320.848 110.014 320.482 110.483 320.225C110.952 319.968 111.477 319.84 112.056 319.84C112.635 319.84 113.16 319.968 113.629 320.225C114.098 320.482 114.469 320.848 114.74 321.325C115.011 321.802 115.147 322.348 115.147 322.964C115.147 323.58 115.008 324.126 114.729 324.603C114.45 325.08 114.069 325.45 113.585 325.714C113.108 325.971 112.58 326.099 112.001 326.099ZM112.001 325.01C112.324 325.01 112.624 324.933 112.903 324.779C113.189 324.625 113.42 324.394 113.596 324.086C113.772 323.778 113.86 323.404 113.86 322.964C113.86 322.524 113.776 322.154 113.607 321.853C113.438 321.545 113.215 321.314 112.936 321.16C112.657 321.006 112.357 320.929 112.034 320.929C111.711 320.929 111.411 321.006 111.132 321.16C110.861 321.314 110.644 321.545 110.483 321.853C110.322 322.154 110.241 322.524 110.241 322.964C110.241 323.617 110.406 324.123 110.736 324.482C111.073 324.834 111.495 325.01 112.001 325.01ZM118.928 320.962H117.806V326H116.541V320.962H115.826V319.939H116.541V319.51C116.541 318.813 116.724 318.307 117.091 317.992C117.465 317.669 118.048 317.508 118.84 317.508V318.553C118.458 318.553 118.191 318.626 118.037 318.773C117.883 318.912 117.806 319.158 117.806 319.51V319.939H118.928V320.962ZM122.478 322.964C122.478 322.341 122.603 321.794 122.852 321.325C123.109 320.848 123.461 320.482 123.908 320.225C124.356 319.968 124.869 319.84 125.448 319.84C126.182 319.84 126.787 320.016 127.263 320.368C127.747 320.713 128.074 321.208 128.242 321.853H126.889C126.779 321.552 126.603 321.318 126.361 321.149C126.119 320.98 125.815 320.896 125.448 320.896C124.935 320.896 124.524 321.079 124.216 321.446C123.916 321.805 123.765 322.311 123.765 322.964C123.765 323.617 123.916 324.126 124.216 324.493C124.524 324.86 124.935 325.043 125.448 325.043C126.174 325.043 126.655 324.724 126.889 324.086H128.242C128.066 324.702 127.736 325.193 127.252 325.56C126.768 325.919 126.167 326.099 125.448 326.099C124.869 326.099 124.356 325.971 123.908 325.714C123.461 325.45 123.109 325.083 122.852 324.614C122.603 324.137 122.478 323.587 122.478 322.964ZM132.121 326.099C131.549 326.099 131.032 325.971 130.57 325.714C130.108 325.45 129.745 325.083 129.481 324.614C129.217 324.137 129.085 323.587 129.085 322.964C129.085 322.348 129.221 321.802 129.492 321.325C129.763 320.848 130.134 320.482 130.603 320.225C131.072 319.968 131.597 319.84 132.176 319.84C132.755 319.84 133.28 319.968 133.749 320.225C134.218 320.482 134.589 320.848 134.86 321.325C135.131 321.802 135.267 322.348 135.267 322.964C135.267 323.58 135.128 324.126 134.849 324.603C134.57 325.08 134.189 325.45 133.705 325.714C133.228 325.971 132.7 326.099 132.121 326.099ZM132.121 325.01C132.444 325.01 132.744 324.933 133.023 324.779C133.309 324.625 133.54 324.394 133.716 324.086C133.892 323.778 133.98 323.404 133.98 322.964C133.98 322.524 133.896 322.154 133.727 321.853C133.558 321.545 133.335 321.314 133.056 321.16C132.777 321.006 132.477 320.929 132.154 320.929C131.831 320.929 131.531 321.006 131.252 321.16C130.981 321.314 130.764 321.545 130.603 321.853C130.442 322.154 130.361 322.524 130.361 322.964C130.361 323.617 130.526 324.123 130.856 324.482C131.193 324.834 131.615 325.01 132.121 325.01ZM141.996 319.939V326H140.742V325.285C140.544 325.534 140.283 325.732 139.961 325.879C139.645 326.018 139.308 326.088 138.949 326.088C138.472 326.088 138.043 325.989 137.662 325.791C137.288 325.593 136.991 325.3 136.771 324.911C136.558 324.522 136.452 324.053 136.452 323.503V319.939H137.695V323.316C137.695 323.859 137.83 324.277 138.102 324.57C138.373 324.856 138.743 324.999 139.213 324.999C139.682 324.999 140.052 324.856 140.324 324.57C140.602 324.277 140.742 323.859 140.742 323.316V319.939H141.996ZM144.904 320.819C145.088 320.511 145.33 320.273 145.63 320.104C145.938 319.928 146.301 319.84 146.719 319.84V321.138H146.4C145.909 321.138 145.535 321.263 145.278 321.512C145.029 321.761 144.904 322.194 144.904 322.81V326H143.65V319.939H144.904V320.819ZM150.072 326.099C149.595 326.099 149.166 326.015 148.785 325.846C148.411 325.67 148.114 325.435 147.894 325.142C147.674 324.841 147.557 324.508 147.542 324.141H148.84C148.862 324.398 148.983 324.614 149.203 324.79C149.43 324.959 149.713 325.043 150.05 325.043C150.402 325.043 150.673 324.977 150.864 324.845C151.062 324.706 151.161 324.53 151.161 324.317C151.161 324.09 151.051 323.921 150.831 323.811C150.618 323.701 150.277 323.58 149.808 323.448C149.353 323.323 148.983 323.202 148.697 323.085C148.411 322.968 148.162 322.788 147.949 322.546C147.744 322.304 147.641 321.985 147.641 321.589C147.641 321.266 147.736 320.973 147.927 320.709C148.118 320.438 148.389 320.225 148.741 320.071C149.1 319.917 149.511 319.84 149.973 319.84C150.662 319.84 151.216 320.016 151.634 320.368C152.059 320.713 152.287 321.186 152.316 321.787H151.062C151.04 321.516 150.93 321.299 150.732 321.138C150.534 320.977 150.266 320.896 149.929 320.896C149.599 320.896 149.346 320.958 149.17 321.083C148.994 321.208 148.906 321.373 148.906 321.578C148.906 321.739 148.965 321.875 149.082 321.985C149.199 322.095 149.342 322.183 149.511 322.249C149.68 322.308 149.929 322.385 150.259 322.48C150.699 322.597 151.058 322.718 151.337 322.843C151.623 322.96 151.869 323.136 152.074 323.371C152.279 323.606 152.386 323.917 152.393 324.306C152.393 324.651 152.298 324.959 152.107 325.23C151.916 325.501 151.645 325.714 151.293 325.868C150.948 326.022 150.541 326.099 150.072 326.099ZM159.303 322.821C159.303 323.048 159.288 323.254 159.259 323.437H154.628C154.665 323.921 154.844 324.31 155.167 324.603C155.49 324.896 155.886 325.043 156.355 325.043C157.03 325.043 157.506 324.761 157.785 324.196H159.138C158.955 324.753 158.621 325.212 158.137 325.571C157.66 325.923 157.066 326.099 156.355 326.099C155.776 326.099 155.255 325.971 154.793 325.714C154.338 325.45 153.979 325.083 153.715 324.614C153.458 324.137 153.33 323.587 153.33 322.964C153.33 322.341 153.455 321.794 153.704 321.325C153.961 320.848 154.316 320.482 154.771 320.225C155.233 319.968 155.761 319.84 156.355 319.84C156.927 319.84 157.437 319.965 157.884 320.214C158.331 320.463 158.68 320.815 158.929 321.27C159.178 321.717 159.303 322.234 159.303 322.821ZM157.994 322.425C157.987 321.963 157.822 321.593 157.499 321.314C157.176 321.035 156.777 320.896 156.3 320.896C155.867 320.896 155.497 321.035 155.189 321.314C154.881 321.585 154.698 321.956 154.639 322.425H157.994ZM166.452 319.84C166.929 319.84 167.354 319.939 167.728 320.137C168.11 320.335 168.407 320.628 168.619 321.017C168.832 321.406 168.938 321.875 168.938 322.425V326H167.695V322.612C167.695 322.069 167.56 321.655 167.288 321.369C167.017 321.076 166.647 320.929 166.177 320.929C165.708 320.929 165.334 321.076 165.055 321.369C164.784 321.655 164.648 322.069 164.648 322.612V326H163.394V319.939H164.648V320.632C164.854 320.383 165.114 320.188 165.429 320.049C165.752 319.91 166.093 319.84 166.452 319.84ZM173.167 326.099C172.595 326.099 172.078 325.971 171.616 325.714C171.154 325.45 170.791 325.083 170.527 324.614C170.263 324.137 170.131 323.587 170.131 322.964C170.131 322.348 170.267 321.802 170.538 321.325C170.809 320.848 171.18 320.482 171.649 320.225C172.118 319.968 172.643 319.84 173.222 319.84C173.801 319.84 174.326 319.968 174.795 320.225C175.264 320.482 175.635 320.848 175.906 321.325C176.177 321.802 176.313 322.348 176.313 322.964C176.313 323.58 176.174 324.126 175.895 324.603C175.616 325.08 175.235 325.45 174.751 325.714C174.274 325.971 173.746 326.099 173.167 326.099ZM173.167 325.01C173.49 325.01 173.79 324.933 174.069 324.779C174.355 324.625 174.586 324.394 174.762 324.086C174.938 323.778 175.026 323.404 175.026 322.964C175.026 322.524 174.942 322.154 174.773 321.853C174.604 321.545 174.381 321.314 174.102 321.16C173.823 321.006 173.523 320.929 173.2 320.929C172.877 320.929 172.577 321.006 172.298 321.16C172.027 321.314 171.81 321.545 171.649 321.853C171.488 322.154 171.407 322.524 171.407 322.964C171.407 323.617 171.572 324.123 171.902 324.482C172.239 324.834 172.661 325.01 173.167 325.01ZM179.016 320.962V324.317C179.016 324.544 179.067 324.709 179.17 324.812C179.28 324.907 179.463 324.955 179.72 324.955H180.49V326H179.5C178.935 326 178.502 325.868 178.202 325.604C177.901 325.34 177.751 324.911 177.751 324.317V320.962H177.036V319.939H177.751V318.432H179.016V319.939H180.49V320.962H179.016ZM184.085 322.942C184.085 322.333 184.209 321.794 184.459 321.325C184.715 320.856 185.06 320.493 185.493 320.236C185.933 319.972 186.417 319.84 186.945 319.84C187.421 319.84 187.836 319.935 188.188 320.126C188.547 320.309 188.833 320.54 189.046 320.819V319.939H190.311V326H189.046V325.098C188.833 325.384 188.543 325.622 188.177 325.813C187.81 326.004 187.392 326.099 186.923 326.099C186.402 326.099 185.925 325.967 185.493 325.703C185.06 325.432 184.715 325.058 184.459 324.581C184.209 324.097 184.085 323.551 184.085 322.942ZM189.046 322.964C189.046 322.546 188.958 322.183 188.782 321.875C188.613 321.567 188.389 321.332 188.111 321.171C187.832 321.01 187.531 320.929 187.209 320.929C186.886 320.929 186.585 321.01 186.307 321.171C186.028 321.325 185.801 321.556 185.625 321.864C185.456 322.165 185.372 322.524 185.372 322.942C185.372 323.36 185.456 323.727 185.625 324.042C185.801 324.357 186.028 324.599 186.307 324.768C186.593 324.929 186.893 325.01 187.209 325.01C187.531 325.01 187.832 324.929 188.111 324.768C188.389 324.607 188.613 324.372 188.782 324.064C188.958 323.749 189.046 323.382 189.046 322.964ZM194.499 320.962H193.377V326H192.112V320.962H191.397V319.939H192.112V319.51C192.112 318.813 192.295 318.307 192.662 317.992C193.036 317.669 193.619 317.508 194.411 317.508V318.553C194.029 318.553 193.762 318.626 193.608 318.773C193.454 318.912 193.377 319.158 193.377 319.51V319.939H194.499V320.962ZM198.151 320.962H197.029V326H195.764V320.962H195.049V319.939H195.764V319.51C195.764 318.813 195.947 318.307 196.314 317.992C196.688 317.669 197.271 317.508 198.063 317.508V318.553C197.682 318.553 197.414 318.626 197.26 318.773C197.106 318.912 197.029 319.158 197.029 319.51V319.939H198.151V320.962ZM199.901 319.136C199.673 319.136 199.483 319.059 199.329 318.905C199.175 318.751 199.098 318.56 199.098 318.333C199.098 318.106 199.175 317.915 199.329 317.761C199.483 317.607 199.673 317.53 199.901 317.53C200.121 317.53 200.308 317.607 200.462 317.761C200.616 317.915 200.693 318.106 200.693 318.333C200.693 318.56 200.616 318.751 200.462 318.905C200.308 319.059 200.121 319.136 199.901 319.136ZM200.517 319.939V326H199.263V319.939H200.517ZM203.417 317.86V326H202.163V317.86H203.417ZM205.701 319.136C205.474 319.136 205.283 319.059 205.129 318.905C204.975 318.751 204.898 318.56 204.898 318.333C204.898 318.106 204.975 317.915 205.129 317.761C205.283 317.607 205.474 317.53 205.701 317.53C205.921 317.53 206.108 317.607 206.262 317.761C206.416 317.915 206.493 318.106 206.493 318.333C206.493 318.56 206.416 318.751 206.262 318.905C206.108 319.059 205.921 319.136 205.701 319.136ZM206.317 319.939V326H205.063V319.939H206.317ZM207.546 322.942C207.546 322.333 207.67 321.794 207.92 321.325C208.176 320.856 208.521 320.493 208.954 320.236C209.394 319.972 209.878 319.84 210.406 319.84C210.882 319.84 211.297 319.935 211.649 320.126C212.008 320.309 212.294 320.54 212.507 320.819V319.939H213.772V326H212.507V325.098C212.294 325.384 212.004 325.622 211.638 325.813C211.271 326.004 210.853 326.099 210.384 326.099C209.863 326.099 209.386 325.967 208.954 325.703C208.521 325.432 208.176 325.058 207.92 324.581C207.67 324.097 207.546 323.551 207.546 322.942ZM212.507 322.964C212.507 322.546 212.419 322.183 212.243 321.875C212.074 321.567 211.85 321.332 211.572 321.171C211.293 321.01 210.992 320.929 210.67 320.929C210.347 320.929 210.046 321.01 209.768 321.171C209.489 321.325 209.262 321.556 209.086 321.864C208.917 322.165 208.833 322.524 208.833 322.942C208.833 323.36 208.917 323.727 209.086 324.042C209.262 324.357 209.489 324.599 209.768 324.768C210.054 324.929 210.354 325.01 210.67 325.01C210.992 325.01 211.293 324.929 211.572 324.768C211.85 324.607 212.074 324.372 212.243 324.064C212.419 323.749 212.507 323.382 212.507 322.964ZM216.882 320.962V324.317C216.882 324.544 216.933 324.709 217.036 324.812C217.146 324.907 217.329 324.955 217.586 324.955H218.356V326H217.366C216.801 326 216.368 325.868 216.068 325.604C215.767 325.34 215.617 324.911 215.617 324.317V320.962H214.902V319.939H215.617V318.432H216.882V319.939H218.356V320.962H216.882ZM225.067 322.821C225.067 323.048 225.052 323.254 225.023 323.437H220.392C220.428 323.921 220.608 324.31 220.931 324.603C221.253 324.896 221.649 325.043 222.119 325.043C222.793 325.043 223.27 324.761 223.549 324.196H224.902C224.718 324.753 224.385 325.212 223.901 325.571C223.424 325.923 222.83 326.099 222.119 326.099C221.539 326.099 221.019 325.971 220.557 325.714C220.102 325.45 219.743 325.083 219.479 324.614C219.222 324.137 219.094 323.587 219.094 322.964C219.094 322.341 219.218 321.794 219.468 321.325C219.724 320.848 220.08 320.482 220.535 320.225C220.997 319.968 221.525 319.84 222.119 319.84C222.691 319.84 223.2 319.965 223.648 320.214C224.095 320.463 224.443 320.815 224.693 321.27C224.942 321.717 225.067 322.234 225.067 322.821ZM223.758 322.425C223.75 321.963 223.585 321.593 223.263 321.314C222.94 321.035 222.54 320.896 222.064 320.896C221.631 320.896 221.261 321.035 220.953 321.314C220.645 321.585 220.461 321.956 220.403 322.425H223.758ZM225.883 322.942C225.883 322.333 226.007 321.794 226.257 321.325C226.513 320.856 226.858 320.493 227.291 320.236C227.731 319.972 228.218 319.84 228.754 319.84C229.15 319.84 229.538 319.928 229.92 320.104C230.308 320.273 230.616 320.5 230.844 320.786V317.86H232.109V326H230.844V325.087C230.638 325.38 230.352 325.622 229.986 325.813C229.626 326.004 229.212 326.099 228.743 326.099C228.215 326.099 227.731 325.967 227.291 325.703C226.858 325.432 226.513 325.058 226.257 324.581C226.007 324.097 225.883 323.551 225.883 322.942ZM230.844 322.964C230.844 322.546 230.756 322.183 230.58 321.875C230.411 321.567 230.187 321.332 229.909 321.171C229.63 321.01 229.329 320.929 229.007 320.929C228.684 320.929 228.383 321.01 228.105 321.171C227.826 321.325 227.599 321.556 227.423 321.864C227.254 322.165 227.17 322.524 227.17 322.942C227.17 323.36 227.254 323.727 227.423 324.042C227.599 324.357 227.826 324.599 228.105 324.768C228.391 324.929 228.691 325.01 229.007 325.01C229.329 325.01 229.63 324.929 229.909 324.768C230.187 324.607 230.411 324.372 230.58 324.064C230.756 323.749 230.844 323.382 230.844 322.964ZM244.753 319.939L242.872 326H241.552L240.331 321.523L239.11 326H237.79L235.898 319.939H237.174L238.439 324.812L239.726 319.939H241.035L242.267 324.79L243.521 319.939H244.753ZM246.328 319.136C246.101 319.136 245.91 319.059 245.756 318.905C245.602 318.751 245.525 318.56 245.525 318.333C245.525 318.106 245.602 317.915 245.756 317.761C245.91 317.607 246.101 317.53 246.328 317.53C246.548 317.53 246.735 317.607 246.889 317.761C247.043 317.915 247.12 318.106 247.12 318.333C247.12 318.56 247.043 318.751 246.889 318.905C246.735 319.059 246.548 319.136 246.328 319.136ZM246.944 319.939V326H245.69V319.939H246.944ZM250.054 320.962V324.317C250.054 324.544 250.105 324.709 250.208 324.812C250.318 324.907 250.501 324.955 250.758 324.955H251.528V326H250.538C249.973 326 249.54 325.868 249.24 325.604C248.939 325.34 248.789 324.911 248.789 324.317V320.962H248.074V319.939H248.789V318.432H250.054V319.939H251.528V320.962H250.054ZM255.818 319.84C256.28 319.84 256.691 319.939 257.05 320.137C257.417 320.335 257.703 320.628 257.908 321.017C258.121 321.406 258.227 321.875 258.227 322.425V326H256.984V322.612C256.984 322.069 256.849 321.655 256.577 321.369C256.306 321.076 255.936 320.929 255.466 320.929C254.997 320.929 254.623 321.076 254.344 321.369C254.073 321.655 253.937 322.069 253.937 322.612V326H252.683V317.86H253.937V320.643C254.15 320.386 254.418 320.188 254.74 320.049C255.07 319.91 255.43 319.84 255.818 319.84ZM270.736 318.355V326H269.482V320.764L267.15 326H266.281L263.938 320.764V326H262.684V318.355H264.037L266.721 324.35L269.394 318.355H270.736ZM273.023 319.136C272.795 319.136 272.605 319.059 272.451 318.905C272.297 318.751 272.22 318.56 272.22 318.333C272.22 318.106 272.297 317.915 272.451 317.761C272.605 317.607 272.795 317.53 273.023 317.53C273.243 317.53 273.43 317.607 273.584 317.761C273.738 317.915 273.815 318.106 273.815 318.333C273.815 318.56 273.738 318.751 273.584 318.905C273.43 319.059 273.243 319.136 273.023 319.136ZM273.639 319.939V326H272.385V319.939H273.639ZM274.867 322.964C274.867 322.341 274.992 321.794 275.241 321.325C275.498 320.848 275.85 320.482 276.297 320.225C276.744 319.968 277.258 319.84 277.837 319.84C278.57 319.84 279.175 320.016 279.652 320.368C280.136 320.713 280.462 321.208 280.631 321.853H279.278C279.168 321.552 278.992 321.318 278.75 321.149C278.508 320.98 278.204 320.896 277.837 320.896C277.324 320.896 276.913 321.079 276.605 321.446C276.304 321.805 276.154 322.311 276.154 322.964C276.154 323.617 276.304 324.126 276.605 324.493C276.913 324.86 277.324 325.043 277.837 325.043C278.563 325.043 279.043 324.724 279.278 324.086H280.631C280.455 324.702 280.125 325.193 279.641 325.56C279.157 325.919 278.556 326.099 277.837 326.099C277.258 326.099 276.744 325.971 276.297 325.714C275.85 325.45 275.498 325.083 275.241 324.614C274.992 324.137 274.867 323.587 274.867 322.964ZM283.135 320.819C283.318 320.511 283.56 320.273 283.861 320.104C284.169 319.928 284.532 319.84 284.95 319.84V321.138H284.631C284.139 321.138 283.765 321.263 283.509 321.512C283.259 321.761 283.135 322.194 283.135 322.81V326H281.881V319.939H283.135V320.819ZM288.731 326.099C288.159 326.099 287.642 325.971 287.18 325.714C286.718 325.45 286.355 325.083 286.091 324.614C285.827 324.137 285.695 323.587 285.695 322.964C285.695 322.348 285.831 321.802 286.102 321.325C286.374 320.848 286.744 320.482 287.213 320.225C287.683 319.968 288.207 319.84 288.786 319.84C289.366 319.84 289.89 319.968 290.359 320.225C290.829 320.482 291.199 320.848 291.47 321.325C291.742 321.802 291.877 322.348 291.877 322.964C291.877 323.58 291.738 324.126 291.459 324.603C291.181 325.08 290.799 325.45 290.315 325.714C289.839 325.971 289.311 326.099 288.731 326.099ZM288.731 325.01C289.054 325.01 289.355 324.933 289.633 324.779C289.919 324.625 290.15 324.394 290.326 324.086C290.502 323.778 290.59 323.404 290.59 322.964C290.59 322.524 290.506 322.154 290.337 321.853C290.169 321.545 289.945 321.314 289.666 321.16C289.388 321.006 289.087 320.929 288.764 320.929C288.442 320.929 288.141 321.006 287.862 321.16C287.591 321.314 287.375 321.545 287.213 321.853C287.052 322.154 286.971 322.524 286.971 322.964C286.971 323.617 287.136 324.123 287.466 324.482C287.804 324.834 288.225 325.01 288.731 325.01ZM295.317 326.099C294.84 326.099 294.411 326.015 294.03 325.846C293.656 325.67 293.359 325.435 293.139 325.142C292.919 324.841 292.802 324.508 292.787 324.141H294.085C294.107 324.398 294.228 324.614 294.448 324.79C294.675 324.959 294.958 325.043 295.295 325.043C295.647 325.043 295.918 324.977 296.109 324.845C296.307 324.706 296.406 324.53 296.406 324.317C296.406 324.09 296.296 323.921 296.076 323.811C295.863 323.701 295.522 323.58 295.053 323.448C294.598 323.323 294.228 323.202 293.942 323.085C293.656 322.968 293.407 322.788 293.194 322.546C292.989 322.304 292.886 321.985 292.886 321.589C292.886 321.266 292.981 320.973 293.172 320.709C293.363 320.438 293.634 320.225 293.986 320.071C294.345 319.917 294.756 319.84 295.218 319.84C295.907 319.84 296.461 320.016 296.879 320.368C297.304 320.713 297.532 321.186 297.561 321.787H296.307C296.285 321.516 296.175 321.299 295.977 321.138C295.779 320.977 295.511 320.896 295.174 320.896C294.844 320.896 294.591 320.958 294.415 321.083C294.239 321.208 294.151 321.373 294.151 321.578C294.151 321.739 294.21 321.875 294.327 321.985C294.444 322.095 294.587 322.183 294.756 322.249C294.925 322.308 295.174 322.385 295.504 322.48C295.944 322.597 296.303 322.718 296.582 322.843C296.868 322.96 297.114 323.136 297.319 323.371C297.524 323.606 297.631 323.917 297.638 324.306C297.638 324.651 297.543 324.959 297.352 325.23C297.161 325.501 296.89 325.714 296.538 325.868C296.193 326.022 295.786 326.099 295.317 326.099ZM301.622 326.099C301.05 326.099 300.533 325.971 300.071 325.714C299.609 325.45 299.246 325.083 298.982 324.614C298.718 324.137 298.586 323.587 298.586 322.964C298.586 322.348 298.722 321.802 298.993 321.325C299.264 320.848 299.635 320.482 300.104 320.225C300.573 319.968 301.098 319.84 301.677 319.84C302.256 319.84 302.781 319.968 303.25 320.225C303.719 320.482 304.09 320.848 304.361 321.325C304.632 321.802 304.768 322.348 304.768 322.964C304.768 323.58 304.629 324.126 304.35 324.603C304.071 325.08 303.69 325.45 303.206 325.714C302.729 325.971 302.201 326.099 301.622 326.099ZM301.622 325.01C301.945 325.01 302.245 324.933 302.524 324.779C302.81 324.625 303.041 324.394 303.217 324.086C303.393 323.778 303.481 323.404 303.481 322.964C303.481 322.524 303.397 322.154 303.228 321.853C303.059 321.545 302.836 321.314 302.557 321.16C302.278 321.006 301.978 320.929 301.655 320.929C301.332 320.929 301.032 321.006 300.753 321.16C300.482 321.314 300.265 321.545 300.104 321.853C299.943 322.154 299.862 322.524 299.862 322.964C299.862 323.617 300.027 324.123 300.357 324.482C300.694 324.834 301.116 325.01 301.622 325.01ZM308.549 320.962H307.427V326H306.162V320.962H305.447V319.939H306.162V319.51C306.162 318.813 306.345 318.307 306.712 317.992C307.086 317.669 307.669 317.508 308.461 317.508V318.553C308.079 318.553 307.812 318.626 307.658 318.773C307.504 318.912 307.427 319.158 307.427 319.51V319.939H308.549V320.962ZM311.123 320.962V324.317C311.123 324.544 311.174 324.709 311.277 324.812C311.387 324.907 311.57 324.955 311.827 324.955H312.597V326H311.607C311.042 326 310.61 325.868 310.309 325.604C310.008 325.34 309.858 324.911 309.858 324.317V320.962H309.143V319.939H309.858V318.432H311.123V319.939H312.597V320.962H311.123ZM314.259 326.077C314.031 326.077 313.841 326 313.687 325.846C313.533 325.692 313.456 325.501 313.456 325.274C313.456 325.047 313.533 324.856 313.687 324.702C313.841 324.548 314.031 324.471 314.259 324.471C314.479 324.471 314.666 324.548 314.82 324.702C314.974 324.856 315.051 325.047 315.051 325.274C315.051 325.501 314.974 325.692 314.82 325.846C314.666 326 314.479 326.077 314.259 326.077Z"></path>
</svg>
