<svg xmlns="http://www.w3.org/2000/svg" fill="none" viewBox="0 0 480 360" height="360" width="480">
<rect fill-opacity="0.03" fill="white" rx="5" height="40" width="40" y="240" x="420"></rect>
<path fill="white" d="M443.7 253.591C443.866 253.304 444.234 253.204 444.508 253.391C445.79 254.265 446.794 255.497 447.391 256.939C448.065 258.566 448.183 260.369 447.727 262.071C447.272 263.772 446.267 265.275 444.87 266.347C443.473 267.419 441.761 268 440 268C438.239 268 436.527 267.419 435.13 266.347C433.733 265.275 432.728 263.772 432.273 262.071C431.817 260.369 431.935 258.566 432.609 256.939C433.206 255.497 434.21 254.265 435.492 253.391C435.766 253.204 436.134 253.304 436.3 253.591V253.591C436.466 253.878 436.366 254.243 436.094 254.434C435.04 255.173 434.214 256.2 433.718 257.398C433.145 258.781 433.044 260.314 433.432 261.76C433.819 263.206 434.673 264.484 435.86 265.395C437.048 266.306 438.503 266.8 440 266.8C441.497 266.8 442.952 266.306 444.14 265.395C445.327 264.484 446.181 263.206 446.568 261.76C446.956 260.314 446.855 258.781 446.282 257.398C445.786 256.2 444.96 255.173 443.906 254.434C443.634 254.243 443.534 253.878 443.7 253.591V253.591Z"></path>
<rect fill="white" rx="0.75" height="7" width="1.5" y="252" x="439.25"></rect>
</svg>
