<svg xmlns="http://www.w3.org/2000/svg" fill="none" viewBox="0 0 30 30" height="30" width="30">
<rect fill="url(#paint0_linear_639_489)" rx="2" height="16" width="16" y="7" x="7"></rect>
<path fill="white" d="M12.8787 14.1213C14.0503 12.9497 15.9497 12.9497 17.1213 14.1213L21.4142 18.4142C21.7893 18.7893 22 19.298 22 19.8284V20C22 21.1046 21.1046 22 20 22H10C8.89543 22 8 21.1046 8 20V19.8284C8 19.298 8.21071 18.7893 8.58579 18.4142L12.8787 14.1213Z"></path>
<path stroke-opacity="0.1" stroke="black" d="M17.4749 13.7678C16.108 12.4009 13.892 12.4009 12.5251 13.7678L8.23223 18.0607C7.76339 18.5295 7.5 19.1654 7.5 19.8284V20C7.5 21.3807 8.61929 22.5 10 22.5H20C21.3807 22.5 22.5 21.3807 22.5 20V19.8284C22.5 19.1654 22.2366 18.5295 21.7678 18.0607L17.4749 13.7678Z"></path>
<path fill="url(#paint1_linear_639_489)" d="M10 23L17.2929 15.7071C17.6834 15.3166 18.3166 15.3166 18.7071 15.7071L22.4142 19.4142C22.7893 19.7893 23 20.298 23 20.8284V21C23 22.1046 22.1046 23 21 23H10Z"></path>
<path fill="url(#paint2_linear_639_489)" d="M7 20.8284C7 20.298 7.21071 19.7893 7.58579 19.4142L12.8787 14.1213C14.0503 12.9497 15.9497 12.9497 17.1213 14.1213L20 17C18.8954 15.8954 17.1046 15.8954 16 17L10.5858 22.4142C10.2107 22.7893 9.70201 23 9.17157 23H9C7.89543 23 7 22.1046 7 21V20.8284Z"></path>
<rect fill="white" rx="1.5" height="3" width="3" y="9" x="17"></rect>
<rect stroke-opacity="0.1" stroke="black" rx="2" height="4" width="4" y="8.5" x="16.5"></rect>
<defs>
<linearGradient gradientUnits="userSpaceOnUse" y2="19" x2="23" y1="8" x1="8" id="paint0_linear_639_489">
<stop stop-color="#188EDB"></stop>
<stop stop-color="#7D5AB6" offset="1"></stop>
</linearGradient>
<linearGradient gradientUnits="userSpaceOnUse" y2="23" x2="21" y1="18" x1="16" id="paint1_linear_639_489">
<stop stop-color="#037AD2"></stop>
<stop stop-color="#2C9EE2" offset="1"></stop>
</linearGradient>
<linearGradient gradientUnits="userSpaceOnUse" y2="19" x2="14" y1="15" x1="10" id="paint2_linear_639_489">
<stop stop-color="#4DDDFB"></stop>
<stop stop-color="#2AB2EB" offset="1"></stop>
</linearGradient>
</defs>
</svg>
