<svg version="1.1" xmlns="http://www.w3.org/2000/svg" xmlns:xlink="http://www.w3.org/1999/xlink" width="40" height="20" viewBox="0,0,40,20"><g transform="translate(-220,-167)"><g data-paper-data="{&quot;isPaintingLayer&quot;:true}" fill-rule="nonzero" stroke="none" stroke-width="1" stroke-linecap="butt" stroke-linejoin="miter" stroke-miterlimit="10" stroke-dasharray="" stroke-dashoffset="0" style="mix-blend-mode: normal"><path d="M220,187v-20h40v20z" fill="none"></path><path d="M243.768,180.108c-0.624,0 -1.188,-0.14 -1.692,-0.42c-0.504,-0.288 -0.9,-0.688 -1.188,-1.2c-0.288,-0.52 -0.432,-1.12 -0.432,-1.8c0,-0.672 0.148,-1.268 0.444,-1.788c0.296,-0.52 0.7,-0.92 1.212,-1.2c0.512,-0.28 1.084,-0.42 1.716,-0.42c0.632,0 1.204,0.14 1.716,0.42c0.512,0.28 0.916,0.68 1.212,1.2c0.296,0.52 0.444,1.116 0.444,1.788c0,0.672 -0.152,1.268 -0.456,1.788c-0.304,0.52 -0.72,0.924 -1.248,1.212c-0.52,0.28 -1.096,0.42 -1.728,0.42zM243.768,178.92c0.352,0 0.68,-0.084 0.984,-0.252c0.312,-0.168 0.564,-0.42 0.756,-0.756c0.192,-0.336 0.288,-0.744 0.288,-1.224c0,-0.48 -0.092,-0.884 -0.276,-1.212c-0.184,-0.336 -0.428,-0.588 -0.732,-0.756c-0.304,-0.168 -0.632,-0.252 -0.984,-0.252c-0.352,0 -0.68,0.084 -0.984,0.252c-0.296,0.168 -0.532,0.42 -0.708,0.756c-0.176,0.328 -0.264,0.732 -0.264,1.212c0,0.712 0.18,1.264 0.54,1.656c0.368,0.384 0.828,0.576 1.38,0.576z" fill="#ff0000"></path></g></g></svg>