<svg xmlns="http://www.w3.org/2000/svg" fill="none" viewBox="0 0 260 160" height="160" width="260">
<path fill-opacity="0.9" fill="#1A1A1A" d="M20 30C20 24.4772 24.4772 20 30 20H230C235.523 20 240 24.4772 240 30V125C240 130.523 235.523 135 230 135H30C24.4772 135 20 130.523 20 125V30Z"></path>
<path stroke-width="2" stroke-opacity="0.2" stroke="white" d="M230 19H30C23.9249 19 19 23.9249 19 30V125C19 131.075 23.9249 136 30 136H230C236.075 136 241 131.075 241 125V30C241 23.9249 236.075 19 230 19Z"></path>
<path fill="white" d="M73.648 49.084C73.088 49.084 72.584 48.988 72.136 48.796C71.688 48.596 71.336 48.316 71.08 47.956C70.824 47.596 70.696 47.176 70.696 46.696H72.16C72.192 47.056 72.332 47.352 72.58 47.584C72.836 47.816 73.192 47.932 73.648 47.932C74.12 47.932 74.488 47.82 74.752 47.596C75.016 47.364 75.148 47.068 75.148 46.708C75.148 46.428 75.064 46.2 74.896 46.024C74.736 45.848 74.532 45.712 74.284 45.616C74.044 45.52 73.708 45.416 73.276 45.304C72.732 45.16 72.288 45.016 71.944 44.872C71.608 44.72 71.32 44.488 71.08 44.176C70.84 43.864 70.72 43.448 70.72 42.928C70.72 42.448 70.84 42.028 71.08 41.668C71.32 41.308 71.656 41.032 72.088 40.84C72.52 40.648 73.02 40.552 73.588 40.552C74.396 40.552 75.056 40.756 75.568 41.164C76.088 41.564 76.376 42.116 76.432 42.82H74.92C74.896 42.516 74.752 42.256 74.488 42.04C74.224 41.824 73.876 41.716 73.444 41.716C73.052 41.716 72.732 41.816 72.484 42.016C72.236 42.216 72.112 42.504 72.112 42.88C72.112 43.136 72.188 43.348 72.34 43.516C72.5 43.676 72.7 43.804 72.94 43.9C73.18 43.996 73.508 44.1 73.924 44.212C74.476 44.364 74.924 44.516 75.268 44.668C75.62 44.82 75.916 45.056 76.156 45.376C76.404 45.688 76.528 46.108 76.528 46.636C76.528 47.06 76.412 47.46 76.18 47.836C75.956 48.212 75.624 48.516 75.184 48.748C74.752 48.972 74.24 49.084 73.648 49.084ZM84.0942 42.388L80.0382 52.108H78.6222L79.9662 48.892L77.3622 42.388H78.8862L80.7462 47.428L82.6782 42.388H84.0942ZM87.5266 49.108C87.0066 49.108 86.5386 49.016 86.1226 48.832C85.7146 48.64 85.3906 48.384 85.1506 48.064C84.9106 47.736 84.7826 47.372 84.7666 46.972H86.1826C86.2066 47.252 86.3386 47.488 86.5786 47.68C86.8266 47.864 87.1346 47.956 87.5026 47.956C87.8866 47.956 88.1826 47.884 88.3906 47.74C88.6066 47.588 88.7146 47.396 88.7146 47.164C88.7146 46.916 88.5946 46.732 88.3546 46.612C88.1226 46.492 87.7506 46.36 87.2386 46.216C86.7426 46.08 86.3386 45.948 86.0266 45.82C85.7146 45.692 85.4426 45.496 85.2106 45.232C84.9866 44.968 84.8746 44.62 84.8746 44.188C84.8746 43.836 84.9786 43.516 85.1866 43.228C85.3946 42.932 85.6906 42.7 86.0746 42.532C86.4666 42.364 86.9146 42.28 87.4186 42.28C88.1706 42.28 88.7746 42.472 89.2306 42.856C89.6946 43.232 89.9426 43.748 89.9746 44.404H88.6066C88.5826 44.108 88.4626 43.872 88.2466 43.696C88.0306 43.52 87.7386 43.432 87.3706 43.432C87.0106 43.432 86.7346 43.5 86.5426 43.636C86.3506 43.772 86.2546 43.952 86.2546 44.176C86.2546 44.352 86.3186 44.5 86.4466 44.62C86.5746 44.74 86.7306 44.836 86.9146 44.908C87.0986 44.972 87.3706 45.056 87.7306 45.16C88.2106 45.288 88.6026 45.42 88.9066 45.556C89.2186 45.684 89.4866 45.876 89.7106 46.132C89.9346 46.388 90.0506 46.728 90.0586 47.152C90.0586 47.528 89.9546 47.864 89.7466 48.16C89.5386 48.456 89.2426 48.688 88.8586 48.856C88.4826 49.024 88.0386 49.108 87.5266 49.108ZM93.1327 43.504V47.164C93.1327 47.412 93.1887 47.592 93.3007 47.704C93.4207 47.808 93.6207 47.86 93.9007 47.86H94.7407V49H93.6607C93.0447 49 92.5727 48.856 92.2447 48.568C91.9167 48.28 91.7527 47.812 91.7527 47.164V43.504H90.9727V42.388H91.7527V40.744H93.1327V42.388H94.7407V43.504H93.1327ZM102.062 45.532C102.062 45.78 102.046 46.004 102.014 46.204H96.9616C97.0016 46.732 97.1976 47.156 97.5496 47.476C97.9016 47.796 98.3336 47.956 98.8456 47.956C99.5816 47.956 100.102 47.648 100.406 47.032H101.882C101.682 47.64 101.318 48.14 100.79 48.532C100.27 48.916 99.6216 49.108 98.8456 49.108C98.2136 49.108 97.6456 48.968 97.1416 48.688C96.6456 48.4 96.2536 48 95.9656 47.488C95.6856 46.968 95.5456 46.368 95.5456 45.688C95.5456 45.008 95.6816 44.412 95.9536 43.9C96.2336 43.38 96.6216 42.98 97.1176 42.7C97.6216 42.42 98.1976 42.28 98.8456 42.28C99.4696 42.28 100.026 42.416 100.514 42.688C101.002 42.96 101.382 43.344 101.654 43.84C101.926 44.328 102.062 44.892 102.062 45.532ZM100.634 45.1C100.626 44.596 100.446 44.192 100.094 43.888C99.7416 43.584 99.3056 43.432 98.7856 43.432C98.3136 43.432 97.9096 43.584 97.5736 43.888C97.2376 44.184 97.0376 44.588 96.9736 45.1H100.634ZM111.412 42.28C111.932 42.28 112.396 42.388 112.804 42.604C113.22 42.82 113.544 43.14 113.776 43.564C114.016 43.988 114.136 44.5 114.136 45.1V49H112.78V45.304C112.78 44.712 112.632 44.26 112.336 43.948C112.04 43.628 111.636 43.468 111.124 43.468C110.612 43.468 110.204 43.628 109.9 43.948C109.604 44.26 109.456 44.712 109.456 45.304V49H108.1V45.304C108.1 44.712 107.952 44.26 107.656 43.948C107.36 43.628 106.956 43.468 106.444 43.468C105.932 43.468 105.524 43.628 105.22 43.948C104.924 44.26 104.776 44.712 104.776 45.304V49H103.408V42.388H104.776V43.144C105 42.872 105.284 42.66 105.628 42.508C105.972 42.356 106.34 42.28 106.732 42.28C107.26 42.28 107.732 42.392 108.148 42.616C108.564 42.84 108.884 43.164 109.108 43.588C109.308 43.188 109.62 42.872 110.044 42.64C110.468 42.4 110.924 42.28 111.412 42.28ZM127.778 40.66V49H126.41V43.288L123.866 49H122.918L120.362 43.288V49H118.994V40.66H120.47L123.398 47.2L126.314 40.66H127.778ZM132.444 49.108C131.82 49.108 131.256 48.968 130.752 48.688C130.248 48.4 129.852 48 129.564 47.488C129.276 46.968 129.132 46.368 129.132 45.688C129.132 45.016 129.28 44.42 129.576 43.9C129.872 43.38 130.276 42.98 130.788 42.7C131.3 42.42 131.872 42.28 132.504 42.28C133.136 42.28 133.708 42.42 134.22 42.7C134.732 42.98 135.136 43.38 135.432 43.9C135.728 44.42 135.876 45.016 135.876 45.688C135.876 46.36 135.724 46.956 135.42 47.476C135.116 47.996 134.7 48.4 134.172 48.688C133.652 48.968 133.076 49.108 132.444 49.108ZM132.444 47.92C132.796 47.92 133.124 47.836 133.428 47.668C133.74 47.5 133.992 47.248 134.184 46.912C134.376 46.576 134.472 46.168 134.472 45.688C134.472 45.208 134.38 44.804 134.196 44.476C134.012 44.14 133.768 43.888 133.464 43.72C133.16 43.552 132.832 43.468 132.48 43.468C132.128 43.468 131.8 43.552 131.496 43.72C131.2 43.888 130.964 44.14 130.788 44.476C130.612 44.804 130.524 45.208 130.524 45.688C130.524 46.4 130.704 46.952 131.064 47.344C131.432 47.728 131.892 47.92 132.444 47.92ZM140.564 42.28C141.084 42.28 141.548 42.388 141.956 42.604C142.372 42.82 142.696 43.14 142.928 43.564C143.16 43.988 143.276 44.5 143.276 45.1V49H141.92V45.304C141.92 44.712 141.772 44.26 141.476 43.948C141.18 43.628 140.776 43.468 140.264 43.468C139.752 43.468 139.344 43.628 139.04 43.948C138.744 44.26 138.596 44.712 138.596 45.304V49H137.228V42.388H138.596V43.144C138.82 42.872 139.104 42.66 139.448 42.508C139.8 42.356 140.172 42.28 140.564 42.28ZM145.717 41.512C145.469 41.512 145.261 41.428 145.093 41.26C144.925 41.092 144.841 40.884 144.841 40.636C144.841 40.388 144.925 40.18 145.093 40.012C145.261 39.844 145.469 39.76 145.717 39.76C145.957 39.76 146.161 39.844 146.329 40.012C146.497 40.18 146.581 40.388 146.581 40.636C146.581 40.884 146.497 41.092 146.329 41.26C146.161 41.428 145.957 41.512 145.717 41.512ZM146.389 42.388V49H145.021V42.388H146.389ZM149.781 43.504V47.164C149.781 47.412 149.837 47.592 149.949 47.704C150.069 47.808 150.269 47.86 150.549 47.86H151.389V49H150.309C149.693 49 149.221 48.856 148.893 48.568C148.565 48.28 148.401 47.812 148.401 47.164V43.504H147.621V42.388H148.401V40.744H149.781V42.388H151.389V43.504H149.781ZM155.518 49.108C154.894 49.108 154.33 48.968 153.826 48.688C153.322 48.4 152.926 48 152.638 47.488C152.35 46.968 152.206 46.368 152.206 45.688C152.206 45.016 152.354 44.42 152.65 43.9C152.946 43.38 153.35 42.98 153.862 42.7C154.374 42.42 154.946 42.28 155.578 42.28C156.21 42.28 156.782 42.42 157.294 42.7C157.806 42.98 158.21 43.38 158.506 43.9C158.802 44.42 158.95 45.016 158.95 45.688C158.95 46.36 158.798 46.956 158.494 47.476C158.19 47.996 157.774 48.4 157.246 48.688C156.726 48.968 156.15 49.108 155.518 49.108ZM155.518 47.92C155.87 47.92 156.198 47.836 156.502 47.668C156.814 47.5 157.066 47.248 157.258 46.912C157.45 46.576 157.546 46.168 157.546 45.688C157.546 45.208 157.454 44.804 157.27 44.476C157.086 44.14 156.842 43.888 156.538 43.72C156.234 43.552 155.906 43.468 155.554 43.468C155.202 43.468 154.874 43.552 154.57 43.72C154.274 43.888 154.038 44.14 153.862 44.476C153.686 44.804 153.598 45.208 153.598 45.688C153.598 46.4 153.778 46.952 154.138 47.344C154.506 47.728 154.966 47.92 155.518 47.92ZM161.67 43.348C161.87 43.012 162.134 42.752 162.462 42.568C162.798 42.376 163.194 42.28 163.65 42.28V43.696H163.302C162.766 43.696 162.358 43.832 162.078 44.104C161.806 44.376 161.67 44.848 161.67 45.52V49H160.302V42.388H161.67V43.348Z"></path>
<path fill="#BFBFBF" d="M45.764 74.355V75.378H43.729V82H42.475V75.378H40.429V74.355H45.764ZM50.169 75.84C50.631 75.84 51.0417 75.939 51.401 76.137C51.7677 76.335 52.0537 76.6283 52.259 77.017C52.4717 77.4057 52.578 77.875 52.578 78.425V82H51.335V78.612C51.335 78.0693 51.1993 77.655 50.928 77.369C50.6567 77.0757 50.2863 76.929 49.817 76.929C49.3477 76.929 48.9737 77.0757 48.695 77.369C48.4237 77.655 48.288 78.0693 48.288 78.612V82H47.034V73.86H48.288V76.643C48.5007 76.3863 48.7683 76.1883 49.091 76.049C49.421 75.9097 49.7803 75.84 50.169 75.84ZM59.7325 78.821C59.7325 79.0483 59.7179 79.2537 59.6885 79.437H55.0575C55.0942 79.921 55.2739 80.3097 55.5965 80.603C55.9192 80.8963 56.3152 81.043 56.7845 81.043C57.4592 81.043 57.9359 80.7607 58.2145 80.196H59.5675C59.3842 80.7533 59.0505 81.2117 58.5665 81.571C58.0899 81.923 57.4959 82.099 56.7845 82.099C56.2052 82.099 55.6845 81.9707 55.2225 81.714C54.7679 81.45 54.4085 81.0833 54.1445 80.614C53.8879 80.1373 53.7595 79.5873 53.7595 78.964C53.7595 78.3407 53.8842 77.7943 54.1335 77.325C54.3902 76.8483 54.7459 76.4817 55.2005 76.225C55.6625 75.9683 56.1905 75.84 56.7845 75.84C57.3565 75.84 57.8662 75.9647 58.3135 76.214C58.7609 76.4633 59.1092 76.8153 59.3585 77.27C59.6079 77.7173 59.7325 78.2343 59.7325 78.821ZM58.4235 78.425C58.4162 77.963 58.2512 77.5927 57.9285 77.314C57.6059 77.0353 57.2062 76.896 56.7295 76.896C56.2969 76.896 55.9265 77.0353 55.6185 77.314C55.3105 77.5853 55.1272 77.9557 55.0685 78.425H58.4235ZM66.453 82.099C65.881 82.099 65.364 81.9707 64.902 81.714C64.44 81.45 64.077 81.0833 63.813 80.614C63.549 80.1373 63.417 79.5873 63.417 78.964C63.417 78.348 63.5527 77.8017 63.824 77.325C64.0954 76.8483 64.4657 76.4817 64.935 76.225C65.4044 75.9683 65.9287 75.84 66.508 75.84C67.0874 75.84 67.6117 75.9683 68.081 76.225C68.5504 76.4817 68.9207 76.8483 69.192 77.325C69.4634 77.8017 69.599 78.348 69.599 78.964C69.599 79.58 69.4597 80.1263 69.181 80.603C68.9024 81.0797 68.521 81.45 68.037 81.714C67.5604 81.9707 67.0324 82.099 66.453 82.099ZM66.453 81.01C66.7757 81.01 67.0764 80.933 67.355 80.779C67.641 80.625 67.872 80.394 68.048 80.086C68.224 79.778 68.312 79.404 68.312 78.964C68.312 78.524 68.2277 78.1537 68.059 77.853C67.8904 77.545 67.6667 77.314 67.388 77.16C67.1094 77.006 66.8087 76.929 66.486 76.929C66.1634 76.929 65.8627 77.006 65.584 77.16C65.3127 77.314 65.0964 77.545 64.935 77.853C64.7737 78.1537 64.693 78.524 64.693 78.964C64.693 79.6167 64.858 80.1227 65.188 80.482C65.5254 80.834 65.947 81.01 66.453 81.01ZM72.0927 76.83C72.3053 76.5513 72.595 76.3167 72.9617 76.126C73.3283 75.9353 73.7427 75.84 74.2047 75.84C74.7327 75.84 75.213 75.972 75.6457 76.236C76.0857 76.4927 76.4303 76.8557 76.6797 77.325C76.929 77.7943 77.0537 78.3333 77.0537 78.942C77.0537 79.5507 76.929 80.097 76.6797 80.581C76.4303 81.0577 76.0857 81.4317 75.6457 81.703C75.213 81.967 74.7327 82.099 74.2047 82.099C73.7427 82.099 73.332 82.0073 72.9727 81.824C72.6133 81.6333 72.32 81.3987 72.0927 81.12V84.882H70.8387V75.939H72.0927V76.83ZM75.7777 78.942C75.7777 78.524 75.6897 78.1647 75.5137 77.864C75.345 77.556 75.1177 77.325 74.8317 77.171C74.553 77.0097 74.2523 76.929 73.9297 76.929C73.6143 76.929 73.3137 77.0097 73.0277 77.171C72.749 77.3323 72.5217 77.567 72.3457 77.875C72.177 78.183 72.0927 78.546 72.0927 78.964C72.0927 79.382 72.177 79.7487 72.3457 80.064C72.5217 80.372 72.749 80.6067 73.0277 80.768C73.3137 80.9293 73.6143 81.01 73.9297 81.01C74.2523 81.01 74.553 80.9293 74.8317 80.768C75.1177 80.5993 75.345 80.3573 75.5137 80.042C75.6897 79.7267 75.7777 79.36 75.7777 78.942ZM83.8488 78.821C83.8488 79.0483 83.8341 79.2537 83.8048 79.437H79.1738C79.2104 79.921 79.3901 80.3097 79.7128 80.603C80.0354 80.8963 80.4314 81.043 80.9008 81.043C81.5754 81.043 82.0521 80.7607 82.3308 80.196H83.6837C83.5004 80.7533 83.1668 81.2117 82.6828 81.571C82.2061 81.923 81.6121 82.099 80.9008 82.099C80.3214 82.099 79.8008 81.9707 79.3388 81.714C78.8841 81.45 78.5248 81.0833 78.2608 80.614C78.0041 80.1373 77.8758 79.5873 77.8758 78.964C77.8758 78.3407 78.0004 77.7943 78.2498 77.325C78.5064 76.8483 78.8621 76.4817 79.3168 76.225C79.7788 75.9683 80.3068 75.84 80.9008 75.84C81.4728 75.84 81.9824 75.9647 82.4298 76.214C82.8771 76.4633 83.2254 76.8153 83.4748 77.27C83.7241 77.7173 83.8488 78.2343 83.8488 78.821ZM82.5398 78.425C82.5324 77.963 82.3674 77.5927 82.0448 77.314C81.7221 77.0353 81.3224 76.896 80.8458 76.896C80.4131 76.896 80.0428 77.0353 79.7348 77.314C79.4268 77.5853 79.2434 77.9557 79.1848 78.425H82.5398ZM88.1408 75.84C88.6175 75.84 89.0428 75.939 89.4168 76.137C89.7981 76.335 90.0951 76.6283 90.3078 77.017C90.5205 77.4057 90.6268 77.875 90.6268 78.425V82H89.3838V78.612C89.3838 78.0693 89.2481 77.655 88.9768 77.369C88.7055 77.0757 88.3351 76.929 87.8658 76.929C87.3965 76.929 87.0225 77.0757 86.7438 77.369C86.4725 77.655 86.3368 78.0693 86.3368 78.612V82H85.0828V75.939H86.3368V76.632C86.5421 76.3827 86.8025 76.1883 87.1178 76.049C87.4405 75.9097 87.7815 75.84 88.1408 75.84ZM94.6658 78.942C94.6658 78.3333 94.7905 77.7943 95.0398 77.325C95.2965 76.8557 95.6411 76.4927 96.0738 76.236C96.5138 75.972 96.9978 75.84 97.5258 75.84C98.0025 75.84 98.4168 75.9353 98.7688 76.126C99.1281 76.3093 99.4141 76.5403 99.6268 76.819V75.939H100.892V82H99.6268V81.098C99.4141 81.384 99.1245 81.6223 98.7578 81.813C98.3911 82.0037 97.9731 82.099 97.5038 82.099C96.9831 82.099 96.5065 81.967 96.0738 81.703C95.6411 81.4317 95.2965 81.0577 95.0398 80.581C94.7905 80.097 94.6658 79.5507 94.6658 78.942ZM99.6268 78.964C99.6268 78.546 99.5388 78.183 99.3628 77.875C99.1941 77.567 98.9705 77.3323 98.6918 77.171C98.4131 77.0097 98.1125 76.929 97.7898 76.929C97.4671 76.929 97.1665 77.0097 96.8878 77.171C96.6091 77.325 96.3818 77.556 96.2058 77.864C96.0371 78.1647 95.9528 78.524 95.9528 78.942C95.9528 79.36 96.0371 79.7267 96.2058 80.042C96.3818 80.3573 96.6091 80.5993 96.8878 80.768C97.1738 80.9293 97.4745 81.01 97.7898 81.01C98.1125 81.01 98.4131 80.9293 98.6918 80.768C98.9705 80.6067 99.1941 80.372 99.3628 80.064C99.5388 79.7487 99.6268 79.382 99.6268 78.964ZM103.793 76.83C104.006 76.5513 104.295 76.3167 104.662 76.126C105.029 75.9353 105.443 75.84 105.905 75.84C106.433 75.84 106.913 75.972 107.346 76.236C107.786 76.4927 108.131 76.8557 108.38 77.325C108.629 77.7943 108.754 78.3333 108.754 78.942C108.754 79.5507 108.629 80.097 108.38 80.581C108.131 81.0577 107.786 81.4317 107.346 81.703C106.913 81.967 106.433 82.099 105.905 82.099C105.443 82.099 105.032 82.0073 104.673 81.824C104.314 81.6333 104.02 81.3987 103.793 81.12V84.882H102.539V75.939H103.793V76.83ZM107.478 78.942C107.478 78.524 107.39 78.1647 107.214 77.864C107.045 77.556 106.818 77.325 106.532 77.171C106.253 77.0097 105.953 76.929 105.63 76.929C105.315 76.929 105.014 77.0097 104.728 77.171C104.449 77.3323 104.222 77.567 104.046 77.875C103.877 78.183 103.793 78.546 103.793 78.964C103.793 79.382 103.877 79.7487 104.046 80.064C104.222 80.372 104.449 80.6067 104.728 80.768C105.014 80.9293 105.315 81.01 105.63 81.01C105.953 81.01 106.253 80.9293 106.532 80.768C106.818 80.5993 107.045 80.3573 107.214 80.042C107.39 79.7267 107.478 79.36 107.478 78.942ZM111.248 76.83C111.461 76.5513 111.75 76.3167 112.117 76.126C112.484 75.9353 112.898 75.84 113.36 75.84C113.888 75.84 114.368 75.972 114.801 76.236C115.241 76.4927 115.586 76.8557 115.835 77.325C116.084 77.7943 116.209 78.3333 116.209 78.942C116.209 79.5507 116.084 80.097 115.835 80.581C115.586 81.0577 115.241 81.4317 114.801 81.703C114.368 81.967 113.888 82.099 113.36 82.099C112.898 82.099 112.487 82.0073 112.128 81.824C111.769 81.6333 111.475 81.3987 111.248 81.12V84.882H109.994V75.939H111.248V76.83ZM114.933 78.942C114.933 78.524 114.845 78.1647 114.669 77.864C114.5 77.556 114.273 77.325 113.987 77.171C113.708 77.0097 113.408 76.929 113.085 76.929C112.77 76.929 112.469 77.0097 112.183 77.171C111.904 77.3323 111.677 77.567 111.501 77.875C111.332 78.183 111.248 78.546 111.248 78.964C111.248 79.382 111.332 79.7487 111.501 80.064C111.677 80.372 111.904 80.6067 112.183 80.768C112.469 80.9293 112.77 81.01 113.085 81.01C113.408 81.01 113.708 80.9293 113.987 80.768C114.273 80.5993 114.5 80.3573 114.669 80.042C114.845 79.7267 114.933 79.36 114.933 78.942ZM118.703 73.86V82H117.449V73.86H118.703ZM120.987 75.136C120.76 75.136 120.569 75.059 120.415 74.905C120.261 74.751 120.184 74.5603 120.184 74.333C120.184 74.1057 120.261 73.915 120.415 73.761C120.569 73.607 120.76 73.53 120.987 73.53C121.207 73.53 121.394 73.607 121.548 73.761C121.702 73.915 121.779 74.1057 121.779 74.333C121.779 74.5603 121.702 74.751 121.548 74.905C121.394 75.059 121.207 75.136 120.987 75.136ZM121.603 75.939V82H120.349V75.939H121.603ZM122.832 78.964C122.832 78.3407 122.956 77.7943 123.206 77.325C123.462 76.8483 123.814 76.4817 124.262 76.225C124.709 75.9683 125.222 75.84 125.802 75.84C126.535 75.84 127.14 76.016 127.617 76.368C128.101 76.7127 128.427 77.2077 128.596 77.853H127.243C127.133 77.5523 126.957 77.3177 126.715 77.149C126.473 76.9803 126.168 76.896 125.802 76.896C125.288 76.896 124.878 77.0793 124.57 77.446C124.269 77.8053 124.119 78.3113 124.119 78.964C124.119 79.6167 124.269 80.1263 124.57 80.493C124.878 80.8597 125.288 81.043 125.802 81.043C126.528 81.043 127.008 80.724 127.243 80.086H128.596C128.42 80.702 128.09 81.1933 127.606 81.56C127.122 81.9193 126.52 82.099 125.802 82.099C125.222 82.099 124.709 81.9707 124.262 81.714C123.814 81.45 123.462 81.0833 123.206 80.614C122.956 80.1373 122.832 79.5873 122.832 78.964ZM129.428 78.942C129.428 78.3333 129.552 77.7943 129.802 77.325C130.058 76.8557 130.403 76.4927 130.836 76.236C131.276 75.972 131.76 75.84 132.288 75.84C132.764 75.84 133.179 75.9353 133.531 76.126C133.89 76.3093 134.176 76.5403 134.389 76.819V75.939H135.654V82H134.389V81.098C134.176 81.384 133.886 81.6223 133.52 81.813C133.153 82.0037 132.735 82.099 132.266 82.099C131.745 82.099 131.268 81.967 130.836 81.703C130.403 81.4317 130.058 81.0577 129.802 80.581C129.552 80.097 129.428 79.5507 129.428 78.942ZM134.389 78.964C134.389 78.546 134.301 78.183 134.125 77.875C133.956 77.567 133.732 77.3323 133.454 77.171C133.175 77.0097 132.874 76.929 132.552 76.929C132.229 76.929 131.928 77.0097 131.65 77.171C131.371 77.325 131.144 77.556 130.968 77.864C130.799 78.1647 130.715 78.524 130.715 78.942C130.715 79.36 130.799 79.7267 130.968 80.042C131.144 80.3573 131.371 80.5993 131.65 80.768C131.936 80.9293 132.236 81.01 132.552 81.01C132.874 81.01 133.175 80.9293 133.454 80.768C133.732 80.6067 133.956 80.372 134.125 80.064C134.301 79.7487 134.389 79.382 134.389 78.964ZM138.764 76.962V80.317C138.764 80.5443 138.815 80.7093 138.918 80.812C139.028 80.9073 139.211 80.955 139.468 80.955H140.238V82H139.248C138.683 82 138.25 81.868 137.95 81.604C137.649 81.34 137.499 80.911 137.499 80.317V76.962H136.784V75.939H137.499V74.432H138.764V75.939H140.238V76.962H138.764ZM142.031 75.136C141.804 75.136 141.613 75.059 141.459 74.905C141.305 74.751 141.228 74.5603 141.228 74.333C141.228 74.1057 141.305 73.915 141.459 73.761C141.613 73.607 141.804 73.53 142.031 73.53C142.251 73.53 142.438 73.607 142.592 73.761C142.746 73.915 142.823 74.1057 142.823 74.333C142.823 74.5603 142.746 74.751 142.592 74.905C142.438 75.059 142.251 75.136 142.031 75.136ZM142.647 75.939V82H141.393V75.939H142.647ZM146.923 82.099C146.351 82.099 145.834 81.9707 145.372 81.714C144.91 81.45 144.547 81.0833 144.283 80.614C144.019 80.1373 143.887 79.5873 143.887 78.964C143.887 78.348 144.022 77.8017 144.294 77.325C144.565 76.8483 144.935 76.4817 145.405 76.225C145.874 75.9683 146.398 75.84 146.978 75.84C147.557 75.84 148.081 75.9683 148.551 76.225C149.02 76.4817 149.39 76.8483 149.662 77.325C149.933 77.8017 150.069 78.348 150.069 78.964C150.069 79.58 149.929 80.1263 149.651 80.603C149.372 81.0797 148.991 81.45 148.507 81.714C148.03 81.9707 147.502 82.099 146.923 82.099ZM146.923 81.01C147.245 81.01 147.546 80.933 147.825 80.779C148.111 80.625 148.342 80.394 148.518 80.086C148.694 79.778 148.782 79.404 148.782 78.964C148.782 78.524 148.697 78.1537 148.529 77.853C148.36 77.545 148.136 77.314 147.858 77.16C147.579 77.006 147.278 76.929 146.956 76.929C146.633 76.929 146.332 77.006 146.054 77.16C145.782 77.314 145.566 77.545 145.405 77.853C145.243 78.1537 145.163 78.524 145.163 78.964C145.163 79.6167 145.328 80.1227 145.658 80.482C145.995 80.834 146.417 81.01 146.923 81.01ZM154.366 75.84C154.843 75.84 155.268 75.939 155.642 76.137C156.024 76.335 156.321 76.6283 156.533 77.017C156.746 77.4057 156.852 77.875 156.852 78.425V82H155.609V78.612C155.609 78.0693 155.474 77.655 155.202 77.369C154.931 77.0757 154.561 76.929 154.091 76.929C153.622 76.929 153.248 77.0757 152.969 77.369C152.698 77.655 152.562 78.0693 152.562 78.612V82H151.308V75.939H152.562V76.632C152.768 76.3827 153.028 76.1883 153.343 76.049C153.666 75.9097 154.007 75.84 154.366 75.84ZM169.449 75.939L167.568 82H166.248L165.027 77.523L163.806 82H162.486L160.594 75.939H161.87L163.135 80.812L164.422 75.939H165.731L166.963 80.79L168.217 75.939H169.449ZM169.969 78.942C169.969 78.3333 170.093 77.7943 170.343 77.325C170.599 76.8557 170.944 76.4927 171.377 76.236C171.817 75.972 172.301 75.84 172.829 75.84C173.305 75.84 173.72 75.9353 174.072 76.126C174.431 76.3093 174.717 76.5403 174.93 76.819V75.939H176.195V82H174.93V81.098C174.717 81.384 174.427 81.6223 174.061 81.813C173.694 82.0037 173.276 82.099 172.807 82.099C172.286 82.099 171.809 81.967 171.377 81.703C170.944 81.4317 170.599 81.0577 170.343 80.581C170.093 80.097 169.969 79.5507 169.969 78.942ZM174.93 78.964C174.93 78.546 174.842 78.183 174.666 77.875C174.497 77.567 174.273 77.3323 173.995 77.171C173.716 77.0097 173.415 76.929 173.093 76.929C172.77 76.929 172.469 77.0097 172.191 77.171C171.912 77.325 171.685 77.556 171.509 77.864C171.34 78.1647 171.256 78.524 171.256 78.942C171.256 79.36 171.34 79.7267 171.509 80.042C171.685 80.3573 171.912 80.5993 172.191 80.768C172.477 80.9293 172.777 81.01 173.093 81.01C173.415 81.01 173.716 80.9293 173.995 80.768C174.273 80.6067 174.497 80.372 174.666 80.064C174.842 79.7487 174.93 79.382 174.93 78.964ZM180.042 82.099C179.565 82.099 179.136 82.0147 178.755 81.846C178.381 81.67 178.084 81.4353 177.864 81.142C177.644 80.8413 177.526 80.5077 177.512 80.141H178.81C178.832 80.3977 178.953 80.614 179.173 80.79C179.4 80.9587 179.682 81.043 180.02 81.043C180.372 81.043 180.643 80.977 180.834 80.845C181.032 80.7057 181.131 80.5297 181.131 80.317C181.131 80.0897 181.021 79.921 180.801 79.811C180.588 79.701 180.247 79.58 179.778 79.448C179.323 79.3233 178.953 79.2023 178.667 79.085C178.381 78.9677 178.131 78.788 177.919 78.546C177.713 78.304 177.611 77.985 177.611 77.589C177.611 77.2663 177.706 76.973 177.897 76.709C178.087 76.4377 178.359 76.225 178.711 76.071C179.07 75.917 179.481 75.84 179.943 75.84C180.632 75.84 181.186 76.016 181.604 76.368C182.029 76.7127 182.256 77.1857 182.286 77.787H181.032C181.01 77.5157 180.9 77.2993 180.702 77.138C180.504 76.9767 180.236 76.896 179.899 76.896C179.569 76.896 179.316 76.9583 179.14 77.083C178.964 77.2077 178.876 77.3727 178.876 77.578C178.876 77.7393 178.934 77.875 179.052 77.985C179.169 78.095 179.312 78.183 179.481 78.249C179.649 78.3077 179.899 78.3847 180.229 78.48C180.669 78.5973 181.028 78.7183 181.307 78.843C181.593 78.9603 181.838 79.1363 182.044 79.371C182.249 79.6057 182.355 79.9173 182.363 80.306C182.363 80.6507 182.267 80.9587 182.077 81.23C181.886 81.5013 181.615 81.714 181.263 81.868C180.918 82.022 180.511 82.099 180.042 82.099ZM40.407 94.964C40.407 94.3407 40.5317 93.7943 40.781 93.325C41.0377 92.8483 41.3897 92.4817 41.837 92.225C42.2843 91.9683 42.7977 91.84 43.377 91.84C44.1103 91.84 44.7153 92.016 45.192 92.368C45.676 92.7127 46.0023 93.2077 46.171 93.853H44.818C44.708 93.5523 44.532 93.3177 44.29 93.149C44.048 92.9803 43.7437 92.896 43.377 92.896C42.8637 92.896 42.453 93.0793 42.145 93.446C41.8443 93.8053 41.694 94.3113 41.694 94.964C41.694 95.6167 41.8443 96.1263 42.145 96.493C42.453 96.8597 42.8637 97.043 43.377 97.043C44.103 97.043 44.5833 96.724 44.818 96.086H46.171C45.995 96.702 45.665 97.1933 45.181 97.56C44.697 97.9193 44.0957 98.099 43.377 98.099C42.7977 98.099 42.2843 97.9707 41.837 97.714C41.3897 97.45 41.0377 97.0833 40.781 96.614C40.5317 96.1373 40.407 95.5873 40.407 94.964ZM48.6747 89.86V98H47.4207V89.86H48.6747ZM52.9501 98.099C52.3781 98.099 51.8611 97.9707 51.3991 97.714C50.9371 97.45 50.5741 97.0833 50.3101 96.614C50.0461 96.1373 49.9141 95.5873 49.9141 94.964C49.9141 94.348 50.0498 93.8017 50.3211 93.325C50.5924 92.8483 50.9628 92.4817 51.4321 92.225C51.9014 91.9683 52.4258 91.84 53.0051 91.84C53.5844 91.84 54.1088 91.9683 54.5781 92.225C55.0474 92.4817 55.4178 92.8483 55.6891 93.325C55.9604 93.8017 56.0961 94.348 56.0961 94.964C56.0961 95.58 55.9568 96.1263 55.6781 96.603C55.3994 97.0797 55.0181 97.45 54.5341 97.714C54.0574 97.9707 53.5294 98.099 52.9501 98.099ZM52.9501 97.01C53.2728 97.01 53.5734 96.933 53.8521 96.779C54.1381 96.625 54.3691 96.394 54.5451 96.086C54.7211 95.778 54.8091 95.404 54.8091 94.964C54.8091 94.524 54.7248 94.1537 54.5561 93.853C54.3874 93.545 54.1638 93.314 53.8851 93.16C53.6064 93.006 53.3058 92.929 52.9831 92.929C52.6604 92.929 52.3598 93.006 52.0811 93.16C51.8098 93.314 51.5934 93.545 51.4321 93.853C51.2708 94.1537 51.1901 94.524 51.1901 94.964C51.1901 95.6167 51.3551 96.1227 51.6851 96.482C52.0224 96.834 52.4441 97.01 52.9501 97.01ZM59.5357 98.099C59.0591 98.099 58.6301 98.0147 58.2487 97.846C57.8747 97.67 57.5777 97.4353 57.3577 97.142C57.1377 96.8413 57.0204 96.5077 57.0057 96.141H58.3037C58.3257 96.3977 58.4467 96.614 58.6667 96.79C58.8941 96.9587 59.1764 97.043 59.5137 97.043C59.8657 97.043 60.1371 96.977 60.3277 96.845C60.5257 96.7057 60.6247 96.5297 60.6247 96.317C60.6247 96.0897 60.5147 95.921 60.2947 95.811C60.0821 95.701 59.7411 95.58 59.2717 95.448C58.8171 95.3233 58.4467 95.2023 58.1607 95.085C57.8747 94.9677 57.6254 94.788 57.4127 94.546C57.2074 94.304 57.1047 93.985 57.1047 93.589C57.1047 93.2663 57.2001 92.973 57.3907 92.709C57.5814 92.4377 57.8527 92.225 58.2047 92.071C58.5641 91.917 58.9747 91.84 59.4367 91.84C60.1261 91.84 60.6797 92.016 61.0977 92.368C61.5231 92.7127 61.7504 93.1857 61.7797 93.787H60.5257C60.5037 93.5157 60.3937 93.2993 60.1957 93.138C59.9977 92.9767 59.7301 92.896 59.3927 92.896C59.0627 92.896 58.8097 92.9583 58.6337 93.083C58.4577 93.2077 58.3697 93.3727 58.3697 93.578C58.3697 93.7393 58.4284 93.875 58.5457 93.985C58.6631 94.095 58.8061 94.183 58.9747 94.249C59.1434 94.3077 59.3927 94.3847 59.7227 94.48C60.1627 94.5973 60.5221 94.7183 60.8007 94.843C61.0867 94.9603 61.3324 95.1363 61.5377 95.371C61.7431 95.6057 61.8494 95.9173 61.8567 96.306C61.8567 96.6507 61.7614 96.9587 61.5707 97.23C61.3801 97.5013 61.1087 97.714 60.7567 97.868C60.4121 98.022 60.0051 98.099 59.5357 98.099ZM68.7667 94.821C68.7667 95.0483 68.7521 95.2537 68.7227 95.437H64.0917C64.1284 95.921 64.3081 96.3097 64.6307 96.603C64.9534 96.8963 65.3494 97.043 65.8187 97.043C66.4934 97.043 66.9701 96.7607 67.2487 96.196H68.6017C68.4184 96.7533 68.0847 97.2117 67.6007 97.571C67.1241 97.923 66.5301 98.099 65.8187 98.099C65.2394 98.099 64.7187 97.9707 64.2567 97.714C63.8021 97.45 63.4427 97.0833 63.1787 96.614C62.9221 96.1373 62.7937 95.5873 62.7937 94.964C62.7937 94.3407 62.9184 93.7943 63.1677 93.325C63.4244 92.8483 63.7801 92.4817 64.2347 92.225C64.6967 91.9683 65.2247 91.84 65.8187 91.84C66.3907 91.84 66.9004 91.9647 67.3477 92.214C67.7951 92.4633 68.1434 92.8153 68.3927 93.27C68.6421 93.7173 68.7667 94.2343 68.7667 94.821ZM67.4577 94.425C67.4504 93.963 67.2854 93.5927 66.9627 93.314C66.6401 93.0353 66.2404 92.896 65.7637 92.896C65.3311 92.896 64.9607 93.0353 64.6527 93.314C64.3447 93.5853 64.1614 93.9557 64.1027 94.425H67.4577ZM69.5828 94.942C69.5828 94.3333 69.7074 93.7943 69.9568 93.325C70.2134 92.8557 70.5581 92.4927 70.9908 92.236C71.4308 91.972 71.9184 91.84 72.4538 91.84C72.8498 91.84 73.2384 91.928 73.6198 92.104C74.0084 92.2727 74.3164 92.5 74.5438 92.786V89.86H75.8088V98H74.5438V97.087C74.3384 97.3803 74.0524 97.6223 73.6858 97.813C73.3264 98.0037 72.9121 98.099 72.4428 98.099C71.9148 98.099 71.4308 97.967 70.9908 97.703C70.5581 97.4317 70.2134 97.0577 69.9568 96.581C69.7074 96.097 69.5828 95.5507 69.5828 94.942ZM74.5438 94.964C74.5438 94.546 74.4558 94.183 74.2798 93.875C74.1111 93.567 73.8874 93.3323 73.6088 93.171C73.3301 93.0097 73.0294 92.929 72.7068 92.929C72.3841 92.929 72.0834 93.0097 71.8048 93.171C71.5261 93.325 71.2988 93.556 71.1228 93.864C70.9541 94.1647 70.8698 94.524 70.8698 94.942C70.8698 95.36 70.9541 95.7267 71.1228 96.042C71.2988 96.3573 71.5261 96.5993 71.8048 96.768C72.0908 96.9293 72.3914 97.01 72.7068 97.01C73.0294 97.01 73.3301 96.9293 73.6088 96.768C73.8874 96.6067 74.1111 96.372 74.2798 96.064C74.4558 95.7487 74.5438 95.382 74.5438 94.964ZM79.8953 94.942C79.8953 94.3333 80.0199 93.7943 80.2693 93.325C80.5259 92.8557 80.8706 92.4927 81.3033 92.236C81.7433 91.972 82.2309 91.84 82.7663 91.84C83.1623 91.84 83.5509 91.928 83.9323 92.104C84.3209 92.2727 84.6289 92.5 84.8563 92.786V89.86H86.1213V98H84.8563V97.087C84.6509 97.3803 84.3649 97.6223 83.9983 97.813C83.6389 98.0037 83.2246 98.099 82.7553 98.099C82.2273 98.099 81.7433 97.967 81.3033 97.703C80.8706 97.4317 80.5259 97.0577 80.2693 96.581C80.0199 96.097 79.8953 95.5507 79.8953 94.942ZM84.8563 94.964C84.8563 94.546 84.7683 94.183 84.5923 93.875C84.4236 93.567 84.1999 93.3323 83.9213 93.171C83.6426 93.0097 83.3419 92.929 83.0193 92.929C82.6966 92.929 82.3959 93.0097 82.1173 93.171C81.8386 93.325 81.6113 93.556 81.4353 93.864C81.2666 94.1647 81.1823 94.524 81.1823 94.942C81.1823 95.36 81.2666 95.7267 81.4353 96.042C81.6113 96.3573 81.8386 96.5993 82.1173 96.768C82.4033 96.9293 82.7039 97.01 83.0193 97.01C83.3419 97.01 83.6426 96.9293 83.9213 96.768C84.1999 96.6067 84.4236 96.372 84.5923 96.064C84.7683 95.7487 84.8563 95.382 84.8563 94.964ZM93.2574 91.939V98H92.0034V97.285C91.8054 97.5343 91.545 97.7323 91.2224 97.879C90.907 98.0183 90.5697 98.088 90.2104 98.088C89.7337 98.088 89.3047 97.989 88.9234 97.791C88.5494 97.593 88.2524 97.2997 88.0324 96.911C87.8197 96.5223 87.7134 96.053 87.7134 95.503V91.939H88.9564V95.316C88.9564 95.8587 89.092 96.2767 89.3634 96.57C89.6347 96.856 90.005 96.999 90.4744 96.999C90.9437 96.999 91.314 96.856 91.5854 96.57C91.864 96.2767 92.0034 95.8587 92.0034 95.316V91.939H93.2574ZM100.467 94.821C100.467 95.0483 100.452 95.2537 100.423 95.437H95.7919C95.8286 95.921 96.0082 96.3097 96.3309 96.603C96.6536 96.8963 97.0496 97.043 97.5189 97.043C98.1936 97.043 98.6702 96.7607 98.9489 96.196H100.302C100.119 96.7533 99.7849 97.2117 99.3009 97.571C98.8242 97.923 98.2302 98.099 97.5189 98.099C96.9396 98.099 96.4189 97.9707 95.9569 97.714C95.5022 97.45 95.1429 97.0833 94.8789 96.614C94.6222 96.1373 94.4939 95.5873 94.4939 94.964C94.4939 94.3407 94.6186 93.7943 94.8679 93.325C95.1246 92.8483 95.4802 92.4817 95.9349 92.225C96.3969 91.9683 96.9249 91.84 97.5189 91.84C98.0909 91.84 98.6006 91.9647 99.0479 92.214C99.4952 92.4633 99.8436 92.8153 100.093 93.27C100.342 93.7173 100.467 94.2343 100.467 94.821ZM99.1579 94.425C99.1506 93.963 98.9856 93.5927 98.6629 93.314C98.3402 93.0353 97.9406 92.896 97.4639 92.896C97.0312 92.896 96.6609 93.0353 96.3529 93.314C96.0449 93.5853 95.8616 93.9557 95.8029 94.425H99.1579ZM106.021 92.962V96.317C106.021 96.5443 106.073 96.7093 106.175 96.812C106.285 96.9073 106.469 96.955 106.725 96.955H107.495V98H106.505C105.941 98 105.508 97.868 105.207 97.604C104.907 97.34 104.756 96.911 104.756 96.317V92.962H104.041V91.939H104.756V90.432H106.021V91.939H107.495V92.962H106.021ZM111.28 98.099C110.708 98.099 110.191 97.9707 109.729 97.714C109.267 97.45 108.904 97.0833 108.64 96.614C108.376 96.1373 108.244 95.5873 108.244 94.964C108.244 94.348 108.38 93.8017 108.651 93.325C108.923 92.8483 109.293 92.4817 109.762 92.225C110.232 91.9683 110.756 91.84 111.335 91.84C111.915 91.84 112.439 91.9683 112.908 92.225C113.378 92.4817 113.748 92.8483 114.019 93.325C114.291 93.8017 114.426 94.348 114.426 94.964C114.426 95.58 114.287 96.1263 114.008 96.603C113.73 97.0797 113.348 97.45 112.864 97.714C112.388 97.9707 111.86 98.099 111.28 98.099ZM111.28 97.01C111.603 97.01 111.904 96.933 112.182 96.779C112.468 96.625 112.699 96.394 112.875 96.086C113.051 95.778 113.139 95.404 113.139 94.964C113.139 94.524 113.055 94.1537 112.886 93.853C112.718 93.545 112.494 93.314 112.215 93.16C111.937 93.006 111.636 92.929 111.313 92.929C110.991 92.929 110.69 93.006 110.411 93.16C110.14 93.314 109.924 93.545 109.762 93.853C109.601 94.1537 109.52 94.524 109.52 94.964C109.52 95.6167 109.685 96.1227 110.015 96.482C110.353 96.834 110.774 97.01 111.28 97.01ZM118.105 94.942C118.105 94.3333 118.23 93.7943 118.479 93.325C118.736 92.8557 119.081 92.4927 119.513 92.236C119.953 91.972 120.437 91.84 120.965 91.84C121.442 91.84 121.856 91.9353 122.208 92.126C122.568 92.3093 122.854 92.5403 123.066 92.819V91.939H124.331V98H123.066V97.098C122.854 97.384 122.564 97.6223 122.197 97.813C121.831 98.0037 121.413 98.099 120.943 98.099C120.423 98.099 119.946 97.967 119.513 97.703C119.081 97.4317 118.736 97.0577 118.479 96.581C118.23 96.097 118.105 95.5507 118.105 94.942ZM123.066 94.964C123.066 94.546 122.978 94.183 122.802 93.875C122.634 93.567 122.41 93.3323 122.131 93.171C121.853 93.0097 121.552 92.929 121.229 92.929C120.907 92.929 120.606 93.0097 120.327 93.171C120.049 93.325 119.821 93.556 119.645 93.864C119.477 94.1647 119.392 94.524 119.392 94.942C119.392 95.36 119.477 95.7267 119.645 96.042C119.821 96.3573 120.049 96.5993 120.327 96.768C120.613 96.9293 120.914 97.01 121.229 97.01C121.552 97.01 121.853 96.9293 122.131 96.768C122.41 96.6067 122.634 96.372 122.802 96.064C122.978 95.7487 123.066 95.382 123.066 94.964ZM131.036 98.099C130.559 98.099 130.13 98.0147 129.749 97.846C129.375 97.67 129.078 97.4353 128.858 97.142C128.638 96.8413 128.52 96.5077 128.506 96.141H129.804C129.826 96.3977 129.947 96.614 130.167 96.79C130.394 96.9587 130.676 97.043 131.014 97.043C131.366 97.043 131.637 96.977 131.828 96.845C132.026 96.7057 132.125 96.5297 132.125 96.317C132.125 96.0897 132.015 95.921 131.795 95.811C131.582 95.701 131.241 95.58 130.772 95.448C130.317 95.3233 129.947 95.2023 129.661 95.085C129.375 94.9677 129.125 94.788 128.913 94.546C128.707 94.304 128.605 93.985 128.605 93.589C128.605 93.2663 128.7 92.973 128.891 92.709C129.081 92.4377 129.353 92.225 129.705 92.071C130.064 91.917 130.475 91.84 130.937 91.84C131.626 91.84 132.18 92.016 132.598 92.368C133.023 92.7127 133.25 93.1857 133.28 93.787H132.026C132.004 93.5157 131.894 93.2993 131.696 93.138C131.498 92.9767 131.23 92.896 130.893 92.896C130.563 92.896 130.31 92.9583 130.134 93.083C129.958 93.2077 129.87 93.3727 129.87 93.578C129.87 93.7393 129.928 93.875 130.046 93.985C130.163 94.095 130.306 94.183 130.475 94.249C130.643 94.3077 130.893 94.3847 131.223 94.48C131.663 94.5973 132.022 94.7183 132.301 94.843C132.587 94.9603 132.832 95.1363 133.038 95.371C133.243 95.6057 133.349 95.9173 133.357 96.306C133.357 96.6507 133.261 96.9587 133.071 97.23C132.88 97.5013 132.609 97.714 132.257 97.868C131.912 98.022 131.505 98.099 131.036 98.099ZM140.267 94.821C140.267 95.0483 140.252 95.2537 140.223 95.437H135.592C135.628 95.921 135.808 96.3097 136.131 96.603C136.453 96.8963 136.849 97.043 137.319 97.043C137.993 97.043 138.47 96.7607 138.749 96.196H140.102C139.918 96.7533 139.585 97.2117 139.101 97.571C138.624 97.923 138.03 98.099 137.319 98.099C136.739 98.099 136.219 97.9707 135.757 97.714C135.302 97.45 134.943 97.0833 134.679 96.614C134.422 96.1373 134.294 95.5873 134.294 94.964C134.294 94.3407 134.418 93.7943 134.668 93.325C134.924 92.8483 135.28 92.4817 135.735 92.225C136.197 91.9683 136.725 91.84 137.319 91.84C137.891 91.84 138.4 91.9647 138.848 92.214C139.295 92.4633 139.643 92.8153 139.893 93.27C140.142 93.7173 140.267 94.2343 140.267 94.821ZM138.958 94.425C138.95 93.963 138.785 93.5927 138.463 93.314C138.14 93.0353 137.74 92.896 137.264 92.896C136.831 92.896 136.461 93.0353 136.153 93.314C135.845 93.5853 135.661 93.9557 135.603 94.425H138.958ZM143.844 96.878L145.56 91.939H146.891L144.581 98H143.085L140.786 91.939H142.128L143.844 96.878ZM153.394 94.821C153.394 95.0483 153.379 95.2537 153.35 95.437H148.719C148.755 95.921 148.935 96.3097 149.258 96.603C149.58 96.8963 149.976 97.043 150.446 97.043C151.12 97.043 151.597 96.7607 151.876 96.196H153.229C153.045 96.7533 152.712 97.2117 152.228 97.571C151.751 97.923 151.157 98.099 150.446 98.099C149.866 98.099 149.346 97.9707 148.884 97.714C148.429 97.45 148.07 97.0833 147.806 96.614C147.549 96.1373 147.421 95.5873 147.421 94.964C147.421 94.3407 147.545 93.7943 147.795 93.325C148.051 92.8483 148.407 92.4817 148.862 92.225C149.324 91.9683 149.852 91.84 150.446 91.84C151.018 91.84 151.527 91.9647 151.975 92.214C152.422 92.4633 152.77 92.8153 153.02 93.27C153.269 93.7173 153.394 94.2343 153.394 94.821ZM152.085 94.425C152.077 93.963 151.912 93.5927 151.59 93.314C151.267 93.0353 150.867 92.896 150.391 92.896C149.958 92.896 149.588 93.0353 149.28 93.314C148.972 93.5853 148.788 93.9557 148.73 94.425H152.085ZM155.882 92.819C156.065 92.511 156.307 92.2727 156.608 92.104C156.916 91.928 157.279 91.84 157.697 91.84V93.138H157.378C156.886 93.138 156.512 93.2627 156.256 93.512C156.006 93.7613 155.882 94.194 155.882 94.81V98H154.628V91.939H155.882V92.819ZM164.404 94.821C164.404 95.0483 164.39 95.2537 164.36 95.437H159.729C159.766 95.921 159.946 96.3097 160.268 96.603C160.591 96.8963 160.987 97.043 161.456 97.043C162.131 97.043 162.608 96.7607 162.886 96.196H164.239C164.056 96.7533 163.722 97.2117 163.238 97.571C162.762 97.923 162.168 98.099 161.456 98.099C160.877 98.099 160.356 97.9707 159.894 97.714C159.44 97.45 159.08 97.0833 158.816 96.614C158.56 96.1373 158.431 95.5873 158.431 94.964C158.431 94.3407 158.556 93.7943 158.805 93.325C159.062 92.8483 159.418 92.4817 159.872 92.225C160.334 91.9683 160.862 91.84 161.456 91.84C162.028 91.84 162.538 91.9647 162.985 92.214C163.433 92.4633 163.781 92.8153 164.03 93.27C164.28 93.7173 164.404 94.2343 164.404 94.821ZM163.095 94.425C163.088 93.963 162.923 93.5927 162.6 93.314C162.278 93.0353 161.878 92.896 161.401 92.896C160.969 92.896 160.598 93.0353 160.29 93.314C159.982 93.5853 159.799 93.9557 159.74 94.425H163.095ZM170.696 98.099C170.219 98.099 169.79 98.0147 169.409 97.846C169.035 97.67 168.738 97.4353 168.518 97.142C168.298 96.8413 168.181 96.5077 168.166 96.141H169.464C169.486 96.3977 169.607 96.614 169.827 96.79C170.054 96.9587 170.337 97.043 170.674 97.043C171.026 97.043 171.297 96.977 171.488 96.845C171.686 96.7057 171.785 96.5297 171.785 96.317C171.785 96.0897 171.675 95.921 171.455 95.811C171.242 95.701 170.901 95.58 170.432 95.448C169.977 95.3233 169.607 95.2023 169.321 95.085C169.035 94.9677 168.786 94.788 168.573 94.546C168.368 94.304 168.265 93.985 168.265 93.589C168.265 93.2663 168.36 92.973 168.551 92.709C168.742 92.4377 169.013 92.225 169.365 92.071C169.724 91.917 170.135 91.84 170.597 91.84C171.286 91.84 171.84 92.016 172.258 92.368C172.683 92.7127 172.911 93.1857 172.94 93.787H171.686C171.664 93.5157 171.554 93.2993 171.356 93.138C171.158 92.9767 170.89 92.896 170.553 92.896C170.223 92.896 169.97 92.9583 169.794 93.083C169.618 93.2077 169.53 93.3727 169.53 93.578C169.53 93.7393 169.589 93.875 169.706 93.985C169.823 94.095 169.966 94.183 170.135 94.249C170.304 94.3077 170.553 94.3847 170.883 94.48C171.323 94.5973 171.682 94.7183 171.961 94.843C172.247 94.9603 172.493 95.1363 172.698 95.371C172.903 95.6057 173.01 95.9173 173.017 96.306C173.017 96.6507 172.922 96.9587 172.731 97.23C172.54 97.5013 172.269 97.714 171.917 97.868C171.572 98.022 171.165 98.099 170.696 98.099ZM179.828 91.939L176.11 100.849H174.812L176.044 97.901L173.657 91.939H175.054L176.759 96.559L178.53 91.939H179.828ZM182.974 98.099C182.498 98.099 182.069 98.0147 181.687 97.846C181.313 97.67 181.016 97.4353 180.796 97.142C180.576 96.8413 180.459 96.5077 180.444 96.141H181.742C181.764 96.3977 181.885 96.614 182.105 96.79C182.333 96.9587 182.615 97.043 182.952 97.043C183.304 97.043 183.576 96.977 183.766 96.845C183.964 96.7057 184.063 96.5297 184.063 96.317C184.063 96.0897 183.953 95.921 183.733 95.811C183.521 95.701 183.18 95.58 182.71 95.448C182.256 95.3233 181.885 95.2023 181.599 95.085C181.313 94.9677 181.064 94.788 180.851 94.546C180.646 94.304 180.543 93.985 180.543 93.589C180.543 93.2663 180.639 92.973 180.829 92.709C181.02 92.4377 181.291 92.225 181.643 92.071C182.003 91.917 182.413 91.84 182.875 91.84C183.565 91.84 184.118 92.016 184.536 92.368C184.962 92.7127 185.189 93.1857 185.218 93.787H183.964C183.942 93.5157 183.832 93.2993 183.634 93.138C183.436 92.9767 183.169 92.896 182.831 92.896C182.501 92.896 182.248 92.9583 182.072 93.083C181.896 93.2077 181.808 93.3727 181.808 93.578C181.808 93.7393 181.867 93.875 181.984 93.985C182.102 94.095 182.245 94.183 182.413 94.249C182.582 94.3077 182.831 94.3847 183.161 94.48C183.601 94.5973 183.961 94.7183 184.239 94.843C184.525 94.9603 184.771 95.1363 184.976 95.371C185.182 95.6057 185.288 95.9173 185.295 96.306C185.295 96.6507 185.2 96.9587 185.009 97.23C184.819 97.5013 184.547 97.714 184.195 97.868C183.851 98.022 183.444 98.099 182.974 98.099ZM188.113 92.962V96.317C188.113 96.5443 188.165 96.7093 188.267 96.812C188.377 96.9073 188.561 96.955 188.817 96.955H189.587V98H188.597C188.033 98 187.6 97.868 187.299 97.604C186.999 97.34 186.848 96.911 186.848 96.317V92.962H186.133V91.939H186.848V90.432H188.113V91.939H189.587V92.962H188.113ZM196.298 94.821C196.298 95.0483 196.283 95.2537 196.254 95.437H191.623C191.66 95.921 191.839 96.3097 192.162 96.603C192.485 96.8963 192.881 97.043 193.35 97.043C194.025 97.043 194.501 96.7607 194.78 96.196H196.133C195.95 96.7533 195.616 97.2117 195.132 97.571C194.655 97.923 194.061 98.099 193.35 98.099C192.771 98.099 192.25 97.9707 191.788 97.714C191.333 97.45 190.974 97.0833 190.71 96.614C190.453 96.1373 190.325 95.5873 190.325 94.964C190.325 94.3407 190.45 93.7943 190.699 93.325C190.956 92.8483 191.311 92.4817 191.766 92.225C192.228 91.9683 192.756 91.84 193.35 91.84C193.922 91.84 194.432 91.9647 194.879 92.214C195.326 92.4633 195.675 92.8153 195.924 93.27C196.173 93.7173 196.298 94.2343 196.298 94.821ZM194.989 94.425C194.982 93.963 194.817 93.5927 194.494 93.314C194.171 93.0353 193.772 92.896 193.295 92.896C192.862 92.896 192.492 93.0353 192.184 93.314C191.876 93.5853 191.693 93.9557 191.634 94.425H194.989ZM204.869 91.84C205.346 91.84 205.771 91.939 206.145 92.137C206.526 92.335 206.823 92.6283 207.036 93.017C207.256 93.4057 207.366 93.875 207.366 94.425V98H206.123V94.612C206.123 94.0693 205.987 93.655 205.716 93.369C205.445 93.0757 205.074 92.929 204.605 92.929C204.136 92.929 203.762 93.0757 203.483 93.369C203.212 93.655 203.076 94.0693 203.076 94.612V98H201.833V94.612C201.833 94.0693 201.697 93.655 201.426 93.369C201.155 93.0757 200.784 92.929 200.315 92.929C199.846 92.929 199.472 93.0757 199.193 93.369C198.922 93.655 198.786 94.0693 198.786 94.612V98H197.532V91.939H198.786V92.632C198.991 92.3827 199.252 92.1883 199.567 92.049C199.882 91.9097 200.22 91.84 200.579 91.84C201.063 91.84 201.496 91.9427 201.877 92.148C202.258 92.3533 202.552 92.6503 202.757 93.039C202.94 92.6723 203.226 92.3827 203.615 92.17C204.004 91.95 204.422 91.84 204.869 91.84ZM43.025 114.099C42.5483 114.099 42.1193 114.015 41.738 113.846C41.364 113.67 41.067 113.435 40.847 113.142C40.627 112.841 40.5097 112.508 40.495 112.141H41.793C41.815 112.398 41.936 112.614 42.156 112.79C42.3833 112.959 42.6657 113.043 43.003 113.043C43.355 113.043 43.6263 112.977 43.817 112.845C44.015 112.706 44.114 112.53 44.114 112.317C44.114 112.09 44.004 111.921 43.784 111.811C43.5713 111.701 43.2303 111.58 42.761 111.448C42.3063 111.323 41.936 111.202 41.65 111.085C41.364 110.968 41.1147 110.788 40.902 110.546C40.6967 110.304 40.594 109.985 40.594 109.589C40.594 109.266 40.6893 108.973 40.88 108.709C41.0707 108.438 41.342 108.225 41.694 108.071C42.0533 107.917 42.464 107.84 42.926 107.84C43.6153 107.84 44.169 108.016 44.587 108.368C45.0123 108.713 45.2397 109.186 45.269 109.787H44.015C43.993 109.516 43.883 109.299 43.685 109.138C43.487 108.977 43.2193 108.896 42.882 108.896C42.552 108.896 42.299 108.958 42.123 109.083C41.947 109.208 41.859 109.373 41.859 109.578C41.859 109.739 41.9177 109.875 42.035 109.985C42.1523 110.095 42.2953 110.183 42.464 110.249C42.6327 110.308 42.882 110.385 43.212 110.48C43.652 110.597 44.0113 110.718 44.29 110.843C44.576 110.96 44.8217 111.136 45.027 111.371C45.2323 111.606 45.3387 111.917 45.346 112.306C45.346 112.651 45.2507 112.959 45.06 113.23C44.8693 113.501 44.598 113.714 44.246 113.868C43.9013 114.022 43.4943 114.099 43.025 114.099ZM47.955 105.86V114H46.701V105.86H47.955ZM52.2304 114.099C51.6584 114.099 51.1414 113.971 50.6794 113.714C50.2174 113.45 49.8544 113.083 49.5904 112.614C49.3264 112.137 49.1944 111.587 49.1944 110.964C49.1944 110.348 49.33 109.802 49.6014 109.325C49.8727 108.848 50.243 108.482 50.7124 108.225C51.1817 107.968 51.706 107.84 52.2854 107.84C52.8647 107.84 53.389 107.968 53.8584 108.225C54.3277 108.482 54.698 108.848 54.9694 109.325C55.2407 109.802 55.3764 110.348 55.3764 110.964C55.3764 111.58 55.237 112.126 54.9584 112.603C54.6797 113.08 54.2984 113.45 53.8144 113.714C53.3377 113.971 52.8097 114.099 52.2304 114.099ZM52.2304 113.01C52.553 113.01 52.8537 112.933 53.1324 112.779C53.4184 112.625 53.6494 112.394 53.8254 112.086C54.0014 111.778 54.0894 111.404 54.0894 110.964C54.0894 110.524 54.005 110.154 53.8364 109.853C53.6677 109.545 53.444 109.314 53.1654 109.16C52.8867 109.006 52.586 108.929 52.2634 108.929C51.9407 108.929 51.64 109.006 51.3614 109.16C51.09 109.314 50.8737 109.545 50.7124 109.853C50.551 110.154 50.4704 110.524 50.4704 110.964C50.4704 111.617 50.6354 112.123 50.9654 112.482C51.3027 112.834 51.7244 113.01 52.2304 113.01ZM64.756 107.939L62.875 114H61.555L60.334 109.523L59.113 114H57.793L55.901 107.939H57.177L58.442 112.812L59.729 107.939H61.038L62.27 112.79L63.524 107.939H64.756ZM65.2752 110.942C65.2752 110.333 65.3998 109.794 65.6492 109.325C65.9058 108.856 66.2505 108.493 66.6832 108.236C67.1232 107.972 67.6108 107.84 68.1462 107.84C68.5422 107.84 68.9308 107.928 69.3122 108.104C69.7008 108.273 70.0088 108.5 70.2362 108.786V105.86H71.5012V114H70.2362V113.087C70.0308 113.38 69.7448 113.622 69.3782 113.813C69.0188 114.004 68.6045 114.099 68.1352 114.099C67.6072 114.099 67.1232 113.967 66.6832 113.703C66.2505 113.432 65.9058 113.058 65.6492 112.581C65.3998 112.097 65.2752 111.551 65.2752 110.942ZM70.2362 110.964C70.2362 110.546 70.1482 110.183 69.9722 109.875C69.8035 109.567 69.5798 109.332 69.3012 109.171C69.0225 109.01 68.7218 108.929 68.3992 108.929C68.0765 108.929 67.7758 109.01 67.4972 109.171C67.2185 109.325 66.9912 109.556 66.8152 109.864C66.6465 110.165 66.5622 110.524 66.5622 110.942C66.5622 111.36 66.6465 111.727 66.8152 112.042C66.9912 112.357 67.2185 112.599 67.4972 112.768C67.7832 112.929 68.0838 113.01 68.3992 113.01C68.7218 113.01 69.0225 112.929 69.3012 112.768C69.5798 112.607 69.8035 112.372 69.9722 112.064C70.1482 111.749 70.2362 111.382 70.2362 110.964ZM75.7772 114.099C75.2052 114.099 74.6882 113.971 74.2262 113.714C73.7642 113.45 73.4012 113.083 73.1372 112.614C72.8732 112.137 72.7412 111.587 72.7412 110.964C72.7412 110.348 72.8769 109.802 73.1482 109.325C73.4196 108.848 73.7899 108.482 74.2592 108.225C74.7286 107.968 75.2529 107.84 75.8322 107.84C76.4116 107.84 76.9359 107.968 77.4052 108.225C77.8746 108.482 78.2449 108.848 78.5162 109.325C78.7876 109.802 78.9232 110.348 78.9232 110.964C78.9232 111.58 78.7839 112.126 78.5052 112.603C78.2266 113.08 77.8452 113.45 77.3612 113.714C76.8846 113.971 76.3566 114.099 75.7772 114.099ZM75.7772 113.01C76.0999 113.01 76.4006 112.933 76.6792 112.779C76.9652 112.625 77.1962 112.394 77.3722 112.086C77.5482 111.778 77.6362 111.404 77.6362 110.964C77.6362 110.524 77.5519 110.154 77.3832 109.853C77.2146 109.545 76.9909 109.314 76.7122 109.16C76.4336 109.006 76.1329 108.929 75.8102 108.929C75.4876 108.929 75.1869 109.006 74.9082 109.16C74.6369 109.314 74.4206 109.545 74.2592 109.853C74.0979 110.154 74.0172 110.524 74.0172 110.964C74.0172 111.617 74.1822 112.123 74.5122 112.482C74.8496 112.834 75.2712 113.01 75.7772 113.01ZM88.3029 107.939L86.4219 114H85.1019L83.8809 109.523L82.6599 114H81.3399L79.4479 107.939H80.7239L81.9889 112.812L83.2759 107.939H84.5849L85.8169 112.79L87.0709 107.939H88.3029ZM92.298 107.84C92.7747 107.84 93.2 107.939 93.574 108.137C93.9554 108.335 94.2524 108.628 94.465 109.017C94.6777 109.406 94.784 109.875 94.784 110.425V114H93.541V110.612C93.541 110.069 93.4054 109.655 93.134 109.369C92.8627 109.076 92.4924 108.929 92.023 108.929C91.5537 108.929 91.1797 109.076 90.901 109.369C90.6297 109.655 90.494 110.069 90.494 110.612V114H89.24V107.939H90.494V108.632C90.6994 108.383 90.9597 108.188 91.275 108.049C91.5977 107.91 91.9387 107.84 92.298 107.84ZM96.8896 114.077C96.6623 114.077 96.4716 114 96.3176 113.846C96.1636 113.692 96.0866 113.501 96.0866 113.274C96.0866 113.047 96.1636 112.856 96.3176 112.702C96.4716 112.548 96.6623 112.471 96.8896 112.471C97.1096 112.471 97.2966 112.548 97.4506 112.702C97.6046 112.856 97.6816 113.047 97.6816 113.274C97.6816 113.501 97.6046 113.692 97.4506 113.846C97.2966 114 97.1096 114.077 96.8896 114.077Z"></path>
<path stroke-linejoin="round" stroke-linecap="round" stroke-width="1.5" stroke="#BFBFBF" d="M211.464 41.4642L218.536 48.5353M218.536 41.4642L211.464 48.5353"></path>
<path stroke-width="0.2" stroke="url(#paint1_linear_1005_12)" fill="url(#paint0_linear_1005_12)" d="M42.9231 37.0386L40.8462 37.7309L45 45.0001L49.1539 37.7309L47.077 37.0386V37.0386C46.4361 39.0681 43.564 39.0681 42.9231 37.0386V37.0386Z"></path>
<path stroke-width="0.2" stroke="url(#paint3_linear_1005_12)" fill="url(#paint2_linear_1005_12)" d="M47.0769 52.9614L49.1538 52.2691L45 44.9999L40.8461 52.2691L42.923 52.9614V52.9614C43.5639 50.9319 46.436 50.9319 47.0769 52.9614V52.9614Z"></path>
<path stroke-width="0.2" stroke="url(#paint5_linear_1005_12)" fill="url(#paint4_linear_1005_12)" d="M50.8563 39.2205L49.2183 37.768L44.9999 45L53.3722 44.9627L52.9333 42.8179V42.8179C50.8552 43.2776 49.4192 40.7904 50.8563 39.2205V39.2205Z"></path>
<path stroke-width="0.2" stroke="url(#paint7_linear_1005_12)" fill="url(#paint6_linear_1005_12)" d="M39.1437 50.7795L40.7817 52.232L45.0001 45L36.6278 45.0373L37.0667 47.1821V47.1821C39.1448 46.7224 40.5808 49.2096 39.1437 50.7795V50.7795Z"></path>
<path stroke-width="0.2" stroke="url(#paint9_linear_1005_12)" fill="url(#paint8_linear_1005_12)" d="M37.0663 42.818L36.6274 44.9629L44.9996 45.0001L40.7812 37.7682L39.1432 39.2207V39.2207C40.5804 40.7905 39.1444 43.2778 37.0663 42.818V42.818Z"></path>
<path stroke-width="0.2" stroke="url(#paint11_linear_1005_12)" fill="url(#paint10_linear_1005_12)" d="M52.9332 47.182L53.3721 45.0371L44.9999 44.9999L49.2183 52.2318L50.8563 50.7793V50.7793C49.4191 49.2095 50.8551 46.7222 52.9332 47.182V47.182Z"></path>
<rect stroke-width="1.38462" stroke="url(#paint13_linear_1005_12)" fill="url(#paint12_linear_1005_12)" rx="3.46154" height="6.92308" width="6.92308" y="41.5385" x="41.5385"></rect>
<defs>
<linearGradient gradientUnits="userSpaceOnUse" y2="53.3078" x2="53.3077" y1="36.6924" x1="36.6923" id="paint0_linear_1005_12">
<stop stop-color="#8A9199"></stop>
<stop stop-color="#66737D" offset="1"></stop>
</linearGradient>
<linearGradient gradientUnits="userSpaceOnUse" y2="53.3078" x2="53.3077" y1="36.6924" x1="36.6923" id="paint1_linear_1005_12">
<stop stop-color="#8A9199"></stop>
<stop stop-color="#66737D" offset="1"></stop>
</linearGradient>
<linearGradient gradientUnits="userSpaceOnUse" y2="53.3076" x2="53.3077" y1="36.6922" x1="36.6923" id="paint2_linear_1005_12">
<stop stop-color="#8A9199"></stop>
<stop stop-color="#66737D" offset="1"></stop>
</linearGradient>
<linearGradient gradientUnits="userSpaceOnUse" y2="53.3076" x2="53.3077" y1="36.6922" x1="36.6923" id="paint3_linear_1005_12">
<stop stop-color="#8A9199"></stop>
<stop stop-color="#66737D" offset="1"></stop>
</linearGradient>
<linearGradient gradientUnits="userSpaceOnUse" y2="53.3077" x2="53.3076" y1="36.6923" x1="36.6922" id="paint4_linear_1005_12">
<stop stop-color="#8A9199"></stop>
<stop stop-color="#66737D" offset="1"></stop>
</linearGradient>
<linearGradient gradientUnits="userSpaceOnUse" y2="53.3077" x2="53.3076" y1="36.6923" x1="36.6922" id="paint5_linear_1005_12">
<stop stop-color="#8A9199"></stop>
<stop stop-color="#66737D" offset="1"></stop>
</linearGradient>
<linearGradient gradientUnits="userSpaceOnUse" y2="53.3077" x2="53.3078" y1="36.6923" x1="36.6924" id="paint6_linear_1005_12">
<stop stop-color="#8A9199"></stop>
<stop stop-color="#66737D" offset="1"></stop>
</linearGradient>
<linearGradient gradientUnits="userSpaceOnUse" y2="53.3077" x2="53.3078" y1="36.6923" x1="36.6924" id="paint7_linear_1005_12">
<stop stop-color="#8A9199"></stop>
<stop stop-color="#66737D" offset="1"></stop>
</linearGradient>
<linearGradient gradientUnits="userSpaceOnUse" y2="53.3078" x2="53.3073" y1="36.6924" x1="36.692" id="paint8_linear_1005_12">
<stop stop-color="#8A9199"></stop>
<stop stop-color="#66737D" offset="1"></stop>
</linearGradient>
<linearGradient gradientUnits="userSpaceOnUse" y2="53.3078" x2="53.3073" y1="36.6924" x1="36.692" id="paint9_linear_1005_12">
<stop stop-color="#8A9199"></stop>
<stop stop-color="#66737D" offset="1"></stop>
</linearGradient>
<linearGradient gradientUnits="userSpaceOnUse" y2="53.3076" x2="53.3076" y1="36.6922" x1="36.6922" id="paint10_linear_1005_12">
<stop stop-color="#8A9199"></stop>
<stop stop-color="#66737D" offset="1"></stop>
</linearGradient>
<linearGradient gradientUnits="userSpaceOnUse" y2="53.3076" x2="53.3076" y1="36.6922" x1="36.6922" id="paint11_linear_1005_12">
<stop stop-color="#8A9199"></stop>
<stop stop-color="#66737D" offset="1"></stop>
</linearGradient>
<linearGradient gradientUnits="userSpaceOnUse" y2="47.077" x2="47.077" y1="42.9231" x1="42.9231" id="paint12_linear_1005_12">
<stop stop-color="#0669BC"></stop>
<stop stop-color="#0F4F93" offset="1"></stop>
</linearGradient>
<linearGradient gradientUnits="userSpaceOnUse" y2="48.1154" x2="47.7693" y1="42.2308" x1="41.8847" id="paint13_linear_1005_12">
<stop stop-color="#BEC4C9"></stop>
<stop stop-color="#F7F7F8" offset="1"></stop>
</linearGradient>
</defs>
</svg>
