<svg xmlns="http://www.w3.org/2000/svg" fill="none" viewBox="0 0 260 160" height="160" width="260">
<path fill-opacity="0.9" fill="#1A1A1A" d="M20 30C20 24.4772 24.4772 20 30 20H230C235.523 20 240 24.4772 240 30V110C240 115.523 235.523 120 230 120H30C24.4772 120 20 115.523 20 110V30Z"></path>
<path stroke-width="2" stroke-opacity="0.2" stroke="white" d="M30 19C23.9249 19 19 23.9249 19 30V110C19 116.075 23.9249 121 30 121H230C236.075 121 241 116.075 241 110V30C241 23.9249 236.075 19 230 19H30Z"></path>
<path fill="white" d="M75.928 47.296H72.436L71.836 49H70.408L73.396 40.648H74.98L77.968 49H76.528L75.928 47.296ZM75.544 46.18L74.188 42.304L72.82 46.18H75.544ZM80.6352 43.36C80.8672 43.056 81.1832 42.8 81.5832 42.592C81.9832 42.384 82.4352 42.28 82.9392 42.28C83.5152 42.28 84.0392 42.424 84.5112 42.712C84.9912 42.992 85.3672 43.388 85.6392 43.9C85.9112 44.412 86.0472 45 86.0472 45.664C86.0472 46.328 85.9112 46.924 85.6392 47.452C85.3672 47.972 84.9912 48.38 84.5112 48.676C84.0392 48.964 83.5152 49.108 82.9392 49.108C82.4352 49.108 81.9872 49.008 81.5952 48.808C81.2032 48.6 80.8832 48.344 80.6352 48.04V52.144H79.2672V42.388H80.6352V43.36ZM84.6552 45.664C84.6552 45.208 84.5592 44.816 84.3672 44.488C84.1832 44.152 83.9352 43.9 83.6232 43.732C83.3192 43.556 82.9912 43.468 82.6392 43.468C82.2952 43.468 81.9672 43.556 81.6552 43.732C81.3512 43.908 81.1032 44.164 80.9112 44.5C80.7272 44.836 80.6352 45.232 80.6352 45.688C80.6352 46.144 80.7272 46.544 80.9112 46.888C81.1032 47.224 81.3512 47.48 81.6552 47.656C81.9672 47.832 82.2952 47.92 82.6392 47.92C82.9912 47.92 83.3192 47.832 83.6232 47.656C83.9352 47.472 84.1832 47.208 84.3672 46.864C84.5592 46.52 84.6552 46.12 84.6552 45.664ZM88.768 43.36C89 43.056 89.316 42.8 89.716 42.592C90.116 42.384 90.568 42.28 91.072 42.28C91.648 42.28 92.172 42.424 92.644 42.712C93.124 42.992 93.5 43.388 93.772 43.9C94.044 44.412 94.18 45 94.18 45.664C94.18 46.328 94.044 46.924 93.772 47.452C93.5 47.972 93.124 48.38 92.644 48.676C92.172 48.964 91.648 49.108 91.072 49.108C90.568 49.108 90.12 49.008 89.728 48.808C89.336 48.6 89.016 48.344 88.768 48.04V52.144H87.4V42.388H88.768V43.36ZM92.788 45.664C92.788 45.208 92.692 44.816 92.5 44.488C92.316 44.152 92.068 43.9 91.756 43.732C91.452 43.556 91.124 43.468 90.772 43.468C90.428 43.468 90.1 43.556 89.788 43.732C89.484 43.908 89.236 44.164 89.044 44.5C88.86 44.836 88.768 45.232 88.768 45.688C88.768 46.144 88.86 46.544 89.044 46.888C89.236 47.224 89.484 47.48 89.788 47.656C90.1 47.832 90.428 47.92 90.772 47.92C91.124 47.92 91.452 47.832 91.756 47.656C92.068 47.472 92.316 47.208 92.5 46.864C92.692 46.52 92.788 46.12 92.788 45.664ZM107.434 40.66V49H106.066V43.288L103.522 49H102.574L100.018 43.288V49H98.65V40.66H100.126L103.054 47.2L105.97 40.66H107.434ZM108.776 45.664C108.776 45 108.912 44.412 109.184 43.9C109.464 43.388 109.84 42.992 110.312 42.712C110.792 42.424 111.32 42.28 111.896 42.28C112.416 42.28 112.868 42.384 113.252 42.592C113.644 42.792 113.956 43.044 114.188 43.348V42.388H115.568V49H114.188V48.016C113.956 48.328 113.64 48.588 113.24 48.796C112.84 49.004 112.384 49.108 111.872 49.108C111.304 49.108 110.784 48.964 110.312 48.676C109.84 48.38 109.464 47.972 109.184 47.452C108.912 46.924 108.776 46.328 108.776 45.664ZM114.188 45.688C114.188 45.232 114.092 44.836 113.9 44.5C113.716 44.164 113.472 43.908 113.168 43.732C112.864 43.556 112.536 43.468 112.184 43.468C111.832 43.468 111.504 43.556 111.2 43.732C110.896 43.9 110.648 44.152 110.456 44.488C110.272 44.816 110.18 45.208 110.18 45.664C110.18 46.12 110.272 46.52 110.456 46.864C110.648 47.208 110.896 47.472 111.2 47.656C111.512 47.832 111.84 47.92 112.184 47.92C112.536 47.92 112.864 47.832 113.168 47.656C113.472 47.48 113.716 47.224 113.9 46.888C114.092 46.544 114.188 46.144 114.188 45.688ZM120.701 42.28C121.221 42.28 121.685 42.388 122.093 42.604C122.509 42.82 122.833 43.14 123.065 43.564C123.297 43.988 123.413 44.5 123.413 45.1V49H122.057V45.304C122.057 44.712 121.909 44.26 121.613 43.948C121.317 43.628 120.913 43.468 120.401 43.468C119.889 43.468 119.481 43.628 119.177 43.948C118.881 44.26 118.733 44.712 118.733 45.304V49H117.365V42.388H118.733V43.144C118.957 42.872 119.241 42.66 119.585 42.508C119.937 42.356 120.309 42.28 120.701 42.28ZM124.702 45.664C124.702 45 124.838 44.412 125.11 43.9C125.39 43.388 125.766 42.992 126.238 42.712C126.718 42.424 127.246 42.28 127.822 42.28C128.342 42.28 128.794 42.384 129.178 42.592C129.57 42.792 129.882 43.044 130.114 43.348V42.388H131.494V49H130.114V48.016C129.882 48.328 129.566 48.588 129.166 48.796C128.766 49.004 128.31 49.108 127.798 49.108C127.23 49.108 126.71 48.964 126.238 48.676C125.766 48.38 125.39 47.972 125.11 47.452C124.838 46.924 124.702 46.328 124.702 45.664ZM130.114 45.688C130.114 45.232 130.018 44.836 129.826 44.5C129.642 44.164 129.398 43.908 129.094 43.732C128.79 43.556 128.462 43.468 128.11 43.468C127.758 43.468 127.43 43.556 127.126 43.732C126.822 43.9 126.574 44.152 126.382 44.488C126.198 44.816 126.106 45.208 126.106 45.664C126.106 46.12 126.198 46.52 126.382 46.864C126.574 47.208 126.822 47.472 127.126 47.656C127.438 47.832 127.766 47.92 128.11 47.92C128.462 47.92 128.79 47.832 129.094 47.656C129.398 47.48 129.642 47.224 129.826 46.888C130.018 46.544 130.114 46.144 130.114 45.688ZM135.955 42.28C136.467 42.28 136.919 42.384 137.311 42.592C137.711 42.792 138.023 43.044 138.247 43.348V42.388H139.627V49.108C139.627 49.716 139.499 50.256 139.243 50.728C138.987 51.208 138.615 51.584 138.127 51.856C137.647 52.128 137.071 52.264 136.399 52.264C135.503 52.264 134.759 52.052 134.167 51.628C133.575 51.212 133.239 50.644 133.159 49.924H134.515C134.619 50.268 134.839 50.544 135.175 50.752C135.519 50.968 135.927 51.076 136.399 51.076C136.951 51.076 137.395 50.908 137.731 50.572C138.075 50.236 138.247 49.748 138.247 49.108V48.004C138.015 48.316 137.699 48.58 137.299 48.796C136.907 49.004 136.459 49.108 135.955 49.108C135.379 49.108 134.851 48.964 134.371 48.676C133.899 48.38 133.523 47.972 133.243 47.452C132.971 46.924 132.835 46.328 132.835 45.664C132.835 45 132.971 44.412 133.243 43.9C133.523 43.388 133.899 42.992 134.371 42.712C134.851 42.424 135.379 42.28 135.955 42.28ZM138.247 45.688C138.247 45.232 138.151 44.836 137.959 44.5C137.775 44.164 137.531 43.908 137.227 43.732C136.923 43.556 136.595 43.468 136.243 43.468C135.891 43.468 135.563 43.556 135.259 43.732C134.955 43.9 134.707 44.152 134.515 44.488C134.331 44.816 134.239 45.208 134.239 45.664C134.239 46.12 134.331 46.52 134.515 46.864C134.707 47.208 134.955 47.472 135.259 47.656C135.571 47.832 135.899 47.92 136.243 47.92C136.595 47.92 136.923 47.832 137.227 47.656C137.531 47.48 137.775 47.224 137.959 46.888C138.151 46.544 138.247 46.144 138.247 45.688ZM147.483 45.532C147.483 45.78 147.467 46.004 147.435 46.204H142.383C142.423 46.732 142.619 47.156 142.971 47.476C143.323 47.796 143.755 47.956 144.267 47.956C145.003 47.956 145.523 47.648 145.827 47.032H147.303C147.103 47.64 146.739 48.14 146.211 48.532C145.691 48.916 145.043 49.108 144.267 49.108C143.635 49.108 143.067 48.968 142.563 48.688C142.067 48.4 141.675 48 141.387 47.488C141.107 46.968 140.967 46.368 140.967 45.688C140.967 45.008 141.103 44.412 141.375 43.9C141.655 43.38 142.043 42.98 142.539 42.7C143.043 42.42 143.619 42.28 144.267 42.28C144.891 42.28 145.447 42.416 145.935 42.688C146.423 42.96 146.803 43.344 147.075 43.84C147.347 44.328 147.483 44.892 147.483 45.532ZM146.055 45.1C146.047 44.596 145.867 44.192 145.515 43.888C145.163 43.584 144.727 43.432 144.207 43.432C143.735 43.432 143.331 43.584 142.995 43.888C142.659 44.184 142.459 44.588 142.395 45.1H146.055ZM150.198 43.348C150.398 43.012 150.662 42.752 150.99 42.568C151.326 42.376 151.722 42.28 152.178 42.28V43.696H151.83C151.294 43.696 150.886 43.832 150.606 44.104C150.334 44.376 150.198 44.848 150.198 45.52V49H148.83V42.388H150.198V43.348Z"></path>
<path fill="#BFBFBF" d="M45.324 74.355V75.378H42.079V77.633H44.609V78.656H42.079V82H40.825V74.355H45.324ZM46.0681 78.942C46.0681 78.3333 46.1928 77.7943 46.4421 77.325C46.6988 76.8557 47.0435 76.4927 47.4761 76.236C47.9161 75.972 48.4001 75.84 48.9281 75.84C49.4048 75.84 49.8191 75.9353 50.1711 76.126C50.5305 76.3093 50.8165 76.5403 51.0291 76.819V75.939H52.2941V82H51.0291V81.098C50.8165 81.384 50.5268 81.6223 50.1601 81.813C49.7935 82.0037 49.3755 82.099 48.9061 82.099C48.3855 82.099 47.9088 81.967 47.4761 81.703C47.0435 81.4317 46.6988 81.0577 46.4421 80.581C46.1928 80.097 46.0681 79.5507 46.0681 78.942ZM51.0291 78.964C51.0291 78.546 50.9411 78.183 50.7651 77.875C50.5965 77.567 50.3728 77.3323 50.0941 77.171C49.8155 77.0097 49.5148 76.929 49.1921 76.929C48.8695 76.929 48.5688 77.0097 48.2901 77.171C48.0115 77.325 47.7841 77.556 47.6081 77.864C47.4395 78.1647 47.3551 78.524 47.3551 78.942C47.3551 79.36 47.4395 79.7267 47.6081 80.042C47.7841 80.3573 48.0115 80.5993 48.2901 80.768C48.5761 80.9293 48.8768 81.01 49.1921 81.01C49.5148 81.01 49.8155 80.9293 50.0941 80.768C50.3728 80.6067 50.5965 80.372 50.7651 80.064C50.9411 79.7487 51.0291 79.382 51.0291 78.964ZM54.5792 75.136C54.3519 75.136 54.1612 75.059 54.0072 74.905C53.8532 74.751 53.7762 74.5603 53.7762 74.333C53.7762 74.1057 53.8532 73.915 54.0072 73.761C54.1612 73.607 54.3519 73.53 54.5792 73.53C54.7992 73.53 54.9862 73.607 55.1402 73.761C55.2942 73.915 55.3712 74.1057 55.3712 74.333C55.3712 74.5603 55.2942 74.751 55.1402 74.905C54.9862 75.059 54.7992 75.136 54.5792 75.136ZM55.1952 75.939V82H53.9412V75.939H55.1952ZM58.0956 73.86V82H56.8416V73.86H58.0956ZM65.297 78.821C65.297 79.0483 65.2823 79.2537 65.253 79.437H60.622C60.6587 79.921 60.8383 80.3097 61.161 80.603C61.4837 80.8963 61.8797 81.043 62.349 81.043C63.0237 81.043 63.5003 80.7607 63.779 80.196H65.132C64.9487 80.7533 64.615 81.2117 64.131 81.571C63.6543 81.923 63.0603 82.099 62.349 82.099C61.7697 82.099 61.249 81.9707 60.787 81.714C60.3323 81.45 59.973 81.0833 59.709 80.614C59.4523 80.1373 59.324 79.5873 59.324 78.964C59.324 78.3407 59.4487 77.7943 59.698 77.325C59.9547 76.8483 60.3103 76.4817 60.765 76.225C61.227 75.9683 61.755 75.84 62.349 75.84C62.921 75.84 63.4307 75.9647 63.878 76.214C64.3253 76.4633 64.6737 76.8153 64.923 77.27C65.1723 77.7173 65.297 78.2343 65.297 78.821ZM63.988 78.425C63.9807 77.963 63.8157 77.5927 63.493 77.314C63.1703 77.0353 62.7707 76.896 62.294 76.896C61.8613 76.896 61.491 77.0353 61.183 77.314C60.875 77.5853 60.6917 77.9557 60.633 78.425H63.988ZM66.1131 78.942C66.1131 78.3333 66.2377 77.7943 66.4871 77.325C66.7437 76.8557 67.0884 76.4927 67.5211 76.236C67.9611 75.972 68.4487 75.84 68.9841 75.84C69.3801 75.84 69.7687 75.928 70.1501 76.104C70.5387 76.2727 70.8467 76.5 71.0741 76.786V73.86H72.3391V82H71.0741V81.087C70.8687 81.3803 70.5827 81.6223 70.2161 81.813C69.8567 82.0037 69.4424 82.099 68.9731 82.099C68.4451 82.099 67.9611 81.967 67.5211 81.703C67.0884 81.4317 66.7437 81.0577 66.4871 80.581C66.2377 80.097 66.1131 79.5507 66.1131 78.942ZM71.0741 78.964C71.0741 78.546 70.9861 78.183 70.8101 77.875C70.6414 77.567 70.4177 77.3323 70.1391 77.171C69.8604 77.0097 69.5597 76.929 69.2371 76.929C68.9144 76.929 68.6137 77.0097 68.3351 77.171C68.0564 77.325 67.8291 77.556 67.6531 77.864C67.4844 78.1647 67.4001 78.524 67.4001 78.942C67.4001 79.36 67.4844 79.7267 67.6531 80.042C67.8291 80.3573 68.0564 80.5993 68.3351 80.768C68.6211 80.9293 68.9217 81.01 69.2371 81.01C69.5597 81.01 69.8604 80.9293 70.1391 80.768C70.4177 80.6067 70.6414 80.372 70.8101 80.064C70.9861 79.7487 71.0741 79.382 71.0741 78.964ZM78.3066 76.962V80.317C78.3066 80.5443 78.3579 80.7093 78.4606 80.812C78.5706 80.9073 78.7539 80.955 79.0106 80.955H79.7806V82H78.7906C78.2259 82 77.7932 81.868 77.4926 81.604C77.1919 81.34 77.0416 80.911 77.0416 80.317V76.962H76.3266V75.939H77.0416V74.432H78.3066V75.939H79.7806V76.962H78.3066ZM83.5653 82.099C82.9933 82.099 82.4763 81.9707 82.0143 81.714C81.5523 81.45 81.1893 81.0833 80.9253 80.614C80.6613 80.1373 80.5293 79.5873 80.5293 78.964C80.5293 78.348 80.665 77.8017 80.9363 77.325C81.2077 76.8483 81.578 76.4817 82.0473 76.225C82.5167 75.9683 83.041 75.84 83.6203 75.84C84.1997 75.84 84.724 75.9683 85.1933 76.225C85.6627 76.4817 86.033 76.8483 86.3043 77.325C86.5757 77.8017 86.7113 78.348 86.7113 78.964C86.7113 79.58 86.572 80.1263 86.2933 80.603C86.0147 81.0797 85.6333 81.45 85.1493 81.714C84.6727 81.9707 84.1447 82.099 83.5653 82.099ZM83.5653 81.01C83.888 81.01 84.1887 80.933 84.4673 80.779C84.7533 80.625 84.9843 80.394 85.1603 80.086C85.3363 79.778 85.4243 79.404 85.4243 78.964C85.4243 78.524 85.34 78.1537 85.1713 77.853C85.0027 77.545 84.779 77.314 84.5003 77.16C84.2217 77.006 83.921 76.929 83.5983 76.929C83.2757 76.929 82.975 77.006 82.6963 77.16C82.425 77.314 82.2087 77.545 82.0473 77.853C81.886 78.1537 81.8053 78.524 81.8053 78.964C81.8053 79.6167 81.9703 80.1227 82.3003 80.482C82.6377 80.834 83.0593 81.01 83.5653 81.01ZM93.4374 82.099C92.8654 82.099 92.3484 81.9707 91.8864 81.714C91.4244 81.45 91.0614 81.0833 90.7974 80.614C90.5334 80.1373 90.4014 79.5873 90.4014 78.964C90.4014 78.348 90.5371 77.8017 90.8084 77.325C91.0797 76.8483 91.4501 76.4817 91.9194 76.225C92.3887 75.9683 92.9131 75.84 93.4924 75.84C94.0717 75.84 94.5961 75.9683 95.0654 76.225C95.5347 76.4817 95.9051 76.8483 96.1764 77.325C96.4477 77.8017 96.5834 78.348 96.5834 78.964C96.5834 79.58 96.4441 80.1263 96.1654 80.603C95.8867 81.0797 95.5054 81.45 95.0214 81.714C94.5447 81.9707 94.0167 82.099 93.4374 82.099ZM93.4374 81.01C93.7601 81.01 94.0607 80.933 94.3394 80.779C94.6254 80.625 94.8564 80.394 95.0324 80.086C95.2084 79.778 95.2964 79.404 95.2964 78.964C95.2964 78.524 95.2121 78.1537 95.0434 77.853C94.8747 77.545 94.6511 77.314 94.3724 77.16C94.0937 77.006 93.7931 76.929 93.4704 76.929C93.1477 76.929 92.8471 77.006 92.5684 77.16C92.2971 77.314 92.0807 77.545 91.9194 77.853C91.7581 78.1537 91.6774 78.524 91.6774 78.964C91.6774 79.6167 91.8424 80.1227 92.1724 80.482C92.5097 80.834 92.9314 81.01 93.4374 81.01ZM99.077 76.83C99.2897 76.5513 99.5794 76.3167 99.946 76.126C100.313 75.9353 100.727 75.84 101.189 75.84C101.717 75.84 102.197 75.972 102.63 76.236C103.07 76.4927 103.415 76.8557 103.664 77.325C103.913 77.7943 104.038 78.3333 104.038 78.942C104.038 79.5507 103.913 80.097 103.664 80.581C103.415 81.0577 103.07 81.4317 102.63 81.703C102.197 81.967 101.717 82.099 101.189 82.099C100.727 82.099 100.316 82.0073 99.957 81.824C99.5977 81.6333 99.3044 81.3987 99.077 81.12V84.882H97.823V75.939H99.077V76.83ZM102.762 78.942C102.762 78.524 102.674 78.1647 102.498 77.864C102.329 77.556 102.102 77.325 101.816 77.171C101.537 77.0097 101.237 76.929 100.914 76.929C100.599 76.929 100.298 77.0097 100.012 77.171C99.7334 77.3323 99.506 77.567 99.33 77.875C99.1614 78.183 99.077 78.546 99.077 78.964C99.077 79.382 99.1614 79.7487 99.33 80.064C99.506 80.372 99.7334 80.6067 100.012 80.768C100.298 80.9293 100.599 81.01 100.914 81.01C101.237 81.01 101.537 80.9293 101.816 80.768C102.102 80.5993 102.329 80.3573 102.498 80.042C102.674 79.7267 102.762 79.36 102.762 78.942ZM110.833 78.821C110.833 79.0483 110.818 79.2537 110.789 79.437H106.158C106.195 79.921 106.374 80.3097 106.697 80.603C107.02 80.8963 107.416 81.043 107.885 81.043C108.56 81.043 109.036 80.7607 109.315 80.196H110.668C110.485 80.7533 110.151 81.2117 109.667 81.571C109.19 81.923 108.596 82.099 107.885 82.099C107.306 82.099 106.785 81.9707 106.323 81.714C105.868 81.45 105.509 81.0833 105.245 80.614C104.988 80.1373 104.86 79.5873 104.86 78.964C104.86 78.3407 104.985 77.7943 105.234 77.325C105.491 76.8483 105.846 76.4817 106.301 76.225C106.763 75.9683 107.291 75.84 107.885 75.84C108.457 75.84 108.967 75.9647 109.414 76.214C109.861 76.4633 110.21 76.8153 110.459 77.27C110.708 77.7173 110.833 78.2343 110.833 78.821ZM109.524 78.425C109.517 77.963 109.352 77.5927 109.029 77.314C108.706 77.0353 108.307 76.896 107.83 76.896C107.397 76.896 107.027 77.0353 106.719 77.314C106.411 77.5853 106.228 77.9557 106.169 78.425H109.524ZM115.125 75.84C115.602 75.84 116.027 75.939 116.401 76.137C116.783 76.335 117.08 76.6283 117.292 77.017C117.505 77.4057 117.611 77.875 117.611 78.425V82H116.368V78.612C116.368 78.0693 116.233 77.655 115.961 77.369C115.69 77.0757 115.32 76.929 114.85 76.929C114.381 76.929 114.007 77.0757 113.728 77.369C113.457 77.655 113.321 78.0693 113.321 78.612V82H112.067V75.939H113.321V76.632C113.527 76.3827 113.787 76.1883 114.102 76.049C114.425 75.9097 114.766 75.84 115.125 75.84ZM123.531 76.962V80.317C123.531 80.5443 123.582 80.7093 123.685 80.812C123.795 80.9073 123.978 80.955 124.235 80.955H125.005V82H124.015C123.45 82 123.018 81.868 122.717 81.604C122.416 81.34 122.266 80.911 122.266 80.317V76.962H121.551V75.939H122.266V74.432H123.531V75.939H125.005V76.962H123.531ZM129.296 75.84C129.758 75.84 130.169 75.939 130.528 76.137C130.895 76.335 131.181 76.6283 131.386 77.017C131.599 77.4057 131.705 77.875 131.705 78.425V82H130.462V78.612C130.462 78.0693 130.326 77.655 130.055 77.369C129.784 77.0757 129.413 76.929 128.944 76.929C128.475 76.929 128.101 77.0757 127.822 77.369C127.551 77.655 127.415 78.0693 127.415 78.612V82H126.161V73.86H127.415V76.643C127.628 76.3863 127.895 76.1883 128.218 76.049C128.548 75.9097 128.907 75.84 129.296 75.84ZM138.859 78.821C138.859 79.0483 138.845 79.2537 138.815 79.437H134.184C134.221 79.921 134.401 80.3097 134.723 80.603C135.046 80.8963 135.442 81.043 135.911 81.043C136.586 81.043 137.063 80.7607 137.341 80.196H138.694C138.511 80.7533 138.177 81.2117 137.693 81.571C137.217 81.923 136.623 82.099 135.911 82.099C135.332 82.099 134.811 81.9707 134.349 81.714C133.895 81.45 133.535 81.0833 133.271 80.614C133.015 80.1373 132.886 79.5873 132.886 78.964C132.886 78.3407 133.011 77.7943 133.26 77.325C133.517 76.8483 133.873 76.4817 134.327 76.225C134.789 75.9683 135.317 75.84 135.911 75.84C136.483 75.84 136.993 75.9647 137.44 76.214C137.888 76.4633 138.236 76.8153 138.485 77.27C138.735 77.7173 138.859 78.2343 138.859 78.821ZM137.55 78.425C137.543 77.963 137.378 77.5927 137.055 77.314C136.733 77.0353 136.333 76.896 135.856 76.896C135.424 76.896 135.053 77.0353 134.745 77.314C134.437 77.5853 134.254 77.9557 134.195 78.425H137.55ZM142.533 78.942C142.533 78.3333 142.658 77.7943 142.907 77.325C143.164 76.8557 143.508 76.4927 143.941 76.236C144.381 75.972 144.865 75.84 145.393 75.84C145.87 75.84 146.284 75.9353 146.636 76.126C146.995 76.3093 147.281 76.5403 147.494 76.819V75.939H148.759V82H147.494V81.098C147.281 81.384 146.992 81.6223 146.625 81.813C146.258 82.0037 145.84 82.099 145.371 82.099C144.85 82.099 144.374 81.967 143.941 81.703C143.508 81.4317 143.164 81.0577 142.907 80.581C142.658 80.097 142.533 79.5507 142.533 78.942ZM147.494 78.964C147.494 78.546 147.406 78.183 147.23 77.875C147.061 77.567 146.838 77.3323 146.559 77.171C146.28 77.0097 145.98 76.929 145.657 76.929C145.334 76.929 145.034 77.0097 144.755 77.171C144.476 77.325 144.249 77.556 144.073 77.864C143.904 78.1647 143.82 78.524 143.82 78.942C143.82 79.36 143.904 79.7267 144.073 80.042C144.249 80.3573 144.476 80.5993 144.755 80.768C145.041 80.9293 145.342 81.01 145.657 81.01C145.98 81.01 146.28 80.9293 146.559 80.768C146.838 80.6067 147.061 80.372 147.23 80.064C147.406 79.7487 147.494 79.382 147.494 78.964ZM151.66 76.83C151.873 76.5513 152.162 76.3167 152.529 76.126C152.896 75.9353 153.31 75.84 153.772 75.84C154.3 75.84 154.78 75.972 155.213 76.236C155.653 76.4927 155.998 76.8557 156.247 77.325C156.496 77.7943 156.621 78.3333 156.621 78.942C156.621 79.5507 156.496 80.097 156.247 80.581C155.998 81.0577 155.653 81.4317 155.213 81.703C154.78 81.967 154.3 82.099 153.772 82.099C153.31 82.099 152.899 82.0073 152.54 81.824C152.181 81.6333 151.887 81.3987 151.66 81.12V84.882H150.406V75.939H151.66V76.83ZM155.345 78.942C155.345 78.524 155.257 78.1647 155.081 77.864C154.912 77.556 154.685 77.325 154.399 77.171C154.12 77.0097 153.82 76.929 153.497 76.929C153.182 76.929 152.881 77.0097 152.595 77.171C152.316 77.3323 152.089 77.567 151.913 77.875C151.744 78.183 151.66 78.546 151.66 78.964C151.66 79.382 151.744 79.7487 151.913 80.064C152.089 80.372 152.316 80.6067 152.595 80.768C152.881 80.9293 153.182 81.01 153.497 81.01C153.82 81.01 154.12 80.9293 154.399 80.768C154.685 80.5993 154.912 80.3573 155.081 80.042C155.257 79.7267 155.345 79.36 155.345 78.942ZM159.115 76.83C159.328 76.5513 159.617 76.3167 159.984 76.126C160.351 75.9353 160.765 75.84 161.227 75.84C161.755 75.84 162.235 75.972 162.668 76.236C163.108 76.4927 163.453 76.8557 163.702 77.325C163.951 77.7943 164.076 78.3333 164.076 78.942C164.076 79.5507 163.951 80.097 163.702 80.581C163.453 81.0577 163.108 81.4317 162.668 81.703C162.235 81.967 161.755 82.099 161.227 82.099C160.765 82.099 160.354 82.0073 159.995 81.824C159.636 81.6333 159.342 81.3987 159.115 81.12V84.882H157.861V75.939H159.115V76.83ZM162.8 78.942C162.8 78.524 162.712 78.1647 162.536 77.864C162.367 77.556 162.14 77.325 161.854 77.171C161.575 77.0097 161.275 76.929 160.952 76.929C160.637 76.929 160.336 77.0097 160.05 77.171C159.771 77.3323 159.544 77.567 159.368 77.875C159.199 78.183 159.115 78.546 159.115 78.964C159.115 79.382 159.199 79.7487 159.368 80.064C159.544 80.372 159.771 80.6067 160.05 80.768C160.336 80.9293 160.637 81.01 160.952 81.01C161.275 81.01 161.575 80.9293 161.854 80.768C162.14 80.5993 162.367 80.3573 162.536 80.042C162.712 79.7267 162.8 79.36 162.8 78.942ZM165.822 82.077C165.595 82.077 165.404 82 165.25 81.846C165.096 81.692 165.019 81.5013 165.019 81.274C165.019 81.0467 165.096 80.856 165.25 80.702C165.404 80.548 165.595 80.471 165.822 80.471C166.042 80.471 166.229 80.548 166.383 80.702C166.537 80.856 166.614 81.0467 166.614 81.274C166.614 81.5013 166.537 81.692 166.383 81.846C166.229 82 166.042 82.077 165.822 82.077ZM175.766 74.355V75.378H173.731V82H172.477V75.378H170.431V74.355H175.766ZM178.29 76.819C178.473 76.511 178.715 76.2727 179.016 76.104C179.324 75.928 179.687 75.84 180.105 75.84V77.138H179.786C179.295 77.138 178.921 77.2627 178.664 77.512C178.415 77.7613 178.29 78.194 178.29 78.81V82H177.036V75.939H178.29V76.819ZM186.714 75.939L182.996 84.849H181.698L182.93 81.901L180.543 75.939H181.94L183.645 80.559L185.416 75.939H186.714ZM191.98 76.962V80.317C191.98 80.5443 192.032 80.7093 192.134 80.812C192.244 80.9073 192.428 80.955 192.684 80.955H193.454V82H192.464C191.9 82 191.467 81.868 191.166 81.604C190.866 81.34 190.715 80.911 190.715 80.317V76.962H190V75.939H190.715V74.432H191.98V75.939H193.454V76.962H191.98ZM197.239 82.099C196.667 82.099 196.15 81.9707 195.688 81.714C195.226 81.45 194.863 81.0833 194.599 80.614C194.335 80.1373 194.203 79.5873 194.203 78.964C194.203 78.348 194.339 77.8017 194.61 77.325C194.881 76.8483 195.252 76.4817 195.721 76.225C196.19 75.9683 196.715 75.84 197.294 75.84C197.873 75.84 198.398 75.9683 198.867 76.225C199.336 76.4817 199.707 76.8483 199.978 77.325C200.249 77.8017 200.385 78.348 200.385 78.964C200.385 79.58 200.246 80.1263 199.967 80.603C199.688 81.0797 199.307 81.45 198.823 81.714C198.346 81.9707 197.818 82.099 197.239 82.099ZM197.239 81.01C197.562 81.01 197.862 80.933 198.141 80.779C198.427 80.625 198.658 80.394 198.834 80.086C199.01 79.778 199.098 79.404 199.098 78.964C199.098 78.524 199.014 78.1537 198.845 77.853C198.676 77.545 198.453 77.314 198.174 77.16C197.895 77.006 197.595 76.929 197.272 76.929C196.949 76.929 196.649 77.006 196.37 77.16C196.099 77.314 195.882 77.545 195.721 77.853C195.56 78.1537 195.479 78.524 195.479 78.964C195.479 79.6167 195.644 80.1227 195.974 80.482C196.311 80.834 196.733 81.01 197.239 81.01ZM41.463 91.136C41.2357 91.136 41.045 91.059 40.891 90.905C40.737 90.751 40.66 90.5603 40.66 90.333C40.66 90.1057 40.737 89.915 40.891 89.761C41.045 89.607 41.2357 89.53 41.463 89.53C41.683 89.53 41.87 89.607 42.024 89.761C42.178 89.915 42.255 90.1057 42.255 90.333C42.255 90.5603 42.178 90.751 42.024 90.905C41.87 91.059 41.683 91.136 41.463 91.136ZM42.079 91.939V98H40.825V91.939H42.079ZM46.7834 91.84C47.2601 91.84 47.6854 91.939 48.0594 92.137C48.4407 92.335 48.7377 92.6283 48.9504 93.017C49.1631 93.4057 49.2694 93.875 49.2694 94.425V98H48.0264V94.612C48.0264 94.0693 47.8907 93.655 47.6194 93.369C47.3481 93.0757 46.9777 92.929 46.5084 92.929C46.0391 92.929 45.6651 93.0757 45.3864 93.369C45.1151 93.655 44.9794 94.0693 44.9794 94.612V98H43.7254V91.939H44.9794V92.632C45.1847 92.3827 45.4451 92.1883 45.7604 92.049C46.0831 91.9097 46.4241 91.84 46.7834 91.84ZM53.0689 98.099C52.5923 98.099 52.1633 98.0147 51.7819 97.846C51.4079 97.67 51.1109 97.4353 50.8909 97.142C50.6709 96.8413 50.5536 96.5077 50.5389 96.141H51.8369C51.8589 96.3977 51.9799 96.614 52.1999 96.79C52.4273 96.9587 52.7096 97.043 53.0469 97.043C53.3989 97.043 53.6703 96.977 53.8609 96.845C54.0589 96.7057 54.1579 96.5297 54.1579 96.317C54.1579 96.0897 54.0479 95.921 53.8279 95.811C53.6153 95.701 53.2743 95.58 52.8049 95.448C52.3503 95.3233 51.9799 95.2023 51.6939 95.085C51.4079 94.9677 51.1586 94.788 50.9459 94.546C50.7406 94.304 50.6379 93.985 50.6379 93.589C50.6379 93.2663 50.7333 92.973 50.9239 92.709C51.1146 92.4377 51.3859 92.225 51.7379 92.071C52.0973 91.917 52.5079 91.84 52.9699 91.84C53.6593 91.84 54.2129 92.016 54.6309 92.368C55.0563 92.7127 55.2836 93.1857 55.3129 93.787H54.0589C54.0369 93.5157 53.9269 93.2993 53.7289 93.138C53.5309 92.9767 53.2633 92.896 52.9259 92.896C52.5959 92.896 52.3429 92.9583 52.1669 93.083C51.9909 93.2077 51.9029 93.3727 51.9029 93.578C51.9029 93.7393 51.9616 93.875 52.0789 93.985C52.1963 94.095 52.3393 94.183 52.5079 94.249C52.6766 94.3077 52.9259 94.3847 53.2559 94.48C53.6959 94.5973 54.0553 94.7183 54.3339 94.843C54.6199 94.9603 54.8656 95.1363 55.0709 95.371C55.2763 95.6057 55.3826 95.9173 55.3899 96.306C55.3899 96.6507 55.2946 96.9587 55.1039 97.23C54.9133 97.5013 54.6419 97.714 54.2899 97.868C53.9453 98.022 53.5383 98.099 53.0689 98.099ZM58.2079 92.962V96.317C58.2079 96.5443 58.2593 96.7093 58.3619 96.812C58.4719 96.9073 58.6553 96.955 58.9119 96.955H59.6819V98H58.6919C58.1273 98 57.6946 97.868 57.3939 97.604C57.0933 97.34 56.9429 96.911 56.9429 96.317V92.962H56.2279V91.939H56.9429V90.432H58.2079V91.939H59.6819V92.962H58.2079ZM60.4197 94.942C60.4197 94.3333 60.5444 93.7943 60.7937 93.325C61.0504 92.8557 61.395 92.4927 61.8277 92.236C62.2677 91.972 62.7517 91.84 63.2797 91.84C63.7564 91.84 64.1707 91.9353 64.5227 92.126C64.882 92.3093 65.168 92.5403 65.3807 92.819V91.939H66.6457V98H65.3807V97.098C65.168 97.384 64.8784 97.6223 64.5117 97.813C64.145 98.0037 63.727 98.099 63.2577 98.099C62.737 98.099 62.2604 97.967 61.8277 97.703C61.395 97.4317 61.0504 97.0577 60.7937 96.581C60.5444 96.097 60.4197 95.5507 60.4197 94.942ZM65.3807 94.964C65.3807 94.546 65.2927 94.183 65.1167 93.875C64.948 93.567 64.7244 93.3323 64.4457 93.171C64.167 93.0097 63.8664 92.929 63.5437 92.929C63.221 92.929 62.9204 93.0097 62.6417 93.171C62.363 93.325 62.1357 93.556 61.9597 93.864C61.791 94.1647 61.7067 94.524 61.7067 94.942C61.7067 95.36 61.791 95.7267 61.9597 96.042C62.1357 96.3573 62.363 96.5993 62.6417 96.768C62.9277 96.9293 63.2284 97.01 63.5437 97.01C63.8664 97.01 64.167 96.9293 64.4457 96.768C64.7244 96.6067 64.948 96.372 65.1167 96.064C65.2927 95.7487 65.3807 95.382 65.3807 94.964ZM69.5468 89.86V98H68.2928V89.86H69.5468ZM72.4472 89.86V98H71.1932V89.86H72.4472ZM77.589 91.136C77.3616 91.136 77.171 91.059 77.017 90.905C76.863 90.751 76.786 90.5603 76.786 90.333C76.786 90.1057 76.863 89.915 77.017 89.761C77.171 89.607 77.3616 89.53 77.589 89.53C77.809 89.53 77.996 89.607 78.15 89.761C78.304 89.915 78.381 90.1057 78.381 90.333C78.381 90.5603 78.304 90.751 78.15 90.905C77.996 91.059 77.809 91.136 77.589 91.136ZM78.205 91.939V98H76.951V91.939H78.205ZM81.3144 92.962V96.317C81.3144 96.5443 81.3657 96.7093 81.4684 96.812C81.5784 96.9073 81.7617 96.955 82.0184 96.955H82.7884V98H81.7984C81.2337 98 80.801 97.868 80.5004 97.604C80.1997 97.34 80.0494 96.911 80.0494 96.317V92.962H79.3344V91.939H80.0494V90.432H81.3144V91.939H82.7884V92.962H81.3144ZM86.3836 94.942C86.3836 94.3333 86.5082 93.7943 86.7576 93.325C87.0142 92.8557 87.3589 92.4927 87.7916 92.236C88.2316 91.972 88.7156 91.84 89.2436 91.84C89.7202 91.84 90.1346 91.9353 90.4866 92.126C90.8459 92.3093 91.1319 92.5403 91.3446 92.819V91.939H92.6096V98H91.3446V97.098C91.1319 97.384 90.8422 97.6223 90.4756 97.813C90.1089 98.0037 89.6909 98.099 89.2216 98.099C88.7009 98.099 88.2242 97.967 87.7916 97.703C87.3589 97.4317 87.0142 97.0577 86.7576 96.581C86.5082 96.097 86.3836 95.5507 86.3836 94.942ZM91.3446 94.964C91.3446 94.546 91.2566 94.183 91.0806 93.875C90.9119 93.567 90.6882 93.3323 90.4096 93.171C90.1309 93.0097 89.8302 92.929 89.5076 92.929C89.1849 92.929 88.8842 93.0097 88.6056 93.171C88.3269 93.325 88.0996 93.556 87.9236 93.864C87.7549 94.1647 87.6706 94.524 87.6706 94.942C87.6706 95.36 87.7549 95.7267 87.9236 96.042C88.0996 96.3573 88.3269 96.5993 88.6056 96.768C88.8916 96.9293 89.1922 97.01 89.5076 97.01C89.8302 97.01 90.1309 96.9293 90.4096 96.768C90.6882 96.6067 90.9119 96.372 91.0806 96.064C91.2566 95.7487 91.3446 95.382 91.3446 94.964ZM96.6986 91.84C97.168 91.84 97.5823 91.9353 97.9416 92.126C98.3083 92.3093 98.5943 92.5403 98.7996 92.819V91.939H100.065V98.099C100.065 98.6563 99.9473 99.1513 99.7126 99.584C99.478 100.024 99.137 100.369 98.6896 100.618C98.2496 100.867 97.7216 100.992 97.1056 100.992C96.2843 100.992 95.6023 100.798 95.0596 100.409C94.517 100.028 94.209 99.507 94.1356 98.847H95.3786C95.474 99.1623 95.6756 99.4153 95.9836 99.606C96.299 99.804 96.673 99.903 97.1056 99.903C97.6116 99.903 98.0186 99.749 98.3266 99.441C98.642 99.133 98.7996 98.6857 98.7996 98.099V97.087C98.587 97.373 98.2973 97.615 97.9306 97.813C97.5713 98.0037 97.1606 98.099 96.6986 98.099C96.1706 98.099 95.6866 97.967 95.2466 97.703C94.814 97.4317 94.4693 97.0577 94.2126 96.581C93.9633 96.097 93.8386 95.5507 93.8386 94.942C93.8386 94.3333 93.9633 93.7943 94.2126 93.325C94.4693 92.8557 94.814 92.4927 95.2466 92.236C95.6866 91.972 96.1706 91.84 96.6986 91.84ZM98.7996 94.964C98.7996 94.546 98.7116 94.183 98.5356 93.875C98.367 93.567 98.1433 93.3323 97.8646 93.171C97.586 93.0097 97.2853 92.929 96.9626 92.929C96.64 92.929 96.3393 93.0097 96.0606 93.171C95.782 93.325 95.5546 93.556 95.3786 93.864C95.21 94.1647 95.1256 94.524 95.1256 94.942C95.1256 95.36 95.21 95.7267 95.3786 96.042C95.5546 96.3573 95.782 96.5993 96.0606 96.768C96.3466 96.9293 96.6473 97.01 96.9626 97.01C97.2853 97.01 97.586 96.9293 97.8646 96.768C98.1433 96.6067 98.367 96.372 98.5356 96.064C98.7116 95.7487 98.7996 95.382 98.7996 94.964ZM101.294 94.942C101.294 94.3333 101.418 93.7943 101.668 93.325C101.924 92.8557 102.269 92.4927 102.702 92.236C103.142 91.972 103.626 91.84 104.154 91.84C104.63 91.84 105.045 91.9353 105.397 92.126C105.756 92.3093 106.042 92.5403 106.255 92.819V91.939H107.52V98H106.255V97.098C106.042 97.384 105.752 97.6223 105.386 97.813C105.019 98.0037 104.601 98.099 104.132 98.099C103.611 98.099 103.134 97.967 102.702 97.703C102.269 97.4317 101.924 97.0577 101.668 96.581C101.418 96.097 101.294 95.5507 101.294 94.942ZM106.255 94.964C106.255 94.546 106.167 94.183 105.991 93.875C105.822 93.567 105.598 93.3323 105.32 93.171C105.041 93.0097 104.74 92.929 104.418 92.929C104.095 92.929 103.794 93.0097 103.516 93.171C103.237 93.325 103.01 93.556 102.834 93.864C102.665 94.1647 102.581 94.524 102.581 94.942C102.581 95.36 102.665 95.7267 102.834 96.042C103.01 96.3573 103.237 96.5993 103.516 96.768C103.802 96.9293 104.102 97.01 104.418 97.01C104.74 97.01 105.041 96.9293 105.32 96.768C105.598 96.6067 105.822 96.372 105.991 96.064C106.167 95.7487 106.255 95.382 106.255 94.964ZM109.805 91.136C109.577 91.136 109.387 91.059 109.233 90.905C109.079 90.751 109.002 90.5603 109.002 90.333C109.002 90.1057 109.079 89.915 109.233 89.761C109.387 89.607 109.577 89.53 109.805 89.53C110.025 89.53 110.212 89.607 110.366 89.761C110.52 89.915 110.597 90.1057 110.597 90.333C110.597 90.5603 110.52 90.751 110.366 90.905C110.212 91.059 110.025 91.136 109.805 91.136ZM110.421 91.939V98H109.167V91.939H110.421ZM115.125 91.84C115.602 91.84 116.027 91.939 116.401 92.137C116.783 92.335 117.08 92.6283 117.292 93.017C117.505 93.4057 117.611 93.875 117.611 94.425V98H116.368V94.612C116.368 94.0693 116.233 93.655 115.961 93.369C115.69 93.0757 115.32 92.929 114.85 92.929C114.381 92.929 114.007 93.0757 113.728 93.369C113.457 93.655 113.321 94.0693 113.321 94.612V98H112.067V91.939H113.321V92.632C113.527 92.3827 113.787 92.1883 114.102 92.049C114.425 91.9097 114.766 91.84 115.125 91.84ZM119.717 98.077C119.489 98.077 119.299 98 119.145 97.846C118.991 97.692 118.914 97.5013 118.914 97.274C118.914 97.0467 118.991 96.856 119.145 96.702C119.299 96.548 119.489 96.471 119.717 96.471C119.937 96.471 120.124 96.548 120.278 96.702C120.432 96.856 120.509 97.0467 120.509 97.274C120.509 97.5013 120.432 97.692 120.278 97.846C120.124 98 119.937 98.077 119.717 98.077Z"></path>
<path stroke-linejoin="round" stroke-linecap="round" stroke-width="1.5" stroke="#BFBFBF" d="M211.464 41.4642L218.536 48.5353M218.536 41.4642L211.464 48.5353"></path>
<path stroke-width="0.2" stroke="url(#paint1_linear_1045_2)" fill="url(#paint0_linear_1045_2)" d="M42.9231 37.0386L40.8462 37.7309L45 45.0001L49.1539 37.7309L47.077 37.0386C46.4361 39.0681 43.564 39.0681 42.9231 37.0386Z"></path>
<path stroke-width="0.2" stroke="url(#paint3_linear_1045_2)" fill="url(#paint2_linear_1045_2)" d="M47.0769 52.9614L49.1538 52.2691L45 44.9999L40.8461 52.2691L42.923 52.9614C43.5639 50.9319 46.436 50.9319 47.0769 52.9614Z"></path>
<path stroke-width="0.2" stroke="url(#paint5_linear_1045_2)" fill="url(#paint4_linear_1045_2)" d="M50.8563 39.2205L49.2183 37.768L44.9999 45L53.3722 44.9627L52.9333 42.8179C50.8552 43.2776 49.4192 40.7904 50.8563 39.2205Z"></path>
<path stroke-width="0.2" stroke="url(#paint7_linear_1045_2)" fill="url(#paint6_linear_1045_2)" d="M39.1437 50.7795L40.7817 52.232L45.0001 45L36.6278 45.0373L37.0667 47.1821C39.1448 46.7224 40.5808 49.2096 39.1437 50.7795Z"></path>
<path stroke-width="0.2" stroke="url(#paint9_linear_1045_2)" fill="url(#paint8_linear_1045_2)" d="M37.0663 42.818L36.6274 44.9629L44.9996 45.0001L40.7812 37.7682L39.1432 39.2207C40.5804 40.7905 39.1444 43.2778 37.0663 42.818Z"></path>
<path stroke-width="0.2" stroke="url(#paint11_linear_1045_2)" fill="url(#paint10_linear_1045_2)" d="M52.9332 47.182L53.3721 45.0371L44.9999 44.9999L49.2183 52.2318L50.8563 50.7793C49.4191 49.2095 50.8551 46.7222 52.9332 47.182Z"></path>
<rect stroke-width="1.38462" stroke="url(#paint13_linear_1045_2)" fill="url(#paint12_linear_1045_2)" rx="3.46154" height="6.92308" width="6.92308" y="41.5385" x="41.5385"></rect>
<defs>
<linearGradient gradientUnits="userSpaceOnUse" y2="53.3078" x2="53.3077" y1="36.6924" x1="36.6923" id="paint0_linear_1045_2">
<stop stop-color="#8A9199"></stop>
<stop stop-color="#66737D" offset="1"></stop>
</linearGradient>
<linearGradient gradientUnits="userSpaceOnUse" y2="53.3078" x2="53.3077" y1="36.6924" x1="36.6923" id="paint1_linear_1045_2">
<stop stop-color="#8A9199"></stop>
<stop stop-color="#66737D" offset="1"></stop>
</linearGradient>
<linearGradient gradientUnits="userSpaceOnUse" y2="53.3076" x2="53.3077" y1="36.6922" x1="36.6923" id="paint2_linear_1045_2">
<stop stop-color="#8A9199"></stop>
<stop stop-color="#66737D" offset="1"></stop>
</linearGradient>
<linearGradient gradientUnits="userSpaceOnUse" y2="53.3076" x2="53.3077" y1="36.6922" x1="36.6923" id="paint3_linear_1045_2">
<stop stop-color="#8A9199"></stop>
<stop stop-color="#66737D" offset="1"></stop>
</linearGradient>
<linearGradient gradientUnits="userSpaceOnUse" y2="53.3077" x2="53.3076" y1="36.6923" x1="36.6922" id="paint4_linear_1045_2">
<stop stop-color="#8A9199"></stop>
<stop stop-color="#66737D" offset="1"></stop>
</linearGradient>
<linearGradient gradientUnits="userSpaceOnUse" y2="53.3077" x2="53.3076" y1="36.6923" x1="36.6922" id="paint5_linear_1045_2">
<stop stop-color="#8A9199"></stop>
<stop stop-color="#66737D" offset="1"></stop>
</linearGradient>
<linearGradient gradientUnits="userSpaceOnUse" y2="53.3077" x2="53.3078" y1="36.6923" x1="36.6924" id="paint6_linear_1045_2">
<stop stop-color="#8A9199"></stop>
<stop stop-color="#66737D" offset="1"></stop>
</linearGradient>
<linearGradient gradientUnits="userSpaceOnUse" y2="53.3077" x2="53.3078" y1="36.6923" x1="36.6924" id="paint7_linear_1045_2">
<stop stop-color="#8A9199"></stop>
<stop stop-color="#66737D" offset="1"></stop>
</linearGradient>
<linearGradient gradientUnits="userSpaceOnUse" y2="53.3078" x2="53.3073" y1="36.6924" x1="36.692" id="paint8_linear_1045_2">
<stop stop-color="#8A9199"></stop>
<stop stop-color="#66737D" offset="1"></stop>
</linearGradient>
<linearGradient gradientUnits="userSpaceOnUse" y2="53.3078" x2="53.3073" y1="36.6924" x1="36.692" id="paint9_linear_1045_2">
<stop stop-color="#8A9199"></stop>
<stop stop-color="#66737D" offset="1"></stop>
</linearGradient>
<linearGradient gradientUnits="userSpaceOnUse" y2="53.3076" x2="53.3076" y1="36.6922" x1="36.6922" id="paint10_linear_1045_2">
<stop stop-color="#8A9199"></stop>
<stop stop-color="#66737D" offset="1"></stop>
</linearGradient>
<linearGradient gradientUnits="userSpaceOnUse" y2="53.3076" x2="53.3076" y1="36.6922" x1="36.6922" id="paint11_linear_1045_2">
<stop stop-color="#8A9199"></stop>
<stop stop-color="#66737D" offset="1"></stop>
</linearGradient>
<linearGradient gradientUnits="userSpaceOnUse" y2="47.077" x2="47.077" y1="42.9231" x1="42.9231" id="paint12_linear_1045_2">
<stop stop-color="#0669BC"></stop>
<stop stop-color="#0F4F93" offset="1"></stop>
</linearGradient>
<linearGradient gradientUnits="userSpaceOnUse" y2="48.1154" x2="47.7693" y1="42.2308" x1="41.8847" id="paint13_linear_1045_2">
<stop stop-color="#BEC4C9"></stop>
<stop stop-color="#F7F7F8" offset="1"></stop>
</linearGradient>
</defs>
</svg>
