<svg xmlns="http://www.w3.org/2000/svg" fill="none" viewBox="0 0 114 37" height="37" width="114">
<rect fill-opacity="0.05" fill="white" rx="5" height="37" width="114"></rect>
<path fill="white" d="M55.1787 20.295C55.8827 19.6863 56.4364 19.1877 56.8397 18.799C57.2504 18.403 57.5914 17.9923 57.8627 17.567C58.134 17.1417 58.2697 16.7163 58.2697 16.291C58.2697 15.851 58.1634 15.5063 57.9507 15.257C57.7454 15.0077 57.419 14.883 56.9717 14.883C56.539 14.883 56.2017 15.0223 55.9597 15.301C55.725 15.5723 55.6004 15.939 55.5857 16.401H54.3757C54.3977 15.565 54.647 14.927 55.1237 14.487C55.6077 14.0397 56.22 13.816 56.9607 13.816C57.76 13.816 58.3834 14.036 58.8307 14.476C59.2854 14.916 59.5127 15.5027 59.5127 16.236C59.5127 16.764 59.377 17.2737 59.1057 17.765C58.8417 18.249 58.5227 18.6853 58.1487 19.074C57.782 19.4553 57.3127 19.899 56.7407 20.405L56.2457 20.845H59.7327V21.89H54.3867V20.977L55.1787 20.295Z"></path>
</svg>
