<svg version="1.1" xmlns="http://www.w3.org/2000/svg" xmlns:xlink="http://www.w3.org/1999/xlink" width="40" height="20" viewBox="0,0,40,20"><g transform="translate(-220,-167)"><g data-paper-data="{&quot;isPaintingLayer&quot;:true}" fill-rule="nonzero" stroke="none" stroke-width="1" stroke-linecap="butt" stroke-linejoin="miter" stroke-miterlimit="10" stroke-dasharray="" stroke-dashoffset="0" style="mix-blend-mode: normal"><path d="M220,187v-20h40v20z" fill="none"></path><path d="M246.96,176.532c0,0.248 -0.016,0.472 -0.048,0.672h-5.052c0.04,0.528 0.236,0.952 0.588,1.272c0.352,0.32 0.784,0.48 1.296,0.48c0.736,0 1.256,-0.308 1.56,-0.924h1.476c-0.2,0.608 -0.564,1.108 -1.092,1.5c-0.52,0.384 -1.168,0.576 -1.944,0.576c-0.632,0 -1.2,-0.14 -1.704,-0.42c-0.496,-0.288 -0.888,-0.688 -1.176,-1.2c-0.28,-0.52 -0.42,-1.12 -0.42,-1.8c0,-0.68 0.136,-1.276 0.408,-1.788c0.28,-0.52 0.668,-0.92 1.164,-1.2c0.504,-0.28 1.08,-0.42 1.728,-0.42c0.624,0 1.18,0.136 1.668,0.408c0.488,0.272 0.868,0.656 1.14,1.152c0.272,0.488 0.408,1.052 0.408,1.692zM245.532,176.1c-0.008,-0.504 -0.188,-0.908 -0.54,-1.212c-0.352,-0.304 -0.788,-0.456 -1.308,-0.456c-0.472,0 -0.876,0.152 -1.212,0.456c-0.336,0.296 -0.536,0.7 -0.6,1.212zM244.944,171.912v1.008l-2.652,-1.308v-1.164z" fill="#ff0000"></path></g></g></svg>