<svg xmlns="http://www.w3.org/2000/svg" fill="none" viewBox="0 0 44 24" height="24" width="44">
<path fill-opacity="0.5" fill="#FF0000" d="M2 12C2 6.47715 6.47715 2 12 2H32C37.5228 2 42 6.47715 42 12V12C42 17.5228 37.5228 22 32 22H12C6.47715 22 2 17.5228 2 12V12Z"></path>
<path stroke-width="2" stroke-opacity="0.2" stroke="#FF0000" d="M32 1H12C5.92487 1 1 5.92487 1 12C1 18.0751 5.92487 23 12 23H32C38.0751 23 43 18.0751 43 12C43 5.92487 38.0751 1 32 1Z"></path>
<path fill="white" d="M20.3698 11.428C19.5378 11.012 19.1218 10.356 19.1218 9.46C19.1218 9.028 19.2298 8.632 19.4458 8.272C19.6618 7.912 19.9858 7.628 20.4178 7.42C20.8498 7.204 21.3778 7.096 22.0018 7.096C22.6178 7.096 23.1418 7.204 23.5738 7.42C24.0138 7.628 24.3418 7.912 24.5578 8.272C24.7738 8.632 24.8818 9.028 24.8818 9.46C24.8818 9.908 24.7658 10.304 24.5338 10.648C24.3098 10.984 24.0098 11.244 23.6338 11.428C24.0898 11.596 24.4498 11.872 24.7138 12.256C24.9778 12.632 25.1098 13.076 25.1098 13.588C25.1098 14.108 24.9778 14.568 24.7138 14.968C24.4498 15.368 24.0818 15.676 23.6098 15.892C23.1378 16.108 22.6018 16.216 22.0018 16.216C21.4018 16.216 20.8658 16.108 20.3938 15.892C19.9298 15.676 19.5658 15.368 19.3018 14.968C19.0378 14.568 18.9058 14.108 18.9058 13.588C18.9058 13.068 19.0378 12.62 19.3018 12.244C19.5658 11.868 19.9218 11.596 20.3698 11.428ZM23.5738 9.628C23.5738 9.18 23.4338 8.836 23.1538 8.596C22.8738 8.356 22.4898 8.236 22.0018 8.236C21.5218 8.236 21.1418 8.356 20.8618 8.596C20.5818 8.836 20.4418 9.184 20.4418 9.64C20.4418 10.04 20.5858 10.368 20.8738 10.624C21.1698 10.872 21.5458 10.996 22.0018 10.996C22.4578 10.996 22.8338 10.868 23.1298 10.612C23.4258 10.356 23.5738 10.028 23.5738 9.628ZM22.0018 12.028C21.4738 12.028 21.0418 12.16 20.7058 12.424C20.3778 12.68 20.2138 13.052 20.2138 13.54C20.2138 13.996 20.3738 14.368 20.6938 14.656C21.0138 14.936 21.4498 15.076 22.0018 15.076C22.5458 15.076 22.9738 14.932 23.2858 14.644C23.6058 14.356 23.7658 13.988 23.7658 13.54C23.7658 13.06 23.6018 12.688 23.2738 12.424C22.9538 12.16 22.5298 12.028 22.0018 12.028Z"></path>
</svg>
