<svg xmlns="http://www.w3.org/2000/svg" fill="none" viewBox="0 0 480 210" height="210" width="480">
<path fill-opacity="0.9" fill="#E6E6E6" d="M50 30C50 24.4772 54.4772 20 60 20H420C425.523 20 430 24.4772 430 30V180C430 185.523 425.523 190 420 190H60C54.4772 190 50 185.523 50 180V30Z"></path>
<path stroke-width="2" stroke-opacity="0.2" stroke="black" d="M420 19H60C53.9249 19 49 23.9249 49 30V180C49 186.075 53.9249 191 60 191H420C426.075 191 431 186.075 431 180V30C431 23.9249 426.075 19 420 19Z"></path>
<path fill="black" d="M115.418 41.355V42.378H113.383V49H112.129V42.378H110.083V41.355H115.418ZM117.326 42.136C117.099 42.136 116.908 42.059 116.754 41.905C116.6 41.751 116.523 41.5603 116.523 41.333C116.523 41.1057 116.6 40.915 116.754 40.761C116.908 40.607 117.099 40.53 117.326 40.53C117.546 40.53 117.733 40.607 117.887 40.761C118.041 40.915 118.118 41.1057 118.118 41.333C118.118 41.5603 118.041 41.751 117.887 41.905C117.733 42.059 117.546 42.136 117.326 42.136ZM117.942 42.939V49H116.688V42.939H117.942ZM122.647 42.84C123.123 42.84 123.549 42.939 123.923 43.137C124.304 43.335 124.601 43.6283 124.814 44.017C125.026 44.4057 125.133 44.875 125.133 45.425V49H123.89V45.612C123.89 45.0693 123.754 44.655 123.483 44.369C123.211 44.0757 122.841 43.929 122.372 43.929C121.902 43.929 121.528 44.0757 121.25 44.369C120.978 44.655 120.843 45.0693 120.843 45.612V49H119.589V42.939H120.843V43.632C121.048 43.3827 121.308 43.1883 121.624 43.049C121.946 42.9097 122.287 42.84 122.647 42.84ZM128.195 43.962V47.317C128.195 47.5443 128.247 47.7093 128.349 47.812C128.459 47.9073 128.643 47.955 128.899 47.955H129.669V49H128.679C128.115 49 127.682 48.868 127.381 48.604C127.081 48.34 126.93 47.911 126.93 47.317V43.962H126.215V42.939H126.93V41.432H128.195V42.939H129.669V43.962H128.195Z"></path>
<path fill="black" d="M76.4902 75.073C76.9009 75.1463 77.2492 75.3627 77.5352 75.722C77.8212 76.0813 77.9642 76.4883 77.9642 76.943C77.9642 77.3317 77.8616 77.6837 77.6562 77.999C77.4582 78.307 77.1686 78.5527 76.7872 78.736C76.4059 78.912 75.9622 79 75.4562 79H72.3982V71.355H75.3132C75.8339 71.355 76.2812 71.443 76.6552 71.619C77.0292 71.795 77.3116 72.0333 77.5022 72.334C77.6929 72.6273 77.7882 72.9573 77.7882 73.324C77.7882 73.764 77.6709 74.1307 77.4362 74.424C77.2016 74.7173 76.8862 74.9337 76.4902 75.073ZM73.6522 74.567H75.2032C75.6139 74.567 75.9329 74.4753 76.1602 74.292C76.3949 74.1013 76.5122 73.83 76.5122 73.478C76.5122 73.1333 76.3949 72.8657 76.1602 72.675C75.9329 72.477 75.6139 72.378 75.2032 72.378H73.6522V74.567ZM75.3462 77.977C75.7716 77.977 76.1052 77.8743 76.3472 77.669C76.5892 77.4637 76.7102 77.1777 76.7102 76.811C76.7102 76.437 76.5819 76.14 76.3252 75.92C76.0686 75.7 75.7276 75.59 75.3022 75.59H73.6522V77.977H75.3462ZM80.581 73.819C80.7643 73.511 81.0063 73.2727 81.307 73.104C81.615 72.928 81.978 72.84 82.396 72.84V74.138H82.077C81.5856 74.138 81.2116 74.2627 80.955 74.512C80.7056 74.7613 80.581 75.194 80.581 75.81V79H79.327V72.939H80.581V73.819ZM84.1866 72.136C83.9593 72.136 83.7686 72.059 83.6146 71.905C83.4606 71.751 83.3836 71.5603 83.3836 71.333C83.3836 71.1057 83.4606 70.915 83.6146 70.761C83.7686 70.607 83.9593 70.53 84.1866 70.53C84.4066 70.53 84.5936 70.607 84.7476 70.761C84.9016 70.915 84.9786 71.1057 84.9786 71.333C84.9786 71.5603 84.9016 71.751 84.7476 71.905C84.5936 72.059 84.4066 72.136 84.1866 72.136ZM84.8026 72.939V79H83.5486V72.939H84.8026ZM88.891 72.84C89.3604 72.84 89.7747 72.9353 90.134 73.126C90.5007 73.3093 90.7867 73.5403 90.992 73.819V72.939H92.257V79.099C92.257 79.6563 92.1397 80.1513 91.905 80.584C91.6704 81.024 91.3294 81.3687 90.882 81.618C90.442 81.8673 89.914 81.992 89.298 81.992C88.4767 81.992 87.7947 81.7977 87.252 81.409C86.7094 81.0277 86.4014 80.507 86.328 79.847H87.571C87.6664 80.1623 87.868 80.4153 88.176 80.606C88.4914 80.804 88.8654 80.903 89.298 80.903C89.804 80.903 90.211 80.749 90.519 80.441C90.8344 80.133 90.992 79.6857 90.992 79.099V78.087C90.7794 78.373 90.4897 78.615 90.123 78.813C89.7637 79.0037 89.353 79.099 88.891 79.099C88.363 79.099 87.879 78.967 87.439 78.703C87.0064 78.4317 86.6617 78.0577 86.405 77.581C86.1557 77.097 86.031 76.5507 86.031 75.942C86.031 75.3333 86.1557 74.7943 86.405 74.325C86.6617 73.8557 87.0064 73.4927 87.439 73.236C87.879 72.972 88.363 72.84 88.891 72.84ZM90.992 75.964C90.992 75.546 90.904 75.183 90.728 74.875C90.5594 74.567 90.3357 74.3323 90.057 74.171C89.7784 74.0097 89.4777 73.929 89.155 73.929C88.8324 73.929 88.5317 74.0097 88.253 74.171C87.9744 74.325 87.747 74.556 87.571 74.864C87.4024 75.1647 87.318 75.524 87.318 75.942C87.318 76.36 87.4024 76.7267 87.571 77.042C87.747 77.3573 87.9744 77.5993 88.253 77.768C88.539 77.9293 88.8397 78.01 89.155 78.01C89.4777 78.01 89.7784 77.9293 90.057 77.768C90.3357 77.6067 90.5594 77.372 90.728 77.064C90.904 76.7487 90.992 76.382 90.992 75.964ZM97.0391 72.84C97.5011 72.84 97.9118 72.939 98.2711 73.137C98.6378 73.335 98.9238 73.6283 99.1291 74.017C99.3418 74.4057 99.4481 74.875 99.4481 75.425V79H98.2051V75.612C98.2051 75.0693 98.0694 74.655 97.7981 74.369C97.5268 74.0757 97.1564 73.929 96.6871 73.929C96.2178 73.929 95.8438 74.0757 95.5651 74.369C95.2938 74.655 95.1581 75.0693 95.1581 75.612V79H93.9041V70.86H95.1581V73.643C95.3708 73.3863 95.6384 73.1883 95.9611 73.049C96.2911 72.9097 96.6504 72.84 97.0391 72.84ZM102.511 73.962V77.317C102.511 77.5443 102.562 77.7093 102.665 77.812C102.775 77.9073 102.958 77.955 103.215 77.955H103.985V79H102.995C102.43 79 101.997 78.868 101.697 78.604C101.396 78.34 101.246 77.911 101.246 77.317V73.962H100.531V72.939H101.246V71.432H102.511V72.939H103.985V73.962H102.511ZM108.198 72.84C108.675 72.84 109.1 72.939 109.474 73.137C109.856 73.335 110.153 73.6283 110.365 74.017C110.578 74.4057 110.684 74.875 110.684 75.425V79H109.441V75.612C109.441 75.0693 109.306 74.655 109.034 74.369C108.763 74.0757 108.393 73.929 107.923 73.929C107.454 73.929 107.08 74.0757 106.801 74.369C106.53 74.655 106.394 75.0693 106.394 75.612V79H105.14V72.939H106.394V73.632C106.6 73.3827 106.86 73.1883 107.175 73.049C107.498 72.9097 107.839 72.84 108.198 72.84ZM117.839 75.821C117.839 76.0483 117.824 76.2537 117.795 76.437H113.164C113.201 76.921 113.38 77.3097 113.703 77.603C114.026 77.8963 114.422 78.043 114.891 78.043C115.566 78.043 116.042 77.7607 116.321 77.196H117.674C117.491 77.7533 117.157 78.2117 116.673 78.571C116.196 78.923 115.602 79.099 114.891 79.099C114.312 79.099 113.791 78.9707 113.329 78.714C112.874 78.45 112.515 78.0833 112.251 77.614C111.994 77.1373 111.866 76.5873 111.866 75.964C111.866 75.3407 111.991 74.7943 112.24 74.325C112.497 73.8483 112.852 73.4817 113.307 73.225C113.769 72.9683 114.297 72.84 114.891 72.84C115.463 72.84 115.973 72.9647 116.42 73.214C116.867 73.4633 117.216 73.8153 117.465 74.27C117.714 74.7173 117.839 75.2343 117.839 75.821ZM116.53 75.425C116.523 74.963 116.358 74.5927 116.035 74.314C115.712 74.0353 115.313 73.896 114.836 73.896C114.403 73.896 114.033 74.0353 113.725 74.314C113.417 74.5853 113.234 74.9557 113.175 75.425H116.53ZM121.273 79.099C120.796 79.099 120.367 79.0147 119.986 78.846C119.612 78.67 119.315 78.4353 119.095 78.142C118.875 77.8413 118.758 77.5077 118.743 77.141H120.041C120.063 77.3977 120.184 77.614 120.404 77.79C120.631 77.9587 120.914 78.043 121.251 78.043C121.603 78.043 121.874 77.977 122.065 77.845C122.263 77.7057 122.362 77.5297 122.362 77.317C122.362 77.0897 122.252 76.921 122.032 76.811C121.819 76.701 121.478 76.58 121.009 76.448C120.554 76.3233 120.184 76.2023 119.898 76.085C119.612 75.9677 119.363 75.788 119.15 75.546C118.945 75.304 118.842 74.985 118.842 74.589C118.842 74.2663 118.937 73.973 119.128 73.709C119.319 73.4377 119.59 73.225 119.942 73.071C120.301 72.917 120.712 72.84 121.174 72.84C121.863 72.84 122.417 73.016 122.835 73.368C123.26 73.7127 123.488 74.1857 123.517 74.787H122.263C122.241 74.5157 122.131 74.2993 121.933 74.138C121.735 73.9767 121.467 73.896 121.13 73.896C120.8 73.896 120.547 73.9583 120.371 74.083C120.195 74.2077 120.107 74.3727 120.107 74.578C120.107 74.7393 120.166 74.875 120.283 74.985C120.4 75.095 120.543 75.183 120.712 75.249C120.881 75.3077 121.13 75.3847 121.46 75.48C121.9 75.5973 122.259 75.7183 122.538 75.843C122.824 75.9603 123.07 76.1363 123.275 76.371C123.48 76.6057 123.587 76.9173 123.594 77.306C123.594 77.6507 123.499 77.9587 123.308 78.23C123.117 78.5013 122.846 78.714 122.494 78.868C122.149 79.022 121.742 79.099 121.273 79.099ZM127.149 79.099C126.672 79.099 126.243 79.0147 125.862 78.846C125.488 78.67 125.191 78.4353 124.971 78.142C124.751 77.8413 124.634 77.5077 124.619 77.141H125.917C125.939 77.3977 126.06 77.614 126.28 77.79C126.507 77.9587 126.79 78.043 127.127 78.043C127.479 78.043 127.75 77.977 127.941 77.845C128.139 77.7057 128.238 77.5297 128.238 77.317C128.238 77.0897 128.128 76.921 127.908 76.811C127.695 76.701 127.354 76.58 126.885 76.448C126.43 76.3233 126.06 76.2023 125.774 76.085C125.488 75.9677 125.239 75.788 125.026 75.546C124.821 75.304 124.718 74.985 124.718 74.589C124.718 74.2663 124.813 73.973 125.004 73.709C125.195 73.4377 125.466 73.225 125.818 73.071C126.177 72.917 126.588 72.84 127.05 72.84C127.739 72.84 128.293 73.016 128.711 73.368C129.136 73.7127 129.364 74.1857 129.393 74.787H128.139C128.117 74.5157 128.007 74.2993 127.809 74.138C127.611 73.9767 127.343 73.896 127.006 73.896C126.676 73.896 126.423 73.9583 126.247 74.083C126.071 74.2077 125.983 74.3727 125.983 74.578C125.983 74.7393 126.042 74.875 126.159 74.985C126.276 75.095 126.419 75.183 126.588 75.249C126.757 75.3077 127.006 75.3847 127.336 75.48C127.776 75.5973 128.135 75.7183 128.414 75.843C128.7 75.9603 128.946 76.1363 129.151 76.371C129.356 76.6057 129.463 76.9173 129.47 77.306C129.47 77.6507 129.375 77.9587 129.184 78.23C128.993 78.5013 128.722 78.714 128.37 78.868C128.025 79.022 127.618 79.099 127.149 79.099Z"></path>
<path fill="black" d="M75.1858 109.077C74.6725 109.077 74.2105 108.989 73.7998 108.813C73.3891 108.63 73.0665 108.373 72.8318 108.043C72.5971 107.713 72.4798 107.328 72.4798 106.888H73.8218C73.8511 107.218 73.9795 107.489 74.2068 107.702C74.4415 107.915 74.7678 108.021 75.1858 108.021C75.6185 108.021 75.9558 107.918 76.1978 107.713C76.4398 107.5 76.5608 107.229 76.5608 106.899C76.5608 106.642 76.4838 106.433 76.3298 106.272C76.1831 106.111 75.9961 105.986 75.7688 105.898C75.5488 105.81 75.2408 105.715 74.8448 105.612C74.3461 105.48 73.9391 105.348 73.6238 105.216C73.3158 105.077 73.0518 104.864 72.8318 104.578C72.6118 104.292 72.5018 103.911 72.5018 103.434C72.5018 102.994 72.6118 102.609 72.8318 102.279C73.0518 101.949 73.3598 101.696 73.7558 101.52C74.1518 101.344 74.6101 101.256 75.1308 101.256C75.8715 101.256 76.4765 101.443 76.9458 101.817C77.4225 102.184 77.6865 102.69 77.7378 103.335H76.3518C76.3298 103.056 76.1978 102.818 75.9558 102.62C75.7138 102.422 75.3948 102.323 74.9988 102.323C74.6395 102.323 74.3461 102.415 74.1188 102.598C73.8915 102.781 73.7778 103.045 73.7778 103.39C73.7778 103.625 73.8475 103.819 73.9868 103.973C74.1335 104.12 74.3168 104.237 74.5368 104.325C74.7568 104.413 75.0575 104.508 75.4388 104.611C75.9448 104.75 76.3555 104.89 76.6708 105.029C76.9935 105.168 77.2648 105.385 77.4848 105.678C77.7121 105.964 77.8258 106.349 77.8258 106.833C77.8258 107.222 77.7195 107.588 77.5068 107.933C77.3015 108.278 76.9971 108.556 76.5938 108.769C76.1978 108.974 75.7285 109.077 75.1858 109.077ZM78.8875 105.942C78.8875 105.333 79.0121 104.794 79.2615 104.325C79.5181 103.856 79.8628 103.493 80.2955 103.236C80.7355 102.972 81.2195 102.84 81.7475 102.84C82.2241 102.84 82.6385 102.935 82.9905 103.126C83.3498 103.309 83.6358 103.54 83.8485 103.819V102.939H85.1135V109H83.8485V108.098C83.6358 108.384 83.3461 108.622 82.9795 108.813C82.6128 109.004 82.1948 109.099 81.7255 109.099C81.2048 109.099 80.7281 108.967 80.2955 108.703C79.8628 108.432 79.5181 108.058 79.2615 107.581C79.0121 107.097 78.8875 106.551 78.8875 105.942ZM83.8485 105.964C83.8485 105.546 83.7605 105.183 83.5845 104.875C83.4158 104.567 83.1921 104.332 82.9135 104.171C82.6348 104.01 82.3341 103.929 82.0115 103.929C81.6888 103.929 81.3881 104.01 81.1095 104.171C80.8308 104.325 80.6035 104.556 80.4275 104.864C80.2588 105.165 80.1745 105.524 80.1745 105.942C80.1745 106.36 80.2588 106.727 80.4275 107.042C80.6035 107.357 80.8308 107.599 81.1095 107.768C81.3955 107.929 81.6961 108.01 82.0115 108.01C82.3341 108.01 82.6348 107.929 82.9135 107.768C83.1921 107.607 83.4158 107.372 83.5845 107.064C83.7605 106.749 83.8485 106.382 83.8485 105.964ZM88.2235 103.962V107.317C88.2235 107.544 88.2749 107.709 88.3775 107.812C88.4875 107.907 88.6709 107.955 88.9275 107.955H89.6975V109H88.7075C88.1429 109 87.7102 108.868 87.4095 108.604C87.1089 108.34 86.9585 107.911 86.9585 107.317V103.962H86.2435V102.939H86.9585V101.432H88.2235V102.939H89.6975V103.962H88.2235ZM96.3423 102.939V109H95.0883V108.285C94.8903 108.534 94.63 108.732 94.3073 108.879C93.992 109.018 93.6547 109.088 93.2953 109.088C92.8187 109.088 92.3897 108.989 92.0083 108.791C91.6343 108.593 91.3373 108.3 91.1173 107.911C90.9047 107.522 90.7983 107.053 90.7983 106.503V102.939H92.0413V106.316C92.0413 106.859 92.177 107.277 92.4483 107.57C92.7197 107.856 93.09 107.999 93.5593 107.999C94.0287 107.999 94.399 107.856 94.6703 107.57C94.949 107.277 95.0883 106.859 95.0883 106.316V102.939H96.3423ZM99.2509 103.819C99.4342 103.511 99.6762 103.273 99.9769 103.104C100.285 102.928 100.648 102.84 101.066 102.84V104.138H100.747C100.256 104.138 99.8815 104.263 99.6249 104.512C99.3755 104.761 99.2509 105.194 99.2509 105.81V109H97.9969V102.939H99.2509V103.819ZM101.801 105.942C101.801 105.333 101.925 104.794 102.175 104.325C102.431 103.856 102.776 103.493 103.209 103.236C103.649 102.972 104.133 102.84 104.661 102.84C105.137 102.84 105.552 102.935 105.904 103.126C106.263 103.309 106.549 103.54 106.762 103.819V102.939H108.027V109H106.762V108.098C106.549 108.384 106.259 108.622 105.893 108.813C105.526 109.004 105.108 109.099 104.639 109.099C104.118 109.099 103.641 108.967 103.209 108.703C102.776 108.432 102.431 108.058 102.175 107.581C101.925 107.097 101.801 106.551 101.801 105.942ZM106.762 105.964C106.762 105.546 106.674 105.183 106.498 104.875C106.329 104.567 106.105 104.332 105.827 104.171C105.548 104.01 105.247 103.929 104.925 103.929C104.602 103.929 104.301 104.01 104.023 104.171C103.744 104.325 103.517 104.556 103.341 104.864C103.172 105.165 103.088 105.524 103.088 105.942C103.088 106.36 103.172 106.727 103.341 107.042C103.517 107.357 103.744 107.599 104.023 107.768C104.309 107.929 104.609 108.01 104.925 108.01C105.247 108.01 105.548 107.929 105.827 107.768C106.105 107.607 106.329 107.372 106.498 107.064C106.674 106.749 106.762 106.382 106.762 105.964ZM111.137 103.962V107.317C111.137 107.544 111.188 107.709 111.291 107.812C111.401 107.907 111.584 107.955 111.841 107.955H112.611V109H111.621C111.056 109 110.623 108.868 110.323 108.604C110.022 108.34 109.872 107.911 109.872 107.317V103.962H109.157V102.939H109.872V101.432H111.137V102.939H112.611V103.962H111.137ZM114.404 102.136C114.177 102.136 113.986 102.059 113.832 101.905C113.678 101.751 113.601 101.56 113.601 101.333C113.601 101.106 113.678 100.915 113.832 100.761C113.986 100.607 114.177 100.53 114.404 100.53C114.624 100.53 114.811 100.607 114.965 100.761C115.119 100.915 115.196 101.106 115.196 101.333C115.196 101.56 115.119 101.751 114.965 101.905C114.811 102.059 114.624 102.136 114.404 102.136ZM115.02 102.939V109H113.766V102.939H115.02ZM119.296 109.099C118.724 109.099 118.207 108.971 117.745 108.714C117.283 108.45 116.92 108.083 116.656 107.614C116.392 107.137 116.26 106.587 116.26 105.964C116.26 105.348 116.395 104.802 116.667 104.325C116.938 103.848 117.308 103.482 117.778 103.225C118.247 102.968 118.771 102.84 119.351 102.84C119.93 102.84 120.454 102.968 120.924 103.225C121.393 103.482 121.763 103.848 122.035 104.325C122.306 104.802 122.442 105.348 122.442 105.964C122.442 106.58 122.302 107.126 122.024 107.603C121.745 108.08 121.364 108.45 120.88 108.714C120.403 108.971 119.875 109.099 119.296 109.099ZM119.296 108.01C119.618 108.01 119.919 107.933 120.198 107.779C120.484 107.625 120.715 107.394 120.891 107.086C121.067 106.778 121.155 106.404 121.155 105.964C121.155 105.524 121.07 105.154 120.902 104.853C120.733 104.545 120.509 104.314 120.231 104.16C119.952 104.006 119.651 103.929 119.329 103.929C119.006 103.929 118.705 104.006 118.427 104.16C118.155 104.314 117.939 104.545 117.778 104.853C117.616 105.154 117.536 105.524 117.536 105.964C117.536 106.617 117.701 107.123 118.031 107.482C118.368 107.834 118.79 108.01 119.296 108.01ZM126.739 102.84C127.216 102.84 127.641 102.939 128.015 103.137C128.397 103.335 128.694 103.628 128.906 104.017C129.119 104.406 129.225 104.875 129.225 105.425V109H127.982V105.612C127.982 105.069 127.847 104.655 127.575 104.369C127.304 104.076 126.934 103.929 126.464 103.929C125.995 103.929 125.621 104.076 125.342 104.369C125.071 104.655 124.935 105.069 124.935 105.612V109H123.681V102.939H124.935V103.632C125.141 103.383 125.401 103.188 125.716 103.049C126.039 102.91 126.38 102.84 126.739 102.84Z"></path>
<path fill="url(#paint0_linear_969_207)" d="M150 45C150 43.8954 150.895 43 152 43H366C367.105 43 368 43.8954 368 45V45C368 46.1046 367.105 47 366 47H152C150.895 47 150 46.1046 150 45V45Z"></path>
<path fill="black" d="M81.14 131.355V132.378H79.105V139H77.851V132.378H75.805V131.355H81.14ZM85.545 132.84C86.007 132.84 86.4176 132.939 86.777 133.137C87.1436 133.335 87.4296 133.628 87.635 134.017C87.8476 134.406 87.954 134.875 87.954 135.425V139H86.711V135.612C86.711 135.069 86.5753 134.655 86.304 134.369C86.0326 134.076 85.6623 133.929 85.193 133.929C84.7236 133.929 84.3496 134.076 84.071 134.369C83.7996 134.655 83.664 135.069 83.664 135.612V139H82.41V130.86H83.664V133.643C83.8766 133.386 84.1443 133.188 84.467 133.049C84.797 132.91 85.1563 132.84 85.545 132.84ZM90.1915 132.136C89.9642 132.136 89.7735 132.059 89.6195 131.905C89.4655 131.751 89.3885 131.56 89.3885 131.333C89.3885 131.106 89.4655 130.915 89.6195 130.761C89.7735 130.607 89.9642 130.53 90.1915 130.53C90.4115 130.53 90.5985 130.607 90.7525 130.761C90.9065 130.915 90.9835 131.106 90.9835 131.333C90.9835 131.56 90.9065 131.751 90.7525 131.905C90.5985 132.059 90.4115 132.136 90.1915 132.136ZM90.8075 132.939V139H89.5535V132.939H90.8075ZM92.0359 135.964C92.0359 135.341 92.1606 134.794 92.4099 134.325C92.6666 133.848 93.0186 133.482 93.4659 133.225C93.9132 132.968 94.4266 132.84 95.0059 132.84C95.7392 132.84 96.3442 133.016 96.8209 133.368C97.3049 133.713 97.6312 134.208 97.7999 134.853H96.4469C96.3369 134.552 96.1609 134.318 95.9189 134.149C95.6769 133.98 95.3726 133.896 95.0059 133.896C94.4926 133.896 94.0819 134.079 93.7739 134.446C93.4732 134.805 93.3229 135.311 93.3229 135.964C93.3229 136.617 93.4732 137.126 93.7739 137.493C94.0819 137.86 94.4926 138.043 95.0059 138.043C95.7319 138.043 96.2122 137.724 96.4469 137.086H97.7999C97.6239 137.702 97.2939 138.193 96.8099 138.56C96.3259 138.919 95.7246 139.099 95.0059 139.099C94.4266 139.099 93.9132 138.971 93.4659 138.714C93.0186 138.45 92.6666 138.083 92.4099 137.614C92.1606 137.137 92.0359 136.587 92.0359 135.964ZM101.448 135.975L104.242 139H102.548L100.304 136.393V139H99.0496V130.86H100.304V135.59L102.504 132.939H104.242L101.448 135.975ZM108.198 132.84C108.675 132.84 109.1 132.939 109.474 133.137C109.856 133.335 110.153 133.628 110.365 134.017C110.578 134.406 110.684 134.875 110.684 135.425V139H109.441V135.612C109.441 135.069 109.306 134.655 109.034 134.369C108.763 134.076 108.393 133.929 107.923 133.929C107.454 133.929 107.08 134.076 106.801 134.369C106.53 134.655 106.394 135.069 106.394 135.612V139H105.14V132.939H106.394V133.632C106.6 133.383 106.86 133.188 107.175 133.049C107.498 132.91 107.839 132.84 108.198 132.84ZM117.839 135.821C117.839 136.048 117.824 136.254 117.795 136.437H113.164C113.201 136.921 113.38 137.31 113.703 137.603C114.026 137.896 114.422 138.043 114.891 138.043C115.566 138.043 116.042 137.761 116.321 137.196H117.674C117.491 137.753 117.157 138.212 116.673 138.571C116.196 138.923 115.602 139.099 114.891 139.099C114.312 139.099 113.791 138.971 113.329 138.714C112.874 138.45 112.515 138.083 112.251 137.614C111.994 137.137 111.866 136.587 111.866 135.964C111.866 135.341 111.991 134.794 112.24 134.325C112.497 133.848 112.852 133.482 113.307 133.225C113.769 132.968 114.297 132.84 114.891 132.84C115.463 132.84 115.973 132.965 116.42 133.214C116.867 133.463 117.216 133.815 117.465 134.27C117.714 134.717 117.839 135.234 117.839 135.821ZM116.53 135.425C116.523 134.963 116.358 134.593 116.035 134.314C115.712 134.035 115.313 133.896 114.836 133.896C114.403 133.896 114.033 134.035 113.725 134.314C113.417 134.585 113.234 134.956 113.175 135.425H116.53ZM121.273 139.099C120.796 139.099 120.367 139.015 119.986 138.846C119.612 138.67 119.315 138.435 119.095 138.142C118.875 137.841 118.758 137.508 118.743 137.141H120.041C120.063 137.398 120.184 137.614 120.404 137.79C120.631 137.959 120.914 138.043 121.251 138.043C121.603 138.043 121.874 137.977 122.065 137.845C122.263 137.706 122.362 137.53 122.362 137.317C122.362 137.09 122.252 136.921 122.032 136.811C121.819 136.701 121.478 136.58 121.009 136.448C120.554 136.323 120.184 136.202 119.898 136.085C119.612 135.968 119.363 135.788 119.15 135.546C118.945 135.304 118.842 134.985 118.842 134.589C118.842 134.266 118.937 133.973 119.128 133.709C119.319 133.438 119.59 133.225 119.942 133.071C120.301 132.917 120.712 132.84 121.174 132.84C121.863 132.84 122.417 133.016 122.835 133.368C123.26 133.713 123.488 134.186 123.517 134.787H122.263C122.241 134.516 122.131 134.299 121.933 134.138C121.735 133.977 121.467 133.896 121.13 133.896C120.8 133.896 120.547 133.958 120.371 134.083C120.195 134.208 120.107 134.373 120.107 134.578C120.107 134.739 120.166 134.875 120.283 134.985C120.4 135.095 120.543 135.183 120.712 135.249C120.881 135.308 121.13 135.385 121.46 135.48C121.9 135.597 122.259 135.718 122.538 135.843C122.824 135.96 123.07 136.136 123.275 136.371C123.48 136.606 123.587 136.917 123.594 137.306C123.594 137.651 123.499 137.959 123.308 138.23C123.117 138.501 122.846 138.714 122.494 138.868C122.149 139.022 121.742 139.099 121.273 139.099ZM127.149 139.099C126.672 139.099 126.243 139.015 125.862 138.846C125.488 138.67 125.191 138.435 124.971 138.142C124.751 137.841 124.634 137.508 124.619 137.141H125.917C125.939 137.398 126.06 137.614 126.28 137.79C126.507 137.959 126.79 138.043 127.127 138.043C127.479 138.043 127.75 137.977 127.941 137.845C128.139 137.706 128.238 137.53 128.238 137.317C128.238 137.09 128.128 136.921 127.908 136.811C127.695 136.701 127.354 136.58 126.885 136.448C126.43 136.323 126.06 136.202 125.774 136.085C125.488 135.968 125.239 135.788 125.026 135.546C124.821 135.304 124.718 134.985 124.718 134.589C124.718 134.266 124.813 133.973 125.004 133.709C125.195 133.438 125.466 133.225 125.818 133.071C126.177 132.917 126.588 132.84 127.05 132.84C127.739 132.84 128.293 133.016 128.711 133.368C129.136 133.713 129.364 134.186 129.393 134.787H128.139C128.117 134.516 128.007 134.299 127.809 134.138C127.611 133.977 127.343 133.896 127.006 133.896C126.676 133.896 126.423 133.958 126.247 134.083C126.071 134.208 125.983 134.373 125.983 134.578C125.983 134.739 126.042 134.875 126.159 134.985C126.276 135.095 126.419 135.183 126.588 135.249C126.757 135.308 127.006 135.385 127.336 135.48C127.776 135.597 128.135 135.718 128.414 135.843C128.7 135.96 128.946 136.136 129.151 136.371C129.356 136.606 129.463 136.917 129.47 137.306C129.47 137.651 129.375 137.959 129.184 138.23C128.993 138.501 128.722 138.714 128.37 138.868C128.025 139.022 127.618 139.099 127.149 139.099Z"></path>
<path fill="#0076B3" d="M150 135C150 133.895 150.895 133 152 133H366C367.105 133 368 133.895 368 135V135C368 136.105 367.105 137 366 137H152C150.895 137 150 136.105 150 135V135Z"></path>
<path fill="black" d="M177.079 162.367V164.611H179.719V165.634H177.079V167.977H180.049V169H175.825V161.344H180.049V162.367H177.079ZM184.652 162.84C185.128 162.84 185.554 162.939 185.928 163.137C186.309 163.335 186.606 163.628 186.819 164.017C187.031 164.406 187.138 164.875 187.138 165.425V169H185.895V165.612C185.895 165.069 185.759 164.655 185.488 164.369C185.216 164.076 184.846 163.929 184.377 163.929C183.907 163.929 183.533 164.076 183.255 164.369C182.983 164.655 182.848 165.069 182.848 165.612V169H181.594V162.939H182.848V163.632C183.053 163.383 183.313 163.188 183.629 163.049C183.951 162.91 184.292 162.84 184.652 162.84ZM188.319 165.942C188.319 165.333 188.444 164.794 188.693 164.325C188.95 163.856 189.294 163.493 189.727 163.236C190.167 162.972 190.651 162.84 191.179 162.84C191.656 162.84 192.07 162.935 192.422 163.126C192.781 163.309 193.067 163.54 193.28 163.819V162.939H194.545V169H193.28V168.098C193.067 168.384 192.778 168.622 192.411 168.813C192.044 169.004 191.626 169.099 191.157 169.099C190.636 169.099 190.16 168.967 189.727 168.703C189.294 168.432 188.95 168.058 188.693 167.581C188.444 167.097 188.319 166.551 188.319 165.942ZM193.28 165.964C193.28 165.546 193.192 165.183 193.016 164.875C192.847 164.567 192.624 164.332 192.345 164.171C192.066 164.01 191.766 163.929 191.443 163.929C191.12 163.929 190.82 164.01 190.541 164.171C190.262 164.325 190.035 164.556 189.859 164.864C189.69 165.165 189.606 165.524 189.606 165.942C189.606 166.36 189.69 166.727 189.859 167.042C190.035 167.357 190.262 167.599 190.541 167.768C190.827 167.929 191.128 168.01 191.443 168.01C191.766 168.01 192.066 167.929 192.345 167.768C192.624 167.607 192.847 167.372 193.016 167.064C193.192 166.749 193.28 166.382 193.28 165.964ZM197.446 163.841C197.659 163.548 197.949 163.309 198.315 163.126C198.689 162.935 199.104 162.84 199.558 162.84C200.094 162.84 200.578 162.968 201.01 163.225C201.443 163.482 201.784 163.848 202.033 164.325C202.283 164.794 202.407 165.333 202.407 165.942C202.407 166.551 202.283 167.097 202.033 167.581C201.784 168.058 201.439 168.432 200.999 168.703C200.567 168.967 200.086 169.099 199.558 169.099C199.089 169.099 198.671 169.007 198.304 168.824C197.945 168.641 197.659 168.406 197.446 168.12V169H196.192V160.86H197.446V163.841ZM201.131 165.942C201.131 165.524 201.043 165.165 200.867 164.864C200.699 164.556 200.471 164.325 200.185 164.171C199.907 164.01 199.606 163.929 199.283 163.929C198.968 163.929 198.667 164.01 198.381 164.171C198.103 164.332 197.875 164.567 197.699 164.875C197.531 165.183 197.446 165.546 197.446 165.964C197.446 166.382 197.531 166.749 197.699 167.064C197.875 167.372 198.103 167.607 198.381 167.768C198.667 167.929 198.968 168.01 199.283 168.01C199.606 168.01 199.907 167.929 200.185 167.768C200.471 167.599 200.699 167.357 200.867 167.042C201.043 166.727 201.131 166.36 201.131 165.942ZM204.901 160.86V169H203.647V160.86H204.901ZM212.103 165.821C212.103 166.048 212.088 166.254 212.059 166.437H207.428C207.464 166.921 207.644 167.31 207.967 167.603C208.289 167.896 208.685 168.043 209.155 168.043C209.829 168.043 210.306 167.761 210.585 167.196H211.938C211.754 167.753 211.421 168.212 210.937 168.571C210.46 168.923 209.866 169.099 209.155 169.099C208.575 169.099 208.055 168.971 207.593 168.714C207.138 168.45 206.779 168.083 206.515 167.614C206.258 167.137 206.13 166.587 206.13 165.964C206.13 165.341 206.254 164.794 206.504 164.325C206.76 163.848 207.116 163.482 207.571 163.225C208.033 162.968 208.561 162.84 209.155 162.84C209.727 162.84 210.236 162.965 210.684 163.214C211.131 163.463 211.479 163.815 211.729 164.27C211.978 164.717 212.103 165.234 212.103 165.821ZM210.794 165.425C210.786 164.963 210.621 164.593 210.299 164.314C209.976 164.035 209.576 163.896 209.1 163.896C208.667 163.896 208.297 164.035 207.989 164.314C207.681 164.585 207.497 164.956 207.439 165.425H210.794ZM218.823 169.099C218.251 169.099 217.734 168.971 217.272 168.714C216.81 168.45 216.447 168.083 216.183 167.614C215.919 167.137 215.787 166.587 215.787 165.964C215.787 165.348 215.923 164.802 216.194 164.325C216.465 163.848 216.836 163.482 217.305 163.225C217.774 162.968 218.299 162.84 218.878 162.84C219.457 162.84 219.982 162.968 220.451 163.225C220.92 163.482 221.291 163.848 221.562 164.325C221.833 164.802 221.969 165.348 221.969 165.964C221.969 166.58 221.83 167.126 221.551 167.603C221.272 168.08 220.891 168.45 220.407 168.714C219.93 168.971 219.402 169.099 218.823 169.099ZM218.823 168.01C219.146 168.01 219.446 167.933 219.725 167.779C220.011 167.625 220.242 167.394 220.418 167.086C220.594 166.778 220.682 166.404 220.682 165.964C220.682 165.524 220.598 165.154 220.429 164.853C220.26 164.545 220.037 164.314 219.758 164.16C219.479 164.006 219.179 163.929 218.856 163.929C218.533 163.929 218.233 164.006 217.954 164.16C217.683 164.314 217.466 164.545 217.305 164.853C217.144 165.154 217.063 165.524 217.063 165.964C217.063 166.617 217.228 167.123 217.558 167.482C217.895 167.834 218.317 168.01 218.823 168.01ZM228.698 162.939V169H227.444V168.285C227.246 168.534 226.985 168.732 226.663 168.879C226.347 169.018 226.01 169.088 225.651 169.088C225.174 169.088 224.745 168.989 224.364 168.791C223.99 168.593 223.693 168.3 223.473 167.911C223.26 167.522 223.154 167.053 223.154 166.503V162.939H224.397V166.316C224.397 166.859 224.532 167.277 224.804 167.57C225.075 167.856 225.445 167.999 225.915 167.999C226.384 167.999 226.754 167.856 227.026 167.57C227.304 167.277 227.444 166.859 227.444 166.316V162.939H228.698ZM231.815 163.962V167.317C231.815 167.544 231.867 167.709 231.969 167.812C232.079 167.907 232.263 167.955 232.519 167.955H233.289V169H232.299C231.735 169 231.302 168.868 231.001 168.604C230.701 168.34 230.55 167.911 230.55 167.317V163.962H229.835V162.939H230.55V161.432H231.815V162.939H233.289V163.962H231.815ZM235.699 160.86V169H234.445V160.86H235.699ZM237.984 162.136C237.756 162.136 237.566 162.059 237.412 161.905C237.258 161.751 237.181 161.56 237.181 161.333C237.181 161.106 237.258 160.915 237.412 160.761C237.566 160.607 237.756 160.53 237.984 160.53C238.204 160.53 238.391 160.607 238.545 160.761C238.699 160.915 238.776 161.106 238.776 161.333C238.776 161.56 238.699 161.751 238.545 161.905C238.391 162.059 238.204 162.136 237.984 162.136ZM238.6 162.939V169H237.346V162.939H238.6ZM243.304 162.84C243.781 162.84 244.206 162.939 244.58 163.137C244.961 163.335 245.258 163.628 245.471 164.017C245.684 164.406 245.79 164.875 245.79 165.425V169H244.547V165.612C244.547 165.069 244.411 164.655 244.14 164.369C243.869 164.076 243.498 163.929 243.029 163.929C242.56 163.929 242.186 164.076 241.907 164.369C241.636 164.655 241.5 165.069 241.5 165.612V169H240.246V162.939H241.5V163.632C241.705 163.383 241.966 163.188 242.281 163.049C242.604 162.91 242.945 162.84 243.304 162.84ZM252.944 165.821C252.944 166.048 252.93 166.254 252.9 166.437H248.269C248.306 166.921 248.486 167.31 248.808 167.603C249.131 167.896 249.527 168.043 249.996 168.043C250.671 168.043 251.148 167.761 251.426 167.196H252.779C252.596 167.753 252.262 168.212 251.778 168.571C251.302 168.923 250.708 169.099 249.996 169.099C249.417 169.099 248.896 168.971 248.434 168.714C247.98 168.45 247.62 168.083 247.356 167.614C247.1 167.137 246.971 166.587 246.971 165.964C246.971 165.341 247.096 164.794 247.345 164.325C247.602 163.848 247.958 163.482 248.412 163.225C248.874 162.968 249.402 162.84 249.996 162.84C250.568 162.84 251.078 162.965 251.525 163.214C251.973 163.463 252.321 163.815 252.57 164.27C252.82 164.717 252.944 165.234 252.944 165.821ZM251.635 165.425C251.628 164.963 251.463 164.593 251.14 164.314C250.818 164.035 250.418 163.896 249.941 163.896C249.509 163.896 249.138 164.035 248.83 164.314C248.522 164.585 248.339 164.956 248.28 165.425H251.635Z"></path>
<rect fill="#0076B3" rx="10" height="20" width="40" y="155" x="265"></rect>
<rect fill="white" rx="6" height="12" width="12" y="159" x="289"></rect>
<defs>
<linearGradient gradientUnits="userSpaceOnUse" y2="47" x2="368" y1="47.0001" x1="150" id="paint0_linear_969_207">
<stop stop-color="#FF0000"></stop>
<stop stop-color="#FFBD00" offset="0.125"></stop>
<stop stop-color="#80FF00" offset="0.25"></stop>
<stop stop-color="#00FF40" offset="0.375"></stop>
<stop stop-color="#00FFFF" offset="0.5"></stop>
<stop stop-color="#0040FF" offset="0.625"></stop>
<stop stop-color="#8000FF" offset="0.75"></stop>
<stop stop-color="#FF00BF" offset="0.875"></stop>
<stop stop-color="#FF0000" offset="1"></stop>
</linearGradient>
</defs>
</svg>
