<svg xmlns="http://www.w3.org/2000/svg" fill="none" viewBox="0 0 480 360" height="360" width="480">
<rect fill-opacity="0.05" fill="white" rx="5" height="36" width="36" y="50" x="221"></rect>
<path stroke="#4CC2FF" d="M237.5 63.5C237.5 62.3954 238.395 61.5 239.5 61.5H243.5C244.605 61.5 245.5 62.3954 245.5 63.5V69.5C245.5 70.6046 244.605 71.5 243.5 71.5H239.5C238.395 71.5 237.5 70.6046 237.5 69.5V63.5Z"></path>
<path stroke-linecap="round" stroke="#CDCDCD" d="M235.5 64.5H234.5C233.395 64.5 232.5 65.3954 232.5 66.5V72.5C232.5 73.6046 233.395 74.5 234.5 74.5H238.918C239.581 74.5 240.187 74.1255 240.484 73.5326L240.5 73.5"></path>
</svg>
