<svg xmlns="http://www.w3.org/2000/svg" fill="none" viewBox="0 0 122 142" height="142" width="122">
<path fill-opacity="0.9" fill="#333333" d="M1 11C1 5.47716 5.47715 1 11 1H111C116.523 1 121 5.47715 121 11V131C121 136.523 116.523 141 111 141H11C5.47715 141 1 136.523 1 131V11Z"></path>
<path stroke-opacity="0.2" stroke="black" d="M111 0.5H11C5.20101 0.5 0.5 5.20101 0.5 11V131C0.5 136.799 5.20101 141.5 11 141.5H111C116.799 141.5 121.5 136.799 121.5 131V11C121.5 5.20101 116.799 0.5 111 0.5Z"></path>
<path fill="white" d="M16.764 92.355V93.378H14.729V100H13.475V93.378H11.429V92.355H16.764ZM20.663 100.099C20.091 100.099 19.574 99.9707 19.112 99.714C18.65 99.45 18.287 99.0833 18.023 98.614C17.759 98.1373 17.627 97.5873 17.627 96.964C17.627 96.348 17.7627 95.8017 18.034 95.325C18.3053 94.8483 18.6757 94.4817 19.145 94.225C19.6143 93.9683 20.1387 93.84 20.718 93.84C21.2973 93.84 21.8217 93.9683 22.291 94.225C22.7603 94.4817 23.1307 94.8483 23.402 95.325C23.6733 95.8017 23.809 96.348 23.809 96.964C23.809 97.58 23.6697 98.1263 23.391 98.603C23.1123 99.0797 22.731 99.45 22.247 99.714C21.7703 99.9707 21.2423 100.099 20.663 100.099ZM20.663 99.01C20.9857 99.01 21.2863 98.933 21.565 98.779C21.851 98.625 22.082 98.394 22.258 98.086C22.434 97.778 22.522 97.404 22.522 96.964C22.522 96.524 22.4377 96.1537 22.269 95.853C22.1003 95.545 21.8767 95.314 21.598 95.16C21.3193 95.006 21.0187 94.929 20.696 94.929C20.3733 94.929 20.0727 95.006 19.794 95.16C19.5227 95.314 19.3063 95.545 19.145 95.853C18.9837 96.1537 18.903 96.524 18.903 96.964C18.903 97.6167 19.068 98.1227 19.398 98.482C19.7353 98.834 20.157 99.01 20.663 99.01ZM32.3856 93.84C32.8623 93.84 33.2876 93.939 33.6616 94.137C34.043 94.335 34.34 94.6283 34.5526 95.017C34.7726 95.4057 34.8826 95.875 34.8826 96.425V100H33.6396V96.612C33.6396 96.0693 33.504 95.655 33.2326 95.369C32.9613 95.0757 32.591 94.929 32.1216 94.929C31.6523 94.929 31.2783 95.0757 30.9996 95.369C30.7283 95.655 30.5926 96.0693 30.5926 96.612V100H29.3496V96.612C29.3496 96.0693 29.214 95.655 28.9426 95.369C28.6713 95.0757 28.301 94.929 27.8316 94.929C27.3623 94.929 26.9883 95.0757 26.7096 95.369C26.4383 95.655 26.3026 96.0693 26.3026 96.612V100H25.0486V93.939H26.3026V94.632C26.508 94.3827 26.7683 94.1883 27.0836 94.049C27.399 93.9097 27.7363 93.84 28.0956 93.84C28.5796 93.84 29.0123 93.9427 29.3936 94.148C29.775 94.3533 30.0683 94.6503 30.2736 95.039C30.457 94.6723 30.743 94.3827 31.1316 94.17C31.5203 93.95 31.9383 93.84 32.3856 93.84ZM37.7323 94.841C37.945 94.5477 38.2347 94.3093 38.6013 94.126C38.9753 93.9353 39.3897 93.84 39.8443 93.84C40.3797 93.84 40.8637 93.9683 41.2963 94.225C41.729 94.4817 42.07 94.8483 42.3193 95.325C42.5687 95.7943 42.6933 96.3333 42.6933 96.942C42.6933 97.5507 42.5687 98.097 42.3193 98.581C42.07 99.0577 41.7253 99.4317 41.2853 99.703C40.8527 99.967 40.3723 100.099 39.8443 100.099C39.375 100.099 38.957 100.007 38.5903 99.824C38.231 99.6407 37.945 99.406 37.7323 99.12V100H36.4783V91.86H37.7323V94.841ZM41.4173 96.942C41.4173 96.524 41.3293 96.1647 41.1533 95.864C40.9847 95.556 40.7573 95.325 40.4713 95.171C40.1927 95.0097 39.892 94.929 39.5693 94.929C39.254 94.929 38.9533 95.0097 38.6673 95.171C38.3887 95.3323 38.1613 95.567 37.9853 95.875C37.8167 96.183 37.7323 96.546 37.7323 96.964C37.7323 97.382 37.8167 97.7487 37.9853 98.064C38.1613 98.372 38.3887 98.6067 38.6673 98.768C38.9533 98.9293 39.254 99.01 39.5693 99.01C39.892 99.01 40.1927 98.9293 40.4713 98.768C40.7573 98.5993 40.9847 98.3573 41.1533 98.042C41.3293 97.7267 41.4173 97.36 41.4173 96.942ZM49.4198 100.099C48.8478 100.099 48.3308 99.9707 47.8688 99.714C47.4068 99.45 47.0438 99.0833 46.7798 98.614C46.5158 98.1373 46.3838 97.5873 46.3838 96.964C46.3838 96.348 46.5195 95.8017 46.7908 95.325C47.0622 94.8483 47.4325 94.4817 47.9018 94.225C48.3712 93.9683 48.8955 93.84 49.4748 93.84C50.0542 93.84 50.5785 93.9683 51.0478 94.225C51.5172 94.4817 51.8875 94.8483 52.1588 95.325C52.4302 95.8017 52.5658 96.348 52.5658 96.964C52.5658 97.58 52.4265 98.1263 52.1478 98.603C51.8692 99.0797 51.4878 99.45 51.0038 99.714C50.5272 99.9707 49.9992 100.099 49.4198 100.099ZM49.4198 99.01C49.7425 99.01 50.0432 98.933 50.3218 98.779C50.6078 98.625 50.8388 98.394 51.0148 98.086C51.1908 97.778 51.2788 97.404 51.2788 96.964C51.2788 96.524 51.1945 96.1537 51.0258 95.853C50.8572 95.545 50.6335 95.314 50.3548 95.16C50.0762 95.006 49.7755 94.929 49.4528 94.929C49.1302 94.929 48.8295 95.006 48.5508 95.16C48.2795 95.314 48.0632 95.545 47.9018 95.853C47.7405 96.1537 47.6598 96.524 47.6598 96.964C47.6598 97.6167 47.8248 98.1227 48.1548 98.482C48.4922 98.834 48.9138 99.01 49.4198 99.01ZM56.3465 94.962H55.2245V100H53.9595V94.962H53.2445V93.939H53.9595V93.51C53.9595 92.8133 54.1428 92.3073 54.5095 91.992C54.8835 91.6693 55.4665 91.508 56.2585 91.508V92.553C55.8771 92.553 55.6095 92.6263 55.4555 92.773C55.3015 92.9123 55.2245 93.158 55.2245 93.51V93.939H56.3465V94.962ZM61.7782 94.962V98.317C61.7782 98.5443 61.8296 98.7093 61.9322 98.812C62.0422 98.9073 62.2256 98.955 62.4822 98.955H63.2522V100H62.2622C61.6976 100 61.2649 99.868 60.9642 99.604C60.6636 99.34 60.5132 98.911 60.5132 98.317V94.962H59.7982V93.939H60.5132V92.432H61.7782V93.939H63.2522V94.962H61.7782ZM67.543 93.84C68.005 93.84 68.4157 93.939 68.775 94.137C69.1417 94.335 69.4277 94.6283 69.633 95.017C69.8457 95.4057 69.952 95.875 69.952 96.425V100H68.709V96.612C68.709 96.0693 68.5733 95.655 68.302 95.369C68.0307 95.0757 67.6603 94.929 67.191 94.929C66.7217 94.929 66.3477 95.0757 66.069 95.369C65.7977 95.655 65.662 96.0693 65.662 96.612V100H64.408V91.86H65.662V94.643C65.8747 94.3863 66.1423 94.1883 66.465 94.049C66.795 93.9097 67.1543 93.84 67.543 93.84ZM77.1066 96.821C77.1066 97.0483 77.0919 97.2537 77.0626 97.437H72.4316C72.4682 97.921 72.6479 98.3097 72.9706 98.603C73.2932 98.8963 73.6892 99.043 74.1586 99.043C74.8332 99.043 75.3099 98.7607 75.5886 98.196H76.9416C76.7582 98.7533 76.4246 99.2117 75.9406 99.571C75.4639 99.923 74.8699 100.099 74.1586 100.099C73.5792 100.099 73.0586 99.9707 72.5966 99.714C72.1419 99.45 71.7826 99.0833 71.5186 98.614C71.2619 98.1373 71.1336 97.5873 71.1336 96.964C71.1336 96.3407 71.2582 95.7943 71.5076 95.325C71.7642 94.8483 72.1199 94.4817 72.5746 94.225C73.0366 93.9683 73.5646 93.84 74.1586 93.84C74.7306 93.84 75.2402 93.9647 75.6876 94.214C76.1349 94.4633 76.4832 94.8153 76.7326 95.27C76.9819 95.7173 77.1066 96.2343 77.1066 96.821ZM75.7976 96.425C75.7902 95.963 75.6252 95.5927 75.3026 95.314C74.9799 95.0353 74.5802 94.896 74.1036 94.896C73.6709 94.896 73.3006 95.0353 72.9926 95.314C72.6846 95.5853 72.5012 95.9557 72.4426 96.425H75.7976ZM89.25 92.355V100H87.996V94.764L85.664 100H84.795L82.452 94.764V100H81.198V92.355H82.551L85.235 98.35L87.908 92.355H89.25ZM90.4802 96.942C90.4802 96.3333 90.6049 95.7943 90.8542 95.325C91.1109 94.8557 91.4556 94.4927 91.8882 94.236C92.3282 93.972 92.8122 93.84 93.3402 93.84C93.8169 93.84 94.2312 93.9353 94.5832 94.126C94.9426 94.3093 95.2286 94.5403 95.4412 94.819V93.939H96.7062V100H95.4412V99.098C95.2286 99.384 94.9389 99.6223 94.5722 99.813C94.2056 100.004 93.7876 100.099 93.3182 100.099C92.7976 100.099 92.3209 99.967 91.8882 99.703C91.4556 99.4317 91.1109 99.0577 90.8542 98.581C90.6049 98.097 90.4802 97.5507 90.4802 96.942ZM95.4412 96.964C95.4412 96.546 95.3532 96.183 95.1772 95.875C95.0086 95.567 94.7849 95.3323 94.5062 95.171C94.2276 95.0097 93.9269 94.929 93.6042 94.929C93.2816 94.929 92.9809 95.0097 92.7022 95.171C92.4236 95.325 92.1962 95.556 92.0202 95.864C91.8516 96.1647 91.7672 96.524 91.7672 96.942C91.7672 97.36 91.8516 97.7267 92.0202 98.042C92.1962 98.3573 92.4236 98.5993 92.7022 98.768C92.9882 98.9293 93.2889 99.01 93.6042 99.01C93.9269 99.01 94.2276 98.9293 94.5062 98.768C94.7849 98.6067 95.0086 98.372 95.1772 98.064C95.3532 97.7487 95.4412 97.382 95.4412 96.964ZM100.553 100.099C100.077 100.099 99.6477 100.015 99.2663 99.846C98.8923 99.67 98.5953 99.4353 98.3753 99.142C98.1553 98.8413 98.038 98.5077 98.0233 98.141H99.3213C99.3433 98.3977 99.4643 98.614 99.6843 98.79C99.9117 98.9587 100.194 99.043 100.531 99.043C100.883 99.043 101.155 98.977 101.345 98.845C101.543 98.7057 101.642 98.5297 101.642 98.317C101.642 98.0897 101.532 97.921 101.312 97.811C101.1 97.701 100.759 97.58 100.289 97.448C99.8347 97.3233 99.4643 97.2023 99.1783 97.085C98.8923 96.9677 98.643 96.788 98.4303 96.546C98.225 96.304 98.1223 95.985 98.1223 95.589C98.1223 95.2663 98.2177 94.973 98.4083 94.709C98.599 94.4377 98.8703 94.225 99.2223 94.071C99.5817 93.917 99.9923 93.84 100.454 93.84C101.144 93.84 101.697 94.016 102.115 94.368C102.541 94.7127 102.768 95.1857 102.797 95.787H101.543C101.521 95.5157 101.411 95.2993 101.213 95.138C101.015 94.9767 100.748 94.896 100.41 94.896C100.08 94.896 99.8273 94.9583 99.6513 95.083C99.4753 95.2077 99.3873 95.3727 99.3873 95.578C99.3873 95.7393 99.446 95.875 99.5633 95.985C99.6807 96.095 99.8237 96.183 99.9923 96.249C100.161 96.3077 100.41 96.3847 100.74 96.48C101.18 96.5973 101.54 96.7183 101.818 96.843C102.104 96.9603 102.35 97.1363 102.555 97.371C102.761 97.6057 102.867 97.9173 102.874 98.306C102.874 98.6507 102.779 98.9587 102.588 99.23C102.398 99.5013 102.126 99.714 101.774 99.868C101.43 100.022 101.023 100.099 100.553 100.099ZM106.627 96.975L109.421 100H107.727L105.483 97.393V100H104.229V91.86H105.483V96.59L107.683 93.939H109.421L106.627 96.975Z"></path>
<path fill="#7C7C0D" d="M1 11C1 5.47715 5.47715 1 11 1H111C116.523 1 121 5.47715 121 11V81H1V11Z"></path>
<path fill-opacity="0.5" fill="black" d="M1 11C1 5.47715 5.47715 1 11 1H111C116.523 1 121 5.47715 121 11V81H1V11Z"></path>
<path fill="black" d="M56.3994 24.9998C57.2831 24.9998 57.9994 24.2835 57.9994 23.3998V23.3998C57.9994 22.5161 58.7158 21.7998 59.5994 21.7998H81.9994C82.8831 21.7998 83.5994 22.5161 83.5994 23.3998V42.5998C83.5994 43.4835 82.8831 44.1998 81.9994 44.1998V44.1998C81.1158 44.1998 80.3994 44.9161 80.3994 45.7998V58.5998C80.3994 59.4835 79.6831 60.1998 78.7994 60.1998H53.1994C52.3158 60.1998 51.5994 59.4835 51.5994 58.5998V55.3998C51.5994 54.5162 50.8831 53.7998 49.9994 53.7998V53.7998C49.1158 53.7998 48.3994 53.0835 48.3994 52.1998V42.5998C48.3994 41.7162 49.1158 40.9998 49.9994 40.9998V40.9998C50.8831 40.9998 51.5994 40.2835 51.5994 39.3998V26.5998C51.5994 25.7161 52.3158 24.9998 53.1994 24.9998H56.3994Z"></path>
<path fill="#FFFF00" d="M53.1994 28.1998C53.1994 27.3161 53.9158 26.5998 54.7994 26.5998H57.9994C58.8831 26.5998 59.5994 25.8835 59.5994 24.9998V24.9998C59.5994 24.1161 60.3158 23.3998 61.1994 23.3998H80.3994C81.2831 23.3998 81.9994 24.1161 81.9994 24.9998V40.9998C81.9994 41.8835 81.2831 42.5998 80.3994 42.5998V42.5998C79.5158 42.5998 78.7994 43.3161 78.7994 44.1998V44.1998C78.7994 45.0835 78.0831 45.7998 77.1994 45.7998H64.3994C63.5158 45.7998 62.7994 45.0835 62.7994 44.1998V44.1998C62.7994 43.3161 62.0831 42.5998 61.1994 42.5998H59.5994V48.9998H77.1994C78.0831 48.9998 78.7994 49.7161 78.7994 50.5998V56.9998C78.7994 57.8835 78.0831 58.5998 77.1994 58.5998H73.9994C73.1158 58.5998 72.3994 57.8835 72.3994 56.9998V53.7998C72.3994 52.9162 71.6831 52.1998 70.7994 52.1998V52.1998C69.9158 52.1998 69.1994 52.9161 69.1994 53.7998V56.9998C69.1994 57.8835 68.4831 58.5998 67.5994 58.5998H61.1994C60.3158 58.5998 59.5994 57.8835 59.5994 56.9998V48.9998H57.9994C57.1158 48.9998 56.3994 49.7161 56.3994 50.5998V56.9998C56.3994 57.8835 55.6831 58.5998 54.7994 58.5998V58.5998C53.9158 58.5998 53.1994 57.8835 53.1994 56.9998V53.7998C53.1994 52.9162 52.4831 52.1998 51.5994 52.1998V52.1998C50.7158 52.1998 49.9994 51.4835 49.9994 50.5998V44.1998C49.9994 43.3161 50.7158 42.5998 51.5994 42.5998V42.5998C52.4831 42.5998 53.1994 41.8835 53.1994 40.9998V40.9998C53.1994 40.1161 53.9158 39.3998 54.7994 39.3998V39.3998C55.6831 39.3998 56.3994 40.1161 56.3994 40.9998V40.9998C56.3994 41.8835 57.1158 42.5998 57.9994 42.5998H59.5994V37.7998C59.5994 36.9162 58.8831 36.1998 57.9994 36.1998H54.7994C53.9158 36.1998 53.1994 35.4835 53.1994 34.5998V34.5998C53.1994 33.7161 53.9158 32.9998 54.7994 32.9998H57.9994C58.8831 32.9998 59.5994 32.2835 59.5994 31.3998V31.3998C59.5994 30.5161 58.8831 29.7998 57.9994 29.7998H54.7994C53.9158 29.7998 53.1994 29.0835 53.1994 28.1998V28.1998Z"></path>
<path fill="black" d="M65.9994 40.9998C65.9994 40.1161 66.7158 39.3998 67.5994 39.3998H73.9994C74.8831 39.3998 75.5994 40.1161 75.5994 40.9998V40.9998C75.5994 41.8835 74.8831 42.5998 73.9994 42.5998H67.5994C66.7158 42.5998 65.9994 41.8835 65.9994 40.9998V40.9998Z"></path>
<path fill="black" d="M65.9994 31.3998C65.9994 30.5162 66.7158 29.7998 67.5994 29.7998V29.7998C68.4831 29.7998 69.1994 30.5161 69.1994 31.3998V34.5998C69.1994 35.4835 68.4831 36.1998 67.5994 36.1998V36.1998C66.7158 36.1998 65.9994 35.4835 65.9994 34.5998V31.3998Z"></path>
<path fill="black" d="M75.5994 31.3998C75.5994 30.5162 76.3158 29.7998 77.1994 29.7998V29.7998C78.0831 29.7998 78.7994 30.5161 78.7994 31.3998V34.5998C78.7994 35.4835 78.0831 36.1998 77.1994 36.1998V36.1998C76.3158 36.1998 75.5994 35.4835 75.5994 34.5998V31.3998Z"></path>
<path fill-opacity="0.05" fill="white" d="M61 116C61 113.239 63.2386 111 66 111H106C108.761 111 111 113.239 111 116V126C111 128.761 108.761 131 106 131H66C63.2386 131 61 128.761 61 126V116Z"></path>
<path fill="white" d="M77.2186 119.545C77.0566 119.233 76.8316 118.999 76.5436 118.843C76.2556 118.681 75.9226 118.6 75.5446 118.6C75.1306 118.6 74.7616 118.693 74.4376 118.879C74.1136 119.065 73.8586 119.329 73.6726 119.671C73.4926 120.013 73.4026 120.409 73.4026 120.859C73.4026 121.309 73.4926 121.708 73.6726 122.056C73.8586 122.398 74.1136 122.662 74.4376 122.848C74.7616 123.034 75.1306 123.127 75.5446 123.127C76.1026 123.127 76.5556 122.971 76.9036 122.659C77.2516 122.347 77.4646 121.924 77.5426 121.39H75.1936V120.571H78.6406V121.372C78.5746 121.858 78.4006 122.305 78.1186 122.713C77.8426 123.121 77.4796 123.448 77.0296 123.694C76.5856 123.934 76.0906 124.054 75.5446 124.054C74.9566 124.054 74.4196 123.919 73.9336 123.649C73.4476 123.373 73.0606 122.992 72.7726 122.506C72.4906 122.02 72.3496 121.471 72.3496 120.859C72.3496 120.247 72.4906 119.698 72.7726 119.212C73.0606 118.726 73.4476 118.348 73.9336 118.078C74.4256 117.802 74.9626 117.664 75.5446 117.664C76.2106 117.664 76.8016 117.829 77.3176 118.159C77.8396 118.483 78.2176 118.945 78.4516 119.545H77.2186ZM79.3105 121.498C79.3105 121 79.4125 120.559 79.6165 120.175C79.8265 119.791 80.1085 119.494 80.4625 119.284C80.8225 119.068 81.2185 118.96 81.6505 118.96C82.0405 118.96 82.3795 119.038 82.6675 119.194C82.9615 119.344 83.1955 119.533 83.3695 119.761V119.041H84.4045V124H83.3695V123.262C83.1955 123.496 82.9585 123.691 82.6585 123.847C82.3585 124.003 82.0165 124.081 81.6325 124.081C81.2065 124.081 80.8165 123.973 80.4625 123.757C80.1085 123.535 79.8265 123.229 79.6165 122.839C79.4125 122.443 79.3105 121.996 79.3105 121.498ZM83.3695 121.516C83.3695 121.174 83.2975 120.877 83.1535 120.625C83.0155 120.373 82.8325 120.181 82.6045 120.049C82.3765 119.917 82.1305 119.851 81.8665 119.851C81.6025 119.851 81.3565 119.917 81.1285 120.049C80.9005 120.175 80.7145 120.364 80.5705 120.616C80.4325 120.862 80.3635 121.156 80.3635 121.498C80.3635 121.84 80.4325 122.14 80.5705 122.398C80.7145 122.656 80.9005 122.854 81.1285 122.992C81.3625 123.124 81.6085 123.19 81.8665 123.19C82.1305 123.19 82.3765 123.124 82.6045 122.992C82.8325 122.86 83.0155 122.668 83.1535 122.416C83.2975 122.158 83.3695 121.858 83.3695 121.516ZM91.7551 118.96C92.1451 118.96 92.4931 119.041 92.7991 119.203C93.1111 119.365 93.3541 119.605 93.5281 119.923C93.7081 120.241 93.7981 120.625 93.7981 121.075V124H92.7811V121.228C92.7811 120.784 92.6701 120.445 92.4481 120.211C92.2261 119.971 91.9231 119.851 91.5391 119.851C91.1551 119.851 90.8491 119.971 90.6211 120.211C90.3991 120.445 90.2881 120.784 90.2881 121.228V124H89.2711V121.228C89.2711 120.784 89.1601 120.445 88.9381 120.211C88.7161 119.971 88.4131 119.851 88.0291 119.851C87.6451 119.851 87.3391 119.971 87.1111 120.211C86.8891 120.445 86.7781 120.784 86.7781 121.228V124H85.7521V119.041H86.7781V119.608C86.9461 119.404 87.1591 119.245 87.4171 119.131C87.6751 119.017 87.9511 118.96 88.2451 118.96C88.6411 118.96 88.9951 119.044 89.3071 119.212C89.6191 119.38 89.8591 119.623 90.0271 119.941C90.1771 119.641 90.4111 119.404 90.7291 119.23C91.0471 119.05 91.3891 118.96 91.7551 118.96ZM99.6487 121.399C99.6487 121.585 99.6367 121.753 99.6127 121.903H95.8237C95.8537 122.299 96.0007 122.617 96.2647 122.857C96.5287 123.097 96.8527 123.217 97.2367 123.217C97.7887 123.217 98.1787 122.986 98.4067 122.524H99.5137C99.3637 122.98 99.0907 123.355 98.6947 123.649C98.3047 123.937 97.8187 124.081 97.2367 124.081C96.7627 124.081 96.3367 123.976 95.9587 123.766C95.5867 123.55 95.2927 123.25 95.0767 122.866C94.8667 122.476 94.7617 122.026 94.7617 121.516C94.7617 121.006 94.8637 120.559 95.0677 120.175C95.2777 119.785 95.5687 119.485 95.9407 119.275C96.3187 119.065 96.7507 118.96 97.2367 118.96C97.7047 118.96 98.1217 119.062 98.4877 119.266C98.8537 119.47 99.1387 119.758 99.3427 120.13C99.5467 120.496 99.6487 120.919 99.6487 121.399ZM98.5777 121.075C98.5717 120.697 98.4367 120.394 98.1727 120.166C97.9087 119.938 97.5817 119.824 97.1917 119.824C96.8377 119.824 96.5347 119.938 96.2827 120.166C96.0307 120.388 95.8807 120.691 95.8327 121.075H98.5777Z"></path>
</svg>
