<svg version="1.1" xmlns="http://www.w3.org/2000/svg" xmlns:xlink="http://www.w3.org/1999/xlink" width="40" height="20" viewBox="0,0,40,20"><g transform="translate(-220,-167)"><g data-paper-data="{&quot;isPaintingLayer&quot;:true}" fill-rule="nonzero" stroke="none" stroke-width="1" stroke-linecap="butt" stroke-linejoin="miter" stroke-miterlimit="10" stroke-dasharray="" stroke-dashoffset="0" style="mix-blend-mode: normal"><path d="M220,187v-20h40v20z" fill="none"></path><path d="M240.72,175.512c0,-1.384 0.232,-2.464 0.696,-3.24c0.472,-0.784 1.28,-1.176 2.424,-1.176c1.144,0 1.948,0.392 2.412,1.176c0.472,0.776 0.708,1.856 0.708,3.24c0,1.4 -0.236,2.496 -0.708,3.288c-0.464,0.784 -1.268,1.176 -2.412,1.176c-1.144,0 -1.952,-0.392 -2.424,-1.176c-0.464,-0.792 -0.696,-1.888 -0.696,-3.288zM245.616,175.512c0,-0.648 -0.044,-1.196 -0.132,-1.644c-0.08,-0.448 -0.248,-0.812 -0.504,-1.092c-0.256,-0.288 -0.636,-0.432 -1.14,-0.432c-0.504,0 -0.884,0.144 -1.14,0.432c-0.256,0.28 -0.428,0.644 -0.516,1.092c-0.08,0.448 -0.12,0.996 -0.12,1.644c0,0.672 0.04,1.236 0.12,1.692c0.08,0.456 0.248,0.824 0.504,1.104c0.264,0.28 0.648,0.42 1.152,0.42c0.504,0 0.884,-0.14 1.14,-0.42c0.264,-0.28 0.436,-0.648 0.516,-1.104c0.08,-0.456 0.12,-1.02 0.12,-1.692z" fill="#ff0000"></path></g></g></svg>