<svg xmlns="http://www.w3.org/2000/svg" fill="none" viewBox="0 0 44 24" height="24" width="44">
<path fill-opacity="0.5" fill="#FF0000" d="M2 12C2 6.47715 6.47715 2 12 2H32C37.5228 2 42 6.47715 42 12V12C42 17.5228 37.5228 22 32 22H12C6.47715 22 2 17.5228 2 12V12Z"></path>
<path stroke-width="2" stroke-opacity="0.2" stroke="#FF0000" d="M32 1H12C5.92487 1 1 5.92487 1 12C1 18.0751 5.92487 23 12 23H32C38.0751 23 43 18.0751 43 12C43 5.92487 38.0751 1 32 1Z"></path>
<path fill="white" d="M20.7194 8.428H16.6994V10.816C16.8674 10.592 17.1154 10.404 17.4434 10.252C17.7794 10.1 18.1354 10.024 18.5114 10.024C19.1834 10.024 19.7274 10.168 20.1434 10.456C20.5674 10.744 20.8674 11.108 21.0434 11.548C21.2274 11.988 21.3194 12.452 21.3194 12.94C21.3194 13.532 21.2034 14.06 20.9714 14.524C20.7474 14.98 20.4074 15.34 19.9514 15.604C19.5034 15.868 18.9514 16 18.2954 16C17.4234 16 16.7234 15.784 16.1954 15.352C15.6674 14.92 15.3514 14.348 15.2474 13.636H16.5794C16.6674 14.012 16.8634 14.312 17.1674 14.536C17.4714 14.752 17.8514 14.86 18.3074 14.86C18.8754 14.86 19.2994 14.688 19.5794 14.344C19.8674 14 20.0114 13.544 20.0114 12.976C20.0114 12.4 19.8674 11.96 19.5794 11.656C19.2914 11.344 18.8674 11.188 18.3074 11.188C17.9154 11.188 17.5834 11.288 17.3114 11.488C17.0474 11.68 16.8554 11.944 16.7354 12.28H15.4394V7.228H20.7194V8.428ZM24.4474 13.624C24.5274 14.024 24.6994 14.328 24.9634 14.536C25.2274 14.744 25.5834 14.848 26.0314 14.848C26.5994 14.848 27.0154 14.624 27.2794 14.176C27.5434 13.728 27.6754 12.964 27.6754 11.884C27.4834 12.156 27.2114 12.368 26.8594 12.52C26.5154 12.664 26.1394 12.736 25.7314 12.736C25.2114 12.736 24.7394 12.632 24.3154 12.424C23.8914 12.208 23.5554 11.892 23.3074 11.476C23.0674 11.052 22.9474 10.54 22.9474 9.94C22.9474 9.06 23.2034 8.36 23.7154 7.84C24.2354 7.312 24.9474 7.048 25.8514 7.048C26.9394 7.048 27.7114 7.412 28.1674 8.14C28.6314 8.86 28.8634 9.968 28.8634 11.464C28.8634 12.496 28.7754 13.34 28.5994 13.996C28.4314 14.652 28.1354 15.148 27.7114 15.484C27.2874 15.82 26.6994 15.988 25.9474 15.988C25.0914 15.988 24.4314 15.764 23.9674 15.316C23.5034 14.868 23.2434 14.304 23.1874 13.624H24.4474ZM25.9714 11.584C26.4514 11.584 26.8274 11.436 27.0994 11.14C27.3794 10.836 27.5194 10.436 27.5194 9.94C27.5194 9.388 27.3714 8.96 27.0754 8.656C26.7874 8.344 26.3914 8.188 25.8874 8.188C25.3834 8.188 24.9834 8.348 24.6874 8.668C24.3994 8.98 24.2554 9.392 24.2554 9.904C24.2554 10.392 24.3954 10.796 24.6754 11.116C24.9634 11.428 25.3954 11.584 25.9714 11.584Z"></path>
</svg>
