<svg xmlns="http://www.w3.org/2000/svg" fill="none" viewBox="0 0 480 360" height="360" width="480">
<path fill="black" d="M54.407 170.161C54.407 169.413 54.5793 168.742 54.924 168.148C55.276 167.554 55.749 167.092 56.343 166.762C56.9443 166.425 57.6007 166.256 58.312 166.256C59.126 166.256 59.8483 166.458 60.479 166.861C61.117 167.257 61.579 167.822 61.865 168.555H60.358C60.16 168.152 59.885 167.851 59.533 167.653C59.181 167.455 58.774 167.356 58.312 167.356C57.806 167.356 57.355 167.47 56.959 167.697C56.563 167.924 56.2513 168.251 56.024 168.676C55.804 169.101 55.694 169.596 55.694 170.161C55.694 170.726 55.804 171.221 56.024 171.646C56.2513 172.071 56.563 172.401 56.959 172.636C57.355 172.863 57.806 172.977 58.312 172.977C58.774 172.977 59.181 172.878 59.533 172.68C59.885 172.482 60.16 172.181 60.358 171.778H61.865C61.579 172.511 61.117 173.076 60.479 173.472C59.8483 173.868 59.126 174.066 58.312 174.066C57.5933 174.066 56.937 173.901 56.343 173.571C55.749 173.234 55.276 172.768 54.924 172.174C54.5793 171.58 54.407 170.909 54.407 170.161ZM68.8218 167.939V174H67.5678V173.285C67.3698 173.534 67.1095 173.732 66.7868 173.879C66.4715 174.018 66.1341 174.088 65.7748 174.088C65.2981 174.088 64.8691 173.989 64.4878 173.791C64.1138 173.593 63.8168 173.3 63.5968 172.911C63.3841 172.522 63.2778 172.053 63.2778 171.503V167.939H64.5208V171.316C64.5208 171.859 64.6565 172.277 64.9278 172.57C65.1991 172.856 65.5695 172.999 66.0388 172.999C66.5081 172.999 66.8785 172.856 67.1498 172.57C67.4285 172.277 67.5678 171.859 67.5678 171.316V167.939H68.8218ZM72.6764 174.099C72.1997 174.099 71.7707 174.015 71.3894 173.846C71.0154 173.67 70.7184 173.435 70.4984 173.142C70.2784 172.841 70.161 172.508 70.1464 172.141H71.4444C71.4664 172.398 71.5874 172.614 71.8074 172.79C72.0347 172.959 72.317 173.043 72.6544 173.043C73.0064 173.043 73.2777 172.977 73.4684 172.845C73.6664 172.706 73.7654 172.53 73.7654 172.317C73.7654 172.09 73.6554 171.921 73.4354 171.811C73.2227 171.701 72.8817 171.58 72.4124 171.448C71.9577 171.323 71.5874 171.202 71.3014 171.085C71.0154 170.968 70.766 170.788 70.5534 170.546C70.348 170.304 70.2454 169.985 70.2454 169.589C70.2454 169.266 70.3407 168.973 70.5314 168.709C70.722 168.438 70.9934 168.225 71.3454 168.071C71.7047 167.917 72.1154 167.84 72.5774 167.84C73.2667 167.84 73.8204 168.016 74.2384 168.368C74.6637 168.713 74.891 169.186 74.9204 169.787H73.6664C73.6444 169.516 73.5344 169.299 73.3364 169.138C73.1384 168.977 72.8707 168.896 72.5334 168.896C72.2034 168.896 71.9504 168.958 71.7744 169.083C71.5984 169.208 71.5104 169.373 71.5104 169.578C71.5104 169.739 71.569 169.875 71.6864 169.985C71.8037 170.095 71.9467 170.183 72.1154 170.249C72.284 170.308 72.5334 170.385 72.8634 170.48C73.3034 170.597 73.6627 170.718 73.9414 170.843C74.2274 170.96 74.473 171.136 74.6784 171.371C74.8837 171.606 74.99 171.917 74.9974 172.306C74.9974 172.651 74.902 172.959 74.7114 173.23C74.5207 173.501 74.2494 173.714 73.8974 173.868C73.5527 174.022 73.1457 174.099 72.6764 174.099ZM77.8153 168.962V172.317C77.8153 172.544 77.8667 172.709 77.9693 172.812C78.0793 172.907 78.2627 172.955 78.5193 172.955H79.2893V174H78.2993C77.7347 174 77.302 173.868 77.0013 173.604C76.7007 173.34 76.5503 172.911 76.5503 172.317V168.962H75.8353V167.939H76.5503V166.432H77.8153V167.939H79.2893V168.962H77.8153ZM83.0741 174.099C82.5021 174.099 81.9851 173.971 81.5231 173.714C81.0611 173.45 80.6981 173.083 80.4341 172.614C80.1701 172.137 80.0381 171.587 80.0381 170.964C80.0381 170.348 80.1738 169.802 80.4451 169.325C80.7165 168.848 81.0868 168.482 81.5561 168.225C82.0255 167.968 82.5498 167.84 83.1291 167.84C83.7085 167.84 84.2328 167.968 84.7021 168.225C85.1715 168.482 85.5418 168.848 85.8131 169.325C86.0845 169.802 86.2201 170.348 86.2201 170.964C86.2201 171.58 86.0808 172.126 85.8021 172.603C85.5235 173.08 85.1421 173.45 84.6581 173.714C84.1815 173.971 83.6535 174.099 83.0741 174.099ZM83.0741 173.01C83.3968 173.01 83.6975 172.933 83.9761 172.779C84.2621 172.625 84.4931 172.394 84.6691 172.086C84.8451 171.778 84.9331 171.404 84.9331 170.964C84.9331 170.524 84.8488 170.154 84.6801 169.853C84.5115 169.545 84.2878 169.314 84.0091 169.16C83.7305 169.006 83.4298 168.929 83.1071 168.929C82.7845 168.929 82.4838 169.006 82.2051 169.16C81.9338 169.314 81.7175 169.545 81.5561 169.853C81.3948 170.154 81.3141 170.524 81.3141 170.964C81.3141 171.617 81.4791 172.123 81.8091 172.482C82.1465 172.834 82.5681 173.01 83.0741 173.01ZM94.7968 167.84C95.2734 167.84 95.6988 167.939 96.0728 168.137C96.4541 168.335 96.7511 168.628 96.9638 169.017C97.1838 169.406 97.2938 169.875 97.2938 170.425V174H96.0508V170.612C96.0508 170.069 95.9151 169.655 95.6438 169.369C95.3724 169.076 95.0021 168.929 94.5328 168.929C94.0634 168.929 93.6894 169.076 93.4108 169.369C93.1394 169.655 93.0038 170.069 93.0038 170.612V174H91.7608V170.612C91.7608 170.069 91.6251 169.655 91.3538 169.369C91.0824 169.076 90.7121 168.929 90.2428 168.929C89.7734 168.929 89.3994 169.076 89.1208 169.369C88.8494 169.655 88.7138 170.069 88.7138 170.612V174H87.4598V167.939H88.7138V168.632C88.9191 168.383 89.1794 168.188 89.4948 168.049C89.8101 167.91 90.1474 167.84 90.5068 167.84C90.9908 167.84 91.4234 167.943 91.8048 168.148C92.1861 168.353 92.4794 168.65 92.6848 169.039C92.8681 168.672 93.1541 168.383 93.5428 168.17C93.9314 167.95 94.3494 167.84 94.7968 167.84ZM99.5275 167.136C99.3001 167.136 99.1095 167.059 98.9555 166.905C98.8015 166.751 98.7245 166.56 98.7245 166.333C98.7245 166.106 98.8015 165.915 98.9555 165.761C99.1095 165.607 99.3001 165.53 99.5275 165.53C99.7475 165.53 99.9345 165.607 100.088 165.761C100.242 165.915 100.319 166.106 100.319 166.333C100.319 166.56 100.242 166.751 100.088 166.905C99.9345 167.059 99.7475 167.136 99.5275 167.136ZM100.143 167.939V174H98.8895V167.939H100.143ZM102.901 172.977H105.651V174H101.449V172.977L104.21 168.962H101.449V167.939H105.651V168.962L102.901 172.977ZM106.55 170.942C106.55 170.333 106.674 169.794 106.924 169.325C107.18 168.856 107.525 168.493 107.958 168.236C108.398 167.972 108.882 167.84 109.41 167.84C109.886 167.84 110.301 167.935 110.653 168.126C111.012 168.309 111.298 168.54 111.511 168.819V167.939H112.776V174H111.511V173.098C111.298 173.384 111.008 173.622 110.642 173.813C110.275 174.004 109.857 174.099 109.388 174.099C108.867 174.099 108.39 173.967 107.958 173.703C107.525 173.432 107.18 173.058 106.924 172.581C106.674 172.097 106.55 171.551 106.55 170.942ZM111.511 170.964C111.511 170.546 111.423 170.183 111.247 169.875C111.078 169.567 110.854 169.332 110.576 169.171C110.297 169.01 109.996 168.929 109.674 168.929C109.351 168.929 109.05 169.01 108.772 169.171C108.493 169.325 108.266 169.556 108.09 169.864C107.921 170.165 107.837 170.524 107.837 170.942C107.837 171.36 107.921 171.727 108.09 172.042C108.266 172.357 108.493 172.599 108.772 172.768C109.058 172.929 109.358 173.01 109.674 173.01C109.996 173.01 110.297 172.929 110.576 172.768C110.854 172.607 111.078 172.372 111.247 172.064C111.423 171.749 111.511 171.382 111.511 170.964ZM115.886 168.962V172.317C115.886 172.544 115.937 172.709 116.04 172.812C116.15 172.907 116.333 172.955 116.59 172.955H117.36V174H116.37C115.805 174 115.372 173.868 115.072 173.604C114.771 173.34 114.621 172.911 114.621 172.317V168.962H113.906V167.939H114.621V166.432H115.886V167.939H117.36V168.962H115.886ZM119.153 167.136C118.926 167.136 118.735 167.059 118.581 166.905C118.427 166.751 118.35 166.56 118.35 166.333C118.35 166.106 118.427 165.915 118.581 165.761C118.735 165.607 118.926 165.53 119.153 165.53C119.373 165.53 119.56 165.607 119.714 165.761C119.868 165.915 119.945 166.106 119.945 166.333C119.945 166.56 119.868 166.751 119.714 166.905C119.56 167.059 119.373 167.136 119.153 167.136ZM119.769 167.939V174H118.515V167.939H119.769ZM124.045 174.099C123.473 174.099 122.956 173.971 122.494 173.714C122.032 173.45 121.669 173.083 121.405 172.614C121.141 172.137 121.009 171.587 121.009 170.964C121.009 170.348 121.144 169.802 121.416 169.325C121.687 168.848 122.057 168.482 122.527 168.225C122.996 167.968 123.52 167.84 124.1 167.84C124.679 167.84 125.203 167.968 125.673 168.225C126.142 168.482 126.512 168.848 126.784 169.325C127.055 169.802 127.191 170.348 127.191 170.964C127.191 171.58 127.051 172.126 126.773 172.603C126.494 173.08 126.113 173.45 125.629 173.714C125.152 173.971 124.624 174.099 124.045 174.099ZM124.045 173.01C124.367 173.01 124.668 172.933 124.947 172.779C125.233 172.625 125.464 172.394 125.64 172.086C125.816 171.778 125.904 171.404 125.904 170.964C125.904 170.524 125.819 170.154 125.651 169.853C125.482 169.545 125.258 169.314 124.98 169.16C124.701 169.006 124.4 168.929 124.078 168.929C123.755 168.929 123.454 169.006 123.176 169.16C122.904 169.314 122.688 169.545 122.527 169.853C122.365 170.154 122.285 170.524 122.285 170.964C122.285 171.617 122.45 172.123 122.78 172.482C123.117 172.834 123.539 173.01 124.045 173.01ZM131.488 167.84C131.965 167.84 132.39 167.939 132.764 168.137C133.146 168.335 133.443 168.628 133.655 169.017C133.868 169.406 133.974 169.875 133.974 170.425V174H132.731V170.612C132.731 170.069 132.596 169.655 132.324 169.369C132.053 169.076 131.683 168.929 131.213 168.929C130.744 168.929 130.37 169.076 130.091 169.369C129.82 169.655 129.684 170.069 129.684 170.612V174H128.43V167.939H129.684V168.632C129.89 168.383 130.15 168.188 130.465 168.049C130.788 167.91 131.129 167.84 131.488 167.84Z"></path>
<path fill="url(#paint0_linear_504_260)" d="M34.0001 172.502C37.3151 168.638 43.0001 162.999 41.0001 160.999C39.0001 159 34.2934 164.739 31.0001 168.503C27.5002 172.502 25.337 177.5 26 178.003C26.663 178.506 31.0001 176 34.0001 172.502Z"></path>
<path fill="url(#paint1_linear_504_260)" d="M26 179.5C24.513 179.483 22.5 178.5 22.5 178.5C22.5 178.5 25 176.5 25 175C25 173.5 26 172 28 172C29.3195 172 31.5 173 31.5 175.5C31.5 178 28.6268 179.53 26 179.5Z"></path>
<path fill="black" d="M59.434 212.438H56.233L55.683 214H54.374L57.113 206.344H58.565L61.304 214H59.984L59.434 212.438ZM59.082 211.415L57.839 207.862L56.585 211.415H59.082ZM62.0769 210.964C62.0769 210.341 62.2016 209.794 62.4509 209.325C62.7076 208.848 63.0596 208.482 63.5069 208.225C63.9543 207.968 64.4676 207.84 65.0469 207.84C65.7803 207.84 66.3853 208.016 66.8619 208.368C67.3459 208.713 67.6723 209.208 67.8409 209.853H66.4879C66.3779 209.552 66.2019 209.318 65.9599 209.149C65.7179 208.98 65.4136 208.896 65.0469 208.896C64.5336 208.896 64.1229 209.079 63.8149 209.446C63.5143 209.805 63.3639 210.311 63.3639 210.964C63.3639 211.617 63.5143 212.126 63.8149 212.493C64.1229 212.86 64.5336 213.043 65.0469 213.043C65.7729 213.043 66.2533 212.724 66.4879 212.086H67.8409C67.6649 212.702 67.3349 213.193 66.8509 213.56C66.3669 213.919 65.7656 214.099 65.0469 214.099C64.4676 214.099 63.9543 213.971 63.5069 213.714C63.0596 213.45 62.7076 213.083 62.4509 212.614C62.2016 212.137 62.0769 211.587 62.0769 210.964ZM68.6726 210.964C68.6726 210.341 68.7973 209.794 69.0466 209.325C69.3033 208.848 69.6553 208.482 70.1026 208.225C70.55 207.968 71.0633 207.84 71.6426 207.84C72.376 207.84 72.981 208.016 73.4576 208.368C73.9416 208.713 74.268 209.208 74.4366 209.853H73.0836C72.9736 209.552 72.7976 209.318 72.5556 209.149C72.3136 208.98 72.0093 208.896 71.6426 208.896C71.1293 208.896 70.7186 209.079 70.4106 209.446C70.11 209.805 69.9596 210.311 69.9596 210.964C69.9596 211.617 70.11 212.126 70.4106 212.493C70.7186 212.86 71.1293 213.043 71.6426 213.043C72.3686 213.043 72.849 212.724 73.0836 212.086H74.4366C74.2606 212.702 73.9306 213.193 73.4466 213.56C72.9626 213.919 72.3613 214.099 71.6426 214.099C71.0633 214.099 70.55 213.971 70.1026 213.714C69.6553 213.45 69.3033 213.083 69.0466 212.614C68.7973 212.137 68.6726 211.587 68.6726 210.964ZM78.3153 214.099C77.7433 214.099 77.2263 213.971 76.7643 213.714C76.3023 213.45 75.9393 213.083 75.6753 212.614C75.4113 212.137 75.2793 211.587 75.2793 210.964C75.2793 210.348 75.415 209.802 75.6863 209.325C75.9577 208.848 76.328 208.482 76.7973 208.225C77.2667 207.968 77.791 207.84 78.3703 207.84C78.9497 207.84 79.474 207.968 79.9433 208.225C80.4127 208.482 80.783 208.848 81.0543 209.325C81.3257 209.802 81.4613 210.348 81.4613 210.964C81.4613 211.58 81.322 212.126 81.0433 212.603C80.7647 213.08 80.3833 213.45 79.8993 213.714C79.4227 213.971 78.8947 214.099 78.3153 214.099ZM78.3153 213.01C78.638 213.01 78.9387 212.933 79.2173 212.779C79.5033 212.625 79.7343 212.394 79.9103 212.086C80.0863 211.778 80.1743 211.404 80.1743 210.964C80.1743 210.524 80.09 210.154 79.9213 209.853C79.7527 209.545 79.529 209.314 79.2503 209.16C78.9717 209.006 78.671 208.929 78.3483 208.929C78.0257 208.929 77.725 209.006 77.4463 209.16C77.175 209.314 76.9587 209.545 76.7973 209.853C76.636 210.154 76.5553 210.524 76.5553 210.964C76.5553 211.617 76.7203 212.123 77.0503 212.482C77.3877 212.834 77.8093 213.01 78.3153 213.01ZM88.19 207.939V214H86.936V213.285C86.738 213.534 86.4776 213.732 86.155 213.879C85.8396 214.018 85.5023 214.088 85.143 214.088C84.6663 214.088 84.2373 213.989 83.856 213.791C83.482 213.593 83.185 213.3 82.965 212.911C82.7523 212.522 82.646 212.053 82.646 211.503V207.939H83.889V211.316C83.889 211.859 84.0246 212.277 84.296 212.57C84.5673 212.856 84.9376 212.999 85.407 212.999C85.8763 212.999 86.2466 212.856 86.518 212.57C86.7966 212.277 86.936 211.859 86.936 211.316V207.939H88.19ZM92.9025 207.84C93.3792 207.84 93.8045 207.939 94.1785 208.137C94.5599 208.335 94.8569 208.628 95.0695 209.017C95.2822 209.406 95.3885 209.875 95.3885 210.425V214H94.1455V210.612C94.1455 210.069 94.0099 209.655 93.7385 209.369C93.4672 209.076 93.0969 208.929 92.6275 208.929C92.1582 208.929 91.7842 209.076 91.5055 209.369C91.2342 209.655 91.0985 210.069 91.0985 210.612V214H89.8445V207.939H91.0985V208.632C91.3039 208.383 91.5642 208.188 91.8795 208.049C92.2022 207.91 92.5432 207.84 92.9025 207.84ZM98.4511 208.962V212.317C98.4511 212.544 98.5024 212.709 98.6051 212.812C98.7151 212.907 98.8984 212.955 99.1551 212.955H99.9251V214H98.9351C98.3704 214 97.9378 213.868 97.6371 213.604C97.3364 213.34 97.1861 212.911 97.1861 212.317V208.962H96.4711V207.939H97.1861V206.432H98.4511V207.939H99.9251V208.962H98.4511Z"></path>
<path fill="url(#paint2_linear_504_260)" d="M27 205C27 202.239 29.2386 200 32 200V200C34.7614 200 37 202.239 37 205V205C37 207.761 34.7614 210 32 210V210C29.2386 210 27 207.761 27 205V205Z"></path>
<path fill="url(#paint3_linear_504_260)" d="M24 214C24 212.895 24.8954 212 26 212H38C39.1046 212 40 212.895 40 214V214C40 217.314 37.3137 220 34 220H30C26.6863 220 24 217.314 24 214V214Z"></path>
<path fill="black" d="M57.344 254.077C56.8307 254.077 56.3687 253.989 55.958 253.813C55.5473 253.63 55.2247 253.373 54.99 253.043C54.7553 252.713 54.638 252.328 54.638 251.888H55.98C56.0093 252.218 56.1377 252.489 56.365 252.702C56.5997 252.915 56.926 253.021 57.344 253.021C57.7767 253.021 58.114 252.918 58.356 252.713C58.598 252.5 58.719 252.229 58.719 251.899C58.719 251.642 58.642 251.433 58.488 251.272C58.3413 251.111 58.1543 250.986 57.927 250.898C57.707 250.81 57.399 250.715 57.003 250.612C56.5043 250.48 56.0973 250.348 55.782 250.216C55.474 250.077 55.21 249.864 54.99 249.578C54.77 249.292 54.66 248.911 54.66 248.434C54.66 247.994 54.77 247.609 54.99 247.279C55.21 246.949 55.518 246.696 55.914 246.52C56.31 246.344 56.7683 246.256 57.289 246.256C58.0297 246.256 58.6347 246.443 59.104 246.817C59.5807 247.184 59.8447 247.69 59.896 248.335H58.51C58.488 248.056 58.356 247.818 58.114 247.62C57.872 247.422 57.553 247.323 57.157 247.323C56.7977 247.323 56.5043 247.415 56.277 247.598C56.0497 247.781 55.936 248.045 55.936 248.39C55.936 248.625 56.0057 248.819 56.145 248.973C56.2917 249.12 56.475 249.237 56.695 249.325C56.915 249.413 57.2157 249.508 57.597 249.611C58.103 249.75 58.5137 249.89 58.829 250.029C59.1517 250.168 59.423 250.385 59.643 250.678C59.8703 250.964 59.984 251.349 59.984 251.833C59.984 252.222 59.8777 252.588 59.665 252.933C59.4597 253.278 59.1553 253.556 58.752 253.769C58.356 253.974 57.8867 254.077 57.344 254.077ZM64.0927 254.099C63.5207 254.099 63.0037 253.971 62.5417 253.714C62.0797 253.45 61.7167 253.083 61.4527 252.614C61.1887 252.137 61.0567 251.587 61.0567 250.964C61.0567 250.348 61.1923 249.802 61.4637 249.325C61.735 248.848 62.1053 248.482 62.5747 248.225C63.044 247.968 63.5683 247.84 64.1477 247.84C64.727 247.84 65.2513 247.968 65.7207 248.225C66.19 248.482 66.5603 248.848 66.8317 249.325C67.103 249.802 67.2387 250.348 67.2387 250.964C67.2387 251.58 67.0993 252.126 66.8207 252.603C66.542 253.08 66.1607 253.45 65.6767 253.714C65.2 253.971 64.672 254.099 64.0927 254.099ZM64.0927 253.01C64.4153 253.01 64.716 252.933 64.9947 252.779C65.2807 252.625 65.5117 252.394 65.6877 252.086C65.8637 251.778 65.9517 251.404 65.9517 250.964C65.9517 250.524 65.8673 250.154 65.6987 249.853C65.53 249.545 65.3063 249.314 65.0277 249.16C64.749 249.006 64.4483 248.929 64.1257 248.929C63.803 248.929 63.5023 249.006 63.2237 249.16C62.9523 249.314 62.736 249.545 62.5747 249.853C62.4133 250.154 62.3327 250.524 62.3327 250.964C62.3327 251.617 62.4977 252.123 62.8277 252.482C63.165 252.834 63.5867 253.01 64.0927 253.01ZM73.9673 247.939V254H72.7133V253.285C72.5153 253.534 72.255 253.732 71.9323 253.879C71.617 254.018 71.2797 254.088 70.9203 254.088C70.4437 254.088 70.0147 253.989 69.6333 253.791C69.2593 253.593 68.9623 253.3 68.7423 252.911C68.5297 252.522 68.4233 252.053 68.4233 251.503V247.939H69.6663V251.316C69.6663 251.859 69.802 252.277 70.0733 252.57C70.3447 252.856 70.715 252.999 71.1843 252.999C71.6537 252.999 72.024 252.856 72.2953 252.57C72.574 252.277 72.7133 251.859 72.7133 251.316V247.939H73.9673ZM78.6799 247.84C79.1565 247.84 79.5819 247.939 79.9559 248.137C80.3372 248.335 80.6342 248.628 80.8469 249.017C81.0595 249.406 81.1659 249.875 81.1659 250.425V254H79.9229V250.612C79.9229 250.069 79.7872 249.655 79.5159 249.369C79.2445 249.076 78.8742 248.929 78.4049 248.929C77.9355 248.929 77.5615 249.076 77.2829 249.369C77.0115 249.655 76.8759 250.069 76.8759 250.612V254H75.6219V247.939H76.8759V248.632C77.0812 248.383 77.3415 248.188 77.6569 248.049C77.9795 247.91 78.3205 247.84 78.6799 247.84ZM82.3474 250.942C82.3474 250.333 82.4721 249.794 82.7214 249.325C82.9781 248.856 83.3228 248.493 83.7554 248.236C84.1954 247.972 84.6831 247.84 85.2184 247.84C85.6144 247.84 86.0031 247.928 86.3844 248.104C86.7731 248.273 87.0811 248.5 87.3084 248.786V245.86H88.5734V254H87.3084V253.087C87.1031 253.38 86.8171 253.622 86.4504 253.813C86.0911 254.004 85.6768 254.099 85.2074 254.099C84.6794 254.099 84.1954 253.967 83.7554 253.703C83.3228 253.432 82.9781 253.058 82.7214 252.581C82.4721 252.097 82.3474 251.551 82.3474 250.942ZM87.3084 250.964C87.3084 250.546 87.2204 250.183 87.0444 249.875C86.8758 249.567 86.6521 249.332 86.3734 249.171C86.0948 249.01 85.7941 248.929 85.4714 248.929C85.1488 248.929 84.8481 249.01 84.5694 249.171C84.2908 249.325 84.0634 249.556 83.8874 249.864C83.7188 250.165 83.6344 250.524 83.6344 250.942C83.6344 251.36 83.7188 251.727 83.8874 252.042C84.0634 252.357 84.2908 252.599 84.5694 252.768C84.8554 252.929 85.1561 253.01 85.4714 253.01C85.7941 253.01 86.0948 252.929 86.3734 252.768C86.6521 252.607 86.8758 252.372 87.0444 252.064C87.2204 251.749 87.3084 251.382 87.3084 250.964ZM92.4205 254.099C91.9438 254.099 91.5148 254.015 91.1335 253.846C90.7595 253.67 90.4625 253.435 90.2425 253.142C90.0225 252.841 89.9052 252.508 89.8905 252.141H91.1885C91.2105 252.398 91.3315 252.614 91.5515 252.79C91.7788 252.959 92.0612 253.043 92.3985 253.043C92.7505 253.043 93.0218 252.977 93.2125 252.845C93.4105 252.706 93.5095 252.53 93.5095 252.317C93.5095 252.09 93.3995 251.921 93.1795 251.811C92.9668 251.701 92.6258 251.58 92.1565 251.448C91.7018 251.323 91.3315 251.202 91.0455 251.085C90.7595 250.968 90.5102 250.788 90.2975 250.546C90.0922 250.304 89.9895 249.985 89.9895 249.589C89.9895 249.266 90.0848 248.973 90.2755 248.709C90.4662 248.438 90.7375 248.225 91.0895 248.071C91.4488 247.917 91.8595 247.84 92.3215 247.84C93.0108 247.84 93.5645 248.016 93.9825 248.368C94.4078 248.713 94.6352 249.186 94.6645 249.787H93.4105C93.3885 249.516 93.2785 249.299 93.0805 249.138C92.8825 248.977 92.6148 248.896 92.2775 248.896C91.9475 248.896 91.6945 248.958 91.5185 249.083C91.3425 249.208 91.2545 249.373 91.2545 249.578C91.2545 249.739 91.3132 249.875 91.4305 249.985C91.5478 250.095 91.6908 250.183 91.8595 250.249C92.0282 250.308 92.2775 250.385 92.6075 250.48C93.0475 250.597 93.4068 250.718 93.6855 250.843C93.9715 250.96 94.2172 251.136 94.4225 251.371C94.6278 251.606 94.7342 251.917 94.7415 252.306C94.7415 252.651 94.6462 252.959 94.4555 253.23C94.2648 253.501 93.9935 253.714 93.6415 253.868C93.2968 254.022 92.8898 254.099 92.4205 254.099Z"></path>
<path fill="url(#paint4_linear_504_260)" d="M28 246L31.2929 242.707C31.9229 242.077 33 242.523 33 243.414V256.586C33 257.477 31.9229 257.923 31.2929 257.293L28 254V246Z"></path>
<path fill="url(#paint5_linear_504_260)" d="M23 248C23 246.895 23.8954 246 25 246H28V254H25C23.8954 254 23 253.105 23 252V248Z"></path>
<path fill-opacity="0.2" fill="black" d="M23 248C23 246.895 23.8954 246 25 246H28V254H25C23.8954 254 23 253.105 23 252V248Z"></path>
<path fill="#3CCBF4" d="M35 255C35 255.552 35.4508 256.008 35.9954 255.917C36.4406 255.842 36.877 255.717 37.2961 255.543C38.0241 255.242 38.6855 254.8 39.2426 254.243C39.7998 253.685 40.2417 253.024 40.5433 252.296C40.8448 251.568 41 250.788 41 250C41 249.212 40.8448 248.432 40.5433 247.704C40.2417 246.976 39.7998 246.315 39.2426 245.757C38.6855 245.2 38.0241 244.758 37.2961 244.457C36.877 244.283 36.4406 244.158 35.9954 244.083C35.4508 243.992 35 244.448 35 245L35 250L35 255Z"></path>
<path fill="#1493DF" d="M35 254C35.5253 254 36.0454 253.897 36.5307 253.696C37.016 253.494 37.457 253.2 37.8284 252.828C38.1999 252.457 38.4945 252.016 38.6955 251.531C38.8965 251.045 39 250.525 39 250C39 249.475 38.8965 248.955 38.6955 248.469C38.4945 247.984 38.1999 247.543 37.8284 247.172C37.457 246.8 37.016 246.506 36.5307 246.304C36.0454 246.103 35.5253 246 35 246L35 250L35 254Z"></path>
<path fill="#0C59A3" d="M35 252C35.2626 252 35.5227 251.948 35.7654 251.848C36.008 251.747 36.2285 251.6 36.4142 251.414C36.5999 251.228 36.7472 251.008 36.8478 250.765C36.9483 250.523 37 250.263 37 250C37 249.737 36.9483 249.477 36.8478 249.235C36.7472 248.992 36.5999 248.772 36.4142 248.586C36.2285 248.4 36.008 248.253 35.7654 248.152C35.5227 248.052 35.2626 248 35 248L35 250L35 252Z"></path>
<path fill="black" d="M60.171 288.632C60.171 289.021 60.0793 289.387 59.896 289.732C59.7127 290.077 59.4193 290.359 59.016 290.579C58.6127 290.792 58.0957 290.898 57.465 290.898H56.079V294H54.825V286.355H57.465C58.0517 286.355 58.5467 286.458 58.95 286.663C59.3607 286.861 59.665 287.132 59.863 287.477C60.0683 287.822 60.171 288.207 60.171 288.632ZM57.465 289.875C57.9417 289.875 58.2973 289.769 58.532 289.556C58.7667 289.336 58.884 289.028 58.884 288.632C58.884 287.796 58.411 287.378 57.465 287.378H56.079V289.875H57.465ZM66.922 290.821C66.922 291.048 66.9073 291.254 66.878 291.437H62.247C62.2837 291.921 62.4633 292.31 62.786 292.603C63.1087 292.896 63.5047 293.043 63.974 293.043C64.6487 293.043 65.1253 292.761 65.404 292.196H66.757C66.5737 292.753 66.24 293.212 65.756 293.571C65.2793 293.923 64.6853 294.099 63.974 294.099C63.3947 294.099 62.874 293.971 62.412 293.714C61.9573 293.45 61.598 293.083 61.334 292.614C61.0773 292.137 60.949 291.587 60.949 290.964C60.949 290.341 61.0737 289.794 61.323 289.325C61.5797 288.848 61.9353 288.482 62.39 288.225C62.852 287.968 63.38 287.84 63.974 287.84C64.546 287.84 65.0557 287.965 65.503 288.214C65.9503 288.463 66.2987 288.815 66.548 289.27C66.7973 289.717 66.922 290.234 66.922 290.821ZM65.613 290.425C65.6057 289.963 65.4407 289.593 65.118 289.314C64.7953 289.035 64.3957 288.896 63.919 288.896C63.4863 288.896 63.116 289.035 62.808 289.314C62.5 289.585 62.3167 289.956 62.258 290.425H65.613ZM69.4101 288.819C69.5934 288.511 69.8354 288.273 70.1361 288.104C70.4441 287.928 70.8071 287.84 71.2251 287.84V289.138H70.9061C70.4147 289.138 70.0407 289.263 69.7841 289.512C69.5347 289.761 69.4101 290.194 69.4101 290.81V294H68.1561V287.939H69.4101V288.819ZM74.9187 288.962H73.7967V294H72.5317V288.962H71.8167V287.939H72.5317V287.51C72.5317 286.813 72.7151 286.307 73.0817 285.992C73.4557 285.669 74.0387 285.508 74.8307 285.508V286.553C74.4494 286.553 74.1817 286.626 74.0277 286.773C73.8737 286.912 73.7967 287.158 73.7967 287.51V287.939H74.9187V288.962ZM78.6591 294.099C78.0871 294.099 77.5701 293.971 77.1081 293.714C76.6461 293.45 76.2831 293.083 76.0191 292.614C75.7551 292.137 75.6231 291.587 75.6231 290.964C75.6231 290.348 75.7587 289.802 76.0301 289.325C76.3014 288.848 76.6717 288.482 77.1411 288.225C77.6104 287.968 78.1347 287.84 78.7141 287.84C79.2934 287.84 79.8177 287.968 80.2871 288.225C80.7564 288.482 81.1267 288.848 81.3981 289.325C81.6694 289.802 81.8051 290.348 81.8051 290.964C81.8051 291.58 81.6657 292.126 81.3871 292.603C81.1084 293.08 80.7271 293.45 80.2431 293.714C79.7664 293.971 79.2384 294.099 78.6591 294.099ZM78.6591 293.01C78.9817 293.01 79.2824 292.933 79.5611 292.779C79.8471 292.625 80.0781 292.394 80.2541 292.086C80.4301 291.778 80.5181 291.404 80.5181 290.964C80.5181 290.524 80.4337 290.154 80.2651 289.853C80.0964 289.545 79.8727 289.314 79.5941 289.16C79.3154 289.006 79.0147 288.929 78.6921 288.929C78.3694 288.929 78.0687 289.006 77.7901 289.16C77.5187 289.314 77.3024 289.545 77.1411 289.853C76.9797 290.154 76.8991 290.524 76.8991 290.964C76.8991 291.617 77.0641 292.123 77.3941 292.482C77.7314 292.834 78.1531 293.01 78.6591 293.01ZM84.2987 288.819C84.4821 288.511 84.7241 288.273 85.0247 288.104C85.3327 287.928 85.6957 287.84 86.1137 287.84V289.138H85.7947C85.3034 289.138 84.9294 289.263 84.6727 289.512C84.4234 289.761 84.2987 290.194 84.2987 290.81V294H83.0447V287.939H84.2987V288.819ZM94.6034 287.84C95.0801 287.84 95.5054 287.939 95.8794 288.137C96.2607 288.335 96.5577 288.628 96.7704 289.017C96.9904 289.406 97.1004 289.875 97.1004 290.425V294H95.8574V290.612C95.8574 290.069 95.7217 289.655 95.4504 289.369C95.1791 289.076 94.8087 288.929 94.3394 288.929C93.8701 288.929 93.4961 289.076 93.2174 289.369C92.9461 289.655 92.8104 290.069 92.8104 290.612V294H91.5674V290.612C91.5674 290.069 91.4317 289.655 91.1604 289.369C90.8891 289.076 90.5187 288.929 90.0494 288.929C89.5801 288.929 89.2061 289.076 88.9274 289.369C88.6561 289.655 88.5204 290.069 88.5204 290.612V294H87.2664V287.939H88.5204V288.632C88.7257 288.383 88.9861 288.188 89.3014 288.049C89.6167 287.91 89.9541 287.84 90.3134 287.84C90.7974 287.84 91.2301 287.943 91.6114 288.148C91.9927 288.353 92.2861 288.65 92.4914 289.039C92.6747 288.672 92.9607 288.383 93.3494 288.17C93.7381 287.95 94.1561 287.84 94.6034 287.84ZM98.2781 290.942C98.2781 290.333 98.4028 289.794 98.6521 289.325C98.9088 288.856 99.2534 288.493 99.6861 288.236C100.126 287.972 100.61 287.84 101.138 287.84C101.615 287.84 102.029 287.935 102.381 288.126C102.74 288.309 103.026 288.54 103.239 288.819V287.939H104.504V294H103.239V293.098C103.026 293.384 102.737 293.622 102.37 293.813C102.003 294.004 101.585 294.099 101.116 294.099C100.595 294.099 100.119 293.967 99.6861 293.703C99.2534 293.432 98.9088 293.058 98.6521 292.581C98.4028 292.097 98.2781 291.551 98.2781 290.942ZM103.239 290.964C103.239 290.546 103.151 290.183 102.975 289.875C102.806 289.567 102.583 289.332 102.304 289.171C102.025 289.01 101.725 288.929 101.402 288.929C101.079 288.929 100.779 289.01 100.5 289.171C100.221 289.325 99.9941 289.556 99.8181 289.864C99.6494 290.165 99.5651 290.524 99.5651 290.942C99.5651 291.36 99.6494 291.727 99.8181 292.042C99.9941 292.357 100.221 292.599 100.5 292.768C100.786 292.929 101.087 293.01 101.402 293.01C101.725 293.01 102.025 292.929 102.304 292.768C102.583 292.607 102.806 292.372 102.975 292.064C103.151 291.749 103.239 291.382 103.239 290.964ZM109.209 287.84C109.686 287.84 110.111 287.939 110.485 288.137C110.867 288.335 111.164 288.628 111.376 289.017C111.589 289.406 111.695 289.875 111.695 290.425V294H110.452V290.612C110.452 290.069 110.317 289.655 110.045 289.369C109.774 289.076 109.404 288.929 108.934 288.929C108.465 288.929 108.091 289.076 107.812 289.369C107.541 289.655 107.405 290.069 107.405 290.612V294H106.151V287.939H107.405V288.632C107.611 288.383 107.871 288.188 108.186 288.049C108.509 287.91 108.85 287.84 109.209 287.84ZM112.877 290.964C112.877 290.341 113.001 289.794 113.251 289.325C113.507 288.848 113.859 288.482 114.307 288.225C114.754 287.968 115.267 287.84 115.847 287.84C116.58 287.84 117.185 288.016 117.662 288.368C118.146 288.713 118.472 289.208 118.641 289.853H117.288C117.178 289.552 117.002 289.318 116.76 289.149C116.518 288.98 116.213 288.896 115.847 288.896C115.333 288.896 114.923 289.079 114.615 289.446C114.314 289.805 114.164 290.311 114.164 290.964C114.164 291.617 114.314 292.126 114.615 292.493C114.923 292.86 115.333 293.043 115.847 293.043C116.573 293.043 117.053 292.724 117.288 292.086H118.641C118.465 292.702 118.135 293.193 117.651 293.56C117.167 293.919 116.565 294.099 115.847 294.099C115.267 294.099 114.754 293.971 114.307 293.714C113.859 293.45 113.507 293.083 113.251 292.614C113.001 292.137 112.877 291.587 112.877 290.964ZM125.445 290.821C125.445 291.048 125.431 291.254 125.401 291.437H120.77C120.807 291.921 120.987 292.31 121.309 292.603C121.632 292.896 122.028 293.043 122.497 293.043C123.172 293.043 123.649 292.761 123.927 292.196H125.28C125.097 292.753 124.763 293.212 124.279 293.571C123.803 293.923 123.209 294.099 122.497 294.099C121.918 294.099 121.397 293.971 120.935 293.714C120.481 293.45 120.121 293.083 119.857 292.614C119.601 292.137 119.472 291.587 119.472 290.964C119.472 290.341 119.597 289.794 119.846 289.325C120.103 288.848 120.459 288.482 120.913 288.225C121.375 287.968 121.903 287.84 122.497 287.84C123.069 287.84 123.579 287.965 124.026 288.214C124.474 288.463 124.822 288.815 125.071 289.27C125.321 289.717 125.445 290.234 125.445 290.821ZM124.136 290.425C124.129 289.963 123.964 289.593 123.641 289.314C123.319 289.035 122.919 288.896 122.442 288.896C122.01 288.896 121.639 289.035 121.331 289.314C121.023 289.585 120.84 289.956 120.781 290.425H124.136ZM128.879 294.099C128.403 294.099 127.974 294.015 127.592 293.846C127.218 293.67 126.921 293.435 126.701 293.142C126.481 292.841 126.364 292.508 126.349 292.141H127.647C127.669 292.398 127.79 292.614 128.01 292.79C128.238 292.959 128.52 293.043 128.857 293.043C129.209 293.043 129.481 292.977 129.671 292.845C129.869 292.706 129.968 292.53 129.968 292.317C129.968 292.09 129.858 291.921 129.638 291.811C129.426 291.701 129.085 291.58 128.615 291.448C128.161 291.323 127.79 291.202 127.504 291.085C127.218 290.968 126.969 290.788 126.756 290.546C126.551 290.304 126.448 289.985 126.448 289.589C126.448 289.266 126.544 288.973 126.734 288.709C126.925 288.438 127.196 288.225 127.548 288.071C127.908 287.917 128.318 287.84 128.78 287.84C129.47 287.84 130.023 288.016 130.441 288.368C130.867 288.713 131.094 289.186 131.123 289.787H129.869C129.847 289.516 129.737 289.299 129.539 289.138C129.341 288.977 129.074 288.896 128.736 288.896C128.406 288.896 128.153 288.958 127.977 289.083C127.801 289.208 127.713 289.373 127.713 289.578C127.713 289.739 127.772 289.875 127.889 289.985C128.007 290.095 128.15 290.183 128.318 290.249C128.487 290.308 128.736 290.385 129.066 290.48C129.506 290.597 129.866 290.718 130.144 290.843C130.43 290.96 130.676 291.136 130.881 291.371C131.087 291.606 131.193 291.917 131.2 292.306C131.2 292.651 131.105 292.959 130.914 293.23C130.724 293.501 130.452 293.714 130.1 293.868C129.756 294.022 129.349 294.099 128.879 294.099Z"></path>
<path fill="url(#paint6_linear_504_260)" d="M34.814 282.847C34.9589 282.086 33.9968 281.631 33.5011 282.226L27.0254 289.995C26.6183 290.484 26.9656 291.225 27.6015 291.225H30.3161L29.186 297.153C29.0411 297.914 30.0032 298.369 30.4989 297.774L36.9746 290.005C37.3817 289.516 37.0344 288.775 36.3985 288.775H33.6839L34.814 282.847Z"></path>
<path fill="black" d="M57.344 134.077C56.8307 134.077 56.3687 133.989 55.958 133.813C55.5473 133.63 55.2247 133.373 54.99 133.043C54.7553 132.713 54.638 132.328 54.638 131.888H55.98C56.0093 132.218 56.1377 132.489 56.365 132.702C56.5997 132.915 56.926 133.021 57.344 133.021C57.7767 133.021 58.114 132.918 58.356 132.713C58.598 132.5 58.719 132.229 58.719 131.899C58.719 131.642 58.642 131.433 58.488 131.272C58.3413 131.111 58.1543 130.986 57.927 130.898C57.707 130.81 57.399 130.715 57.003 130.612C56.5043 130.48 56.0973 130.348 55.782 130.216C55.474 130.077 55.21 129.864 54.99 129.578C54.77 129.292 54.66 128.911 54.66 128.434C54.66 127.994 54.77 127.609 54.99 127.279C55.21 126.949 55.518 126.696 55.914 126.52C56.31 126.344 56.7683 126.256 57.289 126.256C58.0297 126.256 58.6347 126.443 59.104 126.817C59.5807 127.184 59.8447 127.69 59.896 128.335H58.51C58.488 128.056 58.356 127.818 58.114 127.62C57.872 127.422 57.553 127.323 57.157 127.323C56.7977 127.323 56.5043 127.415 56.277 127.598C56.0497 127.781 55.936 128.045 55.936 128.39C55.936 128.625 56.0057 128.819 56.145 128.973C56.2917 129.12 56.475 129.237 56.695 129.325C56.915 129.413 57.2157 129.508 57.597 129.611C58.103 129.75 58.5137 129.89 58.829 130.029C59.1517 130.168 59.423 130.385 59.643 130.678C59.8703 130.964 59.984 131.349 59.984 131.833C59.984 132.222 59.8777 132.588 59.665 132.933C59.4597 133.278 59.1553 133.556 58.752 133.769C58.356 133.974 57.8867 134.077 57.344 134.077ZM66.9197 127.939L63.2017 136.849H61.9037L63.1357 133.901L60.7487 127.939H62.1457L63.8507 132.559L65.6217 127.939H66.9197ZM70.066 134.099C69.5893 134.099 69.1603 134.015 68.779 133.846C68.405 133.67 68.108 133.435 67.888 133.142C67.668 132.841 67.5507 132.508 67.536 132.141H68.834C68.856 132.398 68.977 132.614 69.197 132.79C69.4243 132.959 69.7067 133.043 70.044 133.043C70.396 133.043 70.6673 132.977 70.858 132.845C71.056 132.706 71.155 132.53 71.155 132.317C71.155 132.09 71.045 131.921 70.825 131.811C70.6123 131.701 70.2713 131.58 69.802 131.448C69.3473 131.323 68.977 131.202 68.691 131.085C68.405 130.968 68.1557 130.788 67.943 130.546C67.7377 130.304 67.635 129.985 67.635 129.589C67.635 129.266 67.7303 128.973 67.921 128.709C68.1117 128.438 68.383 128.225 68.735 128.071C69.0943 127.917 69.505 127.84 69.967 127.84C70.6563 127.84 71.21 128.016 71.628 128.368C72.0533 128.713 72.2807 129.186 72.31 129.787H71.056C71.034 129.516 70.924 129.299 70.726 129.138C70.528 128.977 70.2603 128.896 69.923 128.896C69.593 128.896 69.34 128.958 69.164 129.083C68.988 129.208 68.9 129.373 68.9 129.578C68.9 129.739 68.9587 129.875 69.076 129.985C69.1933 130.095 69.3363 130.183 69.505 130.249C69.6737 130.308 69.923 130.385 70.253 130.48C70.693 130.597 71.0523 130.718 71.331 130.843C71.617 130.96 71.8627 131.136 72.068 131.371C72.2733 131.606 72.3797 131.917 72.387 132.306C72.387 132.651 72.2917 132.959 72.101 133.23C71.9103 133.501 71.639 133.714 71.287 133.868C70.9423 134.022 70.5353 134.099 70.066 134.099ZM75.205 128.962V132.317C75.205 132.544 75.2563 132.709 75.359 132.812C75.469 132.907 75.6523 132.955 75.909 132.955H76.679V134H75.689C75.1243 134 74.6917 133.868 74.391 133.604C74.0903 133.34 73.94 132.911 73.94 132.317V128.962H73.225V127.939H73.94V126.432H75.205V127.939H76.679V128.962H75.205ZM83.3898 130.821C83.3898 131.048 83.3751 131.254 83.3458 131.437H78.7148C78.7514 131.921 78.9311 132.31 79.2538 132.603C79.5764 132.896 79.9724 133.043 80.4418 133.043C81.1164 133.043 81.5931 132.761 81.8718 132.196H83.2248C83.0414 132.753 82.7078 133.212 82.2238 133.571C81.7471 133.923 81.1531 134.099 80.4418 134.099C79.8624 134.099 79.3418 133.971 78.8798 133.714C78.4251 133.45 78.0658 133.083 77.8018 132.614C77.5451 132.137 77.4168 131.587 77.4168 130.964C77.4168 130.341 77.5414 129.794 77.7908 129.325C78.0474 128.848 78.4031 128.482 78.8578 128.225C79.3198 127.968 79.8478 127.84 80.4418 127.84C81.0138 127.84 81.5234 127.965 81.9708 128.214C82.4181 128.463 82.7664 128.815 83.0158 129.27C83.2651 129.717 83.3898 130.234 83.3898 130.821ZM82.0808 130.425C82.0734 129.963 81.9084 129.593 81.5858 129.314C81.2631 129.035 80.8634 128.896 80.3868 128.896C79.9541 128.896 79.5838 129.035 79.2758 129.314C78.9678 129.585 78.7844 129.956 78.7258 130.425H82.0808ZM91.9608 127.84C92.4375 127.84 92.8628 127.939 93.2368 128.137C93.6182 128.335 93.9152 128.628 94.1278 129.017C94.3478 129.406 94.4578 129.875 94.4578 130.425V134H93.2148V130.612C93.2148 130.069 93.0792 129.655 92.8078 129.369C92.5365 129.076 92.1662 128.929 91.6968 128.929C91.2275 128.929 90.8535 129.076 90.5748 129.369C90.3035 129.655 90.1678 130.069 90.1678 130.612V134H88.9248V130.612C88.9248 130.069 88.7892 129.655 88.5178 129.369C88.2465 129.076 87.8762 128.929 87.4068 128.929C86.9375 128.929 86.5635 129.076 86.2848 129.369C86.0135 129.655 85.8778 130.069 85.8778 130.612V134H84.6238V127.939H85.8778V128.632C86.0832 128.383 86.3435 128.188 86.6588 128.049C86.9742 127.91 87.3115 127.84 87.6708 127.84C88.1548 127.84 88.5875 127.943 88.9688 128.148C89.3502 128.353 89.6435 128.65 89.8488 129.039C90.0322 128.672 90.3182 128.383 90.7068 128.17C91.0955 127.95 91.5135 127.84 91.9608 127.84Z"></path>
<rect fill="url(#paint7_linear_504_260)" rx="2" height="14" width="18" y="123" x="23"></rect>
<path fill-opacity="0.5" fill="black" d="M23 134H41V135C41 136.105 40.1046 137 39 137H25C23.8954 137 23 136.105 23 135V134Z"></path>
<path fill="#D9D9D9" d="M38 135H39V136H38V135Z"></path>
<path fill="#D9D9D9" d="M36 135H37V136H36V135Z"></path>
<path fill="black" d="M59.434 332.438H56.233L55.683 334H54.374L57.113 326.344H58.565L61.304 334H59.984L59.434 332.438ZM59.082 331.415L57.839 327.862L56.585 331.415H59.082ZM63.7489 328.841C63.9616 328.548 64.2513 328.309 64.6179 328.126C64.9919 327.935 65.4063 327.84 65.8609 327.84C66.3963 327.84 66.8803 327.968 67.3129 328.225C67.7456 328.482 68.0866 328.848 68.3359 329.325C68.5853 329.794 68.7099 330.333 68.7099 330.942C68.7099 331.551 68.5853 332.097 68.3359 332.581C68.0866 333.058 67.7419 333.432 67.3019 333.703C66.8693 333.967 66.3889 334.099 65.8609 334.099C65.3916 334.099 64.9736 334.007 64.6069 333.824C64.2476 333.641 63.9616 333.406 63.7489 333.12V334H62.4949V325.86H63.7489V328.841ZM67.4339 330.942C67.4339 330.524 67.3459 330.165 67.1699 329.864C67.0013 329.556 66.7739 329.325 66.4879 329.171C66.2093 329.01 65.9086 328.929 65.5859 328.929C65.2706 328.929 64.9699 329.01 64.6839 329.171C64.4053 329.332 64.1779 329.567 64.0019 329.875C63.8333 330.183 63.7489 330.546 63.7489 330.964C63.7489 331.382 63.8333 331.749 64.0019 332.064C64.1779 332.372 64.4053 332.607 64.6839 332.768C64.9699 332.929 65.2706 333.01 65.5859 333.01C65.9086 333.01 66.2093 332.929 66.4879 332.768C66.7739 332.599 67.0013 332.357 67.1699 332.042C67.3459 331.727 67.4339 331.36 67.4339 330.942ZM72.579 334.099C72.007 334.099 71.49 333.971 71.028 333.714C70.566 333.45 70.203 333.083 69.939 332.614C69.675 332.137 69.543 331.587 69.543 330.964C69.543 330.348 69.6787 329.802 69.95 329.325C70.2213 328.848 70.5917 328.482 71.061 328.225C71.5303 327.968 72.0547 327.84 72.634 327.84C73.2133 327.84 73.7377 327.968 74.207 328.225C74.6763 328.482 75.0467 328.848 75.318 329.325C75.5893 329.802 75.725 330.348 75.725 330.964C75.725 331.58 75.5857 332.126 75.307 332.603C75.0283 333.08 74.647 333.45 74.163 333.714C73.6863 333.971 73.1583 334.099 72.579 334.099ZM72.579 333.01C72.9017 333.01 73.2023 332.933 73.481 332.779C73.767 332.625 73.998 332.394 74.174 332.086C74.35 331.778 74.438 331.404 74.438 330.964C74.438 330.524 74.3537 330.154 74.185 329.853C74.0163 329.545 73.7927 329.314 73.514 329.16C73.2353 329.006 72.9347 328.929 72.612 328.929C72.2893 328.929 71.9887 329.006 71.71 329.16C71.4387 329.314 71.2223 329.545 71.061 329.853C70.8997 330.154 70.819 330.524 70.819 330.964C70.819 331.617 70.984 332.123 71.314 332.482C71.6513 332.834 72.073 333.01 72.579 333.01ZM82.4536 327.939V334H81.1996V333.285C81.0016 333.534 80.7413 333.732 80.4186 333.879C80.1033 334.018 79.766 334.088 79.4066 334.088C78.93 334.088 78.501 333.989 78.1196 333.791C77.7456 333.593 77.4486 333.3 77.2286 332.911C77.016 332.522 76.9096 332.053 76.9096 331.503V327.939H78.1526V331.316C78.1526 331.859 78.2883 332.277 78.5596 332.57C78.831 332.856 79.2013 332.999 79.6706 332.999C80.14 332.999 80.5103 332.856 80.7816 332.57C81.0603 332.277 81.1996 331.859 81.1996 331.316V327.939H82.4536ZM85.5712 328.962V332.317C85.5712 332.544 85.6225 332.709 85.7252 332.812C85.8352 332.907 86.0185 332.955 86.2752 332.955H87.0452V334H86.0552C85.4905 334 85.0579 333.868 84.7572 333.604C84.4565 333.34 84.3062 332.911 84.3062 332.317V328.962H83.5912V327.939H84.3062V326.432H85.5712V327.939H87.0452V328.962H85.5712Z"></path>
<path fill="url(#paint8_linear_504_260)" d="M24 324C24 322.343 25.3431 321 27 321H32V329H24V324Z"></path>
<path fill="url(#paint9_linear_504_260)" d="M24 330H32V338H27C25.3431 338 24 336.657 24 335V330Z"></path>
<path fill="url(#paint10_linear_504_260)" d="M33 330H41V335C41 336.657 39.6569 338 38 338H33V330Z"></path>
<path fill="url(#paint11_linear_504_260)" d="M33 321H38C39.6569 321 41 322.343 41 324V329H33V321Z"></path>
<path fill="black" d="M48.344 24.077C47.8307 24.077 47.3687 23.989 46.958 23.813C46.5473 23.6297 46.2247 23.373 45.99 23.043C45.7553 22.713 45.638 22.328 45.638 21.888H46.98C47.0093 22.218 47.1377 22.4893 47.365 22.702C47.5997 22.9147 47.926 23.021 48.344 23.021C48.7767 23.021 49.114 22.9183 49.356 22.713C49.598 22.5003 49.719 22.229 49.719 21.899C49.719 21.6423 49.642 21.4333 49.488 21.272C49.3413 21.1107 49.1543 20.986 48.927 20.898C48.707 20.81 48.399 20.7147 48.003 20.612C47.5043 20.48 47.0973 20.348 46.782 20.216C46.474 20.0767 46.21 19.864 45.99 19.578C45.77 19.292 45.66 18.9107 45.66 18.434C45.66 17.994 45.77 17.609 45.99 17.279C46.21 16.949 46.518 16.696 46.914 16.52C47.31 16.344 47.7683 16.256 48.289 16.256C49.0297 16.256 49.6347 16.443 50.104 16.817C50.5807 17.1837 50.8447 17.6897 50.896 18.335H49.51C49.488 18.0563 49.356 17.818 49.114 17.62C48.872 17.422 48.553 17.323 48.157 17.323C47.7977 17.323 47.5043 17.4147 47.277 17.598C47.0497 17.7813 46.936 18.0453 46.936 18.39C46.936 18.6247 47.0057 18.819 47.145 18.973C47.2917 19.1197 47.475 19.237 47.695 19.325C47.915 19.413 48.2157 19.5083 48.597 19.611C49.103 19.7503 49.5137 19.8897 49.829 20.029C50.1517 20.1683 50.423 20.3847 50.643 20.678C50.8703 20.964 50.984 21.349 50.984 21.833C50.984 22.2217 50.8777 22.5883 50.665 22.933C50.4597 23.2777 50.1553 23.5563 49.752 23.769C49.356 23.9743 48.8867 24.077 48.344 24.077ZM58.0187 20.821C58.0187 21.0483 58.004 21.2537 57.9747 21.437H53.3437C53.3803 21.921 53.56 22.3097 53.8827 22.603C54.2053 22.8963 54.6013 23.043 55.0707 23.043C55.7453 23.043 56.222 22.7607 56.5007 22.196H57.8537C57.6703 22.7533 57.3367 23.2117 56.8527 23.571C56.376 23.923 55.782 24.099 55.0707 24.099C54.4913 24.099 53.9707 23.9707 53.5087 23.714C53.054 23.45 52.6947 23.0833 52.4307 22.614C52.174 22.1373 52.0457 21.5873 52.0457 20.964C52.0457 20.3407 52.1703 19.7943 52.4197 19.325C52.6763 18.8483 53.032 18.4817 53.4867 18.225C53.9487 17.9683 54.4767 17.84 55.0707 17.84C55.6427 17.84 56.1523 17.9647 56.5997 18.214C57.047 18.4633 57.3953 18.8153 57.6447 19.27C57.894 19.7173 58.0187 20.2343 58.0187 20.821ZM56.7097 20.425C56.7023 19.963 56.5373 19.5927 56.2147 19.314C55.892 19.0353 55.4923 18.896 55.0157 18.896C54.583 18.896 54.2127 19.0353 53.9047 19.314C53.5967 19.5853 53.4133 19.9557 53.3547 20.425H56.7097ZM60.7157 18.962V22.317C60.7157 22.5443 60.7671 22.7093 60.8697 22.812C60.9797 22.9073 61.1631 22.955 61.4197 22.955H62.1897V24H61.1997C60.6351 24 60.2024 23.868 59.9017 23.604C59.6011 23.34 59.4507 22.911 59.4507 22.317V18.962H58.7357V17.939H59.4507V16.432H60.7157V17.939H62.1897V18.962H60.7157ZM64.8085 18.962V22.317C64.8085 22.5443 64.8598 22.7093 64.9625 22.812C65.0725 22.9073 65.2558 22.955 65.5125 22.955H66.2825V24H65.2925C64.7278 24 64.2952 23.868 63.9945 23.604C63.6938 23.34 63.5435 22.911 63.5435 22.317V18.962H62.8285V17.939H63.5435V16.432H64.8085V17.939H66.2825V18.962H64.8085ZM68.0763 17.136C67.8489 17.136 67.6583 17.059 67.5043 16.905C67.3503 16.751 67.2733 16.5603 67.2733 16.333C67.2733 16.1057 67.3503 15.915 67.5043 15.761C67.6583 15.607 67.8489 15.53 68.0763 15.53C68.2963 15.53 68.4833 15.607 68.6373 15.761C68.7913 15.915 68.8683 16.1057 68.8683 16.333C68.8683 16.5603 68.7913 16.751 68.6373 16.905C68.4833 17.059 68.2963 17.136 68.0763 17.136ZM68.6923 17.939V24H67.4383V17.939H68.6923ZM73.3967 17.84C73.8733 17.84 74.2987 17.939 74.6727 18.137C75.054 18.335 75.351 18.6283 75.5637 19.017C75.7763 19.4057 75.8827 19.875 75.8827 20.425V24H74.6397V20.612C74.6397 20.0693 74.504 19.655 74.2327 19.369C73.9613 19.0757 73.591 18.929 73.1217 18.929C72.6523 18.929 72.2783 19.0757 71.9997 19.369C71.7283 19.655 71.5927 20.0693 71.5927 20.612V24H70.3387V17.939H71.5927V18.632C71.798 18.3827 72.0583 18.1883 72.3737 18.049C72.6963 17.9097 73.0373 17.84 73.3967 17.84ZM79.9242 17.84C80.3936 17.84 80.8079 17.9353 81.1672 18.126C81.5339 18.3093 81.8199 18.5403 82.0252 18.819V17.939H83.2902V24.099C83.2902 24.6563 83.1729 25.1513 82.9382 25.584C82.7036 26.024 82.3626 26.3687 81.9152 26.618C81.4752 26.8673 80.9472 26.992 80.3312 26.992C79.5099 26.992 78.8279 26.7977 78.2852 26.409C77.7426 26.0277 77.4346 25.507 77.3612 24.847H78.6042C78.6996 25.1623 78.9012 25.4153 79.2092 25.606C79.5246 25.804 79.8986 25.903 80.3312 25.903C80.8372 25.903 81.2442 25.749 81.5522 25.441C81.8676 25.133 82.0252 24.6857 82.0252 24.099V23.087C81.8126 23.373 81.5229 23.615 81.1562 23.813C80.7969 24.0037 80.3862 24.099 79.9242 24.099C79.3962 24.099 78.9122 23.967 78.4722 23.703C78.0396 23.4317 77.6949 23.0577 77.4382 22.581C77.1889 22.097 77.0642 21.5507 77.0642 20.942C77.0642 20.3333 77.1889 19.7943 77.4382 19.325C77.6949 18.8557 78.0396 18.4927 78.4722 18.236C78.9122 17.972 79.3962 17.84 79.9242 17.84ZM82.0252 20.964C82.0252 20.546 81.9372 20.183 81.7612 19.875C81.5926 19.567 81.3689 19.3323 81.0902 19.171C80.8116 19.0097 80.5109 18.929 80.1882 18.929C79.8656 18.929 79.5649 19.0097 79.2862 19.171C79.0076 19.325 78.7802 19.556 78.6042 19.864C78.4356 20.1647 78.3512 20.524 78.3512 20.942C78.3512 21.36 78.4356 21.7267 78.6042 22.042C78.7802 22.3573 79.0076 22.5993 79.2862 22.768C79.5722 22.9293 79.8729 23.01 80.1882 23.01C80.5109 23.01 80.8116 22.9293 81.0902 22.768C81.3689 22.6067 81.5926 22.372 81.7612 22.064C81.9372 21.7487 82.0252 21.382 82.0252 20.964ZM87.1373 24.099C86.6606 24.099 86.2316 24.0147 85.8503 23.846C85.4763 23.67 85.1793 23.4353 84.9593 23.142C84.7393 22.8413 84.622 22.5077 84.6073 22.141H85.9053C85.9273 22.3977 86.0483 22.614 86.2683 22.79C86.4956 22.9587 86.778 23.043 87.1153 23.043C87.4673 23.043 87.7386 22.977 87.9293 22.845C88.1273 22.7057 88.2263 22.5297 88.2263 22.317C88.2263 22.0897 88.1163 21.921 87.8963 21.811C87.6836 21.701 87.3426 21.58 86.8733 21.448C86.4186 21.3233 86.0483 21.2023 85.7623 21.085C85.4763 20.9677 85.227 20.788 85.0143 20.546C84.809 20.304 84.7063 19.985 84.7063 19.589C84.7063 19.2663 84.8016 18.973 84.9923 18.709C85.183 18.4377 85.4543 18.225 85.8063 18.071C86.1656 17.917 86.5763 17.84 87.0383 17.84C87.7276 17.84 88.2813 18.016 88.6993 18.368C89.1246 18.7127 89.352 19.1857 89.3813 19.787H88.1273C88.1053 19.5157 87.9953 19.2993 87.7973 19.138C87.5993 18.9767 87.3316 18.896 86.9943 18.896C86.6643 18.896 86.4113 18.9583 86.2353 19.083C86.0593 19.2077 85.9713 19.3727 85.9713 19.578C85.9713 19.7393 86.03 19.875 86.1473 19.985C86.2646 20.095 86.4076 20.183 86.5763 20.249C86.745 20.3077 86.9943 20.3847 87.3243 20.48C87.7643 20.5973 88.1236 20.7183 88.4023 20.843C88.6883 20.9603 88.934 21.1363 89.1393 21.371C89.3446 21.6057 89.451 21.9173 89.4583 22.306C89.4583 22.6507 89.363 22.9587 89.1723 23.23C88.9816 23.5013 88.7103 23.714 88.3583 23.868C88.0136 24.022 87.6066 24.099 87.1373 24.099Z"></path>
<defs>
<linearGradient gradientUnits="userSpaceOnUse" y2="170.5" x2="36" y1="166" x1="33.5" id="paint0_linear_504_260">
<stop stop-color="#ADB6C0"></stop>
<stop stop-color="#61666C" offset="1"></stop>
</linearGradient>
<linearGradient gradientUnits="userSpaceOnUse" y2="179" x2="29.5" y1="175" x1="25.5" id="paint1_linear_504_260">
<stop stop-color="#FDB724"></stop>
<stop stop-color="#E85C17" offset="1"></stop>
</linearGradient>
<linearGradient gradientUnits="userSpaceOnUse" y2="220" x2="32" y1="200" x1="32" id="paint2_linear_504_260">
<stop stop-color="#22CAB6"></stop>
<stop stop-color="#0EA291" offset="1"></stop>
</linearGradient>
<linearGradient gradientUnits="userSpaceOnUse" y2="220" x2="32" y1="200" x1="32" id="paint3_linear_504_260">
<stop stop-color="#22CAB6"></stop>
<stop stop-color="#0EA291" offset="1"></stop>
</linearGradient>
<linearGradient gradientUnits="userSpaceOnUse" y2="259" x2="33" y1="241" x1="23" id="paint4_linear_504_260">
<stop stop-color="#E3E3E3"></stop>
<stop stop-color="#747474" offset="1"></stop>
</linearGradient>
<linearGradient gradientUnits="userSpaceOnUse" y2="259" x2="33" y1="241" x1="23" id="paint5_linear_504_260">
<stop stop-color="#E3E3E3"></stop>
<stop stop-color="#747474" offset="1"></stop>
</linearGradient>
<linearGradient gradientUnits="userSpaceOnUse" y2="281" x2="35" y1="299" x1="29" id="paint6_linear_504_260">
<stop stop-color="#FFF500"></stop>
<stop stop-color="#FF5C00" offset="1"></stop>
</linearGradient>
<linearGradient gradientUnits="userSpaceOnUse" y2="137" x2="41" y1="123" x1="23" id="paint7_linear_504_260">
<stop stop-color="#3ADBE5"></stop>
<stop stop-color="#0F7EC4" offset="1"></stop>
</linearGradient>
<linearGradient gradientUnits="userSpaceOnUse" y2="341.6" x2="32" y1="316.4" x1="32" id="paint8_linear_504_260">
<stop stop-color="#1493DF"></stop>
<stop stop-color="#0179D5" offset="1"></stop>
</linearGradient>
<linearGradient gradientUnits="userSpaceOnUse" y2="341.6" x2="32" y1="316.4" x1="32" id="paint9_linear_504_260">
<stop stop-color="#1493DF"></stop>
<stop stop-color="#0179D5" offset="1"></stop>
</linearGradient>
<linearGradient gradientUnits="userSpaceOnUse" y2="341.6" x2="32" y1="316.4" x1="32" id="paint10_linear_504_260">
<stop stop-color="#1493DF"></stop>
<stop stop-color="#0179D5" offset="1"></stop>
</linearGradient>
<linearGradient gradientUnits="userSpaceOnUse" y2="341.6" x2="32" y1="316.4" x1="32" id="paint11_linear_504_260">
<stop stop-color="#1493DF"></stop>
<stop stop-color="#0179D5" offset="1"></stop>
</linearGradient>
</defs>
</svg>
