<svg xmlns="http://www.w3.org/2000/svg" fill="none" viewBox="0 0 44 24" height="24" width="44">
<path fill-opacity="0.5" fill="#FF0000" d="M2 12C2 6.47715 6.47715 2 12 2H32C37.5228 2 42 6.47715 42 12V12C42 17.5228 37.5228 22 32 22H12C6.47715 22 2 17.5228 2 12V12Z"></path>
<path stroke-width="2" stroke-opacity="0.2" stroke="#FF0000" d="M32 1H12C5.92487 1 1 5.92487 1 12C1 18.0751 5.92487 23 12 23H32C38.0751 23 43 18.0751 43 12C43 5.92487 38.0751 1 32 1Z"></path>
<path fill="white" d="M16.5927 8.5V7.252H19.0887V16H17.7087V8.5H16.5927ZM25.672 9.28C25.584 8.912 25.424 8.636 25.192 8.452C24.96 8.268 24.636 8.176 24.22 8.176C23.588 8.176 23.116 8.42 22.804 8.908C22.492 9.388 22.328 10.188 22.312 11.308C22.52 10.956 22.824 10.684 23.224 10.492C23.624 10.3 24.056 10.204 24.52 10.204C25.048 10.204 25.512 10.32 25.912 10.552C26.32 10.776 26.636 11.104 26.86 11.536C27.092 11.968 27.208 12.484 27.208 13.084C27.208 13.644 27.096 14.144 26.872 14.584C26.656 15.024 26.332 15.372 25.9 15.628C25.468 15.876 24.948 16 24.34 16C23.516 16 22.868 15.82 22.396 15.46C21.932 15.092 21.604 14.576 21.412 13.912C21.228 13.248 21.136 12.42 21.136 11.428C21.136 8.5 22.168 7.036 24.232 7.036C25.032 7.036 25.66 7.252 26.116 7.684C26.58 8.116 26.852 8.648 26.932 9.28H25.672ZM24.22 11.356C23.732 11.356 23.316 11.504 22.972 11.8C22.636 12.088 22.468 12.508 22.468 13.06C22.468 13.612 22.624 14.052 22.936 14.38C23.256 14.7 23.7 14.86 24.268 14.86C24.772 14.86 25.168 14.704 25.456 14.392C25.752 14.08 25.9 13.664 25.9 13.144C25.9 12.6 25.756 12.168 25.468 11.848C25.188 11.52 24.772 11.356 24.22 11.356Z"></path>
</svg>
