<svg xmlns="http://www.w3.org/2000/svg" fill="none" viewBox="0 0 504 384" height="384" width="504">
<path fill="#1B1B1B" d="M2 12C2 6.47716 6.47715 2 12 2L492 2C497.523 2 502 6.47715 502 12L502 372C502 377.523 497.523 382 492 382L12 382C6.47713 382 1.99999 377.523 1.99999 372L2 12Z"></path>
<path stroke-width="2" stroke-opacity="0.2" stroke="white" d="M492 1L12 1C5.92487 1 1 5.92488 1 12L0.999985 372C0.999985 378.075 5.92484 383 12 383L492 383C498.075 383 503 378.075 503 372L503 12C503 5.92487 498.075 1 492 1Z"></path>
<rect fill="url(#paint0_linear_432_2)" rx="8" height="96" width="72" y="144" x="216"></rect>
<rect fill="#CAD2D9" rx="2" height="16" width="16" y="176" x="224"></rect>
<rect fill="#CAD2D9" rx="2" height="16" width="16" y="196" x="224"></rect>
<rect fill="#CAD2D9" rx="2" height="16" width="16" y="216" x="224"></rect>
<rect fill="#CAD2D9" rx="2" height="16" width="16" y="216" x="244"></rect>
<rect fill="#CAD2D9" rx="2" height="16" width="16" y="196" x="244"></rect>
<rect fill="#CAD2D9" rx="2" height="16" width="16" y="176" x="244"></rect>
<rect fill="#CAD2D9" rx="2" height="16" width="16" y="176" x="264"></rect>
<rect fill="url(#paint1_linear_432_2)" rx="2" height="36" width="16" y="196" x="264"></rect>
<rect fill="#6A6A6A" rx="2" height="16" width="56" y="156" x="224"></rect>
<rect fill="url(#paint2_linear_432_2)" rx="2" height="16" width="56" y="152" x="224"></rect>
<defs>
<linearGradient gradientUnits="userSpaceOnUse" y2="240" x2="276" y1="144" x1="228" id="paint0_linear_432_2">
<stop stop-color="#8A9198"></stop>
<stop stop-color="#65717C" offset="1"></stop>
</linearGradient>
<linearGradient gradientUnits="userSpaceOnUse" y2="232" x2="280" y1="196" x1="264" id="paint1_linear_432_2">
<stop stop-color="#174D8B"></stop>
<stop stop-color="#1B4077" offset="1"></stop>
</linearGradient>
<linearGradient gradientUnits="userSpaceOnUse" y2="171.1" x2="225.078" y1="152" x1="224" id="paint2_linear_432_2">
<stop stop-color="#50E6FF"></stop>
<stop stop-color="#31BCEF" offset="1"></stop>
</linearGradient>
</defs>
</svg>
