<svg xmlns="http://www.w3.org/2000/svg" fill="none" viewBox="0 0 44 24" height="24" width="44">
<path fill-opacity="0.5" fill="#FF0000" d="M2 12C2 6.47715 6.47715 2 12 2H32C37.5228 2 42 6.47715 42 12V12C42 17.5228 37.5228 22 32 22H12C6.47715 22 2 17.5228 2 12V12Z"></path>
<path stroke-width="2" stroke-opacity="0.2" stroke="#FF0000" d="M32 1H12C5.92487 1 1 5.92487 1 12C1 18.0751 5.92487 23 12 23H32C38.0751 23 43 18.0751 43 12C43 5.92487 38.0751 1 32 1Z"></path>
<path fill="white" d="M20.6432 8.428H16.6232V10.816C16.7912 10.592 17.0392 10.404 17.3672 10.252C17.7032 10.1 18.0592 10.024 18.4352 10.024C19.1072 10.024 19.6512 10.168 20.0672 10.456C20.4912 10.744 20.7912 11.108 20.9672 11.548C21.1512 11.988 21.2432 12.452 21.2432 12.94C21.2432 13.532 21.1272 14.06 20.8952 14.524C20.6712 14.98 20.3312 15.34 19.8752 15.604C19.4272 15.868 18.8752 16 18.2192 16C17.3472 16 16.6472 15.784 16.1192 15.352C15.5912 14.92 15.2752 14.348 15.1712 13.636H16.5032C16.5912 14.012 16.7872 14.312 17.0912 14.536C17.3952 14.752 17.7752 14.86 18.2312 14.86C18.7992 14.86 19.2232 14.688 19.5032 14.344C19.7912 14 19.9352 13.544 19.9352 12.976C19.9352 12.4 19.7912 11.96 19.5032 11.656C19.2152 11.344 18.7912 11.188 18.2312 11.188C17.8392 11.188 17.5072 11.288 17.2352 11.488C16.9712 11.68 16.7792 11.944 16.6592 12.28H15.3632V7.228H20.6432V8.428ZM22.4993 14.176V13.144L26.5313 7.36H28.1873V12.988H29.3033V14.176H28.1873V16H26.8433V14.176H22.4993ZM26.9033 8.752L24.0713 12.988H26.9033V8.752Z"></path>
</svg>
