<svg xmlns="http://www.w3.org/2000/svg" fill="none" viewBox="0 0 480 360" height="360" width="480">
<path fill="black" d="M201.928 64.808H195.256L194.152 68H190.624L196.648 51.224H200.56L206.584 68H203.032L201.928 64.808ZM201.016 62.12L198.592 55.112L196.168 62.12H201.016ZM207.972 61.352C207.972 59.976 208.252 58.776 208.812 57.752C209.372 56.712 210.148 55.912 211.14 55.352C212.132 54.776 213.268 54.488 214.548 54.488C216.196 54.488 217.556 54.904 218.628 55.736C219.716 56.552 220.444 57.704 220.812 59.192H217.188C216.996 58.616 216.668 58.168 216.204 57.848C215.756 57.512 215.196 57.344 214.524 57.344C213.564 57.344 212.804 57.696 212.244 58.4C211.684 59.088 211.404 60.072 211.404 61.352C211.404 62.616 211.684 63.6 212.244 64.304C212.804 64.992 213.564 65.336 214.524 65.336C215.884 65.336 216.772 64.728 217.188 63.512H220.812C220.444 64.952 219.716 66.096 218.628 66.944C217.54 67.792 216.18 68.216 214.548 68.216C213.268 68.216 212.132 67.936 211.14 67.376C210.148 66.8 209.372 66 208.812 64.976C208.252 63.936 207.972 62.728 207.972 61.352ZM222.409 61.352C222.409 59.976 222.689 58.776 223.249 57.752C223.809 56.712 224.585 55.912 225.577 55.352C226.569 54.776 227.705 54.488 228.985 54.488C230.633 54.488 231.993 54.904 233.065 55.736C234.153 56.552 234.881 57.704 235.249 59.192H231.625C231.433 58.616 231.105 58.168 230.641 57.848C230.193 57.512 229.633 57.344 228.961 57.344C228.001 57.344 227.241 57.696 226.681 58.4C226.121 59.088 225.841 60.072 225.841 61.352C225.841 62.616 226.121 63.6 226.681 64.304C227.241 64.992 228.001 65.336 228.961 65.336C230.321 65.336 231.209 64.728 231.625 63.512H235.249C234.881 64.952 234.153 66.096 233.065 66.944C231.977 67.792 230.617 68.216 228.985 68.216C227.705 68.216 226.569 67.936 225.577 67.376C224.585 66.8 223.809 66 223.249 64.976C222.689 63.936 222.409 62.728 222.409 61.352ZM243.615 68.216C242.335 68.216 241.183 67.936 240.159 67.376C239.135 66.8 238.327 65.992 237.735 64.952C237.159 63.912 236.871 62.712 236.871 61.352C236.871 59.992 237.167 58.792 237.759 57.752C238.367 56.712 239.191 55.912 240.231 55.352C241.271 54.776 242.431 54.488 243.711 54.488C244.991 54.488 246.151 54.776 247.191 55.352C248.231 55.912 249.047 56.712 249.639 57.752C250.247 58.792 250.551 59.992 250.551 61.352C250.551 62.712 250.239 63.912 249.615 64.952C249.007 65.992 248.175 66.8 247.119 67.376C246.079 67.936 244.911 68.216 243.615 68.216ZM243.615 65.288C244.223 65.288 244.791 65.144 245.319 64.856C245.863 64.552 246.295 64.104 246.615 63.512C246.935 62.92 247.095 62.2 247.095 61.352C247.095 60.088 246.759 59.12 246.087 58.448C245.431 57.76 244.623 57.416 243.663 57.416C242.703 57.416 241.895 57.76 241.239 58.448C240.599 59.12 240.279 60.088 240.279 61.352C240.279 62.616 240.591 63.592 241.215 64.28C241.855 64.952 242.655 65.288 243.615 65.288ZM265.567 54.704V68H262.183V66.32C261.751 66.896 261.183 67.352 260.479 67.688C259.791 68.008 259.039 68.168 258.223 68.168C257.183 68.168 256.263 67.952 255.463 67.52C254.663 67.072 254.031 66.424 253.567 65.576C253.119 64.712 252.895 63.688 252.895 62.504V54.704H256.255V62.024C256.255 63.08 256.519 63.896 257.047 64.472C257.575 65.032 258.295 65.312 259.207 65.312C260.135 65.312 260.863 65.032 261.391 64.472C261.919 63.896 262.183 63.08 262.183 62.024V54.704H265.567ZM276.251 54.512C277.835 54.512 279.115 55.016 280.091 56.024C281.067 57.016 281.555 58.408 281.555 60.2V68H278.195V60.656C278.195 59.6 277.931 58.792 277.403 58.232C276.875 57.656 276.155 57.368 275.243 57.368C274.315 57.368 273.579 57.656 273.035 58.232C272.507 58.792 272.243 59.6 272.243 60.656V68H268.883V54.704H272.243V56.36C272.691 55.784 273.259 55.336 273.947 55.016C274.651 54.68 275.419 54.512 276.251 54.512ZM288.662 57.464V63.896C288.662 64.344 288.766 64.672 288.974 64.88C289.198 65.072 289.566 65.168 290.078 65.168H291.638V68H289.526C286.694 68 285.278 66.624 285.278 63.872V57.464H283.694V54.704H285.278V51.416H288.662V54.704H291.638V57.464H288.662Z"></path>
<rect fill-opacity="0.05" fill="black" rx="5" height="66" width="280" y="182" x="190"></rect>
<path stroke-linejoin="round" stroke-linecap="round" stroke-width="1.5" stroke="black" d="M438 220L442.293 215.707C442.683 215.317 442.683 214.683 442.293 214.293L438 210"></path>
<path fill="black" d="M256.49 203.355L253.96 208.228V211H252.706V208.228L250.165 203.355H251.562L253.333 207.106L255.104 203.355H256.49ZM260.114 211.099C259.542 211.099 259.025 210.971 258.563 210.714C258.101 210.45 257.738 210.083 257.474 209.614C257.21 209.137 257.078 208.587 257.078 207.964C257.078 207.348 257.214 206.802 257.485 206.325C257.756 205.848 258.127 205.482 258.596 205.225C259.065 204.968 259.59 204.84 260.169 204.84C260.748 204.84 261.273 204.968 261.742 205.225C262.211 205.482 262.582 205.848 262.853 206.325C263.124 206.802 263.26 207.348 263.26 207.964C263.26 208.58 263.121 209.126 262.842 209.603C262.563 210.08 262.182 210.45 261.698 210.714C261.221 210.971 260.693 211.099 260.114 211.099ZM260.114 210.01C260.437 210.01 260.737 209.933 261.016 209.779C261.302 209.625 261.533 209.394 261.709 209.086C261.885 208.778 261.973 208.404 261.973 207.964C261.973 207.524 261.889 207.154 261.72 206.853C261.551 206.545 261.328 206.314 261.049 206.16C260.77 206.006 260.47 205.929 260.147 205.929C259.824 205.929 259.524 206.006 259.245 206.16C258.974 206.314 258.757 206.545 258.596 206.853C258.435 207.154 258.354 207.524 258.354 207.964C258.354 208.617 258.519 209.123 258.849 209.482C259.186 209.834 259.608 210.01 260.114 210.01ZM269.989 204.939V211H268.735V210.285C268.537 210.534 268.276 210.732 267.954 210.879C267.638 211.018 267.301 211.088 266.942 211.088C266.465 211.088 266.036 210.989 265.655 210.791C265.281 210.593 264.984 210.3 264.764 209.911C264.551 209.522 264.445 209.053 264.445 208.503V204.939H265.688V208.316C265.688 208.859 265.823 209.277 266.095 209.57C266.366 209.856 266.736 209.999 267.206 209.999C267.675 209.999 268.045 209.856 268.317 209.57C268.595 209.277 268.735 208.859 268.735 208.316V204.939H269.989ZM272.897 205.819C273.081 205.511 273.323 205.273 273.623 205.104C273.931 204.928 274.294 204.84 274.712 204.84V206.138H274.393C273.902 206.138 273.528 206.263 273.271 206.512C273.022 206.761 272.897 207.194 272.897 207.81V211H271.643V204.939H272.897V205.819ZM279.36 204.136C279.133 204.136 278.942 204.059 278.788 203.905C278.634 203.751 278.557 203.56 278.557 203.333C278.557 203.106 278.634 202.915 278.788 202.761C278.942 202.607 279.133 202.53 279.36 202.53C279.58 202.53 279.767 202.607 279.921 202.761C280.075 202.915 280.152 203.106 280.152 203.333C280.152 203.56 280.075 203.751 279.921 203.905C279.767 204.059 279.58 204.136 279.36 204.136ZM279.976 204.939V211H278.722V204.939H279.976ZM284.681 204.84C285.158 204.84 285.583 204.939 285.957 205.137C286.338 205.335 286.635 205.628 286.848 206.017C287.061 206.406 287.167 206.875 287.167 207.425V211H285.924V207.612C285.924 207.069 285.788 206.655 285.517 206.369C285.246 206.076 284.875 205.929 284.406 205.929C283.937 205.929 283.563 206.076 283.284 206.369C283.013 206.655 282.877 207.069 282.877 207.612V211H281.623V204.939H282.877V205.632C283.082 205.383 283.343 205.188 283.658 205.049C283.981 204.91 284.322 204.84 284.681 204.84ZM291.307 205.962H290.185V211H288.92V205.962H288.205V204.939H288.92V204.51C288.92 203.813 289.104 203.307 289.47 202.992C289.844 202.669 290.427 202.508 291.219 202.508V203.553C290.838 203.553 290.57 203.626 290.416 203.773C290.262 203.912 290.185 204.158 290.185 204.51V204.939H291.307V205.962ZM295.048 211.099C294.476 211.099 293.959 210.971 293.497 210.714C293.035 210.45 292.672 210.083 292.408 209.614C292.144 209.137 292.012 208.587 292.012 207.964C292.012 207.348 292.147 206.802 292.419 206.325C292.69 205.848 293.06 205.482 293.53 205.225C293.999 204.968 294.523 204.84 295.103 204.84C295.682 204.84 296.206 204.968 296.676 205.225C297.145 205.482 297.515 205.848 297.787 206.325C298.058 206.802 298.194 207.348 298.194 207.964C298.194 208.58 298.054 209.126 297.776 209.603C297.497 210.08 297.116 210.45 296.632 210.714C296.155 210.971 295.627 211.099 295.048 211.099ZM295.048 210.01C295.37 210.01 295.671 209.933 295.95 209.779C296.236 209.625 296.467 209.394 296.643 209.086C296.819 208.778 296.907 208.404 296.907 207.964C296.907 207.524 296.822 207.154 296.654 206.853C296.485 206.545 296.261 206.314 295.983 206.16C295.704 206.006 295.403 205.929 295.081 205.929C294.758 205.929 294.457 206.006 294.179 206.16C293.907 206.314 293.691 206.545 293.53 206.853C293.368 207.154 293.288 207.524 293.288 207.964C293.288 208.617 293.453 209.123 293.783 209.482C294.12 209.834 294.542 210.01 295.048 210.01ZM300.687 205.819C300.871 205.511 301.113 205.273 301.413 205.104C301.721 204.928 302.084 204.84 302.502 204.84V206.138H302.183C301.692 206.138 301.318 206.263 301.061 206.512C300.812 206.761 300.687 207.194 300.687 207.81V211H299.433V204.939H300.687V205.819ZM310.992 204.84C311.469 204.84 311.894 204.939 312.268 205.137C312.649 205.335 312.946 205.628 313.159 206.017C313.379 206.406 313.489 206.875 313.489 207.425V211H312.246V207.612C312.246 207.069 312.11 206.655 311.839 206.369C311.568 206.076 311.197 205.929 310.728 205.929C310.259 205.929 309.885 206.076 309.606 206.369C309.335 206.655 309.199 207.069 309.199 207.612V211H307.956V207.612C307.956 207.069 307.82 206.655 307.549 206.369C307.278 206.076 306.907 205.929 306.438 205.929C305.969 205.929 305.595 206.076 305.316 206.369C305.045 206.655 304.909 207.069 304.909 207.612V211H303.655V204.939H304.909V205.632C305.114 205.383 305.375 205.188 305.69 205.049C306.005 204.91 306.343 204.84 306.702 204.84C307.186 204.84 307.619 204.943 308 205.148C308.381 205.353 308.675 205.65 308.88 206.039C309.063 205.672 309.349 205.383 309.738 205.17C310.127 204.95 310.545 204.84 310.992 204.84ZM314.667 207.942C314.667 207.333 314.791 206.794 315.041 206.325C315.297 205.856 315.642 205.493 316.075 205.236C316.515 204.972 316.999 204.84 317.527 204.84C318.003 204.84 318.418 204.935 318.77 205.126C319.129 205.309 319.415 205.54 319.628 205.819V204.939H320.893V211H319.628V210.098C319.415 210.384 319.125 210.622 318.759 210.813C318.392 211.004 317.974 211.099 317.505 211.099C316.984 211.099 316.507 210.967 316.075 210.703C315.642 210.432 315.297 210.058 315.041 209.581C314.791 209.097 314.667 208.551 314.667 207.942ZM319.628 207.964C319.628 207.546 319.54 207.183 319.364 206.875C319.195 206.567 318.971 206.332 318.693 206.171C318.414 206.01 318.113 205.929 317.791 205.929C317.468 205.929 317.167 206.01 316.889 206.171C316.61 206.325 316.383 206.556 316.207 206.864C316.038 207.165 315.954 207.524 315.954 207.942C315.954 208.36 316.038 208.727 316.207 209.042C316.383 209.357 316.61 209.599 316.889 209.768C317.175 209.929 317.475 210.01 317.791 210.01C318.113 210.01 318.414 209.929 318.693 209.768C318.971 209.607 319.195 209.372 319.364 209.064C319.54 208.749 319.628 208.382 319.628 207.964ZM324.003 205.962V209.317C324.003 209.544 324.054 209.709 324.157 209.812C324.267 209.907 324.45 209.955 324.707 209.955H325.477V211H324.487C323.922 211 323.49 210.868 323.189 210.604C322.888 210.34 322.738 209.911 322.738 209.317V205.962H322.023V204.939H322.738V203.432H324.003V204.939H325.477V205.962H324.003ZM327.271 204.136C327.043 204.136 326.853 204.059 326.699 203.905C326.545 203.751 326.468 203.56 326.468 203.333C326.468 203.106 326.545 202.915 326.699 202.761C326.853 202.607 327.043 202.53 327.271 202.53C327.491 202.53 327.678 202.607 327.832 202.761C327.986 202.915 328.063 203.106 328.063 203.333C328.063 203.56 327.986 203.751 327.832 203.905C327.678 204.059 327.491 204.136 327.271 204.136ZM327.887 204.939V211H326.633V204.939H327.887ZM332.162 211.099C331.59 211.099 331.073 210.971 330.611 210.714C330.149 210.45 329.786 210.083 329.522 209.614C329.258 209.137 329.126 208.587 329.126 207.964C329.126 207.348 329.262 206.802 329.533 206.325C329.804 205.848 330.175 205.482 330.644 205.225C331.113 204.968 331.638 204.84 332.217 204.84C332.796 204.84 333.321 204.968 333.79 205.225C334.259 205.482 334.63 205.848 334.901 206.325C335.172 206.802 335.308 207.348 335.308 207.964C335.308 208.58 335.169 209.126 334.89 209.603C334.611 210.08 334.23 210.45 333.746 210.714C333.269 210.971 332.741 211.099 332.162 211.099ZM332.162 210.01C332.485 210.01 332.785 209.933 333.064 209.779C333.35 209.625 333.581 209.394 333.757 209.086C333.933 208.778 334.021 208.404 334.021 207.964C334.021 207.524 333.937 207.154 333.768 206.853C333.599 206.545 333.376 206.314 333.097 206.16C332.818 206.006 332.518 205.929 332.195 205.929C331.872 205.929 331.572 206.006 331.293 206.16C331.022 206.314 330.805 206.545 330.644 206.853C330.483 207.154 330.402 207.524 330.402 207.964C330.402 208.617 330.567 209.123 330.897 209.482C331.234 209.834 331.656 210.01 332.162 210.01ZM339.606 204.84C340.082 204.84 340.508 204.939 340.882 205.137C341.263 205.335 341.56 205.628 341.773 206.017C341.985 206.406 342.092 206.875 342.092 207.425V211H340.849V207.612C340.849 207.069 340.713 206.655 340.442 206.369C340.17 206.076 339.8 205.929 339.331 205.929C338.861 205.929 338.487 206.076 338.209 206.369C337.937 206.655 337.802 207.069 337.802 207.612V211H336.548V204.939H337.802V205.632C338.007 205.383 338.267 205.188 338.583 205.049C338.905 204.91 339.246 204.84 339.606 204.84Z"></path>
<path fill-opacity="0.75" fill="black" d="M255.049 222.608C255.049 222.926 254.974 223.226 254.824 223.508C254.674 223.79 254.434 224.021 254.104 224.201C253.774 224.375 253.351 224.462 252.835 224.462H251.701V227H250.675V220.745H252.835C253.315 220.745 253.72 220.829 254.05 220.997C254.386 221.159 254.635 221.381 254.797 221.663C254.965 221.945 255.049 222.26 255.049 222.608ZM252.835 223.625C253.225 223.625 253.516 223.538 253.708 223.364C253.9 223.184 253.996 222.932 253.996 222.608C253.996 221.924 253.609 221.582 252.835 221.582H251.701V223.625H252.835ZM257.054 222.761C257.204 222.509 257.402 222.314 257.648 222.176C257.9 222.032 258.197 221.96 258.539 221.96V223.022H258.278C257.876 223.022 257.57 223.124 257.36 223.328C257.156 223.532 257.054 223.886 257.054 224.39V227H256.028V222.041H257.054V222.761ZM261.633 227.081C261.165 227.081 260.742 226.976 260.364 226.766C259.986 226.55 259.689 226.25 259.473 225.866C259.257 225.476 259.149 225.026 259.149 224.516C259.149 224.012 259.26 223.565 259.482 223.175C259.704 222.785 260.007 222.485 260.391 222.275C260.775 222.065 261.204 221.96 261.678 221.96C262.152 221.96 262.581 222.065 262.965 222.275C263.349 222.485 263.652 222.785 263.874 223.175C264.096 223.565 264.207 224.012 264.207 224.516C264.207 225.02 264.093 225.467 263.865 225.857C263.637 226.247 263.325 226.55 262.929 226.766C262.539 226.976 262.107 227.081 261.633 227.081ZM261.633 226.19C261.897 226.19 262.143 226.127 262.371 226.001C262.605 225.875 262.794 225.686 262.938 225.434C263.082 225.182 263.154 224.876 263.154 224.516C263.154 224.156 263.085 223.853 262.947 223.607C262.809 223.355 262.626 223.166 262.398 223.04C262.17 222.914 261.924 222.851 261.66 222.851C261.396 222.851 261.15 222.914 260.922 223.04C260.7 223.166 260.523 223.355 260.391 223.607C260.259 223.853 260.193 224.156 260.193 224.516C260.193 225.05 260.328 225.464 260.598 225.758C260.874 226.046 261.219 226.19 261.633 226.19ZM267.3 222.878H266.382V227H265.347V222.878H264.762V222.041H265.347V221.69C265.347 221.12 265.497 220.706 265.797 220.448C266.103 220.184 266.58 220.052 267.228 220.052V220.907C266.916 220.907 266.697 220.967 266.571 221.087C266.445 221.201 266.382 221.402 266.382 221.69V222.041H267.3V222.878ZM268.731 221.384C268.545 221.384 268.389 221.321 268.263 221.195C268.137 221.069 268.074 220.913 268.074 220.727C268.074 220.541 268.137 220.385 268.263 220.259C268.389 220.133 268.545 220.07 268.731 220.07C268.911 220.07 269.064 220.133 269.19 220.259C269.316 220.385 269.379 220.541 269.379 220.727C269.379 220.913 269.316 221.069 269.19 221.195C269.064 221.321 268.911 221.384 268.731 221.384ZM269.235 222.041V227H268.209V222.041H269.235ZM271.608 220.34V227H270.582V220.34H271.608ZM277.5 224.399C277.5 224.585 277.488 224.753 277.464 224.903H273.675C273.705 225.299 273.852 225.617 274.116 225.857C274.38 226.097 274.704 226.217 275.088 226.217C275.64 226.217 276.03 225.986 276.258 225.524H277.365C277.215 225.98 276.942 226.355 276.546 226.649C276.156 226.937 275.67 227.081 275.088 227.081C274.614 227.081 274.188 226.976 273.81 226.766C273.438 226.55 273.144 226.25 272.928 225.866C272.718 225.476 272.613 225.026 272.613 224.516C272.613 224.006 272.715 223.559 272.919 223.175C273.129 222.785 273.42 222.485 273.792 222.275C274.17 222.065 274.602 221.96 275.088 221.96C275.556 221.96 275.973 222.062 276.339 222.266C276.705 222.47 276.99 222.758 277.194 223.13C277.398 223.496 277.5 223.919 277.5 224.399ZM276.429 224.075C276.423 223.697 276.288 223.394 276.024 223.166C275.76 222.938 275.433 222.824 275.043 222.824C274.689 222.824 274.386 222.938 274.134 223.166C273.882 223.388 273.732 223.691 273.684 224.075H276.429ZM281.874 222.77C282.048 222.542 282.285 222.35 282.585 222.194C282.885 222.038 283.224 221.96 283.602 221.96C284.034 221.96 284.427 222.068 284.781 222.284C285.141 222.494 285.423 222.791 285.627 223.175C285.831 223.559 285.933 224 285.933 224.498C285.933 224.996 285.831 225.443 285.627 225.839C285.423 226.229 285.141 226.535 284.781 226.757C284.427 226.973 284.034 227.081 283.602 227.081C283.224 227.081 282.888 227.006 282.594 226.856C282.3 226.7 282.06 226.508 281.874 226.28V229.358H280.848V222.041H281.874V222.77ZM284.889 224.498C284.889 224.156 284.817 223.862 284.673 223.616C284.535 223.364 284.349 223.175 284.115 223.049C283.887 222.917 283.641 222.851 283.377 222.851C283.119 222.851 282.873 222.917 282.639 223.049C282.411 223.181 282.225 223.373 282.081 223.625C281.943 223.877 281.874 224.174 281.874 224.516C281.874 224.858 281.943 225.158 282.081 225.416C282.225 225.668 282.411 225.86 282.639 225.992C282.873 226.124 283.119 226.19 283.377 226.19C283.641 226.19 283.887 226.124 284.115 225.992C284.349 225.854 284.535 225.656 284.673 225.398C284.817 225.14 284.889 224.84 284.889 224.498ZM287.469 221.384C287.283 221.384 287.127 221.321 287.001 221.195C286.875 221.069 286.812 220.913 286.812 220.727C286.812 220.541 286.875 220.385 287.001 220.259C287.127 220.133 287.283 220.07 287.469 220.07C287.649 220.07 287.802 220.133 287.928 220.259C288.054 220.385 288.117 220.541 288.117 220.727C288.117 220.913 288.054 221.069 287.928 221.195C287.802 221.321 287.649 221.384 287.469 221.384ZM287.973 222.041V227H286.947V222.041H287.973ZM288.979 224.516C288.979 224.006 289.081 223.559 289.285 223.175C289.495 222.785 289.783 222.485 290.149 222.275C290.515 222.065 290.935 221.96 291.409 221.96C292.009 221.96 292.504 222.104 292.894 222.392C293.29 222.674 293.557 223.079 293.695 223.607H292.588C292.498 223.361 292.354 223.169 292.156 223.031C291.958 222.893 291.709 222.824 291.409 222.824C290.989 222.824 290.653 222.974 290.401 223.274C290.155 223.568 290.032 223.982 290.032 224.516C290.032 225.05 290.155 225.467 290.401 225.767C290.653 226.067 290.989 226.217 291.409 226.217C292.003 226.217 292.396 225.956 292.588 225.434H293.695C293.551 225.938 293.281 226.34 292.885 226.64C292.489 226.934 291.997 227.081 291.409 227.081C290.935 227.081 290.515 226.976 290.149 226.766C289.783 226.55 289.495 226.25 289.285 225.866C289.081 225.476 288.979 225.026 288.979 224.516ZM295.914 222.878V225.623C295.914 225.809 295.956 225.944 296.04 226.028C296.13 226.106 296.28 226.145 296.49 226.145H297.12V227H296.31C295.848 227 295.494 226.892 295.248 226.676C295.002 226.46 294.879 226.109 294.879 225.623V222.878H294.294V222.041H294.879V220.808H295.914V222.041H297.12V222.878H295.914ZM302.557 222.041V227H301.531V226.415C301.369 226.619 301.156 226.781 300.892 226.901C300.634 227.015 300.358 227.072 300.064 227.072C299.674 227.072 299.323 226.991 299.011 226.829C298.705 226.667 298.462 226.427 298.282 226.109C298.108 225.791 298.021 225.407 298.021 224.957V222.041H299.038V224.804C299.038 225.248 299.149 225.59 299.371 225.83C299.593 226.064 299.896 226.181 300.28 226.181C300.664 226.181 300.967 226.064 301.189 225.83C301.417 225.59 301.531 225.248 301.531 224.804V222.041H302.557ZM304.936 222.761C305.086 222.509 305.284 222.314 305.53 222.176C305.782 222.032 306.079 221.96 306.421 221.96V223.022H306.16C305.758 223.022 305.452 223.124 305.242 223.328C305.038 223.532 304.936 223.886 304.936 224.39V227H303.91V222.041H304.936V222.761ZM311.909 224.399C311.909 224.585 311.897 224.753 311.873 224.903H308.084C308.114 225.299 308.261 225.617 308.525 225.857C308.789 226.097 309.113 226.217 309.497 226.217C310.049 226.217 310.439 225.986 310.667 225.524H311.774C311.624 225.98 311.351 226.355 310.955 226.649C310.565 226.937 310.079 227.081 309.497 227.081C309.023 227.081 308.597 226.976 308.219 226.766C307.847 226.55 307.553 226.25 307.337 225.866C307.127 225.476 307.022 225.026 307.022 224.516C307.022 224.006 307.124 223.559 307.328 223.175C307.538 222.785 307.829 222.485 308.201 222.275C308.579 222.065 309.011 221.96 309.497 221.96C309.965 221.96 310.382 222.062 310.748 222.266C311.114 222.47 311.399 222.758 311.603 223.13C311.807 223.496 311.909 223.919 311.909 224.399ZM310.838 224.075C310.832 223.697 310.697 223.394 310.433 223.166C310.169 222.938 309.842 222.824 309.452 222.824C309.098 222.824 308.795 222.938 308.543 223.166C308.291 223.388 308.141 223.691 308.093 224.075H310.838ZM314.044 225.767L312.955 228.251H312.289L312.928 225.767H314.044ZM321.77 222.041V227H320.744V226.415C320.582 226.619 320.369 226.781 320.105 226.901C319.847 227.015 319.571 227.072 319.277 227.072C318.887 227.072 318.536 226.991 318.224 226.829C317.918 226.667 317.675 226.427 317.495 226.109C317.321 225.791 317.234 225.407 317.234 224.957V222.041H318.251V224.804C318.251 225.248 318.362 225.59 318.584 225.83C318.806 226.064 319.109 226.181 319.493 226.181C319.877 226.181 320.18 226.064 320.402 225.83C320.63 225.59 320.744 225.248 320.744 224.804V222.041H321.77ZM324.923 227.081C324.533 227.081 324.182 227.012 323.87 226.874C323.564 226.73 323.321 226.538 323.141 226.298C322.961 226.052 322.865 225.779 322.853 225.479H323.915C323.933 225.689 324.032 225.866 324.212 226.01C324.398 226.148 324.629 226.217 324.905 226.217C325.193 226.217 325.415 226.163 325.571 226.055C325.733 225.941 325.814 225.797 325.814 225.623C325.814 225.437 325.724 225.299 325.544 225.209C325.37 225.119 325.091 225.02 324.707 224.912C324.335 224.81 324.032 224.711 323.798 224.615C323.564 224.519 323.36 224.372 323.186 224.174C323.018 223.976 322.934 223.715 322.934 223.391C322.934 223.127 323.012 222.887 323.168 222.671C323.324 222.449 323.546 222.275 323.834 222.149C324.128 222.023 324.464 221.96 324.842 221.96C325.406 221.96 325.859 222.104 326.201 222.392C326.549 222.674 326.735 223.061 326.759 223.553H325.733C325.715 223.331 325.625 223.154 325.463 223.022C325.301 222.89 325.082 222.824 324.806 222.824C324.536 222.824 324.329 222.875 324.185 222.977C324.041 223.079 323.969 223.214 323.969 223.382C323.969 223.514 324.017 223.625 324.113 223.715C324.209 223.805 324.326 223.877 324.464 223.931C324.602 223.979 324.806 224.042 325.076 224.12C325.436 224.216 325.73 224.315 325.958 224.417C326.192 224.513 326.393 224.657 326.561 224.849C326.729 225.041 326.816 225.296 326.822 225.614C326.822 225.896 326.744 226.148 326.588 226.37C326.432 226.592 326.21 226.766 325.922 226.892C325.64 227.018 325.307 227.081 324.923 227.081ZM332.476 224.399C332.476 224.585 332.464 224.753 332.44 224.903H328.651C328.681 225.299 328.828 225.617 329.092 225.857C329.356 226.097 329.68 226.217 330.064 226.217C330.616 226.217 331.006 225.986 331.234 225.524H332.341C332.191 225.98 331.918 226.355 331.522 226.649C331.132 226.937 330.646 227.081 330.064 227.081C329.59 227.081 329.164 226.976 328.786 226.766C328.414 226.55 328.12 226.25 327.904 225.866C327.694 225.476 327.589 225.026 327.589 224.516C327.589 224.006 327.691 223.559 327.895 223.175C328.105 222.785 328.396 222.485 328.768 222.275C329.146 222.065 329.578 221.96 330.064 221.96C330.532 221.96 330.949 222.062 331.315 222.266C331.681 222.47 331.966 222.758 332.17 223.13C332.374 223.496 332.476 223.919 332.476 224.399ZM331.405 224.075C331.399 223.697 331.264 223.394 331 223.166C330.736 222.938 330.409 222.824 330.019 222.824C329.665 222.824 329.362 222.938 329.11 223.166C328.858 223.388 328.708 223.691 328.66 224.075H331.405ZM334.512 222.761C334.662 222.509 334.86 222.314 335.106 222.176C335.358 222.032 335.655 221.96 335.997 221.96V223.022H335.736C335.334 223.022 335.028 223.124 334.818 223.328C334.614 223.532 334.512 223.886 334.512 224.39V227H333.486V222.041H334.512V222.761ZM339.442 221.96C339.832 221.96 340.18 222.041 340.486 222.203C340.798 222.365 341.041 222.605 341.215 222.923C341.389 223.241 341.476 223.625 341.476 224.075V227H340.459V224.228C340.459 223.784 340.348 223.445 340.126 223.211C339.904 222.971 339.601 222.851 339.217 222.851C338.833 222.851 338.527 222.971 338.299 223.211C338.077 223.445 337.966 223.784 337.966 224.228V227H336.94V222.041H337.966V222.608C338.134 222.404 338.347 222.245 338.605 222.131C338.869 222.017 339.148 221.96 339.442 221.96ZM342.442 224.498C342.442 224 342.544 223.559 342.748 223.175C342.958 222.791 343.24 222.494 343.594 222.284C343.954 222.068 344.35 221.96 344.782 221.96C345.172 221.96 345.511 222.038 345.799 222.194C346.093 222.344 346.327 222.533 346.501 222.761V222.041H347.536V227H346.501V226.262C346.327 226.496 346.09 226.691 345.79 226.847C345.49 227.003 345.148 227.081 344.764 227.081C344.338 227.081 343.948 226.973 343.594 226.757C343.24 226.535 342.958 226.229 342.748 225.839C342.544 225.443 342.442 224.996 342.442 224.498ZM346.501 224.516C346.501 224.174 346.429 223.877 346.285 223.625C346.147 223.373 345.964 223.181 345.736 223.049C345.508 222.917 345.262 222.851 344.998 222.851C344.734 222.851 344.488 222.917 344.26 223.049C344.032 223.175 343.846 223.364 343.702 223.616C343.564 223.862 343.495 224.156 343.495 224.498C343.495 224.84 343.564 225.14 343.702 225.398C343.846 225.656 344.032 225.854 344.26 225.992C344.494 226.124 344.74 226.19 344.998 226.19C345.262 226.19 345.508 226.124 345.736 225.992C345.964 225.86 346.147 225.668 346.285 225.416C346.429 225.158 346.501 224.858 346.501 224.516ZM354.887 221.96C355.277 221.96 355.625 222.041 355.931 222.203C356.243 222.365 356.486 222.605 356.66 222.923C356.84 223.241 356.93 223.625 356.93 224.075V227H355.913V224.228C355.913 223.784 355.802 223.445 355.58 223.211C355.358 222.971 355.055 222.851 354.671 222.851C354.287 222.851 353.981 222.971 353.753 223.211C353.531 223.445 353.42 223.784 353.42 224.228V227H352.403V224.228C352.403 223.784 352.292 223.445 352.07 223.211C351.848 222.971 351.545 222.851 351.161 222.851C350.777 222.851 350.471 222.971 350.243 223.211C350.021 223.445 349.91 223.784 349.91 224.228V227H348.884V222.041H349.91V222.608C350.078 222.404 350.291 222.245 350.549 222.131C350.807 222.017 351.083 221.96 351.377 221.96C351.773 221.96 352.127 222.044 352.439 222.212C352.751 222.38 352.991 222.623 353.159 222.941C353.309 222.641 353.543 222.404 353.861 222.23C354.179 222.05 354.521 221.96 354.887 221.96ZM362.781 224.399C362.781 224.585 362.769 224.753 362.745 224.903H358.956C358.986 225.299 359.133 225.617 359.397 225.857C359.661 226.097 359.985 226.217 360.369 226.217C360.921 226.217 361.311 225.986 361.539 225.524H362.646C362.496 225.98 362.223 226.355 361.827 226.649C361.437 226.937 360.951 227.081 360.369 227.081C359.895 227.081 359.469 226.976 359.091 226.766C358.719 226.55 358.425 226.25 358.209 225.866C357.999 225.476 357.894 225.026 357.894 224.516C357.894 224.006 357.996 223.559 358.2 223.175C358.41 222.785 358.701 222.485 359.073 222.275C359.451 222.065 359.883 221.96 360.369 221.96C360.837 221.96 361.254 222.062 361.62 222.266C361.986 222.47 362.271 222.758 362.475 223.13C362.679 223.496 362.781 223.919 362.781 224.399ZM361.71 224.075C361.704 223.697 361.569 223.394 361.305 223.166C361.041 222.938 360.714 222.824 360.324 222.824C359.97 222.824 359.667 222.938 359.415 223.166C359.163 223.388 359.013 223.691 358.965 224.075H361.71Z"></path>
<path stroke-width="1.5" stroke="black" d="M219.25 216.75V217C219.25 219.347 217.347 221.25 215 221.25C212.653 221.25 210.75 219.347 210.75 217V216.75C210.75 216.198 211.198 215.75 211.75 215.75H218.25C218.802 215.75 219.25 216.198 219.25 216.75ZM215 213.25C213.757 213.25 212.75 212.243 212.75 211C212.75 209.757 213.757 208.75 215 208.75C216.243 208.75 217.25 209.757 217.25 211C217.25 212.243 216.243 213.25 215 213.25Z"></path>
<path stroke-linecap="round" stroke-width="1.5" stroke="black" d="M222 209.5H229"></path>
<path stroke-linecap="round" stroke-width="1.5" stroke="black" d="M222 214.5H229"></path>
<path stroke-linecap="round" stroke-width="1.5" stroke="black" d="M222 219.5H229"></path>
<rect fill-opacity="0.05" fill="black" rx="5" height="66" width="280" y="252" x="190"></rect>
<path stroke-linejoin="round" stroke-linecap="round" stroke-width="1.5" stroke="black" d="M438 290L442.293 285.707C442.683 285.317 442.683 284.683 442.293 284.293L438 280"></path>
<path fill="black" d="M253.344 281.077C252.831 281.077 252.369 280.989 251.958 280.813C251.547 280.63 251.225 280.373 250.99 280.043C250.755 279.713 250.638 279.328 250.638 278.888H251.98C252.009 279.218 252.138 279.489 252.365 279.702C252.6 279.915 252.926 280.021 253.344 280.021C253.777 280.021 254.114 279.918 254.356 279.713C254.598 279.5 254.719 279.229 254.719 278.899C254.719 278.642 254.642 278.433 254.488 278.272C254.341 278.111 254.154 277.986 253.927 277.898C253.707 277.81 253.399 277.715 253.003 277.612C252.504 277.48 252.097 277.348 251.782 277.216C251.474 277.077 251.21 276.864 250.99 276.578C250.77 276.292 250.66 275.911 250.66 275.434C250.66 274.994 250.77 274.609 250.99 274.279C251.21 273.949 251.518 273.696 251.914 273.52C252.31 273.344 252.768 273.256 253.289 273.256C254.03 273.256 254.635 273.443 255.104 273.817C255.581 274.184 255.845 274.69 255.896 275.335H254.51C254.488 275.056 254.356 274.818 254.114 274.62C253.872 274.422 253.553 274.323 253.157 274.323C252.798 274.323 252.504 274.415 252.277 274.598C252.05 274.781 251.936 275.045 251.936 275.39C251.936 275.625 252.006 275.819 252.145 275.973C252.292 276.12 252.475 276.237 252.695 276.325C252.915 276.413 253.216 276.508 253.597 276.611C254.103 276.75 254.514 276.89 254.829 277.029C255.152 277.168 255.423 277.385 255.643 277.678C255.87 277.964 255.984 278.349 255.984 278.833C255.984 279.222 255.878 279.588 255.665 279.933C255.46 280.278 255.155 280.556 254.752 280.769C254.356 280.974 253.887 281.077 253.344 281.077ZM258.102 274.136C257.874 274.136 257.684 274.059 257.53 273.905C257.376 273.751 257.299 273.56 257.299 273.333C257.299 273.106 257.376 272.915 257.53 272.761C257.684 272.607 257.874 272.53 258.102 272.53C258.322 272.53 258.509 272.607 258.663 272.761C258.817 272.915 258.894 273.106 258.894 273.333C258.894 273.56 258.817 273.751 258.663 273.905C258.509 274.059 258.322 274.136 258.102 274.136ZM258.718 274.939V281H257.464V274.939H258.718ZM262.806 274.84C263.275 274.84 263.69 274.935 264.049 275.126C264.416 275.309 264.702 275.54 264.907 275.819V274.939H266.172V281.099C266.172 281.656 266.055 282.151 265.82 282.584C265.585 283.024 265.244 283.369 264.797 283.618C264.357 283.867 263.829 283.992 263.213 283.992C262.392 283.992 261.71 283.798 261.167 283.409C260.624 283.028 260.316 282.507 260.243 281.847H261.486C261.581 282.162 261.783 282.415 262.091 282.606C262.406 282.804 262.78 282.903 263.213 282.903C263.719 282.903 264.126 282.749 264.434 282.441C264.749 282.133 264.907 281.686 264.907 281.099V280.087C264.694 280.373 264.405 280.615 264.038 280.813C263.679 281.004 263.268 281.099 262.806 281.099C262.278 281.099 261.794 280.967 261.354 280.703C260.921 280.432 260.577 280.058 260.32 279.581C260.071 279.097 259.946 278.551 259.946 277.942C259.946 277.333 260.071 276.794 260.32 276.325C260.577 275.856 260.921 275.493 261.354 275.236C261.794 274.972 262.278 274.84 262.806 274.84ZM264.907 277.964C264.907 277.546 264.819 277.183 264.643 276.875C264.474 276.567 264.251 276.332 263.972 276.171C263.693 276.01 263.393 275.929 263.07 275.929C262.747 275.929 262.447 276.01 262.168 276.171C261.889 276.325 261.662 276.556 261.486 276.864C261.317 277.165 261.233 277.524 261.233 277.942C261.233 278.36 261.317 278.727 261.486 279.042C261.662 279.357 261.889 279.599 262.168 279.768C262.454 279.929 262.755 280.01 263.07 280.01C263.393 280.01 263.693 279.929 263.972 279.768C264.251 279.607 264.474 279.372 264.643 279.064C264.819 278.749 264.907 278.382 264.907 277.964ZM270.877 274.84C271.354 274.84 271.779 274.939 272.153 275.137C272.534 275.335 272.831 275.628 273.044 276.017C273.257 276.406 273.363 276.875 273.363 277.425V281H272.12V277.612C272.12 277.069 271.984 276.655 271.713 276.369C271.442 276.076 271.071 275.929 270.602 275.929C270.133 275.929 269.759 276.076 269.48 276.369C269.209 276.655 269.073 277.069 269.073 277.612V281H267.819V274.939H269.073V275.632C269.278 275.383 269.539 275.188 269.854 275.049C270.177 274.91 270.518 274.84 270.877 274.84ZM279.616 276.49V277.546H275.095V276.49H279.616ZM282.035 274.136C281.808 274.136 281.617 274.059 281.463 273.905C281.309 273.751 281.232 273.56 281.232 273.333C281.232 273.106 281.309 272.915 281.463 272.761C281.617 272.607 281.808 272.53 282.035 272.53C282.255 272.53 282.442 272.607 282.596 272.761C282.75 272.915 282.827 273.106 282.827 273.333C282.827 273.56 282.75 273.751 282.596 273.905C282.442 274.059 282.255 274.136 282.035 274.136ZM282.651 274.939V281H281.397V274.939H282.651ZM287.356 274.84C287.832 274.84 288.258 274.939 288.632 275.137C289.013 275.335 289.31 275.628 289.523 276.017C289.735 276.406 289.842 276.875 289.842 277.425V281H288.599V277.612C288.599 277.069 288.463 276.655 288.192 276.369C287.92 276.076 287.55 275.929 287.081 275.929C286.611 275.929 286.237 276.076 285.959 276.369C285.687 276.655 285.552 277.069 285.552 277.612V281H284.298V274.939H285.552V275.632C285.757 275.383 286.017 275.188 286.333 275.049C286.655 274.91 286.996 274.84 287.356 274.84ZM296.928 281.099C296.356 281.099 295.839 280.971 295.377 280.714C294.915 280.45 294.552 280.083 294.288 279.614C294.024 279.137 293.892 278.587 293.892 277.964C293.892 277.348 294.027 276.802 294.299 276.325C294.57 275.848 294.94 275.482 295.41 275.225C295.879 274.968 296.403 274.84 296.983 274.84C297.562 274.84 298.086 274.968 298.556 275.225C299.025 275.482 299.395 275.848 299.667 276.325C299.938 276.802 300.074 277.348 300.074 277.964C300.074 278.58 299.934 279.126 299.656 279.603C299.377 280.08 298.996 280.45 298.512 280.714C298.035 280.971 297.507 281.099 296.928 281.099ZM296.928 280.01C297.25 280.01 297.551 279.933 297.83 279.779C298.116 279.625 298.347 279.394 298.523 279.086C298.699 278.778 298.787 278.404 298.787 277.964C298.787 277.524 298.702 277.154 298.534 276.853C298.365 276.545 298.141 276.314 297.863 276.16C297.584 276.006 297.283 275.929 296.961 275.929C296.638 275.929 296.337 276.006 296.059 276.16C295.787 276.314 295.571 276.545 295.41 276.853C295.248 277.154 295.168 277.524 295.168 277.964C295.168 278.617 295.333 279.123 295.663 279.482C296 279.834 296.422 280.01 296.928 280.01ZM302.567 275.83C302.78 275.551 303.07 275.317 303.436 275.126C303.803 274.935 304.217 274.84 304.679 274.84C305.207 274.84 305.688 274.972 306.12 275.236C306.56 275.493 306.905 275.856 307.154 276.325C307.404 276.794 307.528 277.333 307.528 277.942C307.528 278.551 307.404 279.097 307.154 279.581C306.905 280.058 306.56 280.432 306.12 280.703C305.688 280.967 305.207 281.099 304.679 281.099C304.217 281.099 303.807 281.007 303.447 280.824C303.088 280.633 302.795 280.399 302.567 280.12V283.882H301.313V274.939H302.567V275.83ZM306.252 277.942C306.252 277.524 306.164 277.165 305.988 276.864C305.82 276.556 305.592 276.325 305.306 276.171C305.028 276.01 304.727 275.929 304.404 275.929C304.089 275.929 303.788 276.01 303.502 276.171C303.224 276.332 302.996 276.567 302.82 276.875C302.652 277.183 302.567 277.546 302.567 277.964C302.567 278.382 302.652 278.749 302.82 279.064C302.996 279.372 303.224 279.607 303.502 279.768C303.788 279.929 304.089 280.01 304.404 280.01C304.727 280.01 305.028 279.929 305.306 279.768C305.592 279.599 305.82 279.357 305.988 279.042C306.164 278.727 306.252 278.36 306.252 277.942ZM310.231 275.962V279.317C310.231 279.544 310.283 279.709 310.385 279.812C310.495 279.907 310.679 279.955 310.935 279.955H311.705V281H310.715C310.151 281 309.718 280.868 309.417 280.604C309.117 280.34 308.966 279.911 308.966 279.317V275.962H308.251V274.939H308.966V273.432H310.231V274.939H311.705V275.962H310.231ZM313.499 274.136C313.272 274.136 313.081 274.059 312.927 273.905C312.773 273.751 312.696 273.56 312.696 273.333C312.696 273.106 312.773 272.915 312.927 272.761C313.081 272.607 313.272 272.53 313.499 272.53C313.719 272.53 313.906 272.607 314.06 272.761C314.214 272.915 314.291 273.106 314.291 273.333C314.291 273.56 314.214 273.751 314.06 273.905C313.906 274.059 313.719 274.136 313.499 274.136ZM314.115 274.939V281H312.861V274.939H314.115ZM318.391 281.099C317.819 281.099 317.302 280.971 316.84 280.714C316.378 280.45 316.015 280.083 315.751 279.614C315.487 279.137 315.355 278.587 315.355 277.964C315.355 277.348 315.49 276.802 315.762 276.325C316.033 275.848 316.403 275.482 316.873 275.225C317.342 274.968 317.866 274.84 318.446 274.84C319.025 274.84 319.549 274.968 320.019 275.225C320.488 275.482 320.858 275.848 321.13 276.325C321.401 276.802 321.537 277.348 321.537 277.964C321.537 278.58 321.397 279.126 321.119 279.603C320.84 280.08 320.459 280.45 319.975 280.714C319.498 280.971 318.97 281.099 318.391 281.099ZM318.391 280.01C318.713 280.01 319.014 279.933 319.293 279.779C319.579 279.625 319.81 279.394 319.986 279.086C320.162 278.778 320.25 278.404 320.25 277.964C320.25 277.524 320.165 277.154 319.997 276.853C319.828 276.545 319.604 276.314 319.326 276.16C319.047 276.006 318.746 275.929 318.424 275.929C318.101 275.929 317.8 276.006 317.522 276.16C317.25 276.314 317.034 276.545 316.873 276.853C316.711 277.154 316.631 277.524 316.631 277.964C316.631 278.617 316.796 279.123 317.126 279.482C317.463 279.834 317.885 280.01 318.391 280.01ZM325.834 274.84C326.311 274.84 326.736 274.939 327.11 275.137C327.492 275.335 327.789 275.628 328.001 276.017C328.214 276.406 328.32 276.875 328.32 277.425V281H327.077V277.612C327.077 277.069 326.942 276.655 326.67 276.369C326.399 276.076 326.029 275.929 325.559 275.929C325.09 275.929 324.716 276.076 324.437 276.369C324.166 276.655 324.03 277.069 324.03 277.612V281H322.776V274.939H324.03V275.632C324.236 275.383 324.496 275.188 324.811 275.049C325.134 274.91 325.475 274.84 325.834 274.84ZM332.12 281.099C331.643 281.099 331.214 281.015 330.833 280.846C330.459 280.67 330.162 280.435 329.942 280.142C329.722 279.841 329.604 279.508 329.59 279.141H330.888C330.91 279.398 331.031 279.614 331.251 279.79C331.478 279.959 331.76 280.043 332.098 280.043C332.45 280.043 332.721 279.977 332.912 279.845C333.11 279.706 333.209 279.53 333.209 279.317C333.209 279.09 333.099 278.921 332.879 278.811C332.666 278.701 332.325 278.58 331.856 278.448C331.401 278.323 331.031 278.202 330.745 278.085C330.459 277.968 330.209 277.788 329.997 277.546C329.791 277.304 329.689 276.985 329.689 276.589C329.689 276.266 329.784 275.973 329.975 275.709C330.165 275.438 330.437 275.225 330.789 275.071C331.148 274.917 331.559 274.84 332.021 274.84C332.71 274.84 333.264 275.016 333.682 275.368C334.107 275.713 334.334 276.186 334.364 276.787H333.11C333.088 276.516 332.978 276.299 332.78 276.138C332.582 275.977 332.314 275.896 331.977 275.896C331.647 275.896 331.394 275.958 331.218 276.083C331.042 276.208 330.954 276.373 330.954 276.578C330.954 276.739 331.012 276.875 331.13 276.985C331.247 277.095 331.39 277.183 331.559 277.249C331.727 277.308 331.977 277.385 332.307 277.48C332.747 277.597 333.106 277.718 333.385 277.843C333.671 277.96 333.916 278.136 334.122 278.371C334.327 278.606 334.433 278.917 334.441 279.306C334.441 279.651 334.345 279.959 334.155 280.23C333.964 280.501 333.693 280.714 333.341 280.868C332.996 281.022 332.589 281.099 332.12 281.099Z"></path>
<path fill-opacity="0.75" fill="black" d="M251.701 291.573V293.409H253.861V294.246H251.701V296.163H254.131V297H250.675V290.736H254.131V291.573H251.701ZM257.897 291.96C258.287 291.96 258.635 292.041 258.941 292.203C259.253 292.365 259.496 292.605 259.67 292.923C259.844 293.241 259.931 293.625 259.931 294.075V297H258.914V294.228C258.914 293.784 258.803 293.445 258.581 293.211C258.359 292.971 258.056 292.851 257.672 292.851C257.288 292.851 256.982 292.971 256.754 293.211C256.532 293.445 256.421 293.784 256.421 294.228V297H255.395V292.041H256.421V292.608C256.589 292.404 256.802 292.245 257.06 292.131C257.324 292.017 257.603 291.96 257.897 291.96ZM260.897 294.498C260.897 294 260.999 293.559 261.203 293.175C261.413 292.791 261.695 292.494 262.049 292.284C262.409 292.068 262.805 291.96 263.237 291.96C263.627 291.96 263.966 292.038 264.254 292.194C264.548 292.344 264.782 292.533 264.956 292.761V292.041H265.991V297H264.956V296.262C264.782 296.496 264.545 296.691 264.245 296.847C263.945 297.003 263.603 297.081 263.219 297.081C262.793 297.081 262.403 296.973 262.049 296.757C261.695 296.535 261.413 296.229 261.203 295.839C260.999 295.443 260.897 294.996 260.897 294.498ZM264.956 294.516C264.956 294.174 264.884 293.877 264.74 293.625C264.602 293.373 264.419 293.181 264.191 293.049C263.963 292.917 263.717 292.851 263.453 292.851C263.189 292.851 262.943 292.917 262.715 293.049C262.487 293.175 262.301 293.364 262.157 293.616C262.019 293.862 261.95 294.156 261.95 294.498C261.95 294.84 262.019 295.14 262.157 295.398C262.301 295.656 262.487 295.854 262.715 295.992C262.949 296.124 263.195 296.19 263.453 296.19C263.717 296.19 263.963 296.124 264.191 295.992C264.419 295.86 264.602 295.668 264.74 295.416C264.884 295.158 264.956 294.858 264.956 294.516ZM268.365 292.779C268.539 292.539 268.776 292.344 269.076 292.194C269.382 292.038 269.721 291.96 270.093 291.96C270.531 291.96 270.927 292.065 271.281 292.275C271.635 292.485 271.914 292.785 272.118 293.175C272.322 293.559 272.424 294 272.424 294.498C272.424 294.996 272.322 295.443 272.118 295.839C271.914 296.229 271.632 296.535 271.272 296.757C270.918 296.973 270.525 297.081 270.093 297.081C269.709 297.081 269.367 297.006 269.067 296.856C268.773 296.706 268.539 296.514 268.365 296.28V297H267.339V290.34H268.365V292.779ZM271.38 294.498C271.38 294.156 271.308 293.862 271.164 293.616C271.026 293.364 270.84 293.175 270.606 293.049C270.378 292.917 270.132 292.851 269.868 292.851C269.61 292.851 269.364 292.917 269.13 293.049C268.902 293.181 268.716 293.373 268.572 293.625C268.434 293.877 268.365 294.174 268.365 294.516C268.365 294.858 268.434 295.158 268.572 295.416C268.716 295.668 268.902 295.86 269.13 295.992C269.364 296.124 269.61 296.19 269.868 296.19C270.132 296.19 270.378 296.124 270.606 295.992C270.84 295.854 271.026 295.656 271.164 295.398C271.308 295.14 271.38 294.84 271.38 294.498ZM274.465 290.34V297H273.439V290.34H274.465ZM280.357 294.399C280.357 294.585 280.345 294.753 280.321 294.903H276.532C276.562 295.299 276.709 295.617 276.973 295.857C277.237 296.097 277.561 296.217 277.945 296.217C278.497 296.217 278.887 295.986 279.115 295.524H280.222C280.072 295.98 279.799 296.355 279.403 296.649C279.013 296.937 278.527 297.081 277.945 297.081C277.471 297.081 277.045 296.976 276.667 296.766C276.295 296.55 276.001 296.25 275.785 295.866C275.575 295.476 275.47 295.026 275.47 294.516C275.47 294.006 275.572 293.559 275.776 293.175C275.986 292.785 276.277 292.485 276.649 292.275C277.027 292.065 277.459 291.96 277.945 291.96C278.413 291.96 278.83 292.062 279.196 292.266C279.562 292.47 279.847 292.758 280.051 293.13C280.255 293.496 280.357 293.919 280.357 294.399ZM279.286 294.075C279.28 293.697 279.145 293.394 278.881 293.166C278.617 292.938 278.29 292.824 277.9 292.824C277.546 292.824 277.243 292.938 276.991 293.166C276.739 293.388 276.589 293.691 276.541 294.075H279.286ZM285.855 297.081C285.387 297.081 284.964 296.976 284.586 296.766C284.208 296.55 283.911 296.25 283.695 295.866C283.479 295.476 283.371 295.026 283.371 294.516C283.371 294.012 283.482 293.565 283.704 293.175C283.926 292.785 284.229 292.485 284.613 292.275C284.997 292.065 285.426 291.96 285.9 291.96C286.374 291.96 286.803 292.065 287.187 292.275C287.571 292.485 287.874 292.785 288.096 293.175C288.318 293.565 288.429 294.012 288.429 294.516C288.429 295.02 288.315 295.467 288.087 295.857C287.859 296.247 287.547 296.55 287.151 296.766C286.761 296.976 286.329 297.081 285.855 297.081ZM285.855 296.19C286.119 296.19 286.365 296.127 286.593 296.001C286.827 295.875 287.016 295.686 287.16 295.434C287.304 295.182 287.376 294.876 287.376 294.516C287.376 294.156 287.307 293.853 287.169 293.607C287.031 293.355 286.848 293.166 286.62 293.04C286.392 292.914 286.146 292.851 285.882 292.851C285.618 292.851 285.372 292.914 285.144 293.04C284.922 293.166 284.745 293.355 284.613 293.607C284.481 293.853 284.415 294.156 284.415 294.516C284.415 295.05 284.55 295.464 284.82 295.758C285.096 296.046 285.441 296.19 285.855 296.19ZM290.47 292.761C290.62 292.509 290.818 292.314 291.064 292.176C291.316 292.032 291.613 291.96 291.955 291.96V293.022H291.694C291.292 293.022 290.986 293.124 290.776 293.328C290.572 293.532 290.47 293.886 290.47 294.39V297H289.444V292.041H290.47V292.761ZM294.894 294.498C294.894 294 294.996 293.559 295.2 293.175C295.41 292.791 295.692 292.494 296.046 292.284C296.406 292.068 296.805 291.96 297.243 291.96C297.567 291.96 297.885 292.032 298.197 292.176C298.515 292.314 298.767 292.5 298.953 292.734V290.34H299.988V297H298.953V296.253C298.785 296.493 298.551 296.691 298.251 296.847C297.957 297.003 297.618 297.081 297.234 297.081C296.802 297.081 296.406 296.973 296.046 296.757C295.692 296.535 295.41 296.229 295.2 295.839C294.996 295.443 294.894 294.996 294.894 294.498ZM298.953 294.516C298.953 294.174 298.881 293.877 298.737 293.625C298.599 293.373 298.416 293.181 298.188 293.049C297.96 292.917 297.714 292.851 297.45 292.851C297.186 292.851 296.94 292.917 296.712 293.049C296.484 293.175 296.298 293.364 296.154 293.616C296.016 293.862 295.947 294.156 295.947 294.498C295.947 294.84 296.016 295.14 296.154 295.398C296.298 295.656 296.484 295.854 296.712 295.992C296.946 296.124 297.192 296.19 297.45 296.19C297.714 296.19 297.96 296.124 298.188 295.992C298.416 295.86 298.599 295.668 298.737 295.416C298.881 295.158 298.953 294.858 298.953 294.516ZM301.857 291.384C301.671 291.384 301.515 291.321 301.389 291.195C301.263 291.069 301.2 290.913 301.2 290.727C301.2 290.541 301.263 290.385 301.389 290.259C301.515 290.133 301.671 290.07 301.857 290.07C302.037 290.07 302.19 290.133 302.316 290.259C302.442 290.385 302.505 290.541 302.505 290.727C302.505 290.913 302.442 291.069 302.316 291.195C302.19 291.321 302.037 291.384 301.857 291.384ZM302.361 292.041V297H301.335V292.041H302.361ZM305.508 297.081C305.118 297.081 304.767 297.012 304.455 296.874C304.149 296.73 303.906 296.538 303.726 296.298C303.546 296.052 303.45 295.779 303.438 295.479H304.5C304.518 295.689 304.617 295.866 304.797 296.01C304.983 296.148 305.214 296.217 305.49 296.217C305.778 296.217 306 296.163 306.156 296.055C306.318 295.941 306.399 295.797 306.399 295.623C306.399 295.437 306.309 295.299 306.129 295.209C305.955 295.119 305.676 295.02 305.292 294.912C304.92 294.81 304.617 294.711 304.383 294.615C304.149 294.519 303.945 294.372 303.771 294.174C303.603 293.976 303.519 293.715 303.519 293.391C303.519 293.127 303.597 292.887 303.753 292.671C303.909 292.449 304.131 292.275 304.419 292.149C304.713 292.023 305.049 291.96 305.427 291.96C305.991 291.96 306.444 292.104 306.786 292.392C307.134 292.674 307.32 293.061 307.344 293.553H306.318C306.3 293.331 306.21 293.154 306.048 293.022C305.886 292.89 305.667 292.824 305.391 292.824C305.121 292.824 304.914 292.875 304.77 292.977C304.626 293.079 304.554 293.214 304.554 293.382C304.554 293.514 304.602 293.625 304.698 293.715C304.794 293.805 304.911 293.877 305.049 293.931C305.187 293.979 305.391 294.042 305.661 294.12C306.021 294.216 306.315 294.315 306.543 294.417C306.777 294.513 306.978 294.657 307.146 294.849C307.314 295.041 307.401 295.296 307.407 295.614C307.407 295.896 307.329 296.148 307.173 296.37C307.017 296.592 306.795 296.766 306.507 296.892C306.225 297.018 305.892 297.081 305.508 297.081ZM308.174 294.498C308.174 294 308.276 293.559 308.48 293.175C308.69 292.791 308.972 292.494 309.326 292.284C309.686 292.068 310.082 291.96 310.514 291.96C310.904 291.96 311.243 292.038 311.531 292.194C311.825 292.344 312.059 292.533 312.233 292.761V292.041H313.268V297H312.233V296.262C312.059 296.496 311.822 296.691 311.522 296.847C311.222 297.003 310.88 297.081 310.496 297.081C310.07 297.081 309.68 296.973 309.326 296.757C308.972 296.535 308.69 296.229 308.48 295.839C308.276 295.443 308.174 294.996 308.174 294.498ZM312.233 294.516C312.233 294.174 312.161 293.877 312.017 293.625C311.879 293.373 311.696 293.181 311.468 293.049C311.24 292.917 310.994 292.851 310.73 292.851C310.466 292.851 310.22 292.917 309.992 293.049C309.764 293.175 309.578 293.364 309.434 293.616C309.296 293.862 309.227 294.156 309.227 294.498C309.227 294.84 309.296 295.14 309.434 295.398C309.578 295.656 309.764 295.854 309.992 295.992C310.226 296.124 310.472 296.19 310.73 296.19C310.994 296.19 311.24 296.124 311.468 295.992C311.696 295.86 311.879 295.668 312.017 295.416C312.161 295.158 312.233 294.858 312.233 294.516ZM315.641 292.779C315.815 292.539 316.052 292.344 316.352 292.194C316.658 292.038 316.997 291.96 317.369 291.96C317.807 291.96 318.203 292.065 318.557 292.275C318.911 292.485 319.19 292.785 319.394 293.175C319.598 293.559 319.7 294 319.7 294.498C319.7 294.996 319.598 295.443 319.394 295.839C319.19 296.229 318.908 296.535 318.548 296.757C318.194 296.973 317.801 297.081 317.369 297.081C316.985 297.081 316.643 297.006 316.343 296.856C316.049 296.706 315.815 296.514 315.641 296.28V297H314.615V290.34H315.641V292.779ZM318.656 294.498C318.656 294.156 318.584 293.862 318.44 293.616C318.302 293.364 318.116 293.175 317.882 293.049C317.654 292.917 317.408 292.851 317.144 292.851C316.886 292.851 316.64 292.917 316.406 293.049C316.178 293.181 315.992 293.373 315.848 293.625C315.71 293.877 315.641 294.174 315.641 294.516C315.641 294.858 315.71 295.158 315.848 295.416C315.992 295.668 316.178 295.86 316.406 295.992C316.64 296.124 316.886 296.19 317.144 296.19C317.408 296.19 317.654 296.124 317.882 295.992C318.116 295.854 318.302 295.656 318.44 295.398C318.584 295.14 318.656 294.84 318.656 294.498ZM321.741 290.34V297H320.715V290.34H321.741ZM327.633 294.399C327.633 294.585 327.621 294.753 327.597 294.903H323.808C323.838 295.299 323.985 295.617 324.249 295.857C324.513 296.097 324.837 296.217 325.221 296.217C325.773 296.217 326.163 295.986 326.391 295.524H327.498C327.348 295.98 327.075 296.355 326.679 296.649C326.289 296.937 325.803 297.081 325.221 297.081C324.747 297.081 324.321 296.976 323.943 296.766C323.571 296.55 323.277 296.25 323.061 295.866C322.851 295.476 322.746 295.026 322.746 294.516C322.746 294.006 322.848 293.559 323.052 293.175C323.262 292.785 323.553 292.485 323.925 292.275C324.303 292.065 324.735 291.96 325.221 291.96C325.689 291.96 326.106 292.062 326.472 292.266C326.838 292.47 327.123 292.758 327.327 293.13C327.531 293.496 327.633 293.919 327.633 294.399ZM326.562 294.075C326.556 293.697 326.421 293.394 326.157 293.166C325.893 292.938 325.566 292.824 325.176 292.824C324.822 292.824 324.519 292.938 324.267 293.166C324.015 293.388 323.865 293.691 323.817 294.075H326.562ZM332.178 292.878V295.623C332.178 295.809 332.22 295.944 332.304 296.028C332.394 296.106 332.544 296.145 332.754 296.145H333.384V297H332.574C332.112 297 331.758 296.892 331.512 296.676C331.266 296.46 331.143 296.109 331.143 295.623V292.878H330.558V292.041H331.143V290.808H332.178V292.041H333.384V292.878H332.178ZM336.894 291.96C337.272 291.96 337.608 292.041 337.902 292.203C338.202 292.365 338.436 292.605 338.604 292.923C338.778 293.241 338.865 293.625 338.865 294.075V297H337.848V294.228C337.848 293.784 337.737 293.445 337.515 293.211C337.293 292.971 336.99 292.851 336.606 292.851C336.222 292.851 335.916 292.971 335.688 293.211C335.466 293.445 335.355 293.784 335.355 294.228V297H334.329V290.34H335.355V292.617C335.529 292.407 335.748 292.245 336.012 292.131C336.282 292.017 336.576 291.96 336.894 291.96ZM344.719 294.399C344.719 294.585 344.707 294.753 344.683 294.903H340.894C340.924 295.299 341.071 295.617 341.335 295.857C341.599 296.097 341.923 296.217 342.307 296.217C342.859 296.217 343.249 295.986 343.477 295.524H344.584C344.434 295.98 344.161 296.355 343.765 296.649C343.375 296.937 342.889 297.081 342.307 297.081C341.833 297.081 341.407 296.976 341.029 296.766C340.657 296.55 340.363 296.25 340.147 295.866C339.937 295.476 339.832 295.026 339.832 294.516C339.832 294.006 339.934 293.559 340.138 293.175C340.348 292.785 340.639 292.485 341.011 292.275C341.389 292.065 341.821 291.96 342.307 291.96C342.775 291.96 343.192 292.062 343.558 292.266C343.924 292.47 344.209 292.758 344.413 293.13C344.617 293.496 344.719 293.919 344.719 294.399ZM343.648 294.075C343.642 293.697 343.507 293.394 343.243 293.166C342.979 292.938 342.652 292.824 342.262 292.824C341.908 292.824 341.605 292.938 341.353 293.166C341.101 293.388 340.951 293.691 340.903 294.075H343.648ZM349.093 292.77C349.267 292.542 349.504 292.35 349.804 292.194C350.104 292.038 350.443 291.96 350.821 291.96C351.253 291.96 351.646 292.068 352 292.284C352.36 292.494 352.642 292.791 352.846 293.175C353.05 293.559 353.152 294 353.152 294.498C353.152 294.996 353.05 295.443 352.846 295.839C352.642 296.229 352.36 296.535 352 296.757C351.646 296.973 351.253 297.081 350.821 297.081C350.443 297.081 350.107 297.006 349.813 296.856C349.519 296.7 349.279 296.508 349.093 296.28V299.358H348.067V292.041H349.093V292.77ZM352.108 294.498C352.108 294.156 352.036 293.862 351.892 293.616C351.754 293.364 351.568 293.175 351.334 293.049C351.106 292.917 350.86 292.851 350.596 292.851C350.338 292.851 350.092 292.917 349.858 293.049C349.63 293.181 349.444 293.373 349.3 293.625C349.162 293.877 349.093 294.174 349.093 294.516C349.093 294.858 349.162 295.158 349.3 295.416C349.444 295.668 349.63 295.86 349.858 295.992C350.092 296.124 350.338 296.19 350.596 296.19C350.86 296.19 351.106 296.124 351.334 295.992C351.568 295.854 351.754 295.656 351.892 295.398C352.036 295.14 352.108 294.84 352.108 294.498ZM353.824 294.498C353.824 294 353.926 293.559 354.13 293.175C354.34 292.791 354.622 292.494 354.976 292.284C355.336 292.068 355.732 291.96 356.164 291.96C356.554 291.96 356.893 292.038 357.181 292.194C357.475 292.344 357.709 292.533 357.883 292.761V292.041H358.918V297H357.883V296.262C357.709 296.496 357.472 296.691 357.172 296.847C356.872 297.003 356.53 297.081 356.146 297.081C355.72 297.081 355.33 296.973 354.976 296.757C354.622 296.535 354.34 296.229 354.13 295.839C353.926 295.443 353.824 294.996 353.824 294.498ZM357.883 294.516C357.883 294.174 357.811 293.877 357.667 293.625C357.529 293.373 357.346 293.181 357.118 293.049C356.89 292.917 356.644 292.851 356.38 292.851C356.116 292.851 355.87 292.917 355.642 293.049C355.414 293.175 355.228 293.364 355.084 293.616C354.946 293.862 354.877 294.156 354.877 294.498C354.877 294.84 354.946 295.14 355.084 295.398C355.228 295.656 355.414 295.854 355.642 295.992C355.876 296.124 356.122 296.19 356.38 296.19C356.644 296.19 356.89 296.124 357.118 295.992C357.346 295.86 357.529 295.668 357.667 295.416C357.811 295.158 357.883 294.858 357.883 294.516ZM362.066 297.081C361.676 297.081 361.325 297.012 361.013 296.874C360.707 296.73 360.464 296.538 360.284 296.298C360.104 296.052 360.008 295.779 359.996 295.479H361.058C361.076 295.689 361.175 295.866 361.355 296.01C361.541 296.148 361.772 296.217 362.048 296.217C362.336 296.217 362.558 296.163 362.714 296.055C362.876 295.941 362.957 295.797 362.957 295.623C362.957 295.437 362.867 295.299 362.687 295.209C362.513 295.119 362.234 295.02 361.85 294.912C361.478 294.81 361.175 294.711 360.941 294.615C360.707 294.519 360.503 294.372 360.329 294.174C360.161 293.976 360.077 293.715 360.077 293.391C360.077 293.127 360.155 292.887 360.311 292.671C360.467 292.449 360.689 292.275 360.977 292.149C361.271 292.023 361.607 291.96 361.985 291.96C362.549 291.96 363.002 292.104 363.344 292.392C363.692 292.674 363.878 293.061 363.902 293.553H362.876C362.858 293.331 362.768 293.154 362.606 293.022C362.444 292.89 362.225 292.824 361.949 292.824C361.679 292.824 361.472 292.875 361.328 292.977C361.184 293.079 361.112 293.214 361.112 293.382C361.112 293.514 361.16 293.625 361.256 293.715C361.352 293.805 361.469 293.877 361.607 293.931C361.745 293.979 361.949 294.042 362.219 294.12C362.579 294.216 362.873 294.315 363.101 294.417C363.335 294.513 363.536 294.657 363.704 294.849C363.872 295.041 363.959 295.296 363.965 295.614C363.965 295.896 363.887 296.148 363.731 296.37C363.575 296.592 363.353 296.766 363.065 296.892C362.783 297.018 362.45 297.081 362.066 297.081ZM366.873 297.081C366.483 297.081 366.132 297.012 365.82 296.874C365.514 296.73 365.271 296.538 365.091 296.298C364.911 296.052 364.815 295.779 364.803 295.479H365.865C365.883 295.689 365.982 295.866 366.162 296.01C366.348 296.148 366.579 296.217 366.855 296.217C367.143 296.217 367.365 296.163 367.521 296.055C367.683 295.941 367.764 295.797 367.764 295.623C367.764 295.437 367.674 295.299 367.494 295.209C367.32 295.119 367.041 295.02 366.657 294.912C366.285 294.81 365.982 294.711 365.748 294.615C365.514 294.519 365.31 294.372 365.136 294.174C364.968 293.976 364.884 293.715 364.884 293.391C364.884 293.127 364.962 292.887 365.118 292.671C365.274 292.449 365.496 292.275 365.784 292.149C366.078 292.023 366.414 291.96 366.792 291.96C367.356 291.96 367.809 292.104 368.151 292.392C368.499 292.674 368.685 293.061 368.709 293.553H367.683C367.665 293.331 367.575 293.154 367.413 293.022C367.251 292.89 367.032 292.824 366.756 292.824C366.486 292.824 366.279 292.875 366.135 292.977C365.991 293.079 365.919 293.214 365.919 293.382C365.919 293.514 365.967 293.625 366.063 293.715C366.159 293.805 366.276 293.877 366.414 293.931C366.552 293.979 366.756 294.042 367.026 294.12C367.386 294.216 367.68 294.315 367.908 294.417C368.142 294.513 368.343 294.657 368.511 294.849C368.679 295.041 368.766 295.296 368.772 295.614C368.772 295.896 368.694 296.148 368.538 296.37C368.382 296.592 368.16 296.766 367.872 296.892C367.59 297.018 367.257 297.081 366.873 297.081ZM376.541 292.041L375.002 297H373.922L372.923 293.337L371.924 297H370.844L369.296 292.041H370.34L371.375 296.028L372.428 292.041H373.499L374.507 296.01L375.533 292.041H376.541ZM379.459 297.081C378.991 297.081 378.568 296.976 378.19 296.766C377.812 296.55 377.515 296.25 377.299 295.866C377.083 295.476 376.975 295.026 376.975 294.516C376.975 294.012 377.086 293.565 377.308 293.175C377.53 292.785 377.833 292.485 378.217 292.275C378.601 292.065 379.03 291.96 379.504 291.96C379.978 291.96 380.407 292.065 380.791 292.275C381.175 292.485 381.478 292.785 381.7 293.175C381.922 293.565 382.033 294.012 382.033 294.516C382.033 295.02 381.919 295.467 381.691 295.857C381.463 296.247 381.151 296.55 380.755 296.766C380.365 296.976 379.933 297.081 379.459 297.081ZM379.459 296.19C379.723 296.19 379.969 296.127 380.197 296.001C380.431 295.875 380.62 295.686 380.764 295.434C380.908 295.182 380.98 294.876 380.98 294.516C380.98 294.156 380.911 293.853 380.773 293.607C380.635 293.355 380.452 293.166 380.224 293.04C379.996 292.914 379.75 292.851 379.486 292.851C379.222 292.851 378.976 292.914 378.748 293.04C378.526 293.166 378.349 293.355 378.217 293.607C378.085 293.853 378.019 294.156 378.019 294.516C378.019 295.05 378.154 295.464 378.424 295.758C378.7 296.046 379.045 296.19 379.459 296.19ZM384.073 292.761C384.223 292.509 384.421 292.314 384.667 292.176C384.919 292.032 385.216 291.96 385.558 291.96V293.022H385.297C384.895 293.022 384.589 293.124 384.379 293.328C384.175 293.532 384.073 293.886 384.073 294.39V297H383.047V292.041H384.073V292.761ZM386.159 294.498C386.159 294 386.261 293.559 386.465 293.175C386.675 292.791 386.957 292.494 387.311 292.284C387.671 292.068 388.07 291.96 388.508 291.96C388.832 291.96 389.15 292.032 389.462 292.176C389.78 292.314 390.032 292.5 390.218 292.734V290.34H391.253V297H390.218V296.253C390.05 296.493 389.816 296.691 389.516 296.847C389.222 297.003 388.883 297.081 388.499 297.081C388.067 297.081 387.671 296.973 387.311 296.757C386.957 296.535 386.675 296.229 386.465 295.839C386.261 295.443 386.159 294.996 386.159 294.498ZM390.218 294.516C390.218 294.174 390.146 293.877 390.002 293.625C389.864 293.373 389.681 293.181 389.453 293.049C389.225 292.917 388.979 292.851 388.715 292.851C388.451 292.851 388.205 292.917 387.977 293.049C387.749 293.175 387.563 293.364 387.419 293.616C387.281 293.862 387.212 294.156 387.212 294.498C387.212 294.84 387.281 295.14 387.419 295.398C387.563 295.656 387.749 295.854 387.977 295.992C388.211 296.124 388.457 296.19 388.715 296.19C388.979 296.19 389.225 296.124 389.453 295.992C389.681 295.86 389.864 295.668 390.002 295.416C390.146 295.158 390.218 294.858 390.218 294.516Z"></path>
<path stroke-linejoin="round" stroke-width="1.5" stroke="black" d="M223.25 280C223.25 280.966 224.034 281.75 225 281.75C225.966 281.75 226.75 280.966 226.75 280C226.75 279.034 225.966 278.25 225 278.25C224.034 278.25 223.25 279.034 223.25 280ZM225 280.25C224.862 280.25 224.75 280.138 224.75 280C224.75 279.862 224.862 279.75 225 279.75C225.138 279.75 225.25 279.862 225.25 280C225.25 280.138 225.138 280.25 225 280.25ZM216.53 284.53C216.671 284.39 216.75 284.199 216.75 284V282C216.75 278.548 219.548 275.75 223 275.75C226.452 275.75 229.25 278.548 229.25 282C229.25 285.452 226.452 288.25 223 288.25H221C220.586 288.25 220.25 288.586 220.25 289C220.25 289.138 220.138 289.25 220 289.25H219C218.586 289.25 218.25 289.586 218.25 290V291C218.25 291.69 217.69 292.25 217 292.25H216C215.586 292.25 215.25 292.586 215.25 293C215.25 293.69 214.69 294.25 214 294.25H212C211.31 294.25 210.75 293.69 210.75 293V290.828C210.75 290.497 210.882 290.179 211.116 289.945L216.53 284.53Z"></path>
</svg>
