<svg xmlns="http://www.w3.org/2000/svg" fill="none" viewBox="0 0 480 360" height="360" width="480">
<path fill-opacity="0.05" fill="black" d="M60 60C60 54.4772 64.4772 50 70 50H480V360H60V60Z"></path>
<path fill="#808080" d="M464.134 61.5C464.519 60.8333 465.481 60.8333 465.866 61.5L468.464 66C468.849 66.6667 468.368 67.5 467.598 67.5H462.402C461.632 67.5 461.151 66.6667 461.536 66L464.134 61.5Z"></path>
<path fill="#808080" d="M465.866 348.5C465.481 349.167 464.519 349.167 464.134 348.5L461.536 344C461.151 343.333 461.632 342.5 462.402 342.5L467.598 342.5C468.368 342.5 468.849 343.333 468.464 344L465.866 348.5Z"></path>
</svg>
