<svg xmlns="http://www.w3.org/2000/svg" fill="none" viewBox="0 0 480 360" height="360" width="480">
<path fill="black" d="M368.171 258.632C368.171 259.021 368.079 259.387 367.896 259.732C367.713 260.077 367.419 260.359 367.016 260.579C366.613 260.792 366.096 260.898 365.465 260.898H364.079V264H362.825V256.355H365.465C366.052 256.355 366.547 256.458 366.95 256.663C367.361 256.861 367.665 257.132 367.863 257.477C368.068 257.822 368.171 258.207 368.171 258.632ZM365.465 259.875C365.942 259.875 366.297 259.769 366.532 259.556C366.767 259.336 366.884 259.028 366.884 258.632C366.884 257.796 366.411 257.378 365.465 257.378H364.079V259.875H365.465ZM370.005 257.136C369.778 257.136 369.587 257.059 369.433 256.905C369.279 256.751 369.202 256.56 369.202 256.333C369.202 256.106 369.279 255.915 369.433 255.761C369.587 255.607 369.778 255.53 370.005 255.53C370.225 255.53 370.412 255.607 370.566 255.761C370.72 255.915 370.797 256.106 370.797 256.333C370.797 256.56 370.72 256.751 370.566 256.905C370.412 257.059 370.225 257.136 370.005 257.136ZM370.621 257.939V264H369.367V257.939H370.621ZM375.325 257.84C375.802 257.84 376.227 257.939 376.601 258.137C376.983 258.335 377.28 258.628 377.492 259.017C377.705 259.406 377.811 259.875 377.811 260.425V264H376.568V260.612C376.568 260.069 376.433 259.655 376.161 259.369C375.89 259.076 375.52 258.929 375.05 258.929C374.581 258.929 374.207 259.076 373.928 259.369C373.657 259.655 373.521 260.069 373.521 260.612V264H372.267V257.939H373.521V258.632C373.727 258.383 373.987 258.188 374.302 258.049C374.625 257.91 374.966 257.84 375.325 257.84ZM383.731 258.962V262.317C383.731 262.544 383.783 262.709 383.885 262.812C383.995 262.907 384.179 262.955 384.435 262.955H385.205V264H384.215C383.651 264 383.218 263.868 382.917 263.604C382.617 263.34 382.466 262.911 382.466 262.317V258.962H381.751V257.939H382.466V256.432H383.731V257.939H385.205V258.962H383.731ZM388.99 264.099C388.418 264.099 387.901 263.971 387.439 263.714C386.977 263.45 386.614 263.083 386.35 262.614C386.086 262.137 385.954 261.587 385.954 260.964C385.954 260.348 386.09 259.802 386.361 259.325C386.632 258.848 387.003 258.482 387.472 258.225C387.941 257.968 388.466 257.84 389.045 257.84C389.624 257.84 390.149 257.968 390.618 258.225C391.087 258.482 391.458 258.848 391.729 259.325C392 259.802 392.136 260.348 392.136 260.964C392.136 261.58 391.997 262.126 391.718 262.603C391.439 263.08 391.058 263.45 390.574 263.714C390.097 263.971 389.569 264.099 388.99 264.099ZM388.99 263.01C389.313 263.01 389.613 262.933 389.892 262.779C390.178 262.625 390.409 262.394 390.585 262.086C390.761 261.778 390.849 261.404 390.849 260.964C390.849 260.524 390.765 260.154 390.596 259.853C390.427 259.545 390.204 259.314 389.925 259.16C389.646 259.006 389.346 258.929 389.023 258.929C388.7 258.929 388.4 259.006 388.121 259.16C387.85 259.314 387.633 259.545 387.472 259.853C387.311 260.154 387.23 260.524 387.23 260.964C387.23 261.617 387.395 262.123 387.725 262.482C388.062 262.834 388.484 263.01 388.99 263.01ZM397.696 258.962V262.317C397.696 262.544 397.748 262.709 397.85 262.812C397.96 262.907 398.144 262.955 398.4 262.955H399.17V264H398.18C397.616 264 397.183 263.868 396.882 263.604C396.582 263.34 396.431 262.911 396.431 262.317V258.962H395.716V257.939H396.431V256.432H397.696V257.939H399.17V258.962H397.696ZM399.908 260.942C399.908 260.333 400.033 259.794 400.282 259.325C400.539 258.856 400.883 258.493 401.316 258.236C401.756 257.972 402.24 257.84 402.768 257.84C403.245 257.84 403.659 257.935 404.011 258.126C404.37 258.309 404.656 258.54 404.869 258.819V257.939H406.134V264H404.869V263.098C404.656 263.384 404.367 263.622 404 263.813C403.633 264.004 403.215 264.099 402.746 264.099C402.225 264.099 401.749 263.967 401.316 263.703C400.883 263.432 400.539 263.058 400.282 262.581C400.033 262.097 399.908 261.551 399.908 260.942ZM404.869 260.964C404.869 260.546 404.781 260.183 404.605 259.875C404.436 259.567 404.213 259.332 403.934 259.171C403.655 259.01 403.355 258.929 403.032 258.929C402.709 258.929 402.409 259.01 402.13 259.171C401.851 259.325 401.624 259.556 401.448 259.864C401.279 260.165 401.195 260.524 401.195 260.942C401.195 261.36 401.279 261.727 401.448 262.042C401.624 262.357 401.851 262.599 402.13 262.768C402.416 262.929 402.717 263.01 403.032 263.01C403.355 263.01 403.655 262.929 403.934 262.768C404.213 262.607 404.436 262.372 404.605 262.064C404.781 261.749 404.869 261.382 404.869 260.964ZM409.981 264.099C409.504 264.099 409.075 264.015 408.694 263.846C408.32 263.67 408.023 263.435 407.803 263.142C407.583 262.841 407.466 262.508 407.451 262.141H408.749C408.771 262.398 408.892 262.614 409.112 262.79C409.339 262.959 409.622 263.043 409.959 263.043C410.311 263.043 410.582 262.977 410.773 262.845C410.971 262.706 411.07 262.53 411.07 262.317C411.07 262.09 410.96 261.921 410.74 261.811C410.527 261.701 410.186 261.58 409.717 261.448C409.262 261.323 408.892 261.202 408.606 261.085C408.32 260.968 408.071 260.788 407.858 260.546C407.653 260.304 407.55 259.985 407.55 259.589C407.55 259.266 407.645 258.973 407.836 258.709C408.027 258.438 408.298 258.225 408.65 258.071C409.009 257.917 409.42 257.84 409.882 257.84C410.571 257.84 411.125 258.016 411.543 258.368C411.968 258.713 412.196 259.186 412.225 259.787H410.971C410.949 259.516 410.839 259.299 410.641 259.138C410.443 258.977 410.175 258.896 409.838 258.896C409.508 258.896 409.255 258.958 409.079 259.083C408.903 259.208 408.815 259.373 408.815 259.578C408.815 259.739 408.874 259.875 408.991 259.985C409.108 260.095 409.251 260.183 409.42 260.249C409.589 260.308 409.838 260.385 410.168 260.48C410.608 260.597 410.967 260.718 411.246 260.843C411.532 260.96 411.778 261.136 411.983 261.371C412.188 261.606 412.295 261.917 412.302 262.306C412.302 262.651 412.207 262.959 412.016 263.23C411.825 263.501 411.554 263.714 411.202 263.868C410.857 264.022 410.45 264.099 409.981 264.099ZM416.055 260.975L418.849 264H417.155L414.911 261.393V264H413.657V255.86H414.911V260.59L417.111 257.939H418.849L416.055 260.975ZM423.859 258.841C424.072 258.548 424.362 258.309 424.728 258.126C425.102 257.935 425.517 257.84 425.971 257.84C426.507 257.84 426.991 257.968 427.423 258.225C427.856 258.482 428.197 258.848 428.446 259.325C428.696 259.794 428.82 260.333 428.82 260.942C428.82 261.551 428.696 262.097 428.446 262.581C428.197 263.058 427.852 263.432 427.412 263.703C426.98 263.967 426.499 264.099 425.971 264.099C425.502 264.099 425.084 264.007 424.717 263.824C424.358 263.641 424.072 263.406 423.859 263.12V264H422.605V255.86H423.859V258.841ZM427.544 260.942C427.544 260.524 427.456 260.165 427.28 259.864C427.112 259.556 426.884 259.325 426.598 259.171C426.32 259.01 426.019 258.929 425.696 258.929C425.381 258.929 425.08 259.01 424.794 259.171C424.516 259.332 424.288 259.567 424.112 259.875C423.944 260.183 423.859 260.546 423.859 260.964C423.859 261.382 423.944 261.749 424.112 262.064C424.288 262.372 424.516 262.607 424.794 262.768C425.08 262.929 425.381 263.01 425.696 263.01C426.019 263.01 426.32 262.929 426.598 262.768C426.884 262.599 427.112 262.357 427.28 262.042C427.456 261.727 427.544 261.36 427.544 260.942ZM429.642 260.942C429.642 260.333 429.767 259.794 430.016 259.325C430.273 258.856 430.618 258.493 431.05 258.236C431.49 257.972 431.974 257.84 432.502 257.84C432.979 257.84 433.393 257.935 433.745 258.126C434.105 258.309 434.391 258.54 434.603 258.819V257.939H435.868V264H434.603V263.098C434.391 263.384 434.101 263.622 433.734 263.813C433.368 264.004 432.95 264.099 432.48 264.099C431.96 264.099 431.483 263.967 431.05 263.703C430.618 263.432 430.273 263.058 430.016 262.581C429.767 262.097 429.642 261.551 429.642 260.942ZM434.603 260.964C434.603 260.546 434.515 260.183 434.339 259.875C434.171 259.567 433.947 259.332 433.668 259.171C433.39 259.01 433.089 258.929 432.766 258.929C432.444 258.929 432.143 259.01 431.864 259.171C431.586 259.325 431.358 259.556 431.182 259.864C431.014 260.165 430.929 260.524 430.929 260.942C430.929 261.36 431.014 261.727 431.182 262.042C431.358 262.357 431.586 262.599 431.864 262.768C432.15 262.929 432.451 263.01 432.766 263.01C433.089 263.01 433.39 262.929 433.668 262.768C433.947 262.607 434.171 262.372 434.339 262.064C434.515 261.749 434.603 261.382 434.603 260.964ZM438.769 258.819C438.953 258.511 439.195 258.273 439.495 258.104C439.803 257.928 440.166 257.84 440.584 257.84V259.138H440.265C439.774 259.138 439.4 259.263 439.143 259.512C438.894 259.761 438.769 260.194 438.769 260.81V264H437.515V257.939H438.769V258.819Z"></path>
<path stroke-linejoin="round" stroke-linecap="round" stroke-width="1.1" stroke="black" d="M332.5 267.5L337 263M337 263L333.5 259.5L336.232 258.68C337.668 258.25 338.834 257.198 339.411 255.814L340.655 252.827C340.82 252.433 341.332 252.332 341.634 252.634L347.366 258.366C347.668 258.668 347.567 259.18 347.173 259.345L344.186 260.589C342.802 261.166 341.75 262.332 341.32 263.768L340.5 266.5L337 263Z"></path>
</svg>
