<svg xmlns="http://www.w3.org/2000/svg" fill="none" viewBox="0 0 124 10" height="10" width="124">
<path fill="white" d="M1.76894 1.367V3.611H4.40894V4.634H1.76894V6.977H4.73894V8H0.514941V0.344H4.73894V1.367H1.76894ZM10.2545 8L8.4945 4.942H7.5375V8H6.2835V0.354999H8.9235C9.51016 0.354999 10.0052 0.457666 10.4085 0.662999C10.8192 0.868333 11.1235 1.14333 11.3215 1.488C11.5268 1.83267 11.6295 2.21767 11.6295 2.643C11.6295 3.14167 11.4828 3.59633 11.1895 4.007C10.9035 4.41033 10.4598 4.68533 9.8585 4.832L11.7505 8H10.2545ZM7.5375 3.941H8.9235C9.39283 3.941 9.74483 3.82367 9.9795 3.589C10.2215 3.35433 10.3425 3.039 10.3425 2.643C10.3425 2.247 10.2252 1.939 9.9905 1.719C9.75583 1.49167 9.40016 1.378 8.9235 1.378H7.5375V3.941ZM17.2047 8L15.4447 4.942H14.4877V8H13.2337V0.354999H15.8737C16.4604 0.354999 16.9554 0.457666 17.3587 0.662999C17.7694 0.868333 18.0737 1.14333 18.2717 1.488C18.477 1.83267 18.5797 2.21767 18.5797 2.643C18.5797 3.14167 18.433 3.59633 18.1397 4.007C17.8537 4.41033 17.41 4.68533 16.8087 4.832L18.7007 8H17.2047ZM14.4877 3.941H15.8737C16.343 3.941 16.695 3.82367 16.9297 3.589C17.1717 3.35433 17.2927 3.039 17.2927 2.643C17.2927 2.247 17.1754 1.939 16.9407 1.719C16.706 1.49167 16.3504 1.378 15.8737 1.378H14.4877V3.941ZM26.8829 8.44V9.606H20.7449V8.44H26.8829ZM35.2413 8H33.9873L30.2143 2.291V8H28.9603V0.344H30.2143L33.9873 6.042V0.344H35.2413V8ZM40.375 8.077C39.6637 8.077 39.0073 7.912 38.406 7.582C37.812 7.24467 37.339 6.779 36.987 6.185C36.6423 5.58367 36.47 4.909 36.47 4.161C36.47 3.413 36.6423 2.742 36.987 2.148C37.339 1.554 37.812 1.092 38.406 0.761999C39.0073 0.424666 39.6637 0.255999 40.375 0.255999C41.0937 0.255999 41.75 0.424666 42.344 0.761999C42.9453 1.092 43.4183 1.554 43.763 2.148C44.1077 2.742 44.28 3.413 44.28 4.161C44.28 4.909 44.1077 5.58367 43.763 6.185C43.4183 6.779 42.9453 7.24467 42.344 7.582C41.75 7.912 41.0937 8.077 40.375 8.077ZM40.375 6.988C40.881 6.988 41.332 6.87433 41.728 6.647C42.124 6.41233 42.432 6.08233 42.652 5.657C42.8793 5.22433 42.993 4.72567 42.993 4.161C42.993 3.59633 42.8793 3.10133 42.652 2.676C42.432 2.25067 42.124 1.92433 41.728 1.697C41.332 1.46967 40.881 1.356 40.375 1.356C39.869 1.356 39.418 1.46967 39.022 1.697C38.626 1.92433 38.3143 2.25067 38.087 2.676C37.867 3.10133 37.757 3.59633 37.757 4.161C37.757 4.72567 37.867 5.22433 38.087 5.657C38.3143 6.08233 38.626 6.41233 39.022 6.647C39.418 6.87433 39.869 6.988 40.375 6.988ZM52.213 8.44V9.606H46.075V8.44H52.213ZM56.8093 8.077C56.296 8.077 55.834 7.989 55.4233 7.813C55.0127 7.62967 54.69 7.373 54.4553 7.043C54.2207 6.713 54.1033 6.328 54.1033 5.888H55.4453C55.4747 6.218 55.603 6.48933 55.8303 6.702C56.065 6.91467 56.3913 7.021 56.8093 7.021C57.242 7.021 57.5793 6.91833 57.8213 6.713C58.0633 6.50033 58.1843 6.229 58.1843 5.899C58.1843 5.64233 58.1073 5.43333 57.9533 5.272C57.8067 5.11067 57.6197 4.986 57.3923 4.898C57.1723 4.81 56.8643 4.71467 56.4683 4.612C55.9697 4.48 55.5627 4.348 55.2473 4.216C54.9393 4.07667 54.6753 3.864 54.4553 3.578C54.2353 3.292 54.1253 2.91067 54.1253 2.434C54.1253 1.994 54.2353 1.609 54.4553 1.279C54.6753 0.949 54.9833 0.696 55.3793 0.52C55.7753 0.344 56.2337 0.255999 56.7543 0.255999C57.495 0.255999 58.1 0.442999 58.5693 0.816999C59.046 1.18367 59.31 1.68967 59.3613 2.335H57.9753C57.9533 2.05633 57.8213 1.818 57.5793 1.62C57.3373 1.422 57.0183 1.323 56.6223 1.323C56.263 1.323 55.9697 1.41467 55.7423 1.598C55.515 1.78133 55.4013 2.04533 55.4013 2.39C55.4013 2.62467 55.471 2.819 55.6103 2.973C55.757 3.11967 55.9403 3.237 56.1603 3.325C56.3803 3.413 56.681 3.50833 57.0623 3.611C57.5683 3.75033 57.979 3.88967 58.2943 4.029C58.617 4.16833 58.8883 4.38467 59.1083 4.678C59.3357 4.964 59.4493 5.349 59.4493 5.833C59.4493 6.22167 59.343 6.58833 59.1303 6.933C58.925 7.27767 58.6207 7.55633 58.2173 7.769C57.8213 7.97433 57.352 8.077 56.8093 8.077ZM66.594 0.354999L64.064 5.228V8H62.81V5.228L60.269 0.354999H61.666L63.437 4.106L65.208 0.354999H66.594ZM70.1082 8.077C69.5948 8.077 69.1328 7.989 68.7222 7.813C68.3115 7.62967 67.9888 7.373 67.7542 7.043C67.5195 6.713 67.4022 6.328 67.4022 5.888H68.7442C68.7735 6.218 68.9018 6.48933 69.1292 6.702C69.3638 6.91467 69.6902 7.021 70.1082 7.021C70.5408 7.021 70.8782 6.91833 71.1202 6.713C71.3622 6.50033 71.4832 6.229 71.4832 5.899C71.4832 5.64233 71.4062 5.43333 71.2522 5.272C71.1055 5.11067 70.9185 4.986 70.6912 4.898C70.4712 4.81 70.1632 4.71467 69.7672 4.612C69.2685 4.48 68.8615 4.348 68.5462 4.216C68.2382 4.07667 67.9742 3.864 67.7542 3.578C67.5342 3.292 67.4242 2.91067 67.4242 2.434C67.4242 1.994 67.5342 1.609 67.7542 1.279C67.9742 0.949 68.2822 0.696 68.6782 0.52C69.0742 0.344 69.5325 0.255999 70.0532 0.255999C70.7938 0.255999 71.3988 0.442999 71.8682 0.816999C72.3448 1.18367 72.6088 1.68967 72.6602 2.335H71.2742C71.2522 2.05633 71.1202 1.818 70.8782 1.62C70.6362 1.422 70.3172 1.323 69.9212 1.323C69.5618 1.323 69.2685 1.41467 69.0412 1.598C68.8138 1.78133 68.7002 2.04533 68.7002 2.39C68.7002 2.62467 68.7698 2.819 68.9092 2.973C69.0558 3.11967 69.2392 3.237 69.4592 3.325C69.6792 3.413 69.9798 3.50833 70.3612 3.611C70.8672 3.75033 71.2778 3.88967 71.5932 4.029C71.9158 4.16833 72.1872 4.38467 72.4072 4.678C72.6345 4.964 72.7482 5.349 72.7482 5.833C72.7482 6.22167 72.6418 6.58833 72.4292 6.933C72.2238 7.27767 71.9195 7.55633 71.5162 7.769C71.1202 7.97433 70.6508 8.077 70.1082 8.077ZM80.9268 8.44V9.606H74.7888V8.44H80.9268ZM82.5862 4.161C82.5862 3.413 82.7585 2.742 83.1032 2.148C83.4552 1.554 83.9282 1.092 84.5222 0.761999C85.1235 0.424666 85.7799 0.255999 86.4912 0.255999C87.3052 0.255999 88.0275 0.457666 88.6582 0.860999C89.2962 1.257 89.7582 1.82167 90.0442 2.555H88.5372C88.3392 2.15167 88.0642 1.851 87.7122 1.653C87.3602 1.455 86.9532 1.356 86.4912 1.356C85.9852 1.356 85.5342 1.46967 85.1382 1.697C84.7422 1.92433 84.4305 2.25067 84.2032 2.676C83.9832 3.10133 83.8732 3.59633 83.8732 4.161C83.8732 4.72567 83.9832 5.22067 84.2032 5.646C84.4305 6.07133 84.7422 6.40133 85.1382 6.636C85.5342 6.86333 85.9852 6.977 86.4912 6.977C86.9532 6.977 87.3602 6.878 87.7122 6.68C88.0642 6.482 88.3392 6.18133 88.5372 5.778H90.0442C89.7582 6.51133 89.2962 7.076 88.6582 7.472C88.0275 7.868 87.3052 8.066 86.4912 8.066C85.7725 8.066 85.1162 7.901 84.5222 7.571C83.9282 7.23367 83.4552 6.768 83.1032 6.174C82.7585 5.58 82.5862 4.909 82.5862 4.161ZM94.999 8.077C94.2877 8.077 93.6313 7.912 93.03 7.582C92.436 7.24467 91.963 6.779 91.611 6.185C91.2663 5.58367 91.094 4.909 91.094 4.161C91.094 3.413 91.2663 2.742 91.611 2.148C91.963 1.554 92.436 1.092 93.03 0.761999C93.6313 0.424666 94.2877 0.255999 94.999 0.255999C95.7177 0.255999 96.374 0.424666 96.968 0.761999C97.5693 1.092 98.0423 1.554 98.387 2.148C98.7317 2.742 98.904 3.413 98.904 4.161C98.904 4.909 98.7317 5.58367 98.387 6.185C98.0423 6.779 97.5693 7.24467 96.968 7.582C96.374 7.912 95.7177 8.077 94.999 8.077ZM94.999 6.988C95.505 6.988 95.956 6.87433 96.352 6.647C96.748 6.41233 97.056 6.08233 97.276 5.657C97.5033 5.22433 97.617 4.72567 97.617 4.161C97.617 3.59633 97.5033 3.10133 97.276 2.676C97.056 2.25067 96.748 1.92433 96.352 1.697C95.956 1.46967 95.505 1.356 94.999 1.356C94.493 1.356 94.042 1.46967 93.646 1.697C93.25 1.92433 92.9383 2.25067 92.711 2.676C92.491 3.10133 92.381 3.59633 92.381 4.161C92.381 4.72567 92.491 5.22433 92.711 5.657C92.9383 6.08233 93.25 6.41233 93.646 6.647C94.042 6.87433 94.493 6.988 94.999 6.988ZM106.419 8H105.165L101.392 2.291V8H100.138V0.344H101.392L105.165 6.042V0.344H106.419V8ZM112.565 0.354999V1.378H109.32V3.633H111.85V4.656H109.32V8H108.066V0.354999H112.565ZM114.981 0.354999V8H113.727V0.354999H114.981ZM122.16 2.555C121.962 2.17367 121.687 1.88767 121.335 1.697C120.983 1.499 120.576 1.4 120.114 1.4C119.608 1.4 119.157 1.51367 118.761 1.741C118.365 1.96833 118.054 2.291 117.826 2.709C117.606 3.127 117.496 3.611 117.496 4.161C117.496 4.711 117.606 5.19867 117.826 5.624C118.054 6.042 118.365 6.36467 118.761 6.592C119.157 6.81933 119.608 6.933 120.114 6.933C120.796 6.933 121.35 6.74233 121.775 6.361C122.201 5.97967 122.461 5.46267 122.556 4.81H119.685V3.809H123.898V4.788C123.818 5.382 123.605 5.92833 123.26 6.427C122.923 6.92567 122.479 7.32533 121.929 7.626C121.387 7.91933 120.782 8.066 120.114 8.066C119.396 8.066 118.739 7.901 118.145 7.571C117.551 7.23367 117.078 6.768 116.726 6.174C116.382 5.58 116.209 4.909 116.209 4.161C116.209 3.413 116.382 2.742 116.726 2.148C117.078 1.554 117.551 1.092 118.145 0.761999C118.747 0.424666 119.403 0.255999 120.114 0.255999C120.928 0.255999 121.651 0.457666 122.281 0.860999C122.919 1.257 123.381 1.82167 123.667 2.555H122.16Z"></path>
</svg>
