<svg xmlns="http://www.w3.org/2000/svg" fill="none" viewBox="0 0 44 24" height="24" width="44">
<path fill-opacity="0.5" fill="#FF0000" d="M2 12C2 6.47715 6.47715 2 12 2H32C37.5228 2 42 6.47715 42 12V12C42 17.5228 37.5228 22 32 22H12C6.47715 22 2 17.5228 2 12V12Z"></path>
<path stroke-width="2" stroke-opacity="0.2" stroke="#FF0000" d="M32 1H12C5.92487 1 1 5.92487 1 12C1 18.0751 5.92487 23 12 23H32C38.0751 23 43 18.0751 43 12C43 5.92487 38.0751 1 32 1Z"></path>
<path fill="white" d="M20.6154 13.624C20.6954 14.024 20.8674 14.328 21.1314 14.536C21.3954 14.744 21.7514 14.848 22.1994 14.848C22.7674 14.848 23.1834 14.624 23.4474 14.176C23.7114 13.728 23.8434 12.964 23.8434 11.884C23.6514 12.156 23.3794 12.368 23.0274 12.52C22.6834 12.664 22.3074 12.736 21.8994 12.736C21.3794 12.736 20.9074 12.632 20.4834 12.424C20.0594 12.208 19.7234 11.892 19.4754 11.476C19.2354 11.052 19.1154 10.54 19.1154 9.94C19.1154 9.06 19.3714 8.36 19.8834 7.84C20.4034 7.312 21.1154 7.048 22.0194 7.048C23.1074 7.048 23.8794 7.412 24.3354 8.14C24.7994 8.86 25.0314 9.968 25.0314 11.464C25.0314 12.496 24.9434 13.34 24.7674 13.996C24.5994 14.652 24.3034 15.148 23.8794 15.484C23.4554 15.82 22.8674 15.988 22.1154 15.988C21.2594 15.988 20.5994 15.764 20.1354 15.316C19.6714 14.868 19.4114 14.304 19.3554 13.624H20.6154ZM22.1394 11.584C22.6194 11.584 22.9954 11.436 23.2674 11.14C23.5474 10.836 23.6874 10.436 23.6874 9.94C23.6874 9.388 23.5394 8.96 23.2434 8.656C22.9554 8.344 22.5594 8.188 22.0554 8.188C21.5514 8.188 21.1514 8.348 20.8554 8.668C20.5674 8.98 20.4234 9.392 20.4234 9.904C20.4234 10.392 20.5634 10.796 20.8434 11.116C21.1314 11.428 21.5634 11.584 22.1394 11.584Z"></path>
</svg>
