<svg xmlns="http://www.w3.org/2000/svg" fill="none" viewBox="0 0 480 90" height="90" width="480">
<path fill-opacity="0.9" fill="#E6E6E6" d="M88 30C88 24.4772 92.4772 20 98 20H382C387.523 20 392 24.4772 392 30V60C392 65.5228 387.523 70 382 70H98C92.4772 70 88 65.5228 88 60V30Z"></path>
<path stroke-width="2" stroke-opacity="0.2" stroke="black" d="M382 19H98C91.9249 19 87 23.9249 87 30V60C87 66.0751 91.9249 71 98 71H382C388.075 71 393 66.0751 393 60V30C393 23.9249 388.075 19 382 19Z"></path>
<path fill="#808080" d="M284.311 41.745L282.241 45.732V48H281.215V45.732L279.136 41.745H280.279L281.728 44.814L283.177 41.745H284.311ZM287.276 48.081C286.808 48.081 286.385 47.976 286.007 47.766C285.629 47.55 285.332 47.25 285.116 46.866C284.9 46.476 284.792 46.026 284.792 45.516C284.792 45.012 284.903 44.565 285.125 44.175C285.347 43.785 285.65 43.485 286.034 43.275C286.418 43.065 286.847 42.96 287.321 42.96C287.795 42.96 288.224 43.065 288.608 43.275C288.992 43.485 289.295 43.785 289.517 44.175C289.739 44.565 289.85 45.012 289.85 45.516C289.85 46.02 289.736 46.467 289.508 46.857C289.28 47.247 288.968 47.55 288.572 47.766C288.182 47.976 287.75 48.081 287.276 48.081ZM287.276 47.19C287.54 47.19 287.786 47.127 288.014 47.001C288.248 46.875 288.437 46.686 288.581 46.434C288.725 46.182 288.797 45.876 288.797 45.516C288.797 45.156 288.728 44.853 288.59 44.607C288.452 44.355 288.269 44.166 288.041 44.04C287.813 43.914 287.567 43.851 287.303 43.851C287.039 43.851 286.793 43.914 286.565 44.04C286.343 44.166 286.166 44.355 286.034 44.607C285.902 44.853 285.836 45.156 285.836 45.516C285.836 46.05 285.971 46.464 286.241 46.758C286.517 47.046 286.862 47.19 287.276 47.19ZM295.355 43.041V48H294.329V47.415C294.167 47.619 293.954 47.781 293.69 47.901C293.432 48.015 293.156 48.072 292.862 48.072C292.472 48.072 292.121 47.991 291.809 47.829C291.503 47.667 291.26 47.427 291.08 47.109C290.906 46.791 290.819 46.407 290.819 45.957V43.041H291.836V45.804C291.836 46.248 291.947 46.59 292.169 46.83C292.391 47.064 292.694 47.181 293.078 47.181C293.462 47.181 293.765 47.064 293.987 46.83C294.215 46.59 294.329 46.248 294.329 45.804V43.041H295.355ZM298.705 45.516C298.705 45.006 298.807 44.559 299.011 44.175C299.221 43.785 299.509 43.485 299.875 43.275C300.241 43.065 300.661 42.96 301.135 42.96C301.735 42.96 302.23 43.104 302.62 43.392C303.016 43.674 303.283 44.079 303.421 44.607H302.314C302.224 44.361 302.08 44.169 301.882 44.031C301.684 43.893 301.435 43.824 301.135 43.824C300.715 43.824 300.379 43.974 300.127 44.274C299.881 44.568 299.758 44.982 299.758 45.516C299.758 46.05 299.881 46.467 300.127 46.767C300.379 47.067 300.715 47.217 301.135 47.217C301.729 47.217 302.122 46.956 302.314 46.434H303.421C303.277 46.938 303.007 47.34 302.611 47.64C302.215 47.934 301.723 48.081 301.135 48.081C300.661 48.081 300.241 47.976 299.875 47.766C299.509 47.55 299.221 47.25 299.011 46.866C298.807 46.476 298.705 46.026 298.705 45.516ZM304.102 45.498C304.102 45 304.204 44.559 304.408 44.175C304.618 43.791 304.9 43.494 305.254 43.284C305.614 43.068 306.01 42.96 306.442 42.96C306.832 42.96 307.171 43.038 307.459 43.194C307.753 43.344 307.987 43.533 308.161 43.761V43.041H309.196V48H308.161V47.262C307.987 47.496 307.75 47.691 307.45 47.847C307.15 48.003 306.808 48.081 306.424 48.081C305.998 48.081 305.608 47.973 305.254 47.757C304.9 47.535 304.618 47.229 304.408 46.839C304.204 46.443 304.102 45.996 304.102 45.498ZM308.161 45.516C308.161 45.174 308.089 44.877 307.945 44.625C307.807 44.373 307.624 44.181 307.396 44.049C307.168 43.917 306.922 43.851 306.658 43.851C306.394 43.851 306.148 43.917 305.92 44.049C305.692 44.175 305.506 44.364 305.362 44.616C305.224 44.862 305.155 45.156 305.155 45.498C305.155 45.84 305.224 46.14 305.362 46.398C305.506 46.656 305.692 46.854 305.92 46.992C306.154 47.124 306.4 47.19 306.658 47.19C306.922 47.19 307.168 47.124 307.396 46.992C307.624 46.86 307.807 46.668 307.945 46.416C308.089 46.158 308.161 45.858 308.161 45.516ZM313.045 42.96C313.435 42.96 313.783 43.041 314.089 43.203C314.401 43.365 314.644 43.605 314.818 43.923C314.992 44.241 315.079 44.625 315.079 45.075V48H314.062V45.228C314.062 44.784 313.951 44.445 313.729 44.211C313.507 43.971 313.204 43.851 312.82 43.851C312.436 43.851 312.13 43.971 311.902 44.211C311.68 44.445 311.569 44.784 311.569 45.228V48H310.543V43.041H311.569V43.608C311.737 43.404 311.95 43.245 312.208 43.131C312.472 43.017 312.751 42.96 313.045 42.96ZM316.55 41.745H317.666L316.721 43.887H316.001L316.55 41.745ZM319.765 43.878V46.623C319.765 46.809 319.807 46.944 319.891 47.028C319.981 47.106 320.131 47.145 320.341 47.145H320.971V48H320.161C319.699 48 319.345 47.892 319.099 47.676C318.853 47.46 318.73 47.109 318.73 46.623V43.878H318.145V43.041H318.73V41.808H319.765V43.041H320.971V43.878H319.765ZM328.799 45.399C328.799 45.585 328.787 45.753 328.763 45.903H324.974C325.004 46.299 325.151 46.617 325.415 46.857C325.679 47.097 326.003 47.217 326.387 47.217C326.939 47.217 327.329 46.986 327.557 46.524H328.664C328.514 46.98 328.241 47.355 327.845 47.649C327.455 47.937 326.969 48.081 326.387 48.081C325.913 48.081 325.487 47.976 325.109 47.766C324.737 47.55 324.443 47.25 324.227 46.866C324.017 46.476 323.912 46.026 323.912 45.516C323.912 45.006 324.014 44.559 324.218 44.175C324.428 43.785 324.719 43.485 325.091 43.275C325.469 43.065 325.901 42.96 326.387 42.96C326.855 42.96 327.272 43.062 327.638 43.266C328.004 43.47 328.289 43.758 328.493 44.13C328.697 44.496 328.799 44.919 328.799 45.399ZM327.728 45.075C327.722 44.697 327.587 44.394 327.323 44.166C327.059 43.938 326.732 43.824 326.342 43.824C325.988 43.824 325.685 43.938 325.433 44.166C325.181 44.388 325.031 44.691 324.983 45.075H327.728ZM329.467 45.498C329.467 45 329.569 44.559 329.773 44.175C329.983 43.791 330.265 43.494 330.619 43.284C330.979 43.068 331.378 42.96 331.816 42.96C332.14 42.96 332.458 43.032 332.77 43.176C333.088 43.314 333.34 43.5 333.526 43.734V41.34H334.561V48H333.526V47.253C333.358 47.493 333.124 47.691 332.824 47.847C332.53 48.003 332.191 48.081 331.807 48.081C331.375 48.081 330.979 47.973 330.619 47.757C330.265 47.535 329.983 47.229 329.773 46.839C329.569 46.443 329.467 45.996 329.467 45.498ZM333.526 45.516C333.526 45.174 333.454 44.877 333.31 44.625C333.172 44.373 332.989 44.181 332.761 44.049C332.533 43.917 332.287 43.851 332.023 43.851C331.759 43.851 331.513 43.917 331.285 44.049C331.057 44.175 330.871 44.364 330.727 44.616C330.589 44.862 330.52 45.156 330.52 45.498C330.52 45.84 330.589 46.14 330.727 46.398C330.871 46.656 331.057 46.854 331.285 46.992C331.519 47.124 331.765 47.19 332.023 47.19C332.287 47.19 332.533 47.124 332.761 46.992C332.989 46.86 333.172 46.668 333.31 46.416C333.454 46.158 333.526 45.858 333.526 45.516ZM336.43 42.384C336.244 42.384 336.088 42.321 335.962 42.195C335.836 42.069 335.773 41.913 335.773 41.727C335.773 41.541 335.836 41.385 335.962 41.259C336.088 41.133 336.244 41.07 336.43 41.07C336.61 41.07 336.763 41.133 336.889 41.259C337.015 41.385 337.078 41.541 337.078 41.727C337.078 41.913 337.015 42.069 336.889 42.195C336.763 42.321 336.61 42.384 336.43 42.384ZM336.934 43.041V48H335.908V43.041H336.934ZM339.478 43.878V46.623C339.478 46.809 339.52 46.944 339.604 47.028C339.694 47.106 339.844 47.145 340.054 47.145H340.684V48H339.874C339.412 48 339.058 47.892 338.812 47.676C338.566 47.46 338.443 47.109 338.443 46.623V43.878H337.858V43.041H338.443V41.808H339.478V43.041H340.684V43.878H339.478ZM345.165 43.878V46.623C345.165 46.809 345.207 46.944 345.291 47.028C345.381 47.106 345.531 47.145 345.741 47.145H346.371V48H345.561C345.099 48 344.745 47.892 344.499 47.676C344.253 47.46 344.13 47.109 344.13 46.623V43.878H343.545V43.041H344.13V41.808H345.165V43.041H346.371V43.878H345.165ZM349.882 42.96C350.26 42.96 350.596 43.041 350.89 43.203C351.19 43.365 351.424 43.605 351.592 43.923C351.766 44.241 351.853 44.625 351.853 45.075V48H350.836V45.228C350.836 44.784 350.725 44.445 350.503 44.211C350.281 43.971 349.978 43.851 349.594 43.851C349.21 43.851 348.904 43.971 348.676 44.211C348.454 44.445 348.343 44.784 348.343 45.228V48H347.317V41.34H348.343V43.617C348.517 43.407 348.736 43.245 349 43.131C349.27 43.017 349.564 42.96 349.882 42.96ZM353.683 42.384C353.497 42.384 353.341 42.321 353.215 42.195C353.089 42.069 353.026 41.913 353.026 41.727C353.026 41.541 353.089 41.385 353.215 41.259C353.341 41.133 353.497 41.07 353.683 41.07C353.863 41.07 354.016 41.133 354.142 41.259C354.268 41.385 354.331 41.541 354.331 41.727C354.331 41.913 354.268 42.069 354.142 42.195C354.016 42.321 353.863 42.384 353.683 42.384ZM354.187 43.041V48H353.161V43.041H354.187ZM357.334 48.081C356.944 48.081 356.593 48.012 356.281 47.874C355.975 47.73 355.732 47.538 355.552 47.298C355.372 47.052 355.276 46.779 355.264 46.479H356.326C356.344 46.689 356.443 46.866 356.623 47.01C356.809 47.148 357.04 47.217 357.316 47.217C357.604 47.217 357.826 47.163 357.982 47.055C358.144 46.941 358.225 46.797 358.225 46.623C358.225 46.437 358.135 46.299 357.955 46.209C357.781 46.119 357.502 46.02 357.118 45.912C356.746 45.81 356.443 45.711 356.209 45.615C355.975 45.519 355.771 45.372 355.597 45.174C355.429 44.976 355.345 44.715 355.345 44.391C355.345 44.127 355.423 43.887 355.579 43.671C355.735 43.449 355.957 43.275 356.245 43.149C356.539 43.023 356.875 42.96 357.253 42.96C357.817 42.96 358.27 43.104 358.612 43.392C358.96 43.674 359.146 44.061 359.17 44.553H358.144C358.126 44.331 358.036 44.154 357.874 44.022C357.712 43.89 357.493 43.824 357.217 43.824C356.947 43.824 356.74 43.875 356.596 43.977C356.452 44.079 356.38 44.214 356.38 44.382C356.38 44.514 356.428 44.625 356.524 44.715C356.62 44.805 356.737 44.877 356.875 44.931C357.013 44.979 357.217 45.042 357.487 45.12C357.847 45.216 358.141 45.315 358.369 45.417C358.603 45.513 358.804 45.657 358.972 45.849C359.14 46.041 359.227 46.296 359.233 46.614C359.233 46.896 359.155 47.148 358.999 47.37C358.843 47.592 358.621 47.766 358.333 47.892C358.051 48.018 357.718 48.081 357.334 48.081ZM364.759 43.878H363.841V48H362.806V43.878H362.221V43.041H362.806V42.69C362.806 42.12 362.956 41.706 363.256 41.448C363.562 41.184 364.039 41.052 364.687 41.052V41.907C364.375 41.907 364.156 41.967 364.03 42.087C363.904 42.201 363.841 42.402 363.841 42.69V43.041H364.759V43.878ZM366.19 42.384C366.004 42.384 365.848 42.321 365.722 42.195C365.596 42.069 365.533 41.913 365.533 41.727C365.533 41.541 365.596 41.385 365.722 41.259C365.848 41.133 366.004 41.07 366.19 41.07C366.37 41.07 366.523 41.133 366.649 41.259C366.775 41.385 366.838 41.541 366.838 41.727C366.838 41.913 366.775 42.069 366.649 42.195C366.523 42.321 366.37 42.384 366.19 42.384ZM366.694 43.041V48H365.668V43.041H366.694ZM369.067 41.34V48H368.041V41.34H369.067ZM374.959 45.399C374.959 45.585 374.947 45.753 374.923 45.903H371.134C371.164 46.299 371.311 46.617 371.575 46.857C371.839 47.097 372.163 47.217 372.547 47.217C373.099 47.217 373.489 46.986 373.717 46.524H374.824C374.674 46.98 374.401 47.355 374.005 47.649C373.615 47.937 373.129 48.081 372.547 48.081C372.073 48.081 371.647 47.976 371.269 47.766C370.897 47.55 370.603 47.25 370.387 46.866C370.177 46.476 370.072 46.026 370.072 45.516C370.072 45.006 370.174 44.559 370.378 44.175C370.588 43.785 370.879 43.485 371.251 43.275C371.629 43.065 372.061 42.96 372.547 42.96C373.015 42.96 373.432 43.062 373.798 43.266C374.164 43.47 374.449 43.758 374.653 44.13C374.857 44.496 374.959 44.919 374.959 45.399ZM373.888 45.075C373.882 44.697 373.747 44.394 373.483 44.166C373.219 43.938 372.892 43.824 372.502 43.824C372.148 43.824 371.845 43.938 371.593 44.166C371.341 44.388 371.191 44.691 371.143 45.075H373.888Z"></path>
<path fill="url(#paint0_linear_1034_2)" d="M264 37C259.999 36.9995 255 40.6662 255 46.3333C255 47.9644 255.369 50 257 50C258.666 50 259.333 47.3333 260.667 47.3333C261.219 47.3333 261.667 47.6662 261.667 48.3333C261.667 49.3328 260.667 49.3328 260.667 50.6667C260.667 51.6662 261.333 52.3333 262.333 52.3333C266 52.3333 270.333 48.0359 270.333 43.3333C270.333 40.3328 267.884 37.0005 264 37Z"></path>
<rect fill="url(#paint1_linear_1034_2)" rx="1.33333" height="2.66667" width="2.66667" y="43.6663" x="256.333"></rect>
<rect fill-opacity="0.5" fill="black" rx="1" height="2" width="2" y="44.3328" x="262.333"></rect>
<rect fill="url(#paint2_linear_1034_2)" rx="1.33333" height="2.66667" width="2.66667" y="40.3328" x="258.333"></rect>
<rect fill="url(#paint3_linear_1034_2)" rx="1.33333" height="2.66667" width="2.66667" y="38.9995" x="261.666"></rect>
<path fill="url(#paint4_linear_1034_2)" d="M265.666 44.9988L267.666 44.9997L267.361 52.3327C267.345 52.705 267.039 52.9988 266.666 52.9988V52.9988C266.294 52.9988 265.987 52.705 265.972 52.3327L265.666 44.9988Z"></path>
<path fill="url(#paint5_linear_1034_2)" d="M265.666 44.9988V44.3331H267.666V44.9997L265.666 44.9988Z"></path>
<path fill="url(#paint6_linear_1034_2)" d="M265.666 44.332L265.057 43.1136C264.724 42.4487 265.208 41.6663 265.951 41.6663H267.382C268.125 41.6663 268.609 42.4486 268.276 43.1135L267.666 44.3331L265.666 44.332Z"></path>
<rect fill-opacity="0.05" fill="black" rx="5" height="36" width="140" y="27" x="95"></rect>
<rect fill="url(#paint7_linear_1034_2)" rx="2" height="16" width="16" y="37" x="105"></rect>
<path fill="white" d="M110.879 44.1213C112.05 42.9497 113.95 42.9497 115.121 44.1213L119.414 48.4142C119.789 48.7893 120 49.298 120 49.8284V50C120 51.1046 119.105 52 118 52H108C106.895 52 106 51.1046 106 50V49.8284C106 49.298 106.211 48.7893 106.586 48.4142L110.879 44.1213Z"></path>
<path stroke-opacity="0.1" stroke="black" d="M108 52.5H118C119.381 52.5 120.5 51.3807 120.5 50V49.8284C120.5 49.1654 120.237 48.5295 119.768 48.0607L115.475 43.7678C114.108 42.4009 111.892 42.4009 110.525 43.7678L106.232 48.0607C105.763 48.5295 105.5 49.1654 105.5 49.8284V50C105.5 51.3807 106.619 52.5 108 52.5Z"></path>
<path fill="url(#paint8_linear_1034_2)" d="M108 53L115.293 45.7071C115.683 45.3166 116.317 45.3166 116.707 45.7071L120.414 49.4142C120.789 49.7893 121 50.298 121 50.8284V51C121 52.1046 120.105 53 119 53H108Z"></path>
<path fill="url(#paint9_linear_1034_2)" d="M105 50.8284C105 50.298 105.211 49.7893 105.586 49.4142L110.879 44.1213C112.05 42.9497 113.95 42.9497 115.121 44.1213L118 47V47C116.895 45.8954 115.105 45.8954 114 47L108.586 52.4142C108.211 52.7893 107.702 53 107.172 53H107C105.895 53 105 52.1046 105 51V50.8284Z"></path>
<rect fill="white" rx="1.5" height="3" width="3" y="39" x="115"></rect>
<rect stroke-opacity="0.1" stroke="black" rx="2" height="4" width="4" y="38.5" x="114.5"></rect>
<path fill="black" d="M132.344 49.077C131.831 49.077 131.369 48.989 130.958 48.813C130.547 48.6297 130.225 48.373 129.99 48.043C129.755 47.713 129.638 47.328 129.638 46.888H130.98C131.009 47.218 131.138 47.4893 131.365 47.702C131.6 47.9147 131.926 48.021 132.344 48.021C132.777 48.021 133.114 47.9183 133.356 47.713C133.598 47.5003 133.719 47.229 133.719 46.899C133.719 46.6423 133.642 46.4333 133.488 46.272C133.341 46.1107 133.154 45.986 132.927 45.898C132.707 45.81 132.399 45.7147 132.003 45.612C131.504 45.48 131.097 45.348 130.782 45.216C130.474 45.0767 130.21 44.864 129.99 44.578C129.77 44.292 129.66 43.9107 129.66 43.434C129.66 42.994 129.77 42.609 129.99 42.279C130.21 41.949 130.518 41.696 130.914 41.52C131.31 41.344 131.768 41.256 132.289 41.256C133.03 41.256 133.635 41.443 134.104 41.817C134.581 42.1837 134.845 42.6897 134.896 43.335H133.51C133.488 43.0563 133.356 42.818 133.114 42.62C132.872 42.422 132.553 42.323 132.157 42.323C131.798 42.323 131.504 42.4147 131.277 42.598C131.05 42.7813 130.936 43.0453 130.936 43.39C130.936 43.6247 131.006 43.819 131.145 43.973C131.292 44.1197 131.475 44.237 131.695 44.325C131.915 44.413 132.216 44.5083 132.597 44.611C133.103 44.7503 133.514 44.8897 133.829 45.029C134.152 45.1683 134.423 45.3847 134.643 45.678C134.87 45.964 134.984 46.349 134.984 46.833C134.984 47.2217 134.878 47.5883 134.665 47.933C134.46 48.2777 134.155 48.5563 133.752 48.769C133.356 48.9743 132.887 49.077 132.344 49.077ZM142.019 45.821C142.019 46.0483 142.004 46.2537 141.975 46.437H137.344C137.38 46.921 137.56 47.3097 137.883 47.603C138.205 47.8963 138.601 48.043 139.071 48.043C139.745 48.043 140.222 47.7607 140.501 47.196H141.854C141.67 47.7533 141.337 48.2117 140.853 48.571C140.376 48.923 139.782 49.099 139.071 49.099C138.491 49.099 137.971 48.9707 137.509 48.714C137.054 48.45 136.695 48.0833 136.431 47.614C136.174 47.1373 136.046 46.5873 136.046 45.964C136.046 45.3407 136.17 44.7943 136.42 44.325C136.676 43.8483 137.032 43.4817 137.487 43.225C137.949 42.9683 138.477 42.84 139.071 42.84C139.643 42.84 140.152 42.9647 140.6 43.214C141.047 43.4633 141.395 43.8153 141.645 44.27C141.894 44.7173 142.019 45.2343 142.019 45.821ZM140.71 45.425C140.702 44.963 140.537 44.5927 140.215 44.314C139.892 44.0353 139.492 43.896 139.016 43.896C138.583 43.896 138.213 44.0353 137.905 44.314C137.597 44.5853 137.413 44.9557 137.355 45.425H140.71ZM144.716 43.962V47.317C144.716 47.5443 144.767 47.7093 144.87 47.812C144.98 47.9073 145.163 47.955 145.42 47.955H146.19V49H145.2C144.635 49 144.202 48.868 143.902 48.604C143.601 48.34 143.451 47.911 143.451 47.317V43.962H142.736V42.939H143.451V41.432H144.716V42.939H146.19V43.962H144.716ZM149.785 45.942C149.785 45.3333 149.91 44.7943 150.159 44.325C150.416 43.8557 150.76 43.4927 151.193 43.236C151.633 42.972 152.117 42.84 152.645 42.84C153.122 42.84 153.536 42.9353 153.888 43.126C154.247 43.3093 154.533 43.5403 154.746 43.819V42.939H156.011V49H154.746V48.098C154.533 48.384 154.244 48.6223 153.877 48.813C153.51 49.0037 153.092 49.099 152.623 49.099C152.102 49.099 151.626 48.967 151.193 48.703C150.76 48.4317 150.416 48.0577 150.159 47.581C149.91 47.097 149.785 46.5507 149.785 45.942ZM154.746 45.964C154.746 45.546 154.658 45.183 154.482 44.875C154.313 44.567 154.09 44.3323 153.811 44.171C153.532 44.0097 153.232 43.929 152.909 43.929C152.586 43.929 152.286 44.0097 152.007 44.171C151.728 44.325 151.501 44.556 151.325 44.864C151.156 45.1647 151.072 45.524 151.072 45.942C151.072 46.36 151.156 46.7267 151.325 47.042C151.501 47.3573 151.728 47.5993 152.007 47.768C152.293 47.9293 152.594 48.01 152.909 48.01C153.232 48.01 153.532 47.9293 153.811 47.768C154.09 47.6067 154.313 47.372 154.482 47.064C154.658 46.7487 154.746 46.382 154.746 45.964ZM159.858 49.099C159.381 49.099 158.952 49.0147 158.571 48.846C158.197 48.67 157.9 48.4353 157.68 48.142C157.46 47.8413 157.343 47.5077 157.328 47.141H158.626C158.648 47.3977 158.769 47.614 158.989 47.79C159.216 47.9587 159.499 48.043 159.836 48.043C160.188 48.043 160.459 47.977 160.65 47.845C160.848 47.7057 160.947 47.5297 160.947 47.317C160.947 47.0897 160.837 46.921 160.617 46.811C160.404 46.701 160.063 46.58 159.594 46.448C159.139 46.3233 158.769 46.2023 158.483 46.085C158.197 45.9677 157.948 45.788 157.735 45.546C157.53 45.304 157.427 44.985 157.427 44.589C157.427 44.2663 157.522 43.973 157.713 43.709C157.904 43.4377 158.175 43.225 158.527 43.071C158.886 42.917 159.297 42.84 159.759 42.84C160.448 42.84 161.002 43.016 161.42 43.368C161.845 43.7127 162.073 44.1857 162.102 44.787H160.848C160.826 44.5157 160.716 44.2993 160.518 44.138C160.32 43.9767 160.052 43.896 159.715 43.896C159.385 43.896 159.132 43.9583 158.956 44.083C158.78 44.2077 158.692 44.3727 158.692 44.578C158.692 44.7393 158.751 44.875 158.868 44.985C158.985 45.095 159.128 45.183 159.297 45.249C159.466 45.3077 159.715 45.3847 160.045 45.48C160.485 45.5973 160.844 45.7183 161.123 45.843C161.409 45.9603 161.655 46.1363 161.86 46.371C162.065 46.6057 162.172 46.9173 162.179 47.306C162.179 47.6507 162.084 47.9587 161.893 48.23C161.702 48.5013 161.431 48.714 161.079 48.868C160.734 49.022 160.327 49.099 159.858 49.099ZM174.531 42.939L172.65 49H171.33L170.109 44.523L168.888 49H167.568L165.676 42.939H166.952L168.217 47.812L169.504 42.939H170.813L172.045 47.79L173.299 42.939H174.531ZM175.051 45.942C175.051 45.3333 175.175 44.7943 175.425 44.325C175.681 43.8557 176.026 43.4927 176.459 43.236C176.899 42.972 177.383 42.84 177.911 42.84C178.387 42.84 178.802 42.9353 179.154 43.126C179.513 43.3093 179.799 43.5403 180.012 43.819V42.939H181.277V49H180.012V48.098C179.799 48.384 179.509 48.6223 179.143 48.813C178.776 49.0037 178.358 49.099 177.889 49.099C177.368 49.099 176.891 48.967 176.459 48.703C176.026 48.4317 175.681 48.0577 175.425 47.581C175.175 47.097 175.051 46.5507 175.051 45.942ZM180.012 45.964C180.012 45.546 179.924 45.183 179.748 44.875C179.579 44.567 179.355 44.3323 179.077 44.171C178.798 44.0097 178.497 43.929 178.175 43.929C177.852 43.929 177.551 44.0097 177.273 44.171C176.994 44.325 176.767 44.556 176.591 44.864C176.422 45.1647 176.338 45.524 176.338 45.942C176.338 46.36 176.422 46.7267 176.591 47.042C176.767 47.3573 176.994 47.5993 177.273 47.768C177.559 47.9293 177.859 48.01 178.175 48.01C178.497 48.01 178.798 47.9293 179.077 47.768C179.355 47.6067 179.579 47.372 179.748 47.064C179.924 46.7487 180.012 46.382 180.012 45.964ZM184.178 40.86V49H182.924V40.86H184.178ZM187.078 40.86V49H185.824V40.86H187.078ZM189.978 43.83C190.191 43.5513 190.481 43.3167 190.847 43.126C191.214 42.9353 191.628 42.84 192.09 42.84C192.618 42.84 193.099 42.972 193.531 43.236C193.971 43.4927 194.316 43.8557 194.565 44.325C194.815 44.7943 194.939 45.3333 194.939 45.942C194.939 46.5507 194.815 47.097 194.565 47.581C194.316 48.0577 193.971 48.4317 193.531 48.703C193.099 48.967 192.618 49.099 192.09 49.099C191.628 49.099 191.218 49.0073 190.858 48.824C190.499 48.6333 190.206 48.3987 189.978 48.12V51.882H188.724V42.939H189.978V43.83ZM193.663 45.942C193.663 45.524 193.575 45.1647 193.399 44.864C193.231 44.556 193.003 44.325 192.717 44.171C192.439 44.0097 192.138 43.929 191.815 43.929C191.5 43.929 191.199 44.0097 190.913 44.171C190.635 44.3323 190.407 44.567 190.231 44.875C190.063 45.183 189.978 45.546 189.978 45.964C189.978 46.382 190.063 46.7487 190.231 47.064C190.407 47.372 190.635 47.6067 190.913 47.768C191.199 47.9293 191.5 48.01 191.815 48.01C192.138 48.01 192.439 47.9293 192.717 47.768C193.003 47.5993 193.231 47.3573 193.399 47.042C193.575 46.7267 193.663 46.36 193.663 45.942ZM195.761 45.942C195.761 45.3333 195.886 44.7943 196.135 44.325C196.392 43.8557 196.737 43.4927 197.169 43.236C197.609 42.972 198.093 42.84 198.621 42.84C199.098 42.84 199.512 42.9353 199.864 43.126C200.224 43.3093 200.51 43.5403 200.722 43.819V42.939H201.987V49H200.722V48.098C200.51 48.384 200.22 48.6223 199.853 48.813C199.487 49.0037 199.069 49.099 198.599 49.099C198.079 49.099 197.602 48.967 197.169 48.703C196.737 48.4317 196.392 48.0577 196.135 47.581C195.886 47.097 195.761 46.5507 195.761 45.942ZM200.722 45.964C200.722 45.546 200.634 45.183 200.458 44.875C200.29 44.567 200.066 44.3323 199.787 44.171C199.509 44.0097 199.208 43.929 198.885 43.929C198.563 43.929 198.262 44.0097 197.983 44.171C197.705 44.325 197.477 44.556 197.301 44.864C197.133 45.1647 197.048 45.524 197.048 45.942C197.048 46.36 197.133 46.7267 197.301 47.042C197.477 47.3573 197.705 47.5993 197.983 47.768C198.269 47.9293 198.57 48.01 198.885 48.01C199.208 48.01 199.509 47.9293 199.787 47.768C200.066 47.6067 200.29 47.372 200.458 47.064C200.634 46.7487 200.722 46.382 200.722 45.964ZM204.889 43.83C205.101 43.5513 205.391 43.3167 205.758 43.126C206.124 42.9353 206.539 42.84 207.001 42.84C207.529 42.84 208.009 42.972 208.442 43.236C208.882 43.4927 209.226 43.8557 209.476 44.325C209.725 44.7943 209.85 45.3333 209.85 45.942C209.85 46.5507 209.725 47.097 209.476 47.581C209.226 48.0577 208.882 48.4317 208.442 48.703C208.009 48.967 207.529 49.099 207.001 49.099C206.539 49.099 206.128 49.0073 205.769 48.824C205.409 48.6333 205.116 48.3987 204.889 48.12V51.882H203.635V42.939H204.889V43.83ZM208.574 45.942C208.574 45.524 208.486 45.1647 208.31 44.864C208.141 44.556 207.914 44.325 207.628 44.171C207.349 44.0097 207.048 43.929 206.726 43.929C206.41 43.929 206.11 44.0097 205.824 44.171C205.545 44.3323 205.318 44.567 205.142 44.875C204.973 45.183 204.889 45.546 204.889 45.964C204.889 46.382 204.973 46.7487 205.142 47.064C205.318 47.372 205.545 47.6067 205.824 47.768C206.11 47.9293 206.41 48.01 206.726 48.01C207.048 48.01 207.349 47.9293 207.628 47.768C207.914 47.5993 208.141 47.3573 208.31 47.042C208.486 46.7267 208.574 46.36 208.574 45.942ZM216.645 45.821C216.645 46.0483 216.63 46.2537 216.601 46.437H211.97C212.006 46.921 212.186 47.3097 212.509 47.603C212.831 47.8963 213.227 48.043 213.697 48.043C214.371 48.043 214.848 47.7607 215.127 47.196H216.48C216.296 47.7533 215.963 48.2117 215.479 48.571C215.002 48.923 214.408 49.099 213.697 49.099C213.117 49.099 212.597 48.9707 212.135 48.714C211.68 48.45 211.321 48.0833 211.057 47.614C210.8 47.1373 210.672 46.5873 210.672 45.964C210.672 45.3407 210.796 44.7943 211.046 44.325C211.302 43.8483 211.658 43.4817 212.113 43.225C212.575 42.9683 213.103 42.84 213.697 42.84C214.269 42.84 214.778 42.9647 215.226 43.214C215.673 43.4633 216.021 43.8153 216.271 44.27C216.52 44.7173 216.645 45.2343 216.645 45.821ZM215.336 45.425C215.328 44.963 215.163 44.5927 214.841 44.314C214.518 44.0353 214.118 43.896 213.642 43.896C213.209 43.896 212.839 44.0353 212.531 44.314C212.223 44.5853 212.039 44.9557 211.981 45.425H215.336ZM219.133 43.819C219.316 43.511 219.558 43.2727 219.859 43.104C220.167 42.928 220.53 42.84 220.948 42.84V44.138H220.629C220.137 44.138 219.763 44.2627 219.507 44.512C219.257 44.7613 219.133 45.194 219.133 45.81V49H217.879V42.939H219.133V43.819Z"></path>
<defs>
<linearGradient gradientUnits="userSpaceOnUse" y2="50.3328" x2="266.999" y1="38.9995" x1="258.333" id="paint0_linear_1034_2">
<stop stop-color="#50E6FF"></stop>
<stop stop-color="#0270C2" offset="1"></stop>
</linearGradient>
<linearGradient gradientUnits="userSpaceOnUse" y2="45.6663" x2="258.333" y1="44.3329" x1="257" id="paint1_linear_1034_2">
<stop stop-color="#E25113"></stop>
<stop stop-color="#C7390A" offset="1"></stop>
</linearGradient>
<linearGradient gradientUnits="userSpaceOnUse" y2="42.3328" x2="260.333" y1="40.9994" x1="259" id="paint2_linear_1034_2">
<stop stop-color="#55B50E"></stop>
<stop stop-color="#1C8610" offset="1"></stop>
</linearGradient>
<linearGradient gradientUnits="userSpaceOnUse" y2="40.9995" x2="263.666" y1="39.6662" x1="262.333" id="paint3_linear_1034_2">
<stop stop-color="#FFD300"></stop>
<stop stop-color="#F39808" offset="1"></stop>
</linearGradient>
<linearGradient gradientUnits="userSpaceOnUse" y2="44.9996" x2="267.666" y1="44.9996" x1="265.666" id="paint4_linear_1034_2">
<stop stop-color="#AA6701"></stop>
<stop stop-color="#814406" offset="1"></stop>
</linearGradient>
<linearGradient gradientUnits="userSpaceOnUse" y2="44.9996" x2="267.666" y1="44.9996" x1="265.666" id="paint5_linear_1034_2">
<stop stop-color="#CAD2D9"></stop>
<stop stop-color="#939BA2" offset="1"></stop>
</linearGradient>
<linearGradient gradientUnits="userSpaceOnUse" y2="44.3329" x2="267.666" y1="41.6663" x1="265" id="paint6_linear_1034_2">
<stop stop-color="#F7DEAA"></stop>
<stop stop-color="#C3935E" offset="1"></stop>
</linearGradient>
<linearGradient gradientUnits="userSpaceOnUse" y2="49" x2="121" y1="38" x1="106" id="paint7_linear_1034_2">
<stop stop-color="#188EDB"></stop>
<stop stop-color="#7D5AB6" offset="1"></stop>
</linearGradient>
<linearGradient gradientUnits="userSpaceOnUse" y2="53" x2="119" y1="48" x1="114" id="paint8_linear_1034_2">
<stop stop-color="#037AD2"></stop>
<stop stop-color="#2C9EE2" offset="1"></stop>
</linearGradient>
<linearGradient gradientUnits="userSpaceOnUse" y2="49" x2="112" y1="45" x1="108" id="paint9_linear_1034_2">
<stop stop-color="#4DDDFB"></stop>
<stop stop-color="#2AB2EB" offset="1"></stop>
</linearGradient>
</defs>
</svg>
