<svg xmlns="http://www.w3.org/2000/svg" fill="none" viewBox="0 0 480 360" height="360" width="480">
<path fill="black" d="M326.796 264L325.036 260.942H324.079V264H322.825V256.355H325.465C326.052 256.355 326.547 256.458 326.95 256.663C327.361 256.868 327.665 257.143 327.863 257.488C328.068 257.833 328.171 258.218 328.171 258.643C328.171 259.142 328.024 259.596 327.731 260.007C327.445 260.41 327.001 260.685 326.4 260.832L328.292 264H326.796ZM324.079 259.941H325.465C325.934 259.941 326.286 259.824 326.521 259.589C326.763 259.354 326.884 259.039 326.884 258.643C326.884 258.247 326.767 257.939 326.532 257.719C326.297 257.492 325.942 257.378 325.465 257.378H324.079V259.941ZM335.33 260.821C335.33 261.048 335.316 261.254 335.286 261.437H330.655C330.692 261.921 330.872 262.31 331.194 262.603C331.517 262.896 331.913 263.043 332.382 263.043C333.057 263.043 333.534 262.761 333.812 262.196H335.165C334.982 262.753 334.648 263.212 334.164 263.571C333.688 263.923 333.094 264.099 332.382 264.099C331.803 264.099 331.282 263.971 330.82 263.714C330.366 263.45 330.006 263.083 329.742 262.614C329.486 262.137 329.357 261.587 329.357 260.964C329.357 260.341 329.482 259.794 329.731 259.325C329.988 258.848 330.344 258.482 330.798 258.225C331.26 257.968 331.788 257.84 332.382 257.84C332.954 257.84 333.464 257.965 333.911 258.214C334.359 258.463 334.707 258.815 334.956 259.27C335.206 259.717 335.33 260.234 335.33 260.821ZM334.021 260.425C334.014 259.963 333.849 259.593 333.526 259.314C333.204 259.035 332.804 258.896 332.327 258.896C331.895 258.896 331.524 259.035 331.216 259.314C330.908 259.585 330.725 259.956 330.666 260.425H334.021ZM343.901 257.84C344.378 257.84 344.803 257.939 345.177 258.137C345.559 258.335 345.856 258.628 346.068 259.017C346.288 259.406 346.398 259.875 346.398 260.425V264H345.155V260.612C345.155 260.069 345.02 259.655 344.748 259.369C344.477 259.076 344.107 258.929 343.637 258.929C343.168 258.929 342.794 259.076 342.515 259.369C342.244 259.655 342.108 260.069 342.108 260.612V264H340.865V260.612C340.865 260.069 340.73 259.655 340.458 259.369C340.187 259.076 339.817 258.929 339.347 258.929C338.878 258.929 338.504 259.076 338.225 259.369C337.954 259.655 337.818 260.069 337.818 260.612V264H336.564V257.939H337.818V258.632C338.024 258.383 338.284 258.188 338.599 258.049C338.915 257.91 339.252 257.84 339.611 257.84C340.095 257.84 340.528 257.943 340.909 258.148C341.291 258.353 341.584 258.65 341.789 259.039C341.973 258.672 342.259 258.383 342.647 258.17C343.036 257.95 343.454 257.84 343.901 257.84ZM350.623 264.099C350.051 264.099 349.534 263.971 349.072 263.714C348.61 263.45 348.247 263.083 347.983 262.614C347.719 262.137 347.587 261.587 347.587 260.964C347.587 260.348 347.723 259.802 347.994 259.325C348.265 258.848 348.636 258.482 349.105 258.225C349.574 257.968 350.099 257.84 350.678 257.84C351.257 257.84 351.782 257.968 352.251 258.225C352.72 258.482 353.091 258.848 353.362 259.325C353.633 259.802 353.769 260.348 353.769 260.964C353.769 261.58 353.63 262.126 353.351 262.603C353.072 263.08 352.691 263.45 352.207 263.714C351.73 263.971 351.202 264.099 350.623 264.099ZM350.623 263.01C350.946 263.01 351.246 262.933 351.525 262.779C351.811 262.625 352.042 262.394 352.218 262.086C352.394 261.778 352.482 261.404 352.482 260.964C352.482 260.524 352.398 260.154 352.229 259.853C352.06 259.545 351.837 259.314 351.558 259.16C351.279 259.006 350.979 258.929 350.656 258.929C350.333 258.929 350.033 259.006 349.754 259.16C349.483 259.314 349.266 259.545 349.105 259.853C348.944 260.154 348.863 260.524 348.863 260.964C348.863 261.617 349.028 262.123 349.358 262.482C349.695 262.834 350.117 263.01 350.623 263.01ZM357.352 262.878L359.068 257.939H360.399L358.089 264H356.593L354.294 257.939H355.636L357.352 262.878ZM366.901 260.821C366.901 261.048 366.887 261.254 366.857 261.437H362.226C362.263 261.921 362.443 262.31 362.765 262.603C363.088 262.896 363.484 263.043 363.953 263.043C364.628 263.043 365.105 262.761 365.383 262.196H366.736C366.553 262.753 366.219 263.212 365.735 263.571C365.259 263.923 364.665 264.099 363.953 264.099C363.374 264.099 362.853 263.971 362.391 263.714C361.937 263.45 361.577 263.083 361.313 262.614C361.057 262.137 360.928 261.587 360.928 260.964C360.928 260.341 361.053 259.794 361.302 259.325C361.559 258.848 361.915 258.482 362.369 258.225C362.831 257.968 363.359 257.84 363.953 257.84C364.525 257.84 365.035 257.965 365.482 258.214C365.93 258.463 366.278 258.815 366.527 259.27C366.777 259.717 366.901 260.234 366.901 260.821ZM365.592 260.425C365.585 259.963 365.42 259.593 365.097 259.314C364.775 259.035 364.375 258.896 363.898 258.896C363.466 258.896 363.095 259.035 362.787 259.314C362.479 259.585 362.296 259.956 362.237 260.425H365.592ZM373.534 258.962H372.412V264H371.147V258.962H370.432V257.939H371.147V257.51C371.147 256.813 371.33 256.307 371.697 255.992C372.071 255.669 372.654 255.508 373.446 255.508V256.553C373.065 256.553 372.797 256.626 372.643 256.773C372.489 256.912 372.412 257.158 372.412 257.51V257.939H373.534V258.962ZM375.899 258.819C376.083 258.511 376.325 258.273 376.625 258.104C376.933 257.928 377.296 257.84 377.714 257.84V259.138H377.395C376.904 259.138 376.53 259.263 376.273 259.512C376.024 259.761 375.899 260.194 375.899 260.81V264H374.645V257.939H375.899V258.819ZM381.496 264.099C380.924 264.099 380.407 263.971 379.945 263.714C379.483 263.45 379.12 263.083 378.856 262.614C378.592 262.137 378.46 261.587 378.46 260.964C378.46 260.348 378.596 259.802 378.867 259.325C379.138 258.848 379.509 258.482 379.978 258.225C380.447 257.968 380.972 257.84 381.551 257.84C382.13 257.84 382.655 257.968 383.124 258.225C383.593 258.482 383.964 258.848 384.235 259.325C384.506 259.802 384.642 260.348 384.642 260.964C384.642 261.58 384.503 262.126 384.224 262.603C383.945 263.08 383.564 263.45 383.08 263.714C382.603 263.971 382.075 264.099 381.496 264.099ZM381.496 263.01C381.819 263.01 382.119 262.933 382.398 262.779C382.684 262.625 382.915 262.394 383.091 262.086C383.267 261.778 383.355 261.404 383.355 260.964C383.355 260.524 383.271 260.154 383.102 259.853C382.933 259.545 382.71 259.314 382.431 259.16C382.152 259.006 381.852 258.929 381.529 258.929C381.206 258.929 380.906 259.006 380.627 259.16C380.356 259.314 380.139 259.545 379.978 259.853C379.817 260.154 379.736 260.524 379.736 260.964C379.736 261.617 379.901 262.123 380.231 262.482C380.568 262.834 380.99 263.01 381.496 263.01ZM393.219 257.84C393.695 257.84 394.121 257.939 394.495 258.137C394.876 258.335 395.173 258.628 395.386 259.017C395.606 259.406 395.716 259.875 395.716 260.425V264H394.473V260.612C394.473 260.069 394.337 259.655 394.066 259.369C393.794 259.076 393.424 258.929 392.955 258.929C392.485 258.929 392.111 259.076 391.833 259.369C391.561 259.655 391.426 260.069 391.426 260.612V264H390.183V260.612C390.183 260.069 390.047 259.655 389.776 259.369C389.504 259.076 389.134 258.929 388.665 258.929C388.195 258.929 387.821 259.076 387.543 259.369C387.271 259.655 387.136 260.069 387.136 260.612V264H385.882V257.939H387.136V258.632C387.341 258.383 387.601 258.188 387.917 258.049C388.232 257.91 388.569 257.84 388.929 257.84C389.413 257.84 389.845 257.943 390.227 258.148C390.608 258.353 390.901 258.65 391.107 259.039C391.29 258.672 391.576 258.383 391.965 258.17C392.353 257.95 392.771 257.84 393.219 257.84ZM401.632 258.962V262.317C401.632 262.544 401.683 262.709 401.786 262.812C401.896 262.907 402.079 262.955 402.336 262.955H403.106V264H402.116C401.551 264 401.118 263.868 400.818 263.604C400.517 263.34 400.367 262.911 400.367 262.317V258.962H399.652V257.939H400.367V256.432H401.632V257.939H403.106V258.962H401.632ZM403.844 260.942C403.844 260.333 403.968 259.794 404.218 259.325C404.474 258.856 404.819 258.493 405.252 258.236C405.692 257.972 406.176 257.84 406.704 257.84C407.18 257.84 407.595 257.935 407.947 258.126C408.306 258.309 408.592 258.54 408.805 258.819V257.939H410.07V264H408.805V263.098C408.592 263.384 408.302 263.622 407.936 263.813C407.569 264.004 407.151 264.099 406.682 264.099C406.161 264.099 405.684 263.967 405.252 263.703C404.819 263.432 404.474 263.058 404.218 262.581C403.968 262.097 403.844 261.551 403.844 260.942ZM408.805 260.964C408.805 260.546 408.717 260.183 408.541 259.875C408.372 259.567 408.148 259.332 407.87 259.171C407.591 259.01 407.29 258.929 406.968 258.929C406.645 258.929 406.344 259.01 406.066 259.171C405.787 259.325 405.56 259.556 405.384 259.864C405.215 260.165 405.131 260.524 405.131 260.942C405.131 261.36 405.215 261.727 405.384 262.042C405.56 262.357 405.787 262.599 406.066 262.768C406.352 262.929 406.652 263.01 406.968 263.01C407.29 263.01 407.591 262.929 407.87 262.768C408.148 262.607 408.372 262.372 408.541 262.064C408.717 261.749 408.805 261.382 408.805 260.964ZM413.917 264.099C413.44 264.099 413.011 264.015 412.63 263.846C412.256 263.67 411.959 263.435 411.739 263.142C411.519 262.841 411.401 262.508 411.387 262.141H412.685C412.707 262.398 412.828 262.614 413.048 262.79C413.275 262.959 413.557 263.043 413.895 263.043C414.247 263.043 414.518 262.977 414.709 262.845C414.907 262.706 415.006 262.53 415.006 262.317C415.006 262.09 414.896 261.921 414.676 261.811C414.463 261.701 414.122 261.58 413.653 261.448C413.198 261.323 412.828 261.202 412.542 261.085C412.256 260.968 412.006 260.788 411.794 260.546C411.588 260.304 411.486 259.985 411.486 259.589C411.486 259.266 411.581 258.973 411.772 258.709C411.962 258.438 412.234 258.225 412.586 258.071C412.945 257.917 413.356 257.84 413.818 257.84C414.507 257.84 415.061 258.016 415.479 258.368C415.904 258.713 416.131 259.186 416.161 259.787H414.907C414.885 259.516 414.775 259.299 414.577 259.138C414.379 258.977 414.111 258.896 413.774 258.896C413.444 258.896 413.191 258.958 413.015 259.083C412.839 259.208 412.751 259.373 412.751 259.578C412.751 259.739 412.809 259.875 412.927 259.985C413.044 260.095 413.187 260.183 413.356 260.249C413.524 260.308 413.774 260.385 414.104 260.48C414.544 260.597 414.903 260.718 415.182 260.843C415.468 260.96 415.713 261.136 415.919 261.371C416.124 261.606 416.23 261.917 416.238 262.306C416.238 262.651 416.142 262.959 415.952 263.23C415.761 263.501 415.49 263.714 415.138 263.868C414.793 264.022 414.386 264.099 413.917 264.099ZM419.991 260.975L422.785 264H421.091L418.847 261.393V264H417.593V255.86H418.847V260.59L421.047 257.939H422.785L419.991 260.975ZM427.795 258.841C428.007 258.548 428.297 258.309 428.664 258.126C429.038 257.935 429.452 257.84 429.907 257.84C430.442 257.84 430.926 257.968 431.359 258.225C431.791 258.482 432.132 258.848 432.382 259.325C432.631 259.794 432.756 260.333 432.756 260.942C432.756 261.551 432.631 262.097 432.382 262.581C432.132 263.058 431.788 263.432 431.348 263.703C430.915 263.967 430.435 264.099 429.907 264.099C429.437 264.099 429.019 264.007 428.653 263.824C428.293 263.641 428.007 263.406 427.795 263.12V264H426.541V255.86H427.795V258.841ZM431.48 260.942C431.48 260.524 431.392 260.165 431.216 259.864C431.047 259.556 430.82 259.325 430.534 259.171C430.255 259.01 429.954 258.929 429.632 258.929C429.316 258.929 429.016 259.01 428.73 259.171C428.451 259.332 428.224 259.567 428.048 259.875C427.879 260.183 427.795 260.546 427.795 260.964C427.795 261.382 427.879 261.749 428.048 262.064C428.224 262.372 428.451 262.607 428.73 262.768C429.016 262.929 429.316 263.01 429.632 263.01C429.954 263.01 430.255 262.929 430.534 262.768C430.82 262.599 431.047 262.357 431.216 262.042C431.392 261.727 431.48 261.36 431.48 260.942ZM433.578 260.942C433.578 260.333 433.703 259.794 433.952 259.325C434.209 258.856 434.553 258.493 434.986 258.236C435.426 257.972 435.91 257.84 436.438 257.84C436.915 257.84 437.329 257.935 437.681 258.126C438.04 258.309 438.326 258.54 438.539 258.819V257.939H439.804V264H438.539V263.098C438.326 263.384 438.037 263.622 437.67 263.813C437.303 264.004 436.885 264.099 436.416 264.099C435.895 264.099 435.419 263.967 434.986 263.703C434.553 263.432 434.209 263.058 433.952 262.581C433.703 262.097 433.578 261.551 433.578 260.942ZM438.539 260.964C438.539 260.546 438.451 260.183 438.275 259.875C438.106 259.567 437.883 259.332 437.604 259.171C437.325 259.01 437.025 258.929 436.702 258.929C436.379 258.929 436.079 259.01 435.8 259.171C435.521 259.325 435.294 259.556 435.118 259.864C434.949 260.165 434.865 260.524 434.865 260.942C434.865 261.36 434.949 261.727 435.118 262.042C435.294 262.357 435.521 262.599 435.8 262.768C436.086 262.929 436.387 263.01 436.702 263.01C437.025 263.01 437.325 262.929 437.604 262.768C437.883 262.607 438.106 262.372 438.275 262.064C438.451 261.749 438.539 261.382 438.539 260.964ZM442.705 258.819C442.888 258.511 443.13 258.273 443.431 258.104C443.739 257.928 444.102 257.84 444.52 257.84V259.138H444.201C443.71 259.138 443.336 259.263 443.079 259.512C442.83 259.761 442.705 260.194 442.705 260.81V264H441.451V257.939H442.705V258.819Z"></path>
<path stroke-linejoin="round" stroke-linecap="round" stroke-width="1.1" stroke="black" d="M292.5 267.5L297 263M297 263L293.5 259.5L296.232 258.68C297.668 258.25 298.834 257.198 299.411 255.814L300.655 252.827C300.82 252.433 301.332 252.332 301.634 252.634L307.366 258.366C307.668 258.668 307.567 259.18 307.173 259.345L304.186 260.589C302.802 261.166 301.75 262.332 301.32 263.768L300.5 266.5L297 263Z"></path>
<path stroke-linejoin="round" stroke-linecap="round" stroke-width="1.1" stroke="black" d="M292.5 252.5L307.5 267.5"></path>
</svg>
