<svg xmlns="http://www.w3.org/2000/svg" fill="none" viewBox="0 0 44 24" height="24" width="44">
<path fill-opacity="0.5" fill="#FF0000" d="M2 12C2 6.47715 6.47715 2 12 2H32C37.5228 2 42 6.47715 42 12V12C42 17.5228 37.5228 22 32 22H12C6.47715 22 2 17.5228 2 12V12Z"></path>
<path stroke-width="2" stroke-opacity="0.2" stroke="#FF0000" d="M32 1H12C5.92487 1 1 5.92487 1 12C1 18.0751 5.92487 23 12 23H32C38.0751 23 43 18.0751 43 12C43 5.92487 38.0751 1 32 1Z"></path>
<path fill="white" d="M16.1869 14.14C16.9549 13.476 17.5589 12.932 17.9989 12.508C18.4469 12.076 18.8189 11.628 19.1149 11.164C19.4109 10.7 19.5589 10.236 19.5589 9.772C19.5589 9.292 19.4429 8.916 19.2109 8.644C18.9869 8.372 18.6309 8.236 18.1429 8.236C17.6709 8.236 17.3029 8.388 17.0389 8.692C16.7829 8.988 16.6469 9.388 16.6309 9.892H15.3109C15.3349 8.98 15.6069 8.284 16.1269 7.804C16.6549 7.316 17.3229 7.072 18.1309 7.072C19.0029 7.072 19.6829 7.312 20.1709 7.792C20.6669 8.272 20.9149 8.912 20.9149 9.712C20.9149 10.288 20.7669 10.844 20.4709 11.38C20.1829 11.908 19.8349 12.384 19.4269 12.808C19.0269 13.224 18.5149 13.708 17.8909 14.26L17.3509 14.74H21.1549V15.88H15.3229V14.884L16.1869 14.14ZM23.8327 11.428C23.0007 11.012 22.5847 10.356 22.5847 9.46C22.5847 9.028 22.6927 8.632 22.9087 8.272C23.1247 7.912 23.4487 7.628 23.8807 7.42C24.3127 7.204 24.8407 7.096 25.4647 7.096C26.0807 7.096 26.6047 7.204 27.0367 7.42C27.4767 7.628 27.8047 7.912 28.0207 8.272C28.2367 8.632 28.3447 9.028 28.3447 9.46C28.3447 9.908 28.2287 10.304 27.9967 10.648C27.7727 10.984 27.4727 11.244 27.0967 11.428C27.5527 11.596 27.9127 11.872 28.1767 12.256C28.4407 12.632 28.5727 13.076 28.5727 13.588C28.5727 14.108 28.4407 14.568 28.1767 14.968C27.9127 15.368 27.5447 15.676 27.0727 15.892C26.6007 16.108 26.0647 16.216 25.4647 16.216C24.8647 16.216 24.3287 16.108 23.8567 15.892C23.3927 15.676 23.0287 15.368 22.7647 14.968C22.5007 14.568 22.3687 14.108 22.3687 13.588C22.3687 13.068 22.5007 12.62 22.7647 12.244C23.0287 11.868 23.3847 11.596 23.8327 11.428ZM27.0367 9.628C27.0367 9.18 26.8967 8.836 26.6167 8.596C26.3367 8.356 25.9527 8.236 25.4647 8.236C24.9847 8.236 24.6047 8.356 24.3247 8.596C24.0447 8.836 23.9047 9.184 23.9047 9.64C23.9047 10.04 24.0487 10.368 24.3367 10.624C24.6327 10.872 25.0087 10.996 25.4647 10.996C25.9207 10.996 26.2967 10.868 26.5927 10.612C26.8887 10.356 27.0367 10.028 27.0367 9.628ZM25.4647 12.028C24.9367 12.028 24.5047 12.16 24.1687 12.424C23.8407 12.68 23.6767 13.052 23.6767 13.54C23.6767 13.996 23.8367 14.368 24.1567 14.656C24.4767 14.936 24.9127 15.076 25.4647 15.076C26.0087 15.076 26.4367 14.932 26.7487 14.644C27.0687 14.356 27.2287 13.988 27.2287 13.54C27.2287 13.06 27.0647 12.688 26.7367 12.424C26.4167 12.16 25.9927 12.028 25.4647 12.028Z"></path>
</svg>
