<svg version="1.1" xmlns="http://www.w3.org/2000/svg" xmlns:xlink="http://www.w3.org/1999/xlink" width="40" height="20" viewBox="0,0,40,20"><g transform="translate(-220,-167)"><g data-paper-data="{&quot;isPaintingLayer&quot;:true}" fill-rule="nonzero" stroke="none" stroke-width="1" stroke-linecap="butt" stroke-linejoin="miter" stroke-miterlimit="10" stroke-dasharray="" stroke-dashoffset="0" style="mix-blend-mode: normal"><path d="M220,187v-20h40v20z" fill="none"></path><path d="M243.924,182.232c-0.784,-0.752 -1.388,-1.708 -1.812,-2.868c-0.416,-1.16 -0.624,-2.404 -0.624,-3.732c0,-1.36 0.224,-2.644 0.672,-3.852c0.456,-1.208 1.124,-2.204 2.004,-2.988h1.416v0.132c-0.92,0.848 -1.612,1.864 -2.076,3.048c-0.464,1.184 -0.696,2.404 -0.696,3.66c0,1.208 0.216,2.376 0.648,3.504c0.432,1.128 1.06,2.116 1.884,2.964v0.132z" fill="#ff0000"></path></g></g></svg>