<svg xmlns="http://www.w3.org/2000/svg" fill="none" viewBox="0 0 480 90" height="90" width="480">
<path fill-opacity="0.9" fill="#1A1A1A" d="M10 30C10 24.4772 14.4772 20 20 20H460C465.523 20 470 24.4772 470 30V60C470 65.5228 465.523 70 460 70H20C14.4772 70 10 65.5228 10 60V30Z"></path>
<path stroke-width="2" stroke-opacity="0.2" stroke="white" d="M460 19H20C13.9249 19 9 23.9249 9 30V60C9 66.0751 13.9249 71 20 71H460C466.075 71 471 66.0751 471 60V30C471 23.9249 466.075 19 460 19Z"></path>
<path fill="white" d="M35.764 41.355V42.378H33.729V49H32.475V42.378H30.429V41.355H35.764ZM42.589 45.821C42.589 46.0483 42.5743 46.2537 42.545 46.437H37.914C37.9507 46.921 38.1303 47.3097 38.453 47.603C38.7757 47.8963 39.1717 48.043 39.641 48.043C40.3157 48.043 40.7923 47.7607 41.071 47.196H42.424C42.2407 47.7533 41.907 48.2117 41.423 48.571C40.9463 48.923 40.3523 49.099 39.641 49.099C39.0617 49.099 38.541 48.9707 38.079 48.714C37.6243 48.45 37.265 48.0833 37.001 47.614C36.7443 47.1373 36.616 46.5873 36.616 45.964C36.616 45.3407 36.7407 44.7943 36.99 44.325C37.2467 43.8483 37.6023 43.4817 38.057 43.225C38.519 42.9683 39.047 42.84 39.641 42.84C40.213 42.84 40.7227 42.9647 41.17 43.214C41.6173 43.4633 41.9657 43.8153 42.215 44.27C42.4643 44.7173 42.589 45.2343 42.589 45.821ZM41.28 45.425C41.2727 44.963 41.1077 44.5927 40.785 44.314C40.4623 44.0353 40.0627 43.896 39.586 43.896C39.1533 43.896 38.783 44.0353 38.475 44.314C38.167 44.5853 37.9837 44.9557 37.925 45.425H41.28ZM46.419 45.931L48.377 49H46.958L45.649 46.943L44.417 49H43.108L45.066 46.019L43.108 42.939H44.527L45.836 44.996L47.068 42.939H48.377L46.419 45.931ZM50.7753 43.962V47.317C50.7753 47.5443 50.8266 47.7093 50.9293 47.812C51.0393 47.9073 51.2226 47.955 51.4793 47.955H52.2493V49H51.2593C50.6946 49 50.262 48.868 49.9613 48.604C49.6606 48.34 49.5103 47.911 49.5103 47.317V43.962H48.7953V42.939H49.5103V41.432H50.7753V42.939H52.2493V43.962H50.7753Z"></path>
<mask fill="white" id="path-4-inside-1_996_2">
<path d="M70 35C70 32.2386 72.2386 30 75 30H385C387.761 30 390 32.2386 390 35V55C390 57.7614 387.761 60 385 60H75C72.2386 60 70 57.7614 70 55V35Z"></path>
</mask>
<path fill-opacity="0.05" fill="white" d="M70 35C70 32.2386 72.2386 30 75 30H385C387.761 30 390 32.2386 390 35V55C390 57.7614 387.761 60 385 60H75C72.2386 60 70 57.7614 70 55V35Z"></path>
<path mask="url(#path-4-inside-1_996_2)" fill-opacity="0.5" fill="white" d="M70 30H390H70ZM390 55C390 58.3137 387.314 61 384 61H76C72.6863 61 70 58.3137 70 55C70 57.2091 72.2386 59 75 59H385C387.761 59 390 57.2091 390 55ZM70 60V30V60ZM390 30V60V30Z"></path>
<mask fill="white" id="path-6-inside-2_996_2">
<path d="M400 35C400 32.2386 402.239 30 405 30H455C457.761 30 460 32.2386 460 35V55C460 57.7614 457.761 60 455 60H405C402.239 60 400 57.7614 400 55V35Z"></path>
</mask>
<path fill-opacity="0.05" fill="white" d="M400 35C400 32.2386 402.239 30 405 30H455C457.761 30 460 32.2386 460 35V55C460 57.7614 457.761 60 455 60H405C402.239 60 400 57.7614 400 55V35Z"></path>
<path mask="url(#path-6-inside-2_996_2)" fill-opacity="0.05" fill="white" d="M400 35C400 31.6863 402.686 29 406 29H454C457.314 29 460 31.6863 460 35C460 32.7909 457.761 31 455 31H405C402.239 31 400 32.7909 400 35ZM460 60H400H460ZM400 60V30V60ZM460 30V60V30Z"></path>
<path fill="white" d="M418.949 41.355C419.763 41.355 420.474 41.5127 421.083 41.828C421.699 42.136 422.172 42.5833 422.502 43.17C422.839 43.7493 423.008 44.4277 423.008 45.205C423.008 45.9823 422.839 46.657 422.502 47.229C422.172 47.801 421.699 48.241 421.083 48.549C420.474 48.8497 419.763 49 418.949 49H416.452V41.355H418.949ZM418.949 47.977C419.844 47.977 420.529 47.735 421.006 47.251C421.483 46.767 421.721 46.085 421.721 45.205C421.721 44.3177 421.483 43.6247 421.006 43.126C420.529 42.6273 419.844 42.378 418.949 42.378H417.706V47.977H418.949ZM426.88 49.099C426.308 49.099 425.791 48.9707 425.329 48.714C424.867 48.45 424.504 48.0833 424.24 47.614C423.976 47.1373 423.844 46.5873 423.844 45.964C423.844 45.348 423.979 44.8017 424.251 44.325C424.522 43.8483 424.892 43.4817 425.362 43.225C425.831 42.9683 426.355 42.84 426.935 42.84C427.514 42.84 428.038 42.9683 428.508 43.225C428.977 43.4817 429.347 43.8483 429.619 44.325C429.89 44.8017 430.026 45.348 430.026 45.964C430.026 46.58 429.886 47.1263 429.608 47.603C429.329 48.0797 428.948 48.45 428.464 48.714C427.987 48.9707 427.459 49.099 426.88 49.099ZM426.88 48.01C427.202 48.01 427.503 47.933 427.782 47.779C428.068 47.625 428.299 47.394 428.475 47.086C428.651 46.778 428.739 46.404 428.739 45.964C428.739 45.524 428.654 45.1537 428.486 44.853C428.317 44.545 428.093 44.314 427.815 44.16C427.536 44.006 427.235 43.929 426.913 43.929C426.59 43.929 426.289 44.006 426.011 44.16C425.739 44.314 425.523 44.545 425.362 44.853C425.2 45.1537 425.12 45.524 425.12 45.964C425.12 46.6167 425.285 47.1227 425.615 47.482C425.952 47.834 426.374 48.01 426.88 48.01ZM434.323 42.84C434.8 42.84 435.225 42.939 435.599 43.137C435.981 43.335 436.278 43.6283 436.49 44.017C436.703 44.4057 436.809 44.875 436.809 45.425V49H435.566V45.612C435.566 45.0693 435.431 44.655 435.159 44.369C434.888 44.0757 434.518 43.929 434.048 43.929C433.579 43.929 433.205 44.0757 432.926 44.369C432.655 44.655 432.519 45.0693 432.519 45.612V49H431.265V42.939H432.519V43.632C432.725 43.3827 432.985 43.1883 433.3 43.049C433.623 42.9097 433.964 42.84 434.323 42.84ZM443.964 45.821C443.964 46.0483 443.949 46.2537 443.92 46.437H439.289C439.326 46.921 439.505 47.3097 439.828 47.603C440.151 47.8963 440.547 48.043 441.016 48.043C441.691 48.043 442.167 47.7607 442.446 47.196H443.799C443.616 47.7533 443.282 48.2117 442.798 48.571C442.321 48.923 441.727 49.099 441.016 49.099C440.437 49.099 439.916 48.9707 439.454 48.714C438.999 48.45 438.64 48.0833 438.376 47.614C438.119 47.1373 437.991 46.5873 437.991 45.964C437.991 45.3407 438.116 44.7943 438.365 44.325C438.622 43.8483 438.977 43.4817 439.432 43.225C439.894 42.9683 440.422 42.84 441.016 42.84C441.588 42.84 442.098 42.9647 442.545 43.214C442.992 43.4633 443.341 43.8153 443.59 44.27C443.839 44.7173 443.964 45.2343 443.964 45.821ZM442.655 45.425C442.648 44.963 442.483 44.5927 442.16 44.314C441.837 44.0353 441.438 43.896 440.961 43.896C440.528 43.896 440.158 44.0353 439.85 44.314C439.542 44.5853 439.359 44.9557 439.3 45.425H442.655Z"></path>
</svg>
