<svg xmlns="http://www.w3.org/2000/svg" fill="none" viewBox="0 0 100 80" height="80" width="100">
<path fill="black" d="M30.8499 64.077C30.3365 64.077 29.8745 63.989 29.4639 63.813C29.0532 63.6297 28.7305 63.373 28.4959 63.043C28.2612 62.713 28.1439 62.328 28.1439 61.888H29.4859C29.5152 62.218 29.6435 62.4893 29.8709 62.702C30.1055 62.9147 30.4319 63.021 30.8499 63.021C31.2825 63.021 31.6199 62.9183 31.8619 62.713C32.1039 62.5003 32.2249 62.229 32.2249 61.899C32.2249 61.6423 32.1479 61.4333 31.9939 61.272C31.8472 61.1107 31.6602 60.986 31.4329 60.898C31.2129 60.81 30.9049 60.7147 30.5089 60.612C30.0102 60.48 29.6032 60.348 29.2879 60.216C28.9799 60.0767 28.7159 59.864 28.4959 59.578C28.2759 59.292 28.1659 58.9107 28.1659 58.434C28.1659 57.994 28.2759 57.609 28.4959 57.279C28.7159 56.949 29.0239 56.696 29.4199 56.52C29.8159 56.344 30.2742 56.256 30.7949 56.256C31.5355 56.256 32.1405 56.443 32.6099 56.817C33.0865 57.1837 33.3505 57.6897 33.4019 58.335H32.0159C31.9939 58.0563 31.8619 57.818 31.6199 57.62C31.3779 57.422 31.0589 57.323 30.6629 57.323C30.3035 57.323 30.0102 57.4147 29.7829 57.598C29.5555 57.7813 29.4419 58.0453 29.4419 58.39C29.4419 58.6247 29.5115 58.819 29.6509 58.973C29.7975 59.1197 29.9809 59.237 30.2009 59.325C30.4209 59.413 30.7215 59.5083 31.1029 59.611C31.6089 59.7503 32.0195 59.8897 32.3349 60.029C32.6575 60.1683 32.9289 60.3847 33.1489 60.678C33.3762 60.964 33.4899 61.349 33.4899 61.833C33.4899 62.2217 33.3835 62.5883 33.1709 62.933C32.9655 63.2777 32.6612 63.5563 32.2579 63.769C31.8619 63.9743 31.3925 64.077 30.8499 64.077ZM40.5245 60.821C40.5245 61.0483 40.5099 61.2537 40.4805 61.437H35.8495C35.8862 61.921 36.0659 62.3097 36.3885 62.603C36.7112 62.8963 37.1072 63.043 37.5765 63.043C38.2512 63.043 38.7279 62.7607 39.0065 62.196H40.3595C40.1762 62.7533 39.8425 63.2117 39.3585 63.571C38.8819 63.923 38.2879 64.099 37.5765 64.099C36.9972 64.099 36.4765 63.9707 36.0145 63.714C35.5599 63.45 35.2005 63.0833 34.9365 62.614C34.6799 62.1373 34.5515 61.5873 34.5515 60.964C34.5515 60.3407 34.6762 59.7943 34.9255 59.325C35.1822 58.8483 35.5379 58.4817 35.9925 58.225C36.4545 57.9683 36.9825 57.84 37.5765 57.84C38.1485 57.84 38.6582 57.9647 39.1055 58.214C39.5529 58.4633 39.9012 58.8153 40.1505 59.27C40.3999 59.7173 40.5245 60.2343 40.5245 60.821ZM39.2155 60.425C39.2082 59.963 39.0432 59.5927 38.7205 59.314C38.3979 59.0353 37.9982 58.896 37.5215 58.896C37.0889 58.896 36.7185 59.0353 36.4105 59.314C36.1025 59.5853 35.9192 59.9557 35.8605 60.425H39.2155ZM43.2216 58.962V62.317C43.2216 62.5443 43.2729 62.7093 43.3756 62.812C43.4856 62.9073 43.6689 62.955 43.9256 62.955H44.6956V64H43.7056C43.1409 64 42.7083 63.868 42.4076 63.604C42.1069 63.34 41.9566 62.911 41.9566 62.317V58.962H41.2416V57.939H41.9566V56.432H43.2216V57.939H44.6956V58.962H43.2216ZM47.3144 58.962V62.317C47.3144 62.5443 47.3657 62.7093 47.4684 62.812C47.5784 62.9073 47.7617 62.955 48.0184 62.955H48.7884V64H47.7984C47.2337 64 46.801 63.868 46.5004 63.604C46.1997 63.34 46.0494 62.911 46.0494 62.317V58.962H45.3344V57.939H46.0494V56.432H47.3144V57.939H48.7884V58.962H47.3144ZM50.5821 57.136C50.3548 57.136 50.1641 57.059 50.0101 56.905C49.8561 56.751 49.7791 56.5603 49.7791 56.333C49.7791 56.1057 49.8561 55.915 50.0101 55.761C50.1641 55.607 50.3548 55.53 50.5821 55.53C50.8021 55.53 50.9891 55.607 51.1431 55.761C51.2971 55.915 51.3741 56.1057 51.3741 56.333C51.3741 56.5603 51.2971 56.751 51.1431 56.905C50.9891 57.059 50.8021 57.136 50.5821 57.136ZM51.1981 57.939V64H49.9441V57.939H51.1981ZM55.9025 57.84C56.3792 57.84 56.8045 57.939 57.1785 58.137C57.5599 58.335 57.8569 58.6283 58.0695 59.017C58.2822 59.4057 58.3885 59.875 58.3885 60.425V64H57.1455V60.612C57.1455 60.0693 57.0099 59.655 56.7385 59.369C56.4672 59.0757 56.0969 58.929 55.6275 58.929C55.1582 58.929 54.7842 59.0757 54.5055 59.369C54.2342 59.655 54.0985 60.0693 54.0985 60.612V64H52.8445V57.939H54.0985V58.632C54.3039 58.3827 54.5642 58.1883 54.8795 58.049C55.2022 57.9097 55.5432 57.84 55.9025 57.84ZM62.4301 57.84C62.8994 57.84 63.3138 57.9353 63.6731 58.126C64.0398 58.3093 64.3258 58.5403 64.5311 58.819V57.939H65.7961V64.099C65.7961 64.6563 65.6788 65.1513 65.4441 65.584C65.2094 66.024 64.8684 66.3687 64.4211 66.618C63.9811 66.8673 63.4531 66.992 62.8371 66.992C62.0158 66.992 61.3338 66.7977 60.7911 66.409C60.2484 66.0277 59.9404 65.507 59.8671 64.847H61.1101C61.2054 65.1623 61.4071 65.4153 61.7151 65.606C62.0304 65.804 62.4044 65.903 62.8371 65.903C63.3431 65.903 63.7501 65.749 64.0581 65.441C64.3734 65.133 64.5311 64.6857 64.5311 64.099V63.087C64.3184 63.373 64.0288 63.615 63.6621 63.813C63.3028 64.0037 62.8921 64.099 62.4301 64.099C61.9021 64.099 61.4181 63.967 60.9781 63.703C60.5454 63.4317 60.2008 63.0577 59.9441 62.581C59.6948 62.097 59.5701 61.5507 59.5701 60.942C59.5701 60.3333 59.6948 59.7943 59.9441 59.325C60.2008 58.8557 60.5454 58.4927 60.9781 58.236C61.4181 57.972 61.9021 57.84 62.4301 57.84ZM64.5311 60.964C64.5311 60.546 64.4431 60.183 64.2671 59.875C64.0984 59.567 63.8748 59.3323 63.5961 59.171C63.3174 59.0097 63.0168 58.929 62.6941 58.929C62.3714 58.929 62.0708 59.0097 61.7921 59.171C61.5134 59.325 61.2861 59.556 61.1101 59.864C60.9414 60.1647 60.8571 60.524 60.8571 60.942C60.8571 61.36 60.9414 61.7267 61.1101 62.042C61.2861 62.3573 61.5134 62.5993 61.7921 62.768C62.0781 62.9293 62.3788 63.01 62.6941 63.01C63.0168 63.01 63.3174 62.9293 63.5961 62.768C63.8748 62.6067 64.0984 62.372 64.2671 62.064C64.4431 61.7487 64.5311 61.382 64.5311 60.964ZM69.6432 64.099C69.1665 64.099 68.7375 64.0147 68.3562 63.846C67.9822 63.67 67.6852 63.4353 67.4652 63.142C67.2452 62.8413 67.1278 62.5077 67.1132 62.141H68.4112C68.4332 62.3977 68.5542 62.614 68.7742 62.79C69.0015 62.9587 69.2838 63.043 69.6212 63.043C69.9732 63.043 70.2445 62.977 70.4352 62.845C70.6332 62.7057 70.7322 62.5297 70.7322 62.317C70.7322 62.0897 70.6222 61.921 70.4022 61.811C70.1895 61.701 69.8485 61.58 69.3792 61.448C68.9245 61.3233 68.5542 61.2023 68.2682 61.085C67.9822 60.9677 67.7328 60.788 67.5202 60.546C67.3148 60.304 67.2122 59.985 67.2122 59.589C67.2122 59.2663 67.3075 58.973 67.4982 58.709C67.6888 58.4377 67.9602 58.225 68.3122 58.071C68.6715 57.917 69.0822 57.84 69.5442 57.84C70.2335 57.84 70.7872 58.016 71.2052 58.368C71.6305 58.7127 71.8578 59.1857 71.8872 59.787H70.6332C70.6112 59.5157 70.5012 59.2993 70.3032 59.138C70.1052 58.9767 69.8375 58.896 69.5002 58.896C69.1702 58.896 68.9172 58.9583 68.7412 59.083C68.5652 59.2077 68.4772 59.3727 68.4772 59.578C68.4772 59.7393 68.5358 59.875 68.6532 59.985C68.7705 60.095 68.9135 60.183 69.0822 60.249C69.2508 60.3077 69.5002 60.3847 69.8302 60.48C70.2702 60.5973 70.6295 60.7183 70.9082 60.843C71.1942 60.9603 71.4398 61.1363 71.6452 61.371C71.8505 61.6057 71.9568 61.9173 71.9642 62.306C71.9642 62.6507 71.8688 62.9587 71.6782 63.23C71.4875 63.5013 71.2162 63.714 70.8642 63.868C70.5195 64.022 70.1125 64.099 69.6432 64.099Z"></path>
<path stroke-width="0.2" stroke="url(#paint1_linear_311_258)" fill="url(#paint0_linear_311_258)" d="M47 18.5L44 19.5L50 30L56 19.5L53 18.5V18.5C52.0742 21.4315 47.9258 21.4315 47 18.5V18.5Z"></path>
<path stroke-width="0.2" stroke="url(#paint3_linear_311_258)" fill="url(#paint2_linear_311_258)" d="M53 41.5L56 40.5L50 30L44 40.5L47 41.5V41.5C47.9258 38.5684 52.0742 38.5684 53 41.5V41.5Z"></path>
<path stroke-width="0.2" stroke="url(#paint5_linear_311_258)" fill="url(#paint4_linear_311_258)" d="M58.4595 21.6518L56.0934 19.5537L50.0002 29.9999L62.0934 29.946L61.4595 26.8479V26.8479C58.4578 27.512 56.3836 23.9193 58.4595 21.6518V21.6518Z"></path>
<path stroke-width="0.2" stroke="url(#paint7_linear_311_258)" fill="url(#paint6_linear_311_258)" d="M41.541 38.348L43.907 40.446L50.0003 29.9999L37.907 30.0537L38.541 33.1518V33.1518C41.5427 32.4878 43.6169 36.0805 41.541 38.348V38.348Z"></path>
<path stroke-width="0.2" stroke="url(#paint9_linear_311_258)" fill="url(#paint8_linear_311_258)" d="M38.5405 26.8482L37.9066 29.9463L49.9998 30.0001L43.9066 19.554L41.5405 21.6521V21.6521C43.6164 23.9196 41.5422 27.5123 38.5405 26.8482V26.8482Z"></path>
<path stroke-width="0.2" stroke="url(#paint11_linear_311_258)" fill="url(#paint10_linear_311_258)" d="M61.459 33.152L62.093 30.054L49.9997 30.0001L56.093 40.4463L58.459 38.3482V38.3482C56.3831 36.0807 58.4573 32.488 61.459 33.152V33.152Z"></path>
<rect stroke-width="2" stroke="url(#paint13_linear_311_258)" fill="url(#paint12_linear_311_258)" rx="5" height="10" width="10" y="25" x="45"></rect>
<defs>
<linearGradient gradientUnits="userSpaceOnUse" y2="42" x2="62" y1="18" x1="38" id="paint0_linear_311_258">
<stop stop-color="#8A9199"></stop>
<stop stop-color="#66737D" offset="1"></stop>
</linearGradient>
<linearGradient gradientUnits="userSpaceOnUse" y2="42" x2="62" y1="18" x1="38" id="paint1_linear_311_258">
<stop stop-color="#8A9199"></stop>
<stop stop-color="#66737D" offset="1"></stop>
</linearGradient>
<linearGradient gradientUnits="userSpaceOnUse" y2="42" x2="62" y1="18" x1="38" id="paint2_linear_311_258">
<stop stop-color="#8A9199"></stop>
<stop stop-color="#66737D" offset="1"></stop>
</linearGradient>
<linearGradient gradientUnits="userSpaceOnUse" y2="42" x2="62" y1="18" x1="38" id="paint3_linear_311_258">
<stop stop-color="#8A9199"></stop>
<stop stop-color="#66737D" offset="1"></stop>
</linearGradient>
<linearGradient gradientUnits="userSpaceOnUse" y2="41.9999" x2="62.0002" y1="17.9999" x1="38.0002" id="paint4_linear_311_258">
<stop stop-color="#8A9199"></stop>
<stop stop-color="#66737D" offset="1"></stop>
</linearGradient>
<linearGradient gradientUnits="userSpaceOnUse" y2="41.9999" x2="62.0002" y1="17.9999" x1="38.0002" id="paint5_linear_311_258">
<stop stop-color="#8A9199"></stop>
<stop stop-color="#66737D" offset="1"></stop>
</linearGradient>
<linearGradient gradientUnits="userSpaceOnUse" y2="41.9999" x2="62.0003" y1="17.9999" x1="38.0003" id="paint6_linear_311_258">
<stop stop-color="#8A9199"></stop>
<stop stop-color="#66737D" offset="1"></stop>
</linearGradient>
<linearGradient gradientUnits="userSpaceOnUse" y2="41.9999" x2="62.0003" y1="17.9999" x1="38.0003" id="paint7_linear_311_258">
<stop stop-color="#8A9199"></stop>
<stop stop-color="#66737D" offset="1"></stop>
</linearGradient>
<linearGradient gradientUnits="userSpaceOnUse" y2="42.0001" x2="61.9998" y1="18.0001" x1="37.9998" id="paint8_linear_311_258">
<stop stop-color="#8A9199"></stop>
<stop stop-color="#66737D" offset="1"></stop>
</linearGradient>
<linearGradient gradientUnits="userSpaceOnUse" y2="42.0001" x2="61.9998" y1="18.0001" x1="37.9998" id="paint9_linear_311_258">
<stop stop-color="#8A9199"></stop>
<stop stop-color="#66737D" offset="1"></stop>
</linearGradient>
<linearGradient gradientUnits="userSpaceOnUse" y2="42.0001" x2="61.9997" y1="18.0001" x1="37.9997" id="paint10_linear_311_258">
<stop stop-color="#8A9199"></stop>
<stop stop-color="#66737D" offset="1"></stop>
</linearGradient>
<linearGradient gradientUnits="userSpaceOnUse" y2="42.0001" x2="61.9997" y1="18.0001" x1="37.9997" id="paint11_linear_311_258">
<stop stop-color="#8A9199"></stop>
<stop stop-color="#66737D" offset="1"></stop>
</linearGradient>
<linearGradient gradientUnits="userSpaceOnUse" y2="33" x2="53" y1="27" x1="47" id="paint12_linear_311_258">
<stop stop-color="#0669BC"></stop>
<stop stop-color="#0F4F93" offset="1"></stop>
</linearGradient>
<linearGradient gradientUnits="userSpaceOnUse" y2="34.5" x2="54" y1="26" x1="45.5" id="paint13_linear_311_258">
<stop stop-color="#BEC4C9"></stop>
<stop stop-color="#F7F7F8" offset="1"></stop>
</linearGradient>
</defs>
</svg>
