<svg xmlns="http://www.w3.org/2000/svg" fill="none" viewBox="0 0 44 24" height="24" width="44">
<path fill-opacity="0.5" fill="#FF0000" d="M2 12C2 6.47715 6.47715 2 12 2H32C37.5228 2 42 6.47715 42 12V12C42 17.5228 37.5228 22 32 22H12C6.47715 22 2 17.5228 2 12V12Z"></path>
<path stroke-width="2" stroke-opacity="0.2" stroke="#FF0000" d="M32 1H12C5.92487 1 1 5.92487 1 12C1 18.0751 5.92487 23 12 23H32C38.0751 23 43 18.0751 43 12C43 5.92487 38.0751 1 32 1Z"></path>
<path fill="white" d="M15.2898 9.412C15.3378 8.668 15.6218 8.088 16.1418 7.672C16.6698 7.256 17.3418 7.048 18.1578 7.048C18.7178 7.048 19.2018 7.148 19.6098 7.348C20.0178 7.548 20.3258 7.82 20.5338 8.164C20.7418 8.508 20.8458 8.896 20.8458 9.328C20.8458 9.824 20.7138 10.248 20.4498 10.6C20.1858 10.952 19.8698 11.188 19.5018 11.308V11.356C19.9738 11.5 20.3418 11.764 20.6058 12.148C20.8698 12.524 21.0018 13.008 21.0018 13.6C21.0018 14.072 20.8938 14.492 20.6778 14.86C20.4618 15.228 20.1418 15.52 19.7178 15.736C19.2938 15.944 18.7858 16.048 18.1938 16.048C17.3298 16.048 16.6178 15.828 16.0578 15.388C15.5058 14.94 15.2098 14.3 15.1698 13.468H16.4898C16.5218 13.892 16.6858 14.24 16.9818 14.512C17.2778 14.776 17.6778 14.908 18.1818 14.908C18.6698 14.908 19.0458 14.776 19.3098 14.512C19.5738 14.24 19.7058 13.892 19.7058 13.468C19.7058 12.908 19.5258 12.512 19.1658 12.28C18.8138 12.04 18.2698 11.92 17.5338 11.92H17.2218V10.792H17.5458C18.1938 10.784 18.6858 10.676 19.0218 10.468C19.3658 10.26 19.5378 9.932 19.5378 9.484C19.5378 9.1 19.4138 8.796 19.1658 8.572C18.9178 8.34 18.5658 8.224 18.1098 8.224C17.6618 8.224 17.3138 8.34 17.0658 8.572C16.8178 8.796 16.6698 9.076 16.6218 9.412H15.2898ZM22.4388 11.512C22.4388 10.128 22.6708 9.048 23.1348 8.272C23.6068 7.488 24.4148 7.096 25.5588 7.096C26.7028 7.096 27.5068 7.488 27.9708 8.272C28.4428 9.048 28.6788 10.128 28.6788 11.512C28.6788 12.912 28.4428 14.008 27.9708 14.8C27.5068 15.584 26.7028 15.976 25.5588 15.976C24.4148 15.976 23.6068 15.584 23.1348 14.8C22.6708 14.008 22.4388 12.912 22.4388 11.512ZM27.3348 11.512C27.3348 10.864 27.2908 10.316 27.2028 9.868C27.1228 9.42 26.9548 9.056 26.6988 8.776C26.4428 8.488 26.0628 8.344 25.5588 8.344C25.0548 8.344 24.6748 8.488 24.4188 8.776C24.1628 9.056 23.9908 9.42 23.9028 9.868C23.8228 10.316 23.7828 10.864 23.7828 11.512C23.7828 12.184 23.8228 12.748 23.9028 13.204C23.9828 13.66 24.1508 14.028 24.4068 14.308C24.6708 14.588 25.0548 14.728 25.5588 14.728C26.0628 14.728 26.4428 14.588 26.6988 14.308C26.9628 14.028 27.1348 13.66 27.2148 13.204C27.2948 12.748 27.3348 12.184 27.3348 11.512Z"></path>
</svg>
