<svg xmlns="http://www.w3.org/2000/svg" fill="none" viewBox="0 0 44 24" height="24" width="44">
<path fill-opacity="0.5" fill="#FF0000" d="M2 12C2 6.47715 6.47715 2 12 2H32C37.5228 2 42 6.47715 42 12V12C42 17.5228 37.5228 22 32 22H12C6.47715 22 2 17.5228 2 12V12Z"></path>
<path stroke-width="2" stroke-opacity="0.2" stroke="#FF0000" d="M32 1H12C5.92487 1 1 5.92487 1 12C1 18.0751 5.92487 23 12 23H32C38.0751 23 43 18.0751 43 12C43 5.92487 38.0751 1 32 1Z"></path>
<path fill="white" d="M16.4506 14.14C17.2186 13.476 17.8226 12.932 18.2626 12.508C18.7106 12.076 19.0826 11.628 19.3786 11.164C19.6746 10.7 19.8226 10.236 19.8226 9.772C19.8226 9.292 19.7066 8.916 19.4746 8.644C19.2506 8.372 18.8946 8.236 18.4066 8.236C17.9346 8.236 17.5666 8.388 17.3026 8.692C17.0466 8.988 16.9106 9.388 16.8946 9.892H15.5746C15.5986 8.98 15.8706 8.284 16.3906 7.804C16.9186 7.316 17.5866 7.072 18.3946 7.072C19.2666 7.072 19.9466 7.312 20.4346 7.792C20.9306 8.272 21.1786 8.912 21.1786 9.712C21.1786 10.288 21.0306 10.844 20.7346 11.38C20.4466 11.908 20.0986 12.384 19.6906 12.808C19.2906 13.224 18.7786 13.708 18.1546 14.26L17.6146 14.74H21.4186V15.88H15.5866V14.884L16.4506 14.14ZM22.5964 9.412C22.6444 8.668 22.9284 8.088 23.4484 7.672C23.9764 7.256 24.6484 7.048 25.4644 7.048C26.0244 7.048 26.5084 7.148 26.9164 7.348C27.3244 7.548 27.6324 7.82 27.8404 8.164C28.0484 8.508 28.1524 8.896 28.1524 9.328C28.1524 9.824 28.0204 10.248 27.7564 10.6C27.4924 10.952 27.1764 11.188 26.8084 11.308V11.356C27.2804 11.5 27.6484 11.764 27.9124 12.148C28.1764 12.524 28.3084 13.008 28.3084 13.6C28.3084 14.072 28.2004 14.492 27.9844 14.86C27.7684 15.228 27.4484 15.52 27.0244 15.736C26.6004 15.944 26.0924 16.048 25.5004 16.048C24.6364 16.048 23.9244 15.828 23.3644 15.388C22.8124 14.94 22.5164 14.3 22.4764 13.468H23.7964C23.8284 13.892 23.9924 14.24 24.2884 14.512C24.5844 14.776 24.9844 14.908 25.4884 14.908C25.9764 14.908 26.3524 14.776 26.6164 14.512C26.8804 14.24 27.0124 13.892 27.0124 13.468C27.0124 12.908 26.8324 12.512 26.4724 12.28C26.1204 12.04 25.5764 11.92 24.8404 11.92H24.5284V10.792H24.8524C25.5004 10.784 25.9924 10.676 26.3284 10.468C26.6724 10.26 26.8444 9.932 26.8444 9.484C26.8444 9.1 26.7204 8.796 26.4724 8.572C26.2244 8.34 25.8724 8.224 25.4164 8.224C24.9684 8.224 24.6204 8.34 24.3724 8.572C24.1244 8.796 23.9764 9.076 23.9284 9.412H22.5964Z"></path>
</svg>
