<svg xmlns="http://www.w3.org/2000/svg" fill="none" viewBox="0 0 480 360" height="360" width="480">
<path fill="#4DC2FF" d="M340 179C340 176.239 342.239 174 345 174H455C457.761 174 460 176.239 460 179V201C460 203.761 457.761 206 455 206H345C342.239 206 340 203.761 340 201V179Z"></path>
<path fill="black" d="M375.392 186.355C376.206 186.355 376.918 186.513 377.526 186.828C378.142 187.136 378.615 187.583 378.945 188.17C379.283 188.749 379.451 189.428 379.451 190.205C379.451 190.982 379.283 191.657 378.945 192.229C378.615 192.801 378.142 193.241 377.526 193.549C376.918 193.85 376.206 194 375.392 194H372.895V186.355H375.392ZM375.392 192.977C376.287 192.977 376.973 192.735 377.449 192.251C377.926 191.767 378.164 191.085 378.164 190.205C378.164 189.318 377.926 188.625 377.449 188.126C376.973 187.627 376.287 187.378 375.392 187.378H374.149V192.977H375.392ZM383.323 194.099C382.751 194.099 382.234 193.971 381.772 193.714C381.31 193.45 380.947 193.083 380.683 192.614C380.419 192.137 380.287 191.587 380.287 190.964C380.287 190.348 380.423 189.802 380.694 189.325C380.965 188.848 381.336 188.482 381.805 188.225C382.274 187.968 382.799 187.84 383.378 187.84C383.957 187.84 384.482 187.968 384.951 188.225C385.42 188.482 385.791 188.848 386.062 189.325C386.333 189.802 386.469 190.348 386.469 190.964C386.469 191.58 386.33 192.126 386.051 192.603C385.772 193.08 385.391 193.45 384.907 193.714C384.43 193.971 383.902 194.099 383.323 194.099ZM383.323 193.01C383.646 193.01 383.946 192.933 384.225 192.779C384.511 192.625 384.742 192.394 384.918 192.086C385.094 191.778 385.182 191.404 385.182 190.964C385.182 190.524 385.098 190.154 384.929 189.853C384.76 189.545 384.537 189.314 384.258 189.16C383.979 189.006 383.679 188.929 383.356 188.929C383.033 188.929 382.733 189.006 382.454 189.16C382.183 189.314 381.966 189.545 381.805 189.853C381.644 190.154 381.563 190.524 381.563 190.964C381.563 191.617 381.728 192.123 382.058 192.482C382.395 192.834 382.817 193.01 383.323 193.01ZM395.849 187.939L393.968 194H392.648L391.427 189.523L390.206 194H388.886L386.994 187.939H388.27L389.535 192.812L390.822 187.939H392.131L393.363 192.79L394.617 187.939H395.849ZM399.844 187.84C400.321 187.84 400.746 187.939 401.12 188.137C401.501 188.335 401.798 188.628 402.011 189.017C402.224 189.406 402.33 189.875 402.33 190.425V194H401.087V190.612C401.087 190.069 400.951 189.655 400.68 189.369C400.409 189.076 400.038 188.929 399.569 188.929C399.1 188.929 398.726 189.076 398.447 189.369C398.176 189.655 398.04 190.069 398.04 190.612V194H396.786V187.939H398.04V188.632C398.245 188.383 398.506 188.188 398.821 188.049C399.144 187.91 399.485 187.84 399.844 187.84ZM405.183 185.86V194H403.929V185.86H405.183ZM409.459 194.099C408.887 194.099 408.37 193.971 407.908 193.714C407.446 193.45 407.083 193.083 406.819 192.614C406.555 192.137 406.423 191.587 406.423 190.964C406.423 190.348 406.559 189.802 406.83 189.325C407.101 188.848 407.472 188.482 407.941 188.225C408.41 187.968 408.935 187.84 409.514 187.84C410.093 187.84 410.618 187.968 411.087 188.225C411.556 188.482 411.927 188.848 412.198 189.325C412.469 189.802 412.605 190.348 412.605 190.964C412.605 191.58 412.466 192.126 412.187 192.603C411.908 193.08 411.527 193.45 411.043 193.714C410.566 193.971 410.038 194.099 409.459 194.099ZM409.459 193.01C409.782 193.01 410.082 192.933 410.361 192.779C410.647 192.625 410.878 192.394 411.054 192.086C411.23 191.778 411.318 191.404 411.318 190.964C411.318 190.524 411.234 190.154 411.065 189.853C410.896 189.545 410.673 189.314 410.394 189.16C410.115 189.006 409.815 188.929 409.492 188.929C409.169 188.929 408.869 189.006 408.59 189.16C408.319 189.314 408.102 189.545 407.941 189.853C407.78 190.154 407.699 190.524 407.699 190.964C407.699 191.617 407.864 192.123 408.194 192.482C408.531 192.834 408.953 193.01 409.459 193.01ZM413.427 190.942C413.427 190.333 413.551 189.794 413.801 189.325C414.057 188.856 414.402 188.493 414.835 188.236C415.275 187.972 415.759 187.84 416.287 187.84C416.763 187.84 417.178 187.935 417.53 188.126C417.889 188.309 418.175 188.54 418.388 188.819V187.939H419.653V194H418.388V193.098C418.175 193.384 417.885 193.622 417.519 193.813C417.152 194.004 416.734 194.099 416.265 194.099C415.744 194.099 415.267 193.967 414.835 193.703C414.402 193.432 414.057 193.058 413.801 192.581C413.551 192.097 413.427 191.551 413.427 190.942ZM418.388 190.964C418.388 190.546 418.3 190.183 418.124 189.875C417.955 189.567 417.731 189.332 417.453 189.171C417.174 189.01 416.873 188.929 416.551 188.929C416.228 188.929 415.927 189.01 415.649 189.171C415.37 189.325 415.143 189.556 414.967 189.864C414.798 190.165 414.714 190.524 414.714 190.942C414.714 191.36 414.798 191.727 414.967 192.042C415.143 192.357 415.37 192.599 415.649 192.768C415.935 192.929 416.235 193.01 416.551 193.01C416.873 193.01 417.174 192.929 417.453 192.768C417.731 192.607 417.955 192.372 418.124 192.064C418.3 191.749 418.388 191.382 418.388 190.964ZM420.882 190.942C420.882 190.333 421.006 189.794 421.256 189.325C421.512 188.856 421.857 188.493 422.29 188.236C422.73 187.972 423.217 187.84 423.753 187.84C424.149 187.84 424.537 187.928 424.919 188.104C425.307 188.273 425.615 188.5 425.843 188.786V185.86H427.108V194H425.843V193.087C425.637 193.38 425.351 193.622 424.985 193.813C424.625 194.004 424.211 194.099 423.742 194.099C423.214 194.099 422.73 193.967 422.29 193.703C421.857 193.432 421.512 193.058 421.256 192.581C421.006 192.097 420.882 191.551 420.882 190.942ZM425.843 190.964C425.843 190.546 425.755 190.183 425.579 189.875C425.41 189.567 425.186 189.332 424.908 189.171C424.629 189.01 424.328 188.929 424.006 188.929C423.683 188.929 423.382 189.01 423.104 189.171C422.825 189.325 422.598 189.556 422.422 189.864C422.253 190.165 422.169 190.524 422.169 190.942C422.169 191.36 422.253 191.727 422.422 192.042C422.598 192.357 422.825 192.599 423.104 192.768C423.39 192.929 423.69 193.01 424.006 193.01C424.328 193.01 424.629 192.929 424.908 192.768C425.186 192.607 425.41 192.372 425.579 192.064C425.755 191.749 425.843 191.382 425.843 190.964Z"></path>
</svg>
