<svg xmlns="http://www.w3.org/2000/svg" fill="none" viewBox="0 0 44 24" height="24" width="44">
<path fill-opacity="0.5" fill="#FF0000" d="M2 12C2 6.47715 6.47715 2 12 2H32C37.5228 2 42 6.47715 42 12V12C42 17.5228 37.5228 22 32 22H12C6.47715 22 2 17.5228 2 12V12Z"></path>
<path stroke-width="2" stroke-opacity="0.2" stroke="#FF0000" d="M32 1H12C5.92487 1 1 5.92487 1 12C1 18.0751 5.92487 23 12 23H32C38.0751 23 43 18.0751 43 12C43 5.92487 38.0751 1 32 1Z"></path>
<path fill="white" d="M16.5986 8.5V7.252H19.0946V16H17.7146V8.5H16.5986ZM20.9739 11.512C20.9739 10.128 21.2059 9.048 21.6699 8.272C22.1419 7.488 22.9499 7.096 24.0939 7.096C25.2379 7.096 26.0419 7.488 26.5059 8.272C26.9779 9.048 27.2139 10.128 27.2139 11.512C27.2139 12.912 26.9779 14.008 26.5059 14.8C26.0419 15.584 25.2379 15.976 24.0939 15.976C22.9499 15.976 22.1419 15.584 21.6699 14.8C21.2059 14.008 20.9739 12.912 20.9739 11.512ZM25.8699 11.512C25.8699 10.864 25.8259 10.316 25.7379 9.868C25.6579 9.42 25.4899 9.056 25.2339 8.776C24.9779 8.488 24.5979 8.344 24.0939 8.344C23.5899 8.344 23.2099 8.488 22.9539 8.776C22.6979 9.056 22.5259 9.42 22.4379 9.868C22.3579 10.316 22.3179 10.864 22.3179 11.512C22.3179 12.184 22.3579 12.748 22.4379 13.204C22.5179 13.66 22.6859 14.028 22.9419 14.308C23.2059 14.588 23.5899 14.728 24.0939 14.728C24.5979 14.728 24.9779 14.588 25.2339 14.308C25.4979 14.028 25.6699 13.66 25.7499 13.204C25.8299 12.748 25.8699 12.184 25.8699 11.512Z"></path>
</svg>
