<svg xmlns="http://www.w3.org/2000/svg" fill="none" viewBox="0 0 80 60" height="60" width="80">
<rect fill="#D9D9D9" rx="5" height="60" width="80"></rect>
<rect stroke-width="2.8125" stroke="url(#paint1_linear_1011_366)" fill="url(#paint0_linear_1011_366)" rx="13.5938" height="27.1875" width="27.1875" y="16.4062" x="26.4062"></rect>
<path fill="white" d="M36.25 35.659V24.341C36.25 23.5748 37.1193 23.1322 37.7389 23.5828L45.52 29.2418C46.0348 29.6162 46.0348 30.3838 45.52 30.7582L37.7389 36.4172C37.1193 36.8678 36.25 36.4252 36.25 35.659Z"></path>
<path stroke-linejoin="round" stroke-width="1.875" stroke-opacity="0.2" stroke="black" d="M35.3125 24.341V35.659C35.3125 37.1914 37.051 38.0767 38.2903 37.1753L46.0714 31.5164C47.101 30.7676 47.101 29.2324 46.0714 28.4836L38.2903 22.8247C37.051 21.9233 35.3125 22.8086 35.3125 24.341Z"></path>
<defs>
<linearGradient gradientUnits="userSpaceOnUse" y2="39.375" x2="49.375" y1="20.625" x1="30.625" id="paint0_linear_1011_366">
<stop stop-color="#4C4C4C"></stop>
<stop stop-color="#242424" offset="1"></stop>
</linearGradient>
<linearGradient gradientUnits="userSpaceOnUse" y2="40.3125" x2="50.3125" y1="19.6875" x1="29.6875" id="paint1_linear_1011_366">
<stop stop-color="#FC914C"></stop>
<stop stop-color="#8D63BE" offset="1"></stop>
</linearGradient>
</defs>
</svg>
