<svg xmlns="http://www.w3.org/2000/svg" fill="none" viewBox="0 0 480 360" height="360" width="480">
<path fill="black" d="M203.872 56.432C203.872 57.328 203.656 58.168 203.224 58.952C202.808 59.736 202.144 60.368 201.232 60.848C200.336 61.328 199.2 61.568 197.824 61.568H195.016V68H191.656V51.248H197.824C199.12 51.248 200.224 51.472 201.136 51.92C202.048 52.368 202.728 52.984 203.176 53.768C203.64 54.552 203.872 55.44 203.872 56.432ZM197.68 58.856C198.608 58.856 199.296 58.648 199.744 58.232C200.192 57.8 200.416 57.2 200.416 56.432C200.416 54.8 199.504 53.984 197.68 53.984H195.016V58.856H197.68ZM218.618 61.064C218.618 61.544 218.586 61.976 218.522 62.36H208.802C208.882 63.32 209.218 64.072 209.81 64.616C210.402 65.16 211.13 65.432 211.994 65.432C213.242 65.432 214.13 64.896 214.658 63.824H218.282C217.898 65.104 217.162 66.16 216.074 66.992C214.986 67.808 213.65 68.216 212.066 68.216C210.786 68.216 209.634 67.936 208.61 67.376C207.602 66.8 206.81 65.992 206.234 64.952C205.674 63.912 205.394 62.712 205.394 61.352C205.394 59.976 205.674 58.768 206.234 57.728C206.794 56.688 207.578 55.888 208.586 55.328C209.594 54.768 210.754 54.488 212.066 54.488C213.33 54.488 214.458 54.76 215.45 55.304C216.458 55.848 217.234 56.624 217.778 57.632C218.338 58.624 218.618 59.768 218.618 61.064ZM215.138 60.104C215.122 59.24 214.81 58.552 214.202 58.04C213.594 57.512 212.85 57.248 211.97 57.248C211.138 57.248 210.434 57.504 209.858 58.016C209.298 58.512 208.954 59.208 208.826 60.104H215.138ZM224.43 56.768C224.862 56.064 225.422 55.512 226.11 55.112C226.814 54.712 227.614 54.512 228.51 54.512V58.04H227.622C226.566 58.04 225.766 58.288 225.222 58.784C224.694 59.28 224.43 60.144 224.43 61.376V68H221.07V54.704H224.43V56.768ZM236.869 57.464H234.541V68H231.133V57.464H229.621V54.704H231.133V54.032C231.133 52.4 231.597 51.2 232.525 50.432C233.453 49.664 234.853 49.304 236.725 49.352V52.184C235.909 52.168 235.341 52.304 235.021 52.592C234.701 52.88 234.541 53.4 234.541 54.152V54.704H236.869V57.464ZM244.951 68.216C243.671 68.216 242.519 67.936 241.495 67.376C240.471 66.8 239.663 65.992 239.071 64.952C238.495 63.912 238.207 62.712 238.207 61.352C238.207 59.992 238.503 58.792 239.095 57.752C239.703 56.712 240.527 55.912 241.567 55.352C242.607 54.776 243.767 54.488 245.047 54.488C246.327 54.488 247.487 54.776 248.527 55.352C249.567 55.912 250.383 56.712 250.975 57.752C251.583 58.792 251.887 59.992 251.887 61.352C251.887 62.712 251.575 63.912 250.951 64.952C250.343 65.992 249.511 66.8 248.455 67.376C247.415 67.936 246.247 68.216 244.951 68.216ZM244.951 65.288C245.559 65.288 246.127 65.144 246.655 64.856C247.199 64.552 247.631 64.104 247.951 63.512C248.271 62.92 248.431 62.2 248.431 61.352C248.431 60.088 248.095 59.12 247.423 58.448C246.767 57.76 245.959 57.416 244.999 57.416C244.039 57.416 243.231 57.76 242.575 58.448C241.935 59.12 241.615 60.088 241.615 61.352C241.615 62.616 241.927 63.592 242.551 64.28C243.191 64.952 243.991 65.288 244.951 65.288ZM257.711 56.768C258.143 56.064 258.703 55.512 259.391 55.112C260.095 54.712 260.895 54.512 261.791 54.512V58.04H260.903C259.847 58.04 259.047 58.288 258.503 58.784C257.975 59.28 257.711 60.144 257.711 61.376V68H254.351V54.704H257.711V56.768ZM280.566 54.512C282.198 54.512 283.51 55.016 284.502 56.024C285.51 57.016 286.014 58.408 286.014 60.2V68H282.654V60.656C282.654 59.616 282.39 58.824 281.862 58.28C281.334 57.72 280.614 57.44 279.702 57.44C278.79 57.44 278.062 57.72 277.518 58.28C276.99 58.824 276.726 59.616 276.726 60.656V68H273.366V60.656C273.366 59.616 273.102 58.824 272.574 58.28C272.046 57.72 271.326 57.44 270.414 57.44C269.486 57.44 268.75 57.72 268.206 58.28C267.678 58.824 267.414 59.616 267.414 60.656V68H264.054V54.704H267.414V56.312C267.846 55.752 268.398 55.312 269.07 54.992C269.758 54.672 270.51 54.512 271.326 54.512C272.366 54.512 273.294 54.736 274.11 55.184C274.926 55.616 275.558 56.24 276.006 57.056C276.438 56.288 277.062 55.672 277.878 55.208C278.71 54.744 279.606 54.512 280.566 54.512ZM288.339 61.304C288.339 59.96 288.603 58.768 289.131 57.728C289.675 56.688 290.403 55.888 291.315 55.328C292.243 54.768 293.275 54.488 294.411 54.488C295.403 54.488 296.267 54.688 297.003 55.088C297.755 55.488 298.355 55.992 298.803 56.6V54.704H302.187V68H298.803V66.056C298.371 66.68 297.771 67.2 297.003 67.616C296.251 68.016 295.379 68.216 294.387 68.216C293.267 68.216 292.243 67.928 291.315 67.352C290.403 66.776 289.675 65.968 289.131 64.928C288.603 63.872 288.339 62.664 288.339 61.304ZM298.803 61.352C298.803 60.536 298.643 59.84 298.323 59.264C298.003 58.672 297.571 58.224 297.027 57.92C296.483 57.6 295.899 57.44 295.275 57.44C294.651 57.44 294.075 57.592 293.547 57.896C293.019 58.2 292.587 58.648 292.251 59.24C291.931 59.816 291.771 60.504 291.771 61.304C291.771 62.104 291.931 62.808 292.251 63.416C292.587 64.008 293.019 64.464 293.547 64.784C294.091 65.104 294.667 65.264 295.275 65.264C295.899 65.264 296.483 65.112 297.027 64.808C297.571 64.488 298.003 64.04 298.323 63.464C298.643 62.872 298.803 62.168 298.803 61.352ZM312.837 54.512C314.421 54.512 315.701 55.016 316.677 56.024C317.653 57.016 318.141 58.408 318.141 60.2V68H314.781V60.656C314.781 59.6 314.517 58.792 313.989 58.232C313.461 57.656 312.741 57.368 311.829 57.368C310.901 57.368 310.165 57.656 309.621 58.232C309.093 58.792 308.829 59.6 308.829 60.656V68H305.469V54.704H308.829V56.36C309.277 55.784 309.845 55.336 310.533 55.016C311.237 54.68 312.005 54.512 312.837 54.512ZM320.472 61.352C320.472 59.976 320.752 58.776 321.312 57.752C321.872 56.712 322.648 55.912 323.64 55.352C324.632 54.776 325.768 54.488 327.048 54.488C328.696 54.488 330.056 54.904 331.128 55.736C332.216 56.552 332.944 57.704 333.312 59.192H329.688C329.496 58.616 329.168 58.168 328.704 57.848C328.256 57.512 327.696 57.344 327.024 57.344C326.064 57.344 325.304 57.696 324.744 58.4C324.184 59.088 323.904 60.072 323.904 61.352C323.904 62.616 324.184 63.6 324.744 64.304C325.304 64.992 326.064 65.336 327.024 65.336C328.384 65.336 329.272 64.728 329.688 63.512H333.312C332.944 64.952 332.216 66.096 331.128 66.944C330.04 67.792 328.68 68.216 327.048 68.216C325.768 68.216 324.632 67.936 323.64 67.376C322.648 66.8 321.872 66 321.312 64.976C320.752 63.936 320.472 62.728 320.472 61.352ZM348.133 61.064C348.133 61.544 348.101 61.976 348.037 62.36H338.317C338.397 63.32 338.733 64.072 339.325 64.616C339.917 65.16 340.645 65.432 341.509 65.432C342.757 65.432 343.645 64.896 344.173 63.824H347.797C347.413 65.104 346.677 66.16 345.589 66.992C344.501 67.808 343.165 68.216 341.581 68.216C340.301 68.216 339.149 67.936 338.125 67.376C337.117 66.8 336.325 65.992 335.749 64.952C335.189 63.912 334.909 62.712 334.909 61.352C334.909 59.976 335.189 58.768 335.749 57.728C336.309 56.688 337.093 55.888 338.101 55.328C339.109 54.768 340.269 54.488 341.581 54.488C342.845 54.488 343.973 54.76 344.965 55.304C345.973 55.848 346.749 56.624 347.293 57.632C347.853 58.624 348.133 59.768 348.133 61.064ZM344.653 60.104C344.637 59.24 344.325 58.552 343.717 58.04C343.109 57.512 342.365 57.248 341.485 57.248C340.653 57.248 339.949 57.504 339.373 58.016C338.813 58.512 338.469 59.208 338.341 60.104H344.653ZM355.674 68.216C354.586 68.216 353.61 68.024 352.746 67.64C351.882 67.24 351.194 66.704 350.682 66.032C350.186 65.36 349.914 64.616 349.866 63.8H353.25C353.314 64.312 353.562 64.736 353.994 65.072C354.442 65.408 354.994 65.576 355.65 65.576C356.29 65.576 356.786 65.448 357.138 65.192C357.506 64.936 357.69 64.608 357.69 64.208C357.69 63.776 357.466 63.456 357.018 63.248C356.586 63.024 355.89 62.784 354.93 62.528C353.938 62.288 353.122 62.04 352.482 61.784C351.858 61.528 351.314 61.136 350.85 60.608C350.402 60.08 350.178 59.368 350.178 58.472C350.178 57.736 350.386 57.064 350.802 56.456C351.234 55.848 351.842 55.368 352.626 55.016C353.426 54.664 354.362 54.488 355.434 54.488C357.018 54.488 358.282 54.888 359.226 55.688C360.17 56.472 360.69 57.536 360.786 58.88H357.57C357.522 58.352 357.298 57.936 356.898 57.632C356.514 57.312 355.994 57.152 355.338 57.152C354.73 57.152 354.258 57.264 353.922 57.488C353.602 57.712 353.442 58.024 353.442 58.424C353.442 58.872 353.666 59.216 354.114 59.456C354.562 59.68 355.258 59.912 356.202 60.152C357.162 60.392 357.954 60.64 358.578 60.896C359.202 61.152 359.738 61.552 360.186 62.096C360.65 62.624 360.89 63.328 360.906 64.208C360.906 64.976 360.69 65.664 360.258 66.272C359.842 66.88 359.234 67.36 358.434 67.712C357.65 68.048 356.73 68.216 355.674 68.216Z"></path>
<path fill-opacity="0.05" fill="black" d="M190 99C190 96.2386 192.239 94 195 94H465C467.761 94 470 96.2386 470 99V155C470 157.761 467.761 160 465 160H195C192.239 160 190 157.761 190 155V99Z"></path>
<path fill="black" d="M215.324 123.355V124.378H212.079V126.633H214.609V127.656H212.079V131H210.825V123.355H215.324ZM221.832 125.632C221.832 126.021 221.74 126.387 221.557 126.732C221.374 127.077 221.08 127.359 220.677 127.579C220.274 127.792 219.757 127.898 219.126 127.898H217.74V131H216.486V123.355H219.126C219.713 123.355 220.208 123.458 220.611 123.663C221.022 123.861 221.326 124.132 221.524 124.477C221.729 124.822 221.832 125.207 221.832 125.632ZM219.126 126.875C219.603 126.875 219.958 126.769 220.193 126.556C220.428 126.336 220.545 126.028 220.545 125.632C220.545 124.796 220.072 124.378 219.126 124.378H217.74V126.875H219.126ZM225.547 131.077C225.034 131.077 224.572 130.989 224.161 130.813C223.75 130.63 223.428 130.373 223.193 130.043C222.958 129.713 222.841 129.328 222.841 128.888H224.183C224.212 129.218 224.341 129.489 224.568 129.702C224.803 129.915 225.129 130.021 225.547 130.021C225.98 130.021 226.317 129.918 226.559 129.713C226.801 129.5 226.922 129.229 226.922 128.899C226.922 128.642 226.845 128.433 226.691 128.272C226.544 128.111 226.357 127.986 226.13 127.898C225.91 127.81 225.602 127.715 225.206 127.612C224.707 127.48 224.3 127.348 223.985 127.216C223.677 127.077 223.413 126.864 223.193 126.578C222.973 126.292 222.863 125.911 222.863 125.434C222.863 124.994 222.973 124.609 223.193 124.279C223.413 123.949 223.721 123.696 224.117 123.52C224.513 123.344 224.971 123.256 225.492 123.256C226.233 123.256 226.838 123.443 227.307 123.817C227.784 124.184 228.048 124.69 228.099 125.335H226.713C226.691 125.056 226.559 124.818 226.317 124.62C226.075 124.422 225.756 124.323 225.36 124.323C225.001 124.323 224.707 124.415 224.48 124.598C224.253 124.781 224.139 125.045 224.139 125.39C224.139 125.625 224.209 125.819 224.348 125.973C224.495 126.12 224.678 126.237 224.898 126.325C225.118 126.413 225.419 126.508 225.8 126.611C226.306 126.75 226.717 126.89 227.032 127.029C227.355 127.168 227.626 127.385 227.846 127.678C228.073 127.964 228.187 128.349 228.187 128.833C228.187 129.222 228.081 129.588 227.868 129.933C227.663 130.278 227.358 130.556 226.955 130.769C226.559 130.974 226.09 131.077 225.547 131.077ZM232.106 127.964C232.106 127.341 232.231 126.794 232.48 126.325C232.737 125.848 233.089 125.482 233.536 125.225C233.984 124.968 234.497 124.84 235.076 124.84C235.81 124.84 236.415 125.016 236.891 125.368C237.375 125.713 237.702 126.208 237.87 126.853H236.517C236.407 126.552 236.231 126.318 235.989 126.149C235.747 125.98 235.443 125.896 235.076 125.896C234.563 125.896 234.152 126.079 233.844 126.446C233.544 126.805 233.393 127.311 233.393 127.964C233.393 128.617 233.544 129.126 233.844 129.493C234.152 129.86 234.563 130.043 235.076 130.043C235.802 130.043 236.283 129.724 236.517 129.086H237.87C237.694 129.702 237.364 130.193 236.88 130.56C236.396 130.919 235.795 131.099 235.076 131.099C234.497 131.099 233.984 130.971 233.536 130.714C233.089 130.45 232.737 130.083 232.48 129.614C232.231 129.137 232.106 128.587 232.106 127.964ZM241.749 131.099C241.177 131.099 240.66 130.971 240.198 130.714C239.736 130.45 239.373 130.083 239.109 129.614C238.845 129.137 238.713 128.587 238.713 127.964C238.713 127.348 238.849 126.802 239.12 126.325C239.391 125.848 239.762 125.482 240.231 125.225C240.7 124.968 241.225 124.84 241.804 124.84C242.383 124.84 242.908 124.968 243.377 125.225C243.846 125.482 244.217 125.848 244.488 126.325C244.759 126.802 244.895 127.348 244.895 127.964C244.895 128.58 244.756 129.126 244.477 129.603C244.198 130.08 243.817 130.45 243.333 130.714C242.856 130.971 242.328 131.099 241.749 131.099ZM241.749 130.01C242.072 130.01 242.372 129.933 242.651 129.779C242.937 129.625 243.168 129.394 243.344 129.086C243.52 128.778 243.608 128.404 243.608 127.964C243.608 127.524 243.524 127.154 243.355 126.853C243.186 126.545 242.963 126.314 242.684 126.16C242.405 126.006 242.105 125.929 241.782 125.929C241.459 125.929 241.159 126.006 240.88 126.16C240.609 126.314 240.392 126.545 240.231 126.853C240.07 127.154 239.989 127.524 239.989 127.964C239.989 128.617 240.154 129.123 240.484 129.482C240.821 129.834 241.243 130.01 241.749 130.01ZM251.624 124.939V131H250.37V130.285C250.172 130.534 249.911 130.732 249.589 130.879C249.273 131.018 248.936 131.088 248.577 131.088C248.1 131.088 247.671 130.989 247.29 130.791C246.916 130.593 246.619 130.3 246.399 129.911C246.186 129.522 246.08 129.053 246.08 128.503V124.939H247.323V128.316C247.323 128.859 247.458 129.277 247.73 129.57C248.001 129.856 248.371 129.999 248.841 129.999C249.31 129.999 249.68 129.856 249.952 129.57C250.23 129.277 250.37 128.859 250.37 128.316V124.939H251.624ZM256.336 124.84C256.813 124.84 257.238 124.939 257.612 125.137C257.993 125.335 258.29 125.628 258.503 126.017C258.716 126.406 258.822 126.875 258.822 127.425V131H257.579V127.612C257.579 127.069 257.443 126.655 257.172 126.369C256.901 126.076 256.53 125.929 256.061 125.929C255.592 125.929 255.218 126.076 254.939 126.369C254.668 126.655 254.532 127.069 254.532 127.612V131H253.278V124.939H254.532V125.632C254.737 125.383 254.998 125.188 255.313 125.049C255.636 124.91 255.977 124.84 256.336 124.84ZM261.885 125.962V129.317C261.885 129.544 261.936 129.709 262.039 129.812C262.149 129.907 262.332 129.955 262.589 129.955H263.359V131H262.369C261.804 131 261.371 130.868 261.071 130.604C260.77 130.34 260.62 129.911 260.62 129.317V125.962H259.905V124.939H260.62V123.432H261.885V124.939H263.359V125.962H261.885ZM270.069 127.821C270.069 128.048 270.055 128.254 270.025 128.437H265.394C265.431 128.921 265.611 129.31 265.933 129.603C266.256 129.896 266.652 130.043 267.121 130.043C267.796 130.043 268.273 129.761 268.551 129.196H269.904C269.721 129.753 269.387 130.212 268.903 130.571C268.427 130.923 267.833 131.099 267.121 131.099C266.542 131.099 266.021 130.971 265.559 130.714C265.105 130.45 264.745 130.083 264.481 129.614C264.225 129.137 264.096 128.587 264.096 127.964C264.096 127.341 264.221 126.794 264.47 126.325C264.727 125.848 265.083 125.482 265.537 125.225C265.999 124.968 266.527 124.84 267.121 124.84C267.693 124.84 268.203 124.965 268.65 125.214C269.098 125.463 269.446 125.815 269.695 126.27C269.945 126.717 270.069 127.234 270.069 127.821ZM268.76 127.425C268.753 126.963 268.588 126.593 268.265 126.314C267.943 126.035 267.543 125.896 267.066 125.896C266.634 125.896 266.263 126.035 265.955 126.314C265.647 126.585 265.464 126.956 265.405 127.425H268.76ZM272.558 125.819C272.741 125.511 272.983 125.273 273.284 125.104C273.592 124.928 273.955 124.84 274.373 124.84V126.138H274.054C273.562 126.138 273.188 126.263 272.932 126.512C272.682 126.761 272.558 127.194 272.558 127.81V131H271.304V124.939H272.558V125.819Z"></path>
<path fill-opacity="0.05" fill="black" d="M190 169C190 166.239 192.239 164 195 164H465C467.761 164 470 166.239 470 169V225C470 227.761 467.761 230 465 230H195C192.239 230 190 227.761 190 225V169Z"></path>
<path fill="black" d="M212.068 193.355V198.228C212.068 198.807 212.218 199.244 212.519 199.537C212.827 199.83 213.252 199.977 213.795 199.977C214.345 199.977 214.77 199.83 215.071 199.537C215.379 199.244 215.533 198.807 215.533 198.228V193.355H216.787V198.206C216.787 198.829 216.651 199.357 216.38 199.79C216.109 200.223 215.746 200.545 215.291 200.758C214.836 200.971 214.334 201.077 213.784 201.077C213.234 201.077 212.732 200.971 212.277 200.758C211.83 200.545 211.474 200.223 211.21 199.79C210.946 199.357 210.814 198.829 210.814 198.206V193.355H212.068ZM219.674 193.355V201H218.42V193.355H219.674ZM223.76 197.942C223.76 197.333 223.884 196.794 224.134 196.325C224.39 195.856 224.735 195.493 225.168 195.236C225.608 194.972 226.092 194.84 226.62 194.84C227.096 194.84 227.511 194.935 227.863 195.126C228.222 195.309 228.508 195.54 228.721 195.819V194.939H229.986V201H228.721V200.098C228.508 200.384 228.218 200.622 227.852 200.813C227.485 201.004 227.067 201.099 226.598 201.099C226.077 201.099 225.6 200.967 225.168 200.703C224.735 200.432 224.39 200.058 224.134 199.581C223.884 199.097 223.76 198.551 223.76 197.942ZM228.721 197.964C228.721 197.546 228.633 197.183 228.457 196.875C228.288 196.567 228.064 196.332 227.786 196.171C227.507 196.01 227.206 195.929 226.884 195.929C226.561 195.929 226.26 196.01 225.982 196.171C225.703 196.325 225.476 196.556 225.3 196.864C225.131 197.165 225.047 197.524 225.047 197.942C225.047 198.36 225.131 198.727 225.3 199.042C225.476 199.357 225.703 199.599 225.982 199.768C226.268 199.929 226.568 200.01 226.884 200.01C227.206 200.01 227.507 199.929 227.786 199.768C228.064 199.607 228.288 199.372 228.457 199.064C228.633 198.749 228.721 198.382 228.721 197.964ZM234.691 194.84C235.167 194.84 235.593 194.939 235.967 195.137C236.348 195.335 236.645 195.628 236.858 196.017C237.07 196.406 237.177 196.875 237.177 197.425V201H235.934V197.612C235.934 197.069 235.798 196.655 235.527 196.369C235.255 196.076 234.885 195.929 234.416 195.929C233.946 195.929 233.572 196.076 233.294 196.369C233.022 196.655 232.887 197.069 232.887 197.612V201H231.633V194.939H232.887V195.632C233.092 195.383 233.352 195.188 233.668 195.049C233.99 194.91 234.331 194.84 234.691 194.84ZM239.414 194.136C239.187 194.136 238.996 194.059 238.842 193.905C238.688 193.751 238.611 193.56 238.611 193.333C238.611 193.106 238.688 192.915 238.842 192.761C238.996 192.607 239.187 192.53 239.414 192.53C239.634 192.53 239.821 192.607 239.975 192.761C240.129 192.915 240.206 193.106 240.206 193.333C240.206 193.56 240.129 193.751 239.975 193.905C239.821 194.059 239.634 194.136 239.414 194.136ZM240.03 194.939V201H238.776V194.939H240.03ZM249.014 194.84C249.49 194.84 249.916 194.939 250.29 195.137C250.671 195.335 250.968 195.628 251.181 196.017C251.401 196.406 251.511 196.875 251.511 197.425V201H250.268V197.612C250.268 197.069 250.132 196.655 249.861 196.369C249.589 196.076 249.219 195.929 248.75 195.929C248.28 195.929 247.906 196.076 247.628 196.369C247.356 196.655 247.221 197.069 247.221 197.612V201H245.978V197.612C245.978 197.069 245.842 196.655 245.571 196.369C245.299 196.076 244.929 195.929 244.46 195.929C243.99 195.929 243.616 196.076 243.338 196.369C243.066 196.655 242.931 197.069 242.931 197.612V201H241.677V194.939H242.931V195.632C243.136 195.383 243.396 195.188 243.712 195.049C244.027 194.91 244.364 194.84 244.724 194.84C245.208 194.84 245.64 194.943 246.022 195.148C246.403 195.353 246.696 195.65 246.902 196.039C247.085 195.672 247.371 195.383 247.76 195.17C248.148 194.95 248.566 194.84 249.014 194.84ZM252.688 197.942C252.688 197.333 252.813 196.794 253.062 196.325C253.319 195.856 253.664 195.493 254.096 195.236C254.536 194.972 255.02 194.84 255.548 194.84C256.025 194.84 256.439 194.935 256.791 195.126C257.151 195.309 257.437 195.54 257.649 195.819V194.939H258.914V201H257.649V200.098C257.437 200.384 257.147 200.622 256.78 200.813C256.414 201.004 255.996 201.099 255.526 201.099C255.006 201.099 254.529 200.967 254.096 200.703C253.664 200.432 253.319 200.058 253.062 199.581C252.813 199.097 252.688 198.551 252.688 197.942ZM257.649 197.964C257.649 197.546 257.561 197.183 257.385 196.875C257.217 196.567 256.993 196.332 256.714 196.171C256.436 196.01 256.135 195.929 255.812 195.929C255.49 195.929 255.189 196.01 254.91 196.171C254.632 196.325 254.404 196.556 254.228 196.864C254.06 197.165 253.975 197.524 253.975 197.942C253.975 198.36 254.06 198.727 254.228 199.042C254.404 199.357 254.632 199.599 254.91 199.768C255.196 199.929 255.497 200.01 255.812 200.01C256.135 200.01 256.436 199.929 256.714 199.768C256.993 199.607 257.217 199.372 257.385 199.064C257.561 198.749 257.649 198.382 257.649 197.964ZM262.024 195.962V199.317C262.024 199.544 262.076 199.709 262.178 199.812C262.288 199.907 262.472 199.955 262.728 199.955H263.498V201H262.508C261.944 201 261.511 200.868 261.21 200.604C260.91 200.34 260.759 199.911 260.759 199.317V195.962H260.044V194.939H260.759V193.432H262.024V194.939H263.498V195.962H262.024ZM265.292 194.136C265.065 194.136 264.874 194.059 264.72 193.905C264.566 193.751 264.489 193.56 264.489 193.333C264.489 193.106 264.566 192.915 264.72 192.761C264.874 192.607 265.065 192.53 265.292 192.53C265.512 192.53 265.699 192.607 265.853 192.761C266.007 192.915 266.084 193.106 266.084 193.333C266.084 193.56 266.007 193.751 265.853 193.905C265.699 194.059 265.512 194.136 265.292 194.136ZM265.908 194.939V201H264.654V194.939H265.908ZM270.183 201.099C269.611 201.099 269.094 200.971 268.632 200.714C268.17 200.45 267.807 200.083 267.543 199.614C267.279 199.137 267.147 198.587 267.147 197.964C267.147 197.348 267.283 196.802 267.554 196.325C267.826 195.848 268.196 195.482 268.665 195.225C269.135 194.968 269.659 194.84 270.238 194.84C270.818 194.84 271.342 194.968 271.811 195.225C272.281 195.482 272.651 195.848 272.922 196.325C273.194 196.802 273.329 197.348 273.329 197.964C273.329 198.58 273.19 199.126 272.911 199.603C272.633 200.08 272.251 200.45 271.767 200.714C271.291 200.971 270.763 201.099 270.183 201.099ZM270.183 200.01C270.506 200.01 270.807 199.933 271.085 199.779C271.371 199.625 271.602 199.394 271.778 199.086C271.954 198.778 272.042 198.404 272.042 197.964C272.042 197.524 271.958 197.154 271.789 196.853C271.621 196.545 271.397 196.314 271.118 196.16C270.84 196.006 270.539 195.929 270.216 195.929C269.894 195.929 269.593 196.006 269.314 196.16C269.043 196.314 268.827 196.545 268.665 196.853C268.504 197.154 268.423 197.524 268.423 197.964C268.423 198.617 268.588 199.123 268.918 199.482C269.256 199.834 269.677 200.01 270.183 200.01ZM277.627 194.84C278.104 194.84 278.529 194.939 278.903 195.137C279.284 195.335 279.581 195.628 279.794 196.017C280.007 196.406 280.113 196.875 280.113 197.425V201H278.87V197.612C278.87 197.069 278.734 196.655 278.463 196.369C278.192 196.076 277.821 195.929 277.352 195.929C276.883 195.929 276.509 196.076 276.23 196.369C275.959 196.655 275.823 197.069 275.823 197.612V201H274.569V194.939H275.823V195.632C276.028 195.383 276.289 195.188 276.604 195.049C276.927 194.91 277.268 194.84 277.627 194.84ZM283.913 201.099C283.436 201.099 283.007 201.015 282.626 200.846C282.252 200.67 281.955 200.435 281.735 200.142C281.515 199.841 281.397 199.508 281.383 199.141H282.681C282.703 199.398 282.824 199.614 283.044 199.79C283.271 199.959 283.553 200.043 283.891 200.043C284.243 200.043 284.514 199.977 284.705 199.845C284.903 199.706 285.002 199.53 285.002 199.317C285.002 199.09 284.892 198.921 284.672 198.811C284.459 198.701 284.118 198.58 283.649 198.448C283.194 198.323 282.824 198.202 282.538 198.085C282.252 197.968 282.002 197.788 281.79 197.546C281.584 197.304 281.482 196.985 281.482 196.589C281.482 196.266 281.577 195.973 281.768 195.709C281.958 195.438 282.23 195.225 282.582 195.071C282.941 194.917 283.352 194.84 283.814 194.84C284.503 194.84 285.057 195.016 285.475 195.368C285.9 195.713 286.127 196.186 286.157 196.787H284.903C284.881 196.516 284.771 196.299 284.573 196.138C284.375 195.977 284.107 195.896 283.77 195.896C283.44 195.896 283.187 195.958 283.011 196.083C282.835 196.208 282.747 196.373 282.747 196.578C282.747 196.739 282.805 196.875 282.923 196.985C283.04 197.095 283.183 197.183 283.352 197.249C283.52 197.308 283.77 197.385 284.1 197.48C284.54 197.597 284.899 197.718 285.178 197.843C285.464 197.96 285.709 198.136 285.915 198.371C286.12 198.606 286.226 198.917 286.234 199.306C286.234 199.651 286.138 199.959 285.948 200.23C285.757 200.501 285.486 200.714 285.134 200.868C284.789 201.022 284.382 201.099 283.913 201.099Z"></path>
<path fill-opacity="0.05" fill="black" d="M190 239C190 236.239 192.239 234 195 234H465C467.761 234 470 236.239 470 239V295C470 297.761 467.761 300 465 300H195C192.239 300 190 297.761 190 295V239Z"></path>
<path fill="black" d="M215.434 261.438H212.233L211.683 263H210.374L213.113 255.344H214.565L217.304 263H215.984L215.434 261.438ZM215.082 260.415L213.839 256.862L212.585 260.415H215.082ZM219.749 257.83C219.962 257.551 220.251 257.317 220.618 257.126C220.985 256.935 221.399 256.84 221.861 256.84C222.389 256.84 222.869 256.972 223.302 257.236C223.742 257.493 224.087 257.856 224.336 258.325C224.585 258.794 224.71 259.333 224.71 259.942C224.71 260.551 224.585 261.097 224.336 261.581C224.087 262.058 223.742 262.432 223.302 262.703C222.869 262.967 222.389 263.099 221.861 263.099C221.399 263.099 220.988 263.007 220.629 262.824C220.27 262.633 219.976 262.399 219.749 262.12V265.882H218.495V256.939H219.749V257.83ZM223.434 259.942C223.434 259.524 223.346 259.165 223.17 258.864C223.001 258.556 222.774 258.325 222.488 258.171C222.209 258.01 221.909 257.929 221.586 257.929C221.271 257.929 220.97 258.01 220.684 258.171C220.405 258.332 220.178 258.567 220.002 258.875C219.833 259.183 219.749 259.546 219.749 259.964C219.749 260.382 219.833 260.749 220.002 261.064C220.178 261.372 220.405 261.607 220.684 261.768C220.97 261.929 221.271 262.01 221.586 262.01C221.909 262.01 222.209 261.929 222.488 261.768C222.774 261.599 223.001 261.357 223.17 261.042C223.346 260.727 223.434 260.36 223.434 259.942ZM227.204 257.83C227.417 257.551 227.706 257.317 228.073 257.126C228.44 256.935 228.854 256.84 229.316 256.84C229.844 256.84 230.324 256.972 230.757 257.236C231.197 257.493 231.542 257.856 231.791 258.325C232.04 258.794 232.165 259.333 232.165 259.942C232.165 260.551 232.04 261.097 231.791 261.581C231.542 262.058 231.197 262.432 230.757 262.703C230.324 262.967 229.844 263.099 229.316 263.099C228.854 263.099 228.443 263.007 228.084 262.824C227.725 262.633 227.431 262.399 227.204 262.12V265.882H225.95V256.939H227.204V257.83ZM230.889 259.942C230.889 259.524 230.801 259.165 230.625 258.864C230.456 258.556 230.229 258.325 229.943 258.171C229.664 258.01 229.364 257.929 229.041 257.929C228.726 257.929 228.425 258.01 228.139 258.171C227.86 258.332 227.633 258.567 227.457 258.875C227.288 259.183 227.204 259.546 227.204 259.964C227.204 260.382 227.288 260.749 227.457 261.064C227.633 261.372 227.86 261.607 228.139 261.768C228.425 261.929 228.726 262.01 229.041 262.01C229.364 262.01 229.664 261.929 229.943 261.768C230.229 261.599 230.456 261.357 230.625 261.042C230.801 260.727 230.889 260.36 230.889 259.942ZM235.845 259.161C235.845 258.413 236.017 257.742 236.362 257.148C236.714 256.554 237.187 256.092 237.781 255.762C238.382 255.425 239.038 255.256 239.75 255.256C240.564 255.256 241.286 255.458 241.917 255.861C242.555 256.257 243.017 256.822 243.303 257.555H241.796C241.598 257.152 241.323 256.851 240.971 256.653C240.619 256.455 240.212 256.356 239.75 256.356C239.244 256.356 238.793 256.47 238.397 256.697C238.001 256.924 237.689 257.251 237.462 257.676C237.242 258.101 237.132 258.596 237.132 259.161C237.132 259.726 237.242 260.221 237.462 260.646C237.689 261.071 238.001 261.401 238.397 261.636C238.793 261.863 239.244 261.977 239.75 261.977C240.212 261.977 240.619 261.878 240.971 261.68C241.323 261.482 241.598 261.181 241.796 260.778H243.303C243.017 261.511 242.555 262.076 241.917 262.472C241.286 262.868 240.564 263.066 239.75 263.066C239.031 263.066 238.375 262.901 237.781 262.571C237.187 262.234 236.714 261.768 236.362 261.174C236.017 260.58 235.845 259.909 235.845 259.161ZM246.024 257.819C246.208 257.511 246.45 257.273 246.75 257.104C247.058 256.928 247.421 256.84 247.839 256.84V258.138H247.52C247.029 258.138 246.655 258.263 246.398 258.512C246.149 258.761 246.024 259.194 246.024 259.81V263H244.77V256.939H246.024V257.819ZM248.574 259.942C248.574 259.333 248.699 258.794 248.948 258.325C249.205 257.856 249.549 257.493 249.982 257.236C250.422 256.972 250.906 256.84 251.434 256.84C251.911 256.84 252.325 256.935 252.677 257.126C253.036 257.309 253.322 257.54 253.535 257.819V256.939H254.8V263H253.535V262.098C253.322 262.384 253.033 262.622 252.666 262.813C252.299 263.004 251.881 263.099 251.412 263.099C250.891 263.099 250.415 262.967 249.982 262.703C249.549 262.432 249.205 262.058 248.948 261.581C248.699 261.097 248.574 260.551 248.574 259.942ZM253.535 259.964C253.535 259.546 253.447 259.183 253.271 258.875C253.102 258.567 252.879 258.332 252.6 258.171C252.321 258.01 252.021 257.929 251.698 257.929C251.375 257.929 251.075 258.01 250.796 258.171C250.517 258.325 250.29 258.556 250.114 258.864C249.945 259.165 249.861 259.524 249.861 259.942C249.861 260.36 249.945 260.727 250.114 261.042C250.29 261.357 250.517 261.599 250.796 261.768C251.082 261.929 251.383 262.01 251.698 262.01C252.021 262.01 252.321 261.929 252.6 261.768C252.879 261.607 253.102 261.372 253.271 261.064C253.447 260.749 253.535 260.382 253.535 259.964ZM258.647 263.099C258.17 263.099 257.741 263.015 257.36 262.846C256.986 262.67 256.689 262.435 256.469 262.142C256.249 261.841 256.132 261.508 256.117 261.141H257.415C257.437 261.398 257.558 261.614 257.778 261.79C258.005 261.959 258.288 262.043 258.625 262.043C258.977 262.043 259.248 261.977 259.439 261.845C259.637 261.706 259.736 261.53 259.736 261.317C259.736 261.09 259.626 260.921 259.406 260.811C259.193 260.701 258.852 260.58 258.383 260.448C257.928 260.323 257.558 260.202 257.272 260.085C256.986 259.968 256.737 259.788 256.524 259.546C256.319 259.304 256.216 258.985 256.216 258.589C256.216 258.266 256.311 257.973 256.502 257.709C256.693 257.438 256.964 257.225 257.316 257.071C257.675 256.917 258.086 256.84 258.548 256.84C259.237 256.84 259.791 257.016 260.209 257.368C260.634 257.713 260.862 258.186 260.891 258.787H259.637C259.615 258.516 259.505 258.299 259.307 258.138C259.109 257.977 258.841 257.896 258.504 257.896C258.174 257.896 257.921 257.958 257.745 258.083C257.569 258.208 257.481 258.373 257.481 258.578C257.481 258.739 257.54 258.875 257.657 258.985C257.774 259.095 257.917 259.183 258.086 259.249C258.255 259.308 258.504 259.385 258.834 259.48C259.274 259.597 259.633 259.718 259.912 259.843C260.198 259.96 260.444 260.136 260.649 260.371C260.854 260.606 260.961 260.917 260.968 261.306C260.968 261.651 260.873 261.959 260.682 262.23C260.491 262.501 260.22 262.714 259.868 262.868C259.523 263.022 259.116 263.099 258.647 263.099ZM265.458 256.84C265.92 256.84 266.331 256.939 266.69 257.137C267.057 257.335 267.343 257.628 267.548 258.017C267.761 258.406 267.867 258.875 267.867 259.425V263H266.624V259.612C266.624 259.069 266.488 258.655 266.217 258.369C265.946 258.076 265.575 257.929 265.106 257.929C264.637 257.929 264.263 258.076 263.984 258.369C263.713 258.655 263.577 259.069 263.577 259.612V263H262.323V254.86H263.577V257.643C263.79 257.386 264.057 257.188 264.38 257.049C264.71 256.91 265.069 256.84 265.458 256.84ZM274.821 255.355C275.635 255.355 276.346 255.513 276.955 255.828C277.571 256.136 278.044 256.583 278.374 257.17C278.711 257.749 278.88 258.428 278.88 259.205C278.88 259.982 278.711 260.657 278.374 261.229C278.044 261.801 277.571 262.241 276.955 262.549C276.346 262.85 275.635 263 274.821 263H272.324V255.355H274.821ZM274.821 261.977C275.716 261.977 276.401 261.735 276.878 261.251C277.355 260.767 277.593 260.085 277.593 259.205C277.593 258.318 277.355 257.625 276.878 257.126C276.401 256.627 275.716 256.378 274.821 256.378H273.578V261.977H274.821ZM285.678 259.821C285.678 260.048 285.663 260.254 285.634 260.437H281.003C281.04 260.921 281.219 261.31 281.542 261.603C281.865 261.896 282.261 262.043 282.73 262.043C283.405 262.043 283.881 261.761 284.16 261.196H285.513C285.33 261.753 284.996 262.212 284.512 262.571C284.035 262.923 283.441 263.099 282.73 263.099C282.151 263.099 281.63 262.971 281.168 262.714C280.713 262.45 280.354 262.083 280.09 261.614C279.833 261.137 279.705 260.587 279.705 259.964C279.705 259.341 279.83 258.794 280.079 258.325C280.336 257.848 280.691 257.482 281.146 257.225C281.608 256.968 282.136 256.84 282.73 256.84C283.302 256.84 283.812 256.965 284.259 257.214C284.706 257.463 285.055 257.815 285.304 258.27C285.553 258.717 285.678 259.234 285.678 259.821ZM284.369 259.425C284.362 258.963 284.197 258.593 283.874 258.314C283.551 258.035 283.152 257.896 282.675 257.896C282.242 257.896 281.872 258.035 281.564 258.314C281.256 258.585 281.073 258.956 281.014 259.425H284.369ZM288.375 257.962V261.317C288.375 261.544 288.426 261.709 288.529 261.812C288.639 261.907 288.822 261.955 289.079 261.955H289.849V263H288.859C288.294 263 287.862 262.868 287.561 262.604C287.26 262.34 287.11 261.911 287.11 261.317V257.962H286.395V256.939H287.11V255.432H288.375V256.939H289.849V257.962H288.375ZM296.56 259.821C296.56 260.048 296.545 260.254 296.516 260.437H291.885C291.921 260.921 292.101 261.31 292.424 261.603C292.746 261.896 293.142 262.043 293.612 262.043C294.286 262.043 294.763 261.761 295.042 261.196H296.395C296.211 261.753 295.878 262.212 295.394 262.571C294.917 262.923 294.323 263.099 293.612 263.099C293.032 263.099 292.512 262.971 292.05 262.714C291.595 262.45 291.236 262.083 290.972 261.614C290.715 261.137 290.587 260.587 290.587 259.964C290.587 259.341 290.711 258.794 290.961 258.325C291.217 257.848 291.573 257.482 292.028 257.225C292.49 256.968 293.018 256.84 293.612 256.84C294.184 256.84 294.693 256.965 295.141 257.214C295.588 257.463 295.936 257.815 296.186 258.27C296.435 258.717 296.56 259.234 296.56 259.821ZM295.251 259.425C295.243 258.963 295.078 258.593 294.756 258.314C294.433 258.035 294.033 257.896 293.557 257.896C293.124 257.896 292.754 258.035 292.446 258.314C292.138 258.585 291.954 258.956 291.896 259.425H295.251ZM297.376 259.964C297.376 259.341 297.5 258.794 297.75 258.325C298.006 257.848 298.358 257.482 298.806 257.225C299.253 256.968 299.766 256.84 300.346 256.84C301.079 256.84 301.684 257.016 302.161 257.368C302.645 257.713 302.971 258.208 303.14 258.853H301.787C301.677 258.552 301.501 258.318 301.259 258.149C301.017 257.98 300.712 257.896 300.346 257.896C299.832 257.896 299.422 258.079 299.114 258.446C298.813 258.805 298.663 259.311 298.663 259.964C298.663 260.617 298.813 261.126 299.114 261.493C299.422 261.86 299.832 262.043 300.346 262.043C301.072 262.043 301.552 261.724 301.787 261.086H303.14C302.964 261.702 302.634 262.193 302.15 262.56C301.666 262.919 301.064 263.099 300.346 263.099C299.766 263.099 299.253 262.971 298.806 262.714C298.358 262.45 298.006 262.083 297.75 261.614C297.5 261.137 297.376 260.587 297.376 259.964ZM305.852 257.962V261.317C305.852 261.544 305.904 261.709 306.006 261.812C306.116 261.907 306.3 261.955 306.556 261.955H307.326V263H306.336C305.772 263 305.339 262.868 305.038 262.604C304.738 262.34 304.587 261.911 304.587 261.317V257.962H303.872V256.939H304.587V255.432H305.852V256.939H307.326V257.962H305.852ZM309.12 256.136C308.893 256.136 308.702 256.059 308.548 255.905C308.394 255.751 308.317 255.56 308.317 255.333C308.317 255.106 308.394 254.915 308.548 254.761C308.702 254.607 308.893 254.53 309.12 254.53C309.34 254.53 309.527 254.607 309.681 254.761C309.835 254.915 309.912 255.106 309.912 255.333C309.912 255.56 309.835 255.751 309.681 255.905C309.527 256.059 309.34 256.136 309.12 256.136ZM309.736 256.939V263H308.482V256.939H309.736ZM314.012 263.099C313.44 263.099 312.923 262.971 312.461 262.714C311.999 262.45 311.636 262.083 311.372 261.614C311.108 261.137 310.976 260.587 310.976 259.964C310.976 259.348 311.111 258.802 311.383 258.325C311.654 257.848 312.024 257.482 312.494 257.225C312.963 256.968 313.487 256.84 314.067 256.84C314.646 256.84 315.17 256.968 315.64 257.225C316.109 257.482 316.479 257.848 316.751 258.325C317.022 258.802 317.158 259.348 317.158 259.964C317.158 260.58 317.018 261.126 316.74 261.603C316.461 262.08 316.08 262.45 315.596 262.714C315.119 262.971 314.591 263.099 314.012 263.099ZM314.012 262.01C314.334 262.01 314.635 261.933 314.914 261.779C315.2 261.625 315.431 261.394 315.607 261.086C315.783 260.778 315.871 260.404 315.871 259.964C315.871 259.524 315.786 259.154 315.618 258.853C315.449 258.545 315.225 258.314 314.947 258.16C314.668 258.006 314.367 257.929 314.045 257.929C313.722 257.929 313.421 258.006 313.143 258.16C312.871 258.314 312.655 258.545 312.494 258.853C312.332 259.154 312.252 259.524 312.252 259.964C312.252 260.617 312.417 261.123 312.747 261.482C313.084 261.834 313.506 262.01 314.012 262.01ZM321.455 256.84C321.932 256.84 322.357 256.939 322.731 257.137C323.113 257.335 323.41 257.628 323.622 258.017C323.835 258.406 323.941 258.875 323.941 259.425V263H322.698V259.612C322.698 259.069 322.563 258.655 322.291 258.369C322.02 258.076 321.65 257.929 321.18 257.929C320.711 257.929 320.337 258.076 320.058 258.369C319.787 258.655 319.651 259.069 319.651 259.612V263H318.397V256.939H319.651V257.632C319.857 257.383 320.117 257.188 320.432 257.049C320.755 256.91 321.096 256.84 321.455 256.84Z"></path>
<path fill-opacity="0.75" fill="black" d="M214.356 272.745V273.582H211.701V275.427H213.771V276.264H211.701V279H210.675V272.745H214.356ZM217.458 279.081C216.99 279.081 216.567 278.976 216.189 278.766C215.811 278.55 215.514 278.25 215.298 277.866C215.082 277.476 214.974 277.026 214.974 276.516C214.974 276.012 215.085 275.565 215.307 275.175C215.529 274.785 215.832 274.485 216.216 274.275C216.6 274.065 217.029 273.96 217.503 273.96C217.977 273.96 218.406 274.065 218.79 274.275C219.174 274.485 219.477 274.785 219.699 275.175C219.921 275.565 220.032 276.012 220.032 276.516C220.032 277.02 219.918 277.467 219.69 277.857C219.462 278.247 219.15 278.55 218.754 278.766C218.364 278.976 217.932 279.081 217.458 279.081ZM217.458 278.19C217.722 278.19 217.968 278.127 218.196 278.001C218.43 277.875 218.619 277.686 218.763 277.434C218.907 277.182 218.979 276.876 218.979 276.516C218.979 276.156 218.91 275.853 218.772 275.607C218.634 275.355 218.451 275.166 218.223 275.04C217.995 274.914 217.749 274.851 217.485 274.851C217.221 274.851 216.975 274.914 216.747 275.04C216.525 275.166 216.348 275.355 216.216 275.607C216.084 275.853 216.018 276.156 216.018 276.516C216.018 277.05 216.153 277.464 216.423 277.758C216.699 278.046 217.044 278.19 217.458 278.19ZM222.072 274.761C222.222 274.509 222.42 274.314 222.666 274.176C222.918 274.032 223.215 273.96 223.557 273.96V275.022H223.296C222.894 275.022 222.588 275.124 222.378 275.328C222.174 275.532 222.072 275.886 222.072 276.39V279H221.046V274.041H222.072V274.761ZM224.158 276.516C224.158 276.006 224.26 275.559 224.464 275.175C224.674 274.785 224.962 274.485 225.328 274.275C225.694 274.065 226.114 273.96 226.588 273.96C227.188 273.96 227.683 274.104 228.073 274.392C228.469 274.674 228.736 275.079 228.874 275.607H227.767C227.677 275.361 227.533 275.169 227.335 275.031C227.137 274.893 226.888 274.824 226.588 274.824C226.168 274.824 225.832 274.974 225.58 275.274C225.334 275.568 225.211 275.982 225.211 276.516C225.211 277.05 225.334 277.467 225.58 277.767C225.832 278.067 226.168 278.217 226.588 278.217C227.182 278.217 227.575 277.956 227.767 277.434H228.874C228.73 277.938 228.46 278.34 228.064 278.64C227.668 278.934 227.176 279.081 226.588 279.081C226.114 279.081 225.694 278.976 225.328 278.766C224.962 278.55 224.674 278.25 224.464 277.866C224.26 277.476 224.158 277.026 224.158 276.516ZM234.442 276.399C234.442 276.585 234.43 276.753 234.406 276.903H230.617C230.647 277.299 230.794 277.617 231.058 277.857C231.322 278.097 231.646 278.217 232.03 278.217C232.582 278.217 232.972 277.986 233.2 277.524H234.307C234.157 277.98 233.884 278.355 233.488 278.649C233.098 278.937 232.612 279.081 232.03 279.081C231.556 279.081 231.13 278.976 230.752 278.766C230.38 278.55 230.086 278.25 229.87 277.866C229.66 277.476 229.555 277.026 229.555 276.516C229.555 276.006 229.657 275.559 229.861 275.175C230.071 274.785 230.362 274.485 230.734 274.275C231.112 274.065 231.544 273.96 232.03 273.96C232.498 273.96 232.915 274.062 233.281 274.266C233.647 274.47 233.932 274.758 234.136 275.13C234.34 275.496 234.442 275.919 234.442 276.399ZM233.371 276.075C233.365 275.697 233.23 275.394 232.966 275.166C232.702 274.938 232.375 274.824 231.985 274.824C231.631 274.824 231.328 274.938 231.076 275.166C230.824 275.388 230.674 275.691 230.626 276.075H233.371ZM235.109 276.498C235.109 276 235.211 275.559 235.415 275.175C235.625 274.791 235.907 274.494 236.261 274.284C236.621 274.068 237.02 273.96 237.458 273.96C237.782 273.96 238.1 274.032 238.412 274.176C238.73 274.314 238.982 274.5 239.168 274.734V272.34H240.203V279H239.168V278.253C239 278.493 238.766 278.691 238.466 278.847C238.172 279.003 237.833 279.081 237.449 279.081C237.017 279.081 236.621 278.973 236.261 278.757C235.907 278.535 235.625 278.229 235.415 277.839C235.211 277.443 235.109 276.996 235.109 276.498ZM239.168 276.516C239.168 276.174 239.096 275.877 238.952 275.625C238.814 275.373 238.631 275.181 238.403 275.049C238.175 274.917 237.929 274.851 237.665 274.851C237.401 274.851 237.155 274.917 236.927 275.049C236.699 275.175 236.513 275.364 236.369 275.616C236.231 275.862 236.162 276.156 236.162 276.498C236.162 276.84 236.231 277.14 236.369 277.398C236.513 277.656 236.699 277.854 236.927 277.992C237.161 278.124 237.407 278.19 237.665 278.19C237.929 278.19 238.175 278.124 238.403 277.992C238.631 277.86 238.814 277.668 238.952 277.416C239.096 277.158 239.168 276.858 239.168 276.516ZM247.66 277.722H245.041L244.591 279H243.52L245.761 272.736H246.949L249.19 279H248.11L247.66 277.722ZM247.372 276.885L246.355 273.978L245.329 276.885H247.372ZM251.19 274.77C251.364 274.542 251.601 274.35 251.901 274.194C252.201 274.038 252.54 273.96 252.918 273.96C253.35 273.96 253.743 274.068 254.097 274.284C254.457 274.494 254.739 274.791 254.943 275.175C255.147 275.559 255.249 276 255.249 276.498C255.249 276.996 255.147 277.443 254.943 277.839C254.739 278.229 254.457 278.535 254.097 278.757C253.743 278.973 253.35 279.081 252.918 279.081C252.54 279.081 252.204 279.006 251.91 278.856C251.616 278.7 251.376 278.508 251.19 278.28V281.358H250.164V274.041H251.19V274.77ZM254.205 276.498C254.205 276.156 254.133 275.862 253.989 275.616C253.851 275.364 253.665 275.175 253.431 275.049C253.203 274.917 252.957 274.851 252.693 274.851C252.435 274.851 252.189 274.917 251.955 275.049C251.727 275.181 251.541 275.373 251.397 275.625C251.259 275.877 251.19 276.174 251.19 276.516C251.19 276.858 251.259 277.158 251.397 277.416C251.541 277.668 251.727 277.86 251.955 277.992C252.189 278.124 252.435 278.19 252.693 278.19C252.957 278.19 253.203 278.124 253.431 277.992C253.665 277.854 253.851 277.656 253.989 277.398C254.133 277.14 254.205 276.84 254.205 276.498ZM257.29 274.77C257.464 274.542 257.701 274.35 258.001 274.194C258.301 274.038 258.64 273.96 259.018 273.96C259.45 273.96 259.843 274.068 260.197 274.284C260.557 274.494 260.839 274.791 261.043 275.175C261.247 275.559 261.349 276 261.349 276.498C261.349 276.996 261.247 277.443 261.043 277.839C260.839 278.229 260.557 278.535 260.197 278.757C259.843 278.973 259.45 279.081 259.018 279.081C258.64 279.081 258.304 279.006 258.01 278.856C257.716 278.7 257.476 278.508 257.29 278.28V281.358H256.264V274.041H257.29V274.77ZM260.305 276.498C260.305 276.156 260.233 275.862 260.089 275.616C259.951 275.364 259.765 275.175 259.531 275.049C259.303 274.917 259.057 274.851 258.793 274.851C258.535 274.851 258.289 274.917 258.055 275.049C257.827 275.181 257.641 275.373 257.497 275.625C257.359 275.877 257.29 276.174 257.29 276.516C257.29 276.858 257.359 277.158 257.497 277.416C257.641 277.668 257.827 277.86 258.055 277.992C258.289 278.124 258.535 278.19 258.793 278.19C259.057 278.19 259.303 278.124 259.531 277.992C259.765 277.854 259.951 277.656 260.089 277.398C260.233 277.14 260.305 276.84 260.305 276.498ZM264.359 276.516C264.359 276.006 264.461 275.559 264.665 275.175C264.875 274.785 265.163 274.485 265.529 274.275C265.895 274.065 266.315 273.96 266.789 273.96C267.389 273.96 267.884 274.104 268.274 274.392C268.67 274.674 268.937 275.079 269.075 275.607H267.968C267.878 275.361 267.734 275.169 267.536 275.031C267.338 274.893 267.089 274.824 266.789 274.824C266.369 274.824 266.033 274.974 265.781 275.274C265.535 275.568 265.412 275.982 265.412 276.516C265.412 277.05 265.535 277.467 265.781 277.767C266.033 278.067 266.369 278.217 266.789 278.217C267.383 278.217 267.776 277.956 267.968 277.434H269.075C268.931 277.938 268.661 278.34 268.265 278.64C267.869 278.934 267.377 279.081 266.789 279.081C266.315 279.081 265.895 278.976 265.529 278.766C265.163 278.55 264.875 278.25 264.665 277.866C264.461 277.476 264.359 277.026 264.359 276.516ZM271.124 272.34V279H270.098V272.34H271.124ZM274.622 279.081C274.154 279.081 273.731 278.976 273.353 278.766C272.975 278.55 272.678 278.25 272.462 277.866C272.246 277.476 272.138 277.026 272.138 276.516C272.138 276.012 272.249 275.565 272.471 275.175C272.693 274.785 272.996 274.485 273.38 274.275C273.764 274.065 274.193 273.96 274.667 273.96C275.141 273.96 275.57 274.065 275.954 274.275C276.338 274.485 276.641 274.785 276.863 275.175C277.085 275.565 277.196 276.012 277.196 276.516C277.196 277.02 277.082 277.467 276.854 277.857C276.626 278.247 276.314 278.55 275.918 278.766C275.528 278.976 275.096 279.081 274.622 279.081ZM274.622 278.19C274.886 278.19 275.132 278.127 275.36 278.001C275.594 277.875 275.783 277.686 275.927 277.434C276.071 277.182 276.143 276.876 276.143 276.516C276.143 276.156 276.074 275.853 275.936 275.607C275.798 275.355 275.615 275.166 275.387 275.04C275.159 274.914 274.913 274.851 274.649 274.851C274.385 274.851 274.139 274.914 273.911 275.04C273.689 275.166 273.512 275.355 273.38 275.607C273.248 275.853 273.182 276.156 273.182 276.516C273.182 277.05 273.317 277.464 273.587 277.758C273.863 278.046 274.208 278.19 274.622 278.19ZM280.01 279.081C279.62 279.081 279.269 279.012 278.957 278.874C278.651 278.73 278.408 278.538 278.228 278.298C278.048 278.052 277.952 277.779 277.94 277.479H279.002C279.02 277.689 279.119 277.866 279.299 278.01C279.485 278.148 279.716 278.217 279.992 278.217C280.28 278.217 280.502 278.163 280.658 278.055C280.82 277.941 280.901 277.797 280.901 277.623C280.901 277.437 280.811 277.299 280.631 277.209C280.457 277.119 280.178 277.02 279.794 276.912C279.422 276.81 279.119 276.711 278.885 276.615C278.651 276.519 278.447 276.372 278.273 276.174C278.105 275.976 278.021 275.715 278.021 275.391C278.021 275.127 278.099 274.887 278.255 274.671C278.411 274.449 278.633 274.275 278.921 274.149C279.215 274.023 279.551 273.96 279.929 273.96C280.493 273.96 280.946 274.104 281.288 274.392C281.636 274.674 281.822 275.061 281.846 275.553H280.82C280.802 275.331 280.712 275.154 280.55 275.022C280.388 274.89 280.169 274.824 279.893 274.824C279.623 274.824 279.416 274.875 279.272 274.977C279.128 275.079 279.056 275.214 279.056 275.382C279.056 275.514 279.104 275.625 279.2 275.715C279.296 275.805 279.413 275.877 279.551 275.931C279.689 275.979 279.893 276.042 280.163 276.12C280.523 276.216 280.817 276.315 281.045 276.417C281.279 276.513 281.48 276.657 281.648 276.849C281.816 277.041 281.903 277.296 281.909 277.614C281.909 277.896 281.831 278.148 281.675 278.37C281.519 278.592 281.297 278.766 281.009 278.892C280.727 279.018 280.394 279.081 280.01 279.081ZM283.54 273.384C283.354 273.384 283.198 273.321 283.072 273.195C282.946 273.069 282.883 272.913 282.883 272.727C282.883 272.541 282.946 272.385 283.072 272.259C283.198 272.133 283.354 272.07 283.54 272.07C283.72 272.07 283.873 272.133 283.999 272.259C284.125 272.385 284.188 272.541 284.188 272.727C284.188 272.913 284.125 273.069 283.999 273.195C283.873 273.321 283.72 273.384 283.54 273.384ZM284.044 274.041V279H283.018V274.041H284.044ZM287.893 273.96C288.283 273.96 288.631 274.041 288.937 274.203C289.249 274.365 289.492 274.605 289.666 274.923C289.84 275.241 289.927 275.625 289.927 276.075V279H288.91V276.228C288.91 275.784 288.799 275.445 288.577 275.211C288.355 274.971 288.052 274.851 287.668 274.851C287.284 274.851 286.978 274.971 286.75 275.211C286.528 275.445 286.417 275.784 286.417 276.228V279H285.391V274.041H286.417V274.608C286.585 274.404 286.798 274.245 287.056 274.131C287.32 274.017 287.599 273.96 287.893 273.96ZM293.234 273.96C293.618 273.96 293.957 274.038 294.251 274.194C294.551 274.344 294.785 274.533 294.953 274.761V274.041H295.988V279.081C295.988 279.537 295.892 279.942 295.7 280.296C295.508 280.656 295.229 280.938 294.863 281.142C294.503 281.346 294.071 281.448 293.567 281.448C292.895 281.448 292.337 281.289 291.893 280.971C291.449 280.659 291.197 280.233 291.137 279.693H292.154C292.232 279.951 292.397 280.158 292.649 280.314C292.907 280.476 293.213 280.557 293.567 280.557C293.981 280.557 294.314 280.431 294.566 280.179C294.824 279.927 294.953 279.561 294.953 279.081V278.253C294.779 278.487 294.542 278.685 294.242 278.847C293.948 279.003 293.612 279.081 293.234 279.081C292.802 279.081 292.406 278.973 292.046 278.757C291.692 278.535 291.41 278.229 291.2 277.839C290.996 277.443 290.894 276.996 290.894 276.498C290.894 276 290.996 275.559 291.2 275.175C291.41 274.791 291.692 274.494 292.046 274.284C292.406 274.068 292.802 273.96 293.234 273.96ZM294.953 276.516C294.953 276.174 294.881 275.877 294.737 275.625C294.599 275.373 294.416 275.181 294.188 275.049C293.96 274.917 293.714 274.851 293.45 274.851C293.186 274.851 292.94 274.917 292.712 275.049C292.484 275.175 292.298 275.364 292.154 275.616C292.016 275.862 291.947 276.156 291.947 276.498C291.947 276.84 292.016 277.14 292.154 277.398C292.298 277.656 292.484 277.854 292.712 277.992C292.946 278.124 293.192 278.19 293.45 278.19C293.714 278.19 293.96 278.124 294.188 277.992C294.416 277.86 294.599 277.668 294.737 277.416C294.881 277.158 294.953 276.858 294.953 276.516ZM306.333 274.041L304.794 279H303.714L302.715 275.337L301.716 279H300.636L299.088 274.041H300.132L301.167 278.028L302.22 274.041H303.291L304.299 278.01L305.325 274.041H306.333ZM309.665 273.96C310.043 273.96 310.379 274.041 310.673 274.203C310.973 274.365 311.207 274.605 311.375 274.923C311.549 275.241 311.636 275.625 311.636 276.075V279H310.619V276.228C310.619 275.784 310.508 275.445 310.286 275.211C310.064 274.971 309.761 274.851 309.377 274.851C308.993 274.851 308.687 274.971 308.459 275.211C308.237 275.445 308.126 275.784 308.126 276.228V279H307.1V272.34H308.126V274.617C308.3 274.407 308.519 274.245 308.783 274.131C309.053 274.017 309.347 273.96 309.665 273.96ZM317.49 276.399C317.49 276.585 317.478 276.753 317.454 276.903H313.665C313.695 277.299 313.842 277.617 314.106 277.857C314.37 278.097 314.694 278.217 315.078 278.217C315.63 278.217 316.02 277.986 316.248 277.524H317.355C317.205 277.98 316.932 278.355 316.536 278.649C316.146 278.937 315.66 279.081 315.078 279.081C314.604 279.081 314.178 278.976 313.8 278.766C313.428 278.55 313.134 278.25 312.918 277.866C312.708 277.476 312.603 277.026 312.603 276.516C312.603 276.006 312.705 275.559 312.909 275.175C313.119 274.785 313.41 274.485 313.782 274.275C314.16 274.065 314.592 273.96 315.078 273.96C315.546 273.96 315.963 274.062 316.329 274.266C316.695 274.47 316.98 274.758 317.184 275.13C317.388 275.496 317.49 275.919 317.49 276.399ZM316.419 276.075C316.413 275.697 316.278 275.394 316.014 275.166C315.75 274.938 315.423 274.824 315.033 274.824C314.679 274.824 314.376 274.938 314.124 275.166C313.872 275.388 313.722 275.691 313.674 276.075H316.419ZM321.001 273.96C321.391 273.96 321.739 274.041 322.045 274.203C322.357 274.365 322.6 274.605 322.774 274.923C322.948 275.241 323.035 275.625 323.035 276.075V279H322.018V276.228C322.018 275.784 321.907 275.445 321.685 275.211C321.463 274.971 321.16 274.851 320.776 274.851C320.392 274.851 320.086 274.971 319.858 275.211C319.636 275.445 319.525 275.784 319.525 276.228V279H318.499V274.041H319.525V274.608C319.693 274.404 319.906 274.245 320.164 274.131C320.428 274.017 320.707 273.96 321.001 273.96ZM330.363 272.745V273.582H327.708V275.427H329.778V276.264H327.708V279H326.682V272.745H330.363ZM335.688 274.608C335.688 274.926 335.613 275.226 335.463 275.508C335.313 275.79 335.073 276.021 334.743 276.201C334.413 276.375 333.99 276.462 333.474 276.462H332.34V279H331.314V272.745H333.474C333.954 272.745 334.359 272.829 334.689 272.997C335.025 273.159 335.274 273.381 335.436 273.663C335.604 273.945 335.688 274.26 335.688 274.608ZM333.474 275.625C333.864 275.625 334.155 275.538 334.347 275.364C334.539 275.184 334.635 274.932 334.635 274.608C334.635 273.924 334.248 273.582 333.474 273.582H332.34V275.625H333.474ZM338.727 279.063C338.307 279.063 337.929 278.991 337.593 278.847C337.257 278.697 336.993 278.487 336.801 278.217C336.609 277.947 336.513 277.632 336.513 277.272H337.611C337.635 277.542 337.74 277.764 337.926 277.938C338.118 278.112 338.385 278.199 338.727 278.199C339.081 278.199 339.357 278.115 339.555 277.947C339.753 277.773 339.852 277.551 339.852 277.281C339.852 277.071 339.789 276.9 339.663 276.768C339.543 276.636 339.39 276.534 339.204 276.462C339.024 276.39 338.772 276.312 338.448 276.228C338.04 276.12 337.707 276.012 337.449 275.904C337.197 275.79 336.981 275.616 336.801 275.382C336.621 275.148 336.531 274.836 336.531 274.446C336.531 274.086 336.621 273.771 336.801 273.501C336.981 273.231 337.233 273.024 337.557 272.88C337.881 272.736 338.256 272.664 338.682 272.664C339.288 272.664 339.783 272.817 340.167 273.123C340.557 273.423 340.773 273.837 340.815 274.365H339.681C339.663 274.137 339.555 273.942 339.357 273.78C339.159 273.618 338.898 273.537 338.574 273.537C338.28 273.537 338.04 273.612 337.854 273.762C337.668 273.912 337.575 274.128 337.575 274.41C337.575 274.602 337.632 274.761 337.746 274.887C337.866 275.007 338.016 275.103 338.196 275.175C338.376 275.247 338.622 275.325 338.934 275.409C339.348 275.523 339.684 275.637 339.942 275.751C340.206 275.865 340.428 276.042 340.608 276.282C340.794 276.516 340.887 276.831 340.887 277.227C340.887 277.545 340.8 277.845 340.626 278.127C340.458 278.409 340.209 278.637 339.879 278.811C339.555 278.979 339.171 279.063 338.727 279.063ZM344.094 276.498C344.094 276 344.196 275.559 344.4 275.175C344.61 274.791 344.892 274.494 345.246 274.284C345.606 274.068 346.005 273.96 346.443 273.96C346.767 273.96 347.085 274.032 347.397 274.176C347.715 274.314 347.967 274.5 348.153 274.734V272.34H349.188V279H348.153V278.253C347.985 278.493 347.751 278.691 347.451 278.847C347.157 279.003 346.818 279.081 346.434 279.081C346.002 279.081 345.606 278.973 345.246 278.757C344.892 278.535 344.61 278.229 344.4 277.839C344.196 277.443 344.094 276.996 344.094 276.498ZM348.153 276.516C348.153 276.174 348.081 275.877 347.937 275.625C347.799 275.373 347.616 275.181 347.388 275.049C347.16 274.917 346.914 274.851 346.65 274.851C346.386 274.851 346.14 274.917 345.912 275.049C345.684 275.175 345.498 275.364 345.354 275.616C345.216 275.862 345.147 276.156 345.147 276.498C345.147 276.84 345.216 277.14 345.354 277.398C345.498 277.656 345.684 277.854 345.912 277.992C346.146 278.124 346.392 278.19 346.65 278.19C346.914 278.19 347.16 278.124 347.388 277.992C347.616 277.86 347.799 277.668 347.937 277.416C348.081 277.158 348.153 276.858 348.153 276.516ZM351.561 274.761C351.711 274.509 351.909 274.314 352.155 274.176C352.407 274.032 352.704 273.96 353.046 273.96V275.022H352.785C352.383 275.022 352.077 275.124 351.867 275.328C351.663 275.532 351.561 275.886 351.561 276.39V279H350.535V274.041H351.561V274.761ZM356.14 279.081C355.672 279.081 355.249 278.976 354.871 278.766C354.493 278.55 354.196 278.25 353.98 277.866C353.764 277.476 353.656 277.026 353.656 276.516C353.656 276.012 353.767 275.565 353.989 275.175C354.211 274.785 354.514 274.485 354.898 274.275C355.282 274.065 355.711 273.96 356.185 273.96C356.659 273.96 357.088 274.065 357.472 274.275C357.856 274.485 358.159 274.785 358.381 275.175C358.603 275.565 358.714 276.012 358.714 276.516C358.714 277.02 358.6 277.467 358.372 277.857C358.144 278.247 357.832 278.55 357.436 278.766C357.046 278.976 356.614 279.081 356.14 279.081ZM356.14 278.19C356.404 278.19 356.65 278.127 356.878 278.001C357.112 277.875 357.301 277.686 357.445 277.434C357.589 277.182 357.661 276.876 357.661 276.516C357.661 276.156 357.592 275.853 357.454 275.607C357.316 275.355 357.133 275.166 356.905 275.04C356.677 274.914 356.431 274.851 356.167 274.851C355.903 274.851 355.657 274.914 355.429 275.04C355.207 275.166 355.03 275.355 354.898 275.607C354.766 275.853 354.7 276.156 354.7 276.516C354.7 277.05 354.835 277.464 355.105 277.758C355.381 278.046 355.726 278.19 356.14 278.19ZM360.755 274.77C360.929 274.542 361.166 274.35 361.466 274.194C361.766 274.038 362.105 273.96 362.483 273.96C362.915 273.96 363.308 274.068 363.662 274.284C364.022 274.494 364.304 274.791 364.508 275.175C364.712 275.559 364.814 276 364.814 276.498C364.814 276.996 364.712 277.443 364.508 277.839C364.304 278.229 364.022 278.535 363.662 278.757C363.308 278.973 362.915 279.081 362.483 279.081C362.105 279.081 361.769 279.006 361.475 278.856C361.181 278.7 360.941 278.508 360.755 278.28V281.358H359.729V274.041H360.755V274.77ZM363.77 276.498C363.77 276.156 363.698 275.862 363.554 275.616C363.416 275.364 363.23 275.175 362.996 275.049C362.768 274.917 362.522 274.851 362.258 274.851C362 274.851 361.754 274.917 361.52 275.049C361.292 275.181 361.106 275.373 360.962 275.625C360.824 275.877 360.755 276.174 360.755 276.516C360.755 276.858 360.824 277.158 360.962 277.416C361.106 277.668 361.292 277.86 361.52 277.992C361.754 278.124 362 278.19 362.258 278.19C362.522 278.19 362.768 278.124 362.996 277.992C363.23 277.854 363.416 277.656 363.554 277.398C363.698 277.14 363.77 276.84 363.77 276.498ZM367.628 279.081C367.238 279.081 366.887 279.012 366.575 278.874C366.269 278.73 366.026 278.538 365.846 278.298C365.666 278.052 365.57 277.779 365.558 277.479H366.62C366.638 277.689 366.737 277.866 366.917 278.01C367.103 278.148 367.334 278.217 367.61 278.217C367.898 278.217 368.12 278.163 368.276 278.055C368.438 277.941 368.519 277.797 368.519 277.623C368.519 277.437 368.429 277.299 368.249 277.209C368.075 277.119 367.796 277.02 367.412 276.912C367.04 276.81 366.737 276.711 366.503 276.615C366.269 276.519 366.065 276.372 365.891 276.174C365.723 275.976 365.639 275.715 365.639 275.391C365.639 275.127 365.717 274.887 365.873 274.671C366.029 274.449 366.251 274.275 366.539 274.149C366.833 274.023 367.169 273.96 367.547 273.96C368.111 273.96 368.564 274.104 368.906 274.392C369.254 274.674 369.44 275.061 369.464 275.553H368.438C368.42 275.331 368.33 275.154 368.168 275.022C368.006 274.89 367.787 274.824 367.511 274.824C367.241 274.824 367.034 274.875 366.89 274.977C366.746 275.079 366.674 275.214 366.674 275.382C366.674 275.514 366.722 275.625 366.818 275.715C366.914 275.805 367.031 275.877 367.169 275.931C367.307 275.979 367.511 276.042 367.781 276.12C368.141 276.216 368.435 276.315 368.663 276.417C368.897 276.513 369.098 276.657 369.266 276.849C369.434 277.041 369.521 277.296 369.527 277.614C369.527 277.896 369.449 278.148 369.293 278.37C369.137 278.592 368.915 278.766 368.627 278.892C368.345 279.018 368.012 279.081 367.628 279.081Z"></path>
</svg>
