<svg xmlns="http://www.w3.org/2000/svg" fill="none" viewBox="0 0 100 80" height="80" width="100">
<path fill="black" d="M33.0113 64H31.7573L27.9843 58.291V64H26.7303V56.344H27.9843L31.7573 62.042V56.344H33.0113V64ZM37.287 64.099C36.715 64.099 36.198 63.9707 35.736 63.714C35.274 63.45 34.911 63.0833 34.647 62.614C34.383 62.1373 34.251 61.5873 34.251 60.964C34.251 60.348 34.3867 59.8017 34.658 59.325C34.9293 58.8483 35.2997 58.4817 35.769 58.225C36.2383 57.9683 36.7627 57.84 37.342 57.84C37.9213 57.84 38.4457 57.9683 38.915 58.225C39.3843 58.4817 39.7547 58.8483 40.026 59.325C40.2973 59.8017 40.433 60.348 40.433 60.964C40.433 61.58 40.2937 62.1263 40.015 62.603C39.7363 63.0797 39.355 63.45 38.871 63.714C38.3943 63.9707 37.8663 64.099 37.287 64.099ZM37.287 63.01C37.6097 63.01 37.9103 62.933 38.189 62.779C38.475 62.625 38.706 62.394 38.882 62.086C39.058 61.778 39.146 61.404 39.146 60.964C39.146 60.524 39.0617 60.1537 38.893 59.853C38.7243 59.545 38.5007 59.314 38.222 59.16C37.9433 59.006 37.6427 58.929 37.32 58.929C36.9973 58.929 36.6967 59.006 36.418 59.16C36.1467 59.314 35.9303 59.545 35.769 59.853C35.6077 60.1537 35.527 60.524 35.527 60.964C35.527 61.6167 35.692 62.1227 36.022 62.482C36.3593 62.834 36.781 63.01 37.287 63.01ZM43.1357 58.962V62.317C43.1357 62.5443 43.187 62.7093 43.2897 62.812C43.3997 62.9073 43.583 62.955 43.8397 62.955H44.6097V64H43.6197C43.055 64 42.6223 63.868 42.3217 63.604C42.021 63.34 41.8707 62.911 41.8707 62.317V58.962H41.1557V57.939H41.8707V56.432H43.1357V57.939H44.6097V58.962H43.1357ZM51.3204 60.821C51.3204 61.0483 51.3058 61.2537 51.2764 61.437H46.6454C46.6821 61.921 46.8618 62.3097 47.1844 62.603C47.5071 62.8963 47.9031 63.043 48.3724 63.043C49.0471 63.043 49.5238 62.7607 49.8024 62.196H51.1554C50.9721 62.7533 50.6384 63.2117 50.1544 63.571C49.6778 63.923 49.0838 64.099 48.3724 64.099C47.7931 64.099 47.2724 63.9707 46.8104 63.714C46.3558 63.45 45.9964 63.0833 45.7324 62.614C45.4758 62.1373 45.3474 61.5873 45.3474 60.964C45.3474 60.3407 45.4721 59.7943 45.7214 59.325C45.9781 58.8483 46.3338 58.4817 46.7884 58.225C47.2504 57.9683 47.7784 57.84 48.3724 57.84C48.9444 57.84 49.4541 57.9647 49.9014 58.214C50.3488 58.4633 50.6971 58.8153 50.9464 59.27C51.1958 59.7173 51.3204 60.2343 51.3204 60.821ZM50.0114 60.425C50.0041 59.963 49.8391 59.5927 49.5164 59.314C49.1938 59.0353 48.7941 58.896 48.3174 58.896C47.8848 58.896 47.5144 59.0353 47.2064 59.314C46.8984 59.5853 46.7151 59.9557 46.6564 60.425H50.0114ZM53.8085 58.83C54.0212 58.5513 54.3108 58.3167 54.6775 58.126C55.0442 57.9353 55.4585 57.84 55.9205 57.84C56.4485 57.84 56.9288 57.972 57.3615 58.236C57.8015 58.4927 58.1462 58.8557 58.3955 59.325C58.6448 59.7943 58.7695 60.3333 58.7695 60.942C58.7695 61.5507 58.6448 62.097 58.3955 62.581C58.1462 63.0577 57.8015 63.4317 57.3615 63.703C56.9288 63.967 56.4485 64.099 55.9205 64.099C55.4585 64.099 55.0478 64.0073 54.6885 63.824C54.3292 63.6333 54.0358 63.3987 53.8085 63.12V66.882H52.5545V57.939H53.8085V58.83ZM57.4935 60.942C57.4935 60.524 57.4055 60.1647 57.2295 59.864C57.0608 59.556 56.8335 59.325 56.5475 59.171C56.2688 59.0097 55.9682 58.929 55.6455 58.929C55.3302 58.929 55.0295 59.0097 54.7435 59.171C54.4648 59.3323 54.2375 59.567 54.0615 59.875C53.8928 60.183 53.8085 60.546 53.8085 60.964C53.8085 61.382 53.8928 61.7487 54.0615 62.064C54.2375 62.372 54.4648 62.6067 54.7435 62.768C55.0295 62.9293 55.3302 63.01 55.6455 63.01C55.9682 63.01 56.2688 62.9293 56.5475 62.768C56.8335 62.5993 57.0608 62.3573 57.2295 62.042C57.4055 61.7267 57.4935 61.36 57.4935 60.942ZM59.5916 60.942C59.5916 60.3333 59.7162 59.7943 59.9656 59.325C60.2222 58.8557 60.5669 58.4927 60.9996 58.236C61.4396 57.972 61.9236 57.84 62.4516 57.84C62.9282 57.84 63.3426 57.9353 63.6946 58.126C64.0539 58.3093 64.3399 58.5403 64.5526 58.819V57.939H65.8176V64H64.5526V63.098C64.3399 63.384 64.0502 63.6223 63.6836 63.813C63.3169 64.0037 62.8989 64.099 62.4296 64.099C61.9089 64.099 61.4322 63.967 60.9996 63.703C60.5669 63.4317 60.2222 63.0577 59.9656 62.581C59.7162 62.097 59.5916 61.5507 59.5916 60.942ZM64.5526 60.964C64.5526 60.546 64.4646 60.183 64.2886 59.875C64.1199 59.567 63.8962 59.3323 63.6176 59.171C63.3389 59.0097 63.0382 58.929 62.7156 58.929C62.3929 58.929 62.0922 59.0097 61.8136 59.171C61.5349 59.325 61.3076 59.556 61.1316 59.864C60.9629 60.1647 60.8786 60.524 60.8786 60.942C60.8786 61.36 60.9629 61.7267 61.1316 62.042C61.3076 62.3573 61.5349 62.5993 61.8136 62.768C62.0996 62.9293 62.4002 63.01 62.7156 63.01C63.0382 63.01 63.3389 62.9293 63.6176 62.768C63.8962 62.6067 64.1199 62.372 64.2886 62.064C64.4646 61.7487 64.5526 61.382 64.5526 60.964ZM67.0466 60.942C67.0466 60.3333 67.1713 59.7943 67.4206 59.325C67.6773 58.8557 68.022 58.4927 68.4546 58.236C68.8946 57.972 69.3823 57.84 69.9176 57.84C70.3136 57.84 70.7023 57.928 71.0836 58.104C71.4723 58.2727 71.7803 58.5 72.0076 58.786V55.86H73.2726V64H72.0076V63.087C71.8023 63.3803 71.5163 63.6223 71.1496 63.813C70.7903 64.0037 70.376 64.099 69.9066 64.099C69.3786 64.099 68.8946 63.967 68.4546 63.703C68.022 63.4317 67.6773 63.0577 67.4206 62.581C67.1713 62.097 67.0466 61.5507 67.0466 60.942ZM72.0076 60.964C72.0076 60.546 71.9196 60.183 71.7436 59.875C71.575 59.567 71.3513 59.3323 71.0726 59.171C70.794 59.0097 70.4933 58.929 70.1706 58.929C69.848 58.929 69.5473 59.0097 69.2686 59.171C68.99 59.325 68.7626 59.556 68.5866 59.864C68.418 60.1647 68.3336 60.524 68.3336 60.942C68.3336 61.36 68.418 61.7267 68.5866 62.042C68.7626 62.3573 68.99 62.5993 69.2686 62.768C69.5546 62.9293 69.8553 63.01 70.1706 63.01C70.4933 63.01 70.794 62.9293 71.0726 62.768C71.3513 62.6067 71.575 62.372 71.7436 62.064C71.9196 61.7487 72.0076 61.382 72.0076 60.964Z"></path>
<rect fill="url(#paint0_linear_311_278)" rx="2" height="8" width="18" y="34" x="41"></rect>
<rect fill="url(#paint1_linear_311_278)" rx="2" height="8" width="18" y="32" x="41"></rect>
<rect fill="url(#paint2_linear_311_278)" rx="2" height="19" width="18" y="19" x="41"></rect>
<rect fill="#057093" rx="1" height="3" width="2" y="18" x="43"></rect>
<rect fill="#057093" rx="1" height="3" width="2" y="18" x="47"></rect>
<rect fill="#057093" rx="1" height="3" width="2" y="18" x="51"></rect>
<rect fill="#057093" rx="1" height="3" width="2" y="18" x="55"></rect>
<rect fill="#057093" rx="1" height="2" width="12" y="24" x="44"></rect>
<rect fill="#057093" rx="1" height="2" width="12" y="28" x="44"></rect>
<rect fill="#057093" rx="1" height="2" width="12" y="32" x="44"></rect>
<defs>
<linearGradient gradientUnits="userSpaceOnUse" y2="42" x2="50" y1="40" x1="50" id="paint0_linear_311_278">
<stop stop-color="#7D3E08"></stop>
<stop stop-color="#AA540C" offset="1"></stop>
</linearGradient>
<linearGradient gradientUnits="userSpaceOnUse" y2="40" x2="50" y1="38" x1="50" id="paint1_linear_311_278">
<stop stop-color="#D3D3D3"></stop>
<stop stop-color="#E4E4E4" offset="1"></stop>
</linearGradient>
<linearGradient gradientUnits="userSpaceOnUse" y2="38" x2="50" y1="19" x1="50" id="paint2_linear_311_278">
<stop stop-color="#7DD8F3"></stop>
<stop stop-color="#57BDDC" offset="1"></stop>
</linearGradient>
</defs>
</svg>
