<svg xmlns="http://www.w3.org/2000/svg" fill="none" viewBox="0 0 44 24" height="24" width="44">
<path fill-opacity="0.5" fill="#FF0000" d="M2 12C2 6.47715 6.47715 2 12 2H32C37.5228 2 42 6.47715 42 12V12C42 17.5228 37.5228 22 32 22H12C6.47715 22 2 17.5228 2 12V12Z"></path>
<path stroke-width="2" stroke-opacity="0.2" stroke="#FF0000" d="M32 1H12C5.92487 1 1 5.92487 1 12C1 18.0751 5.92487 23 12 23H32C38.0751 23 43 18.0751 43 12C43 5.92487 38.0751 1 32 1Z"></path>
<path fill="white" d="M16.9795 8.5V7.252H19.4755V16H18.0955V8.5H16.9795ZM22.1108 14.14C22.8788 13.476 23.4828 12.932 23.9228 12.508C24.3708 12.076 24.7428 11.628 25.0388 11.164C25.3348 10.7 25.4828 10.236 25.4828 9.772C25.4828 9.292 25.3668 8.916 25.1348 8.644C24.9108 8.372 24.5548 8.236 24.0668 8.236C23.5948 8.236 23.2268 8.388 22.9628 8.692C22.7068 8.988 22.5708 9.388 22.5548 9.892H21.2348C21.2588 8.98 21.5308 8.284 22.0508 7.804C22.5788 7.316 23.2468 7.072 24.0548 7.072C24.9268 7.072 25.6068 7.312 26.0948 7.792C26.5908 8.272 26.8388 8.912 26.8388 9.712C26.8388 10.288 26.6908 10.844 26.3948 11.38C26.1068 11.908 25.7588 12.384 25.3508 12.808C24.9508 13.224 24.4388 13.708 23.8148 14.26L23.2748 14.74H27.0788V15.88H21.2468V14.884L22.1108 14.14Z"></path>
</svg>
