<svg xmlns="http://www.w3.org/2000/svg" fill="none" viewBox="0 0 44 24" height="24" width="44">
<path fill-opacity="0.5" fill="#FF0000" d="M2 12C2 6.47715 6.47715 2 12 2H32C37.5228 2 42 6.47715 42 12V12C42 17.5228 37.5228 22 32 22H12C6.47715 22 2 17.5228 2 12V12Z"></path>
<path stroke-width="2" stroke-opacity="0.2" stroke="#FF0000" d="M32 1H12C5.92487 1 1 5.92487 1 12C1 18.0751 5.92487 23 12 23H32C38.0751 23 43 18.0751 43 12C43 5.92487 38.0751 1 32 1Z"></path>
<path fill="white" d="M20.0131 14.14C20.7811 13.476 21.3851 12.932 21.8251 12.508C22.2731 12.076 22.6451 11.628 22.9411 11.164C23.2371 10.7 23.3851 10.236 23.3851 9.772C23.3851 9.292 23.2691 8.916 23.0371 8.644C22.8131 8.372 22.4571 8.236 21.9691 8.236C21.4971 8.236 21.1291 8.388 20.8651 8.692C20.6091 8.988 20.4731 9.388 20.4571 9.892H19.1371C19.1611 8.98 19.4331 8.284 19.9531 7.804C20.4811 7.316 21.1491 7.072 21.9571 7.072C22.8291 7.072 23.5091 7.312 23.9971 7.792C24.4931 8.272 24.7411 8.912 24.7411 9.712C24.7411 10.288 24.5931 10.844 24.2971 11.38C24.0091 11.908 23.6611 12.384 23.2531 12.808C22.8531 13.224 22.3411 13.708 21.7171 14.26L21.1771 14.74H24.9811V15.88H19.1491V14.884L20.0131 14.14Z"></path>
</svg>
