<svg xmlns="http://www.w3.org/2000/svg" fill="none" viewBox="0 0 480 360" height="360" width="480">
<path fill-opacity="0.9" fill="#E6E6E6" d="M10 260C10 254.477 14.4772 250 20 250H460C465.523 250 470 254.477 470 260V340C470 345.523 465.523 350 460 350H20C14.4772 350 10 345.523 10 340V260Z"></path>
<path stroke-width="2" stroke-opacity="0.2" stroke="black" d="M460 249H20C13.9249 249 9 253.925 9 260V340C9 346.075 13.9249 351 20 351H460C466.075 351 471 346.075 471 340V260C471 253.925 466.075 249 460 249Z"></path>
<rect fill-opacity="0.05" fill="black" rx="5" height="36" width="36" y="262" x="22"></rect>
<path fill="black" d="M38.2582 276.8V275.252H41.1502V284H39.4222V276.8H38.2582Z"></path>
<rect fill-opacity="0.05" fill="black" rx="5" height="36" width="36" y="262" x="62"></rect>
<path fill="black" d="M77.7187 282.104C78.4867 281.464 79.0987 280.932 79.5547 280.508C80.0107 280.076 80.3907 279.628 80.6947 279.164C80.9987 278.7 81.1507 278.244 81.1507 277.796C81.1507 277.388 81.0547 277.068 80.8627 276.836C80.6707 276.604 80.3747 276.488 79.9747 276.488C79.5747 276.488 79.2667 276.624 79.0507 276.896C78.8347 277.16 78.7227 277.524 78.7147 277.988H77.0827C77.1147 277.028 77.3987 276.3 77.9347 275.804C78.4787 275.308 79.1667 275.06 79.9987 275.06C80.9107 275.06 81.6107 275.304 82.0987 275.792C82.5867 276.272 82.8307 276.908 82.8307 277.7C82.8307 278.324 82.6627 278.92 82.3267 279.488C81.9907 280.056 81.6067 280.552 81.1747 280.976C80.7427 281.392 80.1787 281.896 79.4827 282.488H83.0227V283.88H77.0947V282.632L77.7187 282.104Z"></path>
<rect fill-opacity="0.05" fill="black" rx="5" height="36" width="36" y="262" x="102"></rect>
<path fill="black" d="M117.068 277.556C117.108 276.756 117.388 276.14 117.908 275.708C118.436 275.268 119.128 275.048 119.984 275.048C120.568 275.048 121.068 275.152 121.484 275.36C121.9 275.56 122.212 275.836 122.42 276.188C122.636 276.532 122.744 276.924 122.744 277.364C122.744 277.868 122.612 278.296 122.348 278.648C122.092 278.992 121.784 279.224 121.424 279.344V279.392C121.888 279.536 122.248 279.792 122.504 280.16C122.768 280.528 122.9 281 122.9 281.576C122.9 282.056 122.788 282.484 122.564 282.86C122.348 283.236 122.024 283.532 121.592 283.748C121.168 283.956 120.656 284.06 120.056 284.06C119.152 284.06 118.416 283.832 117.848 283.376C117.28 282.92 116.98 282.248 116.948 281.36H118.58C118.596 281.752 118.728 282.068 118.976 282.308C119.232 282.54 119.58 282.656 120.02 282.656C120.428 282.656 120.74 282.544 120.956 282.32C121.18 282.088 121.292 281.792 121.292 281.432C121.292 280.952 121.14 280.608 120.836 280.4C120.532 280.192 120.06 280.088 119.42 280.088H119.072V278.708H119.42C120.556 278.708 121.124 278.328 121.124 277.568C121.124 277.224 121.02 276.956 120.812 276.764C120.612 276.572 120.32 276.476 119.936 276.476C119.56 276.476 119.268 276.58 119.06 276.788C118.86 276.988 118.744 277.244 118.712 277.556H117.068Z"></path>
<rect fill-opacity="0.05" fill="black" rx="5" height="36" width="36" y="262" x="142"></rect>
<path fill="black" d="M156.597 282.296V280.976L160.521 275.36H162.477V280.832H163.533V282.296H162.477V284H160.797V282.296H156.597ZM160.905 277.16L158.445 280.832H160.905V277.16Z"></path>
<rect fill-opacity="0.05" fill="black" rx="5" height="36" width="36" y="262" x="182"></rect>
<path fill="black" d="M202.655 276.704H198.767V278.756C198.935 278.548 199.175 278.38 199.487 278.252C199.799 278.116 200.131 278.048 200.483 278.048C201.123 278.048 201.647 278.188 202.055 278.468C202.463 278.748 202.759 279.108 202.943 279.548C203.127 279.98 203.219 280.444 203.219 280.94C203.219 281.86 202.955 282.6 202.427 283.16C201.907 283.72 201.163 284 200.195 284C199.283 284 198.555 283.772 198.011 283.316C197.467 282.86 197.159 282.264 197.087 281.528H198.719C198.791 281.848 198.951 282.104 199.199 282.296C199.455 282.488 199.779 282.584 200.171 282.584C200.643 282.584 200.999 282.436 201.239 282.14C201.479 281.844 201.599 281.452 201.599 280.964C201.599 280.468 201.475 280.092 201.227 279.836C200.987 279.572 200.631 279.44 200.159 279.44C199.823 279.44 199.543 279.524 199.319 279.692C199.095 279.86 198.935 280.084 198.839 280.364H197.231V275.228H202.655V276.704Z"></path>
<rect fill-opacity="0.05" fill="black" rx="5" height="36" width="36" y="262" x="222"></rect>
<path fill="black" d="M241.334 277.436C241.254 277.1 241.114 276.848 240.914 276.68C240.722 276.512 240.442 276.428 240.074 276.428C239.522 276.428 239.114 276.652 238.85 277.1C238.594 277.54 238.462 278.26 238.454 279.26C238.646 278.94 238.926 278.692 239.294 278.516C239.662 278.332 240.062 278.24 240.494 278.24C241.014 278.24 241.474 278.352 241.874 278.576C242.274 278.8 242.586 279.128 242.81 279.56C243.034 279.984 243.146 280.496 243.146 281.096C243.146 281.664 243.03 282.172 242.798 282.62C242.574 283.06 242.242 283.404 241.802 283.652C241.362 283.9 240.838 284.024 240.23 284.024C239.398 284.024 238.742 283.84 238.262 283.472C237.79 283.104 237.458 282.592 237.266 281.936C237.082 281.272 236.99 280.456 236.99 279.488C236.99 278.024 237.242 276.92 237.746 276.176C238.25 275.424 239.046 275.048 240.134 275.048C240.974 275.048 241.626 275.276 242.09 275.732C242.554 276.188 242.822 276.756 242.894 277.436H241.334ZM240.11 279.62C239.686 279.62 239.33 279.744 239.042 279.992C238.754 280.24 238.61 280.6 238.61 281.072C238.61 281.544 238.742 281.916 239.006 282.188C239.278 282.46 239.658 282.596 240.146 282.596C240.578 282.596 240.918 282.464 241.166 282.2C241.422 281.936 241.55 281.58 241.55 281.132C241.55 280.668 241.426 280.3 241.178 280.028C240.938 279.756 240.582 279.62 240.11 279.62Z"></path>
<rect fill-opacity="0.05" fill="black" rx="5" height="36" width="36" y="262" x="262"></rect>
<path fill="black" d="M282.917 276.524L279.725 284H278.021L281.237 276.716H277.133V275.276H282.917V276.524Z"></path>
<rect fill-opacity="0.05" fill="black" rx="5" height="36" width="36" y="262" x="302"></rect>
<path fill="black" d="M318.245 279.368C317.445 278.952 317.045 278.308 317.045 277.436C317.045 277.004 317.153 276.612 317.369 276.26C317.593 275.9 317.925 275.616 318.365 275.408C318.813 275.192 319.357 275.084 319.997 275.084C320.637 275.084 321.177 275.192 321.617 275.408C322.065 275.616 322.397 275.9 322.613 276.26C322.837 276.612 322.949 277.004 322.949 277.436C322.949 277.876 322.841 278.264 322.625 278.6C322.409 278.928 322.121 279.184 321.761 279.368C322.201 279.56 322.545 279.84 322.793 280.208C323.041 280.576 323.165 281.012 323.165 281.516C323.165 282.06 323.025 282.536 322.745 282.944C322.473 283.344 322.097 283.652 321.617 283.868C321.137 284.084 320.597 284.192 319.997 284.192C319.397 284.192 318.857 284.084 318.377 283.868C317.905 283.652 317.529 283.344 317.249 282.944C316.977 282.536 316.841 282.06 316.841 281.516C316.841 281.012 316.965 280.576 317.213 280.208C317.461 279.832 317.805 279.552 318.245 279.368ZM321.317 277.676C321.317 277.284 321.197 276.98 320.957 276.764C320.725 276.548 320.405 276.44 319.997 276.44C319.597 276.44 319.277 276.548 319.037 276.764C318.805 276.98 318.689 277.288 318.689 277.688C318.689 278.048 318.809 278.336 319.049 278.552C319.297 278.768 319.613 278.876 319.997 278.876C320.381 278.876 320.697 278.768 320.945 278.552C321.193 278.328 321.317 278.036 321.317 277.676ZM319.997 280.1C319.541 280.1 319.169 280.216 318.881 280.448C318.601 280.68 318.461 281.012 318.461 281.444C318.461 281.844 318.597 282.172 318.869 282.428C319.149 282.676 319.525 282.8 319.997 282.8C320.469 282.8 320.841 282.672 321.113 282.416C321.385 282.16 321.521 281.836 321.521 281.444C321.521 281.02 321.381 280.692 321.101 280.46C320.821 280.22 320.453 280.1 319.997 280.1Z"></path>
<rect fill-opacity="0.05" fill="black" rx="5" height="36" width="36" y="262" x="342"></rect>
<path fill="black" d="M358.824 281.54C358.888 281.892 359.032 282.164 359.256 282.356C359.488 282.54 359.796 282.632 360.18 282.632C360.676 282.632 361.036 282.428 361.26 282.02C361.484 281.604 361.596 280.908 361.596 279.932C361.412 280.188 361.152 280.388 360.816 280.532C360.488 280.676 360.132 280.748 359.748 280.748C359.236 280.748 358.772 280.644 358.356 280.436C357.948 280.22 357.624 279.904 357.384 279.488C357.144 279.064 357.024 278.552 357.024 277.952C357.024 277.064 357.288 276.36 357.816 275.84C358.344 275.312 359.064 275.048 359.976 275.048C361.112 275.048 361.912 275.412 362.376 276.14C362.848 276.868 363.084 277.964 363.084 279.428C363.084 280.468 362.992 281.32 362.808 281.984C362.632 282.648 362.324 283.152 361.884 283.496C361.452 283.84 360.86 284.012 360.108 284.012C359.516 284.012 359.012 283.9 358.596 283.676C358.18 283.444 357.86 283.144 357.636 282.776C357.42 282.4 357.296 281.988 357.264 281.54H358.824ZM360.096 279.38C360.512 279.38 360.84 279.252 361.08 278.996C361.32 278.74 361.44 278.396 361.44 277.964C361.44 277.492 361.312 277.128 361.056 276.872C360.808 276.608 360.468 276.476 360.036 276.476C359.604 276.476 359.26 276.612 359.004 276.884C358.756 277.148 358.632 277.5 358.632 277.94C358.632 278.364 358.752 278.712 358.992 278.984C359.24 279.248 359.608 279.38 360.096 279.38Z"></path>
<rect fill-opacity="0.05" fill="black" rx="5" height="36" width="36" y="262" x="382"></rect>
<path fill="black" d="M396.757 279.512C396.757 278.128 397.005 277.044 397.501 276.26C398.005 275.476 398.837 275.084 399.997 275.084C401.157 275.084 401.985 275.476 402.481 276.26C402.985 277.044 403.237 278.128 403.237 279.512C403.237 280.904 402.985 281.996 402.481 282.788C401.985 283.58 401.157 283.976 399.997 283.976C398.837 283.976 398.005 283.58 397.501 282.788C397.005 281.996 396.757 280.904 396.757 279.512ZM401.581 279.512C401.581 278.92 401.541 278.424 401.461 278.024C401.389 277.616 401.237 277.284 401.005 277.028C400.781 276.772 400.445 276.644 399.997 276.644C399.549 276.644 399.209 276.772 398.977 277.028C398.753 277.284 398.601 277.616 398.521 278.024C398.449 278.424 398.413 278.92 398.413 279.512C398.413 280.12 398.449 280.632 398.521 281.048C398.593 281.456 398.745 281.788 398.977 282.044C399.209 282.292 399.549 282.416 399.997 282.416C400.445 282.416 400.785 282.292 401.017 282.044C401.249 281.788 401.401 281.456 401.473 281.048C401.545 280.632 401.581 280.12 401.581 279.512Z"></path>
<rect fill-opacity="0.03" fill="black" rx="5" height="36" width="36" y="262" x="422"></rect>
<path stroke-width="1.5" stroke="black" d="M437.828 274.75H446C446.69 274.75 447.25 275.31 447.25 276V284C447.25 284.69 446.69 285.25 446 285.25H437.828C437.497 285.25 437.179 285.118 436.945 284.884L432.945 280.884C432.456 280.396 432.456 279.604 432.945 279.116L436.945 275.116C437.179 274.882 437.497 274.75 437.828 274.75Z"></path>
<path stroke-linecap="round" stroke-width="1.5" stroke="black" d="M444 282L442 280M440 278L442 280M442 280L444 278M442 280L440 282"></path>
<rect fill-opacity="0.03" fill="black" rx="5" height="36" width="436" y="302" x="22"></rect>
<path stroke-linecap="round" stroke-width="1.5" stroke="black" d="M221 323L218 320M215 317L218 320M218 320L221 317M218 320L215 323"></path>
<path fill="black" d="M230.346 319.8C230.346 318.976 230.53 318.24 230.898 317.592C231.274 316.936 231.782 316.428 232.422 316.068C233.07 315.7 233.794 315.516 234.594 315.516C235.53 315.516 236.35 315.756 237.054 316.236C237.758 316.716 238.25 317.38 238.53 318.228H236.598C236.406 317.828 236.134 317.528 235.782 317.328C235.438 317.128 235.038 317.028 234.582 317.028C234.094 317.028 233.658 317.144 233.274 317.376C232.898 317.6 232.602 317.92 232.386 318.336C232.178 318.752 232.074 319.24 232.074 319.8C232.074 320.352 232.178 320.84 232.386 321.264C232.602 321.68 232.898 322.004 233.274 322.236C233.658 322.46 234.094 322.572 234.582 322.572C235.038 322.572 235.438 322.472 235.782 322.272C236.134 322.064 236.406 321.76 236.598 321.36H238.53C238.25 322.216 237.758 322.884 237.054 323.364C236.358 323.836 235.538 324.072 234.594 324.072C233.794 324.072 233.07 323.892 232.422 323.532C231.782 323.164 231.274 322.656 230.898 322.008C230.53 321.36 230.346 320.624 230.346 319.8ZM241.645 315.12V324H239.965V315.12H241.645ZM246.257 324.108C245.617 324.108 245.041 323.968 244.529 323.688C244.017 323.4 243.613 322.996 243.317 322.476C243.029 321.956 242.885 321.356 242.885 320.676C242.885 319.996 243.033 319.396 243.329 318.876C243.633 318.356 244.045 317.956 244.565 317.676C245.085 317.388 245.665 317.244 246.305 317.244C246.945 317.244 247.525 317.388 248.045 317.676C248.565 317.956 248.973 318.356 249.269 318.876C249.573 319.396 249.725 319.996 249.725 320.676C249.725 321.356 249.569 321.956 249.257 322.476C248.953 322.996 248.537 323.4 248.009 323.688C247.489 323.968 246.905 324.108 246.257 324.108ZM246.257 322.644C246.561 322.644 246.845 322.572 247.109 322.428C247.381 322.276 247.597 322.052 247.757 321.756C247.917 321.46 247.997 321.1 247.997 320.676C247.997 320.044 247.829 319.56 247.493 319.224C247.165 318.88 246.761 318.708 246.281 318.708C245.801 318.708 245.397 318.88 245.069 319.224C244.749 319.56 244.589 320.044 244.589 320.676C244.589 321.308 244.745 321.796 245.057 322.14C245.377 322.476 245.777 322.644 246.257 322.644ZM253.501 324.108C252.957 324.108 252.469 324.012 252.037 323.82C251.605 323.62 251.261 323.352 251.005 323.016C250.757 322.68 250.621 322.308 250.597 321.9H252.289C252.321 322.156 252.445 322.368 252.661 322.536C252.885 322.704 253.161 322.788 253.489 322.788C253.809 322.788 254.057 322.724 254.233 322.596C254.417 322.468 254.509 322.304 254.509 322.104C254.509 321.888 254.397 321.728 254.173 321.624C253.957 321.512 253.609 321.392 253.129 321.264C252.633 321.144 252.225 321.02 251.905 320.892C251.593 320.764 251.321 320.568 251.089 320.304C250.865 320.04 250.753 319.684 250.753 319.236C250.753 318.868 250.857 318.532 251.065 318.228C251.281 317.924 251.585 317.684 251.977 317.508C252.377 317.332 252.845 317.244 253.381 317.244C254.173 317.244 254.805 317.444 255.277 317.844C255.749 318.236 256.009 318.768 256.057 319.44H254.449C254.425 319.176 254.313 318.968 254.113 318.816C253.921 318.656 253.661 318.576 253.333 318.576C253.029 318.576 252.793 318.632 252.625 318.744C252.465 318.856 252.385 319.012 252.385 319.212C252.385 319.436 252.497 319.608 252.721 319.728C252.945 319.84 253.293 319.956 253.765 320.076C254.245 320.196 254.641 320.32 254.953 320.448C255.265 320.576 255.533 320.776 255.757 321.048C255.989 321.312 256.109 321.664 256.117 322.104C256.117 322.488 256.009 322.832 255.793 323.136C255.585 323.44 255.281 323.68 254.881 323.856C254.489 324.024 254.029 324.108 253.501 324.108ZM263.676 320.532C263.676 320.772 263.66 320.988 263.628 321.18H258.768C258.808 321.66 258.976 322.036 259.272 322.308C259.568 322.58 259.932 322.716 260.364 322.716C260.988 322.716 261.432 322.448 261.696 321.912H263.508C263.316 322.552 262.948 323.08 262.404 323.496C261.86 323.904 261.192 324.108 260.4 324.108C259.76 324.108 259.184 323.968 258.672 323.688C258.168 323.4 257.772 322.996 257.484 322.476C257.204 321.956 257.064 321.356 257.064 320.676C257.064 319.988 257.204 319.384 257.484 318.864C257.764 318.344 258.156 317.944 258.66 317.664C259.164 317.384 259.744 317.244 260.4 317.244C261.032 317.244 261.596 317.38 262.092 317.652C262.596 317.924 262.984 318.312 263.256 318.816C263.536 319.312 263.676 319.884 263.676 320.532ZM261.936 320.052C261.928 319.62 261.772 319.276 261.468 319.02C261.164 318.756 260.792 318.624 260.352 318.624C259.936 318.624 259.584 318.752 259.296 319.008C259.016 319.256 258.844 319.604 258.78 320.052H261.936Z"></path>
</svg>
