<svg xmlns="http://www.w3.org/2000/svg" fill="none" viewBox="0 0 30 30" height="30" width="30">
<path fill="url(#paint0_linear_639_471)" d="M13.9393 7H12.0603C11.8709 7 11.6977 7.10709 11.613 7.27659L11.2389 8.0257C11.1658 8.172 11.0514 8.29362 10.9098 8.37544C10.7681 8.4573 10.6055 8.49571 10.4421 8.48589L9.60769 8.43575C9.41855 8.42439 9.23923 8.52092 9.14457 8.68506L8.20463 10.3149C8.1101 10.4788 8.11619 10.682 8.22036 10.84L8.68085 11.5382C8.77135 11.6754 8.8195 11.8362 8.8193 12.0006C8.8191 12.1642 8.77097 12.3243 8.68085 12.4609L8.21975 13.16C8.11558 13.318 8.10949 13.5212 8.20402 13.6851L9.14396 15.3149C9.23862 15.4791 9.41794 15.5756 9.60708 15.5642L10.4415 15.5141C10.6049 15.5043 10.7675 15.5427 10.9092 15.6244C11.0512 15.7063 11.1659 15.8282 11.2391 15.9748L11.613 16.7234C11.6977 16.8929 11.8709 17 12.0603 17H13.9393C14.1287 17 14.3019 16.8929 14.3866 16.7234L14.7606 15.9746C14.8337 15.8281 14.9483 15.7063 15.09 15.6244C15.232 15.5423 15.3949 15.5038 15.5586 15.5136L16.3925 15.5637C16.5817 15.5751 16.761 15.4786 16.8556 15.3144L17.7956 13.6846C17.8901 13.5207 17.884 13.3175 17.7799 13.1595L17.3185 12.46C17.2285 12.3236 17.1805 12.1639 17.1803 12.0006C17.1801 11.8365 17.2282 11.676 17.3185 11.5391L17.7792 10.8405C17.8834 10.6825 17.8895 10.4793 17.795 10.3154L16.855 8.68558C16.7604 8.52144 16.5811 8.42491 16.3919 8.43628L15.558 8.48639C15.3943 8.49622 15.2314 8.45765 15.0895 8.3755C14.9481 8.29363 14.8338 8.17209 14.7608 8.02593L14.3866 7.27659C14.3019 7.10709 14.1287 7 13.9393 7Z"></path>
<path fill="url(#paint1_linear_639_471)" d="M19.0646 16H17.9326C17.7432 16 17.5701 16.107 17.4854 16.2764L17.2647 16.7178C17.2134 16.8203 17.1332 16.9055 17.0339 16.9629C16.9346 17.0201 16.8208 17.047 16.7064 17.0401L16.2137 17.0106C16.0246 16.9992 15.8454 17.0956 15.7507 17.2597L15.1847 18.24C15.09 18.404 15.0961 18.6074 15.2005 18.7655L15.472 19.1768C15.5354 19.2728 15.5692 19.3853 15.569 19.5004C15.5689 19.615 15.5352 19.727 15.472 19.8226L15.2001 20.2345C15.0957 20.3926 15.0896 20.596 15.1843 20.76L15.7503 21.7403C15.845 21.9044 16.0242 22.0008 16.2132 21.9894L16.706 21.9599C16.8203 21.953 16.9342 21.9798 17.0335 22.0371C17.133 22.0944 17.2135 22.1798 17.2648 22.2825L17.4854 22.7236C17.5701 22.893 17.7432 23 17.9326 23H19.0646C19.2539 23 19.4271 22.893 19.5118 22.7236L19.7324 22.2824C19.7837 22.1797 19.8641 22.0944 19.9634 22.037C20.0629 21.9796 20.177 21.9526 20.2916 21.9595L20.7839 21.9891C20.973 22.0004 21.1522 21.904 21.2469 21.74L21.8129 20.7597C21.9076 20.5956 21.9015 20.3922 21.7971 20.2342L21.5249 19.8219C21.4619 19.7265 21.4283 19.6147 21.4282 19.5004C21.428 19.3856 21.4617 19.2732 21.5249 19.1774L21.7967 18.7658C21.901 18.6078 21.9071 18.4044 21.8125 18.2403L21.2465 17.26C21.1518 17.096 20.9725 16.9996 20.7835 17.0109L20.2912 17.0405C20.1765 17.0474 20.0624 17.0204 19.9631 16.9629C19.8639 16.9056 19.7838 16.8204 19.7326 16.718L19.5118 16.2764C19.4271 16.107 19.2539 16 19.0646 16Z"></path>
<path fill="#D9D9D9" d="M11.5 12C11.5 11.1716 12.1716 10.5 13 10.5C13.8284 10.5 14.5 11.1716 14.5 12C14.5 12.8284 13.8284 13.5 13 13.5C12.1716 13.5 11.5 12.8284 11.5 12Z"></path>
<path fill="#D9D9D9" d="M17.5 19.5C17.5 18.9477 17.9477 18.5 18.5 18.5C19.0523 18.5 19.5 18.9477 19.5 19.5C19.5 20.0523 19.0523 20.5 18.5 20.5C17.9477 20.5 17.5 20.0523 17.5 19.5Z"></path>
<defs>
<linearGradient gradientUnits="userSpaceOnUse" y2="16.4951" x2="14.5506" y1="8.5" x1="9.54816" id="paint0_linear_639_471">
<stop stop-color="#B0B9C3"></stop>
<stop stop-color="#4D5255" offset="1"></stop>
</linearGradient>
<linearGradient gradientUnits="userSpaceOnUse" y2="22" x2="20.5298" y1="17.5" x1="16.5298" id="paint1_linear_639_471">
<stop stop-color="#68747A"></stop>
<stop stop-color="#4A4E51" offset="1"></stop>
</linearGradient>
</defs>
</svg>
