<svg xmlns="http://www.w3.org/2000/svg" fill="none" viewBox="0 0 480 180" height="180" width="480">
<path fill-opacity="0.9" fill="#1A1A1A" d="M10 30C10 24.4772 14.4772 20 20 20H460C465.523 20 470 24.4772 470 30V150C470 155.523 465.523 160 460 160H20C14.4772 160 10 155.523 10 150V30Z"></path>
<path stroke-width="2" stroke-opacity="0.2" stroke="white" d="M20 19C13.9249 19 9 23.9249 9 30V150C9 156.075 13.9249 161 20 161H460C466.075 161 471 156.075 471 150V30C471 23.9249 466.075 19 460 19H20Z"></path>
<path fill="white" d="M34.796 51L33.036 47.942H32.079V51H30.825V43.355H33.465C34.0517 43.355 34.5467 43.4577 34.95 43.663C35.3607 43.8683 35.665 44.1433 35.863 44.488C36.0683 44.8327 36.171 45.2177 36.171 45.643C36.171 46.1417 36.0243 46.5963 35.731 47.007C35.445 47.4103 35.0013 47.6853 34.4 47.832L36.292 51H34.796ZM32.079 46.941H33.465C33.9343 46.941 34.2863 46.8237 34.521 46.589C34.763 46.3543 34.884 46.039 34.884 45.643C34.884 45.247 34.7667 44.939 34.532 44.719C34.2973 44.4917 33.9417 44.378 33.465 44.378H32.079V46.941ZM43.3302 47.821C43.3302 48.0483 43.3155 48.2537 43.2862 48.437H38.6552C38.6919 48.921 38.8715 49.3097 39.1942 49.603C39.5169 49.8963 39.9129 50.043 40.3822 50.043C41.0569 50.043 41.5335 49.7607 41.8122 49.196H43.1652C42.9819 49.7533 42.6482 50.2117 42.1642 50.571C41.6875 50.923 41.0935 51.099 40.3822 51.099C39.8029 51.099 39.2822 50.9707 38.8202 50.714C38.3655 50.45 38.0062 50.0833 37.7422 49.614C37.4855 49.1373 37.3572 48.5873 37.3572 47.964C37.3572 47.3407 37.4819 46.7943 37.7312 46.325C37.9879 45.8483 38.3435 45.4817 38.7982 45.225C39.2602 44.9683 39.7882 44.84 40.3822 44.84C40.9542 44.84 41.4639 44.9647 41.9112 45.214C42.3585 45.4633 42.7069 45.8153 42.9562 46.27C43.2055 46.7173 43.3302 47.2343 43.3302 47.821ZM42.0212 47.425C42.0139 46.963 41.8489 46.5927 41.5262 46.314C41.2035 46.0353 40.8039 45.896 40.3272 45.896C39.8945 45.896 39.5242 46.0353 39.2162 46.314C38.9082 46.5853 38.7249 46.9557 38.6662 47.425H42.0212ZM44.1463 47.942C44.1463 47.3333 44.2709 46.7943 44.5203 46.325C44.7769 45.8557 45.1216 45.4927 45.5543 45.236C45.9943 44.972 46.4783 44.84 47.0063 44.84C47.4829 44.84 47.8973 44.9353 48.2493 45.126C48.6086 45.3093 48.8946 45.5403 49.1073 45.819V44.939H50.3723V51H49.1073V50.098C48.8946 50.384 48.6049 50.6223 48.2383 50.813C47.8716 51.0037 47.4536 51.099 46.9843 51.099C46.4636 51.099 45.9869 50.967 45.5543 50.703C45.1216 50.4317 44.7769 50.0577 44.5203 49.581C44.2709 49.097 44.1463 48.5507 44.1463 47.942ZM49.1073 47.964C49.1073 47.546 49.0193 47.183 48.8433 46.875C48.6746 46.567 48.4509 46.3323 48.1723 46.171C47.8936 46.0097 47.5929 45.929 47.2703 45.929C46.9476 45.929 46.6469 46.0097 46.3683 46.171C46.0896 46.325 45.8623 46.556 45.6863 46.864C45.5176 47.1647 45.4333 47.524 45.4333 47.942C45.4333 48.36 45.5176 48.7267 45.6863 49.042C45.8623 49.3573 46.0896 49.5993 46.3683 49.768C46.6543 49.9293 46.9549 50.01 47.2703 50.01C47.5929 50.01 47.8936 49.9293 48.1723 49.768C48.4509 49.6067 48.6746 49.372 48.8433 49.064C49.0193 48.7487 49.1073 48.382 49.1073 47.964ZM51.6013 47.942C51.6013 47.3333 51.726 46.7943 51.9753 46.325C52.232 45.8557 52.5767 45.4927 53.0093 45.236C53.4493 44.972 53.937 44.84 54.4723 44.84C54.8683 44.84 55.257 44.928 55.6383 45.104C56.027 45.2727 56.335 45.5 56.5623 45.786V42.86H57.8273V51H56.5623V50.087C56.357 50.3803 56.071 50.6223 55.7043 50.813C55.345 51.0037 54.9307 51.099 54.4613 51.099C53.9333 51.099 53.4493 50.967 53.0093 50.703C52.5767 50.4317 52.232 50.0577 51.9753 49.581C51.726 49.097 51.6013 48.5507 51.6013 47.942ZM56.5623 47.964C56.5623 47.546 56.4743 47.183 56.2983 46.875C56.1297 46.567 55.906 46.3323 55.6273 46.171C55.3487 46.0097 55.048 45.929 54.7253 45.929C54.4027 45.929 54.102 46.0097 53.8233 46.171C53.5447 46.325 53.3173 46.556 53.1413 46.864C52.9727 47.1647 52.8883 47.524 52.8883 47.942C52.8883 48.36 52.9727 48.7267 53.1413 49.042C53.3173 49.3573 53.5447 49.5993 53.8233 49.768C54.1093 49.9293 54.41 50.01 54.7253 50.01C55.048 50.01 55.3487 49.9293 55.6273 49.768C55.906 49.6067 56.1297 49.372 56.2983 49.064C56.4743 48.7487 56.5623 48.382 56.5623 47.964ZM64.9304 44.939L61.2124 53.849H59.9144L61.1464 50.901L58.7594 44.939H60.1564L61.8614 49.559L63.6324 44.939H64.9304ZM70.1972 45.962V49.317C70.1972 49.5443 70.2485 49.7093 70.3512 49.812C70.4612 49.9073 70.6445 49.955 70.9012 49.955H71.6712V51H70.6812C70.1165 51 69.6838 50.868 69.3832 50.604C69.0825 50.34 68.9322 49.911 68.9322 49.317V45.962H68.2172V44.939H68.9322V43.432H70.1972V44.939H71.6712V45.962H70.1972ZM75.456 51.099C74.884 51.099 74.367 50.9707 73.905 50.714C73.443 50.45 73.08 50.0833 72.816 49.614C72.552 49.1373 72.42 48.5873 72.42 47.964C72.42 47.348 72.5556 46.8017 72.827 46.325C73.0983 45.8483 73.4686 45.4817 73.938 45.225C74.4073 44.9683 74.9316 44.84 75.511 44.84C76.0903 44.84 76.6146 44.9683 77.084 45.225C77.5533 45.4817 77.9236 45.8483 78.195 46.325C78.4663 46.8017 78.602 47.348 78.602 47.964C78.602 48.58 78.4626 49.1263 78.184 49.603C77.9053 50.0797 77.524 50.45 77.04 50.714C76.5633 50.9707 76.0353 51.099 75.456 51.099ZM75.456 50.01C75.7786 50.01 76.0793 49.933 76.358 49.779C76.644 49.625 76.875 49.394 77.051 49.086C77.227 48.778 77.315 48.404 77.315 47.964C77.315 47.524 77.2306 47.1537 77.062 46.853C76.8933 46.545 76.6696 46.314 76.391 46.16C76.1123 46.006 75.8116 45.929 75.489 45.929C75.1663 45.929 74.8656 46.006 74.587 46.16C74.3156 46.314 74.0993 46.545 73.938 46.853C73.7766 47.1537 73.696 47.524 73.696 47.964C73.696 48.6167 73.861 49.1227 74.191 49.482C74.5283 49.834 74.95 50.01 75.456 50.01ZM88.254 47.821C88.254 48.0483 88.2394 48.2537 88.21 48.437H83.579C83.6157 48.921 83.7954 49.3097 84.118 49.603C84.4407 49.8963 84.8367 50.043 85.306 50.043C85.9807 50.043 86.4574 49.7607 86.736 49.196H88.089C87.9057 49.7533 87.572 50.2117 87.088 50.571C86.6114 50.923 86.0174 51.099 85.306 51.099C84.7267 51.099 84.206 50.9707 83.744 50.714C83.2894 50.45 82.93 50.0833 82.666 49.614C82.4094 49.1373 82.281 48.5873 82.281 47.964C82.281 47.3407 82.4057 46.7943 82.655 46.325C82.9117 45.8483 83.2674 45.4817 83.722 45.225C84.184 44.9683 84.712 44.84 85.306 44.84C85.878 44.84 86.3877 44.9647 86.835 45.214C87.2824 45.4633 87.6307 45.8153 87.88 46.27C88.1294 46.7173 88.254 47.2343 88.254 47.821ZM86.945 47.425C86.9377 46.963 86.7727 46.5927 86.45 46.314C86.1274 46.0353 85.7277 45.896 85.251 45.896C84.8184 45.896 84.448 46.0353 84.14 46.314C83.832 46.5853 83.6487 46.9557 83.59 47.425H86.945ZM92.0841 47.931L94.0421 51H92.6231L91.3141 48.943L90.0821 51H88.7731L90.7311 48.019L88.7731 44.939H90.1921L91.5011 46.996L92.7331 44.939H94.0421L92.0841 47.931ZM96.2313 45.83C96.444 45.5513 96.7337 45.3167 97.1003 45.126C97.467 44.9353 97.8813 44.84 98.3433 44.84C98.8713 44.84 99.3517 44.972 99.7843 45.236C100.224 45.4927 100.569 45.8557 100.818 46.325C101.068 46.7943 101.192 47.3333 101.192 47.942C101.192 48.5507 101.068 49.097 100.818 49.581C100.569 50.0577 100.224 50.4317 99.7843 50.703C99.3517 50.967 98.8713 51.099 98.3433 51.099C97.8813 51.099 97.4707 51.0073 97.1113 50.824C96.752 50.6333 96.4587 50.3987 96.2313 50.12V53.882H94.9773V44.939H96.2313V45.83ZM99.9163 47.942C99.9163 47.524 99.8283 47.1647 99.6523 46.864C99.4837 46.556 99.2563 46.325 98.9703 46.171C98.6917 46.0097 98.391 45.929 98.0683 45.929C97.753 45.929 97.4523 46.0097 97.1663 46.171C96.8877 46.3323 96.6603 46.567 96.4843 46.875C96.3157 47.183 96.2313 47.546 96.2313 47.964C96.2313 48.382 96.3157 48.7487 96.4843 49.064C96.6603 49.372 96.8877 49.6067 97.1663 49.768C97.4523 49.9293 97.753 50.01 98.0683 50.01C98.391 50.01 98.6917 49.9293 98.9703 49.768C99.2563 49.5993 99.4837 49.3573 99.6523 49.042C99.8283 48.7267 99.9163 48.36 99.9163 47.942ZM105.061 51.099C104.489 51.099 103.972 50.9707 103.51 50.714C103.048 50.45 102.685 50.0833 102.421 49.614C102.157 49.1373 102.025 48.5873 102.025 47.964C102.025 47.348 102.161 46.8017 102.432 46.325C102.704 45.8483 103.074 45.4817 103.543 45.225C104.013 44.9683 104.537 44.84 105.116 44.84C105.696 44.84 106.22 44.9683 106.689 45.225C107.159 45.4817 107.529 45.8483 107.8 46.325C108.072 46.8017 108.207 47.348 108.207 47.964C108.207 48.58 108.068 49.1263 107.789 49.603C107.511 50.0797 107.129 50.45 106.645 50.714C106.169 50.9707 105.641 51.099 105.061 51.099ZM105.061 50.01C105.384 50.01 105.685 49.933 105.963 49.779C106.249 49.625 106.48 49.394 106.656 49.086C106.832 48.778 106.92 48.404 106.92 47.964C106.92 47.524 106.836 47.1537 106.667 46.853C106.499 46.545 106.275 46.314 105.996 46.16C105.718 46.006 105.417 45.929 105.094 45.929C104.772 45.929 104.471 46.006 104.192 46.16C103.921 46.314 103.705 46.545 103.543 46.853C103.382 47.1537 103.301 47.524 103.301 47.964C103.301 48.6167 103.466 49.1227 103.796 49.482C104.134 49.834 104.555 50.01 105.061 50.01ZM110.701 45.819C110.884 45.511 111.126 45.2727 111.427 45.104C111.735 44.928 112.098 44.84 112.516 44.84V46.138H112.197C111.706 46.138 111.332 46.2627 111.075 46.512C110.826 46.7613 110.701 47.194 110.701 47.81V51H109.447V44.939H110.701V45.819ZM115.132 45.962V49.317C115.132 49.5443 115.183 49.7093 115.286 49.812C115.396 49.9073 115.579 49.955 115.836 49.955H116.606V51H115.616C115.051 51 114.618 50.868 114.318 50.604C114.017 50.34 113.867 49.911 113.867 49.317V45.962H113.152V44.939H113.867V43.432H115.132V44.939H116.606V45.962H115.132ZM119.335 43.355L119.192 48.69H118.147L118.004 43.355H119.335ZM118.708 51.077C118.48 51.077 118.29 51 118.136 50.846C117.982 50.692 117.905 50.5013 117.905 50.274C117.905 50.0467 117.982 49.856 118.136 49.702C118.29 49.548 118.48 49.471 118.708 49.471C118.928 49.471 119.115 49.548 119.269 49.702C119.423 49.856 119.5 50.0467 119.5 50.274C119.5 50.5013 119.423 50.692 119.269 50.846C119.115 51 118.928 51.077 118.708 51.077ZM127.64 51.077C126.929 51.077 126.272 50.912 125.671 50.582C125.077 50.2447 124.604 49.779 124.252 49.185C123.907 48.5837 123.735 47.909 123.735 47.161C123.735 46.413 123.907 45.742 124.252 45.148C124.604 44.554 125.077 44.092 125.671 43.762C126.272 43.4247 126.929 43.256 127.64 43.256C128.359 43.256 129.015 43.4247 129.609 43.762C130.21 44.092 130.683 44.554 131.028 45.148C131.373 45.742 131.545 46.413 131.545 47.161C131.545 47.909 131.373 48.5837 131.028 49.185C130.683 49.779 130.21 50.2447 129.609 50.582C129.015 50.912 128.359 51.077 127.64 51.077ZM127.64 49.988C128.146 49.988 128.597 49.8743 128.993 49.647C129.389 49.4123 129.697 49.0823 129.917 48.657C130.144 48.2243 130.258 47.7257 130.258 47.161C130.258 46.5963 130.144 46.1013 129.917 45.676C129.697 45.2507 129.389 44.9243 128.993 44.697C128.597 44.4697 128.146 44.356 127.64 44.356C127.134 44.356 126.683 44.4697 126.287 44.697C125.891 44.9243 125.579 45.2507 125.352 45.676C125.132 46.1013 125.022 46.5963 125.022 47.161C125.022 47.7257 125.132 48.2243 125.352 48.657C125.579 49.0823 125.891 49.4123 126.287 49.647C126.683 49.8743 127.134 49.988 127.64 49.988ZM135.837 44.84C136.314 44.84 136.739 44.939 137.113 45.137C137.494 45.335 137.791 45.6283 138.004 46.017C138.217 46.4057 138.323 46.875 138.323 47.425V51H137.08V47.612C137.08 47.0693 136.944 46.655 136.673 46.369C136.402 46.0757 136.031 45.929 135.562 45.929C135.093 45.929 134.719 46.0757 134.44 46.369C134.169 46.655 134.033 47.0693 134.033 47.612V51H132.779V44.939H134.033V45.632C134.238 45.3827 134.499 45.1883 134.814 45.049C135.137 44.9097 135.478 44.84 135.837 44.84ZM144.243 45.962V49.317C144.243 49.5443 144.294 49.7093 144.397 49.812C144.507 49.9073 144.69 49.955 144.947 49.955H145.717V51H144.727C144.162 51 143.73 50.868 143.429 50.604C143.128 50.34 142.978 49.911 142.978 49.317V45.962H142.263V44.939H142.978V43.432H144.243V44.939H145.717V45.962H144.243ZM150.008 44.84C150.47 44.84 150.881 44.939 151.24 45.137C151.607 45.335 151.893 45.6283 152.098 46.017C152.311 46.4057 152.417 46.875 152.417 47.425V51H151.174V47.612C151.174 47.0693 151.038 46.655 150.767 46.369C150.496 46.0757 150.125 45.929 149.656 45.929C149.187 45.929 148.813 46.0757 148.534 46.369C148.263 46.655 148.127 47.0693 148.127 47.612V51H146.873V42.86H148.127V45.643C148.34 45.3863 148.607 45.1883 148.93 45.049C149.26 44.9097 149.619 44.84 150.008 44.84ZM159.571 47.821C159.571 48.0483 159.557 48.2537 159.527 48.437H154.896C154.933 48.921 155.113 49.3097 155.435 49.603C155.758 49.8963 156.154 50.043 156.623 50.043C157.298 50.043 157.775 49.7607 158.053 49.196H159.406C159.223 49.7533 158.889 50.2117 158.405 50.571C157.929 50.923 157.335 51.099 156.623 51.099C156.044 51.099 155.523 50.9707 155.061 50.714C154.607 50.45 154.247 50.0833 153.983 49.614C153.727 49.1373 153.598 48.5873 153.598 47.964C153.598 47.3407 153.723 46.7943 153.972 46.325C154.229 45.8483 154.585 45.4817 155.039 45.225C155.501 44.9683 156.029 44.84 156.623 44.84C157.195 44.84 157.705 44.9647 158.152 45.214C158.6 45.4633 158.948 45.8153 159.197 46.27C159.447 46.7173 159.571 47.2343 159.571 47.821ZM158.262 47.425C158.255 46.963 158.09 46.5927 157.767 46.314C157.445 46.0353 157.045 45.896 156.568 45.896C156.136 45.896 155.765 46.0353 155.457 46.314C155.149 46.5853 154.966 46.9557 154.907 47.425H158.262ZM166.182 51.077C165.669 51.077 165.207 50.989 164.796 50.813C164.385 50.6297 164.063 50.373 163.828 50.043C163.593 49.713 163.476 49.328 163.476 48.888H164.818C164.847 49.218 164.976 49.4893 165.203 49.702C165.438 49.9147 165.764 50.021 166.182 50.021C166.615 50.021 166.952 49.9183 167.194 49.713C167.436 49.5003 167.557 49.229 167.557 48.899C167.557 48.6423 167.48 48.4333 167.326 48.272C167.179 48.1107 166.992 47.986 166.765 47.898C166.545 47.81 166.237 47.7147 165.841 47.612C165.342 47.48 164.935 47.348 164.62 47.216C164.312 47.0767 164.048 46.864 163.828 46.578C163.608 46.292 163.498 45.9107 163.498 45.434C163.498 44.994 163.608 44.609 163.828 44.279C164.048 43.949 164.356 43.696 164.752 43.52C165.148 43.344 165.606 43.256 166.127 43.256C166.868 43.256 167.473 43.443 167.942 43.817C168.419 44.1837 168.683 44.6897 168.734 45.335H167.348C167.326 45.0563 167.194 44.818 166.952 44.62C166.71 44.422 166.391 44.323 165.995 44.323C165.636 44.323 165.342 44.4147 165.115 44.598C164.888 44.7813 164.774 45.0453 164.774 45.39C164.774 45.6247 164.844 45.819 164.983 45.973C165.13 46.1197 165.313 46.237 165.533 46.325C165.753 46.413 166.054 46.5083 166.435 46.611C166.941 46.7503 167.352 46.8897 167.667 47.029C167.99 47.1683 168.261 47.3847 168.481 47.678C168.708 47.964 168.822 48.349 168.822 48.833C168.822 49.2217 168.716 49.5883 168.503 49.933C168.298 50.2777 167.993 50.5563 167.59 50.769C167.194 50.9743 166.725 51.077 166.182 51.077ZM169.884 47.964C169.884 47.3407 170.008 46.7943 170.258 46.325C170.514 45.8483 170.866 45.4817 171.314 45.225C171.761 44.9683 172.274 44.84 172.854 44.84C173.587 44.84 174.192 45.016 174.669 45.368C175.153 45.7127 175.479 46.2077 175.648 46.853H174.295C174.185 46.5523 174.009 46.3177 173.767 46.149C173.525 45.9803 173.22 45.896 172.854 45.896C172.34 45.896 171.93 46.0793 171.622 46.446C171.321 46.8053 171.171 47.3113 171.171 47.964C171.171 48.6167 171.321 49.1263 171.622 49.493C171.93 49.8597 172.34 50.043 172.854 50.043C173.58 50.043 174.06 49.724 174.295 49.086H175.648C175.472 49.702 175.142 50.1933 174.658 50.56C174.174 50.9193 173.572 51.099 172.854 51.099C172.274 51.099 171.761 50.9707 171.314 50.714C170.866 50.45 170.514 50.0833 170.258 49.614C170.008 49.1373 169.884 48.5873 169.884 47.964ZM178.151 45.819C178.335 45.511 178.577 45.2727 178.877 45.104C179.185 44.928 179.548 44.84 179.966 44.84V46.138H179.647C179.156 46.138 178.782 46.2627 178.525 46.512C178.276 46.7613 178.151 47.194 178.151 47.81V51H176.897V44.939H178.151V45.819ZM180.701 47.942C180.701 47.3333 180.826 46.7943 181.075 46.325C181.332 45.8557 181.676 45.4927 182.109 45.236C182.549 44.972 183.033 44.84 183.561 44.84C184.038 44.84 184.452 44.9353 184.804 45.126C185.163 45.3093 185.449 45.5403 185.662 45.819V44.939H186.927V51H185.662V50.098C185.449 50.384 185.16 50.6223 184.793 50.813C184.426 51.0037 184.008 51.099 183.539 51.099C183.018 51.099 182.542 50.967 182.109 50.703C181.676 50.4317 181.332 50.0577 181.075 49.581C180.826 49.097 180.701 48.5507 180.701 47.942ZM185.662 47.964C185.662 47.546 185.574 47.183 185.398 46.875C185.229 46.567 185.006 46.3323 184.727 46.171C184.448 46.0097 184.148 45.929 183.825 45.929C183.502 45.929 183.202 46.0097 182.923 46.171C182.644 46.325 182.417 46.556 182.241 46.864C182.072 47.1647 181.988 47.524 181.988 47.942C181.988 48.36 182.072 48.7267 182.241 49.042C182.417 49.3573 182.644 49.5993 182.923 49.768C183.209 49.9293 183.51 50.01 183.825 50.01C184.148 50.01 184.448 49.9293 184.727 49.768C185.006 49.6067 185.229 49.372 185.398 49.064C185.574 48.7487 185.662 48.382 185.662 47.964ZM190.037 45.962V49.317C190.037 49.5443 190.088 49.7093 190.191 49.812C190.301 49.9073 190.484 49.955 190.741 49.955H191.511V51H190.521C189.956 51 189.524 50.868 189.223 50.604C188.922 50.34 188.772 49.911 188.772 49.317V45.962H188.057V44.939H188.772V43.432H190.037V44.939H191.511V45.962H190.037ZM192.249 47.964C192.249 47.3407 192.373 46.7943 192.623 46.325C192.879 45.8483 193.231 45.4817 193.679 45.225C194.126 44.9683 194.639 44.84 195.219 44.84C195.952 44.84 196.557 45.016 197.034 45.368C197.518 45.7127 197.844 46.2077 198.013 46.853H196.66C196.55 46.5523 196.374 46.3177 196.132 46.149C195.89 45.9803 195.585 45.896 195.219 45.896C194.705 45.896 194.295 46.0793 193.987 46.446C193.686 46.8053 193.536 47.3113 193.536 47.964C193.536 48.6167 193.686 49.1263 193.987 49.493C194.295 49.8597 194.705 50.043 195.219 50.043C195.945 50.043 196.425 49.724 196.66 49.086H198.013C197.837 49.702 197.507 50.1933 197.023 50.56C196.539 50.9193 195.937 51.099 195.219 51.099C194.639 51.099 194.126 50.9707 193.679 50.714C193.231 50.45 192.879 50.0833 192.623 49.614C192.373 49.1373 192.249 48.5873 192.249 47.964ZM202.398 44.84C202.86 44.84 203.27 44.939 203.63 45.137C203.996 45.335 204.282 45.6283 204.488 46.017C204.7 46.4057 204.807 46.875 204.807 47.425V51H203.564V47.612C203.564 47.0693 203.428 46.655 203.157 46.369C202.885 46.0757 202.515 45.929 202.046 45.929C201.576 45.929 201.202 46.0757 200.924 46.369C200.652 46.655 200.517 47.0693 200.517 47.612V51H199.263V42.86H200.517V45.643C200.729 45.3863 200.997 45.1883 201.32 45.049C201.65 44.9097 202.009 44.84 202.398 44.84ZM217.403 44.939L215.522 51H214.202L212.981 46.523L211.76 51H210.44L208.548 44.939H209.824L211.089 49.812L212.376 44.939H213.685L214.917 49.79L216.171 44.939H217.403ZM223.896 47.821C223.896 48.0483 223.881 48.2537 223.852 48.437H219.221C219.257 48.921 219.437 49.3097 219.76 49.603C220.082 49.8963 220.478 50.043 220.948 50.043C221.622 50.043 222.099 49.7607 222.378 49.196H223.731C223.547 49.7533 223.214 50.2117 222.73 50.571C222.253 50.923 221.659 51.099 220.948 51.099C220.368 51.099 219.848 50.9707 219.386 50.714C218.931 50.45 218.572 50.0833 218.308 49.614C218.051 49.1373 217.923 48.5873 217.923 47.964C217.923 47.3407 218.047 46.7943 218.297 46.325C218.553 45.8483 218.909 45.4817 219.364 45.225C219.826 44.9683 220.354 44.84 220.948 44.84C221.52 44.84 222.029 44.9647 222.477 45.214C222.924 45.4633 223.272 45.8153 223.522 46.27C223.771 46.7173 223.896 47.2343 223.896 47.821ZM222.587 47.425C222.579 46.963 222.414 46.5927 222.092 46.314C221.769 46.0353 221.369 45.896 220.893 45.896C220.46 45.896 220.09 46.0353 219.782 46.314C219.474 46.5853 219.29 46.9557 219.232 47.425H222.587ZM226.384 45.841C226.596 45.5477 226.886 45.3093 227.253 45.126C227.627 44.9353 228.041 44.84 228.496 44.84C229.031 44.84 229.515 44.9683 229.948 45.225C230.38 45.4817 230.721 45.8483 230.971 46.325C231.22 46.7943 231.345 47.3333 231.345 47.942C231.345 48.5507 231.22 49.097 230.971 49.581C230.721 50.0577 230.377 50.4317 229.937 50.703C229.504 50.967 229.024 51.099 228.496 51.099C228.026 51.099 227.608 51.0073 227.242 50.824C226.882 50.6407 226.596 50.406 226.384 50.12V51H225.13V42.86H226.384V45.841ZM230.069 47.942C230.069 47.524 229.981 47.1647 229.805 46.864C229.636 46.556 229.409 46.325 229.123 46.171C228.844 46.0097 228.543 45.929 228.221 45.929C227.905 45.929 227.605 46.0097 227.319 46.171C227.04 46.3323 226.813 46.567 226.637 46.875C226.468 47.183 226.384 47.546 226.384 47.964C226.384 48.382 226.468 48.7487 226.637 49.064C226.813 49.372 227.04 49.6067 227.319 49.768C227.605 49.9293 227.905 50.01 228.221 50.01C228.543 50.01 228.844 49.9293 229.123 49.768C229.409 49.5993 229.636 49.3573 229.805 49.042C229.981 48.7267 230.069 48.36 230.069 47.942ZM234.785 51.099C234.308 51.099 233.879 51.0147 233.498 50.846C233.124 50.67 232.827 50.4353 232.607 50.142C232.387 49.8413 232.269 49.5077 232.255 49.141H233.553C233.575 49.3977 233.696 49.614 233.916 49.79C234.143 49.9587 234.425 50.043 234.763 50.043C235.115 50.043 235.386 49.977 235.577 49.845C235.775 49.7057 235.874 49.5297 235.874 49.317C235.874 49.0897 235.764 48.921 235.544 48.811C235.331 48.701 234.99 48.58 234.521 48.448C234.066 48.3233 233.696 48.2023 233.41 48.085C233.124 47.9677 232.874 47.788 232.662 47.546C232.456 47.304 232.354 46.985 232.354 46.589C232.354 46.2663 232.449 45.973 232.64 45.709C232.83 45.4377 233.102 45.225 233.454 45.071C233.813 44.917 234.224 44.84 234.686 44.84C235.375 44.84 235.929 45.016 236.347 45.368C236.772 45.7127 236.999 46.1857 237.029 46.787H235.775C235.753 46.5157 235.643 46.2993 235.445 46.138C235.247 45.9767 234.979 45.896 234.642 45.896C234.312 45.896 234.059 45.9583 233.883 46.083C233.707 46.2077 233.619 46.3727 233.619 46.578C233.619 46.7393 233.677 46.875 233.795 46.985C233.912 47.095 234.055 47.183 234.224 47.249C234.392 47.3077 234.642 47.3847 234.972 47.48C235.412 47.5973 235.771 47.7183 236.05 47.843C236.336 47.9603 236.581 48.1363 236.787 48.371C236.992 48.6057 237.098 48.9173 237.106 49.306C237.106 49.6507 237.01 49.9587 236.82 50.23C236.629 50.5013 236.358 50.714 236.006 50.868C235.661 51.022 235.254 51.099 234.785 51.099ZM239.099 44.136C238.871 44.136 238.681 44.059 238.527 43.905C238.373 43.751 238.296 43.5603 238.296 43.333C238.296 43.1057 238.373 42.915 238.527 42.761C238.681 42.607 238.871 42.53 239.099 42.53C239.319 42.53 239.506 42.607 239.66 42.761C239.814 42.915 239.891 43.1057 239.891 43.333C239.891 43.5603 239.814 43.751 239.66 43.905C239.506 44.059 239.319 44.136 239.099 44.136ZM239.715 44.939V51H238.461V44.939H239.715ZM242.824 45.962V49.317C242.824 49.5443 242.875 49.7093 242.978 49.812C243.088 49.9073 243.271 49.955 243.528 49.955H244.298V51H243.308C242.743 51 242.311 50.868 242.01 50.604C241.709 50.34 241.559 49.911 241.559 49.317V45.962H240.844V44.939H241.559V43.432H242.824V44.939H244.298V45.962H242.824ZM251.009 47.821C251.009 48.0483 250.994 48.2537 250.965 48.437H246.334C246.371 48.921 246.55 49.3097 246.873 49.603C247.196 49.8963 247.592 50.043 248.061 50.043C248.736 50.043 249.212 49.7607 249.491 49.196H250.844C250.661 49.7533 250.327 50.2117 249.843 50.571C249.366 50.923 248.772 51.099 248.061 51.099C247.482 51.099 246.961 50.9707 246.499 50.714C246.044 50.45 245.685 50.0833 245.421 49.614C245.164 49.1373 245.036 48.5873 245.036 47.964C245.036 47.3407 245.161 46.7943 245.41 46.325C245.667 45.8483 246.022 45.4817 246.477 45.225C246.939 44.9683 247.467 44.84 248.061 44.84C248.633 44.84 249.143 44.9647 249.59 45.214C250.037 45.4633 250.386 45.8153 250.635 46.27C250.884 46.7173 251.009 47.2343 251.009 47.821ZM249.7 47.425C249.693 46.963 249.528 46.5927 249.205 46.314C248.882 46.0353 248.483 45.896 248.006 45.896C247.573 45.896 247.203 46.0353 246.895 46.314C246.587 46.5853 246.404 46.9557 246.345 47.425H249.7ZM253.618 49.493L252.287 52.529H251.473L252.254 49.493H253.618ZM257.153 47.964C257.153 47.3407 257.278 46.7943 257.527 46.325C257.784 45.8483 258.136 45.4817 258.583 45.225C259.03 44.9683 259.544 44.84 260.123 44.84C260.856 44.84 261.461 45.016 261.938 45.368C262.422 45.7127 262.748 46.2077 262.917 46.853H261.564C261.454 46.5523 261.278 46.3177 261.036 46.149C260.794 45.9803 260.49 45.896 260.123 45.896C259.61 45.896 259.199 46.0793 258.891 46.446C258.59 46.8053 258.44 47.3113 258.44 47.964C258.44 48.6167 258.59 49.1263 258.891 49.493C259.199 49.8597 259.61 50.043 260.123 50.043C260.849 50.043 261.329 49.724 261.564 49.086H262.917C262.741 49.702 262.411 50.1933 261.927 50.56C261.443 50.9193 260.842 51.099 260.123 51.099C259.544 51.099 259.03 50.9707 258.583 50.714C258.136 50.45 257.784 50.0833 257.527 49.614C257.278 49.1373 257.153 48.5873 257.153 47.964ZM265.421 42.86V51H264.167V42.86H265.421ZM267.705 44.136C267.478 44.136 267.287 44.059 267.133 43.905C266.979 43.751 266.902 43.5603 266.902 43.333C266.902 43.1057 266.979 42.915 267.133 42.761C267.287 42.607 267.478 42.53 267.705 42.53C267.925 42.53 268.112 42.607 268.266 42.761C268.42 42.915 268.497 43.1057 268.497 43.333C268.497 43.5603 268.42 43.751 268.266 43.905C268.112 44.059 267.925 44.136 267.705 44.136ZM268.321 44.939V51H267.067V44.939H268.321ZM269.55 47.964C269.55 47.3407 269.674 46.7943 269.924 46.325C270.18 45.8483 270.532 45.4817 270.98 45.225C271.427 44.9683 271.94 44.84 272.52 44.84C273.253 44.84 273.858 45.016 274.335 45.368C274.819 45.7127 275.145 46.2077 275.314 46.853H273.961C273.851 46.5523 273.675 46.3177 273.433 46.149C273.191 45.9803 272.886 45.896 272.52 45.896C272.006 45.896 271.596 46.0793 271.288 46.446C270.987 46.8053 270.837 47.3113 270.837 47.964C270.837 48.6167 270.987 49.1263 271.288 49.493C271.596 49.8597 272.006 50.043 272.52 50.043C273.246 50.043 273.726 49.724 273.961 49.086H275.314C275.138 49.702 274.808 50.1933 274.324 50.56C273.84 50.9193 273.238 51.099 272.52 51.099C271.94 51.099 271.427 50.9707 270.98 50.714C270.532 50.45 270.18 50.0833 269.924 49.614C269.674 49.1373 269.55 48.5873 269.55 47.964ZM278.961 47.975L281.755 51H280.061L277.817 48.393V51H276.563V42.86H277.817V47.59L280.017 44.939H281.755L278.961 47.975ZM288.141 51.099C287.569 51.099 287.052 50.9707 286.59 50.714C286.128 50.45 285.765 50.0833 285.501 49.614C285.237 49.1373 285.105 48.5873 285.105 47.964C285.105 47.348 285.24 46.8017 285.512 46.325C285.783 45.8483 286.153 45.4817 286.623 45.225C287.092 44.9683 287.616 44.84 288.196 44.84C288.775 44.84 289.299 44.9683 289.769 45.225C290.238 45.4817 290.608 45.8483 290.88 46.325C291.151 46.8017 291.287 47.348 291.287 47.964C291.287 48.58 291.147 49.1263 290.869 49.603C290.59 50.0797 290.209 50.45 289.725 50.714C289.248 50.9707 288.72 51.099 288.141 51.099ZM288.141 50.01C288.463 50.01 288.764 49.933 289.043 49.779C289.329 49.625 289.56 49.394 289.736 49.086C289.912 48.778 290 48.404 290 47.964C290 47.524 289.915 47.1537 289.747 46.853C289.578 46.545 289.354 46.314 289.076 46.16C288.797 46.006 288.496 45.929 288.174 45.929C287.851 45.929 287.55 46.006 287.272 46.16C287 46.314 286.784 46.545 286.623 46.853C286.461 47.1537 286.381 47.524 286.381 47.964C286.381 48.6167 286.546 49.1227 286.876 49.482C287.213 49.834 287.635 50.01 288.141 50.01ZM295.584 44.84C296.061 44.84 296.486 44.939 296.86 45.137C297.242 45.335 297.539 45.6283 297.751 46.017C297.964 46.4057 298.07 46.875 298.07 47.425V51H296.827V47.612C296.827 47.0693 296.692 46.655 296.42 46.369C296.149 46.0757 295.779 45.929 295.309 45.929C294.84 45.929 294.466 46.0757 294.187 46.369C293.916 46.655 293.78 47.0693 293.78 47.612V51H292.526V44.939H293.78V45.632C293.986 45.3827 294.246 45.1883 294.561 45.049C294.884 44.9097 295.225 44.84 295.584 44.84ZM303.99 45.962V49.317C303.99 49.5443 304.041 49.7093 304.144 49.812C304.254 49.9073 304.437 49.955 304.694 49.955H305.464V51H304.474C303.909 51 303.477 50.868 303.176 50.604C302.875 50.34 302.725 49.911 302.725 49.317V45.962H302.01V44.939H302.725V43.432H303.99V44.939H305.464V45.962H303.99ZM309.755 44.84C310.217 44.84 310.628 44.939 310.987 45.137C311.354 45.335 311.64 45.6283 311.845 46.017C312.058 46.4057 312.164 46.875 312.164 47.425V51H310.921V47.612C310.921 47.0693 310.785 46.655 310.514 46.369C310.243 46.0757 309.872 45.929 309.403 45.929C308.934 45.929 308.56 46.0757 308.281 46.369C308.01 46.655 307.874 47.0693 307.874 47.612V51H306.62V42.86H307.874V45.643C308.087 45.3863 308.354 45.1883 308.677 45.049C309.007 44.9097 309.366 44.84 309.755 44.84ZM319.318 47.821C319.318 48.0483 319.304 48.2537 319.274 48.437H314.643C314.68 48.921 314.86 49.3097 315.182 49.603C315.505 49.8963 315.901 50.043 316.37 50.043C317.045 50.043 317.522 49.7607 317.8 49.196H319.153C318.97 49.7533 318.636 50.2117 318.152 50.571C317.676 50.923 317.082 51.099 316.37 51.099C315.791 51.099 315.27 50.9707 314.808 50.714C314.354 50.45 313.994 50.0833 313.73 49.614C313.474 49.1373 313.345 48.5873 313.345 47.964C313.345 47.3407 313.47 46.7943 313.719 46.325C313.976 45.8483 314.332 45.4817 314.786 45.225C315.248 44.9683 315.776 44.84 316.37 44.84C316.942 44.84 317.452 44.9647 317.899 45.214C318.347 45.4633 318.695 45.8153 318.944 46.27C319.194 46.7173 319.318 47.2343 319.318 47.821ZM318.009 47.425C318.002 46.963 317.837 46.5927 317.514 46.314C317.192 46.0353 316.792 45.896 316.315 45.896C315.883 45.896 315.512 46.0353 315.204 46.314C314.896 46.5853 314.713 46.9557 314.654 47.425H318.009ZM32.079 61.841C32.2917 61.5477 32.5813 61.3093 32.948 61.126C33.322 60.9353 33.7363 60.84 34.191 60.84C34.7263 60.84 35.2103 60.9683 35.643 61.225C36.0757 61.4817 36.4167 61.8483 36.666 62.325C36.9153 62.7943 37.04 63.3333 37.04 63.942C37.04 64.5507 36.9153 65.097 36.666 65.581C36.4167 66.0577 36.072 66.4317 35.632 66.703C35.1993 66.967 34.719 67.099 34.191 67.099C33.7217 67.099 33.3037 67.0073 32.937 66.824C32.5777 66.6407 32.2917 66.406 32.079 66.12V67H30.825V58.86H32.079V61.841ZM35.764 63.942C35.764 63.524 35.676 63.1647 35.5 62.864C35.3313 62.556 35.104 62.325 34.818 62.171C34.5393 62.0097 34.2387 61.929 33.916 61.929C33.6007 61.929 33.3 62.0097 33.014 62.171C32.7353 62.3323 32.508 62.567 32.332 62.875C32.1633 63.183 32.079 63.546 32.079 63.964C32.079 64.382 32.1633 64.7487 32.332 65.064C32.508 65.372 32.7353 65.6067 33.014 65.768C33.3 65.9293 33.6007 66.01 33.916 66.01C34.2387 66.01 34.5393 65.9293 34.818 65.768C35.104 65.5993 35.3313 65.3573 35.5 65.042C35.676 64.7267 35.764 64.36 35.764 63.942ZM43.7691 60.939V67H42.5151V66.285C42.3171 66.5343 42.0567 66.7323 41.7341 66.879C41.4187 67.0183 41.0814 67.088 40.7221 67.088C40.2454 67.088 39.8164 66.989 39.4351 66.791C39.0611 66.593 38.7641 66.2997 38.5441 65.911C38.3314 65.5223 38.2251 65.053 38.2251 64.503V60.939H39.4681V64.316C39.4681 64.8587 39.6037 65.2767 39.8751 65.57C40.1464 65.856 40.5167 65.999 40.9861 65.999C41.4554 65.999 41.8257 65.856 42.0971 65.57C42.3757 65.2767 42.5151 64.8587 42.5151 64.316V60.939H43.7691ZM46.8866 61.962V65.317C46.8866 65.5443 46.938 65.7093 47.0406 65.812C47.1506 65.9073 47.334 65.955 47.5906 65.955H48.3606V67H47.3706C46.806 67 46.3733 66.868 46.0726 66.604C45.772 66.34 45.6216 65.911 45.6216 65.317V61.962H44.9066V60.939H45.6216V59.432H46.8866V60.939H48.3606V61.962H46.8866ZM50.9794 61.962V65.317C50.9794 65.5443 51.0307 65.7093 51.1334 65.812C51.2434 65.9073 51.4267 65.955 51.6834 65.955H52.4534V67H51.4634C50.8987 67 50.4661 66.868 50.1654 66.604C49.8647 66.34 49.7144 65.911 49.7144 65.317V61.962H48.9994V60.939H49.7144V59.432H50.9794V60.939H52.4534V61.962H50.9794ZM56.2382 67.099C55.6662 67.099 55.1492 66.9707 54.6872 66.714C54.2252 66.45 53.8622 66.0833 53.5982 65.614C53.3342 65.1373 53.2022 64.5873 53.2022 63.964C53.2022 63.348 53.3378 62.8017 53.6092 62.325C53.8805 61.8483 54.2508 61.4817 54.7202 61.225C55.1895 60.9683 55.7138 60.84 56.2932 60.84C56.8725 60.84 57.3968 60.9683 57.8662 61.225C58.3355 61.4817 58.7058 61.8483 58.9772 62.325C59.2485 62.8017 59.3842 63.348 59.3842 63.964C59.3842 64.58 59.2448 65.1263 58.9662 65.603C58.6875 66.0797 58.3062 66.45 57.8222 66.714C57.3455 66.9707 56.8175 67.099 56.2382 67.099ZM56.2382 66.01C56.5608 66.01 56.8615 65.933 57.1402 65.779C57.4262 65.625 57.6572 65.394 57.8332 65.086C58.0092 64.778 58.0972 64.404 58.0972 63.964C58.0972 63.524 58.0128 63.1537 57.8442 62.853C57.6755 62.545 57.4518 62.314 57.1732 62.16C56.8945 62.006 56.5938 61.929 56.2712 61.929C55.9485 61.929 55.6478 62.006 55.3692 62.16C55.0978 62.314 54.8815 62.545 54.7202 62.853C54.5588 63.1537 54.4782 63.524 54.4782 63.964C54.4782 64.6167 54.6432 65.1227 54.9732 65.482C55.3105 65.834 55.7322 66.01 56.2382 66.01ZM63.6818 60.84C64.1585 60.84 64.5838 60.939 64.9578 61.137C65.3392 61.335 65.6362 61.6283 65.8488 62.017C66.0615 62.4057 66.1678 62.875 66.1678 63.425V67H64.9248V63.612C64.9248 63.0693 64.7892 62.655 64.5178 62.369C64.2465 62.0757 63.8762 61.929 63.4068 61.929C62.9375 61.929 62.5635 62.0757 62.2848 62.369C62.0135 62.655 61.8778 63.0693 61.8778 63.612V67H60.6238V60.939H61.8778V61.632C62.0832 61.3827 62.3435 61.1883 62.6588 61.049C62.9815 60.9097 63.3225 60.84 63.6818 60.84ZM69.1424 65.493L67.8114 68.529H66.9974L67.7784 65.493H69.1424ZM74.5585 61.962V65.317C74.5585 65.5443 74.6098 65.7093 74.7125 65.812C74.8225 65.9073 75.0058 65.955 75.2625 65.955H76.0325V67H75.0425C74.4778 67 74.0452 66.868 73.7445 66.604C73.4438 66.34 73.2935 65.911 73.2935 65.317V61.962H72.5785V60.939H73.2935V59.432H74.5585V60.939H76.0325V61.962H74.5585ZM80.3233 60.84C80.7853 60.84 81.1959 60.939 81.5553 61.137C81.9219 61.335 82.2079 61.6283 82.4133 62.017C82.6259 62.4057 82.7323 62.875 82.7323 63.425V67H81.4893V63.612C81.4893 63.0693 81.3536 62.655 81.0823 62.369C80.8109 62.0757 80.4406 61.929 79.9713 61.929C79.5019 61.929 79.1279 62.0757 78.8493 62.369C78.5779 62.655 78.4423 63.0693 78.4423 63.612V67H77.1883V58.86H78.4423V61.643C78.6549 61.3863 78.9226 61.1883 79.2453 61.049C79.5753 60.9097 79.9346 60.84 80.3233 60.84ZM89.8868 63.821C89.8868 64.0483 89.8722 64.2537 89.8428 64.437H85.2118C85.2485 64.921 85.4282 65.3097 85.7508 65.603C86.0735 65.8963 86.4695 66.043 86.9388 66.043C87.6135 66.043 88.0902 65.7607 88.3688 65.196H89.7218C89.5385 65.7533 89.2048 66.2117 88.7208 66.571C88.2442 66.923 87.6502 67.099 86.9388 67.099C86.3595 67.099 85.8388 66.9707 85.3768 66.714C84.9222 66.45 84.5628 66.0833 84.2988 65.614C84.0422 65.1373 83.9138 64.5873 83.9138 63.964C83.9138 63.3407 84.0385 62.7943 84.2878 62.325C84.5445 61.8483 84.9002 61.4817 85.3548 61.225C85.8168 60.9683 86.3448 60.84 86.9388 60.84C87.5108 60.84 88.0205 60.9647 88.4678 61.214C88.9152 61.4633 89.2635 61.8153 89.5128 62.27C89.7622 62.7173 89.8868 63.2343 89.8868 63.821ZM88.5778 63.425C88.5705 62.963 88.4055 62.5927 88.0828 62.314C87.7602 62.0353 87.3605 61.896 86.8838 61.896C86.4512 61.896 86.0808 62.0353 85.7728 62.314C85.4648 62.5853 85.2815 62.9557 85.2228 63.425H88.5778ZM94.1789 60.84C94.6556 60.84 95.0809 60.939 95.4549 61.137C95.8362 61.335 96.1332 61.6283 96.3459 62.017C96.5586 62.4057 96.6649 62.875 96.6649 63.425V67H95.4219V63.612C95.4219 63.0693 95.2862 62.655 95.0149 62.369C94.7436 62.0757 94.3732 61.929 93.9039 61.929C93.4346 61.929 93.0606 62.0757 92.7819 62.369C92.5106 62.655 92.3749 63.0693 92.3749 63.612V67H91.1209V60.939H92.3749V61.632C92.5802 61.3827 92.8406 61.1883 93.1559 61.049C93.4786 60.9097 93.8196 60.84 94.1789 60.84ZM102.376 61.819C102.559 61.511 102.801 61.2727 103.102 61.104C103.41 60.928 103.773 60.84 104.191 60.84V62.138H103.872C103.381 62.138 103.007 62.2627 102.75 62.512C102.501 62.7613 102.376 63.194 102.376 63.81V67H101.122V60.939H102.376V61.819ZM105.982 60.136C105.754 60.136 105.564 60.059 105.41 59.905C105.256 59.751 105.179 59.5603 105.179 59.333C105.179 59.1057 105.256 58.915 105.41 58.761C105.564 58.607 105.754 58.53 105.982 58.53C106.202 58.53 106.389 58.607 106.543 58.761C106.697 58.915 106.774 59.1057 106.774 59.333C106.774 59.5603 106.697 59.751 106.543 59.905C106.389 60.059 106.202 60.136 105.982 60.136ZM106.598 60.939V67H105.344V60.939H106.598ZM110.686 60.84C111.155 60.84 111.57 60.9353 111.929 61.126C112.296 61.3093 112.582 61.5403 112.787 61.819V60.939H114.052V67.099C114.052 67.6563 113.935 68.1513 113.7 68.584C113.465 69.024 113.124 69.3687 112.677 69.618C112.237 69.8673 111.709 69.992 111.093 69.992C110.272 69.992 109.59 69.7977 109.047 69.409C108.504 69.0277 108.196 68.507 108.123 67.847H109.366C109.461 68.1623 109.663 68.4153 109.971 68.606C110.286 68.804 110.66 68.903 111.093 68.903C111.599 68.903 112.006 68.749 112.314 68.441C112.629 68.133 112.787 67.6857 112.787 67.099V66.087C112.574 66.373 112.285 66.615 111.918 66.813C111.559 67.0037 111.148 67.099 110.686 67.099C110.158 67.099 109.674 66.967 109.234 66.703C108.801 66.4317 108.457 66.0577 108.2 65.581C107.951 65.097 107.826 64.5507 107.826 63.942C107.826 63.3333 107.951 62.7943 108.2 62.325C108.457 61.8557 108.801 61.4927 109.234 61.236C109.674 60.972 110.158 60.84 110.686 60.84ZM112.787 63.964C112.787 63.546 112.699 63.183 112.523 62.875C112.354 62.567 112.131 62.3323 111.852 62.171C111.573 62.0097 111.273 61.929 110.95 61.929C110.627 61.929 110.327 62.0097 110.048 62.171C109.769 62.325 109.542 62.556 109.366 62.864C109.197 63.1647 109.113 63.524 109.113 63.942C109.113 64.36 109.197 64.7267 109.366 65.042C109.542 65.3573 109.769 65.5993 110.048 65.768C110.334 65.9293 110.635 66.01 110.95 66.01C111.273 66.01 111.573 65.9293 111.852 65.768C112.131 65.6067 112.354 65.372 112.523 65.064C112.699 64.7487 112.787 64.382 112.787 63.964ZM118.834 60.84C119.296 60.84 119.707 60.939 120.066 61.137C120.433 61.335 120.719 61.6283 120.924 62.017C121.137 62.4057 121.243 62.875 121.243 63.425V67H120V63.612C120 63.0693 119.864 62.655 119.593 62.369C119.322 62.0757 118.951 61.929 118.482 61.929C118.013 61.929 117.639 62.0757 117.36 62.369C117.089 62.655 116.953 63.0693 116.953 63.612V67H115.699V58.86H116.953V61.643C117.166 61.3863 117.433 61.1883 117.756 61.049C118.086 60.9097 118.445 60.84 118.834 60.84ZM124.306 61.962V65.317C124.306 65.5443 124.357 65.7093 124.46 65.812C124.57 65.9073 124.753 65.955 125.01 65.955H125.78V67H124.79C124.225 67 123.792 66.868 123.492 66.604C123.191 66.34 123.041 65.911 123.041 65.317V61.962H122.326V60.939H123.041V59.432H124.306V60.939H125.78V61.962H124.306ZM129.375 63.964C129.375 63.3407 129.499 62.7943 129.749 62.325C130.005 61.8483 130.357 61.4817 130.805 61.225C131.252 60.9683 131.765 60.84 132.345 60.84C133.078 60.84 133.683 61.016 134.16 61.368C134.644 61.7127 134.97 62.2077 135.139 62.853H133.786C133.676 62.5523 133.5 62.3177 133.258 62.149C133.016 61.9803 132.711 61.896 132.345 61.896C131.831 61.896 131.421 62.0793 131.113 62.446C130.812 62.8053 130.662 63.3113 130.662 63.964C130.662 64.6167 130.812 65.1263 131.113 65.493C131.421 65.8597 131.831 66.043 132.345 66.043C133.071 66.043 133.551 65.724 133.786 65.086H135.139C134.963 65.702 134.633 66.1933 134.149 66.56C133.665 66.9193 133.063 67.099 132.345 67.099C131.765 67.099 131.252 66.9707 130.805 66.714C130.357 66.45 130.005 66.0833 129.749 65.614C129.499 65.1373 129.375 64.5873 129.375 63.964ZM137.642 58.86V67H136.388V58.86H137.642ZM139.927 60.136C139.7 60.136 139.509 60.059 139.355 59.905C139.201 59.751 139.124 59.5603 139.124 59.333C139.124 59.1057 139.201 58.915 139.355 58.761C139.509 58.607 139.7 58.53 139.927 58.53C140.147 58.53 140.334 58.607 140.488 58.761C140.642 58.915 140.719 59.1057 140.719 59.333C140.719 59.5603 140.642 59.751 140.488 59.905C140.334 60.059 140.147 60.136 139.927 60.136ZM140.543 60.939V67H139.289V60.939H140.543ZM141.771 63.964C141.771 63.3407 141.896 62.7943 142.145 62.325C142.402 61.8483 142.754 61.4817 143.201 61.225C143.649 60.9683 144.162 60.84 144.741 60.84C145.475 60.84 146.08 61.016 146.556 61.368C147.04 61.7127 147.367 62.2077 147.535 62.853H146.182C146.072 62.5523 145.896 62.3177 145.654 62.149C145.412 61.9803 145.108 61.896 144.741 61.896C144.228 61.896 143.817 62.0793 143.509 62.446C143.209 62.8053 143.058 63.3113 143.058 63.964C143.058 64.6167 143.209 65.1263 143.509 65.493C143.817 65.8597 144.228 66.043 144.741 66.043C145.467 66.043 145.948 65.724 146.182 65.086H147.535C147.359 65.702 147.029 66.1933 146.545 66.56C146.061 66.9193 145.46 67.099 144.741 67.099C144.162 67.099 143.649 66.9707 143.201 66.714C142.754 66.45 142.402 66.0833 142.145 65.614C141.896 65.1373 141.771 64.5873 141.771 63.964ZM151.183 63.975L153.977 67H152.283L150.039 64.393V67H148.785V58.86H150.039V63.59L152.239 60.939H153.977L151.183 63.975ZM160.362 67.099C159.79 67.099 159.273 66.9707 158.811 66.714C158.349 66.45 157.986 66.0833 157.722 65.614C157.458 65.1373 157.326 64.5873 157.326 63.964C157.326 63.348 157.462 62.8017 157.733 62.325C158.005 61.8483 158.375 61.4817 158.844 61.225C159.314 60.9683 159.838 60.84 160.417 60.84C160.997 60.84 161.521 60.9683 161.99 61.225C162.46 61.4817 162.83 61.8483 163.101 62.325C163.373 62.8017 163.508 63.348 163.508 63.964C163.508 64.58 163.369 65.1263 163.09 65.603C162.812 66.0797 162.43 66.45 161.946 66.714C161.47 66.9707 160.942 67.099 160.362 67.099ZM160.362 66.01C160.685 66.01 160.986 65.933 161.264 65.779C161.55 65.625 161.781 65.394 161.957 65.086C162.133 64.778 162.221 64.404 162.221 63.964C162.221 63.524 162.137 63.1537 161.968 62.853C161.8 62.545 161.576 62.314 161.297 62.16C161.019 62.006 160.718 61.929 160.395 61.929C160.073 61.929 159.772 62.006 159.493 62.16C159.222 62.314 159.006 62.545 158.844 62.853C158.683 63.1537 158.602 63.524 158.602 63.964C158.602 64.6167 158.767 65.1227 159.097 65.482C159.435 65.834 159.856 66.01 160.362 66.01ZM167.806 60.84C168.283 60.84 168.708 60.939 169.082 61.137C169.463 61.335 169.76 61.6283 169.973 62.017C170.186 62.4057 170.292 62.875 170.292 63.425V67H169.049V63.612C169.049 63.0693 168.913 62.655 168.642 62.369C168.371 62.0757 168 61.929 167.531 61.929C167.062 61.929 166.688 62.0757 166.409 62.369C166.138 62.655 166.002 63.0693 166.002 63.612V67H164.748V60.939H166.002V61.632C166.207 61.3827 166.468 61.1883 166.783 61.049C167.106 60.9097 167.447 60.84 167.806 60.84ZM176.212 61.962V65.317C176.212 65.5443 176.263 65.7093 176.366 65.812C176.476 65.9073 176.659 65.955 176.916 65.955H177.686V67H176.696C176.131 67 175.698 66.868 175.398 66.604C175.097 66.34 174.947 65.911 174.947 65.317V61.962H174.232V60.939H174.947V59.432H176.212V60.939H177.686V61.962H176.212ZM181.977 60.84C182.439 60.84 182.849 60.939 183.209 61.137C183.575 61.335 183.861 61.6283 184.067 62.017C184.279 62.4057 184.386 62.875 184.386 63.425V67H183.143V63.612C183.143 63.0693 183.007 62.655 182.736 62.369C182.464 62.0757 182.094 61.929 181.625 61.929C181.155 61.929 180.781 62.0757 180.503 62.369C180.231 62.655 180.096 63.0693 180.096 63.612V67H178.842V58.86H180.096V61.643C180.308 61.3863 180.576 61.1883 180.899 61.049C181.229 60.9097 181.588 60.84 181.977 60.84ZM191.54 63.821C191.54 64.0483 191.525 64.2537 191.496 64.437H186.865C186.902 64.921 187.081 65.3097 187.404 65.603C187.727 65.8963 188.123 66.043 188.592 66.043C189.267 66.043 189.743 65.7607 190.022 65.196H191.375C191.192 65.7533 190.858 66.2117 190.374 66.571C189.897 66.923 189.303 67.099 188.592 67.099C188.013 67.099 187.492 66.9707 187.03 66.714C186.575 66.45 186.216 66.0833 185.952 65.614C185.695 65.1373 185.567 64.5873 185.567 63.964C185.567 63.3407 185.692 62.7943 185.941 62.325C186.198 61.8483 186.553 61.4817 187.008 61.225C187.47 60.9683 187.998 60.84 188.592 60.84C189.164 60.84 189.674 60.9647 190.121 61.214C190.568 61.4633 190.917 61.8153 191.166 62.27C191.415 62.7173 191.54 63.2343 191.54 63.821ZM190.231 63.425C190.224 62.963 190.059 62.5927 189.736 62.314C189.413 62.0353 189.014 61.896 188.537 61.896C188.104 61.896 187.734 62.0353 187.426 62.314C187.118 62.5853 186.935 62.9557 186.876 63.425H190.231ZM196.886 58.86V67H195.632V58.86H196.886ZM199.17 60.136C198.943 60.136 198.752 60.059 198.598 59.905C198.444 59.751 198.367 59.5603 198.367 59.333C198.367 59.1057 198.444 58.915 198.598 58.761C198.752 58.607 198.943 58.53 199.17 58.53C199.39 58.53 199.577 58.607 199.731 58.761C199.885 58.915 199.962 59.1057 199.962 59.333C199.962 59.5603 199.885 59.751 199.731 59.905C199.577 60.059 199.39 60.136 199.17 60.136ZM199.786 60.939V67H198.532V60.939H199.786ZM203.632 67.099C203.156 67.099 202.727 67.0147 202.345 66.846C201.971 66.67 201.674 66.4353 201.454 66.142C201.234 65.8413 201.117 65.5077 201.102 65.141H202.4C202.422 65.3977 202.543 65.614 202.763 65.79C202.991 65.9587 203.273 66.043 203.61 66.043C203.962 66.043 204.234 65.977 204.424 65.845C204.622 65.7057 204.721 65.5297 204.721 65.317C204.721 65.0897 204.611 64.921 204.391 64.811C204.179 64.701 203.838 64.58 203.368 64.448C202.914 64.3233 202.543 64.2023 202.257 64.085C201.971 63.9677 201.722 63.788 201.509 63.546C201.304 63.304 201.201 62.985 201.201 62.589C201.201 62.2663 201.297 61.973 201.487 61.709C201.678 61.4377 201.949 61.225 202.301 61.071C202.661 60.917 203.071 60.84 203.533 60.84C204.223 60.84 204.776 61.016 205.194 61.368C205.62 61.7127 205.847 62.1857 205.876 62.787H204.622C204.6 62.5157 204.49 62.2993 204.292 62.138C204.094 61.9767 203.827 61.896 203.489 61.896C203.159 61.896 202.906 61.9583 202.73 62.083C202.554 62.2077 202.466 62.3727 202.466 62.578C202.466 62.7393 202.525 62.875 202.642 62.985C202.76 63.095 202.903 63.183 203.071 63.249C203.24 63.3077 203.489 63.3847 203.819 63.48C204.259 63.5973 204.619 63.7183 204.897 63.843C205.183 63.9603 205.429 64.1363 205.634 64.371C205.84 64.6057 205.946 64.9173 205.953 65.306C205.953 65.6507 205.858 65.9587 205.667 66.23C205.477 66.5013 205.205 66.714 204.853 66.868C204.509 67.022 204.102 67.099 203.632 67.099ZM208.771 61.962V65.317C208.771 65.5443 208.823 65.7093 208.925 65.812C209.035 65.9073 209.219 65.955 209.475 65.955H210.245V67H209.255C208.691 67 208.258 66.868 207.957 66.604C207.657 66.34 207.506 65.911 207.506 65.317V61.962H206.791V60.939H207.506V59.432H208.771V60.939H210.245V61.962H208.771ZM215.513 61.841C215.725 61.5477 216.015 61.3093 216.382 61.126C216.756 60.9353 217.17 60.84 217.625 60.84C218.16 60.84 218.644 60.9683 219.077 61.225C219.509 61.4817 219.85 61.8483 220.1 62.325C220.349 62.7943 220.474 63.3333 220.474 63.942C220.474 64.5507 220.349 65.097 220.1 65.581C219.85 66.0577 219.506 66.4317 219.066 66.703C218.633 66.967 218.153 67.099 217.625 67.099C217.155 67.099 216.737 67.0073 216.371 66.824C216.011 66.6407 215.725 66.406 215.513 66.12V67H214.259V58.86H215.513V61.841ZM219.198 63.942C219.198 63.524 219.11 63.1647 218.934 62.864C218.765 62.556 218.538 62.325 218.252 62.171C217.973 62.0097 217.672 61.929 217.35 61.929C217.034 61.929 216.734 62.0097 216.448 62.171C216.169 62.3323 215.942 62.567 215.766 62.875C215.597 63.183 215.513 63.546 215.513 63.964C215.513 64.382 215.597 64.7487 215.766 65.064C215.942 65.372 216.169 65.6067 216.448 65.768C216.734 65.9293 217.034 66.01 217.35 66.01C217.672 66.01 217.973 65.9293 218.252 65.768C218.538 65.5993 218.765 65.3573 218.934 65.042C219.11 64.7267 219.198 64.36 219.198 63.942ZM227.269 63.821C227.269 64.0483 227.254 64.2537 227.225 64.437H222.594C222.63 64.921 222.81 65.3097 223.133 65.603C223.455 65.8963 223.851 66.043 224.321 66.043C224.995 66.043 225.472 65.7607 225.751 65.196H227.104C226.92 65.7533 226.587 66.2117 226.103 66.571C225.626 66.923 225.032 67.099 224.321 67.099C223.741 67.099 223.221 66.9707 222.759 66.714C222.304 66.45 221.945 66.0833 221.681 65.614C221.424 65.1373 221.296 64.5873 221.296 63.964C221.296 63.3407 221.42 62.7943 221.67 62.325C221.926 61.8483 222.282 61.4817 222.737 61.225C223.199 60.9683 223.727 60.84 224.321 60.84C224.893 60.84 225.402 60.9647 225.85 61.214C226.297 61.4633 226.645 61.8153 226.895 62.27C227.144 62.7173 227.269 63.2343 227.269 63.821ZM225.96 63.425C225.952 62.963 225.787 62.5927 225.465 62.314C225.142 62.0353 224.742 61.896 224.266 61.896C223.833 61.896 223.463 62.0353 223.155 62.314C222.847 62.5853 222.663 62.9557 222.605 63.425H225.96ZM229.757 58.86V67H228.503V58.86H229.757ZM234.032 67.099C233.46 67.099 232.943 66.9707 232.481 66.714C232.019 66.45 231.656 66.0833 231.392 65.614C231.128 65.1373 230.996 64.5873 230.996 63.964C230.996 63.348 231.132 62.8017 231.403 62.325C231.674 61.8483 232.045 61.4817 232.514 61.225C232.983 60.9683 233.508 60.84 234.087 60.84C234.666 60.84 235.191 60.9683 235.66 61.225C236.129 61.4817 236.5 61.8483 236.771 62.325C237.042 62.8017 237.178 63.348 237.178 63.964C237.178 64.58 237.039 65.1263 236.76 65.603C236.481 66.0797 236.1 66.45 235.616 66.714C235.139 66.9707 234.611 67.099 234.032 67.099ZM234.032 66.01C234.355 66.01 234.655 65.933 234.934 65.779C235.22 65.625 235.451 65.394 235.627 65.086C235.803 64.778 235.891 64.404 235.891 63.964C235.891 63.524 235.807 63.1537 235.638 62.853C235.469 62.545 235.246 62.314 234.967 62.16C234.688 62.006 234.388 61.929 234.065 61.929C233.742 61.929 233.442 62.006 233.163 62.16C232.892 62.314 232.675 62.545 232.514 62.853C232.353 63.1537 232.272 63.524 232.272 63.964C232.272 64.6167 232.437 65.1227 232.767 65.482C233.104 65.834 233.526 66.01 234.032 66.01ZM246.558 60.939L244.677 67H243.357L242.136 62.523L240.915 67H239.595L237.703 60.939H238.979L240.244 65.812L241.531 60.939H242.84L244.072 65.79L245.326 60.939H246.558ZM249.934 63.942C249.934 63.3333 250.059 62.7943 250.308 62.325C250.565 61.8557 250.91 61.4927 251.342 61.236C251.782 60.972 252.266 60.84 252.794 60.84C253.271 60.84 253.685 60.9353 254.037 61.126C254.397 61.3093 254.683 61.5403 254.895 61.819V60.939H256.16V67H254.895V66.098C254.683 66.384 254.393 66.6223 254.026 66.813C253.66 67.0037 253.242 67.099 252.772 67.099C252.252 67.099 251.775 66.967 251.342 66.703C250.91 66.4317 250.565 66.0577 250.308 65.581C250.059 65.097 249.934 64.5507 249.934 63.942ZM254.895 63.964C254.895 63.546 254.807 63.183 254.631 62.875C254.463 62.567 254.239 62.3323 253.96 62.171C253.682 62.0097 253.381 61.929 253.058 61.929C252.736 61.929 252.435 62.0097 252.156 62.171C251.878 62.325 251.65 62.556 251.474 62.864C251.306 63.1647 251.221 63.524 251.221 63.942C251.221 64.36 251.306 64.7267 251.474 65.042C251.65 65.3573 251.878 65.5993 252.156 65.768C252.442 65.9293 252.743 66.01 253.058 66.01C253.381 66.01 253.682 65.9293 253.96 65.768C254.239 65.6067 254.463 65.372 254.631 65.064C254.807 64.7487 254.895 64.382 254.895 63.964ZM260.865 60.84C261.342 60.84 261.767 60.939 262.141 61.137C262.523 61.335 262.82 61.6283 263.032 62.017C263.245 62.4057 263.351 62.875 263.351 63.425V67H262.108V63.612C262.108 63.0693 261.973 62.655 261.701 62.369C261.43 62.0757 261.06 61.929 260.59 61.929C260.121 61.929 259.747 62.0757 259.468 62.369C259.197 62.655 259.061 63.0693 259.061 63.612V67H257.807V60.939H259.061V61.632C259.267 61.3827 259.527 61.1883 259.842 61.049C260.165 60.9097 260.506 60.84 260.865 60.84ZM264.533 63.942C264.533 63.3333 264.658 62.7943 264.907 62.325C265.164 61.8557 265.508 61.4927 265.941 61.236C266.381 60.972 266.869 60.84 267.404 60.84C267.8 60.84 268.189 60.928 268.57 61.104C268.959 61.2727 269.267 61.5 269.494 61.786V58.86H270.759V67H269.494V66.087C269.289 66.3803 269.003 66.6223 268.636 66.813C268.277 67.0037 267.862 67.099 267.393 67.099C266.865 67.099 266.381 66.967 265.941 66.703C265.508 66.4317 265.164 66.0577 264.907 65.581C264.658 65.097 264.533 64.5507 264.533 63.942ZM269.494 63.964C269.494 63.546 269.406 63.183 269.23 62.875C269.061 62.567 268.838 62.3323 268.559 62.171C268.28 62.0097 267.98 61.929 267.657 61.929C267.334 61.929 267.034 62.0097 266.755 62.171C266.476 62.325 266.249 62.556 266.073 62.864C265.904 63.1647 265.82 63.524 265.82 63.942C265.82 64.36 265.904 64.7267 266.073 65.042C266.249 65.3573 266.476 65.5993 266.755 65.768C267.041 65.9293 267.342 66.01 267.657 66.01C267.98 66.01 268.28 65.9293 268.559 65.768C268.838 65.6067 269.061 65.372 269.23 65.064C269.406 64.7487 269.494 64.382 269.494 63.964ZM280.818 63.821C280.818 64.0483 280.804 64.2537 280.774 64.437H276.143C276.18 64.921 276.36 65.3097 276.682 65.603C277.005 65.8963 277.401 66.043 277.87 66.043C278.545 66.043 279.022 65.7607 279.3 65.196H280.653C280.47 65.7533 280.136 66.2117 279.652 66.571C279.176 66.923 278.582 67.099 277.87 67.099C277.291 67.099 276.77 66.9707 276.308 66.714C275.854 66.45 275.494 66.0833 275.23 65.614C274.974 65.1373 274.845 64.5873 274.845 63.964C274.845 63.3407 274.97 62.7943 275.219 62.325C275.476 61.8483 275.832 61.4817 276.286 61.225C276.748 60.9683 277.276 60.84 277.87 60.84C278.442 60.84 278.952 60.9647 279.399 61.214C279.847 61.4633 280.195 61.8153 280.444 62.27C280.694 62.7173 280.818 63.2343 280.818 63.821ZM279.509 63.425C279.502 62.963 279.337 62.5927 279.014 62.314C278.692 62.0353 278.292 61.896 277.815 61.896C277.383 61.896 277.012 62.0353 276.704 62.314C276.396 62.5853 276.213 62.9557 276.154 63.425H279.509ZM284.649 63.931L286.607 67H285.188L283.879 64.943L282.647 67H281.338L283.296 64.019L281.338 60.939H282.757L284.066 62.996L285.298 60.939H286.607L284.649 63.931ZM288.796 61.83C289.008 61.5513 289.298 61.3167 289.665 61.126C290.031 60.9353 290.446 60.84 290.908 60.84C291.436 60.84 291.916 60.972 292.349 61.236C292.789 61.4927 293.133 61.8557 293.383 62.325C293.632 62.7943 293.757 63.3333 293.757 63.942C293.757 64.5507 293.632 65.097 293.383 65.581C293.133 66.0577 292.789 66.4317 292.349 66.703C291.916 66.967 291.436 67.099 290.908 67.099C290.446 67.099 290.035 67.0073 289.676 66.824C289.316 66.6333 289.023 66.3987 288.796 66.12V69.882H287.542V60.939H288.796V61.83ZM292.481 63.942C292.481 63.524 292.393 63.1647 292.217 62.864C292.048 62.556 291.821 62.325 291.535 62.171C291.256 62.0097 290.955 61.929 290.633 61.929C290.317 61.929 290.017 62.0097 289.731 62.171C289.452 62.3323 289.225 62.567 289.049 62.875C288.88 63.183 288.796 63.546 288.796 63.964C288.796 64.382 288.88 64.7487 289.049 65.064C289.225 65.372 289.452 65.6067 289.731 65.768C290.017 65.9293 290.317 66.01 290.633 66.01C290.955 66.01 291.256 65.9293 291.535 65.768C291.821 65.5993 292.048 65.3573 292.217 65.042C292.393 64.7267 292.481 64.36 292.481 63.942ZM297.626 67.099C297.054 67.099 296.537 66.9707 296.075 66.714C295.613 66.45 295.25 66.0833 294.986 65.614C294.722 65.1373 294.59 64.5873 294.59 63.964C294.59 63.348 294.726 62.8017 294.997 62.325C295.268 61.8483 295.639 61.4817 296.108 61.225C296.577 60.9683 297.102 60.84 297.681 60.84C298.26 60.84 298.785 60.9683 299.254 61.225C299.723 61.4817 300.094 61.8483 300.365 62.325C300.636 62.8017 300.772 63.348 300.772 63.964C300.772 64.58 300.633 65.1263 300.354 65.603C300.075 66.0797 299.694 66.45 299.21 66.714C298.733 66.9707 298.205 67.099 297.626 67.099ZM297.626 66.01C297.949 66.01 298.249 65.933 298.528 65.779C298.814 65.625 299.045 65.394 299.221 65.086C299.397 64.778 299.485 64.404 299.485 63.964C299.485 63.524 299.401 63.1537 299.232 62.853C299.063 62.545 298.84 62.314 298.561 62.16C298.282 62.006 297.982 61.929 297.659 61.929C297.336 61.929 297.036 62.006 296.757 62.16C296.486 62.314 296.269 62.545 296.108 62.853C295.947 63.1537 295.866 63.524 295.866 63.964C295.866 64.6167 296.031 65.1227 296.361 65.482C296.698 65.834 297.12 66.01 297.626 66.01ZM303.266 61.819C303.449 61.511 303.691 61.2727 303.992 61.104C304.3 60.928 304.663 60.84 305.081 60.84V62.138H304.762C304.27 62.138 303.896 62.2627 303.64 62.512C303.39 62.7613 303.266 63.194 303.266 63.81V67H302.012V60.939H303.266V61.819ZM307.696 61.962V65.317C307.696 65.5443 307.748 65.7093 307.85 65.812C307.96 65.9073 308.144 65.955 308.4 65.955H309.17V67H308.18C307.616 67 307.183 66.868 306.882 66.604C306.582 66.34 306.431 65.911 306.431 65.317V61.962H305.716V60.939H306.431V59.432H307.696V60.939H309.17V61.962H307.696ZM313.821 60.136C313.594 60.136 313.403 60.059 313.249 59.905C313.095 59.751 313.018 59.5603 313.018 59.333C313.018 59.1057 313.095 58.915 313.249 58.761C313.403 58.607 313.594 58.53 313.821 58.53C314.041 58.53 314.228 58.607 314.382 58.761C314.536 58.915 314.613 59.1057 314.613 59.333C314.613 59.5603 314.536 59.751 314.382 59.905C314.228 60.059 314.041 60.136 313.821 60.136ZM314.437 60.939V67H313.183V60.939H314.437ZM317.547 61.962V65.317C317.547 65.5443 317.598 65.7093 317.701 65.812C317.811 65.9073 317.994 65.955 318.251 65.955H319.021V67H318.031C317.466 67 317.033 66.868 316.733 66.604C316.432 66.34 316.282 65.911 316.282 65.317V61.962H315.567V60.939H316.282V59.432H317.547V60.939H319.021V61.962H317.547ZM320.683 67.077C320.455 67.077 320.265 67 320.111 66.846C319.957 66.692 319.88 66.5013 319.88 66.274C319.88 66.0467 319.957 65.856 320.111 65.702C320.265 65.548 320.455 65.471 320.683 65.471C320.903 65.471 321.09 65.548 321.244 65.702C321.398 65.856 321.475 66.0467 321.475 66.274C321.475 66.5013 321.398 66.692 321.244 66.846C321.09 67 320.903 67.077 320.683 67.077Z"></path>
<rect fill="#0094FF" rx="5" height="24" width="64" y="35" x="325"></rect>
<path fill="white" d="M336.77 50.063C336.35 50.063 335.972 49.991 335.636 49.847C335.3 49.697 335.036 49.487 334.844 49.217C334.652 48.947 334.556 48.632 334.556 48.272H335.654C335.678 48.542 335.783 48.764 335.969 48.938C336.161 49.112 336.428 49.199 336.77 49.199C337.124 49.199 337.4 49.115 337.598 48.947C337.796 48.773 337.895 48.551 337.895 48.281C337.895 48.071 337.832 47.9 337.706 47.768C337.586 47.636 337.433 47.534 337.247 47.462C337.067 47.39 336.815 47.312 336.491 47.228C336.083 47.12 335.75 47.012 335.492 46.904C335.24 46.79 335.024 46.616 334.844 46.382C334.664 46.148 334.574 45.836 334.574 45.446C334.574 45.086 334.664 44.771 334.844 44.501C335.024 44.231 335.276 44.024 335.6 43.88C335.924 43.736 336.299 43.664 336.725 43.664C337.331 43.664 337.826 43.817 338.21 44.123C338.6 44.423 338.816 44.837 338.858 45.365H337.724C337.706 45.137 337.598 44.942 337.4 44.78C337.202 44.618 336.941 44.537 336.617 44.537C336.323 44.537 336.083 44.612 335.897 44.762C335.711 44.912 335.618 45.128 335.618 45.41C335.618 45.602 335.675 45.761 335.789 45.887C335.909 46.007 336.059 46.103 336.239 46.175C336.419 46.247 336.665 46.325 336.977 46.409C337.391 46.523 337.727 46.637 337.985 46.751C338.249 46.865 338.471 47.042 338.651 47.282C338.837 47.516 338.93 47.831 338.93 48.227C338.93 48.545 338.843 48.845 338.669 49.127C338.501 49.409 338.252 49.637 337.922 49.811C337.598 49.979 337.214 50.063 336.77 50.063ZM344.686 47.399C344.686 47.585 344.674 47.753 344.65 47.903H340.861C340.891 48.299 341.038 48.617 341.302 48.857C341.566 49.097 341.89 49.217 342.274 49.217C342.826 49.217 343.216 48.986 343.444 48.524H344.551C344.401 48.98 344.128 49.355 343.732 49.649C343.342 49.937 342.856 50.081 342.274 50.081C341.8 50.081 341.374 49.976 340.996 49.766C340.624 49.55 340.33 49.25 340.114 48.866C339.904 48.476 339.799 48.026 339.799 47.516C339.799 47.006 339.901 46.559 340.105 46.175C340.315 45.785 340.606 45.485 340.978 45.275C341.356 45.065 341.788 44.96 342.274 44.96C342.742 44.96 343.159 45.062 343.525 45.266C343.891 45.47 344.176 45.758 344.38 46.13C344.584 46.496 344.686 46.919 344.686 47.399ZM343.615 47.075C343.609 46.697 343.474 46.394 343.21 46.166C342.946 45.938 342.619 45.824 342.229 45.824C341.875 45.824 341.572 45.938 341.32 46.166C341.068 46.388 340.918 46.691 340.87 47.075H343.615ZM350.241 47.399C350.241 47.585 350.229 47.753 350.205 47.903H346.416C346.446 48.299 346.593 48.617 346.857 48.857C347.121 49.097 347.445 49.217 347.829 49.217C348.381 49.217 348.771 48.986 348.999 48.524H350.106C349.956 48.98 349.683 49.355 349.287 49.649C348.897 49.937 348.411 50.081 347.829 50.081C347.355 50.081 346.929 49.976 346.551 49.766C346.179 49.55 345.885 49.25 345.669 48.866C345.459 48.476 345.354 48.026 345.354 47.516C345.354 47.006 345.456 46.559 345.66 46.175C345.87 45.785 346.161 45.485 346.533 45.275C346.911 45.065 347.343 44.96 347.829 44.96C348.297 44.96 348.714 45.062 349.08 45.266C349.446 45.47 349.731 45.758 349.935 46.13C350.139 46.496 350.241 46.919 350.241 47.399ZM349.17 47.075C349.164 46.697 349.029 46.394 348.765 46.166C348.501 45.938 348.174 45.824 347.784 45.824C347.43 45.824 347.127 45.938 346.875 46.166C346.623 46.388 346.473 46.691 346.425 47.075H349.17ZM354.11 44.384C353.924 44.384 353.768 44.321 353.642 44.195C353.516 44.069 353.453 43.913 353.453 43.727C353.453 43.541 353.516 43.385 353.642 43.259C353.768 43.133 353.924 43.07 354.11 43.07C354.29 43.07 354.443 43.133 354.569 43.259C354.695 43.385 354.758 43.541 354.758 43.727C354.758 43.913 354.695 44.069 354.569 44.195C354.443 44.321 354.29 44.384 354.11 44.384ZM354.614 45.041V50H353.588V45.041H354.614ZM358.463 44.96C358.853 44.96 359.201 45.041 359.507 45.203C359.819 45.365 360.062 45.605 360.236 45.923C360.41 46.241 360.497 46.625 360.497 47.075V50H359.48V47.228C359.48 46.784 359.369 46.445 359.147 46.211C358.925 45.971 358.622 45.851 358.238 45.851C357.854 45.851 357.548 45.971 357.32 46.211C357.098 46.445 356.987 46.784 356.987 47.228V50H355.961V45.041H356.987V45.608C357.155 45.404 357.368 45.245 357.626 45.131C357.89 45.017 358.169 44.96 358.463 44.96ZM363.606 50.081C363.216 50.081 362.865 50.012 362.553 49.874C362.247 49.73 362.004 49.538 361.824 49.298C361.644 49.052 361.548 48.779 361.536 48.479H362.598C362.616 48.689 362.715 48.866 362.895 49.01C363.081 49.148 363.312 49.217 363.588 49.217C363.876 49.217 364.098 49.163 364.254 49.055C364.416 48.941 364.497 48.797 364.497 48.623C364.497 48.437 364.407 48.299 364.227 48.209C364.053 48.119 363.774 48.02 363.39 47.912C363.018 47.81 362.715 47.711 362.481 47.615C362.247 47.519 362.043 47.372 361.869 47.174C361.701 46.976 361.617 46.715 361.617 46.391C361.617 46.127 361.695 45.887 361.851 45.671C362.007 45.449 362.229 45.275 362.517 45.149C362.811 45.023 363.147 44.96 363.525 44.96C364.089 44.96 364.542 45.104 364.884 45.392C365.232 45.674 365.418 46.061 365.442 46.553H364.416C364.398 46.331 364.308 46.154 364.146 46.022C363.984 45.89 363.765 45.824 363.489 45.824C363.219 45.824 363.012 45.875 362.868 45.977C362.724 46.079 362.652 46.214 362.652 46.382C362.652 46.514 362.7 46.625 362.796 46.715C362.892 46.805 363.009 46.877 363.147 46.931C363.285 46.979 363.489 47.042 363.759 47.12C364.119 47.216 364.413 47.315 364.641 47.417C364.875 47.513 365.076 47.657 365.244 47.849C365.412 48.041 365.499 48.296 365.505 48.614C365.505 48.896 365.427 49.148 365.271 49.37C365.115 49.592 364.893 49.766 364.605 49.892C364.323 50.018 363.99 50.081 363.606 50.081ZM367.135 44.384C366.949 44.384 366.793 44.321 366.667 44.195C366.541 44.069 366.478 43.913 366.478 43.727C366.478 43.541 366.541 43.385 366.667 43.259C366.793 43.133 366.949 43.07 367.135 43.07C367.315 43.07 367.468 43.133 367.594 43.259C367.72 43.385 367.783 43.541 367.783 43.727C367.783 43.913 367.72 44.069 367.594 44.195C367.468 44.321 367.315 44.384 367.135 44.384ZM367.639 45.041V50H366.613V45.041H367.639ZM368.645 47.498C368.645 47 368.747 46.559 368.951 46.175C369.161 45.791 369.443 45.494 369.797 45.284C370.157 45.068 370.556 44.96 370.994 44.96C371.318 44.96 371.636 45.032 371.948 45.176C372.266 45.314 372.518 45.5 372.704 45.734V43.34H373.739V50H372.704V49.253C372.536 49.493 372.302 49.691 372.002 49.847C371.708 50.003 371.369 50.081 370.985 50.081C370.553 50.081 370.157 49.973 369.797 49.757C369.443 49.535 369.161 49.229 368.951 48.839C368.747 48.443 368.645 47.996 368.645 47.498ZM372.704 47.516C372.704 47.174 372.632 46.877 372.488 46.625C372.35 46.373 372.167 46.181 371.939 46.049C371.711 45.917 371.465 45.851 371.201 45.851C370.937 45.851 370.691 45.917 370.463 46.049C370.235 46.175 370.049 46.364 369.905 46.616C369.767 46.862 369.698 47.156 369.698 47.498C369.698 47.84 369.767 48.14 369.905 48.398C370.049 48.656 370.235 48.854 370.463 48.992C370.697 49.124 370.943 49.19 371.201 49.19C371.465 49.19 371.711 49.124 371.939 48.992C372.167 48.86 372.35 48.668 372.488 48.416C372.632 48.158 372.704 47.858 372.704 47.516ZM379.631 47.399C379.631 47.585 379.619 47.753 379.595 47.903H375.806C375.836 48.299 375.983 48.617 376.247 48.857C376.511 49.097 376.835 49.217 377.219 49.217C377.771 49.217 378.161 48.986 378.389 48.524H379.496C379.346 48.98 379.073 49.355 378.677 49.649C378.287 49.937 377.801 50.081 377.219 50.081C376.745 50.081 376.319 49.976 375.941 49.766C375.569 49.55 375.275 49.25 375.059 48.866C374.849 48.476 374.744 48.026 374.744 47.516C374.744 47.006 374.846 46.559 375.05 46.175C375.26 45.785 375.551 45.485 375.923 45.275C376.301 45.065 376.733 44.96 377.219 44.96C377.687 44.96 378.104 45.062 378.47 45.266C378.836 45.47 379.121 45.758 379.325 46.13C379.529 46.496 379.631 46.919 379.631 47.399ZM378.56 47.075C378.554 46.697 378.419 46.394 378.155 46.166C377.891 45.938 377.564 45.824 377.174 45.824C376.82 45.824 376.517 45.938 376.265 46.166C376.013 46.388 375.863 46.691 375.815 47.075H378.56Z"></path>
<mask fill="white" id="path-6-inside-1_746_24">
<path d="M400 35C400 32.2386 402.239 30 405 30H455C457.761 30 460 32.2386 460 35V75C460 77.7614 457.761 80 455 80H405C402.239 80 400 77.7614 400 75V35Z"></path>
</mask>
<path fill-opacity="0.05" fill="white" d="M400 35C400 32.2386 402.239 30 405 30H455C457.761 30 460 32.2386 460 35V75C460 77.7614 457.761 80 455 80H405C402.239 80 400 77.7614 400 75V35Z"></path>
<path mask="url(#path-6-inside-1_746_24)" fill-opacity="0.05" fill="white" d="M400 35C400 31.6863 402.686 29 406 29H454C457.314 29 460 31.6863 460 35C460 32.7909 457.761 31 455 31H405C402.239 31 400 32.7909 400 35ZM460 80H400H460ZM400 80V30V80ZM460 30V80V30Z"></path>
<path fill="white" d="M418.949 51.355C419.763 51.355 420.474 51.5127 421.083 51.828C421.699 52.136 422.172 52.5833 422.502 53.17C422.839 53.7493 423.008 54.4277 423.008 55.205C423.008 55.9823 422.839 56.657 422.502 57.229C422.172 57.801 421.699 58.241 421.083 58.549C420.474 58.8497 419.763 59 418.949 59H416.452V51.355H418.949ZM418.949 57.977C419.844 57.977 420.529 57.735 421.006 57.251C421.483 56.767 421.721 56.085 421.721 55.205C421.721 54.3177 421.483 53.6247 421.006 53.126C420.529 52.6273 419.844 52.378 418.949 52.378H417.706V57.977H418.949ZM426.88 59.099C426.308 59.099 425.791 58.9707 425.329 58.714C424.867 58.45 424.504 58.0833 424.24 57.614C423.976 57.1373 423.844 56.5873 423.844 55.964C423.844 55.348 423.979 54.8017 424.251 54.325C424.522 53.8483 424.892 53.4817 425.362 53.225C425.831 52.9683 426.355 52.84 426.935 52.84C427.514 52.84 428.038 52.9683 428.508 53.225C428.977 53.4817 429.347 53.8483 429.619 54.325C429.89 54.8017 430.026 55.348 430.026 55.964C430.026 56.58 429.886 57.1263 429.608 57.603C429.329 58.0797 428.948 58.45 428.464 58.714C427.987 58.9707 427.459 59.099 426.88 59.099ZM426.88 58.01C427.202 58.01 427.503 57.933 427.782 57.779C428.068 57.625 428.299 57.394 428.475 57.086C428.651 56.778 428.739 56.404 428.739 55.964C428.739 55.524 428.654 55.1537 428.486 54.853C428.317 54.545 428.093 54.314 427.815 54.16C427.536 54.006 427.235 53.929 426.913 53.929C426.59 53.929 426.289 54.006 426.011 54.16C425.739 54.314 425.523 54.545 425.362 54.853C425.2 55.1537 425.12 55.524 425.12 55.964C425.12 56.6167 425.285 57.1227 425.615 57.482C425.952 57.834 426.374 58.01 426.88 58.01ZM434.323 52.84C434.8 52.84 435.225 52.939 435.599 53.137C435.981 53.335 436.278 53.6283 436.49 54.017C436.703 54.4057 436.809 54.875 436.809 55.425V59H435.566V55.612C435.566 55.0693 435.431 54.655 435.159 54.369C434.888 54.0757 434.518 53.929 434.048 53.929C433.579 53.929 433.205 54.0757 432.926 54.369C432.655 54.655 432.519 55.0693 432.519 55.612V59H431.265V52.939H432.519V53.632C432.725 53.3827 432.985 53.1883 433.3 53.049C433.623 52.9097 433.964 52.84 434.323 52.84ZM443.964 55.821C443.964 56.0483 443.949 56.2537 443.92 56.437H439.289C439.326 56.921 439.505 57.3097 439.828 57.603C440.151 57.8963 440.547 58.043 441.016 58.043C441.691 58.043 442.167 57.7607 442.446 57.196H443.799C443.616 57.7533 443.282 58.2117 442.798 58.571C442.321 58.923 441.727 59.099 441.016 59.099C440.437 59.099 439.916 58.9707 439.454 58.714C438.999 58.45 438.64 58.0833 438.376 57.614C438.119 57.1373 437.991 56.5873 437.991 55.964C437.991 55.3407 438.116 54.7943 438.365 54.325C438.622 53.8483 438.977 53.4817 439.432 53.225C439.894 52.9683 440.422 52.84 441.016 52.84C441.588 52.84 442.098 52.9647 442.545 53.214C442.992 53.4633 443.341 53.8153 443.59 54.27C443.839 54.7173 443.964 55.2343 443.964 55.821ZM442.655 55.425C442.648 54.963 442.483 54.5927 442.16 54.314C441.837 54.0353 441.438 53.896 440.961 53.896C440.528 53.896 440.158 54.0353 439.85 54.314C439.542 54.5853 439.359 54.9557 439.3 55.425H442.655Z"></path>
</svg>
