<svg xmlns="http://www.w3.org/2000/svg" fill="none" viewBox="0 0 44 24" height="24" width="44">
<path fill-opacity="0.5" fill="#FF0000" d="M2 12C2 6.47715 6.47715 2 12 2H32C37.5228 2 42 6.47715 42 12V12C42 17.5228 37.5228 22 32 22H12C6.47715 22 2 17.5228 2 12V12Z"></path>
<path stroke-width="2" stroke-opacity="0.2" stroke="#FF0000" d="M32 1H12C5.92487 1 1 5.92487 1 12C1 18.0751 5.92487 23 12 23H32C38.0751 23 43 18.0751 43 12C43 5.92487 38.0751 1 32 1Z"></path>
<path fill="white" d="M17.0358 9.412C17.0838 8.668 17.3678 8.088 17.8878 7.672C18.4158 7.256 19.0878 7.048 19.9038 7.048C20.4638 7.048 20.9478 7.148 21.3558 7.348C21.7638 7.548 22.0718 7.82 22.2798 8.164C22.4878 8.508 22.5918 8.896 22.5918 9.328C22.5918 9.824 22.4598 10.248 22.1958 10.6C21.9318 10.952 21.6158 11.188 21.2478 11.308V11.356C21.7198 11.5 22.0878 11.764 22.3518 12.148C22.6158 12.524 22.7478 13.008 22.7478 13.6C22.7478 14.072 22.6398 14.492 22.4238 14.86C22.2078 15.228 21.8878 15.52 21.4638 15.736C21.0398 15.944 20.5318 16.048 19.9398 16.048C19.0758 16.048 18.3638 15.828 17.8038 15.388C17.2518 14.94 16.9558 14.3 16.9158 13.468H18.2358C18.2678 13.892 18.4318 14.24 18.7278 14.512C19.0238 14.776 19.4238 14.908 19.9278 14.908C20.4158 14.908 20.7918 14.776 21.0558 14.512C21.3198 14.24 21.4518 13.892 21.4518 13.468C21.4518 12.908 21.2718 12.512 20.9118 12.28C20.5598 12.04 20.0158 11.92 19.2798 11.92H18.9678V10.792H19.2918C19.9398 10.784 20.4318 10.676 20.7678 10.468C21.1118 10.26 21.2838 9.932 21.2838 9.484C21.2838 9.1 21.1598 8.796 20.9118 8.572C20.6638 8.34 20.3118 8.224 19.8558 8.224C19.4078 8.224 19.0598 8.34 18.8118 8.572C18.5638 8.796 18.4158 9.076 18.3678 9.412H17.0358ZM24.0048 8.5V7.252H26.5008V16H25.1208V8.5H24.0048Z"></path>
</svg>
