<svg xmlns="http://www.w3.org/2000/svg" fill="none" viewBox="0 0 44 24" height="24" width="44">
<path fill-opacity="0.5" fill="#FF0000" d="M2 12C2 6.47715 6.47715 2 12 2H32C37.5228 2 42 6.47715 42 12V12C42 17.5228 37.5228 22 32 22H12C6.47715 22 2 17.5228 2 12V12Z"></path>
<path stroke-width="2" stroke-opacity="0.2" stroke="#FF0000" d="M32 1H12C5.92487 1 1 5.92487 1 12C1 18.0751 5.92487 23 12 23H32C38.0751 23 43 18.0751 43 12C43 5.92487 38.0751 1 32 1Z"></path>
<path fill="white" d="M15.3249 9.412C15.3729 8.668 15.6569 8.088 16.1769 7.672C16.7049 7.256 17.3769 7.048 18.1929 7.048C18.7529 7.048 19.2369 7.148 19.6449 7.348C20.0529 7.548 20.3609 7.82 20.5689 8.164C20.7769 8.508 20.8809 8.896 20.8809 9.328C20.8809 9.824 20.7489 10.248 20.4849 10.6C20.2209 10.952 19.9049 11.188 19.5369 11.308V11.356C20.0089 11.5 20.3769 11.764 20.6409 12.148C20.9049 12.524 21.0369 13.008 21.0369 13.6C21.0369 14.072 20.9289 14.492 20.7129 14.86C20.4969 15.228 20.1769 15.52 19.7529 15.736C19.3289 15.944 18.8209 16.048 18.2289 16.048C17.3649 16.048 16.6529 15.828 16.0929 15.388C15.5409 14.94 15.2449 14.3 15.2049 13.468H16.5249C16.5569 13.892 16.7209 14.24 17.0169 14.512C17.3129 14.776 17.7129 14.908 18.2169 14.908C18.7049 14.908 19.0809 14.776 19.3449 14.512C19.6089 14.24 19.7409 13.892 19.7409 13.468C19.7409 12.908 19.5609 12.512 19.2009 12.28C18.8489 12.04 18.3049 11.92 17.5689 11.92H17.2569V10.792H17.5809C18.2289 10.784 18.7209 10.676 19.0569 10.468C19.4009 10.26 19.5729 9.932 19.5729 9.484C19.5729 9.1 19.4489 8.796 19.2009 8.572C18.9529 8.34 18.6009 8.224 18.1449 8.224C17.6969 8.224 17.3489 8.34 17.1009 8.572C16.8529 8.796 16.7049 9.076 16.6569 9.412H15.3249ZM24.1779 13.624C24.2579 14.024 24.4299 14.328 24.6939 14.536C24.9579 14.744 25.3139 14.848 25.7619 14.848C26.3299 14.848 26.7459 14.624 27.0099 14.176C27.2739 13.728 27.4059 12.964 27.4059 11.884C27.2139 12.156 26.9419 12.368 26.5899 12.52C26.2459 12.664 25.8699 12.736 25.4619 12.736C24.9419 12.736 24.4699 12.632 24.0459 12.424C23.6219 12.208 23.2859 11.892 23.0379 11.476C22.7979 11.052 22.6779 10.54 22.6779 9.94C22.6779 9.06 22.9339 8.36 23.4459 7.84C23.9659 7.312 24.6779 7.048 25.5819 7.048C26.6699 7.048 27.4419 7.412 27.8979 8.14C28.3619 8.86 28.5939 9.968 28.5939 11.464C28.5939 12.496 28.5059 13.34 28.3299 13.996C28.1619 14.652 27.8659 15.148 27.4419 15.484C27.0179 15.82 26.4299 15.988 25.6779 15.988C24.8219 15.988 24.1619 15.764 23.6979 15.316C23.2339 14.868 22.9739 14.304 22.9179 13.624H24.1779ZM25.7019 11.584C26.1819 11.584 26.5579 11.436 26.8299 11.14C27.1099 10.836 27.2499 10.436 27.2499 9.94C27.2499 9.388 27.1019 8.96 26.8059 8.656C26.5179 8.344 26.1219 8.188 25.6179 8.188C25.1139 8.188 24.7139 8.348 24.4179 8.668C24.1299 8.98 23.9859 9.392 23.9859 9.904C23.9859 10.392 24.1259 10.796 24.4059 11.116C24.6939 11.428 25.1259 11.584 25.7019 11.584Z"></path>
</svg>
