<svg xmlns="http://www.w3.org/2000/svg" fill="none" viewBox="0 0 480 90" height="90" width="480">
<path fill-opacity="0.9" fill="#E6E6E6" d="M88 30C88 24.4772 92.4772 20 98 20H382C387.523 20 392 24.4772 392 30V60C392 65.5228 387.523 70 382 70H98C92.4772 70 88 65.5228 88 60V30Z"></path>
<path stroke-width="2" stroke-opacity="0.2" stroke="black" d="M382 19H98C91.9249 19 87 23.9249 87 30V60C87 66.0751 91.9249 71 98 71H382C388.075 71 393 66.0751 393 60V30C393 23.9249 388.075 19 382 19Z"></path>
<path fill="#808080" d="M284.311 41.745L282.241 45.732V48H281.215V45.732L279.136 41.745H280.279L281.728 44.814L283.177 41.745H284.311ZM287.276 48.081C286.808 48.081 286.385 47.976 286.007 47.766C285.629 47.55 285.332 47.25 285.116 46.866C284.9 46.476 284.792 46.026 284.792 45.516C284.792 45.012 284.903 44.565 285.125 44.175C285.347 43.785 285.65 43.485 286.034 43.275C286.418 43.065 286.847 42.96 287.321 42.96C287.795 42.96 288.224 43.065 288.608 43.275C288.992 43.485 289.295 43.785 289.517 44.175C289.739 44.565 289.85 45.012 289.85 45.516C289.85 46.02 289.736 46.467 289.508 46.857C289.28 47.247 288.968 47.55 288.572 47.766C288.182 47.976 287.75 48.081 287.276 48.081ZM287.276 47.19C287.54 47.19 287.786 47.127 288.014 47.001C288.248 46.875 288.437 46.686 288.581 46.434C288.725 46.182 288.797 45.876 288.797 45.516C288.797 45.156 288.728 44.853 288.59 44.607C288.452 44.355 288.269 44.166 288.041 44.04C287.813 43.914 287.567 43.851 287.303 43.851C287.039 43.851 286.793 43.914 286.565 44.04C286.343 44.166 286.166 44.355 286.034 44.607C285.902 44.853 285.836 45.156 285.836 45.516C285.836 46.05 285.971 46.464 286.241 46.758C286.517 47.046 286.862 47.19 287.276 47.19ZM295.355 43.041V48H294.329V47.415C294.167 47.619 293.954 47.781 293.69 47.901C293.432 48.015 293.156 48.072 292.862 48.072C292.472 48.072 292.121 47.991 291.809 47.829C291.503 47.667 291.26 47.427 291.08 47.109C290.906 46.791 290.819 46.407 290.819 45.957V43.041H291.836V45.804C291.836 46.248 291.947 46.59 292.169 46.83C292.391 47.064 292.694 47.181 293.078 47.181C293.462 47.181 293.765 47.064 293.987 46.83C294.215 46.59 294.329 46.248 294.329 45.804V43.041H295.355ZM298.705 45.516C298.705 45.006 298.807 44.559 299.011 44.175C299.221 43.785 299.509 43.485 299.875 43.275C300.241 43.065 300.661 42.96 301.135 42.96C301.735 42.96 302.23 43.104 302.62 43.392C303.016 43.674 303.283 44.079 303.421 44.607H302.314C302.224 44.361 302.08 44.169 301.882 44.031C301.684 43.893 301.435 43.824 301.135 43.824C300.715 43.824 300.379 43.974 300.127 44.274C299.881 44.568 299.758 44.982 299.758 45.516C299.758 46.05 299.881 46.467 300.127 46.767C300.379 47.067 300.715 47.217 301.135 47.217C301.729 47.217 302.122 46.956 302.314 46.434H303.421C303.277 46.938 303.007 47.34 302.611 47.64C302.215 47.934 301.723 48.081 301.135 48.081C300.661 48.081 300.241 47.976 299.875 47.766C299.509 47.55 299.221 47.25 299.011 46.866C298.807 46.476 298.705 46.026 298.705 45.516ZM304.102 45.498C304.102 45 304.204 44.559 304.408 44.175C304.618 43.791 304.9 43.494 305.254 43.284C305.614 43.068 306.01 42.96 306.442 42.96C306.832 42.96 307.171 43.038 307.459 43.194C307.753 43.344 307.987 43.533 308.161 43.761V43.041H309.196V48H308.161V47.262C307.987 47.496 307.75 47.691 307.45 47.847C307.15 48.003 306.808 48.081 306.424 48.081C305.998 48.081 305.608 47.973 305.254 47.757C304.9 47.535 304.618 47.229 304.408 46.839C304.204 46.443 304.102 45.996 304.102 45.498ZM308.161 45.516C308.161 45.174 308.089 44.877 307.945 44.625C307.807 44.373 307.624 44.181 307.396 44.049C307.168 43.917 306.922 43.851 306.658 43.851C306.394 43.851 306.148 43.917 305.92 44.049C305.692 44.175 305.506 44.364 305.362 44.616C305.224 44.862 305.155 45.156 305.155 45.498C305.155 45.84 305.224 46.14 305.362 46.398C305.506 46.656 305.692 46.854 305.92 46.992C306.154 47.124 306.4 47.19 306.658 47.19C306.922 47.19 307.168 47.124 307.396 46.992C307.624 46.86 307.807 46.668 307.945 46.416C308.089 46.158 308.161 45.858 308.161 45.516ZM313.045 42.96C313.435 42.96 313.783 43.041 314.089 43.203C314.401 43.365 314.644 43.605 314.818 43.923C314.992 44.241 315.079 44.625 315.079 45.075V48H314.062V45.228C314.062 44.784 313.951 44.445 313.729 44.211C313.507 43.971 313.204 43.851 312.82 43.851C312.436 43.851 312.13 43.971 311.902 44.211C311.68 44.445 311.569 44.784 311.569 45.228V48H310.543V43.041H311.569V43.608C311.737 43.404 311.95 43.245 312.208 43.131C312.472 43.017 312.751 42.96 313.045 42.96ZM316.55 41.745H317.666L316.721 43.887H316.001L316.55 41.745ZM319.765 43.878V46.623C319.765 46.809 319.807 46.944 319.891 47.028C319.981 47.106 320.131 47.145 320.341 47.145H320.971V48H320.161C319.699 48 319.345 47.892 319.099 47.676C318.853 47.46 318.73 47.109 318.73 46.623V43.878H318.145V43.041H318.73V41.808H319.765V43.041H320.971V43.878H319.765ZM328.799 45.399C328.799 45.585 328.787 45.753 328.763 45.903H324.974C325.004 46.299 325.151 46.617 325.415 46.857C325.679 47.097 326.003 47.217 326.387 47.217C326.939 47.217 327.329 46.986 327.557 46.524H328.664C328.514 46.98 328.241 47.355 327.845 47.649C327.455 47.937 326.969 48.081 326.387 48.081C325.913 48.081 325.487 47.976 325.109 47.766C324.737 47.55 324.443 47.25 324.227 46.866C324.017 46.476 323.912 46.026 323.912 45.516C323.912 45.006 324.014 44.559 324.218 44.175C324.428 43.785 324.719 43.485 325.091 43.275C325.469 43.065 325.901 42.96 326.387 42.96C326.855 42.96 327.272 43.062 327.638 43.266C328.004 43.47 328.289 43.758 328.493 44.13C328.697 44.496 328.799 44.919 328.799 45.399ZM327.728 45.075C327.722 44.697 327.587 44.394 327.323 44.166C327.059 43.938 326.732 43.824 326.342 43.824C325.988 43.824 325.685 43.938 325.433 44.166C325.181 44.388 325.031 44.691 324.983 45.075H327.728ZM329.467 45.498C329.467 45 329.569 44.559 329.773 44.175C329.983 43.791 330.265 43.494 330.619 43.284C330.979 43.068 331.378 42.96 331.816 42.96C332.14 42.96 332.458 43.032 332.77 43.176C333.088 43.314 333.34 43.5 333.526 43.734V41.34H334.561V48H333.526V47.253C333.358 47.493 333.124 47.691 332.824 47.847C332.53 48.003 332.191 48.081 331.807 48.081C331.375 48.081 330.979 47.973 330.619 47.757C330.265 47.535 329.983 47.229 329.773 46.839C329.569 46.443 329.467 45.996 329.467 45.498ZM333.526 45.516C333.526 45.174 333.454 44.877 333.31 44.625C333.172 44.373 332.989 44.181 332.761 44.049C332.533 43.917 332.287 43.851 332.023 43.851C331.759 43.851 331.513 43.917 331.285 44.049C331.057 44.175 330.871 44.364 330.727 44.616C330.589 44.862 330.52 45.156 330.52 45.498C330.52 45.84 330.589 46.14 330.727 46.398C330.871 46.656 331.057 46.854 331.285 46.992C331.519 47.124 331.765 47.19 332.023 47.19C332.287 47.19 332.533 47.124 332.761 46.992C332.989 46.86 333.172 46.668 333.31 46.416C333.454 46.158 333.526 45.858 333.526 45.516ZM336.43 42.384C336.244 42.384 336.088 42.321 335.962 42.195C335.836 42.069 335.773 41.913 335.773 41.727C335.773 41.541 335.836 41.385 335.962 41.259C336.088 41.133 336.244 41.07 336.43 41.07C336.61 41.07 336.763 41.133 336.889 41.259C337.015 41.385 337.078 41.541 337.078 41.727C337.078 41.913 337.015 42.069 336.889 42.195C336.763 42.321 336.61 42.384 336.43 42.384ZM336.934 43.041V48H335.908V43.041H336.934ZM339.478 43.878V46.623C339.478 46.809 339.52 46.944 339.604 47.028C339.694 47.106 339.844 47.145 340.054 47.145H340.684V48H339.874C339.412 48 339.058 47.892 338.812 47.676C338.566 47.46 338.443 47.109 338.443 46.623V43.878H337.858V43.041H338.443V41.808H339.478V43.041H340.684V43.878H339.478ZM345.165 43.878V46.623C345.165 46.809 345.207 46.944 345.291 47.028C345.381 47.106 345.531 47.145 345.741 47.145H346.371V48H345.561C345.099 48 344.745 47.892 344.499 47.676C344.253 47.46 344.13 47.109 344.13 46.623V43.878H343.545V43.041H344.13V41.808H345.165V43.041H346.371V43.878H345.165ZM349.882 42.96C350.26 42.96 350.596 43.041 350.89 43.203C351.19 43.365 351.424 43.605 351.592 43.923C351.766 44.241 351.853 44.625 351.853 45.075V48H350.836V45.228C350.836 44.784 350.725 44.445 350.503 44.211C350.281 43.971 349.978 43.851 349.594 43.851C349.21 43.851 348.904 43.971 348.676 44.211C348.454 44.445 348.343 44.784 348.343 45.228V48H347.317V41.34H348.343V43.617C348.517 43.407 348.736 43.245 349 43.131C349.27 43.017 349.564 42.96 349.882 42.96ZM353.683 42.384C353.497 42.384 353.341 42.321 353.215 42.195C353.089 42.069 353.026 41.913 353.026 41.727C353.026 41.541 353.089 41.385 353.215 41.259C353.341 41.133 353.497 41.07 353.683 41.07C353.863 41.07 354.016 41.133 354.142 41.259C354.268 41.385 354.331 41.541 354.331 41.727C354.331 41.913 354.268 42.069 354.142 42.195C354.016 42.321 353.863 42.384 353.683 42.384ZM354.187 43.041V48H353.161V43.041H354.187ZM357.334 48.081C356.944 48.081 356.593 48.012 356.281 47.874C355.975 47.73 355.732 47.538 355.552 47.298C355.372 47.052 355.276 46.779 355.264 46.479H356.326C356.344 46.689 356.443 46.866 356.623 47.01C356.809 47.148 357.04 47.217 357.316 47.217C357.604 47.217 357.826 47.163 357.982 47.055C358.144 46.941 358.225 46.797 358.225 46.623C358.225 46.437 358.135 46.299 357.955 46.209C357.781 46.119 357.502 46.02 357.118 45.912C356.746 45.81 356.443 45.711 356.209 45.615C355.975 45.519 355.771 45.372 355.597 45.174C355.429 44.976 355.345 44.715 355.345 44.391C355.345 44.127 355.423 43.887 355.579 43.671C355.735 43.449 355.957 43.275 356.245 43.149C356.539 43.023 356.875 42.96 357.253 42.96C357.817 42.96 358.27 43.104 358.612 43.392C358.96 43.674 359.146 44.061 359.17 44.553H358.144C358.126 44.331 358.036 44.154 357.874 44.022C357.712 43.89 357.493 43.824 357.217 43.824C356.947 43.824 356.74 43.875 356.596 43.977C356.452 44.079 356.38 44.214 356.38 44.382C356.38 44.514 356.428 44.625 356.524 44.715C356.62 44.805 356.737 44.877 356.875 44.931C357.013 44.979 357.217 45.042 357.487 45.12C357.847 45.216 358.141 45.315 358.369 45.417C358.603 45.513 358.804 45.657 358.972 45.849C359.14 46.041 359.227 46.296 359.233 46.614C359.233 46.896 359.155 47.148 358.999 47.37C358.843 47.592 358.621 47.766 358.333 47.892C358.051 48.018 357.718 48.081 357.334 48.081ZM364.759 43.878H363.841V48H362.806V43.878H362.221V43.041H362.806V42.69C362.806 42.12 362.956 41.706 363.256 41.448C363.562 41.184 364.039 41.052 364.687 41.052V41.907C364.375 41.907 364.156 41.967 364.03 42.087C363.904 42.201 363.841 42.402 363.841 42.69V43.041H364.759V43.878ZM366.19 42.384C366.004 42.384 365.848 42.321 365.722 42.195C365.596 42.069 365.533 41.913 365.533 41.727C365.533 41.541 365.596 41.385 365.722 41.259C365.848 41.133 366.004 41.07 366.19 41.07C366.37 41.07 366.523 41.133 366.649 41.259C366.775 41.385 366.838 41.541 366.838 41.727C366.838 41.913 366.775 42.069 366.649 42.195C366.523 42.321 366.37 42.384 366.19 42.384ZM366.694 43.041V48H365.668V43.041H366.694ZM369.067 41.34V48H368.041V41.34H369.067ZM374.959 45.399C374.959 45.585 374.947 45.753 374.923 45.903H371.134C371.164 46.299 371.311 46.617 371.575 46.857C371.839 47.097 372.163 47.217 372.547 47.217C373.099 47.217 373.489 46.986 373.717 46.524H374.824C374.674 46.98 374.401 47.355 374.005 47.649C373.615 47.937 373.129 48.081 372.547 48.081C372.073 48.081 371.647 47.976 371.269 47.766C370.897 47.55 370.603 47.25 370.387 46.866C370.177 46.476 370.072 46.026 370.072 45.516C370.072 45.006 370.174 44.559 370.378 44.175C370.588 43.785 370.879 43.485 371.251 43.275C371.629 43.065 372.061 42.96 372.547 42.96C373.015 42.96 373.432 43.062 373.798 43.266C374.164 43.47 374.449 43.758 374.653 44.13C374.857 44.496 374.959 44.919 374.959 45.399ZM373.888 45.075C373.882 44.697 373.747 44.394 373.483 44.166C373.219 43.938 372.892 43.824 372.502 43.824C372.148 43.824 371.845 43.938 371.593 44.166C371.341 44.388 371.191 44.691 371.143 45.075H373.888Z"></path>
<path fill="url(#paint0_linear_1034_26)" d="M264 37C259.999 36.9995 255 40.6662 255 46.3333C255 47.9644 255.369 50 257 50C258.666 50 259.333 47.3333 260.667 47.3333C261.219 47.3333 261.667 47.6662 261.667 48.3333C261.667 49.3328 260.667 49.3328 260.667 50.6667C260.667 51.6662 261.333 52.3333 262.333 52.3333C266 52.3333 270.333 48.0359 270.333 43.3333C270.333 40.3328 267.884 37.0005 264 37Z"></path>
<rect fill="url(#paint1_linear_1034_26)" rx="1.33333" height="2.66667" width="2.66667" y="43.6663" x="256.333"></rect>
<rect fill-opacity="0.5" fill="black" rx="1" height="2" width="2" y="44.3328" x="262.333"></rect>
<rect fill="url(#paint2_linear_1034_26)" rx="1.33333" height="2.66667" width="2.66667" y="40.3328" x="258.333"></rect>
<rect fill="url(#paint3_linear_1034_26)" rx="1.33333" height="2.66667" width="2.66667" y="38.9995" x="261.666"></rect>
<path fill="url(#paint4_linear_1034_26)" d="M265.666 44.9988L267.666 44.9997L267.361 52.3327C267.345 52.705 267.039 52.9988 266.666 52.9988V52.9988C266.294 52.9988 265.987 52.705 265.972 52.3327L265.666 44.9988Z"></path>
<path fill="url(#paint5_linear_1034_26)" d="M265.666 44.9988V44.3331H267.666V44.9997L265.666 44.9988Z"></path>
<path fill="url(#paint6_linear_1034_26)" d="M265.666 44.332L265.057 43.1136C264.724 42.4487 265.208 41.6663 265.951 41.6663H267.382C268.125 41.6663 268.609 42.4486 268.276 43.1135L267.666 44.3331L265.666 44.332Z"></path>
<rect fill="url(#paint7_linear_1034_26)" rx="2" height="16" width="16" y="37" x="105"></rect>
<path fill="white" d="M110.879 44.1213C112.05 42.9497 113.95 42.9497 115.121 44.1213L119.414 48.4142C119.789 48.7893 120 49.298 120 49.8284V50C120 51.1046 119.105 52 118 52H108C106.895 52 106 51.1046 106 50V49.8284C106 49.298 106.211 48.7893 106.586 48.4142L110.879 44.1213Z"></path>
<path stroke-opacity="0.1" stroke="black" d="M108 52.5H118C119.381 52.5 120.5 51.3807 120.5 50V49.8284C120.5 49.1654 120.237 48.5295 119.768 48.0607L115.475 43.7678C114.108 42.4009 111.892 42.4009 110.525 43.7678L106.232 48.0607C105.763 48.5295 105.5 49.1654 105.5 49.8284V50C105.5 51.3807 106.619 52.5 108 52.5Z"></path>
<path fill="url(#paint8_linear_1034_26)" d="M108 53L115.293 45.7071C115.683 45.3166 116.317 45.3166 116.707 45.7071L120.414 49.4142C120.789 49.7893 121 50.298 121 50.8284V51C121 52.1046 120.105 53 119 53H108Z"></path>
<path fill="url(#paint9_linear_1034_26)" d="M105 50.8284C105 50.298 105.211 49.7893 105.586 49.4142L110.879 44.1213C112.05 42.9497 113.95 42.9497 115.121 44.1213L118 47V47C116.895 45.8954 115.105 45.8954 114 47L108.586 52.4142C108.211 52.7893 107.702 53 107.172 53H107C105.895 53 105 52.1046 105 51V50.8284Z"></path>
<rect fill="white" rx="1.5" height="3" width="3" y="39" x="115"></rect>
<rect stroke-opacity="0.1" stroke="black" rx="2" height="4" width="4" y="38.5" x="114.5"></rect>
<path fill="#808080" d="M139.78 41.355L137.514 49H136.095L134.489 43.214L132.784 49L131.376 49.011L129.209 41.355H130.54L132.124 47.581L133.84 41.355H135.248L136.843 47.548L138.438 41.355H139.78ZM140.396 45.942C140.396 45.3333 140.521 44.7943 140.77 44.325C141.027 43.8557 141.372 43.4927 141.804 43.236C142.244 42.972 142.728 42.84 143.256 42.84C143.733 42.84 144.147 42.9353 144.499 43.126C144.859 43.3093 145.145 43.5403 145.357 43.819V42.939H146.622V49H145.357V48.098C145.145 48.384 144.855 48.6223 144.488 48.813C144.122 49.0037 143.704 49.099 143.234 49.099C142.714 49.099 142.237 48.967 141.804 48.703C141.372 48.4317 141.027 48.0577 140.77 47.581C140.521 47.097 140.396 46.5507 140.396 45.942ZM145.357 45.964C145.357 45.546 145.269 45.183 145.093 44.875C144.925 44.567 144.701 44.3323 144.422 44.171C144.144 44.0097 143.843 43.929 143.52 43.929C143.198 43.929 142.897 44.0097 142.618 44.171C142.34 44.325 142.112 44.556 141.936 44.864C141.768 45.1647 141.683 45.524 141.683 45.942C141.683 46.36 141.768 46.7267 141.936 47.042C142.112 47.3573 142.34 47.5993 142.618 47.768C142.904 47.9293 143.205 48.01 143.52 48.01C143.843 48.01 144.144 47.9293 144.422 47.768C144.701 47.6067 144.925 47.372 145.093 47.064C145.269 46.7487 145.357 46.382 145.357 45.964ZM149.523 40.86V49H148.269V40.86H149.523ZM152.424 40.86V49H151.17V40.86H152.424ZM155.324 43.83C155.537 43.5513 155.826 43.3167 156.193 43.126C156.56 42.9353 156.974 42.84 157.436 42.84C157.964 42.84 158.444 42.972 158.877 43.236C159.317 43.4927 159.662 43.8557 159.911 44.325C160.16 44.7943 160.285 45.3333 160.285 45.942C160.285 46.5507 160.16 47.097 159.911 47.581C159.662 48.0577 159.317 48.4317 158.877 48.703C158.444 48.967 157.964 49.099 157.436 49.099C156.974 49.099 156.563 49.0073 156.204 48.824C155.845 48.6333 155.551 48.3987 155.324 48.12V51.882H154.07V42.939H155.324V43.83ZM159.009 45.942C159.009 45.524 158.921 45.1647 158.745 44.864C158.576 44.556 158.349 44.325 158.063 44.171C157.784 44.0097 157.484 43.929 157.161 43.929C156.846 43.929 156.545 44.0097 156.259 44.171C155.98 44.3323 155.753 44.567 155.577 44.875C155.408 45.183 155.324 45.546 155.324 45.964C155.324 46.382 155.408 46.7487 155.577 47.064C155.753 47.372 155.98 47.6067 156.259 47.768C156.545 47.9293 156.846 48.01 157.161 48.01C157.484 48.01 157.784 47.9293 158.063 47.768C158.349 47.5993 158.576 47.3573 158.745 47.042C158.921 46.7267 159.009 46.36 159.009 45.942ZM161.107 45.942C161.107 45.3333 161.232 44.7943 161.481 44.325C161.738 43.8557 162.083 43.4927 162.515 43.236C162.955 42.972 163.439 42.84 163.967 42.84C164.444 42.84 164.858 42.9353 165.21 43.126C165.57 43.3093 165.856 43.5403 166.068 43.819V42.939H167.333V49H166.068V48.098C165.856 48.384 165.566 48.6223 165.199 48.813C164.833 49.0037 164.415 49.099 163.945 49.099C163.425 49.099 162.948 48.967 162.515 48.703C162.083 48.4317 161.738 48.0577 161.481 47.581C161.232 47.097 161.107 46.5507 161.107 45.942ZM166.068 45.964C166.068 45.546 165.98 45.183 165.804 44.875C165.636 44.567 165.412 44.3323 165.133 44.171C164.855 44.0097 164.554 43.929 164.231 43.929C163.909 43.929 163.608 44.0097 163.329 44.171C163.051 44.325 162.823 44.556 162.647 44.864C162.479 45.1647 162.394 45.524 162.394 45.942C162.394 46.36 162.479 46.7267 162.647 47.042C162.823 47.3573 163.051 47.5993 163.329 47.768C163.615 47.9293 163.916 48.01 164.231 48.01C164.554 48.01 164.855 47.9293 165.133 47.768C165.412 47.6067 165.636 47.372 165.804 47.064C165.98 46.7487 166.068 46.382 166.068 45.964ZM170.234 43.83C170.447 43.5513 170.737 43.3167 171.103 43.126C171.47 42.9353 171.884 42.84 172.346 42.84C172.874 42.84 173.355 42.972 173.787 43.236C174.227 43.4927 174.572 43.8557 174.821 44.325C175.071 44.7943 175.195 45.3333 175.195 45.942C175.195 46.5507 175.071 47.097 174.821 47.581C174.572 48.0577 174.227 48.4317 173.787 48.703C173.355 48.967 172.874 49.099 172.346 49.099C171.884 49.099 171.474 49.0073 171.114 48.824C170.755 48.6333 170.462 48.3987 170.234 48.12V51.882H168.98V42.939H170.234V43.83ZM173.919 45.942C173.919 45.524 173.831 45.1647 173.655 44.864C173.487 44.556 173.259 44.325 172.973 44.171C172.695 44.0097 172.394 43.929 172.071 43.929C171.756 43.929 171.455 44.0097 171.169 44.171C170.891 44.3323 170.663 44.567 170.487 44.875C170.319 45.183 170.234 45.546 170.234 45.964C170.234 46.382 170.319 46.7487 170.487 47.064C170.663 47.372 170.891 47.6067 171.169 47.768C171.455 47.9293 171.756 48.01 172.071 48.01C172.394 48.01 172.695 47.9293 172.973 47.768C173.259 47.5993 173.487 47.3573 173.655 47.042C173.831 46.7267 173.919 46.36 173.919 45.942ZM181.99 45.821C181.99 46.0483 181.976 46.2537 181.946 46.437H177.315C177.352 46.921 177.532 47.3097 177.854 47.603C178.177 47.8963 178.573 48.043 179.042 48.043C179.717 48.043 180.194 47.7607 180.472 47.196H181.825C181.642 47.7533 181.308 48.2117 180.824 48.571C180.348 48.923 179.754 49.099 179.042 49.099C178.463 49.099 177.942 48.9707 177.48 48.714C177.026 48.45 176.666 48.0833 176.402 47.614C176.146 47.1373 176.017 46.5873 176.017 45.964C176.017 45.3407 176.142 44.7943 176.391 44.325C176.648 43.8483 177.004 43.4817 177.458 43.225C177.92 42.9683 178.448 42.84 179.042 42.84C179.614 42.84 180.124 42.9647 180.571 43.214C181.019 43.4633 181.367 43.8153 181.616 44.27C181.866 44.7173 181.99 45.2343 181.99 45.821ZM180.681 45.425C180.674 44.963 180.509 44.5927 180.186 44.314C179.864 44.0353 179.464 43.896 178.987 43.896C178.555 43.896 178.184 44.0353 177.876 44.314C177.568 44.5853 177.385 44.9557 177.326 45.425H180.681ZM184.478 43.819C184.662 43.511 184.904 43.2727 185.204 43.104C185.512 42.928 185.875 42.84 186.293 42.84V44.138H185.974C185.483 44.138 185.109 44.2627 184.852 44.512C184.603 44.7613 184.478 45.194 184.478 45.81V49H183.224V42.939H184.478V43.819ZM190.942 42.136C190.714 42.136 190.524 42.059 190.37 41.905C190.216 41.751 190.139 41.5603 190.139 41.333C190.139 41.1057 190.216 40.915 190.37 40.761C190.524 40.607 190.714 40.53 190.942 40.53C191.162 40.53 191.349 40.607 191.503 40.761C191.657 40.915 191.734 41.1057 191.734 41.333C191.734 41.5603 191.657 41.751 191.503 41.905C191.349 42.059 191.162 42.136 190.942 42.136ZM191.558 42.939V49H190.304V42.939H191.558ZM195.404 49.099C194.927 49.099 194.498 49.0147 194.117 48.846C193.743 48.67 193.446 48.4353 193.226 48.142C193.006 47.8413 192.889 47.5077 192.874 47.141H194.172C194.194 47.3977 194.315 47.614 194.535 47.79C194.762 47.9587 195.045 48.043 195.382 48.043C195.734 48.043 196.005 47.977 196.196 47.845C196.394 47.7057 196.493 47.5297 196.493 47.317C196.493 47.0897 196.383 46.921 196.163 46.811C195.95 46.701 195.609 46.58 195.14 46.448C194.685 46.3233 194.315 46.2023 194.029 46.085C193.743 45.9677 193.494 45.788 193.281 45.546C193.076 45.304 192.973 44.985 192.973 44.589C192.973 44.2663 193.068 43.973 193.259 43.709C193.45 43.4377 193.721 43.225 194.073 43.071C194.432 42.917 194.843 42.84 195.305 42.84C195.994 42.84 196.548 43.016 196.966 43.368C197.391 43.7127 197.619 44.1857 197.648 44.787H196.394C196.372 44.5157 196.262 44.2993 196.064 44.138C195.866 43.9767 195.598 43.896 195.261 43.896C194.931 43.896 194.678 43.9583 194.502 44.083C194.326 44.2077 194.238 44.3727 194.238 44.578C194.238 44.7393 194.297 44.875 194.414 44.985C194.531 45.095 194.674 45.183 194.843 45.249C195.012 45.3077 195.261 45.3847 195.591 45.48C196.031 45.5973 196.39 45.7183 196.669 45.843C196.955 45.9603 197.201 46.1363 197.406 46.371C197.611 46.6057 197.718 46.9173 197.725 47.306C197.725 47.6507 197.63 47.9587 197.439 48.23C197.248 48.5013 196.977 48.714 196.625 48.868C196.28 49.022 195.873 49.099 195.404 49.099ZM204.137 49.099C203.661 49.099 203.232 49.0147 202.85 48.846C202.476 48.67 202.179 48.4353 201.959 48.142C201.739 47.8413 201.622 47.5077 201.607 47.141H202.905C202.927 47.3977 203.048 47.614 203.268 47.79C203.496 47.9587 203.778 48.043 204.115 48.043C204.467 48.043 204.739 47.977 204.929 47.845C205.127 47.7057 205.226 47.5297 205.226 47.317C205.226 47.0897 205.116 46.921 204.896 46.811C204.684 46.701 204.343 46.58 203.873 46.448C203.419 46.3233 203.048 46.2023 202.762 46.085C202.476 45.9677 202.227 45.788 202.014 45.546C201.809 45.304 201.706 44.985 201.706 44.589C201.706 44.2663 201.802 43.973 201.992 43.709C202.183 43.4377 202.454 43.225 202.806 43.071C203.166 42.917 203.576 42.84 204.038 42.84C204.728 42.84 205.281 43.016 205.699 43.368C206.125 43.7127 206.352 44.1857 206.381 44.787H205.127C205.105 44.5157 204.995 44.2993 204.797 44.138C204.599 43.9767 204.332 43.896 203.994 43.896C203.664 43.896 203.411 43.9583 203.235 44.083C203.059 44.2077 202.971 44.3727 202.971 44.578C202.971 44.7393 203.03 44.875 203.147 44.985C203.265 45.095 203.408 45.183 203.576 45.249C203.745 45.3077 203.994 45.3847 204.324 45.48C204.764 45.5973 205.124 45.7183 205.402 45.843C205.688 45.9603 205.934 46.1363 206.139 46.371C206.345 46.6057 206.451 46.9173 206.458 47.306C206.458 47.6507 206.363 47.9587 206.172 48.23C205.982 48.5013 205.71 48.714 205.358 48.868C205.014 49.022 204.607 49.099 204.137 49.099ZM213.368 45.821C213.368 46.0483 213.354 46.2537 213.324 46.437H208.693C208.73 46.921 208.91 47.3097 209.232 47.603C209.555 47.8963 209.951 48.043 210.42 48.043C211.095 48.043 211.572 47.7607 211.85 47.196H213.203C213.02 47.7533 212.686 48.2117 212.202 48.571C211.726 48.923 211.132 49.099 210.42 49.099C209.841 49.099 209.32 48.9707 208.858 48.714C208.404 48.45 208.044 48.0833 207.78 47.614C207.524 47.1373 207.395 46.5873 207.395 45.964C207.395 45.3407 207.52 44.7943 207.769 44.325C208.026 43.8483 208.382 43.4817 208.836 43.225C209.298 42.9683 209.826 42.84 210.42 42.84C210.992 42.84 211.502 42.9647 211.949 43.214C212.397 43.4633 212.745 43.8153 212.994 44.27C213.244 44.7173 213.368 45.2343 213.368 45.821ZM212.059 45.425C212.052 44.963 211.887 44.5927 211.564 44.314C211.242 44.0353 210.842 43.896 210.365 43.896C209.933 43.896 209.562 44.0353 209.254 44.314C208.946 44.5853 208.763 44.9557 208.704 45.425H212.059ZM216.065 43.962V47.317C216.065 47.5443 216.117 47.7093 216.219 47.812C216.329 47.9073 216.513 47.955 216.769 47.955H217.539V49H216.549C215.985 49 215.552 48.868 215.251 48.604C214.951 48.34 214.8 47.911 214.8 47.317V43.962H214.085V42.939H214.8V41.432H216.065V42.939H217.539V43.962H216.065Z"></path>
<defs>
<linearGradient gradientUnits="userSpaceOnUse" y2="50.3328" x2="266.999" y1="38.9995" x1="258.333" id="paint0_linear_1034_26">
<stop stop-color="#50E6FF"></stop>
<stop stop-color="#0270C2" offset="1"></stop>
</linearGradient>
<linearGradient gradientUnits="userSpaceOnUse" y2="45.6663" x2="258.333" y1="44.3329" x1="257" id="paint1_linear_1034_26">
<stop stop-color="#E25113"></stop>
<stop stop-color="#C7390A" offset="1"></stop>
</linearGradient>
<linearGradient gradientUnits="userSpaceOnUse" y2="42.3328" x2="260.333" y1="40.9994" x1="259" id="paint2_linear_1034_26">
<stop stop-color="#55B50E"></stop>
<stop stop-color="#1C8610" offset="1"></stop>
</linearGradient>
<linearGradient gradientUnits="userSpaceOnUse" y2="40.9995" x2="263.666" y1="39.6662" x1="262.333" id="paint3_linear_1034_26">
<stop stop-color="#FFD300"></stop>
<stop stop-color="#F39808" offset="1"></stop>
</linearGradient>
<linearGradient gradientUnits="userSpaceOnUse" y2="44.9996" x2="267.666" y1="44.9996" x1="265.666" id="paint4_linear_1034_26">
<stop stop-color="#AA6701"></stop>
<stop stop-color="#814406" offset="1"></stop>
</linearGradient>
<linearGradient gradientUnits="userSpaceOnUse" y2="44.9996" x2="267.666" y1="44.9996" x1="265.666" id="paint5_linear_1034_26">
<stop stop-color="#CAD2D9"></stop>
<stop stop-color="#939BA2" offset="1"></stop>
</linearGradient>
<linearGradient gradientUnits="userSpaceOnUse" y2="44.3329" x2="267.666" y1="41.6663" x1="265" id="paint6_linear_1034_26">
<stop stop-color="#F7DEAA"></stop>
<stop stop-color="#C3935E" offset="1"></stop>
</linearGradient>
<linearGradient gradientUnits="userSpaceOnUse" y2="49" x2="121" y1="38" x1="106" id="paint7_linear_1034_26">
<stop stop-color="#188EDB"></stop>
<stop stop-color="#7D5AB6" offset="1"></stop>
</linearGradient>
<linearGradient gradientUnits="userSpaceOnUse" y2="53" x2="119" y1="48" x1="114" id="paint8_linear_1034_26">
<stop stop-color="#037AD2"></stop>
<stop stop-color="#2C9EE2" offset="1"></stop>
</linearGradient>
<linearGradient gradientUnits="userSpaceOnUse" y2="49" x2="112" y1="45" x1="108" id="paint9_linear_1034_26">
<stop stop-color="#4DDDFB"></stop>
<stop stop-color="#2AB2EB" offset="1"></stop>
</linearGradient>
</defs>
</svg>
