<svg xmlns="http://www.w3.org/2000/svg" fill="none" viewBox="0 0 44 24" height="24" width="44">
<path fill-opacity="0.5" fill="#FF0000" d="M2 12C2 6.47715 6.47715 2 12 2H32C37.5228 2 42 6.47715 42 12V12C42 17.5228 37.5228 22 32 22H12C6.47715 22 2 17.5228 2 12V12Z"></path>
<path stroke-width="2" stroke-opacity="0.2" stroke="#FF0000" d="M32 1H12C5.92487 1 1 5.92487 1 12C1 18.0751 5.92487 23 12 23H32C38.0751 23 43 18.0751 43 12C43 5.92487 38.0751 1 32 1Z"></path>
<path fill="white" d="M15.2043 14.176V13.144L19.2363 7.36H20.8923V12.988H22.0083V14.176H20.8923V16H19.5483V14.176H15.2043ZM19.6083 8.752L16.7763 12.988H19.6083V8.752ZM23.8979 14.14C24.6659 13.476 25.2699 12.932 25.7099 12.508C26.1579 12.076 26.5299 11.628 26.8259 11.164C27.1219 10.7 27.2699 10.236 27.2699 9.772C27.2699 9.292 27.1539 8.916 26.9219 8.644C26.6979 8.372 26.3419 8.236 25.8539 8.236C25.3819 8.236 25.0139 8.388 24.7499 8.692C24.4939 8.988 24.3579 9.388 24.3419 9.892H23.0219C23.0459 8.98 23.3179 8.284 23.8379 7.804C24.3659 7.316 25.0339 7.072 25.8419 7.072C26.7139 7.072 27.3939 7.312 27.8819 7.792C28.3779 8.272 28.6259 8.912 28.6259 9.712C28.6259 10.288 28.4779 10.844 28.1819 11.38C27.8939 11.908 27.5459 12.384 27.1379 12.808C26.7379 13.224 26.2259 13.708 25.6019 14.26L25.0619 14.74H28.8659V15.88H23.0339V14.884L23.8979 14.14Z"></path>
</svg>
