<svg xmlns="http://www.w3.org/2000/svg" fill="none" viewBox="0 0 44 24" height="24" width="44">
<path fill-opacity="0.5" fill="#FF0000" d="M2 12C2 6.47715 6.47715 2 12 2H32C37.5228 2 42 6.47715 42 12V12C42 17.5228 37.5228 22 32 22H12C6.47715 22 2 17.5228 2 12V12Z"></path>
<path stroke-width="2" stroke-opacity="0.2" stroke="#FF0000" d="M32 1H12C5.92487 1 1 5.92487 1 12C1 18.0751 5.92487 23 12 23H32C38.0751 23 43 18.0751 43 12C43 5.92487 38.0751 1 32 1Z"></path>
<path fill="white" d="M15.7761 9.412C15.8241 8.668 16.1081 8.088 16.6281 7.672C17.1561 7.256 17.8281 7.048 18.6441 7.048C19.2041 7.048 19.6881 7.148 20.0961 7.348C20.5041 7.548 20.8121 7.82 21.0201 8.164C21.2281 8.508 21.3321 8.896 21.3321 9.328C21.3321 9.824 21.2001 10.248 20.9361 10.6C20.6721 10.952 20.3561 11.188 19.9881 11.308V11.356C20.4601 11.5 20.8281 11.764 21.0921 12.148C21.3561 12.524 21.4881 13.008 21.4881 13.6C21.4881 14.072 21.3801 14.492 21.1641 14.86C20.9481 15.228 20.6281 15.52 20.2041 15.736C19.7801 15.944 19.2721 16.048 18.6801 16.048C17.8161 16.048 17.1041 15.828 16.5441 15.388C15.9921 14.94 15.6961 14.3 15.6561 13.468H16.9761C17.0081 13.892 17.1721 14.24 17.4681 14.512C17.7641 14.776 18.1641 14.908 18.6681 14.908C19.1561 14.908 19.5321 14.776 19.7961 14.512C20.0601 14.24 20.1921 13.892 20.1921 13.468C20.1921 12.908 20.0121 12.512 19.6521 12.28C19.3001 12.04 18.7561 11.92 18.0201 11.92H17.7081V10.792H18.0321C18.6801 10.784 19.1721 10.676 19.5081 10.468C19.8521 10.26 20.0241 9.932 20.0241 9.484C20.0241 9.1 19.9001 8.796 19.6521 8.572C19.4041 8.34 19.0521 8.224 18.5961 8.224C18.1481 8.224 17.8001 8.34 17.5521 8.572C17.3041 8.796 17.1561 9.076 17.1081 9.412H15.7761ZM28.4691 8.308L25.1331 16H23.7531L27.1251 8.452H22.6851V7.288H28.4691V8.308Z"></path>
</svg>
