<svg xmlns="http://www.w3.org/2000/svg" fill="none" viewBox="0 0 44 24" height="24" width="44">
<path fill-opacity="0.5" fill="#FF0000" d="M2 12C2 6.47715 6.47715 2 12 2H32C37.5228 2 42 6.47715 42 12V12C42 17.5228 37.5228 22 32 22H12C6.47715 22 2 17.5228 2 12V12Z"></path>
<path stroke-width="2" stroke-opacity="0.2" stroke="#FF0000" d="M32 1H12C5.92487 1 1 5.92487 1 12C1 18.0751 5.92487 23 12 23H32C38.0751 23 43 18.0751 43 12C43 5.92487 38.0751 1 32 1Z"></path>
<path fill="white" d="M15.6706 9.412C15.7186 8.668 16.0026 8.088 16.5226 7.672C17.0506 7.256 17.7226 7.048 18.5386 7.048C19.0986 7.048 19.5826 7.148 19.9906 7.348C20.3986 7.548 20.7066 7.82 20.9146 8.164C21.1226 8.508 21.2266 8.896 21.2266 9.328C21.2266 9.824 21.0946 10.248 20.8306 10.6C20.5666 10.952 20.2506 11.188 19.8826 11.308V11.356C20.3546 11.5 20.7226 11.764 20.9866 12.148C21.2506 12.524 21.3826 13.008 21.3826 13.6C21.3826 14.072 21.2746 14.492 21.0586 14.86C20.8426 15.228 20.5226 15.52 20.0986 15.736C19.6746 15.944 19.1666 16.048 18.5746 16.048C17.7106 16.048 16.9986 15.828 16.4386 15.388C15.8866 14.94 15.5906 14.3 15.5506 13.468H16.8706C16.9026 13.892 17.0666 14.24 17.3626 14.512C17.6586 14.776 18.0586 14.908 18.5626 14.908C19.0506 14.908 19.4266 14.776 19.6906 14.512C19.9546 14.24 20.0866 13.892 20.0866 13.468C20.0866 12.908 19.9066 12.512 19.5466 12.28C19.1946 12.04 18.6506 11.92 17.9146 11.92H17.6026V10.792H17.9266C18.5746 10.784 19.0666 10.676 19.4026 10.468C19.7466 10.26 19.9186 9.932 19.9186 9.484C19.9186 9.1 19.7946 8.796 19.5466 8.572C19.2986 8.34 18.9466 8.224 18.4906 8.224C18.0426 8.224 17.6946 8.34 17.4466 8.572C17.1986 8.796 17.0506 9.076 17.0026 9.412H15.6706ZM23.5756 14.14C24.3436 13.476 24.9476 12.932 25.3876 12.508C25.8356 12.076 26.2076 11.628 26.5036 11.164C26.7996 10.7 26.9476 10.236 26.9476 9.772C26.9476 9.292 26.8316 8.916 26.5996 8.644C26.3756 8.372 26.0196 8.236 25.5316 8.236C25.0596 8.236 24.6916 8.388 24.4276 8.692C24.1716 8.988 24.0356 9.388 24.0196 9.892H22.6996C22.7236 8.98 22.9956 8.284 23.5156 7.804C24.0436 7.316 24.7116 7.072 25.5196 7.072C26.3916 7.072 27.0716 7.312 27.5596 7.792C28.0556 8.272 28.3036 8.912 28.3036 9.712C28.3036 10.288 28.1556 10.844 27.8596 11.38C27.5716 11.908 27.2236 12.384 26.8156 12.808C26.4156 13.224 25.9036 13.708 25.2796 14.26L24.7396 14.74H28.5436V15.88H22.7116V14.884L23.5756 14.14Z"></path>
</svg>
