<svg xmlns="http://www.w3.org/2000/svg" fill="none" viewBox="0 0 480 360" height="360" width="480">
<rect fill="#1A1A1A" rx="5" height="40" width="150" y="310" x="10"></rect>
<rect stroke-width="2" stroke-opacity="0.2" stroke="white" rx="6" height="42" width="152" y="309" x="9"></rect>
<path fill="white" d="M54.796 334L53.036 330.942H52.079V334H50.825V326.355H53.465C54.0517 326.355 54.5467 326.458 54.95 326.663C55.3607 326.868 55.665 327.143 55.863 327.488C56.0683 327.833 56.171 328.218 56.171 328.643C56.171 329.142 56.0243 329.596 55.731 330.007C55.445 330.41 55.0013 330.685 54.4 330.832L56.292 334H54.796ZM52.079 329.941H53.465C53.9343 329.941 54.2863 329.824 54.521 329.589C54.763 329.354 54.884 329.039 54.884 328.643C54.884 328.247 54.7667 327.939 54.532 327.719C54.2973 327.492 53.9417 327.378 53.465 327.378H52.079V329.941ZM63.3302 330.821C63.3302 331.048 63.3155 331.254 63.2862 331.437H58.6552C58.6919 331.921 58.8715 332.31 59.1942 332.603C59.5169 332.896 59.9129 333.043 60.3822 333.043C61.0569 333.043 61.5335 332.761 61.8122 332.196H63.1652C62.9819 332.753 62.6482 333.212 62.1642 333.571C61.6875 333.923 61.0935 334.099 60.3822 334.099C59.8029 334.099 59.2822 333.971 58.8202 333.714C58.3655 333.45 58.0062 333.083 57.7422 332.614C57.4855 332.137 57.3572 331.587 57.3572 330.964C57.3572 330.341 57.4819 329.794 57.7312 329.325C57.9879 328.848 58.3435 328.482 58.7982 328.225C59.2602 327.968 59.7882 327.84 60.3822 327.84C60.9542 327.84 61.4639 327.965 61.9112 328.214C62.3585 328.463 62.7069 328.815 62.9562 329.27C63.2055 329.717 63.3302 330.234 63.3302 330.821ZM62.0212 330.425C62.0139 329.963 61.8489 329.593 61.5262 329.314C61.2035 329.035 60.8039 328.896 60.3272 328.896C59.8945 328.896 59.5242 329.035 59.2162 329.314C58.9082 329.585 58.7249 329.956 58.6662 330.425H62.0212ZM65.8183 328.83C66.0309 328.551 66.3206 328.317 66.6873 328.126C67.0539 327.935 67.4683 327.84 67.9303 327.84C68.4583 327.84 68.9386 327.972 69.3713 328.236C69.8113 328.493 70.1559 328.856 70.4053 329.325C70.6546 329.794 70.7793 330.333 70.7793 330.942C70.7793 331.551 70.6546 332.097 70.4053 332.581C70.1559 333.058 69.8113 333.432 69.3713 333.703C68.9386 333.967 68.4583 334.099 67.9303 334.099C67.4683 334.099 67.0576 334.007 66.6983 333.824C66.3389 333.633 66.0456 333.399 65.8183 333.12V336.882H64.5643V327.939H65.8183V328.83ZM69.5033 330.942C69.5033 330.524 69.4153 330.165 69.2393 329.864C69.0706 329.556 68.8433 329.325 68.5573 329.171C68.2786 329.01 67.9779 328.929 67.6553 328.929C67.3399 328.929 67.0393 329.01 66.7533 329.171C66.4746 329.332 66.2473 329.567 66.0713 329.875C65.9026 330.183 65.8183 330.546 65.8183 330.964C65.8183 331.382 65.9026 331.749 66.0713 332.064C66.2473 332.372 66.4746 332.607 66.7533 332.768C67.0393 332.929 67.3399 333.01 67.6553 333.01C67.9779 333.01 68.2786 332.929 68.5573 332.768C68.8433 332.599 69.0706 332.357 69.2393 332.042C69.4153 331.727 69.5033 331.36 69.5033 330.942ZM71.6013 330.942C71.6013 330.333 71.726 329.794 71.9753 329.325C72.232 328.856 72.5767 328.493 73.0093 328.236C73.4493 327.972 73.9333 327.84 74.4613 327.84C74.938 327.84 75.3523 327.935 75.7043 328.126C76.0637 328.309 76.3497 328.54 76.5623 328.819V327.939H77.8273V334H76.5623V333.098C76.3497 333.384 76.06 333.622 75.6933 333.813C75.3267 334.004 74.9087 334.099 74.4393 334.099C73.9187 334.099 73.442 333.967 73.0093 333.703C72.5767 333.432 72.232 333.058 71.9753 332.581C71.726 332.097 71.6013 331.551 71.6013 330.942ZM76.5623 330.964C76.5623 330.546 76.4743 330.183 76.2983 329.875C76.1297 329.567 75.906 329.332 75.6273 329.171C75.3487 329.01 75.048 328.929 74.7253 328.929C74.4027 328.929 74.102 329.01 73.8233 329.171C73.5447 329.325 73.3173 329.556 73.1413 329.864C72.9727 330.165 72.8883 330.524 72.8883 330.942C72.8883 331.36 72.9727 331.727 73.1413 332.042C73.3173 332.357 73.5447 332.599 73.8233 332.768C74.1093 332.929 74.41 333.01 74.7253 333.01C75.048 333.01 75.3487 332.929 75.6273 332.768C75.906 332.607 76.1297 332.372 76.2983 332.064C76.4743 331.749 76.5623 331.382 76.5623 330.964ZM80.1124 327.136C79.8851 327.136 79.6944 327.059 79.5404 326.905C79.3864 326.751 79.3094 326.56 79.3094 326.333C79.3094 326.106 79.3864 325.915 79.5404 325.761C79.6944 325.607 79.8851 325.53 80.1124 325.53C80.3324 325.53 80.5194 325.607 80.6734 325.761C80.8274 325.915 80.9044 326.106 80.9044 326.333C80.9044 326.56 80.8274 326.751 80.6734 326.905C80.5194 327.059 80.3324 327.136 80.1124 327.136ZM80.7284 327.939V334H79.4744V327.939H80.7284ZM83.6288 328.819C83.8121 328.511 84.0541 328.273 84.3548 328.104C84.6628 327.928 85.0258 327.84 85.4438 327.84V329.138H85.1248C84.6335 329.138 84.2595 329.263 84.0028 329.512C83.7535 329.761 83.6288 330.194 83.6288 330.81V334H82.3748V327.939H83.6288V328.819ZM90.7079 332.988H93.2929V334H89.4539V326.355H90.7079V332.988ZM96.9706 334.099C96.3986 334.099 95.8816 333.971 95.4196 333.714C94.9576 333.45 94.5946 333.083 94.3306 332.614C94.0666 332.137 93.9346 331.587 93.9346 330.964C93.9346 330.348 94.0703 329.802 94.3416 329.325C94.6129 328.848 94.9833 328.482 95.4526 328.225C95.9219 327.968 96.4463 327.84 97.0256 327.84C97.6049 327.84 98.1293 327.968 98.5986 328.225C99.0679 328.482 99.4383 328.848 99.7096 329.325C99.9809 329.802 100.117 330.348 100.117 330.964C100.117 331.58 99.9773 332.126 99.6986 332.603C99.4199 333.08 99.0386 333.45 98.5546 333.714C98.0779 333.971 97.5499 334.099 96.9706 334.099ZM96.9706 333.01C97.2933 333.01 97.5939 332.933 97.8726 332.779C98.1586 332.625 98.3896 332.394 98.5656 332.086C98.7416 331.778 98.8296 331.404 98.8296 330.964C98.8296 330.524 98.7453 330.154 98.5766 329.853C98.4079 329.545 98.1843 329.314 97.9056 329.16C97.6269 329.006 97.3263 328.929 97.0036 328.929C96.6809 328.929 96.3803 329.006 96.1016 329.16C95.8303 329.314 95.6139 329.545 95.4526 329.853C95.2913 330.154 95.2106 330.524 95.2106 330.964C95.2106 331.617 95.3756 332.123 95.7056 332.482C96.0429 332.834 96.4646 333.01 96.9706 333.01ZM100.938 330.964C100.938 330.341 101.063 329.794 101.312 329.325C101.569 328.848 101.921 328.482 102.368 328.225C102.816 327.968 103.329 327.84 103.908 327.84C104.642 327.84 105.247 328.016 105.723 328.368C106.207 328.713 106.534 329.208 106.702 329.853H105.349C105.239 329.552 105.063 329.318 104.821 329.149C104.579 328.98 104.275 328.896 103.908 328.896C103.395 328.896 102.984 329.079 102.676 329.446C102.376 329.805 102.225 330.311 102.225 330.964C102.225 331.617 102.376 332.126 102.676 332.493C102.984 332.86 103.395 333.043 103.908 333.043C104.634 333.043 105.115 332.724 105.349 332.086H106.702C106.526 332.702 106.196 333.193 105.712 333.56C105.228 333.919 104.627 334.099 103.908 334.099C103.329 334.099 102.816 333.971 102.368 333.714C101.921 333.45 101.569 333.083 101.312 332.614C101.063 332.137 100.938 331.587 100.938 330.964ZM107.534 330.942C107.534 330.333 107.659 329.794 107.908 329.325C108.165 328.856 108.509 328.493 108.942 328.236C109.382 327.972 109.866 327.84 110.394 327.84C110.871 327.84 111.285 327.935 111.637 328.126C111.996 328.309 112.282 328.54 112.495 328.819V327.939H113.76V334H112.495V333.098C112.282 333.384 111.993 333.622 111.626 333.813C111.259 334.004 110.841 334.099 110.372 334.099C109.851 334.099 109.375 333.967 108.942 333.703C108.509 333.432 108.165 333.058 107.908 332.581C107.659 332.097 107.534 331.551 107.534 330.942ZM112.495 330.964C112.495 330.546 112.407 330.183 112.231 329.875C112.062 329.567 111.839 329.332 111.56 329.171C111.281 329.01 110.981 328.929 110.658 328.929C110.335 328.929 110.035 329.01 109.756 329.171C109.477 329.325 109.25 329.556 109.074 329.864C108.905 330.165 108.821 330.524 108.821 330.942C108.821 331.36 108.905 331.727 109.074 332.042C109.25 332.357 109.477 332.599 109.756 332.768C110.042 332.929 110.343 333.01 110.658 333.01C110.981 333.01 111.281 332.929 111.56 332.768C111.839 332.607 112.062 332.372 112.231 332.064C112.407 331.749 112.495 331.382 112.495 330.964ZM116.661 325.86V334H115.407V325.86H116.661ZM120.747 330.942C120.747 330.333 120.872 329.794 121.121 329.325C121.378 328.856 121.722 328.493 122.155 328.236C122.595 327.972 123.083 327.84 123.618 327.84C124.014 327.84 124.403 327.928 124.784 328.104C125.173 328.273 125.481 328.5 125.708 328.786V325.86H126.973V334H125.708V333.087C125.503 333.38 125.217 333.622 124.85 333.813C124.491 334.004 124.076 334.099 123.607 334.099C123.079 334.099 122.595 333.967 122.155 333.703C121.722 333.432 121.378 333.058 121.121 332.581C120.872 332.097 120.747 331.551 120.747 330.942ZM125.708 330.964C125.708 330.546 125.62 330.183 125.444 329.875C125.275 329.567 125.052 329.332 124.773 329.171C124.494 329.01 124.194 328.929 123.871 328.929C123.548 328.929 123.248 329.01 122.969 329.171C122.69 329.325 122.463 329.556 122.287 329.864C122.118 330.165 122.034 330.524 122.034 330.942C122.034 331.36 122.118 331.727 122.287 332.042C122.463 332.357 122.69 332.599 122.969 332.768C123.255 332.929 123.556 333.01 123.871 333.01C124.194 333.01 124.494 332.929 124.773 332.768C125.052 332.607 125.275 332.372 125.444 332.064C125.62 331.749 125.708 331.382 125.708 330.964ZM129.258 327.136C129.031 327.136 128.84 327.059 128.686 326.905C128.532 326.751 128.455 326.56 128.455 326.333C128.455 326.106 128.532 325.915 128.686 325.761C128.84 325.607 129.031 325.53 129.258 325.53C129.478 325.53 129.665 325.607 129.819 325.761C129.973 325.915 130.05 326.106 130.05 326.333C130.05 326.56 129.973 326.751 129.819 326.905C129.665 327.059 129.478 327.136 129.258 327.136ZM129.874 327.939V334H128.62V327.939H129.874ZM133.72 334.099C133.244 334.099 132.815 334.015 132.433 333.846C132.059 333.67 131.762 333.435 131.542 333.142C131.322 332.841 131.205 332.508 131.19 332.141H132.488C132.51 332.398 132.631 332.614 132.851 332.79C133.079 332.959 133.361 333.043 133.698 333.043C134.05 333.043 134.322 332.977 134.512 332.845C134.71 332.706 134.809 332.53 134.809 332.317C134.809 332.09 134.699 331.921 134.479 331.811C134.267 331.701 133.926 331.58 133.456 331.448C133.002 331.323 132.631 331.202 132.345 331.085C132.059 330.968 131.81 330.788 131.597 330.546C131.392 330.304 131.289 329.985 131.289 329.589C131.289 329.266 131.385 328.973 131.575 328.709C131.766 328.438 132.037 328.225 132.389 328.071C132.749 327.917 133.159 327.84 133.621 327.84C134.311 327.84 134.864 328.016 135.282 328.368C135.708 328.713 135.935 329.186 135.964 329.787H134.71C134.688 329.516 134.578 329.299 134.38 329.138C134.182 328.977 133.915 328.896 133.577 328.896C133.247 328.896 132.994 328.958 132.818 329.083C132.642 329.208 132.554 329.373 132.554 329.578C132.554 329.739 132.613 329.875 132.73 329.985C132.848 330.095 132.991 330.183 133.159 330.249C133.328 330.308 133.577 330.385 133.907 330.48C134.347 330.597 134.707 330.718 134.985 330.843C135.271 330.96 135.517 331.136 135.722 331.371C135.928 331.606 136.034 331.917 136.041 332.306C136.041 332.651 135.946 332.959 135.755 333.23C135.565 333.501 135.293 333.714 134.941 333.868C134.597 334.022 134.19 334.099 133.72 334.099ZM139.794 330.975L142.588 334H140.894L138.65 331.393V334H137.396V325.86H138.65V330.59L140.85 327.939H142.588L139.794 330.975Z"></path>
<path stroke-width="0.842105" stroke="white" d="M26.6316 331H23.6842C22.754 331 22 331.754 22 332.684V335.211C22 336.141 22.754 336.895 23.6842 336.895H36.3158C37.246 336.895 38 336.141 38 335.211V332.684C38 331.754 37.246 331 36.3158 331H32.5263"></path>
<path fill="white" d="M33.7891 333.947C33.7891 333.25 34.3546 332.684 35.0522 332.684C35.7498 332.684 36.3154 333.25 36.3154 333.947C36.3154 334.645 35.7498 335.211 35.0522 335.211C34.3546 335.211 33.7891 334.645 33.7891 333.947Z"></path>
<path stroke-linejoin="round" stroke-linecap="round" stroke-width="0.842105" stroke="white" d="M25.7891 328.474C25.7891 329.223 26.0113 329.956 26.4277 330.579C26.8441 331.202 27.4359 331.688 28.1284 331.975C28.8208 332.262 29.5827 332.337 30.3178 332.19C31.0529 332.044 31.7281 331.683 32.2581 331.153C32.7881 330.623 33.149 329.948 33.2952 329.213C33.4414 328.478 33.3664 327.716 33.0796 327.024C32.7927 326.331 32.307 325.739 31.6839 325.323C31.0607 324.906 30.328 324.684 29.5785 324.684H25.7891M25.7891 324.684L27.4733 323M25.7891 324.684L27.4733 326.368"></path>
</svg>
