<svg xmlns="http://www.w3.org/2000/svg" fill="none" viewBox="0 0 480 360" height="360" width="480">
<path fill-opacity="0.9" fill="#1B1B1B" d="M10 180C10 174.477 14.4772 170 20 170H460C465.523 170 470 174.477 470 180V340C470 345.523 465.523 350 460 350H20C14.4772 350 10 345.523 10 340V180Z"></path>
<path stroke-width="2" stroke-opacity="0.2" stroke="white" d="M20 169C13.9249 169 9 173.925 9 180V340C9 346.075 13.9249 351 20 351H460C466.075 351 471 346.075 471 340V180C471 173.925 466.075 169 460 169H20Z"></path>
<rect fill-opacity="0.05" fill="white" rx="5" height="36" width="36" y="182" x="22"></rect>
<path fill="white" d="M38.2582 196.8V195.252H41.1502V204H39.4222V196.8H38.2582Z"></path>
<rect fill-opacity="0.05" fill="white" rx="5" height="36" width="36" y="182" x="62"></rect>
<path fill="white" d="M77.7187 202.104C78.4867 201.464 79.0987 200.932 79.5547 200.508C80.0107 200.076 80.3907 199.628 80.6947 199.164C80.9987 198.7 81.1507 198.244 81.1507 197.796C81.1507 197.388 81.0547 197.068 80.8627 196.836C80.6707 196.604 80.3747 196.488 79.9747 196.488C79.5747 196.488 79.2667 196.624 79.0507 196.896C78.8347 197.16 78.7227 197.524 78.7147 197.988H77.0827C77.1147 197.028 77.3987 196.3 77.9347 195.804C78.4787 195.308 79.1667 195.06 79.9987 195.06C80.9107 195.06 81.6107 195.304 82.0987 195.792C82.5867 196.272 82.8307 196.908 82.8307 197.7C82.8307 198.324 82.6627 198.92 82.3267 199.488C81.9907 200.056 81.6067 200.552 81.1747 200.976C80.7427 201.392 80.1787 201.896 79.4827 202.488H83.0227V203.88H77.0947V202.632L77.7187 202.104Z"></path>
<rect fill-opacity="0.05" fill="white" rx="5" height="36" width="36" y="182" x="102"></rect>
<path fill="white" d="M117.068 197.556C117.108 196.756 117.388 196.14 117.908 195.708C118.436 195.268 119.128 195.048 119.984 195.048C120.568 195.048 121.068 195.152 121.484 195.36C121.9 195.56 122.212 195.836 122.42 196.188C122.636 196.532 122.744 196.924 122.744 197.364C122.744 197.868 122.612 198.296 122.348 198.648C122.092 198.992 121.784 199.224 121.424 199.344V199.392C121.888 199.536 122.248 199.792 122.504 200.16C122.768 200.528 122.9 201 122.9 201.576C122.9 202.056 122.788 202.484 122.564 202.86C122.348 203.236 122.024 203.532 121.592 203.748C121.168 203.956 120.656 204.06 120.056 204.06C119.152 204.06 118.416 203.832 117.848 203.376C117.28 202.92 116.98 202.248 116.948 201.36H118.58C118.596 201.752 118.728 202.068 118.976 202.308C119.232 202.54 119.58 202.656 120.02 202.656C120.428 202.656 120.74 202.544 120.956 202.32C121.18 202.088 121.292 201.792 121.292 201.432C121.292 200.952 121.14 200.608 120.836 200.4C120.532 200.192 120.06 200.088 119.42 200.088H119.072V198.708H119.42C120.556 198.708 121.124 198.328 121.124 197.568C121.124 197.224 121.02 196.956 120.812 196.764C120.612 196.572 120.32 196.476 119.936 196.476C119.56 196.476 119.268 196.58 119.06 196.788C118.86 196.988 118.744 197.244 118.712 197.556H117.068Z"></path>
<rect fill-opacity="0.05" fill="white" rx="5" height="36" width="36" y="182" x="142"></rect>
<path fill="white" d="M156.597 202.296V200.976L160.521 195.36H162.477V200.832H163.533V202.296H162.477V204H160.797V202.296H156.597ZM160.905 197.16L158.445 200.832H160.905V197.16Z"></path>
<rect fill-opacity="0.05" fill="white" rx="5" height="36" width="36" y="182" x="182"></rect>
<path fill="white" d="M202.655 196.704H198.767V198.756C198.935 198.548 199.175 198.38 199.487 198.252C199.799 198.116 200.131 198.048 200.483 198.048C201.123 198.048 201.647 198.188 202.055 198.468C202.463 198.748 202.759 199.108 202.943 199.548C203.127 199.98 203.219 200.444 203.219 200.94C203.219 201.86 202.955 202.6 202.427 203.16C201.907 203.72 201.163 204 200.195 204C199.283 204 198.555 203.772 198.011 203.316C197.467 202.86 197.159 202.264 197.087 201.528H198.719C198.791 201.848 198.951 202.104 199.199 202.296C199.455 202.488 199.779 202.584 200.171 202.584C200.643 202.584 200.999 202.436 201.239 202.14C201.479 201.844 201.599 201.452 201.599 200.964C201.599 200.468 201.475 200.092 201.227 199.836C200.987 199.572 200.631 199.44 200.159 199.44C199.823 199.44 199.543 199.524 199.319 199.692C199.095 199.86 198.935 200.084 198.839 200.364H197.231V195.228H202.655V196.704Z"></path>
<rect fill-opacity="0.05" fill="white" rx="5" height="36" width="36" y="182" x="222"></rect>
<path fill="white" d="M241.334 197.436C241.254 197.1 241.114 196.848 240.914 196.68C240.722 196.512 240.442 196.428 240.074 196.428C239.522 196.428 239.114 196.652 238.85 197.1C238.594 197.54 238.462 198.26 238.454 199.26C238.646 198.94 238.926 198.692 239.294 198.516C239.662 198.332 240.062 198.24 240.494 198.24C241.014 198.24 241.474 198.352 241.874 198.576C242.274 198.8 242.586 199.128 242.81 199.56C243.034 199.984 243.146 200.496 243.146 201.096C243.146 201.664 243.03 202.172 242.798 202.62C242.574 203.06 242.242 203.404 241.802 203.652C241.362 203.9 240.838 204.024 240.23 204.024C239.398 204.024 238.742 203.84 238.262 203.472C237.79 203.104 237.458 202.592 237.266 201.936C237.082 201.272 236.99 200.456 236.99 199.488C236.99 198.024 237.242 196.92 237.746 196.176C238.25 195.424 239.046 195.048 240.134 195.048C240.974 195.048 241.626 195.276 242.09 195.732C242.554 196.188 242.822 196.756 242.894 197.436H241.334ZM240.11 199.62C239.686 199.62 239.33 199.744 239.042 199.992C238.754 200.24 238.61 200.6 238.61 201.072C238.61 201.544 238.742 201.916 239.006 202.188C239.278 202.46 239.658 202.596 240.146 202.596C240.578 202.596 240.918 202.464 241.166 202.2C241.422 201.936 241.55 201.58 241.55 201.132C241.55 200.668 241.426 200.3 241.178 200.028C240.938 199.756 240.582 199.62 240.11 199.62Z"></path>
<rect fill-opacity="0.05" fill="white" rx="5" height="36" width="36" y="182" x="262"></rect>
<path fill="white" d="M282.917 196.524L279.725 204H278.021L281.237 196.716H277.133V195.276H282.917V196.524Z"></path>
<rect fill-opacity="0.05" fill="white" rx="5" height="36" width="36" y="182" x="302"></rect>
<path fill="white" d="M318.245 199.368C317.445 198.952 317.045 198.308 317.045 197.436C317.045 197.004 317.153 196.612 317.369 196.26C317.593 195.9 317.925 195.616 318.365 195.408C318.813 195.192 319.357 195.084 319.997 195.084C320.637 195.084 321.177 195.192 321.617 195.408C322.065 195.616 322.397 195.9 322.613 196.26C322.837 196.612 322.949 197.004 322.949 197.436C322.949 197.876 322.841 198.264 322.625 198.6C322.409 198.928 322.121 199.184 321.761 199.368C322.201 199.56 322.545 199.84 322.793 200.208C323.041 200.576 323.165 201.012 323.165 201.516C323.165 202.06 323.025 202.536 322.745 202.944C322.473 203.344 322.097 203.652 321.617 203.868C321.137 204.084 320.597 204.192 319.997 204.192C319.397 204.192 318.857 204.084 318.377 203.868C317.905 203.652 317.529 203.344 317.249 202.944C316.977 202.536 316.841 202.06 316.841 201.516C316.841 201.012 316.965 200.576 317.213 200.208C317.461 199.832 317.805 199.552 318.245 199.368ZM321.317 197.676C321.317 197.284 321.197 196.98 320.957 196.764C320.725 196.548 320.405 196.44 319.997 196.44C319.597 196.44 319.277 196.548 319.037 196.764C318.805 196.98 318.689 197.288 318.689 197.688C318.689 198.048 318.809 198.336 319.049 198.552C319.297 198.768 319.613 198.876 319.997 198.876C320.381 198.876 320.697 198.768 320.945 198.552C321.193 198.328 321.317 198.036 321.317 197.676ZM319.997 200.1C319.541 200.1 319.169 200.216 318.881 200.448C318.601 200.68 318.461 201.012 318.461 201.444C318.461 201.844 318.597 202.172 318.869 202.428C319.149 202.676 319.525 202.8 319.997 202.8C320.469 202.8 320.841 202.672 321.113 202.416C321.385 202.16 321.521 201.836 321.521 201.444C321.521 201.02 321.381 200.692 321.101 200.46C320.821 200.22 320.453 200.1 319.997 200.1Z"></path>
<rect fill-opacity="0.05" fill="white" rx="5" height="36" width="36" y="182" x="342"></rect>
<path fill="white" d="M358.824 201.54C358.888 201.892 359.032 202.164 359.256 202.356C359.488 202.54 359.796 202.632 360.18 202.632C360.676 202.632 361.036 202.428 361.26 202.02C361.484 201.604 361.596 200.908 361.596 199.932C361.412 200.188 361.152 200.388 360.816 200.532C360.488 200.676 360.132 200.748 359.748 200.748C359.236 200.748 358.772 200.644 358.356 200.436C357.948 200.22 357.624 199.904 357.384 199.488C357.144 199.064 357.024 198.552 357.024 197.952C357.024 197.064 357.288 196.36 357.816 195.84C358.344 195.312 359.064 195.048 359.976 195.048C361.112 195.048 361.912 195.412 362.376 196.14C362.848 196.868 363.084 197.964 363.084 199.428C363.084 200.468 362.992 201.32 362.808 201.984C362.632 202.648 362.324 203.152 361.884 203.496C361.452 203.84 360.86 204.012 360.108 204.012C359.516 204.012 359.012 203.9 358.596 203.676C358.18 203.444 357.86 203.144 357.636 202.776C357.42 202.4 357.296 201.988 357.264 201.54H358.824ZM360.096 199.38C360.512 199.38 360.84 199.252 361.08 198.996C361.32 198.74 361.44 198.396 361.44 197.964C361.44 197.492 361.312 197.128 361.056 196.872C360.808 196.608 360.468 196.476 360.036 196.476C359.604 196.476 359.26 196.612 359.004 196.884C358.756 197.148 358.632 197.5 358.632 197.94C358.632 198.364 358.752 198.712 358.992 198.984C359.24 199.248 359.608 199.38 360.096 199.38Z"></path>
<rect fill-opacity="0.05" fill="white" rx="5" height="36" width="36" y="182" x="382"></rect>
<path fill="white" d="M396.757 199.512C396.757 198.128 397.005 197.044 397.501 196.26C398.005 195.476 398.837 195.084 399.997 195.084C401.157 195.084 401.985 195.476 402.481 196.26C402.985 197.044 403.237 198.128 403.237 199.512C403.237 200.904 402.985 201.996 402.481 202.788C401.985 203.58 401.157 203.976 399.997 203.976C398.837 203.976 398.005 203.58 397.501 202.788C397.005 201.996 396.757 200.904 396.757 199.512ZM401.581 199.512C401.581 198.92 401.541 198.424 401.461 198.024C401.389 197.616 401.237 197.284 401.005 197.028C400.781 196.772 400.445 196.644 399.997 196.644C399.549 196.644 399.209 196.772 398.977 197.028C398.753 197.284 398.601 197.616 398.521 198.024C398.449 198.424 398.413 198.92 398.413 199.512C398.413 200.12 398.449 200.632 398.521 201.048C398.593 201.456 398.745 201.788 398.977 202.044C399.209 202.292 399.549 202.416 399.997 202.416C400.445 202.416 400.785 202.292 401.017 202.044C401.249 201.788 401.401 201.456 401.473 201.048C401.545 200.632 401.581 200.12 401.581 199.512Z"></path>
<rect fill-opacity="0.05" fill="white" rx="5" height="36" width="36" y="222" x="22"></rect>
<path fill="white" d="M42.8877 238.612L42.4917 240.46H44.0157V241.96H42.1677L41.7357 244H40.1397L40.5717 241.96H38.3877L37.9557 244H36.3717L36.8037 241.96H34.9917V240.46H37.1277L37.5237 238.612H35.7237V237.112H37.8477L38.2677 235.12H39.8517L39.4317 237.112H41.6157L42.0357 235.12H43.6317L43.2117 237.112H44.7477V238.612H42.8877ZM41.2917 238.612H39.1077L38.7117 240.46H40.8957L41.2917 238.612Z"></path>
<rect fill-opacity="0.05" fill="white" rx="5" height="36" width="36" y="222" x="62"></rect>
<path fill="white" d="M75.4694 237.4C75.4694 236.792 75.6454 236.316 75.9974 235.972C76.3574 235.628 76.8174 235.456 77.3774 235.456C77.9374 235.456 78.3934 235.628 78.7454 235.972C79.1054 236.316 79.2854 236.792 79.2854 237.4C79.2854 238.016 79.1054 238.496 78.7454 238.84C78.3934 239.184 77.9374 239.356 77.3774 239.356C76.8174 239.356 76.3574 239.184 75.9974 238.84C75.6454 238.496 75.4694 238.016 75.4694 237.4ZM83.1734 235.6L78.4574 244H76.8254L81.5294 235.6H83.1734ZM77.3654 236.464C76.9254 236.464 76.7054 236.776 76.7054 237.4C76.7054 238.032 76.9254 238.348 77.3654 238.348C77.5814 238.348 77.7494 238.272 77.8694 238.12C77.9894 237.96 78.0494 237.72 78.0494 237.4C78.0494 236.776 77.8214 236.464 77.3654 236.464ZM80.7374 242.188C80.7374 241.572 80.9134 241.096 81.2654 240.76C81.6254 240.416 82.0854 240.244 82.6454 240.244C83.2054 240.244 83.6574 240.416 84.0014 240.76C84.3534 241.096 84.5294 241.572 84.5294 242.188C84.5294 242.804 84.3534 243.284 84.0014 243.628C83.6574 243.972 83.2054 244.144 82.6454 244.144C82.0774 244.144 81.6174 243.972 81.2654 243.628C80.9134 243.284 80.7374 242.804 80.7374 242.188ZM82.6334 241.252C82.1774 241.252 81.9494 241.564 81.9494 242.188C81.9494 242.82 82.1774 243.136 82.6334 243.136C83.0814 243.136 83.3054 242.82 83.3054 242.188C83.3054 241.564 83.0814 241.252 82.6334 241.252Z"></path>
<rect fill-opacity="0.05" fill="white" rx="5" height="36" width="36" y="222" x="102"></rect>
<path fill="white" d="M122.602 244L121.69 243.1C120.914 243.796 119.966 244.144 118.846 244.144C118.23 244.144 117.686 244.04 117.214 243.832C116.75 243.616 116.39 243.316 116.134 242.932C115.878 242.54 115.75 242.088 115.75 241.576C115.75 241.024 115.906 240.528 116.218 240.088C116.53 239.648 116.99 239.292 117.598 239.02C117.382 238.756 117.226 238.504 117.13 238.264C117.034 238.016 116.986 237.752 116.986 237.472C116.986 237.088 117.086 236.744 117.286 236.44C117.486 236.128 117.77 235.884 118.138 235.708C118.514 235.532 118.95 235.444 119.446 235.444C119.95 235.444 120.382 235.54 120.742 235.732C121.102 235.924 121.37 236.18 121.546 236.5C121.722 236.82 121.798 237.176 121.774 237.568H120.142C120.15 237.304 120.086 237.104 119.95 236.968C119.814 236.824 119.63 236.752 119.398 236.752C119.174 236.752 118.986 236.82 118.834 236.956C118.69 237.084 118.618 237.252 118.618 237.46C118.618 237.66 118.678 237.86 118.798 238.06C118.918 238.252 119.114 238.492 119.386 238.78L121.498 240.868C121.514 240.852 121.526 240.836 121.534 240.82C121.542 240.804 121.55 240.788 121.558 240.772L122.242 239.632H123.994L123.154 241.108C122.994 241.42 122.822 241.716 122.638 241.996L124.666 244H122.602ZM118.894 242.752C119.55 242.752 120.13 242.52 120.634 242.056L118.57 240.016C117.794 240.36 117.406 240.848 117.406 241.48C117.406 241.84 117.542 242.144 117.814 242.392C118.086 242.632 118.446 242.752 118.894 242.752Z"></path>
<rect fill-opacity="0.05" fill="white" rx="5" height="36" width="36" y="222" x="142"></rect>
<path fill="white" d="M160.919 236.128C161.847 236.128 162.651 236.3 163.331 236.644C164.011 236.988 164.531 237.472 164.891 238.096C165.259 238.72 165.443 239.44 165.443 240.256C165.443 240.912 165.327 241.532 165.095 242.116C164.871 242.7 164.543 243.172 164.111 243.532C163.679 243.892 163.167 244.072 162.575 244.072C162.159 244.072 161.823 243.988 161.567 243.82C161.311 243.644 161.147 243.396 161.075 243.076C160.843 243.388 160.543 243.636 160.175 243.82C159.807 243.996 159.419 244.084 159.011 244.084C158.403 244.084 157.927 243.904 157.583 243.544C157.239 243.176 157.067 242.676 157.067 242.044C157.067 241.444 157.191 240.884 157.439 240.364C157.687 239.844 158.031 239.428 158.471 239.116C158.911 238.796 159.407 238.636 159.959 238.636C160.647 238.636 161.119 238.876 161.375 239.356L161.483 238.732H162.887L162.323 241.972C162.299 242.124 162.287 242.264 162.287 242.392C162.287 242.584 162.327 242.728 162.407 242.824C162.487 242.92 162.623 242.968 162.815 242.968C163.103 242.968 163.343 242.832 163.535 242.56C163.735 242.288 163.883 241.948 163.979 241.54C164.083 241.132 164.135 240.724 164.135 240.316C164.135 239.348 163.839 238.6 163.247 238.072C162.655 237.536 161.819 237.268 160.739 237.268C159.819 237.268 158.987 237.492 158.243 237.94C157.499 238.38 156.915 238.984 156.491 239.752C156.075 240.512 155.867 241.36 155.867 242.296C155.867 243.288 156.159 244.052 156.743 244.588C157.335 245.124 158.171 245.392 159.251 245.392C160.027 245.392 160.711 245.252 161.303 244.972L161.543 246.076C160.783 246.396 159.939 246.556 159.011 246.556C158.115 246.556 157.331 246.384 156.659 246.04C155.987 245.704 155.467 245.224 155.099 244.6C154.731 243.976 154.547 243.252 154.547 242.428C154.547 241.252 154.819 240.184 155.363 239.224C155.915 238.264 156.675 237.508 157.643 236.956C158.619 236.404 159.711 236.128 160.919 236.128ZM159.539 242.836C159.827 242.836 160.091 242.752 160.331 242.584C160.571 242.416 160.759 242.192 160.895 241.912C161.039 241.632 161.111 241.332 161.111 241.012C161.111 240.676 161.019 240.404 160.835 240.196C160.651 239.988 160.395 239.884 160.067 239.884C159.771 239.884 159.511 239.976 159.287 240.16C159.063 240.336 158.887 240.568 158.759 240.856C158.639 241.144 158.579 241.448 158.579 241.768C158.579 242.096 158.659 242.356 158.819 242.548C158.979 242.74 159.219 242.836 159.539 242.836Z"></path>
<rect fill-opacity="0.05" fill="white" rx="5" height="36" width="36" y="222" x="182"></rect>
<path fill="white" d="M199.289 238.648H197.513L198.809 235.624H199.973L199.289 238.648ZM201.713 238.648H199.937L201.233 235.624H202.397L201.713 238.648Z"></path>
<rect fill-opacity="0.05" fill="white" rx="5" height="36" width="36" y="222" x="222"></rect>
<path fill="white" d="M240.496 238.648H238.72L240.016 235.624H241.18L240.496 238.648Z"></path>
<rect fill-opacity="0.05" fill="white" rx="5" height="36" width="36" y="222" x="262"></rect>
<path fill="white" d="M278.467 242.56L277.411 240.46L278.467 238.36H280.063L278.959 240.46L280.063 242.56H278.467ZM280.963 242.56L279.895 240.46L280.963 238.36H282.547L281.443 240.46L282.547 242.56H280.963Z"></path>
<rect fill-opacity="0.05" fill="white" rx="5" height="36" width="36" y="222" x="302"></rect>
<path fill="white" d="M318.563 240.46L317.471 238.36H319.055L320.123 240.46L319.055 242.56H317.471L318.563 240.46ZM321.059 240.46L319.955 238.36H321.539L322.607 240.46L321.539 242.56H319.955L321.059 240.46Z"></path>
<rect fill-opacity="0.05" fill="white" rx="5" height="36" width="36" y="222" x="342"></rect>
<path fill="white" d="M363.262 237.556V239.02H356.722V237.556H363.262ZM363.262 240.436V241.9H356.722V240.436H363.262Z"></path>
<rect fill-opacity="0.05" fill="white" rx="5" height="36" width="36" y="222" x="382"></rect>
<path fill="white" d="M403.588 244.48V246.076H396.544V244.48H403.588Z"></path>
<rect fill-opacity="0.05" fill="white" rx="5" height="36" width="36" y="262" x="62"></rect>
<path fill="white" d="M80.0601 282.416L77.4441 279.728L80.0601 277.04H82.1721L79.5561 279.728L82.1721 282.416H80.0601Z"></path>
<rect fill-opacity="0.03" fill="white" rx="5" height="36" width="36" y="262" x="22"></rect>
<path fill="white" d="M33.2457 278V276.71H35.6557V284H34.2157V278H33.2457ZM40.9488 274.53L38.2488 285.81H36.8788L39.5788 274.53H40.9488ZM42.3421 282.42C42.9821 281.887 43.4921 281.443 43.8721 281.09C44.2521 280.73 44.5687 280.357 44.8221 279.97C45.0754 279.583 45.2021 279.203 45.2021 278.83C45.2021 278.49 45.1221 278.223 44.9621 278.03C44.8021 277.837 44.5554 277.74 44.2221 277.74C43.8887 277.74 43.6321 277.853 43.4521 278.08C43.2721 278.3 43.1787 278.603 43.1721 278.99H41.8121C41.8387 278.19 42.0754 277.583 42.5221 277.17C42.9754 276.757 43.5487 276.55 44.2421 276.55C45.0021 276.55 45.5854 276.753 45.9921 277.16C46.3987 277.56 46.6021 278.09 46.6021 278.75C46.6021 279.27 46.4621 279.767 46.1821 280.24C45.9021 280.713 45.5821 281.127 45.2221 281.48C44.8621 281.827 44.3921 282.247 43.8121 282.74H46.7621V283.9H41.8221V282.86L42.3421 282.42Z"></path>
<rect fill-opacity="0.05" fill="white" rx="5" height="36" width="36" y="302" x="142"></rect>
<path fill="white" d="M160.82 326.364C160.044 325.612 159.44 324.652 159.008 323.484C158.584 322.316 158.372 321.064 158.372 319.728C158.372 318.36 158.596 317.076 159.044 315.876C159.492 314.668 160.144 313.68 161 312.912H162.692V313.068C161.812 313.908 161.14 314.916 160.676 316.092C160.22 317.268 159.992 318.48 159.992 319.728C159.992 320.944 160.208 322.12 160.64 323.256C161.08 324.384 161.704 325.364 162.512 326.196V326.364H160.82Z"></path>
<rect fill-opacity="0.05" fill="white" rx="5" height="36" width="36" y="302" x="182"></rect>
<path fill="white" d="M197.484 326.364V326.196C198.292 325.364 198.912 324.384 199.344 323.256C199.784 322.12 200.004 320.944 200.004 319.728C200.004 318.48 199.772 317.268 199.308 316.092C198.852 314.916 198.184 313.908 197.304 313.068V312.912H198.996C199.852 313.68 200.504 314.668 200.952 315.876C201.4 317.076 201.624 318.36 201.624 319.728C201.624 321.064 201.408 322.316 200.976 323.484C200.552 324.652 199.952 325.612 199.176 326.364H197.484Z"></path>
<rect fill-opacity="0.05" fill="white" rx="5" height="36" width="36" y="302" x="222"></rect>
<path fill="white" d="M241.65 312.912V314.28H240.222V324.972H241.65V326.364H238.638V312.912H241.65Z"></path>
<rect fill-opacity="0.05" fill="white" rx="5" height="36" width="36" y="302" x="262"></rect>
<path fill="white" d="M281.355 326.364H278.343V324.972H279.771V314.28H278.343V312.912H281.355V326.364Z"></path>
<rect fill-opacity="0.05" fill="white" rx="5" height="36" width="36" y="302" x="302"></rect>
<path fill="white" d="M320.848 325.452H319.156V314.304H320.848V325.452Z"></path>
<rect fill-opacity="0.05" fill="white" rx="5" height="36" width="36" y="262" x="102"></rect>
<path fill="white" d="M117.664 277.04H119.788L122.404 279.728L119.788 282.416H117.664L120.292 279.728L117.664 277.04Z"></path>
<rect fill-opacity="0.05" fill="white" rx="5" height="36" width="36" y="262" x="142"></rect>
<path fill="white" d="M162.41 272.636L159.17 286.172H157.526L160.766 272.636H162.41Z"></path>
<rect fill-opacity="0.05" fill="white" rx="5" height="36" width="36" y="262" x="182"></rect>
<path fill="white" d="M200.961 286.172L197.541 272.636H199.173L202.605 286.172H200.961Z"></path>
<rect fill-opacity="0.05" fill="white" rx="5" height="36" width="36" y="262" x="222"></rect>
<path fill="white" d="M241.683 275.768L242.283 276.848L240.723 277.412L242.283 277.976L241.659 279.092L240.363 278.024L240.639 279.68H239.391L239.655 278.024L238.371 279.116L237.711 277.964L239.271 277.4L237.723 276.86L238.335 275.756L239.667 276.812L239.391 275.144H240.651L240.363 276.812L241.683 275.768Z"></path>
<rect fill-opacity="0.05" fill="white" rx="5" height="36" width="36" y="262" x="262"></rect>
<path fill="white" d="M279.626 278.756H281.69V279.776H278.246V278.816L279.614 277.892C279.862 277.724 280.046 277.56 280.166 277.4C280.294 277.232 280.358 277.06 280.358 276.884C280.358 276.74 280.318 276.624 280.238 276.536C280.158 276.448 280.054 276.404 279.926 276.404C279.678 276.404 279.534 276.552 279.494 276.848H278.198C278.222 276.432 278.394 276.096 278.714 275.84C279.034 275.584 279.47 275.456 280.022 275.456C280.374 275.456 280.678 275.52 280.934 275.648C281.19 275.776 281.382 275.944 281.51 276.152C281.646 276.352 281.714 276.568 281.714 276.8C281.714 277.088 281.618 277.344 281.426 277.568C281.234 277.784 280.91 278.024 280.454 278.288L279.626 278.756Z"></path>
<rect fill-opacity="0.05" fill="white" rx="5" height="36" width="36" y="262" x="302"></rect>
<path fill="white" d="M321.74 282.524L319.988 280.772L318.248 282.512L317.156 281.42L318.896 279.668L317.204 277.976L318.296 276.884L319.988 278.576L321.68 276.884L322.784 277.976L321.092 279.668L322.844 281.432L321.74 282.524Z"></path>
<rect fill-opacity="0.05" fill="white" rx="5" height="36" width="36" y="262" x="342"></rect>
<path fill="white" d="M360.081 278.048C359.777 278.048 359.525 277.956 359.325 277.772C359.133 277.58 359.037 277.344 359.037 277.064C359.037 276.784 359.133 276.552 359.325 276.368C359.525 276.176 359.777 276.08 360.081 276.08C360.377 276.08 360.621 276.176 360.813 276.368C361.005 276.552 361.101 276.784 361.101 277.064C361.101 277.344 361.005 277.58 360.813 277.772C360.621 277.956 360.377 278.048 360.081 278.048ZM363.105 278.984V280.448H356.985V278.984H363.105ZM360.081 283.34C359.777 283.34 359.525 283.248 359.325 283.064C359.133 282.872 359.037 282.636 359.037 282.356C359.037 282.076 359.133 281.844 359.325 281.66C359.525 281.468 359.777 281.372 360.081 281.372C360.377 281.372 360.621 281.468 360.813 281.66C361.005 281.844 361.101 282.076 361.101 282.356C361.101 282.636 361.005 282.872 360.813 283.064C360.621 283.248 360.377 283.34 360.081 283.34Z"></path>
<rect fill-opacity="0.05" fill="white" rx="5" height="36" width="36" y="262" x="382"></rect>
<path fill="white" d="M402.442 279.008V280.424H397.354V279.008H402.442Z"></path>
<rect fill-opacity="0.05" fill="white" rx="5" height="36" width="36" y="262" x="422"></rect>
<path fill="white" d="M443.061 280.46H440.793V282.788H439.209V280.46H436.941V278.996H439.209V276.668H440.793V278.996H443.061V280.46Z"></path>
<rect fill-opacity="0.03" fill="white" rx="5" height="36" width="36" y="222" x="422"></rect>
<path stroke-linejoin="round" stroke-linecap="round" stroke-width="1.5" stroke="white" d="M438 238L434.5 241.5M445.5 236V239.5C445.5 240.605 444.605 241.5 443.5 241.5H434.5M434.5 241.5L438 245"></path>
<rect fill-opacity="0.03" fill="white" rx="5" height="36" width="36" y="182" x="422"></rect>
<path stroke-width="1.5" stroke="white" d="M436.945 195.116C437.179 194.882 437.497 194.75 437.828 194.75H446C446.69 194.75 447.25 195.31 447.25 196V204C447.25 204.69 446.69 205.25 446 205.25H437.828C437.497 205.25 437.179 205.118 436.945 204.884L432.945 200.884C432.456 200.396 432.456 199.604 432.945 199.116L436.945 195.116Z"></path>
<path stroke-linecap="round" stroke-width="1.5" stroke="white" d="M444 202L442 200M440 198L442 200M442 200L444 198M442 200L440 202"></path>
<rect fill-opacity="0.03" fill="white" rx="5" height="36" width="116" y="302" x="22"></rect>
<path fill="white" d="M68.6538 320.652C68.6538 319.98 68.7858 319.384 69.0498 318.864C69.3218 318.344 69.6858 317.944 70.1418 317.664C70.6058 317.384 71.1218 317.244 71.6898 317.244C72.1858 317.244 72.6178 317.344 72.9858 317.544C73.3618 317.744 73.6618 317.996 73.8858 318.3V317.352H75.5778V324H73.8858V323.028C73.6698 323.34 73.3698 323.6 72.9858 323.808C72.6098 324.008 72.1738 324.108 71.6778 324.108C71.1178 324.108 70.6058 323.964 70.1418 323.676C69.6858 323.388 69.3218 322.984 69.0498 322.464C68.7858 321.936 68.6538 321.332 68.6538 320.652ZM73.8858 320.676C73.8858 320.268 73.8058 319.92 73.6458 319.632C73.4858 319.336 73.2698 319.112 72.9978 318.96C72.7258 318.8 72.4338 318.72 72.1218 318.72C71.8098 318.72 71.5218 318.796 71.2578 318.948C70.9938 319.1 70.7778 319.324 70.6098 319.62C70.4498 319.908 70.3698 320.252 70.3698 320.652C70.3698 321.052 70.4498 321.404 70.6098 321.708C70.7778 322.004 70.9938 322.232 71.2578 322.392C71.5298 322.552 71.8178 322.632 72.1218 322.632C72.4338 322.632 72.7258 322.556 72.9978 322.404C73.2698 322.244 73.4858 322.02 73.6458 321.732C73.8058 321.436 73.8858 321.084 73.8858 320.676ZM78.8986 318.324C79.1146 318.004 79.4106 317.744 79.7866 317.544C80.1706 317.344 80.6066 317.244 81.0946 317.244C81.6626 317.244 82.1746 317.384 82.6306 317.664C83.0946 317.944 83.4586 318.344 83.7226 318.864C83.9946 319.376 84.1306 319.972 84.1306 320.652C84.1306 321.332 83.9946 321.936 83.7226 322.464C83.4586 322.984 83.0946 323.388 82.6306 323.676C82.1746 323.964 81.6626 324.108 81.0946 324.108C80.5986 324.108 80.1626 324.012 79.7866 323.82C79.4186 323.62 79.1226 323.364 78.8986 323.052V324H77.2186V315.12H78.8986V318.324ZM82.4146 320.652C82.4146 320.252 82.3306 319.908 82.1626 319.62C82.0026 319.324 81.7866 319.1 81.5146 318.948C81.2506 318.796 80.9626 318.72 80.6506 318.72C80.3466 318.72 80.0586 318.8 79.7866 318.96C79.5226 319.112 79.3066 319.336 79.1386 319.632C78.9786 319.928 78.8986 320.276 78.8986 320.676C78.8986 321.076 78.9786 321.424 79.1386 321.72C79.3066 322.016 79.5226 322.244 79.7866 322.404C80.0586 322.556 80.3466 322.632 80.6506 322.632C80.9626 322.632 81.2506 322.552 81.5146 322.392C81.7866 322.232 82.0026 322.004 82.1626 321.708C82.3306 321.412 82.4146 321.06 82.4146 320.652ZM84.9194 320.676C84.9194 319.988 85.0594 319.388 85.3394 318.876C85.6194 318.356 86.0074 317.956 86.5034 317.676C86.9994 317.388 87.5674 317.244 88.2074 317.244C89.0314 317.244 89.7114 317.452 90.2474 317.868C90.7914 318.276 91.1554 318.852 91.3394 319.596H89.5274C89.4314 319.308 89.2674 319.084 89.0354 318.924C88.8114 318.756 88.5314 318.672 88.1954 318.672C87.7154 318.672 87.3354 318.848 87.0554 319.2C86.7754 319.544 86.6354 320.036 86.6354 320.676C86.6354 321.308 86.7754 321.8 87.0554 322.152C87.3354 322.496 87.7154 322.668 88.1954 322.668C88.8754 322.668 89.3194 322.364 89.5274 321.756H91.3394C91.1554 322.476 90.7914 323.048 90.2474 323.472C89.7034 323.896 89.0234 324.108 88.2074 324.108C87.5674 324.108 86.9994 323.968 86.5034 323.688C86.0074 323.4 85.6194 323 85.3394 322.488C85.0594 321.968 84.9194 321.364 84.9194 320.676Z"></path>
<rect fill-opacity="0.03" fill="white" rx="5" height="36" width="116" y="302" x="342"></rect>
<path stroke-linecap="round" stroke-width="1.5" stroke="white" d="M381 323L378 320M375 317L378 320M378 320L381 317M378 320L375 323"></path>
<path fill="white" d="M390.346 319.8C390.346 318.976 390.53 318.24 390.898 317.592C391.274 316.936 391.782 316.428 392.422 316.068C393.07 315.7 393.794 315.516 394.594 315.516C395.53 315.516 396.35 315.756 397.054 316.236C397.758 316.716 398.25 317.38 398.53 318.228H396.598C396.406 317.828 396.134 317.528 395.782 317.328C395.438 317.128 395.038 317.028 394.582 317.028C394.094 317.028 393.658 317.144 393.274 317.376C392.898 317.6 392.602 317.92 392.386 318.336C392.178 318.752 392.074 319.24 392.074 319.8C392.074 320.352 392.178 320.84 392.386 321.264C392.602 321.68 392.898 322.004 393.274 322.236C393.658 322.46 394.094 322.572 394.582 322.572C395.038 322.572 395.438 322.472 395.782 322.272C396.134 322.064 396.406 321.76 396.598 321.36H398.53C398.25 322.216 397.758 322.884 397.054 323.364C396.358 323.836 395.538 324.072 394.594 324.072C393.794 324.072 393.07 323.892 392.422 323.532C391.782 323.164 391.274 322.656 390.898 322.008C390.53 321.36 390.346 320.624 390.346 319.8ZM401.645 315.12V324H399.965V315.12H401.645ZM406.257 324.108C405.617 324.108 405.041 323.968 404.529 323.688C404.017 323.4 403.613 322.996 403.317 322.476C403.029 321.956 402.885 321.356 402.885 320.676C402.885 319.996 403.033 319.396 403.329 318.876C403.633 318.356 404.045 317.956 404.565 317.676C405.085 317.388 405.665 317.244 406.305 317.244C406.945 317.244 407.525 317.388 408.045 317.676C408.565 317.956 408.973 318.356 409.269 318.876C409.573 319.396 409.725 319.996 409.725 320.676C409.725 321.356 409.569 321.956 409.257 322.476C408.953 322.996 408.537 323.4 408.009 323.688C407.489 323.968 406.905 324.108 406.257 324.108ZM406.257 322.644C406.561 322.644 406.845 322.572 407.109 322.428C407.381 322.276 407.597 322.052 407.757 321.756C407.917 321.46 407.997 321.1 407.997 320.676C407.997 320.044 407.829 319.56 407.493 319.224C407.165 318.88 406.761 318.708 406.281 318.708C405.801 318.708 405.397 318.88 405.069 319.224C404.749 319.56 404.589 320.044 404.589 320.676C404.589 321.308 404.745 321.796 405.057 322.14C405.377 322.476 405.777 322.644 406.257 322.644ZM413.501 324.108C412.957 324.108 412.469 324.012 412.037 323.82C411.605 323.62 411.261 323.352 411.005 323.016C410.757 322.68 410.621 322.308 410.597 321.9H412.289C412.321 322.156 412.445 322.368 412.661 322.536C412.885 322.704 413.161 322.788 413.489 322.788C413.809 322.788 414.057 322.724 414.233 322.596C414.417 322.468 414.509 322.304 414.509 322.104C414.509 321.888 414.397 321.728 414.173 321.624C413.957 321.512 413.609 321.392 413.129 321.264C412.633 321.144 412.225 321.02 411.905 320.892C411.593 320.764 411.321 320.568 411.089 320.304C410.865 320.04 410.753 319.684 410.753 319.236C410.753 318.868 410.857 318.532 411.065 318.228C411.281 317.924 411.585 317.684 411.977 317.508C412.377 317.332 412.845 317.244 413.381 317.244C414.173 317.244 414.805 317.444 415.277 317.844C415.749 318.236 416.009 318.768 416.057 319.44H414.449C414.425 319.176 414.313 318.968 414.113 318.816C413.921 318.656 413.661 318.576 413.333 318.576C413.029 318.576 412.793 318.632 412.625 318.744C412.465 318.856 412.385 319.012 412.385 319.212C412.385 319.436 412.497 319.608 412.721 319.728C412.945 319.84 413.293 319.956 413.765 320.076C414.245 320.196 414.641 320.32 414.953 320.448C415.265 320.576 415.533 320.776 415.757 321.048C415.989 321.312 416.109 321.664 416.117 322.104C416.117 322.488 416.009 322.832 415.793 323.136C415.585 323.44 415.281 323.68 414.881 323.856C414.489 324.024 414.029 324.108 413.501 324.108ZM423.676 320.532C423.676 320.772 423.66 320.988 423.628 321.18H418.768C418.808 321.66 418.976 322.036 419.272 322.308C419.568 322.58 419.932 322.716 420.364 322.716C420.988 322.716 421.432 322.448 421.696 321.912H423.508C423.316 322.552 422.948 323.08 422.404 323.496C421.86 323.904 421.192 324.108 420.4 324.108C419.76 324.108 419.184 323.968 418.672 323.688C418.168 323.4 417.772 322.996 417.484 322.476C417.204 321.956 417.064 321.356 417.064 320.676C417.064 319.988 417.204 319.384 417.484 318.864C417.764 318.344 418.156 317.944 418.66 317.664C419.164 317.384 419.744 317.244 420.4 317.244C421.032 317.244 421.596 317.38 422.092 317.652C422.596 317.924 422.984 318.312 423.256 318.816C423.536 319.312 423.676 319.884 423.676 320.532ZM421.936 320.052C421.928 319.62 421.772 319.276 421.468 319.02C421.164 318.756 420.792 318.624 420.352 318.624C419.936 318.624 419.584 318.752 419.296 319.008C419.016 319.256 418.844 319.604 418.78 320.052H421.936Z"></path>
</svg>
