<svg xmlns="http://www.w3.org/2000/svg" fill="none" viewBox="0 0 30 30" height="30" width="30">
<path fill="url(#paint0_linear_639_449)" d="M7 10C7 8.89543 7.89543 8 9 8H12.882C13.5672 8 14.1936 8.38713 14.5 9C14.8064 9.61287 15.4328 10 16.118 10H21C22.1046 10 23 10.8954 23 12V19C23 20.1046 22.1046 21 21 21H9C7.89543 21 7 20.1046 7 19V10Z"></path>
<path fill="url(#paint1_linear_639_449)" d="M7 12H13.2929C13.7456 12 14.1799 11.8201 14.5 11.5C14.8201 11.1799 15.2544 11 15.7071 11H21C22.1046 11 23 11.8954 23 13V18C23 19.1046 22.1046 20 21 20H9C7.89543 20 7 19.1046 7 18V12Z"></path>
<defs>
<linearGradient gradientUnits="userSpaceOnUse" y2="21" x2="15" y1="8" x1="15" id="paint0_linear_639_449">
<stop stop-color="#F5B205"></stop>
<stop stop-color="#E0A429" offset="1"></stop>
</linearGradient>
<linearGradient gradientUnits="userSpaceOnUse" y2="20" x2="22.5" y1="8" x1="9" id="paint1_linear_639_449">
<stop stop-color="#FFEBB1"></stop>
<stop stop-color="#FFCB3D" offset="1"></stop>
</linearGradient>
</defs>
</svg>
