<svg version="1.1" xmlns="http://www.w3.org/2000/svg" xmlns:xlink="http://www.w3.org/1999/xlink" width="40" height="20" viewBox="0,0,40,20"><g transform="translate(-220,-167)"><g data-paper-data="{&quot;isPaintingLayer&quot;:true}" fill-rule="nonzero" stroke="none" stroke-width="1" stroke-linecap="butt" stroke-linejoin="miter" stroke-miterlimit="10" stroke-dasharray="" stroke-dashoffset="0" style="mix-blend-mode: normal"><path d="M220,187v-20h40v20z" fill="none"></path><path d="M240.648,173.256c0,-0.736 0.248,-1.34 0.744,-1.812c0.496,-0.48 1.24,-0.72 2.232,-0.72c0.584,0 1.084,0.1 1.5,0.3c0.416,0.192 0.728,0.444 0.936,0.756c0.216,0.312 0.324,0.648 0.324,1.008c0,0.416 -0.1,0.76 -0.3,1.032c-0.192,0.264 -0.456,0.536 -0.792,0.816c-0.184,0.168 -0.32,0.3 -0.408,0.396c-0.08,0.088 -0.12,0.184 -0.12,0.288c0,0.144 0.084,0.276 0.252,0.396c0.176,0.112 0.512,0.252 1.008,0.42c0.6,0.2 1.036,0.464 1.308,0.792c0.272,0.32 0.408,0.724 0.408,1.212c0,0.592 -0.216,1.072 -0.648,1.44c-0.432,0.36 -1.024,0.54 -1.776,0.54c-0.728,0 -1.32,-0.192 -1.776,-0.576c-0.448,-0.384 -0.7,-0.924 -0.756,-1.62h1.392c0.016,0.344 0.12,0.616 0.312,0.816c0.192,0.192 0.468,0.288 0.828,0.288c0.68,0 1.02,-0.26 1.02,-0.78c0,-0.264 -0.08,-0.472 -0.24,-0.624c-0.152,-0.16 -0.436,-0.308 -0.852,-0.444c-0.656,-0.216 -1.132,-0.448 -1.428,-0.696c-0.288,-0.256 -0.432,-0.58 -0.432,-0.972c0,-0.28 0.072,-0.524 0.216,-0.732c0.152,-0.208 0.376,-0.452 0.672,-0.732c0.256,-0.24 0.444,-0.44 0.564,-0.6c0.12,-0.168 0.18,-0.352 0.18,-0.552c0,-0.328 -0.128,-0.58 -0.384,-0.756c-0.248,-0.184 -0.592,-0.276 -1.032,-0.276c-0.568,0 -0.976,0.132 -1.224,0.396c-0.24,0.264 -0.36,0.656 -0.36,1.176v6.564h-1.368z" fill="#ff0000"></path></g></g></svg>