<svg version="1.1" xmlns="http://www.w3.org/2000/svg" xmlns:xlink="http://www.w3.org/1999/xlink" width="40" height="20" viewBox="0,0,40,20"><g transform="translate(-220,-167)"><g data-paper-data="{&quot;isPaintingLayer&quot;:true}" fill-rule="nonzero" stroke="none" stroke-width="1" stroke-linecap="butt" stroke-linejoin="miter" stroke-miterlimit="10" stroke-dasharray="" stroke-dashoffset="0" style="mix-blend-mode: normal"><path d="M220,187v-20h40v20z" fill="none"></path><path d="M240.444,176.664c0,-0.664 0.136,-1.252 0.408,-1.764c0.28,-0.512 0.656,-0.908 1.128,-1.188c0.48,-0.288 1.012,-0.432 1.596,-0.432c0.432,0 0.856,0.096 1.272,0.288c0.424,0.184 0.76,0.432 1.008,0.744v-3.192h1.38v8.88h-1.38v-0.996c-0.224,0.32 -0.536,0.584 -0.936,0.792c-0.392,0.208 -0.844,0.312 -1.356,0.312c-0.576,0 -1.104,-0.144 -1.584,-0.432c-0.472,-0.296 -0.848,-0.704 -1.128,-1.224c-0.272,-0.528 -0.408,-1.124 -0.408,-1.788zM245.856,176.688c0,-0.456 -0.096,-0.852 -0.288,-1.188c-0.184,-0.336 -0.428,-0.592 -0.732,-0.768c-0.304,-0.176 -0.632,-0.264 -0.984,-0.264c-0.352,0 -0.68,0.088 -0.984,0.264c-0.304,0.168 -0.552,0.42 -0.744,0.756c-0.184,0.328 -0.276,0.72 -0.276,1.176c0,0.456 0.092,0.856 0.276,1.2c0.192,0.344 0.44,0.608 0.744,0.792c0.312,0.176 0.64,0.264 0.984,0.264c0.352,0 0.68,-0.088 0.984,-0.264c0.304,-0.176 0.548,-0.432 0.732,-0.768c0.192,-0.344 0.288,-0.744 0.288,-1.2z" fill="#ff0000"></path></g></g></svg>