<svg xmlns="http://www.w3.org/2000/svg" fill="none" viewBox="0 0 192 34" height="34" width="192">
<path fill="#0078D4" d="M44 17C44 15.8954 44.8954 15 46 15H190C191.105 15 192 15.8954 192 17V17C192 18.1046 191.105 19 190 19H46C44.8954 19 44 18.1046 44 17V17Z"></path>
<rect fill-opacity="0.05" fill="black" rx="5" height="30" width="30" y="2" x="2"></rect>
<rect stroke-width="2" stroke-opacity="0.2" stroke="black" rx="6" height="32" width="32" y="1" x="1"></rect>
<path fill="black" d="M9 16C9 14.8954 9.89543 14 11 14H12L14.7929 11.2071C14.9255 11.0745 15.1054 11 15.2929 11V11C15.6834 11 16 11.3166 16 11.7071V22.2929C16 22.6834 15.6834 23 15.2929 23V23C15.1054 23 14.9255 22.9255 14.7929 22.7929L12 20L13 19L15 21V13L13 15H11C10.4477 15 10 15.4477 10 16V18C10 18.5523 10.4477 19 11 19H13L12 20H11C9.89543 20 9 19.1046 9 18V16Z"></path>
<path fill="black" d="M21.7175 23.7175C21.9128 23.9128 22.2304 23.9136 22.4157 23.7088C24.075 21.8748 25 19.4851 25 17C25 14.5149 24.075 12.1252 22.4157 10.2912C22.2304 10.0864 21.9128 10.0872 21.7175 10.2825V10.2825C21.5223 10.4777 21.5234 10.7935 21.7076 10.9993C23.1799 12.6449 24 14.7802 24 17C24 19.2198 23.1799 21.3551 21.7076 23.0007C21.5234 23.2065 21.5223 23.5223 21.7175 23.7175V23.7175Z"></path>
<path fill="black" d="M19.5951 21.5951C19.791 21.791 20.1101 21.7921 20.2914 21.5827C21.3898 20.3146 22 18.6887 22 17C22 15.3113 21.3898 13.6854 20.2914 12.4173C20.1101 12.2079 19.791 12.209 19.5951 12.4049V12.4049C19.3992 12.6008 19.4011 12.9171 19.5799 13.1286C20.4914 14.2069 20.9969 15.5774 20.9969 17C20.9969 18.4226 20.4914 19.7931 19.5799 20.8714C19.4011 21.0829 19.3992 21.3992 19.5951 21.5951V21.5951Z"></path>
<path fill="black" d="M17.4749 19.4749C17.6701 19.6701 17.9896 19.6718 18.159 19.4537C18.7012 18.7557 19 17.8932 19 17C19 16.1068 18.7012 15.2443 18.159 14.5463C17.9896 14.3282 17.6701 14.3299 17.4749 14.5251V14.5251C17.2796 14.7204 17.2837 15.0351 17.4439 15.26C17.8032 15.7647 18 16.3722 18 17C18 17.6278 17.8032 18.2353 17.4439 18.74C17.2837 18.9649 17.2796 19.2796 17.4749 19.4749V19.4749Z"></path>
</svg>
