<svg xmlns="http://www.w3.org/2000/svg" fill="none" viewBox="0 0 480 360" height="360" width="480">
<rect fill="#D9D9D9" height="96" width="480"></rect>
<rect fill="url(#paint0_linear_766_904)" rx="2" height="5" width="12" y="27.9998" x="19"></rect>
<rect fill="url(#paint1_linear_766_904)" rx="2" height="6" width="12" y="25.9998" x="19"></rect>
<rect fill="url(#paint2_linear_766_904)" rx="2" height="13" width="12" y="17.9998" x="19"></rect>
<rect fill="#057093" rx="0.5" height="2" width="1" y="16.9998" x="21"></rect>
<rect fill="#057093" rx="0.5" height="2" width="1" y="16.9998" x="23.3301"></rect>
<rect fill="#057093" rx="0.5" height="2" width="1" y="16.9998" x="25.6699"></rect>
<rect fill="#057093" rx="0.5" height="2" width="1" y="16.9998" x="28"></rect>
<rect fill="#057093" rx="0.5" height="1" width="8" y="20.9998" x="21"></rect>
<rect fill="#057093" rx="0.5" height="1" width="8" y="23.9998" x="21"></rect>
<rect fill="#057093" rx="0.5" height="1" width="8" y="26.9998" x="21"></rect>
<path fill="black" d="M57.106 29H55.852L52.079 23.291V29H50.825V21.344H52.079L55.852 27.042V21.344H57.106V29ZM61.3817 29.099C60.8097 29.099 60.2927 28.9707 59.8307 28.714C59.3687 28.45 59.0057 28.0833 58.7417 27.614C58.4777 27.1373 58.3457 26.5873 58.3457 25.964C58.3457 25.348 58.4814 24.8017 58.7527 24.325C59.0241 23.8483 59.3944 23.4817 59.8637 23.225C60.3331 22.9683 60.8574 22.84 61.4367 22.84C62.0161 22.84 62.5404 22.9683 63.0097 23.225C63.4791 23.4817 63.8494 23.8483 64.1207 24.325C64.3921 24.8017 64.5277 25.348 64.5277 25.964C64.5277 26.58 64.3884 27.1263 64.1097 27.603C63.8311 28.0797 63.4497 28.45 62.9657 28.714C62.4891 28.9707 61.9611 29.099 61.3817 29.099ZM61.3817 28.01C61.7044 28.01 62.0051 27.933 62.2837 27.779C62.5697 27.625 62.8007 27.394 62.9767 27.086C63.1527 26.778 63.2407 26.404 63.2407 25.964C63.2407 25.524 63.1564 25.1537 62.9877 24.853C62.8191 24.545 62.5954 24.314 62.3167 24.16C62.0381 24.006 61.7374 23.929 61.4147 23.929C61.0921 23.929 60.7914 24.006 60.5127 24.16C60.2414 24.314 60.0251 24.545 59.8637 24.853C59.7024 25.1537 59.6217 25.524 59.6217 25.964C59.6217 26.6167 59.7867 27.1227 60.1167 27.482C60.4541 27.834 60.8757 28.01 61.3817 28.01ZM67.2304 23.962V27.317C67.2304 27.5443 67.2817 27.7093 67.3844 27.812C67.4944 27.9073 67.6777 27.955 67.9344 27.955H68.7044V29H67.7144C67.1497 29 66.717 28.868 66.4164 28.604C66.1157 28.34 65.9654 27.911 65.9654 27.317V23.962H65.2504V22.939H65.9654V21.432H67.2304V22.939H68.7044V23.962H67.2304ZM75.4152 25.821C75.4152 26.0483 75.4005 26.2537 75.3712 26.437H70.7402C70.7768 26.921 70.9565 27.3097 71.2792 27.603C71.6018 27.8963 71.9978 28.043 72.4672 28.043C73.1418 28.043 73.6185 27.7607 73.8972 27.196H75.2502C75.0668 27.7533 74.7332 28.2117 74.2492 28.571C73.7725 28.923 73.1785 29.099 72.4672 29.099C71.8878 29.099 71.3672 28.9707 70.9052 28.714C70.4505 28.45 70.0912 28.0833 69.8272 27.614C69.5705 27.1373 69.4422 26.5873 69.4422 25.964C69.4422 25.3407 69.5668 24.7943 69.8162 24.325C70.0728 23.8483 70.4285 23.4817 70.8832 23.225C71.3452 22.9683 71.8732 22.84 72.4672 22.84C73.0392 22.84 73.5488 22.9647 73.9962 23.214C74.4435 23.4633 74.7918 23.8153 75.0412 24.27C75.2905 24.7173 75.4152 25.2343 75.4152 25.821ZM74.1062 25.425C74.0988 24.963 73.9338 24.5927 73.6112 24.314C73.2885 24.0353 72.8888 23.896 72.4122 23.896C71.9795 23.896 71.6092 24.0353 71.3012 24.314C70.9932 24.5853 70.8098 24.9557 70.7512 25.425H74.1062ZM77.9032 23.83C78.1159 23.5513 78.4056 23.3167 78.7722 23.126C79.1389 22.9353 79.5532 22.84 80.0152 22.84C80.5432 22.84 81.0236 22.972 81.4562 23.236C81.8962 23.4927 82.2409 23.8557 82.4902 24.325C82.7396 24.7943 82.8642 25.3333 82.8642 25.942C82.8642 26.5507 82.7396 27.097 82.4902 27.581C82.2409 28.0577 81.8962 28.4317 81.4562 28.703C81.0236 28.967 80.5432 29.099 80.0152 29.099C79.5532 29.099 79.1426 29.0073 78.7832 28.824C78.4239 28.6333 78.1306 28.3987 77.9032 28.12V31.882H76.6492V22.939H77.9032V23.83ZM81.5882 25.942C81.5882 25.524 81.5002 25.1647 81.3242 24.864C81.1556 24.556 80.9282 24.325 80.6422 24.171C80.3636 24.0097 80.0629 23.929 79.7402 23.929C79.4249 23.929 79.1242 24.0097 78.8382 24.171C78.5596 24.3323 78.3322 24.567 78.1562 24.875C77.9876 25.183 77.9032 25.546 77.9032 25.964C77.9032 26.382 77.9876 26.7487 78.1562 27.064C78.3322 27.372 78.5596 27.6067 78.8382 27.768C79.1242 27.9293 79.4249 28.01 79.7402 28.01C80.0629 28.01 80.3636 27.9293 80.6422 27.768C80.9282 27.5993 81.1556 27.3573 81.3242 27.042C81.5002 26.7267 81.5882 26.36 81.5882 25.942ZM83.6863 25.942C83.6863 25.3333 83.811 24.7943 84.0603 24.325C84.317 23.8557 84.6616 23.4927 85.0943 23.236C85.5343 22.972 86.0183 22.84 86.5463 22.84C87.023 22.84 87.4373 22.9353 87.7893 23.126C88.1486 23.3093 88.4346 23.5403 88.6473 23.819V22.939H89.9123V29H88.6473V28.098C88.4346 28.384 88.145 28.6223 87.7783 28.813C87.4116 29.0037 86.9936 29.099 86.5243 29.099C86.0036 29.099 85.527 28.967 85.0943 28.703C84.6616 28.4317 84.317 28.0577 84.0603 27.581C83.811 27.097 83.6863 26.5507 83.6863 25.942ZM88.6473 25.964C88.6473 25.546 88.5593 25.183 88.3833 24.875C88.2146 24.567 87.991 24.3323 87.7123 24.171C87.4336 24.0097 87.133 23.929 86.8103 23.929C86.4876 23.929 86.187 24.0097 85.9083 24.171C85.6296 24.325 85.4023 24.556 85.2263 24.864C85.0576 25.1647 84.9733 25.524 84.9733 25.942C84.9733 26.36 85.0576 26.7267 85.2263 27.042C85.4023 27.3573 85.6296 27.5993 85.9083 27.768C86.1943 27.9293 86.495 28.01 86.8103 28.01C87.133 28.01 87.4336 27.9293 87.7123 27.768C87.991 27.6067 88.2146 27.372 88.3833 27.064C88.5593 26.7487 88.6473 26.382 88.6473 25.964ZM91.1414 25.942C91.1414 25.3333 91.266 24.7943 91.5154 24.325C91.772 23.8557 92.1167 23.4927 92.5494 23.236C92.9894 22.972 93.477 22.84 94.0124 22.84C94.4084 22.84 94.797 22.928 95.1784 23.104C95.567 23.2727 95.875 23.5 96.1024 23.786V20.86H97.3674V29H96.1024V28.087C95.897 28.3803 95.611 28.6223 95.2444 28.813C94.885 29.0037 94.4707 29.099 94.0014 29.099C93.4734 29.099 92.9894 28.967 92.5494 28.703C92.1167 28.4317 91.772 28.0577 91.5154 27.581C91.266 27.097 91.1414 26.5507 91.1414 25.942ZM96.1024 25.964C96.1024 25.546 96.0144 25.183 95.8384 24.875C95.6697 24.567 95.446 24.3323 95.1674 24.171C94.8887 24.0097 94.588 23.929 94.2654 23.929C93.9427 23.929 93.642 24.0097 93.3634 24.171C93.0847 24.325 92.8574 24.556 92.6814 24.864C92.5127 25.1647 92.4284 25.524 92.4284 25.942C92.4284 26.36 92.5127 26.7267 92.6814 27.042C92.8574 27.3573 93.0847 27.5993 93.3634 27.768C93.6494 27.9293 93.95 28.01 94.2654 28.01C94.588 28.01 94.8887 27.9293 95.1674 27.768C95.446 27.6067 95.6697 27.372 95.8384 27.064C96.0144 26.7487 96.1024 26.382 96.1024 25.964Z"></path>
<path stroke-linejoin="round" stroke-linecap="round" stroke-opacity="0.5" stroke="#808080" d="M227.5 54.5V81.5"></path>
<path stroke-linejoin="round" stroke-linecap="round" stroke-opacity="0.5" stroke="#808080" d="M0.5 95.5H479.5"></path>
<defs>
<linearGradient gradientUnits="userSpaceOnUse" y2="32.9998" x2="25" y1="31.7498" x1="25" id="paint0_linear_766_904">
<stop stop-color="#7D3E08"></stop>
<stop stop-color="#AA540C" offset="1"></stop>
</linearGradient>
<linearGradient gradientUnits="userSpaceOnUse" y2="31.9998" x2="25" y1="30.4998" x1="25" id="paint1_linear_766_904">
<stop stop-color="#D3D3D3"></stop>
<stop stop-color="#E4E4E4" offset="1"></stop>
</linearGradient>
<linearGradient gradientUnits="userSpaceOnUse" y2="30.9998" x2="25" y1="17.9998" x1="25" id="paint2_linear_766_904">
<stop stop-color="#7DD8F3"></stop>
<stop stop-color="#57BDDC" offset="1"></stop>
</linearGradient>
</defs>
</svg>
