<svg xmlns="http://www.w3.org/2000/svg" fill="none" viewBox="0 0 44 24" height="24" width="44">
<path fill-opacity="0.5" fill="#FF0000" d="M2 12C2 6.47715 6.47715 2 12 2H32C37.5228 2 42 6.47715 42 12V12C42 17.5228 37.5228 22 32 22H12C6.47715 22 2 17.5228 2 12V12Z"></path>
<path stroke-width="2" stroke-opacity="0.2" stroke="#FF0000" d="M32 1H12C5.92487 1 1 5.92487 1 12C1 18.0751 5.92487 23 12 23H32C38.0751 23 43 18.0751 43 12C43 5.92487 38.0751 1 32 1Z"></path>
<path fill="white" d="M14.8411 14.176V13.144L18.8731 7.36H20.5291V12.988H21.6451V14.176H20.5291V16H19.1851V14.176H14.8411ZM19.2451 8.752L16.4131 12.988H19.2451V8.752ZM24.2546 11.428C23.4226 11.012 23.0066 10.356 23.0066 9.46C23.0066 9.028 23.1146 8.632 23.3306 8.272C23.5466 7.912 23.8706 7.628 24.3026 7.42C24.7346 7.204 25.2626 7.096 25.8866 7.096C26.5026 7.096 27.0266 7.204 27.4586 7.42C27.8986 7.628 28.2266 7.912 28.4426 8.272C28.6586 8.632 28.7666 9.028 28.7666 9.46C28.7666 9.908 28.6506 10.304 28.4186 10.648C28.1946 10.984 27.8946 11.244 27.5186 11.428C27.9746 11.596 28.3346 11.872 28.5986 12.256C28.8626 12.632 28.9946 13.076 28.9946 13.588C28.9946 14.108 28.8626 14.568 28.5986 14.968C28.3346 15.368 27.9666 15.676 27.4946 15.892C27.0226 16.108 26.4866 16.216 25.8866 16.216C25.2866 16.216 24.7506 16.108 24.2786 15.892C23.8146 15.676 23.4506 15.368 23.1866 14.968C22.9226 14.568 22.7906 14.108 22.7906 13.588C22.7906 13.068 22.9226 12.62 23.1866 12.244C23.4506 11.868 23.8066 11.596 24.2546 11.428ZM27.4586 9.628C27.4586 9.18 27.3186 8.836 27.0386 8.596C26.7586 8.356 26.3746 8.236 25.8866 8.236C25.4066 8.236 25.0266 8.356 24.7466 8.596C24.4666 8.836 24.3266 9.184 24.3266 9.64C24.3266 10.04 24.4706 10.368 24.7586 10.624C25.0546 10.872 25.4306 10.996 25.8866 10.996C26.3426 10.996 26.7186 10.868 27.0146 10.612C27.3106 10.356 27.4586 10.028 27.4586 9.628ZM25.8866 12.028C25.3586 12.028 24.9266 12.16 24.5906 12.424C24.2626 12.68 24.0986 13.052 24.0986 13.54C24.0986 13.996 24.2586 14.368 24.5786 14.656C24.8986 14.936 25.3346 15.076 25.8866 15.076C26.4306 15.076 26.8586 14.932 27.1706 14.644C27.4906 14.356 27.6506 13.988 27.6506 13.54C27.6506 13.06 27.4866 12.688 27.1586 12.424C26.8386 12.16 26.4146 12.028 25.8866 12.028Z"></path>
</svg>
