<svg xmlns="http://www.w3.org/2000/svg" fill="none" viewBox="0 0 100 80" height="80" width="100">
<path fill="white" d="M15.5916 60.161C15.5916 59.413 15.7639 58.742 16.1086 58.148C16.4606 57.554 16.9336 57.092 17.5276 56.762C18.1289 56.4247 18.7852 56.256 19.4966 56.256C20.3106 56.256 21.0329 56.4577 21.6636 56.861C22.3016 57.257 22.7636 57.8217 23.0496 58.555H21.5426C21.3446 58.1517 21.0696 57.851 20.7176 57.653C20.3656 57.455 19.9586 57.356 19.4966 57.356C18.9906 57.356 18.5396 57.4697 18.1436 57.697C17.7476 57.9243 17.4359 58.2507 17.2086 58.676C16.9886 59.1013 16.8786 59.5963 16.8786 60.161C16.8786 60.7257 16.9886 61.2207 17.2086 61.646C17.4359 62.0713 17.7476 62.4013 18.1436 62.636C18.5396 62.8633 18.9906 62.977 19.4966 62.977C19.9586 62.977 20.3656 62.878 20.7176 62.68C21.0696 62.482 21.3446 62.1813 21.5426 61.778H23.0496C22.7636 62.5113 22.3016 63.076 21.6636 63.472C21.0329 63.868 20.3106 64.066 19.4966 64.066C18.7779 64.066 18.1216 63.901 17.5276 63.571C16.9336 63.2337 16.4606 62.768 16.1086 62.174C15.7639 61.58 15.5916 60.909 15.5916 60.161ZM25.7714 58.819C25.9547 58.511 26.1967 58.2727 26.4974 58.104C26.8054 57.928 27.1684 57.84 27.5864 57.84V59.138H27.2674C26.776 59.138 26.402 59.2627 26.1454 59.512C25.896 59.7613 25.7714 60.194 25.7714 60.81V64H24.5174V57.939H25.7714V58.819ZM31.3681 64.099C30.7961 64.099 30.2791 63.9707 29.8171 63.714C29.3551 63.45 28.9921 63.0833 28.7281 62.614C28.4641 62.1373 28.3321 61.5873 28.3321 60.964C28.3321 60.348 28.4677 59.8017 28.7391 59.325C29.0104 58.8483 29.3807 58.4817 29.8501 58.225C30.3194 57.9683 30.8437 57.84 31.4231 57.84C32.0024 57.84 32.5267 57.9683 32.9961 58.225C33.4654 58.4817 33.8357 58.8483 34.1071 59.325C34.3784 59.8017 34.5141 60.348 34.5141 60.964C34.5141 61.58 34.3747 62.1263 34.0961 62.603C33.8174 63.0797 33.4361 63.45 32.9521 63.714C32.4754 63.9707 31.9474 64.099 31.3681 64.099ZM31.3681 63.01C31.6907 63.01 31.9914 62.933 32.2701 62.779C32.5561 62.625 32.7871 62.394 32.9631 62.086C33.1391 61.778 33.2271 61.404 33.2271 60.964C33.2271 60.524 33.1427 60.1537 32.9741 59.853C32.8054 59.545 32.5817 59.314 32.3031 59.16C32.0244 59.006 31.7237 58.929 31.4011 58.929C31.0784 58.929 30.7777 59.006 30.4991 59.16C30.2277 59.314 30.0114 59.545 29.8501 59.853C29.6887 60.1537 29.6081 60.524 29.6081 60.964C29.6081 61.6167 29.7731 62.1227 30.1031 62.482C30.4404 62.834 30.8621 63.01 31.3681 63.01ZM37.9537 64.099C37.477 64.099 37.048 64.0147 36.6667 63.846C36.2927 63.67 35.9957 63.4353 35.7757 63.142C35.5557 62.8413 35.4384 62.5077 35.4237 62.141H36.7217C36.7437 62.3977 36.8647 62.614 37.0847 62.79C37.312 62.9587 37.5944 63.043 37.9317 63.043C38.2837 63.043 38.555 62.977 38.7457 62.845C38.9437 62.7057 39.0427 62.5297 39.0427 62.317C39.0427 62.0897 38.9327 61.921 38.7127 61.811C38.5 61.701 38.159 61.58 37.6897 61.448C37.235 61.3233 36.8647 61.2023 36.5787 61.085C36.2927 60.9677 36.0434 60.788 35.8307 60.546C35.6254 60.304 35.5227 59.985 35.5227 59.589C35.5227 59.2663 35.618 58.973 35.8087 58.709C35.9994 58.4377 36.2707 58.225 36.6227 58.071C36.982 57.917 37.3927 57.84 37.8547 57.84C38.544 57.84 39.0977 58.016 39.5157 58.368C39.941 58.7127 40.1684 59.1857 40.1977 59.787H38.9437C38.9217 59.5157 38.8117 59.2993 38.6137 59.138C38.4157 58.9767 38.148 58.896 37.8107 58.896C37.4807 58.896 37.2277 58.9583 37.0517 59.083C36.8757 59.2077 36.7877 59.3727 36.7877 59.578C36.7877 59.7393 36.8464 59.875 36.9637 59.985C37.081 60.095 37.224 60.183 37.3927 60.249C37.5614 60.3077 37.8107 60.3847 38.1407 60.48C38.5807 60.5973 38.94 60.7183 39.2187 60.843C39.5047 60.9603 39.7504 61.1363 39.9557 61.371C40.161 61.6057 40.2674 61.9173 40.2747 62.306C40.2747 62.6507 40.1794 62.9587 39.9887 63.23C39.798 63.5013 39.5267 63.714 39.1747 63.868C38.83 64.022 38.423 64.099 37.9537 64.099ZM43.8297 64.099C43.353 64.099 42.924 64.0147 42.5427 63.846C42.1687 63.67 41.8717 63.4353 41.6517 63.142C41.4317 62.8413 41.3144 62.5077 41.2997 62.141H42.5977C42.6197 62.3977 42.7407 62.614 42.9607 62.79C43.188 62.9587 43.4704 63.043 43.8077 63.043C44.1597 63.043 44.431 62.977 44.6217 62.845C44.8197 62.7057 44.9187 62.5297 44.9187 62.317C44.9187 62.0897 44.8087 61.921 44.5887 61.811C44.376 61.701 44.035 61.58 43.5657 61.448C43.111 61.3233 42.7407 61.2023 42.4547 61.085C42.1687 60.9677 41.9194 60.788 41.7067 60.546C41.5014 60.304 41.3987 59.985 41.3987 59.589C41.3987 59.2663 41.494 58.973 41.6847 58.709C41.8754 58.4377 42.1467 58.225 42.4987 58.071C42.858 57.917 43.2687 57.84 43.7307 57.84C44.42 57.84 44.9737 58.016 45.3917 58.368C45.817 58.7127 46.0444 59.1857 46.0737 59.787H44.8197C44.7977 59.5157 44.6877 59.2993 44.4897 59.138C44.2917 58.9767 44.024 58.896 43.6867 58.896C43.3567 58.896 43.1037 58.9583 42.9277 59.083C42.7517 59.2077 42.6637 59.3727 42.6637 59.578C42.6637 59.7393 42.7224 59.875 42.8397 59.985C42.957 60.095 43.1 60.183 43.2687 60.249C43.4374 60.3077 43.6867 60.3847 44.0167 60.48C44.4567 60.5973 44.816 60.7183 45.0947 60.843C45.3807 60.9603 45.6264 61.1363 45.8317 61.371C46.037 61.6057 46.1434 61.9173 46.1507 62.306C46.1507 62.6507 46.0554 62.9587 45.8647 63.23C45.674 63.5013 45.4027 63.714 45.0507 63.868C44.706 64.022 44.299 64.099 43.8297 64.099ZM52.9617 57.939L49.2437 66.849H47.9457L49.1777 63.901L46.7907 57.939H48.1877L49.8927 62.559L51.6637 57.939H52.9617ZM60.7364 64L58.9764 60.942H58.0194V64H56.7654V56.355H59.4054C59.9921 56.355 60.4871 56.4577 60.8904 56.663C61.3011 56.8683 61.6054 57.1433 61.8034 57.488C62.0088 57.8327 62.1114 58.2177 62.1114 58.643C62.1114 59.1417 61.9648 59.5963 61.6714 60.007C61.3854 60.4103 60.9418 60.6853 60.3404 60.832L62.2324 64H60.7364ZM58.0194 59.941H59.4054C59.8748 59.941 60.2268 59.8237 60.4614 59.589C60.7034 59.3543 60.8244 59.039 60.8244 58.643C60.8244 58.247 60.7071 57.939 60.4724 57.719C60.2378 57.4917 59.8821 57.378 59.4054 57.378H58.0194V59.941ZM66.3446 64.099C65.7726 64.099 65.2556 63.9707 64.7936 63.714C64.3316 63.45 63.9686 63.0833 63.7046 62.614C63.4406 62.1373 63.3086 61.5873 63.3086 60.964C63.3086 60.348 63.4443 59.8017 63.7156 59.325C63.987 58.8483 64.3573 58.4817 64.8266 58.225C65.296 57.9683 65.8203 57.84 66.3996 57.84C66.979 57.84 67.5033 57.9683 67.9726 58.225C68.442 58.4817 68.8123 58.8483 69.0836 59.325C69.355 59.8017 69.4906 60.348 69.4906 60.964C69.4906 61.58 69.3513 62.1263 69.0726 62.603C68.794 63.0797 68.4126 63.45 67.9286 63.714C67.452 63.9707 66.924 64.099 66.3446 64.099ZM66.3446 63.01C66.6673 63.01 66.968 62.933 67.2466 62.779C67.5326 62.625 67.7636 62.394 67.9396 62.086C68.1156 61.778 68.2036 61.404 68.2036 60.964C68.2036 60.524 68.1193 60.1537 67.9506 59.853C67.782 59.545 67.5583 59.314 67.2796 59.16C67.001 59.006 66.7003 58.929 66.3776 58.929C66.055 58.929 65.7543 59.006 65.4756 59.16C65.2043 59.314 64.988 59.545 64.8266 59.853C64.6653 60.1537 64.5846 60.524 64.5846 60.964C64.5846 61.6167 64.7496 62.1227 65.0796 62.482C65.417 62.834 65.8386 63.01 66.3446 63.01ZM70.3123 60.942C70.3123 60.3333 70.4369 59.7943 70.6863 59.325C70.9429 58.8557 71.2876 58.4927 71.7203 58.236C72.1603 57.972 72.6443 57.84 73.1723 57.84C73.6489 57.84 74.0633 57.9353 74.4153 58.126C74.7746 58.3093 75.0606 58.5403 75.2733 58.819V57.939H76.5383V64H75.2733V63.098C75.0606 63.384 74.7709 63.6223 74.4043 63.813C74.0376 64.0037 73.6196 64.099 73.1503 64.099C72.6296 64.099 72.1529 63.967 71.7203 63.703C71.2876 63.4317 70.9429 63.0577 70.6863 62.581C70.4369 62.097 70.3123 61.5507 70.3123 60.942ZM75.2733 60.964C75.2733 60.546 75.1853 60.183 75.0093 59.875C74.8406 59.567 74.6169 59.3323 74.3383 59.171C74.0596 59.0097 73.7589 58.929 73.4363 58.929C73.1136 58.929 72.8129 59.0097 72.5343 59.171C72.2556 59.325 72.0283 59.556 71.8523 59.864C71.6836 60.1647 71.5993 60.524 71.5993 60.942C71.5993 61.36 71.6836 61.7267 71.8523 62.042C72.0283 62.3573 72.2556 62.5993 72.5343 62.768C72.8203 62.9293 73.1209 63.01 73.4363 63.01C73.7589 63.01 74.0596 62.9293 74.3383 62.768C74.6169 62.6067 74.8406 62.372 75.0093 62.064C75.1853 61.7487 75.2733 61.382 75.2733 60.964ZM77.7674 60.942C77.7674 60.3333 77.892 59.7943 78.1414 59.325C78.398 58.8557 78.7427 58.4927 79.1754 58.236C79.6154 57.972 80.103 57.84 80.6384 57.84C81.0344 57.84 81.423 57.928 81.8044 58.104C82.193 58.2727 82.501 58.5 82.7284 58.786V55.86H83.9934V64H82.7284V63.087C82.523 63.3803 82.237 63.6223 81.8704 63.813C81.511 64.0037 81.0967 64.099 80.6274 64.099C80.0994 64.099 79.6154 63.967 79.1754 63.703C78.7427 63.4317 78.398 63.0577 78.1414 62.581C77.892 62.097 77.7674 61.5507 77.7674 60.942ZM82.7284 60.964C82.7284 60.546 82.6404 60.183 82.4644 59.875C82.2957 59.567 82.072 59.3323 81.7934 59.171C81.5147 59.0097 81.214 58.929 80.8914 58.929C80.5687 58.929 80.268 59.0097 79.9894 59.171C79.7107 59.325 79.4834 59.556 79.3074 59.864C79.1387 60.1647 79.0544 60.524 79.0544 60.942C79.0544 61.36 79.1387 61.7267 79.3074 62.042C79.4834 62.3573 79.7107 62.5993 79.9894 62.768C80.2754 62.9293 80.576 63.01 80.8914 63.01C81.214 63.01 81.5147 62.9293 81.7934 62.768C82.072 62.6067 82.2957 62.372 82.4644 62.064C82.6404 61.7487 82.7284 61.382 82.7284 60.964Z"></path>
<path fill="#FF8067" d="M49.5884 40.5892V39.7678L48.7649 40.1785L47.9414 39.7678V38.9464L51.2355 37.3035V34.8392L52.059 35.2499L52.8826 34.8392V37.3035L54.5296 38.1249V38.9464L50.412 40.9999L49.5884 40.5892Z"></path>
<path fill="#FF8067" d="M45.4708 38.5356V37.7142L44.6473 38.1249L43.8237 37.7142V36.8928L47.1178 35.2499V32.7856L47.9414 33.1964L48.7649 32.7856V35.2499L50.412 36.0714V36.8928L46.2943 38.9464L45.4708 38.5356Z"></path>
<path fill="#FF956F" d="M43.8237 36.8928L44.6473 37.3035V38.1249L43.8237 37.7142V36.8928Z"></path>
<path fill="#FF956F" d="M45.4708 37.7142L46.2943 38.1249V38.9464L45.4708 38.5357V37.7142Z"></path>
<path fill="#FF956F" d="M47.9414 38.9464L48.7649 39.3571V40.1785L47.9414 39.7678V38.9464Z"></path>
<path fill="#FF956F" d="M49.5884 39.7678L50.412 40.1785V40.9999L49.5884 40.5892V39.7678Z"></path>
<path fill="#FF956F" d="M46.2943 36.4821L47.1178 36.8928L46.2943 37.3035V36.4821Z"></path>
<path fill="#FF956F" d="M50.412 38.5357L51.2355 38.9464L50.412 39.3571V38.5357Z"></path>
<path fill="#FF956F" d="M51.2355 34.8392L52.059 35.2499V38.5357L51.2355 38.1249V34.8392Z"></path>
<path fill="#FF956F" d="M47.1178 32.7856L47.9414 33.1963V36.4821L47.1178 36.0714V32.7856Z"></path>
<path fill="#EC5957" d="M46.294 36.482L44.647 37.3034V38.1249L46.294 37.3034V36.482Z"></path>
<path fill="#EC5957" d="M50.4117 36.0713L46.294 38.1249V38.9463L50.4117 36.8927V36.0713Z"></path>
<path fill="#EC5957" d="M50.4117 38.5356L48.7646 39.357V40.1784L50.4117 39.357V38.5356Z"></path>
<path fill="#EC5957" d="M54.5293 38.1249L50.4117 40.1784V40.9999L54.5293 38.9463V38.1249Z"></path>
<path fill="#EC5957" d="M52.8823 34.8391L52.0587 35.2499V38.5356L52.8823 38.1249V34.8391Z"></path>
<path fill="#EC5957" d="M48.7646 32.7857L47.9411 33.1964V36.4821L48.7646 36.0714V32.7857Z"></path>
<path fill="white" d="M43.8237 34.4287V21.2859L49.5884 18.4109L54.5296 20.8752V25.8037L57.0002 27.0359V33.6073L52.059 36.0716L51.2355 35.6609L48.7649 36.893L43.8237 34.4287Z"></path>
<path fill="#F5E4EE" d="M48.7646 23.75L54.5294 20.875V29.0893L56.9999 27.8571L56.1764 27.4464L56.9999 27.0357V33.6071L52.0588 36.0714V32.7857L56.9999 30.3214L55.3529 29.5L50.4117 31.9643V35.25L51.2352 35.6607L48.7646 36.8928V23.75Z"></path>
<path fill="#FF5D94" d="M46.2943 21.6964V19.6429L49.5884 18L51.2355 18.8214V20.875L47.9414 22.5179L46.2943 21.6964Z"></path>
<path fill="#FF5D94" d="M43.8237 29.0893V27.0357L45.4708 26.2143L47.1178 27.0357V29.0893L45.4708 29.9107L43.8237 29.0893Z"></path>
<path fill="#FF6EA5" d="M47.9414 20.4643L46.2943 19.6428V21.6964L47.9414 22.5178V20.4643Z"></path>
<path fill="#FF6EA5" d="M45.4708 27.8571L43.8237 27.0357V29.0892L45.4708 29.9107V27.8571Z"></path>
<path fill="#FF8067" d="M43 27.4464V25.3928L45.4706 24.1606L47.1176 24.9821V27.0356L44.6471 28.2678L43 27.4464Z"></path>
<path fill="#EC5957" d="M47.1176 24.9822L44.647 26.2143L44.647 28.2679L47.1176 27.0358L47.1176 24.9822Z"></path>
<path fill="#FF956F" d="M43 25.3931L44.6471 26.2145L44.6472 28.2681L43 27.4466L43 25.3931Z"></path>
<path fill="#E53C75" d="M47.9413 20.4641L51.2354 18.8213V20.8749L47.9413 22.5177V20.4641Z"></path>
<path fill="#E53C75" d="M45.4707 27.857L47.1178 27.0356V29.0891L45.4707 29.9106V27.857Z"></path>
<path fill="#2F0020" d="M50.4116 24.982L51.2352 24.5713V25.3927L50.4116 25.8034V24.982Z"></path>
</svg>
