<svg xmlns="http://www.w3.org/2000/svg" fill="none" viewBox="0 0 90 90" height="90" width="90">
<path fill="url(#paint0_linear_723_67)" d="M33 38.5C33 37.6716 33.6716 37 34.5 37H54.5C55.3284 37 56 37.6716 56 38.5V52C56 54.2091 54.2091 56 52 56H37C34.7909 56 33 54.2091 33 52V38.5Z"></path>
<path fill="#F25022" d="M40 42H44V46H40V42Z"></path>
<path fill="#7FBA00" d="M45 42H49V46H45V42Z"></path>
<path fill="#FFB900" d="M45 47H49V51H45V47Z"></path>
<path fill="#00A4EF" d="M40 47H44V51H40V47Z"></path>
<path fill="url(#paint1_linear_723_67)" d="M38 35C38 33.8954 38.8954 33 40 33V33V38C40 38.5523 39.5523 39 39 39V39C38.4477 39 38 38.5523 38 38V35Z"></path>
<path fill="url(#paint2_linear_723_67)" d="M49 33V33C50.1046 33 51 33.8954 51 35V38C51 38.5523 50.5523 39 50 39V39C49.4477 39 49 38.5523 49 38V33Z"></path>
<path fill="url(#paint3_linear_723_67)" d="M40 33H49V35H40V33Z"></path>
<path fill-opacity="0.2" fill="black" d="M40 33H49V35H40V33Z"></path>
<defs>
<linearGradient gradientUnits="userSpaceOnUse" y2="55" x2="55" y1="37" x1="33" id="paint0_linear_723_67">
<stop stop-color="white"></stop>
<stop stop-color="#DFDFDF" offset="1"></stop>
</linearGradient>
<linearGradient gradientUnits="userSpaceOnUse" y2="33" x2="40" y1="39" x1="40" id="paint1_linear_723_67">
<stop stop-color="#0094D4"></stop>
<stop stop-color="#30DAFF" offset="1"></stop>
</linearGradient>
<linearGradient gradientUnits="userSpaceOnUse" y2="33" x2="40" y1="39" x1="40" id="paint2_linear_723_67">
<stop stop-color="#0094D4"></stop>
<stop stop-color="#30DAFF" offset="1"></stop>
</linearGradient>
<linearGradient gradientUnits="userSpaceOnUse" y2="33" x2="40" y1="39" x1="40" id="paint3_linear_723_67">
<stop stop-color="#0094D4"></stop>
<stop stop-color="#30DAFF" offset="1"></stop>
</linearGradient>
</defs>
</svg>
