<svg xmlns="http://www.w3.org/2000/svg" fill="none" viewBox="0 0 480 360" height="360" width="480">
<rect fill="#D9D9D9" height="46" width="480" y="46"></rect>
<path fill="black" d="M25.324 64.355V65.378H22.079V67.633H24.609V68.656H22.079V72H20.825V64.355H25.324ZM27.1241 65.136C26.8968 65.136 26.7061 65.059 26.5521 64.905C26.3981 64.751 26.3211 64.5603 26.3211 64.333C26.3211 64.1057 26.3981 63.915 26.5521 63.761C26.7061 63.607 26.8968 63.53 27.1241 63.53C27.3441 63.53 27.5311 63.607 27.6851 63.761C27.8391 63.915 27.9161 64.1057 27.9161 64.333C27.9161 64.5603 27.8391 64.751 27.6851 64.905C27.5311 65.059 27.3441 65.136 27.1241 65.136ZM27.7401 65.939V72H26.4861V65.939H27.7401ZM30.6405 63.86V72H29.3865V63.86H30.6405ZM37.8419 68.821C37.8419 69.0483 37.8272 69.2537 37.7979 69.437H33.1669C33.2036 69.921 33.3832 70.3097 33.7059 70.603C34.0286 70.8963 34.4246 71.043 34.8939 71.043C35.5686 71.043 36.0452 70.7607 36.3239 70.196H37.6769C37.4936 70.7533 37.1599 71.2117 36.6759 71.571C36.1992 71.923 35.6052 72.099 34.8939 72.099C34.3146 72.099 33.7939 71.9707 33.3319 71.714C32.8772 71.45 32.5179 71.0833 32.2539 70.614C31.9972 70.1373 31.8689 69.5873 31.8689 68.964C31.8689 68.3407 31.9936 67.7943 32.2429 67.325C32.4996 66.8483 32.8552 66.4817 33.3099 66.225C33.7719 65.9683 34.2999 65.84 34.8939 65.84C35.4659 65.84 35.9756 65.9647 36.4229 66.214C36.8702 66.4633 37.2186 66.8153 37.4679 67.27C37.7172 67.7173 37.8419 68.2343 37.8419 68.821ZM36.5329 68.425C36.5256 67.963 36.3606 67.5927 36.0379 67.314C35.7152 67.0353 35.3156 66.896 34.8389 66.896C34.4062 66.896 34.0359 67.0353 33.7279 67.314C33.4199 67.5853 33.2366 67.9557 33.1779 68.425H36.5329ZM44.9914 65.84C45.4681 65.84 45.8934 65.939 46.2674 66.137C46.6487 66.335 46.9457 66.6283 47.1584 67.017C47.3711 67.4057 47.4774 67.875 47.4774 68.425V72H46.2344V68.612C46.2344 68.0693 46.0987 67.655 45.8274 67.369C45.5561 67.0757 45.1857 66.929 44.7164 66.929C44.2471 66.929 43.8731 67.0757 43.5944 67.369C43.3231 67.655 43.1874 68.0693 43.1874 68.612V72H41.9334V65.939H43.1874V66.632C43.3927 66.3827 43.6531 66.1883 43.9684 66.049C44.2911 65.9097 44.6321 65.84 44.9914 65.84ZM48.659 68.942C48.659 68.3333 48.7836 67.7943 49.033 67.325C49.2896 66.8557 49.6343 66.4927 50.067 66.236C50.507 65.972 50.991 65.84 51.519 65.84C51.9956 65.84 52.41 65.9353 52.762 66.126C53.1213 66.3093 53.4073 66.5403 53.62 66.819V65.939H54.885V72H53.62V71.098C53.4073 71.384 53.1176 71.6223 52.751 71.813C52.3843 72.0037 51.9663 72.099 51.497 72.099C50.9763 72.099 50.4996 71.967 50.067 71.703C49.6343 71.4317 49.2896 71.0577 49.033 70.581C48.7836 70.097 48.659 69.5507 48.659 68.942ZM53.62 68.964C53.62 68.546 53.532 68.183 53.356 67.875C53.1873 67.567 52.9636 67.3323 52.685 67.171C52.4063 67.0097 52.1056 66.929 51.783 66.929C51.4603 66.929 51.1596 67.0097 50.881 67.171C50.6023 67.325 50.375 67.556 50.199 67.864C50.0303 68.1647 49.946 68.524 49.946 68.942C49.946 69.36 50.0303 69.7267 50.199 70.042C50.375 70.3573 50.6023 70.5993 50.881 70.768C51.167 70.9293 51.4676 71.01 51.783 71.01C52.1056 71.01 52.4063 70.9293 52.685 70.768C52.9636 70.6067 53.1873 70.372 53.356 70.064C53.532 69.7487 53.62 69.382 53.62 68.964ZM63.869 65.84C64.3457 65.84 64.771 65.939 65.145 66.137C65.5264 66.335 65.8234 66.6283 66.036 67.017C66.256 67.4057 66.366 67.875 66.366 68.425V72H65.123V68.612C65.123 68.0693 64.9874 67.655 64.716 67.369C64.4447 67.0757 64.0744 66.929 63.605 66.929C63.1357 66.929 62.7617 67.0757 62.483 67.369C62.2117 67.655 62.076 68.0693 62.076 68.612V72H60.833V68.612C60.833 68.0693 60.6974 67.655 60.426 67.369C60.1547 67.0757 59.7844 66.929 59.315 66.929C58.8457 66.929 58.4717 67.0757 58.193 67.369C57.9217 67.655 57.786 68.0693 57.786 68.612V72H56.532V65.939H57.786V66.632C57.9914 66.3827 58.2517 66.1883 58.567 66.049C58.8824 65.9097 59.2197 65.84 59.579 65.84C60.063 65.84 60.4957 65.9427 60.877 66.148C61.2584 66.3533 61.5517 66.6503 61.757 67.039C61.9404 66.6723 62.2264 66.3827 62.615 66.17C63.0037 65.95 63.4217 65.84 63.869 65.84ZM73.5167 68.821C73.5167 69.0483 73.5021 69.2537 73.4727 69.437H68.8417C68.8784 69.921 69.0581 70.3097 69.3807 70.603C69.7034 70.8963 70.0994 71.043 70.5687 71.043C71.2434 71.043 71.7201 70.7607 71.9987 70.196H73.3517C73.1684 70.7533 72.8347 71.2117 72.3507 71.571C71.8741 71.923 71.2801 72.099 70.5687 72.099C69.9894 72.099 69.4687 71.9707 69.0067 71.714C68.5521 71.45 68.1927 71.0833 67.9287 70.614C67.6721 70.1373 67.5437 69.5873 67.5437 68.964C67.5437 68.3407 67.6684 67.7943 67.9177 67.325C68.1744 66.8483 68.5301 66.4817 68.9847 66.225C69.4467 65.9683 69.9747 65.84 70.5687 65.84C71.1407 65.84 71.6504 65.9647 72.0977 66.214C72.5451 66.4633 72.8934 66.8153 73.1427 67.27C73.3921 67.7173 73.5167 68.2343 73.5167 68.821ZM72.2077 68.425C72.2004 67.963 72.0354 67.5927 71.7127 67.314C71.3901 67.0353 70.9904 66.896 70.5137 66.896C70.0811 66.896 69.7107 67.0353 69.4027 67.314C69.0947 67.5853 68.9114 67.9557 68.8527 68.425H72.2077Z"></path>
<mask fill="white" id="path-3-inside-1_768_143">
<path d="M90 58C90 55.2386 92.2386 53 95 53H255C257.761 53 260 55.2386 260 58V78C260 80.7614 257.761 83 255 83H95C92.2386 83 90 80.7614 90 78V58Z"></path>
</mask>
<path fill-opacity="0.05" fill="black" d="M90 58C90 55.2386 92.2386 53 95 53H255C257.761 53 260 55.2386 260 58V78C260 80.7614 257.761 83 255 83H95C92.2386 83 90 80.7614 90 78V58Z"></path>
<path mask="url(#path-3-inside-1_768_143)" fill-opacity="0.5" fill="black" d="M90 53H260H90ZM260 78C260 81.3137 257.314 84 254 84H96C92.6863 84 90 81.3137 90 78C90 80.2091 92.2386 82 95 82H255C257.761 82 260 80.2091 260 78ZM90 83V53V83ZM260 53V83V53Z"></path>
<mask fill="white" id="path-5-inside-2_768_143">
<path d="M410 58C410 55.2386 412.239 53 415 53H465C467.761 53 470 55.2386 470 58V78C470 80.7614 467.761 83 465 83H415C412.239 83 410 80.7614 410 78V58Z"></path>
</mask>
<path fill-opacity="0.05" fill="black" d="M410 58C410 55.2386 412.239 53 415 53H465C467.761 53 470 55.2386 470 58V78C470 80.7614 467.761 83 465 83H415C412.239 83 410 80.7614 410 78V58Z"></path>
<path mask="url(#path-5-inside-2_768_143)" fill-opacity="0.05" fill="black" d="M410 58C410 54.6863 412.686 52 416 52H464C467.314 52 470 54.6863 470 58C470 55.7909 467.761 54 465 54H415C412.239 54 410 55.7909 410 58ZM470 83H410H470ZM410 83V53V83ZM470 53V83V53Z"></path>
<path fill="black" d="M429.734 72.077C429.22 72.077 428.758 71.989 428.348 71.813C427.937 71.6297 427.614 71.373 427.38 71.043C427.145 70.713 427.028 70.328 427.028 69.888H428.37C428.399 70.218 428.527 70.4893 428.755 70.702C428.989 70.9147 429.316 71.021 429.734 71.021C430.166 71.021 430.504 70.9183 430.746 70.713C430.988 70.5003 431.109 70.229 431.109 69.899C431.109 69.6423 431.032 69.4333 430.878 69.272C430.731 69.1107 430.544 68.986 430.317 68.898C430.097 68.81 429.789 68.7147 429.393 68.612C428.894 68.48 428.487 68.348 428.172 68.216C427.864 68.0767 427.6 67.864 427.38 67.578C427.16 67.292 427.05 66.9107 427.05 66.434C427.05 65.994 427.16 65.609 427.38 65.279C427.6 64.949 427.908 64.696 428.304 64.52C428.7 64.344 429.158 64.256 429.679 64.256C430.419 64.256 431.024 64.443 431.494 64.817C431.97 65.1837 432.234 65.6897 432.286 66.335H430.9C430.878 66.0563 430.746 65.818 430.504 65.62C430.262 65.422 429.943 65.323 429.547 65.323C429.187 65.323 428.894 65.4147 428.667 65.598C428.439 65.7813 428.326 66.0453 428.326 66.39C428.326 66.6247 428.395 66.819 428.535 66.973C428.681 67.1197 428.865 67.237 429.085 67.325C429.305 67.413 429.605 67.5083 429.987 67.611C430.493 67.7503 430.903 67.8897 431.219 68.029C431.541 68.1683 431.813 68.3847 432.033 68.678C432.26 68.964 432.374 69.349 432.374 69.833C432.374 70.2217 432.267 70.5883 432.055 70.933C431.849 71.2777 431.545 71.5563 431.142 71.769C430.746 71.9743 430.276 72.077 429.734 72.077ZM433.435 68.942C433.435 68.3333 433.56 67.7943 433.809 67.325C434.066 66.8557 434.411 66.4927 434.843 66.236C435.283 65.972 435.767 65.84 436.295 65.84C436.772 65.84 437.186 65.9353 437.538 66.126C437.898 66.3093 438.184 66.5403 438.396 66.819V65.939H439.661V72H438.396V71.098C438.184 71.384 437.894 71.6223 437.527 71.813C437.161 72.0037 436.743 72.099 436.273 72.099C435.753 72.099 435.276 71.967 434.843 71.703C434.411 71.4317 434.066 71.0577 433.809 70.581C433.56 70.097 433.435 69.5507 433.435 68.942ZM438.396 68.964C438.396 68.546 438.308 68.183 438.132 67.875C437.964 67.567 437.74 67.3323 437.461 67.171C437.183 67.0097 436.882 66.929 436.559 66.929C436.237 66.929 435.936 67.0097 435.657 67.171C435.379 67.325 435.151 67.556 434.975 67.864C434.807 68.1647 434.722 68.524 434.722 68.942C434.722 69.36 434.807 69.7267 434.975 70.042C435.151 70.3573 435.379 70.5993 435.657 70.768C435.943 70.9293 436.244 71.01 436.559 71.01C436.882 71.01 437.183 70.9293 437.461 70.768C437.74 70.6067 437.964 70.372 438.132 70.064C438.308 69.7487 438.396 69.382 438.396 68.964ZM443.651 70.878L445.367 65.939H446.698L444.388 72H442.892L440.593 65.939H441.935L443.651 70.878ZM453.201 68.821C453.201 69.0483 453.187 69.2537 453.157 69.437H448.526C448.563 69.921 448.743 70.3097 449.065 70.603C449.388 70.8963 449.784 71.043 450.253 71.043C450.928 71.043 451.405 70.7607 451.683 70.196H453.036C452.853 70.7533 452.519 71.2117 452.035 71.571C451.559 71.923 450.965 72.099 450.253 72.099C449.674 72.099 449.153 71.9707 448.691 71.714C448.237 71.45 447.877 71.0833 447.613 70.614C447.357 70.1373 447.228 69.5873 447.228 68.964C447.228 68.3407 447.353 67.7943 447.602 67.325C447.859 66.8483 448.215 66.4817 448.669 66.225C449.131 65.9683 449.659 65.84 450.253 65.84C450.825 65.84 451.335 65.9647 451.782 66.214C452.23 66.4633 452.578 66.8153 452.827 67.27C453.077 67.7173 453.201 68.2343 453.201 68.821ZM451.892 68.425C451.885 67.963 451.72 67.5927 451.397 67.314C451.075 67.0353 450.675 66.896 450.198 66.896C449.766 66.896 449.395 67.0353 449.087 67.314C448.779 67.5853 448.596 67.9557 448.537 68.425H451.892Z"></path>
<mask fill="white" id="path-8-inside-3_768_143">
<path d="M340 58C340 55.2386 342.239 53 345 53H395C397.761 53 400 55.2386 400 58V78C400 80.7614 397.761 83 395 83H345C342.239 83 340 80.7614 340 78V58Z"></path>
</mask>
<path fill-opacity="0.05" fill="black" d="M340 58C340 55.2386 342.239 53 345 53H395C397.761 53 400 55.2386 400 58V78C400 80.7614 397.761 83 395 83H345C342.239 83 340 80.7614 340 78V58Z"></path>
<path mask="url(#path-8-inside-3_768_143)" fill-opacity="0.05" fill="black" d="M340 58C340 54.6863 342.686 52 346 52H394C397.314 52 400 54.6863 400 58C400 55.7909 397.761 54 395 54H345C342.239 54 340 55.7909 340 58ZM400 83H340H400ZM340 83V53V83ZM400 53V83V53Z"></path>
<path fill="black" d="M350.711 68.161C350.711 67.413 350.884 66.742 351.228 66.148C351.58 65.554 352.053 65.092 352.647 64.762C353.249 64.4247 353.905 64.256 354.616 64.256C355.43 64.256 356.153 64.4577 356.783 64.861C357.421 65.257 357.883 65.8217 358.169 66.555H356.662C356.464 66.1517 356.189 65.851 355.837 65.653C355.485 65.455 355.078 65.356 354.616 65.356C354.11 65.356 353.659 65.4697 353.263 65.697C352.867 65.9243 352.556 66.2507 352.328 66.676C352.108 67.1013 351.998 67.5963 351.998 68.161C351.998 68.7257 352.108 69.2207 352.328 69.646C352.556 70.0713 352.867 70.4013 353.263 70.636C353.659 70.8633 354.11 70.977 354.616 70.977C355.078 70.977 355.485 70.878 355.837 70.68C356.189 70.482 356.464 70.1813 356.662 69.778H358.169C357.883 70.5113 357.421 71.076 356.783 71.472C356.153 71.868 355.43 72.066 354.616 72.066C353.898 72.066 353.241 71.901 352.647 71.571C352.053 71.2337 351.58 70.768 351.228 70.174C350.884 69.58 350.711 68.909 350.711 68.161ZM359.219 68.942C359.219 68.3333 359.344 67.7943 359.593 67.325C359.85 66.8557 360.194 66.4927 360.627 66.236C361.067 65.972 361.551 65.84 362.079 65.84C362.556 65.84 362.97 65.9353 363.322 66.126C363.681 66.3093 363.967 66.5403 364.18 66.819V65.939H365.445V72H364.18V71.098C363.967 71.384 363.678 71.6223 363.311 71.813C362.944 72.0037 362.526 72.099 362.057 72.099C361.536 72.099 361.06 71.967 360.627 71.703C360.194 71.4317 359.85 71.0577 359.593 70.581C359.344 70.097 359.219 69.5507 359.219 68.942ZM364.18 68.964C364.18 68.546 364.092 68.183 363.916 67.875C363.747 67.567 363.524 67.3323 363.245 67.171C362.966 67.0097 362.666 66.929 362.343 66.929C362.02 66.929 361.72 67.0097 361.441 67.171C361.162 67.325 360.935 67.556 360.759 67.864C360.59 68.1647 360.506 68.524 360.506 68.942C360.506 69.36 360.59 69.7267 360.759 70.042C360.935 70.3573 361.162 70.5993 361.441 70.768C361.727 70.9293 362.028 71.01 362.343 71.01C362.666 71.01 362.966 70.9293 363.245 70.768C363.524 70.6067 363.747 70.372 363.916 70.064C364.092 69.7487 364.18 69.382 364.18 68.964ZM370.15 65.84C370.627 65.84 371.052 65.939 371.426 66.137C371.807 66.335 372.104 66.6283 372.317 67.017C372.53 67.4057 372.636 67.875 372.636 68.425V72H371.393V68.612C371.393 68.0693 371.257 67.655 370.986 67.369C370.715 67.0757 370.344 66.929 369.875 66.929C369.406 66.929 369.032 67.0757 368.753 67.369C368.482 67.655 368.346 68.0693 368.346 68.612V72H367.092V65.939H368.346V66.632C368.551 66.3827 368.812 66.1883 369.127 66.049C369.45 65.9097 369.791 65.84 370.15 65.84ZM373.818 68.964C373.818 68.3407 373.942 67.7943 374.192 67.325C374.448 66.8483 374.8 66.4817 375.248 66.225C375.695 65.9683 376.208 65.84 376.788 65.84C377.521 65.84 378.126 66.016 378.603 66.368C379.087 66.7127 379.413 67.2077 379.582 67.853H378.229C378.119 67.5523 377.943 67.3177 377.701 67.149C377.459 66.9803 377.154 66.896 376.788 66.896C376.274 66.896 375.864 67.0793 375.556 67.446C375.255 67.8053 375.105 68.3113 375.105 68.964C375.105 69.6167 375.255 70.1263 375.556 70.493C375.864 70.8597 376.274 71.043 376.788 71.043C377.514 71.043 377.994 70.724 378.229 70.086H379.582C379.406 70.702 379.076 71.1933 378.592 71.56C378.108 71.9193 377.506 72.099 376.788 72.099C376.208 72.099 375.695 71.9707 375.248 71.714C374.8 71.45 374.448 71.0833 374.192 70.614C373.942 70.1373 373.818 69.5873 373.818 68.964ZM386.386 68.821C386.386 69.0483 386.372 69.2537 386.342 69.437H381.711C381.748 69.921 381.928 70.3097 382.25 70.603C382.573 70.8963 382.969 71.043 383.438 71.043C384.113 71.043 384.59 70.7607 384.868 70.196H386.221C386.038 70.7533 385.704 71.2117 385.22 71.571C384.744 71.923 384.15 72.099 383.438 72.099C382.859 72.099 382.338 71.9707 381.876 71.714C381.422 71.45 381.062 71.0833 380.798 70.614C380.542 70.1373 380.413 69.5873 380.413 68.964C380.413 68.3407 380.538 67.7943 380.787 67.325C381.044 66.8483 381.4 66.4817 381.854 66.225C382.316 65.9683 382.844 65.84 383.438 65.84C384.01 65.84 384.52 65.9647 384.967 66.214C385.415 66.4633 385.763 66.8153 386.012 67.27C386.262 67.7173 386.386 68.2343 386.386 68.821ZM385.077 68.425C385.07 67.963 384.905 67.5927 384.582 67.314C384.26 67.0353 383.86 66.896 383.383 66.896C382.951 66.896 382.58 67.0353 382.272 67.314C381.964 67.5853 381.781 67.9557 381.722 68.425H385.077ZM388.874 63.86V72H387.62V63.86H388.874Z"></path>
</svg>
