<svg xmlns="http://www.w3.org/2000/svg" fill="none" viewBox="0 0 44 24" height="24" width="44">
<path fill-opacity="0.5" fill="#FF0000" d="M2 12C2 6.47715 6.47715 2 12 2H32C37.5228 2 42 6.47715 42 12V12C42 17.5228 37.5228 22 32 22H12C6.47715 22 2 17.5228 2 12V12Z"></path>
<path stroke-width="2" stroke-opacity="0.2" stroke="#FF0000" d="M32 1H12C5.92487 1 1 5.92487 1 12C1 18.0751 5.92487 23 12 23H32C38.0751 23 43 18.0751 43 12C43 5.92487 38.0751 1 32 1Z"></path>
<path fill="white" d="M20.7018 8.428H16.6818V10.816C16.8498 10.592 17.0978 10.404 17.4258 10.252C17.7618 10.1 18.1178 10.024 18.4938 10.024C19.1658 10.024 19.7098 10.168 20.1258 10.456C20.5498 10.744 20.8498 11.108 21.0258 11.548C21.2098 11.988 21.3018 12.452 21.3018 12.94C21.3018 13.532 21.1858 14.06 20.9538 14.524C20.7298 14.98 20.3898 15.34 19.9338 15.604C19.4858 15.868 18.9338 16 18.2778 16C17.4058 16 16.7058 15.784 16.1778 15.352C15.6498 14.92 15.3338 14.348 15.2298 13.636H16.5618C16.6498 14.012 16.8458 14.312 17.1498 14.536C17.4538 14.752 17.8338 14.86 18.2898 14.86C18.8578 14.86 19.2818 14.688 19.5618 14.344C19.8498 14 19.9938 13.544 19.9938 12.976C19.9938 12.4 19.8498 11.96 19.5618 11.656C19.2738 11.344 18.8498 11.188 18.2898 11.188C17.8978 11.188 17.5658 11.288 17.2938 11.488C17.0298 11.68 16.8378 11.944 16.7178 12.28H15.4218V7.228H20.7018V8.428ZM24.2019 11.428C23.3699 11.012 22.9539 10.356 22.9539 9.46C22.9539 9.028 23.0619 8.632 23.2779 8.272C23.4939 7.912 23.8179 7.628 24.2499 7.42C24.6819 7.204 25.2099 7.096 25.8339 7.096C26.4499 7.096 26.9739 7.204 27.4059 7.42C27.8459 7.628 28.1739 7.912 28.3899 8.272C28.6059 8.632 28.7139 9.028 28.7139 9.46C28.7139 9.908 28.5979 10.304 28.3659 10.648C28.1419 10.984 27.8419 11.244 27.4659 11.428C27.9219 11.596 28.2819 11.872 28.5459 12.256C28.8099 12.632 28.9419 13.076 28.9419 13.588C28.9419 14.108 28.8099 14.568 28.5459 14.968C28.2819 15.368 27.9139 15.676 27.4419 15.892C26.9699 16.108 26.4339 16.216 25.8339 16.216C25.2339 16.216 24.6979 16.108 24.2259 15.892C23.7619 15.676 23.3979 15.368 23.1339 14.968C22.8699 14.568 22.7379 14.108 22.7379 13.588C22.7379 13.068 22.8699 12.62 23.1339 12.244C23.3979 11.868 23.7539 11.596 24.2019 11.428ZM27.4059 9.628C27.4059 9.18 27.2659 8.836 26.9859 8.596C26.7059 8.356 26.3219 8.236 25.8339 8.236C25.3539 8.236 24.9739 8.356 24.6939 8.596C24.4139 8.836 24.2739 9.184 24.2739 9.64C24.2739 10.04 24.4179 10.368 24.7059 10.624C25.0019 10.872 25.3779 10.996 25.8339 10.996C26.2899 10.996 26.6659 10.868 26.9619 10.612C27.2579 10.356 27.4059 10.028 27.4059 9.628ZM25.8339 12.028C25.3059 12.028 24.8739 12.16 24.5379 12.424C24.2099 12.68 24.0459 13.052 24.0459 13.54C24.0459 13.996 24.2059 14.368 24.5259 14.656C24.8459 14.936 25.2819 15.076 25.8339 15.076C26.3779 15.076 26.8059 14.932 27.1179 14.644C27.4379 14.356 27.5979 13.988 27.5979 13.54C27.5979 13.06 27.4339 12.688 27.1059 12.424C26.7859 12.16 26.3619 12.028 25.8339 12.028Z"></path>
</svg>
