<svg xmlns="http://www.w3.org/2000/svg" fill="none" viewBox="0 0 44 24" height="24" width="44">
<path fill-opacity="0.5" fill="#FF0000" d="M2 12C2 6.47715 6.47715 2 12 2H32C37.5228 2 42 6.47715 42 12V12C42 17.5228 37.5228 22 32 22H12C6.47715 22 2 17.5228 2 12V12Z"></path>
<path stroke-width="2" stroke-opacity="0.2" stroke="#FF0000" d="M32 1H12C5.92487 1 1 5.92487 1 12C1 18.0751 5.92487 23 12 23H32C38.0751 23 43 18.0751 43 12C43 5.92487 38.0751 1 32 1Z"></path>
<path fill="white" d="M14.7825 14.176V13.144L18.8145 7.36H20.4705V12.988H21.5865V14.176H20.4705V16H19.1265V14.176H14.7825ZM19.1865 8.752L16.3545 12.988H19.1865V8.752ZM22.552 14.176V13.144L26.584 7.36H28.24V12.988H29.356V14.176H28.24V16H26.896V14.176H22.552ZM26.956 8.752L24.124 12.988H26.956V8.752Z"></path>
</svg>
