<svg xmlns="http://www.w3.org/2000/svg" fill="none" viewBox="0 0 480 360" height="360" width="480">
<path fill="white" d="M50.407 25.161C50.407 24.413 50.5793 23.742 50.924 23.148C51.276 22.554 51.749 22.092 52.343 21.762C52.9443 21.4247 53.6007 21.256 54.312 21.256C55.126 21.256 55.8483 21.4577 56.479 21.861C57.117 22.257 57.579 22.8217 57.865 23.555H56.358C56.16 23.1517 55.885 22.851 55.533 22.653C55.181 22.455 54.774 22.356 54.312 22.356C53.806 22.356 53.355 22.4697 52.959 22.697C52.563 22.9243 52.2513 23.2507 52.024 23.676C51.804 24.1013 51.694 24.5963 51.694 25.161C51.694 25.7257 51.804 26.2207 52.024 26.646C52.2513 27.0713 52.563 27.4013 52.959 27.636C53.355 27.8633 53.806 27.977 54.312 27.977C54.774 27.977 55.181 27.878 55.533 27.68C55.885 27.482 56.16 27.1813 56.358 26.778H57.865C57.579 27.5113 57.117 28.076 56.479 28.472C55.8483 28.868 55.126 29.066 54.312 29.066C53.5933 29.066 52.937 28.901 52.343 28.571C51.749 28.2337 51.276 27.768 50.924 27.174C50.5793 26.58 50.407 25.909 50.407 25.161ZM58.9148 25.942C58.9148 25.3333 59.0395 24.7943 59.2888 24.325C59.5455 23.8557 59.8901 23.4927 60.3228 23.236C60.7628 22.972 61.2468 22.84 61.7748 22.84C62.2515 22.84 62.6658 22.9353 63.0178 23.126C63.3771 23.3093 63.6631 23.5403 63.8758 23.819V22.939H65.1408V29H63.8758V28.098C63.6631 28.384 63.3735 28.6223 63.0068 28.813C62.6401 29.0037 62.2221 29.099 61.7528 29.099C61.2321 29.099 60.7555 28.967 60.3228 28.703C59.8901 28.4317 59.5455 28.0577 59.2888 27.581C59.0395 27.097 58.9148 26.5507 58.9148 25.942ZM63.8758 25.964C63.8758 25.546 63.7878 25.183 63.6118 24.875C63.4431 24.567 63.2195 24.3323 62.9408 24.171C62.6621 24.0097 62.3615 23.929 62.0388 23.929C61.7161 23.929 61.4155 24.0097 61.1368 24.171C60.8581 24.325 60.6308 24.556 60.4548 24.864C60.2861 25.1647 60.2018 25.524 60.2018 25.942C60.2018 26.36 60.2861 26.7267 60.4548 27.042C60.6308 27.3573 60.8581 27.5993 61.1368 27.768C61.4228 27.9293 61.7235 28.01 62.0388 28.01C62.3615 28.01 62.6621 27.9293 62.9408 27.768C63.2195 27.6067 63.4431 27.372 63.6118 27.064C63.7878 26.7487 63.8758 26.382 63.8758 25.964ZM68.0419 20.86V29H66.7879V20.86H68.0419ZM69.2703 25.964C69.2703 25.3407 69.3949 24.7943 69.6443 24.325C69.9009 23.8483 70.2529 23.4817 70.7003 23.225C71.1476 22.9683 71.6609 22.84 72.2403 22.84C72.9736 22.84 73.5786 23.016 74.0553 23.368C74.5393 23.7127 74.8656 24.2077 75.0343 24.853H73.6813C73.5713 24.5523 73.3953 24.3177 73.1533 24.149C72.9113 23.9803 72.6069 23.896 72.2403 23.896C71.7269 23.896 71.3163 24.0793 71.0083 24.446C70.7076 24.8053 70.5573 25.3113 70.5573 25.964C70.5573 26.6167 70.7076 27.1263 71.0083 27.493C71.3163 27.8597 71.7269 28.043 72.2403 28.043C72.9663 28.043 73.4466 27.724 73.6813 27.086H75.0343C74.8583 27.702 74.5283 28.1933 74.0443 28.56C73.5603 28.9193 72.9589 29.099 72.2403 29.099C71.6609 29.099 71.1476 28.9707 70.7003 28.714C70.2529 28.45 69.9009 28.0833 69.6443 27.614C69.3949 27.1373 69.2703 26.5873 69.2703 25.964ZM81.773 22.939V29H80.519V28.285C80.321 28.5343 80.0607 28.7323 79.738 28.879C79.4227 29.0183 79.0853 29.088 78.726 29.088C78.2493 29.088 77.8203 28.989 77.439 28.791C77.065 28.593 76.768 28.2997 76.548 27.911C76.3353 27.5223 76.229 27.053 76.229 26.503V22.939H77.472V26.316C77.472 26.8587 77.6077 27.2767 77.879 27.57C78.1503 27.856 78.5207 27.999 78.99 27.999C79.4593 27.999 79.8297 27.856 80.101 27.57C80.3797 27.2767 80.519 26.8587 80.519 26.316V22.939H81.773ZM84.6815 20.86V29H83.4275V20.86H84.6815ZM85.9099 25.942C85.9099 25.3333 86.0346 24.7943 86.2839 24.325C86.5406 23.8557 86.8853 23.4927 87.3179 23.236C87.7579 22.972 88.2419 22.84 88.7699 22.84C89.2466 22.84 89.6609 22.9353 90.0129 23.126C90.3723 23.3093 90.6583 23.5403 90.8709 23.819V22.939H92.1359V29H90.8709V28.098C90.6583 28.384 90.3686 28.6223 90.0019 28.813C89.6353 29.0037 89.2173 29.099 88.7479 29.099C88.2273 29.099 87.7506 28.967 87.3179 28.703C86.8853 28.4317 86.5406 28.0577 86.2839 27.581C86.0346 27.097 85.9099 26.5507 85.9099 25.942ZM90.8709 25.964C90.8709 25.546 90.7829 25.183 90.6069 24.875C90.4383 24.567 90.2146 24.3323 89.9359 24.171C89.6573 24.0097 89.3566 23.929 89.0339 23.929C88.7113 23.929 88.4106 24.0097 88.1319 24.171C87.8533 24.325 87.6259 24.556 87.4499 24.864C87.2813 25.1647 87.1969 25.524 87.1969 25.942C87.1969 26.36 87.2813 26.7267 87.4499 27.042C87.6259 27.3573 87.8533 27.5993 88.1319 27.768C88.4179 27.9293 88.7186 28.01 89.0339 28.01C89.3566 28.01 89.6573 27.9293 89.9359 27.768C90.2146 27.6067 90.4383 27.372 90.6069 27.064C90.7829 26.7487 90.8709 26.382 90.8709 25.964ZM95.246 23.962V27.317C95.246 27.5443 95.2973 27.7093 95.4 27.812C95.51 27.9073 95.6933 27.955 95.95 27.955H96.72V29H95.73C95.1653 29 94.7327 28.868 94.432 28.604C94.1313 28.34 93.981 27.911 93.981 27.317V23.962H93.266V22.939H93.981V21.432H95.246V22.939H96.72V23.962H95.246ZM100.505 29.099C99.9328 29.099 99.4158 28.9707 98.9538 28.714C98.4918 28.45 98.1288 28.0833 97.8648 27.614C97.6008 27.1373 97.4688 26.5873 97.4688 25.964C97.4688 25.348 97.6044 24.8017 97.8758 24.325C98.1471 23.8483 98.5174 23.4817 98.9868 23.225C99.4561 22.9683 99.9804 22.84 100.56 22.84C101.139 22.84 101.663 22.9683 102.133 23.225C102.602 23.4817 102.972 23.8483 103.244 24.325C103.515 24.8017 103.651 25.348 103.651 25.964C103.651 26.58 103.511 27.1263 103.233 27.603C102.954 28.0797 102.573 28.45 102.089 28.714C101.612 28.9707 101.084 29.099 100.505 29.099ZM100.505 28.01C100.827 28.01 101.128 27.933 101.407 27.779C101.693 27.625 101.924 27.394 102.1 27.086C102.276 26.778 102.364 26.404 102.364 25.964C102.364 25.524 102.279 25.1537 102.111 24.853C101.942 24.545 101.718 24.314 101.44 24.16C101.161 24.006 100.86 23.929 100.538 23.929C100.215 23.929 99.9144 24.006 99.6358 24.16C99.3644 24.314 99.1481 24.545 98.9868 24.853C98.8254 25.1537 98.7448 25.524 98.7448 25.964C98.7448 26.6167 98.9098 27.1227 99.2398 27.482C99.5771 27.834 99.9988 28.01 100.505 28.01ZM106.144 23.819C106.328 23.511 106.57 23.2727 106.87 23.104C107.178 22.928 107.541 22.84 107.959 22.84V24.138H107.64C107.149 24.138 106.775 24.2627 106.518 24.512C106.269 24.7613 106.144 25.194 106.144 25.81V29H104.89V22.939H106.144V23.819Z"></path>
<rect fill="url(#paint0_linear_911_94)" rx="1.34" height="16" width="12" y="17" x="19"></rect>
<rect fill="#CAD2D9" rx="0.335" height="2.66667" width="2.66667" y="22.333" x="20.333"></rect>
<rect fill="#CAD2D9" rx="0.335" height="2.66667" width="2.66667" y="25.6665" x="20.333"></rect>
<rect fill="#CAD2D9" rx="0.335" height="2.66667" width="2.66667" y="29" x="20.333"></rect>
<rect fill="#CAD2D9" rx="0.335" height="2.66667" width="2.66667" y="29" x="23.667"></rect>
<rect fill="#CAD2D9" rx="0.335" height="2.66667" width="2.66667" y="25.6665" x="23.667"></rect>
<rect fill="#CAD2D9" rx="0.335" height="2.66667" width="2.66667" y="22.333" x="23.667"></rect>
<rect fill="#CAD2D9" rx="0.335" height="2.66667" width="2.66667" y="22.333" x="27"></rect>
<rect fill="url(#paint1_linear_911_94)" rx="0.335" height="6" width="2.66667" y="25.6665" x="27"></rect>
<rect fill="#6A6A6A" rx="0.335" height="2.66667" width="9.33333" y="19" x="20.333"></rect>
<rect fill="url(#paint2_linear_911_94)" rx="0.335" height="2.66667" width="9.33333" y="18.333" x="20.333"></rect>
<defs>
<linearGradient gradientUnits="userSpaceOnUse" y2="33" x2="29" y1="17" x1="21" id="paint0_linear_911_94">
<stop stop-color="#8A9198"></stop>
<stop stop-color="#65717C" offset="1"></stop>
</linearGradient>
<linearGradient gradientUnits="userSpaceOnUse" y2="31.6665" x2="29.6667" y1="25.6665" x1="27" id="paint1_linear_911_94">
<stop stop-color="#174D8B"></stop>
<stop stop-color="#1B4077" offset="1"></stop>
</linearGradient>
<linearGradient gradientUnits="userSpaceOnUse" y2="21.5163" x2="20.5127" y1="18.333" x1="20.333" id="paint2_linear_911_94">
<stop stop-color="#50E6FF"></stop>
<stop stop-color="#31BCEF" offset="1"></stop>
</linearGradient>
</defs>
</svg>
