<svg version="1.1" xmlns="http://www.w3.org/2000/svg" xmlns:xlink="http://www.w3.org/1999/xlink" width="40" height="20" viewBox="0,0,40,20"><g transform="translate(-220,-167)"><g data-paper-data="{&quot;isPaintingLayer&quot;:true}" fill-rule="nonzero" stroke="none" stroke-width="1" stroke-linecap="butt" stroke-linejoin="miter" stroke-miterlimit="10" stroke-dasharray="" stroke-dashoffset="0" style="mix-blend-mode: normal"><path d="M220,187v-20h40v20z" fill="none"></path><path d="M241.596,172.512c-0.248,0 -0.456,-0.084 -0.624,-0.252c-0.168,-0.168 -0.252,-0.376 -0.252,-0.624c0,-0.248 0.084,-0.456 0.252,-0.624c0.168,-0.168 0.376,-0.252 0.624,-0.252c0.24,0 0.444,0.084 0.612,0.252c0.168,0.168 0.252,0.376 0.252,0.624c0,0.248 -0.084,0.456 -0.252,0.624c-0.168,0.168 -0.372,0.252 -0.612,0.252zM242.268,181.296c0,0.648 -0.164,1.116 -0.492,1.404c-0.32,0.296 -0.788,0.444 -1.404,0.444h-0.708v-1.152h0.468c0.28,0 0.476,-0.056 0.588,-0.168c0.12,-0.104 0.18,-0.28 0.18,-0.528v-7.908h1.368z" fill="#ff0000"></path></g></g></svg>