<svg xmlns="http://www.w3.org/2000/svg" fill="none" viewBox="0 0 104 34" height="34" width="104">
<rect fill="#1A1A1A" rx="5" height="30" width="100" y="2" x="2"></rect>
<rect stroke-width="2" stroke-opacity="0.2" stroke="white" rx="6" height="32" width="102" y="1" x="1"></rect>
<path fill="white" d="M39.3783 19.988H41.9633V21H38.1243V13.355H39.3783V19.988ZM45.641 21.099C45.069 21.099 44.552 20.9707 44.09 20.714C43.628 20.45 43.265 20.0833 43.001 19.614C42.737 19.1373 42.605 18.5873 42.605 17.964C42.605 17.348 42.7407 16.8017 43.012 16.325C43.2833 15.8483 43.6537 15.4817 44.123 15.225C44.5923 14.9683 45.1167 14.84 45.696 14.84C46.2753 14.84 46.7997 14.9683 47.269 15.225C47.7383 15.4817 48.1087 15.8483 48.38 16.325C48.6513 16.8017 48.787 17.348 48.787 17.964C48.787 18.58 48.6477 19.1263 48.369 19.603C48.0903 20.0797 47.709 20.45 47.225 20.714C46.7483 20.9707 46.2203 21.099 45.641 21.099ZM45.641 20.01C45.9637 20.01 46.2643 19.933 46.543 19.779C46.829 19.625 47.06 19.394 47.236 19.086C47.412 18.778 47.5 18.404 47.5 17.964C47.5 17.524 47.4157 17.1537 47.247 16.853C47.0783 16.545 46.8547 16.314 46.576 16.16C46.2973 16.006 45.9967 15.929 45.674 15.929C45.3513 15.929 45.0507 16.006 44.772 16.16C44.5007 16.314 44.2843 16.545 44.123 16.853C43.9617 17.1537 43.881 17.524 43.881 17.964C43.881 18.6167 44.046 19.1227 44.376 19.482C44.7133 19.834 45.135 20.01 45.641 20.01ZM52.4687 14.84C52.938 14.84 53.3523 14.9353 53.7117 15.126C54.0783 15.3093 54.3643 15.5403 54.5697 15.819V14.939H55.8347V21.099C55.8347 21.6563 55.7173 22.1513 55.4827 22.584C55.248 23.024 54.907 23.3687 54.4597 23.618C54.0197 23.8673 53.4917 23.992 52.8757 23.992C52.0543 23.992 51.3723 23.7977 50.8297 23.409C50.287 23.0277 49.979 22.507 49.9057 21.847H51.1487C51.244 22.1623 51.4457 22.4153 51.7537 22.606C52.069 22.804 52.443 22.903 52.8757 22.903C53.3817 22.903 53.7887 22.749 54.0967 22.441C54.412 22.133 54.5697 21.6857 54.5697 21.099V20.087C54.357 20.373 54.0673 20.615 53.7007 20.813C53.3413 21.0037 52.9307 21.099 52.4687 21.099C51.9407 21.099 51.4567 20.967 51.0167 20.703C50.584 20.4317 50.2393 20.0577 49.9827 19.581C49.7333 19.097 49.6087 18.5507 49.6087 17.942C49.6087 17.3333 49.7333 16.7943 49.9827 16.325C50.2393 15.8557 50.584 15.4927 51.0167 15.236C51.4567 14.972 51.9407 14.84 52.4687 14.84ZM54.5697 17.964C54.5697 17.546 54.4817 17.183 54.3057 16.875C54.137 16.567 53.9133 16.3323 53.6347 16.171C53.356 16.0097 53.0553 15.929 52.7327 15.929C52.41 15.929 52.1093 16.0097 51.8307 16.171C51.552 16.325 51.3247 16.556 51.1487 16.864C50.98 17.1647 50.8957 17.524 50.8957 17.942C50.8957 18.36 50.98 18.7267 51.1487 19.042C51.3247 19.3573 51.552 19.5993 51.8307 19.768C52.1167 19.9293 52.4173 20.01 52.7327 20.01C53.0553 20.01 53.356 19.9293 53.6347 19.768C53.9133 19.6067 54.137 19.372 54.3057 19.064C54.4817 18.7487 54.5697 18.382 54.5697 17.964ZM58.1197 14.136C57.8924 14.136 57.7017 14.059 57.5477 13.905C57.3937 13.751 57.3167 13.5603 57.3167 13.333C57.3167 13.1057 57.3937 12.915 57.5477 12.761C57.7017 12.607 57.8924 12.53 58.1197 12.53C58.3397 12.53 58.5267 12.607 58.6807 12.761C58.8347 12.915 58.9117 13.1057 58.9117 13.333C58.9117 13.5603 58.8347 13.751 58.6807 13.905C58.5267 14.059 58.3397 14.136 58.1197 14.136ZM58.7357 14.939V21H57.4817V14.939H58.7357ZM63.4401 14.84C63.9168 14.84 64.3421 14.939 64.7161 15.137C65.0975 15.335 65.3945 15.6283 65.6071 16.017C65.8198 16.4057 65.9261 16.875 65.9261 17.425V21H64.6831V17.612C64.6831 17.0693 64.5475 16.655 64.2761 16.369C64.0048 16.0757 63.6345 15.929 63.1651 15.929C62.6958 15.929 62.3218 16.0757 62.0431 16.369C61.7718 16.655 61.6361 17.0693 61.6361 17.612V21H60.3821V14.939H61.6361V15.632C61.8415 15.3827 62.1018 15.1883 62.4171 15.049C62.7398 14.9097 63.0808 14.84 63.4401 14.84Z"></path>
</svg>
