<svg xmlns="http://www.w3.org/2000/svg" fill="none" viewBox="0 0 44 24" height="24" width="44">
<path fill-opacity="0.5" fill="#FF0000" d="M2 12C2 6.47715 6.47715 2 12 2H32C37.5228 2 42 6.47715 42 12V12C42 17.5228 37.5228 22 32 22H12C6.47715 22 2 17.5228 2 12V12Z"></path>
<path stroke-width="2" stroke-opacity="0.2" stroke="#FF0000" d="M32 1H12C5.92487 1 1 5.92487 1 12C1 18.0751 5.92487 23 12 23H32C38.0751 23 43 18.0751 43 12C43 5.92487 38.0751 1 32 1Z"></path>
<path fill="white" d="M16.1283 14.14C16.8963 13.476 17.5003 12.932 17.9403 12.508C18.3883 12.076 18.7603 11.628 19.0563 11.164C19.3523 10.7 19.5003 10.236 19.5003 9.772C19.5003 9.292 19.3843 8.916 19.1523 8.644C18.9283 8.372 18.5723 8.236 18.0843 8.236C17.6123 8.236 17.2443 8.388 16.9803 8.692C16.7243 8.988 16.5883 9.388 16.5723 9.892H15.2523C15.2763 8.98 15.5483 8.284 16.0683 7.804C16.5963 7.316 17.2643 7.072 18.0723 7.072C18.9443 7.072 19.6243 7.312 20.1123 7.792C20.6083 8.272 20.8563 8.912 20.8563 9.712C20.8563 10.288 20.7083 10.844 20.4123 11.38C20.1243 11.908 19.7763 12.384 19.3683 12.808C18.9683 13.224 18.4563 13.708 17.8323 14.26L17.2923 14.74H21.0963V15.88H15.2643V14.884L16.1283 14.14ZM22.1301 14.176V13.144L26.1621 7.36H27.8181V12.988H28.9341V14.176H27.8181V16H26.4741V14.176H22.1301ZM26.5341 8.752L23.7021 12.988H26.5341V8.752Z"></path>
</svg>
