<svg xmlns="http://www.w3.org/2000/svg" fill="none" viewBox="0 0 480 360" height="360" width="480">
<path fill="black" d="M192.912 173.88V185H191.088V177.384L187.696 185H186.432L183.024 177.384V185H181.2V173.88H183.168L187.072 182.6L190.96 173.88H192.912ZM203.389 180.376C203.389 180.707 203.368 181.005 203.325 181.272H196.589C196.643 181.976 196.904 182.541 197.373 182.968C197.843 183.395 198.419 183.608 199.101 183.608C200.083 183.608 200.776 183.197 201.181 182.376H203.149C202.883 183.187 202.397 183.853 201.693 184.376C201 184.888 200.136 185.144 199.101 185.144C198.259 185.144 197.501 184.957 196.829 184.584C196.168 184.2 195.645 183.667 195.261 182.984C194.888 182.291 194.701 181.491 194.701 180.584C194.701 179.677 194.883 178.883 195.245 178.2C195.619 177.507 196.136 176.973 196.797 176.6C197.469 176.227 198.237 176.04 199.101 176.04C199.933 176.04 200.675 176.221 201.325 176.584C201.976 176.947 202.483 177.459 202.845 178.12C203.208 178.771 203.389 179.523 203.389 180.376ZM201.485 179.8C201.475 179.128 201.235 178.589 200.765 178.184C200.296 177.779 199.715 177.576 199.021 177.576C198.392 177.576 197.853 177.779 197.405 178.184C196.957 178.579 196.691 179.117 196.605 179.8H201.485ZM204.576 180.552C204.576 179.667 204.758 178.883 205.12 178.2C205.494 177.517 205.995 176.989 206.624 176.616C207.264 176.232 207.974 176.04 208.752 176.04C209.328 176.04 209.894 176.168 210.448 176.424C211.014 176.669 211.462 177 211.792 177.416V173.16H213.632V185H211.792V183.672C211.494 184.099 211.078 184.451 210.544 184.728C210.022 185.005 209.419 185.144 208.736 185.144C207.968 185.144 207.264 184.952 206.624 184.568C205.995 184.173 205.494 183.629 205.12 182.936C204.758 182.232 204.576 181.437 204.576 180.552ZM211.792 180.584C211.792 179.976 211.664 179.448 211.408 179C211.163 178.552 210.838 178.211 210.432 177.976C210.027 177.741 209.59 177.624 209.12 177.624C208.651 177.624 208.214 177.741 207.808 177.976C207.403 178.2 207.072 178.536 206.816 178.984C206.571 179.421 206.448 179.944 206.448 180.552C206.448 181.16 206.571 181.693 206.816 182.152C207.072 182.611 207.403 182.963 207.808 183.208C208.224 183.443 208.662 183.56 209.12 183.56C209.59 183.56 210.027 183.443 210.432 183.208C210.838 182.973 211.163 182.632 211.408 182.184C211.664 181.725 211.792 181.192 211.792 180.584ZM216.956 175.016C216.625 175.016 216.348 174.904 216.124 174.68C215.9 174.456 215.788 174.179 215.788 173.848C215.788 173.517 215.9 173.24 216.124 173.016C216.348 172.792 216.625 172.68 216.956 172.68C217.276 172.68 217.548 172.792 217.772 173.016C217.996 173.24 218.108 173.517 218.108 173.848C218.108 174.179 217.996 174.456 217.772 174.68C217.548 174.904 217.276 175.016 216.956 175.016ZM217.852 176.184V185H216.028V176.184H217.852ZM219.639 180.552C219.639 179.667 219.82 178.883 220.183 178.2C220.556 177.517 221.058 176.989 221.687 176.616C222.327 176.232 223.031 176.04 223.799 176.04C224.492 176.04 225.095 176.179 225.607 176.456C226.13 176.723 226.546 177.059 226.855 177.464V176.184H228.695V185H226.855V183.688C226.546 184.104 226.124 184.451 225.591 184.728C225.058 185.005 224.45 185.144 223.767 185.144C223.01 185.144 222.316 184.952 221.687 184.568C221.058 184.173 220.556 183.629 220.183 182.936C219.82 182.232 219.639 181.437 219.639 180.552ZM226.855 180.584C226.855 179.976 226.727 179.448 226.471 179C226.226 178.552 225.9 178.211 225.495 177.976C225.09 177.741 224.652 177.624 224.183 177.624C223.714 177.624 223.276 177.741 222.871 177.976C222.466 178.2 222.135 178.536 221.879 178.984C221.634 179.421 221.511 179.944 221.511 180.552C221.511 181.16 221.634 181.693 221.879 182.152C222.135 182.611 222.466 182.963 222.871 183.208C223.287 183.443 223.724 183.56 224.183 183.56C224.652 183.56 225.09 183.443 225.495 183.208C225.9 182.973 226.226 182.632 226.471 182.184C226.727 181.725 226.855 181.192 226.855 180.584ZM243.023 177.192C243.023 177.757 242.89 178.291 242.623 178.792C242.356 179.293 241.93 179.704 241.343 180.024C240.756 180.333 240.004 180.488 239.087 180.488H237.071V185H235.247V173.88H239.087C239.94 173.88 240.66 174.029 241.247 174.328C241.844 174.616 242.287 175.011 242.575 175.512C242.874 176.013 243.023 176.573 243.023 177.192ZM239.087 179C239.78 179 240.298 178.845 240.639 178.536C240.98 178.216 241.151 177.768 241.151 177.192C241.151 175.976 240.463 175.368 239.087 175.368H237.071V179H239.087ZM246.587 173.16V185H244.763V173.16H246.587ZM248.373 180.552C248.373 179.667 248.555 178.883 248.917 178.2C249.291 177.517 249.792 176.989 250.421 176.616C251.061 176.232 251.765 176.04 252.533 176.04C253.227 176.04 253.829 176.179 254.341 176.456C254.864 176.723 255.28 177.059 255.589 177.464V176.184H257.429V185H255.589V183.688C255.28 184.104 254.859 184.451 254.325 184.728C253.792 185.005 253.184 185.144 252.501 185.144C251.744 185.144 251.051 184.952 250.421 184.568C249.792 184.173 249.291 183.629 248.917 182.936C248.555 182.232 248.373 181.437 248.373 180.552ZM255.589 180.584C255.589 179.976 255.461 179.448 255.205 179C254.96 178.552 254.635 178.211 254.229 177.976C253.824 177.741 253.387 177.624 252.917 177.624C252.448 177.624 252.011 177.741 251.605 177.976C251.2 178.2 250.869 178.536 250.613 178.984C250.368 179.421 250.245 179.944 250.245 180.552C250.245 181.16 250.368 181.693 250.613 182.152C250.869 182.611 251.2 182.963 251.605 183.208C252.021 183.443 252.459 183.56 252.917 183.56C253.387 183.56 253.824 183.443 254.229 183.208C254.635 182.973 254.96 182.632 255.205 182.184C255.461 181.725 255.589 181.192 255.589 180.584ZM267.761 176.184L262.353 189.144H260.465L262.257 184.856L258.785 176.184H260.817L263.297 182.904L265.873 176.184H267.761ZM277.218 180.376C277.218 180.707 277.196 181.005 277.154 181.272H270.418C270.471 181.976 270.732 182.541 271.202 182.968C271.671 183.395 272.247 183.608 272.93 183.608C273.911 183.608 274.604 183.197 275.01 182.376H276.977C276.711 183.187 276.226 183.853 275.522 184.376C274.828 184.888 273.964 185.144 272.93 185.144C272.087 185.144 271.33 184.957 270.658 184.584C269.996 184.2 269.474 183.667 269.09 182.984C268.716 182.291 268.53 181.491 268.53 180.584C268.53 179.677 268.711 178.883 269.074 178.2C269.447 177.507 269.964 176.973 270.626 176.6C271.298 176.227 272.066 176.04 272.93 176.04C273.762 176.04 274.503 176.221 275.154 176.584C275.804 176.947 276.311 177.459 276.674 178.12C277.036 178.771 277.218 179.523 277.218 180.376ZM275.314 179.8C275.303 179.128 275.063 178.589 274.594 178.184C274.124 177.779 273.543 177.576 272.85 177.576C272.22 177.576 271.682 177.779 271.234 178.184C270.786 178.579 270.519 179.117 270.434 179.8H275.314ZM280.837 177.464C281.103 177.016 281.455 176.669 281.893 176.424C282.341 176.168 282.869 176.04 283.477 176.04V177.928H283.013C282.298 177.928 281.754 178.109 281.381 178.472C281.018 178.835 280.837 179.464 280.837 180.36V185H279.013V176.184H280.837V177.464Z"></path>
<path fill="#0076B3" d="M184.994 198.355V203.866C184.994 204.548 184.785 205.087 184.367 205.483C183.956 205.879 183.414 206.077 182.739 206.077C182.064 206.077 181.518 205.879 181.1 205.483C180.689 205.087 180.484 204.548 180.484 203.866H181.749C181.756 204.203 181.841 204.471 182.002 204.669C182.171 204.867 182.416 204.966 182.739 204.966C183.062 204.966 183.307 204.867 183.476 204.669C183.645 204.464 183.729 204.196 183.729 203.866V198.355H184.994ZM188.288 197.86V206H187.034V197.86H188.288ZM192.563 206.099C191.991 206.099 191.474 205.971 191.012 205.714C190.55 205.45 190.187 205.083 189.923 204.614C189.659 204.137 189.527 203.587 189.527 202.964C189.527 202.348 189.663 201.802 189.934 201.325C190.206 200.848 190.576 200.482 191.045 200.225C191.515 199.968 192.039 199.84 192.618 199.84C193.198 199.84 193.722 199.968 194.191 200.225C194.661 200.482 195.031 200.848 195.302 201.325C195.574 201.802 195.709 202.348 195.709 202.964C195.709 203.58 195.57 204.126 195.291 204.603C195.013 205.08 194.631 205.45 194.147 205.714C193.671 205.971 193.143 206.099 192.563 206.099ZM192.563 205.01C192.886 205.01 193.187 204.933 193.465 204.779C193.751 204.625 193.982 204.394 194.158 204.086C194.334 203.778 194.422 203.404 194.422 202.964C194.422 202.524 194.338 202.154 194.169 201.853C194.001 201.545 193.777 201.314 193.498 201.16C193.22 201.006 192.919 200.929 192.596 200.929C192.274 200.929 191.973 201.006 191.694 201.16C191.423 201.314 191.207 201.545 191.045 201.853C190.884 202.154 190.803 202.524 190.803 202.964C190.803 203.617 190.968 204.123 191.298 204.482C191.636 204.834 192.057 205.01 192.563 205.01ZM201.558 204.438H198.357L197.807 206H196.498L199.237 198.344H200.689L203.428 206H202.108L201.558 204.438ZM201.206 203.415L199.963 199.862L198.709 203.415H201.206ZM210.108 199.939V206H208.854V205.285C208.656 205.534 208.396 205.732 208.073 205.879C207.758 206.018 207.42 206.088 207.061 206.088C206.584 206.088 206.155 205.989 205.774 205.791C205.4 205.593 205.103 205.3 204.883 204.911C204.67 204.522 204.564 204.053 204.564 203.503V199.939H205.807V203.316C205.807 203.859 205.943 204.277 206.214 204.57C206.485 204.856 206.856 204.999 207.325 204.999C207.794 204.999 208.165 204.856 208.436 204.57C208.715 204.277 208.854 203.859 208.854 203.316V199.939H210.108Z"></path>
<rect fill="url(#paint0_linear_930_2)" rx="3.2" height="25.6" width="25.6" y="170.8" x="100.8"></rect>
<path fill="white" d="M110.205 182.194C112.08 180.319 115.119 180.319 116.994 182.194L123.862 189.063C124.462 189.663 124.799 190.477 124.799 191.325V191.6C124.799 193.367 123.367 194.8 121.599 194.8H105.599C103.832 194.8 102.399 193.367 102.399 191.6V191.325C102.399 190.477 102.737 189.663 103.337 189.063L110.205 182.194Z"></path>
<path stroke-width="1.6" stroke-opacity="0.1" stroke="black" d="M105.599 195.6H121.599C123.809 195.6 125.599 193.809 125.599 191.6V191.325C125.599 190.264 125.178 189.247 124.428 188.497L117.559 181.628C115.372 179.441 111.827 179.441 109.64 181.628L102.771 188.497C102.021 189.247 101.599 190.264 101.599 191.325V191.6C101.599 193.809 103.39 195.6 105.599 195.6Z"></path>
<path fill="url(#paint1_linear_930_2)" d="M105.6 196.4L117.268 184.731C117.893 184.106 118.906 184.106 119.531 184.731L125.462 190.662C126.062 191.262 126.4 192.076 126.4 192.925V193.2C126.4 194.967 124.967 196.4 123.2 196.4H105.6Z"></path>
<path fill="url(#paint2_linear_930_2)" d="M100.8 192.925C100.8 192.077 101.137 191.263 101.737 190.663L110.206 182.194C112.08 180.319 115.119 180.319 116.994 182.194L121.6 186.8V186.8C119.832 185.032 116.967 185.032 115.2 186.8L106.537 195.463C105.937 196.063 105.123 196.4 104.274 196.4H104C102.232 196.4 100.8 194.967 100.8 193.2V192.925Z"></path>
<rect fill="white" rx="2.4" height="4.8" width="4.8" y="174" x="116.8"></rect>
<rect stroke-width="1.6" stroke-opacity="0.1" stroke="black" rx="3.2" height="6.4" width="6.4" y="173.2" x="116"></rect>
<rect stroke-width="2.4" stroke="url(#paint4_linear_930_2)" fill="url(#paint3_linear_930_2)" rx="11.6" height="23.2" width="23.2" y="184.8" x="114.801"></rect>
<path fill="white" d="M123.2 201.229V191.571C123.2 190.917 123.942 190.539 124.471 190.924L131.111 195.753C131.55 196.072 131.55 196.728 131.111 197.047L124.471 201.876C123.942 202.261 123.2 201.883 123.2 201.229Z"></path>
<path stroke-linejoin="round" stroke-width="1.6" stroke-opacity="0.2" stroke="black" d="M122.4 191.571V201.229C122.4 202.537 123.884 203.292 124.941 202.523L131.581 197.694C132.46 197.055 132.46 195.745 131.581 195.106L124.941 190.277C123.884 189.508 122.4 190.263 122.4 191.571Z"></path>
<path fill-opacity="0.9" fill="#D9D9D9" d="M60 310C60 304.477 64.4772 300 70 300H460C465.523 300 470 304.477 470 310V340C470 345.523 465.523 350 460 350H70C64.4771 350 60 345.523 60 340V310Z"></path>
<path stroke-opacity="0.2" stroke="white" d="M460 299.5H70C64.201 299.5 59.5 304.201 59.5 310V340C59.5 345.799 64.201 350.5 70 350.5H460C465.799 350.5 470.5 345.799 470.5 340V310C470.5 304.201 465.799 299.5 460 299.5Z"></path>
<path fill="black" d="M81.6786 317.632C81.6786 318.021 81.587 318.387 81.4036 318.732C81.2203 319.077 80.927 319.359 80.5236 319.579C80.1203 319.792 79.6033 319.898 78.9726 319.898H77.5866V323H76.3326V315.355H78.9726C79.5593 315.355 80.0543 315.458 80.4576 315.663C80.8683 315.861 81.1726 316.132 81.3706 316.477C81.576 316.822 81.6786 317.207 81.6786 317.632ZM78.9726 318.875C79.4493 318.875 79.805 318.769 80.0396 318.556C80.2743 318.336 80.3916 318.028 80.3916 317.632C80.3916 316.796 79.9186 316.378 78.9726 316.378H77.5866V318.875H78.9726ZM84.1286 314.86V323H82.8746V314.86H84.1286ZM85.357 319.942C85.357 319.333 85.4817 318.794 85.731 318.325C85.9877 317.856 86.3323 317.493 86.765 317.236C87.205 316.972 87.689 316.84 88.217 316.84C88.6937 316.84 89.108 316.935 89.46 317.126C89.8193 317.309 90.1053 317.54 90.318 317.819V316.939H91.583V323H90.318V322.098C90.1053 322.384 89.8157 322.622 89.449 322.813C89.0823 323.004 88.6643 323.099 88.195 323.099C87.6743 323.099 87.1977 322.967 86.765 322.703C86.3323 322.432 85.9877 322.058 85.731 321.581C85.4817 321.097 85.357 320.551 85.357 319.942ZM90.318 319.964C90.318 319.546 90.23 319.183 90.054 318.875C89.8853 318.567 89.6617 318.332 89.383 318.171C89.1043 318.01 88.8037 317.929 88.481 317.929C88.1583 317.929 87.8577 318.01 87.579 318.171C87.3003 318.325 87.073 318.556 86.897 318.864C86.7283 319.165 86.644 319.524 86.644 319.942C86.644 320.36 86.7283 320.727 86.897 321.042C87.073 321.357 87.3003 321.599 87.579 321.768C87.865 321.929 88.1657 322.01 88.481 322.01C88.8037 322.01 89.1043 321.929 89.383 321.768C89.6617 321.607 89.8853 321.372 90.054 321.064C90.23 320.749 90.318 320.382 90.318 319.964ZM98.6861 316.939L94.9681 325.849H93.6701L94.9021 322.901L92.5151 316.939H93.9121L95.6171 321.559L97.3881 316.939H98.6861ZM102.072 319.942C102.072 319.333 102.197 318.794 102.446 318.325C102.703 317.856 103.047 317.493 103.48 317.236C103.92 316.972 104.404 316.84 104.932 316.84C105.409 316.84 105.823 316.935 106.175 317.126C106.534 317.309 106.82 317.54 107.033 317.819V316.939H108.298V323H107.033V322.098C106.82 322.384 106.531 322.622 106.164 322.813C105.797 323.004 105.379 323.099 104.91 323.099C104.389 323.099 103.913 322.967 103.48 322.703C103.047 322.432 102.703 322.058 102.446 321.581C102.197 321.097 102.072 320.551 102.072 319.942ZM107.033 319.964C107.033 319.546 106.945 319.183 106.769 318.875C106.6 318.567 106.377 318.332 106.098 318.171C105.819 318.01 105.519 317.929 105.196 317.929C104.873 317.929 104.573 318.01 104.294 318.171C104.015 318.325 103.788 318.556 103.612 318.864C103.443 319.165 103.359 319.524 103.359 319.942C103.359 320.36 103.443 320.727 103.612 321.042C103.788 321.357 104.015 321.599 104.294 321.768C104.58 321.929 104.881 322.01 105.196 322.01C105.519 322.01 105.819 321.929 106.098 321.768C106.377 321.607 106.6 321.372 106.769 321.064C106.945 320.749 107.033 320.382 107.033 319.964ZM111.199 314.86V323H109.945V314.86H111.199ZM114.099 314.86V323H112.845V314.86H114.099ZM120.066 317.962V321.317C120.066 321.544 120.117 321.709 120.22 321.812C120.33 321.907 120.513 321.955 120.77 321.955H121.54V323H120.55C119.985 323 119.553 322.868 119.252 322.604C118.951 322.34 118.801 321.911 118.801 321.317V317.962H118.086V316.939H118.801V315.432H120.066V316.939H121.54V317.962H120.066ZM125.831 316.84C126.293 316.84 126.704 316.939 127.063 317.137C127.43 317.335 127.716 317.628 127.921 318.017C128.134 318.406 128.24 318.875 128.24 319.425V323H126.997V319.612C126.997 319.069 126.861 318.655 126.59 318.369C126.319 318.076 125.948 317.929 125.479 317.929C125.01 317.929 124.636 318.076 124.357 318.369C124.086 318.655 123.95 319.069 123.95 319.612V323H122.696V314.86H123.95V317.643C124.163 317.386 124.43 317.188 124.753 317.049C125.083 316.91 125.442 316.84 125.831 316.84ZM135.394 319.821C135.394 320.048 135.38 320.254 135.35 320.437H130.719C130.756 320.921 130.936 321.31 131.258 321.603C131.581 321.896 131.977 322.043 132.446 322.043C133.121 322.043 133.598 321.761 133.876 321.196H135.229C135.046 321.753 134.712 322.212 134.228 322.571C133.752 322.923 133.158 323.099 132.446 323.099C131.867 323.099 131.346 322.971 130.884 322.714C130.43 322.45 130.07 322.083 129.806 321.614C129.55 321.137 129.421 320.587 129.421 319.964C129.421 319.341 129.546 318.794 129.795 318.325C130.052 317.848 130.408 317.482 130.862 317.225C131.324 316.968 131.852 316.84 132.446 316.84C133.018 316.84 133.528 316.965 133.975 317.214C134.423 317.463 134.771 317.815 135.02 318.27C135.27 318.717 135.394 319.234 135.394 319.821ZM134.085 319.425C134.078 318.963 133.913 318.593 133.59 318.314C133.268 318.035 132.868 317.896 132.391 317.896C131.959 317.896 131.588 318.035 131.28 318.314C130.972 318.585 130.789 318.956 130.73 319.425H134.085ZM139.068 319.942C139.068 319.333 139.193 318.794 139.442 318.325C139.699 317.856 140.043 317.493 140.476 317.236C140.916 316.972 141.4 316.84 141.928 316.84C142.405 316.84 142.819 316.935 143.171 317.126C143.53 317.309 143.816 317.54 144.029 317.819V316.939H145.294V323H144.029V322.098C143.816 322.384 143.527 322.622 143.16 322.813C142.793 323.004 142.375 323.099 141.906 323.099C141.385 323.099 140.909 322.967 140.476 322.703C140.043 322.432 139.699 322.058 139.442 321.581C139.193 321.097 139.068 320.551 139.068 319.942ZM144.029 319.964C144.029 319.546 143.941 319.183 143.765 318.875C143.596 318.567 143.373 318.332 143.094 318.171C142.815 318.01 142.515 317.929 142.192 317.929C141.869 317.929 141.569 318.01 141.29 318.171C141.011 318.325 140.784 318.556 140.608 318.864C140.439 319.165 140.355 319.524 140.355 319.942C140.355 320.36 140.439 320.727 140.608 321.042C140.784 321.357 141.011 321.599 141.29 321.768C141.576 321.929 141.877 322.01 142.192 322.01C142.515 322.01 142.815 321.929 143.094 321.768C143.373 321.607 143.596 321.372 143.765 321.064C143.941 320.749 144.029 320.382 144.029 319.964ZM152.43 316.939V323H151.176V322.285C150.978 322.534 150.718 322.732 150.395 322.879C150.08 323.018 149.742 323.088 149.383 323.088C148.906 323.088 148.477 322.989 148.096 322.791C147.722 322.593 147.425 322.3 147.205 321.911C146.992 321.522 146.886 321.053 146.886 320.503V316.939H148.129V320.316C148.129 320.859 148.265 321.277 148.536 321.57C148.807 321.856 149.178 321.999 149.647 321.999C150.116 321.999 150.487 321.856 150.758 321.57C151.037 321.277 151.176 320.859 151.176 320.316V316.939H152.43ZM153.667 319.942C153.667 319.333 153.791 318.794 154.041 318.325C154.297 317.856 154.642 317.493 155.075 317.236C155.515 316.972 156.002 316.84 156.538 316.84C156.934 316.84 157.322 316.928 157.704 317.104C158.092 317.273 158.4 317.5 158.628 317.786V314.86H159.893V323H158.628V322.087C158.422 322.38 158.136 322.622 157.77 322.813C157.41 323.004 156.996 323.099 156.527 323.099C155.999 323.099 155.515 322.967 155.075 322.703C154.642 322.432 154.297 322.058 154.041 321.581C153.791 321.097 153.667 320.551 153.667 319.942ZM158.628 319.964C158.628 319.546 158.54 319.183 158.364 318.875C158.195 318.567 157.971 318.332 157.693 318.171C157.414 318.01 157.113 317.929 156.791 317.929C156.468 317.929 156.167 318.01 155.889 318.171C155.61 318.325 155.383 318.556 155.207 318.864C155.038 319.165 154.954 319.524 154.954 319.942C154.954 320.36 155.038 320.727 155.207 321.042C155.383 321.357 155.61 321.599 155.889 321.768C156.175 321.929 156.475 322.01 156.791 322.01C157.113 322.01 157.414 321.929 157.693 321.768C157.971 321.607 158.195 321.372 158.364 321.064C158.54 320.749 158.628 320.382 158.628 319.964ZM162.178 316.136C161.95 316.136 161.76 316.059 161.606 315.905C161.452 315.751 161.375 315.56 161.375 315.333C161.375 315.106 161.452 314.915 161.606 314.761C161.76 314.607 161.95 314.53 162.178 314.53C162.398 314.53 162.585 314.607 162.739 314.761C162.893 314.915 162.97 315.106 162.97 315.333C162.97 315.56 162.893 315.751 162.739 315.905C162.585 316.059 162.398 316.136 162.178 316.136ZM162.794 316.939V323H161.54V316.939H162.794ZM167.069 323.099C166.497 323.099 165.98 322.971 165.518 322.714C165.056 322.45 164.693 322.083 164.429 321.614C164.165 321.137 164.033 320.587 164.033 319.964C164.033 319.348 164.169 318.802 164.44 318.325C164.711 317.848 165.082 317.482 165.551 317.225C166.02 316.968 166.545 316.84 167.124 316.84C167.703 316.84 168.228 316.968 168.697 317.225C169.166 317.482 169.537 317.848 169.808 318.325C170.079 318.802 170.215 319.348 170.215 319.964C170.215 320.58 170.076 321.126 169.797 321.603C169.518 322.08 169.137 322.45 168.653 322.714C168.176 322.971 167.648 323.099 167.069 323.099ZM167.069 322.01C167.392 322.01 167.692 321.933 167.971 321.779C168.257 321.625 168.488 321.394 168.664 321.086C168.84 320.778 168.928 320.404 168.928 319.964C168.928 319.524 168.844 319.154 168.675 318.853C168.506 318.545 168.283 318.314 168.004 318.16C167.725 318.006 167.425 317.929 167.102 317.929C166.779 317.929 166.479 318.006 166.2 318.16C165.929 318.314 165.712 318.545 165.551 318.853C165.39 319.154 165.309 319.524 165.309 319.964C165.309 320.617 165.474 321.123 165.804 321.482C166.141 321.834 166.563 322.01 167.069 322.01ZM176.853 317.962H175.731V323H174.466V317.962H173.751V316.939H174.466V316.51C174.466 315.813 174.649 315.307 175.016 314.992C175.39 314.669 175.973 314.508 176.765 314.508V315.553C176.384 315.553 176.116 315.626 175.962 315.773C175.808 315.912 175.731 316.158 175.731 316.51V316.939H176.853V317.962ZM178.602 316.136C178.375 316.136 178.184 316.059 178.03 315.905C177.876 315.751 177.799 315.56 177.799 315.333C177.799 315.106 177.876 314.915 178.03 314.761C178.184 314.607 178.375 314.53 178.602 314.53C178.822 314.53 179.009 314.607 179.163 314.761C179.317 314.915 179.394 315.106 179.394 315.333C179.394 315.56 179.317 315.751 179.163 315.905C179.009 316.059 178.822 316.136 178.602 316.136ZM179.218 316.939V323H177.964V316.939H179.218ZM182.119 314.86V323H180.865V314.86H182.119ZM189.32 319.821C189.32 320.048 189.306 320.254 189.276 320.437H184.645C184.682 320.921 184.862 321.31 185.184 321.603C185.507 321.896 185.903 322.043 186.372 322.043C187.047 322.043 187.524 321.761 187.802 321.196H189.155C188.972 321.753 188.638 322.212 188.154 322.571C187.678 322.923 187.084 323.099 186.372 323.099C185.793 323.099 185.272 322.971 184.81 322.714C184.356 322.45 183.996 322.083 183.732 321.614C183.476 321.137 183.347 320.587 183.347 319.964C183.347 319.341 183.472 318.794 183.721 318.325C183.978 317.848 184.334 317.482 184.788 317.225C185.25 316.968 185.778 316.84 186.372 316.84C186.944 316.84 187.454 316.965 187.901 317.214C188.349 317.463 188.697 317.815 188.946 318.27C189.196 318.717 189.32 319.234 189.32 319.821ZM188.011 319.425C188.004 318.963 187.839 318.593 187.516 318.314C187.194 318.035 186.794 317.896 186.317 317.896C185.885 317.896 185.514 318.035 185.206 318.314C184.898 318.585 184.715 318.956 184.656 319.425H188.011ZM192.754 323.099C192.278 323.099 191.849 323.015 191.467 322.846C191.093 322.67 190.796 322.435 190.576 322.142C190.356 321.841 190.239 321.508 190.224 321.141H191.522C191.544 321.398 191.665 321.614 191.885 321.79C192.113 321.959 192.395 322.043 192.732 322.043C193.084 322.043 193.356 321.977 193.546 321.845C193.744 321.706 193.843 321.53 193.843 321.317C193.843 321.09 193.733 320.921 193.513 320.811C193.301 320.701 192.96 320.58 192.49 320.448C192.036 320.323 191.665 320.202 191.379 320.085C191.093 319.968 190.844 319.788 190.631 319.546C190.426 319.304 190.323 318.985 190.323 318.589C190.323 318.266 190.419 317.973 190.609 317.709C190.8 317.438 191.071 317.225 191.423 317.071C191.783 316.917 192.193 316.84 192.655 316.84C193.345 316.84 193.898 317.016 194.316 317.368C194.742 317.713 194.969 318.186 194.998 318.787H193.744C193.722 318.516 193.612 318.299 193.414 318.138C193.216 317.977 192.949 317.896 192.611 317.896C192.281 317.896 192.028 317.958 191.852 318.083C191.676 318.208 191.588 318.373 191.588 318.578C191.588 318.739 191.647 318.875 191.764 318.985C191.882 319.095 192.025 319.183 192.193 319.249C192.362 319.308 192.611 319.385 192.941 319.48C193.381 319.597 193.741 319.718 194.019 319.843C194.305 319.96 194.551 320.136 194.756 320.371C194.962 320.606 195.068 320.917 195.075 321.306C195.075 321.651 194.98 321.959 194.789 322.23C194.599 322.501 194.327 322.714 193.975 322.868C193.631 323.022 193.224 323.099 192.754 323.099ZM198.87 319.942C198.87 319.333 198.994 318.794 199.244 318.325C199.5 317.856 199.845 317.493 200.278 317.236C200.718 316.972 201.202 316.84 201.73 316.84C202.206 316.84 202.621 316.935 202.973 317.126C203.332 317.309 203.618 317.54 203.831 317.819V316.939H205.096V323H203.831V322.098C203.618 322.384 203.328 322.622 202.962 322.813C202.595 323.004 202.177 323.099 201.708 323.099C201.187 323.099 200.71 322.967 200.278 322.703C199.845 322.432 199.5 322.058 199.244 321.581C198.994 321.097 198.87 320.551 198.87 319.942ZM203.831 319.964C203.831 319.546 203.743 319.183 203.567 318.875C203.398 318.567 203.174 318.332 202.896 318.171C202.617 318.01 202.316 317.929 201.994 317.929C201.671 317.929 201.37 318.01 201.092 318.171C200.813 318.325 200.586 318.556 200.41 318.864C200.241 319.165 200.157 319.524 200.157 319.942C200.157 320.36 200.241 320.727 200.41 321.042C200.586 321.357 200.813 321.599 201.092 321.768C201.378 321.929 201.678 322.01 201.994 322.01C202.316 322.01 202.617 321.929 202.896 321.768C203.174 321.607 203.398 321.372 203.567 321.064C203.743 320.749 203.831 320.382 203.831 319.964ZM209.801 316.84C210.277 316.84 210.703 316.939 211.077 317.137C211.458 317.335 211.755 317.628 211.968 318.017C212.18 318.406 212.287 318.875 212.287 319.425V323H211.044V319.612C211.044 319.069 210.908 318.655 210.637 318.369C210.365 318.076 209.995 317.929 209.526 317.929C209.056 317.929 208.682 318.076 208.404 318.369C208.132 318.655 207.997 319.069 207.997 319.612V323H206.743V316.939H207.997V317.632C208.202 317.383 208.462 317.188 208.778 317.049C209.1 316.91 209.441 316.84 209.801 316.84ZM213.468 319.942C213.468 319.333 213.593 318.794 213.842 318.325C214.099 317.856 214.444 317.493 214.876 317.236C215.316 316.972 215.804 316.84 216.339 316.84C216.735 316.84 217.124 316.928 217.505 317.104C217.894 317.273 218.202 317.5 218.429 317.786V314.86H219.694V323H218.429V322.087C218.224 322.38 217.938 322.622 217.571 322.813C217.212 323.004 216.798 323.099 216.328 323.099C215.8 323.099 215.316 322.967 214.876 322.703C214.444 322.432 214.099 322.058 213.842 321.581C213.593 321.097 213.468 320.551 213.468 319.942ZM218.429 319.964C218.429 319.546 218.341 319.183 218.165 318.875C217.997 318.567 217.773 318.332 217.494 318.171C217.216 318.01 216.915 317.929 216.592 317.929C216.27 317.929 215.969 318.01 215.69 318.171C215.412 318.325 215.184 318.556 215.008 318.864C214.84 319.165 214.755 319.524 214.755 319.942C214.755 320.36 214.84 320.727 215.008 321.042C215.184 321.357 215.412 321.599 215.69 321.768C215.976 321.929 216.277 322.01 216.592 322.01C216.915 322.01 217.216 321.929 217.494 321.768C217.773 321.607 217.997 321.372 218.165 321.064C218.341 320.749 218.429 320.382 218.429 319.964ZM226.542 321.878L228.258 316.939H229.589L227.279 323H225.783L223.484 316.939H224.826L226.542 321.878ZM231.175 316.136C230.947 316.136 230.757 316.059 230.603 315.905C230.449 315.751 230.372 315.56 230.372 315.333C230.372 315.106 230.449 314.915 230.603 314.761C230.757 314.607 230.947 314.53 231.175 314.53C231.395 314.53 231.582 314.607 231.736 314.761C231.89 314.915 231.967 315.106 231.967 315.333C231.967 315.56 231.89 315.751 231.736 315.905C231.582 316.059 231.395 316.136 231.175 316.136ZM231.791 316.939V323H230.537V316.939H231.791ZM238.992 319.821C238.992 320.048 238.977 320.254 238.948 320.437H234.317C234.354 320.921 234.533 321.31 234.856 321.603C235.179 321.896 235.575 322.043 236.044 322.043C236.719 322.043 237.195 321.761 237.474 321.196H238.827C238.644 321.753 238.31 322.212 237.826 322.571C237.349 322.923 236.755 323.099 236.044 323.099C235.465 323.099 234.944 322.971 234.482 322.714C234.027 322.45 233.668 322.083 233.404 321.614C233.147 321.137 233.019 320.587 233.019 319.964C233.019 319.341 233.144 318.794 233.393 318.325C233.65 317.848 234.005 317.482 234.46 317.225C234.922 316.968 235.45 316.84 236.044 316.84C236.616 316.84 237.126 316.965 237.573 317.214C238.02 317.463 238.369 317.815 238.618 318.27C238.867 318.717 238.992 319.234 238.992 319.821ZM237.683 319.425C237.676 318.963 237.511 318.593 237.188 318.314C236.865 318.035 236.466 317.896 235.989 317.896C235.556 317.896 235.186 318.035 234.878 318.314C234.57 318.585 234.387 318.956 234.328 319.425H237.683ZM248.366 316.939L246.485 323H245.165L243.944 318.523L242.723 323H241.403L239.511 316.939H240.787L242.052 321.812L243.339 316.939H244.648L245.88 321.79L247.134 316.939H248.366ZM251.743 319.942C251.743 319.333 251.867 318.794 252.117 318.325C252.373 317.856 252.718 317.493 253.151 317.236C253.591 316.972 254.075 316.84 254.603 316.84C255.079 316.84 255.494 316.935 255.846 317.126C256.205 317.309 256.491 317.54 256.704 317.819V316.939H257.969V323H256.704V322.098C256.491 322.384 256.201 322.622 255.835 322.813C255.468 323.004 255.05 323.099 254.581 323.099C254.06 323.099 253.583 322.967 253.151 322.703C252.718 322.432 252.373 322.058 252.117 321.581C251.867 321.097 251.743 320.551 251.743 319.942ZM256.704 319.964C256.704 319.546 256.616 319.183 256.44 318.875C256.271 318.567 256.047 318.332 255.769 318.171C255.49 318.01 255.189 317.929 254.867 317.929C254.544 317.929 254.243 318.01 253.965 318.171C253.686 318.325 253.459 318.556 253.283 318.864C253.114 319.165 253.03 319.524 253.03 319.942C253.03 320.36 253.114 320.727 253.283 321.042C253.459 321.357 253.686 321.599 253.965 321.768C254.251 321.929 254.551 322.01 254.867 322.01C255.189 322.01 255.49 321.929 255.769 321.768C256.047 321.607 256.271 321.372 256.44 321.064C256.616 320.749 256.704 320.382 256.704 319.964ZM260.87 314.86V323H259.616V314.86H260.87ZM263.77 314.86V323H262.516V314.86H263.77ZM269.737 317.962V321.317C269.737 321.544 269.788 321.709 269.891 321.812C270.001 321.907 270.184 321.955 270.441 321.955H271.211V323H270.221C269.656 323 269.224 322.868 268.923 322.604C268.622 322.34 268.472 321.911 268.472 321.317V317.962H267.757V316.939H268.472V315.432H269.737V316.939H271.211V317.962H269.737ZM275.502 316.84C275.964 316.84 276.374 316.939 276.734 317.137C277.1 317.335 277.386 317.628 277.592 318.017C277.804 318.406 277.911 318.875 277.911 319.425V323H276.668V319.612C276.668 319.069 276.532 318.655 276.261 318.369C275.989 318.076 275.619 317.929 275.15 317.929C274.68 317.929 274.306 318.076 274.028 318.369C273.756 318.655 273.621 319.069 273.621 319.612V323H272.367V314.86H273.621V317.643C273.833 317.386 274.101 317.188 274.424 317.049C274.754 316.91 275.113 316.84 275.502 316.84ZM285.065 319.821C285.065 320.048 285.051 320.254 285.021 320.437H280.39C280.427 320.921 280.607 321.31 280.929 321.603C281.252 321.896 281.648 322.043 282.117 322.043C282.792 322.043 283.269 321.761 283.547 321.196H284.9C284.717 321.753 284.383 322.212 283.899 322.571C283.423 322.923 282.829 323.099 282.117 323.099C281.538 323.099 281.017 322.971 280.555 322.714C280.101 322.45 279.741 322.083 279.477 321.614C279.221 321.137 279.092 320.587 279.092 319.964C279.092 319.341 279.217 318.794 279.466 318.325C279.723 317.848 280.079 317.482 280.533 317.225C280.995 316.968 281.523 316.84 282.117 316.84C282.689 316.84 283.199 316.965 283.646 317.214C284.094 317.463 284.442 317.815 284.691 318.27C284.941 318.717 285.065 319.234 285.065 319.821ZM283.756 319.425C283.749 318.963 283.584 318.593 283.261 318.314C282.939 318.035 282.539 317.896 282.062 317.896C281.63 317.896 281.259 318.035 280.951 318.314C280.643 318.585 280.46 318.956 280.401 319.425H283.756ZM290.411 317.83C290.624 317.551 290.913 317.317 291.28 317.126C291.647 316.935 292.061 316.84 292.523 316.84C293.051 316.84 293.531 316.972 293.964 317.236C294.404 317.493 294.749 317.856 294.998 318.325C295.247 318.794 295.372 319.333 295.372 319.942C295.372 320.551 295.247 321.097 294.998 321.581C294.749 322.058 294.404 322.432 293.964 322.703C293.531 322.967 293.051 323.099 292.523 323.099C292.061 323.099 291.65 323.007 291.291 322.824C290.932 322.633 290.638 322.399 290.411 322.12V325.882H289.157V316.939H290.411V317.83ZM294.096 319.942C294.096 319.524 294.008 319.165 293.832 318.864C293.663 318.556 293.436 318.325 293.15 318.171C292.871 318.01 292.571 317.929 292.248 317.929C291.933 317.929 291.632 318.01 291.346 318.171C291.067 318.332 290.84 318.567 290.664 318.875C290.495 319.183 290.411 319.546 290.411 319.964C290.411 320.382 290.495 320.749 290.664 321.064C290.84 321.372 291.067 321.607 291.346 321.768C291.632 321.929 291.933 322.01 292.248 322.01C292.571 322.01 292.871 321.929 293.15 321.768C293.436 321.599 293.663 321.357 293.832 321.042C294.008 320.727 294.096 320.36 294.096 319.942ZM297.25 316.136C297.023 316.136 296.832 316.059 296.678 315.905C296.524 315.751 296.447 315.56 296.447 315.333C296.447 315.106 296.524 314.915 296.678 314.761C296.832 314.607 297.023 314.53 297.25 314.53C297.47 314.53 297.657 314.607 297.811 314.761C297.965 314.915 298.042 315.106 298.042 315.333C298.042 315.56 297.965 315.751 297.811 315.905C297.657 316.059 297.47 316.136 297.25 316.136ZM297.866 316.939V323H296.612V316.939H297.866ZM299.094 319.964C299.094 319.341 299.219 318.794 299.468 318.325C299.725 317.848 300.077 317.482 300.524 317.225C300.972 316.968 301.485 316.84 302.064 316.84C302.798 316.84 303.403 317.016 303.879 317.368C304.363 317.713 304.69 318.208 304.858 318.853H303.505C303.395 318.552 303.219 318.318 302.977 318.149C302.735 317.98 302.431 317.896 302.064 317.896C301.551 317.896 301.14 318.079 300.832 318.446C300.532 318.805 300.381 319.311 300.381 319.964C300.381 320.617 300.532 321.126 300.832 321.493C301.14 321.86 301.551 322.043 302.064 322.043C302.79 322.043 303.271 321.724 303.505 321.086H304.858C304.682 321.702 304.352 322.193 303.868 322.56C303.384 322.919 302.783 323.099 302.064 323.099C301.485 323.099 300.972 322.971 300.524 322.714C300.077 322.45 299.725 322.083 299.468 321.614C299.219 321.137 299.094 320.587 299.094 319.964ZM307.571 317.962V321.317C307.571 321.544 307.622 321.709 307.725 321.812C307.835 321.907 308.018 321.955 308.275 321.955H309.045V323H308.055C307.49 323 307.058 322.868 306.757 322.604C306.456 322.34 306.306 321.911 306.306 321.317V317.962H305.591V316.939H306.306V315.432H307.571V316.939H309.045V317.962H307.571ZM315.69 316.939V323H314.436V322.285C314.238 322.534 313.977 322.732 313.655 322.879C313.339 323.018 313.002 323.088 312.643 323.088C312.166 323.088 311.737 322.989 311.356 322.791C310.982 322.593 310.685 322.3 310.465 321.911C310.252 321.522 310.146 321.053 310.146 320.503V316.939H311.389V320.316C311.389 320.859 311.524 321.277 311.796 321.57C312.067 321.856 312.437 321.999 312.907 321.999C313.376 321.999 313.746 321.856 314.018 321.57C314.296 321.277 314.436 320.859 314.436 320.316V316.939H315.69ZM318.598 317.819C318.782 317.511 319.024 317.273 319.324 317.104C319.632 316.928 319.995 316.84 320.413 316.84V318.138H320.094C319.603 318.138 319.229 318.263 318.972 318.512C318.723 318.761 318.598 319.194 318.598 319.81V323H317.344V316.939H318.598V317.819ZM327.121 319.821C327.121 320.048 327.106 320.254 327.077 320.437H322.446C322.483 320.921 322.662 321.31 322.985 321.603C323.308 321.896 323.704 322.043 324.173 322.043C324.848 322.043 325.324 321.761 325.603 321.196H326.956C326.773 321.753 326.439 322.212 325.955 322.571C325.478 322.923 324.884 323.099 324.173 323.099C323.594 323.099 323.073 322.971 322.611 322.714C322.156 322.45 321.797 322.083 321.533 321.614C321.276 321.137 321.148 320.587 321.148 319.964C321.148 319.341 321.273 318.794 321.522 318.325C321.779 317.848 322.134 317.482 322.589 317.225C323.051 316.968 323.579 316.84 324.173 316.84C324.745 316.84 325.255 316.965 325.702 317.214C326.149 317.463 326.498 317.815 326.747 318.27C326.996 318.717 327.121 319.234 327.121 319.821ZM325.812 319.425C325.805 318.963 325.64 318.593 325.317 318.314C324.994 318.035 324.595 317.896 324.118 317.896C323.685 317.896 323.315 318.035 323.007 318.314C322.699 318.585 322.516 318.956 322.457 319.425H325.812ZM330.555 323.099C330.078 323.099 329.649 323.015 329.268 322.846C328.894 322.67 328.597 322.435 328.377 322.142C328.157 321.841 328.04 321.508 328.025 321.141H329.323C329.345 321.398 329.466 321.614 329.686 321.79C329.913 321.959 330.196 322.043 330.533 322.043C330.885 322.043 331.156 321.977 331.347 321.845C331.545 321.706 331.644 321.53 331.644 321.317C331.644 321.09 331.534 320.921 331.314 320.811C331.101 320.701 330.76 320.58 330.291 320.448C329.836 320.323 329.466 320.202 329.18 320.085C328.894 319.968 328.645 319.788 328.432 319.546C328.227 319.304 328.124 318.985 328.124 318.589C328.124 318.266 328.219 317.973 328.41 317.709C328.601 317.438 328.872 317.225 329.224 317.071C329.583 316.917 329.994 316.84 330.456 316.84C331.145 316.84 331.699 317.016 332.117 317.368C332.542 317.713 332.77 318.186 332.799 318.787H331.545C331.523 318.516 331.413 318.299 331.215 318.138C331.017 317.977 330.749 317.896 330.412 317.896C330.082 317.896 329.829 317.958 329.653 318.083C329.477 318.208 329.389 318.373 329.389 318.578C329.389 318.739 329.448 318.875 329.565 318.985C329.682 319.095 329.825 319.183 329.994 319.249C330.163 319.308 330.412 319.385 330.742 319.48C331.182 319.597 331.541 319.718 331.82 319.843C332.106 319.96 332.352 320.136 332.557 320.371C332.762 320.606 332.869 320.917 332.876 321.306C332.876 321.651 332.781 321.959 332.59 322.23C332.399 322.501 332.128 322.714 331.776 322.868C331.431 323.022 331.024 323.099 330.555 323.099ZM339.717 323.099C339.145 323.099 338.628 322.971 338.166 322.714C337.704 322.45 337.341 322.083 337.077 321.614C336.813 321.137 336.681 320.587 336.681 319.964C336.681 319.348 336.817 318.802 337.088 318.325C337.36 317.848 337.73 317.482 338.199 317.225C338.669 316.968 339.193 316.84 339.772 316.84C340.352 316.84 340.876 316.968 341.345 317.225C341.815 317.482 342.185 317.848 342.456 318.325C342.728 318.802 342.863 319.348 342.863 319.964C342.863 320.58 342.724 321.126 342.445 321.603C342.167 322.08 341.785 322.45 341.301 322.714C340.825 322.971 340.297 323.099 339.717 323.099ZM339.717 322.01C340.04 322.01 340.341 321.933 340.619 321.779C340.905 321.625 341.136 321.394 341.312 321.086C341.488 320.778 341.576 320.404 341.576 319.964C341.576 319.524 341.492 319.154 341.323 318.853C341.155 318.545 340.931 318.314 340.652 318.16C340.374 318.006 340.073 317.929 339.75 317.929C339.428 317.929 339.127 318.006 338.848 318.16C338.577 318.314 338.361 318.545 338.199 318.853C338.038 319.154 337.957 319.524 337.957 319.964C337.957 320.617 338.122 321.123 338.452 321.482C338.79 321.834 339.211 322.01 339.717 322.01ZM347.161 316.84C347.638 316.84 348.063 316.939 348.437 317.137C348.818 317.335 349.115 317.628 349.328 318.017C349.541 318.406 349.647 318.875 349.647 319.425V323H348.404V319.612C348.404 319.069 348.268 318.655 347.997 318.369C347.726 318.076 347.355 317.929 346.886 317.929C346.417 317.929 346.043 318.076 345.764 318.369C345.493 318.655 345.357 319.069 345.357 319.612V323H344.103V316.939H345.357V317.632C345.562 317.383 345.823 317.188 346.138 317.049C346.461 316.91 346.802 316.84 347.161 316.84ZM359.56 316.939L355.842 325.849H354.544L355.776 322.901L353.389 316.939H354.786L356.491 321.559L358.262 316.939H359.56ZM363.135 323.099C362.563 323.099 362.046 322.971 361.584 322.714C361.122 322.45 360.759 322.083 360.495 321.614C360.231 321.137 360.099 320.587 360.099 319.964C360.099 319.348 360.235 318.802 360.506 318.325C360.778 317.848 361.148 317.482 361.617 317.225C362.087 316.968 362.611 316.84 363.19 316.84C363.77 316.84 364.294 316.968 364.763 317.225C365.233 317.482 365.603 317.848 365.874 318.325C366.146 318.802 366.281 319.348 366.281 319.964C366.281 320.58 366.142 321.126 365.863 321.603C365.585 322.08 365.203 322.45 364.719 322.714C364.243 322.971 363.715 323.099 363.135 323.099ZM363.135 322.01C363.458 322.01 363.759 321.933 364.037 321.779C364.323 321.625 364.554 321.394 364.73 321.086C364.906 320.778 364.994 320.404 364.994 319.964C364.994 319.524 364.91 319.154 364.741 318.853C364.573 318.545 364.349 318.314 364.07 318.16C363.792 318.006 363.491 317.929 363.168 317.929C362.846 317.929 362.545 318.006 362.266 318.16C361.995 318.314 361.779 318.545 361.617 318.853C361.456 319.154 361.375 319.524 361.375 319.964C361.375 320.617 361.54 321.123 361.87 321.482C362.208 321.834 362.629 322.01 363.135 322.01ZM373.01 316.939V323H371.756V322.285C371.558 322.534 371.298 322.732 370.975 322.879C370.66 323.018 370.322 323.088 369.963 323.088C369.486 323.088 369.057 322.989 368.676 322.791C368.302 322.593 368.005 322.3 367.785 321.911C367.572 321.522 367.466 321.053 367.466 320.503V316.939H368.709V320.316C368.709 320.859 368.845 321.277 369.116 321.57C369.387 321.856 369.758 321.999 370.227 321.999C370.696 321.999 371.067 321.856 371.338 321.57C371.617 321.277 371.756 320.859 371.756 320.316V316.939H373.01ZM375.919 317.819C376.102 317.511 376.344 317.273 376.645 317.104C376.953 316.928 377.316 316.84 377.734 316.84V318.138H377.415C376.923 318.138 376.549 318.263 376.293 318.512C376.043 318.761 375.919 319.194 375.919 319.81V323H374.665V316.939H375.919V317.819ZM381.326 319.942C381.326 319.333 381.45 318.794 381.7 318.325C381.956 317.856 382.301 317.493 382.734 317.236C383.174 316.972 383.661 316.84 384.197 316.84C384.593 316.84 384.981 316.928 385.363 317.104C385.751 317.273 386.059 317.5 386.287 317.786V314.86H387.552V323H386.287V322.087C386.081 322.38 385.795 322.622 385.429 322.813C385.069 323.004 384.655 323.099 384.186 323.099C383.658 323.099 383.174 322.967 382.734 322.703C382.301 322.432 381.956 322.058 381.7 321.581C381.45 321.097 381.326 320.551 381.326 319.942ZM386.287 319.964C386.287 319.546 386.199 319.183 386.023 318.875C385.854 318.567 385.63 318.332 385.352 318.171C385.073 318.01 384.772 317.929 384.45 317.929C384.127 317.929 383.826 318.01 383.548 318.171C383.269 318.325 383.042 318.556 382.866 318.864C382.697 319.165 382.613 319.524 382.613 319.942C382.613 320.36 382.697 320.727 382.866 321.042C383.042 321.357 383.269 321.599 383.548 321.768C383.834 321.929 384.134 322.01 384.45 322.01C384.772 322.01 385.073 321.929 385.352 321.768C385.63 321.607 385.854 321.372 386.023 321.064C386.199 320.749 386.287 320.382 386.287 319.964ZM394.754 319.821C394.754 320.048 394.739 320.254 394.71 320.437H390.079C390.116 320.921 390.295 321.31 390.618 321.603C390.941 321.896 391.337 322.043 391.806 322.043C392.481 322.043 392.957 321.761 393.236 321.196H394.589C394.406 321.753 394.072 322.212 393.588 322.571C393.111 322.923 392.517 323.099 391.806 323.099C391.227 323.099 390.706 322.971 390.244 322.714C389.789 322.45 389.43 322.083 389.166 321.614C388.909 321.137 388.781 320.587 388.781 319.964C388.781 319.341 388.906 318.794 389.155 318.325C389.412 317.848 389.767 317.482 390.222 317.225C390.684 316.968 391.212 316.84 391.806 316.84C392.378 316.84 392.888 316.965 393.335 317.214C393.782 317.463 394.131 317.815 394.38 318.27C394.629 318.717 394.754 319.234 394.754 319.821ZM393.445 319.425C393.438 318.963 393.273 318.593 392.95 318.314C392.627 318.035 392.228 317.896 391.751 317.896C391.318 317.896 390.948 318.035 390.64 318.314C390.332 318.585 390.149 318.956 390.09 319.425H393.445ZM398.331 321.878L400.047 316.939H401.378L399.068 323H397.572L395.273 316.939H396.615L398.331 321.878ZM402.964 316.136C402.736 316.136 402.546 316.059 402.392 315.905C402.238 315.751 402.161 315.56 402.161 315.333C402.161 315.106 402.238 314.915 402.392 314.761C402.546 314.607 402.736 314.53 402.964 314.53C403.184 314.53 403.371 314.607 403.525 314.761C403.679 314.915 403.756 315.106 403.756 315.333C403.756 315.56 403.679 315.751 403.525 315.905C403.371 316.059 403.184 316.136 402.964 316.136ZM403.58 316.939V323H402.326V316.939H403.58ZM404.808 319.964C404.808 319.341 404.933 318.794 405.182 318.325C405.439 317.848 405.791 317.482 406.238 317.225C406.686 316.968 407.199 316.84 407.778 316.84C408.512 316.84 409.117 317.016 409.593 317.368C410.077 317.713 410.404 318.208 410.572 318.853H409.219C409.109 318.552 408.933 318.318 408.691 318.149C408.449 317.98 408.145 317.896 407.778 317.896C407.265 317.896 406.854 318.079 406.546 318.446C406.246 318.805 406.095 319.311 406.095 319.964C406.095 320.617 406.246 321.126 406.546 321.493C406.854 321.86 407.265 322.043 407.778 322.043C408.504 322.043 408.985 321.724 409.219 321.086H410.572C410.396 321.702 410.066 322.193 409.582 322.56C409.098 322.919 408.497 323.099 407.778 323.099C407.199 323.099 406.686 322.971 406.238 322.714C405.791 322.45 405.439 322.083 405.182 321.614C404.933 321.137 404.808 320.587 404.808 319.964ZM417.377 319.821C417.377 320.048 417.362 320.254 417.333 320.437H412.702C412.739 320.921 412.918 321.31 413.241 321.603C413.564 321.896 413.96 322.043 414.429 322.043C415.104 322.043 415.58 321.761 415.859 321.196H417.212C417.029 321.753 416.695 322.212 416.211 322.571C415.734 322.923 415.14 323.099 414.429 323.099C413.85 323.099 413.329 322.971 412.867 322.714C412.412 322.45 412.053 322.083 411.789 321.614C411.532 321.137 411.404 320.587 411.404 319.964C411.404 319.341 411.529 318.794 411.778 318.325C412.035 317.848 412.39 317.482 412.845 317.225C413.307 316.968 413.835 316.84 414.429 316.84C415.001 316.84 415.511 316.965 415.958 317.214C416.405 317.463 416.754 317.815 417.003 318.27C417.252 318.717 417.377 319.234 417.377 319.821ZM416.068 319.425C416.061 318.963 415.896 318.593 415.573 318.314C415.25 318.035 414.851 317.896 414.374 317.896C413.941 317.896 413.571 318.035 413.263 318.314C412.955 318.585 412.772 318.956 412.713 319.425H416.068ZM422.106 316.136C421.879 316.136 421.688 316.059 421.534 315.905C421.38 315.751 421.303 315.56 421.303 315.333C421.303 315.106 421.38 314.915 421.534 314.761C421.688 314.607 421.879 314.53 422.106 314.53C422.326 314.53 422.513 314.607 422.667 314.761C422.821 314.915 422.898 315.106 422.898 315.333C422.898 315.56 422.821 315.751 422.667 315.905C422.513 316.059 422.326 316.136 422.106 316.136ZM422.722 316.939V323H421.468V316.939H422.722ZM427.427 316.84C427.903 316.84 428.329 316.939 428.703 317.137C429.084 317.335 429.381 317.628 429.594 318.017C429.806 318.406 429.913 318.875 429.913 319.425V323H428.67V319.612C428.67 319.069 428.534 318.655 428.263 318.369C427.991 318.076 427.621 317.929 427.152 317.929C426.682 317.929 426.308 318.076 426.03 318.369C425.758 318.655 425.623 319.069 425.623 319.612V323H424.369V316.939H425.623V317.632C425.828 317.383 426.088 317.188 426.404 317.049C426.726 316.91 427.067 316.84 427.427 316.84ZM436.999 323.099C436.427 323.099 435.91 322.971 435.448 322.714C434.986 322.45 434.623 322.083 434.359 321.614C434.095 321.137 433.963 320.587 433.963 319.964C433.963 319.348 434.098 318.802 434.37 318.325C434.641 317.848 435.011 317.482 435.481 317.225C435.95 316.968 436.474 316.84 437.054 316.84C437.633 316.84 438.157 316.968 438.627 317.225C439.096 317.482 439.466 317.848 439.738 318.325C440.009 318.802 440.145 319.348 440.145 319.964C440.145 320.58 440.005 321.126 439.727 321.603C439.448 322.08 439.067 322.45 438.583 322.714C438.106 322.971 437.578 323.099 436.999 323.099ZM436.999 322.01C437.321 322.01 437.622 321.933 437.901 321.779C438.187 321.625 438.418 321.394 438.594 321.086C438.77 320.778 438.858 320.404 438.858 319.964C438.858 319.524 438.773 319.154 438.605 318.853C438.436 318.545 438.212 318.314 437.934 318.16C437.655 318.006 437.354 317.929 437.032 317.929C436.709 317.929 436.408 318.006 436.13 318.16C435.858 318.314 435.642 318.545 435.481 318.853C435.319 319.154 435.239 319.524 435.239 319.964C435.239 320.617 435.404 321.123 435.734 321.482C436.071 321.834 436.493 322.01 436.999 322.01ZM444.442 316.84C444.919 316.84 445.344 316.939 445.718 317.137C446.1 317.335 446.397 317.628 446.609 318.017C446.822 318.406 446.928 318.875 446.928 319.425V323H445.685V319.612C445.685 319.069 445.55 318.655 445.278 318.369C445.007 318.076 444.637 317.929 444.167 317.929C443.698 317.929 443.324 318.076 443.045 318.369C442.774 318.655 442.638 319.069 442.638 319.612V323H441.384V316.939H442.638V317.632C442.844 317.383 443.104 317.188 443.419 317.049C443.742 316.91 444.083 316.84 444.442 316.84ZM454.083 319.821C454.083 320.048 454.068 320.254 454.039 320.437H449.408C449.445 320.921 449.624 321.31 449.947 321.603C450.27 321.896 450.666 322.043 451.135 322.043C451.81 322.043 452.286 321.761 452.565 321.196H453.918C453.735 321.753 453.401 322.212 452.917 322.571C452.44 322.923 451.846 323.099 451.135 323.099C450.556 323.099 450.035 322.971 449.573 322.714C449.118 322.45 448.759 322.083 448.495 321.614C448.238 321.137 448.11 320.587 448.11 319.964C448.11 319.341 448.235 318.794 448.484 318.325C448.741 317.848 449.096 317.482 449.551 317.225C450.013 316.968 450.541 316.84 451.135 316.84C451.707 316.84 452.217 316.965 452.664 317.214C453.111 317.463 453.46 317.815 453.709 318.27C453.958 318.717 454.083 319.234 454.083 319.821ZM452.774 319.425C452.767 318.963 452.602 318.593 452.279 318.314C451.956 318.035 451.557 317.896 451.08 317.896C450.647 317.896 450.277 318.035 449.969 318.314C449.661 318.585 449.478 318.956 449.419 319.425H452.774ZM250.155 328.83C250.367 328.551 250.657 328.317 251.024 328.126C251.39 327.935 251.805 327.84 252.267 327.84C252.795 327.84 253.275 327.972 253.708 328.236C254.148 328.493 254.492 328.856 254.742 329.325C254.991 329.794 255.116 330.333 255.116 330.942C255.116 331.551 254.991 332.097 254.742 332.581C254.492 333.058 254.148 333.432 253.708 333.703C253.275 333.967 252.795 334.099 252.267 334.099C251.805 334.099 251.394 334.007 251.035 333.824C250.675 333.633 250.382 333.399 250.155 333.12V336.882H248.901V327.939H250.155V328.83ZM253.84 330.942C253.84 330.524 253.752 330.165 253.576 329.864C253.407 329.556 253.18 329.325 252.894 329.171C252.615 329.01 252.314 328.929 251.992 328.929C251.676 328.929 251.376 329.01 251.09 329.171C250.811 329.332 250.584 329.567 250.408 329.875C250.239 330.183 250.155 330.546 250.155 330.964C250.155 331.382 250.239 331.749 250.408 332.064C250.584 332.372 250.811 332.607 251.09 332.768C251.376 332.929 251.676 333.01 251.992 333.01C252.314 333.01 252.615 332.929 252.894 332.768C253.18 332.599 253.407 332.357 253.576 332.042C253.752 331.727 253.84 331.36 253.84 330.942ZM257.61 325.86V334H256.356V325.86H257.61ZM258.838 330.942C258.838 330.333 258.963 329.794 259.212 329.325C259.469 328.856 259.813 328.493 260.246 328.236C260.686 327.972 261.17 327.84 261.698 327.84C262.175 327.84 262.589 327.935 262.941 328.126C263.3 328.309 263.586 328.54 263.799 328.819V327.939H265.064V334H263.799V333.098C263.586 333.384 263.297 333.622 262.93 333.813C262.563 334.004 262.145 334.099 261.676 334.099C261.155 334.099 260.679 333.967 260.246 333.703C259.813 333.432 259.469 333.058 259.212 332.581C258.963 332.097 258.838 331.551 258.838 330.942ZM263.799 330.964C263.799 330.546 263.711 330.183 263.535 329.875C263.366 329.567 263.143 329.332 262.864 329.171C262.585 329.01 262.285 328.929 261.962 328.929C261.639 328.929 261.339 329.01 261.06 329.171C260.781 329.325 260.554 329.556 260.378 329.864C260.209 330.165 260.125 330.524 260.125 330.942C260.125 331.36 260.209 331.727 260.378 332.042C260.554 332.357 260.781 332.599 261.06 332.768C261.346 332.929 261.647 333.01 261.962 333.01C262.285 333.01 262.585 332.929 262.864 332.768C263.143 332.607 263.366 332.372 263.535 332.064C263.711 331.749 263.799 331.382 263.799 330.964ZM266.293 330.964C266.293 330.341 266.418 329.794 266.667 329.325C266.924 328.848 267.276 328.482 267.723 328.225C268.17 327.968 268.684 327.84 269.263 327.84C269.996 327.84 270.601 328.016 271.078 328.368C271.562 328.713 271.888 329.208 272.057 329.853H270.704C270.594 329.552 270.418 329.318 270.176 329.149C269.934 328.98 269.63 328.896 269.263 328.896C268.75 328.896 268.339 329.079 268.031 329.446C267.73 329.805 267.58 330.311 267.58 330.964C267.58 331.617 267.73 332.126 268.031 332.493C268.339 332.86 268.75 333.043 269.263 333.043C269.989 333.043 270.469 332.724 270.704 332.086H272.057C271.881 332.702 271.551 333.193 271.067 333.56C270.583 333.919 269.982 334.099 269.263 334.099C268.684 334.099 268.17 333.971 267.723 333.714C267.276 333.45 266.924 333.083 266.667 332.614C266.418 332.137 266.293 331.587 266.293 330.964ZM278.862 330.821C278.862 331.048 278.847 331.254 278.818 331.437H274.187C274.223 331.921 274.403 332.31 274.726 332.603C275.048 332.896 275.444 333.043 275.914 333.043C276.588 333.043 277.065 332.761 277.344 332.196H278.697C278.513 332.753 278.18 333.212 277.696 333.571C277.219 333.923 276.625 334.099 275.914 334.099C275.334 334.099 274.814 333.971 274.352 333.714C273.897 333.45 273.538 333.083 273.274 332.614C273.017 332.137 272.889 331.587 272.889 330.964C272.889 330.341 273.013 329.794 273.263 329.325C273.519 328.848 273.875 328.482 274.33 328.225C274.792 327.968 275.32 327.84 275.914 327.84C276.486 327.84 276.995 327.965 277.443 328.214C277.89 328.463 278.238 328.815 278.488 329.27C278.737 329.717 278.862 330.234 278.862 330.821ZM277.553 330.425C277.545 329.963 277.38 329.593 277.058 329.314C276.735 329.035 276.335 328.896 275.859 328.896C275.426 328.896 275.056 329.035 274.748 329.314C274.44 329.585 274.256 329.956 274.198 330.425H277.553ZM280.602 334.077C280.374 334.077 280.184 334 280.03 333.846C279.876 333.692 279.799 333.501 279.799 333.274C279.799 333.047 279.876 332.856 280.03 332.702C280.184 332.548 280.374 332.471 280.602 332.471C280.822 332.471 281.009 332.548 281.163 332.702C281.317 332.856 281.394 333.047 281.394 333.274C281.394 333.501 281.317 333.692 281.163 333.846C281.009 334 280.822 334.077 280.602 334.077Z"></path>
<defs>
<linearGradient gradientUnits="userSpaceOnUse" y2="190" x2="126.4" y1="172.4" x1="102.4" id="paint0_linear_930_2">
<stop stop-color="#188EDB"></stop>
<stop stop-color="#7D5AB6" offset="1"></stop>
</linearGradient>
<linearGradient gradientUnits="userSpaceOnUse" y2="196.4" x2="123.2" y1="188.4" x1="115.2" id="paint1_linear_930_2">
<stop stop-color="#037AD2"></stop>
<stop stop-color="#2C9EE2" offset="1"></stop>
</linearGradient>
<linearGradient gradientUnits="userSpaceOnUse" y2="190" x2="112" y1="183.6" x1="105.6" id="paint2_linear_930_2">
<stop stop-color="#4DDDFB"></stop>
<stop stop-color="#2AB2EB" offset="1"></stop>
</linearGradient>
<linearGradient gradientUnits="userSpaceOnUse" y2="204.4" x2="134.401" y1="188.4" x1="118.401" id="paint3_linear_930_2">
<stop stop-color="#4C4C4C"></stop>
<stop stop-color="#242424" offset="1"></stop>
</linearGradient>
<linearGradient gradientUnits="userSpaceOnUse" y2="205.2" x2="135.201" y1="187.6" x1="117.601" id="paint4_linear_930_2">
<stop stop-color="#FC914C"></stop>
<stop stop-color="#8D63BE" offset="1"></stop>
</linearGradient>
</defs>
</svg>
