<svg xmlns="http://www.w3.org/2000/svg" fill="none" viewBox="0 0 480 360" height="360" width="480">
<rect fill-opacity="0.05" fill="#D9D9D9" rx="5" height="36" width="36" y="7" x="100"></rect>
<rect stroke="#333333" rx="7" height="14" width="14" y="17.5" x="110.5"></rect>
<path stroke-linecap="round" stroke="#0076B3" d="M114.5 24.5H117.5M120.5 24.5H117.5M117.5 24.5V27.5V21.5V24.5Z"></path>
<rect fill-opacity="0.05" fill="#D9D9D9" rx="5" height="36" width="36" y="7" x="146"></rect>
<path stroke-linejoin="round" stroke-linecap="round" stroke="#333333" d="M163.5 19.5V19.5C163.5 18.3954 162.605 17.5 161.5 17.5H158.5C157.395 17.5 156.5 18.3954 156.5 19.5V20.5M163.5 19.5H169.5C170.605 19.5 171.5 20.3954 171.5 21.5V23M163.5 19.5V19.5C163.5 20.0523 163.052 20.5 162.5 20.5H156.5M156.5 20.5V28.5C156.5 29.6046 157.395 30.5 158.5 30.5H169.5C170.605 30.5 171.5 29.6046 171.5 28.5V28"></path>
<path stroke-linecap="round" stroke="#0076B3" d="M164.5 25.5H171.5M171.5 25.5L168.5 22.5M171.5 25.5L168.5 28.5"></path>
<rect fill-opacity="0.05" fill="black" rx="5" height="36" width="36" y="7" x="192"></rect>
<path stroke-linecap="round" stroke="#0076B3" d="M217.5 27.5L210.5 27.5M210.5 27.5L213.5 30.5M210.5 27.5L213.5 24.5"></path>
<path stroke-linejoin="round" stroke-linecap="round" stroke="#333333" d="M205.5 32.5H205C203.619 32.5 202.5 31.3807 202.5 30V20C202.5 18.6193 203.619 17.5 205 17.5H205.5M205.5 32.5H214.5H215C216.381 32.5 217.5 31.3807 217.5 30V29.5M205.5 32.5V27.5C205.5 26.9477 205.948 26.5 206.5 26.5H209M205.5 17.5H213.5M205.5 17.5V21.5C205.5 22.0523 205.948 22.5 206.5 22.5H212.5C213.052 22.5 213.5 22.0523 213.5 21.5V17.5M213.5 17.5V17.5C213.82 17.5 214.127 17.6272 214.354 17.8536L217.146 20.6464C217.373 20.8728 217.5 21.1799 217.5 21.5V21.5V25.5M211.5 20.5V19.5"></path>
</svg>
