<svg xmlns="http://www.w3.org/2000/svg" fill="none" viewBox="0 0 480 360" height="360" width="480">
<rect fill-opacity="0.05" fill="#D9D9D9" rx="5" height="36" width="66" y="50" x="279"></rect>
<path fill="black" d="M317.344 72.077C316.831 72.077 316.369 71.989 315.958 71.813C315.547 71.6297 315.225 71.373 314.99 71.043C314.755 70.713 314.638 70.328 314.638 69.888H315.98C316.009 70.218 316.138 70.4893 316.365 70.702C316.6 70.9147 316.926 71.021 317.344 71.021C317.777 71.021 318.114 70.9183 318.356 70.713C318.598 70.5003 318.719 70.229 318.719 69.899C318.719 69.6423 318.642 69.4333 318.488 69.272C318.341 69.1107 318.154 68.986 317.927 68.898C317.707 68.81 317.399 68.7147 317.003 68.612C316.504 68.48 316.097 68.348 315.782 68.216C315.474 68.0767 315.21 67.864 314.99 67.578C314.77 67.292 314.66 66.9107 314.66 66.434C314.66 65.994 314.77 65.609 314.99 65.279C315.21 64.949 315.518 64.696 315.914 64.52C316.31 64.344 316.768 64.256 317.289 64.256C318.03 64.256 318.635 64.443 319.104 64.817C319.581 65.1837 319.845 65.6897 319.896 66.335H318.51C318.488 66.0563 318.356 65.818 318.114 65.62C317.872 65.422 317.553 65.323 317.157 65.323C316.798 65.323 316.504 65.4147 316.277 65.598C316.05 65.7813 315.936 66.0453 315.936 66.39C315.936 66.6247 316.006 66.819 316.145 66.973C316.292 67.1197 316.475 67.237 316.695 67.325C316.915 67.413 317.216 67.5083 317.597 67.611C318.103 67.7503 318.514 67.8897 318.829 68.029C319.152 68.1683 319.423 68.3847 319.643 68.678C319.87 68.964 319.984 69.349 319.984 69.833C319.984 70.2217 319.878 70.5883 319.665 70.933C319.46 71.2777 319.155 71.5563 318.752 71.769C318.356 71.9743 317.887 72.077 317.344 72.077ZM322.102 65.136C321.874 65.136 321.684 65.059 321.53 64.905C321.376 64.751 321.299 64.5603 321.299 64.333C321.299 64.1057 321.376 63.915 321.53 63.761C321.684 63.607 321.874 63.53 322.102 63.53C322.322 63.53 322.509 63.607 322.663 63.761C322.817 63.915 322.894 64.1057 322.894 64.333C322.894 64.5603 322.817 64.751 322.663 64.905C322.509 65.059 322.322 65.136 322.102 65.136ZM322.718 65.939V72H321.464V65.939H322.718ZM325.475 70.977H328.225V72H324.023V70.977L326.784 66.962H324.023V65.939H328.225V66.962L325.475 70.977ZM335.097 68.821C335.097 69.0483 335.082 69.2537 335.053 69.437H330.422C330.458 69.921 330.638 70.3097 330.961 70.603C331.283 70.8963 331.679 71.043 332.149 71.043C332.823 71.043 333.3 70.7607 333.579 70.196H334.932C334.748 70.7533 334.415 71.2117 333.931 71.571C333.454 71.923 332.86 72.099 332.149 72.099C331.569 72.099 331.049 71.9707 330.587 71.714C330.132 71.45 329.773 71.0833 329.509 70.614C329.252 70.1373 329.124 69.5873 329.124 68.964C329.124 68.3407 329.248 67.7943 329.498 67.325C329.754 66.8483 330.11 66.4817 330.565 66.225C331.027 65.9683 331.555 65.84 332.149 65.84C332.721 65.84 333.23 65.9647 333.678 66.214C334.125 66.4633 334.473 66.8153 334.723 67.27C334.972 67.7173 335.097 68.2343 335.097 68.821ZM333.788 68.425C333.78 67.963 333.615 67.5927 333.293 67.314C332.97 67.0353 332.57 66.896 332.094 66.896C331.661 66.896 331.291 67.0353 330.983 67.314C330.675 67.5853 330.491 67.9557 330.433 68.425H333.788Z"></path>
</svg>
