<svg xmlns="http://www.w3.org/2000/svg" fill="none" viewBox="0 0 504 384" height="384" width="504">
<path fill="#1A1A1A" d="M2 12C2 6.47716 6.47715 2 12 2L492 2C497.523 2 502 6.47715 502 12L502 372C502 377.523 497.523 382 492 382L12 382C6.47713 382 1.99999 377.523 1.99999 372L2 12Z"></path>
<path stroke-width="2" stroke-opacity="0.2" stroke="white" d="M12 1C5.92487 1 1 5.92488 1 12L0.999985 372C0.999985 378.075 5.92484 383 12 383L492 383C498.075 383 503 378.075 503 372L503 12C503 5.92487 498.075 1 492 1L12 1Z"></path>
<path fill="#FF8067" d="M250.354 236.357V233.071L247.06 234.714L243.766 233.071V229.785L256.942 223.214V213.357L260.236 215L263.53 213.357V223.214L270.118 226.5V229.785L253.648 238L250.354 236.357Z"></path>
<path fill="#FF8067" d="M233.883 228.143V224.857L230.589 226.5L227.295 224.857V221.571L240.471 215V205.143L243.766 206.785L247.06 205.143V215L253.648 218.285V221.571L237.177 229.785L233.883 228.143Z"></path>
<path fill="#FF956F" d="M227.295 221.571L230.589 223.214V226.5L227.295 224.857V221.571Z"></path>
<path fill="#FF956F" d="M233.883 224.857L237.177 226.5V229.785L233.883 228.143V224.857Z"></path>
<path fill="#FF956F" d="M243.766 229.785L247.06 231.428V234.714L243.766 233.071V229.785Z"></path>
<path fill="#FF956F" d="M250.354 233.071L253.648 234.714V238L250.354 236.357V233.071Z"></path>
<path fill="#FF956F" d="M237.177 219.928L240.471 221.571L237.177 223.214V219.928Z"></path>
<path fill="#FF956F" d="M253.648 228.143L256.942 229.785L253.648 231.428V228.143Z"></path>
<path fill="#FF956F" d="M256.942 213.357L260.236 215V228.143L256.942 226.5V213.357Z"></path>
<path fill="#FF956F" d="M240.471 205.143L243.766 206.785V219.928L240.471 218.285V205.143Z"></path>
<path fill="#EC5957" d="M237.176 219.928L230.588 223.214V226.499L237.176 223.214V219.928Z"></path>
<path fill="#EC5957" d="M253.647 218.285L237.176 226.499V229.785L253.647 221.571V218.285Z"></path>
<path fill="#EC5957" d="M253.647 228.142L247.058 231.428V234.714L253.647 231.428V228.142Z"></path>
<path fill="#EC5957" d="M270.117 226.499L253.647 234.714V237.999L270.117 229.785V226.499Z"></path>
<path fill="#EC5957" d="M263.529 213.357L260.235 214.999V228.142L263.529 226.499V213.357Z"></path>
<path fill="#EC5957" d="M247.058 205.143L243.764 206.785V219.928L247.058 218.285V205.143Z"></path>
<path fill="white" d="M227.295 211.715V159.144L250.354 147.644L270.118 157.501V177.215L280.001 182.144V208.429L260.236 218.286L256.942 216.644L247.06 221.572L227.295 211.715Z"></path>
<path fill="#F5E4EE" d="M247.059 169L270.117 157.5V190.357L280 185.429L276.706 183.786L280 182.143V208.429L260.235 218.286V205.143L280 195.286L273.412 192L253.647 201.857V215L256.941 216.643L247.059 221.571V169Z"></path>
<path fill="#FF5D94" d="M237.177 160.786V152.571L250.354 146L256.942 149.286V157.5L243.766 164.071L237.177 160.786Z"></path>
<path fill="#FF5D94" d="M227.295 190.357V182.143L233.883 178.857L240.471 182.143V190.357L233.883 193.643L227.295 190.357Z"></path>
<path fill="#FF6EA5" d="M243.766 155.857L237.177 152.571V160.786L243.766 164.071V155.857Z"></path>
<path fill="#FF6EA5" d="M233.883 185.428L227.295 182.143V190.357L233.883 193.643V185.428Z"></path>
<path fill="#FF8067" d="M224 183.785V175.571L233.882 170.643L240.471 173.928V182.143L230.588 187.071L224 183.785Z"></path>
<path fill="#EC5957" d="M240.47 173.929L230.588 178.857L230.588 187.072L240.47 182.143L240.47 173.929Z"></path>
<path fill="#FF956F" d="M224 175.572L230.589 178.858L230.589 187.072L224 183.787L224 175.572Z"></path>
<path fill="#E53C75" d="M243.765 155.857L256.942 149.285V157.499L243.765 164.071V155.857Z"></path>
<path fill="#E53C75" d="M233.883 185.428L240.471 182.142V190.357L233.883 193.642V185.428Z"></path>
<path fill="#2F0020" d="M253.646 173.928L256.941 172.285V175.571L253.646 177.214V173.928Z"></path>
</svg>
