<svg version="1.1" xmlns="http://www.w3.org/2000/svg" xmlns:xlink="http://www.w3.org/1999/xlink" width="40" height="20" viewBox="0,0,40,20"><g transform="translate(-220,-167)"><g data-paper-data="{&quot;isPaintingLayer&quot;:true}" fill-rule="nonzero" stroke="none" stroke-width="1" stroke-linecap="butt" stroke-linejoin="miter" stroke-miterlimit="10" stroke-dasharray="" stroke-dashoffset="0" style="mix-blend-mode: normal"><path d="M220,187v-20h40v20z" fill="none"></path><path d="M244.32,173.28c0.504,0 0.952,0.108 1.344,0.324c0.4,0.216 0.712,0.536 0.936,0.96c0.232,0.424 0.348,0.936 0.348,1.536v3.9h-1.356v-3.696c0,-0.592 -0.148,-1.044 -0.444,-1.356c-0.296,-0.32 -0.7,-0.48 -1.212,-0.48c-0.512,0 -0.92,0.16 -1.224,0.48c-0.296,0.312 -0.444,0.764 -0.444,1.356v3.696h-1.368v-8.88h1.368v3.036c0.232,-0.28 0.524,-0.496 0.876,-0.648c0.36,-0.152 0.752,-0.228 1.176,-0.228z" fill="#ff0000"></path></g></g></svg>