<svg xmlns="http://www.w3.org/2000/svg" fill="none" viewBox="0 0 480 360" height="360" width="480">
<rect fill-opacity="0.05" fill="black" rx="5" height="36" width="140" y="50" x="175"></rect>
<path fill="black" d="M212.079 65.367V67.611H214.719V68.634H212.079V70.977H215.049V72H210.825V64.344H215.049V65.367H212.079ZM219.19 68.931L221.148 72H219.729L218.42 69.943L217.188 72H215.879L217.837 69.019L215.879 65.939H217.298L218.607 67.996L219.839 65.939H221.148L219.19 68.931ZM223.337 66.83C223.549 66.5513 223.839 66.3167 224.206 66.126C224.572 65.9353 224.987 65.84 225.449 65.84C225.977 65.84 226.457 65.972 226.89 66.236C227.33 66.4927 227.674 66.8557 227.924 67.325C228.173 67.7943 228.298 68.3333 228.298 68.942C228.298 69.5507 228.173 70.097 227.924 70.581C227.674 71.0577 227.33 71.4317 226.89 71.703C226.457 71.967 225.977 72.099 225.449 72.099C224.987 72.099 224.576 72.0073 224.217 71.824C223.857 71.6333 223.564 71.3987 223.337 71.12V74.882H222.083V65.939H223.337V66.83ZM227.022 68.942C227.022 68.524 226.934 68.1647 226.758 67.864C226.589 67.556 226.362 67.325 226.076 67.171C225.797 67.0097 225.496 66.929 225.174 66.929C224.858 66.929 224.558 67.0097 224.272 67.171C223.993 67.3323 223.766 67.567 223.59 67.875C223.421 68.183 223.337 68.546 223.337 68.964C223.337 69.382 223.421 69.7487 223.59 70.064C223.766 70.372 223.993 70.6067 224.272 70.768C224.558 70.9293 224.858 71.01 225.174 71.01C225.496 71.01 225.797 70.9293 226.076 70.768C226.362 70.5993 226.589 70.3573 226.758 70.042C226.934 69.7267 227.022 69.36 227.022 68.942ZM232.167 72.099C231.595 72.099 231.078 71.9707 230.616 71.714C230.154 71.45 229.791 71.0833 229.527 70.614C229.263 70.1373 229.131 69.5873 229.131 68.964C229.131 68.348 229.267 67.8017 229.538 67.325C229.809 66.8483 230.18 66.4817 230.649 66.225C231.118 65.9683 231.643 65.84 232.222 65.84C232.801 65.84 233.326 65.9683 233.795 66.225C234.264 66.4817 234.635 66.8483 234.906 67.325C235.177 67.8017 235.313 68.348 235.313 68.964C235.313 69.58 235.174 70.1263 234.895 70.603C234.616 71.0797 234.235 71.45 233.751 71.714C233.274 71.9707 232.746 72.099 232.167 72.099ZM232.167 71.01C232.49 71.01 232.79 70.933 233.069 70.779C233.355 70.625 233.586 70.394 233.762 70.086C233.938 69.778 234.026 69.404 234.026 68.964C234.026 68.524 233.942 68.1537 233.773 67.853C233.604 67.545 233.381 67.314 233.102 67.16C232.823 67.006 232.523 66.929 232.2 66.929C231.877 66.929 231.577 67.006 231.298 67.16C231.027 67.314 230.81 67.545 230.649 67.853C230.488 68.1537 230.407 68.524 230.407 68.964C230.407 69.6167 230.572 70.1227 230.902 70.482C231.239 70.834 231.661 71.01 232.167 71.01ZM237.807 66.819C237.99 66.511 238.232 66.2727 238.533 66.104C238.841 65.928 239.204 65.84 239.622 65.84V67.138H239.303C238.811 67.138 238.437 67.2627 238.181 67.512C237.931 67.7613 237.807 68.194 237.807 68.81V72H236.553V65.939H237.807V66.819ZM242.237 66.962V70.317C242.237 70.5443 242.289 70.7093 242.391 70.812C242.501 70.9073 242.685 70.955 242.941 70.955H243.711V72H242.721C242.157 72 241.724 71.868 241.423 71.604C241.123 71.34 240.972 70.911 240.972 70.317V66.962H240.257V65.939H240.972V64.432H242.237V65.939H243.711V66.962H242.237ZM253.18 65.939L249.462 74.849H248.164L249.396 71.901L247.009 65.939H248.406L250.111 70.559L251.882 65.939H253.18ZM256.756 72.099C256.184 72.099 255.667 71.9707 255.205 71.714C254.743 71.45 254.38 71.0833 254.116 70.614C253.852 70.1373 253.72 69.5873 253.72 68.964C253.72 68.348 253.855 67.8017 254.127 67.325C254.398 66.8483 254.768 66.4817 255.238 66.225C255.707 65.9683 256.231 65.84 256.811 65.84C257.39 65.84 257.914 65.9683 258.384 66.225C258.853 66.4817 259.223 66.8483 259.495 67.325C259.766 67.8017 259.902 68.348 259.902 68.964C259.902 69.58 259.762 70.1263 259.484 70.603C259.205 71.0797 258.824 71.45 258.34 71.714C257.863 71.9707 257.335 72.099 256.756 72.099ZM256.756 71.01C257.078 71.01 257.379 70.933 257.658 70.779C257.944 70.625 258.175 70.394 258.351 70.086C258.527 69.778 258.615 69.404 258.615 68.964C258.615 68.524 258.53 68.1537 258.362 67.853C258.193 67.545 257.969 67.314 257.691 67.16C257.412 67.006 257.111 66.929 256.789 66.929C256.466 66.929 256.165 67.006 255.887 67.16C255.615 67.314 255.399 67.545 255.238 67.853C255.076 68.1537 254.996 68.524 254.996 68.964C254.996 69.6167 255.161 70.1227 255.491 70.482C255.828 70.834 256.25 71.01 256.756 71.01ZM266.63 65.939V72H265.376V71.285C265.178 71.5343 264.918 71.7323 264.595 71.879C264.28 72.0183 263.943 72.088 263.583 72.088C263.107 72.088 262.678 71.989 262.296 71.791C261.922 71.593 261.625 71.2997 261.405 70.911C261.193 70.5223 261.086 70.053 261.086 69.503V65.939H262.329V69.316C262.329 69.8587 262.465 70.2767 262.736 70.57C263.008 70.856 263.378 70.999 263.847 70.999C264.317 70.999 264.687 70.856 264.958 70.57C265.237 70.2767 265.376 69.8587 265.376 69.316V65.939H266.63ZM269.539 66.819C269.722 66.511 269.964 66.2727 270.265 66.104C270.573 65.928 270.936 65.84 271.354 65.84V67.138H271.035C270.544 67.138 270.17 67.2627 269.913 67.512C269.664 67.7613 269.539 68.194 269.539 68.81V72H268.285V65.939H269.539V66.819ZM274.946 68.942C274.946 68.3333 275.071 67.7943 275.32 67.325C275.577 66.8557 275.921 66.4927 276.354 66.236C276.794 65.972 277.282 65.84 277.817 65.84C278.213 65.84 278.602 65.928 278.983 66.104C279.372 66.2727 279.68 66.5 279.907 66.786V63.86H281.172V72H279.907V71.087C279.702 71.3803 279.416 71.6223 279.049 71.813C278.69 72.0037 278.275 72.099 277.806 72.099C277.278 72.099 276.794 71.967 276.354 71.703C275.921 71.4317 275.577 71.0577 275.32 70.581C275.071 70.097 274.946 69.5507 274.946 68.942ZM279.907 68.964C279.907 68.546 279.819 68.183 279.643 67.875C279.474 67.567 279.251 67.3323 278.972 67.171C278.693 67.0097 278.393 66.929 278.07 66.929C277.747 66.929 277.447 67.0097 277.168 67.171C276.889 67.325 276.662 67.556 276.486 67.864C276.317 68.1647 276.233 68.524 276.233 68.942C276.233 69.36 276.317 69.7267 276.486 70.042C276.662 70.3573 276.889 70.5993 277.168 70.768C277.454 70.9293 277.755 71.01 278.07 71.01C278.393 71.01 278.693 70.9293 278.972 70.768C279.251 70.6067 279.474 70.372 279.643 70.064C279.819 69.7487 279.907 69.382 279.907 68.964ZM282.401 68.942C282.401 68.3333 282.526 67.7943 282.775 67.325C283.032 66.8557 283.376 66.4927 283.809 66.236C284.249 65.972 284.733 65.84 285.261 65.84C285.738 65.84 286.152 65.9353 286.504 66.126C286.863 66.3093 287.149 66.5403 287.362 66.819V65.939H288.627V72H287.362V71.098C287.149 71.384 286.86 71.6223 286.493 71.813C286.126 72.0037 285.708 72.099 285.239 72.099C284.718 72.099 284.242 71.967 283.809 71.703C283.376 71.4317 283.032 71.0577 282.775 70.581C282.526 70.097 282.401 69.5507 282.401 68.942ZM287.362 68.964C287.362 68.546 287.274 68.183 287.098 67.875C286.929 67.567 286.706 67.3323 286.427 67.171C286.148 67.0097 285.848 66.929 285.525 66.929C285.202 66.929 284.902 67.0097 284.623 67.171C284.344 67.325 284.117 67.556 283.941 67.864C283.772 68.1647 283.688 68.524 283.688 68.942C283.688 69.36 283.772 69.7267 283.941 70.042C284.117 70.3573 284.344 70.5993 284.623 70.768C284.909 70.9293 285.21 71.01 285.525 71.01C285.848 71.01 286.148 70.9293 286.427 70.768C286.706 70.6067 286.929 70.372 287.098 70.064C287.274 69.7487 287.362 69.382 287.362 68.964ZM291.737 66.962V70.317C291.737 70.5443 291.789 70.7093 291.891 70.812C292.001 70.9073 292.185 70.955 292.441 70.955H293.211V72H292.221C291.657 72 291.224 71.868 290.923 71.604C290.623 71.34 290.472 70.911 290.472 70.317V66.962H289.757V65.939H290.472V64.432H291.737V65.939H293.211V66.962H291.737ZM293.949 68.942C293.949 68.3333 294.074 67.7943 294.323 67.325C294.58 66.8557 294.924 66.4927 295.357 66.236C295.797 65.972 296.281 65.84 296.809 65.84C297.286 65.84 297.7 65.9353 298.052 66.126C298.411 66.3093 298.697 66.5403 298.91 66.819V65.939H300.175V72H298.91V71.098C298.697 71.384 298.408 71.6223 298.041 71.813C297.674 72.0037 297.256 72.099 296.787 72.099C296.266 72.099 295.79 71.967 295.357 71.703C294.924 71.4317 294.58 71.0577 294.323 70.581C294.074 70.097 293.949 69.5507 293.949 68.942ZM298.91 68.964C298.91 68.546 298.822 68.183 298.646 67.875C298.477 67.567 298.254 67.3323 297.975 67.171C297.696 67.0097 297.396 66.929 297.073 66.929C296.75 66.929 296.45 67.0097 296.171 67.171C295.892 67.325 295.665 67.556 295.489 67.864C295.32 68.1647 295.236 68.524 295.236 68.942C295.236 69.36 295.32 69.7267 295.489 70.042C295.665 70.3573 295.892 70.5993 296.171 70.768C296.457 70.9293 296.758 71.01 297.073 71.01C297.396 71.01 297.696 70.9293 297.975 70.768C298.254 70.6067 298.477 70.372 298.646 70.064C298.822 69.7487 298.91 69.382 298.91 68.964Z"></path>
<path stroke-linejoin="round" stroke-linecap="round" stroke="#333333" d="M191.5 67.5H187.5C185.843 67.5 184.5 68.8431 184.5 70.5V71.5C184.5 73.1569 185.843 74.5 187.5 74.5H196.5C198.157 74.5 199.5 73.1569 199.5 71.5V70.5C199.5 68.8431 198.157 67.5 196.5 67.5H195.5"></path>
<path stroke-linecap="round" stroke="#0076B3" d="M193.5 68.5L193.5 61.5M193.5 61.5L190.5 64.5M193.5 61.5L196.5 64.5"></path>
<rect fill="#333333" rx="1" height="2" width="2" y="70" x="187"></rect>
<rect fill-opacity="0.05" fill="#CCCCCC" rx="5" height="36" width="140" y="50" x="325"></rect>
<path fill="black" d="M362.079 64.355V72H360.825V64.355H362.079ZM371.062 65.84C371.539 65.84 371.964 65.939 372.338 66.137C372.72 66.335 373.017 66.6283 373.229 67.017C373.449 67.4057 373.559 67.875 373.559 68.425V72H372.316V68.612C372.316 68.0693 372.181 67.655 371.909 67.369C371.638 67.0757 371.268 66.929 370.798 66.929C370.329 66.929 369.955 67.0757 369.676 67.369C369.405 67.655 369.269 68.0693 369.269 68.612V72H368.026V68.612C368.026 68.0693 367.891 67.655 367.619 67.369C367.348 67.0757 366.978 66.929 366.508 66.929C366.039 66.929 365.665 67.0757 365.386 67.369C365.115 67.655 364.979 68.0693 364.979 68.612V72H363.725V65.939H364.979V66.632C365.185 66.3827 365.445 66.1883 365.76 66.049C366.076 65.9097 366.413 65.84 366.772 65.84C367.256 65.84 367.689 65.9427 368.07 66.148C368.452 66.3533 368.745 66.6503 368.95 67.039C369.134 66.6723 369.42 66.3827 369.808 66.17C370.197 65.95 370.615 65.84 371.062 65.84ZM376.409 66.83C376.622 66.5513 376.911 66.3167 377.278 66.126C377.645 65.9353 378.059 65.84 378.521 65.84C379.049 65.84 379.529 65.972 379.962 66.236C380.402 66.4927 380.747 66.8557 380.996 67.325C381.245 67.7943 381.37 68.3333 381.37 68.942C381.37 69.5507 381.245 70.097 380.996 70.581C380.747 71.0577 380.402 71.4317 379.962 71.703C379.529 71.967 379.049 72.099 378.521 72.099C378.059 72.099 377.648 72.0073 377.289 71.824C376.93 71.6333 376.636 71.3987 376.409 71.12V74.882H375.155V65.939H376.409V66.83ZM380.094 68.942C380.094 68.524 380.006 68.1647 379.83 67.864C379.661 67.556 379.434 67.325 379.148 67.171C378.869 67.0097 378.569 66.929 378.246 66.929C377.931 66.929 377.63 67.0097 377.344 67.171C377.065 67.3323 376.838 67.567 376.662 67.875C376.493 68.183 376.409 68.546 376.409 68.964C376.409 69.382 376.493 69.7487 376.662 70.064C376.838 70.372 377.065 70.6067 377.344 70.768C377.63 70.9293 377.931 71.01 378.246 71.01C378.569 71.01 378.869 70.9293 379.148 70.768C379.434 70.5993 379.661 70.3573 379.83 70.042C380.006 69.7267 380.094 69.36 380.094 68.942ZM385.239 72.099C384.667 72.099 384.15 71.9707 383.688 71.714C383.226 71.45 382.863 71.0833 382.599 70.614C382.335 70.1373 382.203 69.5873 382.203 68.964C382.203 68.348 382.339 67.8017 382.61 67.325C382.881 66.8483 383.252 66.4817 383.721 66.225C384.19 65.9683 384.715 65.84 385.294 65.84C385.873 65.84 386.398 65.9683 386.867 66.225C387.336 66.4817 387.707 66.8483 387.978 67.325C388.249 67.8017 388.385 68.348 388.385 68.964C388.385 69.58 388.246 70.1263 387.967 70.603C387.688 71.0797 387.307 71.45 386.823 71.714C386.346 71.9707 385.818 72.099 385.239 72.099ZM385.239 71.01C385.562 71.01 385.862 70.933 386.141 70.779C386.427 70.625 386.658 70.394 386.834 70.086C387.01 69.778 387.098 69.404 387.098 68.964C387.098 68.524 387.014 68.1537 386.845 67.853C386.676 67.545 386.453 67.314 386.174 67.16C385.895 67.006 385.595 66.929 385.272 66.929C384.949 66.929 384.649 67.006 384.37 67.16C384.099 67.314 383.882 67.545 383.721 67.853C383.56 68.1537 383.479 68.524 383.479 68.964C383.479 69.6167 383.644 70.1227 383.974 70.482C384.311 70.834 384.733 71.01 385.239 71.01ZM390.879 66.819C391.062 66.511 391.304 66.2727 391.605 66.104C391.913 65.928 392.276 65.84 392.694 65.84V67.138H392.375C391.883 67.138 391.509 67.2627 391.253 67.512C391.003 67.7613 390.879 68.194 390.879 68.81V72H389.625V65.939H390.879V66.819ZM395.309 66.962V70.317C395.309 70.5443 395.361 70.7093 395.463 70.812C395.573 70.9073 395.757 70.955 396.013 70.955H396.783V72H395.793C395.229 72 394.796 71.868 394.495 71.604C394.195 71.34 394.044 70.911 394.044 70.317V66.962H393.329V65.939H394.044V64.432H395.309V65.939H396.783V66.962H395.309ZM406.253 65.939L402.535 74.849H401.237L402.469 71.901L400.082 65.939H401.479L403.184 70.559L404.955 65.939H406.253ZM409.828 72.099C409.256 72.099 408.739 71.9707 408.277 71.714C407.815 71.45 407.452 71.0833 407.188 70.614C406.924 70.1373 406.792 69.5873 406.792 68.964C406.792 68.348 406.928 67.8017 407.199 67.325C407.47 66.8483 407.841 66.4817 408.31 66.225C408.779 65.9683 409.304 65.84 409.883 65.84C410.462 65.84 410.987 65.9683 411.456 66.225C411.925 66.4817 412.296 66.8483 412.567 67.325C412.838 67.8017 412.974 68.348 412.974 68.964C412.974 69.58 412.835 70.1263 412.556 70.603C412.277 71.0797 411.896 71.45 411.412 71.714C410.935 71.9707 410.407 72.099 409.828 72.099ZM409.828 71.01C410.151 71.01 410.451 70.933 410.73 70.779C411.016 70.625 411.247 70.394 411.423 70.086C411.599 69.778 411.687 69.404 411.687 68.964C411.687 68.524 411.603 68.1537 411.434 67.853C411.265 67.545 411.042 67.314 410.763 67.16C410.484 67.006 410.184 66.929 409.861 66.929C409.538 66.929 409.238 67.006 408.959 67.16C408.688 67.314 408.471 67.545 408.31 67.853C408.149 68.1537 408.068 68.524 408.068 68.964C408.068 69.6167 408.233 70.1227 408.563 70.482C408.9 70.834 409.322 71.01 409.828 71.01ZM419.703 65.939V72H418.449V71.285C418.251 71.5343 417.99 71.7323 417.668 71.879C417.352 72.0183 417.015 72.088 416.656 72.088C416.179 72.088 415.75 71.989 415.369 71.791C414.995 71.593 414.698 71.2997 414.478 70.911C414.265 70.5223 414.159 70.053 414.159 69.503V65.939H415.402V69.316C415.402 69.8587 415.537 70.2767 415.809 70.57C416.08 70.856 416.45 70.999 416.92 70.999C417.389 70.999 417.759 70.856 418.031 70.57C418.309 70.2767 418.449 69.8587 418.449 69.316V65.939H419.703ZM422.611 66.819C422.795 66.511 423.037 66.2727 423.337 66.104C423.645 65.928 424.008 65.84 424.426 65.84V67.138H424.107C423.616 67.138 423.242 67.2627 422.985 67.512C422.736 67.7613 422.611 68.194 422.611 68.81V72H421.357V65.939H422.611V66.819ZM428.018 68.942C428.018 68.3333 428.143 67.7943 428.392 67.325C428.649 66.8557 428.994 66.4927 429.426 66.236C429.866 65.972 430.354 65.84 430.889 65.84C431.285 65.84 431.674 65.928 432.055 66.104C432.444 66.2727 432.752 66.5 432.979 66.786V63.86H434.244V72H432.979V71.087C432.774 71.3803 432.488 71.6223 432.121 71.813C431.762 72.0037 431.348 72.099 430.878 72.099C430.35 72.099 429.866 71.967 429.426 71.703C428.994 71.4317 428.649 71.0577 428.392 70.581C428.143 70.097 428.018 69.5507 428.018 68.942ZM432.979 68.964C432.979 68.546 432.891 68.183 432.715 67.875C432.547 67.567 432.323 67.3323 432.044 67.171C431.766 67.0097 431.465 66.929 431.142 66.929C430.82 66.929 430.519 67.0097 430.24 67.171C429.962 67.325 429.734 67.556 429.558 67.864C429.39 68.1647 429.305 68.524 429.305 68.942C429.305 69.36 429.39 69.7267 429.558 70.042C429.734 70.3573 429.962 70.5993 430.24 70.768C430.526 70.9293 430.827 71.01 431.142 71.01C431.465 71.01 431.766 70.9293 432.044 70.768C432.323 70.6067 432.547 70.372 432.715 70.064C432.891 69.7487 432.979 69.382 432.979 68.964ZM435.473 68.942C435.473 68.3333 435.598 67.7943 435.847 67.325C436.104 66.8557 436.449 66.4927 436.881 66.236C437.321 65.972 437.805 65.84 438.333 65.84C438.81 65.84 439.224 65.9353 439.576 66.126C439.936 66.3093 440.222 66.5403 440.434 66.819V65.939H441.699V72H440.434V71.098C440.222 71.384 439.932 71.6223 439.565 71.813C439.199 72.0037 438.781 72.099 438.311 72.099C437.791 72.099 437.314 71.967 436.881 71.703C436.449 71.4317 436.104 71.0577 435.847 70.581C435.598 70.097 435.473 69.5507 435.473 68.942ZM440.434 68.964C440.434 68.546 440.346 68.183 440.17 67.875C440.002 67.567 439.778 67.3323 439.499 67.171C439.221 67.0097 438.92 66.929 438.597 66.929C438.275 66.929 437.974 67.0097 437.695 67.171C437.417 67.325 437.189 67.556 437.013 67.864C436.845 68.1647 436.76 68.524 436.76 68.942C436.76 69.36 436.845 69.7267 437.013 70.042C437.189 70.3573 437.417 70.5993 437.695 70.768C437.981 70.9293 438.282 71.01 438.597 71.01C438.92 71.01 439.221 70.9293 439.499 70.768C439.778 70.6067 440.002 70.372 440.17 70.064C440.346 69.7487 440.434 69.382 440.434 68.964ZM444.809 66.962V70.317C444.809 70.5443 444.861 70.7093 444.963 70.812C445.073 70.9073 445.257 70.955 445.513 70.955H446.283V72H445.293C444.729 72 444.296 71.868 443.995 71.604C443.695 71.34 443.544 70.911 443.544 70.317V66.962H442.829V65.939H443.544V64.432H444.809V65.939H446.283V66.962H444.809ZM447.021 68.942C447.021 68.3333 447.146 67.7943 447.395 67.325C447.652 66.8557 447.997 66.4927 448.429 66.236C448.869 65.972 449.353 65.84 449.881 65.84C450.358 65.84 450.772 65.9353 451.124 66.126C451.484 66.3093 451.77 66.5403 451.982 66.819V65.939H453.247V72H451.982V71.098C451.77 71.384 451.48 71.6223 451.113 71.813C450.747 72.0037 450.329 72.099 449.859 72.099C449.339 72.099 448.862 71.967 448.429 71.703C447.997 71.4317 447.652 71.0577 447.395 70.581C447.146 70.097 447.021 69.5507 447.021 68.942ZM451.982 68.964C451.982 68.546 451.894 68.183 451.718 67.875C451.55 67.567 451.326 67.3323 451.047 67.171C450.769 67.0097 450.468 66.929 450.145 66.929C449.823 66.929 449.522 67.0097 449.243 67.171C448.965 67.325 448.737 67.556 448.561 67.864C448.393 68.1647 448.308 68.524 448.308 68.942C448.308 69.36 448.393 69.7267 448.561 70.042C448.737 70.3573 448.965 70.5993 449.243 70.768C449.529 70.9293 449.83 71.01 450.145 71.01C450.468 71.01 450.769 70.9293 451.047 70.768C451.326 70.6067 451.55 70.372 451.718 70.064C451.894 69.7487 451.982 69.382 451.982 68.964Z"></path>
<path stroke-linejoin="round" stroke-linecap="round" stroke="#333333" d="M338.5 67.5H337.5C335.843 67.5 334.5 68.8431 334.5 70.5V71.5C334.5 73.1569 335.843 74.5 337.5 74.5H346.5C348.157 74.5 349.5 73.1569 349.5 71.5V70.5C349.5 68.8431 348.157 67.5 346.5 67.5V67.5"></path>
<path stroke-linecap="round" stroke="#0076B3" d="M342.5 61.5L342.5 68.5M342.5 68.5L345.5 65.5M342.5 68.5L339.5 65.5"></path>
<rect fill="#333333" rx="1" height="2" width="2" y="70" x="337"></rect>
</svg>
