<svg version="1.1" xmlns="http://www.w3.org/2000/svg" xmlns:xlink="http://www.w3.org/1999/xlink" width="40" height="20" viewBox="0,0,40,20"><g transform="translate(-220,-167)"><g data-paper-data="{&quot;isPaintingLayer&quot;:true}" fill-rule="nonzero" stroke="none" stroke-width="1" stroke-linecap="butt" stroke-linejoin="miter" stroke-miterlimit="10" stroke-dasharray="" stroke-dashoffset="0" style="mix-blend-mode: normal"><path d="M220,187v-20h40v20z" fill="none"></path><path d="M243.3,180.108c-0.52,0 -0.988,-0.092 -1.404,-0.276c-0.408,-0.192 -0.732,-0.448 -0.972,-0.768c-0.24,-0.328 -0.368,-0.692 -0.384,-1.092h1.416c0.024,0.28 0.156,0.516 0.396,0.708c0.248,0.184 0.556,0.276 0.924,0.276c0.384,0 0.68,-0.072 0.888,-0.216c0.216,-0.152 0.324,-0.344 0.324,-0.576c0,-0.248 -0.12,-0.432 -0.36,-0.552c-0.232,-0.12 -0.604,-0.252 -1.116,-0.396c-0.496,-0.136 -0.9,-0.268 -1.212,-0.396c-0.312,-0.128 -0.584,-0.324 -0.816,-0.588c-0.224,-0.264 -0.336,-0.612 -0.336,-1.044c0,-0.352 0.104,-0.672 0.312,-0.96c0.208,-0.296 0.504,-0.528 0.888,-0.696c0.392,-0.168 0.84,-0.252 1.344,-0.252c0.752,0 1.356,0.192 1.812,0.576c0.464,0.376 0.712,0.892 0.744,1.548h-1.368c-0.024,-0.296 -0.144,-0.532 -0.36,-0.708c-0.216,-0.176 -0.508,-0.264 -0.876,-0.264c-0.36,0 -0.636,0.068 -0.828,0.204c-0.192,0.136 -0.288,0.316 -0.288,0.54c0,0.176 0.064,0.324 0.192,0.444c0.128,0.12 0.284,0.216 0.468,0.288c0.184,0.064 0.456,0.148 0.816,0.252c0.48,0.128 0.872,0.26 1.176,0.396c0.312,0.128 0.58,0.32 0.804,0.576c0.224,0.256 0.34,0.596 0.348,1.02c0,0.376 -0.104,0.712 -0.312,1.008c-0.208,0.296 -0.504,0.528 -0.888,0.696c-0.376,0.168 -0.82,0.252 -1.332,0.252z" fill="#ff0000"></path></g></g></svg>