<svg xmlns="http://www.w3.org/2000/svg" fill="none" viewBox="0 0 480 360" height="360" width="480">
<path fill-opacity="0.9" fill="#1B1B1B" d="M10 180C10 174.477 14.4772 170 20 170H460C465.523 170 470 174.477 470 180V340C470 345.523 465.523 350 460 350H20C14.4772 350 10 345.523 10 340V180Z"></path>
<path stroke-width="2" stroke-opacity="0.2" stroke="white" d="M20 169C13.9249 169 9 173.925 9 180V340C9 346.075 13.9249 351 20 351H460C466.075 351 471 346.075 471 340V180C471 173.925 466.075 169 460 169H20Z"></path>
<rect fill-opacity="0.05" fill="white" rx="5" height="36" width="36" y="182" x="22"></rect>
<path fill="white" d="M36.3296 200.664C36.3296 200 36.4656 199.412 36.7376 198.9C37.0176 198.38 37.3936 197.976 37.8656 197.688C38.3376 197.4 38.8576 197.256 39.4256 197.256C39.8976 197.256 40.3136 197.348 40.6736 197.532C41.0416 197.708 41.3376 197.936 41.5616 198.216V197.352H43.2536V207.168H41.5616V203.088C41.3376 203.376 41.0376 203.616 40.6616 203.808C40.2856 204 39.8616 204.096 39.3896 204.096C38.8296 204.096 38.3136 203.952 37.8416 203.664C37.3776 203.368 37.0096 202.96 36.7376 202.44C36.4656 201.92 36.3296 201.328 36.3296 200.664ZM41.5616 200.676C41.5616 200.268 41.4776 199.916 41.3096 199.62C41.1416 199.324 40.9216 199.1 40.6496 198.948C40.3856 198.796 40.1016 198.72 39.7976 198.72C39.5016 198.72 39.2176 198.796 38.9456 198.948C38.6816 199.1 38.4656 199.324 38.2976 199.62C38.1296 199.908 38.0456 200.256 38.0456 200.664C38.0456 201.072 38.1296 201.428 38.2976 201.732C38.4656 202.028 38.6816 202.252 38.9456 202.404C39.2176 202.556 39.5016 202.632 39.7976 202.632C40.1016 202.632 40.3856 202.556 40.6496 202.404C40.9216 202.252 41.1416 202.028 41.3096 201.732C41.4776 201.436 41.5616 201.084 41.5616 200.676Z"></path>
<rect fill-opacity="0.05" fill="white" rx="5" height="36" width="36" y="182" x="62"></rect>
<path fill="white" d="M84.9815 197.352L83.0375 204H81.2255L80.0135 199.356L78.8015 204H76.9775L75.0215 197.352H76.7255L77.9015 202.416L79.1735 197.352H80.9495L82.1975 202.404L83.3735 197.352H84.9815Z"></path>
<rect fill-opacity="0.05" fill="white" rx="5" height="36" width="36" y="182" x="102"></rect>
<path fill="white" d="M123.305 200.532C123.305 200.772 123.289 200.988 123.257 201.18H118.397C118.437 201.66 118.605 202.036 118.901 202.308C119.197 202.58 119.561 202.716 119.993 202.716C120.617 202.716 121.061 202.448 121.325 201.912H123.137C122.945 202.552 122.577 203.08 122.033 203.496C121.489 203.904 120.821 204.108 120.029 204.108C119.389 204.108 118.813 203.968 118.301 203.688C117.797 203.4 117.401 202.996 117.113 202.476C116.833 201.956 116.693 201.356 116.693 200.676C116.693 199.988 116.833 199.384 117.113 198.864C117.393 198.344 117.785 197.944 118.289 197.664C118.793 197.384 119.373 197.244 120.029 197.244C120.661 197.244 121.225 197.38 121.721 197.652C122.225 197.924 122.613 198.312 122.885 198.816C123.165 199.312 123.305 199.884 123.305 200.532ZM121.565 200.052C121.557 199.62 121.401 199.276 121.097 199.02C120.793 198.756 120.421 198.624 119.981 198.624C119.565 198.624 119.213 198.752 118.925 199.008C118.645 199.256 118.473 199.604 118.409 200.052H121.565Z"></path>
<rect fill-opacity="0.05" fill="white" rx="5" height="36" width="36" y="182" x="142"></rect>
<path fill="white" d="M160.082 198.384C160.298 198.032 160.578 197.756 160.922 197.556C161.274 197.356 161.674 197.256 162.122 197.256V199.02H161.678C161.15 199.02 160.75 199.144 160.478 199.392C160.214 199.64 160.082 200.072 160.082 200.688V204H158.402V197.352H160.082V198.384Z"></path>
<rect fill-opacity="0.05" fill="white" rx="5" height="36" width="36" y="182" x="182"></rect>
<path fill="white" d="M200.458 198.732V201.948C200.458 202.172 200.51 202.336 200.614 202.44C200.726 202.536 200.91 202.584 201.166 202.584H201.946V204H200.89C199.474 204 198.766 203.312 198.766 201.936V198.732H197.974V197.352H198.766V195.708H200.458V197.352H201.946V198.732H200.458Z"></path>
<rect fill-opacity="0.05" fill="white" rx="5" height="36" width="36" y="182" x="222"></rect>
<path fill="white" d="M243.555 197.352L239.439 207.144H237.651L239.091 203.832L236.427 197.352H238.311L240.027 201.996L241.767 197.352H243.555Z"></path>
<rect fill-opacity="0.05" fill="white" rx="5" height="36" width="36" y="182" x="262"></rect>
<path fill="white" d="M283.137 197.352V204H281.445V203.16C281.229 203.448 280.945 203.676 280.593 203.844C280.249 204.004 279.873 204.084 279.465 204.084C278.945 204.084 278.485 203.976 278.085 203.76C277.685 203.536 277.369 203.212 277.137 202.788C276.913 202.356 276.801 201.844 276.801 201.252V197.352H278.481V201.012C278.481 201.54 278.613 201.948 278.877 202.236C279.141 202.516 279.501 202.656 279.957 202.656C280.421 202.656 280.785 202.516 281.049 202.236C281.313 201.948 281.445 201.54 281.445 201.012V197.352H283.137Z"></path>
<rect fill-opacity="0.05" fill="white" rx="5" height="36" width="36" y="182" x="302"></rect>
<path fill="white" d="M320.01 196.56C319.714 196.56 319.466 196.468 319.266 196.284C319.074 196.092 318.978 195.856 318.978 195.576C318.978 195.296 319.074 195.064 319.266 194.88C319.466 194.688 319.714 194.592 320.01 194.592C320.306 194.592 320.55 194.688 320.742 194.88C320.942 195.064 321.042 195.296 321.042 195.576C321.042 195.856 320.942 196.092 320.742 196.284C320.55 196.468 320.306 196.56 320.01 196.56ZM320.838 197.352V204H319.158V197.352H320.838Z"></path>
<rect fill-opacity="0.05" fill="white" rx="5" height="36" width="36" y="182" x="342"></rect>
<path fill="white" d="M359.954 204.108C359.314 204.108 358.738 203.968 358.226 203.688C357.714 203.4 357.31 202.996 357.014 202.476C356.726 201.956 356.582 201.356 356.582 200.676C356.582 199.996 356.73 199.396 357.026 198.876C357.33 198.356 357.742 197.956 358.262 197.676C358.782 197.388 359.362 197.244 360.002 197.244C360.642 197.244 361.222 197.388 361.742 197.676C362.262 197.956 362.67 198.356 362.966 198.876C363.27 199.396 363.422 199.996 363.422 200.676C363.422 201.356 363.266 201.956 362.954 202.476C362.65 202.996 362.234 203.4 361.706 203.688C361.186 203.968 360.602 204.108 359.954 204.108ZM359.954 202.644C360.258 202.644 360.542 202.572 360.806 202.428C361.078 202.276 361.294 202.052 361.454 201.756C361.614 201.46 361.694 201.1 361.694 200.676C361.694 200.044 361.526 199.56 361.19 199.224C360.862 198.88 360.458 198.708 359.978 198.708C359.498 198.708 359.094 198.88 358.766 199.224C358.446 199.56 358.286 200.044 358.286 200.676C358.286 201.308 358.442 201.796 358.754 202.14C359.074 202.476 359.474 202.644 359.954 202.644Z"></path>
<rect fill-opacity="0.05" fill="white" rx="5" height="36" width="36" y="182" x="382"></rect>
<path fill="white" d="M398.442 198.312C398.658 198.008 398.954 197.756 399.33 197.556C399.714 197.348 400.15 197.244 400.638 197.244C401.206 197.244 401.718 197.384 402.174 197.664C402.638 197.944 403.002 198.344 403.266 198.864C403.538 199.376 403.674 199.972 403.674 200.652C403.674 201.332 403.538 201.936 403.266 202.464C403.002 202.984 402.638 203.388 402.174 203.676C401.718 203.964 401.206 204.108 400.638 204.108C400.15 204.108 399.718 204.008 399.342 203.808C398.974 203.608 398.674 203.356 398.442 203.052V207.168H396.762V197.352H398.442V198.312ZM401.958 200.652C401.958 200.252 401.874 199.908 401.706 199.62C401.546 199.324 401.33 199.1 401.058 198.948C400.794 198.796 400.506 198.72 400.194 198.72C399.89 198.72 399.602 198.8 399.33 198.96C399.066 199.112 398.85 199.336 398.682 199.632C398.522 199.928 398.442 200.276 398.442 200.676C398.442 201.076 398.522 201.424 398.682 201.72C398.85 202.016 399.066 202.244 399.33 202.404C399.602 202.556 399.89 202.632 400.194 202.632C400.506 202.632 400.794 202.552 401.058 202.392C401.33 202.232 401.546 202.004 401.706 201.708C401.874 201.412 401.958 201.06 401.958 200.652Z"></path>
<rect fill-opacity="0.05" fill="white" rx="5" height="36" width="36" y="222" x="22"></rect>
<path fill="white" d="M36.3296 240.652C36.3296 239.98 36.4616 239.384 36.7256 238.864C36.9976 238.344 37.3616 237.944 37.8176 237.664C38.2816 237.384 38.7976 237.244 39.3656 237.244C39.8616 237.244 40.2936 237.344 40.6616 237.544C41.0376 237.744 41.3376 237.996 41.5616 238.3V237.352H43.2536V244H41.5616V243.028C41.3456 243.34 41.0456 243.6 40.6616 243.808C40.2856 244.008 39.8496 244.108 39.3536 244.108C38.7936 244.108 38.2816 243.964 37.8176 243.676C37.3616 243.388 36.9976 242.984 36.7256 242.464C36.4616 241.936 36.3296 241.332 36.3296 240.652ZM41.5616 240.676C41.5616 240.268 41.4816 239.92 41.3216 239.632C41.1616 239.336 40.9456 239.112 40.6736 238.96C40.4016 238.8 40.1096 238.72 39.7976 238.72C39.4856 238.72 39.1976 238.796 38.9336 238.948C38.6696 239.1 38.4536 239.324 38.2856 239.62C38.1256 239.908 38.0456 240.252 38.0456 240.652C38.0456 241.052 38.1256 241.404 38.2856 241.708C38.4536 242.004 38.6696 242.232 38.9336 242.392C39.2056 242.552 39.4936 242.632 39.7976 242.632C40.1096 242.632 40.4016 242.556 40.6736 242.404C40.9456 242.244 41.1616 242.02 41.3216 241.732C41.4816 241.436 41.5616 241.084 41.5616 240.676Z"></path>
<rect fill-opacity="0.05" fill="white" rx="5" height="36" width="36" y="222" x="62"></rect>
<path fill="white" d="M80.1025 244.108C79.5585 244.108 79.0705 244.012 78.6385 243.82C78.2065 243.62 77.8625 243.352 77.6065 243.016C77.3585 242.68 77.2225 242.308 77.1985 241.9H78.8905C78.9225 242.156 79.0465 242.368 79.2625 242.536C79.4865 242.704 79.7625 242.788 80.0905 242.788C80.4105 242.788 80.6585 242.724 80.8345 242.596C81.0185 242.468 81.1105 242.304 81.1105 242.104C81.1105 241.888 80.9985 241.728 80.7745 241.624C80.5585 241.512 80.2105 241.392 79.7305 241.264C79.2345 241.144 78.8265 241.02 78.5065 240.892C78.1945 240.764 77.9225 240.568 77.6905 240.304C77.4665 240.04 77.3545 239.684 77.3545 239.236C77.3545 238.868 77.4585 238.532 77.6665 238.228C77.8825 237.924 78.1865 237.684 78.5785 237.508C78.9785 237.332 79.4465 237.244 79.9825 237.244C80.7745 237.244 81.4065 237.444 81.8785 237.844C82.3505 238.236 82.6105 238.768 82.6585 239.44H81.0505C81.0265 239.176 80.9145 238.968 80.7145 238.816C80.5225 238.656 80.2625 238.576 79.9345 238.576C79.6305 238.576 79.3945 238.632 79.2265 238.744C79.0665 238.856 78.9865 239.012 78.9865 239.212C78.9865 239.436 79.0985 239.608 79.3225 239.728C79.5465 239.84 79.8945 239.956 80.3665 240.076C80.8465 240.196 81.2425 240.32 81.5545 240.448C81.8665 240.576 82.1345 240.776 82.3585 241.048C82.5905 241.312 82.7105 241.664 82.7185 242.104C82.7185 242.488 82.6105 242.832 82.3945 243.136C82.1865 243.44 81.8825 243.68 81.4825 243.856C81.0905 244.024 80.6305 244.108 80.1025 244.108Z"></path>
<rect fill-opacity="0.05" fill="white" rx="5" height="36" width="36" y="222" x="102"></rect>
<path fill="white" d="M116.33 240.652C116.33 239.98 116.462 239.384 116.726 238.864C116.998 238.344 117.366 237.944 117.83 237.664C118.294 237.384 118.81 237.244 119.378 237.244C119.81 237.244 120.222 237.34 120.614 237.532C121.006 237.716 121.318 237.964 121.55 238.276V235.12H123.254V244H121.55V243.016C121.342 243.344 121.05 243.608 120.674 243.808C120.298 244.008 119.862 244.108 119.366 244.108C118.806 244.108 118.294 243.964 117.83 243.676C117.366 243.388 116.998 242.984 116.726 242.464C116.462 241.936 116.33 241.332 116.33 240.652ZM121.562 240.676C121.562 240.268 121.482 239.92 121.322 239.632C121.162 239.336 120.946 239.112 120.674 238.96C120.402 238.8 120.11 238.72 119.798 238.72C119.486 238.72 119.198 238.796 118.934 238.948C118.67 239.1 118.454 239.324 118.286 239.62C118.126 239.908 118.046 240.252 118.046 240.652C118.046 241.052 118.126 241.404 118.286 241.708C118.454 242.004 118.67 242.232 118.934 242.392C119.206 242.552 119.494 242.632 119.798 242.632C120.11 242.632 120.402 242.556 120.674 242.404C120.946 242.244 121.162 242.02 121.322 241.732C121.482 241.436 121.562 241.084 121.562 240.676Z"></path>
<rect fill-opacity="0.05" fill="white" rx="5" height="36" width="36" y="222" x="142"></rect>
<path fill="white" d="M161.808 238.732H160.644V244H158.94V238.732H158.184V237.352H158.94V237.016C158.94 236.2 159.172 235.6 159.636 235.216C160.1 234.832 160.8 234.652 161.736 234.676V236.092C161.328 236.084 161.044 236.152 160.884 236.296C160.724 236.44 160.644 236.7 160.644 237.076V237.352H161.808V238.732Z"></path>
<rect fill-opacity="0.05" fill="white" rx="5" height="36" width="36" y="222" x="182"></rect>
<path fill="white" d="M199.366 237.244C199.862 237.244 200.298 237.344 200.674 237.544C201.05 237.736 201.346 237.988 201.562 238.3V237.352H203.254V244.048C203.254 244.664 203.13 245.212 202.882 245.692C202.634 246.18 202.262 246.564 201.766 246.844C201.27 247.132 200.67 247.276 199.966 247.276C199.022 247.276 198.246 247.056 197.638 246.616C197.038 246.176 196.698 245.576 196.618 244.816H198.286C198.374 245.12 198.562 245.36 198.85 245.536C199.146 245.72 199.502 245.812 199.918 245.812C200.406 245.812 200.802 245.664 201.106 245.368C201.41 245.08 201.562 244.64 201.562 244.048V243.016C201.346 243.328 201.046 243.588 200.662 243.796C200.286 244.004 199.854 244.108 199.366 244.108C198.806 244.108 198.294 243.964 197.83 243.676C197.366 243.388 196.998 242.984 196.726 242.464C196.462 241.936 196.33 241.332 196.33 240.652C196.33 239.98 196.462 239.384 196.726 238.864C196.998 238.344 197.362 237.944 197.818 237.664C198.282 237.384 198.798 237.244 199.366 237.244ZM201.562 240.676C201.562 240.268 201.482 239.92 201.322 239.632C201.162 239.336 200.946 239.112 200.674 238.96C200.402 238.8 200.11 238.72 199.798 238.72C199.486 238.72 199.198 238.796 198.934 238.948C198.67 239.1 198.454 239.324 198.286 239.62C198.126 239.908 198.046 240.252 198.046 240.652C198.046 241.052 198.126 241.404 198.286 241.708C198.454 242.004 198.67 242.232 198.934 242.392C199.206 242.552 199.494 242.632 199.798 242.632C200.11 242.632 200.402 242.556 200.674 242.404C200.946 242.244 201.162 242.02 201.322 241.732C201.482 241.436 201.562 241.084 201.562 240.676Z"></path>
<rect fill-opacity="0.05" fill="white" rx="5" height="36" width="36" y="222" x="222"></rect>
<path fill="white" d="M240.605 237.256C241.109 237.256 241.557 237.368 241.949 237.592C242.341 237.808 242.645 238.132 242.861 238.564C243.085 238.988 243.197 239.5 243.197 240.1V244H241.517V240.328C241.517 239.8 241.385 239.396 241.121 239.116C240.857 238.828 240.497 238.684 240.041 238.684C239.577 238.684 239.209 238.828 238.937 239.116C238.673 239.396 238.541 239.8 238.541 240.328V244H236.861V235.12H238.541V238.18C238.757 237.892 239.045 237.668 239.405 237.508C239.765 237.34 240.165 237.256 240.605 237.256Z"></path>
<rect fill-opacity="0.05" fill="white" rx="5" height="36" width="36" y="222" x="262"></rect>
<path fill="white" d="M280.01 236.56C279.706 236.56 279.454 236.468 279.254 236.284C279.062 236.092 278.966 235.856 278.966 235.576C278.966 235.296 279.062 235.064 279.254 234.88C279.454 234.688 279.706 234.592 280.01 234.592C280.306 234.592 280.55 234.688 280.742 234.88C280.934 235.064 281.03 235.296 281.03 235.576C281.03 235.856 280.934 236.092 280.742 236.284C280.55 236.468 280.306 236.56 280.01 236.56ZM280.838 245.092C280.838 245.828 280.654 246.356 280.286 246.676C279.926 247.004 279.406 247.168 278.726 247.168H277.982V245.74H278.462C278.718 245.74 278.898 245.688 279.002 245.584C279.106 245.488 279.158 245.328 279.158 245.104V237.352H280.838V245.092Z"></path>
<rect fill-opacity="0.05" fill="white" rx="5" height="36" width="36" y="222" x="302"></rect>
<path fill="white" d="M321.26 244L319.004 241.168V244H317.324V235.12H319.004V240.172L321.236 237.352H323.42L320.492 240.688L323.444 244H321.26Z"></path>
<rect fill-opacity="0.05" fill="white" rx="5" height="36" width="36" y="222" x="342"></rect>
<path fill="white" d="M360.838 235.12V244H359.158V235.12H360.838Z"></path>
<rect fill-opacity="0.05" fill="white" rx="5" height="36" width="36" y="262" x="62"></rect>
<path fill="white" d="M79.4636 282.62H82.4276V284H77.5556V282.644L80.4596 278.732H77.5676V277.352H82.3916V278.708L79.4636 282.62Z"></path>
<rect fill-opacity="0.05" fill="white" rx="5" height="36" width="36" y="262" x="102"></rect>
<path fill="white" d="M121.26 284L119.892 281.936L118.68 284H116.88L119.052 280.664L116.856 277.352H118.752L120.108 279.404L121.332 277.352H123.132L120.948 280.664L123.156 284H121.26Z"></path>
<rect fill-opacity="0.05" fill="white" rx="5" height="36" width="36" y="262" x="142"></rect>
<path fill="white" d="M156.787 280.676C156.787 279.988 156.927 279.388 157.207 278.876C157.487 278.356 157.875 277.956 158.371 277.676C158.867 277.388 159.435 277.244 160.075 277.244C160.899 277.244 161.579 277.452 162.115 277.868C162.659 278.276 163.023 278.852 163.207 279.596H161.395C161.299 279.308 161.135 279.084 160.903 278.924C160.679 278.756 160.399 278.672 160.063 278.672C159.583 278.672 159.203 278.848 158.923 279.2C158.643 279.544 158.503 280.036 158.503 280.676C158.503 281.308 158.643 281.8 158.923 282.152C159.203 282.496 159.583 282.668 160.063 282.668C160.743 282.668 161.187 282.364 161.395 281.756H163.207C163.023 282.476 162.659 283.048 162.115 283.472C161.571 283.896 160.891 284.108 160.075 284.108C159.435 284.108 158.867 283.968 158.371 283.688C157.875 283.4 157.487 283 157.207 282.488C156.927 281.968 156.787 281.364 156.787 280.676Z"></path>
<rect fill-opacity="0.05" fill="white" rx="5" height="36" width="36" y="262" x="182"></rect>
<path fill="white" d="M200.008 282.452L201.688 277.352H203.476L201.016 284H198.976L196.528 277.352H198.328L200.008 282.452Z"></path>
<rect fill-opacity="0.05" fill="white" rx="5" height="36" width="36" y="262" x="222"></rect>
<path fill="white" d="M238.442 278.324C238.658 278.004 238.954 277.744 239.33 277.544C239.714 277.344 240.15 277.244 240.638 277.244C241.206 277.244 241.718 277.384 242.174 277.664C242.638 277.944 243.002 278.344 243.266 278.864C243.538 279.376 243.674 279.972 243.674 280.652C243.674 281.332 243.538 281.936 243.266 282.464C243.002 282.984 242.638 283.388 242.174 283.676C241.718 283.964 241.206 284.108 240.638 284.108C240.142 284.108 239.706 284.012 239.33 283.82C238.962 283.62 238.666 283.364 238.442 283.052V284H236.762V275.12H238.442V278.324ZM241.958 280.652C241.958 280.252 241.874 279.908 241.706 279.62C241.546 279.324 241.33 279.1 241.058 278.948C240.794 278.796 240.506 278.72 240.194 278.72C239.89 278.72 239.602 278.8 239.33 278.96C239.066 279.112 238.85 279.336 238.682 279.632C238.522 279.928 238.442 280.276 238.442 280.676C238.442 281.076 238.522 281.424 238.682 281.72C238.85 282.016 239.066 282.244 239.33 282.404C239.602 282.556 239.89 282.632 240.194 282.632C240.506 282.632 240.794 282.552 241.058 282.392C241.33 282.232 241.546 282.004 241.706 281.708C241.874 281.412 241.958 281.06 241.958 280.652Z"></path>
<rect fill-opacity="0.05" fill="white" rx="5" height="36" width="36" y="262" x="262"></rect>
<path fill="white" d="M280.545 277.256C281.337 277.256 281.977 277.508 282.465 278.012C282.953 278.508 283.197 279.204 283.197 280.1V284H281.517V280.328C281.517 279.8 281.385 279.396 281.121 279.116C280.857 278.828 280.497 278.684 280.041 278.684C279.577 278.684 279.209 278.828 278.937 279.116C278.673 279.396 278.541 279.8 278.541 280.328V284H276.861V277.352H278.541V278.18C278.765 277.892 279.049 277.668 279.393 277.508C279.745 277.34 280.129 277.256 280.545 277.256Z"></path>
<rect fill-opacity="0.05" fill="white" rx="5" height="36" width="36" y="262" x="302"></rect>
<path fill="white" d="M322.797 277.256C323.613 277.256 324.269 277.508 324.765 278.012C325.269 278.508 325.521 279.204 325.521 280.1V284H323.841V280.328C323.841 279.808 323.709 279.412 323.445 279.14C323.181 278.86 322.821 278.72 322.365 278.72C321.909 278.72 321.545 278.86 321.273 279.14C321.009 279.412 320.877 279.808 320.877 280.328V284H319.197V280.328C319.197 279.808 319.065 279.412 318.801 279.14C318.537 278.86 318.177 278.72 317.721 278.72C317.257 278.72 316.889 278.86 316.617 279.14C316.353 279.412 316.221 279.808 316.221 280.328V284H314.541V277.352H316.221V278.156C316.437 277.876 316.713 277.656 317.049 277.496C317.393 277.336 317.769 277.256 318.177 277.256C318.697 277.256 319.161 277.368 319.569 277.592C319.977 277.808 320.293 278.12 320.517 278.528C320.733 278.144 321.045 277.836 321.453 277.604C321.869 277.372 322.317 277.256 322.797 277.256Z"></path>
<rect fill-opacity="0.05" fill="white" rx="5" height="36" width="36" y="262" x="342"></rect>
<path fill="white" d="M361.141 282.236L359.737 285.608H358.657L359.437 282.236H361.141Z"></path>
<rect fill-opacity="0.05" fill="white" rx="5" height="36" width="36" y="262" x="382"></rect>
<path fill="white" d="M400.013 284.084C399.709 284.084 399.457 283.992 399.257 283.808C399.065 283.616 398.969 283.38 398.969 283.1C398.969 282.82 399.065 282.588 399.257 282.404C399.457 282.212 399.709 282.116 400.013 282.116C400.309 282.116 400.553 282.212 400.745 282.404C400.937 282.588 401.033 282.82 401.033 283.1C401.033 283.38 400.937 283.616 400.745 283.808C400.553 283.992 400.309 284.084 400.013 284.084Z"></path>
<rect fill-opacity="0.05" fill="white" rx="5" height="36" width="36" y="262" x="422"></rect>
<path fill="white" d="M439.939 275.336C440.771 275.336 441.439 275.564 441.943 276.02C442.455 276.468 442.711 277.088 442.711 277.88C442.711 278.664 442.459 279.264 441.955 279.68C441.451 280.088 440.783 280.292 439.951 280.292L439.903 281.216H438.427L438.367 279.176H438.907C439.603 279.176 440.139 279.084 440.515 278.9C440.891 278.716 441.079 278.38 441.079 277.892C441.079 277.54 440.975 277.26 440.767 277.052C440.567 276.844 440.291 276.74 439.939 276.74C439.571 276.74 439.283 276.84 439.075 277.04C438.875 277.24 438.775 277.516 438.775 277.868H437.191C437.183 277.38 437.287 276.944 437.503 276.56C437.719 276.176 438.035 275.876 438.451 275.66C438.875 275.444 439.371 275.336 439.939 275.336ZM439.159 284.084C438.855 284.084 438.603 283.992 438.403 283.808C438.211 283.616 438.115 283.38 438.115 283.1C438.115 282.82 438.211 282.588 438.403 282.404C438.603 282.212 438.855 282.116 439.159 282.116C439.455 282.116 439.699 282.212 439.891 282.404C440.083 282.588 440.179 282.82 440.179 283.1C440.179 283.38 440.083 283.616 439.891 283.808C439.699 283.992 439.455 284.084 439.159 284.084Z"></path>
<rect fill-opacity="0.03" fill="white" rx="5" height="36" width="76" y="222" x="382"></rect>
<path stroke-linejoin="round" stroke-linecap="round" stroke-width="1.5" stroke="white" d="M418 238L414.5 241.5M425.5 236V239.5C425.5 240.605 424.605 241.5 423.5 241.5H414.5M414.5 241.5L418 245"></path>
<rect fill-opacity="0.03" fill="white" rx="5" height="36" width="36" y="182" x="422"></rect>
<path stroke-width="1.5" stroke="white" d="M436.945 195.116C437.179 194.882 437.497 194.75 437.828 194.75H446C446.69 194.75 447.25 195.31 447.25 196V204C447.25 204.69 446.69 205.25 446 205.25H437.828C437.497 205.25 437.179 205.118 436.945 204.884L432.945 200.884C432.456 200.396 432.456 199.604 432.945 199.116L436.945 195.116Z"></path>
<path stroke-linecap="round" stroke-width="1.5" stroke="white" d="M444 202L442 200M440 198L442 200M442 200L444 198M442 200L440 202"></path>
<rect fill-opacity="0.03" fill="white" rx="5" height="36" width="36" y="262" x="22"></rect>
<path stroke-linejoin="round" stroke-linecap="round" stroke-width="1.5" stroke="white" d="M37 287.5H43M37 282H34.9207C34.1116 282 33.6375 281.089 34.1014 280.427L39.1808 273.17C39.5789 272.602 40.4211 272.602 40.8192 273.17L45.8986 280.427C46.3625 281.089 45.8884 282 45.0793 282H43V284C43 284.552 42.5523 285 42 285H38C37.4477 285 37 284.552 37 284V282Z"></path>
<rect fill-opacity="0.03" fill="white" rx="5" height="36" width="116" y="302" x="22"></rect>
<path fill="white" d="M73.3911 324L72.4791 323.1C71.7031 323.796 70.7551 324.144 69.6351 324.144C69.0191 324.144 68.4751 324.04 68.0031 323.832C67.5391 323.616 67.1791 323.316 66.9231 322.932C66.6671 322.54 66.5391 322.088 66.5391 321.576C66.5391 321.024 66.6951 320.528 67.0071 320.088C67.3191 319.648 67.7791 319.292 68.3871 319.02C68.1711 318.756 68.0151 318.504 67.9191 318.264C67.8231 318.016 67.7751 317.752 67.7751 317.472C67.7751 317.088 67.8751 316.744 68.0751 316.44C68.2751 316.128 68.5591 315.884 68.9271 315.708C69.3031 315.532 69.7391 315.444 70.2351 315.444C70.7391 315.444 71.1711 315.54 71.5311 315.732C71.8911 315.924 72.1591 316.18 72.3351 316.5C72.5111 316.82 72.5871 317.176 72.5631 317.568H70.9311C70.9391 317.304 70.8751 317.104 70.7391 316.968C70.6031 316.824 70.4191 316.752 70.1871 316.752C69.9631 316.752 69.7751 316.82 69.6231 316.956C69.4791 317.084 69.4071 317.252 69.4071 317.46C69.4071 317.66 69.4671 317.86 69.5871 318.06C69.7071 318.252 69.9031 318.492 70.1751 318.78L72.2871 320.868C72.3031 320.852 72.3151 320.836 72.3231 320.82C72.3311 320.804 72.3391 320.788 72.3471 320.772L73.0311 319.632H74.7831L73.9431 321.108C73.7831 321.42 73.6111 321.716 73.4271 321.996L75.4551 324H73.3911ZM69.6831 322.752C70.3391 322.752 70.9191 322.52 71.4231 322.056L69.3591 320.016C68.5831 320.36 68.1951 320.848 68.1951 321.48C68.1951 321.84 68.3311 322.144 68.6031 322.392C68.8751 322.632 69.2351 322.752 69.6831 322.752ZM75.891 316.8V315.252H78.783V324H77.055V316.8H75.891ZM80.9706 322.104C81.7386 321.464 82.3506 320.932 82.8066 320.508C83.2626 320.076 83.6426 319.628 83.9466 319.164C84.2506 318.7 84.4026 318.244 84.4026 317.796C84.4026 317.388 84.3066 317.068 84.1146 316.836C83.9226 316.604 83.6266 316.488 83.2266 316.488C82.8266 316.488 82.5186 316.624 82.3026 316.896C82.0866 317.16 81.9746 317.524 81.9666 317.988H80.3346C80.3666 317.028 80.6506 316.3 81.1866 315.804C81.7306 315.308 82.4186 315.06 83.2506 315.06C84.1626 315.06 84.8626 315.304 85.3506 315.792C85.8386 316.272 86.0826 316.908 86.0826 317.7C86.0826 318.324 85.9146 318.92 85.5786 319.488C85.2426 320.056 84.8586 320.552 84.4266 320.976C83.9946 321.392 83.4306 321.896 82.7346 322.488H86.2746V323.88H80.3466V322.632L80.9706 322.104ZM87.3573 317.556C87.3973 316.756 87.6773 316.14 88.1973 315.708C88.7253 315.268 89.4173 315.048 90.2733 315.048C90.8573 315.048 91.3573 315.152 91.7733 315.36C92.1893 315.56 92.5013 315.836 92.7093 316.188C92.9253 316.532 93.0333 316.924 93.0333 317.364C93.0333 317.868 92.9013 318.296 92.6373 318.648C92.3813 318.992 92.0733 319.224 91.7133 319.344V319.392C92.1773 319.536 92.5373 319.792 92.7933 320.16C93.0573 320.528 93.1893 321 93.1893 321.576C93.1893 322.056 93.0773 322.484 92.8533 322.86C92.6373 323.236 92.3133 323.532 91.8813 323.748C91.4573 323.956 90.9453 324.06 90.3453 324.06C89.4413 324.06 88.7053 323.832 88.1373 323.376C87.5693 322.92 87.2693 322.248 87.2373 321.36H88.8693C88.8853 321.752 89.0173 322.068 89.2653 322.308C89.5213 322.54 89.8693 322.656 90.3093 322.656C90.7173 322.656 91.0293 322.544 91.2453 322.32C91.4693 322.088 91.5813 321.792 91.5813 321.432C91.5813 320.952 91.4293 320.608 91.1253 320.4C90.8213 320.192 90.3493 320.088 89.7093 320.088H89.3613V318.708H89.7093C90.8453 318.708 91.4133 318.328 91.4133 317.568C91.4133 317.224 91.3093 316.956 91.1013 316.764C90.9013 316.572 90.6093 316.476 90.2253 316.476C89.8493 316.476 89.5573 316.58 89.3493 316.788C89.1493 316.988 89.0333 317.244 89.0013 317.556H87.3573Z"></path>
<rect fill-opacity="0.03" fill="white" rx="5" height="36" width="116" y="302" x="342"></rect>
<path stroke-linecap="round" stroke-width="1.5" stroke="white" d="M381 323L378 320M375 317L378 320M378 320L381 317M378 320L375 323"></path>
<path fill="white" d="M390.346 319.8C390.346 318.976 390.53 318.24 390.898 317.592C391.274 316.936 391.782 316.428 392.422 316.068C393.07 315.7 393.794 315.516 394.594 315.516C395.53 315.516 396.35 315.756 397.054 316.236C397.758 316.716 398.25 317.38 398.53 318.228H396.598C396.406 317.828 396.134 317.528 395.782 317.328C395.438 317.128 395.038 317.028 394.582 317.028C394.094 317.028 393.658 317.144 393.274 317.376C392.898 317.6 392.602 317.92 392.386 318.336C392.178 318.752 392.074 319.24 392.074 319.8C392.074 320.352 392.178 320.84 392.386 321.264C392.602 321.68 392.898 322.004 393.274 322.236C393.658 322.46 394.094 322.572 394.582 322.572C395.038 322.572 395.438 322.472 395.782 322.272C396.134 322.064 396.406 321.76 396.598 321.36H398.53C398.25 322.216 397.758 322.884 397.054 323.364C396.358 323.836 395.538 324.072 394.594 324.072C393.794 324.072 393.07 323.892 392.422 323.532C391.782 323.164 391.274 322.656 390.898 322.008C390.53 321.36 390.346 320.624 390.346 319.8ZM401.645 315.12V324H399.965V315.12H401.645ZM406.257 324.108C405.617 324.108 405.041 323.968 404.529 323.688C404.017 323.4 403.613 322.996 403.317 322.476C403.029 321.956 402.885 321.356 402.885 320.676C402.885 319.996 403.033 319.396 403.329 318.876C403.633 318.356 404.045 317.956 404.565 317.676C405.085 317.388 405.665 317.244 406.305 317.244C406.945 317.244 407.525 317.388 408.045 317.676C408.565 317.956 408.973 318.356 409.269 318.876C409.573 319.396 409.725 319.996 409.725 320.676C409.725 321.356 409.569 321.956 409.257 322.476C408.953 322.996 408.537 323.4 408.009 323.688C407.489 323.968 406.905 324.108 406.257 324.108ZM406.257 322.644C406.561 322.644 406.845 322.572 407.109 322.428C407.381 322.276 407.597 322.052 407.757 321.756C407.917 321.46 407.997 321.1 407.997 320.676C407.997 320.044 407.829 319.56 407.493 319.224C407.165 318.88 406.761 318.708 406.281 318.708C405.801 318.708 405.397 318.88 405.069 319.224C404.749 319.56 404.589 320.044 404.589 320.676C404.589 321.308 404.745 321.796 405.057 322.14C405.377 322.476 405.777 322.644 406.257 322.644ZM413.501 324.108C412.957 324.108 412.469 324.012 412.037 323.82C411.605 323.62 411.261 323.352 411.005 323.016C410.757 322.68 410.621 322.308 410.597 321.9H412.289C412.321 322.156 412.445 322.368 412.661 322.536C412.885 322.704 413.161 322.788 413.489 322.788C413.809 322.788 414.057 322.724 414.233 322.596C414.417 322.468 414.509 322.304 414.509 322.104C414.509 321.888 414.397 321.728 414.173 321.624C413.957 321.512 413.609 321.392 413.129 321.264C412.633 321.144 412.225 321.02 411.905 320.892C411.593 320.764 411.321 320.568 411.089 320.304C410.865 320.04 410.753 319.684 410.753 319.236C410.753 318.868 410.857 318.532 411.065 318.228C411.281 317.924 411.585 317.684 411.977 317.508C412.377 317.332 412.845 317.244 413.381 317.244C414.173 317.244 414.805 317.444 415.277 317.844C415.749 318.236 416.009 318.768 416.057 319.44H414.449C414.425 319.176 414.313 318.968 414.113 318.816C413.921 318.656 413.661 318.576 413.333 318.576C413.029 318.576 412.793 318.632 412.625 318.744C412.465 318.856 412.385 319.012 412.385 319.212C412.385 319.436 412.497 319.608 412.721 319.728C412.945 319.84 413.293 319.956 413.765 320.076C414.245 320.196 414.641 320.32 414.953 320.448C415.265 320.576 415.533 320.776 415.757 321.048C415.989 321.312 416.109 321.664 416.117 322.104C416.117 322.488 416.009 322.832 415.793 323.136C415.585 323.44 415.281 323.68 414.881 323.856C414.489 324.024 414.029 324.108 413.501 324.108ZM423.676 320.532C423.676 320.772 423.66 320.988 423.628 321.18H418.768C418.808 321.66 418.976 322.036 419.272 322.308C419.568 322.58 419.932 322.716 420.364 322.716C420.988 322.716 421.432 322.448 421.696 321.912H423.508C423.316 322.552 422.948 323.08 422.404 323.496C421.86 323.904 421.192 324.108 420.4 324.108C419.76 324.108 419.184 323.968 418.672 323.688C418.168 323.4 417.772 322.996 417.484 322.476C417.204 321.956 417.064 321.356 417.064 320.676C417.064 319.988 417.204 319.384 417.484 318.864C417.764 318.344 418.156 317.944 418.66 317.664C419.164 317.384 419.744 317.244 420.4 317.244C421.032 317.244 421.596 317.38 422.092 317.652C422.596 317.924 422.984 318.312 423.256 318.816C423.536 319.312 423.676 319.884 423.676 320.532ZM421.936 320.052C421.928 319.62 421.772 319.276 421.468 319.02C421.164 318.756 420.792 318.624 420.352 318.624C419.936 318.624 419.584 318.752 419.296 319.008C419.016 319.256 418.844 319.604 418.78 320.052H421.936Z"></path>
<rect fill-opacity="0.03" fill="white" rx="5" height="36" width="196" y="302" x="142"></rect>
<path stroke-linecap="round" stroke-width="1.5" stroke-opacity="0.5" stroke="white" d="M190.5 319.5H289.5"></path>
</svg>
