<svg xmlns="http://www.w3.org/2000/svg" fill="none" viewBox="0 0 480 360" height="360" width="480">
<path stroke-linejoin="round" stroke-width="1.5" stroke="#999999" d="M28 225.75C28.4142 225.75 28.75 225.414 28.75 225V217C28.75 216.31 29.3096 215.75 30 215.75H31.0557C31.5603 215.75 32.0579 215.867 32.5092 216.093L34.559 217.118C34.9825 217.33 35.25 217.763 35.25 218.236V219.019C35.25 219.831 34.3952 220.359 33.6687 219.996C32.5575 219.44 31.25 220.248 31.25 221.491V230C31.25 232.347 29.3472 234.25 27 234.25C24.6528 234.25 22.75 232.347 22.75 230C22.75 227.653 24.6528 225.75 27 225.75H28Z"></path>
<path stroke-linejoin="round" stroke-width="1.5" stroke="#999999" d="M33.6 177.55C33.4584 177.361 33.2361 177.25 33 177.25H27C26.7639 177.25 26.5416 177.361 26.4 177.55L24.2 180.483C23.838 180.966 23.27 181.25 22.6667 181.25C21.6081 181.25 20.75 180.392 20.75 179.333V178.246C20.75 175.609 21.4818 173.023 22.8639 170.777L23.3163 170.042C23.9323 169.041 25.1258 168.555 26.2661 168.84C28.7176 169.452 31.2824 169.452 33.7339 168.84C34.8742 168.555 36.0677 169.041 36.6837 170.042L37.1361 170.777C38.5182 173.023 39.25 175.609 39.25 178.246V179.333C39.25 180.392 38.3919 181.25 37.3333 181.25C36.73 181.25 36.162 180.966 35.8 180.483L33.6 177.55Z"></path>
<path stroke-linecap="round" stroke-width="1.5" stroke="#999999" d="M29.5 172H30.5"></path>
<path stroke-linejoin="round" stroke-width="1.5" stroke="#999999" d="M32.75 77C32.75 76.5858 32.4142 76.25 32 76.25H28C27.5858 76.25 27.25 76.5858 27.25 77V83C27.25 83.6904 26.6904 84.25 26 84.25H23C22.3096 84.25 21.75 83.6904 21.75 83V73.3472C21.75 72.7045 22.0248 72.0925 22.5052 71.6655L28.5052 66.3322C29.3577 65.5744 30.6423 65.5744 31.4948 66.3322L37.4948 71.6655C37.9752 72.0925 38.25 72.7045 38.25 73.3472V83C38.25 83.6904 37.6904 84.25 37 84.25H34C33.3096 84.25 32.75 83.6904 32.75 83V77Z"></path>
<path fill="#4DC2FF" d="M21 118C21 116.895 21.8954 116 23 116H28.75C29.8546 116 30.75 116.895 30.75 118V124.25H37C38.1046 124.25 39 125.145 39 126.25V132C39 133.105 38.1046 134 37 134H30H23C21.8954 134 21 133.105 21 132V125V118Z"></path>
<path stroke-linecap="round" stroke-width="1.5" stroke="#1A1A1A" d="M21 125H30M39 125H30M30 125V116M30 125V134"></path>
<path stroke-width="1.5" stroke="#1A1A1A" fill="#4DC2FF" d="M33.0858 115.551C33.8668 114.77 35.1332 114.77 35.9142 115.551L39.4497 119.086C40.2308 119.868 40.2308 121.134 39.4497 121.915L35.9142 125.45C35.1332 126.231 33.8668 126.231 33.0858 125.45L29.5503 121.915C28.7692 121.134 28.7692 119.868 29.5503 119.086L33.0858 115.551Z"></path>
</svg>
