<svg xmlns="http://www.w3.org/2000/svg" fill="none" viewBox="0 0 122 142" height="142" width="122">
<path fill-opacity="0.9" fill="#333333" d="M1 11C1 5.47716 5.47715 1 11 1H111C116.523 1 121 5.47715 121 11V131C121 136.523 116.523 141 111 141H11C5.47715 141 1 136.523 1 131V11Z"></path>
<path stroke-opacity="0.2" stroke="black" d="M111 0.5H11C5.20101 0.5 0.5 5.20101 0.5 11V131C0.5 136.799 5.20101 141.5 11 141.5H111C116.799 141.5 121.5 136.799 121.5 131V11C121.5 5.20101 116.799 0.5 111 0.5Z"></path>
<path fill="#487F92" d="M1 11C1 5.47715 5.47715 1 11 1H111C116.523 1 121 5.47715 121 11V81H1V11Z"></path>
<path fill-opacity="0.5" fill="black" d="M1 11C1 5.47715 5.47715 1 11 1H111C116.523 1 121 5.47715 121 11V81H1V11Z"></path>
<path fill="white" d="M17.171 94.632C17.171 95.0207 17.0793 95.3873 16.896 95.732C16.7127 96.0767 16.4193 96.359 16.016 96.579C15.6127 96.7917 15.0957 96.898 14.465 96.898H13.079V100H11.825V92.355H14.465C15.0517 92.355 15.5467 92.4577 15.95 92.663C16.3607 92.861 16.665 93.1323 16.863 93.477C17.0683 93.8217 17.171 94.2067 17.171 94.632ZM14.465 95.875C14.9417 95.875 15.2973 95.7687 15.532 95.556C15.7667 95.336 15.884 95.028 15.884 94.632C15.884 93.796 15.411 93.378 14.465 93.378H13.079V95.875H14.465ZM17.949 96.942C17.949 96.3333 18.0737 95.7943 18.323 95.325C18.5797 94.8557 18.9243 94.4927 19.357 94.236C19.797 93.972 20.281 93.84 20.809 93.84C21.2857 93.84 21.7 93.9353 22.052 94.126C22.4113 94.3093 22.6973 94.5403 22.91 94.819V93.939H24.175V100H22.91V99.098C22.6973 99.384 22.4077 99.6223 22.041 99.813C21.6743 100.004 21.2563 100.099 20.787 100.099C20.2663 100.099 19.7897 99.967 19.357 99.703C18.9243 99.4317 18.5797 99.0577 18.323 98.581C18.0737 98.097 17.949 97.5507 17.949 96.942ZM22.91 96.964C22.91 96.546 22.822 96.183 22.646 95.875C22.4773 95.567 22.2537 95.3323 21.975 95.171C21.6963 95.0097 21.3957 94.929 21.073 94.929C20.7503 94.929 20.4497 95.0097 20.171 95.171C19.8923 95.325 19.665 95.556 19.489 95.864C19.3203 96.1647 19.236 96.524 19.236 96.942C19.236 97.36 19.3203 97.7267 19.489 98.042C19.665 98.3573 19.8923 98.5993 20.171 98.768C20.457 98.9293 20.7577 99.01 21.073 99.01C21.3957 99.01 21.6963 98.9293 21.975 98.768C22.2537 98.6067 22.4773 98.372 22.646 98.064C22.822 97.7487 22.91 97.382 22.91 96.964ZM26.4601 93.136C26.2327 93.136 26.0421 93.059 25.8881 92.905C25.7341 92.751 25.6571 92.5603 25.6571 92.333C25.6571 92.1057 25.7341 91.915 25.8881 91.761C26.0421 91.607 26.2327 91.53 26.4601 91.53C26.6801 91.53 26.8671 91.607 27.0211 91.761C27.1751 91.915 27.2521 92.1057 27.2521 92.333C27.2521 92.5603 27.1751 92.751 27.0211 92.905C26.8671 93.059 26.6801 93.136 26.4601 93.136ZM27.0761 93.939V100H25.8221V93.939H27.0761ZM31.7805 93.84C32.2571 93.84 32.6825 93.939 33.0565 94.137C33.4378 94.335 33.7348 94.6283 33.9475 95.017C34.1601 95.4057 34.2665 95.875 34.2665 96.425V100H33.0235V96.612C33.0235 96.0693 32.8878 95.655 32.6165 95.369C32.3451 95.0757 31.9748 94.929 31.5055 94.929C31.0361 94.929 30.6621 95.0757 30.3835 95.369C30.1121 95.655 29.9765 96.0693 29.9765 96.612V100H28.7225V93.939H29.9765V94.632C30.1818 94.3827 30.4421 94.1883 30.7575 94.049C31.0801 93.9097 31.4211 93.84 31.7805 93.84ZM37.329 94.962V98.317C37.329 98.5443 37.3803 98.7093 37.483 98.812C37.593 98.9073 37.7763 98.955 38.033 98.955H38.803V100H37.813C37.2483 100 36.8157 99.868 36.515 99.604C36.2143 99.34 36.064 98.911 36.064 98.317V94.962H35.349V93.939H36.064V92.432H37.329V93.939H38.803V94.962H37.329Z"></path>
<path fill-opacity="0.05" fill="white" d="M61 116C61 113.239 63.2386 111 66 111H106C108.761 111 111 113.239 111 116V126C111 128.761 108.761 131 106 131H66C63.2386 131 61 128.761 61 126V116Z"></path>
<path fill="white" d="M81.2087 122.722H78.5897L78.1397 124H77.0687L79.3097 117.736H80.4977L82.7387 124H81.6587L81.2087 122.722ZM80.9207 121.885L79.9037 118.978L78.8777 121.885H80.9207ZM84.7391 119.77C84.9131 119.542 85.1501 119.35 85.4501 119.194C85.7501 119.038 86.0891 118.96 86.4671 118.96C86.8991 118.96 87.2921 119.068 87.6461 119.284C88.0061 119.494 88.2881 119.791 88.4921 120.175C88.6961 120.559 88.7981 121 88.7981 121.498C88.7981 121.996 88.6961 122.443 88.4921 122.839C88.2881 123.229 88.0061 123.535 87.6461 123.757C87.2921 123.973 86.8991 124.081 86.4671 124.081C86.0891 124.081 85.7531 124.006 85.4591 123.856C85.1651 123.7 84.9251 123.508 84.7391 123.28V126.358H83.7131V119.041H84.7391V119.77ZM87.7541 121.498C87.7541 121.156 87.6821 120.862 87.5381 120.616C87.4001 120.364 87.2141 120.175 86.9801 120.049C86.7521 119.917 86.5061 119.851 86.2421 119.851C85.9841 119.851 85.7381 119.917 85.5041 120.049C85.2761 120.181 85.0901 120.373 84.9461 120.625C84.8081 120.877 84.7391 121.174 84.7391 121.516C84.7391 121.858 84.8081 122.158 84.9461 122.416C85.0901 122.668 85.2761 122.86 85.5041 122.992C85.7381 123.124 85.9841 123.19 86.2421 123.19C86.5061 123.19 86.7521 123.124 86.9801 122.992C87.2141 122.854 87.4001 122.656 87.5381 122.398C87.6821 122.14 87.7541 121.84 87.7541 121.498ZM90.8387 119.77C91.0127 119.542 91.2497 119.35 91.5497 119.194C91.8497 119.038 92.1887 118.96 92.5667 118.96C92.9987 118.96 93.3917 119.068 93.7457 119.284C94.1057 119.494 94.3877 119.791 94.5917 120.175C94.7957 120.559 94.8977 121 94.8977 121.498C94.8977 121.996 94.7957 122.443 94.5917 122.839C94.3877 123.229 94.1057 123.535 93.7457 123.757C93.3917 123.973 92.9987 124.081 92.5667 124.081C92.1887 124.081 91.8527 124.006 91.5587 123.856C91.2647 123.7 91.0247 123.508 90.8387 123.28V126.358H89.8127V119.041H90.8387V119.77ZM93.8537 121.498C93.8537 121.156 93.7817 120.862 93.6377 120.616C93.4997 120.364 93.3137 120.175 93.0797 120.049C92.8517 119.917 92.6057 119.851 92.3417 119.851C92.0837 119.851 91.8377 119.917 91.6037 120.049C91.3757 120.181 91.1897 120.373 91.0457 120.625C90.9077 120.877 90.8387 121.174 90.8387 121.516C90.8387 121.858 90.9077 122.158 91.0457 122.416C91.1897 122.668 91.3757 122.86 91.6037 122.992C91.8377 123.124 92.0837 123.19 92.3417 123.19C92.6057 123.19 92.8517 123.124 93.0797 122.992C93.3137 122.854 93.4997 122.656 93.6377 122.398C93.7817 122.14 93.8537 121.84 93.8537 121.498Z"></path>
<path fill="url(#paint0_linear_936_481)" d="M63.3998 21.7998C53.7982 21.7986 41.7992 30.5986 41.7998 44.1998C41.8 48.1144 42.6852 52.9998 46.5998 52.9998C50.5989 52.9998 52.1989 46.5998 55.3998 46.5998C56.7253 46.5998 57.7998 47.3986 57.7998 48.9998C57.7998 51.3986 55.3998 51.3986 55.3998 54.5998C55.3998 56.9986 56.9989 58.5998 59.3998 58.5998C68.1989 58.5998 78.5998 48.2859 78.5998 36.9998C78.5998 29.7986 72.7218 21.8009 63.3998 21.7998Z"></path>
<rect fill="url(#paint1_linear_936_481)" rx="3.2" height="6.4" width="6.4" y="37.7983" x="44.998"></rect>
<rect fill-opacity="0.5" fill="black" rx="2.4" height="4.8" width="4.8" y="39.3984" x="59.3984"></rect>
<rect fill="url(#paint2_linear_936_481)" rx="3.2" height="6.4" width="6.4" y="29.7983" x="49.7988"></rect>
<rect fill="url(#paint3_linear_936_481)" rx="3.2" height="6.4" width="6.4" y="26.5986" x="57.7988"></rect>
<path fill="url(#paint4_linear_936_481)" d="M67.3982 40.9967L72.1982 40.9989L71.4618 58.6632C71.4261 59.5202 70.721 60.1966 69.8632 60.1966H69.7327C68.8749 60.1966 68.1697 59.5202 68.1341 58.6632L67.3982 40.9967Z"></path>
<path fill="url(#paint5_linear_936_481)" d="M67.3982 40.9967V39.3989H72.1982V40.9989L67.3982 40.9967Z"></path>
<path fill="url(#paint6_linear_936_481)" d="M67.3982 39.3964L65.3565 35.3143C64.8244 34.2504 65.598 32.9985 66.7875 32.9985H72.8095C73.9988 32.9985 74.7724 34.2502 74.2405 35.314L72.1982 39.3989L67.3982 39.3964Z"></path>
<defs>
<linearGradient gradientUnits="userSpaceOnUse" y2="53.7986" x2="70.5982" y1="26.5986" x1="49.7982" id="paint0_linear_936_481">
<stop stop-color="#50E6FF"></stop>
<stop stop-color="#0270C2" offset="1"></stop>
</linearGradient>
<linearGradient gradientUnits="userSpaceOnUse" y2="42.5983" x2="49.798" y1="39.3983" x1="46.598" id="paint1_linear_936_481">
<stop stop-color="#E25113"></stop>
<stop stop-color="#C7390A" offset="1"></stop>
</linearGradient>
<linearGradient gradientUnits="userSpaceOnUse" y2="34.5983" x2="54.5988" y1="31.3983" x1="51.3988" id="paint2_linear_936_481">
<stop stop-color="#55B50E"></stop>
<stop stop-color="#1C8610" offset="1"></stop>
</linearGradient>
<linearGradient gradientUnits="userSpaceOnUse" y2="31.3986" x2="62.5988" y1="28.1986" x1="59.3988" id="paint3_linear_936_481">
<stop stop-color="#FFD300"></stop>
<stop stop-color="#F39808" offset="1"></stop>
</linearGradient>
<linearGradient gradientUnits="userSpaceOnUse" y2="40.9985" x2="72.1982" y1="40.9985" x1="67.3982" id="paint4_linear_936_481">
<stop stop-color="#AA6701"></stop>
<stop stop-color="#814406" offset="1"></stop>
</linearGradient>
<linearGradient gradientUnits="userSpaceOnUse" y2="40.9985" x2="72.1982" y1="40.9985" x1="67.3982" id="paint5_linear_936_481">
<stop stop-color="#CAD2D9"></stop>
<stop stop-color="#939BA2" offset="1"></stop>
</linearGradient>
<linearGradient gradientUnits="userSpaceOnUse" y2="39.3985" x2="72.1982" y1="32.9985" x1="65.7982" id="paint6_linear_936_481">
<stop stop-color="#F7DEAA"></stop>
<stop stop-color="#C3935E" offset="1"></stop>
</linearGradient>
</defs>
</svg>
