<svg xmlns="http://www.w3.org/2000/svg" fill="none" viewBox="0 0 480 360" height="360" width="480">
<path fill="#4CC2FF" d="M340 179C340 176.239 342.239 174 345 174H455C457.761 174 460 176.239 460 179V201C460 203.761 457.761 206 455 206H345C342.239 206 340 203.761 340 201V179Z"></path>
<path stroke-linejoin="round" stroke-width="2" stroke-opacity="0.25" stroke="black" d="M400 183C400.919 183 401.83 183.181 402.679 183.533C403.528 183.885 404.3 184.4 404.95 185.05C405.6 185.7 406.115 186.472 406.467 187.321C406.819 188.17 407 189.081 407 190C407 190.919 406.819 191.83 406.467 192.679C406.115 193.528 405.6 194.3 404.95 194.95C404.3 195.6 403.528 196.115 402.679 196.467C401.83 196.819 400.919 197 400 197C399.081 197 398.17 196.819 397.321 196.467C396.472 196.115 395.7 195.6 395.05 194.95C394.4 194.3 393.885 193.528 393.533 192.679C393.181 191.83 393 190.919 393 190C393 189.081 393.181 188.17 393.533 187.321C393.885 186.472 394.4 185.7 395.05 185.05C395.7 184.4 396.472 183.885 397.321 183.533C398.17 183.181 399.081 183 400 183L400 183Z"></path>
</svg>
