<svg xmlns="http://www.w3.org/2000/svg" fill="none" viewBox="0 0 480 360" height="360" width="480">
<g clip-path="url(#clip0_706_2)">
<path fill="#F8AA36" d="M52 260C52 253.373 46.6274 248 40 248C33.3726 248 28 253.373 28 260C28 266.627 33.3726 272 40 272C46.6274 272 52 266.627 52 260Z"></path>
<path stroke-width="1.4424" stroke="white" fill="#F8AA36" d="M40.0015 253.954C39.9559 253.987 39.9137 254.02 39.8749 254.052C39.6736 254.019 39.4088 253.99 39.1318 254.001C38.0311 254.044 37.1272 254.495 36.5204 255.327C35.9343 256.131 35.68 257.213 35.68 258.44C35.68 258.89 35.7391 259.258 35.8065 259.531C35.5934 259.766 35.32 260.171 35.32 260.72C35.32 261.23 35.2919 261.644 35.2621 262.087L35.2616 262.094C35.2315 262.539 35.1999 263.011 35.2 263.6C35.2 264.262 35.3823 264.969 35.8166 265.527C36.2684 266.108 36.9584 266.48 37.84 266.48C38.4554 266.48 38.9827 266.222 39.3195 266.009C39.4582 265.921 39.5762 265.834 39.6688 265.76H40C42.4775 265.76 44.56 263.953 44.56 261.68C44.56 260.814 44.3058 260.15 44.0419 259.697C43.9816 259.594 43.921 259.502 43.863 259.421C43.92 259.248 43.96 259.04 43.96 258.8C43.96 258.372 43.9852 258.042 44.0137 257.668C44.0151 257.651 44.0165 257.632 44.0179 257.614C44.0483 257.215 44.0799 256.774 44.08 256.16C44.08 254.863 43.0959 253.52 41.4399 253.52C40.7984 253.52 40.3239 253.724 40.0015 253.954Z"></path>
<path fill="white" d="M39.5065 259.504C38.959 259.433 38.6462 259.079 38.8026 258.088V257.946C38.959 257.096 39.0372 256.884 39.5065 256.884C39.6629 256.884 39.8193 256.955 39.9757 257.096C40.1321 257.238 40.4449 257.45 40.6014 257.875C40.7578 258.159 40.7578 258.371 40.836 258.584V258.867C40.836 259.008 40.9924 259.15 41.227 259.221C41.4616 259.292 41.6962 259.079 41.7745 258.867C41.7745 258.867 41.9309 256.176 41.9309 256.105C41.9309 255.892 41.6962 255.68 41.4616 255.68C41.227 255.68 40.9924 255.892 40.9924 256.105V256.884C40.6014 256.53 40.1321 256.176 39.5847 256.176C38.0987 255.963 37.9423 257.167 37.8641 257.875V258.017C37.7077 259.363 38.1769 260.212 39.35 260.425C40.6014 260.637 41.4616 260.85 41.4616 261.558C41.4616 261.841 41.3052 262.125 40.9924 262.337C40.6795 262.62 40.2103 262.691 39.7411 262.62C39.5847 262.62 39.5065 262.549 39.35 262.549C39.1936 262.479 38.7244 262.266 38.568 261.983C38.4898 261.7 38.4115 261.346 38.4115 261.133V260.991C38.4115 260.779 38.1769 260.566 37.9423 260.566C37.7077 260.566 37.4731 260.779 37.4731 260.991C37.4731 260.991 37.4731 261.841 37.3949 262.337C37.3167 263.187 37.3949 263.824 37.3949 263.895C37.3949 264.107 37.6295 264.32 37.8641 264.32C38.0987 264.32 38.3334 264.107 38.3334 263.895V263.116C38.6462 263.328 39.1154 263.541 39.6629 263.612C40.3667 263.753 41.0706 263.541 41.618 263.116C42.0873 262.762 42.4001 262.195 42.4001 261.7C42.4001 259.929 40.4449 259.646 39.5065 259.504Z"></path>
</g>
<defs>
<clipPath id="clip0_706_2">
<rect transform="translate(28 248)" fill="white" height="24" width="24"></rect>
</clipPath>
</defs>
</svg>
