<svg xmlns="http://www.w3.org/2000/svg" fill="none" viewBox="0 0 480 360" height="360" width="480">
<rect fill="#1A1A1A" rx="5" height="70" width="190" y="110" x="45"></rect>
<rect stroke-width="2" stroke-opacity="0.2" stroke="white" rx="6" height="72" width="192" y="109" x="44"></rect>
<path fill="white" d="M110.038 130L107.079 126.579V130H105.825V122.355H107.079V125.842L110.049 122.355H111.622L108.3 126.183L111.677 130H110.038ZM118.341 126.821C118.341 127.048 118.326 127.254 118.297 127.437H113.666C113.703 127.921 113.882 128.31 114.205 128.603C114.528 128.896 114.924 129.043 115.393 129.043C116.068 129.043 116.544 128.761 116.823 128.196H118.176C117.993 128.753 117.659 129.212 117.175 129.571C116.698 129.923 116.104 130.099 115.393 130.099C114.814 130.099 114.293 129.971 113.831 129.714C113.376 129.45 113.017 129.083 112.753 128.614C112.496 128.137 112.368 127.587 112.368 126.964C112.368 126.341 112.493 125.794 112.742 125.325C112.999 124.848 113.354 124.482 113.809 124.225C114.271 123.968 114.799 123.84 115.393 123.84C115.965 123.84 116.475 123.965 116.922 124.214C117.369 124.463 117.718 124.815 117.967 125.27C118.216 125.717 118.341 126.234 118.341 126.821ZM117.032 126.425C117.025 125.963 116.86 125.593 116.537 125.314C116.214 125.035 115.815 124.896 115.338 124.896C114.905 124.896 114.535 125.035 114.227 125.314C113.919 125.585 113.736 125.956 113.677 126.425H117.032ZM125.13 126.821C125.13 127.048 125.115 127.254 125.086 127.437H120.455C120.492 127.921 120.671 128.31 120.994 128.603C121.317 128.896 121.713 129.043 122.182 129.043C122.857 129.043 123.333 128.761 123.612 128.196H124.965C124.782 128.753 124.448 129.212 123.964 129.571C123.487 129.923 122.893 130.099 122.182 130.099C121.603 130.099 121.082 129.971 120.62 129.714C120.165 129.45 119.806 129.083 119.542 128.614C119.285 128.137 119.157 127.587 119.157 126.964C119.157 126.341 119.282 125.794 119.531 125.325C119.788 124.848 120.143 124.482 120.598 124.225C121.06 123.968 121.588 123.84 122.182 123.84C122.754 123.84 123.264 123.965 123.711 124.214C124.158 124.463 124.507 124.815 124.756 125.27C125.005 125.717 125.13 126.234 125.13 126.821ZM123.821 126.425C123.814 125.963 123.649 125.593 123.326 125.314C123.003 125.035 122.604 124.896 122.127 124.896C121.694 124.896 121.324 125.035 121.016 125.314C120.708 125.585 120.525 125.956 120.466 126.425H123.821ZM127.618 124.83C127.831 124.551 128.12 124.317 128.487 124.126C128.854 123.935 129.268 123.84 129.73 123.84C130.258 123.84 130.738 123.972 131.171 124.236C131.611 124.493 131.956 124.856 132.205 125.325C132.454 125.794 132.579 126.333 132.579 126.942C132.579 127.551 132.454 128.097 132.205 128.581C131.956 129.058 131.611 129.432 131.171 129.703C130.738 129.967 130.258 130.099 129.73 130.099C129.268 130.099 128.857 130.007 128.498 129.824C128.139 129.633 127.845 129.399 127.618 129.12V132.882H126.364V123.939H127.618V124.83ZM131.303 126.942C131.303 126.524 131.215 126.165 131.039 125.864C130.87 125.556 130.643 125.325 130.357 125.171C130.078 125.01 129.778 124.929 129.455 124.929C129.14 124.929 128.839 125.01 128.553 125.171C128.274 125.332 128.047 125.567 127.871 125.875C127.702 126.183 127.618 126.546 127.618 126.964C127.618 127.382 127.702 127.749 127.871 128.064C128.047 128.372 128.274 128.607 128.553 128.768C128.839 128.929 129.14 129.01 129.455 129.01C129.778 129.01 130.078 128.929 130.357 128.768C130.643 128.599 130.87 128.357 131.039 128.042C131.215 127.727 131.303 127.36 131.303 126.942ZM142.133 123.939L138.415 132.849H137.117L138.349 129.901L135.962 123.939H137.359L139.064 128.559L140.835 123.939H142.133ZM145.708 130.099C145.136 130.099 144.619 129.971 144.157 129.714C143.695 129.45 143.332 129.083 143.068 128.614C142.804 128.137 142.672 127.587 142.672 126.964C142.672 126.348 142.808 125.802 143.079 125.325C143.35 124.848 143.721 124.482 144.19 124.225C144.659 123.968 145.184 123.84 145.763 123.84C146.342 123.84 146.867 123.968 147.336 124.225C147.805 124.482 148.176 124.848 148.447 125.325C148.718 125.802 148.854 126.348 148.854 126.964C148.854 127.58 148.715 128.126 148.436 128.603C148.157 129.08 147.776 129.45 147.292 129.714C146.815 129.971 146.287 130.099 145.708 130.099ZM145.708 129.01C146.031 129.01 146.331 128.933 146.61 128.779C146.896 128.625 147.127 128.394 147.303 128.086C147.479 127.778 147.567 127.404 147.567 126.964C147.567 126.524 147.483 126.154 147.314 125.853C147.145 125.545 146.922 125.314 146.643 125.16C146.364 125.006 146.064 124.929 145.741 124.929C145.418 124.929 145.118 125.006 144.839 125.16C144.568 125.314 144.351 125.545 144.19 125.853C144.029 126.154 143.948 126.524 143.948 126.964C143.948 127.617 144.113 128.123 144.443 128.482C144.78 128.834 145.202 129.01 145.708 129.01ZM155.583 123.939V130H154.329V129.285C154.131 129.534 153.87 129.732 153.548 129.879C153.232 130.018 152.895 130.088 152.536 130.088C152.059 130.088 151.63 129.989 151.249 129.791C150.875 129.593 150.578 129.3 150.358 128.911C150.145 128.522 150.039 128.053 150.039 127.503V123.939H151.282V127.316C151.282 127.859 151.417 128.277 151.689 128.57C151.96 128.856 152.33 128.999 152.8 128.999C153.269 128.999 153.639 128.856 153.911 128.57C154.189 128.277 154.329 127.859 154.329 127.316V123.939H155.583ZM158.491 124.819C158.674 124.511 158.916 124.273 159.217 124.104C159.525 123.928 159.888 123.84 160.306 123.84V125.138H159.987C159.496 125.138 159.122 125.263 158.865 125.512C158.616 125.761 158.491 126.194 158.491 126.81V130H157.237V123.939H158.491V124.819ZM166.857 124.962H165.735V130H164.47V124.962H163.755V123.939H164.47V123.51C164.47 122.813 164.654 122.307 165.02 121.992C165.394 121.669 165.977 121.508 166.769 121.508V122.553C166.388 122.553 166.12 122.626 165.966 122.773C165.812 122.912 165.735 123.158 165.735 123.51V123.939H166.857V124.962ZM168.607 123.136C168.379 123.136 168.189 123.059 168.035 122.905C167.881 122.751 167.804 122.56 167.804 122.333C167.804 122.106 167.881 121.915 168.035 121.761C168.189 121.607 168.379 121.53 168.607 121.53C168.827 121.53 169.014 121.607 169.168 121.761C169.322 121.915 169.399 122.106 169.399 122.333C169.399 122.56 169.322 122.751 169.168 122.905C169.014 123.059 168.827 123.136 168.607 123.136ZM169.223 123.939V130H167.969V123.939H169.223ZM172.123 121.86V130H170.869V121.86H172.123ZM179.324 126.821C179.324 127.048 179.31 127.254 179.28 127.437H174.649C174.686 127.921 174.866 128.31 175.188 128.603C175.511 128.896 175.907 129.043 176.376 129.043C177.051 129.043 177.528 128.761 177.806 128.196H179.159C178.976 128.753 178.642 129.212 178.158 129.571C177.682 129.923 177.088 130.099 176.376 130.099C175.797 130.099 175.276 129.971 174.814 129.714C174.36 129.45 174 129.083 173.736 128.614C173.48 128.137 173.351 127.587 173.351 126.964C173.351 126.341 173.476 125.794 173.725 125.325C173.982 124.848 174.338 124.482 174.792 124.225C175.254 123.968 175.782 123.84 176.376 123.84C176.948 123.84 177.458 123.965 177.905 124.214C178.353 124.463 178.701 124.815 178.95 125.27C179.2 125.717 179.324 126.234 179.324 126.821ZM178.015 126.425C178.008 125.963 177.843 125.593 177.52 125.314C177.198 125.035 176.798 124.896 176.321 124.896C175.889 124.896 175.518 125.035 175.21 125.314C174.902 125.585 174.719 125.956 174.66 126.425H178.015ZM182.758 130.099C182.282 130.099 181.853 130.015 181.471 129.846C181.097 129.67 180.8 129.435 180.58 129.142C180.36 128.841 180.243 128.508 180.228 128.141H181.526C181.548 128.398 181.669 128.614 181.889 128.79C182.117 128.959 182.399 129.043 182.736 129.043C183.088 129.043 183.36 128.977 183.55 128.845C183.748 128.706 183.847 128.53 183.847 128.317C183.847 128.09 183.737 127.921 183.517 127.811C183.305 127.701 182.964 127.58 182.494 127.448C182.04 127.323 181.669 127.202 181.383 127.085C181.097 126.968 180.848 126.788 180.635 126.546C180.43 126.304 180.327 125.985 180.327 125.589C180.327 125.266 180.423 124.973 180.613 124.709C180.804 124.438 181.075 124.225 181.427 124.071C181.787 123.917 182.197 123.84 182.659 123.84C183.349 123.84 183.902 124.016 184.32 124.368C184.746 124.713 184.973 125.186 185.002 125.787H183.748C183.726 125.516 183.616 125.299 183.418 125.138C183.22 124.977 182.953 124.896 182.615 124.896C182.285 124.896 182.032 124.958 181.856 125.083C181.68 125.208 181.592 125.373 181.592 125.578C181.592 125.739 181.651 125.875 181.768 125.985C181.886 126.095 182.029 126.183 182.197 126.249C182.366 126.308 182.615 126.385 182.945 126.48C183.385 126.597 183.745 126.718 184.023 126.843C184.309 126.96 184.555 127.136 184.76 127.371C184.966 127.606 185.072 127.917 185.079 128.306C185.079 128.651 184.984 128.959 184.793 129.23C184.603 129.501 184.331 129.714 183.979 129.868C183.635 130.022 183.228 130.099 182.758 130.099Z"></path>
<path fill-opacity="0.75" fill="white" d="M108.528 143.063C107.946 143.063 107.409 142.928 106.917 142.658C106.431 142.382 106.044 142.001 105.756 141.515C105.474 141.023 105.333 140.471 105.333 139.859C105.333 139.247 105.474 138.698 105.756 138.212C106.044 137.726 106.431 137.348 106.917 137.078C107.409 136.802 107.946 136.664 108.528 136.664C109.116 136.664 109.653 136.802 110.139 137.078C110.631 137.348 111.018 137.726 111.3 138.212C111.582 138.698 111.723 139.247 111.723 139.859C111.723 140.471 111.582 141.023 111.3 141.515C111.018 142.001 110.631 142.382 110.139 142.658C109.653 142.928 109.116 143.063 108.528 143.063ZM108.528 142.172C108.942 142.172 109.311 142.079 109.635 141.893C109.959 141.701 110.211 141.431 110.391 141.083C110.577 140.729 110.67 140.321 110.67 139.859C110.67 139.397 110.577 138.992 110.391 138.644C110.211 138.296 109.959 138.029 109.635 137.843C109.311 137.657 108.942 137.564 108.528 137.564C108.114 137.564 107.745 137.657 107.421 137.843C107.097 138.029 106.842 138.296 106.656 138.644C106.476 138.992 106.386 139.397 106.386 139.859C106.386 140.321 106.476 140.729 106.656 141.083C106.842 141.431 107.097 141.701 107.421 141.893C107.745 142.079 108.114 142.172 108.528 142.172ZM115.235 137.96C115.625 137.96 115.973 138.041 116.279 138.203C116.591 138.365 116.834 138.605 117.008 138.923C117.182 139.241 117.269 139.625 117.269 140.075V143H116.252V140.228C116.252 139.784 116.141 139.445 115.919 139.211C115.697 138.971 115.394 138.851 115.01 138.851C114.626 138.851 114.32 138.971 114.092 139.211C113.87 139.445 113.759 139.784 113.759 140.228V143H112.733V138.041H113.759V138.608C113.927 138.404 114.14 138.245 114.398 138.131C114.662 138.017 114.941 137.96 115.235 137.96ZM119.603 136.34V143H118.577V136.34H119.603ZM125.414 138.041L122.372 145.331H121.31L122.318 142.919L120.365 138.041H121.508L122.903 141.821L124.352 138.041H125.414ZM129.724 138.878V141.623C129.724 141.809 129.766 141.944 129.85 142.028C129.94 142.106 130.09 142.145 130.3 142.145H130.93V143H130.12C129.658 143 129.304 142.892 129.058 142.676C128.812 142.46 128.689 142.109 128.689 141.623V138.878H128.104V138.041H128.689V136.808H129.724V138.041H130.93V138.878H129.724ZM134.44 137.96C134.818 137.96 135.154 138.041 135.448 138.203C135.748 138.365 135.982 138.605 136.15 138.923C136.324 139.241 136.411 139.625 136.411 140.075V143H135.394V140.228C135.394 139.784 135.283 139.445 135.061 139.211C134.839 138.971 134.536 138.851 134.152 138.851C133.768 138.851 133.462 138.971 133.234 139.211C133.012 139.445 132.901 139.784 132.901 140.228V143H131.875V136.34H132.901V138.617C133.075 138.407 133.294 138.245 133.558 138.131C133.828 138.017 134.122 137.96 134.44 137.96ZM142.265 140.399C142.265 140.585 142.253 140.753 142.229 140.903H138.44C138.47 141.299 138.617 141.617 138.881 141.857C139.145 142.097 139.469 142.217 139.853 142.217C140.405 142.217 140.795 141.986 141.023 141.524H142.13C141.98 141.98 141.707 142.355 141.311 142.649C140.921 142.937 140.435 143.081 139.853 143.081C139.379 143.081 138.953 142.976 138.575 142.766C138.203 142.55 137.909 142.25 137.693 141.866C137.483 141.476 137.378 141.026 137.378 140.516C137.378 140.006 137.48 139.559 137.684 139.175C137.894 138.785 138.185 138.485 138.557 138.275C138.935 138.065 139.367 137.96 139.853 137.96C140.321 137.96 140.738 138.062 141.104 138.266C141.47 138.47 141.755 138.758 141.959 139.13C142.163 139.496 142.265 139.919 142.265 140.399ZM141.194 140.075C141.188 139.697 141.053 139.394 140.789 139.166C140.525 138.938 140.198 138.824 139.808 138.824C139.454 138.824 139.151 138.938 138.899 139.166C138.647 139.388 138.497 139.691 138.449 140.075H141.194ZM147.413 143.081C147.023 143.081 146.672 143.012 146.36 142.874C146.054 142.73 145.811 142.538 145.631 142.298C145.451 142.052 145.355 141.779 145.343 141.479H146.405C146.423 141.689 146.522 141.866 146.702 142.01C146.888 142.148 147.119 142.217 147.395 142.217C147.683 142.217 147.905 142.163 148.061 142.055C148.223 141.941 148.304 141.797 148.304 141.623C148.304 141.437 148.214 141.299 148.034 141.209C147.86 141.119 147.581 141.02 147.197 140.912C146.825 140.81 146.522 140.711 146.288 140.615C146.054 140.519 145.85 140.372 145.676 140.174C145.508 139.976 145.424 139.715 145.424 139.391C145.424 139.127 145.502 138.887 145.658 138.671C145.814 138.449 146.036 138.275 146.324 138.149C146.618 138.023 146.954 137.96 147.332 137.96C147.896 137.96 148.349 138.104 148.691 138.392C149.039 138.674 149.225 139.061 149.249 139.553H148.223C148.205 139.331 148.115 139.154 147.953 139.022C147.791 138.89 147.572 138.824 147.296 138.824C147.026 138.824 146.819 138.875 146.675 138.977C146.531 139.079 146.459 139.214 146.459 139.382C146.459 139.514 146.507 139.625 146.603 139.715C146.699 139.805 146.816 139.877 146.954 139.931C147.092 139.979 147.296 140.042 147.566 140.12C147.926 140.216 148.22 140.315 148.448 140.417C148.682 140.513 148.883 140.657 149.051 140.849C149.219 141.041 149.306 141.296 149.312 141.614C149.312 141.896 149.234 142.148 149.078 142.37C148.922 142.592 148.7 142.766 148.412 142.892C148.13 143.018 147.797 143.081 147.413 143.081ZM154.884 138.041L151.842 145.331H150.78L151.788 142.919L149.835 138.041H150.978L152.373 141.821L153.822 138.041H154.884ZM157.458 143.081C157.068 143.081 156.717 143.012 156.405 142.874C156.099 142.73 155.856 142.538 155.676 142.298C155.496 142.052 155.4 141.779 155.388 141.479H156.45C156.468 141.689 156.567 141.866 156.747 142.01C156.933 142.148 157.164 142.217 157.44 142.217C157.728 142.217 157.95 142.163 158.106 142.055C158.268 141.941 158.349 141.797 158.349 141.623C158.349 141.437 158.259 141.299 158.079 141.209C157.905 141.119 157.626 141.02 157.242 140.912C156.87 140.81 156.567 140.711 156.333 140.615C156.099 140.519 155.895 140.372 155.721 140.174C155.553 139.976 155.469 139.715 155.469 139.391C155.469 139.127 155.547 138.887 155.703 138.671C155.859 138.449 156.081 138.275 156.369 138.149C156.663 138.023 156.999 137.96 157.377 137.96C157.941 137.96 158.394 138.104 158.736 138.392C159.084 138.674 159.27 139.061 159.294 139.553H158.268C158.25 139.331 158.16 139.154 157.998 139.022C157.836 138.89 157.617 138.824 157.341 138.824C157.071 138.824 156.864 138.875 156.72 138.977C156.576 139.079 156.504 139.214 156.504 139.382C156.504 139.514 156.552 139.625 156.648 139.715C156.744 139.805 156.861 139.877 156.999 139.931C157.137 139.979 157.341 140.042 157.611 140.12C157.971 140.216 158.265 140.315 158.493 140.417C158.727 140.513 158.928 140.657 159.096 140.849C159.264 141.041 159.351 141.296 159.357 141.614C159.357 141.896 159.279 142.148 159.123 142.37C158.967 142.592 158.745 142.766 158.457 142.892C158.175 143.018 157.842 143.081 157.458 143.081ZM161.663 138.878V141.623C161.663 141.809 161.705 141.944 161.789 142.028C161.879 142.106 162.029 142.145 162.239 142.145H162.869V143H162.059C161.597 143 161.243 142.892 160.997 142.676C160.751 142.46 160.628 142.109 160.628 141.623V138.878H160.043V138.041H160.628V136.808H161.663V138.041H162.869V138.878H161.663ZM168.36 140.399C168.36 140.585 168.348 140.753 168.324 140.903H164.535C164.565 141.299 164.712 141.617 164.976 141.857C165.24 142.097 165.564 142.217 165.948 142.217C166.5 142.217 166.89 141.986 167.118 141.524H168.225C168.075 141.98 167.802 142.355 167.406 142.649C167.016 142.937 166.53 143.081 165.948 143.081C165.474 143.081 165.048 142.976 164.67 142.766C164.298 142.55 164.004 142.25 163.788 141.866C163.578 141.476 163.473 141.026 163.473 140.516C163.473 140.006 163.575 139.559 163.779 139.175C163.989 138.785 164.28 138.485 164.652 138.275C165.03 138.065 165.462 137.96 165.948 137.96C166.416 137.96 166.833 138.062 167.199 138.266C167.565 138.47 167.85 138.758 168.054 139.13C168.258 139.496 168.36 139.919 168.36 140.399ZM167.289 140.075C167.283 139.697 167.148 139.394 166.884 139.166C166.62 138.938 166.293 138.824 165.903 138.824C165.549 138.824 165.246 138.938 164.994 139.166C164.742 139.388 164.592 139.691 164.544 140.075H167.289ZM175.372 137.96C175.762 137.96 176.11 138.041 176.416 138.203C176.728 138.365 176.971 138.605 177.145 138.923C177.325 139.241 177.415 139.625 177.415 140.075V143H176.398V140.228C176.398 139.784 176.287 139.445 176.065 139.211C175.843 138.971 175.54 138.851 175.156 138.851C174.772 138.851 174.466 138.971 174.238 139.211C174.016 139.445 173.905 139.784 173.905 140.228V143H172.888V140.228C172.888 139.784 172.777 139.445 172.555 139.211C172.333 138.971 172.03 138.851 171.646 138.851C171.262 138.851 170.956 138.971 170.728 139.211C170.506 139.445 170.395 139.784 170.395 140.228V143H169.369V138.041H170.395V138.608C170.563 138.404 170.776 138.245 171.034 138.131C171.292 138.017 171.568 137.96 171.862 137.96C172.258 137.96 172.612 138.044 172.924 138.212C173.236 138.38 173.476 138.623 173.644 138.941C173.794 138.641 174.028 138.404 174.346 138.23C174.664 138.05 175.006 137.96 175.372 137.96ZM105.333 153.498C105.333 153 105.435 152.559 105.639 152.175C105.849 151.791 106.131 151.494 106.485 151.284C106.845 151.068 107.244 150.96 107.682 150.96C108.006 150.96 108.324 151.032 108.636 151.176C108.954 151.314 109.206 151.5 109.392 151.734V149.34H110.427V156H109.392V155.253C109.224 155.493 108.99 155.691 108.69 155.847C108.396 156.003 108.057 156.081 107.673 156.081C107.241 156.081 106.845 155.973 106.485 155.757C106.131 155.535 105.849 155.229 105.639 154.839C105.435 154.443 105.333 153.996 105.333 153.498ZM109.392 153.516C109.392 153.174 109.32 152.877 109.176 152.625C109.038 152.373 108.855 152.181 108.627 152.049C108.399 151.917 108.153 151.851 107.889 151.851C107.625 151.851 107.379 151.917 107.151 152.049C106.923 152.175 106.737 152.364 106.593 152.616C106.455 152.862 106.386 153.156 106.386 153.498C106.386 153.84 106.455 154.14 106.593 154.398C106.737 154.656 106.923 154.854 107.151 154.992C107.385 155.124 107.631 155.19 107.889 155.19C108.153 155.19 108.399 155.124 108.627 154.992C108.855 154.86 109.038 154.668 109.176 154.416C109.32 154.158 109.392 153.858 109.392 153.516ZM112.297 150.384C112.111 150.384 111.955 150.321 111.829 150.195C111.703 150.069 111.64 149.913 111.64 149.727C111.64 149.541 111.703 149.385 111.829 149.259C111.955 149.133 112.111 149.07 112.297 149.07C112.477 149.07 112.63 149.133 112.756 149.259C112.882 149.385 112.945 149.541 112.945 149.727C112.945 149.913 112.882 150.069 112.756 150.195C112.63 150.321 112.477 150.384 112.297 150.384ZM112.801 151.041V156H111.775V151.041H112.801ZM115.174 151.761C115.324 151.509 115.522 151.314 115.768 151.176C116.02 151.032 116.317 150.96 116.659 150.96V152.022H116.398C115.996 152.022 115.69 152.124 115.48 152.328C115.276 152.532 115.174 152.886 115.174 153.39V156H114.148V151.041H115.174V151.761ZM122.147 153.399C122.147 153.585 122.135 153.753 122.111 153.903H118.322C118.352 154.299 118.499 154.617 118.763 154.857C119.027 155.097 119.351 155.217 119.735 155.217C120.287 155.217 120.677 154.986 120.905 154.524H122.012C121.862 154.98 121.589 155.355 121.193 155.649C120.803 155.937 120.317 156.081 119.735 156.081C119.261 156.081 118.835 155.976 118.457 155.766C118.085 155.55 117.791 155.25 117.575 154.866C117.365 154.476 117.26 154.026 117.26 153.516C117.26 153.006 117.362 152.559 117.566 152.175C117.776 151.785 118.067 151.485 118.439 151.275C118.817 151.065 119.249 150.96 119.735 150.96C120.203 150.96 120.62 151.062 120.986 151.266C121.352 151.47 121.637 151.758 121.841 152.13C122.045 152.496 122.147 152.919 122.147 153.399ZM121.076 153.075C121.07 152.697 120.935 152.394 120.671 152.166C120.407 151.938 120.08 151.824 119.69 151.824C119.336 151.824 119.033 151.938 118.781 152.166C118.529 152.388 118.379 152.691 118.331 153.075H121.076ZM122.814 153.516C122.814 153.006 122.916 152.559 123.12 152.175C123.33 151.785 123.618 151.485 123.984 151.275C124.35 151.065 124.77 150.96 125.244 150.96C125.844 150.96 126.339 151.104 126.729 151.392C127.125 151.674 127.392 152.079 127.53 152.607H126.423C126.333 152.361 126.189 152.169 125.991 152.031C125.793 151.893 125.544 151.824 125.244 151.824C124.824 151.824 124.488 151.974 124.236 152.274C123.99 152.568 123.867 152.982 123.867 153.516C123.867 154.05 123.99 154.467 124.236 154.767C124.488 155.067 124.824 155.217 125.244 155.217C125.838 155.217 126.231 154.956 126.423 154.434H127.53C127.386 154.938 127.116 155.34 126.72 155.64C126.324 155.934 125.832 156.081 125.244 156.081C124.77 156.081 124.35 155.976 123.984 155.766C123.618 155.55 123.33 155.25 123.12 154.866C122.916 154.476 122.814 154.026 122.814 153.516ZM129.75 151.878V154.623C129.75 154.809 129.792 154.944 129.876 155.028C129.966 155.106 130.116 155.145 130.326 155.145H130.956V156H130.146C129.684 156 129.33 155.892 129.084 155.676C128.838 155.46 128.715 155.109 128.715 154.623V151.878H128.13V151.041H128.715V149.808H129.75V151.041H130.956V151.878H129.75ZM134.053 156.081C133.585 156.081 133.162 155.976 132.784 155.766C132.406 155.55 132.109 155.25 131.893 154.866C131.677 154.476 131.569 154.026 131.569 153.516C131.569 153.012 131.68 152.565 131.902 152.175C132.124 151.785 132.427 151.485 132.811 151.275C133.195 151.065 133.624 150.96 134.098 150.96C134.572 150.96 135.001 151.065 135.385 151.275C135.769 151.485 136.072 151.785 136.294 152.175C136.516 152.565 136.627 153.012 136.627 153.516C136.627 154.02 136.513 154.467 136.285 154.857C136.057 155.247 135.745 155.55 135.349 155.766C134.959 155.976 134.527 156.081 134.053 156.081ZM134.053 155.19C134.317 155.19 134.563 155.127 134.791 155.001C135.025 154.875 135.214 154.686 135.358 154.434C135.502 154.182 135.574 153.876 135.574 153.516C135.574 153.156 135.505 152.853 135.367 152.607C135.229 152.355 135.046 152.166 134.818 152.04C134.59 151.914 134.344 151.851 134.08 151.851C133.816 151.851 133.57 151.914 133.342 152.04C133.12 152.166 132.943 152.355 132.811 152.607C132.679 152.853 132.613 153.156 132.613 153.516C132.613 154.05 132.748 154.464 133.018 154.758C133.294 155.046 133.639 155.19 134.053 155.19ZM138.667 151.761C138.817 151.509 139.015 151.314 139.261 151.176C139.513 151.032 139.81 150.96 140.152 150.96V152.022H139.891C139.489 152.022 139.183 152.124 138.973 152.328C138.769 152.532 138.667 152.886 138.667 153.39V156H137.641V151.041H138.667V151.761ZM141.617 150.384C141.431 150.384 141.275 150.321 141.149 150.195C141.023 150.069 140.96 149.913 140.96 149.727C140.96 149.541 141.023 149.385 141.149 149.259C141.275 149.133 141.431 149.07 141.617 149.07C141.797 149.07 141.95 149.133 142.076 149.259C142.202 149.385 142.265 149.541 142.265 149.727C142.265 149.913 142.202 150.069 142.076 150.195C141.95 150.321 141.797 150.384 141.617 150.384ZM142.121 151.041V156H141.095V151.041H142.121ZM148.013 153.399C148.013 153.585 148.001 153.753 147.977 153.903H144.188C144.218 154.299 144.365 154.617 144.629 154.857C144.893 155.097 145.217 155.217 145.601 155.217C146.153 155.217 146.543 154.986 146.771 154.524H147.878C147.728 154.98 147.455 155.355 147.059 155.649C146.669 155.937 146.183 156.081 145.601 156.081C145.127 156.081 144.701 155.976 144.323 155.766C143.951 155.55 143.657 155.25 143.441 154.866C143.231 154.476 143.126 154.026 143.126 153.516C143.126 153.006 143.228 152.559 143.432 152.175C143.642 151.785 143.933 151.485 144.305 151.275C144.683 151.065 145.115 150.96 145.601 150.96C146.069 150.96 146.486 151.062 146.852 151.266C147.218 151.47 147.503 151.758 147.707 152.13C147.911 152.496 148.013 152.919 148.013 153.399ZM146.942 153.075C146.936 152.697 146.801 152.394 146.537 152.166C146.273 151.938 145.946 151.824 145.556 151.824C145.202 151.824 144.899 151.938 144.647 152.166C144.395 152.388 144.245 152.691 144.197 153.075H146.942ZM150.823 156.081C150.433 156.081 150.082 156.012 149.77 155.874C149.464 155.73 149.221 155.538 149.041 155.298C148.861 155.052 148.765 154.779 148.753 154.479H149.815C149.833 154.689 149.932 154.866 150.112 155.01C150.298 155.148 150.529 155.217 150.805 155.217C151.093 155.217 151.315 155.163 151.471 155.055C151.633 154.941 151.714 154.797 151.714 154.623C151.714 154.437 151.624 154.299 151.444 154.209C151.27 154.119 150.991 154.02 150.607 153.912C150.235 153.81 149.932 153.711 149.698 153.615C149.464 153.519 149.26 153.372 149.086 153.174C148.918 152.976 148.834 152.715 148.834 152.391C148.834 152.127 148.912 151.887 149.068 151.671C149.224 151.449 149.446 151.275 149.734 151.149C150.028 151.023 150.364 150.96 150.742 150.96C151.306 150.96 151.759 151.104 152.101 151.392C152.449 151.674 152.635 152.061 152.659 152.553H151.633C151.615 152.331 151.525 152.154 151.363 152.022C151.201 151.89 150.982 151.824 150.706 151.824C150.436 151.824 150.229 151.875 150.085 151.977C149.941 152.079 149.869 152.214 149.869 152.382C149.869 152.514 149.917 152.625 150.013 152.715C150.109 152.805 150.226 152.877 150.364 152.931C150.502 152.979 150.706 153.042 150.976 153.12C151.336 153.216 151.63 153.315 151.858 153.417C152.092 153.513 152.293 153.657 152.461 153.849C152.629 154.041 152.716 154.296 152.722 154.614C152.722 154.896 152.644 155.148 152.488 155.37C152.332 155.592 152.11 155.766 151.822 155.892C151.54 156.018 151.207 156.081 150.823 156.081ZM162.828 151.041L161.289 156H160.209L159.21 152.337L158.211 156H157.131L155.583 151.041H156.627L157.662 155.028L158.715 151.041H159.786L160.794 155.01L161.82 151.041H162.828ZM164.117 150.384C163.931 150.384 163.775 150.321 163.649 150.195C163.523 150.069 163.46 149.913 163.46 149.727C163.46 149.541 163.523 149.385 163.649 149.259C163.775 149.133 163.931 149.07 164.117 149.07C164.297 149.07 164.45 149.133 164.576 149.259C164.702 149.385 164.765 149.541 164.765 149.727C164.765 149.913 164.702 150.069 164.576 150.195C164.45 150.321 164.297 150.384 164.117 150.384ZM164.621 151.041V156H163.595V151.041H164.621ZM166.994 149.34V156H165.968V149.34H166.994ZM169.367 149.34V156H168.341V149.34H169.367ZM174.078 151.779C174.252 151.539 174.489 151.344 174.789 151.194C175.095 151.038 175.434 150.96 175.806 150.96C176.244 150.96 176.64 151.065 176.994 151.275C177.348 151.485 177.627 151.785 177.831 152.175C178.035 152.559 178.137 153 178.137 153.498C178.137 153.996 178.035 154.443 177.831 154.839C177.627 155.229 177.345 155.535 176.985 155.757C176.631 155.973 176.238 156.081 175.806 156.081C175.422 156.081 175.08 156.006 174.78 155.856C174.486 155.706 174.252 155.514 174.078 155.28V156H173.052V149.34H174.078V151.779ZM177.093 153.498C177.093 153.156 177.021 152.862 176.877 152.616C176.739 152.364 176.553 152.175 176.319 152.049C176.091 151.917 175.845 151.851 175.581 151.851C175.323 151.851 175.077 151.917 174.843 152.049C174.615 152.181 174.429 152.373 174.285 152.625C174.147 152.877 174.078 153.174 174.078 153.516C174.078 153.858 174.147 154.158 174.285 154.416C174.429 154.668 174.615 154.86 174.843 154.992C175.077 155.124 175.323 155.19 175.581 155.19C175.845 155.19 176.091 155.124 176.319 154.992C176.553 154.854 176.739 154.656 176.877 154.398C177.021 154.14 177.093 153.84 177.093 153.498ZM183.697 153.399C183.697 153.585 183.685 153.753 183.661 153.903H179.872C179.902 154.299 180.049 154.617 180.313 154.857C180.577 155.097 180.901 155.217 181.285 155.217C181.837 155.217 182.227 154.986 182.455 154.524H183.562C183.412 154.98 183.139 155.355 182.743 155.649C182.353 155.937 181.867 156.081 181.285 156.081C180.811 156.081 180.385 155.976 180.007 155.766C179.635 155.55 179.341 155.25 179.125 154.866C178.915 154.476 178.81 154.026 178.81 153.516C178.81 153.006 178.912 152.559 179.116 152.175C179.326 151.785 179.617 151.485 179.989 151.275C180.367 151.065 180.799 150.96 181.285 150.96C181.753 150.96 182.17 151.062 182.536 151.266C182.902 151.47 183.187 151.758 183.391 152.13C183.595 152.496 183.697 152.919 183.697 153.399ZM182.626 153.075C182.62 152.697 182.485 152.394 182.221 152.166C181.957 151.938 181.63 151.824 181.24 151.824C180.886 151.824 180.583 151.938 180.331 152.166C180.079 152.388 179.929 152.691 179.881 153.075H182.626ZM186.702 153.498C186.702 153 186.804 152.559 187.008 152.175C187.218 151.791 187.5 151.494 187.854 151.284C188.214 151.068 188.613 150.96 189.051 150.96C189.375 150.96 189.693 151.032 190.005 151.176C190.323 151.314 190.575 151.5 190.761 151.734V149.34H191.796V156H190.761V155.253C190.593 155.493 190.359 155.691 190.059 155.847C189.765 156.003 189.426 156.081 189.042 156.081C188.61 156.081 188.214 155.973 187.854 155.757C187.5 155.535 187.218 155.229 187.008 154.839C186.804 154.443 186.702 153.996 186.702 153.498ZM190.761 153.516C190.761 153.174 190.689 152.877 190.545 152.625C190.407 152.373 190.224 152.181 189.996 152.049C189.768 151.917 189.522 151.851 189.258 151.851C188.994 151.851 188.748 151.917 188.52 152.049C188.292 152.175 188.106 152.364 187.962 152.616C187.824 152.862 187.755 153.156 187.755 153.498C187.755 153.84 187.824 154.14 187.962 154.398C188.106 154.656 188.292 154.854 188.52 154.992C188.754 155.124 189 155.19 189.258 155.19C189.522 155.19 189.768 155.124 189.996 154.992C190.224 154.86 190.407 154.668 190.545 154.416C190.689 154.158 190.761 153.858 190.761 153.516ZM197.689 153.399C197.689 153.585 197.677 153.753 197.653 153.903H193.864C193.894 154.299 194.041 154.617 194.305 154.857C194.569 155.097 194.893 155.217 195.277 155.217C195.829 155.217 196.219 154.986 196.447 154.524H197.554C197.404 154.98 197.131 155.355 196.735 155.649C196.345 155.937 195.859 156.081 195.277 156.081C194.803 156.081 194.377 155.976 193.999 155.766C193.627 155.55 193.333 155.25 193.117 154.866C192.907 154.476 192.802 154.026 192.802 153.516C192.802 153.006 192.904 152.559 193.108 152.175C193.318 151.785 193.609 151.485 193.981 151.275C194.359 151.065 194.791 150.96 195.277 150.96C195.745 150.96 196.162 151.062 196.528 151.266C196.894 151.47 197.179 151.758 197.383 152.13C197.587 152.496 197.689 152.919 197.689 153.399ZM196.618 153.075C196.612 152.697 196.477 152.394 196.213 152.166C195.949 151.938 195.622 151.824 195.232 151.824C194.878 151.824 194.575 151.938 194.323 152.166C194.071 152.388 193.921 152.691 193.873 153.075H196.618ZM199.724 149.34V156H198.698V149.34H199.724ZM205.616 153.399C205.616 153.585 205.604 153.753 205.58 153.903H201.791C201.821 154.299 201.968 154.617 202.232 154.857C202.496 155.097 202.82 155.217 203.204 155.217C203.756 155.217 204.146 154.986 204.374 154.524H205.481C205.331 154.98 205.058 155.355 204.662 155.649C204.272 155.937 203.786 156.081 203.204 156.081C202.73 156.081 202.304 155.976 201.926 155.766C201.554 155.55 201.26 155.25 201.044 154.866C200.834 154.476 200.729 154.026 200.729 153.516C200.729 153.006 200.831 152.559 201.035 152.175C201.245 151.785 201.536 151.485 201.908 151.275C202.286 151.065 202.718 150.96 203.204 150.96C203.672 150.96 204.089 151.062 204.455 151.266C204.821 151.47 205.106 151.758 205.31 152.13C205.514 152.496 205.616 152.919 205.616 153.399ZM204.545 153.075C204.539 152.697 204.404 152.394 204.14 152.166C203.876 151.938 203.549 151.824 203.159 151.824C202.805 151.824 202.502 151.938 202.25 152.166C201.998 152.388 201.848 152.691 201.8 153.075H204.545ZM207.823 151.878V154.623C207.823 154.809 207.865 154.944 207.949 155.028C208.039 155.106 208.189 155.145 208.399 155.145H209.029V156H208.219C207.757 156 207.403 155.892 207.157 155.676C206.911 155.46 206.788 155.109 206.788 154.623V151.878H206.203V151.041H206.788V149.808H207.823V151.041H209.029V151.878H207.823ZM214.52 153.399C214.52 153.585 214.508 153.753 214.484 153.903H210.695C210.725 154.299 210.872 154.617 211.136 154.857C211.4 155.097 211.724 155.217 212.108 155.217C212.66 155.217 213.05 154.986 213.278 154.524H214.385C214.235 154.98 213.962 155.355 213.566 155.649C213.176 155.937 212.69 156.081 212.108 156.081C211.634 156.081 211.208 155.976 210.83 155.766C210.458 155.55 210.164 155.25 209.948 154.866C209.738 154.476 209.633 154.026 209.633 153.516C209.633 153.006 209.735 152.559 209.939 152.175C210.149 151.785 210.44 151.485 210.812 151.275C211.19 151.065 211.622 150.96 212.108 150.96C212.576 150.96 212.993 151.062 213.359 151.266C213.725 151.47 214.01 151.758 214.214 152.13C214.418 152.496 214.52 152.919 214.52 153.399ZM213.449 153.075C213.443 152.697 213.308 152.394 213.044 152.166C212.78 151.938 212.453 151.824 212.063 151.824C211.709 151.824 211.406 151.938 211.154 152.166C210.902 152.388 210.752 152.691 210.704 153.075H213.449ZM215.187 153.498C215.187 153 215.289 152.559 215.493 152.175C215.703 151.791 215.985 151.494 216.339 151.284C216.699 151.068 217.098 150.96 217.536 150.96C217.86 150.96 218.178 151.032 218.49 151.176C218.808 151.314 219.06 151.5 219.246 151.734V149.34H220.281V156H219.246V155.253C219.078 155.493 218.844 155.691 218.544 155.847C218.25 156.003 217.911 156.081 217.527 156.081C217.095 156.081 216.699 155.973 216.339 155.757C215.985 155.535 215.703 155.229 215.493 154.839C215.289 154.443 215.187 153.996 215.187 153.498ZM219.246 153.516C219.246 153.174 219.174 152.877 219.03 152.625C218.892 152.373 218.709 152.181 218.481 152.049C218.253 151.917 218.007 151.851 217.743 151.851C217.479 151.851 217.233 151.917 217.005 152.049C216.777 152.175 216.591 152.364 216.447 152.616C216.309 152.862 216.24 153.156 216.24 153.498C216.24 153.84 216.309 154.14 216.447 154.398C216.591 154.656 216.777 154.854 217.005 154.992C217.239 155.124 217.485 155.19 217.743 155.19C218.007 155.19 218.253 155.124 218.481 154.992C218.709 154.86 218.892 154.668 219.03 154.416C219.174 154.158 219.246 153.858 219.246 153.516ZM222.754 154.767L221.665 157.251H220.999L221.638 154.767H222.754ZM106.197 163.384C106.011 163.384 105.855 163.321 105.729 163.195C105.603 163.069 105.54 162.913 105.54 162.727C105.54 162.541 105.603 162.385 105.729 162.259C105.855 162.133 106.011 162.07 106.197 162.07C106.377 162.07 106.53 162.133 106.656 162.259C106.782 162.385 106.845 162.541 106.845 162.727C106.845 162.913 106.782 163.069 106.656 163.195C106.53 163.321 106.377 163.384 106.197 163.384ZM106.701 164.041V169H105.675V164.041H106.701ZM110.55 163.96C110.94 163.96 111.288 164.041 111.594 164.203C111.906 164.365 112.149 164.605 112.323 164.923C112.497 165.241 112.584 165.625 112.584 166.075V169H111.567V166.228C111.567 165.784 111.456 165.445 111.234 165.211C111.012 164.971 110.709 164.851 110.325 164.851C109.941 164.851 109.635 164.971 109.407 165.211C109.185 165.445 109.074 165.784 109.074 166.228V169H108.048V164.041H109.074V164.608C109.242 164.404 109.455 164.245 109.713 164.131C109.977 164.017 110.256 163.96 110.55 163.96ZM113.551 166.516C113.551 166.006 113.653 165.559 113.857 165.175C114.067 164.785 114.355 164.485 114.721 164.275C115.087 164.065 115.507 163.96 115.981 163.96C116.581 163.96 117.076 164.104 117.466 164.392C117.862 164.674 118.129 165.079 118.267 165.607H117.16C117.07 165.361 116.926 165.169 116.728 165.031C116.53 164.893 116.281 164.824 115.981 164.824C115.561 164.824 115.225 164.974 114.973 165.274C114.727 165.568 114.604 165.982 114.604 166.516C114.604 167.05 114.727 167.467 114.973 167.767C115.225 168.067 115.561 168.217 115.981 168.217C116.575 168.217 116.968 167.956 117.16 167.434H118.267C118.123 167.938 117.853 168.34 117.457 168.64C117.061 168.934 116.569 169.081 115.981 169.081C115.507 169.081 115.087 168.976 114.721 168.766C114.355 168.55 114.067 168.25 113.857 167.866C113.653 167.476 113.551 167.026 113.551 166.516ZM120.315 162.34V169H119.289V162.34H120.315ZM126.153 164.041V169H125.127V168.415C124.965 168.619 124.752 168.781 124.488 168.901C124.23 169.015 123.954 169.072 123.66 169.072C123.27 169.072 122.919 168.991 122.607 168.829C122.301 168.667 122.058 168.427 121.878 168.109C121.704 167.791 121.617 167.407 121.617 166.957V164.041H122.634V166.804C122.634 167.248 122.745 167.59 122.967 167.83C123.189 168.064 123.492 168.181 123.876 168.181C124.26 168.181 124.563 168.064 124.785 167.83C125.013 167.59 125.127 167.248 125.127 166.804V164.041H126.153ZM127.165 166.498C127.165 166 127.267 165.559 127.471 165.175C127.681 164.791 127.963 164.494 128.317 164.284C128.677 164.068 129.076 163.96 129.514 163.96C129.838 163.96 130.156 164.032 130.468 164.176C130.786 164.314 131.038 164.5 131.224 164.734V162.34H132.259V169H131.224V168.253C131.056 168.493 130.822 168.691 130.522 168.847C130.228 169.003 129.889 169.081 129.505 169.081C129.073 169.081 128.677 168.973 128.317 168.757C127.963 168.535 127.681 168.229 127.471 167.839C127.267 167.443 127.165 166.996 127.165 166.498ZM131.224 166.516C131.224 166.174 131.152 165.877 131.008 165.625C130.87 165.373 130.687 165.181 130.459 165.049C130.231 164.917 129.985 164.851 129.721 164.851C129.457 164.851 129.211 164.917 128.983 165.049C128.755 165.175 128.569 165.364 128.425 165.616C128.287 165.862 128.218 166.156 128.218 166.498C128.218 166.84 128.287 167.14 128.425 167.398C128.569 167.656 128.755 167.854 128.983 167.992C129.217 168.124 129.463 168.19 129.721 168.19C129.985 168.19 130.231 168.124 130.459 167.992C130.687 167.86 130.87 167.668 131.008 167.416C131.152 167.158 131.224 166.858 131.224 166.516ZM134.129 163.384C133.943 163.384 133.787 163.321 133.661 163.195C133.535 163.069 133.472 162.913 133.472 162.727C133.472 162.541 133.535 162.385 133.661 162.259C133.787 162.133 133.943 162.07 134.129 162.07C134.309 162.07 134.462 162.133 134.588 162.259C134.714 162.385 134.777 162.541 134.777 162.727C134.777 162.913 134.714 163.069 134.588 163.195C134.462 163.321 134.309 163.384 134.129 163.384ZM134.633 164.041V169H133.607V164.041H134.633ZM138.482 163.96C138.872 163.96 139.22 164.041 139.526 164.203C139.838 164.365 140.081 164.605 140.255 164.923C140.429 165.241 140.516 165.625 140.516 166.075V169H139.499V166.228C139.499 165.784 139.388 165.445 139.166 165.211C138.944 164.971 138.641 164.851 138.257 164.851C137.873 164.851 137.567 164.971 137.339 165.211C137.117 165.445 137.006 165.784 137.006 166.228V169H135.98V164.041H137.006V164.608C137.174 164.404 137.387 164.245 137.645 164.131C137.909 164.017 138.188 163.96 138.482 163.96ZM143.822 163.96C144.206 163.96 144.545 164.038 144.839 164.194C145.139 164.344 145.373 164.533 145.541 164.761V164.041H146.576V169.081C146.576 169.537 146.48 169.942 146.288 170.296C146.096 170.656 145.817 170.938 145.451 171.142C145.091 171.346 144.659 171.448 144.155 171.448C143.483 171.448 142.925 171.289 142.481 170.971C142.037 170.659 141.785 170.233 141.725 169.693H142.742C142.82 169.951 142.985 170.158 143.237 170.314C143.495 170.476 143.801 170.557 144.155 170.557C144.569 170.557 144.902 170.431 145.154 170.179C145.412 169.927 145.541 169.561 145.541 169.081V168.253C145.367 168.487 145.13 168.685 144.83 168.847C144.536 169.003 144.2 169.081 143.822 169.081C143.39 169.081 142.994 168.973 142.634 168.757C142.28 168.535 141.998 168.229 141.788 167.839C141.584 167.443 141.482 166.996 141.482 166.498C141.482 166 141.584 165.559 141.788 165.175C141.998 164.791 142.28 164.494 142.634 164.284C142.994 164.068 143.39 163.96 143.822 163.96ZM145.541 166.516C145.541 166.174 145.469 165.877 145.325 165.625C145.187 165.373 145.004 165.181 144.776 165.049C144.548 164.917 144.302 164.851 144.038 164.851C143.774 164.851 143.528 164.917 143.3 165.049C143.072 165.175 142.886 165.364 142.742 165.616C142.604 165.862 142.535 166.156 142.535 166.498C142.535 166.84 142.604 167.14 142.742 167.398C142.886 167.656 143.072 167.854 143.3 167.992C143.534 168.124 143.78 168.19 144.038 168.19C144.302 168.19 144.548 168.124 144.776 167.992C145.004 167.86 145.187 167.668 145.325 167.416C145.469 167.158 145.541 166.858 145.541 166.516ZM149.92 166.498C149.92 166 150.022 165.559 150.226 165.175C150.436 164.791 150.718 164.494 151.072 164.284C151.432 164.068 151.828 163.96 152.26 163.96C152.65 163.96 152.989 164.038 153.277 164.194C153.571 164.344 153.805 164.533 153.979 164.761V164.041H155.014V169H153.979V168.262C153.805 168.496 153.568 168.691 153.268 168.847C152.968 169.003 152.626 169.081 152.242 169.081C151.816 169.081 151.426 168.973 151.072 168.757C150.718 168.535 150.436 168.229 150.226 167.839C150.022 167.443 149.92 166.996 149.92 166.498ZM153.979 166.516C153.979 166.174 153.907 165.877 153.763 165.625C153.625 165.373 153.442 165.181 153.214 165.049C152.986 164.917 152.74 164.851 152.476 164.851C152.212 164.851 151.966 164.917 151.738 165.049C151.51 165.175 151.324 165.364 151.18 165.616C151.042 165.862 150.973 166.156 150.973 166.498C150.973 166.84 151.042 167.14 151.18 167.398C151.324 167.656 151.51 167.854 151.738 167.992C151.972 168.124 152.218 168.19 152.476 168.19C152.74 168.19 152.986 168.124 153.214 167.992C153.442 167.86 153.625 167.668 153.763 167.416C153.907 167.158 153.979 166.858 153.979 166.516ZM157.388 164.77C157.562 164.542 157.799 164.35 158.099 164.194C158.399 164.038 158.738 163.96 159.116 163.96C159.548 163.96 159.941 164.068 160.295 164.284C160.655 164.494 160.937 164.791 161.141 165.175C161.345 165.559 161.447 166 161.447 166.498C161.447 166.996 161.345 167.443 161.141 167.839C160.937 168.229 160.655 168.535 160.295 168.757C159.941 168.973 159.548 169.081 159.116 169.081C158.738 169.081 158.402 169.006 158.108 168.856C157.814 168.7 157.574 168.508 157.388 168.28V171.358H156.362V164.041H157.388V164.77ZM160.403 166.498C160.403 166.156 160.331 165.862 160.187 165.616C160.049 165.364 159.863 165.175 159.629 165.049C159.401 164.917 159.155 164.851 158.891 164.851C158.633 164.851 158.387 164.917 158.153 165.049C157.925 165.181 157.739 165.373 157.595 165.625C157.457 165.877 157.388 166.174 157.388 166.516C157.388 166.858 157.457 167.158 157.595 167.416C157.739 167.668 157.925 167.86 158.153 167.992C158.387 168.124 158.633 168.19 158.891 168.19C159.155 168.19 159.401 168.124 159.629 167.992C159.863 167.854 160.049 167.656 160.187 167.398C160.331 167.14 160.403 166.84 160.403 166.498ZM163.487 164.77C163.661 164.542 163.898 164.35 164.198 164.194C164.498 164.038 164.837 163.96 165.215 163.96C165.647 163.96 166.04 164.068 166.394 164.284C166.754 164.494 167.036 164.791 167.24 165.175C167.444 165.559 167.546 166 167.546 166.498C167.546 166.996 167.444 167.443 167.24 167.839C167.036 168.229 166.754 168.535 166.394 168.757C166.04 168.973 165.647 169.081 165.215 169.081C164.837 169.081 164.501 169.006 164.207 168.856C163.913 168.7 163.673 168.508 163.487 168.28V171.358H162.461V164.041H163.487V164.77ZM166.502 166.498C166.502 166.156 166.43 165.862 166.286 165.616C166.148 165.364 165.962 165.175 165.728 165.049C165.5 164.917 165.254 164.851 164.99 164.851C164.732 164.851 164.486 164.917 164.252 165.049C164.024 165.181 163.838 165.373 163.694 165.625C163.556 165.877 163.487 166.174 163.487 166.516C163.487 166.858 163.556 167.158 163.694 167.416C163.838 167.668 164.024 167.86 164.252 167.992C164.486 168.124 164.732 168.19 164.99 168.19C165.254 168.19 165.5 168.124 165.728 167.992C165.962 167.854 166.148 167.656 166.286 167.398C166.43 167.14 166.502 166.84 166.502 166.498ZM170.361 169.081C169.971 169.081 169.62 169.012 169.308 168.874C169.002 168.73 168.759 168.538 168.579 168.298C168.399 168.052 168.303 167.779 168.291 167.479H169.353C169.371 167.689 169.47 167.866 169.65 168.01C169.836 168.148 170.067 168.217 170.343 168.217C170.631 168.217 170.853 168.163 171.009 168.055C171.171 167.941 171.252 167.797 171.252 167.623C171.252 167.437 171.162 167.299 170.982 167.209C170.808 167.119 170.529 167.02 170.145 166.912C169.773 166.81 169.47 166.711 169.236 166.615C169.002 166.519 168.798 166.372 168.624 166.174C168.456 165.976 168.372 165.715 168.372 165.391C168.372 165.127 168.45 164.887 168.606 164.671C168.762 164.449 168.984 164.275 169.272 164.149C169.566 164.023 169.902 163.96 170.28 163.96C170.844 163.96 171.297 164.104 171.639 164.392C171.987 164.674 172.173 165.061 172.197 165.553H171.171C171.153 165.331 171.063 165.154 170.901 165.022C170.739 164.89 170.52 164.824 170.244 164.824C169.974 164.824 169.767 164.875 169.623 164.977C169.479 165.079 169.407 165.214 169.407 165.382C169.407 165.514 169.455 165.625 169.551 165.715C169.647 165.805 169.764 165.877 169.902 165.931C170.04 165.979 170.244 166.042 170.514 166.12C170.874 166.216 171.168 166.315 171.396 166.417C171.63 166.513 171.831 166.657 171.999 166.849C172.167 167.041 172.254 167.296 172.26 167.614C172.26 167.896 172.182 168.148 172.026 168.37C171.87 168.592 171.648 168.766 171.36 168.892C171.078 169.018 170.745 169.081 170.361 169.081ZM173.782 169.063C173.596 169.063 173.44 169 173.314 168.874C173.188 168.748 173.125 168.592 173.125 168.406C173.125 168.22 173.188 168.064 173.314 167.938C173.44 167.812 173.596 167.749 173.782 167.749C173.962 167.749 174.115 167.812 174.241 167.938C174.367 168.064 174.43 168.22 174.43 168.406C174.43 168.592 174.367 168.748 174.241 168.874C174.115 169 173.962 169.063 173.782 169.063Z"></path>
<path stroke-width="0.842105" stroke="white" d="M71.6316 146H68.6842C67.754 146 67 146.754 67 147.684V150.211C67 151.141 67.754 151.895 68.6842 151.895H81.3158C82.246 151.895 83 151.141 83 150.211V147.684C83 146.754 82.246 146 81.3158 146H77.5263"></path>
<path fill="white" d="M78.7891 148.947C78.7891 148.25 79.3546 147.684 80.0522 147.684C80.7498 147.684 81.3154 148.25 81.3154 148.947C81.3154 149.645 80.7498 150.211 80.0522 150.211C79.3546 150.211 78.7891 149.645 78.7891 148.947Z"></path>
<path stroke-linejoin="round" stroke-linecap="round" stroke-width="0.842105" stroke="white" d="M70.7891 143.474C70.7891 144.223 71.0113 144.956 71.4277 145.579C71.8441 146.202 72.4359 146.688 73.1284 146.975C73.8208 147.262 74.5827 147.337 75.3178 147.19C76.0529 147.044 76.7281 146.683 77.2581 146.153C77.7881 145.623 78.149 144.948 78.2952 144.213C78.4414 143.478 78.3664 142.716 78.0796 142.024C77.7927 141.331 77.307 140.739 76.6839 140.323C76.0607 139.906 75.328 139.684 74.5785 139.684H70.7891M70.7891 139.684L72.4733 138M70.7891 139.684L72.4733 141.368"></path>
</svg>
