<svg version="1.1" xmlns="http://www.w3.org/2000/svg" xmlns:xlink="http://www.w3.org/1999/xlink" width="40" height="20" viewBox="0,0,40,20"><g transform="translate(-220,-167)"><g data-paper-data="{&quot;isPaintingLayer&quot;:true}" fill-rule="nonzero" stroke="none" stroke-width="1" stroke-linecap="butt" stroke-linejoin="miter" stroke-miterlimit="10" stroke-dasharray="" stroke-dashoffset="0" style="mix-blend-mode: normal"><path d="M220,187v-20h40v20z" fill="none"></path><path d="M240.444,175.812c0,-0.816 0.188,-1.548 0.564,-2.196c0.384,-0.648 0.9,-1.152 1.548,-1.512c0.656,-0.368 1.372,-0.552 2.148,-0.552c0.888,0 1.676,0.22 2.364,0.66c0.696,0.432 1.2,1.048 1.512,1.848h-1.644c-0.216,-0.44 -0.516,-0.768 -0.9,-0.984c-0.384,-0.216 -0.828,-0.324 -1.332,-0.324c-0.552,0 -1.044,0.124 -1.476,0.372c-0.432,0.248 -0.772,0.604 -1.02,1.068c-0.24,0.464 -0.36,1.004 -0.36,1.62c0,0.616 0.12,1.156 0.36,1.62c0.248,0.464 0.588,0.824 1.02,1.08c0.432,0.248 0.924,0.372 1.476,0.372c0.504,0 0.948,-0.108 1.332,-0.324c0.384,-0.216 0.684,-0.544 0.9,-0.984h1.644c-0.312,0.8 -0.816,1.416 -1.512,1.848c-0.688,0.432 -1.476,0.648 -2.364,0.648c-0.784,0 -1.5,-0.18 -2.148,-0.54c-0.648,-0.368 -1.164,-0.876 -1.548,-1.524c-0.376,-0.648 -0.564,-1.38 -0.564,-2.196z" fill="#ff0000"></path></g></g></svg>