<svg xmlns="http://www.w3.org/2000/svg" fill="none" viewBox="0 0 480 360" height="360" width="480">
<path fill="black" d="M197.44 68.168C196.272 68.168 195.216 67.968 194.272 67.568C193.344 67.168 192.608 66.592 192.064 65.84C191.52 65.088 191.24 64.2 191.224 63.176H194.824C194.872 63.864 195.112 64.408 195.544 64.808C195.992 65.208 196.6 65.408 197.368 65.408C198.152 65.408 198.768 65.224 199.216 64.856C199.664 64.472 199.888 63.976 199.888 63.368C199.888 62.872 199.736 62.464 199.432 62.144C199.128 61.824 198.744 61.576 198.28 61.4C197.832 61.208 197.208 61 196.408 60.776C195.32 60.456 194.432 60.144 193.744 59.84C193.072 59.52 192.488 59.048 191.992 58.424C191.512 57.784 191.272 56.936 191.272 55.88C191.272 54.888 191.52 54.024 192.016 53.288C192.512 52.552 193.208 51.992 194.104 51.608C195 51.208 196.024 51.008 197.176 51.008C198.904 51.008 200.304 51.432 201.376 52.28C202.464 53.112 203.064 54.28 203.176 55.784H199.48C199.448 55.208 199.2 54.736 198.736 54.368C198.288 53.984 197.688 53.792 196.936 53.792C196.28 53.792 195.752 53.96 195.352 54.296C194.968 54.632 194.776 55.12 194.776 55.76C194.776 56.208 194.92 56.584 195.208 56.888C195.512 57.176 195.88 57.416 196.312 57.608C196.76 57.784 197.384 57.992 198.184 58.232C199.272 58.552 200.16 58.872 200.848 59.192C201.536 59.512 202.128 59.992 202.624 60.632C203.12 61.272 203.368 62.112 203.368 63.152C203.368 64.048 203.136 64.88 202.672 65.648C202.208 66.416 201.528 67.032 200.632 67.496C199.736 67.944 198.672 68.168 197.44 68.168ZM210.193 57.464V63.896C210.193 64.344 210.297 64.672 210.505 64.88C210.729 65.072 211.097 65.168 211.609 65.168H213.169V68H211.057C208.225 68 206.809 66.624 206.809 63.872V57.464H205.225V54.704H206.809V51.416H210.193V54.704H213.169V57.464H210.193ZM221.49 68.216C220.21 68.216 219.058 67.936 218.034 67.376C217.01 66.8 216.202 65.992 215.61 64.952C215.034 63.912 214.746 62.712 214.746 61.352C214.746 59.992 215.042 58.792 215.634 57.752C216.242 56.712 217.066 55.912 218.106 55.352C219.146 54.776 220.306 54.488 221.586 54.488C222.866 54.488 224.026 54.776 225.066 55.352C226.106 55.912 226.922 56.712 227.514 57.752C228.122 58.792 228.426 59.992 228.426 61.352C228.426 62.712 228.114 63.912 227.49 64.952C226.882 65.992 226.05 66.8 224.994 67.376C223.954 67.936 222.786 68.216 221.49 68.216ZM221.49 65.288C222.098 65.288 222.666 65.144 223.194 64.856C223.738 64.552 224.17 64.104 224.49 63.512C224.81 62.92 224.97 62.2 224.97 61.352C224.97 60.088 224.634 59.12 223.962 58.448C223.306 57.76 222.498 57.416 221.538 57.416C220.578 57.416 219.77 57.76 219.114 58.448C218.474 59.12 218.154 60.088 218.154 61.352C218.154 62.616 218.466 63.592 219.09 64.28C219.73 64.952 220.53 65.288 221.49 65.288ZM234.25 56.768C234.682 56.064 235.242 55.512 235.93 55.112C236.634 54.712 237.434 54.512 238.33 54.512V58.04H237.442C236.386 58.04 235.586 58.288 235.042 58.784C234.514 59.28 234.25 60.144 234.25 61.376V68H230.89V54.704H234.25V56.768ZM239.729 61.304C239.729 59.96 239.993 58.768 240.521 57.728C241.066 56.688 241.794 55.888 242.706 55.328C243.634 54.768 244.666 54.488 245.802 54.488C246.794 54.488 247.658 54.688 248.394 55.088C249.146 55.488 249.746 55.992 250.194 56.6V54.704H253.578V68H250.194V66.056C249.762 66.68 249.162 67.2 248.394 67.616C247.642 68.016 246.77 68.216 245.778 68.216C244.658 68.216 243.634 67.928 242.706 67.352C241.794 66.776 241.066 65.968 240.521 64.928C239.993 63.872 239.729 62.664 239.729 61.304ZM250.194 61.352C250.194 60.536 250.034 59.84 249.714 59.264C249.394 58.672 248.962 58.224 248.418 57.92C247.874 57.6 247.29 57.44 246.666 57.44C246.042 57.44 245.466 57.592 244.938 57.896C244.41 58.2 243.978 58.648 243.642 59.24C243.322 59.816 243.162 60.504 243.162 61.304C243.162 62.104 243.322 62.808 243.642 63.416C243.978 64.008 244.41 64.464 244.938 64.784C245.482 65.104 246.058 65.264 246.666 65.264C247.29 65.264 247.874 65.112 248.418 64.808C248.962 64.488 249.394 64.04 249.714 63.464C250.034 62.872 250.194 62.168 250.194 61.352ZM262.067 54.488C263.059 54.488 263.931 54.688 264.683 55.088C265.435 55.472 266.027 55.976 266.459 56.6V54.704H269.843V68.096C269.843 69.328 269.595 70.424 269.099 71.384C268.603 72.36 267.859 73.128 266.867 73.688C265.875 74.264 264.675 74.552 263.267 74.552C261.379 74.552 259.827 74.112 258.611 73.232C257.411 72.352 256.731 71.152 256.571 69.632H259.907C260.083 70.24 260.459 70.72 261.035 71.072C261.627 71.44 262.339 71.624 263.171 71.624C264.147 71.624 264.939 71.328 265.547 70.736C266.155 70.16 266.459 69.28 266.459 68.096V66.032C266.027 66.656 265.427 67.176 264.659 67.592C263.907 68.008 263.043 68.216 262.067 68.216C260.947 68.216 259.923 67.928 258.995 67.352C258.067 66.776 257.331 65.968 256.787 64.928C256.259 63.872 255.995 62.664 255.995 61.304C255.995 59.96 256.259 58.768 256.787 57.728C257.331 56.688 258.059 55.888 258.971 55.328C259.899 54.768 260.931 54.488 262.067 54.488ZM266.459 61.352C266.459 60.536 266.299 59.84 265.979 59.264C265.659 58.672 265.227 58.224 264.683 57.92C264.139 57.6 263.555 57.44 262.931 57.44C262.307 57.44 261.731 57.592 261.203 57.896C260.675 58.2 260.243 58.648 259.907 59.24C259.587 59.816 259.427 60.504 259.427 61.304C259.427 62.104 259.587 62.808 259.907 63.416C260.243 64.008 260.675 64.464 261.203 64.784C261.747 65.104 262.323 65.264 262.931 65.264C263.555 65.264 264.139 65.112 264.683 64.808C265.227 64.488 265.659 64.04 265.979 63.464C266.299 62.872 266.459 62.168 266.459 61.352ZM285.485 61.064C285.485 61.544 285.453 61.976 285.389 62.36H275.669C275.749 63.32 276.085 64.072 276.677 64.616C277.269 65.16 277.997 65.432 278.861 65.432C280.109 65.432 280.997 64.896 281.525 63.824H285.149C284.765 65.104 284.029 66.16 282.941 66.992C281.853 67.808 280.517 68.216 278.933 68.216C277.653 68.216 276.501 67.936 275.477 67.376C274.469 66.8 273.677 65.992 273.101 64.952C272.541 63.912 272.261 62.712 272.261 61.352C272.261 59.976 272.541 58.768 273.101 57.728C273.661 56.688 274.445 55.888 275.453 55.328C276.461 54.768 277.621 54.488 278.933 54.488C280.197 54.488 281.325 54.76 282.317 55.304C283.325 55.848 284.101 56.624 284.645 57.632C285.205 58.624 285.485 59.768 285.485 61.064ZM282.005 60.104C281.989 59.24 281.677 58.552 281.069 58.04C280.461 57.512 279.717 57.248 278.837 57.248C278.005 57.248 277.301 57.504 276.725 58.016C276.165 58.512 275.821 59.208 275.693 60.104H282.005Z"></path>
<path fill="black" d="M193.344 94.224H197.024V96H191.104V84.832H193.344V94.224ZM202.384 96.144C201.53 96.144 200.762 95.9573 200.08 95.584C199.397 95.2 198.858 94.6613 198.464 93.968C198.08 93.2747 197.888 92.4747 197.888 91.568C197.888 90.6613 198.085 89.8613 198.48 89.168C198.885 88.4747 199.434 87.9413 200.128 87.568C200.821 87.184 201.594 86.992 202.448 86.992C203.301 86.992 204.074 87.184 204.768 87.568C205.461 87.9413 206.005 88.4747 206.4 89.168C206.805 89.8613 207.008 90.6613 207.008 91.568C207.008 92.4747 206.8 93.2747 206.384 93.968C205.978 94.6613 205.424 95.2 204.72 95.584C204.026 95.9573 203.248 96.144 202.384 96.144ZM202.384 94.192C202.789 94.192 203.168 94.096 203.52 93.904C203.882 93.7013 204.17 93.4027 204.384 93.008C204.597 92.6133 204.704 92.1333 204.704 91.568C204.704 90.7253 204.48 90.08 204.032 89.632C203.594 89.1733 203.056 88.944 202.416 88.944C201.776 88.944 201.237 89.1733 200.8 89.632C200.373 90.08 200.16 90.7253 200.16 91.568C200.16 92.4107 200.368 93.0613 200.784 93.52C201.21 93.968 201.744 94.192 202.384 94.192ZM208.075 91.568C208.075 90.6507 208.262 89.8507 208.635 89.168C209.008 88.4747 209.526 87.9413 210.187 87.568C210.848 87.184 211.606 86.992 212.459 86.992C213.558 86.992 214.464 87.2693 215.179 87.824C215.904 88.368 216.39 89.136 216.635 90.128H214.219C214.091 89.744 213.872 89.4453 213.563 89.232C213.264 89.008 212.891 88.896 212.443 88.896C211.803 88.896 211.296 89.1307 210.923 89.6C210.55 90.0587 210.363 90.7147 210.363 91.568C210.363 92.4107 210.55 93.0667 210.923 93.536C211.296 93.9947 211.803 94.224 212.443 94.224C213.35 94.224 213.942 93.8187 214.219 93.008H216.635C216.39 93.968 215.904 94.7307 215.179 95.296C214.454 95.8613 213.547 96.144 212.459 96.144C211.606 96.144 210.848 95.9573 210.187 95.584C209.526 95.2 209.008 94.6667 208.635 93.984C208.262 93.2907 208.075 92.4853 208.075 91.568ZM217.7 91.536C217.7 90.64 217.876 89.8453 218.228 89.152C218.591 88.4587 219.076 87.9253 219.684 87.552C220.303 87.1787 220.991 86.992 221.748 86.992C222.409 86.992 222.985 87.1253 223.476 87.392C223.977 87.6587 224.377 87.9947 224.676 88.4V87.136H226.932V96H224.676V94.704C224.388 95.12 223.988 95.4667 223.476 95.744C222.975 96.0107 222.393 96.144 221.732 96.144C220.985 96.144 220.303 95.952 219.684 95.568C219.076 95.184 218.591 94.6453 218.228 93.952C217.876 93.248 217.7 92.4427 217.7 91.536ZM224.676 91.568C224.676 91.024 224.569 90.56 224.356 90.176C224.143 89.7813 223.855 89.4827 223.492 89.28C223.129 89.0667 222.74 88.96 222.324 88.96C221.908 88.96 221.524 89.0613 221.172 89.264C220.82 89.4667 220.532 89.7653 220.308 90.16C220.095 90.544 219.988 91.0027 219.988 91.536C219.988 92.0693 220.095 92.5387 220.308 92.944C220.532 93.3387 220.82 93.6427 221.172 93.856C221.535 94.0693 221.919 94.176 222.324 94.176C222.74 94.176 223.129 94.0747 223.492 93.872C223.855 93.6587 224.143 93.36 224.356 92.976C224.569 92.5813 224.676 92.112 224.676 91.568ZM231.36 84.16V96H229.12V84.16H231.36ZM236.809 91.536C236.809 90.64 236.985 89.8453 237.337 89.152C237.7 88.4587 238.191 87.9253 238.809 87.552C239.428 87.1787 240.116 86.992 240.873 86.992C241.449 86.992 241.999 87.12 242.521 87.376C243.044 87.6213 243.46 87.952 243.769 88.368V84.16H246.041V96H243.769V94.688C243.492 95.1253 243.103 95.4773 242.601 95.744C242.1 96.0107 241.519 96.144 240.857 96.144C240.111 96.144 239.428 95.952 238.809 95.568C238.191 95.184 237.7 94.6453 237.337 93.952C236.985 93.248 236.809 92.4427 236.809 91.536ZM243.785 91.568C243.785 91.024 243.679 90.56 243.465 90.176C243.252 89.7813 242.964 89.4827 242.601 89.28C242.239 89.0667 241.849 88.96 241.433 88.96C241.017 88.96 240.633 89.0613 240.281 89.264C239.929 89.4667 239.641 89.7653 239.417 90.16C239.204 90.544 239.097 91.0027 239.097 91.536C239.097 92.0693 239.204 92.5387 239.417 92.944C239.641 93.3387 239.929 93.6427 240.281 93.856C240.644 94.0693 241.028 94.176 241.433 94.176C241.849 94.176 242.239 94.0747 242.601 93.872C242.964 93.6587 243.252 93.36 243.465 92.976C243.679 92.5813 243.785 92.112 243.785 91.568ZM249.365 86.08C248.97 86.08 248.64 85.9573 248.373 85.712C248.117 85.456 247.989 85.1413 247.989 84.768C247.989 84.3947 248.117 84.0853 248.373 83.84C248.64 83.584 248.97 83.456 249.365 83.456C249.76 83.456 250.085 83.584 250.341 83.84C250.608 84.0853 250.741 84.3947 250.741 84.768C250.741 85.1413 250.608 85.456 250.341 85.712C250.085 85.9573 249.76 86.08 249.365 86.08ZM250.469 87.136V96H248.229V87.136H250.469ZM256.074 96.144C255.349 96.144 254.698 96.016 254.122 95.76C253.546 95.4933 253.087 95.136 252.746 94.688C252.415 94.24 252.234 93.744 252.202 93.2H254.458C254.501 93.5413 254.666 93.824 254.954 94.048C255.253 94.272 255.621 94.384 256.058 94.384C256.485 94.384 256.815 94.2987 257.05 94.128C257.295 93.9573 257.418 93.7387 257.418 93.472C257.418 93.184 257.269 92.9707 256.97 92.832C256.682 92.6827 256.218 92.5227 255.578 92.352C254.917 92.192 254.373 92.0267 253.946 91.856C253.53 91.6853 253.167 91.424 252.858 91.072C252.559 90.72 252.41 90.2453 252.41 89.648C252.41 89.1573 252.549 88.7093 252.826 88.304C253.114 87.8987 253.519 87.5787 254.042 87.344C254.575 87.1093 255.199 86.992 255.914 86.992C256.97 86.992 257.813 87.2587 258.442 87.792C259.071 88.3147 259.418 89.024 259.482 89.92H257.338C257.306 89.568 257.157 89.2907 256.89 89.088C256.634 88.8747 256.287 88.768 255.85 88.768C255.445 88.768 255.13 88.8427 254.906 88.992C254.693 89.1413 254.586 89.3493 254.586 89.616C254.586 89.9147 254.735 90.144 255.034 90.304C255.333 90.4533 255.797 90.608 256.426 90.768C257.066 90.928 257.594 91.0933 258.01 91.264C258.426 91.4347 258.783 91.7013 259.082 92.064C259.391 92.416 259.551 92.8853 259.562 93.472C259.562 93.984 259.418 94.4427 259.13 94.848C258.853 95.2533 258.447 95.5733 257.914 95.808C257.391 96.032 256.778 96.144 256.074 96.144ZM266.649 96L263.641 92.224V96H261.401V84.16H263.641V90.896L266.617 87.136H269.529L265.625 91.584L269.561 96H266.649ZM278.429 99.152C277.394 98.1493 276.589 96.8693 276.013 95.312C275.448 93.7547 275.165 92.0853 275.165 90.304C275.165 88.48 275.464 86.768 276.061 85.168C276.658 83.5573 277.528 82.24 278.669 81.216H280.925V81.424C279.752 82.544 278.856 83.888 278.237 85.456C277.629 87.024 277.325 88.64 277.325 90.304C277.325 91.9253 277.613 93.4933 278.189 95.008C278.776 96.512 279.608 97.8187 280.685 98.928V99.152H278.429ZM281.779 90.4C281.779 89.3013 282.024 88.32 282.515 87.456C283.016 86.5813 283.693 85.904 284.547 85.424C285.411 84.9333 286.376 84.688 287.443 84.688C288.691 84.688 289.784 85.008 290.723 85.648C291.661 86.288 292.317 87.1733 292.691 88.304H290.115C289.859 87.7707 289.496 87.3707 289.027 87.104C288.568 86.8373 288.035 86.704 287.427 86.704C286.776 86.704 286.195 86.8587 285.683 87.168C285.181 87.4667 284.787 87.8933 284.499 88.448C284.221 89.0027 284.083 89.6533 284.083 90.4C284.083 91.136 284.221 91.7867 284.499 92.352C284.787 92.9067 285.181 93.3387 285.683 93.648C286.195 93.9467 286.776 94.096 287.427 94.096C288.035 94.096 288.568 93.9627 289.027 93.696C289.496 93.4187 289.859 93.0133 290.115 92.48H292.691C292.317 93.6213 291.661 94.512 290.723 95.152C289.795 95.7813 288.701 96.096 287.443 96.096C286.376 96.096 285.411 95.856 284.547 95.376C283.693 94.8853 283.016 94.208 282.515 93.344C282.024 92.48 281.779 91.4987 281.779 90.4ZM295.596 96.112C295.191 96.112 294.855 95.9893 294.588 95.744C294.332 95.488 294.204 95.1733 294.204 94.8C294.204 94.4267 294.332 94.1173 294.588 93.872C294.855 93.616 295.191 93.488 295.596 93.488C295.991 93.488 296.316 93.616 296.572 93.872C296.828 94.1173 296.956 94.4267 296.956 94.8C296.956 95.1733 296.828 95.488 296.572 95.744C296.316 95.9893 295.991 96.112 295.596 96.112ZM295.596 89.488C295.191 89.488 294.855 89.3653 294.588 89.12C294.332 88.864 294.204 88.5493 294.204 88.176C294.204 87.8027 294.332 87.4933 294.588 87.248C294.855 86.992 295.191 86.864 295.596 86.864C295.991 86.864 296.316 86.992 296.572 87.248C296.828 87.4933 296.956 87.8027 296.956 88.176C296.956 88.5493 296.828 88.864 296.572 89.12C296.316 89.3653 295.991 89.488 295.596 89.488ZM298.231 99.152V98.928C299.308 97.8187 300.135 96.512 300.711 95.008C301.298 93.4933 301.591 91.9253 301.591 90.304C301.591 88.64 301.282 87.024 300.663 85.456C300.055 83.888 299.164 82.544 297.991 81.424V81.216H300.247C301.388 82.24 302.258 83.5573 302.855 85.168C303.452 86.768 303.751 88.48 303.751 90.304C303.751 92.0853 303.463 93.7547 302.887 95.312C302.322 96.8693 301.522 98.1493 300.487 99.152H298.231Z"></path>
<path fill="black" d="M192.079 199.355V207H190.825V199.355H192.079ZM196.783 200.84C197.26 200.84 197.685 200.939 198.059 201.137C198.441 201.335 198.738 201.628 198.95 202.017C199.163 202.406 199.269 202.875 199.269 203.425V207H198.026V203.612C198.026 203.069 197.891 202.655 197.619 202.369C197.348 202.076 196.978 201.929 196.508 201.929C196.039 201.929 195.665 202.076 195.386 202.369C195.115 202.655 194.979 203.069 194.979 203.612V207H193.725V200.939H194.979V201.632C195.185 201.383 195.445 201.188 195.76 201.049C196.083 200.91 196.424 200.84 196.783 200.84ZM203.069 207.099C202.592 207.099 202.163 207.015 201.782 206.846C201.408 206.67 201.111 206.435 200.891 206.142C200.671 205.841 200.554 205.508 200.539 205.141H201.837C201.859 205.398 201.98 205.614 202.2 205.79C202.427 205.959 202.71 206.043 203.047 206.043C203.399 206.043 203.67 205.977 203.861 205.845C204.059 205.706 204.158 205.53 204.158 205.317C204.158 205.09 204.048 204.921 203.828 204.811C203.615 204.701 203.274 204.58 202.805 204.448C202.35 204.323 201.98 204.202 201.694 204.085C201.408 203.968 201.159 203.788 200.946 203.546C200.741 203.304 200.638 202.985 200.638 202.589C200.638 202.266 200.733 201.973 200.924 201.709C201.115 201.438 201.386 201.225 201.738 201.071C202.097 200.917 202.508 200.84 202.97 200.84C203.659 200.84 204.213 201.016 204.631 201.368C205.056 201.713 205.284 202.186 205.313 202.787H204.059C204.037 202.516 203.927 202.299 203.729 202.138C203.531 201.977 203.263 201.896 202.926 201.896C202.596 201.896 202.343 201.958 202.167 202.083C201.991 202.208 201.903 202.373 201.903 202.578C201.903 202.739 201.962 202.875 202.079 202.985C202.196 203.095 202.339 203.183 202.508 203.249C202.677 203.308 202.926 203.385 203.256 203.48C203.696 203.597 204.055 203.718 204.334 203.843C204.62 203.96 204.866 204.136 205.071 204.371C205.276 204.606 205.383 204.917 205.39 205.306C205.39 205.651 205.295 205.959 205.104 206.23C204.913 206.501 204.642 206.714 204.29 206.868C203.945 207.022 203.538 207.099 203.069 207.099ZM208.208 201.962V205.317C208.208 205.544 208.259 205.709 208.362 205.812C208.472 205.907 208.655 205.955 208.912 205.955H209.682V207H208.692C208.127 207 207.695 206.868 207.394 206.604C207.093 206.34 206.943 205.911 206.943 205.317V201.962H206.228V200.939H206.943V199.432H208.208V200.939H209.682V201.962H208.208ZM210.42 203.942C210.42 203.333 210.544 202.794 210.794 202.325C211.05 201.856 211.395 201.493 211.828 201.236C212.268 200.972 212.752 200.84 213.28 200.84C213.756 200.84 214.171 200.935 214.523 201.126C214.882 201.309 215.168 201.54 215.381 201.819V200.939H216.646V207H215.381V206.098C215.168 206.384 214.878 206.622 214.512 206.813C214.145 207.004 213.727 207.099 213.258 207.099C212.737 207.099 212.26 206.967 211.828 206.703C211.395 206.432 211.05 206.058 210.794 205.581C210.544 205.097 210.42 204.551 210.42 203.942ZM215.381 203.964C215.381 203.546 215.293 203.183 215.117 202.875C214.948 202.567 214.724 202.332 214.446 202.171C214.167 202.01 213.866 201.929 213.544 201.929C213.221 201.929 212.92 202.01 212.642 202.171C212.363 202.325 212.136 202.556 211.96 202.864C211.791 203.165 211.707 203.524 211.707 203.942C211.707 204.36 211.791 204.727 211.96 205.042C212.136 205.357 212.363 205.599 212.642 205.768C212.928 205.929 213.228 206.01 213.544 206.01C213.866 206.01 214.167 205.929 214.446 205.768C214.724 205.607 214.948 205.372 215.117 205.064C215.293 204.749 215.381 204.382 215.381 203.964ZM219.547 198.86V207H218.293V198.86H219.547ZM222.447 198.86V207H221.193V198.86H222.447ZM229.649 203.821C229.649 204.048 229.634 204.254 229.605 204.437H224.974C225.01 204.921 225.19 205.31 225.513 205.603C225.835 205.896 226.231 206.043 226.701 206.043C227.375 206.043 227.852 205.761 228.131 205.196H229.484C229.3 205.753 228.967 206.212 228.483 206.571C228.006 206.923 227.412 207.099 226.701 207.099C226.121 207.099 225.601 206.971 225.139 206.714C224.684 206.45 224.325 206.083 224.061 205.614C223.804 205.137 223.676 204.587 223.676 203.964C223.676 203.341 223.8 202.794 224.05 202.325C224.306 201.848 224.662 201.482 225.117 201.225C225.579 200.968 226.107 200.84 226.701 200.84C227.273 200.84 227.782 200.965 228.23 201.214C228.677 201.463 229.025 201.815 229.275 202.27C229.524 202.717 229.649 203.234 229.649 203.821ZM228.34 203.425C228.332 202.963 228.167 202.593 227.845 202.314C227.522 202.035 227.122 201.896 226.646 201.896C226.213 201.896 225.843 202.035 225.535 202.314C225.227 202.585 225.043 202.956 224.985 203.425H228.34ZM230.465 203.942C230.465 203.333 230.589 202.794 230.839 202.325C231.095 201.856 231.44 201.493 231.873 201.236C232.313 200.972 232.8 200.84 233.336 200.84C233.732 200.84 234.12 200.928 234.502 201.104C234.89 201.273 235.198 201.5 235.426 201.786V198.86H236.691V207H235.426V206.087C235.22 206.38 234.934 206.622 234.568 206.813C234.208 207.004 233.794 207.099 233.325 207.099C232.797 207.099 232.313 206.967 231.873 206.703C231.44 206.432 231.095 206.058 230.839 205.581C230.589 205.097 230.465 204.551 230.465 203.942ZM235.426 203.964C235.426 203.546 235.338 203.183 235.162 202.875C234.993 202.567 234.769 202.332 234.491 202.171C234.212 202.01 233.911 201.929 233.589 201.929C233.266 201.929 232.965 202.01 232.687 202.171C232.408 202.325 232.181 202.556 232.005 202.864C231.836 203.165 231.752 203.524 231.752 203.942C231.752 204.36 231.836 204.727 232.005 205.042C232.181 205.357 232.408 205.599 232.687 205.768C232.973 205.929 233.273 206.01 233.589 206.01C233.911 206.01 234.212 205.929 234.491 205.768C234.769 205.607 234.993 205.372 235.162 205.064C235.338 204.749 235.426 204.382 235.426 203.964ZM240.777 203.942C240.777 203.333 240.902 202.794 241.151 202.325C241.408 201.856 241.752 201.493 242.185 201.236C242.625 200.972 243.109 200.84 243.637 200.84C244.114 200.84 244.528 200.935 244.88 201.126C245.239 201.309 245.525 201.54 245.738 201.819V200.939H247.003V207H245.738V206.098C245.525 206.384 245.236 206.622 244.869 206.813C244.502 207.004 244.084 207.099 243.615 207.099C243.094 207.099 242.618 206.967 242.185 206.703C241.752 206.432 241.408 206.058 241.151 205.581C240.902 205.097 240.777 204.551 240.777 203.942ZM245.738 203.964C245.738 203.546 245.65 203.183 245.474 202.875C245.305 202.567 245.082 202.332 244.803 202.171C244.524 202.01 244.224 201.929 243.901 201.929C243.578 201.929 243.278 202.01 242.999 202.171C242.72 202.325 242.493 202.556 242.317 202.864C242.148 203.165 242.064 203.524 242.064 203.942C242.064 204.36 242.148 204.727 242.317 205.042C242.493 205.357 242.72 205.599 242.999 205.768C243.285 205.929 243.586 206.01 243.901 206.01C244.224 206.01 244.524 205.929 244.803 205.768C245.082 205.607 245.305 205.372 245.474 205.064C245.65 204.749 245.738 204.382 245.738 203.964ZM249.904 201.83C250.117 201.551 250.407 201.317 250.773 201.126C251.14 200.935 251.554 200.84 252.016 200.84C252.544 200.84 253.025 200.972 253.457 201.236C253.897 201.493 254.242 201.856 254.491 202.325C254.741 202.794 254.865 203.333 254.865 203.942C254.865 204.551 254.741 205.097 254.491 205.581C254.242 206.058 253.897 206.432 253.457 206.703C253.025 206.967 252.544 207.099 252.016 207.099C251.554 207.099 251.144 207.007 250.784 206.824C250.425 206.633 250.132 206.399 249.904 206.12V209.882H248.65V200.939H249.904V201.83ZM253.589 203.942C253.589 203.524 253.501 203.165 253.325 202.864C253.157 202.556 252.929 202.325 252.643 202.171C252.365 202.01 252.064 201.929 251.741 201.929C251.426 201.929 251.125 202.01 250.839 202.171C250.561 202.332 250.333 202.567 250.157 202.875C249.989 203.183 249.904 203.546 249.904 203.964C249.904 204.382 249.989 204.749 250.157 205.064C250.333 205.372 250.561 205.607 250.839 205.768C251.125 205.929 251.426 206.01 251.741 206.01C252.064 206.01 252.365 205.929 252.643 205.768C252.929 205.599 253.157 205.357 253.325 205.042C253.501 204.727 253.589 204.36 253.589 203.942ZM257.359 201.83C257.572 201.551 257.862 201.317 258.228 201.126C258.595 200.935 259.009 200.84 259.471 200.84C259.999 200.84 260.48 200.972 260.912 201.236C261.352 201.493 261.697 201.856 261.946 202.325C262.196 202.794 262.32 203.333 262.32 203.942C262.32 204.551 262.196 205.097 261.946 205.581C261.697 206.058 261.352 206.432 260.912 206.703C260.48 206.967 259.999 207.099 259.471 207.099C259.009 207.099 258.599 207.007 258.239 206.824C257.88 206.633 257.587 206.399 257.359 206.12V209.882H256.105V200.939H257.359V201.83ZM261.044 203.942C261.044 203.524 260.956 203.165 260.78 202.864C260.612 202.556 260.384 202.325 260.098 202.171C259.82 202.01 259.519 201.929 259.196 201.929C258.881 201.929 258.58 202.01 258.294 202.171C258.016 202.332 257.788 202.567 257.612 202.875C257.444 203.183 257.359 203.546 257.359 203.964C257.359 204.382 257.444 204.749 257.612 205.064C257.788 205.372 258.016 205.607 258.294 205.768C258.58 205.929 258.881 206.01 259.196 206.01C259.519 206.01 259.82 205.929 260.098 205.768C260.384 205.599 260.612 205.357 260.78 205.042C260.956 204.727 261.044 204.36 261.044 203.942ZM265.76 207.099C265.284 207.099 264.855 207.015 264.473 206.846C264.099 206.67 263.802 206.435 263.582 206.142C263.362 205.841 263.245 205.508 263.23 205.141H264.528C264.55 205.398 264.671 205.614 264.891 205.79C265.119 205.959 265.401 206.043 265.738 206.043C266.09 206.043 266.362 205.977 266.552 205.845C266.75 205.706 266.849 205.53 266.849 205.317C266.849 205.09 266.739 204.921 266.519 204.811C266.307 204.701 265.966 204.58 265.496 204.448C265.042 204.323 264.671 204.202 264.385 204.085C264.099 203.968 263.85 203.788 263.637 203.546C263.432 203.304 263.329 202.985 263.329 202.589C263.329 202.266 263.425 201.973 263.615 201.709C263.806 201.438 264.077 201.225 264.429 201.071C264.789 200.917 265.199 200.84 265.661 200.84C266.351 200.84 266.904 201.016 267.322 201.368C267.748 201.713 267.975 202.186 268.004 202.787H266.75C266.728 202.516 266.618 202.299 266.42 202.138C266.222 201.977 265.955 201.896 265.617 201.896C265.287 201.896 265.034 201.958 264.858 202.083C264.682 202.208 264.594 202.373 264.594 202.578C264.594 202.739 264.653 202.875 264.77 202.985C264.888 203.095 265.031 203.183 265.199 203.249C265.368 203.308 265.617 203.385 265.947 203.48C266.387 203.597 266.747 203.718 267.025 203.843C267.311 203.96 267.557 204.136 267.762 204.371C267.968 204.606 268.074 204.917 268.081 205.306C268.081 205.651 267.986 205.959 267.795 206.23C267.605 206.501 267.333 206.714 266.981 206.868C266.637 207.022 266.23 207.099 265.76 207.099Z"></path>
<path fill="black" d="M193.344 159.077C192.831 159.077 192.369 158.989 191.958 158.813C191.547 158.63 191.225 158.373 190.99 158.043C190.755 157.713 190.638 157.328 190.638 156.888H191.98C192.009 157.218 192.138 157.489 192.365 157.702C192.6 157.915 192.926 158.021 193.344 158.021C193.777 158.021 194.114 157.918 194.356 157.713C194.598 157.5 194.719 157.229 194.719 156.899C194.719 156.642 194.642 156.433 194.488 156.272C194.341 156.111 194.154 155.986 193.927 155.898C193.707 155.81 193.399 155.715 193.003 155.612C192.504 155.48 192.097 155.348 191.782 155.216C191.474 155.077 191.21 154.864 190.99 154.578C190.77 154.292 190.66 153.911 190.66 153.434C190.66 152.994 190.77 152.609 190.99 152.279C191.21 151.949 191.518 151.696 191.914 151.52C192.31 151.344 192.768 151.256 193.289 151.256C194.03 151.256 194.635 151.443 195.104 151.817C195.581 152.184 195.845 152.69 195.896 153.335H194.51C194.488 153.056 194.356 152.818 194.114 152.62C193.872 152.422 193.553 152.323 193.157 152.323C192.798 152.323 192.504 152.415 192.277 152.598C192.05 152.781 191.936 153.045 191.936 153.39C191.936 153.625 192.006 153.819 192.145 153.973C192.292 154.12 192.475 154.237 192.695 154.325C192.915 154.413 193.216 154.508 193.597 154.611C194.103 154.75 194.514 154.89 194.829 155.029C195.152 155.168 195.423 155.385 195.643 155.678C195.87 155.964 195.984 156.349 195.984 156.833C195.984 157.222 195.878 157.588 195.665 157.933C195.46 158.278 195.155 158.556 194.752 158.769C194.356 158.974 193.887 159.077 193.344 159.077ZM202.92 152.939L199.202 161.849H197.904L199.136 158.901L196.749 152.939H198.146L199.851 157.559L201.622 152.939H202.92ZM206.066 159.099C205.589 159.099 205.16 159.015 204.779 158.846C204.405 158.67 204.108 158.435 203.888 158.142C203.668 157.841 203.551 157.508 203.536 157.141H204.834C204.856 157.398 204.977 157.614 205.197 157.79C205.424 157.959 205.707 158.043 206.044 158.043C206.396 158.043 206.667 157.977 206.858 157.845C207.056 157.706 207.155 157.53 207.155 157.317C207.155 157.09 207.045 156.921 206.825 156.811C206.612 156.701 206.271 156.58 205.802 156.448C205.347 156.323 204.977 156.202 204.691 156.085C204.405 155.968 204.156 155.788 203.943 155.546C203.738 155.304 203.635 154.985 203.635 154.589C203.635 154.266 203.73 153.973 203.921 153.709C204.112 153.438 204.383 153.225 204.735 153.071C205.094 152.917 205.505 152.84 205.967 152.84C206.656 152.84 207.21 153.016 207.628 153.368C208.053 153.713 208.281 154.186 208.31 154.787H207.056C207.034 154.516 206.924 154.299 206.726 154.138C206.528 153.977 206.26 153.896 205.923 153.896C205.593 153.896 205.34 153.958 205.164 154.083C204.988 154.208 204.9 154.373 204.9 154.578C204.9 154.739 204.959 154.875 205.076 154.985C205.193 155.095 205.336 155.183 205.505 155.249C205.674 155.308 205.923 155.385 206.253 155.48C206.693 155.597 207.052 155.718 207.331 155.843C207.617 155.96 207.863 156.136 208.068 156.371C208.273 156.606 208.38 156.917 208.387 157.306C208.387 157.651 208.292 157.959 208.101 158.23C207.91 158.501 207.639 158.714 207.287 158.868C206.942 159.022 206.535 159.099 206.066 159.099ZM211.205 153.962V157.317C211.205 157.544 211.256 157.709 211.359 157.812C211.469 157.907 211.652 157.955 211.909 157.955H212.679V159H211.689C211.124 159 210.692 158.868 210.391 158.604C210.09 158.34 209.94 157.911 209.94 157.317V153.962H209.225V152.939H209.94V151.432H211.205V152.939H212.679V153.962H211.205ZM219.39 155.821C219.39 156.048 219.375 156.254 219.346 156.437H214.715C214.751 156.921 214.931 157.31 215.254 157.603C215.576 157.896 215.972 158.043 216.442 158.043C217.116 158.043 217.593 157.761 217.872 157.196H219.225C219.041 157.753 218.708 158.212 218.224 158.571C217.747 158.923 217.153 159.099 216.442 159.099C215.862 159.099 215.342 158.971 214.88 158.714C214.425 158.45 214.066 158.083 213.802 157.614C213.545 157.137 213.417 156.587 213.417 155.964C213.417 155.341 213.541 154.794 213.791 154.325C214.047 153.848 214.403 153.482 214.858 153.225C215.32 152.968 215.848 152.84 216.442 152.84C217.014 152.84 217.523 152.965 217.971 153.214C218.418 153.463 218.766 153.815 219.016 154.27C219.265 154.717 219.39 155.234 219.39 155.821ZM218.081 155.425C218.073 154.963 217.908 154.593 217.586 154.314C217.263 154.035 216.863 153.896 216.387 153.896C215.954 153.896 215.584 154.035 215.276 154.314C214.968 154.585 214.784 154.956 214.726 155.425H218.081ZM227.961 152.84C228.437 152.84 228.863 152.939 229.237 153.137C229.618 153.335 229.915 153.628 230.128 154.017C230.348 154.406 230.458 154.875 230.458 155.425V159H229.215V155.612C229.215 155.069 229.079 154.655 228.808 154.369C228.536 154.076 228.166 153.929 227.697 153.929C227.227 153.929 226.853 154.076 226.575 154.369C226.303 154.655 226.168 155.069 226.168 155.612V159H224.925V155.612C224.925 155.069 224.789 154.655 224.518 154.369C224.246 154.076 223.876 153.929 223.407 153.929C222.937 153.929 222.563 154.076 222.285 154.369C222.013 154.655 221.878 155.069 221.878 155.612V159H220.624V152.939H221.878V153.632C222.083 153.383 222.343 153.188 222.659 153.049C222.974 152.91 223.311 152.84 223.671 152.84C224.155 152.84 224.587 152.943 224.969 153.148C225.35 153.353 225.643 153.65 225.849 154.039C226.032 153.672 226.318 153.383 226.707 153.17C227.095 152.95 227.513 152.84 227.961 152.84Z"></path>
<path fill="black" d="M196.171 249.632C196.171 250.021 196.079 250.387 195.896 250.732C195.713 251.077 195.419 251.359 195.016 251.579C194.613 251.792 194.096 251.898 193.465 251.898H192.079V255H190.825V247.355H193.465C194.052 247.355 194.547 247.458 194.95 247.663C195.361 247.861 195.665 248.132 195.863 248.477C196.068 248.822 196.171 249.207 196.171 249.632ZM193.465 250.875C193.942 250.875 194.297 250.769 194.532 250.556C194.767 250.336 194.884 250.028 194.884 249.632C194.884 248.796 194.411 248.378 193.465 248.378H192.079V250.875H193.465ZM202.922 251.821C202.922 252.048 202.907 252.254 202.878 252.437H198.247C198.284 252.921 198.463 253.31 198.786 253.603C199.109 253.896 199.505 254.043 199.974 254.043C200.649 254.043 201.125 253.761 201.404 253.196H202.757C202.574 253.753 202.24 254.212 201.756 254.571C201.279 254.923 200.685 255.099 199.974 255.099C199.395 255.099 198.874 254.971 198.412 254.714C197.957 254.45 197.598 254.083 197.334 253.614C197.077 253.137 196.949 252.587 196.949 251.964C196.949 251.341 197.074 250.794 197.323 250.325C197.58 249.848 197.935 249.482 198.39 249.225C198.852 248.968 199.38 248.84 199.974 248.84C200.546 248.84 201.056 248.965 201.503 249.214C201.95 249.463 202.299 249.815 202.548 250.27C202.797 250.717 202.922 251.234 202.922 251.821ZM201.613 251.425C201.606 250.963 201.441 250.593 201.118 250.314C200.795 250.035 200.396 249.896 199.919 249.896C199.486 249.896 199.116 250.035 198.808 250.314C198.5 250.585 198.317 250.956 198.258 251.425H201.613ZM205.41 249.819C205.593 249.511 205.835 249.273 206.136 249.104C206.444 248.928 206.807 248.84 207.225 248.84V250.138H206.906C206.415 250.138 206.041 250.263 205.784 250.512C205.535 250.761 205.41 251.194 205.41 251.81V255H204.156V248.939H205.41V249.819ZM210.578 255.099C210.101 255.099 209.672 255.015 209.291 254.846C208.917 254.67 208.62 254.435 208.4 254.142C208.18 253.841 208.062 253.508 208.048 253.141H209.346C209.368 253.398 209.489 253.614 209.709 253.79C209.936 253.959 210.218 254.043 210.556 254.043C210.908 254.043 211.179 253.977 211.37 253.845C211.568 253.706 211.667 253.53 211.667 253.317C211.667 253.09 211.557 252.921 211.337 252.811C211.124 252.701 210.783 252.58 210.314 252.448C209.859 252.323 209.489 252.202 209.203 252.085C208.917 251.968 208.667 251.788 208.455 251.546C208.249 251.304 208.147 250.985 208.147 250.589C208.147 250.266 208.242 249.973 208.433 249.709C208.623 249.438 208.895 249.225 209.247 249.071C209.606 248.917 210.017 248.84 210.479 248.84C211.168 248.84 211.722 249.016 212.14 249.368C212.565 249.713 212.792 250.186 212.822 250.787H211.568C211.546 250.516 211.436 250.299 211.238 250.138C211.04 249.977 210.772 249.896 210.435 249.896C210.105 249.896 209.852 249.958 209.676 250.083C209.5 250.208 209.412 250.373 209.412 250.578C209.412 250.739 209.47 250.875 209.588 250.985C209.705 251.095 209.848 251.183 210.017 251.249C210.185 251.308 210.435 251.385 210.765 251.48C211.205 251.597 211.564 251.718 211.843 251.843C212.129 251.96 212.374 252.136 212.58 252.371C212.785 252.606 212.891 252.917 212.899 253.306C212.899 253.651 212.803 253.959 212.613 254.23C212.422 254.501 212.151 254.714 211.799 254.868C211.454 255.022 211.047 255.099 210.578 255.099ZM216.883 255.099C216.311 255.099 215.794 254.971 215.332 254.714C214.87 254.45 214.507 254.083 214.243 253.614C213.979 253.137 213.847 252.587 213.847 251.964C213.847 251.348 213.982 250.802 214.254 250.325C214.525 249.848 214.895 249.482 215.365 249.225C215.834 248.968 216.358 248.84 216.938 248.84C217.517 248.84 218.041 248.968 218.511 249.225C218.98 249.482 219.35 249.848 219.622 250.325C219.893 250.802 220.029 251.348 220.029 251.964C220.029 252.58 219.889 253.126 219.611 253.603C219.332 254.08 218.951 254.45 218.467 254.714C217.99 254.971 217.462 255.099 216.883 255.099ZM216.883 254.01C217.205 254.01 217.506 253.933 217.785 253.779C218.071 253.625 218.302 253.394 218.478 253.086C218.654 252.778 218.742 252.404 218.742 251.964C218.742 251.524 218.657 251.154 218.489 250.853C218.32 250.545 218.096 250.314 217.818 250.16C217.539 250.006 217.238 249.929 216.916 249.929C216.593 249.929 216.292 250.006 216.014 250.16C215.742 250.314 215.526 250.545 215.365 250.853C215.203 251.154 215.123 251.524 215.123 251.964C215.123 252.617 215.288 253.123 215.618 253.482C215.955 253.834 216.377 254.01 216.883 254.01ZM224.326 248.84C224.803 248.84 225.228 248.939 225.602 249.137C225.984 249.335 226.281 249.628 226.493 250.017C226.706 250.406 226.812 250.875 226.812 251.425V255H225.569V251.612C225.569 251.069 225.434 250.655 225.162 250.369C224.891 250.076 224.521 249.929 224.051 249.929C223.582 249.929 223.208 250.076 222.929 250.369C222.658 250.655 222.522 251.069 222.522 251.612V255H221.268V248.939H222.522V249.632C222.728 249.383 222.988 249.188 223.303 249.049C223.626 248.91 223.967 248.84 224.326 248.84ZM227.994 251.942C227.994 251.333 228.119 250.794 228.368 250.325C228.625 249.856 228.969 249.493 229.402 249.236C229.842 248.972 230.326 248.84 230.854 248.84C231.331 248.84 231.745 248.935 232.097 249.126C232.456 249.309 232.742 249.54 232.955 249.819V248.939H234.22V255H232.955V254.098C232.742 254.384 232.453 254.622 232.086 254.813C231.719 255.004 231.301 255.099 230.832 255.099C230.311 255.099 229.835 254.967 229.402 254.703C228.969 254.432 228.625 254.058 228.368 253.581C228.119 253.097 227.994 252.551 227.994 251.942ZM232.955 251.964C232.955 251.546 232.867 251.183 232.691 250.875C232.522 250.567 232.299 250.332 232.02 250.171C231.741 250.01 231.441 249.929 231.118 249.929C230.795 249.929 230.495 250.01 230.216 250.171C229.937 250.325 229.71 250.556 229.534 250.864C229.365 251.165 229.281 251.524 229.281 251.942C229.281 252.36 229.365 252.727 229.534 253.042C229.71 253.357 229.937 253.599 230.216 253.768C230.502 253.929 230.803 254.01 231.118 254.01C231.441 254.01 231.741 253.929 232.02 253.768C232.299 253.607 232.522 253.372 232.691 253.064C232.867 252.749 232.955 252.382 232.955 251.964ZM237.121 246.86V255H235.867V246.86H237.121ZM244.166 249.962H243.044V255H241.779V249.962H241.064V248.939H241.779V248.51C241.779 247.813 241.962 247.307 242.329 246.992C242.703 246.669 243.286 246.508 244.078 246.508V247.553C243.696 247.553 243.429 247.626 243.275 247.773C243.121 247.912 243.044 248.158 243.044 248.51V248.939H244.166V249.962ZM245.915 248.136C245.688 248.136 245.497 248.059 245.343 247.905C245.189 247.751 245.112 247.56 245.112 247.333C245.112 247.106 245.189 246.915 245.343 246.761C245.497 246.607 245.688 246.53 245.915 246.53C246.135 246.53 246.322 246.607 246.476 246.761C246.63 246.915 246.707 247.106 246.707 247.333C246.707 247.56 246.63 247.751 246.476 247.905C246.322 248.059 246.135 248.136 245.915 248.136ZM246.531 248.939V255H245.277V248.939H246.531ZM249.432 246.86V255H248.178V246.86H249.432ZM256.633 251.821C256.633 252.048 256.618 252.254 256.589 252.437H251.958C251.995 252.921 252.174 253.31 252.497 253.603C252.82 253.896 253.216 254.043 253.685 254.043C254.36 254.043 254.836 253.761 255.115 253.196H256.468C256.285 253.753 255.951 254.212 255.467 254.571C254.99 254.923 254.396 255.099 253.685 255.099C253.106 255.099 252.585 254.971 252.123 254.714C251.668 254.45 251.309 254.083 251.045 253.614C250.788 253.137 250.66 252.587 250.66 251.964C250.66 251.341 250.785 250.794 251.034 250.325C251.291 249.848 251.646 249.482 252.101 249.225C252.563 248.968 253.091 248.84 253.685 248.84C254.257 248.84 254.767 248.965 255.214 249.214C255.661 249.463 256.01 249.815 256.259 250.27C256.508 250.717 256.633 251.234 256.633 251.821ZM255.324 251.425C255.317 250.963 255.152 250.593 254.829 250.314C254.506 250.035 254.107 249.896 253.63 249.896C253.197 249.896 252.827 250.035 252.519 250.314C252.211 250.585 252.028 250.956 251.969 251.425H255.324ZM260.067 255.099C259.59 255.099 259.161 255.015 258.78 254.846C258.406 254.67 258.109 254.435 257.889 254.142C257.669 253.841 257.552 253.508 257.537 253.141H258.835C258.857 253.398 258.978 253.614 259.198 253.79C259.425 253.959 259.708 254.043 260.045 254.043C260.397 254.043 260.668 253.977 260.859 253.845C261.057 253.706 261.156 253.53 261.156 253.317C261.156 253.09 261.046 252.921 260.826 252.811C260.613 252.701 260.272 252.58 259.803 252.448C259.348 252.323 258.978 252.202 258.692 252.085C258.406 251.968 258.157 251.788 257.944 251.546C257.739 251.304 257.636 250.985 257.636 250.589C257.636 250.266 257.731 249.973 257.922 249.709C258.113 249.438 258.384 249.225 258.736 249.071C259.095 248.917 259.506 248.84 259.968 248.84C260.657 248.84 261.211 249.016 261.629 249.368C262.054 249.713 262.282 250.186 262.311 250.787H261.057C261.035 250.516 260.925 250.299 260.727 250.138C260.529 249.977 260.261 249.896 259.924 249.896C259.594 249.896 259.341 249.958 259.165 250.083C258.989 250.208 258.901 250.373 258.901 250.578C258.901 250.739 258.96 250.875 259.077 250.985C259.194 251.095 259.337 251.183 259.506 251.249C259.675 251.308 259.924 251.385 260.254 251.48C260.694 251.597 261.053 251.718 261.332 251.843C261.618 251.96 261.864 252.136 262.069 252.371C262.274 252.606 262.381 252.917 262.388 253.306C262.388 253.651 262.293 253.959 262.102 254.23C261.911 254.501 261.64 254.714 261.288 254.868C260.943 255.022 260.536 255.099 260.067 255.099Z"></path>
<path fill-opacity="0.05" fill="black" d="M190 289C190 286.239 192.239 284 195 284H465C467.761 284 470 286.239 470 289V345C470 347.761 467.761 350 465 350H195C192.239 350 190 347.761 190 345V289Z"></path>
<path fill="black" d="M215.764 305.355V306.378H213.729V313H212.475V306.378H210.429V305.355H215.764ZM218.288 307.819C218.471 307.511 218.713 307.273 219.014 307.104C219.322 306.928 219.685 306.84 220.103 306.84V308.138H219.784C219.293 308.138 218.919 308.263 218.662 308.512C218.413 308.761 218.288 309.194 218.288 309.81V313H217.034V306.939H218.288V307.819ZM223.885 313.099C223.313 313.099 222.796 312.971 222.334 312.714C221.872 312.45 221.509 312.083 221.245 311.614C220.981 311.137 220.849 310.587 220.849 309.964C220.849 309.348 220.984 308.802 221.256 308.325C221.527 307.848 221.897 307.482 222.367 307.225C222.836 306.968 223.36 306.84 223.94 306.84C224.519 306.84 225.043 306.968 225.513 307.225C225.982 307.482 226.352 307.848 226.624 308.325C226.895 308.802 227.031 309.348 227.031 309.964C227.031 310.58 226.891 311.126 226.613 311.603C226.334 312.08 225.953 312.45 225.469 312.714C224.992 312.971 224.464 313.099 223.885 313.099ZM223.885 312.01C224.207 312.01 224.508 311.933 224.787 311.779C225.073 311.625 225.304 311.394 225.48 311.086C225.656 310.778 225.744 310.404 225.744 309.964C225.744 309.524 225.659 309.154 225.491 308.853C225.322 308.545 225.098 308.314 224.82 308.16C224.541 308.006 224.24 307.929 223.918 307.929C223.595 307.929 223.294 308.006 223.016 308.16C222.744 308.314 222.528 308.545 222.367 308.853C222.205 309.154 222.125 309.524 222.125 309.964C222.125 310.617 222.29 311.123 222.62 311.482C222.957 311.834 223.379 312.01 223.885 312.01ZM233.759 306.939V313H232.505V312.285C232.307 312.534 232.047 312.732 231.724 312.879C231.409 313.018 231.072 313.088 230.712 313.088C230.236 313.088 229.807 312.989 229.425 312.791C229.051 312.593 228.754 312.3 228.534 311.911C228.322 311.522 228.215 311.053 228.215 310.503V306.939H229.458V310.316C229.458 310.859 229.594 311.277 229.865 311.57C230.137 311.856 230.507 311.999 230.976 311.999C231.446 311.999 231.816 311.856 232.087 311.57C232.366 311.277 232.505 310.859 232.505 310.316V306.939H233.759ZM236.668 307.841C236.881 307.548 237.17 307.309 237.537 307.126C237.911 306.935 238.325 306.84 238.78 306.84C239.315 306.84 239.799 306.968 240.232 307.225C240.665 307.482 241.006 307.848 241.255 308.325C241.504 308.794 241.629 309.333 241.629 309.942C241.629 310.551 241.504 311.097 241.255 311.581C241.006 312.058 240.661 312.432 240.221 312.703C239.788 312.967 239.308 313.099 238.78 313.099C238.311 313.099 237.893 313.007 237.526 312.824C237.167 312.641 236.881 312.406 236.668 312.12V313H235.414V304.86H236.668V307.841ZM240.353 309.942C240.353 309.524 240.265 309.165 240.089 308.864C239.92 308.556 239.693 308.325 239.407 308.171C239.128 308.01 238.828 307.929 238.505 307.929C238.19 307.929 237.889 308.01 237.603 308.171C237.324 308.332 237.097 308.567 236.921 308.875C236.752 309.183 236.668 309.546 236.668 309.964C236.668 310.382 236.752 310.749 236.921 311.064C237.097 311.372 237.324 311.607 237.603 311.768C237.889 311.929 238.19 312.01 238.505 312.01C238.828 312.01 239.128 311.929 239.407 311.768C239.693 311.599 239.92 311.357 240.089 311.042C240.265 310.727 240.353 310.36 240.353 309.942ZM244.123 304.86V313H242.869V304.86H244.123ZM251.324 309.821C251.324 310.048 251.31 310.254 251.28 310.437H246.649C246.686 310.921 246.866 311.31 247.188 311.603C247.511 311.896 247.907 312.043 248.376 312.043C249.051 312.043 249.528 311.761 249.806 311.196H251.159C250.976 311.753 250.642 312.212 250.158 312.571C249.682 312.923 249.088 313.099 248.376 313.099C247.797 313.099 247.276 312.971 246.814 312.714C246.36 312.45 246 312.083 245.736 311.614C245.48 311.137 245.351 310.587 245.351 309.964C245.351 309.341 245.476 308.794 245.725 308.325C245.982 307.848 246.338 307.482 246.792 307.225C247.254 306.968 247.782 306.84 248.376 306.84C248.948 306.84 249.458 306.965 249.905 307.214C250.353 307.463 250.701 307.815 250.95 308.27C251.2 308.717 251.324 309.234 251.324 309.821ZM250.015 309.425C250.008 308.963 249.843 308.593 249.52 308.314C249.198 308.035 248.798 307.896 248.321 307.896C247.889 307.896 247.518 308.035 247.21 308.314C246.902 308.585 246.719 308.956 246.66 309.425H250.015ZM254.758 313.099C254.282 313.099 253.853 313.015 253.471 312.846C253.097 312.67 252.8 312.435 252.58 312.142C252.36 311.841 252.243 311.508 252.228 311.141H253.526C253.548 311.398 253.669 311.614 253.889 311.79C254.117 311.959 254.399 312.043 254.736 312.043C255.088 312.043 255.36 311.977 255.55 311.845C255.748 311.706 255.847 311.53 255.847 311.317C255.847 311.09 255.737 310.921 255.517 310.811C255.305 310.701 254.964 310.58 254.494 310.448C254.04 310.323 253.669 310.202 253.383 310.085C253.097 309.968 252.848 309.788 252.635 309.546C252.43 309.304 252.327 308.985 252.327 308.589C252.327 308.266 252.423 307.973 252.613 307.709C252.804 307.438 253.075 307.225 253.427 307.071C253.787 306.917 254.197 306.84 254.659 306.84C255.349 306.84 255.902 307.016 256.32 307.368C256.746 307.713 256.973 308.186 257.002 308.787H255.748C255.726 308.516 255.616 308.299 255.418 308.138C255.22 307.977 254.953 307.896 254.615 307.896C254.285 307.896 254.032 307.958 253.856 308.083C253.68 308.208 253.592 308.373 253.592 308.578C253.592 308.739 253.651 308.875 253.768 308.985C253.886 309.095 254.029 309.183 254.197 309.249C254.366 309.308 254.615 309.385 254.945 309.48C255.385 309.597 255.745 309.718 256.023 309.843C256.309 309.96 256.555 310.136 256.76 310.371C256.966 310.606 257.072 310.917 257.079 311.306C257.079 311.651 256.984 311.959 256.793 312.23C256.603 312.501 256.331 312.714 255.979 312.868C255.635 313.022 255.228 313.099 254.758 313.099ZM261.569 306.84C262.031 306.84 262.442 306.939 262.801 307.137C263.168 307.335 263.454 307.628 263.659 308.017C263.872 308.406 263.978 308.875 263.978 309.425V313H262.735V309.612C262.735 309.069 262.6 308.655 262.328 308.369C262.057 308.076 261.687 307.929 261.217 307.929C260.748 307.929 260.374 308.076 260.095 308.369C259.824 308.655 259.688 309.069 259.688 309.612V313H258.434V304.86H259.688V307.643C259.901 307.386 260.169 307.188 260.491 307.049C260.821 306.91 261.181 306.84 261.569 306.84ZM268.207 313.099C267.635 313.099 267.118 312.971 266.656 312.714C266.194 312.45 265.831 312.083 265.567 311.614C265.303 311.137 265.171 310.587 265.171 309.964C265.171 309.348 265.307 308.802 265.578 308.325C265.849 307.848 266.22 307.482 266.689 307.225C267.158 306.968 267.683 306.84 268.262 306.84C268.841 306.84 269.366 306.968 269.835 307.225C270.304 307.482 270.675 307.848 270.946 308.325C271.217 308.802 271.353 309.348 271.353 309.964C271.353 310.58 271.214 311.126 270.935 311.603C270.656 312.08 270.275 312.45 269.791 312.714C269.314 312.971 268.786 313.099 268.207 313.099ZM268.207 312.01C268.53 312.01 268.83 311.933 269.109 311.779C269.395 311.625 269.626 311.394 269.802 311.086C269.978 310.778 270.066 310.404 270.066 309.964C270.066 309.524 269.982 309.154 269.813 308.853C269.644 308.545 269.421 308.314 269.142 308.16C268.863 308.006 268.563 307.929 268.24 307.929C267.917 307.929 267.617 308.006 267.338 308.16C267.067 308.314 266.85 308.545 266.689 308.853C266.528 309.154 266.447 309.524 266.447 309.964C266.447 310.617 266.612 311.123 266.942 311.482C267.279 311.834 267.701 312.01 268.207 312.01ZM275.222 313.099C274.65 313.099 274.133 312.971 273.671 312.714C273.209 312.45 272.846 312.083 272.582 311.614C272.318 311.137 272.186 310.587 272.186 309.964C272.186 309.348 272.321 308.802 272.593 308.325C272.864 307.848 273.234 307.482 273.704 307.225C274.173 306.968 274.697 306.84 275.277 306.84C275.856 306.84 276.38 306.968 276.85 307.225C277.319 307.482 277.689 307.848 277.961 308.325C278.232 308.802 278.368 309.348 278.368 309.964C278.368 310.58 278.228 311.126 277.95 311.603C277.671 312.08 277.29 312.45 276.806 312.714C276.329 312.971 275.801 313.099 275.222 313.099ZM275.222 312.01C275.544 312.01 275.845 311.933 276.124 311.779C276.41 311.625 276.641 311.394 276.817 311.086C276.993 310.778 277.081 310.404 277.081 309.964C277.081 309.524 276.996 309.154 276.828 308.853C276.659 308.545 276.435 308.314 276.157 308.16C275.878 308.006 275.577 307.929 275.255 307.929C274.932 307.929 274.631 308.006 274.353 308.16C274.081 308.314 273.865 308.545 273.704 308.853C273.542 309.154 273.462 309.524 273.462 309.964C273.462 310.617 273.627 311.123 273.957 311.482C274.294 311.834 274.716 312.01 275.222 312.01ZM281.07 307.962V311.317C281.07 311.544 281.122 311.709 281.224 311.812C281.334 311.907 281.518 311.955 281.774 311.955H282.544V313H281.554C280.99 313 280.557 312.868 280.256 312.604C279.956 312.34 279.805 311.911 279.805 311.317V307.962H279.09V306.939H279.805V305.432H281.07V306.939H282.544V307.962H281.07Z"></path>
<path fill-opacity="0.75" fill="black" d="M210.333 325.859C210.333 325.247 210.474 324.698 210.756 324.212C211.044 323.726 211.431 323.348 211.917 323.078C212.409 322.802 212.946 322.664 213.528 322.664C214.194 322.664 214.785 322.829 215.301 323.159C215.823 323.483 216.201 323.945 216.435 324.545H215.202C215.04 324.215 214.815 323.969 214.527 323.807C214.239 323.645 213.906 323.564 213.528 323.564C213.114 323.564 212.745 323.657 212.421 323.843C212.097 324.029 211.842 324.296 211.656 324.644C211.476 324.992 211.386 325.397 211.386 325.859C211.386 326.321 211.476 326.726 211.656 327.074C211.842 327.422 212.097 327.692 212.421 327.884C212.745 328.07 213.114 328.163 213.528 328.163C213.906 328.163 214.239 328.082 214.527 327.92C214.815 327.758 215.04 327.512 215.202 327.182H216.435C216.201 327.782 215.823 328.244 215.301 328.568C214.785 328.892 214.194 329.054 213.528 329.054C212.94 329.054 212.403 328.919 211.917 328.649C211.431 328.373 211.044 327.992 210.756 327.506C210.474 327.02 210.333 326.471 210.333 325.859ZM220.201 323.96C220.579 323.96 220.915 324.041 221.209 324.203C221.509 324.365 221.743 324.605 221.911 324.923C222.085 325.241 222.172 325.625 222.172 326.075V329H221.155V326.228C221.155 325.784 221.044 325.445 220.822 325.211C220.6 324.971 220.297 324.851 219.913 324.851C219.529 324.851 219.223 324.971 218.995 325.211C218.773 325.445 218.662 325.784 218.662 326.228V329H217.636V322.34H218.662V324.617C218.836 324.407 219.055 324.245 219.319 324.131C219.589 324.017 219.883 323.96 220.201 323.96ZM228.026 326.399C228.026 326.585 228.014 326.753 227.99 326.903H224.201C224.231 327.299 224.378 327.617 224.642 327.857C224.906 328.097 225.23 328.217 225.614 328.217C226.166 328.217 226.556 327.986 226.784 327.524H227.891C227.741 327.98 227.468 328.355 227.072 328.649C226.682 328.937 226.196 329.081 225.614 329.081C225.14 329.081 224.714 328.976 224.336 328.766C223.964 328.55 223.67 328.25 223.454 327.866C223.244 327.476 223.139 327.026 223.139 326.516C223.139 326.006 223.241 325.559 223.445 325.175C223.655 324.785 223.946 324.485 224.318 324.275C224.696 324.065 225.128 323.96 225.614 323.96C226.082 323.96 226.499 324.062 226.865 324.266C227.231 324.47 227.516 324.758 227.72 325.13C227.924 325.496 228.026 325.919 228.026 326.399ZM226.955 326.075C226.949 325.697 226.814 325.394 226.55 325.166C226.286 324.938 225.959 324.824 225.569 324.824C225.215 324.824 224.912 324.938 224.66 325.166C224.408 325.388 224.258 325.691 224.21 326.075H226.955ZM228.693 326.516C228.693 326.006 228.795 325.559 228.999 325.175C229.209 324.785 229.497 324.485 229.863 324.275C230.229 324.065 230.649 323.96 231.123 323.96C231.723 323.96 232.218 324.104 232.608 324.392C233.004 324.674 233.271 325.079 233.409 325.607H232.302C232.212 325.361 232.068 325.169 231.87 325.031C231.672 324.893 231.423 324.824 231.123 324.824C230.703 324.824 230.367 324.974 230.115 325.274C229.869 325.568 229.746 325.982 229.746 326.516C229.746 327.05 229.869 327.467 230.115 327.767C230.367 328.067 230.703 328.217 231.123 328.217C231.717 328.217 232.11 327.956 232.302 327.434H233.409C233.265 327.938 232.995 328.34 232.599 328.64C232.203 328.934 231.711 329.081 231.123 329.081C230.649 329.081 230.229 328.976 229.863 328.766C229.497 328.55 229.209 328.25 228.999 327.866C228.795 327.476 228.693 327.026 228.693 326.516ZM236.394 326.525L238.68 329H237.294L235.458 326.867V329H234.432V322.34H235.458V326.21L237.258 324.041H238.68L236.394 326.525ZM241.411 326.498C241.411 326 241.513 325.559 241.717 325.175C241.927 324.791 242.209 324.494 242.563 324.284C242.923 324.068 243.319 323.96 243.751 323.96C244.141 323.96 244.48 324.038 244.768 324.194C245.062 324.344 245.296 324.533 245.47 324.761V324.041H246.505V329H245.47V328.262C245.296 328.496 245.059 328.691 244.759 328.847C244.459 329.003 244.117 329.081 243.733 329.081C243.307 329.081 242.917 328.973 242.563 328.757C242.209 328.535 241.927 328.229 241.717 327.839C241.513 327.443 241.411 326.996 241.411 326.498ZM245.47 326.516C245.47 326.174 245.398 325.877 245.254 325.625C245.116 325.373 244.933 325.181 244.705 325.049C244.477 324.917 244.231 324.851 243.967 324.851C243.703 324.851 243.457 324.917 243.229 325.049C243.001 325.175 242.815 325.364 242.671 325.616C242.533 325.862 242.464 326.156 242.464 326.498C242.464 326.84 242.533 327.14 242.671 327.398C242.815 327.656 243.001 327.854 243.229 327.992C243.463 328.124 243.709 328.19 243.967 328.19C244.231 328.19 244.477 328.124 244.705 327.992C244.933 327.86 245.116 327.668 245.254 327.416C245.398 327.158 245.47 326.858 245.47 326.516ZM250.355 323.96C250.745 323.96 251.093 324.041 251.399 324.203C251.711 324.365 251.954 324.605 252.128 324.923C252.302 325.241 252.389 325.625 252.389 326.075V329H251.372V326.228C251.372 325.784 251.261 325.445 251.039 325.211C250.817 324.971 250.514 324.851 250.13 324.851C249.746 324.851 249.44 324.971 249.212 325.211C248.99 325.445 248.879 325.784 248.879 326.228V329H247.853V324.041H248.879V324.608C249.047 324.404 249.26 324.245 249.518 324.131C249.782 324.017 250.061 323.96 250.355 323.96ZM253.355 326.498C253.355 326 253.457 325.559 253.661 325.175C253.871 324.791 254.153 324.494 254.507 324.284C254.867 324.068 255.266 323.96 255.704 323.96C256.028 323.96 256.346 324.032 256.658 324.176C256.976 324.314 257.228 324.5 257.414 324.734V322.34H258.449V329H257.414V328.253C257.246 328.493 257.012 328.691 256.712 328.847C256.418 329.003 256.079 329.081 255.695 329.081C255.263 329.081 254.867 328.973 254.507 328.757C254.153 328.535 253.871 328.229 253.661 327.839C253.457 327.443 253.355 326.996 253.355 326.498ZM257.414 326.516C257.414 326.174 257.342 325.877 257.198 325.625C257.06 325.373 256.877 325.181 256.649 325.049C256.421 324.917 256.175 324.851 255.911 324.851C255.647 324.851 255.401 324.917 255.173 325.049C254.945 325.175 254.759 325.364 254.615 325.616C254.477 325.862 254.408 326.156 254.408 326.498C254.408 326.84 254.477 327.14 254.615 327.398C254.759 327.656 254.945 327.854 255.173 327.992C255.407 328.124 255.653 328.19 255.911 328.19C256.175 328.19 256.421 328.124 256.649 327.992C256.877 327.86 257.06 327.668 257.198 327.416C257.342 327.158 257.414 326.858 257.414 326.516ZM263.161 324.761C263.311 324.509 263.509 324.314 263.755 324.176C264.007 324.032 264.304 323.96 264.646 323.96V325.022H264.385C263.983 325.022 263.677 325.124 263.467 325.328C263.263 325.532 263.161 325.886 263.161 326.39V329H262.135V324.041H263.161V324.761ZM270.134 326.399C270.134 326.585 270.122 326.753 270.098 326.903H266.309C266.339 327.299 266.486 327.617 266.75 327.857C267.014 328.097 267.338 328.217 267.722 328.217C268.274 328.217 268.664 327.986 268.892 327.524H269.999C269.849 327.98 269.576 328.355 269.18 328.649C268.79 328.937 268.304 329.081 267.722 329.081C267.248 329.081 266.822 328.976 266.444 328.766C266.072 328.55 265.778 328.25 265.562 327.866C265.352 327.476 265.247 327.026 265.247 326.516C265.247 326.006 265.349 325.559 265.553 325.175C265.763 324.785 266.054 324.485 266.426 324.275C266.804 324.065 267.236 323.96 267.722 323.96C268.19 323.96 268.607 324.062 268.973 324.266C269.339 324.47 269.624 324.758 269.828 325.13C270.032 325.496 270.134 325.919 270.134 326.399ZM269.063 326.075C269.057 325.697 268.922 325.394 268.658 325.166C268.394 324.938 268.067 324.824 267.677 324.824C267.323 324.824 267.02 324.938 266.768 325.166C266.516 325.388 266.366 325.691 266.318 326.075H269.063ZM272.17 324.77C272.344 324.542 272.581 324.35 272.881 324.194C273.181 324.038 273.52 323.96 273.898 323.96C274.33 323.96 274.723 324.068 275.077 324.284C275.437 324.494 275.719 324.791 275.923 325.175C276.127 325.559 276.229 326 276.229 326.498C276.229 326.996 276.127 327.443 275.923 327.839C275.719 328.229 275.437 328.535 275.077 328.757C274.723 328.973 274.33 329.081 273.898 329.081C273.52 329.081 273.184 329.006 272.89 328.856C272.596 328.7 272.356 328.508 272.17 328.28V331.358H271.144V324.041H272.17V324.77ZM275.185 326.498C275.185 326.156 275.113 325.862 274.969 325.616C274.831 325.364 274.645 325.175 274.411 325.049C274.183 324.917 273.937 324.851 273.673 324.851C273.415 324.851 273.169 324.917 272.935 325.049C272.707 325.181 272.521 325.373 272.377 325.625C272.239 325.877 272.17 326.174 272.17 326.516C272.17 326.858 272.239 327.158 272.377 327.416C272.521 327.668 272.707 327.86 272.935 327.992C273.169 328.124 273.415 328.19 273.673 328.19C273.937 328.19 274.183 328.124 274.411 327.992C274.645 327.854 274.831 327.656 274.969 327.398C275.113 327.14 275.185 326.84 275.185 326.498ZM276.901 326.498C276.901 326 277.003 325.559 277.207 325.175C277.417 324.791 277.699 324.494 278.053 324.284C278.413 324.068 278.809 323.96 279.241 323.96C279.631 323.96 279.97 324.038 280.258 324.194C280.552 324.344 280.786 324.533 280.96 324.761V324.041H281.995V329H280.96V328.262C280.786 328.496 280.549 328.691 280.249 328.847C279.949 329.003 279.607 329.081 279.223 329.081C278.797 329.081 278.407 328.973 278.053 328.757C277.699 328.535 277.417 328.229 277.207 327.839C277.003 327.443 276.901 326.996 276.901 326.498ZM280.96 326.516C280.96 326.174 280.888 325.877 280.744 325.625C280.606 325.373 280.423 325.181 280.195 325.049C279.967 324.917 279.721 324.851 279.457 324.851C279.193 324.851 278.947 324.917 278.719 325.049C278.491 325.175 278.305 325.364 278.161 325.616C278.023 325.862 277.954 326.156 277.954 326.498C277.954 326.84 278.023 327.14 278.161 327.398C278.305 327.656 278.491 327.854 278.719 327.992C278.953 328.124 279.199 328.19 279.457 328.19C279.721 328.19 279.967 328.124 280.195 327.992C280.423 327.86 280.606 327.668 280.744 327.416C280.888 327.158 280.96 326.858 280.96 326.516ZM283.865 323.384C283.679 323.384 283.523 323.321 283.397 323.195C283.271 323.069 283.208 322.913 283.208 322.727C283.208 322.541 283.271 322.385 283.397 322.259C283.523 322.133 283.679 322.07 283.865 322.07C284.045 322.07 284.198 322.133 284.324 322.259C284.45 322.385 284.513 322.541 284.513 322.727C284.513 322.913 284.45 323.069 284.324 323.195C284.198 323.321 284.045 323.384 283.865 323.384ZM284.369 324.041V329H283.343V324.041H284.369ZM286.742 324.761C286.892 324.509 287.09 324.314 287.336 324.176C287.588 324.032 287.885 323.96 288.227 323.96V325.022H287.966C287.564 325.022 287.258 325.124 287.048 325.328C286.844 325.532 286.742 325.886 286.742 326.39V329H285.716V324.041H286.742V324.761ZM292.705 324.878V327.623C292.705 327.809 292.747 327.944 292.831 328.028C292.921 328.106 293.071 328.145 293.281 328.145H293.911V329H293.101C292.639 329 292.285 328.892 292.039 328.676C291.793 328.46 291.67 328.109 291.67 327.623V324.878H291.085V324.041H291.67V322.808H292.705V324.041H293.911V324.878H292.705ZM297.422 323.96C297.8 323.96 298.136 324.041 298.43 324.203C298.73 324.365 298.964 324.605 299.132 324.923C299.306 325.241 299.393 325.625 299.393 326.075V329H298.376V326.228C298.376 325.784 298.265 325.445 298.043 325.211C297.821 324.971 297.518 324.851 297.134 324.851C296.75 324.851 296.444 324.971 296.216 325.211C295.994 325.445 295.883 325.784 295.883 326.228V329H294.857V322.34H295.883V324.617C296.057 324.407 296.276 324.245 296.54 324.131C296.81 324.017 297.104 323.96 297.422 323.96ZM305.246 326.399C305.246 326.585 305.234 326.753 305.21 326.903H301.421C301.451 327.299 301.598 327.617 301.862 327.857C302.126 328.097 302.45 328.217 302.834 328.217C303.386 328.217 303.776 327.986 304.004 327.524H305.111C304.961 327.98 304.688 328.355 304.292 328.649C303.902 328.937 303.416 329.081 302.834 329.081C302.36 329.081 301.934 328.976 301.556 328.766C301.184 328.55 300.89 328.25 300.674 327.866C300.464 327.476 300.359 327.026 300.359 326.516C300.359 326.006 300.461 325.559 300.665 325.175C300.875 324.785 301.166 324.485 301.538 324.275C301.916 324.065 302.348 323.96 302.834 323.96C303.302 323.96 303.719 324.062 304.085 324.266C304.451 324.47 304.736 324.758 304.94 325.13C305.144 325.496 305.246 325.919 305.246 326.399ZM304.175 326.075C304.169 325.697 304.034 325.394 303.77 325.166C303.506 324.938 303.179 324.824 302.789 324.824C302.435 324.824 302.132 324.938 301.88 325.166C301.628 325.388 301.478 325.691 301.43 326.075H304.175ZM310.673 324.878H309.755V329H308.72V324.878H308.135V324.041H308.72V323.69C308.72 323.12 308.87 322.706 309.17 322.448C309.476 322.184 309.953 322.052 310.601 322.052V322.907C310.289 322.907 310.07 322.967 309.944 323.087C309.818 323.201 309.755 323.402 309.755 323.69V324.041H310.673V324.878ZM312.104 323.384C311.918 323.384 311.762 323.321 311.636 323.195C311.51 323.069 311.447 322.913 311.447 322.727C311.447 322.541 311.51 322.385 311.636 322.259C311.762 322.133 311.918 322.07 312.104 322.07C312.284 322.07 312.437 322.133 312.563 322.259C312.689 322.385 312.752 322.541 312.752 322.727C312.752 322.913 312.689 323.069 312.563 323.195C312.437 323.321 312.284 323.384 312.104 323.384ZM312.608 324.041V329H311.582V324.041H312.608ZM314.981 322.34V329H313.955V322.34H314.981ZM320.873 326.399C320.873 326.585 320.861 326.753 320.837 326.903H317.048C317.078 327.299 317.225 327.617 317.489 327.857C317.753 328.097 318.077 328.217 318.461 328.217C319.013 328.217 319.403 327.986 319.631 327.524H320.738C320.588 327.98 320.315 328.355 319.919 328.649C319.529 328.937 319.043 329.081 318.461 329.081C317.987 329.081 317.561 328.976 317.183 328.766C316.811 328.55 316.517 328.25 316.301 327.866C316.091 327.476 315.986 327.026 315.986 326.516C315.986 326.006 316.088 325.559 316.292 325.175C316.502 324.785 316.793 324.485 317.165 324.275C317.543 324.065 317.975 323.96 318.461 323.96C318.929 323.96 319.346 324.062 319.712 324.266C320.078 324.47 320.363 324.758 320.567 325.13C320.771 325.496 320.873 325.919 320.873 326.399ZM319.802 326.075C319.796 325.697 319.661 325.394 319.397 325.166C319.133 324.938 318.806 324.824 318.416 324.824C318.062 324.824 317.759 324.938 317.507 325.166C317.255 325.388 317.105 325.691 317.057 326.075H319.802ZM326.021 329.081C325.631 329.081 325.28 329.012 324.968 328.874C324.662 328.73 324.419 328.538 324.239 328.298C324.059 328.052 323.963 327.779 323.951 327.479H325.013C325.031 327.689 325.13 327.866 325.31 328.01C325.496 328.148 325.727 328.217 326.003 328.217C326.291 328.217 326.513 328.163 326.669 328.055C326.831 327.941 326.912 327.797 326.912 327.623C326.912 327.437 326.822 327.299 326.642 327.209C326.468 327.119 326.189 327.02 325.805 326.912C325.433 326.81 325.13 326.711 324.896 326.615C324.662 326.519 324.458 326.372 324.284 326.174C324.116 325.976 324.032 325.715 324.032 325.391C324.032 325.127 324.11 324.887 324.266 324.671C324.422 324.449 324.644 324.275 324.932 324.149C325.226 324.023 325.562 323.96 325.94 323.96C326.504 323.96 326.957 324.104 327.299 324.392C327.647 324.674 327.833 325.061 327.857 325.553H326.831C326.813 325.331 326.723 325.154 326.561 325.022C326.399 324.89 326.18 324.824 325.904 324.824C325.634 324.824 325.427 324.875 325.283 324.977C325.139 325.079 325.067 325.214 325.067 325.382C325.067 325.514 325.115 325.625 325.211 325.715C325.307 325.805 325.424 325.877 325.562 325.931C325.7 325.979 325.904 326.042 326.174 326.12C326.534 326.216 326.828 326.315 327.056 326.417C327.29 326.513 327.491 326.657 327.659 326.849C327.827 327.041 327.914 327.296 327.92 327.614C327.92 327.896 327.842 328.148 327.686 328.37C327.53 328.592 327.308 328.766 327.02 328.892C326.738 329.018 326.405 329.081 326.021 329.081ZM333.493 324.041L330.451 331.331H329.389L330.397 328.919L328.444 324.041H329.587L330.982 327.821L332.431 324.041H333.493ZM336.067 329.081C335.677 329.081 335.326 329.012 335.014 328.874C334.708 328.73 334.465 328.538 334.285 328.298C334.105 328.052 334.009 327.779 333.997 327.479H335.059C335.077 327.689 335.176 327.866 335.356 328.01C335.542 328.148 335.773 328.217 336.049 328.217C336.337 328.217 336.559 328.163 336.715 328.055C336.877 327.941 336.958 327.797 336.958 327.623C336.958 327.437 336.868 327.299 336.688 327.209C336.514 327.119 336.235 327.02 335.851 326.912C335.479 326.81 335.176 326.711 334.942 326.615C334.708 326.519 334.504 326.372 334.33 326.174C334.162 325.976 334.078 325.715 334.078 325.391C334.078 325.127 334.156 324.887 334.312 324.671C334.468 324.449 334.69 324.275 334.978 324.149C335.272 324.023 335.608 323.96 335.986 323.96C336.55 323.96 337.003 324.104 337.345 324.392C337.693 324.674 337.879 325.061 337.903 325.553H336.877C336.859 325.331 336.769 325.154 336.607 325.022C336.445 324.89 336.226 324.824 335.95 324.824C335.68 324.824 335.473 324.875 335.329 324.977C335.185 325.079 335.113 325.214 335.113 325.382C335.113 325.514 335.161 325.625 335.257 325.715C335.353 325.805 335.47 325.877 335.608 325.931C335.746 325.979 335.95 326.042 336.22 326.12C336.58 326.216 336.874 326.315 337.102 326.417C337.336 326.513 337.537 326.657 337.705 326.849C337.873 327.041 337.96 327.296 337.966 327.614C337.966 327.896 337.888 328.148 337.732 328.37C337.576 328.592 337.354 328.766 337.066 328.892C336.784 329.018 336.451 329.081 336.067 329.081ZM340.271 324.878V327.623C340.271 327.809 340.313 327.944 340.397 328.028C340.487 328.106 340.637 328.145 340.847 328.145H341.477V329H340.667C340.205 329 339.851 328.892 339.605 328.676C339.359 328.46 339.236 328.109 339.236 327.623V324.878H338.651V324.041H339.236V322.808H340.271V324.041H341.477V324.878H340.271ZM346.968 326.399C346.968 326.585 346.956 326.753 346.932 326.903H343.143C343.173 327.299 343.32 327.617 343.584 327.857C343.848 328.097 344.172 328.217 344.556 328.217C345.108 328.217 345.498 327.986 345.726 327.524H346.833C346.683 327.98 346.41 328.355 346.014 328.649C345.624 328.937 345.138 329.081 344.556 329.081C344.082 329.081 343.656 328.976 343.278 328.766C342.906 328.55 342.612 328.25 342.396 327.866C342.186 327.476 342.081 327.026 342.081 326.516C342.081 326.006 342.183 325.559 342.387 325.175C342.597 324.785 342.888 324.485 343.26 324.275C343.638 324.065 344.07 323.96 344.556 323.96C345.024 323.96 345.441 324.062 345.807 324.266C346.173 324.47 346.458 324.758 346.662 325.13C346.866 325.496 346.968 325.919 346.968 326.399ZM345.897 326.075C345.891 325.697 345.756 325.394 345.492 325.166C345.228 324.938 344.901 324.824 344.511 324.824C344.157 324.824 343.854 324.938 343.602 325.166C343.35 325.388 343.2 325.691 343.152 326.075H345.897ZM353.981 323.96C354.371 323.96 354.719 324.041 355.025 324.203C355.337 324.365 355.58 324.605 355.754 324.923C355.934 325.241 356.024 325.625 356.024 326.075V329H355.007V326.228C355.007 325.784 354.896 325.445 354.674 325.211C354.452 324.971 354.149 324.851 353.765 324.851C353.381 324.851 353.075 324.971 352.847 325.211C352.625 325.445 352.514 325.784 352.514 326.228V329H351.497V326.228C351.497 325.784 351.386 325.445 351.164 325.211C350.942 324.971 350.639 324.851 350.255 324.851C349.871 324.851 349.565 324.971 349.337 325.211C349.115 325.445 349.004 325.784 349.004 326.228V329H347.978V324.041H349.004V324.608C349.172 324.404 349.385 324.245 349.643 324.131C349.901 324.017 350.177 323.96 350.471 323.96C350.867 323.96 351.221 324.044 351.533 324.212C351.845 324.38 352.085 324.623 352.253 324.941C352.403 324.641 352.637 324.404 352.955 324.23C353.273 324.05 353.615 323.96 353.981 323.96Z"></path>
<path stroke-linejoin="round" stroke-linecap="round" stroke-width="1.5" stroke="black" d="M438 322L442.293 317.707C442.683 317.317 442.683 316.683 442.293 316.293L438 312"></path>
</svg>
