<svg xmlns="http://www.w3.org/2000/svg" fill="none" viewBox="0 0 480 170" height="170" width="480">
<path fill-opacity="0.9" fill="#1A1A1A" d="M10 30C10 24.4772 14.4772 20 20 20H460C465.523 20 470 24.4772 470 30V140C470 145.523 465.523 150 460 150H20C14.4772 150 10 145.523 10 140V30Z"></path>
<path stroke-width="2" stroke-opacity="0.2" stroke="white" d="M20 19C13.9249 19 9 23.9249 9 30V140C9 146.075 13.9249 151 20 151H460C466.075 151 471 146.075 471 140V30C471 23.9249 466.075 19 460 19H20Z"></path>
<path fill="white" d="M30.407 47.161C30.407 46.413 30.5793 45.742 30.924 45.148C31.276 44.554 31.749 44.092 32.343 43.762C32.9443 43.4247 33.6007 43.256 34.312 43.256C35.126 43.256 35.8483 43.4577 36.479 43.861C37.117 44.257 37.579 44.8217 37.865 45.555H36.358C36.16 45.1517 35.885 44.851 35.533 44.653C35.181 44.455 34.774 44.356 34.312 44.356C33.806 44.356 33.355 44.4697 32.959 44.697C32.563 44.9243 32.2513 45.2507 32.024 45.676C31.804 46.1013 31.694 46.5963 31.694 47.161C31.694 47.7257 31.804 48.2207 32.024 48.646C32.2513 49.0713 32.563 49.4013 32.959 49.636C33.355 49.8633 33.806 49.977 34.312 49.977C34.774 49.977 35.181 49.878 35.533 49.68C35.885 49.482 36.16 49.1813 36.358 48.778H37.865C37.579 49.5113 37.117 50.076 36.479 50.472C35.8483 50.868 35.126 51.066 34.312 51.066C33.5933 51.066 32.937 50.901 32.343 50.571C31.749 50.2337 31.276 49.768 30.924 49.174C30.5793 48.58 30.407 47.909 30.407 47.161ZM41.9618 51.099C41.3898 51.099 40.8728 50.9707 40.4108 50.714C39.9488 50.45 39.5858 50.0833 39.3218 49.614C39.0578 49.1373 38.9258 48.5873 38.9258 47.964C38.9258 47.348 39.0615 46.8017 39.3328 46.325C39.6041 45.8483 39.9745 45.4817 40.4438 45.225C40.9131 44.9683 41.4375 44.84 42.0168 44.84C42.5961 44.84 43.1205 44.9683 43.5898 45.225C44.0591 45.4817 44.4295 45.8483 44.7008 46.325C44.9721 46.8017 45.1078 47.348 45.1078 47.964C45.1078 48.58 44.9685 49.1263 44.6898 49.603C44.4111 50.0797 44.0298 50.45 43.5458 50.714C43.0691 50.9707 42.5411 51.099 41.9618 51.099ZM41.9618 50.01C42.2845 50.01 42.5851 49.933 42.8638 49.779C43.1498 49.625 43.3808 49.394 43.5568 49.086C43.7328 48.778 43.8208 48.404 43.8208 47.964C43.8208 47.524 43.7365 47.1537 43.5678 46.853C43.3991 46.545 43.1755 46.314 42.8968 46.16C42.6181 46.006 42.3175 45.929 41.9948 45.929C41.6721 45.929 41.3715 46.006 41.0928 46.16C40.8215 46.314 40.6051 46.545 40.4438 46.853C40.2825 47.1537 40.2018 47.524 40.2018 47.964C40.2018 48.6167 40.3668 49.1227 40.6968 49.482C41.0341 49.834 41.4558 50.01 41.9618 50.01ZM47.6015 45.83C47.8141 45.5513 48.1038 45.3167 48.4705 45.126C48.8371 44.9353 49.2515 44.84 49.7135 44.84C50.2415 44.84 50.7218 44.972 51.1545 45.236C51.5945 45.4927 51.9391 45.8557 52.1885 46.325C52.4378 46.7943 52.5625 47.3333 52.5625 47.942C52.5625 48.5507 52.4378 49.097 52.1885 49.581C51.9391 50.0577 51.5945 50.4317 51.1545 50.703C50.7218 50.967 50.2415 51.099 49.7135 51.099C49.2515 51.099 48.8408 51.0073 48.4815 50.824C48.1221 50.6333 47.8288 50.3987 47.6015 50.12V53.882H46.3475V44.939H47.6015V45.83ZM51.2865 47.942C51.2865 47.524 51.1985 47.1647 51.0225 46.864C50.8538 46.556 50.6265 46.325 50.3405 46.171C50.0618 46.0097 49.7611 45.929 49.4385 45.929C49.1231 45.929 48.8225 46.0097 48.5365 46.171C48.2578 46.3323 48.0305 46.567 47.8545 46.875C47.6858 47.183 47.6015 47.546 47.6015 47.964C47.6015 48.382 47.6858 48.7487 47.8545 49.064C48.0305 49.372 48.2578 49.6067 48.5365 49.768C48.8225 49.9293 49.1231 50.01 49.4385 50.01C49.7611 50.01 50.0618 49.9293 50.3405 49.768C50.6265 49.5993 50.8538 49.3573 51.0225 49.042C51.1985 48.7267 51.2865 48.36 51.2865 47.942ZM59.2585 44.939L55.5405 53.849H54.2425L55.4745 50.901L53.0875 44.939H54.4845L56.1895 49.559L57.9605 44.939H59.2585ZM64.5253 45.962V49.317C64.5253 49.5443 64.5766 49.7093 64.6793 49.812C64.7893 49.9073 64.9726 49.955 65.2293 49.955H65.9993V51H65.0093C64.4446 51 64.012 50.868 63.7113 50.604C63.4106 50.34 63.2603 49.911 63.2603 49.317V45.962H62.5453V44.939H63.2603V43.432H64.5253V44.939H65.9993V45.962H64.5253ZM70.2901 44.84C70.7521 44.84 71.1627 44.939 71.5221 45.137C71.8887 45.335 72.1747 45.6283 72.3801 46.017C72.5927 46.4057 72.6991 46.875 72.6991 47.425V51H71.4561V47.612C71.4561 47.0693 71.3204 46.655 71.0491 46.369C70.7777 46.0757 70.4074 45.929 69.9381 45.929C69.4687 45.929 69.0947 46.0757 68.8161 46.369C68.5447 46.655 68.4091 47.0693 68.4091 47.612V51H67.1551V42.86H68.4091V45.643C68.6217 45.3863 68.8894 45.1883 69.2121 45.049C69.5421 44.9097 69.9014 44.84 70.2901 44.84ZM79.8536 47.821C79.8536 48.0483 79.839 48.2537 79.8096 48.437H75.1786C75.2153 48.921 75.395 49.3097 75.7176 49.603C76.0403 49.8963 76.4363 50.043 76.9056 50.043C77.5803 50.043 78.057 49.7607 78.3356 49.196H79.6886C79.5053 49.7533 79.1716 50.2117 78.6876 50.571C78.211 50.923 77.617 51.099 76.9056 51.099C76.3263 51.099 75.8056 50.9707 75.3436 50.714C74.889 50.45 74.5296 50.0833 74.2656 49.614C74.009 49.1373 73.8806 48.5873 73.8806 47.964C73.8806 47.3407 74.0053 46.7943 74.2546 46.325C74.5113 45.8483 74.867 45.4817 75.3216 45.225C75.7836 44.9683 76.3116 44.84 76.9056 44.84C77.4776 44.84 77.9873 44.9647 78.4346 45.214C78.882 45.4633 79.2303 45.8153 79.4796 46.27C79.729 46.7173 79.8536 47.2343 79.8536 47.821ZM78.5446 47.425C78.5373 46.963 78.3723 46.5927 78.0496 46.314C77.727 46.0353 77.3273 45.896 76.8506 45.896C76.418 45.896 76.0476 46.0353 75.7396 46.314C75.4316 46.5853 75.2483 46.9557 75.1896 47.425H78.5446ZM83.5271 47.964C83.5271 47.3407 83.6518 46.7943 83.9011 46.325C84.1578 45.8483 84.5098 45.4817 84.9571 45.225C85.4045 44.9683 85.9178 44.84 86.4971 44.84C87.2305 44.84 87.8355 45.016 88.3121 45.368C88.7961 45.7127 89.1225 46.2077 89.2911 46.853H87.9381C87.8281 46.5523 87.6521 46.3177 87.4101 46.149C87.1681 45.9803 86.8638 45.896 86.4971 45.896C85.9838 45.896 85.5731 46.0793 85.2651 46.446C84.9645 46.8053 84.8141 47.3113 84.8141 47.964C84.8141 48.6167 84.9645 49.1263 85.2651 49.493C85.5731 49.8597 85.9838 50.043 86.4971 50.043C87.2231 50.043 87.7035 49.724 87.9381 49.086H89.2911C89.1151 49.702 88.7851 50.1933 88.3011 50.56C87.8171 50.9193 87.2158 51.099 86.4971 51.099C85.9178 51.099 85.4045 50.9707 84.9571 50.714C84.5098 50.45 84.1578 50.0833 83.9011 49.614C83.6518 49.1373 83.5271 48.5873 83.5271 47.964ZM93.1698 51.099C92.5978 51.099 92.0808 50.9707 91.6188 50.714C91.1568 50.45 90.7938 50.0833 90.5298 49.614C90.2658 49.1373 90.1338 48.5873 90.1338 47.964C90.1338 47.348 90.2695 46.8017 90.5408 46.325C90.8122 45.8483 91.1825 45.4817 91.6518 45.225C92.1212 44.9683 92.6455 44.84 93.2248 44.84C93.8042 44.84 94.3285 44.9683 94.7978 45.225C95.2672 45.4817 95.6375 45.8483 95.9088 46.325C96.1802 46.8017 96.3158 47.348 96.3158 47.964C96.3158 48.58 96.1765 49.1263 95.8978 49.603C95.6192 50.0797 95.2378 50.45 94.7538 50.714C94.2772 50.9707 93.7492 51.099 93.1698 51.099ZM93.1698 50.01C93.4925 50.01 93.7932 49.933 94.0718 49.779C94.3578 49.625 94.5888 49.394 94.7648 49.086C94.9408 48.778 95.0288 48.404 95.0288 47.964C95.0288 47.524 94.9445 47.1537 94.7758 46.853C94.6072 46.545 94.3835 46.314 94.1048 46.16C93.8262 46.006 93.5255 45.929 93.2028 45.929C92.8802 45.929 92.5795 46.006 92.3008 46.16C92.0295 46.314 91.8132 46.545 91.6518 46.853C91.4905 47.1537 91.4098 47.524 91.4098 47.964C91.4098 48.6167 91.5748 49.1227 91.9048 49.482C92.2422 49.834 92.6638 50.01 93.1698 50.01ZM100.613 44.84C101.09 44.84 101.515 44.939 101.889 45.137C102.271 45.335 102.568 45.6283 102.78 46.017C102.993 46.4057 103.099 46.875 103.099 47.425V51H101.856V47.612C101.856 47.0693 101.721 46.655 101.449 46.369C101.178 46.0757 100.808 45.929 100.338 45.929C99.8691 45.929 99.4951 46.0757 99.2165 46.369C98.9451 46.655 98.8095 47.0693 98.8095 47.612V51H97.5555V44.939H98.8095V45.632C99.0148 45.3827 99.2751 45.1883 99.5905 45.049C99.9131 44.9097 100.254 44.84 100.613 44.84ZM106.162 45.962V49.317C106.162 49.5443 106.213 49.7093 106.316 49.812C106.426 49.9073 106.609 49.955 106.866 49.955H107.636V51H106.646C106.081 51 105.649 50.868 105.348 50.604C105.047 50.34 104.897 49.911 104.897 49.317V45.962H104.182V44.939H104.897V43.432H106.162V44.939H107.636V45.962H106.162ZM114.347 47.821C114.347 48.0483 114.332 48.2537 114.303 48.437H109.672C109.708 48.921 109.888 49.3097 110.211 49.603C110.533 49.8963 110.929 50.043 111.399 50.043C112.073 50.043 112.55 49.7607 112.829 49.196H114.182C113.998 49.7533 113.665 50.2117 113.181 50.571C112.704 50.923 112.11 51.099 111.399 51.099C110.819 51.099 110.299 50.9707 109.837 50.714C109.382 50.45 109.023 50.0833 108.759 49.614C108.502 49.1373 108.374 48.5873 108.374 47.964C108.374 47.3407 108.498 46.7943 108.748 46.325C109.004 45.8483 109.36 45.4817 109.815 45.225C110.277 44.9683 110.805 44.84 111.399 44.84C111.971 44.84 112.48 44.9647 112.928 45.214C113.375 45.4633 113.723 45.8153 113.973 46.27C114.222 46.7173 114.347 47.2343 114.347 47.821ZM113.038 47.425C113.03 46.963 112.865 46.5927 112.543 46.314C112.22 46.0353 111.82 45.896 111.344 45.896C110.911 45.896 110.541 46.0353 110.233 46.314C109.925 46.5853 109.741 46.9557 109.683 47.425H113.038ZM118.639 44.84C119.116 44.84 119.541 44.939 119.915 45.137C120.296 45.335 120.593 45.6283 120.806 46.017C121.019 46.4057 121.125 46.875 121.125 47.425V51H119.882V47.612C119.882 47.0693 119.746 46.655 119.475 46.369C119.204 46.0757 118.833 45.929 118.364 45.929C117.895 45.929 117.521 46.0757 117.242 46.369C116.971 46.655 116.835 47.0693 116.835 47.612V51H115.581V44.939H116.835V45.632C117.04 45.3827 117.301 45.1883 117.616 45.049C117.939 44.9097 118.28 44.84 118.639 44.84ZM124.187 45.962V49.317C124.187 49.5443 124.239 49.7093 124.341 49.812C124.451 49.9073 124.635 49.955 124.891 49.955H125.661V51H124.671C124.107 51 123.674 50.868 123.373 50.604C123.073 50.34 122.922 49.911 122.922 49.317V45.962H122.207V44.939H122.922V43.432H124.187V44.939H125.661V45.962H124.187ZM129.017 51.099C128.541 51.099 128.112 51.0147 127.73 50.846C127.356 50.67 127.059 50.4353 126.839 50.142C126.619 49.8413 126.502 49.5077 126.487 49.141H127.785C127.807 49.3977 127.928 49.614 128.148 49.79C128.376 49.9587 128.658 50.043 128.995 50.043C129.347 50.043 129.619 49.977 129.809 49.845C130.007 49.7057 130.106 49.5297 130.106 49.317C130.106 49.0897 129.996 48.921 129.776 48.811C129.564 48.701 129.223 48.58 128.753 48.448C128.299 48.3233 127.928 48.2023 127.642 48.085C127.356 47.9677 127.107 47.788 126.894 47.546C126.689 47.304 126.586 46.985 126.586 46.589C126.586 46.2663 126.682 45.973 126.872 45.709C127.063 45.4377 127.334 45.225 127.686 45.071C128.046 44.917 128.456 44.84 128.918 44.84C129.608 44.84 130.161 45.016 130.579 45.368C131.005 45.7127 131.232 46.1857 131.261 46.787H130.007C129.985 46.5157 129.875 46.2993 129.677 46.138C129.479 45.9767 129.212 45.896 128.874 45.896C128.544 45.896 128.291 45.9583 128.115 46.083C127.939 46.2077 127.851 46.3727 127.851 46.578C127.851 46.7393 127.91 46.875 128.027 46.985C128.145 47.095 128.288 47.183 128.456 47.249C128.625 47.3077 128.874 47.3847 129.204 47.48C129.644 47.5973 130.004 47.7183 130.282 47.843C130.568 47.9603 130.814 48.1363 131.019 48.371C131.225 48.6057 131.331 48.9173 131.338 49.306C131.338 49.6507 131.243 49.9587 131.052 50.23C130.862 50.5013 130.59 50.714 130.238 50.868C129.894 51.022 129.487 51.099 129.017 51.099ZM138.18 51.099C137.608 51.099 137.091 50.9707 136.629 50.714C136.167 50.45 135.804 50.0833 135.54 49.614C135.276 49.1373 135.144 48.5873 135.144 47.964C135.144 47.348 135.279 46.8017 135.551 46.325C135.822 45.8483 136.192 45.4817 136.662 45.225C137.131 44.9683 137.655 44.84 138.235 44.84C138.814 44.84 139.338 44.9683 139.808 45.225C140.277 45.4817 140.647 45.8483 140.919 46.325C141.19 46.8017 141.326 47.348 141.326 47.964C141.326 48.58 141.186 49.1263 140.908 49.603C140.629 50.0797 140.248 50.45 139.764 50.714C139.287 50.9707 138.759 51.099 138.18 51.099ZM138.18 50.01C138.502 50.01 138.803 49.933 139.082 49.779C139.368 49.625 139.599 49.394 139.775 49.086C139.951 48.778 140.039 48.404 140.039 47.964C140.039 47.524 139.954 47.1537 139.786 46.853C139.617 46.545 139.393 46.314 139.115 46.16C138.836 46.006 138.535 45.929 138.213 45.929C137.89 45.929 137.589 46.006 137.311 46.16C137.039 46.314 136.823 46.545 136.662 46.853C136.5 47.1537 136.42 47.524 136.42 47.964C136.42 48.6167 136.585 49.1227 136.915 49.482C137.252 49.834 137.674 50.01 138.18 50.01ZM145.106 45.962H143.984V51H142.719V45.962H142.004V44.939H142.719V44.51C142.719 43.8133 142.903 43.3073 143.269 42.992C143.643 42.6693 144.226 42.508 145.018 42.508V43.553C144.637 43.553 144.369 43.6263 144.215 43.773C144.061 43.9123 143.984 44.158 143.984 44.51V44.939H145.106V45.962ZM150.538 45.962V49.317C150.538 49.5443 150.589 49.7093 150.692 49.812C150.802 49.9073 150.985 49.955 151.242 49.955H152.012V51H151.022C150.457 51 150.025 50.868 149.724 50.604C149.423 50.34 149.273 49.911 149.273 49.317V45.962H148.558V44.939H149.273V43.432H150.538V44.939H152.012V45.962H150.538ZM156.303 44.84C156.765 44.84 157.175 44.939 157.535 45.137C157.901 45.335 158.187 45.6283 158.393 46.017C158.605 46.4057 158.712 46.875 158.712 47.425V51H157.469V47.612C157.469 47.0693 157.333 46.655 157.062 46.369C156.79 46.0757 156.42 45.929 155.951 45.929C155.481 45.929 155.107 46.0757 154.829 46.369C154.557 46.655 154.422 47.0693 154.422 47.612V51H153.168V42.86H154.422V45.643C154.634 45.3863 154.902 45.1883 155.225 45.049C155.555 44.9097 155.914 44.84 156.303 44.84ZM165.866 47.821C165.866 48.0483 165.852 48.2537 165.822 48.437H161.191C161.228 48.921 161.408 49.3097 161.73 49.603C162.053 49.8963 162.449 50.043 162.918 50.043C163.593 50.043 164.07 49.7607 164.348 49.196H165.701C165.518 49.7533 165.184 50.2117 164.7 50.571C164.224 50.923 163.63 51.099 162.918 51.099C162.339 51.099 161.818 50.9707 161.356 50.714C160.902 50.45 160.542 50.0833 160.278 49.614C160.022 49.1373 159.893 48.5873 159.893 47.964C159.893 47.3407 160.018 46.7943 160.267 46.325C160.524 45.8483 160.88 45.4817 161.334 45.225C161.796 44.9683 162.324 44.84 162.918 44.84C163.49 44.84 164 44.9647 164.447 45.214C164.895 45.4633 165.243 45.8153 165.492 46.27C165.742 46.7173 165.866 47.2343 165.866 47.821ZM164.557 47.425C164.55 46.963 164.385 46.5927 164.062 46.314C163.74 46.0353 163.34 45.896 162.863 45.896C162.431 45.896 162.06 46.0353 161.752 46.314C161.444 46.5853 161.261 46.9557 161.202 47.425H164.557ZM171.212 45.83C171.424 45.5513 171.714 45.3167 172.081 45.126C172.447 44.9353 172.862 44.84 173.324 44.84C173.852 44.84 174.332 44.972 174.765 45.236C175.205 45.4927 175.549 45.8557 175.799 46.325C176.048 46.7943 176.173 47.3333 176.173 47.942C176.173 48.5507 176.048 49.097 175.799 49.581C175.549 50.0577 175.205 50.4317 174.765 50.703C174.332 50.967 173.852 51.099 173.324 51.099C172.862 51.099 172.451 51.0073 172.092 50.824C171.732 50.6333 171.439 50.3987 171.212 50.12V53.882H169.958V44.939H171.212V45.83ZM174.897 47.942C174.897 47.524 174.809 47.1647 174.633 46.864C174.464 46.556 174.237 46.325 173.951 46.171C173.672 46.0097 173.371 45.929 173.049 45.929C172.733 45.929 172.433 46.0097 172.147 46.171C171.868 46.3323 171.641 46.567 171.465 46.875C171.296 47.183 171.212 47.546 171.212 47.964C171.212 48.382 171.296 48.7487 171.465 49.064C171.641 49.372 171.868 49.6067 172.147 49.768C172.433 49.9293 172.733 50.01 173.049 50.01C173.371 50.01 173.672 49.9293 173.951 49.768C174.237 49.5993 174.464 49.3573 174.633 49.042C174.809 48.7267 174.897 48.36 174.897 47.942ZM178.667 45.819C178.85 45.511 179.092 45.2727 179.393 45.104C179.701 44.928 180.064 44.84 180.482 44.84V46.138H180.163C179.672 46.138 179.298 46.2627 179.041 46.512C178.792 46.7613 178.667 47.194 178.667 47.81V51H177.413V44.939H178.667V45.819ZM187.19 47.821C187.19 48.0483 187.175 48.2537 187.146 48.437H182.515C182.551 48.921 182.731 49.3097 183.054 49.603C183.376 49.8963 183.772 50.043 184.242 50.043C184.916 50.043 185.393 49.7607 185.672 49.196H187.025C186.841 49.7533 186.508 50.2117 186.024 50.571C185.547 50.923 184.953 51.099 184.242 51.099C183.662 51.099 183.142 50.9707 182.68 50.714C182.225 50.45 181.866 50.0833 181.602 49.614C181.345 49.1373 181.217 48.5873 181.217 47.964C181.217 47.3407 181.341 46.7943 181.591 46.325C181.847 45.8483 182.203 45.4817 182.658 45.225C183.12 44.9683 183.648 44.84 184.242 44.84C184.814 44.84 185.323 44.9647 185.771 45.214C186.218 45.4633 186.566 45.8153 186.816 46.27C187.065 46.7173 187.19 47.2343 187.19 47.821ZM185.881 47.425C185.873 46.963 185.708 46.5927 185.386 46.314C185.063 46.0353 184.663 45.896 184.187 45.896C183.754 45.896 183.384 46.0353 183.076 46.314C182.768 46.5853 182.584 46.9557 182.526 47.425H185.881ZM190.767 49.878L192.483 44.939H193.814L191.504 51H190.008L187.709 44.939H189.051L190.767 49.878ZM195.4 44.136C195.172 44.136 194.982 44.059 194.828 43.905C194.674 43.751 194.597 43.5603 194.597 43.333C194.597 43.1057 194.674 42.915 194.828 42.761C194.982 42.607 195.172 42.53 195.4 42.53C195.62 42.53 195.807 42.607 195.961 42.761C196.115 42.915 196.192 43.1057 196.192 43.333C196.192 43.5603 196.115 43.751 195.961 43.905C195.807 44.059 195.62 44.136 195.4 44.136ZM196.016 44.939V51H194.762V44.939H196.016ZM200.291 51.099C199.719 51.099 199.202 50.9707 198.74 50.714C198.278 50.45 197.915 50.0833 197.651 49.614C197.387 49.1373 197.255 48.5873 197.255 47.964C197.255 47.348 197.391 46.8017 197.662 46.325C197.933 45.8483 198.304 45.4817 198.773 45.225C199.242 44.9683 199.767 44.84 200.346 44.84C200.925 44.84 201.45 44.9683 201.919 45.225C202.388 45.4817 202.759 45.8483 203.03 46.325C203.301 46.8017 203.437 47.348 203.437 47.964C203.437 48.58 203.298 49.1263 203.019 49.603C202.74 50.0797 202.359 50.45 201.875 50.714C201.398 50.9707 200.87 51.099 200.291 51.099ZM200.291 50.01C200.614 50.01 200.914 49.933 201.193 49.779C201.479 49.625 201.71 49.394 201.886 49.086C202.062 48.778 202.15 48.404 202.15 47.964C202.15 47.524 202.066 47.1537 201.897 46.853C201.728 46.545 201.505 46.314 201.226 46.16C200.947 46.006 200.647 45.929 200.324 45.929C200.001 45.929 199.701 46.006 199.422 46.16C199.151 46.314 198.934 46.545 198.773 46.853C198.612 47.1537 198.531 47.524 198.531 47.964C198.531 48.6167 198.696 49.1227 199.026 49.482C199.363 49.834 199.785 50.01 200.291 50.01ZM210.166 44.939V51H208.912V50.285C208.714 50.5343 208.453 50.7323 208.131 50.879C207.815 51.0183 207.478 51.088 207.119 51.088C206.642 51.088 206.213 50.989 205.832 50.791C205.458 50.593 205.161 50.2997 204.941 49.911C204.728 49.5223 204.622 49.053 204.622 48.503V44.939H205.865V48.316C205.865 48.8587 206 49.2767 206.272 49.57C206.543 49.856 206.913 49.999 207.383 49.999C207.852 49.999 208.222 49.856 208.494 49.57C208.772 49.2767 208.912 48.8587 208.912 48.316V44.939H210.166ZM214.02 51.099C213.543 51.099 213.114 51.0147 212.733 50.846C212.359 50.67 212.062 50.4353 211.842 50.142C211.622 49.8413 211.505 49.5077 211.49 49.141H212.788C212.81 49.3977 212.931 49.614 213.151 49.79C213.378 49.9587 213.661 50.043 213.998 50.043C214.35 50.043 214.621 49.977 214.812 49.845C215.01 49.7057 215.109 49.5297 215.109 49.317C215.109 49.0897 214.999 48.921 214.779 48.811C214.566 48.701 214.225 48.58 213.756 48.448C213.301 48.3233 212.931 48.2023 212.645 48.085C212.359 47.9677 212.11 47.788 211.897 47.546C211.692 47.304 211.589 46.985 211.589 46.589C211.589 46.2663 211.684 45.973 211.875 45.709C212.066 45.4377 212.337 45.225 212.689 45.071C213.048 44.917 213.459 44.84 213.921 44.84C214.61 44.84 215.164 45.016 215.582 45.368C216.007 45.7127 216.235 46.1857 216.264 46.787H215.01C214.988 46.5157 214.878 46.2993 214.68 46.138C214.482 45.9767 214.214 45.896 213.877 45.896C213.547 45.896 213.294 45.9583 213.118 46.083C212.942 46.2077 212.854 46.3727 212.854 46.578C212.854 46.7393 212.913 46.875 213.03 46.985C213.147 47.095 213.29 47.183 213.459 47.249C213.628 47.3077 213.877 47.3847 214.207 47.48C214.647 47.5973 215.006 47.7183 215.285 47.843C215.571 47.9603 215.817 48.1363 216.022 48.371C216.227 48.6057 216.334 48.9173 216.341 49.306C216.341 49.6507 216.246 49.9587 216.055 50.23C215.864 50.5013 215.593 50.714 215.241 50.868C214.896 51.022 214.489 51.099 214.02 51.099ZM218.95 42.86V51H217.696V42.86H218.95ZM226.052 44.939L222.334 53.849H221.036L222.268 50.901L219.881 44.939H221.278L222.983 49.559L224.754 44.939H226.052ZM232.056 51.099C231.58 51.099 231.151 51.0147 230.769 50.846C230.395 50.67 230.098 50.4353 229.878 50.142C229.658 49.8413 229.541 49.5077 229.526 49.141H230.824C230.846 49.3977 230.967 49.614 231.187 49.79C231.415 49.9587 231.697 50.043 232.034 50.043C232.386 50.043 232.658 49.977 232.848 49.845C233.046 49.7057 233.145 49.5297 233.145 49.317C233.145 49.0897 233.035 48.921 232.815 48.811C232.603 48.701 232.262 48.58 231.792 48.448C231.338 48.3233 230.967 48.2023 230.681 48.085C230.395 47.9677 230.146 47.788 229.933 47.546C229.728 47.304 229.625 46.985 229.625 46.589C229.625 46.2663 229.721 45.973 229.911 45.709C230.102 45.4377 230.373 45.225 230.725 45.071C231.085 44.917 231.495 44.84 231.957 44.84C232.647 44.84 233.2 45.016 233.618 45.368C234.044 45.7127 234.271 46.1857 234.3 46.787H233.046C233.024 46.5157 232.914 46.2993 232.716 46.138C232.518 45.9767 232.251 45.896 231.913 45.896C231.583 45.896 231.33 45.9583 231.154 46.083C230.978 46.2077 230.89 46.3727 230.89 46.578C230.89 46.7393 230.949 46.875 231.066 46.985C231.184 47.095 231.327 47.183 231.495 47.249C231.664 47.3077 231.913 47.3847 232.243 47.48C232.683 47.5973 233.043 47.7183 233.321 47.843C233.607 47.9603 233.853 48.1363 234.058 48.371C234.264 48.6057 234.37 48.9173 234.377 49.306C234.377 49.6507 234.282 49.9587 234.091 50.23C233.901 50.5013 233.629 50.714 233.277 50.868C232.933 51.022 232.526 51.099 232.056 51.099ZM235.314 47.942C235.314 47.3333 235.439 46.7943 235.688 46.325C235.945 45.8557 236.29 45.4927 236.722 45.236C237.162 44.972 237.646 44.84 238.174 44.84C238.651 44.84 239.065 44.9353 239.417 45.126C239.777 45.3093 240.063 45.5403 240.275 45.819V44.939H241.54V51H240.275V50.098C240.063 50.384 239.773 50.6223 239.406 50.813C239.04 51.0037 238.622 51.099 238.152 51.099C237.632 51.099 237.155 50.967 236.722 50.703C236.29 50.4317 235.945 50.0577 235.688 49.581C235.439 49.097 235.314 48.5507 235.314 47.942ZM240.275 47.964C240.275 47.546 240.187 47.183 240.011 46.875C239.843 46.567 239.619 46.3323 239.34 46.171C239.062 46.0097 238.761 45.929 238.438 45.929C238.116 45.929 237.815 46.0097 237.536 46.171C237.258 46.325 237.03 46.556 236.854 46.864C236.686 47.1647 236.601 47.524 236.601 47.942C236.601 48.36 236.686 48.7267 236.854 49.042C237.03 49.3573 237.258 49.5993 237.536 49.768C237.822 49.9293 238.123 50.01 238.438 50.01C238.761 50.01 239.062 49.9293 239.34 49.768C239.619 49.6067 239.843 49.372 240.011 49.064C240.187 48.7487 240.275 48.382 240.275 47.964ZM245.53 49.878L247.246 44.939H248.577L246.267 51H244.771L242.472 44.939H243.814L245.53 49.878ZM255.08 47.821C255.08 48.0483 255.066 48.2537 255.036 48.437H250.405C250.442 48.921 250.622 49.3097 250.944 49.603C251.267 49.8963 251.663 50.043 252.132 50.043C252.807 50.043 253.284 49.7607 253.562 49.196H254.915C254.732 49.7533 254.398 50.2117 253.914 50.571C253.438 50.923 252.844 51.099 252.132 51.099C251.553 51.099 251.032 50.9707 250.57 50.714C250.116 50.45 249.756 50.0833 249.492 49.614C249.236 49.1373 249.107 48.5873 249.107 47.964C249.107 47.3407 249.232 46.7943 249.481 46.325C249.738 45.8483 250.094 45.4817 250.548 45.225C251.01 44.9683 251.538 44.84 252.132 44.84C252.704 44.84 253.214 44.9647 253.661 45.214C254.109 45.4633 254.457 45.8153 254.706 46.27C254.956 46.7173 255.08 47.2343 255.08 47.821ZM253.771 47.425C253.764 46.963 253.599 46.5927 253.276 46.314C252.954 46.0353 252.554 45.896 252.077 45.896C251.645 45.896 251.274 46.0353 250.966 46.314C250.658 46.5853 250.475 46.9557 250.416 47.425H253.771ZM255.896 47.942C255.896 47.3333 256.021 46.7943 256.27 46.325C256.527 45.8557 256.872 45.4927 257.304 45.236C257.744 44.972 258.232 44.84 258.767 44.84C259.163 44.84 259.552 44.928 259.933 45.104C260.322 45.2727 260.63 45.5 260.857 45.786V42.86H262.122V51H260.857V50.087C260.652 50.3803 260.366 50.6223 259.999 50.813C259.64 51.0037 259.226 51.099 258.756 51.099C258.228 51.099 257.744 50.967 257.304 50.703C256.872 50.4317 256.527 50.0577 256.27 49.581C256.021 49.097 255.896 48.5507 255.896 47.942ZM260.857 47.964C260.857 47.546 260.769 47.183 260.593 46.875C260.425 46.567 260.201 46.3323 259.922 46.171C259.644 46.0097 259.343 45.929 259.02 45.929C258.698 45.929 258.397 46.0097 258.118 46.171C257.84 46.325 257.612 46.556 257.436 46.864C257.268 47.1647 257.183 47.524 257.183 47.942C257.183 48.36 257.268 48.7267 257.436 49.042C257.612 49.3573 257.84 49.5993 258.118 49.768C258.404 49.9293 258.705 50.01 259.02 50.01C259.343 50.01 259.644 49.9293 259.922 49.768C260.201 49.6067 260.425 49.372 260.593 49.064C260.769 48.7487 260.857 48.382 260.857 47.964ZM276.582 43.355L274.316 51H272.897L271.291 45.214L269.586 51L268.178 51.011L266.011 43.355H267.342L268.926 49.581L270.642 43.355H272.05L273.645 49.548L275.24 43.355H276.582ZM278.254 44.136C278.027 44.136 277.836 44.059 277.682 43.905C277.528 43.751 277.451 43.5603 277.451 43.333C277.451 43.1057 277.528 42.915 277.682 42.761C277.836 42.607 278.027 42.53 278.254 42.53C278.474 42.53 278.661 42.607 278.815 42.761C278.969 42.915 279.046 43.1057 279.046 43.333C279.046 43.5603 278.969 43.751 278.815 43.905C278.661 44.059 278.474 44.136 278.254 44.136ZM278.87 44.939V51H277.616V44.939H278.87ZM283.574 44.84C284.051 44.84 284.476 44.939 284.85 45.137C285.232 45.335 285.529 45.6283 285.741 46.017C285.954 46.4057 286.06 46.875 286.06 47.425V51H284.817V47.612C284.817 47.0693 284.682 46.655 284.41 46.369C284.139 46.0757 283.769 45.929 283.299 45.929C282.83 45.929 282.456 46.0757 282.177 46.369C281.906 46.655 281.77 47.0693 281.77 47.612V51H280.516V44.939H281.77V45.632C281.976 45.3827 282.236 45.1883 282.551 45.049C282.874 44.9097 283.215 44.84 283.574 44.84ZM287.242 47.942C287.242 47.3333 287.367 46.7943 287.616 46.325C287.873 45.8557 288.217 45.4927 288.65 45.236C289.09 44.972 289.578 44.84 290.113 44.84C290.509 44.84 290.898 44.928 291.279 45.104C291.668 45.2727 291.976 45.5 292.203 45.786V42.86H293.468V51H292.203V50.087C291.998 50.3803 291.712 50.6223 291.345 50.813C290.986 51.0037 290.571 51.099 290.102 51.099C289.574 51.099 289.09 50.967 288.65 50.703C288.217 50.4317 287.873 50.0577 287.616 49.581C287.367 49.097 287.242 48.5507 287.242 47.942ZM292.203 47.964C292.203 47.546 292.115 47.183 291.939 46.875C291.77 46.567 291.547 46.3323 291.268 46.171C290.989 46.0097 290.689 45.929 290.366 45.929C290.043 45.929 289.743 46.0097 289.464 46.171C289.185 46.325 288.958 46.556 288.782 46.864C288.613 47.1647 288.529 47.524 288.529 47.942C288.529 48.36 288.613 48.7267 288.782 49.042C288.958 49.3573 289.185 49.5993 289.464 49.768C289.75 49.9293 290.051 50.01 290.366 50.01C290.689 50.01 290.989 49.9293 291.268 49.768C291.547 49.6067 291.77 49.372 291.939 49.064C292.115 48.7487 292.203 48.382 292.203 47.964ZM297.744 51.099C297.172 51.099 296.655 50.9707 296.193 50.714C295.731 50.45 295.368 50.0833 295.104 49.614C294.84 49.1373 294.708 48.5873 294.708 47.964C294.708 47.348 294.844 46.8017 295.115 46.325C295.386 45.8483 295.757 45.4817 296.226 45.225C296.695 44.9683 297.22 44.84 297.799 44.84C298.378 44.84 298.903 44.9683 299.372 45.225C299.841 45.4817 300.212 45.8483 300.483 46.325C300.754 46.8017 300.89 47.348 300.89 47.964C300.89 48.58 300.751 49.1263 300.472 49.603C300.193 50.0797 299.812 50.45 299.328 50.714C298.851 50.9707 298.323 51.099 297.744 51.099ZM297.744 50.01C298.067 50.01 298.367 49.933 298.646 49.779C298.932 49.625 299.163 49.394 299.339 49.086C299.515 48.778 299.603 48.404 299.603 47.964C299.603 47.524 299.519 47.1537 299.35 46.853C299.181 46.545 298.958 46.314 298.679 46.16C298.4 46.006 298.1 45.929 297.777 45.929C297.454 45.929 297.154 46.006 296.875 46.16C296.604 46.314 296.387 46.545 296.226 46.853C296.065 47.1537 295.984 47.524 295.984 47.964C295.984 48.6167 296.149 49.1227 296.479 49.482C296.816 49.834 297.238 50.01 297.744 50.01ZM310.27 44.939L308.389 51H307.069L305.848 46.523L304.627 51H303.307L301.415 44.939H302.691L303.956 49.812L305.243 44.939H306.552L307.784 49.79L309.038 44.939H310.27ZM313.407 51.099C312.93 51.099 312.501 51.0147 312.12 50.846C311.746 50.67 311.449 50.4353 311.229 50.142C311.009 49.8413 310.892 49.5077 310.877 49.141H312.175C312.197 49.3977 312.318 49.614 312.538 49.79C312.765 49.9587 313.048 50.043 313.385 50.043C313.737 50.043 314.008 49.977 314.199 49.845C314.397 49.7057 314.496 49.5297 314.496 49.317C314.496 49.0897 314.386 48.921 314.166 48.811C313.953 48.701 313.612 48.58 313.143 48.448C312.688 48.3233 312.318 48.2023 312.032 48.085C311.746 47.9677 311.497 47.788 311.284 47.546C311.079 47.304 310.976 46.985 310.976 46.589C310.976 46.2663 311.071 45.973 311.262 45.709C311.453 45.4377 311.724 45.225 312.076 45.071C312.435 44.917 312.846 44.84 313.308 44.84C313.997 44.84 314.551 45.016 314.969 45.368C315.394 45.7127 315.622 46.1857 315.651 46.787H314.397C314.375 46.5157 314.265 46.2993 314.067 46.138C313.869 45.9767 313.601 45.896 313.264 45.896C312.934 45.896 312.681 45.9583 312.505 46.083C312.329 46.2077 312.241 46.3727 312.241 46.578C312.241 46.7393 312.3 46.875 312.417 46.985C312.534 47.095 312.677 47.183 312.846 47.249C313.015 47.3077 313.264 47.3847 313.594 47.48C314.034 47.5973 314.393 47.7183 314.672 47.843C314.958 47.9603 315.204 48.1363 315.409 48.371C315.614 48.6057 315.721 48.9173 315.728 49.306C315.728 49.6507 315.633 49.9587 315.442 50.23C315.251 50.5013 314.98 50.714 314.628 50.868C314.283 51.022 313.876 51.099 313.407 51.099ZM319.61 44.125V42.981H321.898V51H320.633V44.125H319.61ZM323.456 44.125V42.981H325.744V51H324.479V44.125H323.456ZM333.008 51.077C332.495 51.077 332.033 50.989 331.622 50.813C331.211 50.6297 330.889 50.373 330.654 50.043C330.419 49.713 330.302 49.328 330.302 48.888H331.644C331.673 49.218 331.802 49.4893 332.029 49.702C332.264 49.9147 332.59 50.021 333.008 50.021C333.441 50.021 333.778 49.9183 334.02 49.713C334.262 49.5003 334.383 49.229 334.383 48.899C334.383 48.6423 334.306 48.4333 334.152 48.272C334.005 48.1107 333.818 47.986 333.591 47.898C333.371 47.81 333.063 47.7147 332.667 47.612C332.168 47.48 331.761 47.348 331.446 47.216C331.138 47.0767 330.874 46.864 330.654 46.578C330.434 46.292 330.324 45.9107 330.324 45.434C330.324 44.994 330.434 44.609 330.654 44.279C330.874 43.949 331.182 43.696 331.578 43.52C331.974 43.344 332.432 43.256 332.953 43.256C333.694 43.256 334.299 43.443 334.768 43.817C335.245 44.1837 335.509 44.6897 335.56 45.335H334.174C334.152 45.0563 334.02 44.818 333.778 44.62C333.536 44.422 333.217 44.323 332.821 44.323C332.462 44.323 332.168 44.4147 331.941 44.598C331.714 44.7813 331.6 45.0453 331.6 45.39C331.6 45.6247 331.67 45.819 331.809 45.973C331.956 46.1197 332.139 46.237 332.359 46.325C332.579 46.413 332.88 46.5083 333.261 46.611C333.767 46.7503 334.178 46.8897 334.493 47.029C334.816 47.1683 335.087 47.3847 335.307 47.678C335.534 47.964 335.648 48.349 335.648 48.833C335.648 49.2217 335.542 49.5883 335.329 49.933C335.124 50.2777 334.819 50.5563 334.416 50.769C334.02 50.9743 333.551 51.077 333.008 51.077ZM338.382 44.367V46.611H341.022V47.634H338.382V49.977H341.352V51H337.128V43.344H341.352V44.367H338.382ZM348.251 43.355C349.065 43.355 349.776 43.5127 350.385 43.828C351.001 44.136 351.474 44.5833 351.804 45.17C352.141 45.7493 352.31 46.4277 352.31 47.205C352.31 47.9823 352.141 48.657 351.804 49.229C351.474 49.801 351.001 50.241 350.385 50.549C349.776 50.8497 349.065 51 348.251 51H345.754V43.355H348.251ZM348.251 49.977C349.145 49.977 349.831 49.735 350.308 49.251C350.784 48.767 351.023 48.085 351.023 47.205C351.023 46.3177 350.784 45.6247 350.308 45.126C349.831 44.6273 349.145 44.378 348.251 44.378H347.008V49.977H348.251ZM354.191 44.136C353.963 44.136 353.773 44.059 353.619 43.905C353.465 43.751 353.388 43.5603 353.388 43.333C353.388 43.1057 353.465 42.915 353.619 42.761C353.773 42.607 353.963 42.53 354.191 42.53C354.411 42.53 354.598 42.607 354.752 42.761C354.906 42.915 354.983 43.1057 354.983 43.333C354.983 43.5603 354.906 43.751 354.752 43.905C354.598 44.059 354.411 44.136 354.191 44.136ZM354.807 44.939V51H353.553V44.939H354.807ZM358.653 51.099C358.176 51.099 357.747 51.0147 357.366 50.846C356.992 50.67 356.695 50.4353 356.475 50.142C356.255 49.8413 356.138 49.5077 356.123 49.141H357.421C357.443 49.3977 357.564 49.614 357.784 49.79C358.011 49.9587 358.294 50.043 358.631 50.043C358.983 50.043 359.254 49.977 359.445 49.845C359.643 49.7057 359.742 49.5297 359.742 49.317C359.742 49.0897 359.632 48.921 359.412 48.811C359.199 48.701 358.858 48.58 358.389 48.448C357.934 48.3233 357.564 48.2023 357.278 48.085C356.992 47.9677 356.743 47.788 356.53 47.546C356.325 47.304 356.222 46.985 356.222 46.589C356.222 46.2663 356.317 45.973 356.508 45.709C356.699 45.4377 356.97 45.225 357.322 45.071C357.681 44.917 358.092 44.84 358.554 44.84C359.243 44.84 359.797 45.016 360.215 45.368C360.64 45.7127 360.868 46.1857 360.897 46.787H359.643C359.621 46.5157 359.511 46.2993 359.313 46.138C359.115 45.9767 358.847 45.896 358.51 45.896C358.18 45.896 357.927 45.9583 357.751 46.083C357.575 46.2077 357.487 46.3727 357.487 46.578C357.487 46.7393 357.546 46.875 357.663 46.985C357.78 47.095 357.923 47.183 358.092 47.249C358.261 47.3077 358.51 47.3847 358.84 47.48C359.28 47.5973 359.639 47.7183 359.918 47.843C360.204 47.9603 360.45 48.1363 360.655 48.371C360.86 48.6057 360.967 48.9173 360.974 49.306C360.974 49.6507 360.879 49.9587 360.688 50.23C360.497 50.5013 360.226 50.714 359.874 50.868C359.529 51.022 359.122 51.099 358.653 51.099ZM364.727 47.975L367.521 51H365.827L363.583 48.393V51H362.329V42.86H363.583V47.59L365.783 44.939H367.521L364.727 47.975ZM375.369 47.073C375.78 47.1463 376.128 47.3627 376.414 47.722C376.7 48.0813 376.843 48.4883 376.843 48.943C376.843 49.3317 376.74 49.6837 376.535 49.999C376.337 50.307 376.047 50.5527 375.666 50.736C375.285 50.912 374.841 51 374.335 51H371.277V43.355H374.192C374.713 43.355 375.16 43.443 375.534 43.619C375.908 43.795 376.19 44.0333 376.381 44.334C376.572 44.6273 376.667 44.9573 376.667 45.324C376.667 45.764 376.55 46.1307 376.315 46.424C376.08 46.7173 375.765 46.9337 375.369 47.073ZM372.531 46.567H374.082C374.493 46.567 374.812 46.4753 375.039 46.292C375.274 46.1013 375.391 45.83 375.391 45.478C375.391 45.1333 375.274 44.8657 375.039 44.675C374.812 44.477 374.493 44.378 374.082 44.378H372.531V46.567ZM374.225 49.977C374.65 49.977 374.984 49.8743 375.226 49.669C375.468 49.4637 375.589 49.1777 375.589 48.811C375.589 48.437 375.461 48.14 375.204 47.92C374.947 47.7 374.606 47.59 374.181 47.59H372.531V49.977H374.225ZM377.788 47.942C377.788 47.3333 377.913 46.7943 378.162 46.325C378.419 45.8557 378.763 45.4927 379.196 45.236C379.636 44.972 380.12 44.84 380.648 44.84C381.125 44.84 381.539 44.9353 381.891 45.126C382.25 45.3093 382.536 45.5403 382.749 45.819V44.939H384.014V51H382.749V50.098C382.536 50.384 382.247 50.6223 381.88 50.813C381.513 51.0037 381.095 51.099 380.626 51.099C380.105 51.099 379.629 50.967 379.196 50.703C378.763 50.4317 378.419 50.0577 378.162 49.581C377.913 49.097 377.788 48.5507 377.788 47.942ZM382.749 47.964C382.749 47.546 382.661 47.183 382.485 46.875C382.316 46.567 382.093 46.3323 381.814 46.171C381.535 46.0097 381.235 45.929 380.912 45.929C380.589 45.929 380.289 46.0097 380.01 46.171C379.731 46.325 379.504 46.556 379.328 46.864C379.159 47.1647 379.075 47.524 379.075 47.942C379.075 48.36 379.159 48.7267 379.328 49.042C379.504 49.3573 379.731 49.5993 380.01 49.768C380.296 49.9293 380.597 50.01 380.912 50.01C381.235 50.01 381.535 49.9293 381.814 49.768C382.093 49.6067 382.316 49.372 382.485 49.064C382.661 48.7487 382.749 48.382 382.749 47.964ZM385.243 47.964C385.243 47.3407 385.368 46.7943 385.617 46.325C385.874 45.8483 386.226 45.4817 386.673 45.225C387.12 44.9683 387.634 44.84 388.213 44.84C388.946 44.84 389.551 45.016 390.028 45.368C390.512 45.7127 390.838 46.2077 391.007 46.853H389.654C389.544 46.5523 389.368 46.3177 389.126 46.149C388.884 45.9803 388.58 45.896 388.213 45.896C387.7 45.896 387.289 46.0793 386.981 46.446C386.68 46.8053 386.53 47.3113 386.53 47.964C386.53 48.6167 386.68 49.1263 386.981 49.493C387.289 49.8597 387.7 50.043 388.213 50.043C388.939 50.043 389.419 49.724 389.654 49.086H391.007C390.831 49.702 390.501 50.1933 390.017 50.56C389.533 50.9193 388.932 51.099 388.213 51.099C387.634 51.099 387.12 50.9707 386.673 50.714C386.226 50.45 385.874 50.0833 385.617 49.614C385.368 49.1373 385.243 48.5873 385.243 47.964ZM394.655 47.975L397.449 51H395.755L393.511 48.393V51H392.257V42.86H393.511V47.59L395.711 44.939H397.449L394.655 47.975ZM403.836 44.939V51H402.582V50.285C402.384 50.5343 402.124 50.7323 401.801 50.879C401.486 51.0183 401.149 51.088 400.789 51.088C400.313 51.088 399.884 50.989 399.502 50.791C399.128 50.593 398.831 50.2997 398.611 49.911C398.399 49.5223 398.292 49.053 398.292 48.503V44.939H399.535V48.316C399.535 48.8587 399.671 49.2767 399.942 49.57C400.214 49.856 400.584 49.999 401.053 49.999C401.523 49.999 401.893 49.856 402.164 49.57C402.443 49.2767 402.582 48.8587 402.582 48.316V44.939H403.836ZM406.745 45.83C406.958 45.5513 407.247 45.3167 407.614 45.126C407.981 44.9353 408.395 44.84 408.857 44.84C409.385 44.84 409.865 44.972 410.298 45.236C410.738 45.4927 411.083 45.8557 411.332 46.325C411.581 46.7943 411.706 47.3333 411.706 47.942C411.706 48.5507 411.581 49.097 411.332 49.581C411.083 50.0577 410.738 50.4317 410.298 50.703C409.865 50.967 409.385 51.099 408.857 51.099C408.395 51.099 407.984 51.0073 407.625 50.824C407.266 50.6333 406.972 50.3987 406.745 50.12V53.882H405.491V44.939H406.745V45.83ZM410.43 47.942C410.43 47.524 410.342 47.1647 410.166 46.864C409.997 46.556 409.77 46.325 409.484 46.171C409.205 46.0097 408.905 45.929 408.582 45.929C408.267 45.929 407.966 46.0097 407.68 46.171C407.401 46.3323 407.174 46.567 406.998 46.875C406.829 47.183 406.745 47.546 406.745 47.964C406.745 48.382 406.829 48.7487 406.998 49.064C407.174 49.372 407.401 49.6067 407.68 49.768C407.966 49.9293 408.267 50.01 408.582 50.01C408.905 50.01 409.205 49.9293 409.484 49.768C409.77 49.5993 409.997 49.3573 410.166 49.042C410.342 48.7267 410.43 48.36 410.43 47.942ZM418.345 45.962H417.223V51H415.958V45.962H415.243V44.939H415.958V44.51C415.958 43.8133 416.141 43.3073 416.508 42.992C416.882 42.6693 417.465 42.508 418.257 42.508V43.553C417.875 43.553 417.608 43.6263 417.454 43.773C417.3 43.9123 417.223 44.158 417.223 44.51V44.939H418.345V45.962ZM420.094 44.136C419.867 44.136 419.676 44.059 419.522 43.905C419.368 43.751 419.291 43.5603 419.291 43.333C419.291 43.1057 419.368 42.915 419.522 42.761C419.676 42.607 419.867 42.53 420.094 42.53C420.314 42.53 420.501 42.607 420.655 42.761C420.809 42.915 420.886 43.1057 420.886 43.333C420.886 43.5603 420.809 43.751 420.655 43.905C420.501 44.059 420.314 44.136 420.094 44.136ZM420.71 44.939V51H419.456V44.939H420.71ZM423.61 42.86V51H422.356V42.86H423.61ZM430.812 47.821C430.812 48.0483 430.797 48.2537 430.768 48.437H426.137C426.173 48.921 426.353 49.3097 426.676 49.603C426.998 49.8963 427.394 50.043 427.864 50.043C428.538 50.043 429.015 49.7607 429.294 49.196H430.647C430.463 49.7533 430.13 50.2117 429.646 50.571C429.169 50.923 428.575 51.099 427.864 51.099C427.284 51.099 426.764 50.9707 426.302 50.714C425.847 50.45 425.488 50.0833 425.224 49.614C424.967 49.1373 424.839 48.5873 424.839 47.964C424.839 47.3407 424.963 46.7943 425.213 46.325C425.469 45.8483 425.825 45.4817 426.28 45.225C426.742 44.9683 427.27 44.84 427.864 44.84C428.436 44.84 428.945 44.9647 429.393 45.214C429.84 45.4633 430.188 45.8153 430.438 46.27C430.687 46.7173 430.812 47.2343 430.812 47.821ZM429.503 47.425C429.495 46.963 429.33 46.5927 429.008 46.314C428.685 46.0353 428.285 45.896 427.809 45.896C427.376 45.896 427.006 46.0353 426.698 46.314C426.39 46.5853 426.206 46.9557 426.148 47.425H429.503ZM30.407 63.942C30.407 63.3333 30.5317 62.7943 30.781 62.325C31.0377 61.8557 31.3823 61.4927 31.815 61.236C32.255 60.972 32.739 60.84 33.267 60.84C33.7437 60.84 34.158 60.9353 34.51 61.126C34.8693 61.3093 35.1553 61.5403 35.368 61.819V60.939H36.633V67H35.368V66.098C35.1553 66.384 34.8657 66.6223 34.499 66.813C34.1323 67.0037 33.7143 67.099 33.245 67.099C32.7243 67.099 32.2477 66.967 31.815 66.703C31.3823 66.4317 31.0377 66.0577 30.781 65.581C30.5317 65.097 30.407 64.5507 30.407 63.942ZM35.368 63.964C35.368 63.546 35.28 63.183 35.104 62.875C34.9353 62.567 34.7117 62.3323 34.433 62.171C34.1543 62.0097 33.8537 61.929 33.531 61.929C33.2083 61.929 32.9077 62.0097 32.629 62.171C32.3503 62.325 32.123 62.556 31.947 62.864C31.7783 63.1647 31.694 63.524 31.694 63.942C31.694 64.36 31.7783 64.7267 31.947 65.042C32.123 65.3573 32.3503 65.5993 32.629 65.768C32.915 65.9293 33.2157 66.01 33.531 66.01C33.8537 66.01 34.1543 65.9293 34.433 65.768C34.7117 65.6067 34.9353 65.372 35.104 65.064C35.28 64.7487 35.368 64.382 35.368 63.964ZM41.3381 60.84C41.8147 60.84 42.2401 60.939 42.6141 61.137C42.9954 61.335 43.2924 61.6283 43.5051 62.017C43.7177 62.4057 43.8241 62.875 43.8241 63.425V67H42.5811V63.612C42.5811 63.0693 42.4454 62.655 42.1741 62.369C41.9027 62.0757 41.5324 61.929 41.0631 61.929C40.5937 61.929 40.2197 62.0757 39.9411 62.369C39.6697 62.655 39.5341 63.0693 39.5341 63.612V67H38.2801V60.939H39.5341V61.632C39.7394 61.3827 39.9997 61.1883 40.3151 61.049C40.6377 60.9097 40.9787 60.84 41.3381 60.84ZM45.0056 63.942C45.0056 63.3333 45.1303 62.7943 45.3796 62.325C45.6363 61.8557 45.981 61.4927 46.4136 61.236C46.8536 60.972 47.3413 60.84 47.8766 60.84C48.2726 60.84 48.6613 60.928 49.0426 61.104C49.4313 61.2727 49.7393 61.5 49.9666 61.786V58.86H51.2316V67H49.9666V66.087C49.7613 66.3803 49.4753 66.6223 49.1086 66.813C48.7493 67.0037 48.335 67.099 47.8656 67.099C47.3376 67.099 46.8536 66.967 46.4136 66.703C45.981 66.4317 45.6363 66.0577 45.3796 65.581C45.1303 65.097 45.0056 64.5507 45.0056 63.942ZM49.9666 63.964C49.9666 63.546 49.8786 63.183 49.7026 62.875C49.534 62.567 49.3103 62.3323 49.0316 62.171C48.753 62.0097 48.4523 61.929 48.1296 61.929C47.807 61.929 47.5063 62.0097 47.2276 62.171C46.949 62.325 46.7216 62.556 46.5456 62.864C46.377 63.1647 46.2926 63.524 46.2926 63.942C46.2926 64.36 46.377 64.7267 46.5456 65.042C46.7216 65.3573 46.949 65.5993 47.2276 65.768C47.5136 65.9293 47.8143 66.01 48.1296 66.01C48.4523 66.01 48.753 65.9293 49.0316 65.768C49.3103 65.6067 49.534 65.372 49.7026 65.064C49.8786 64.7487 49.9666 64.382 49.9666 63.964ZM56.9901 61.83C57.2028 61.5513 57.4925 61.3167 57.8591 61.126C58.2258 60.9353 58.6401 60.84 59.1021 60.84C59.6301 60.84 60.1105 60.972 60.5431 61.236C60.9831 61.4927 61.3278 61.8557 61.5771 62.325C61.8265 62.7943 61.9511 63.3333 61.9511 63.942C61.9511 64.5507 61.8265 65.097 61.5771 65.581C61.3278 66.0577 60.9831 66.4317 60.5431 66.703C60.1105 66.967 59.6301 67.099 59.1021 67.099C58.6401 67.099 58.2295 67.0073 57.8701 66.824C57.5108 66.6333 57.2175 66.3987 56.9901 66.12V69.882H55.7361V60.939H56.9901V61.83ZM60.6751 63.942C60.6751 63.524 60.5871 63.1647 60.4111 62.864C60.2425 62.556 60.0151 62.325 59.7291 62.171C59.4505 62.0097 59.1498 61.929 58.8271 61.929C58.5118 61.929 58.2111 62.0097 57.9251 62.171C57.6465 62.3323 57.4191 62.567 57.2431 62.875C57.0745 63.183 56.9901 63.546 56.9901 63.964C56.9901 64.382 57.0745 64.7487 57.2431 65.064C57.4191 65.372 57.6465 65.6067 57.9251 65.768C58.2111 65.9293 58.5118 66.01 58.8271 66.01C59.1498 66.01 59.4505 65.9293 59.7291 65.768C60.0151 65.5993 60.2425 65.3573 60.4111 65.042C60.5871 64.7267 60.6751 64.36 60.6751 63.942ZM62.7732 63.942C62.7732 63.3333 62.8979 62.7943 63.1472 62.325C63.4039 61.8557 63.7485 61.4927 64.1812 61.236C64.6212 60.972 65.1052 60.84 65.6332 60.84C66.1099 60.84 66.5242 60.9353 66.8762 61.126C67.2355 61.3093 67.5215 61.5403 67.7342 61.819V60.939H68.9992V67H67.7342V66.098C67.5215 66.384 67.2319 66.6223 66.8652 66.813C66.4985 67.0037 66.0805 67.099 65.6112 67.099C65.0905 67.099 64.6139 66.967 64.1812 66.703C63.7485 66.4317 63.4039 66.0577 63.1472 65.581C62.8979 65.097 62.7732 64.5507 62.7732 63.942ZM67.7342 63.964C67.7342 63.546 67.6462 63.183 67.4702 62.875C67.3015 62.567 67.0779 62.3323 66.7992 62.171C66.5205 62.0097 66.2199 61.929 65.8972 61.929C65.5745 61.929 65.2739 62.0097 64.9952 62.171C64.7165 62.325 64.4892 62.556 64.3132 62.864C64.1445 63.1647 64.0602 63.524 64.0602 63.942C64.0602 64.36 64.1445 64.7267 64.3132 65.042C64.4892 65.3573 64.7165 65.5993 64.9952 65.768C65.2812 65.9293 65.5819 66.01 65.8972 66.01C66.2199 66.01 66.5205 65.9293 66.7992 65.768C67.0779 65.6067 67.3015 65.372 67.4702 65.064C67.6462 64.7487 67.7342 64.382 67.7342 63.964ZM72.8463 67.099C72.3696 67.099 71.9406 67.0147 71.5593 66.846C71.1853 66.67 70.8883 66.4353 70.6683 66.142C70.4483 65.8413 70.331 65.5077 70.3163 65.141H71.6143C71.6363 65.3977 71.7573 65.614 71.9773 65.79C72.2046 65.9587 72.487 66.043 72.8243 66.043C73.1763 66.043 73.4476 65.977 73.6383 65.845C73.8363 65.7057 73.9353 65.5297 73.9353 65.317C73.9353 65.0897 73.8253 64.921 73.6053 64.811C73.3926 64.701 73.0516 64.58 72.5823 64.448C72.1276 64.3233 71.7573 64.2023 71.4713 64.085C71.1853 63.9677 70.936 63.788 70.7233 63.546C70.518 63.304 70.4153 62.985 70.4153 62.589C70.4153 62.2663 70.5106 61.973 70.7013 61.709C70.892 61.4377 71.1633 61.225 71.5153 61.071C71.8746 60.917 72.2853 60.84 72.7473 60.84C73.4366 60.84 73.9903 61.016 74.4083 61.368C74.8336 61.7127 75.061 62.1857 75.0903 62.787H73.8363C73.8143 62.5157 73.7043 62.2993 73.5063 62.138C73.3083 61.9767 73.0406 61.896 72.7033 61.896C72.3733 61.896 72.1203 61.9583 71.9443 62.083C71.7683 62.2077 71.6803 62.3727 71.6803 62.578C71.6803 62.7393 71.739 62.875 71.8563 62.985C71.9736 63.095 72.1166 63.183 72.2853 63.249C72.454 63.3077 72.7033 63.3847 73.0333 63.48C73.4733 63.5973 73.8326 63.7183 74.1113 63.843C74.3973 63.9603 74.643 64.1363 74.8483 64.371C75.0536 64.6057 75.16 64.9173 75.1673 65.306C75.1673 65.6507 75.072 65.9587 74.8813 66.23C74.6906 66.5013 74.4193 66.714 74.0673 66.868C73.7226 67.022 73.3156 67.099 72.8463 67.099ZM77.9853 61.962V65.317C77.9853 65.5443 78.0366 65.7093 78.1393 65.812C78.2493 65.9073 78.4326 65.955 78.6893 65.955H79.4593V67H78.4693C77.9046 67 77.4719 66.868 77.1713 66.604C76.8706 66.34 76.7203 65.911 76.7203 65.317V61.962H76.0053V60.939H76.7203V59.432H77.9853V60.939H79.4593V61.962H77.9853ZM86.17 63.821C86.17 64.0483 86.1554 64.2537 86.126 64.437H81.495C81.5317 64.921 81.7114 65.3097 82.034 65.603C82.3567 65.8963 82.7527 66.043 83.222 66.043C83.8967 66.043 84.3734 65.7607 84.652 65.196H86.005C85.8217 65.7533 85.488 66.2117 85.004 66.571C84.5274 66.923 83.9334 67.099 83.222 67.099C82.6427 67.099 82.122 66.9707 81.66 66.714C81.2054 66.45 80.846 66.0833 80.582 65.614C80.3254 65.1373 80.197 64.5873 80.197 63.964C80.197 63.3407 80.3217 62.7943 80.571 62.325C80.8277 61.8483 81.1834 61.4817 81.638 61.225C82.1 60.9683 82.628 60.84 83.222 60.84C83.794 60.84 84.3037 60.9647 84.751 61.214C85.1984 61.4633 85.5467 61.8153 85.796 62.27C86.0454 62.7173 86.17 63.2343 86.17 63.821ZM84.861 63.425C84.8537 62.963 84.6887 62.5927 84.366 62.314C84.0434 62.0353 83.6437 61.896 83.167 61.896C82.7344 61.896 82.364 62.0353 82.056 62.314C81.748 62.5853 81.5647 62.9557 81.506 63.425H84.861ZM90.8995 60.136C90.6722 60.136 90.4815 60.059 90.3275 59.905C90.1735 59.751 90.0965 59.5603 90.0965 59.333C90.0965 59.1057 90.1735 58.915 90.3275 58.761C90.4815 58.607 90.6722 58.53 90.8995 58.53C91.1195 58.53 91.3065 58.607 91.4605 58.761C91.6145 58.915 91.6915 59.1057 91.6915 59.333C91.6915 59.5603 91.6145 59.751 91.4605 59.905C91.3065 60.059 91.1195 60.136 90.8995 60.136ZM91.5155 60.939V67H90.2615V60.939H91.5155ZM94.6249 61.962V65.317C94.6249 65.5443 94.6762 65.7093 94.7789 65.812C94.8889 65.9073 95.0722 65.955 95.3289 65.955H96.0989V67H95.1089C94.5442 67 94.1116 66.868 93.8109 66.604C93.5102 66.34 93.3599 65.911 93.3599 65.317V61.962H92.6449V60.939H93.3599V59.432H94.6249V60.939H96.0989V61.962H94.6249ZM101.366 61.841C101.579 61.5477 101.868 61.3093 102.235 61.126C102.609 60.9353 103.023 60.84 103.478 60.84C104.013 60.84 104.497 60.9683 104.93 61.225C105.363 61.4817 105.704 61.8483 105.953 62.325C106.202 62.7943 106.327 63.3333 106.327 63.942C106.327 64.5507 106.202 65.097 105.953 65.581C105.704 66.0577 105.359 66.4317 104.919 66.703C104.486 66.967 104.006 67.099 103.478 67.099C103.009 67.099 102.591 67.0073 102.224 66.824C101.865 66.6407 101.579 66.406 101.366 66.12V67H100.112V58.86H101.366V61.841ZM105.051 63.942C105.051 63.524 104.963 63.1647 104.787 62.864C104.618 62.556 104.391 62.325 104.105 62.171C103.826 62.0097 103.526 61.929 103.203 61.929C102.888 61.929 102.587 62.0097 102.301 62.171C102.022 62.3323 101.795 62.567 101.619 62.875C101.45 63.183 101.366 63.546 101.366 63.964C101.366 64.382 101.45 64.7487 101.619 65.064C101.795 65.372 102.022 65.6067 102.301 65.768C102.587 65.9293 102.888 66.01 103.203 66.01C103.526 66.01 103.826 65.9293 104.105 65.768C104.391 65.5993 104.618 65.3573 104.787 65.042C104.963 64.7267 105.051 64.36 105.051 63.942ZM113.122 63.821C113.122 64.0483 113.108 64.2537 113.078 64.437H108.447C108.484 64.921 108.664 65.3097 108.986 65.603C109.309 65.8963 109.705 66.043 110.174 66.043C110.849 66.043 111.326 65.7607 111.604 65.196H112.957C112.774 65.7533 112.44 66.2117 111.956 66.571C111.48 66.923 110.886 67.099 110.174 67.099C109.595 67.099 109.074 66.9707 108.612 66.714C108.158 66.45 107.798 66.0833 107.534 65.614C107.278 65.1373 107.149 64.5873 107.149 63.964C107.149 63.3407 107.274 62.7943 107.523 62.325C107.78 61.8483 108.136 61.4817 108.59 61.225C109.052 60.9683 109.58 60.84 110.174 60.84C110.746 60.84 111.256 60.9647 111.703 61.214C112.151 61.4633 112.499 61.8153 112.748 62.27C112.998 62.7173 113.122 63.2343 113.122 63.821ZM111.813 63.425C111.806 62.963 111.641 62.5927 111.318 62.314C110.996 62.0353 110.596 61.896 110.119 61.896C109.687 61.896 109.316 62.0353 109.008 62.314C108.7 62.5853 108.517 62.9557 108.458 63.425H111.813ZM115.61 58.86V67H114.356V58.86H115.61ZM119.886 67.099C119.314 67.099 118.797 66.9707 118.335 66.714C117.873 66.45 117.51 66.0833 117.246 65.614C116.982 65.1373 116.85 64.5873 116.85 63.964C116.85 63.348 116.985 62.8017 117.257 62.325C117.528 61.8483 117.898 61.4817 118.368 61.225C118.837 60.9683 119.361 60.84 119.941 60.84C120.52 60.84 121.044 60.9683 121.514 61.225C121.983 61.4817 122.353 61.8483 122.625 62.325C122.896 62.8017 123.032 63.348 123.032 63.964C123.032 64.58 122.892 65.1263 122.614 65.603C122.335 66.0797 121.954 66.45 121.47 66.714C120.993 66.9707 120.465 67.099 119.886 67.099ZM119.886 66.01C120.208 66.01 120.509 65.933 120.788 65.779C121.074 65.625 121.305 65.394 121.481 65.086C121.657 64.778 121.745 64.404 121.745 63.964C121.745 63.524 121.66 63.1537 121.492 62.853C121.323 62.545 121.099 62.314 120.821 62.16C120.542 62.006 120.241 61.929 119.919 61.929C119.596 61.929 119.295 62.006 119.017 62.16C118.745 62.314 118.529 62.545 118.368 62.853C118.206 63.1537 118.126 63.524 118.126 63.964C118.126 64.6167 118.291 65.1227 118.621 65.482C118.958 65.834 119.38 66.01 119.886 66.01ZM132.411 60.939L130.53 67H129.21L127.989 62.523L126.768 67H125.448L123.556 60.939H124.832L126.097 65.812L127.384 60.939H128.693L129.925 65.79L131.179 60.939H132.411ZM133.854 67.077C133.627 67.077 133.436 67 133.282 66.846C133.128 66.692 133.051 66.5013 133.051 66.274C133.051 66.0467 133.128 65.856 133.282 65.702C133.436 65.548 133.627 65.471 133.854 65.471C134.074 65.471 134.261 65.548 134.415 65.702C134.569 65.856 134.646 66.0467 134.646 66.274C134.646 66.5013 134.569 66.692 134.415 66.846C134.261 67 134.074 67.077 133.854 67.077ZM141.356 59.355C142.17 59.355 142.882 59.5127 143.49 59.828C144.106 60.136 144.579 60.5833 144.909 61.17C145.247 61.7493 145.415 62.4277 145.415 63.205C145.415 63.9823 145.247 64.657 144.909 65.229C144.579 65.801 144.106 66.241 143.49 66.549C142.882 66.8497 142.17 67 141.356 67H138.859V59.355H141.356ZM141.356 65.977C142.251 65.977 142.937 65.735 143.413 65.251C143.89 64.767 144.128 64.085 144.128 63.205C144.128 62.3177 143.89 61.6247 143.413 61.126C142.937 60.6273 142.251 60.378 141.356 60.378H140.113V65.977H141.356ZM149.287 67.099C148.715 67.099 148.198 66.9707 147.736 66.714C147.274 66.45 146.911 66.0833 146.647 65.614C146.383 65.1373 146.251 64.5873 146.251 63.964C146.251 63.348 146.387 62.8017 146.658 62.325C146.929 61.8483 147.3 61.4817 147.769 61.225C148.238 60.9683 148.763 60.84 149.342 60.84C149.921 60.84 150.446 60.9683 150.915 61.225C151.384 61.4817 151.755 61.8483 152.026 62.325C152.297 62.8017 152.433 63.348 152.433 63.964C152.433 64.58 152.294 65.1263 152.015 65.603C151.736 66.0797 151.355 66.45 150.871 66.714C150.394 66.9707 149.866 67.099 149.287 67.099ZM149.287 66.01C149.61 66.01 149.91 65.933 150.189 65.779C150.475 65.625 150.706 65.394 150.882 65.086C151.058 64.778 151.146 64.404 151.146 63.964C151.146 63.524 151.062 63.1537 150.893 62.853C150.724 62.545 150.501 62.314 150.222 62.16C149.943 62.006 149.643 61.929 149.32 61.929C148.997 61.929 148.697 62.006 148.418 62.16C148.147 62.314 147.93 62.545 147.769 62.853C147.608 63.1537 147.527 63.524 147.527 63.964C147.527 64.6167 147.692 65.1227 148.022 65.482C148.359 65.834 148.781 66.01 149.287 66.01ZM159.588 60.84C160.065 60.84 160.49 60.939 160.864 61.137C161.245 61.335 161.542 61.6283 161.755 62.017C161.968 62.4057 162.074 62.875 162.074 63.425V67H160.831V63.612C160.831 63.0693 160.695 62.655 160.424 62.369C160.153 62.0757 159.782 61.929 159.313 61.929C158.844 61.929 158.47 62.0757 158.191 62.369C157.92 62.655 157.784 63.0693 157.784 63.612V67H156.53V60.939H157.784V61.632C157.989 61.3827 158.25 61.1883 158.565 61.049C158.888 60.9097 159.229 60.84 159.588 60.84ZM166.303 67.099C165.731 67.099 165.214 66.9707 164.752 66.714C164.29 66.45 163.927 66.0833 163.663 65.614C163.399 65.1373 163.267 64.5873 163.267 63.964C163.267 63.348 163.402 62.8017 163.674 62.325C163.945 61.8483 164.315 61.4817 164.785 61.225C165.254 60.9683 165.778 60.84 166.358 60.84C166.937 60.84 167.461 60.9683 167.931 61.225C168.4 61.4817 168.77 61.8483 169.042 62.325C169.313 62.8017 169.449 63.348 169.449 63.964C169.449 64.58 169.309 65.1263 169.031 65.603C168.752 66.0797 168.371 66.45 167.887 66.714C167.41 66.9707 166.882 67.099 166.303 67.099ZM166.303 66.01C166.625 66.01 166.926 65.933 167.205 65.779C167.491 65.625 167.722 65.394 167.898 65.086C168.074 64.778 168.162 64.404 168.162 63.964C168.162 63.524 168.077 63.1537 167.909 62.853C167.74 62.545 167.516 62.314 167.238 62.16C166.959 62.006 166.658 61.929 166.336 61.929C166.013 61.929 165.712 62.006 165.434 62.16C165.162 62.314 164.946 62.545 164.785 62.853C164.623 63.1537 164.543 63.524 164.543 63.964C164.543 64.6167 164.708 65.1227 165.038 65.482C165.375 65.834 165.797 66.01 166.303 66.01ZM172.151 61.962V65.317C172.151 65.5443 172.203 65.7093 172.305 65.812C172.415 65.9073 172.599 65.955 172.855 65.955H173.625V67H172.635C172.071 67 171.638 66.868 171.337 66.604C171.037 66.34 170.886 65.911 170.886 65.317V61.962H170.171V60.939H170.886V59.432H172.151V60.939H173.625V61.962H172.151ZM179.101 61.962V65.317C179.101 65.5443 179.153 65.7093 179.255 65.812C179.365 65.9073 179.549 65.955 179.805 65.955H180.575V67H179.585C179.021 67 178.588 66.868 178.287 66.604C177.987 66.34 177.836 65.911 177.836 65.317V61.962H177.121V60.939H177.836V59.432H179.101V60.939H180.575V61.962H179.101ZM187.187 60.939L183.469 69.849H182.171L183.403 66.901L181.016 60.939H182.413L184.118 65.559L185.889 60.939H187.187ZM189.388 61.83C189.6 61.5513 189.89 61.3167 190.257 61.126C190.623 60.9353 191.038 60.84 191.5 60.84C192.028 60.84 192.508 60.972 192.941 61.236C193.381 61.4927 193.725 61.8557 193.975 62.325C194.224 62.7943 194.349 63.3333 194.349 63.942C194.349 64.5507 194.224 65.097 193.975 65.581C193.725 66.0577 193.381 66.4317 192.941 66.703C192.508 66.967 192.028 67.099 191.5 67.099C191.038 67.099 190.627 67.0073 190.268 66.824C189.908 66.6333 189.615 66.3987 189.388 66.12V69.882H188.134V60.939H189.388V61.83ZM193.073 63.942C193.073 63.524 192.985 63.1647 192.809 62.864C192.64 62.556 192.413 62.325 192.127 62.171C191.848 62.0097 191.547 61.929 191.225 61.929C190.909 61.929 190.609 62.0097 190.323 62.171C190.044 62.3323 189.817 62.567 189.641 62.875C189.472 63.183 189.388 63.546 189.388 63.964C189.388 64.382 189.472 64.7487 189.641 65.064C189.817 65.372 190.044 65.6067 190.323 65.768C190.609 65.9293 190.909 66.01 191.225 66.01C191.547 66.01 191.848 65.9293 192.127 65.768C192.413 65.5993 192.64 65.3573 192.809 65.042C192.985 64.7267 193.073 64.36 193.073 63.942ZM201.144 63.821C201.144 64.0483 201.129 64.2537 201.1 64.437H196.469C196.505 64.921 196.685 65.3097 197.008 65.603C197.33 65.8963 197.726 66.043 198.196 66.043C198.87 66.043 199.347 65.7607 199.626 65.196H200.979C200.795 65.7533 200.462 66.2117 199.978 66.571C199.501 66.923 198.907 67.099 198.196 67.099C197.616 67.099 197.096 66.9707 196.634 66.714C196.179 66.45 195.82 66.0833 195.556 65.614C195.299 65.1373 195.171 64.5873 195.171 63.964C195.171 63.3407 195.295 62.7943 195.545 62.325C195.801 61.8483 196.157 61.4817 196.612 61.225C197.074 60.9683 197.602 60.84 198.196 60.84C198.768 60.84 199.277 60.9647 199.725 61.214C200.172 61.4633 200.52 61.8153 200.77 62.27C201.019 62.7173 201.144 63.2343 201.144 63.821ZM199.835 63.425C199.827 62.963 199.662 62.5927 199.34 62.314C199.017 62.0353 198.617 61.896 198.141 61.896C197.708 61.896 197.338 62.0353 197.03 62.314C196.722 62.5853 196.538 62.9557 196.48 63.425H199.835ZM204.817 63.942C204.817 63.3333 204.942 62.7943 205.191 62.325C205.448 61.8557 205.792 61.4927 206.225 61.236C206.665 60.972 207.149 60.84 207.677 60.84C208.154 60.84 208.568 60.9353 208.92 61.126C209.279 61.3093 209.565 61.5403 209.778 61.819V60.939H211.043V67H209.778V66.098C209.565 66.384 209.276 66.6223 208.909 66.813C208.542 67.0037 208.124 67.099 207.655 67.099C207.134 67.099 206.658 66.967 206.225 66.703C205.792 66.4317 205.448 66.0577 205.191 65.581C204.942 65.097 204.817 64.5507 204.817 63.942ZM209.778 63.964C209.778 63.546 209.69 63.183 209.514 62.875C209.345 62.567 209.122 62.3323 208.843 62.171C208.564 62.0097 208.264 61.929 207.941 61.929C207.618 61.929 207.318 62.0097 207.039 62.171C206.76 62.325 206.533 62.556 206.357 62.864C206.188 63.1647 206.104 63.524 206.104 63.942C206.104 64.36 206.188 64.7267 206.357 65.042C206.533 65.3573 206.76 65.5993 207.039 65.768C207.325 65.9293 207.626 66.01 207.941 66.01C208.264 66.01 208.564 65.9293 208.843 65.768C209.122 65.6067 209.345 65.372 209.514 65.064C209.69 64.7487 209.778 64.382 209.778 63.964ZM215.748 60.84C216.225 60.84 216.65 60.939 217.024 61.137C217.406 61.335 217.703 61.6283 217.915 62.017C218.128 62.4057 218.234 62.875 218.234 63.425V67H216.991V63.612C216.991 63.0693 216.856 62.655 216.584 62.369C216.313 62.0757 215.943 61.929 215.473 61.929C215.004 61.929 214.63 62.0757 214.351 62.369C214.08 62.655 213.944 63.0693 213.944 63.612V67H212.69V60.939H213.944V61.632C214.15 61.3827 214.41 61.1883 214.725 61.049C215.048 60.9097 215.389 60.84 215.748 60.84ZM225.29 60.939L221.572 69.849H220.274L221.506 66.901L219.119 60.939H220.516L222.221 65.559L223.992 60.939H225.29ZM227.699 61.962V65.317C227.699 65.5443 227.75 65.7093 227.853 65.812C227.963 65.9073 228.146 65.955 228.403 65.955H229.173V67H228.183C227.618 67 227.186 66.868 226.885 66.604C226.584 66.34 226.434 65.911 226.434 65.317V61.962H225.719V60.939H226.434V59.432H227.699V60.939H229.173V61.962H227.699ZM233.464 60.84C233.926 60.84 234.337 60.939 234.696 61.137C235.063 61.335 235.349 61.6283 235.554 62.017C235.767 62.4057 235.873 62.875 235.873 63.425V67H234.63V63.612C234.63 63.0693 234.494 62.655 234.223 62.369C233.952 62.0757 233.581 61.929 233.112 61.929C232.643 61.929 232.269 62.0757 231.99 62.369C231.719 62.655 231.583 63.0693 231.583 63.612V67H230.329V58.86H231.583V61.643C231.796 61.3863 232.063 61.1883 232.386 61.049C232.716 60.9097 233.075 60.84 233.464 60.84ZM238.11 60.136C237.883 60.136 237.692 60.059 237.538 59.905C237.384 59.751 237.307 59.5603 237.307 59.333C237.307 59.1057 237.384 58.915 237.538 58.761C237.692 58.607 237.883 58.53 238.11 58.53C238.33 58.53 238.517 58.607 238.671 58.761C238.825 58.915 238.902 59.1057 238.902 59.333C238.902 59.5603 238.825 59.751 238.671 59.905C238.517 60.059 238.33 60.136 238.11 60.136ZM238.726 60.939V67H237.472V60.939H238.726ZM243.431 60.84C243.908 60.84 244.333 60.939 244.707 61.137C245.088 61.335 245.385 61.6283 245.598 62.017C245.811 62.4057 245.917 62.875 245.917 63.425V67H244.674V63.612C244.674 63.0693 244.538 62.655 244.267 62.369C243.996 62.0757 243.625 61.929 243.156 61.929C242.687 61.929 242.313 62.0757 242.034 62.369C241.763 62.655 241.627 63.0693 241.627 63.612V67H240.373V60.939H241.627V61.632C241.832 61.3827 242.093 61.1883 242.408 61.049C242.731 60.9097 243.072 60.84 243.431 60.84ZM249.958 60.84C250.428 60.84 250.842 60.9353 251.201 61.126C251.568 61.3093 251.854 61.5403 252.059 61.819V60.939H253.324V67.099C253.324 67.6563 253.207 68.1513 252.972 68.584C252.738 69.024 252.397 69.3687 251.949 69.618C251.509 69.8673 250.981 69.992 250.365 69.992C249.544 69.992 248.862 69.7977 248.319 69.409C247.777 69.0277 247.469 68.507 247.395 67.847H248.638C248.734 68.1623 248.935 68.4153 249.243 68.606C249.559 68.804 249.933 68.903 250.365 68.903C250.871 68.903 251.278 68.749 251.586 68.441C251.902 68.133 252.059 67.6857 252.059 67.099V66.087C251.847 66.373 251.557 66.615 251.19 66.813C250.831 67.0037 250.42 67.099 249.958 67.099C249.43 67.099 248.946 66.967 248.506 66.703C248.074 66.4317 247.729 66.0577 247.472 65.581C247.223 65.097 247.098 64.5507 247.098 63.942C247.098 63.3333 247.223 62.7943 247.472 62.325C247.729 61.8557 248.074 61.4927 248.506 61.236C248.946 60.972 249.43 60.84 249.958 60.84ZM252.059 63.964C252.059 63.546 251.971 63.183 251.795 62.875C251.627 62.567 251.403 62.3323 251.124 62.171C250.846 62.0097 250.545 61.929 250.222 61.929C249.9 61.929 249.599 62.0097 249.32 62.171C249.042 62.325 248.814 62.556 248.638 62.864C248.47 63.1647 248.385 63.524 248.385 63.942C248.385 64.36 248.47 64.7267 248.638 65.042C248.814 65.3573 249.042 65.5993 249.32 65.768C249.606 65.9293 249.907 66.01 250.222 66.01C250.545 66.01 250.846 65.9293 251.124 65.768C251.403 65.6067 251.627 65.372 251.795 65.064C251.971 64.7487 252.059 64.382 252.059 63.964ZM259.292 61.962V65.317C259.292 65.5443 259.343 65.7093 259.446 65.812C259.556 65.9073 259.739 65.955 259.996 65.955H260.766V67H259.776C259.211 67 258.779 66.868 258.478 66.604C258.177 66.34 258.027 65.911 258.027 65.317V61.962H257.312V60.939H258.027V59.432H259.292V60.939H260.766V61.962H259.292ZM264.551 67.099C263.979 67.099 263.462 66.9707 263 66.714C262.538 66.45 262.175 66.0833 261.911 65.614C261.647 65.1373 261.515 64.5873 261.515 63.964C261.515 63.348 261.65 62.8017 261.922 62.325C262.193 61.8483 262.563 61.4817 263.033 61.225C263.502 60.9683 264.026 60.84 264.606 60.84C265.185 60.84 265.709 60.9683 266.179 61.225C266.648 61.4817 267.018 61.8483 267.29 62.325C267.561 62.8017 267.697 63.348 267.697 63.964C267.697 64.58 267.557 65.1263 267.279 65.603C267 66.0797 266.619 66.45 266.135 66.714C265.658 66.9707 265.13 67.099 264.551 67.099ZM264.551 66.01C264.873 66.01 265.174 65.933 265.453 65.779C265.739 65.625 265.97 65.394 266.146 65.086C266.322 64.778 266.41 64.404 266.41 63.964C266.41 63.524 266.325 63.1537 266.157 62.853C265.988 62.545 265.764 62.314 265.486 62.16C265.207 62.006 264.906 61.929 264.584 61.929C264.261 61.929 263.96 62.006 263.682 62.16C263.41 62.314 263.194 62.545 263.033 62.853C262.871 63.1537 262.791 63.524 262.791 63.964C262.791 64.6167 262.956 65.1227 263.286 65.482C263.623 65.834 264.045 66.01 264.551 66.01ZM271.376 63.964C271.376 63.3407 271.5 62.7943 271.75 62.325C272.006 61.8483 272.358 61.4817 272.806 61.225C273.253 60.9683 273.766 60.84 274.346 60.84C275.079 60.84 275.684 61.016 276.161 61.368C276.645 61.7127 276.971 62.2077 277.14 62.853H275.787C275.677 62.5523 275.501 62.3177 275.259 62.149C275.017 61.9803 274.712 61.896 274.346 61.896C273.832 61.896 273.422 62.0793 273.114 62.446C272.813 62.8053 272.663 63.3113 272.663 63.964C272.663 64.6167 272.813 65.1263 273.114 65.493C273.422 65.8597 273.832 66.043 274.346 66.043C275.072 66.043 275.552 65.724 275.787 65.086H277.14C276.964 65.702 276.634 66.1933 276.15 66.56C275.666 66.9193 275.064 67.099 274.346 67.099C273.766 67.099 273.253 66.9707 272.806 66.714C272.358 66.45 272.006 66.0833 271.75 65.614C271.5 65.1373 271.376 64.5873 271.376 63.964ZM277.971 63.942C277.971 63.3333 278.096 62.7943 278.345 62.325C278.602 61.8557 278.947 61.4927 279.379 61.236C279.819 60.972 280.303 60.84 280.831 60.84C281.308 60.84 281.722 60.9353 282.074 61.126C282.434 61.3093 282.72 61.5403 282.932 61.819V60.939H284.197V67H282.932V66.098C282.72 66.384 282.43 66.6223 282.063 66.813C281.697 67.0037 281.279 67.099 280.809 67.099C280.289 67.099 279.812 66.967 279.379 66.703C278.947 66.4317 278.602 66.0577 278.345 65.581C278.096 65.097 277.971 64.5507 277.971 63.942ZM282.932 63.964C282.932 63.546 282.844 63.183 282.668 62.875C282.5 62.567 282.276 62.3323 281.997 62.171C281.719 62.0097 281.418 61.929 281.095 61.929C280.773 61.929 280.472 62.0097 280.193 62.171C279.915 62.325 279.687 62.556 279.511 62.864C279.343 63.1647 279.258 63.524 279.258 63.942C279.258 64.36 279.343 64.7267 279.511 65.042C279.687 65.3573 279.915 65.5993 280.193 65.768C280.479 65.9293 280.78 66.01 281.095 66.01C281.418 66.01 281.719 65.9293 281.997 65.768C282.276 65.6067 282.5 65.372 282.668 65.064C282.844 64.7487 282.932 64.382 282.932 63.964ZM288.903 60.84C289.379 60.84 289.805 60.939 290.179 61.137C290.56 61.335 290.857 61.6283 291.07 62.017C291.282 62.4057 291.389 62.875 291.389 63.425V67H290.146V63.612C290.146 63.0693 290.01 62.655 289.739 62.369C289.467 62.0757 289.097 61.929 288.628 61.929C288.158 61.929 287.784 62.0757 287.506 62.369C287.234 62.655 287.099 63.0693 287.099 63.612V67H285.845V60.939H287.099V61.632C287.304 61.3827 287.564 61.1883 287.88 61.049C288.202 60.9097 288.543 60.84 288.903 60.84ZM292.57 63.964C292.57 63.3407 292.695 62.7943 292.944 62.325C293.201 61.8483 293.553 61.4817 294 61.225C294.447 60.9683 294.961 60.84 295.54 60.84C296.273 60.84 296.878 61.016 297.355 61.368C297.839 61.7127 298.165 62.2077 298.334 62.853H296.981C296.871 62.5523 296.695 62.3177 296.453 62.149C296.211 61.9803 295.907 61.896 295.54 61.896C295.027 61.896 294.616 62.0793 294.308 62.446C294.007 62.8053 293.857 63.3113 293.857 63.964C293.857 64.6167 294.007 65.1263 294.308 65.493C294.616 65.8597 295.027 66.043 295.54 66.043C296.266 66.043 296.746 65.724 296.981 65.086H298.334C298.158 65.702 297.828 66.1933 297.344 66.56C296.86 66.9193 296.259 67.099 295.54 67.099C294.961 67.099 294.447 66.9707 294 66.714C293.553 66.45 293.201 66.0833 292.944 65.614C292.695 65.1373 292.57 64.5873 292.57 63.964ZM305.139 63.821C305.139 64.0483 305.124 64.2537 305.095 64.437H300.464C300.5 64.921 300.68 65.3097 301.003 65.603C301.325 65.8963 301.721 66.043 302.191 66.043C302.865 66.043 303.342 65.7607 303.621 65.196H304.974C304.79 65.7533 304.457 66.2117 303.973 66.571C303.496 66.923 302.902 67.099 302.191 67.099C301.611 67.099 301.091 66.9707 300.629 66.714C300.174 66.45 299.815 66.0833 299.551 65.614C299.294 65.1373 299.166 64.5873 299.166 63.964C299.166 63.3407 299.29 62.7943 299.54 62.325C299.796 61.8483 300.152 61.4817 300.607 61.225C301.069 60.9683 301.597 60.84 302.191 60.84C302.763 60.84 303.272 60.9647 303.72 61.214C304.167 61.4633 304.515 61.8153 304.765 62.27C305.014 62.7173 305.139 63.2343 305.139 63.821ZM303.83 63.425C303.822 62.963 303.657 62.5927 303.335 62.314C303.012 62.0353 302.612 61.896 302.136 61.896C301.703 61.896 301.333 62.0353 301.025 62.314C300.717 62.5853 300.533 62.9557 300.475 63.425H303.83ZM307.627 58.86V67H306.373V58.86H307.627ZM313.594 61.962V65.317C313.594 65.5443 313.645 65.7093 313.748 65.812C313.858 65.9073 314.041 65.955 314.298 65.955H315.068V67H314.078C313.513 67 313.08 66.868 312.78 66.604C312.479 66.34 312.329 65.911 312.329 65.317V61.962H311.614V60.939H312.329V59.432H313.594V60.939H315.068V61.962H313.594ZM319.358 60.84C319.82 60.84 320.231 60.939 320.59 61.137C320.957 61.335 321.243 61.6283 321.448 62.017C321.661 62.4057 321.767 62.875 321.767 63.425V67H320.524V63.612C320.524 63.0693 320.389 62.655 320.117 62.369C319.846 62.0757 319.476 61.929 319.006 61.929C318.537 61.929 318.163 62.0757 317.884 62.369C317.613 62.655 317.477 63.0693 317.477 63.612V67H316.223V58.86H317.477V61.643C317.69 61.3863 317.958 61.1883 318.28 61.049C318.61 60.9097 318.97 60.84 319.358 60.84ZM328.922 63.821C328.922 64.0483 328.907 64.2537 328.878 64.437H324.247C324.284 64.921 324.463 65.3097 324.786 65.603C325.109 65.8963 325.505 66.043 325.974 66.043C326.649 66.043 327.125 65.7607 327.404 65.196H328.757C328.574 65.7533 328.24 66.2117 327.756 66.571C327.279 66.923 326.685 67.099 325.974 67.099C325.395 67.099 324.874 66.9707 324.412 66.714C323.957 66.45 323.598 66.0833 323.334 65.614C323.077 65.1373 322.949 64.5873 322.949 63.964C322.949 63.3407 323.074 62.7943 323.323 62.325C323.58 61.8483 323.935 61.4817 324.39 61.225C324.852 60.9683 325.38 60.84 325.974 60.84C326.546 60.84 327.056 60.9647 327.503 61.214C327.95 61.4633 328.299 61.8153 328.548 62.27C328.797 62.7173 328.922 63.2343 328.922 63.821ZM327.613 63.425C327.606 62.963 327.441 62.5927 327.118 62.314C326.795 62.0353 326.396 61.896 325.919 61.896C325.486 61.896 325.116 62.0353 324.808 62.314C324.5 62.5853 324.317 62.9557 324.258 63.425H327.613ZM334.267 61.83C334.48 61.5513 334.77 61.3167 335.136 61.126C335.503 60.9353 335.917 60.84 336.379 60.84C336.907 60.84 337.388 60.972 337.82 61.236C338.26 61.4927 338.605 61.8557 338.854 62.325C339.104 62.7943 339.228 63.3333 339.228 63.942C339.228 64.5507 339.104 65.097 338.854 65.581C338.605 66.0577 338.26 66.4317 337.82 66.703C337.388 66.967 336.907 67.099 336.379 67.099C335.917 67.099 335.507 67.0073 335.147 66.824C334.788 66.6333 334.495 66.3987 334.267 66.12V69.882H333.013V60.939H334.267V61.83ZM337.952 63.942C337.952 63.524 337.864 63.1647 337.688 62.864C337.52 62.556 337.292 62.325 337.006 62.171C336.728 62.0097 336.427 61.929 336.104 61.929C335.789 61.929 335.488 62.0097 335.202 62.171C334.924 62.3323 334.696 62.567 334.52 62.875C334.352 63.183 334.267 63.546 334.267 63.964C334.267 64.382 334.352 64.7487 334.52 65.064C334.696 65.372 334.924 65.6067 335.202 65.768C335.488 65.9293 335.789 66.01 336.104 66.01C336.427 66.01 336.728 65.9293 337.006 65.768C337.292 65.5993 337.52 65.3573 337.688 65.042C337.864 64.7267 337.952 64.36 337.952 63.942ZM341.723 61.819C341.906 61.511 342.148 61.2727 342.449 61.104C342.757 60.928 343.12 60.84 343.538 60.84V62.138H343.219C342.727 62.138 342.353 62.2627 342.097 62.512C341.847 62.7613 341.723 63.194 341.723 63.81V67H340.469V60.939H341.723V61.819ZM347.319 67.099C346.747 67.099 346.23 66.9707 345.768 66.714C345.306 66.45 344.943 66.0833 344.679 65.614C344.415 65.1373 344.283 64.5873 344.283 63.964C344.283 63.348 344.419 62.8017 344.69 62.325C344.962 61.8483 345.332 61.4817 345.801 61.225C346.271 60.9683 346.795 60.84 347.374 60.84C347.954 60.84 348.478 60.9683 348.947 61.225C349.417 61.4817 349.787 61.8483 350.058 62.325C350.33 62.8017 350.465 63.348 350.465 63.964C350.465 64.58 350.326 65.1263 350.047 65.603C349.769 66.0797 349.387 66.45 348.903 66.714C348.427 66.9707 347.899 67.099 347.319 67.099ZM347.319 66.01C347.642 66.01 347.943 65.933 348.221 65.779C348.507 65.625 348.738 65.394 348.914 65.086C349.09 64.778 349.178 64.404 349.178 63.964C349.178 63.524 349.094 63.1537 348.925 62.853C348.757 62.545 348.533 62.314 348.254 62.16C347.976 62.006 347.675 61.929 347.352 61.929C347.03 61.929 346.729 62.006 346.45 62.16C346.179 62.314 345.963 62.545 345.801 62.853C345.64 63.1537 345.559 63.524 345.559 63.964C345.559 64.6167 345.724 65.1227 346.054 65.482C346.392 65.834 346.813 66.01 347.319 66.01ZM351.287 63.964C351.287 63.3407 351.412 62.7943 351.661 62.325C351.918 61.8483 352.27 61.4817 352.717 61.225C353.164 60.9683 353.678 60.84 354.257 60.84C354.99 60.84 355.595 61.016 356.072 61.368C356.556 61.7127 356.882 62.2077 357.051 62.853H355.698C355.588 62.5523 355.412 62.3177 355.17 62.149C354.928 61.9803 354.624 61.896 354.257 61.896C353.744 61.896 353.333 62.0793 353.025 62.446C352.724 62.8053 352.574 63.3113 352.574 63.964C352.574 64.6167 352.724 65.1263 353.025 65.493C353.333 65.8597 353.744 66.043 354.257 66.043C354.983 66.043 355.463 65.724 355.698 65.086H357.051C356.875 65.702 356.545 66.1933 356.061 66.56C355.577 66.9193 354.976 67.099 354.257 67.099C353.678 67.099 353.164 66.9707 352.717 66.714C352.27 66.45 351.918 66.0833 351.661 65.614C351.412 65.1373 351.287 64.5873 351.287 63.964ZM363.856 63.821C363.856 64.0483 363.841 64.2537 363.812 64.437H359.181C359.217 64.921 359.397 65.3097 359.72 65.603C360.042 65.8963 360.438 66.043 360.908 66.043C361.582 66.043 362.059 65.7607 362.338 65.196H363.691C363.507 65.7533 363.174 66.2117 362.69 66.571C362.213 66.923 361.619 67.099 360.908 67.099C360.328 67.099 359.808 66.9707 359.346 66.714C358.891 66.45 358.532 66.0833 358.268 65.614C358.011 65.1373 357.883 64.5873 357.883 63.964C357.883 63.3407 358.007 62.7943 358.257 62.325C358.513 61.8483 358.869 61.4817 359.324 61.225C359.786 60.9683 360.314 60.84 360.908 60.84C361.48 60.84 361.989 60.9647 362.437 61.214C362.884 61.4633 363.232 61.8153 363.482 62.27C363.731 62.7173 363.856 63.2343 363.856 63.821ZM362.547 63.425C362.539 62.963 362.374 62.5927 362.052 62.314C361.729 62.0353 361.329 61.896 360.853 61.896C360.42 61.896 360.05 62.0353 359.742 62.314C359.434 62.5853 359.25 62.9557 359.192 63.425H362.547ZM367.29 67.099C366.813 67.099 366.384 67.0147 366.003 66.846C365.629 66.67 365.332 66.4353 365.112 66.142C364.892 65.8413 364.774 65.5077 364.76 65.141H366.058C366.08 65.3977 366.201 65.614 366.421 65.79C366.648 65.9587 366.93 66.043 367.268 66.043C367.62 66.043 367.891 65.977 368.082 65.845C368.28 65.7057 368.379 65.5297 368.379 65.317C368.379 65.0897 368.269 64.921 368.049 64.811C367.836 64.701 367.495 64.58 367.026 64.448C366.571 64.3233 366.201 64.2023 365.915 64.085C365.629 63.9677 365.379 63.788 365.167 63.546C364.961 63.304 364.859 62.985 364.859 62.589C364.859 62.2663 364.954 61.973 365.145 61.709C365.335 61.4377 365.607 61.225 365.959 61.071C366.318 60.917 366.729 60.84 367.191 60.84C367.88 60.84 368.434 61.016 368.852 61.368C369.277 61.7127 369.504 62.1857 369.534 62.787H368.28C368.258 62.5157 368.148 62.2993 367.95 62.138C367.752 61.9767 367.484 61.896 367.147 61.896C366.817 61.896 366.564 61.9583 366.388 62.083C366.212 62.2077 366.124 62.3727 366.124 62.578C366.124 62.7393 366.182 62.875 366.3 62.985C366.417 63.095 366.56 63.183 366.729 63.249C366.897 63.3077 367.147 63.3847 367.477 63.48C367.917 63.5973 368.276 63.7183 368.555 63.843C368.841 63.9603 369.086 64.1363 369.292 64.371C369.497 64.6057 369.603 64.9173 369.611 65.306C369.611 65.6507 369.515 65.9587 369.325 66.23C369.134 66.5013 368.863 66.714 368.511 66.868C368.166 67.022 367.759 67.099 367.29 67.099ZM373.166 67.099C372.689 67.099 372.26 67.0147 371.879 66.846C371.505 66.67 371.208 66.4353 370.988 66.142C370.768 65.8413 370.65 65.5077 370.636 65.141H371.934C371.956 65.3977 372.077 65.614 372.297 65.79C372.524 65.9587 372.806 66.043 373.144 66.043C373.496 66.043 373.767 65.977 373.958 65.845C374.156 65.7057 374.255 65.5297 374.255 65.317C374.255 65.0897 374.145 64.921 373.925 64.811C373.712 64.701 373.371 64.58 372.902 64.448C372.447 64.3233 372.077 64.2023 371.791 64.085C371.505 63.9677 371.255 63.788 371.043 63.546C370.837 63.304 370.735 62.985 370.735 62.589C370.735 62.2663 370.83 61.973 371.021 61.709C371.211 61.4377 371.483 61.225 371.835 61.071C372.194 60.917 372.605 60.84 373.067 60.84C373.756 60.84 374.31 61.016 374.728 61.368C375.153 61.7127 375.38 62.1857 375.41 62.787H374.156C374.134 62.5157 374.024 62.2993 373.826 62.138C373.628 61.9767 373.36 61.896 373.023 61.896C372.693 61.896 372.44 61.9583 372.264 62.083C372.088 62.2077 372 62.3727 372 62.578C372 62.7393 372.058 62.875 372.176 62.985C372.293 63.095 372.436 63.183 372.605 63.249C372.773 63.3077 373.023 63.3847 373.353 63.48C373.793 63.5973 374.152 63.7183 374.431 63.843C374.717 63.9603 374.962 64.1363 375.168 64.371C375.373 64.6057 375.479 64.9173 375.487 65.306C375.487 65.6507 375.391 65.9587 375.201 66.23C375.01 66.5013 374.739 66.714 374.387 66.868C374.042 67.022 373.635 67.099 373.166 67.099ZM377.348 67.077C377.12 67.077 376.93 67 376.776 66.846C376.622 66.692 376.545 66.5013 376.545 66.274C376.545 66.0467 376.622 65.856 376.776 65.702C376.93 65.548 377.12 65.471 377.348 65.471C377.568 65.471 377.755 65.548 377.909 65.702C378.063 65.856 378.14 66.0467 378.14 66.274C378.14 66.5013 378.063 66.692 377.909 66.846C377.755 67 377.568 67.077 377.348 67.077Z"></path>
</svg>
